<svg xmlns="http://www.w3.org/2000/svg" version="1.1" x="0" y="0" width="52" height="52" viewBox="-103.2 -0.7 52 52" xml:space="preserve"><style type="text/css">
	.st0{fill:#313133;}
	.st1{fill:#EFEFEF;}
</style><circle class="st0" cx="-77.7" cy="24.8" r="22.5"/><path class="st1" d="M-77.7 50.3c-14.1 0-25.5-11.4-25.5-25.5 0-14.1 11.4-25.5 25.5-25.5s25.5 11.4 25.5 25.5C-52.2 38.9-63.6 50.3-77.7 50.3zM-77.7 2.3c-12.4 0-22.5 10.1-22.5 22.5s10.1 22.5 22.5 22.5c12.4 0 22.5-10.1 22.5-22.5S-65.3 2.3-77.7 2.3zM-77.7 50.3c-14.1 0-25.5-11.4-25.5-25.5 0-14.1 11.4-25.5 25.5-25.5s25.5 11.4 25.5 25.5C-52.2 38.9-63.6 50.3-77.7 50.3zM-77.7 2.3c-12.4 0-22.5 10.1-22.5 22.5s10.1 22.5 22.5 22.5c12.4 0 22.5-10.1 22.5-22.5S-65.3 2.3-77.7 2.3zM-78.8 28.2c0 0.5-0.2 0.6-0.5 0.6l-1.7 0.1v1.5h6.3v-1.5l-1.9-0.1v-10h-1.8l-3.3 2 0.8 1.4 2.1-1.1V28.2z"/></svg>