<svg xmlns="http://www.w3.org/2000/svg" width="52" height="52" viewBox="0 0 52 52" version="1.1"><title>2 ON</title><desc>Created with Sketch.</desc><g stroke="none" stroke-width="1" fill="none" fill-rule="evenodd"><g transform="translate(2.000000, 2.000000)"><path d="M24 48C37.3 48 48 37.3 48 24 48 10.7 37.3 0 24 0 10.7 0 0 10.7 0 24 0 37.3 10.7 48 24 48L24 48 24 48Z" stroke="#EFEFEF" stroke-width="3" fill="#313133"/><g transform="translate(20.000000, 18.000000)" fill="#EFEFEF"><path d="M0 11.8L7.2 11.8 7.2 10 2.7 10 5.6 6.6C6.5 5.5 7.1 4.4 7.1 3.2 7.1 1.3 5.9 0 3.7 0 2.3 0 1 0.4 0.1 0.8L0.1 3.7 1.9 3.9 1.9 2.6C1.9 2.2 1.9 2.1 2.3 1.9 2.5 1.9 2.8 1.8 3.3 1.8 4.2 1.8 4.8 2.3 4.8 3.3 4.8 4.4 4.4 4.8 3.6 5.9L0 10.4 0 11.8 0 11.8Z"/></g></g></g></svg>