<svg xmlns="http://www.w3.org/2000/svg" width="52" height="52" viewBox="0 0 52 52" version="1.1"><title>2 ON</title><desc>Created with Sketch.</desc><g stroke="none" stroke-width="1" fill="none" fill-rule="evenodd"><g transform="translate(2.000000, 2.000000)"><path d="M24 48C37.3 48 48 37.3 48 24 48 10.7 37.3 0 24 0 10.7 0 0 10.7 0 24 0 37.3 10.7 48 24 48L24 48Z" stroke="#A8DC28" stroke-width="3" fill="#313133"/><g transform="translate(18.000000, 14.000000)" fill="#A8DC28"><path d="M2 15.8L9.2 15.8 9.2 14 4.7 14 7.6 10.6C8.5 9.5 9.1 8.4 9.1 7.2 9.1 5.3 7.9 4 5.7 4 4.3 4 3 4.4 2.1 4.8L2.1 7.7 3.9 7.9 3.9 6.6C3.9 6.2 3.9 6.1 4.3 5.9 4.5 5.9 4.8 5.8 5.3 5.8 6.2 5.8 6.8 6.3 6.8 7.3 6.8 8.4 6.4 8.8 5.6 9.9L2 14.4 2 15.8Z"/></g></g></g></svg>