<svg xmlns="http://www.w3.org/2000/svg" version="1.1" x="0" y="0" width="52" height="52" viewBox="93.3 0.5 52 52" xml:space="preserve"><style type="text/css">
	.st0{fill:#313133;}
	.st1{fill:#EFEFEF;}
</style><circle class="st0" cx="118.8" cy="26" r="22.5"/><path class="st1" d="M118.8 51.5c-14.1 0-25.5-11.4-25.5-25.5s11.4-25.5 25.5-25.5 25.5 11.4 25.5 25.5S132.9 51.5 118.8 51.5zM118.8 3.5c-12.4 0-22.5 10.1-22.5 22.5s10.1 22.5 22.5 22.5 22.5-10.1 22.5-22.5S131.2 3.5 118.8 3.5zM118.8 51.5c-14.1 0-25.5-11.4-25.5-25.5s11.4-25.5 25.5-25.5 25.5 11.4 25.5 25.5S132.9 51.5 118.8 51.5zM118.8 3.5c-12.4 0-22.5 10.1-22.5 22.5s10.1 22.5 22.5 22.5 22.5-10.1 22.5-22.5S131.2 3.5 118.8 3.5zM117.2 25.1l-0.2 1.6h0.7c1.9 0 2.6 0.6 2.6 1.7 0 1.3-0.8 1.7-2 1.7-0.9 0-2.1-0.4-2.8-0.8l-0.6 1.7c0.7 0.5 2.1 0.9 3.5 0.9 2.8 0 4.1-1.6 4.1-3.7 0-1-0.3-2.1-1.8-2.6 0.9-0.6 1.6-1.6 1.6-2.9 0-1.6-1.1-2.9-3.4-2.9-1.4 0-2.7 0.4-3.7 0.9v2.9l1.8 0.1v-1.3c0-0.3 0-0.5 0.4-0.6 0.3-0.1 0.6-0.2 1.1-0.2 1 0 1.6 0.5 1.6 1.4 0 0.9-0.4 1.5-1.1 1.9H117.2z"/></svg>