<svg xmlns="http://www.w3.org/2000/svg" width="52" height="52" viewBox="0 0 52 52" version="1.1"><title>3 ON</title><desc>Created with Sketch.</desc><g stroke="none" stroke-width="1" fill="none" fill-rule="evenodd"><g transform="translate(2.000000, 2.000000)"><circle stroke="#A8DC28" stroke-width="3" fill="#313133" cx="24" cy="24" r="24"/><path d="M22.3 23.1L22.1 24.8 22.8 24.8C24.8 24.8 25.4 25.3 25.4 26.5 25.4 27.8 24.6 28.2 23.5 28.2 22.6 28.2 21.4 27.9 20.6 27.5L20 29.2C20.7 29.6 22.1 30.1 23.5 30.1 26.3 30.1 27.6 28.5 27.6 26.4 27.6 25.4 27.3 24.3 25.8 23.8 26.7 23.2 27.4 22.2 27.4 20.9 27.4 19.2 26.3 18 24 18 22.6 18 21.3 18.4 20.3 18.9L20.3 21.8 22.2 21.9 22.2 20.6C22.2 20.3 22.2 20.1 22.5 20 22.8 19.9 23.2 19.8 23.7 19.8 24.7 19.8 25.2 20.3 25.2 21.2 25.2 22.1 24.8 22.7 24.1 23.1L22.3 23.1Z" fill="#A8DC28"/></g></g></svg>