<?xml version="1.0" encoding="utf-8"?>
<!-- Generator: Adobe Illustrator 18.0.0, SVG Export Plug-In . SVG Version: 6.00 Build 0)  -->
<!DOCTYPE svg PUBLIC "-//W3C//DTD SVG 1.1//EN" "http://www.w3.org/Graphics/SVG/1.1/DTD/svg11.dtd">
<svg version="1.1" id="Layer_1" xmlns:sketch="http://www.bohemiancoding.com/sketch/ns"
	 xmlns="http://www.w3.org/2000/svg" xmlns:xlink="http://www.w3.org/1999/xlink" x="0px" y="0px" width="112px" height="112px"
	 viewBox="0 0 112 112" style="enable-background:new 0 0 112 112;" xml:space="preserve">
<style type="text/css">
	.st0{fill:#FFFFFF;}
	.st1{fill:none;stroke:#313133;stroke-width:2;stroke-linecap:round;stroke-linejoin:round;stroke-dasharray:1,4;}
	.st2{fill:#313133;}
	.st3{fill:#EFEFEF;}
</style>
<title>4x4</title>
<desc>Created with Sketch.</desc>
<g id="landing-page" sketch:type="MSPage">
	<g id="Desktop---landing-Page-Motors" transform="translate(-1146.000000, -807.000000)" sketch:type="MSArtboardGroup">
		<g id="Find-a-car" transform="translate(-43.000000, 537.000000)" sketch:type="MSLayerGroup">
			<g id="Part2-Copy" transform="translate(227.000000, 242.000000)" sketch:type="MSShapeGroup">
				<g id="_x34_x4" transform="translate(961.000000, 27.000000)">
					<path id="Fill-1" class="st0" d="M112.4,56.7c0-30.6-24.9-55.5-55.5-55.5S1.4,26.1,1.4,56.7c0,30.6,24.9,55.5,55.5,55.5
						S112.4,87.3,112.4,56.7"/>
					<path id="Stroke-2-Copy-7" class="st1" d="M101.9,78.4c3.2-6.6,5-14,5-21.8c0-27.6-22.4-50-50-50s-50,22.4-50,50
						c0,21.5,13.7,39.9,32.8,46.9c5.4,2,11.2,3.1,17.2,3.1C76.6,106.7,93.8,95.1,101.9,78.4L101.9,78.4z"/>
					<path id="Fill-3" class="st2" d="M96.1,49.1c-0.4-0.2-17.1-2.7-17.6-2.7l-10.7-7.6c0,0-2.6-2.6-19.5-2.3l-12,0l0,0h-2.6
						c0,0-3.4,0.2-4.3,1.8l-4.8,8.9l-1.3,8.6c0,0-0.5,3.7,3.1,4.3l3.3,0.3c-0.1-0.4-0.1-0.8-0.1-1.3c0-3.7,2.3-6.9,5.6-8.1
						c0.9-0.3,1.9-0.4,3.1-0.4c0,0,2.9-0.1,5.3,2c1.6,1.4,2.5,3.4,2.7,5.5l0.2,1.6l29.2,0l0.4-3.1c0,0,0.1-0.4,0.3-1.1
						c0.5-1.2,1.3-2.3,2.3-3.1c1.2-1,3-1.8,5.6-1.8c0,0,5.3-0.2,7.7,5.3c0,0.1,0,0.1,0.1,0.2c0.3,1,0.4,2,0.4,3v0.7c0,0,2,0,2.1,0
						l1.4,0c0,0,1.9-0.2,2.2-2.5c0-0.2,0.1-0.5,0.1-0.7v-3.6C98.1,52.9,98.3,50.3,96.1,49.1L96.1,49.1z M36.5,46h-8l2.5-6.1
						c0,0,0.4-1.6,2-1.6h7c0,0,0,0,0.1,0h2.5l-1.3,1.4L36.5,46L36.5,46z M42,46.1c-0.2,0-0.3,0-0.5,0L38.9,46l1.1-1.7l4.6-6.1h10.3
						l0.6,7.9H42L42,46.1z M57.6,46.1L57,38.3c4,0,7,0.7,8.6,1.2c0.9,0.3,1.7,0.8,2.4,1.4l7.1,5.3H57.6L57.6,46.1z"/>
					<path id="Fill-4" class="st2" d="M38,52.4c-3.7,0-6.7,3.1-6.7,6.9c0,3.8,3,6.9,6.7,6.9c3.7,0,6.7-3.1,6.7-6.9
						C44.7,55.5,41.7,52.4,38,52.4L38,52.4z M38,62.9c-1.9,0-3.5-1.6-3.5-3.6c0-2,1.6-3.6,3.5-3.6s3.5,1.6,3.5,3.6
						C41.5,61.3,39.9,62.9,38,62.9L38,62.9z"/>
					<path id="Fill-5" class="st2" d="M38,52.4c-3.7,0-6.7,3.1-6.7,6.9c0,3.8,3,6.9,6.7,6.9c3.7,0,6.7-3.1,6.7-6.9
						C44.7,55.5,41.7,52.4,38,52.4L38,52.4z M38,62.9c-1.9,0-3.5-1.6-3.5-3.6c0-2,1.6-3.6,3.5-3.6s3.5,1.6,3.5,3.6
						C41.5,61.3,39.9,62.9,38,62.9L38,62.9z"/>
					<path id="Fill-6" class="st2" d="M84,52.4c-3.7,0-6.7,3.1-6.7,6.9c0,3.8,3,6.9,6.7,6.9c3.7,0,6.7-3.1,6.7-6.9
						C90.7,55.5,87.7,52.4,84,52.4L84,52.4z M84,62.9c-1.9,0-3.5-1.6-3.5-3.6c0-2,1.6-3.6,3.5-3.6c1.9,0,3.5,1.6,3.5,3.6
						C87.6,61.3,86,62.9,84,62.9L84,62.9z"/>
					<path id="Fill-7" class="st3" d="M58.7,50.6h3.1v1.1h-3.1V50.6z"/>
					<path id="Fill-8" class="st3" d="M44.7,50.6h3.1v1.1h-3.1V50.6z"/>
					<path class="st2" d="M50.2,74.7l-0.6,1.9v0.8h-2l2.3-4.7L48.5,72l-2.6,5.5v1.2h3.6v0.9c0,0.3-0.2,0.4-0.4,0.4L48.2,80v1.1h4.1
						V80l-1.2-0.1v-1.3h1.3v-1.3h-1.2v-2.6H50.2z M57.3,79.7c0.1,0.2,0.1,0.3-0.1,0.3l-0.4,0v1.1h3.3v-1.1L59.3,80l-1.8-2.4l1.5-1.9
						c0.2-0.2,0.3-0.3,0.6-0.3l0.4,0v-1.1h-2.8v1.1l0.6,0l-1.1,1.4l-0.8-1.1c-0.1-0.2-0.1-0.3,0.2-0.4l0.4,0v-1.1h-3.3v1.1l0.7,0.1
						l1.7,2.4l-1.6,2c-0.2,0.2-0.3,0.3-0.6,0.3l-0.4,0v1.1h2.9v-1.1l-0.7,0l1.2-1.4L57.3,79.7z M65.2,74.7l-0.6,1.9v0.8h-2l2.3-4.7
						L63.5,72l-2.6,5.5v1.2h3.6v0.9c0,0.3-0.2,0.4-0.4,0.4L63.2,80v1.1h4.1V80l-1.2-0.1v-1.3h1.3v-1.3h-1.2v-2.6H65.2z"/>
				</g>
			</g>
		</g>
	</g>
</g>
</svg>
