<svg xmlns:sketch="http://www.bohemiancoding.com/sketch/ns" xmlns="http://www.w3.org/2000/svg" xmlns:xlink="http://www.w3.org/1999/xlink" version="1.1" id="Layer_1" x="0" y="0" width="288" height="318" viewBox="-335 122 288 318" xml:space="preserve" enable-background="new -335 122 288 318">
  <style type="text/css">
    
	.st0{fill:#31C5F2;}
	.st1{fill:#FFFFFF;}
	.st2{fill:none;stroke:#FFFFFF;stroke-width:1.372;}
	.st3{fill:#604526;}
	.st4{fill:#EFEFEF;}
	.st5{fill:#A4CC29;}
	.st6{fill:#A8DC28;}
	.st7{fill:#EFB892;}
	.st8{fill:#313133;}
	.st9{fill:#FCC397;}
	.st10{fill:#58595B;}
	.st11{fill:#F7A623;}
	.st12{fill:#684D32;}
	.st13{fill:#8E7E70;}
	.st14{fill:#424241;}
	.st15{fill:#8B572A;}
	.st16{fill:none;stroke:#FFFFFF;stroke-width:0.686;}
	.st17{fill:#795134;}
	.st18{fill:#451613;}
	.st19{fill:#FDBB16;}
	.st20{fill:#D2FFFD;}
	.st21{fill:#D8237D;}
	.st22{fill:#755739;}
	.st23{fill:#FFBD6C;}
	.st24{fill:#5CAA3F;}
	.st25{fill:#BD0FE1;}
	.st26{fill:#4A4A4A;}

  </style>
  <title>
    500
  </title>
  <desc>
    Created with Sketch.
  </desc>
  <g id="Page-1" sketch:type="MSPage">
    <g id="A4" transform="translate(-290.000000, -388.000000)" sketch:type="MSArtboardGroup">
      <g id="_x35_00" transform="translate(290.000000, 388.000000)" sketch:type="MSLayerGroup">
        <path id="Fill-1" sketch:type="MSShapeGroup" class="st0" d="M-119.4 153c13.2 0 23.9 10.7 23.9 23.9 0 13.2-10.7 23.9-23.9 23.9s-23.9-10.7-23.9-23.9C-143.3 163.6-132.6 153-119.4 153"/>
        <path id="Fill-2" sketch:type="MSShapeGroup" class="st1" d="M-264.6 153c13.2 0 23.9 10.7 23.9 23.9 0 13.2-10.7 23.9-23.9 23.9s-23.9-10.7-23.9-23.9C-288.5 163.6-277.8 153-264.6 153L-264.6 153z"/>
        <path id="Stroke-3" sketch:type="MSShapeGroup" class="st2" d="M-264.6 153c13.2 0 23.9 10.7 23.9 23.9 0 13.2-10.7 23.9-23.9 23.9s-23.9-10.7-23.9-23.9C-288.5 163.6-277.8 153-264.6 153L-264.6 153z"/>
        <path id="Fill-4" sketch:type="MSShapeGroup" class="st3" d="M-277.9 173.4h26.7l0.1 0.2V167c0-1.1-0.9-1.9-1.9-1.9h-23.3c-1.1 0-1.9 0.9-1.9 1.9v6.7 0.3L-277.9 173.4"/>
        <path id="Fill-5" sketch:type="MSShapeGroup" class="st4" d="M-191.6 197.7c-28.2 0-51.2 23-51.2 51.2 0 28.2 23 51.2 51.2 51.2s51.2-23 51.2-51.2C-140.4 220.7-163.4 197.7-191.6 197.7"/>
        <path id="Fill-6" sketch:type="MSShapeGroup" class="st5" d="M-190.6 419.9h25.8v19.3h-25.8V419.9z"/>
        <path id="Fill-7" sketch:type="MSShapeGroup" class="st6" d="M-218.9 419.9h28.3v19.3h-28.3V419.9z"/>
        <path id="Fill-8" sketch:type="MSShapeGroup" class="st6" d="M-164.8 419.9h0.1v19.3h-0.1V419.9z"/>
        <path id="Fill-9" sketch:type="MSShapeGroup" class="st7" d="M-181.7 346.4l-4.1 1.8c-4.3 1.5-6.3 6.2-4.8 10.3 1.5 4.3 6.2 6.3 10.3 4.8l27.1-11.7c4.3-1.5 6.3-6.2 4.8-10.3 -1.5-4-6-6.1-10-4.9l4.2-1.8c4.3-1.5 6.3-6.2 4.8-10.3 -1.6-4.3-6.2-6.3-10.3-4.8l-27.1 11.7c-4.3 1.5-6.3 6.2-4.8 10.3C-190.1 345.7-185.7 347.7-181.7 346.4"/>
        <path id="Fill-10" sketch:type="MSShapeGroup" class="st7" d="M-148.4 376.1c-1.4-3.8-5.4-5.8-9.3-5.1l5.2-2.2c4.3-1.5 6.3-6.2 4.8-10.3 -1.7-4.2-6.2-6.2-10.3-4.8l-27.1 11.7c-4.3 1.5-6.3 6.2-4.8 10.3 1.4 3.9 5.4 5.9 9.2 5.1l-5.1 2.2c-4.2 1.5-6.2 6-4.9 10.1h-0.1v27h20.9v-15c12.8-9.3 17.9-17.2 19.5-20.4C-148.1 382.6-147.3 379.2-148.4 376.1"/>
        <path id="Fill-11" sketch:type="MSShapeGroup" class="st0" d="M-185.8 383l5.1-2.2c-3.8 0.8-7.8-1.2-9.2-5.1 -1.5-4.1 0.5-8.8 4.8-10.3l10-4.3 -5.2 2.2c-4.1 1.5-8.8-0.5-10.3-4.8 -1.5-4.1 0.5-8.8 4.8-10.3l4.1-1.8c-4 1.3-8.5-0.7-9.9-4.9 -1.5-4.1 0.5-8.8 4.8-10.3l11.7-5.1v-6.8h-33.5v72.2h17.6C-191.5 387.9-189.5 384.3-185.8 383"/>
        <path id="Fill-12" sketch:type="MSShapeGroup" class="st8" d="M-191.6 189.5c-32.8 0-59.5 26.7-59.5 59.4 0 30 22.5 54.9 51.5 58.8v11.6h15.5v-11.5c29.4-3.7 52.1-28.7 52-58.9C-132.1 216.2-158.8 189.5-191.6 189.5L-191.6 189.5zM-191.6 299.6c-28 0-50.7-22.7-50.7-50.7 0-28 22.7-50.7 50.7-50.7s50.7 22.7 50.7 50.7S-163.6 299.6-191.6 299.6L-191.6 299.6z"/>
        <path id="Fill-13" sketch:type="MSShapeGroup" class="st9" d="M-190.6 387.7c0-0.1 0.1-0.3 0.2-0.4C-190.5 387.4-190.5 387.5-190.6 387.7"/>
        <path id="Fill-14" sketch:type="MSShapeGroup" class="st9" d="M-191.1 390.5v-0.4V390.5"/>
        <path id="Fill-15" sketch:type="MSShapeGroup" class="st9" d="M-190 386.4c0.1-0.2 0.2-0.4 0.4-0.6C-189.7 386-189.8 386.2-190 386.4"/>
        <path id="Fill-16" sketch:type="MSShapeGroup" class="st9" d="M-190.3 387c0.1-0.2 0.2-0.3 0.2-0.5C-190.1 386.7-190.2 386.9-190.3 387"/>
        <path id="Fill-17" sketch:type="MSShapeGroup" class="st9" d="M-190.9 389c0-0.1 0-0.2 0.1-0.4C-190.9 388.8-190.9 388.9-190.9 389"/>
        <path id="Fill-18" sketch:type="MSShapeGroup" class="st9" d="M-190.8 388.3c0-0.1 0.1-0.2 0.1-0.4C-190.7 388.1-190.8 388.2-190.8 388.3"/>
        <path id="Fill-19" sketch:type="MSShapeGroup" class="st9" d="M-191 389.7v-0.4V389.7"/>
        <path id="Fill-20" sketch:type="MSShapeGroup" class="st9" d="M-188.9 385c0.1-0.1 0.2-0.2 0.3-0.3C-188.7 384.8-188.8 384.9-188.9 385"/>
        <path id="Fill-21" sketch:type="MSShapeGroup" class="st9" d="M-186.7 383.4c-0.2 0.1-0.3 0.2-0.4 0.2C-187 383.6-186.9 383.5-186.7 383.4"/>
        <path id="Fill-22" sketch:type="MSShapeGroup" class="st9" d="M-187.4 383.8c-0.1 0.1-0.3 0.2-0.4 0.3C-187.7 384-187.6 383.9-187.4 383.8"/>
        <path id="Fill-23" sketch:type="MSShapeGroup" class="st9" d="M-185.8 383c-0.2 0.1-0.5 0.2-0.7 0.3C-186.3 383.2-186 383.1-185.8 383"/>
        <path id="Fill-24" sketch:type="MSShapeGroup" class="st9" d="M-175.1 361.1L-175.1 361.1l5.5-2.4L-175.1 361.1"/>
        <path id="Fill-25" sketch:type="MSShapeGroup" class="st9" d="M-191 391.5h-17.6v-62.8l-4.7 2.4c-24.8 4.7-15.6 22.3-15.6 43.2 0 14.3 4.7 24.8 12.9 31v14.8h25.2v-27h0.1c-0.2-0.7-0.4-1.5-0.4-2.3C-191.1 391-191.1 391.3-191 391.5"/>
        <path id="Fill-26" sketch:type="MSShapeGroup" class="st9" d="M-188.4 384.5c0.1-0.1 0.2-0.2 0.3-0.3C-188.2 384.3-188.3 384.4-188.4 384.5"/>
        <path id="Fill-27" sketch:type="MSShapeGroup" class="st9" d="M-185.1 330.5L-185.1 330.5l-1.7 0.7L-185.1 330.5"/>
        <path id="Fill-28" sketch:type="MSShapeGroup" class="st9" d="M-189.4 385.6c0.1-0.1 0.2-0.2 0.3-0.4C-189.2 385.4-189.3 385.5-189.4 385.6"/>
        <path id="Fill-29" sketch:type="MSShapeGroup" class="st10" d="M-108.3 182.2v2.5c0 1 0.9 1.9 1.9 1.9h1.3c1.1 0 1.9-0.8 1.9-1.9v-2.5"/>
        <path id="Fill-30" sketch:type="MSShapeGroup" class="st10" d="M-134.5 182.2v2.5c0 1 0.9 1.9 1.9 1.9h1.3c1.1 0 1.9-0.8 1.9-1.9v-2.5"/>
        <path id="Fill-31" sketch:type="MSShapeGroup" class="st4" d="M-102.4 179c0-1.9-0.4-5.1-2.9-5.6 -1-4.5-2.7-9.7-3.7-9.7 -0.5 0-6.3-0.3-10.2-0.3 -4 0-9.4 0.2-9.9 0.2 -0.8 0-3.1 5.4-4.1 9.8 -2.7 0.5-3 3.9-3 5.7v0.2 2.4c0 0.2 0.2 0.4 0.4 0.4h1.5v0.1h4.8v-0.1h21.2v0.1h4.8v-0.1h0.6c0.2 0 0.4-0.2 0.4-0.4v-1.4c0-0.1 0.1-0.5 0.1-1.1C-102.3 179.1-102.3 179-102.4 179"/>
        <path id="Fill-32" sketch:type="MSShapeGroup" class="st11" d="M-131.4 180.8c-1.5 0-2.7-1.2-2.7-2.6 0-1.4 1.2-2.6 2.7-2.6s2.7 1.2 2.7 2.6C-128.8 179.6-130 180.8-131.4 180.8"/>
        <path id="Fill-33" sketch:type="MSShapeGroup" class="st11" d="M-107 180.8c-1.5 0-2.7-1.2-2.7-2.6 0-1.4 1.2-2.6 2.7-2.6s2.7 1.2 2.7 2.6C-104.4 179.6-105.6 180.8-107 180.8"/>
        <path id="Fill-34" sketch:type="MSShapeGroup" class="st0" d="M-130.4 173.6h-0.1v-0.1c0.1-0.3 2.2-7.2 3.6-7.7s7.4-0.5 7.6-0.5h1.5c2.8 0 6.1 0.1 6.7 0.6 0.9 0.6 3.4 7.4 3.5 7.7v0.1l-0.1 0.1h-22.7"/>
        <path id="Fill-35" sketch:type="MSShapeGroup" class="st1" d="M-124.1 176.5h10.1v2.3h-10.1V176.5z"/>
        <path id="Fill-36" sketch:type="MSShapeGroup" class="st6" d="M-119.4 298.1c13.2 0 23.9 10.7 23.9 23.9 0 13.2-10.7 23.9-23.9 23.9s-23.9-10.7-23.9-23.9S-132.6 298.1-119.4 298.1"/>
        <path id="Fill-37" sketch:type="MSShapeGroup" class="st1" d="M-89.3 225.6c13.2 0 23.9 10.7 23.9 23.9s-10.7 23.9-23.9 23.9 -23.9-10.7-23.9-23.9C-113.2 236.2-102.5 225.6-89.3 225.6L-89.3 225.6z"/>
        <path id="Stroke-38" sketch:type="MSShapeGroup" class="st2" d="M-89.3 225.6c13.2 0 23.9 10.7 23.9 23.9s-10.7 23.9-23.9 23.9 -23.9-10.7-23.9-23.9C-113.2 236.2-102.5 225.6-89.3 225.6L-89.3 225.6z"/>
        <path id="Fill-39" sketch:type="MSShapeGroup" class="st12" d="M-85.2 236.4h-1.1v-0.1h-7.2v0.1c-1.5 0-2.8 1.2-2.8 2.7v1.8h2.2v-1.8c0-0.3 0.2-0.6 0.6-0.6h1.9v0.1h6.4c0.3 0 0.6 0.2 0.6 0.6v1.8h2.2v-1.8C-82.5 237.7-83.7 236.4-85.2 236.4"/>
        <path id="Fill-40" sketch:type="MSShapeGroup" class="st12" d="M-85 250.6v2.5c0 0.9-0.7 1.6-1.7 1.6h-4.9c-0.9 0-1.7-0.7-1.7-1.6v-2.5h-11.9v8.5c0 0.9 0.7 1.6 1.7 1.6h28.2c0.9 0 1.7-0.7 1.7-1.6v-8.5H-85"/>
        <path id="Fill-41" sketch:type="MSShapeGroup" class="st13" d="M-75.3 241.1h-4.6V241H-82v0.1h-14.7l-2.2-0.1v0.1h-4.6c-0.9 0-1.7 0.7-1.7 1.6v8h11.9v2.4c0 0.9 0.8 1.6 1.7 1.6h4.9c1 0 1.7-0.7 1.7-1.6v-2.4h11.4v-8C-73.6 241.8-74.3 241.1-75.3 241.1"/>
        <path id="Fill-42" sketch:type="MSShapeGroup" class="st14" d="M-87.2 250.5h-3.7c-0.6 0-1 0.5-1 1v1.2c0 0.6 0.5 1 1 1h3.7c0.6 0 1-0.5 1-1v-1.2C-86.1 250.9-86.6 250.5-87.2 250.5"/>
        <path id="Fill-43" sketch:type="MSShapeGroup" class="st6" d="M-294.6 225.6c13.2 0 23.9 10.7 23.9 23.9s-10.7 23.9-23.9 23.9c-13.2 0-23.9-10.7-23.9-23.9C-318.5 236.2-307.8 225.6-294.6 225.6"/>
        <path id="Fill-44" sketch:type="MSShapeGroup" class="st0" d="M-264.6 298.1c13.2 0 23.9 10.7 23.9 23.9 0 13.2-10.7 23.9-23.9 23.9s-23.9-10.7-23.9-23.9S-277.8 298.1-264.6 298.1"/>
        <path id="Fill-45" sketch:type="MSShapeGroup" class="st6" d="M-192 123c13.2 0 23.9 10.7 23.9 23.9 0 13.2-10.7 23.9-23.9 23.9s-23.9-10.7-23.9-23.9C-215.9 133.7-205.2 123-192 123"/>
        <path id="Fill-46" sketch:type="MSShapeGroup" class="st15" d="M-182.8 138.5c0.1 0 0.2-0.1 0.2-0.2 0.6-1.7-0.3-4.4-0.6-5.3 -0.5 0.1-0.9 0.2-1.4 0.5 0 0-0.9 0.3-1.8 2.7C-185.5 138.4-183.6 138.5-182.8 138.5"/>
        <path id="Fill-47" sketch:type="MSShapeGroup" class="st15" d="M-176.4 136.8l-2.2-1.1c0 0 0.1-0.6-0.5-1 -0.4-0.3-1.8-1.6-3.5-1.7 0.4 1.1 1.1 3.7 0.6 5.5 -0.1 0.3-0.4 0.5-0.7 0.5s-0.8 0-1.4-0.1c-0.8-0.2-1.8-0.7-2.5-2 -0.1 0.3-0.2 0.6-0.3 1 -0.4 1.4-2 2.4-2.8 2.8 -0.6 0.2-1.2 0.4-2 0.5l-9.4-0.2c0 0-1.3 0.1-2.3-2.4l-0.3-1.4 -0.2-0.9c0 0-0.2-0.8-0.8-0.8 0 0-0.5 0.1-0.3 1.2l0.4 2.4c0 0 0.4 1.9 0.7 2.6 0 0 0.2 2-0.2 2.8 0 0-1.2 1.7-0.1 5.5 0 0 0.2 2.1-0.4 3.7v3.8h0.1c0 0 0 0.1 0.2 0.4s0.3 0.3 0.4 0.8c0 0-0.1 0.9 2.2 0.3 0 0 0.8-0.2 0.4-0.8 0 0-0.8-0.6-1.2-0.9l-0.2-0.3v-1.5l1.5-5 -0.1 3.4c0 0-0.1 2 0.6 2.9l0.2 0.8c0 0.1 0 0.2 0.1 0.3 0.2 0.4 0.3 0.4 0.3 0.9 0 0-0.3 0.9 2.3 0.7 0 0 0.9-0.1 0.6-0.8 0 0-0.7-0.8-1.1-1.2l-0.3-0.7c-0.1-0.9-0.3-2.3-0.1-3.3l1.5-4c0 0 0.8-1.6 3-1l5.3 1c0 0 0.8 0.3 0.8 1.3l-0.6 5.9c0 0 0 0.4 0.3 1 0.1 0.2 0.1 0.3 0 0.7 0 0-0.5 0.9 2.3 1.2h0.1c0 0 1 0 0.8-0.7 0 0-0.6-1-1-1.4l-0.3-1.1h-0.1l0.9-5.2c0 0 0.2-1 0.4 1.2l0.2 3.9c0 0 0 0.1 0.2 0.5s0.4 0.4 0.4 0.9c0 0-0.2 0.9 2.4 0.5 0 0 0.9-0.2 0.5-0.9 0 0-0.8-0.7-1.3-1.1l-0.2-0.2 0.7-11.6c0.2-1 0.3-2 0.4-1.9l0.1-0.2 0.6-1.7c0.1-0.3 0.4-0.5 0.7-0.4 1.1 0.1 3.7 0.1 4.5-2.5C-176 137.2-176.2 137-176.4 136.8L-176.4 136.8zM-179.8 136.2c0 0.2-0.2 0.3-0.4 0.2 -0.2 0-0.3-0.2-0.2-0.4 0.1-0.1 0.2-0.2 0.4-0.2S-179.7 136.1-179.8 136.2L-179.8 136.2z"/>
        <path id="Stroke-48" sketch:type="MSShapeGroup" class="st16" d="M-315.7 304.1l0.1-0.1M-257.6 274.4h0.3M-319 197.8h0.1M-244.1 122.9L-244.1 122.9M-66.5 304.1l-0.1-0.1M-124.6 274.4L-124.6 274.4M-63.1 197.8L-63.1 197.8M-124.4 220.1h-0.3M-138.1 122.9L-138.1 122.9"/>
        <path id="Fill-49" sketch:type="MSShapeGroup" class="st17" d="M-278.5 317.8h28.1v17.3h-28.1V317.8z"/>
        <path id="Fill-50" sketch:type="MSShapeGroup" class="st18" d="M-254 308.8h-20.9l-5 9.1h30.8L-254 308.8"/>
        <path id="Fill-51" sketch:type="MSShapeGroup" class="st17" d="M-272.8 307.3h3.3v5.5h-3.3V307.3z"/>
        <path id="Fill-52" sketch:type="MSShapeGroup" class="st18" d="M-267.8 323.5h6.9v11.6h-6.9V323.5z"/>
        <path id="Fill-53" sketch:type="MSShapeGroup" class="st19" d="M-265.7 328.5c0 0.3-0.2 0.5-0.5 0.5s-0.5-0.2-0.5-0.5 0.2-0.5 0.5-0.5C-265.9 327.9-265.7 328.2-265.7 328.5"/>
        <path id="Fill-54" sketch:type="MSShapeGroup" class="st20" d="M-275.1 323.3h5v5h-5V323.3z"/>
        <path id="Fill-55" sketch:type="MSShapeGroup" class="st20" d="M-258.6 323.3h5v5h-5V323.3z"/>
        <path id="Fill-56" sketch:type="MSShapeGroup" class="st1" d="M-47 193.6v-7.5h-3c-0.4 0-1.1-2.6-1.9-4.1l2.6-2.3 -4.5-4.5 -3 2.6c-1.5-0.8-4.9-1.5-4.9-1.9V171h-7.5v5.3c0 0.4-2.3 1.1-3.8 1.9l-2.3-2.6 -4.1 4.5 3 2.3c-0.8 1.5-1.1 3.8-1.5 3.8h-3v7.5h2.3c0.4 0 1.1 3 1.9 4.5l-2.6 2.6 4.5 4.5 1.5-2.6c1.5 1.1 3.8 1.5 3.8 1.9v4.1h7.5v-4.1c0-0.4 3.8-1.1 4.9-1.9l2.6 2.3 4.5-4.5 -2.3-2.3c1.1-1.5 1.5-4.9 1.9-4.9h3.4V193.6L-47 193.6zM-64.3 198.5c-4.5 0-7.9-3.8-7.9-7.9 0-4.5 3.8-7.9 7.9-7.9 4.5 0 7.9 3.8 7.9 7.9C-56.4 194.6-59.8 198.5-64.3 198.5L-64.3 198.5z"/>
        <path id="Fill-57" sketch:type="MSShapeGroup" class="st1" d="M-296 199.9v-4.3h-3.5c-0.4-4.3-1.3-3.9-2.2-5.6l3-3 -5.2-5.2 -3.5 3c-1.7-0.9-1.3-1.7-5.6-2.2v-4.3h-4.3v4.3c-4.3 0.4-4.8 1.3-6.1 2.2l-3.5-3 -5.6 5.2 3 3.5c-0.9 1.7-1.7 0.9-2.2 5.2h-3.3v4.3h3c0.4 4.3 1.3 4.8 2.2 6.5l-3 3.9 5.2 5.6 3.9-3c1.7 1.3 2.2 2.2 6.5 2.6v1.7h4.3v-1.7c4.3-0.4 4.3-1.3 6.1-2.2l3 2.6 5.2-5.2 -2.6-3.9c1.3-1.7 2.2-2.6 2.6-6.9L-296 199.9 -296 199.9zM-315.5 208.2c-5.2 0-9.1-4.3-9.1-9.1 0-5.2 4.3-9.1 9.1-9.1s9.1 4.3 9.1 9.1C-306.4 204.2-310.3 208.2-315.5 208.2L-315.5 208.2z"/>
        <path id="Fill-58" sketch:type="MSShapeGroup" class="st1" d="M-65.3 159.9l-1.3-5.3 -1.9 0.3c-0.3 0-1.3-1.6-1.9-2.2l1.3-1.9 -3.8-2.2 -1.3 2.2c-0.9-0.3-3.1-0.3-3.4-0.3l-0.6-3.1 -5.3 1.3 0.6 3.1c0 0.3-1.6 1.3-2.5 1.9l-2.2-1.6 -2.2 3.8 2.2 0.9c-0.3 0.9-0.3 2.5-0.6 2.8l-2.8 0.6 1.3 5.3 2.8-0.6c0.3 0 1.3 2.2 1.9 2.8l-1.3 2.2 3.8 2.5 0.9-2.2c1.3 0.3 3.1 0.6 3.1 0.6l0.3 1.6 5.3-1.3 -0.3-1.6c0-0.3 1.9-1.3 2.8-1.9l2.2 1.3 2.5-3.8 -1.9-1.3c0.3-1.3 0.3-3.8 0.6-3.8L-65.3 159.9 -65.3 159.9zM-76.3 166.1c-3.1 0.6-6-1.3-6.9-4.4 -0.6-3.1 1.3-5.9 4.4-6.9 3.1-0.6 6 1.3 6.9 4.4C-71.3 162.4-73.1 165.5-76.3 166.1L-76.3 166.1z"/>
        <path id="Fill-59" sketch:type="MSShapeGroup" class="st1" d="M-103.2 370.2l-1.7-7.2 -2.5 0.4c-0.4 0-1.7-2.1-2.5-3l1.7-2.5 -5.1-3 -1.7 3c-1.3-0.4-4.2-0.4-4.6-0.4l-0.8-4.2 -7.2 1.7 0.8 4.2c0 0.4-2.1 1.7-3.4 2.5l-3-2.1 -3 5.1 3 1.3c-0.4 1.3-0.4 3.4-0.8 3.8l-3.8 0.8 1.7 7.2 3.8-0.8c0.4 0 1.7 3 2.5 3.8l-1.7 3 5.1 3.4 1.3-3c1.7 0.4 4.2 0.8 4.2 0.8l0.4 2.1 7.2-1.7 -0.4-2.1c0-0.4 2.5-1.7 3.8-2.5l3 1.7 3.4-5.1 -2.5-1.7c0.4-1.7 0.4-5.1 0.8-5.1L-103.2 370.2 -103.2 370.2zM-117.5 378.7c-4.2 0.8-8-1.7-9.3-5.9 -0.8-4.2 1.7-8 5.9-9.3 4.2-0.8 8 1.7 9.3 5.9C-111.2 373.6-113.7 377.8-117.5 378.7L-117.5 378.7z"/>
        <path id="Fill-60" sketch:type="MSShapeGroup" class="st1" d="M-266.1 173.2c0 0.8-0.6 1.4-1.4 1.4h-7.4c-0.8 0-1.4-0.6-1.4-1.4v-2.5c0-0.8 0.6-1.4 1.4-1.4h7.4c0.8 0 1.4 0.6 1.4 1.4V173.2"/>
        <path id="Fill-61" sketch:type="MSShapeGroup" class="st1" d="M-252.8 173.2c0 0.8-0.6 1.4-1.4 1.4h-7.4c-0.8 0-1.4-0.6-1.4-1.4v-2.5c0-0.8 0.6-1.4 1.4-1.4h7.4c0.8 0 1.4 0.6 1.4 1.4L-252.8 173.2"/>
        <path id="Fill-62" sketch:type="MSShapeGroup" class="st3" d="M-248.6 179.8c-0.3-0.3-0.7-0.5-1.1-0.5h-29.8c-0.8 0-1.5 0.7-1.5 1.5 0 0.1 0.1 0.3 0.1 0.4v5.6c0 0.7 0.6 1.3 1.3 1.3 0.7 0 1.2-0.6 1.3-1.3v-4.5h27.6v4.5c0 0.7 0.6 1.3 1.3 1.3s1.3-0.6 1.3-1.3v-6C-248.1 180.4-248.3 180.1-248.6 179.8"/>
        <path id="Fill-63" sketch:type="MSShapeGroup" class="st21" d="M-279.5 179.2h29.8c0.4 0 0.8 0.2 1.1 0.5 0.1 0.1 0.2 0.1 0.2 0.2l-0.8-2.6 -2-4h-26.7l-2 4.2 -0.9 2.5C-280.5 179.6-280 179.2-279.5 179.2"/>
        <path id="Fill-64" sketch:type="MSShapeGroup" class="st22" d="M-115.2 315.4h-0.6l-1 2.1h0.6L-115.2 315.4"/>
        <path id="Fill-65" sketch:type="MSShapeGroup" class="st23" d="M-114.2 315.2h-14.6l9.3 9.6v0.1l0.1 0.1 9.6-9.8L-114.2 315.2"/>
        <path id="Fill-66" sketch:type="MSShapeGroup" class="st22" d="M-113.9 311.3l-1 2.2h0.6l0.9-2L-113.9 311.3C-113.9 311.2-113.9 311.2-113.9 311.3"/>
        <path id="Fill-67" sketch:type="MSShapeGroup" class="st24" d="M-111.8 308.2l0.2-0.4c0.1-0.1 0-0.3-0.1-0.4s-0.3 0-0.4 0.1l-0.2 0.4c-0.9-0.3-1.9 0.1-2.3 0.9s0 1.8 0.7 2.3l0.6 0.3c0.9 0.3 1.9-0.1 2.3-0.9C-110.7 309.7-111 308.7-111.8 308.2"/>
        <path id="Fill-68" sketch:type="MSShapeGroup" class="st1" d="M-107.4 315c0.2-0.2 0.3-0.6 0.2-0.9 -0.1-0.3-0.4-0.5-0.8-0.5h-6.4v-0.1h-0.6v0.1h-4.6v-0.1l-11.4 0.1c-0.3 0-0.6 0.2-0.8 0.5 -0.1 0.3-0.1 0.7 0.2 0.9l11.4 11.8v9.8h-3.2c-0.4 0-0.7 0.3-0.7 0.7 0 0.4 0.3 0.7 0.7 0.7h3.7v0.1h4c0.4 0 0.7-0.3 0.7-0.7 0-0.4-0.3-0.7-0.7-0.7h-3.2v-9.8L-107.4 315 -107.4 315zM-119.6 325.2V325l-9.5-9.8h9.5v0.1h3.8l-0.1 0.2h0.6l0.1-0.2h5.2L-119.6 325.2 -119.6 325.2z"/>
        <path id="Fill-69" sketch:type="MSShapeGroup" class="st25" d="M-310.3 254.2c-0.7 0.7-0.7 1.7 0 2.4l2.5 2.2 4.1-4 -3.3 5.1 3.1 3.1 1.5-0.9 -0.9 1.4 2.4 2.5c0.7 0.7 1.7 0.7 2.4 0l7.7-7.7 -11.8-11.8L-310.3 254.2"/>
        <path id="Fill-70" sketch:type="MSShapeGroup" class="st26" d="M-301.1 243.9l-0.5 0.5c-0.3 0.3-0.3 0.7 0 1l11.8 11.8c0.3 0.3 0.7 0.3 1 0l2.9-2.9c0.3-0.3 0.3-0.7 0-1 -1.4-1.4-2.7-3.6-2.3-5.4 0.2-0.9 0.8-1.6 1.8-2.1 3.8-1.8 6.3-4.2 6.7-6.5 0.2-1.1-0.1-2.2-0.9-3 -0.8-0.8-1.8-1.1-3-0.9 -2.3 0.4-4.8 2.9-6.5 6.7 -0.5 1.1-1.2 1.6-2.1 1.8 -1.8 0.3-4.1-1-5.4-2.3 -0.3-0.3-0.7-0.3-1 0l-1.4 1.4M-282 239.2c-0.5 0.5-1.3 0.5-1.8 0s-0.5-1.3 0-1.8 1.3-0.5 1.8 0C-281.5 238.1-281.5 238.9-282 239.2"/>
        <path id="Fill-71" sketch:type="MSShapeGroup" class="st8" d="M-209.4 236.9v-8.7l-5.2-0.4v2.4c0 0.9-0.3 1.5-1.3 1.5h-10.9l-2.4 18.5c5.4 0 13.1 0.7 13.1 6.7 0 3.1-1.4 5.4-5.6 5.4 -3.2 0-6.2-1.2-8.2-2.4l-2.2 5.1c2.1 1.3 6.3 2.8 10.7 2.8 9.1 0 12.2-5.8 12.2-10.9 0-7.8-6.4-10.9-13.9-11.4l1.1-8.4h12.6L-209.4 236.9 -209.4 236.9zM-190.9 231c-7.9 0-13 5.7-13 18.3 0 12.8 4.2 18.4 12.6 18.4 8.4 0 12.9-5.6 12.9-18.6S-183.2 231-190.9 231L-190.9 231zM-191.2 262.4c-3.7 0-6.1-3-6.1-12.5 0-10.4 2.4-13.5 6.2-13.5 3.6 0 6.1 2.8 6.1 12.8C-185 259.6-187.5 262.4-191.2 262.4L-191.2 262.4zM-161.5 231c-7.9 0-13 5.7-13 18.3 0 12.8 4.2 18.4 12.6 18.4 8.4 0 12.9-5.6 12.9-18.6S-153.8 231-161.5 231L-161.5 231zM-161.7 262.4c-3.7 0-6.1-3-6.1-12.5 0-10.4 2.4-13.5 6.2-13.5 3.6 0 6.1 2.8 6.1 12.8C-155.5 259.6-158.1 262.4-161.7 262.4L-161.7 262.4z"/>
      </g>
    </g>
  </g>
  <path id="Shape-Copy" class="st9" d="M-188 328.7c1.5 4.9-0.5 10.3-4.7 12.2l-26.4 13.8c-4 1.8-8.6-0.6-10.1-5.6l0 0c-1.5-4.9 0.5-10.3 4.7-12.2l26.4-13.8C-194.1 321.2-189.5 323.6-188 328.7L-188 328.7 -188 328.7z"/>
</svg>
