<?xml version="1.0" encoding="utf-8"?>
<!-- Generator: Adobe Illustrator 21.0.0, SVG Export Plug-In . SVG Version: 6.00 Build 0)  -->
<svg version="1.1" id="Layer_1" xmlns="http://www.w3.org/2000/svg" xmlns:xlink="http://www.w3.org/1999/xlink" x="0px" y="0px"
	 width="288px" height="318px" viewBox="0 0 288 318" style="enable-background:new 0 0 288 318;" xml:space="preserve">
<style type="text/css">
	.st0{fill:#313133;}
	.st1{fill:#FCC397;}
	.st2{fill:#EFB892;}
	.st3{fill:#31C5F2;}
	.st4{fill:#A8DC28;}
	.st5{fill:#A4CC29;}
	.st6{fill:#EFEFEF;}
	.st7{fill:#58595B;}
	.st8{fill:#F6A623;}
	.st9{fill:#FFFFFF;}
	.st10{fill:#FFFFFF;stroke:#FFFFFF;stroke-width:1.3722;}
	.st11{fill:#8E7E70;}
	.st12{fill:#684D32;}
	.st13{fill:#424241;}
	.st14{fill:#8B572A;}
	.st15{fill:none;stroke:#FFFFFF;stroke-width:0.6861;}
	.st16{fill:#795134;}
	.st17{fill:#451613;}
	.st18{fill:#FDBB16;}
	.st19{fill:#D2FFFD;}
	.st20{fill:#604526;}
	.st21{fill:#D8237D;}
	.st22{fill:#755739;}
	.st23{fill:#FFBD6C;}
	.st24{fill:#5CAA3F;}
	.st25{fill:#BD0FE1;}
	.st26{fill:#4A4A4A;}
</style>
<title>search-02 copy</title>
<desc>Created with Sketch.</desc>
<g id="Page-1">
	<g id="_x35_03-FAD-merge-message_x5F_desktop1" transform="translate(-576.000000, -231.000000)">
		<g id="Group-2" transform="translate(260.000000, 227.000000)">
			<g id="search-02-copy" transform="translate(316.000000, 0.000000)">
				<rect id="Rectangle-path" x="135.4" y="185.7" class="st0" width="15.5" height="16.8"/>
				<path id="Oval-284" class="st1" d="M141.3,294c21.4,0,22.9-16.6,22.9-41.1s17.7-41.1-26.5-41.1s-31.6,19.9-31.6,44.4
					S119.9,294,141.3,294z"/>
				<g id="Group" transform="translate(104.757009, 200.880306)">
					<path id="Shape_1_" class="st2" d="M80.6,64.3c0,0-3.5,9.8-20.2,21.9v16H38.4v-28L80.6,64.3L80.6,64.3z"/>
					<rect id="Rectangle-path_1_" x="21.6" y="0.3" class="st3" width="33.5" height="72.2"/>
					<rect id="Rectangle-path_2_" x="11.3" y="100.9" class="st4" width="54.2" height="19.3"/>
					<path id="Shape_2_" class="st2" d="M80.8,5.3c1.5,4.1-0.5,8.8-4.8,10.3L49,27.4c-4.1,1.5-8.8-0.5-10.3-4.8l0,0
						c-1.5-4.1,0.5-8.8,4.8-10.3L70.5,0.5C74.6-1,79.3,1.1,80.8,5.3L80.8,5.3L80.8,5.3z"/>
					<path id="Shape-Copy" class="st1" d="M42.2,9.8c1.5,4.9-0.5,10.3-4.7,12.2L11.1,35.8c-4,1.8-8.6-0.6-10.1-5.6l0,0
						C-0.5,25.3,1.6,19.8,5.7,18L32.1,4.1C36.2,2.3,40.7,4.8,42.2,9.8L42.2,9.8L42.2,9.8z"/>
					<path id="Shape_3_" class="st2" d="M81.9,22.3c1.5,4.1-0.5,8.8-4.8,10.3L50,44.4c-4.1,1.5-8.8-0.5-10.3-4.8l0,0
						c-1.5-4.1,0.5-8.8,4.8-10.3l27.1-11.7C75.7,16.2,80.3,18.2,81.9,22.3L81.9,22.3L81.9,22.3z"/>
					<rect id="Rectangle-path_3_" x="39.7" y="100.9" class="st5" width="25.8" height="19.3"/>
					<path id="Shape_4_" class="st2" d="M82.5,39.5c1.5,4.1-0.5,8.8-4.8,10.3L50.7,61.5c-4.1,1.5-8.8-0.5-10.3-4.8l0,0
						c-1.5-4.1,0.5-8.8,4.8-10.3l27.1-11.7C76.3,33.3,80.8,35.4,82.5,39.5L82.5,39.5L82.5,39.5z"/>
					<path id="Shape_5_" class="st2" d="M81.9,57.2c1.5,4.1-0.5,8.8-4.8,10.3L50,79.2c-4.1,1.5-8.8-0.5-10.3-4.8l0,0
						c-1.5-4.1,0.5-8.8,4.8-10.3l27.1-11.7C75.7,51,80.3,53,81.9,57.2L81.9,57.2L81.9,57.2z"/>
				</g>
				<g id="Group_1_" transform="translate(191.780465, 34.817860)">
					<ellipse id="Oval" class="st3" cx="23.9" cy="24" rx="23.9" ry="23.9"/>
					<g id="Imported-Layers" transform="translate(7.000000, 10.000000)">
						<path id="Fill-1" class="st6" d="M33.6,16H0.4C0.2,16,0,16.1,0,16.4v2.4c0,0.2,0.2,0.4,0.4,0.4H2v2.4c0,1,0.8,1.8,1.8,1.8H5
							c1,0,1.8-0.8,1.8-1.8v-2.4h21.2v2.4c0,1,0.8,1.8,1.8,1.8h1.2c1,0,1.8-0.8,1.8-1.8v-2.4h0.6c0.2,0,0.4-0.2,0.4-0.4v-2.4
							C34,16.1,33.8,16,33.6,16"/>
						<path id="Fill-2" class="st7" d="M28,19.3v2.5c0,1,0.9,1.9,1.9,1.9h1.3c1.1,0,1.9-0.8,1.9-1.9v-2.5"/>
						<path id="Fill-3" class="st7" d="M1.7,19.3v2.5c0,1,0.9,1.9,1.9,1.9H5c1.1,0,1.9-0.8,1.9-1.9v-2.5"/>
						<path id="Fill-4" class="st6" d="M30.9,10.5c-1-4.5-2.7-9.7-3.7-9.7C26.7,0.7,21,0.4,17,0.4c-4,0-9.4,0.2-9.9,0.2
							c-0.8,0-3.1,5.4-4.1,9.8c-3.6,0.7-2.9,6.6-2.9,6.9c0,0.2,0.2,0.3,0.4,0.3h0l16.4,0l16.4,0h0c0.2,0,0.4-0.1,0.4-0.3
							C33.8,17.1,34.5,11.1,30.9,10.5"/>
						<path id="Fill-5" class="st8" d="M4.8,17.9c-1.5,0-2.7-1.2-2.7-2.6c0-1.4,1.2-2.6,2.7-2.6c1.5,0,2.7,1.2,2.7,2.6
							C7.4,16.7,6.2,17.9,4.8,17.9"/>
						<path id="Fill-6" class="st8" d="M29.2,17.9c-1.5,0-2.7-1.2-2.7-2.6c0-1.4,1.2-2.6,2.7-2.6c1.5,0,2.7,1.2,2.7,2.6
							C31.8,16.7,30.7,17.9,29.2,17.9"/>
						<path id="Fill-7" class="st3" d="M5.8,10.7c0,0-0.1,0-0.1,0c0,0,0-0.1,0-0.1c0.1-0.3,2.2-7.2,3.6-7.7c1.4-0.5,7.4-0.5,7.6-0.5
							c0,0,0.6,0,1.5,0c2.8,0,6.1,0.1,6.7,0.6c0.9,0.6,3.4,7.4,3.5,7.7c0,0,0,0.1,0,0.1c0,0-0.1,0.1-0.1,0.1H5.8"/>
						<polygon id="Fill-8" class="st9" points="12.1,13.6 22.3,13.6 22.3,15.9 12.1,15.9 						"/>
					</g>
				</g>
				<path id="Shape_6_" class="st0" d="M143.4,190.2c-32.8,0-59.5-26.7-59.5-59.4s26.7-59.4,59.5-59.4s59.5,26.7,59.5,59.4
					C203,163.5,176.3,190.2,143.4,190.2L143.4,190.2z M143.4,80.1c-28,0-50.7,22.7-50.7,50.7s22.7,50.7,50.7,50.7
					s50.7-22.7,50.7-50.7S171.4,80.1,143.4,80.1L143.4,80.1z"/>
				<ellipse id="Oval_1_" class="st4" cx="215.6" cy="203.9" rx="23.9" ry="23.9"/>
				<g id="Group_2_" transform="translate(221.831776, 107.032680)">
					<ellipse id="Oval_2_" class="st10" cx="23.9" cy="24.4" rx="23.9" ry="23.9"/>
					<g id="Imported-Layers_1_" transform="translate(8.000000, 11.000000)">
						<polygon id="Fill-1_1_" class="st11" points="11,13.6 21.4,13.6 21.4,19 11,19 						"/>
						<path id="Fill-2_1_" class="st11" d="M8.5,5L8.5,5L6.3,4.9V5H1.7C0.8,5,0,5.7,0,6.6v8h16.2V5H8.5"/>
						<path id="Fill-3_1_" class="st11" d="M31.6,6.6c0-0.9-0.7-1.6-1.7-1.6h-4.6V4.9h-2.2V5h-7v9.6h15.4V6.6"/>
						<path id="Fill-4_1_" class="st12" d="M11.7,0.3c-1.5,0-2.8,1.2-2.8,2.7v1.8h2.2V3c0-0.3,0.2-0.6,0.6-0.6h7.2V0.3H11.7"/>
						<path id="Fill-5_1_" class="st12" d="M19.9,0.3h-6.4v2.2h6.4c0.3,0,0.6,0.2,0.6,0.6v1.8h2.2V3C22.7,1.5,21.5,0.3,19.9,0.3"/>
						<path id="Fill-6_1_" class="st12" d="M13.6,18.6c-0.9,0-1.7-0.7-1.7-1.6v-2.5H0V23c0,0.9,0.7,1.6,1.7,1.6h14.5v-6H13.6"/>
						<path id="Fill-7_1_" class="st12" d="M20.2,14.4v2.5c0,0.9-0.7,1.6-1.7,1.6h-2.3v6h13.7c0.9,0,1.7-0.7,1.7-1.6v-8.5H20.2"/>
						<path id="Fill-8_1_" class="st13" d="M14.3,14.3c-0.6,0-1,0.5-1,1v1.2c0,0.6,0.5,1,1,1h1.9v-3.2H14.3"/>
						<path id="Fill-9" class="st13" d="M18,14.3h-1.8v3.2H18c0.6,0,1-0.5,1-1v-1.2C19,14.8,18.6,14.3,18,14.3"/>
					</g>
				</g>
				<ellipse id="Oval_3_" class="st10" cx="70.4" cy="58.8" rx="23.9" ry="23.9"/>
				<ellipse id="Oval_4_" class="st4" cx="40.4" cy="131.4" rx="23.9" ry="23.9"/>
				<g id="Group_3_" transform="translate(46.429907, 179.247500)">
					<ellipse id="Oval_5_" class="st3" cx="24" cy="24.6" rx="23.9" ry="23.9"/>
				</g>
				<g id="Group_5_" transform="translate(118.654206, 4.770612)">
					<ellipse id="Oval_6_" class="st4" cx="24.4" cy="24" rx="23.9" ry="23.9"/>
					<g id="dog" transform="translate(11.000000, 10.000000)">
						<g id="Group_4_">
							<g id="Shape_7_">
								<g transform="translate(14.487805, 0.000000)">
									<path class="st14" d="M6.2,0.7c0,0-0.9,0.3-1.8,2.7c0.9,2.2,2.8,2.3,3.6,2.3c0.1,0,0.2-0.1,0.2-0.2C8.9,3.7,8,1.1,7.7,0.1
										C7.2,0.2,6.7,0.4,6.2,0.7L6.2,0.7z"/>
									<path class="st14" d="M2.2,12.9C2.5,12.1,7.9,13,8,13.2c0.3,0.1,0.7-3.8,0.9-3.7l0.1-0.2l0.6-1.7c0.1-0.3,0.4-0.5,0.7-0.4
										c1.1,0.1,3.7,0.1,4.5-2.5c0.1-0.3-0.1-0.6-0.3-0.8l-2.2-1.1c0,0,0.1-0.6-0.5-1c-0.4-0.3-1.8-1.6-3.5-1.7
										c0.4,1.1,1.1,3.7,0.6,5.5C8.7,5.9,8.4,6.1,8.1,6.2c-0.3,0-0.8,0-1.4-0.1c-0.8-0.2-1.8-0.7-2.5-2C4.1,4.4,4,4.7,3.9,5.1
										C3.4,7,0.6,8.1,0.6,8.1L0.1,8.7C-0.1,7.4,2.3,13,2.2,12.9L2.2,12.9z M10.8,3.1c0.2,0,0.3,0.2,0.2,0.4
										c0,0.2-0.2,0.3-0.4,0.2c-0.2,0-0.3-0.2-0.2-0.4C10.5,3.1,10.7,3,10.8,3.1L10.8,3.1z"/>
								</g>
								<path class="st14" d="M18.4,5.1c0,0-0.5,2.7-4.9,3.2L4.1,8.1c0,0-1.3,0.1-2.3-2.4L1.6,4.3L1.4,3.4c0,0-0.2-0.8-0.8-0.8
									c0,0-0.5,0.1-0.3,1.2l0.4,2.4c0,0,0.4,1.9,0.7,2.6c0,0,0.2,2-0.2,2.8c0,0-1.2,1.7-0.1,5.5c0,0,0.2,2.1-0.4,3.7l0,3.8
									l1.9-0.1v-1.9l1.5-5L4,21.1c0,0-0.1,2,0.6,2.9l0.3,1l2-0.1c0,0-0.6-2.5-0.3-4.2l1.5-4c0,0,0.8-1.6,3-1l5.3,1
									c0,0,0.8,0.3,0.8,1.3l-0.6,5.9c0,0-0.1,1.1,1.3,2.1l0.8-2.1l0.9-5.5c0,0,0.2-1,0.4,1.2l0.2,3.9l2,0.4l0.8-13L18.4,5.1
									L18.4,5.1z"/>
							</g>
							<path id="Shape_8_" class="st14" d="M0.7,24.6c0,0,0,0.1,0.2,0.4c0.2,0.3,0.3,0.3,0.4,0.8c0,0-0.1,0.9,2.2,0.3c0,0,0,0,0,0
								c0,0,0.8-0.2,0.4-0.8c0,0-0.8-0.6-1.2-0.9l-0.5-0.8L0.7,24.6L0.7,24.6z"/>
							<path id="Shape_9_" class="st14" d="M20.1,23.4c0,0,0,0.1,0.2,0.5s0.4,0.4,0.4,0.9c0,0-0.2,0.9,2.4,0.5h0
								c0,0,0.9-0.2,0.5-0.9c0,0-0.8-0.7-1.3-1.1l-0.6-0.9L20.1,23.4L20.1,23.4z"/>
							<path id="Shape_10_" class="st14" d="M16.6,24.1c0,0,0,0.1,0.1,0.5c0.1,0.4,0.2,0.5,0.1,1c0,0-0.5,0.9,2.3,1.2h0.1
								c0,0,1,0,0.8-0.7c0,0-0.6-1-1-1.4l-0.3-1.1L16.6,24.1L16.6,24.1z"/>
							<path id="Shape_11_" class="st14" d="M4.9,24.4c0,0-0.3,0.2-0.1,0.6c0.2,0.4,0.3,0.4,0.3,0.9c0,0-0.3,0.9,2.3,0.7h0
								c0,0,0.9-0.1,0.6-0.8c0,0-0.7-0.8-1.1-1.2l-0.4-1L4.9,24.4L4.9,24.4z"/>
						</g>
					</g>
				</g>
				<g id="Group_6_" transform="translate(11.607477, 0.000000)">
					<g transform="translate(3.869159, 154.746043)">
						<g id="Shape_12_" transform="translate(3.869159, 1.289550)">
							<path class="st15" d="M0,29.9l0.1-0.1"/>
							<path class="st15" d="M58,0.3h0.3"/>
						</g>
						<ellipse id="Oval_7_" class="st9" cx="60.7" cy="2.3" rx="2.3" ry="2.3"/>
					</g>
					<g transform="translate(0.000000, 76.083471)">
						<g id="Shape_14_" transform="translate(3.869159, 2.579101)">
							<path class="st15" d="M0.5,1h0.1"/>
							<path class="st15" d="M61.8,23.3H62"/>
						</g>
						<ellipse id="Oval_8_" class="st9" cx="64.2" cy="25.5" rx="2.3" ry="2.3"/>
					</g>
					<g transform="translate(76.093458, 0.000000)">
						<g id="Shape_16_" transform="translate(2.579439, 3.868651)">
							<path class="st15" d="M0.6,0.9V1"/>
							<path class="st15" d="M25,61.4l0.1,0.1"/>
						</g>
						<ellipse id="Oval_9_" class="st9" cx="27" cy="64" rx="2.3" ry="2.3"/>
					</g>
				</g>
				<g id="Group_7_" transform="translate(170.242991, 0.000000)">
					<g transform="translate(38.691589, 154.746043)">
						<g id="Shape_18_" transform="translate(1.289720, 1.289550)">
							<path class="st15" d="M58.3,29.9l-0.1-0.1"/>
							<path class="st15" d="M0.1,0.3H0"/>
						</g>
						<ellipse id="Oval_10_" class="st9" cx="2.6" cy="2.3" rx="2.3" ry="2.3"/>
					</g>
					<g transform="translate(38.691589, 76.083471)">
						<g id="Shape_20_" transform="translate(1.289720, 2.579101)">
							<path class="st15" d="M61.6,1h-0.1"/>
							<path class="st15" d="M0.4,23.3H0.1"/>
						</g>
						<ellipse id="Oval_11_" class="st9" cx="3" cy="25.5" rx="2.3" ry="2.3"/>
					</g>
					<g>
						<g id="Shape_22_" transform="translate(1.289720, 3.868651)">
							<path class="st15" d="M25.4,0.9L25.3,1"/>
							<path class="st15" d="M0.9,61.4v0.1"/>
						</g>
						<ellipse id="Oval_12_" class="st9" cx="2.8" cy="64" rx="2.3" ry="2.3"/>
					</g>
				</g>
				<g id="Imported-Layers_2_" transform="translate(54.985981, 189.208678)">
					<polygon id="Fill-1_2_" class="st16" points="1.5,10.5 29.7,10.5 29.7,27.8 1.5,27.8 					"/>
					<polyline id="Fill-2_2_" class="st17" points="26,1.4 5.1,1.4 0.1,10.5 30.9,10.5 26,1.4 					"/>
					<polygon id="Fill-3_2_" class="st16" points="7.2,0 10.5,0 10.5,5.6 7.2,5.6 					"/>
					<polygon id="Fill-4_2_" class="st17" points="12.2,16.2 19.1,16.2 19.1,27.8 12.2,27.8 					"/>
					<path id="Fill-5_2_" class="st18" d="M14.4,21.2c0,0.3-0.2,0.5-0.5,0.5c-0.3,0-0.5-0.2-0.5-0.5c0-0.3,0.2-0.5,0.5-0.5
						C14.1,20.6,14.4,20.9,14.4,21.2"/>
					<polygon id="Fill-6_2_" class="st19" points="4.9,16 9.9,16 9.9,21 4.9,21 					"/>
					<polygon id="Fill-7_2_" class="st19" points="21.4,16 26.4,16 26.4,21 21.4,21 					"/>
				</g>
				<path id="Shape_24_" class="st9" d="M288,75.5v-7.5h-3c-0.4,0-1.1-2.6-1.9-4.1l2.6-2.3l-4.5-4.5l-3,2.6
					c-1.5-0.8-4.9-1.5-4.9-1.9v-4.9h-7.5v5.3c0,0.4-2.3,1.1-3.8,1.9l-2.3-2.6l-4.1,4.5l3,2.3c-0.8,1.5-1.1,3.8-1.5,3.8h-3v7.5h2.3
					c0.4,0,1.1,3,1.9,4.5l-2.6,2.6l4.5,4.5l1.5-2.6c1.5,1.1,3.8,1.5,3.8,1.9v4.1h7.5v-4.1c0-0.4,3.8-1.1,4.9-1.9l2.6,2.3l4.5-4.5
					l-2.3-2.3c1.1-1.5,1.5-4.9,1.9-4.9h3.4V75.5z M270.7,80.4c-4.5,0-7.9-3.8-7.9-7.9c0-4.5,3.8-7.9,7.9-7.9c4.5,0,7.9,3.8,7.9,7.9
					S275.2,80.4,270.7,80.4L270.7,80.4z"/>
				<path id="Shape_25_" class="st9" d="M39,81.8v-4.3h-3.5c-0.4-4.3-1.3-3.9-2.2-5.6l3-3l-5.2-5.2l-3.5,3c-1.7-0.9-1.3-1.7-5.6-2.2
					v-4.3h-4.3v4.3c-4.3,0.4-4.8,1.3-6.1,2.2l-3.5-3l-5.6,5.2l3,3.5c-0.9,1.7-1.7,0.9-2.2,5.2H0v4.3h3c0.4,4.3,1.3,4.8,2.2,6.5
					l-3,3.9l5.2,5.6l3.9-3c1.7,1.3,2.2,2.2,6.5,2.6v1.7h4.3v-1.7c4.3-0.4,4.3-1.3,6.1-2.2l3,2.6l5.2-5.2l-2.6-3.9
					c1.3-1.7,2.2-2.6,2.6-6.9H39L39,81.8z M19.5,90.1c-5.2,0-9.1-4.3-9.1-9.1c0-5.2,4.3-9.1,9.1-9.1s9.1,4.3,9.1,9.1
					C28.6,86.2,24.7,90.1,19.5,90.1L19.5,90.1z"/>
				<path id="Shape_26_" class="st9" d="M269.7,41.8l-1.3-5.3l-1.9,0.3c-0.3,0-1.3-1.6-1.9-2.2l1.3-1.9l-3.8-2.2l-1.3,2.2
					c-0.9-0.3-3.1-0.3-3.4-0.3l-0.6-3.1l-5.3,1.3l0.6,3.1c0,0.3-1.6,1.3-2.5,1.9l-2.2-1.6l-2.2,3.8l2.2,0.9
					c-0.3,0.9-0.3,2.5-0.6,2.8l-2.8,0.6l1.3,5.3l2.8-0.6c0.3,0,1.3,2.2,1.9,2.8l-1.3,2.2l3.8,2.5l0.9-2.2c1.3,0.3,3.1,0.6,3.1,0.6
					l0.3,1.6l5.3-1.3l-0.3-1.6c0-0.3,1.9-1.3,2.8-1.9l2.2,1.3l2.5-3.8l-1.9-1.3c0.3-1.3,0.3-3.8,0.6-3.8L269.7,41.8L269.7,41.8z
					 M258.7,48c-3.1,0.6-6-1.3-6.9-4.4c-0.6-3.1,1.3-5.9,4.4-6.9c3.1-0.6,6,1.3,6.9,4.4C263.7,44.3,261.9,47.4,258.7,48L258.7,48z"
					/>
				<path id="Shape_27_" class="st9" d="M231.8,252.1l-1.7-7.2l-2.5,0.4c-0.4,0-1.7-2.1-2.5-3l1.7-2.5l-5.1-3l-1.7,3
					c-1.3-0.4-4.2-0.4-4.6-0.4l-0.8-4.2l-7.2,1.7l0.8,4.2c0,0.4-2.1,1.7-3.4,2.5l-3-2.1l-3,5.1l3,1.3c-0.4,1.3-0.4,3.4-0.8,3.8
					l-3.8,0.8l1.7,7.2l3.8-0.8c0.4,0,1.7,3,2.5,3.8l-1.7,3l5.1,3.4l1.3-3c1.7,0.4,4.2,0.8,4.2,0.8l0.4,2.1l7.2-1.7l-0.4-2.1
					c0-0.4,2.5-1.7,3.8-2.5l3,1.7l3.4-5.1l-2.5-1.7c0.4-1.7,0.4-5.1,0.8-5.1L231.8,252.1L231.8,252.1z M217.5,260.6
					c-4.2,0.8-8-1.7-9.3-5.9c-0.8-4.2,1.7-8,5.9-9.3c4.2-0.8,8,1.7,9.3,5.9C223.8,255.5,221.3,259.7,217.5,260.6L217.5,260.6z"/>
				<g id="Group_8_" transform="translate(102.018692, 106.322230)">
					<path id="_x35_03" class="st0" d="M23.1,9.8V1.1l-5.2-0.4V3c0,0.9-0.3,1.5-1.3,1.5H5.7L3.3,23c5.4,0,13.1,0.7,13.1,6.7
						c0,3.1-1.4,5.4-5.6,5.4c-3.2,0-6.2-1.2-8.2-2.4l-2.2,5.1c2.1,1.3,6.3,2.7,10.7,2.7c9.1,0,12.2-5.8,12.2-10.9
						c0-7.7-6.4-10.9-13.9-11.4l1.1-8.4H23.1z M41.6,3.9c-7.9,0-13,5.7-13,18.3c0,12.8,4.2,18.4,12.6,18.4c8.4,0,12.9-5.5,12.9-18.6
						C54.1,9,49.3,3.9,41.6,3.9z M41.4,35.2c-3.7,0-6.1-3-6.1-12.5c0-10.4,2.4-13.5,6.2-13.5c3.6,0,6.1,2.8,6.1,12.8
						C47.6,32.5,45,35.2,41.4,35.2z M65.3,19.5l-0.5,5h2.1c5.9,0,8,1.8,8,5.3c0,3.9-2.5,5.3-6,5.3c-2.7,0-6.3-1.1-8.6-2.4l-1.9,5.2
						c2.1,1.4,6.5,2.7,10.8,2.7c8.6,0,12.4-4.8,12.4-11.3c0-2.9-1-6.4-5.5-7.8c2.9-1.8,5-5,5-9c0-5-3.4-8.8-10.4-8.8
						c-4.4,0-8.4,1.3-11.2,2.7v8.8l5.6,0.4v-4c0-1,0.1-1.6,1.1-1.9c0.8-0.3,1.9-0.5,3.4-0.5c3.2,0,4.8,1.5,4.8,4.2
						c0,2.8-1.4,4.7-3.3,5.9H65.3z"/>
				</g>
				<g id="Imported-Layers_3_" transform="translate(54.000000, 47.000000)">
					<path id="Fill-1_3_" class="st20" d="M28,10.5H4.7c-1,0-1.9-0.8-1.9-1.9V1.9c0-1,0.8-1.9,1.9-1.9H28c1,0,1.9,0.8,1.9,1.9v6.7
						C29.9,9.6,29.1,10.5,28,10.5"/>
					<polyline id="Fill-2_3_" class="st21" points="3.1,8.3 1.2,12.5 0.2,15 32.8,15.1 31.8,12.2 29.8,8.2 3.1,8.3 					"/>
					<polyline id="Fill-3_3_" class="st21" points="2.9,8.2 2.1,10.5 31,10.5 30,8.3 2.9,8.2 					"/>
					<path id="Fill-4_3_" class="st9" d="M14.9,8.1c0,0.8-0.6,1.4-1.4,1.4H6.1c-0.8,0-1.4-0.6-1.4-1.4V5.6c0-0.8,0.6-1.4,1.4-1.4
						h7.4c0.8,0,1.4,0.6,1.4,1.4V8.1"/>
					<path id="Fill-5_3_" class="st9" d="M28.2,8.1c0,0.8-0.6,1.4-1.4,1.4h-7.4c-0.8,0-1.4-0.6-1.4-1.4V5.6c0-0.8,0.6-1.4,1.4-1.4
						h7.4c0.8,0,1.4,0.6,1.4,1.4V8.1"/>
					<path id="Fill-6_3_" class="st20" d="M1.5,17.2h29.8c0.8,0,1.5-0.7,1.5-1.5c0-0.8-0.7-1.5-1.5-1.5H1.5c-0.8,0-1.5,0.7-1.5,1.5
						C0.1,16.6,0.7,17.2,1.5,17.2"/>
					<path id="Fill-7_3_" class="st20" d="M1.4,23L1.4,23c-0.7,0-1.3-0.6-1.3-1.3v-6c0-0.7,0.6-1.3,1.3-1.3s1.3,0.6,1.3,1.3v6
						C2.6,22.4,2.1,23,1.4,23"/>
					<path id="Fill-8_2_" class="st20" d="M31.6,23L31.6,23c-0.7,0-1.3-0.6-1.3-1.3v-6c0-0.7,0.6-1.3,1.3-1.3c0.7,0,1.3,0.6,1.3,1.3
						v6C32.9,22.4,32.3,23,31.6,23"/>
				</g>
				<g id="Imported-Layers_4_" transform="translate(203.000000, 189.000000)">
					<polyline id="Fill-1_4_" class="st22" points="16.8,8.3 16.2,8.3 15.2,10.4 15.8,10.4 16.8,8.3 					"/>
					<polyline id="Fill-2_4_" class="st23" points="3.2,8.1 12.6,17.7 12.6,8.1 3.2,8.1 					"/>
					<polyline id="Fill-3_4_" class="st23" points="22.2,8.1 17.8,8.1 17.8,8 16.8,8 16.8,8.1 12.6,8.1 12.6,17.7 12.7,17.9 
						22.2,8.1 					"/>
					<path id="Fill-4_4_" class="st22" d="M18.1,4.2l-1,2.2h0.6l0.9-2c0,0,0,0,0,0L18.1,4.2C18.1,4.1,18.1,4.1,18.1,4.2"/>
					<path id="Fill-5_4_" class="st24" d="M20.2,1.1l0.2-0.4c0.1-0.1,0-0.3-0.1-0.4c-0.1-0.1-0.3,0-0.4,0.1l-0.2,0.4
						c-0.9-0.3-1.9,0.1-2.3,0.9c-0.4,0.8,0,1.8,0.7,2.3l0.6,0.3c0.9,0.3,1.9-0.1,2.3-0.9C21.3,2.6,21,1.6,20.2,1.1"/>
					<path id="Fill-6_4_" class="st9" d="M1,6.5C0.6,6.5,0.3,6.7,0.2,7C0,7.3,0.1,7.6,0.3,7.9l11.4,11.8v9.8H8.6
						c-0.4,0-0.7,0.3-0.7,0.7c0,0.4,0.3,0.7,0.7,0.7h3.8v-13L2.9,8.1h9.5V6.5"/>
					<path id="Fill-7_4_" class="st9" d="M24.6,7.9c0.2-0.2,0.3-0.6,0.2-0.9c-0.1-0.3-0.4-0.5-0.8-0.5h-6.4l0-0.1h-0.6l0,0.1h-4.6
						v1.7h3.8l-0.1,0.2h0.6l0.1-0.2h5.2L12.5,18l-0.1-0.1v13h4c0.4,0,0.7-0.3,0.7-0.7c0-0.4-0.3-0.7-0.7-0.7h-3.2v-9.8L24.6,7.9"/>
				</g>
				<g id="Imported-Layers_5_" transform="translate(23.429907, 116.716443)">
					<path id="Fill-1_5_" class="st25" d="M1.2,19.3c-0.7,0.7-0.7,1.7,0,2.4l2.5,2.2l4.1-4L4.6,25l3.1,3.1l1.5-0.9l-0.9,1.4l2.4,2.5
						c0.7,0.7,1.7,0.7,2.4,0l7.7-7.7L9,11.6L1.2,19.3"/>
					<path id="Fill-2_5_" class="st26" d="M10.5,9.1L10,9.6c-0.3,0.3-0.3,0.7,0,1l11.8,11.8c0.3,0.3,0.7,0.3,1,0l2.9-2.9
						c0.3-0.3,0.3-0.7,0-1c-1.4-1.4-2.7-3.6-2.3-5.4c0.2-0.9,0.8-1.6,1.8-2.1c3.8-1.8,6.3-4.2,6.7-6.5c0.2-1.1-0.1-2.2-0.9-3l0,0
						c-0.8-0.8-1.8-1.1-3-0.9c-2.3,0.4-4.8,2.9-6.5,6.7c-0.5,1.1-1.2,1.6-2.1,1.8c-1.8,0.3-4.1-1-5.4-2.3c-0.3-0.3-0.7-0.3-1,0
						l-1.4,1.4 M29.6,4.5c-0.5,0.5-1.3,0.5-1.8,0c-0.5-0.5-0.5-1.3,0-1.8c0.5-0.5,1.3-0.5,1.8,0C30.1,3.2,30.1,4,29.6,4.5"/>
				</g>
				<rect id="Rectangle-1346" x="119" y="287" class="st1" width="29" height="16"/>
			</g>
		</g>
	</g>
</g>
</svg>
