<svg xmlns="http://www.w3.org/2000/svg" version="1.1" x="0" y="0" width="36" height="36" viewBox="-279 402.9 36 36" xml:space="preserve"><style type="text/css">
	.st0{fill:#313133;}
	.st1{fill:#A8DC28;}
</style><title>Account</title><desc>Created with Sketch.</desc><g transform="translate(-876.000000, -512.000000)"><g transform="translate(876.000000, 152.000000)"><g transform="translate(0.000000, 360.000000)"><rect x="-279" y="402.9" class="st0" width="36" height="36"/><path class="st1" d="M-262 432.2c-1 0-1.8-0.8-1.8-1.7v-0.9c0-0.2-0.1-0.2-0.2-0.2l-0.7 0.7c-0.3 0.3-0.8 0.5-1.3 0.5 -0.5 0-0.9-0.2-1.2-0.5l-2.1-2.1c-0.3-0.3-0.5-0.8-0.5-1.3 0-0.5 0.2-0.9 0.5-1.3l0.4-0.4c0.1-0.1 0.1-0.2 0-0.4 -0.1-0.1-0.2-0.2-0.2-0.2h-0.6c-1 0-1.8-0.8-1.8-1.7v-3c0-1 0.8-1.8 1.8-1.8h0.5c0.1 0 0.2-0.1 0.3-0.3 0.1-0.2 0.1-0.3 0-0.4l-0.4-0.3c-0.7-0.7-0.7-1.9 0-2.5l2.1-2.1c0.3-0.3 0.8-0.5 1.3-0.5 0.5 0 0.9 0.2 1.3 0.5l0.4 0.4 0.1 0.1c0.2 0 0.4-0.2 0.4-0.3V412c0-1 0.8-1.8 1.8-1.8h3c1 0 1.8 0.8 1.8 1.8v0.5c0 0.1 0.1 0.1 0.1 0.2 0.1 0.1 0.2 0.1 0.3 0.1l0 0 0.2-0.1 0.4-0.3c0.3-0.3 0.7-0.5 1.2-0.5 0.5 0 0.9 0.2 1.3 0.5l2.1 2.1c0.7 0.7 0.7 1.8 0 2.5l-0.4 0.4c0 0 0 0.2 0 0.3 0.1 0.2 0.2 0.3 0.3 0.3h0.5c1 0 1.8 0.8 1.8 1.8v3c0 1-0.8 1.7-1.8 1.7h-0.6c-0.1 0-0.2 0.1-0.2 0.2 -0.1 0.1-0.1 0.3 0 0.3l0.4 0.4c0.3 0.3 0.5 0.8 0.5 1.2 0 0.5-0.2 0.9-0.5 1.3l-2.1 2.1c-0.3 0.3-0.8 0.5-1.3 0.5 -0.5 0-0.9-0.2-1.2-0.5l-0.6-0.6c-0.1 0-0.1 0-0.2 0 -0.1 0-0.2 0.1-0.2 0.2v0.9c0 1-0.8 1.7-1.8 1.7H-262L-262 432.2zM-260.4 416.6c-2.6 0-4.7 2.1-4.7 4.7 0 2.6 2.1 4.7 4.7 4.7 2.6 0 4.7-2.1 4.7-4.7C-255.7 418.7-257.8 416.6-260.4 416.6L-260.4 416.6z"/></g></g></g></svg>