<svg xmlns:sketch="http://www.bohemiancoding.com/sketch/ns" xmlns="http://www.w3.org/2000/svg" xmlns:xlink="http://www.w3.org/1999/xlink" version="1.1" id="Layer_1" x="0px" y="0px" width="133px" height="100px" viewBox="0 0 133 100" xml:space="preserve" enable-background="new 0 0 133 100">
  <style type="text/css">
    
	.st0{fill:#FFFFFF;}
	.st1{fill:#CE9158;}
	.st2{fill:#93C5FF;}
	.st3{fill:#FFCB00;}
	.st4{fill:#A8DC28;}

  </style>
  <title>
    photo icon off
  </title>
  <desc>
    Created with Sketch.
  </desc>
  <g id="PAA" sketch:type="MSPage">
    <g id="Desktop-HD-Motors-PAA-10" transform="translate(-485.000000, -899.000000)" sketch:type="MSArtboardGroup">
      <g id="_x35_-Add-more-details-2" transform="translate(457.000000, -43.000000)" sketch:type="MSLayerGroup">
        <g id="Group" sketch:type="MSShapeGroup">
          <g id="Add-photos-2" transform="translate(0.000000, 525.000000)">
            <g transform="translate(0.000000, 266.000000)">
              <g id="main-photo" transform="translate(22.999324, 111.478761)">
                <g id="photo-icon-off" transform="translate(5.141268, 40.108563)">
                  <rect id="Rectangle-128" x="0" y="0" class="st0" width="132" height="99"/>
                  <path id="Path-106" class="st1" d="M7.8 91.2h116l-0.3-44.8L99.5 67.9 51.1 33.6 7.8 68V91.2z"/>
                  <polygon class="st2" points="8 8 8 67.8 51.1 33.6 99.5 67.9 123.6 46.4 123.9 91 124 91 124 8 "/>
                  <ellipse id="Oval-70" class="st3" cx="99.3" cy="30.4" rx="12.3" ry="11.9"/>
                  <path id="Plus" class="st4" d="M61.4 45.4V27.1h11.2v18.3h17.2v11.2H72.5v17.2H61.4V56.6H43.1V45.4H61.4z"/>
                  <path id="Plus_1_" class="st4" d="M61.4 45.4V27.1h11.2v18.3h17.2v11.2H72.5v17.2H61.4V56.6H43.1V45.4H61.4z"/>
                </g>
              </g>
            </g>
          </g>
        </g>
      </g>
    </g>
  </g>
</svg>
