<svg xmlns="http://www.w3.org/2000/svg" version="1.1" x="0" y="0" width="40" height="40" viewBox="-277 400.9 40 40" xml:space="preserve"><style type="text/css">
	.st0{fill:#FFFFFF;}
	.st1{fill:#313133;stroke:#313133;stroke-width:2;}
	.st2{fill:#A8DC28;}
	.st3{fill:#A8DC28;stroke:#313133;stroke-width:2;}
</style><path class="st0" d="M-243.6 408.9c2.9 3.2 4.6 7.4 4.6 12 0 9.9-8.1 18-18 18 -0.7 0-1.3 0-2-0.1v-26.9c0-1.7 1.3-3 3-3H-243.6z"/><circle class="st0" cx="-257" cy="420.9" r="18"/><title>address-book-icon</title><desc>Created with Sketch.</desc><g transform="translate(-10.000000, -444.000000)"><g transform="translate(7.500000, 446.000000)"><g transform="translate(4.500000, 0.000000)"><circle class="st1" cx="-259" cy="418.9" r="18"/><path class="st2" d="M-245.6 406.9c2.9 3.2 4.6 7.4 4.6 12 0 9.9-8.1 18-18 18 -0.7 0-1.3 0-2-0.1v-26.9c0-1.7 1.3-3 3-3H-245.6z"/><path class="st3" d="M-260.5 431.9L-260.5 431.9c2.5 0 4.5 1.1 4.5 2.5l0 0c0 1.4-2 2.5-4.5 2.5l0 0c-2.5 0-4.5-1.1-4.5-2.5l0 0C-265 433-263 431.9-260.5 431.9zM-260.5 411.9L-260.5 411.9c2.5 0 4.5 1.1 4.5 2.5l0 0c0 1.4-2 2.5-4.5 2.5l0 0c-2.5 0-4.5-1.1-4.5-2.5l0 0C-265 413-263 411.9-260.5 411.9zM-260.5 421.9L-260.5 421.9c2.5 0 4.5 1.1 4.5 2.5l0 0c0 1.4-2 2.5-4.5 2.5l0 0c-2.5 0-4.5-1.1-4.5-2.5l0 0C-265 423-263 421.9-260.5 421.9z"/></g></g></g></svg>