<?xml version="1.0" encoding="utf-8"?>
<!-- Generator: Adobe Illustrator 18.0.0, SVG Export Plug-In . SVG Version: 6.00 Build 0)  -->
<!DOCTYPE svg PUBLIC "-//W3C//DTD SVG 1.1//EN" "http://www.w3.org/Graphics/SVG/1.1/DTD/svg11.dtd">
<svg version="1.1" id="Layer_1" xmlns:sketch="http://www.bohemiancoding.com/sketch/ns"
	 xmlns="http://www.w3.org/2000/svg" xmlns:xlink="http://www.w3.org/1999/xlink" x="0px" y="0px" width="21px" height="15px"
	 viewBox="0 0 21 15" style="enable-background:new 0 0 21 15;" xml:space="preserve">
<style type="text/css">
	.st0{fill:#4A4A4A;}
</style>
<title>Email-dark-icon</title>
<desc>Created with Sketch.</desc>
<g id="Ad-details" sketch:type="MSPage">
	<g id="Services-Ad-details-3" transform="translate(-962.000000, -980.000000)" sketch:type="MSArtboardGroup">
		<g id="Ad-preview" transform="translate(183.000000, 447.000000)" sketch:type="MSLayerGroup">
			<g id="Right-bar" transform="translate(733.000000, 0.000000)" sketch:type="MSShapeGroup">
				<g id="Group_1_" transform="translate(21.000000, 24.000000)">
					<g id="Shop" transform="translate(0.000000, 131.000000)">
						<g id="Group" transform="translate(24.000000, 363.000000)">
							<path id="Email-dark-icon" class="st0" d="M11.3,24L11.3,24c0.2,0,0.3,0,0.4-0.1l0,0c0,0,0,0,0,0l0.4-0.3l9.1-7.9
								c0,0-0.1,0-0.1,0H1.4c0,0,0,0-0.1,0l9.5,8.2C11,23.9,11.1,24,11.3,24L11.3,24z M1.3,16.7v11.6l6.8-5.8L1.3,16.7L1.3,16.7z
								 M14.5,22.6l6.8,5.7V16.8L14.5,22.6L14.5,22.6z M12.3,24.5c-0.3,0.2-0.6,0.4-1,0.4c-0.4,0-0.7-0.1-1-0.4l-1.6-1.3l-7.5,6.3v0
								c0,0.1,0,0.1,0.1,0.1h19.8c0.1,0,0.1-0.1,0.1-0.1v0l-7.5-6.3L12.3,24.5L12.3,24.5z"/>
						</g>
					</g>
				</g>
			</g>
		</g>
	</g>
</g>
</svg>
