<?xml version="1.0" encoding="utf-8"?>
<!-- Generator: Adobe Illustrator 18.0.0, SVG Export Plug-In . SVG Version: 6.00 Build 0)  -->
<!DOCTYPE svg PUBLIC "-//W3C//DTD SVG 1.1//EN" "http://www.w3.org/Graphics/SVG/1.1/DTD/svg11.dtd">
<svg version="1.1" id="Layer_1" xmlns:sketch="http://www.bohemiancoding.com/sketch/ns"
	 xmlns="http://www.w3.org/2000/svg" xmlns:xlink="http://www.w3.org/1999/xlink" x="0px" y="0px" width="21px" height="15px"
	 viewBox="0 0 21 15" style="enable-background:new 0 0 21 15;" xml:space="preserve">
<style type="text/css">
	.st0{fill:#A8A8A8;}
</style>
<title>address</title>
<desc>Created with Sketch.</desc>
<g id="PAA" sketch:type="MSPage">
	<g id="Services--PAA-2" transform="translate(-952.000000, -1204.000000)" sketch:type="MSArtboardGroup">
		<g id="Company-address" transform="translate(458.000000, 1131.000000)" sketch:type="MSLayerGroup">
			<path id="address" sketch:type="MSShapeGroup" class="st0" d="M504.3,82.2L504.3,82.2c0.2,0,0.3,0,0.4-0.1l0,0c0,0,0,0,0,0
				l0.4-0.3l9.1-8c0,0-0.1,0-0.1,0h-19.8c0,0,0,0-0.1,0l9.5,8.4C504,82.1,504.1,82.2,504.3,82.2L504.3,82.2z M494.3,74.7v11.9
				l6.8-5.9L494.3,74.7L494.3,74.7z M507.5,80.8l6.8,5.8V74.8L507.5,80.8L507.5,80.8z M505.3,82.7c-0.3,0.2-0.6,0.4-1,0.4
				c-0.4,0-0.7-0.1-1-0.4l-1.6-1.4l-7.5,6.4v0c0,0.1,0,0.1,0.1,0.1h19.8c0.1,0,0.1-0.1,0.1-0.1v0l-7.5-6.4L505.3,82.7L505.3,82.7z"
				/>
		</g>
	</g>
</g>
</svg>
