<?xml version="1.0" encoding="UTF-8"?>
<svg width="79px" height="79px" viewBox="0 0 79 79" version="1.1" xmlns="http://www.w3.org/2000/svg" xmlns:xlink="http://www.w3.org/1999/xlink">
    <!-- Generator: Sketch 54.1 (76490) - https://sketchapp.com -->
    <title>in-out-call</title>
    <desc>Created with Sketch.</desc>
    <g id="Page-1" stroke="none" stroke-width="1" fill="none" fill-rule="evenodd">
        <g id="icons2" transform="translate(-580.000000, -602.000000)">
            <g id="Details-2" transform="translate(183.000000, -222.000000)">
                <g id="details-copy-2" transform="translate(20.000000, 752.000000)">
                    <g id="Text" transform="translate(44.000000, 22.000000)">
                        <g id="Incall" transform="translate(294.000000, 9.000000)">
                            <g id="in-out-call" transform="translate(40.000000, 42.000000)">
                                <path d="M76.9,38.5 C76.9,17.3 59.7,0.1 38.5,0.1 C17.3,0.1 0.1,17.3 0.1,38.5 C0.1,59.7 17.3,76.9 38.5,76.9 C59.7,76.9 76.9,59.7 76.9,38.5 Z" id="Fill-1_1_" fill="#323234" fill-rule="nonzero"></path>
                                <path d="M38.6,76.9 C59.8,76.9 77,59.7 77,38.5 C77,17.3 59.8,0.1 38.6,0.1 C17.4,0.1 0.2,17.3 0.2,38.5 C0.2,59.7 17.4,76.9 38.6,76.9 L38.6,76.9 Z" id="Stroke-3_15_" stroke="#9C1F9F" stroke-width="2"></path>
                                <path d="M69.2,53.3 C71.4,48.8 72.6,43.8 72.6,38.5 C72.6,19.7 57.3,4.5 38.6,4.5 C19.9,4.5 4.6,19.8 4.6,38.5 C4.6,53.1 13.9,65.6 26.9,70.4 C30.6,71.7 34.5,72.5 38.6,72.5 C52.1,72.5 63.7,64.7 69.2,53.3 Z" id="Stroke-6_15_" stroke="#9C1F9F" stroke-width="1.5" stroke-linecap="round" stroke-linejoin="round" stroke-dasharray="1,4"></path>
                                <path d="M50.4,57.9 L47.8,60.5 C47.3,61 46,61.3 45.9,61.3 C37.6,61.4 29.7,58.1 23.8,52.3 C17.9,46.4 14.7,38.4 14.8,30.1 C14.8,30.1 15.1,28.8 15.6,28.3 L18.2,25.7 C19.2,24.7 21,24.3 22.3,24.7 L22.9,24.9 C24.2,25.3 25.5,26.7 25.9,28.1 L27.2,32.9 C27.6,34.2 27.1,36.1 26.1,37 L24.4,38.7 C26.1,45.1 31.1,50 37.4,51.7 L39.1,50 C40.1,49 41.9,48.6 43.2,48.9 L48,50.2 C49.3,50.6 50.7,51.9 51.2,53.2 L51.4,53.8 C51.8,55.1 51.3,56.9 50.4,57.9 Z" id="Shape" fill="#9C1F9F" fill-rule="nonzero"></path>
                                <g id="Group" transform="translate(35.000000, 19.000000)" fill="#9C1F9F" fill-rule="nonzero">
                                    <polygon id="Shape" points="18.1 9.6 12.9 4.4 4.4 12.9 0.9 9.4 0.9 21.7 13.2 21.7 9.7 18.2"></polygon>
                                    <polygon id="Shape" points="4.5 13 9.7 18.2 18.2 9.7 21.7 13.2 21.7 0.9 9.4 0.9 12.9 4.4"></polygon>
                                </g>
                            </g>
                        </g>
                    </g>
                </g>
            </g>
        </g>
    </g>
</svg>