<?xml version="1.0" encoding="utf-8"?>
<!-- Generator: Adobe Illustrator 19.2.0, SVG Export Plug-In . SVG Version: 6.00 Build 0)  -->
<svg version="1.1" id="Layer_1" xmlns="http://www.w3.org/2000/svg" xmlns:xlink="http://www.w3.org/1999/xlink" x="0px" y="0px"
	 width="1334px" height="198px" viewBox="0 0 1334 198" style="enable-background:new 0 0 1334 198;" xml:space="preserve">
<style type="text/css">
	.st0{fill:#313133;}
	.st1{fill:#D3223C;}
	.st2{opacity:0.1;fill:#F4F4F4;enable-background:new    ;}
	.st3{fill:#E3E3E3;}
	.st4{fill:#C42342;}
	.st5{fill:#EC992F;}
	.st6{fill:#9C1F9F;}
</style>
<rect x="403.9" y="0" class="st0" width="499" height="168.6"/>
<g>
	<g>
		<polyline class="st1" points="1329.3,0.2 1329.3,185.1 1163.7,185.5 1163.7,172.2 		"/>
		<rect x="1163.7" y="0" class="st1" width="169.3" height="180.7"/>
		<polygon class="st2" points="1289.6,0 1296.3,0 1296.3,116.1 1296.3,192.4 1289.6,192.4 		"/>
		<polygon class="st2" points="1259.6,0 1270.2,0 1270.2,116.1 1270.2,192.4 1259.6,192.4 		"/>
		<polygon class="st2" points="1240.2,0 1244.2,0 1244.2,116.1 1244.2,192.4 1240.2,192.4 		"/>
		<polygon class="st2" points="1207.3,0 1211.3,0 1211.3,116.1 1211.3,192.4 1207.3,192.4 		"/>
		<polygon class="st2" points="1328.6,125.4 1332.7,192.4 1324.6,192.4 		"/>
		<polyline class="st1" points="1170.5,0.2 1170.5,185.1 1004.9,185.5 1004.9,172.2 		"/>
		<rect x="1004.9" y="0" class="st1" width="169.3" height="180.7"/>
		<polygon class="st2" points="1130.8,0 1137.5,0 1137.5,116.1 1137.5,192.4 1130.8,192.4 		"/>
		<polygon class="st2" points="1100.8,0 1111.4,0 1111.4,116.1 1111.4,192.4 1100.8,192.4 		"/>
		<polygon class="st2" points="1081.3,0 1085.3,0 1085.3,116.1 1085.3,192.4 1081.3,192.4 		"/>
		<polygon class="st2" points="1048.5,0 1052.5,0 1052.5,116.1 1052.5,192.4 1048.5,192.4 		"/>
		<polygon class="st2" points="1169.8,125.4 1173.9,192.4 1165.8,192.4 		"/>
		<path class="st3" d="M1174.2,185v-1.8h-124.7l-37.4,1.9L848,176.4v10.8h-28.1c-1.2,14.8,16.7,6.6,16.7,6.6c6.6-2.2,11.4,0,11.4,0
			v0.5c9.1,2,9.6-3.3,11.8-4.8s3.9,1,3.9,1c4.1,5.9,11.3,2.5,11.3,2.5c4.1-4.4,8.9-2.5,8.9-2.5c7.9,4.8,14.8,0,14.8,0
			c2.4-2.4,8.3-1,8.3-1c12.8,4.4,20.3,0,20.3,0c3.1-2.6,4.4,1,4.4,1c6.7,4.8,14.4,2.9,14.4,2.9c9.6-0.2,7.6-2.9,7.6-2.9
			c-0.6-2.4,0.7-3.7,0.7-3.7c2.6-3.5,10.9,4.6,10.9,4.6c7.4,4.4,12.9-1.8,12.9-1.8c3.3-3.9,5.2,1.4,5.2,1.4c8.9,9.3,18.3,0,18.3,0
			c2.4-3.2,5.7-1.4,5.7-1.4l3.6-1.5l3.8,1.6c0,0,3.3-1.8,5.7,1.4c0,0,9.4,9.3,18.3,0c0,0,1.9-5.3,5.2-1.4c0,0,5.5,6.2,12.9,1.8
			c0,0,8.3-8.1,10.9-4.6c0,0,1.3,1.3,0.7,3.7c0,0-2,2.7,7.6,2.9c0,0,7.7,1.9,14.4-2.9c0,0,1.3-3.6,4.4-1c0,0,7.5,4.4,20.3,0
			c0,0,5.9-1.4,8.3,1c0,0,6.9,4.8,14.8,0c0,0,4.8-1.9,8.9,2.5c0,0,7.2,3.4,11.3-2.5c0,0,1.7-2.5,3.9-1c2.2,1.5,2.7,6.8,11.8,4.8
			v-0.5v-4.4c1.1-0.4,3.3-0.7,5.1,1.6c0,0,9.4,9.3,18.3,0c0,0,1.9-5.3,5.2-1.4c0,0,5.5,6.2,12.9,1.8c0,0,8.3-8.1,10.9-4.6
			c0,0,1.3,1.3,0.7,3.7c0,0-2,2.7,7.6,2.9c0,0,7.7,1.9,14.4-2.9c0,0,1.3-3.6,4.4-1c0,0,7.5,4.4,20.3,0c0,0,5.9-1.4,8.3,1
			c0,0,6.9,4.8,14.8,0c0,0,4.8-1.9,8.9,2.5c0,0,7.2,3.4,11.3-2.5c0,0,1.7-2.5,3.9-1s2.7,6.8,11.8,4.8v-0.5v-6.6v-4.1h-124.7
			L1174.2,185z"/>
		<path class="st1" d="M1174.1,184.4v-10.7l-161.5,10.9l-164.4-11.1v17.9c9,2,9.6-3.3,11.8-4.8c2.2-1.4,3.9,1,3.9,1
			c4.1,5.9,11.3,2.5,11.3,2.5c4.1-4.4,8.9-2.5,8.9-2.5c8,4.8,14.8,0,14.8,0c2.4-2.4,8.3-1,8.3-1c12.7,4.4,20.3,0,20.3,0
			c3.1-2.5,4.4,1,4.4,1c6.6,4.8,14.4,2.9,14.4,2.9c9.6-0.2,7.6-2.9,7.6-2.9c-0.6-2.3,0.7-3.7,0.7-3.7c2.6-3.5,10.9,4.6,10.9,4.6
			c7.4,4.4,12.9-1.8,12.9-1.8c3.4-3.9,5.2,1.4,5.2,1.4c8.9,9.3,18.3,0,18.3,0c2.4-3.2,5.7-1.4,5.7-1.4l3-0.6l4.1,0.8
			c0,0,3.3-1.8,5.7,1.4c0,0,9.4,9.3,18.3,0c0,0,1.8-5.3,5.2-1.4c0,0,5.5,6.2,12.9,1.8c0,0,8.3-8.1,10.9-4.6c0,0,1.3,1.4,0.7,3.7
			c0,0-2,2.7,7.6,2.9c0,0,7.8,1.9,14.4-2.9c0,0,1.3-3.5,4.4-1c0,0,7.6,4.4,20.3,0c0,0,5.9-1.4,8.3,1c0,0,6.8,4.8,14.8,0
			c0,0,4.8-1.9,8.9,2.5c0,0,7.2,3.4,11.3-2.5c0,0,1.7-2.4,3.9-1c2.2,1.5,2.8,6.8,11.8,4.8v-4.9c1.1-0.4,3.3-0.7,5.1,1.6
			c0,0,9.4,9.3,18.3,0c0,0,1.8-5.3,5.2-1.4c0,0,5.5,6.2,12.9,1.8c0,0,8.3-8.1,10.9-4.6c0,0,1.3,1.4,0.7,3.7c0,0-2,2.7,7.6,2.9
			c0,0,7.8,1.9,14.4-2.9c0,0,1.3-3.5,4.4-1c0,0,7.6,4.4,20.3,0c0,0,5.9-1.4,8.3,1c0,0,6.8,4.8,14.8,0c0,0,4.8-1.9,8.9,2.5
			c0,0,7.2,3.4,11.3-2.5c0,0,1.7-2.4,3.9-1c2.2,1.5,2.8,6.8,11.8,4.8v-17.9L1174.1,184.4z"/>
		<path class="st1" d="M848,191.5c0,0-4.8-2.2-11.4,0c0,0-17.9,8.3-16.7-6.6h28.5L848,191.5z"/>
		<polyline class="st1" points="851.8,0 851.8,184.9 1017.4,185.3 1017.4,172 		"/>
		<rect x="848.1" y="-0.2" class="st1" width="169.3" height="180.7"/>
		<polygon class="st2" points="891.5,-0.2 884.8,-0.2 884.8,115.9 884.8,192.3 891.5,192.3 		"/>
		<polygon class="st2" points="921.5,-0.2 910.8,-0.2 910.8,115.9 910.8,192.3 921.5,192.3 		"/>
		<polygon class="st2" points="940.9,-0.2 936.9,-0.2 936.9,115.9 936.9,192.3 940.9,192.3 		"/>
		<polygon class="st2" points="973.8,-0.2 969.8,-0.2 969.8,115.9 969.8,192.3 973.8,192.3 		"/>
		<rect x="1173.1" y="0" class="st4" width="6.1" height="186.6"/>
		<rect x="1196.3" y="0" class="st4" width="6.1" height="186.6"/>
		<rect x="1220.1" y="0" class="st4" width="6.1" height="183.5"/>
		<rect x="1248.3" y="0" class="st4" width="6.1" height="186.6"/>
		<rect x="1276.5" y="0" class="st4" width="6.1" height="186.6"/>
		<polygon class="st4" points="1300.3,186.6 1306.4,186.6 1306.4,112.6 1306.4,0 1300.3,0 		"/>
		<rect x="1315.1" y="0" class="st4" width="6.1" height="186.6"/>
		<rect x="1014.3" y="0" class="st4" width="6.1" height="186.4"/>
		<rect x="1037.5" y="0" class="st4" width="6.1" height="186.5"/>
		<rect x="1061.3" y="0" class="st4" width="6.1" height="183.2"/>
		<rect x="1089.5" y="0" class="st4" width="6.1" height="186.5"/>
		<rect x="1117.7" y="0" class="st4" width="6.1" height="186.2"/>
		<polygon class="st4" points="1141.5,186.6 1147.6,186.6 1147.6,112.6 1147.6,0 1141.5,0 		"/>
		<rect x="1156.3" y="0" class="st4" width="6.1" height="186.6"/>
		<rect x="1005.1" y="-0.1" class="st4" width="6.1" height="186.4"/>
		<rect x="981.9" y="-0.1" class="st4" width="2.9" height="186.4"/>
		<rect x="958.1" y="1.6" class="st4" width="6.1" height="183.3"/>
		<polygon class="st4" points="929.9,186.2 936,189.4 936,-0.1 929.9,-0.1 		"/>
		<rect x="901.7" y="-0.1" class="st4" width="6.1" height="186.4"/>
		<polygon class="st4" points="877.9,112.3 877.9,186.2 884,186.2 884,-0.2 877.9,-0.2 		"/>
		<polygon class="st4" points="863.1,186.2 866.1,189.8 869.2,-0.1 863.1,-0.1 		"/>
		<path class="st1" d="M800.3,0c0,0,18.7,110.3,41.8,117.7v5.6c0,0-22.2,25.1-22.2,61.7h34.2V0H800.3z"/>
		<path class="st2" d="M843.3,125.7c-2.5,5.3-4.9,10.7-7.1,16.2c-2.2,5.5-4.4,11.1-6.3,16.8c-1.9,5.7-3.7,11.5-5.2,17.5
			c-0.7,3-1.4,6.1-2,9.2c-0.5,3.1-1,6.3-1.2,9.7H833c-0.5-5.4-0.3-11.2,0.1-17c0.5-5.8,1.3-11.7,2.2-17.5c1-5.9,2.2-11.7,3.5-17.5
			C840.2,137.2,841.6,131.4,843.3,125.7z"/>
		<rect x="842" y="117.7" class="st5" width="12" height="6.2"/>
		<path class="st2" d="M802.7-1.7c0.4,2.7,1.5,7.6,2,10.2s1,5.2,1.5,7.8c1,5.2,2.1,10.4,3.2,15.6c2.3,10.4,4.8,20.7,7.7,30.9
			c1.5,5.1,3.1,10.2,4.8,15.2s3.6,10,5.8,14.9s4.6,9.6,7.6,14.1c1.5,2.2,3.2,4.3,5.1,6.2c1,0.9,2,1.8,3.1,2.5s2.3,1.3,3.6,1.7
			c-1.2-0.5-2.3-1.2-3.3-2s-1.9-1.7-2.8-2.7c-1.7-2-3.1-4.2-4.4-6.4c-2.5-4.6-4.4-9.4-6.1-14.4c-1.7-4.9-3.1-10-4.3-15
			c-1.3-5.1-2.3-10.2-3.3-15.3c-2-10.3-3.5-20.6-4.8-31c-0.6-5.2-1.2-10.4-1.7-15.6c-0.3-2.6-0.5-5.2-0.7-7.8s-0.4-5.2-0.6-7.8
			L802.7-1.7z"/>
		<path class="st2" d="M819.9-0.1c0,1.3,0.1,2.6,0.2,3.9l0.2,3.8c0.2,2.6,0.3,5.1,0.5,7.7c0.4,5.1,0.9,10.2,1.5,15.3
			c1.2,10.1,2.7,20.2,4.6,30.3c2,10,4.4,19.9,7.7,29.6c1.6,4.8,3.5,9.6,5.7,14.2s4.7,9,7.8,13.1c-2.6-4.3-4.7-8.9-6.4-13.6
			s-3.1-9.5-4.3-14.4c-2.3-9.8-3.8-19.7-4.8-29.6c-1-10-1.5-20-1.7-30c-0.1-5-0.1-10,0-15c0-2.5,0.1-5,0.2-7.5l0.1-3.7
			c0.1-1.2,0.1-2.5,0.2-3.7L819.9-0.1z"/>
		<path class="st2" d="M850.9,117.4c-0.9-4.9-1.6-9.8-2.3-14.7c-0.7-4.9-1.3-9.8-1.8-14.8c-1.1-9.9-1.8-19.7-2.2-29.6
			c-0.4-9.8-0.3-19.7,0.4-29.4c0.3-4.9,0.9-9.7,1.6-14.4c0.8-4.7,1.7-9.4,3.1-13.9L838.4-2c-1,5.2-1.6,10.4-1.9,15.5
			c-0.3,5.1-0.4,10.2-0.2,15.3c0.3,10.1,1.2,20.2,2.5,30.1s3.1,19.8,5.1,29.5c1,4.9,2.1,9.7,3.3,14.6
			C848.3,107.8,849.6,112.6,850.9,117.4z"/>
		<path class="st2" d="M848.1,125.2c-1.6,5.3-3,10.7-4.4,16.1c-1.4,5.4-2.7,10.9-3.8,16.4s-2.1,11.1-2.8,16.8
			c-0.3,2.9-0.6,5.8-0.7,8.8c0,1.5-0.1,3,0,4.6s0,1.8,0.3,3.5h10.9c-0.4-1-1.3-3.5-1.5-4.7s-0.4-2.5-0.6-3.7c-0.3-2.6-0.5-5.3-0.6-8
			c-0.2-5.4-0.1-11,0.2-16.5s0.7-11.1,1.2-16.7C846.7,136.3,847.3,130.8,848.1,125.2z"/>
		<polygon class="st2" points="852.4,125.2 848.4,192.3 856.5,192.3 		"/>
	</g>
	<g>
		<polyline class="st1" points="170.3,172.2 170.3,185.5 4.7,185.1 4.7,0.2 		"/>
		<rect x="1" y="0" class="st1" width="169.3" height="180.7"/>
		<polygon class="st2" points="44.4,192.4 37.7,192.4 37.7,116.1 37.7,0 44.4,0 		"/>
		<polygon class="st2" points="74.4,192.4 63.8,192.4 63.8,116.1 63.8,0 74.4,0 		"/>
		<polygon class="st2" points="93.8,192.4 89.8,192.4 89.8,116.1 89.8,0 93.8,0 		"/>
		<polygon class="st2" points="126.7,192.4 122.7,192.4 122.7,116.1 122.7,0 126.7,0 		"/>
		<polygon class="st2" points="9.4,192.4 1.3,192.4 5.4,125.4 		"/>
		<polyline class="st1" points="329.1,172.2 329.1,185.5 163.5,185.1 163.5,0.2 		"/>
		<rect x="159.8" y="0" class="st1" width="169.3" height="180.7"/>
		<polygon class="st2" points="203.2,192.4 196.5,192.4 196.5,116.1 196.5,0 203.2,0 		"/>
		<polygon class="st2" points="233.2,192.4 222.6,192.4 222.6,116.1 222.6,0 233.2,0 		"/>
		<polygon class="st2" points="252.7,192.4 248.7,192.4 248.7,116.1 248.7,0 252.7,0 		"/>
		<polygon class="st2" points="285.5,192.4 281.5,192.4 281.5,116.1 281.5,0 285.5,0 		"/>
		<polygon class="st2" points="168.2,192.4 160.1,192.4 164.2,125.4 		"/>
		<path class="st3" d="M159.8,185v-1.8h124.7l37.4,1.9l164.1-8.7v10.8h28.1c1.2,14.8-16.7,6.6-16.7,6.6c-6.6-2.2-11.4,0-11.4,0v0.5
			c-9.1,2-9.6-3.3-11.8-4.8s-3.9,1-3.9,1c-4.1,5.9-11.3,2.5-11.3,2.5c-4.1-4.4-8.9-2.5-8.9-2.5c-7.9,4.8-14.8,0-14.8,0
			c-2.4-2.4-8.3-1-8.3-1c-12.8,4.4-20.3,0-20.3,0c-3.1-2.6-4.4,1-4.4,1c-6.7,4.8-14.4,2.9-14.4,2.9c-9.6-0.2-7.6-2.9-7.6-2.9
			c0.6-2.4-0.7-3.7-0.7-3.7c-2.6-3.5-10.9,4.6-10.9,4.6c-7.4,4.4-12.9-1.8-12.9-1.8c-3.3-3.9-5.2,1.4-5.2,1.4
			c-8.9,9.3-18.3,0-18.3,0c-2.4-3.2-5.7-1.4-5.7-1.4l-3.6-1.5l-3.8,1.6c0,0-3.3-1.8-5.7,1.4c0,0-9.4,9.3-18.3,0c0,0-1.9-5.3-5.2-1.4
			c0,0-5.5,6.2-12.9,1.8c0,0-8.3-8.1-10.9-4.6c0,0-1.3,1.3-0.7,3.7c0,0,2,2.7-7.6,2.9c0,0-7.7,1.9-14.4-2.9c0,0-1.3-3.6-4.4-1
			c0,0-7.5,4.4-20.3,0c0,0-5.9-1.4-8.3,1c0,0-6.9,4.8-14.8,0c0,0-4.8-1.9-8.9,2.5c0,0-7.2,3.4-11.3-2.5c0,0-1.7-2.5-3.9-1
			c-2.2,1.5-2.7,6.8-11.8,4.8v-0.5v-4.4c-1.1-0.4-3.3-0.7-5.1,1.6c0,0-9.4,9.3-18.3,0c0,0-1.9-5.3-5.2-1.4c0,0-5.5,6.2-12.9,1.8
			c0,0-8.3-8.1-10.9-4.6c0,0-1.3,1.3-0.7,3.7c0,0,2,2.7-7.6,2.9c0,0-7.7,1.9-14.4-2.9c0,0-1.3-3.6-4.4-1c0,0-7.5,4.4-20.3,0
			c0,0-5.9-1.4-8.3,1c0,0-6.9,4.8-14.8,0c0,0-4.8-1.9-8.9,2.5c0,0-7.2,3.4-11.3-2.5c0,0-1.7-2.5-3.9-1s-2.7,6.8-11.8,4.8v-0.5v-6.6
			v-4.1h124.7L159.8,185z"/>
		<path class="st1" d="M159.9,184.4v-10.7l161.5,10.9l164.4-11.1v17.9c-9,2-9.6-3.3-11.8-4.8c-2.2-1.4-3.9,1-3.9,1
			c-4.1,5.9-11.3,2.5-11.3,2.5c-4.1-4.4-8.9-2.5-8.9-2.5c-8,4.8-14.8,0-14.8,0c-2.4-2.4-8.3-1-8.3-1c-12.7,4.4-20.3,0-20.3,0
			c-3.1-2.5-4.4,1-4.4,1c-6.6,4.8-14.4,2.9-14.4,2.9c-9.6-0.2-7.6-2.9-7.6-2.9c0.6-2.3-0.7-3.7-0.7-3.7c-2.6-3.5-10.9,4.6-10.9,4.6
			c-7.4,4.4-12.9-1.8-12.9-1.8c-3.4-3.9-5.2,1.4-5.2,1.4c-8.9,9.3-18.3,0-18.3,0c-2.4-3.2-5.7-1.4-5.7-1.4l-3-0.6l-4.1,0.8
			c0,0-3.3-1.8-5.7,1.4c0,0-9.4,9.3-18.3,0c0,0-1.8-5.3-5.2-1.4c0,0-5.5,6.2-12.9,1.8c0,0-8.3-8.1-10.9-4.6c0,0-1.3,1.4-0.7,3.7
			c0,0,2,2.7-7.6,2.9c0,0-7.8,1.9-14.4-2.9c0,0-1.3-3.5-4.4-1c0,0-7.6,4.4-20.3,0c0,0-5.9-1.4-8.3,1c0,0-6.8,4.8-14.8,0
			c0,0-4.8-1.9-8.9,2.5c0,0-7.2,3.4-11.3-2.5c0,0-1.7-2.4-3.9-1c-2.2,1.5-2.8,6.8-11.8,4.8v-4.9c-1.1-0.4-3.3-0.7-5.1,1.6
			c0,0-9.4,9.3-18.3,0c0,0-1.8-5.3-5.2-1.4c0,0-5.5,6.2-12.9,1.8c0,0-8.3-8.1-10.9-4.6c0,0-1.3,1.4-0.7,3.7c0,0,2,2.7-7.6,2.9
			c0,0-7.8,1.9-14.4-2.9c0,0-1.3-3.5-4.4-1c0,0-7.6,4.4-20.3,0c0,0-5.9-1.4-8.3,1c0,0-6.8,4.8-14.8,0c0,0-4.8-1.9-8.9,2.5
			c0,0-7.2,3.4-11.3-2.5c0,0-1.7-2.4-3.9-1c-2.2,1.5-2.8,6.8-11.8,4.8v-17.9L159.9,184.4z"/>
		<path class="st1" d="M485.6,184.9h28.5c1.2,14.9-16.7,6.6-16.7,6.6c-6.6-2.2-11.4,0-11.4,0L485.6,184.9z"/>
		<polyline class="st1" points="316.6,172 316.6,185.3 482.2,184.9 482.2,0 		"/>
		<rect x="316.6" y="-0.2" class="st1" width="169.3" height="180.7"/>
		<polygon class="st2" points="442.5,192.3 449.2,192.3 449.2,115.9 449.2,-0.2 442.5,-0.2 		"/>
		<polygon class="st2" points="412.5,192.3 423.2,192.3 423.2,115.9 423.2,-0.2 412.5,-0.2 		"/>
		<polygon class="st2" points="393.1,192.3 397.1,192.3 397.1,115.9 397.1,-0.2 393.1,-0.2 		"/>
		<polygon class="st2" points="360.2,192.3 364.2,192.3 364.2,115.9 364.2,-0.2 360.2,-0.2 		"/>
		<rect x="154.8" y="0" class="st4" width="6.1" height="186.6"/>
		<rect x="131.6" y="0" class="st4" width="6.1" height="186.6"/>
		<rect x="107.8" y="0" class="st4" width="6.1" height="183.5"/>
		<rect x="79.6" y="0" class="st4" width="6.1" height="186.6"/>
		<rect x="51.4" y="0" class="st4" width="6.1" height="186.6"/>
		<polygon class="st4" points="33.7,186.6 27.6,186.6 27.6,112.6 27.6,0 33.7,0 		"/>
		<rect x="12.8" y="0" class="st4" width="6.1" height="186.6"/>
		<rect x="313.6" y="0" class="st4" width="6.1" height="186.4"/>
		<rect x="290.4" y="0" class="st4" width="6.1" height="186.5"/>
		<rect x="266.6" y="0" class="st4" width="6.1" height="183.2"/>
		<rect x="238.4" y="0" class="st4" width="6.1" height="186.5"/>
		<rect x="210.2" y="0" class="st4" width="6.1" height="186.2"/>
		<polygon class="st4" points="192.5,186.6 186.4,186.6 186.4,112.6 186.4,0 192.5,0 		"/>
		<rect x="171.6" y="0" class="st4" width="6.1" height="186.6"/>
		<rect x="322.8" y="-0.1" class="st4" width="6.1" height="186.4"/>
		<rect x="349.2" y="-0.1" class="st4" width="2.9" height="186.4"/>
		<rect x="369.8" y="1.6" class="st4" width="6.1" height="183.3"/>
		<polygon class="st4" points="404.1,186.2 398,189.4 398,-0.1 404.1,-0.1 		"/>
		<rect x="426.2" y="-0.1" class="st4" width="6.1" height="186.4"/>
		<polygon class="st4" points="456.1,112.3 456.1,186.2 450,186.2 450,-0.2 456.1,-0.2 		"/>
		<polygon class="st4" points="470.9,186.2 467.9,189.8 464.8,-0.1 470.9,-0.1 		"/>
		<path class="st1" d="M479.9,0v185h34.2c0-36.6-22.2-61.7-22.2-61.7v-5.6C515,110.3,533.7,0,533.7,0L479.9,0z"/>
		<path class="st2" d="M495.2,143.1c1.3,5.8,2.5,11.6,3.5,17.5c0.9,5.8,1.7,11.7,2.2,17.5c0.4,5.8,0.6,11.6,0.1,17h11.5
			c-0.2-3.4-0.7-6.6-1.2-9.7c-0.6-3.1-1.3-6.2-2-9.2c-1.5-6-3.3-11.8-5.2-17.5c-1.9-5.7-4.1-11.3-6.3-16.8
			c-2.2-5.5-4.6-10.9-7.1-16.2C492.4,131.4,493.8,137.2,495.2,143.1z"/>
		<rect x="480" y="117.7" class="st5" width="12" height="6.2"/>
		<path class="st2" d="M518.9-0.6c-0.2,2.6-0.4,5.2-0.6,7.8s-0.4,5.2-0.7,7.8c-0.5,5.2-1.1,10.4-1.7,15.6c-1.3,10.4-2.8,20.7-4.8,31
			c-1,5.1-2,10.2-3.3,15.3c-1.2,5-2.6,10.1-4.3,15c-1.7,5-3.6,9.8-6.1,14.4c-1.3,2.2-2.7,4.4-4.4,6.4c-0.9,1-1.8,1.9-2.8,2.7
			s-2.1,1.5-3.3,2c1.3-0.4,2.5-1,3.6-1.7s2.1-1.6,3.1-2.5c1.9-1.9,3.6-4,5.1-6.2c3-4.5,5.4-9.2,7.6-14.1s4.1-9.9,5.8-14.9
			c1.7-5,3.3-10.1,4.8-15.2c2.9-10.2,5.4-20.5,7.7-30.9c1.1-5.2,2.2-10.4,3.2-15.6c0.5-2.6,1-5.2,1.5-7.8s1.6-7.5,2-10.2L518.9-0.6z
			"/>
		<path class="st2" d="M502.6,0.3c0.1,1.2,0.1,2.5,0.2,3.7l0.1,3.7c0.1,2.5,0.2,5,0.2,7.5c0.1,5,0.1,10,0,15c-0.2,10-0.7,20-1.7,30
			c-1,9.9-2.5,19.8-4.8,29.6c-1.2,4.9-2.6,9.7-4.3,14.4s-3.8,9.3-6.4,13.6c3.1-4.1,5.6-8.5,7.8-13.1s4.1-9.4,5.7-14.2
			c3.3-9.7,5.7-19.6,7.7-29.6c1.9-10.1,3.4-20.2,4.6-30.3c0.6-5.1,1.1-10.2,1.5-15.3c0.2-2.6,0.3-5.1,0.5-7.7l0.2-3.8
			c0.1-1.3,0.2-2.6,0.2-3.9L502.6,0.3z"/>
		<path class="st2" d="M486.8,103c1.2-4.9,2.3-9.7,3.3-14.6c2-9.7,3.8-19.6,5.1-29.5s2.2-20,2.5-30.1c0.2-5.1,0.1-10.2-0.2-15.3
			c-0.3-5.1-0.9-10.3-1.9-15.5l-11.3,2.6c1.4,4.5,2.3,9.2,3.1,13.9c0.7,4.7,1.3,9.5,1.6,14.4c0.7,9.7,0.8,19.6,0.4,29.4
			c-0.4,9.9-1.1,19.7-2.2,29.6c-0.5,5-1.1,9.9-1.8,14.8c-0.7,4.9-1.4,9.8-2.3,14.7C484.4,112.6,485.7,107.8,486.8,103z"/>
		<path class="st2" d="M487.7,141.8c0.5,5.6,0.9,11.2,1.2,16.7s0.4,11.1,0.2,16.5c-0.1,2.7-0.3,5.4-0.6,8c-0.2,1.2-0.4,2.5-0.6,3.7
			s-1.1,3.7-1.5,4.7h10.9c0.3-1.7,0.2-1.9,0.3-3.5s0-3.1,0-4.6c-0.1-3-0.4-5.9-0.7-8.8c-0.7-5.7-1.7-11.3-2.8-16.8s-2.4-11-3.8-16.4
			c-1.4-5.4-2.8-10.8-4.4-16.1C486.7,130.8,487.3,136.3,487.7,141.8z"/>
		<polygon class="st2" points="477.5,192.3 485.6,192.3 481.6,125.2 		"/>
	</g>
</g>
<g>
	<path class="st6" d="M667,137.8c-28.2,0-51.1-22.9-51.1-51.1s22.9-51.1,51.1-51.1s51.1,22.9,51.1,51.1
		C718,114.9,695.2,137.8,667,137.8L667,137.8z"/>
	<path class="st0" d="M667,130.6c-24.2,0-44-19.7-44-44s19.7-44,44-44c24.2,0,44,19.7,44,44S691.2,130.6,667,130.6L667,130.6z"/>
	<path class="st6" d="M639,76.8h4.6V84h6.9v4.4h-6.9v7.2H639v-7.2h-6.9V84h6.9V76.8z"/>
	<path class="st6" d="M662.6,77.3l-5.3,2.7l-2-3.5l8.2-5.1h4.4v24.9l4.7,0.2v3.8H657v-3.7l4.3-0.3c0.9,0,1.3-0.4,1.3-1.5L662.6,77.3
		L662.6,77.3z"/>
	<path class="st6" d="M681.4,85.1c-2.1-1.3-4.5-3.3-4.5-6.7c0-4.2,3.6-7.5,9.1-7.5c6.2,0,8.6,3.4,8.6,6.7c0,3-2,5.3-4.3,7.2
		c3.3,1.9,5.5,4.5,5.5,7.8c0,4.4-3.1,8.3-10.2,8.3c-7.5,0-9.7-4.1-9.7-7.6C675.9,89.1,679.1,86.4,681.4,85.1z M685,87.2
		c-2.1,1.4-3.9,3-3.9,5.7c0,2,1.4,3.9,4.4,3.9c2.8,0,4.5-1.5,4.5-4C690,90.1,687.8,88.7,685,87.2z M682,78.1c0,2.1,1.9,3.6,4.3,4.9
		c1.6-1.1,3.3-3,3.3-5s-1.6-3.2-3.8-3.2C683.6,74.7,682,76.2,682,78.1z"/>
</g>
</svg>
