<svg xmlns="http://www.w3.org/2000/svg" version="1.1" x="0" y="0" width="110" height="110" viewBox="-424 226 110 110" xml:space="preserve"><style type="text/css">
	.st0{fill:#EFEFEF;}
	.st1{fill:#313133;}
	.st2{enable-background:new    ;}
	.st3{fill:none;stroke:#313133;stroke-width:3;}
	.st4{fill:none;stroke:#313133;stroke-width:2;stroke-linecap:round;stroke-linejoin:round;stroke-dasharray:1,4;}
	.st5{fill:none;stroke:#A8DC28;stroke-width:2;stroke-linecap:round;stroke-linejoin:round;stroke-dasharray:1,4;}
</style><title>Adult-Active</title><desc>Created with Sketch.</desc><g transform="translate(-871.000000, -699.000000)"><g transform="translate(-2.000000, 157.000000)"><g transform="translate(459.000000, 0.000000)"><g transform="translate(0.000000, 34.000000)"><g transform="translate(0.000000, 374.000000)"><g transform="translate(0.000000, 134.000000)"><g transform="translate(414.000000, 0.000000)"><path class="st0" d="M-314 281c0-30.3-24.7-55-55-55s-55 24.7-55 55c0 30.3 24.7 55 55 55S-314 311.3-314 281zM-424 226"/><g class="st2"><path class="st1" d="M-385 301.4l-0.9-0.1v-1.1h3.2l2.9 8.1h0l0.8 0v1.2h-3.6v-1.1l0.5 0c0.3 0 0.4-0.1 0.3-0.4l-0.3-0.9h-3.3l-0.4 1.2 0.8 0v1.2h-3.2v-1.1l0.5 0c0.2 0 0.3-0.1 0.4-0.4L-385 301.4zM-385 305.7h2.6l-1.3-4h0L-385 305.7zM-373.8 302.4V301c0-0.2-0.1-0.3-0.4-0.3l-0.6 0v-1.1h2.6v8.5c0 0.2 0.1 0.3 0.4 0.3l0.5 0v1.1h-2.3v-0.8l0 0c-0.4 0.7-1.1 1-1.9 1 -2.2 0-2.8-1.7-2.8-3.4 0-2.4 1.2-4 3.4-4C-374.4 302.2-374.1 302.3-373.8 302.4zM-373.8 303.7c-0.3-0.1-0.6-0.2-1.1-0.2 -1.3 0-1.8 1.3-1.8 2.6 0 1.3 0.3 2.4 1.5 2.4 0.8 0 1.3-0.5 1.3-1.1V303.7zM-363.1 309.5h-2.3v-0.9c-0.5 0.7-1.3 1.1-2.3 1.1 -1.4 0-2.2-0.8-2.2-2.4V304c0-0.3-0.1-0.4-0.4-0.4l-0.4 0v-1.1h2.5v4.4c0 0.9 0.1 1.5 1 1.5 1 0 1.5-0.7 1.5-1.4v-3c0-0.3-0.1-0.4-0.4-0.4l-0.4 0v-1.1h2.5v5.5c0 0.3 0.1 0.4 0.3 0.4l0.5 0V309.5zM-359.7 308.3l0.8 0v1.1h-3.3v-1.1l0.5 0c0.3 0 0.4-0.1 0.4-0.4V301c0-0.3-0.1-0.3-0.3-0.3l-0.5 0v-1.2h2.5V308.3zM-355.9 301v1.5h1.9l-0.1 1.2h-1.7v3.7c0 0.9 0.3 1.1 0.9 1.1 0.4 0 0.7-0.2 1-0.3l0.4 1.1c-0.4 0.3-1.1 0.5-1.8 0.5 -2.2 0-2.2-1.3-2.2-2.3v-3.7h-1l0.1-1c1-0.1 1.3-0.8 1.6-1.6H-355.9z"/></g><circle class="st3" cx="-369" cy="267" r="20"/><g class="st2"><path class="st1" d="M-378.9 263.7l-2.3 1.2 -0.9-1.5 3.6-2.3h2v11.1l2.1 0.1v1.7h-7v-1.6l1.9-0.1c0.4 0 0.6-0.2 0.6-0.7V263.7zM-370.5 267.2c-0.9-0.6-2-1.5-2-3 0-1.9 1.6-3.3 4.1-3.3 2.8 0 3.8 1.5 3.8 3 0 1.3-0.9 2.4-1.9 3.2 1.5 0.9 2.4 2 2.4 3.5 0 1.9-1.4 3.7-4.5 3.7 -3.3 0-4.3-1.8-4.3-3.4C-373 269-371.5 267.8-370.5 267.2zM-368.9 268.1c-0.9 0.6-1.7 1.3-1.7 2.5 0 0.9 0.6 1.7 2 1.7 1.2 0 2-0.7 2-1.8C-366.7 269.4-367.7 268.8-368.9 268.1zM-370.2 264.1c0 0.9 0.8 1.6 1.9 2.2 0.7-0.5 1.5-1.3 1.5-2.2 0-0.9-0.7-1.4-1.7-1.4C-369.5 262.6-370.2 263.2-370.2 264.1zM-358.9 263.5h2v3.2h3.1v2h-3.1v3.2h-2v-3.2h-3.1v-2h3.1V263.5z"/></g><path class="st4" d="M-324 302.8c3.2-6.6 5-14 5-21.8 0-27.6-22.4-50-50-50s-50 22.4-50 50c0 21.5 13.7 39.9 32.8 46.9 5.4 2 11.2 3.1 17.2 3.1C-349.2 331-332.1 319.5-324 302.8zM-424 226"/></g></g></g></g></g></g></g></svg>