<?xml version="1.0" encoding="UTF-8"?>
<svg width="80px" height="79px" viewBox="0 0 80 79" version="1.1" xmlns="http://www.w3.org/2000/svg" xmlns:xlink="http://www.w3.org/1999/xlink">
    <!-- Generator: Sketch 54.1 (76490) - https://sketchapp.com -->
    <title>men</title>
    <desc>Created with Sketch.</desc>
    <g id="Page-1" stroke="none" stroke-width="1" fill="none" fill-rule="evenodd">
        <g id="icons2" transform="translate(-412.000000, -107.000000)">
            <g id="Details-2" transform="translate(183.000000, -222.000000)">
                <g id="details-copy-5" transform="translate(20.000000, 257.000000)">
                    <g id="Text" transform="translate(44.000000, 22.000000)">
                        <g id="Looking-for" transform="translate(150.000000, 20.000000)">
                            <g id="men" transform="translate(16.000000, 31.000000)">
                                <g id="Details_7_">
                                    <path d="M77,38.5 C77,17.3 59.8,0.1 38.6,0.1 C17.4,0.1 0.2,17.3 0.2,38.5 C0.2,59.7 17.4,76.9 38.6,76.9 C59.8,76.9 77,59.7 77,38.5 Z" id="Fill-1_8_" fill="#323234" fill-rule="nonzero"></path>
                                    <path d="M38.7,76.9 C59.9,76.9 77.1,59.7 77.1,38.5 C77.1,17.3 59.9,0.1 38.7,0.1 C17.5,0.1 0.3,17.3 0.3,38.5 C0.3,59.7 17.5,76.9 38.7,76.9 L38.7,76.9 Z" id="Stroke-3_7_" stroke="#9C1F9F" stroke-width="2"></path>
                                    <path d="M69.3,53.3 C71.5,48.8 72.7,43.8 72.7,38.5 C72.7,19.7 57.4,4.5 38.7,4.5 C20,4.5 4.7,19.8 4.7,38.5 C4.7,53.1 14,65.6 27,70.4 C30.7,71.7 34.6,72.5 38.7,72.5 C52.1,72.5 63.8,64.7 69.3,53.3 Z" id="Stroke-6_7_" stroke="#9C1F9F" stroke-width="1.5" stroke-linecap="round" stroke-linejoin="round" stroke-dasharray="1,4"></path>
                                </g>
                                <g id="Group" transform="translate(25.000000, 14.000000)" fill="#9C1F9F" fill-rule="nonzero">
                                    <circle id="Oval" cx="13.6" cy="6.8" r="6"></circle>
                                    <path d="M22.1,13.4 L13.8,13.4 L13.6,13.4 L5.2,13.4 C2.8,13.4 0.8,15.4 0.8,17.8 L0.8,29.1 C0.8,30.4 1.9,31.4 3.2,31.4 C4.5,31.4 5.6,30.3 5.6,29 L5.6,19.9 C5.6,19.7 5.8,19.5 6,19.5 L6.6,19.5 C6.8,19.5 7,19.7 7,19.9 L7,43.1 C7,44.8 8.4,46.1 10,46.1 L10.3,46.1 C12,46.1 13.3,44.8 13.3,43.1 L13.3,31.6 C13.3,31.4 13.5,31.2 13.7,31.2 L13.9,31.2 L14.1,31.2 C14.3,31.2 14.5,31.4 14.5,31.6 L14.5,43.1 C14.5,44.8 15.8,46.1 17.5,46.1 L17.8,46.1 C19.5,46.1 20.8,44.8 20.8,43.1 L20.8,20 C20.8,19.8 21,19.6 21.2,19.6 L21.8,19.6 C22,19.6 22.2,19.8 22.2,20 L22.2,29.1 C22.2,30.4 23.3,31.5 24.6,31.5 C25.9,31.5 26.9,30.5 26.9,29.2 L26.9,17.9 C26.5,15.4 24.6,13.4 22.1,13.4 Z" id="Shape" stroke="#323234" stroke-width="0.3"></path>
                                </g>
                            </g>
                        </g>
                    </g>
                </g>
            </g>
        </g>
    </g>
</svg>