<?xml version="1.0" encoding="utf-8"?>
<!-- Generator: Adobe Illustrator 21.0.2, SVG Export Plug-In . SVG Version: 6.00 Build 0)  -->
<svg version="1.1" id="Layer_1" xmlns="http://www.w3.org/2000/svg" xmlns:xlink="http://www.w3.org/1999/xlink" x="0px" y="0px"
	 width="62px" height="62px" viewBox="0 0 62 62" style="enable-background:new 0 0 62 62;" xml:space="preserve">
<style type="text/css">
	.st0{fill:#EFEFEF;}
	.st1{fill:#313133;}
</style>
<title>Adult-Mobile</title>
<desc>Created with Sketch.</desc>
<g id="Page-1">
	<g id="_x31_.-Mobile-Homepage-navigation-" transform="translate(-248.000000, -498.000000)">
		<g id="Hero" transform="translate(-320.000000, -182.000000)">
			<g id="What-will-you-discover_x3F_-Copy" transform="translate(320.000000, 580.000000)">
				<g id="categories" transform="translate(10.000000, 19.000000)">
					<g id="Adult-Mobile" transform="translate(238.000000, 81.000000)">
						<path id="Shape" class="st0" d="M62,31C62,13.9,48.1,0,31,0S0,13.9,0,31s13.9,31,31,31S62,48.1,62,31z"/>
						<g id="Group" transform="translate(20.727273, 41.145455)">
							<path id="Shape_1_" class="st1" d="M1.8,1.1L1.3,1V0.4h1.8L4.7,5l0,0h0.5v0.7h-2V5h0.3C3.6,5,3.7,5,3.6,4.8L3.4,4.3H1.6
								L1.4,5h0.5v0.7H0V5h0.3C0.4,5,0.5,5,0.5,4.8L1.8,1.1z M1.8,3.5h1.5L2.5,1.2l0,0L1.8,3.5z M8.1,1.6V0.8c0-0.1-0.1-0.2-0.2-0.2
								H7.6V0.1H9v4.8C9,5,9.1,5,9.2,5h0.3v0.6H8.2V5.2l0,0C8,5.6,7.6,5.7,7.2,5.7c-1.2,0-1.6-1-1.6-1.9c0-1.4,0.7-2.3,1.9-2.3
								C7.8,1.5,7.9,1.6,8.1,1.6z M8.1,2.4C7.9,2.3,7.8,2.3,7.5,2.3c-0.7,0-1,0.7-1,1.5s0.2,1.4,0.8,1.4c0.5,0,0.7-0.3,0.7-0.6
								L8.1,2.4L8.1,2.4z M14.1,5.6h-1.3V5.1c-0.3,0.4-0.7,0.6-1.3,0.6c-0.8,0-1.2-0.5-1.2-1.4V2.5c0-0.2-0.1-0.2-0.2-0.2H9.9V1.7
								h1.4v2.5c0,0.5,0.1,0.8,0.6,0.8c0.6,0,0.8-0.4,0.8-0.8V2.5c0-0.2-0.1-0.2-0.2-0.2h-0.2V1.7h1.4v3.1C13.6,5,13.7,5,13.8,5h0.3
								L14.1,5.6L14.1,5.6z M16.1,5h0.5v0.6h-1.9V5h0.3c0.2,0,0.2-0.1,0.2-0.2V0.8c0-0.2-0.1-0.2-0.2-0.2h-0.3V0h1.4L16.1,5L16.1,5z
								 M18.2,0.8v0.8h1.1l-0.1,0.7h-1v2.1c0,0.5,0.2,0.6,0.5,0.6c0.2,0,0.4-0.1,0.6-0.2l0.2,0.6c-0.2,0.2-0.6,0.3-1,0.3
								c-1.2,0-1.2-0.7-1.2-1.3V2.4h-0.6l0.1-0.6c0.6-0.1,0.7-0.5,0.9-0.9h0.5V0.8z"/>
						</g>
						<g id="Group_1_" transform="translate(19.000000, 10.000000)">
							<g id="Group-9">
								<path class="st1" d="M12,25C4.8,25-1,19.2-1,12S4.8-1,12-1c7.2,0,13,5.8,13,13S19.2,25,12,25z M12,1C5.9,1,1,5.9,1,12
									s4.9,11,11,11s11-4.9,11-11S18.1,1,12,1z"/>
								<path id="Shape_2_" class="st1" d="M7,9.8l-1.2,0.6L5.4,9.7l1.8-1.2h1v5.7l1.1,0.1v0.9H5.8v-0.8l1-0.1
									c0.2,0,0.3-0.1,0.3-0.4V9.8L7,9.8z M11.3,11.6c-0.5-0.3-1-0.8-1-1.5c0-1,0.8-1.7,2.1-1.7c1.4,0,1.9,0.8,1.9,1.5
									c0,0.7-0.5,1.2-1,1.6c0.8,0.5,1.2,1,1.2,1.8c0,1-0.7,1.9-2.3,1.9c-1.7,0-2.2-0.9-2.2-1.7C10,12.5,10.8,11.9,11.3,11.6z
									 M12.1,12.1c-0.5,0.3-0.9,0.7-0.9,1.3c0,0.5,0.3,0.9,1,0.9c0.6,0,1-0.4,1-0.9C13.3,12.7,12.8,12.4,12.1,12.1z M11.5,10
									c0,0.5,0.4,0.8,1,1.1c0.4-0.3,0.8-0.7,0.8-1.1s-0.4-0.7-0.9-0.7C11.8,9.3,11.5,9.6,11.5,10z M17.2,9.7h1v1.6h1.6v1h-1.6V14
									h-1v-1.6h-1.6v-1h1.6V9.7z"/>
							</g>
						</g>
					</g>
				</g>
			</g>
		</g>
	</g>
</g>
</svg>
