<?xml version="1.0" encoding="utf-8"?>
<!-- Generator: Adobe Illustrator 20.1.0, SVG Export Plug-In . SVG Version: 6.00 Build 0)  -->
<svg version="1.1" id="Layer_1" xmlns="http://www.w3.org/2000/svg" xmlns:xlink="http://www.w3.org/1999/xlink" x="0px" y="0px"
	 width="43px" height="43px" viewBox="0 0 43 43" style="enable-background:new 0 0 43 43;" xml:space="preserve">
<style type="text/css">
	.st0{fill:none;stroke:#313133;stroke-width:2;stroke-linecap:round;stroke-linejoin:round;stroke-dasharray:1,3;}
	.st1{fill:#313133;}
</style>
<title>adult-icon</title>
<desc>Created with Sketch.</desc>
<g id="Page-1_1_">
	<g id="Dashboard---Credits" transform="translate(-763.000000, -787.000000)">
		<g id="adult-icon" transform="translate(764.000000, 788.000000)">
			<path id="Stroke-3" class="st0" d="M39,29.4c1.3-2.7,2-5.7,2-8.9C41,9.2,31.8,0,20.5,0S0,9.2,0,20.5c0,8.8,5.6,16.3,13.5,19.3
				c2.2,0.9,4.6,1.2,7,1.2C28.6,41,35.7,36.3,39,29.4L39,29.4z"/>
			<path id="Page-1" class="st1" d="M30.2,16.6h2v3.2h3.1v2h-3.1V25h-2v-3.2h-3.1v-2h3.1V16.6z M18.9,17.2c0,0.9,0.8,1.6,1.9,2.2
				c0.7-0.5,1.5-1.3,1.5-2.2c0-0.9-0.7-1.4-1.7-1.4C19.6,15.7,18.9,16.3,18.9,17.2L18.9,17.2z M20.2,21.2c-0.9,0.6-1.7,1.3-1.7,2.5
				c0,0.9,0.6,1.7,2,1.7c1.2,0,2-0.7,2-1.8C22.4,22.5,21.4,21.9,20.2,21.2L20.2,21.2z M18.6,20.3c-0.9-0.6-2-1.5-2-3
				c0-1.9,1.6-3.3,4.1-3.3c2.8,0,3.8,1.5,3.8,3c0,1.3-0.9,2.4-1.9,3.2c1.5,0.9,2.4,2,2.4,3.5c0,1.9-1.4,3.7-4.5,3.7
				c-3.3,0-4.3-1.8-4.3-3.4C16.1,22.1,17.6,20.9,18.6,20.3L18.6,20.3z M10.2,16.8L7.9,18L7,16.5l3.6-2.3h2v11.1l2.1,0.1v1.7h-7v-1.6
				l1.9-0.1c0.4,0,0.6-0.2,0.6-0.7V16.8z"/>
		</g>
	</g>
</g>
</svg>
