<?xml version="1.0" encoding="UTF-8"?>
<svg width="80px" height="79px" viewBox="0 0 80 79" version="1.1" xmlns="http://www.w3.org/2000/svg" xmlns:xlink="http://www.w3.org/1999/xlink">
    <!-- Generator: Sketch 54.1 (76490) - https://sketchapp.com -->
    <title>agency</title>
    <desc>Created with Sketch.</desc>
    <g id="Page-1" stroke="none" stroke-width="1" fill="none" fill-rule="evenodd">
        <g id="icons2" transform="translate(-744.000000, -370.000000)">
            <g id="Details-2" transform="translate(183.000000, -222.000000)">
                <g id="details-copy-4" transform="translate(20.000000, 520.000000)">
                    <g id="agency" transform="translate(542.000000, 73.000000)">
                        <path d="M77.6,38.5 C77.6,17.3 60.4,0.1 39.2,0.1 C18,0.1 0.8,17.3 0.8,38.5 C0.8,59.7 18,76.9 39.2,76.9 C60.4,76.9 77.6,59.7 77.6,38.5 Z" id="Fill-1_10_" fill="#323234" fill-rule="nonzero"></path>
                        <path d="M39.2,76.9 C60.4,76.9 77.6,59.7 77.6,38.5 C77.6,17.3 60.4,0.1 39.2,0.1 C18,0.1 0.8,17.3 0.8,38.5 C0.9,59.7 18.1,76.9 39.2,76.9 L39.2,76.9 Z" id="Stroke-3_9_" stroke="#9C1F9F" stroke-width="2"></path>
                        <path d="M69.9,53.3 C72.1,48.8 73.3,43.8 73.3,38.5 C73.3,19.7 58,4.5 39.3,4.5 C20.6,4.5 5.3,19.8 5.3,38.5 C5.3,53.1 14.6,65.6 27.6,70.4 C31.3,71.7 35.2,72.5 39.3,72.5 C52.7,72.5 64.3,64.7 69.9,53.3 Z" id="Stroke-6_9_" stroke="#9C1F9F" stroke-width="1.5" stroke-linecap="round" stroke-linejoin="round" stroke-dasharray="1,4"></path>
                        <g id="Group" transform="translate(19.000000, 20.000000)" fill="#9C1F9F" fill-rule="nonzero">
                            <circle id="Oval" cx="6.95" cy="4.6" r="3.9"></circle>
                            <path d="M2.65,22 L3.05,22 L3.05,29.6 C3.05,30.7 3.95,31.5 4.95,31.5 L8.95,31.5 C10.05,31.5 10.85,30.6 10.85,29.6 L10.85,29.2 C10.45,28.5 10.25,27.8 10.25,27 L10.25,17 C10.25,15.1 11.45,13.4 13.15,12.6 L13.15,11.8 C13.15,10.7 12.25,9.9 11.25,9.9 L2.65,9.9 C1.55,9.9 0.75,10.8 0.75,11.8 L0.75,20.1 C0.75,21.1 1.55,22 2.65,22 Z" id="Shape"></path>
                            <circle id="Oval" cx="33.6" cy="4.6" r="3.9"></circle>
                            <path d="M27.45,11.8 L27.45,12.6 C29.15,13.3 30.35,15 30.35,17 L30.35,27 C30.35,27.8 30.15,28.6 29.75,29.2 L29.75,29.6 C29.75,30.7 30.65,31.5 31.65,31.5 L35.65,31.5 C36.75,31.5 37.55,30.6 37.55,29.6 L37.55,22 L37.95,22 C39.05,22 39.85,21.1 39.85,20.1 L39.85,11.9 C39.85,10.8 38.95,10 37.95,10 L29.35,10 C28.25,9.9 27.45,10.7 27.45,11.8 Z" id="Shape"></path>
                            <path d="M13.25,16.9 L13.25,16.9 L13.25,20 L13.25,26.9 C13.25,28 14.15,28.8 15.15,28.8 L15.85,28.8 L15.85,37.8 C15.85,38.9 16.75,39.7 17.75,39.7 L22.85,39.7 C23.95,39.7 24.75,38.8 24.75,37.8 L24.75,28.7 L25.45,28.7 C26.55,28.7 27.35,27.8 27.35,26.8 L27.35,19.9 L27.35,16.8 L27.35,16.8 C27.35,15.7 26.45,14.9 25.45,14.9 L15.05,14.9 C14.05,15 13.25,15.9 13.25,16.9 Z" id="Shape"></path>
                            <circle id="Oval" cx="20.3" cy="9" r="4.4"></circle>
                        </g>
                    </g>
                </g>
            </g>
        </g>
    </g>
</svg>