<?xml version="1.0" encoding="utf-8"?>
<!-- Generator: Adobe Illustrator 21.0.1, SVG Export Plug-In . SVG Version: 6.00 Build 0)  -->
<svg version="1.1" id="Layer_1" xmlns:sketch="http://www.bohemiancoding.com/sketch/ns"
	 xmlns="http://www.w3.org/2000/svg" xmlns:xlink="http://www.w3.org/1999/xlink" x="0px" y="0px" viewBox="0 0 56 56"
	 style="enable-background:new 0 0 56 56;" xml:space="preserve">
<style type="text/css">
	.st0{fill:none;stroke:#FFFFFF;stroke-width:2;stroke-linecap:round;stroke-linejoin:round;stroke-dasharray:1,4;}
	.st1{fill:#EFEFEF;}
</style>
<title>Motors-hero-icon</title>
<desc>Created with Sketch.</desc>
<g id="landing-page" sketch:type="MSPage">
	<g id="Desktop---landing-Page-Motors" transform="translate(-691.000000, -182.000000)" sketch:type="MSArtboardGroup">
		<g id="Hero" transform="translate(-280.000000, -200.000000)" sketch:type="MSLayerGroup">
			
				<g id="p-_x2B_-for-sale-active-2-_x2B_-For-sale-_x2B_-Line" transform="translate(682.000000, 383.000000)" sketch:type="MSShapeGroup">
				<g id="for-sale-active-2-_x2B_-For-sale" transform="translate(200.000000, 0.000000)">
					<g id="Motors-hero-icon">
						<g transform="translate(90.000000, 0.000000)">
							<path id="Stroke-6" class="st0" d="M50.9,38.5c1.7-3.5,2.6-7.4,2.6-11.5C53.5,12.4,41.6,0.5,27,0.5S0.5,12.4,0.5,27
								c0,11.4,7.2,21.1,17.4,24.9c2.9,1.1,5.9,1.6,9.1,1.6C37.5,53.5,46.6,47.4,50.9,38.5z"/>
						</g>
					</g>
				</g>
			</g>
		</g>
	</g>
</g>
<g>
	<path class="st1" d="M14.7,23.2h2.4v3.9h3.7v2.3h-3.7v3.8h-2.4v-3.8H11v-2.3h3.7V23.2z"/>
	<path class="st1" d="M27.3,23.4l-2.8,1.4L23.4,23l4.4-2.7h2.3v13.3l2.5,0.1v2h-8.3v-2l2.3-0.1c0.5,0,0.7-0.2,0.7-0.8
		C27.3,32.8,27.3,23.4,27.3,23.4z"/>
	<path class="st1" d="M37.3,27.6c-1.1-0.7-2.4-1.8-2.4-3.6c0-2.2,1.9-4,4.9-4c3.3,0,4.6,1.8,4.6,3.6c0,1.6-1.1,2.8-2.3,3.8
		c1.8,1,2.9,2.4,2.9,4.2c0,2.3-1.6,4.4-5.4,4.4c-4,0-5.2-2.2-5.2-4.1C34.3,29.7,36.1,28.3,37.3,27.6z M39.2,28.7
		c-1.1,0.7-2.1,1.6-2.1,3c0,1.1,0.8,2.1,2.4,2.1c1.5,0,2.4-0.8,2.4-2.2C41.9,30.3,40.7,29.5,39.2,28.7z M37.6,23.8
		c0,1.1,1,1.9,2.3,2.6c0.8-0.6,1.7-1.6,1.7-2.7c0-1.1-0.8-1.7-2-1.7C38.5,22.1,37.6,22.8,37.6,23.8z"/>
</g>
</svg>
