<svg xmlns:sketch="http://www.bohemiancoding.com/sketch/ns" xmlns="http://www.w3.org/2000/svg" xmlns:xlink="http://www.w3.org/1999/xlink" version="1.1" id="Layer_1" x="0" y="0" width="133.9" height="61.1" viewBox="-412 250.9 133.9 61.1" xml:space="preserve" enable-background="new -412 250.9 133.9 61.1">
  <style type="text/css">
    
	.st0{fill:#4A4A4A;}
	.st1{fill:#313133;}
	.st2{fill:#A8DC28;}
	.st3{fill:#FFFFFF;}

  </style>
  <g id="external-link-arrow" transform="translate(106.000000, 0.000000)" sketch:type="MSShapeGroup">
    <g id="Search-results-list">
      <g id="Search-mobile-panel-3">
        <g id="Ad-list--mobile-portrait--_x2B_-Group-_x2B_-Ad-list--mobile-portrait--7">
          <g id="Ad-list--mobile-portrait-">
            <g id="_x31_5-miles-away-_x28_30-mi-_x2B_-Oval-273">
              <path id="Shape-Copy-4" class="st0" d="M-402.8 250.9c-0.2-0.1-0.4-0.1-0.5 0 -0.2 0.1-0.3 0.2-0.3 0.4v1.9c-0.2 0-0.4 0.1-0.6 0.1 -0.8 0.3-1.6 0.5-2.5 0.9 -0.8 0.4-1.5 0.8-2.3 1.3 -0.5 0.4-1 0.8-1.5 1.3 -1.2 1.3-1.9 3-1.8 4.7 0 0.3 0 0.6 0.1 0.8 0 0.2 0.2 0.4 0.5 0.4s0.5-0.2 0.5-0.4c0.1-0.7 0.4-1.4 0.7-1.9 0.4-0.6 0.9-1.2 1.5-1.6 0.5-0.3 1.1-0.6 1.7-0.8 0.7 0 1.4-0.2 2.3-0.2 0.4 0 0.8 0 1.2 0 0 0 0 0 0.1 0v1.8c0 0.2 0.1 0.3 0.3 0.4 0.2 0.1 0.3 0.1 0.5 0l7.3-4.1c0.2-0.1 0.3-0.3 0.3-0.5s-0.1-0.3-0.2-0.4L-402.8 250.9 -402.8 250.9z"/>
            </g>
          </g>
        </g>
      </g>
    </g>
  </g>
  <path id="Fill-1" class="st1" d="M-311.5 281.5l1.9-5.9h0.1l1.9 5.9H-311.5L-311.5 281.5zM-303.7 285.1l-4.3-11.6h-4.6v1.6l1.2 0.1 -3.4 9.4c-0.1 0.4-0.2 0.5-0.6 0.6l-0.7 0.1v1.5h4.9V285l-1.3 0.1 0.5-1.7h4.9l0.4 1.1c0.1 0.4 0.1 0.5-0.4 0.5h-0.7v1.8h5.3V285L-303.7 285.1 -303.7 285.1 -303.7 285.1z"/>
  <path id="Fill-2" class="st1" d="M-295.1 285.1h-1.9v-9.7h1.7c2.3 0 4.1 1.1 4.1 4.7C-291.3 283.3-292.7 285.1-295.1 285.1M-295.2 273.4h-5.7v1.7l1.2 0.1v9.4c0 0.4-0.2 0.5-0.6 0.6l-0.7 0.1v1.5h5.8c3.4 0 6.4-1.9 6.4-7.2C-288.7 275.4-291.2 273.4-295.2 273.4"/>
  <path id="Fill-3" class="st2" d="M-321.8 280c0 0.9-0.8 1.7-1.8 1.7s-1.8-0.8-1.8-1.7c0-0.9 0.8-1.7 1.8-1.7S-321.8 279.1-321.8 280M-319 278.3l-8-9.4c-0.5-0.6-1.3-1-2.2-1H-412v24.7h82.8c1 0 2-0.5 2.5-1.4l7.8-9.4C-318.1 280.8-318.1 279.3-319 278.3"/>
  <path id="Fill-4" class="st3" d="M-405 285.4l0.7-0.1c0.4 0 0.6-0.2 0.6-0.6v-9.4l-1.2-0.1v-1.7h10.2v3.4l-2.1 0.1v-0.8c0-0.4 0-0.6-0.6-0.6h-3.6v3.6h5.2v2.1h-5.2v4l1.9 0.1v1.7h-5.9V285.4"/>
  <path id="Fill-5" class="st3" d="M-386.6 279.8c1.8 0 2.6-0.8 2.6-2.2 0-1.8-1.1-2.1-2.9-2.1h-1.5v4.3H-386.6L-386.6 279.8zM-392.3 285.4l0.7-0.1c0.4 0 0.6-0.2 0.6-0.6v-9.4l-1.2-0.1v-1.7h5.7c3.1 0 5 1 5 3.7 0 2-1.4 3.1-2.5 3.6 0.6 0.2 0.9 0.5 1.2 1.2l1.5 3.2h1.2v1.7h-5.2v-1.6l0.6-0.1c0.5-0.1 0.6-0.2 0.4-0.7l-1-2c-0.3-0.6-0.6-0.9-1.3-0.9h-1.9v3.5l1.4 0.1v1.7h-5.2L-392.3 285.4 -392.3 285.4z"/>
  <path id="Fill-6" class="st3" d="M-376.2 275.3l-1.2-0.1v-1.7h5.1v1.6l-0.7 0.1c-0.4 0-0.6 0.2-0.6 0.7v9.4l1.2 0.1v1.7h-5.1v-1.6l0.7-0.1c0.4 0 0.6-0.2 0.6-0.7V275.3"/>
  <path id="Fill-7" class="st3" d="M-365.6 285.1h2.1c2.4 0 3.8-1.7 3.8-4.9 0-3.7-1.8-4.7-4.1-4.7h-1.9v9.6H-365.6L-365.6 285.1zM-369.5 285.4l0.7-0.1c0.4 0 0.6-0.2 0.6-0.6v-9.4l-1.2-0.1v-1.7h5.8c4 0 6.6 2.1 6.6 6.3 0 5.3-3.1 7.2-6.5 7.2h-6V285.4L-369.5 285.4z"/>
  <path id="Fill-8" class="st3" d="M-351.2 281.6h3.9l-1.9-5.8h-0.1L-351.2 281.6 -351.2 281.6zM-351.3 275.3l-1.3-0.1v-1.7h4.8l4.3 11.7 0 0 1.2 0.1v1.7h-5.4v-1.6l0.8-0.1c0.4 0 0.7-0.2 0.5-0.6l-0.4-1.3h-4.9l-0.6 1.8 1.3 0.1v1.7h-4.9v-1.6l0.7-0.1c0.4 0 0.5-0.2 0.6-0.6L-351.3 275.3 -351.3 275.3z"/>
  <path id="Fill-9" class="st3" d="M-338.3 281.9l-3.6-6.6 -1-0.1v-1.7h5.1v1.6l-0.5 0.1c-0.5 0-0.6 0.4-0.4 0.8l1.8 3.5h0.1l2.3-4.2 -1.1-0.1v-1.7h4.5v1.6l-0.6 0.1c-0.3 0-0.5 0.2-0.7 0.6l-3.3 6v3.4l1.6 0.1v1.7h-5.9v-1.6l1.1-0.1c0.4 0 0.6-0.2 0.6-0.6L-338.3 281.9"/>
  <path class="st1" d="M-412 311.6c0-0.1 0-0.1 0-0.2l3.8-10.5c0.1-0.2 0.3-0.3 0.6-0.3h0.5c0.4 0 0.6 0.1 0.6 0.3l3.8 10.5c0 0.1 0 0.1 0 0.2 0 0.2-0.2 0.3-0.7 0.3h-0.1c-0.4 0-0.6-0.1-0.6-0.3l-0.9-2.6h-4.7l-0.9 2.6c-0.1 0.2-0.3 0.3-0.6 0.3h-0.1C-411.7 311.9-412 311.8-412 311.6zM-409.2 307.8h3.8l-1.7-4.8 -0.2-0.9 -0.3 0.9L-409.2 307.8z"/>
  <path class="st1" d="M-400.6 311.5v-6.9h-0.6c-0.2 0-0.3-0.2-0.3-0.5v-0.2c0-0.3 0.1-0.5 0.3-0.5h0.6v-1.5c0-0.9 0.2-1.5 0.7-1.8 0.4-0.3 0.9-0.4 1.3-0.4 0.8 0 1.2 0.2 1.2 0.5 0 0.1 0 0.3-0.1 0.5 -0.1 0.2-0.1 0.3-0.2 0.3 0 0-0.1 0-0.2 0s-0.3 0-0.5 0 -0.4 0.1-0.6 0.2c-0.2 0.1-0.2 0.5-0.2 1v1.4h1.4c0.2 0 0.3 0.2 0.3 0.5v0.2c0 0.3-0.1 0.5-0.3 0.5h-1.4v6.9c0 0.2-0.2 0.4-0.6 0.4h-0.1C-400.4 311.9-400.6 311.7-400.6 311.5z"/>
  <path class="st1" d="M-395.4 311.5v-6.9h-0.6c-0.2 0-0.3-0.2-0.3-0.5v-0.2c0-0.3 0.1-0.5 0.3-0.5h0.6v-1.5c0-0.9 0.2-1.5 0.7-1.8 0.4-0.3 0.9-0.4 1.3-0.4 0.8 0 1.2 0.2 1.2 0.5 0 0.1 0 0.3-0.1 0.5 -0.1 0.2-0.1 0.3-0.2 0.3 0 0-0.1 0-0.2 0 -0.1 0-0.3 0-0.5 0 -0.2 0-0.4 0.1-0.6 0.2 -0.2 0.1-0.2 0.5-0.2 1v1.4h1.4c0.2 0 0.3 0.2 0.3 0.5v0.2c0 0.3-0.1 0.5-0.3 0.5h-1.4v6.9c0 0.2-0.2 0.4-0.6 0.4h-0.1C-395.2 311.9-395.4 311.7-395.4 311.5z"/>
  <path class="st1" d="M-389.9 301.4c-0.4 0-0.6-0.1-0.6-0.4v-0.9c0-0.2 0.2-0.4 0.6-0.4h0.2c0.4 0 0.6 0.1 0.6 0.4v0.9c0 0.2-0.2 0.4-0.6 0.4H-389.9zM-390.5 311.5v-7.7c0-0.2 0.2-0.4 0.6-0.4h0.1c0.4 0 0.6 0.1 0.6 0.4v7.7c0 0.2-0.2 0.4-0.6 0.4h-0.1C-390.3 311.9-390.5 311.7-390.5 311.5z"/>
  <path class="st1" d="M-386.4 309.7v-9.6c0-0.2 0.2-0.4 0.6-0.4h0.1c0.4 0 0.6 0.1 0.6 0.4v9.4c0 0.8 0.3 1.2 0.9 1.2 0.2 0 0.3 0 0.5 0s0.2 0 0.2 0c0.1 0 0.2 0.1 0.2 0.3 0.1 0.2 0.1 0.3 0.1 0.5 0 0.3-0.4 0.5-1.2 0.5 -0.5 0-1-0.2-1.4-0.5C-386.2 311.2-386.4 310.5-386.4 309.7z"/>
  <path class="st1" d="M-380.9 301.4c-0.4 0-0.6-0.1-0.6-0.4v-0.9c0-0.2 0.2-0.4 0.6-0.4h0.2c0.4 0 0.6 0.1 0.6 0.4v0.9c0 0.2-0.2 0.4-0.6 0.4H-380.9zM-381.5 311.5v-7.7c0-0.2 0.2-0.4 0.6-0.4h0.1c0.4 0 0.6 0.1 0.6 0.4v7.7c0 0.2-0.2 0.4-0.6 0.4h-0.1C-381.3 311.9-381.5 311.7-381.5 311.5z"/>
  <path class="st1" d="M-372.6 306.6v-0.8c0-0.9-0.6-1.3-1.8-1.3 -0.8 0-1.5 0.2-2.1 0.5 -0.2 0.1-0.3 0.2-0.4 0.2s-0.2-0.1-0.4-0.3c-0.1-0.2-0.2-0.4-0.2-0.5 0-0.2 0.3-0.5 0.9-0.7 0.6-0.2 1.4-0.3 2.2-0.3s1.6 0.2 2.1 0.7 0.8 1.1 0.8 1.8v3.6c0 0.6 0 1.1 0.1 1.4 0.1 0.4 0.1 0.6 0.1 0.6 0 0.1-0.1 0.2-0.3 0.3s-0.4 0.1-0.5 0.1 -0.2 0-0.2 0l-0.1-0.1c0 0-0.1-0.1-0.1-0.2 0-0.1 0-0.1-0.1-0.2 0-0.1 0-0.2-0.1-0.2 -0.1 0 0-0.1 0-0.2s0-0.2 0-0.2c-0.7 0.8-1.6 1.2-2.7 1.2 -0.8 0-1.5-0.2-2-0.6s-0.8-1-0.8-1.9 0.3-1.5 0.9-1.9c0.6-0.4 1.2-0.7 2-0.8C-374.5 306.7-373.5 306.6-372.6 306.6zM-376.5 309.4c0 0.9 0.5 1.3 1.4 1.3 0.5 0 1-0.1 1.4-0.3 0.4-0.2 0.8-0.5 1.2-0.8v-1.9c-1.3 0-2.2 0.1-2.6 0.2 -0.2 0.1-0.4 0.2-0.6 0.3C-376.3 308.5-376.5 308.9-376.5 309.4z"/>
  <path class="st1" d="M-368.3 309.7v-5.1h-0.8c-0.2 0-0.3-0.2-0.3-0.5v-0.2c0-0.3 0.1-0.5 0.3-0.5h0.8l0.2-1.7c0-0.2 0.2-0.4 0.5-0.4h0.2c0.3 0 0.5 0.1 0.5 0.4v1.7h1.3c0.2 0 0.3 0.2 0.3 0.5v0.2c0 0.3-0.1 0.5-0.3 0.5h-1.3v5c0 0.8 0.3 1.2 0.9 1.2 0.2 0 0.3 0 0.5 0 0.1 0 0.2 0 0.2 0 0.1 0 0.2 0.1 0.2 0.3s0.1 0.3 0.1 0.5c0 0.3-0.4 0.5-1.2 0.5 -0.5 0-1-0.2-1.4-0.5C-368.1 311.1-368.3 310.5-368.3 309.7z"/>
  <path class="st1" d="M-362.7 310.9c-0.6-0.7-1-1.8-1-3.2s0.3-2.5 0.9-3.2c0.6-0.7 1.5-1.1 2.7-1.1 2.3 0 3.4 1.4 3.4 4.2 0 0.1-0.1 0.2-0.2 0.4 -0.1 0.2-0.2 0.3-0.3 0.3h-5.1c0.1 0.9 0.3 1.5 0.7 2 0.4 0.5 1 0.6 1.8 0.6 0.7 0 1.4-0.2 2-0.5 0.2-0.1 0.3-0.2 0.3-0.2 0.1 0 0.2 0.1 0.4 0.3 0.1 0.2 0.2 0.4 0.2 0.5 0 0.2-0.3 0.4-0.9 0.7 -0.6 0.2-1.2 0.4-2 0.4C-361.1 311.9-362 311.6-362.7 310.9zM-358 307c0-1.7-0.6-2.5-1.9-2.5 -1.4 0-2.1 0.8-2.2 2.5H-358z"/>
  <path class="st1" d="M-351.5 311c0-0.1 0.1-0.3 0.2-0.5 0.1-0.2 0.3-0.3 0.4-0.3 0 0 0.1 0.1 0.3 0.2 0.2 0.1 0.4 0.2 0.7 0.3 0.3 0.1 0.7 0.2 1.1 0.2 0.4 0 0.8-0.1 1-0.4 0.2-0.3 0.4-0.6 0.4-1 0-0.4-0.1-0.7-0.4-1 -0.2-0.2-0.7-0.4-1.4-0.6 -0.7-0.2-1.2-0.5-1.6-0.8 -0.3-0.3-0.5-0.8-0.5-1.4s0.2-1.2 0.7-1.6 1.1-0.6 1.9-0.6c0.5 0 1 0.1 1.5 0.2 0.4 0.1 0.6 0.3 0.6 0.5 0 0.1-0.1 0.3-0.2 0.5 -0.1 0.2-0.2 0.3-0.3 0.3 0 0-0.1 0-0.2-0.1 -0.4-0.2-0.8-0.3-1.2-0.3 -0.5 0-0.8 0.1-1.1 0.3s-0.4 0.4-0.4 0.7c0 0.3 0.1 0.5 0.3 0.7 0.2 0.2 0.5 0.3 1 0.5 1 0.3 1.7 0.6 2 1 0.3 0.4 0.5 0.9 0.5 1.7 0 0.8-0.3 1.4-0.8 1.8 -0.5 0.5-1.2 0.7-1.9 0.7s-1.4-0.1-1.9-0.3C-351.2 311.4-351.5 311.2-351.5 311z"/>
  <path class="st1" d="M-343.4 301.4c-0.4 0-0.6-0.1-0.6-0.4v-0.9c0-0.2 0.2-0.4 0.6-0.4h0.2c0.4 0 0.6 0.1 0.6 0.4v0.9c0 0.2-0.2 0.4-0.6 0.4H-343.4zM-344 311.5v-7.7c0-0.2 0.2-0.4 0.6-0.4h0.1c0.4 0 0.6 0.1 0.6 0.4v7.7c0 0.2-0.2 0.4-0.6 0.4h-0.1C-343.8 311.9-344 311.7-344 311.5z"/>
  <path class="st1" d="M-339.5 309.7v-5.1h-0.8c-0.2 0-0.3-0.2-0.3-0.5v-0.2c0-0.3 0.1-0.5 0.3-0.5h0.8l0.2-1.7c0-0.2 0.2-0.4 0.5-0.4h0.2c0.3 0 0.5 0.1 0.5 0.4v1.7h1.3c0.2 0 0.3 0.2 0.3 0.5v0.2c0 0.3-0.1 0.5-0.3 0.5h-1.3v5c0 0.8 0.3 1.2 0.9 1.2 0.2 0 0.3 0 0.5 0s0.2 0 0.2 0c0.1 0 0.2 0.1 0.2 0.3 0.1 0.2 0.1 0.3 0.1 0.5 0 0.3-0.4 0.5-1.2 0.5 -0.5 0-1-0.2-1.4-0.5C-339.2 311.3-339.5 310.5-339.5 309.7z"/>
  <path class="st1" d="M-333.9 310.9c-0.6-0.7-1-1.8-1-3.2s0.3-2.5 0.9-3.2c0.6-0.7 1.5-1.1 2.7-1.1 2.3 0 3.4 1.4 3.4 4.2 0 0.1-0.1 0.2-0.2 0.4s-0.2 0.3-0.3 0.3h-5.1c0.1 0.9 0.3 1.5 0.7 2s1 0.6 1.8 0.6c0.7 0 1.4-0.2 2-0.5 0.2-0.1 0.3-0.2 0.3-0.2 0.1 0 0.2 0.1 0.4 0.3 0.1 0.2 0.2 0.4 0.2 0.5 0 0.2-0.3 0.4-0.9 0.7 -0.6 0.2-1.2 0.4-2 0.4C-332.3 311.9-333.3 311.6-333.9 310.9zM-329.3 307c0-1.7-0.6-2.5-1.9-2.5 -1.4 0-2.1 0.8-2.2 2.5H-329.3z"/>
</svg>
