<svg xmlns="http://www.w3.org/2000/svg" version="1.1" x="0" y="0" width="14.1" height="14.1" viewBox="-453.1 267.1 14.1 14.1" xml:space="preserve"><style type="text/css">
	.st0{fill:#A8A8A8;}
</style><title>Fill 1</title><desc>Created with Sketch.</desc><path class="st0" d="M-446.1 267.1c-3.9 0-7 3.1-7 7s3.1 7 7 7c3.9 0 7-3.1 7-7S-442.2 267.1-446.1 267.1zM-443 277.3c-0.3 0.3-0.6 0.2-0.8 0.1l-2.4-2c0 0-0.1 0-0.1 0 -0.7 0-1.2-0.5-1.2-1.2 0-0.4 0.2-0.7 0.5-0.9l0.2-3.7c0-0.2 0.2-0.5 0.5-0.5 0.4 0 0.5 0.3 0.5 0.5l0.2 3.7c0.3 0.2 0.5 0.6 0.5 1 0 0 0 0 0 0.1l2.1 2.3C-442.8 276.7-442.7 277-443 277.3z"/></svg>