<?xml version="1.0" encoding="utf-8"?>
<!-- Generator: Adobe Illustrator 19.2.0, SVG Export Plug-In . SVG Version: 6.00 Build 0)  -->
<svg version="1.1" id="Layer_1" xmlns="http://www.w3.org/2000/svg" xmlns:xlink="http://www.w3.org/1999/xlink" x="0px" y="0px"
	 width="24px" height="18px" viewBox="0 0 24 18" style="enable-background:new 0 0 24 18;" xml:space="preserve">
<style type="text/css">
	.st0{fill:#F74D4D;}
	.st1{fill:#FF5050;}
</style>
<title>alert-stop</title>
<desc>Created with Sketch.</desc>
<g id="Page-1">
	<g id="Create-alert" transform="translate(-364.000000, -407.000000)">
		<g id="Filters" transform="translate(182.000000, 385.000000)">
			<g id="stop-alert" transform="translate(11.000000, 11.000000)">
				<g id="Group-2" transform="translate(32.000000, 11.000000)">
					<g id="alert-stop" transform="translate(139.000000, 0.000000)">
						<path id="Combined-Shape" class="st0" d="M11.5,1.2C10.6,0.4,9.4,0,8.2,0C5.5,0,3.2,2.1,3.2,4.6c0,3.9-3,8.7-3,8.7
							c-0.2,0.3-0.2,0.6,0,0.8c0.2,0.3,0.4,0.4,0.7,0.4h14.3c0.3,0,0.6-0.2,0.7-0.4c0.2-0.3,0.1-0.6,0-0.8c0,0,0,0,0,0
							c-1.2,0.4-2.5,0.2-3.5-0.7c-1.4-1.3-1.6-3.5-0.3-4.9l1-1.2c-0.1-0.4-0.1-0.8-0.2-1.2l-0.9-1C11.5,3.4,11.2,2.3,11.5,1.2z"/>
						<path id="Fill-3" class="st0" d="M8.2,17.8C7,17.8,6.1,17,6,15.9h4.4C10.2,17,9.3,17.8,8.2,17.8"/>
						<path id="cross" class="st1" d="M18.4,8.3L16,11c-0.6,0.6-1.5,0.7-2.1,0.1c-0.6-0.6-0.7-1.5-0.1-2.1l2.7-3l-2.7-3
							c-0.6-0.6-0.5-1.6,0.1-2.1S15.4,0.4,16,1l2.5,2.7L20.9,1c0.6-0.6,1.5-0.7,2.1-0.1s0.7,1.5,0.1,2.1l-2.7,3l2.7,3
							c0.6,0.6,0.5,1.6-0.1,2.1c-0.6,0.6-1.6,0.5-2.1-0.1L18.4,8.3z"/>
					</g>
				</g>
			</g>
		</g>
	</g>
</g>
</svg>
