<svg xmlns:sketch="http://www.bohemiancoding.com/sketch/ns" xmlns="http://www.w3.org/2000/svg" xmlns:xlink="http://www.w3.org/1999/xlink" version="1.1" id="Layer_1" x="0" y="0" width="230" height="159" viewBox="0 0 230 159" xml:space="preserve" enable-background="new 0 0 230 159">
  <style type="text/css">
    
	.st0{fill:#C0DCE2;}
	.st1{filter:url(#Adobe_OpacityMaskFilter);}
	.st2{fill:#FFFFFF;}
	.st3{mask:url(#mask-2);fill:#FFFFFF;}
	.st4{fill:#ABCED6;}
	.st5{enable-background:new    ;}
	.st6{fill:#313133;}
	.st7{fill:#A8DC28;}
	.st8{fill:#424543;}
	.st9{fill:#FBFBFB;}
	.st10{fill:#595953;}
	.st11{fill:#7A5C35;}
	.st12{fill:#414342;}
	.st13{fill:#A8A8A8;}

  </style>
  <title>
    Ad alert illustration
  </title>
  <desc>
    Created with Sketch.
  </desc>
  <g id="Ad-details" sketch:type="MSPage">
    <g id="Property-rent-sale---1st-tab" transform="translate(-976.000000, -1217.000000)" sketch:type="MSArtboardGroup">
      <g id="Ad-preview" transform="translate(183.000000, 447.000000)" sketch:type="MSLayerGroup">
        <g id="ad" transform="translate(0.000000, 22.000000)">
          <g id="Alert-banner-4" transform="translate(754.000000, 715.000000)">
            <g id="Ad-alert-illustration" transform="translate(32.000000, 18.000000)">
              <path id="Fill-3" sketch:type="MSShapeGroup" class="st0" d="M220.7 90.2l-68.3 36.6 68.7 35.9L220.7 90.2"/>
              <polygon class="st0" points="83.6 90.9 84 163.4 83.8 91 "/>
              <polygon class="st0" points="219.8 162 221.1 162.7 220.9 127.4 221 162 "/>
              <g id="Group-7" transform="translate(89.000000, 0.000000)">
                <g id="Clip-6"/>
                <defs>
                  <filter id="Adobe_OpacityMaskFilter" filterUnits="userSpaceOnUse" x="7" y="15" width="109.6" height="111.9">
                    <feColorMatrix type="matrix" values="1"/>
                  </filter>
                </defs>
                <mask maskUnits="userSpaceOnUse" x="7" y="15" width="109.6" height="111.9" id="mask-2">
                  <g class="st1">
                    <path id="path-1" class="st2" d="M1 0.9h123.8v148.6H1"/>
                  </g>
                </mask>
                <path id="Fill-5" sketch:type="MSShapeGroup" class="st3" d="M7.8 15l108.7 0.9 0.1 82.4 -53.3 28.6L7 97.4 7.8 15z"/>
              </g>
              <g id="Clip-6_1_"/>
              <g id="Clip-6_2_"/>
              <polygon class="st4" points="84.4 90.4 83.8 90.4 83.8 90.8 83.6 90.9 83.8 90.9 83.8 91 96 97.4 96.1 82.5 "/>
              <polygon class="st4" points="220.9 127.4 220.8 89 218.9 89 205.6 80.2 205.6 98.3 220.7 90.2 "/>
              <polygon class="st4" points="96 97.4 96 97.4 152.2 126.9 152.3 126.8 "/>
              <polygon class="st4" points="152.4 126.8 205.6 98.3 205.6 98.3 152.4 126.8 "/>
              <g class="st5">
                <path class="st6" d="M111.8 66.7c-0.4 0-0.8-0.1-1.1-0.2 -0.4-0.1-0.7-0.2-1-0.4 -0.3-0.2-0.4-0.4-0.4-0.7 0-0.3 0.1-0.6 0.3-0.7 0.2-0.2 0.5-0.2 0.8-0.2 0.4 0 0.7 0 1.1 0.1 0.4 0 0.7 0.1 1.1 0.1 1.4 0 2.7-0.5 3.7-1.5s1.9-2.3 2.7-4c0.8-1.6 1.4-3.4 1.9-5.4s0.9-4 1.2-5.9c0.3-2 0.5-3.8 0.7-5.5s0.3-3.1 0.4-4.1c0.1-0.7 0.1-1.4 0.1-2.1 0-0.4-0.1-0.8-0.2-1.2s-0.2-0.7-0.2-1.1c0-0.4 0.1-0.7 0.4-1s0.6-0.6 0.9-0.8c0.4-0.2 0.8-0.4 1.2-0.6 0.4-0.1 0.7-0.2 1-0.2 0.5 0 0.9 0.2 1.1 0.6 0.2 0.4 0.3 0.9 0.4 1.3l0.1 1.2c0.1 0.7 0.3 1.5 0.4 2.2 0.2 0.7 0.3 1.4 0.5 2.1 0.2 0.6 0.4 1.5 0.8 2.7 0.4 1.2 0.8 2.6 1.3 4.1s1.1 3.1 1.7 4.7c0.6 1.6 1.3 3.1 1.9 4.4 0.7 1.3 1.3 2.4 2 3.3s1.3 1.3 1.9 1.3c0.2 0 0.4-0.1 0.5-0.3s0.3-0.4 0.4-0.6c0.1-0.2 0.2-0.5 0.3-0.7 0.1-0.3 0.2-0.4 0.2-0.6 0.4-1.2 0.7-2.4 1-3.7s0.5-2.6 0.6-3.9c0.2-1.3 0.3-2.7 0.4-4 0.1-1.3 0.2-2.6 0.3-3.8 0.1-1.3 0.2-2.7 0.3-4s0.1-2.6 0.1-4c0-0.2 0-0.3 0-0.5s0-0.3 0-0.5c0-0.5 0.1-0.9 0.3-1.2 0.2-0.3 0.6-0.4 1.1-0.4 0.4 0 0.7 0.2 0.8 0.6 0.1 0.4 0.1 0.7 0.1 1.1 0 0.8 0 2-0.1 3.8s-0.2 3.8-0.4 6 -0.4 4.6-0.8 6.9c-0.3 2.4-0.7 4.6-1.2 6.6s-1.1 3.6-1.8 4.9c-0.7 1.3-1.5 1.9-2.4 1.9 -1.2 0-2.3-0.4-3.4-1.1 -1-0.7-2-1.6-2.8-2.8 -0.8-1.1-1.6-2.4-2.3-3.8 -0.7-1.4-1.3-2.9-1.9-4.3 -0.6-1.4-1-2.8-1.5-4.1 -0.4-1.3-0.8-2.4-1.1-3.4 0-0.1-0.1-0.2-0.1-0.4 -0.1-0.1-0.2-0.2-0.3-0.2 -0.1 0-0.2 0.2-0.4 0.6 -0.1 0.4-0.2 0.9-0.3 1.5 -0.1 0.6-0.1 1.1-0.2 1.7 0 0.5-0.1 0.9-0.1 1.1 -0.2 1.1-0.4 2.2-0.6 3.6 -0.2 1.3-0.5 2.7-0.9 4.1 -0.4 1.4-0.9 2.8-1.4 4.1 -0.6 1.3-1.2 2.5-2 3.6s-1.7 1.9-2.8 2.5c-1.1 0.6-2.3 1-3.7 1C112.5 66.7 112.2 66.7 111.8 66.7z"/>
                <path class="st6" d="M151.4 62.1c-0.7-0.4-1.2-0.8-1.7-1.4 -0.4-0.6-0.7-1.3-0.9-2.1s-0.3-1.6-0.3-2.5c0-1.1 0.2-2.4 0.6-3.9 0.4-1.5 1-3 1.8-4.4s1.7-2.6 2.8-3.6 2.2-1.5 3.5-1.5c0.9 0 1.5 0.3 2 0.8s0.7 1.2 0.7 2.1c0 0.8-0.2 1.7-0.7 2.7s-1.1 1.9-1.9 2.8 -1.6 1.7-2.4 2.4c-0.9 0.7-1.7 1.2-2.4 1.4 -0.2 0.7-0.2 1.4-0.2 2 0 1.1 0.2 2 0.7 2.6s1.3 0.9 2.4 0.9c1 0 2-0.2 2.9-0.6s1.7-0.9 2.5-1.5 1.5-1.3 2.1-2.1 1.2-1.6 1.7-2.4c0.2-0.3 0.4-0.5 0.6-0.8 0.2-0.3 0.5-0.4 0.9-0.4 0.2 0 0.3 0 0.5 0.1 0.1 0.1 0.2 0.2 0.2 0.4 0 0.3 0 0.6-0.1 0.8s-0.2 0.4-0.3 0.7c-0.6 1.1-1.4 2.1-2.2 3.1 -0.9 1-1.8 1.9-2.9 2.6 -1.1 0.7-2.2 1.3-3.4 1.8 -1.2 0.4-2.5 0.7-3.8 0.7C152.9 62.6 152.1 62.4 151.4 62.1zM155.5 45.9c-0.5 0.7-0.9 1.5-1.3 2.4s-0.8 1.8-1.1 2.8c-0.3 0.9-0.5 1.6-0.5 2 0.5-0.3 1.1-0.7 1.7-1.3 0.6-0.5 1.2-1.1 1.7-1.8s0.9-1.3 1.3-2c0.4-0.7 0.5-1.4 0.5-2 0-0.3-0.1-0.5-0.2-0.7 -0.1-0.2-0.3-0.4-0.6-0.4C156.5 44.8 156 45.2 155.5 45.9z"/>
                <path class="st6" d="M188.1 54.4c-0.2 1.5-0.5 2.9-0.9 4.3s-1.1 2.6-1.9 3.6c-0.8 1-1.9 1.5-3.3 1.5 -0.5 0-1.1-0.1-1.5-0.4 -0.5-0.2-0.9-0.6-1.3-0.9 -0.4-0.4-0.8-1-1.1-1.9 -0.3-0.8-0.5-1.7-0.7-2.7s-0.3-1.9-0.4-2.8 -0.2-1.7-0.2-2.2c-0.5 0.6-1.1 1.4-1.9 2.4 -0.8 1-1.7 2-2.6 3 -0.9 1-1.9 1.8-2.9 2.5s-1.8 1.1-2.6 1.1c-0.6 0-1.1-0.1-1.4-0.4 -0.3-0.3-0.6-0.6-0.8-1s-0.3-0.9-0.3-1.4 -0.1-1-0.1-1.4c0-0.7 0.1-1.6 0.4-2.7 0.2-1.1 0.5-2.3 0.9-3.5s0.8-2.3 1.2-3.4c0.4-1.1 0.8-1.9 1.2-2.4 0.3-0.4 0.6-0.6 1-0.8s0.8-0.2 1.2-0.2 0.7 0.1 1 0.2c0.3 0.1 0.5 0.4 0.5 0.8 0 0.2 0 0.3-0.1 0.5s-0.2 0.3-0.2 0.5c-0.4 0.8-0.8 1.6-1.2 2.6s-0.7 2-1.1 3c-0.3 1-0.6 2-0.8 3s-0.3 2-0.3 2.9c0 0.1 0 0.2 0 0.4s0.1 0.3 0.3 0.3 0.4-0.1 0.7-0.2c0.3-0.2 0.5-0.4 0.8-0.6s0.5-0.4 0.7-0.7c0.2-0.2 0.4-0.4 0.6-0.5 1.7-1.7 3.2-3.5 4.6-5.5 0.3-0.4 0.5-0.9 0.8-1.4s0.6-0.9 0.8-1.3c0.2-0.3 0.5-0.5 0.8-0.5 0.3-0.1 0.7-0.1 1-0.1 0.6 0 1 0.2 1.2 0.7 0.1 0.5 0.2 1 0.2 1.5 0 0.3 0 0.7 0.1 1.4 0 0.7 0.1 1.4 0.2 2.2 0.1 0.8 0.2 1.7 0.4 2.5s0.3 1.7 0.5 2.4 0.4 1.3 0.7 1.8 0.5 0.7 0.9 0.7c0.6 0 1.2-0.4 1.6-1.3 0.4-0.9 0.8-1.9 1.1-3s0.5-2.2 0.6-3.3 0.2-1.9 0.2-2.4c0-0.2 0-0.4 0-0.7s0-0.6 0-0.9c0-0.3-0.1-0.6-0.1-0.9s-0.1-0.5-0.2-0.6c-0.2-0.4-0.4-0.7-0.6-0.8 -0.2-0.2-0.3-0.5-0.3-1 0-0.3 0.1-0.6 0.3-0.9s0.5-0.4 0.8-0.4c0.4 0 0.8 0.2 1.1 0.7s0.4 1 0.6 1.7c0.1 0.6 0.2 1.3 0.2 1.9 0 0.6 0 1.1 0 1.4C188.4 51.7 188.3 52.9 188.1 54.4z"/>
              </g>
              <g class="st5">
                <path class="st7" d="M137.7 98.9l-1.3 1.3h-5.6l6.9-33.6 1.1-1.1 -6.9 33.3L137.7 98.9 137.7 98.9zM145.6 90.2h-5.8l-1.2 7.8H133l6.9-33.6h6l6.9 33.6h-6L145.6 90.2zM151.9 98.9l-1.3 1.3h-6l-1.2-7.8h-3l0.2-1.3h4.3l1.1 7.8H151.9zM144.6 85.4l-1.8-12h-0.1l-1.9 12H144.6zM142.7 78.8l0.9 5.8h-1.7v-0.3L142.7 78.8z"/>
                <path class="st7" d="M168.6 98.9c0.8 0 1.6-0.1 2.4-0.4 -1.2 1.1-2.9 1.8-4.7 1.8h-10.8V66.7h1.3v32.2h6.9C163.7 98.9 168.6 98.9 168.6 98.9zM176 74v14.4c0 5.1-2.3 9.6-7.4 9.6h-10.8V64.4h10.8c3.4 0 6.2 2.4 7 5.6C175.9 71.3 176 72.7 176 74zM170.4 74c0-2.7-0.6-4.8-3-4.8h-3.6v23.9h3.6c2.4 0 3-2.1 3-4.8V74zM169.4 74v14.4c0 2.7-0.6 3.6-1.4 3.8 0-0.5 0.1-1.1 0.1-1.6V76.3c0-2.7-0.6-4.8-3-4.8h-0.5v-1.4h2.7C168.5 70.1 169.4 70.6 169.4 74z"/>
              </g>
              <g id="alarm" transform="translate(27.000000, 77.000000)" sketch:type="MSShapeGroup">
                <path class="st8" d="M88.2 9.1C90.4 8.7 92 6.8 92 4.6c0-2.5-2-4.5-4.5-4.5 -2.4 0-4.4 1.9-4.5 4.3C74.8-1 64.3-0.2 56.8 8.1l1 0.9c-3.6-1.1-7.4-1.6-11.4-1.6 -4 0-7.8 0.6-11.5 1.7l1.2-1C28.7-0.2 18.2-1 10 4.4 9.8 2 7.9 0.1 5.5 0.1 3 0.1 1 2.1 1 4.6c0 2.2 1.6 4.1 3.8 4.5 -6.1 7.5-6.5 18 0.8 26.3l4.2-3.8c-2.1 5-3.3 10.4-3.3 16.2 0 10.6 4.1 20.1 10.8 27.3L9 87.4c-1.3 2-0.8 4.8 1.2 6.1l4.1 2.7c2 1.3 4.7 0.8 6-1.2l7.9-11.7c5.6 2.9 11.9 4.5 18.6 4.5 6 0 11.7-1.4 16.8-3.8L71 95c1.3 2 4 2.5 6 1.2l4.1-2.7c2-1.3 2.5-4.1 1.2-6.1l-7.6-11.2c7.4-7.3 12-17.5 12-28.8 0-5.5-1.1-10.7-3.1-15.4l3.8 3.4C94.7 27.1 94.3 16.6 88.2 9.1z"/>
                <path class="st0" d="M90.2 31.5c-0.8 1.4-1.7 2.7-2.8 3.9L83.6 32c2 4.7 3.1 10 3.1 15.4 0.1 11.3-4.5 21.5-12 28.8l0.3 0.5 50.2-26.9L90.2 31.5z"/>
                <polygon class="st4" points="81.5 86.2 192.8 85 125.4 49.8 125.3 49.9 125.2 49.9 75.1 76.7 "/>
                <path class="st4" d="M63.6 84c-2.1 1-4.3 1.8-6.5 2.4l8.1-0.1L63.6 84z"/>
                <path id="Fill-4_1_" class="st9" d="M72.1 71.6c0.1-0.1 0.1-0.1 0.2-0.2 0 0 0 0 0-0.1 0.1-0.1 0.1-0.1 0.2-0.2s0.1-0.1 0.2-0.2 0.2-0.2 0.3-0.4c0 0 0 0 0.1-0.1s0.1-0.1 0.2-0.2 0.2-0.3 0.4-0.4l0.1-0.1c0 0 0 0 0.1-0.1s0.2-0.3 0.4-0.4c0-0.1 0.1-0.1 0.1-0.2 0.1-0.2 0.3-0.3 0.4-0.5 0-0.1 0.1-0.1 0.1-0.2 0.1-0.1 0.2-0.2 0.3-0.4l0.1-0.1c0 0 0 0 0.1-0.1l0.1-0.1c0.1-0.2 0.3-0.4 0.4-0.6l0 0 0 0 0 0c0.2-0.3 0.4-0.6 0.6-0.9 0 0 0 0 0-0.1 0.2-0.3 0.3-0.6 0.5-0.8 0 0 0-0.1 0.1-0.1 0.1-0.1 0.1-0.2 0.2-0.3l0 0c0.1-0.2 0.3-0.5 0.4-0.7 0 0 0-0.1 0.1-0.1 0.1-0.2 0.2-0.4 0.3-0.6 0 0 0-0.1 0.1-0.1v-0.1c0.1-0.2 0.2-0.4 0.3-0.6 0-0.1 0.1-0.1 0.1-0.2 0-0.1 0.1-0.1 0.1-0.2l0 0c0.1-0.1 0.1-0.3 0.2-0.4 0-0.1 0.1-0.1 0.1-0.2 0.1-0.1 0.1-0.3 0.2-0.4 0 0 0 0 0-0.1V61c0-0.1 0.1-0.1 0.1-0.2 0.1-0.2 0.2-0.4 0.2-0.6l0 0c0 0 0 0 0-0.1V60c0.1-0.2 0.2-0.4 0.2-0.6 0-0.1 0-0.1 0.1-0.2 0.1-0.2 0.2-0.5 0.2-0.7v-0.1c0-0.1 0.1-0.2 0.1-0.3s0-0.1 0-0.2c0.1-0.3 0.2-0.6 0.3-0.9v-0.1c0.1-0.3 0.2-0.6 0.3-1 0 0 0 0 0-0.1v-0.1c0.1-0.2 0.1-0.4 0.2-0.6 0-0.1 0-0.1 0-0.2 0 0 0 0 0-0.1s0-0.1 0-0.2c0-0.1 0.1-0.3 0.1-0.4 0-0.1 0-0.2 0-0.3 0-0.2 0.1-0.4 0.1-0.6 0-0.1 0-0.2 0-0.3 0-0.2 0.1-0.4 0.1-0.5v-0.1l0 0c0-0.1 0-0.1 0-0.2 0-0.2 0.1-0.4 0.1-0.5s0-0.2 0-0.3c0-0.2 0-0.4 0.1-0.5 0-0.1 0-0.2 0-0.3 0-0.2 0-0.4 0-0.5s0-0.2 0-0.3c0-0.2 0-0.4 0-0.6 0-0.1 0-0.2 0-0.3 0-0.2 0-0.4 0-0.6 0-0.1 0-0.2 0-0.3 0-0.3 0-0.6 0-0.9 0-0.3 0-0.7 0-1 0-0.1 0-0.2 0-0.3 0-0.2 0-0.5 0-0.7 0-0.1 0-0.2 0-0.3 0-0.2 0-0.5-0.1-0.7 0-0.1 0-0.1 0-0.2 0-0.3-0.1-0.6-0.1-0.8 0 0 0 0 0-0.1l0 0c-2.1-17.4-17-30.9-34.9-30.8C27 12.3 11.4 28.1 11.5 47.4c0.1 19.4 15.8 35 35.2 34.9 3.2 0 6.3-0.5 9.3-1.3 0 0 0 0 0.1 0 0.2-0.1 0.4-0.1 0.7-0.2h0.1c0.2-0.1 0.4-0.1 0.6-0.2 0.1 0 0.1 0 0.2-0.1 0.2-0.1 0.4-0.1 0.6-0.2 0.1 0 0.1 0 0.2-0.1 0.2-0.1 0.4-0.1 0.6-0.2 0.1 0 0.1 0 0.2-0.1 0.2-0.1 0.4-0.1 0.6-0.2 0.1 0 0.1-0.1 0.2-0.1 0.2-0.1 0.4-0.2 0.6-0.2 0.1 0 0.1-0.1 0.2-0.1 0.2-0.1 0.4-0.2 0.6-0.3h0.1c0.5-0.2 1-0.5 1.6-0.8 0 0 0.1 0 0.1-0.1 0.1 0 0.1-0.1 0.2-0.1h0.1c0.2-0.1 0.3-0.2 0.5-0.3l0 0c0 0 0.1 0 0.1-0.1 0 0 0.1 0 0.1-0.1 0.1-0.1 0.3-0.2 0.4-0.2 0.1-0.1 0.2-0.1 0.3-0.2 0.1-0.1 0.2-0.2 0.4-0.2 0.1-0.1 0.2-0.1 0.3-0.2 0.1-0.1 0.2-0.1 0.3-0.2l0.1-0.1c0.1-0.1 0.2-0.1 0.3-0.2 0.1-0.1 0.2-0.2 0.3-0.2 0.1-0.1 0.2-0.2 0.3-0.2 0.1-0.1 0.2-0.1 0.3-0.2 0.1-0.1 0.2-0.2 0.3-0.2l0.1-0.1c0.1 0 0.1-0.1 0.2-0.1 0.1-0.1 0.2-0.2 0.4-0.3 0.1-0.1 0.2-0.1 0.2-0.2l0 0c0.1-0.1 0.3-0.2 0.4-0.3 0.1-0.1 0.2-0.1 0.2-0.2 0.1 0 0.1-0.1 0.2-0.1l0.1-0.1c0.1 0 0.1-0.1 0.2-0.1s0.1-0.1 0.2-0.1c0.1-0.1 0.2-0.2 0.3-0.3l0.1-0.1c0.3-0.2 0.5-0.5 0.7-0.7 0 0 0 0 0.1-0.1 0.2-0.2 0.3-0.3 0.5-0.5l0.1-0.1 0.1-0.1c0.1-0.1 0.2-0.2 0.3-0.3C72 71.7 72.1 71.6 72.1 71.6"/>
                <g id="Group" transform="translate(15.000000, 17.000000)">
                  <path id="Fill-5_1_" class="st10" d="M28.9 0.3H30v5.5h-1.3V2.3h-0.9v-1H28c0.3 0 0.5-0.1 0.6-0.2s0.2-0.4 0.2-0.7L28.9 0.3"/>
                  <path id="Fill-6" class="st10" d="M32 0.5c0.5-0.2 1-0.3 1.4-0.3 0.5 0 0.9 0.1 1.3 0.4 0.3 0.3 0.5 0.6 0.5 1.1 0 0.4-0.1 0.7-0.3 0.9 -0.2 0.3-0.5 0.6-1 1 -0.4 0.3-0.6 0.5-0.7 0.7C33.1 4.4 33 4.6 33 4.8h2.2v1h-3.4V5.1c0-0.5 0.1-0.9 0.2-1.2 0.2-0.3 0.5-0.7 1.1-1.2 0.3-0.2 0.4-0.4 0.5-0.5s0.1-0.2 0.1-0.4 -0.1-0.3-0.2-0.4c-0.1-0.1-0.3-0.2-0.5-0.2 -0.3 0-0.7 0.1-1 0.4L32 0.5"/>
                  <path id="Fill-7" class="st10" d="M44.5 3.8h1.1v5.5h-1.3V5.8h-0.9V4.9h0.2c0.3 0 0.5-0.1 0.6-0.2s0.2-0.4 0.2-0.7V3.8"/>
                  <path id="Fill-8" class="st10" d="M15.4 4.4h1.1v5.5h-1.3V6.4h-0.9V5.5h0.2c0.3 0 0.5-0.1 0.6-0.2s0.2-0.4 0.2-0.7L15.4 4.4"/>
                  <path id="Fill-9" class="st10" d="M19.7 4.4h1.1v5.5h-1.3V6.4h-0.9v-1h0.2c0.3 0 0.5-0.1 0.6-0.2S19.6 4.8 19.7 4.4L19.7 4.4"/>
                  <path id="Fill-10" class="st10" d="M54.1 14c0.5-0.2 1-0.3 1.4-0.3 0.5 0 0.9 0.1 1.3 0.4 0.3 0.3 0.5 0.6 0.5 1.1 0 0.4-0.1 0.7-0.3 0.9 -0.2 0.3-0.5 0.6-1 1 -0.4 0.3-0.6 0.5-0.7 0.7 -0.1 0.1-0.1 0.3-0.1 0.5h2.2v1H54v-0.7c0-0.5 0.1-0.9 0.2-1.2 0.2-0.3 0.5-0.7 1.1-1.2 0.3-0.2 0.4-0.4 0.5-0.5s0.1-0.2 0.1-0.4 -0.1-0.3-0.2-0.4c-0.1-0.1-0.3-0.2-0.5-0.2 -0.3 0-0.7 0.1-1 0.4L54.1 14"/>
                  <path id="Fill-11" class="st10" d="M58.7 27.5c0.4-0.2 0.9-0.3 1.3-0.3 0.3 0 0.6 0 0.8 0.1 0.3 0.1 0.5 0.3 0.6 0.5 0.2 0.2 0.2 0.5 0.2 0.8s-0.1 0.5-0.2 0.7c-0.2 0.2-0.4 0.4-0.7 0.5 0.4 0.1 0.7 0.2 0.9 0.4 0.2 0.2 0.3 0.5 0.3 0.9 0 0.5-0.2 0.9-0.5 1.2 -0.4 0.3-0.8 0.5-1.4 0.5 -0.4 0-0.8-0.1-1.3-0.3v-1.2c0.4 0.3 0.8 0.4 1.1 0.4 0.2 0 0.4-0.1 0.6-0.2 0.2-0.1 0.2-0.3 0.2-0.5s-0.1-0.4-0.2-0.5c-0.2-0.1-0.4-0.2-0.6-0.2h-0.6v-1h0.4c0.2 0 0.4-0.1 0.5-0.2s0.2-0.2 0.2-0.4c0-0.2-0.1-0.3-0.2-0.4 -0.1-0.1-0.3-0.2-0.5-0.2 -0.3 0-0.6 0.1-1 0.4L58.7 27.5"/>
                  <path id="Fill-12" class="st10" d="M55.9 40.8h1.3v3h0.6v1h-0.6v1.6h-1.3v-1.6H54v-1L55.9 40.8 55.9 40.8zM55.9 42.4L55 43.8h0.9V42.4L55.9 42.4z"/>
                  <path id="Fill-13" class="st10" d="M43.9 51.4h2.9v1h-1.6v1c0.2-0.2 0.4-0.3 0.6-0.3 0.3 0 0.6 0.1 0.9 0.4 0.3 0.3 0.4 0.7 0.4 1.3s-0.2 1.1-0.5 1.5c-0.4 0.4-0.8 0.6-1.4 0.6 -0.4 0-0.8-0.1-1.3-0.3v-1.2c0.4 0.3 0.8 0.5 1.1 0.4 0.2 0 0.4-0.1 0.6-0.3 0.2-0.2 0.2-0.4 0.2-0.7 0-0.2 0-0.4-0.1-0.5s-0.2-0.2-0.3-0.2 -0.2 0.1-0.3 0.3H44L43.9 51.4"/>
                  <path id="Fill-14" class="st10" d="M31 57.4c0.1-0.2 0.3-0.3 0.5-0.4 0.2-0.1 0.3-0.1 0.5-0.1 0.4 0 0.7 0.2 1 0.5 0.3 0.4 0.4 0.8 0.4 1.3 0 0.6-0.2 1-0.5 1.4s-0.7 0.6-1.2 0.6 -1-0.2-1.4-0.7 -0.6-1.2-0.6-2.1c0-0.5 0.1-1 0.2-1.5 0.2-0.4 0.4-0.8 0.7-1.1 0.3-0.3 0.7-0.4 1.2-0.4 0.3 0 0.7 0.1 1.1 0.2v1.2c-0.4-0.3-0.7-0.4-0.9-0.4 -0.3 0-0.5 0.1-0.7 0.3C31.1 56.6 31 56.9 31 57.4L31 57.4zM31 58.6c0 0.3 0.1 0.6 0.2 0.8s0.2 0.3 0.4 0.3c0.1 0 0.2-0.1 0.3-0.2C32 59.2 32 59 32 58.7c0-0.2 0-0.4-0.1-0.6C31.8 58 31.7 58 31.6 58s-0.2 0.1-0.3 0.1C31.2 58.2 31.1 58.4 31 58.6L31 58.6z"/>
                  <path id="Fill-15" class="st10" d="M16.2 51.3h3.4v1l-1.7 4.5h-1.4l1.8-4.5h-2.1L16.2 51.3"/>
                  <path id="Fill-16" class="st10" d="M6.3 44.4C6 44.2 5.8 44 5.7 43.8c-0.1-0.2-0.2-0.4-0.2-0.7 0-0.5 0.2-0.8 0.5-1.1s0.7-0.4 1.2-0.4S8 41.7 8.4 42c0.3 0.2 0.5 0.6 0.5 0.9 0 0.2-0.1 0.4-0.2 0.6 -0.1 0.2-0.3 0.4-0.6 0.6 0.4 0.2 0.7 0.4 0.8 0.7C9 45 9.1 45.3 9.1 45.6c0 0.5-0.2 0.9-0.6 1.2 -0.4 0.3-0.8 0.5-1.4 0.5 -0.5 0-1-0.1-1.4-0.4 -0.4-0.3-0.6-0.7-0.6-1.1C5.3 45.2 5.6 44.8 6.3 44.4L6.3 44.4zM7.2 43.8c0.2-0.2 0.4-0.5 0.4-0.7 0-0.1 0-0.3-0.1-0.4 -0.1-0.1-0.2-0.1-0.3-0.1 -0.1 0-0.2 0-0.3 0.1 -0.1 0.1-0.1 0.2-0.1 0.4C6.8 43.3 6.9 43.6 7.2 43.8L7.2 43.8zM7.1 44.7c-0.4 0.3-0.6 0.6-0.6 0.9 0 0.2 0.1 0.3 0.2 0.5 0.1 0.1 0.3 0.2 0.4 0.2 0.2 0 0.3-0.1 0.4-0.2 0.1-0.1 0.2-0.3 0.2-0.5C7.8 45.2 7.5 44.9 7.1 44.7L7.1 44.7z"/>
                  <path id="Fill-17" class="st10" d="M3.3 30.5c-0.2 0.2-0.3 0.3-0.5 0.4C2.7 31 2.5 31 2.4 31.1c-0.4 0-0.7-0.2-1-0.5C1.1 30.2 1 29.7 1 29.2c0-0.6 0.2-1 0.5-1.4s0.7-0.6 1.2-0.6c0.6 0 1 0.2 1.4 0.8 0.4 0.5 0.5 1.2 0.5 2.1 0 0.5-0.1 1-0.2 1.4 -0.2 0.4-0.4 0.8-0.7 1 -0.3 0.3-0.7 0.4-1.2 0.4 -0.3 0-0.7-0.1-1.1-0.2v-1.2c0.4 0.2 0.7 0.4 0.9 0.4 0.3 0 0.5-0.1 0.7-0.3C3.2 31.3 3.3 30.9 3.3 30.5L3.3 30.5zM3.3 29.3c0-0.3-0.1-0.6-0.2-0.8 -0.1-0.2-0.2-0.3-0.4-0.3 -0.1 0-0.2 0.1-0.3 0.2 -0.1 0.2-0.1 0.4-0.1 0.6s0 0.4 0.1 0.6c0.1 0.1 0.2 0.2 0.3 0.2s0.2-0.1 0.3-0.1C3.1 29.7 3.2 29.5 3.3 29.3L3.3 29.3z"/>
                  <path id="Fill-18" class="st10" d="M5.5 14.4h1.1v5.5H5.3v-3.5H4.4v-0.9h0.2c0.3 0 0.5-0.1 0.6-0.2 0.1-0.1 0.2-0.4 0.2-0.7L5.5 14.4"/>
                  <path id="Fill-19" class="st10" d="M10.1 14.3c0.6 0 1.1 0.2 1.4 0.7 0.4 0.5 0.5 1.2 0.5 2.2 0 0.8-0.2 1.5-0.5 2 -0.4 0.5-0.8 0.8-1.4 0.8 -0.4 0-0.8-0.1-1.1-0.4S8.5 19 8.3 18.5c-0.1-0.4-0.2-0.9-0.2-1.4 0-0.8 0.2-1.5 0.5-2C9 14.5 9.5 14.3 10.1 14.3L10.1 14.3zM10.1 15.3c-0.2 0-0.4 0.2-0.5 0.4C9.5 16 9.4 16.4 9.4 17s0.1 1.1 0.2 1.4c0.1 0.3 0.3 0.5 0.5 0.5s0.4-0.2 0.5-0.5 0.2-0.8 0.2-1.4 -0.1-1.1-0.2-1.4C10.4 15.4 10.3 15.3 10.1 15.3L10.1 15.3z"/>
                </g>
                <path id="Fill-22" class="st11" d="M51.6 47.5c0 2.5-2 4.6-4.6 4.6 -2.5 0-4.6-2-4.6-4.6 0-2.5 2-4.6 4.6-4.6C49.5 42.9 51.6 45 51.6 47.5"/>
                <path class="st12" d="M47 42.9c-2.6 0-4.6 2.1-4.6 4.6 0 0 0 0 0 0.1 0 0 0 0 0 0 0 1.4 0.6 2.6 1.5 3.4 0.1 0 0.2 0.1 0.3 0.1 0.8 0.6 1.8 1 2.8 1 2.6 0 4.6-2.1 4.6-4.6S49.5 42.9 47 42.9z"/>
                <path class="st7" d="M51.3 45.9c0.2 0.5 0.3 1.1 0.3 1.6 0 0.1 0 0.1 0 0.2L66 47.6v-1.8L51.3 45.9z"/>
                <path class="st7" d="M47 42.9c0.1 0 0.2 0 0.4 0L47.3 24h-1.8l0.1 19.1C46 43 46.5 42.9 47 42.9z"/>
                <path class="st2" d="M47.9 44.3C47.9 44.2 47.9 44.2 47.9 44.3c-0.5-0.5-1.1-0.6-1.7-0.6 -1.7 0-3 1.4-3 3.1 0 0.2 0 0.3 0 0.5 0 0.1 0 0.2 0.1 0.3 0 0 0 0.1 0 0.1 0.1 0.2 0.1 0.3 0.2 0.5 0.1 0.1 0.1 0.2 0.2 0.3 0 0 0 0 0 0 0.5 0.8 1.4 1.3 2.5 1.3 1.7-0.1 3-1.4 3-3.1C49.2 45.7 48.7 44.8 47.9 44.3z"/>
                <path id="Fill-28" class="st13" d="M80.7 8.3c-0.5 1.1-4.1-0.1-8.4-0.3 -4.2-0.3-7.9 0.4-8.3-0.7 -0.4-1.1 3.4-4.1 8.6-3.7C77.9 3.8 81.3 7.3 80.7 8.3"/>
                <path id="Fill-30" class="st13" d="M12.3 8.3c0.5 1.1 4.1-0.1 8.4-0.3 4.2-0.3 7.9 0.4 8.3-0.7s-3.4-4.1-8.6-3.7C15.1 3.8 11.7 7.3 12.3 8.3"/>
              </g>
              <g id="Imported-Layers-_x2B_-Imported-Layers-2-_x2B_-Imported-Layers-3" transform="translate(18.772601, 72.000000) rotate(33.000000) translate(-18.772601, -72.000000) translate(10.000000, 52.000000)" sketch:type="MSShapeGroup">
                <path id="Imported-Layers" class="st7" d="M8.8 0.2c-1.9-0.9-3 1.7-1.3 2.5C10 4 12.7 5.3 15.3 6.4c1.6 0.7 2.4-1 1.1-1.8C13.9 3.4 11.4 1.3 8.8 0.2z"/>
                <path id="Imported-Layers-2" class="st7" d="M1.9 18.1c-2.2 0.2-1.8 3 0.1 2.8 3-0.2 6.1-0.4 9.1-0.7 1.8-0.2 1.7-2 0-2.1C8.2 18.3 4.9 17.8 1.9 18.1L1.9 18.1z"/>
                <path id="Imported-Layers-3" class="st7" d="M7.5 37.3c-1.6 1 0.2 3.2 1.7 2.4 2.3-1.3 4.7-2.7 6.8-4.2 1.3-0.9 0.2-2.4-1.2-1.8C12.6 35.1 9.7 35.9 7.5 37.3L7.5 37.3z"/>
              </g>
              <g id="Imported-Layers-_x2B_-Imported-Layers-2-_x2B_-Imported-Layers-4" transform="translate(227.772601, 52.000000) scale(-1, 1) translate(-227.772601, -52.000000) translate(219.000000, 32.000000)" sketch:type="MSShapeGroup">
                <path id="Imported-Layers_1_" class="st7" d="M8.8 0.2c-1.9-0.9-3 1.7-1.3 2.5C10 4 12.7 5.3 15.3 6.4c1.6 0.7 2.4-1 1.1-1.8C13.9 3.4 11.4 1.3 8.8 0.2z"/>
                <path id="Imported-Layers-2_1_" class="st7" d="M1.9 18.1c-2.2 0.2-1.8 3 0.1 2.8 3-0.2 6.1-0.4 9.1-0.7 1.8-0.2 1.7-2 0-2.1C8.2 18.3 4.9 17.8 1.9 18.1L1.9 18.1z"/>
                <path id="Imported-Layers-3_1_" class="st7" d="M7.5 37.3c-1.6 1 0.2 3.2 1.7 2.4 2.3-1.3 4.7-2.7 6.8-4.2 1.3-0.9 0.2-2.4-1.2-1.8C12.6 35.1 9.7 35.9 7.5 37.3L7.5 37.3z"/>
              </g>
            </g>
          </g>
        </g>
      </g>
    </g>
  </g>
</svg>
