<?xml version="1.0" encoding="utf-8"?>
<!-- Generator: Adobe Illustrator 19.2.0, SVG Export Plug-In . SVG Version: 6.00 Build 0)  -->
<svg version="1.1" id="Layer_1" xmlns:sketch="http://www.bohemiancoding.com/sketch/ns"
	 xmlns="http://www.w3.org/2000/svg" xmlns:xlink="http://www.w3.org/1999/xlink" x="0px" y="0px" width="230px" height="159px"
	 viewBox="0 0 230 159" style="enable-background:new 0 0 230 159;" xml:space="preserve">
<style type="text/css">
	.st0{fill:#ABCED7;}
	.st1{fill:#ABCED6;}
	.st2{fill:#FFFFFF;}
	.st3{fill:none;stroke:#EFEFEF;stroke-width:4;stroke-miterlimit:10;}
	.st4{clip-path:url(#SVGID_3_);}
	.st5{clip-path:url(#SVGID_4_);fill:none;stroke:#EFEFEF;stroke-width:4;stroke-miterlimit:10;}
	.st6{enable-background:new    ;}
	.st7{fill:#313133;}
	.st8{fill:#A8DC28;}
	.st9{fill:#C0DCE2;}
	.st10{fill:#424543;}
	.st11{fill:#707070;}
	.st12{fill:#A8A8A8;}
</style>
<title>Ad alert illustration</title>
<desc>Created with Sketch.</desc>
<path id="Fill-1" sketch:type="MSShapeGroup" class="st0" d="M214,150l-137,1.4l-0.2-73l137-1.4L214,150"/>
<path id="Fill-4" sketch:type="MSShapeGroup" class="st1" d="M76.6,78.9l68.3-46l68.8,45.3L76.6,78.9"/>
<g id="Group-7" transform="translate(89.000000, 0.000000)">
	<g id="Clip-6">
	</g>
	<path id="Fill-5" sketch:type="MSShapeGroup" class="st2" d="M0.8,3l108.7,0.9l0.1,82.4l-53.3,28.6L0,85.4L0.8,3z"/>
</g>
<g id="Group-7_1_" transform="translate(89.000000, 0.000000)">
	<g id="Clip-6_1_">
	</g>
	<path id="Fill-5_3_" sketch:type="MSShapeGroup" class="st3" d="M0,85.4L0.8,3l108.7,0.9l0.1,82.4"/>
	<g>
		<defs>
			<polygon id="SVGID_1_" points="1,1 2,1 1,2 			"/>
		</defs>
		<defs>
			<polygon id="SVGID_2_" points="-1,-1 -2,-1 -1,-2 			"/>
		</defs>
		<clipPath id="SVGID_3_">
			<use xlink:href="#SVGID_1_"  style="overflow:visible;"/>
		</clipPath>
		<clipPath id="SVGID_4_" class="st4">
			<use xlink:href="#SVGID_2_"  style="overflow:visible;"/>
		</clipPath>
		<path id="Fill-5_2_" sketch:type="MSShapeGroup" class="st5" d="M56.3,114.9"/>
	</g>
</g>
<g class="st6">
	<path class="st7" d="M104.8,54.7c-0.4,0-0.8-0.1-1.1-0.2c-0.4-0.1-0.7-0.2-1-0.4s-0.4-0.4-0.4-0.7s0.1-0.6,0.3-0.7
		c0.2-0.2,0.5-0.2,0.8-0.2c0.4,0,0.7,0,1.1,0.1c0.4,0,0.7,0.1,1.1,0.1c1.4,0,2.7-0.5,3.7-1.5s1.9-2.3,2.7-4c0.8-1.6,1.4-3.4,1.9-5.4
		s0.9-4,1.2-5.9c0.3-2,0.5-3.8,0.7-5.5s0.3-3.1,0.4-4.1c0.1-0.7,0.1-1.4,0.1-2.1c0-0.4-0.1-0.8-0.2-1.2s-0.2-0.7-0.2-1.1
		s0.1-0.7,0.4-1s0.6-0.6,0.9-0.8c0.4-0.2,0.8-0.4,1.2-0.6c0.4-0.1,0.7-0.2,1-0.2c0.5,0,0.9,0.2,1.1,0.6s0.3,0.9,0.4,1.3l0.1,1.2
		c0.1,0.7,0.3,1.5,0.4,2.2c0.2,0.7,0.3,1.4,0.5,2.1c0.2,0.6,0.4,1.5,0.8,2.7s0.8,2.6,1.3,4.1c0.5,1.5,1.1,3.1,1.7,4.7
		c0.6,1.6,1.3,3.1,1.9,4.4c0.7,1.3,1.3,2.4,2,3.3s1.3,1.3,1.9,1.3c0.2,0,0.4-0.1,0.5-0.3s0.3-0.4,0.4-0.6c0.1-0.2,0.2-0.5,0.3-0.7
		c0.1-0.3,0.2-0.4,0.2-0.6c0.4-1.2,0.7-2.4,1-3.7s0.5-2.6,0.6-3.9c0.2-1.3,0.3-2.7,0.4-4c0.1-1.3,0.2-2.6,0.3-3.8
		c0.1-1.3,0.2-2.7,0.3-4s0.1-2.6,0.1-4c0-0.2,0-0.3,0-0.5s0-0.3,0-0.5c0-0.5,0.1-0.9,0.3-1.2c0.2-0.3,0.6-0.4,1.1-0.4
		c0.4,0,0.7,0.2,0.8,0.6s0.1,0.7,0.1,1.1c0,0.8,0,2-0.1,3.8s-0.2,3.8-0.4,6s-0.4,4.6-0.8,6.9c-0.3,2.4-0.7,4.6-1.2,6.6
		s-1.1,3.6-1.8,4.9c-0.7,1.3-1.5,1.9-2.4,1.9c-1.2,0-2.3-0.4-3.4-1.1c-1-0.7-2-1.6-2.8-2.8c-0.8-1.1-1.6-2.4-2.3-3.8
		c-0.7-1.4-1.3-2.9-1.9-4.3c-0.6-1.4-1-2.8-1.5-4.1c-0.4-1.3-0.8-2.4-1.1-3.4c0-0.1-0.1-0.2-0.1-0.4c-0.1-0.1-0.2-0.2-0.3-0.2
		c-0.1,0-0.2,0.2-0.4,0.6c-0.1,0.4-0.2,0.9-0.3,1.5c-0.1,0.6-0.1,1.1-0.2,1.7c0,0.5-0.1,0.9-0.1,1.1c-0.2,1.1-0.4,2.2-0.6,3.6
		c-0.2,1.3-0.5,2.7-0.9,4.1c-0.4,1.4-0.9,2.8-1.4,4.1c-0.6,1.3-1.2,2.5-2,3.6s-1.7,1.9-2.8,2.5c-1.1,0.6-2.3,1-3.7,1
		C105.5,54.7,105.2,54.7,104.8,54.7z"/>
	<path class="st7" d="M144.4,50.1c-0.7-0.4-1.2-0.8-1.7-1.4c-0.4-0.6-0.7-1.3-0.9-2.1s-0.3-1.6-0.3-2.5c0-1.1,0.2-2.4,0.6-3.9
		c0.4-1.5,1-3,1.8-4.4s1.7-2.6,2.8-3.6s2.2-1.5,3.5-1.5c0.9,0,1.5,0.3,2,0.8s0.7,1.2,0.7,2.1c0,0.8-0.2,1.7-0.7,2.7
		s-1.1,1.9-1.9,2.8s-1.6,1.7-2.4,2.4c-0.9,0.7-1.7,1.2-2.4,1.4c-0.2,0.7-0.2,1.4-0.2,2c0,1.1,0.2,2,0.7,2.6s1.3,0.9,2.4,0.9
		c1,0,2-0.2,2.9-0.6s1.7-0.9,2.5-1.5s1.5-1.3,2.1-2.1s1.2-1.6,1.7-2.4c0.2-0.3,0.4-0.5,0.6-0.8c0.2-0.3,0.5-0.4,0.9-0.4
		c0.2,0,0.3,0,0.5,0.1c0.1,0.1,0.2,0.2,0.2,0.4c0,0.3,0,0.6-0.1,0.8s-0.2,0.4-0.3,0.7c-0.6,1.1-1.4,2.1-2.2,3.1
		c-0.9,1-1.8,1.9-2.9,2.6c-1.1,0.7-2.2,1.3-3.4,1.8c-1.2,0.4-2.5,0.7-3.8,0.7C145.9,50.6,145.1,50.4,144.4,50.1z M148.5,33.9
		c-0.5,0.7-0.9,1.5-1.3,2.4s-0.8,1.8-1.1,2.8c-0.3,0.9-0.5,1.6-0.5,2c0.5-0.3,1.1-0.7,1.7-1.3c0.6-0.5,1.2-1.1,1.7-1.8
		s0.9-1.3,1.3-2c0.4-0.7,0.5-1.4,0.5-2c0-0.3-0.1-0.5-0.2-0.7c-0.1-0.2-0.3-0.4-0.6-0.4C149.5,32.8,149,33.2,148.5,33.9z"/>
	<path class="st7" d="M181.1,42.4c-0.2,1.5-0.5,2.9-0.9,4.3s-1.1,2.6-1.9,3.6c-0.8,1-1.9,1.5-3.3,1.5c-0.5,0-1.1-0.1-1.5-0.4
		c-0.5-0.2-0.9-0.6-1.3-0.9c-0.4-0.4-0.8-1-1.1-1.9c-0.3-0.8-0.5-1.7-0.7-2.7s-0.3-1.9-0.4-2.8s-0.2-1.7-0.2-2.2
		c-0.5,0.6-1.1,1.4-1.9,2.4c-0.8,1-1.7,2-2.6,3c-0.9,1-1.9,1.8-2.9,2.5s-1.8,1.1-2.6,1.1c-0.6,0-1.1-0.1-1.4-0.4
		c-0.3-0.3-0.6-0.6-0.8-1s-0.3-0.9-0.3-1.4s-0.1-1-0.1-1.4c0-0.7,0.1-1.6,0.4-2.7c0.2-1.1,0.5-2.3,0.9-3.5s0.8-2.3,1.2-3.4
		c0.4-1.1,0.8-1.9,1.2-2.4c0.3-0.4,0.6-0.6,1-0.8s0.8-0.2,1.2-0.2s0.7,0.1,1,0.2c0.3,0.1,0.5,0.4,0.5,0.8c0,0.2,0,0.3-0.1,0.5
		s-0.2,0.3-0.2,0.5c-0.4,0.8-0.8,1.6-1.2,2.6s-0.7,2-1.1,3c-0.3,1-0.6,2-0.8,3s-0.3,2-0.3,2.9c0,0.1,0,0.2,0,0.4s0.1,0.3,0.3,0.3
		s0.4-0.1,0.7-0.2c0.3-0.2,0.5-0.4,0.8-0.6s0.5-0.4,0.7-0.7c0.2-0.2,0.4-0.4,0.6-0.5c1.7-1.7,3.2-3.5,4.6-5.5
		c0.3-0.4,0.5-0.9,0.8-1.4s0.6-0.9,0.8-1.3c0.2-0.3,0.5-0.5,0.8-0.5c0.3-0.1,0.7-0.1,1-0.1c0.6,0,1,0.2,1.2,0.7
		c0.1,0.5,0.2,1,0.2,1.5c0,0.3,0,0.7,0.1,1.4c0,0.7,0.1,1.4,0.2,2.2c0.1,0.8,0.2,1.7,0.4,2.5s0.3,1.7,0.5,2.4s0.4,1.3,0.7,1.8
		s0.5,0.7,0.9,0.7c0.6,0,1.2-0.4,1.6-1.3c0.4-0.9,0.8-1.9,1.1-3s0.5-2.2,0.6-3.3s0.2-1.9,0.2-2.4c0-0.2,0-0.4,0-0.7s0-0.6,0-0.9
		c0-0.3-0.1-0.6-0.1-0.9s-0.1-0.5-0.2-0.6c-0.2-0.4-0.4-0.7-0.6-0.8c-0.2-0.2-0.3-0.5-0.3-1c0-0.3,0.1-0.6,0.3-0.9s0.5-0.4,0.8-0.4
		c0.4,0,0.8,0.2,1.1,0.7s0.4,1,0.6,1.7c0.1,0.6,0.2,1.3,0.2,1.9c0,0.6,0,1.1,0,1.4C181.4,39.7,181.3,40.9,181.1,42.4z"/>
</g>
<g class="st6">
	<path class="st8" d="M130.7,86.9l-1.3,1.3h-5.6l6.9-33.6l1.1-1.1l-6.9,33.3L130.7,86.9L130.7,86.9z M138.6,78.2h-5.8l-1.2,7.8H126
		l6.9-33.6h6l6.9,33.6h-6L138.6,78.2z M144.9,86.9l-1.3,1.3h-6l-1.2-7.8h-3l0.2-1.3h4.3l1.1,7.8H144.9z M137.6,73.4l-1.8-12h-0.1
		l-1.9,12H137.6z M135.7,66.8l0.9,5.8h-1.7v-0.3L135.7,66.8z"/>
	<path class="st8" d="M161.6,86.9c0.8,0,1.6-0.1,2.4-0.4c-1.2,1.1-2.9,1.8-4.7,1.8h-10.8V54.7h1.3v32.2h6.9H161.6z M169,62v14.4
		c0,5.1-2.3,9.6-7.4,9.6h-10.8V52.4h10.8c3.4,0,6.2,2.4,7,5.6C168.9,59.3,169,60.7,169,62z M163.4,62c0-2.7-0.6-4.8-3-4.8h-3.6v23.9
		h3.6c2.4,0,3-2.1,3-4.8V62z M162.4,62v14.4c0,2.7-0.6,3.6-1.4,3.8c0-0.5,0.1-1.1,0.1-1.6V64.3c0-2.7-0.6-4.8-3-4.8h-0.5v-1.4h2.7
		C161.5,58.1,162.4,58.6,162.4,62z"/>
</g>
<g id="Imported-Layers-_x2B_-Imported-Layers-2-_x2B_-Imported-Layers-3" transform="translate(18.772601, 72.000000) rotate(33.000000) translate(-18.772601, -72.000000) translate(10.000000, 52.000000)" sketch:type="MSShapeGroup">
	<path id="Imported-Layers" class="st8" d="M-5.2-8.6c-1.9-0.9-3,1.7-1.3,2.5C-4-4.8-1.3-3.5,1.3-2.4c1.6,0.7,2.4-1,1.1-1.8
		C-0.1-5.4-2.6-7.5-5.2-8.6z"/>
	<path id="Imported-Layers-2" class="st8" d="M-12.1,9.3c-2.2,0.2-1.8,3,0.1,2.8c3-0.2,6.1-0.4,9.1-0.7c1.8-0.2,1.7-2,0-2.1
		C-5.8,9.5-9.1,9-12.1,9.3L-12.1,9.3z"/>
	<path id="Imported-Layers-3" class="st8" d="M-6.5,28.5c-1.6,1,0.2,3.2,1.7,2.4c2.3-1.3,4.7-2.7,6.8-4.2c1.3-0.9,0.2-2.4-1.2-1.8
		C-1.4,26.3-4.3,27.1-6.5,28.5L-6.5,28.5z"/>
</g>
<g id="Imported-Layers-_x2B_-Imported-Layers-2-_x2B_-Imported-Layers-4" transform="translate(227.772601, 52.000000) scale(-1, 1) translate(-227.772601, -52.000000) translate(219.000000, 32.000000)" sketch:type="MSShapeGroup">
	<path id="Imported-Layers_1_" class="st8" d="M15.8-14.8c-1.9-0.9-3,1.7-1.3,2.5c2.5,1.3,5.2,2.6,7.8,3.7c1.6,0.7,2.4-1,1.1-1.8
		C20.9-11.6,18.4-13.7,15.8-14.8z"/>
	<path id="Imported-Layers-2_1_" class="st8" d="M8.9,3.1C6.7,3.3,7.1,6.1,9,5.9c3-0.2,6.1-0.4,9.1-0.7c1.8-0.2,1.7-2,0-2.1
		C15.2,3.3,11.9,2.8,8.9,3.1L8.9,3.1z"/>
	<path id="Imported-Layers-3_1_" class="st8" d="M14.5,22.3c-1.6,1,0.2,3.2,1.7,2.4c2.3-1.3,4.7-2.7,6.8-4.2
		c1.3-0.9,0.2-2.4-1.2-1.8C19.6,20.1,16.7,20.9,14.5,22.3L14.5,22.3z"/>
</g>
<path id="Fill-2" sketch:type="MSShapeGroup" class="st9" d="M76.6,78.9l68.7,35.9L77,151.4L76.6,78.9"/>
<path id="Fill-3" sketch:type="MSShapeGroup" class="st9" d="M213.7,78.2l-68.3,36.6l68.7,35.9L213.7,78.2"/>
<g>
	<path class="st10" d="M63.6,127l4.3,9.4c-0.3,0.5-0.6,1-0.9,1.5c-0.9,1.8-1.2,3.8-1,5.6c-14.8,8.4-25.3,11.8-28.1,10.6
		c-0.2-0.1-0.4-0.2-0.6-0.4C35.8,151.2,45,140.3,63.6,127z M82.5,133.2c-0.3-0.2-0.5-0.3-0.8-0.5c-0.8-0.3-1.5-0.6-2.2-0.8L74,120
		c21.1-13.5,36.1-18.4,37.9-15.8c0.1,0.1,0.1,0.3,0.1,0.5C112.5,108,102.2,119.6,82.5,133.2z M34,133.6c2.9,4.4,2.1,6.9,0.5,12.1
		c-0.7,2.2-1.5,4.8-2.1,8c-0.1,0.4,0,0.9,0.2,1.3c-0.1,0.9,0.1,1.7,0.5,2.3c3.3,5,19.1-1.7,33.9-10.1c1,2.3,2.8,4.3,5.2,5.4
		c5.5,2.6,12.1,0.3,14.7-5.2c1.9-4,1.2-8.6-1.5-11.8c16.2-11.3,35.5-27.8,31.5-33.9c-0.6-0.9-1.7-1.4-3.1-1.6
		c-0.1-0.1-0.2-0.1-0.4-0.2c-2.9-0.7-5.5-1-7.8-1.2c-5.6-0.7-8.7-1.1-11.7-5.6L83.4,77.4c-9.1-13.5-26.1-19.6-40.9-14.9
		c-2.6-2.4-7.3-4.5-12.8-0.8c-5.5,3.6-5.3,9-4.1,12.3c-10.1,12-11.2,29.9-2.3,43.4L34,133.6z"/>
</g>
<g>
	<path class="st11" d="M79.7,105.2c0.8,2.3,1.9,3.8,3.4,4.9c4.2-2.3,7.9-4,11.1-5.4c-4.3-1.1-6.8-2-8.9-6.2l-8-15.8
		c-7-13.7-22.2-21.3-36.7-18.5c-2-2.4-6-3.6-11.2-1.3c4.9-1.2,8.5,0.4,10.1,2.9c14.7-1,28.9,8.4,34.1,22.9L79.7,105.2z"/>
</g>
<g>
	<path class="st12" d="M63.6,127.3l4.3,9.4c-0.3,0.5-0.6,1-0.9,1.5c-0.9,1.8-1.2,3.8-1,5.6c-14.8,8.4-25.3,11.8-28.1,10.6
		c-0.2-0.1-0.4-0.2-0.6-0.4C35.8,151.5,45,140.6,63.6,127.3z M82.5,133.4c-0.3-0.2-0.5-0.3-0.8-0.5c-0.8-0.3-1.5-0.6-2.2-0.8
		L74,120.3c21.1-13.5,36.1-18.4,37.9-15.8c0.1,0.1,0.1,0.3,0.1,0.5C112.5,108.3,102.2,119.8,82.5,133.4z"/>
</g>
</svg>
