<?xml version="1.0" encoding="utf-8"?>
<!-- Generator: Adobe Illustrator 19.2.0, SVG Export Plug-In . SVG Version: 6.00 Build 0)  -->
<svg version="1.1" id="Layer_1" xmlns="http://www.w3.org/2000/svg" xmlns:xlink="http://www.w3.org/1999/xlink" x="0px" y="0px"
	 width="33px" height="18px" viewBox="0 0 33 18" style="enable-background:new 0 0 33 18;" xml:space="preserve">
<style type="text/css">
	.st0{fill:#FEFEFE;}
</style>
<title>alert white</title>
<desc>Created with Sketch.</desc>
<g id="Page-1">
	<g id="Create-alert" transform="translate(-355.000000, -407.000000)">
		<g id="Filters" transform="translate(182.000000, 385.000000)">
			<g id="create-alert" transform="translate(11.000000, 11.000000)">
				<g id="Group-2" transform="translate(35.000000, 8.000000)">
					<g id="alert-white" transform="translate(127.000000, 3.000000)">
						<path id="Fill-1" class="st0" d="M24.1,13.3c0,0-3-4.8-3-8.7c0-2.5-2.2-4.6-4.9-4.6c-2.7,0-4.9,2.1-4.9,4.6c0,3.9-3,8.7-3,8.7
							c-0.2,0.3-0.2,0.6,0,0.8c0.2,0.3,0.4,0.4,0.7,0.4h14.3c0.3,0,0.6-0.2,0.7-0.4C24.2,13.9,24.2,13.6,24.1,13.3"/>
						<path id="Fill-3" class="st0" d="M16.2,17.8c-1.1,0-2.1-0.8-2.2-1.9h4.4C18.2,17,17.3,17.8,16.2,17.8"/>
						<path id="Fill-5" class="st0" d="M6.9,5.2c0-0.2-0.1-0.3-0.2-0.5c-0.3-0.3-0.7-0.3-1,0C4.3,6.1,3.5,7.9,3.5,9.9
							c0,2,0.8,3.8,2.2,5.2c0.1,0.1,0.3,0.2,0.5,0.2c0.2,0,0.4-0.1,0.5-0.2c0.3-0.3,0.3-0.7,0-1c-1.2-1.1-1.8-2.6-1.8-4.2
							c0-1.6,0.6-3.1,1.8-4.2C6.8,5.5,6.9,5.4,6.9,5.2"/>
						<path id="Fill-7" class="st0" d="M1.4,9.9c0-2.6,1-5,2.9-6.8c0.3-0.3,0.3-0.7,0-1c-0.3-0.3-0.7-0.3-1,0C1.2,4.2,0,6.9,0,9.9
							c0,2.9,1.2,5.7,3.3,7.7c0.1,0.1,0.3,0.2,0.5,0.2c0.1,0,0.3,0,0.5-0.2c0.1-0.1,0.2-0.3,0.2-0.5c0-0.2-0.1-0.4-0.2-0.5
							C2.4,14.8,1.4,12.4,1.4,9.9"/>
						<path id="Fill-10" class="st0" d="M26.6,4.7c-0.3-0.3-0.7-0.3-1,0c-0.3,0.3-0.3,0.7,0,1c1.2,1.1,1.8,2.6,1.8,4.2
							c0,1.6-0.6,3.1-1.8,4.2c-0.3,0.3-0.3,0.7,0,1c0.1,0.1,0.3,0.2,0.5,0.2c0.2,0,0.4-0.1,0.5-0.2c1.4-1.4,2.2-3.2,2.2-5.2
							C28.8,7.9,28.1,6.1,26.6,4.7"/>
						<path id="Fill-12" class="st0" d="M29,2.1c-0.3-0.3-0.7-0.3-1,0c-0.1,0.1-0.2,0.3-0.2,0.5c0,0.2,0.1,0.4,0.2,0.5
							c1.9,1.8,2.9,4.2,2.9,6.8c0,2.6-1,5-2.9,6.8c-0.1,0.1-0.2,0.3-0.2,0.5c0,0.2,0.1,0.3,0.2,0.5c0.1,0.1,0.3,0.2,0.5,0.2
							c0.2,0,0.4-0.1,0.5-0.2c2.1-2.1,3.3-4.8,3.3-7.7C32.3,6.9,31.2,4.2,29,2.1"/>
					</g>
				</g>
			</g>
		</g>
	</g>
</g>
</svg>
