<?xml version="1.0" encoding="utf-8"?>
<!-- Generator: Adobe Illustrator 19.2.0, SVG Export Plug-In . SVG Version: 6.00 Build 0)  -->
<svg version="1.1" id="Layer_1" xmlns="http://www.w3.org/2000/svg" xmlns:xlink="http://www.w3.org/1999/xlink" x="0px" y="0px"
	 width="27px" height="18px" viewBox="0 0 27 18" style="enable-background:new 0 0 27 18;" xml:space="preserve">
<style type="text/css">
	.st0{fill:#A8DC28;}
</style>
<title>Bell-check</title>
<desc>Created with Sketch.</desc>
<g id="Page-1_1_">
	<g id="Create-alert" transform="translate(-364.000000, -407.000000)">
		<g id="Filters" transform="translate(182.000000, 385.000000)">
			<g id="alert-created" transform="translate(11.000000, 11.000000)">
				<g id="Group-2" transform="translate(31.000000, 11.000000)">
					<g id="Bell-check" transform="translate(140.000000, 0.000000)">
						<path id="Combined-Shape" class="st0" d="M12.8,3.1C12.1,1.3,10.3,0,8.2,0C5.5,0,3.2,2.1,3.2,4.6c0,3.9-3,8.7-3,8.7
							c-0.2,0.3-0.2,0.6,0,0.8c0.2,0.3,0.4,0.4,0.7,0.4h14.3c0.2,0,0.3,0,0.5-0.1c-0.4-0.2-0.7-0.5-1.1-0.8l0,0l-4.2-4.5
							C9.2,7.7,9.2,5.4,10.7,4C11.3,3.5,12,3.1,12.8,3.1z"/>
						<path id="Fill-3" class="st0" d="M8.2,17.8C7,17.8,6.1,17,6,15.9h4.4C10.2,17,9.3,17.8,8.2,17.8"/>
						<path id="Page-1" class="st0" d="M16.2,12.3c0.7,0.8,1.9,0.7,2.5-0.1l7-8.9c0.6-0.7,0.4-1.8-0.3-2.4c-0.7-0.6-1.8-0.4-2.4,0.3
							l-5.8,7.4l-2.8-3.1c-0.6-0.7-1.7-0.7-2.4-0.1S11.4,7.2,12,7.9L16.2,12.3z"/>
					</g>
				</g>
			</g>
		</g>
	</g>
</g>
</svg>
