<svg xmlns="http://www.w3.org/2000/svg" version="1.1" x="0" y="0" width="27" height="27" viewBox="-1404 458.9 27 27" xml:space="preserve"><style type="text/css">
	.st0{fill:#FFFFFF;stroke:#E3C00B;}
	.st1{fill:#E3C00B;}
</style><title>warning icon</title><desc>Created with Sketch.</desc><g transform="translate(-54.000000, -395.000000)"><g transform="translate(36.000000, 378.000000)"><g transform="translate(19.000000, 18.000000)"><circle class="st0" cx="-1391.5" cy="471.4" r="12.5"/><path class="st1" d="M-1392.7 467.9l0.4 6.3h1.3l0.4-6.3v-2.1c0-0.5-0.2-0.9-1-0.9 -0.7 0-1 0.4-1 0.8V467.9zM-1393 476.5c0 0.7 0.4 1.2 1.3 1.2 0.8 0 1.2-0.6 1.2-1.2 0-0.7-0.5-1.2-1.3-1.2C-1392.5 475.4-1393 475.9-1393 476.5L-1393 476.5z"/></g></g></g></svg>