<svg xmlns:sketch="http://www.bohemiancoding.com/sketch/ns" xmlns="http://www.w3.org/2000/svg" xmlns:xlink="http://www.w3.org/1999/xlink" version="1.1" id="Layer_1" x="0" y="0" width="111" height="111" viewBox="0 0 111 111" xml:space="preserve" enable-background="new 0 0 111 111">
  <style type="text/css">
    
	.st0{fill:#313133;}
	.st1{fill:none;stroke:#A8DC28;stroke-width:2;stroke-linecap:round;stroke-linejoin:round;stroke-dasharray:1,4;}
	.st2{fill:#A8DC28;stroke:#313133;stroke-width:2;}
	.st3{fill:#EFEFEF;}
	.st4{enable-background:new    ;}
	.st5{fill:#A8DC28;}

  </style>
  <title>
    Animals Active
  </title>
  <desc>
    Created with Sketch Beta.
  </desc>
  <g id="PAA" sketch:type="MSPage">
    <g id="Desktop-HD-For-sale-2" transform="translate(-521.000000, -758.000000)" sketch:type="MSArtboardGroup">
      <g id="Phase-1" transform="translate(457.000000, 273.000000)" sketch:type="MSLayerGroup">
        <g id="_x31_-what-are-you-selling" transform="translate(0.000000, 34.000000)">
          <g id="categories" transform="translate(0.000000, 314.000000)">
            <g id="Animals-Active" transform="translate(64.549713, 136.826638)">
              <path id="Fill-1" sketch:type="MSShapeGroup" class="st0" d="M110.2 55.8c0-30.3-24.7-55-55-55s-55 24.7-55 55 24.7 55 55 55S110.2 86.1 110.2 55.8z"/>
              <path id="Stroke-6" sketch:type="MSShapeGroup" class="st1" d="M100.4 77.9c3.2-6.6 5-14 5-21.8 0-27.6-22.4-50-50-50s-50 22.4-50 50C5.4 77.6 19.1 96 38.2 103c5.4 2 11.2 3.1 17.2 3.1C75.2 106.1 92.3 94.6 100.4 77.9z"/>
              <path id="Stroke-15" sketch:type="MSShapeGroup" class="st1" d="M0 0"/>
              <g id="paw-icon" transform="translate(55.181648, 46.853283) rotate(13.000000) translate(-55.181648, -46.853283) translate(38.681648, 29.353283)" sketch:type="MSShapeGroup">
                <path id="Fill-1_1_" class="st2" d="M8.4 31.4c-1-4.4 4.3-12.7 8.6-13.7 3.6-0.8 12.7 3.9 13.8 8.6 1.4 6.2-5 3-10.8 4.3C14.2 31.9 9.8 37.5 8.4 31.4"/>
                <path id="Fill-2" class="st3" d="M13.4 7.7c1.6 3.1 1.2 6.5-0.9 7.5 -2.1 1.1-5.1-0.6-6.6-3.7C4.3 8.5 4.7 5.1 6.8 4 8.9 3 11.8 4.6 13.4 7.7"/>
                <path id="Fill-3" class="st3" d="M8.4 23.4c-1.7 1.3-4.7 0.4-6.7-2.1s-2.3-5.6-0.6-6.9C2.8 13 5.8 14 7.8 16.5 9.8 18.9 10.1 22 8.4 23.4z"/>
                <path id="Fill-4" class="st3" d="M15.9 7.2c0 3.5 1.8 6.3 4.2 6.4 2.3 0 4.3-2.8 4.3-6.2 0.1-3.5-1.8-6.3-4.2-6.4C17.9 0.9 15.9 3.7 15.9 7.2"/>
                <path id="Fill-5" class="st3" d="M27.3 19c2.1 0.5 4.4-1.7 5.1-4.8s-0.4-6-2.5-6.5c-2.1-0.5-4.4 1.7-5.1 4.8C24 15.7 25.2 18.6 27.3 19z"/>
              </g>
              <g class="st4">
                <path class="st5" d="M33.2 74.9l-0.9-0.1v-1.1h3.2l2.9 8.1 0 0h0.8V83h-3.6v-1.1h0.5c0.3 0 0.4-0.1 0.3-0.4l-0.3-0.9h-3.3l-0.4 1.2h0.8V83H30v-1.1h0.5c0.2 0 0.3-0.1 0.4-0.4L33.2 74.9zM33.2 79.2h2.6l-1.3-4 0 0L33.2 79.2z"/>
                <path class="st5" d="M39.6 76H42v0.9c0.5-0.7 1.3-1.1 2.3-1.1 1.4 0 2.2 0.8 2.2 2.4v3.7h0.8V83H44v-1.1h0.5c0.3 0 0.4-0.1 0.4-0.5v-2.9c0-0.9-0.2-1.5-1.1-1.5 -0.9 0-1.4 0.7-1.4 1.4v3.4h0.8V83h-3.3v-1.1h0.5c0.3 0 0.4-0.1 0.4-0.5v-3.9c0-0.3-0.1-0.4-0.4-0.4h-0.6V76H39.6z"/>
                <path class="st5" d="M50.7 81.8h0.8V83h-3.3v-1.1h0.5c0.3 0 0.4-0.1 0.4-0.4v-3.9c0-0.3-0.1-0.4-0.4-0.4h-0.5V76h2.5V81.8zM49.7 73c0.6 0 1.1 0.5 1.1 1 0 0.6-0.4 1-1.1 1 -0.6 0-1.1-0.4-1.1-1C48.6 73.4 49 73 49.7 73z"/>
                <path class="st5" d="M52.2 76h2.4v0.9c0.5-0.7 1.2-1.1 2.1-1.1 0.9 0 1.5 0.4 1.9 1.1 0.5-0.7 1.2-1.1 2.1-1.1 1.3 0 2.1 0.8 2.1 2.4v3.7h0.8V83h-3.3v-1.1h0.5c0.3 0 0.4-0.1 0.4-0.4v-2.9c0-0.9-0.1-1.5-1-1.5s-1.4 0.6-1.4 1.4v3.4h0.8V83h-3.3v-1.1h0.5c0.3 0 0.4-0.1 0.4-0.5v-2.9c0-0.9-0.1-1.5-1-1.5 -1 0-1.4 0.7-1.4 1.4v3.4h0.8V83h-3.3v-1.1h0.5c0.3 0 0.4-0.1 0.4-0.5l0 0v-3.9c0-0.3-0.1-0.4-0.4-0.4h-0.6V76z"/>
                <path class="st5" d="M70.7 81.4c0 0.3 0.1 0.4 0.4 0.4h0.4V83h-2.2v-0.8l0 0c-0.4 0.6-1.1 1-1.9 1 -2 0-2.8-1.4-2.8-3.4 0-2.5 1.2-4 3.7-4 0.5 0 1.5 0.1 2.5 0.5L70.7 81.4 70.7 81.4zM69.1 77.1C68.9 77 68.4 77 68 77c-1.3 0-1.8 1.2-1.8 2.8 0 1.2 0.3 2.3 1.5 2.3 0.9 0 1.4-0.6 1.4-1.2V77.1z"/>
                <path class="st5" d="M74.8 81.8h0.8V83h-3.3v-1.1h0.5c0.3 0 0.4-0.1 0.4-0.4v-6.9c0-0.3-0.1-0.3-0.3-0.3h-0.5V73h2.5L74.8 81.8 74.8 81.8z"/>
                <path class="st5" d="M79.4 76.9c-0.6 0-1.1 0.3-1.1 0.8 0 0.6 0.7 0.8 1.3 1 1.1 0.3 2.3 0.7 2.3 2.2s-1.2 2.2-2.7 2.2c-0.9 0-2-0.1-2.6-0.4v-1.9l1.3-0.1v0.7c0 0.3 0.1 0.4 0.3 0.5 0.3 0.1 0.6 0.1 0.9 0.1 0.7 0 1.1-0.3 1.1-0.9 0-0.7-0.6-0.8-1.4-1 -1-0.3-2.2-0.6-2.2-2.2 0-1.5 1.2-2.2 2.7-2.2 1 0 1.8 0.3 2.3 0.6V78l-1.3 0.1v-0.6c0-0.3-0.1-0.4-0.3-0.5C79.9 76.9 79.7 76.9 79.4 76.9z"/>
              </g>
            </g>
          </g>
        </g>
      </g>
    </g>
  </g>
</svg>
