<svg xmlns:sketch="http://www.bohemiancoding.com/sketch/ns" xmlns="http://www.w3.org/2000/svg" xmlns:xlink="http://www.w3.org/1999/xlink" version="1.1" id="Layer_1" x="0" y="0" width="111" height="111" viewBox="0 0 111 111" xml:space="preserve" enable-background="new 0 0 111 111">
  <style type="text/css">
    
	.st0{fill:#EFEFEF;}
	.st1{fill:none;stroke:#313133;stroke-width:2;stroke-linecap:round;stroke-linejoin:round;stroke-dasharray:1,4;}
	.st2{enable-background:new    ;}
	.st3{fill:#313133;}
	.st4{fill:#313133;stroke:#EFEFEF;stroke-width:2;}

  </style>
  <title>
    Animals Hover
  </title>
  <desc>
    Created with Sketch Beta.
  </desc>
  <g id="PAA" sketch:type="MSPage">
    <g id="Desktop-HD-For-sale-2" transform="translate(-521.000000, -758.000000)" sketch:type="MSArtboardGroup">
      <g id="Phase-1" transform="translate(457.000000, 273.000000)" sketch:type="MSLayerGroup">
        <g id="_x31_-what-are-you-selling" transform="translate(0.000000, 34.000000)">
          <g id="categories" transform="translate(0.000000, 314.000000)">
            <g id="Animals-Hover" transform="translate(64.549713, 136.826638)">
              <path id="Fill-1" sketch:type="MSShapeGroup" class="st0" d="M110 56c0-30.3-24.7-55-55-55S0 25.7 0 56s24.7 55 55 55S110 86.3 110 56z"/>
              <path id="Stroke-6" sketch:type="MSShapeGroup" class="st1" d="M100 77.8c3.2-6.6 5-14 5-21.8 0-27.6-22.4-50-50-50S5 28.4 5 56c0 21.5 13.7 39.9 32.8 46.9 5.4 2 11.2 3.1 17.2 3.1C74.8 106 91.9 94.5 100 77.8z"/>
              <path id="Stroke-15" sketch:type="MSShapeGroup" class="st1" d="M0 0"/>
              <g class="st2">
                <path class="st3" d="M30.2 74.4l-0.9-0.1v-1.1h3.2l2.9 8.1 0 0h0.8v1.2h-3.6v-1.1h0.5c0.3 0 0.4-0.1 0.3-0.4l-0.3-1h-3.3l-0.4 1.2h0.8v1.2H27v-1.1h0.5c0.2 0 0.3-0.1 0.4-0.4L30.2 74.4zM30.2 78.7h2.6l-1.3-4 0 0L30.2 78.7z"/>
                <path class="st3" d="M36.6 75.4H39v0.9c0.5-0.7 1.3-1.1 2.3-1.1 1.4 0 2.2 0.8 2.2 2.4v3.7h0.8v1.1H41v-1.1h0.5c0.3 0 0.4-0.1 0.4-0.5V78c0-0.9-0.2-1.5-1.1-1.5 -0.9 0-1.4 0.7-1.4 1.4v3.4h0.8v1.1h-3.3v-1.1h0.5c0.3 0 0.4-0.1 0.4-0.5V77c0-0.3-0.1-0.4-0.4-0.4h-0.6v-1.2H36.6z"/>
                <path class="st3" d="M47.6 81.3h0.8v1.1h-3.3v-1.1h0.5c0.3 0 0.4-0.1 0.4-0.4V77c0-0.3-0.1-0.4-0.4-0.4h-0.5v-1.2h2.5V81.3zM46.7 72.4c0.6 0 1.1 0.5 1.1 1 0 0.6-0.4 1-1.1 1 -0.6 0-1.1-0.4-1.1-1C45.6 72.9 46 72.4 46.7 72.4z"/>
                <path class="st3" d="M49.2 75.4h2.4v0.9c0.5-0.7 1.2-1.1 2.1-1.1 0.9 0 1.5 0.4 1.9 1.1 0.5-0.7 1.2-1.1 2.1-1.1 1.3 0 2.1 0.8 2.1 2.4v3.7h0.8v1.1h-3.3v-1.1h0.5c0.3 0 0.4-0.1 0.4-0.4V78c0-0.9-0.1-1.5-1-1.5s-1.4 0.6-1.4 1.4v3.4h0.8v1.1h-3.3v-1.1h0.5c0.3 0 0.4-0.1 0.4-0.5V78c0-0.9-0.1-1.5-1-1.5 -1 0-1.4 0.7-1.4 1.4v3.4h0.8v1.1h-3.3v-1.1h0.5c0.3 0 0.4-0.1 0.4-0.5l0 0v-3.9c0-0.3-0.1-0.4-0.4-0.4h-0.6V75.4z"/>
                <path class="st3" d="M67.7 80.9c0 0.3 0.1 0.4 0.4 0.4h0.4v1.1h-2.2v-0.8l0 0c-0.4 0.6-1.1 1-1.9 1 -2 0-2.8-1.4-2.8-3.4 0-2.5 1.2-4 3.7-4 0.5 0 1.5 0.1 2.5 0.5v5.2H67.7zM66 76.6c-0.2-0.1-0.6-0.2-1.1-0.2 -1.3 0-1.8 1.2-1.8 2.8 0 1.2 0.3 2.3 1.5 2.3 0.9 0 1.4-0.6 1.4-1.2C66 80.3 66 76.6 66 76.6z"/>
                <path class="st3" d="M71.8 81.3h0.8v1.1h-3.3v-1.1h0.5c0.3 0 0.4-0.1 0.4-0.4V74c0-0.3-0.1-0.3-0.4-0.3h-0.5v-1.2h2.5V81.3z"/>
                <path class="st3" d="M76.3 76.4c-0.6 0-1.1 0.3-1.1 0.8 0 0.6 0.7 0.8 1.3 1 1.1 0.3 2.3 0.7 2.3 2.2s-1.2 2.2-2.7 2.2c-0.9 0-2-0.1-2.6-0.4v-1.9l1.3-0.1v0.7c0 0.3 0.1 0.4 0.3 0.5 0.3 0.1 0.6 0.1 0.9 0.1 0.7 0 1.1-0.3 1.1-0.9 0-0.7-0.6-0.8-1.4-1 -1-0.3-2.2-0.6-2.2-2.2 0-1.5 1.2-2.2 2.7-2.2 1 0 1.8 0.3 2.3 0.6v1.7l-1.3 0.1V77c0-0.3-0.1-0.4-0.3-0.5C76.9 76.4 76.7 76.4 76.3 76.4z"/>
              </g>
              <g id="paw-icon" transform="translate(55.181648, 46.853283) rotate(13.000000) translate(-55.181648, -46.853283) translate(38.681648, 29.353283)" sketch:type="MSShapeGroup">
                <path id="Fill-1_1_" class="st4" d="M8.4 31.4c-1-4.4 4.3-12.7 8.6-13.7 3.6-0.8 12.7 3.9 13.8 8.6 1.4 6.2-5 3-10.8 4.3C14.2 31.9 9.8 37.5 8.4 31.4"/>
                <path id="Fill-2" class="st3" d="M13.4 7.7c1.6 3.1 1.2 6.5-0.9 7.5 -2.1 1.1-5.1-0.6-6.6-3.7C4.3 8.5 4.7 5.1 6.8 4 8.9 3 11.8 4.6 13.4 7.7"/>
                <path id="Fill-3" class="st3" d="M8.4 23.4c-1.7 1.3-4.7 0.4-6.7-2.1s-2.3-5.6-0.6-6.9C2.8 13 5.8 14 7.8 16.5 9.8 18.9 10.1 22 8.4 23.4z"/>
                <path id="Fill-4" class="st3" d="M15.9 7.2c0 3.5 1.8 6.3 4.2 6.4 2.3 0 4.3-2.8 4.3-6.2 0.1-3.5-1.8-6.3-4.2-6.4C17.9 0.9 15.9 3.7 15.9 7.2"/>
                <path id="Fill-5" class="st3" d="M27.3 19c2.1 0.5 4.4-1.7 5.1-4.8s-0.4-6-2.5-6.5c-2.1-0.5-4.4 1.7-5.1 4.8C24 15.7 25.2 18.6 27.3 19z"/>
              </g>
            </g>
          </g>
        </g>
      </g>
    </g>
  </g>
</svg>
