<?xml version="1.0" encoding="UTF-8"?><svg width="33" height="33" xmlns="http://www.w3.org/2000/svg"><g fill="none" fill-rule="evenodd"><g transform="translate(-703 -1430)" fill="#555555"><g transform="translate(203 1059)"><g transform="translate(367 371)"><path d="M141.315 29.932c-1.016-4.332 4.27-12.514 8.563-13.49 3.579-.814 12.632 3.86 13.703 8.43 1.42 6.053-4.952 2.955-10.726 4.267-5.757 1.308-10.12 6.847-11.54.793zm4.988-23.237c1.57 3.055 1.152 6.372-.934 7.409-2.085 1.037-5.047-.598-6.614-3.653-1.57-3.055-1.15-6.374.934-7.41 2.085-1.038 5.047.598 6.614 3.654zm-4.988 15.385c-1.67 1.318-4.64.403-6.632-2.046-1.993-2.449-2.253-5.5-.583-6.818 1.672-1.318 4.643-.402 6.634 2.047 1.993 2.449 2.253 5.501.581 6.817zM148.75 6.14c.048-3.423 1.981-6.172 4.318-6.139 2.336.032 4.19 2.834 4.139 6.257-.048 3.422-1.982 6.17-4.319 6.138-2.334-.033-4.188-2.833-4.138-6.256zm11.334 11.676c-2.087-.462-3.212-3.318-2.513-6.379.7-3.06 2.961-5.165 5.052-4.703 2.086.464 3.213 3.32 2.512 6.38-.7 3.062-2.962 5.165-5.051 4.702z"/></g></g></g></g></svg>