<?xml version="1.0" encoding="utf-8"?>
<!-- Generator: Adobe Illustrator 20.1.0, SVG Export Plug-In . SVG Version: 6.00 Build 0)  -->
<svg version="1.1" id="Layer_1" xmlns="http://www.w3.org/2000/svg" xmlns:xlink="http://www.w3.org/1999/xlink" x="0px" y="0px"
	 width="44px" height="43px" viewBox="0 0 44 43" style="enable-background:new 0 0 44 43;" xml:space="preserve">
<style type="text/css">
	.st0{fill:none;stroke:#313133;stroke-width:2;stroke-linecap:round;stroke-linejoin:round;stroke-dasharray:1,3;}
	.st1{fill:#313133;}
</style>
<title>animals-icon</title>
<desc>Created with Sketch.</desc>
<g id="Page-1">
	<g id="Dashboard---Credits" transform="translate(-460.000000, -809.000000)">
		<g id="animals-icon" transform="translate(461.000000, 810.000000)">
			<path id="Stroke-3" class="st0" d="M39.6,29.4c1.3-2.7,2-5.7,2-8.9C41.6,9.2,32.5,0,21.1,0S0.6,9.2,0.6,20.5
				c0,8.8,5.6,16.3,13.5,19.3c2.2,0.9,4.6,1.2,7,1.2C29.2,41,36.3,36.3,39.6,29.4L39.6,29.4z"/>
			<g id="Group-3" transform="translate(9.000000, 9.000000)">
				<path id="Fill-5" class="st1" d="M3.9,19.6c0-3.2,5-8.1,8.3-8c2.7,0,8.4,4.8,8.5,8.2c0,4.5-4,1.2-8.4,1.2
					C7.9,21,3.9,24.2,3.9,19.6"/>
				<path id="Fill-7" class="st1" d="M11.2,4.2c0.7,2.4-0.3,4.7-1.9,5C7.7,9.5,5.8,8,5.1,5.6c-0.6-2.4,0.3-4.7,2-5
					C8.7,0.1,10.6,1.8,11.2,4.2"/>
				<path id="Fill-9" class="st1" d="M5.2,14.2c-1.4,0.6-3.4-0.5-4.4-2.6S0,7.3,1.5,6.8c1.4-0.6,3.4,0.5,4.4,2.6
					C6.9,11.3,6.6,13.5,5.2,14.2"/>
				<path id="Fill-11" class="st1" d="M13,4.2c-0.6,2.4,0.3,4.7,1.9,5.1c1.7,0.4,3.5-1.3,4.1-3.6c0.6-2.4-0.3-4.7-1.9-5.1
					C15.5,0.1,13.7,1.8,13,4.2"/>
				<path id="Fill-13" class="st1" d="M19.3,14.3c1.4,0.6,3.4-0.4,4.4-2.5c1-2,0.7-4.3-0.8-4.9c-1.4-0.6-3.4,0.4-4.4,2.5
					C17.5,11.4,17.9,13.6,19.3,14.3"/>
			</g>
		</g>
	</g>
</g>
</svg>
