<?xml version="1.0" encoding="utf-8"?>
<!-- Generator: Adobe Illustrator 18.0.0, SVG Export Plug-In . SVG Version: 6.00 Build 0)  -->
<!DOCTYPE svg PUBLIC "-//W3C//DTD SVG 1.1//EN" "http://www.w3.org/Graphics/SVG/1.1/DTD/svg11.dtd">
<svg version="1.1" id="Layer_1" xmlns:sketch="http://www.bohemiancoding.com/sketch/ns"
	 xmlns="http://www.w3.org/2000/svg" xmlns:xlink="http://www.w3.org/1999/xlink" x="0px" y="0px" width="157px" height="158px"
	 viewBox="0 0 157 158" style="enable-background:new 0 0 157 158;" xml:space="preserve">
<style type="text/css">
	.st0{fill:#FFFFFF;}
	.st1{fill:none;stroke:#313133;stroke-width:2;stroke-linecap:round;stroke-linejoin:round;stroke-dasharray:1,4;}
	.st2{fill:#313133;}
</style>
<title>Birds</title>
<desc>Created with Sketch.</desc>
<g id="landing-page" sketch:type="MSPage">
	<g id="Desktop---Landing-Page-Animals" transform="translate(-549.000000, -663.000000)" sketch:type="MSArtboardGroup">
		<g id="Pets" transform="translate(-31.000000, 533.000000)" sketch:type="MSLayerGroup">
			<g id="Birds" transform="translate(580.000000, 130.000000)" sketch:type="MSShapeGroup">
				<path id="Fill-1-Copy" class="st0" d="M78.5,0.2C35.2,0.2,0,35.4,0,78.7c0,43.3,35.2,78.5,78.5,78.5c43.3,0,78.5-35.2,78.5-78.5
					C157,35.4,121.8,0.2,78.5,0.2z"/>
				<path id="Stroke-2" class="st1" d="M142.2,109.6c4.5-9.3,7-19.7,7-30.8c0-39-31.7-70.7-70.7-70.7S7.8,39.8,7.8,78.8
					c0,30.4,19.3,56.4,46.3,66.4c7.6,2.8,15.8,4.3,24.4,4.3C106.5,149.5,130.7,133.2,142.2,109.6L142.2,109.6z"/>
				<g id="Bird" transform="translate(47.000000, 47.000000)">
					<path id="Shape" class="st2" d="M36.6,28.3c13.4,2,20.6-8.1,22.3-11.2c0.1-0.1,0.1-0.3,0-0.4c-0.1-0.1-0.3-0.1-0.4-0.1
						c-1.9,0.4-4,0-4,0c5.4-4.1,6.2-12.1,6.2-15.6c0-0.3-0.1-0.7-0.4-0.8s-0.7-0.1-0.9,0c-4.8,2.7-15.4,5.2-29,10.7
						c-6.6,2.7-9.5,7.1-10.7,10.9c-1.9,0.3-3.7-1.2-5.2-2c-1.1-0.7-2.3-1.6-3.6-1.9c-4.4-0.8-7.4,0.9-10.7,5.6C0,23.7,0,24,0,24.1
						c0.1,0.3,0.3,0.4,0.5,0.4c10.6,2.1,10.3,6.5,13,10.1c9.8,11.2,32.2,10,43.6,4.1c0.3-0.1,0.4-0.5,0.4-0.8s-0.3-0.5-0.7-0.5
						C49.2,36.5,42,34.8,36.6,28.3L36.6,28.3z M7.8,21.2c0,0.5-0.5,0.9-1.1,0.8c-0.5,0-0.9-0.5-0.8-1.1C6,20.4,6.5,20,7,20.1
						S8,20.7,7.8,21.2L7.8,21.2z"/>
				</g>
				<path class="st2" d="M62.4,107.7v1.2l0.8,0v6.5c0,0.3-0.2,0.4-0.4,0.4l-0.5,0v1.1h3.9c2.3,0,3.6-1,3.6-2.8c0-1.2-0.7-2-1.8-2.2
					c0.8-0.4,1.3-1,1.3-2c0-1.9-1.4-2.3-3-2.3H62.4z M64.9,112.8h1.4c1.1,0,1.8,0.5,1.8,1.4c0,0.9-0.4,1.5-1.8,1.5h-1.3V112.8z
					 M64.9,109H66c0.9,0,1.6,0.2,1.6,1.2c0,0.7-0.5,1.3-1.7,1.3h-1V109z M73.3,110h-2.5v1.2l0.5,0c0.3,0,0.3,0.1,0.3,0.4v3.9
					c0,0.3-0.2,0.4-0.4,0.4l-0.5,0v1.1h3.3v-1.1l-0.8,0V110z M71.2,108c0,0.6,0.4,1,1.1,1c0.6,0,1.1-0.4,1.1-1s-0.4-1.1-1.1-1.1
					C71.6,107,71.2,107.4,71.2,108L71.2,108z M75.8,115.4c0,0.3-0.1,0.4-0.4,0.5l-0.5,0v1.1h3.8v-1.1l-1.2-0.1v-3.2
					c0-0.8,0.5-1.4,1.3-1.4c0.2,0,0.3,0,0.4,0.1c0.1,0.1,0.1,0.2,0.1,0.3v0.6l1.3-0.1v-2.1c-0.5-0.2-0.9-0.3-1.3-0.3
					c-0.9,0-1.7,0.6-2,1.3V110h-2.4v1.1l0.6,0c0.3,0,0.3,0.1,0.3,0.4V115.4z M84.9,109.7c-2.2,0-3.4,1.6-3.4,4
					c0,1.8,0.6,3.4,2.8,3.4c0.8,0,1.5-0.3,1.9-1l0,0v0.8h2.3v-1.1l-0.5,0c-0.2,0-0.3-0.1-0.3-0.3V107h-2.6v1.1l0.6,0
					c0.2,0,0.4,0.1,0.4,0.3v1.4C85.7,109.8,85.4,109.7,84.9,109.7L84.9,109.7z M86,114.8c0,0.6-0.5,1.1-1.3,1.1
					c-1.2,0-1.5-1.1-1.5-2.4c0-1.4,0.4-2.6,1.8-2.6c0.4,0,0.8,0.1,1.1,0.2V114.8z M93,111c0.3,0.1,0.3,0.2,0.3,0.5v0.6l1.3-0.1v-1.7
					c-0.5-0.3-1.4-0.6-2.3-0.6c-1.5,0-2.7,0.8-2.7,2.2c0,1.6,1.1,1.9,2.2,2.2c0.8,0.2,1.4,0.3,1.4,1c0,0.6-0.4,0.9-1.1,0.9
					c-0.3,0-0.7,0-0.9-0.1c-0.3-0.1-0.3-0.2-0.3-0.5v-0.7l-1.3,0.1v1.9c0.6,0.3,1.7,0.4,2.6,0.4c1.5,0,2.7-0.8,2.7-2.2
					c0-1.5-1.2-1.9-2.3-2.2c-0.7-0.2-1.3-0.4-1.3-1c0-0.6,0.4-0.8,1-0.8C92.5,110.9,92.7,110.9,93,111L93,111z"/>
			</g>
		</g>
	</g>
</g>
</svg>
