<?xml version="1.0" encoding="utf-8"?>
<!-- Generator: Adobe Illustrator 19.2.0, SVG Export Plug-In . SVG Version: 6.00 Build 0)  -->
<svg version="1.1" id="Layer_1" xmlns:sketch="http://www.bohemiancoding.com/sketch/ns"
	 xmlns="http://www.w3.org/2000/svg" xmlns:xlink="http://www.w3.org/1999/xlink" x="0px" y="0px" width="120px" height="41px"
	 viewBox="0 0 120 41" style="enable-background:new 0 0 120 41;" xml:space="preserve">
<style type="text/css">
	.st0{fill:#4A4A4A;}
	.st1{fill:#A61E3B;}
	.st2{fill:#0C3455;}
</style>
<title>Boatshop21.co.uk</title>
<desc>Created with Sketch.</desc>
<path id="Shape-Copy" class="st0" d="M115.7,4.2L108.4,0c-0.2-0.1-0.3-0.1-0.5,0c-0.2,0.1-0.3,0.2-0.3,0.4l0,1.9c0,0,0,0,0,0
	c-0.2,0-0.4,0.1-0.6,0.2c-0.8,0.2-1.5,0.5-2.4,0.9c-0.8,0.3-1.6,0.8-2.3,1.3c-0.5,0.4-1,0.8-1.5,1.3c-1.2,1.3-1.9,3-1.8,4.7
	c0,0.3,0,0.6,0.1,0.8c0,0.2,0.2,0.4,0.5,0.4c0,0,0,0,0,0c0.2,0,0.5-0.2,0.5-0.4c0.1-0.7,0.4-1.4,0.7-1.9c0.4-0.6,0.9-1.2,1.5-1.6
	c0.5-0.3,1.1-0.6,1.7-0.8c0.7-0.2,1.5-0.4,2.4-0.4c0.4,0,0.8,0,1.2,0c0,0,0,0,0.1,0l0,1.8c0,0.2,0.1,0.3,0.2,0.4
	c0.2,0.1,0.3,0.1,0.5,0l7.3-4.1c0.2-0.1,0.3-0.2,0.3-0.4C115.9,4.4,115.8,4.3,115.7,4.2L115.7,4.2z"/>
<g>
	<path id="XMLID_42_" class="st1" d="M120,33.7c0-8.1-6.5-14.7-14.4-14.7c-8,0-14.4,6.6-14.4,14.7c0,2.7,0.7,5.1,1.9,7.3h2.3v-2
		l4.3-5.6c0.6-0.8,1.1-1.6,1.3-2.2c0.3-0.6,0.4-1.2,0.4-1.7c0-0.7-0.1-1.2-0.4-1.6s-0.7-0.6-1.2-0.6c-0.6,0-1,0.3-1.3,0.8
		c-0.3,0.5-0.5,1.2-0.5,2h-3l0-0.1c0-1.4,0.4-2.6,1.3-3.6c0.9-1,2-1.5,3.5-1.5c1.5,0,2.6,0.4,3.5,1.3c0.8,0.8,1.2,2,1.2,3.4
		c0,1-0.2,1.9-0.7,2.7s-1.3,1.9-2.4,3.3l-2.1,3.1h5.7V41h6.5v-3.5h-5.7l-0.2-1.9l5.8-10.6h3.1v10h1.5v2.4h-1.5V41h3.5
		C119.3,38.8,120,36.3,120,33.7 M111.1,29.9l-2.8,5.1h3.1v-5.8l-0.1,0L111.1,29.9z"/>
	<path id="XMLID_1_" class="st2" d="M86.4,27.2h2.2c0.7,0,1.2,0.3,1.6,0.8c0.4,0.5,0.5,1.2,0.5,1.9c0,0.8-0.2,1.4-0.5,1.9
		c-0.4,0.5-0.9,0.7-1.6,0.7h-2.2V27.2z M88.6,35c1.6,0,2.8-0.5,3.7-1.4c0.9-0.9,1.4-2.2,1.4-3.7c0-1.5-0.5-2.7-1.4-3.7
		c-0.9-0.9-2.2-1.4-3.7-1.4h-5.2v16h3V35H88.6z M78.6,35c0,1.2-0.2,2.1-0.7,2.7c-0.5,0.6-1.1,0.9-2,0.9c-0.9,0-1.5-0.3-2-0.9
		c-0.4-0.6-0.7-1.5-0.7-2.7v-4.5c0-1.2,0.2-2,0.7-2.6c0.4-0.6,1.1-0.9,2-0.9c0.9,0,1.5,0.3,2,0.9c0.5,0.6,0.7,1.5,0.7,2.6V35z
		 M81.6,30.6c0-1.9-0.5-3.3-1.6-4.4c-1-1.1-2.4-1.6-4.2-1.6c-1.7,0-3.1,0.5-4.1,1.6c-1,1.1-1.5,2.5-1.5,4.4V35
		c0,1.9,0.5,3.3,1.6,4.4c1,1.1,2.4,1.6,4.1,1.6s3.1-0.5,4.2-1.6c1-1.1,1.6-2.5,1.6-4.4V30.6z M68.5,24.8h-3v6.9h-5.1v-6.9h-3v16h3
		v-6.7h5.1v6.7h3V24.8z M52.3,38.1c-0.3,0.4-0.8,0.5-1.5,0.5c-0.8,0-1.4-0.2-1.8-0.7c-0.4-0.4-0.6-1.2-0.6-2.2h-3l0,0.1
		c0,1.7,0.5,3,1.5,3.9c1.1,0.8,2.3,1.3,3.8,1.3c1.5,0,2.7-0.4,3.6-1.2c0.9-0.8,1.4-1.9,1.4-3.2c0-1.3-0.4-2.4-1.2-3.2
		c-0.8-0.8-1.9-1.4-3.4-1.9c-0.9-0.4-1.5-0.8-1.9-1.2C49,30,48.8,29.6,48.8,29c0-0.6,0.2-1.1,0.5-1.5c0.3-0.4,0.8-0.6,1.4-0.6
		c0.7,0,1.2,0.2,1.6,0.6c0.4,0.4,0.5,1.1,0.5,1.9h3l0-0.1c0-1.5-0.4-2.7-1.3-3.5c-0.9-0.9-2.2-1.3-3.7-1.3c-1.4,0-2.6,0.4-3.5,1.2
		c-0.9,0.8-1.4,1.9-1.4,3.2c0,1.3,0.4,2.3,1.2,3.1c0.8,0.7,2,1.4,3.6,2c0.8,0.4,1.4,0.7,1.7,1.1c0.3,0.4,0.5,0.9,0.5,1.5
		C52.8,37.2,52.7,37.7,52.3,38.1 M44.7,24.8H34.4v2.4H38v13.5h3V27.2h3.7V24.8z M29.5,29.8L29.5,29.8l1.4,5.1h-2.7L29.5,29.8z
		 M32.4,40.8h3.2l-4.4-16H28l-4.4,16h3.2l0.9-3.5h3.9L32.4,40.8z M20.1,35c0,1.2-0.2,2.1-0.7,2.7c-0.5,0.6-1.1,0.9-2,0.9
		c-0.9,0-1.5-0.3-2-0.9c-0.4-0.6-0.7-1.5-0.7-2.7v-4.5c0-1.2,0.2-2,0.7-2.6c0.4-0.6,1.1-0.9,2-0.9c0.9,0,1.5,0.3,2,0.9
		c0.5,0.6,0.7,1.5,0.7,2.6V35z M23.1,30.6c0-1.9-0.5-3.3-1.6-4.4c-1-1.1-2.4-1.6-4.2-1.6c-1.7,0-3.1,0.5-4.1,1.6
		c-1,1.1-1.5,2.5-1.5,4.4V35c0,1.9,0.5,3.3,1.6,4.4c1,1.1,2.4,1.6,4.1,1.6c1.7,0,3.1-0.5,4.2-1.6c1-1.1,1.6-2.5,1.6-4.4V30.6z
		 M3,27.2h1.5c0.7,0,1.3,0.2,1.6,0.5c0.4,0.4,0.5,0.9,0.5,1.7c0,0.7-0.2,1.2-0.5,1.6c-0.3,0.4-0.8,0.5-1.5,0.6H3V27.2z M5.2,33.7
		h0.1c0.7,0,1.1,0.2,1.4,0.7c0.3,0.4,0.5,1,0.5,1.8c0,0.7-0.2,1.3-0.5,1.7c-0.3,0.4-0.8,0.6-1.5,0.6H3v-4.7H5.2z M5.3,40.8
		c1.6,0,2.9-0.4,3.7-1.2c0.9-0.8,1.3-1.9,1.3-3.5c0-0.9-0.2-1.7-0.6-2.4c-0.4-0.7-1.1-1.1-2-1.3c0.7-0.3,1.1-0.7,1.5-1.3
		c0.3-0.6,0.5-1.3,0.5-2c0-1.4-0.5-2.5-1.4-3.3c-0.9-0.7-2.2-1.1-3.8-1.1H0v16H5.3z"/>
</g>
</svg>
