<svg xmlns="http://www.w3.org/2000/svg" version="1.1" x="0" y="0" width="22" height="21" viewBox="0.4 2.3 22 21" xml:space="preserve"><style type="text/css">
	.st0{fill:#A8DC28;}
</style><title>broken heart icon</title><desc>Created with Sketch.</desc><path class="st0" d="M8.1 15.1l2.8-10.7C9.7 3.1 8.5 2.3 6.4 2.3c-0.3 0-0.6 0-1 0.1 -2.2 0.2-4.6 2.2-5 6.1v1.3c0.3 3.6 2.9 8 10.4 13.5l2.1-10L8.1 15.1zM17.5 2.3c-0.4 0-0.7-0.1-1-0.1 -2 0-3.1 0.7-4.2 1.8l-0.6 7.1 5.1-1.7 -4.8 13.7c7.6-5.5 10.3-10 10.5-13.6V8.4C22.1 4.5 19.6 2.5 17.5 2.3z"/></svg>