<svg xmlns="http://www.w3.org/2000/svg" version="1.1" x="0" y="0" width="20" height="20" viewBox="-1407 461.9 20 20" xml:space="preserve"><style type="text/css">
	.st0{fill:#A8DC28;}
</style><title>Calendar</title><desc>Created with Sketch.</desc><g transform="translate(-1156.000000, -1623.000000)"><g transform="translate(452.000000, 627.000000)"><g transform="translate(0.000000, 491.000000)"><g transform="translate(0.000000, 30.000000)"><g transform="translate(5.000000, 454.000000)"><g transform="translate(699.000000, 16.000000)"><g transform="translate(0.507812, 5.664062)"><path class="st0" d="M-1402.4 466.3h0.3c0.4 0 0.7-0.3 0.7-0.7v-2.1 -0.8c0-0.4-0.3-0.7-0.7-0.7h-0.3c-0.4 0-0.7 0.3-0.7 0.7v0.8 2.1C-1403.1 466-1402.8 466.3-1402.4 466.3L-1402.4 466.3zM-1392.8 466.3h0.3c0.4 0 0.7-0.3 0.7-0.7v-2.2 -0.6c0-0.4-0.3-0.7-0.7-0.7h-0.3c-0.4 0-0.7 0.3-0.7 0.7v0.6 2.2C-1393.5 465.9-1393.2 466.3-1392.8 466.3L-1392.8 466.3zM-1389.2 463.5h-1.9v2.2c0 0.7-0.6 1.2-1.4 1.2h-0.3c-0.7 0-1.4-0.6-1.4-1.4v-2h-6.6v2.1c0 0.7-0.6 1.4-1.4 1.4h-0.3c-0.7 0-1.4-0.6-1.4-1.4v-2.1h-2.1c-0.7 0-1.2 0.5-1.2 1.2v14.6c0 0.7 0.5 1.2 1.2 1.2h16.5c0.7 0 1.2-0.5 1.2-1.2v-14.6C-1388 464-1388.6 463.5-1389.2 463.5L-1389.2 463.5zM-1389.2 479.4h-16.5l0-11.1h16.5L-1389.2 479.4C-1389.2 479.4-1389.2 479.4-1389.2 479.4L-1389.2 479.4zM-1396.9 472h2.2c0.1 0 0.2-0.1 0.2-0.2V470c0-0.1-0.1-0.2-0.2-0.2h-2.2c-0.1 0-0.2 0.1-0.2 0.2v1.9C-1397 471.9-1397 472-1396.9 472L-1396.9 472zM-1393.3 472h2.2c0.1 0 0.2-0.1 0.2-0.2V470c0-0.1-0.1-0.2-0.2-0.2h-2.2c-0.1 0-0.2 0.1-0.2 0.2v1.9C-1393.5 471.9-1393.4 472-1393.3 472L-1393.3 472zM-1404 475.1h2.2c0.1 0 0.2-0.1 0.2-0.2v-1.9c0-0.1-0.1-0.2-0.2-0.2h-2.2c-0.1 0-0.2 0.1-0.2 0.2v1.9C-1404.1 475-1404.1 475.1-1404 475.1L-1404 475.1zM-1400.4 475.1h2.2c0.1 0 0.2-0.1 0.2-0.2v-1.9c0-0.1-0.1-0.2-0.2-0.2h-2.2c-0.1 0-0.2 0.1-0.2 0.2v1.9C-1400.6 475-1400.5 475.1-1400.4 475.1L-1400.4 475.1zM-1396.9 475.1h2.2c0.1 0 0.2-0.1 0.2-0.2v-1.9c0-0.1-0.1-0.2-0.2-0.2h-2.2c-0.1 0-0.2 0.1-0.2 0.2v1.9C-1397 475-1397 475.1-1396.9 475.1L-1396.9 475.1zM-1393.3 475.1h2.2c0.1 0 0.2-0.1 0.2-0.2v-1.9c0-0.1-0.1-0.2-0.2-0.2h-2.2c-0.1 0-0.2 0.1-0.2 0.2v1.9C-1393.5 475-1393.4 475.1-1393.3 475.1L-1393.3 475.1zM-1401.8 476h-2.2c-0.1 0-0.2 0.1-0.2 0.2v1.9c0 0.1 0.1 0.2 0.2 0.2h2.2c0.1 0 0.2-0.1 0.2-0.2v-1.9C-1401.7 476.1-1401.7 476-1401.8 476L-1401.8 476zM-1398.3 476h-2.2c-0.1 0-0.2 0.1-0.2 0.2v1.9c0 0.1 0.1 0.2 0.2 0.2h2.2c0.1 0 0.2-0.1 0.2-0.2v-1.9C-1398.1 476.1-1398.2 476-1398.3 476L-1398.3 476zM-1394.7 476h-2.2c-0.1 0-0.2 0.1-0.2 0.2v1.9c0 0.1 0.1 0.2 0.2 0.2h2.2c0.1 0 0.2-0.1 0.2-0.2v-1.9C-1394.5 476.1-1394.6 476-1394.7 476L-1394.7 476zM-1391.2 476h-2.2c-0.1 0-0.2 0.1-0.2 0.2v1.9c0 0.1 0.1 0.2 0.2 0.2h2.2c0.1 0 0.2-0.1 0.2-0.2v-1.9C-1391 476.1-1391.1 476-1391.2 476L-1391.2 476z"/></g></g></g></g></g></g></g></svg>