<svg xmlns="http://www.w3.org/2000/svg" version="1.1" x="0" y="0" width="20" height="16" viewBox="-1407 463.9 20 16" xml:space="preserve"><style type="text/css">
	.st0{fill:#A8A8A8;}
</style><title>photo icon</title><desc>Created with Sketch.</desc><g transform="translate(-45.000000, -1321.000000)"><g transform="translate(19.000000, 21.000000)"><g transform="translate(5.000000, 1130.000000)"><g transform="translate(21.000000, 21.000000)"><g transform="translate(0.000000, 149.000000)"><path class="st0" d="M-1392 473.7c-0.2 1.5-1.5 2.8-3.1 3 -2.5 0.4-4.7-1.7-4.3-4.1 0.2-1.5 1.5-2.8 3.1-3C-1393.8 469.2-1391.7 471.3-1392 473.7L-1392 473.7zM-1387 467.8v10.7c0 0.8-0.7 1.5-1.5 1.5h-17c-0.8 0-1.5-0.7-1.5-1.5v-10.7c0-0.8 0.7-1.5 1.5-1.5h0.1V466c0-0.3 0.2-0.5 0.5-0.5h2.3c0.3 0 0.5 0.2 0.5 0.5v0.3h1.3l1-2c0.1-0.2 0.4-0.4 0.6-0.4h6.6c0.3 0 0.5 0.1 0.6 0.4l1 2h2.3C-1387.7 466.3-1387 467-1387 467.8L-1387 467.8zM-1402.6 467.9c0-0.6-0.5-1-1-1 -0.6 0-1 0.4-1 1 0 0.6 0.5 1 1 1C-1403.1 468.9-1402.6 468.5-1402.6 467.9L-1402.6 467.9zM-1397 468.1c-2 0.4-3.6 2-4 3.9 -0.9 3.8 2.6 7.1 6.5 6.3 2-0.4 3.6-2 4-3.9C-1389.6 470.5-1393 467.2-1397 468.1L-1397 468.1z"/></g></g></g></g></g></svg>