<svg xmlns:sketch="http://www.bohemiancoding.com/sketch/ns" xmlns="http://www.w3.org/2000/svg" xmlns:xlink="http://www.w3.org/1999/xlink" version="1.1" id="Layer_1" x="0" y="0" width="139" height="81" viewBox="-1348 431.9 139 81" xml:space="preserve" enable-background="new -1348 431.9 139 81">
  <style type="text/css">
    
	.st0{fill:#FEFEFE;}
	.st1{fill:#FFFFFF;}

  </style>
  <title>
    WP-camping
  </title>
  <desc>
    Created with Sketch.
  </desc>
  <g id="Homepage" sketch:type="MSPage">
    <g id="Home---Big-desktop" transform="translate(-792.000000, -1981.000000)" sketch:type="MSArtboardGroup">
      <g id="Group" transform="translate(-15.000000, -251.000000)" sketch:type="MSLayerGroup">
        <g id="Collections" transform="translate(476.000000, 2035.000000)" sketch:type="MSShapeGroup">
          <g id="collection-2" transform="translate(276.000000, 95.000000)">
            <g id="WP-camping" transform="translate(54.609644, 101.500000)">
              <path id="Fill-1" class="st0" d="M-1329.3 439.5c0-3.1-2.4-6.8-7.9-6.8 -6 0-8.1 3.7-8.1 6.8v17.4c0 3.1 2.1 6.8 8.1 6.8 5.4 0 7.9-3.7 7.9-6.8v-2.3h-5.4v2.3c0 0.9-0.9 2.5-2.4 2.5 -1.9 0-2.7-1.6-2.7-2.5v-17.3c0-0.9 0.8-2.5 2.7-2.5 1.5 0 2.4 1.6 2.4 2.5v2.3h5.4V439.5zM-1346.1 456.9v-17.4c0-0.7 0.1-1.5 0.4-2.2 -1.1 1.2-1.6 2.8-1.6 4.2v17.3c0 3.1 2.1 6.8 8.1 6.8 2.4 0 4.2-0.7 5.4-1.8 -0.9 0.3-2.1 0.6-3.4 0.6C-1343.3 464.5-1346.1 460.7-1346.1 456.9L-1346.1 456.9zM-1336.7 458.5c0.8-0.3 1.2-1.2 1.2-1.6v-1.5l-1.2 1.2V458.5zM-1330.1 442.7h-5.4v-3.1c0-0.5-0.6-1.7-1.6-1.7s-1.6 0.7-1.8 1.2c1.5 0.1 2.2 1.6 2.2 2.5v2.3h5.4L-1330.1 442.7zM-1314.6 463.2h5.4l-6.2-30.1h-5.4l-6.2 30.1h5.1l1-7h5.2L-1314.6 463.2zM-1320 451.9l1.7-10.8h0.1l1.6 10.8H-1320zM-1328 464.1l6.1-29.9 -1 0.9 -6.1 30.1h5l1.2-1.2H-1328zM-1315.4 464.1l-1-7h-3.9l-0.2 1.2h2.7l1 7h5.4l1.2-1.2H-1315.4zM-1319.1 450.9l0 0.3h1.5l-0.8-5.2L-1319.1 450.9zM-1290.6 433.1l-3.4 18h-0.1l-3.4-18h-7.3v30.1h5.4v-18.6h0.1l3.4 18.6h3.7l3.5-18.6v18.6h5.4v-30.1H-1290.6zM-1305.6 435.2h-1.2v30.1h5.4v-1.2h-4.1V435.2zM-1291.8 435.2h-0.8l-1.9 9.9 0.4 2.2L-1291.8 435.2zM-1289.5 453l-1.2 6.6v5.7h5.4v-1.2h-4.2V453zM-1298.7 453v8.6l0.7 3.7h3.8l0.2-1.2h-2.6L-1298.7 453zM-1269.6 433.1h-8.4v30.1h5.4v-12.1c0.3 0 2.5 0 2.9 0 4 0 7.7-3.2 7.7-9.4C-1262 436.9-1264.4 433.1-1269.6 433.1L-1269.6 433.1zM-1271.5 446.5h-1.1v-9.1h2.8c2.1 0 2.7 1.9 2.7 4.3C-1267.1 446.2-1268.1 446.5-1271.5 446.5L-1271.5 446.5zM-1278.7 435.2h-1.2v30.1h5.4v-1.2h-4.2V435.2zM-1269.7 438.2h-2.1l0 1.2c2.1 0 2.7 1.9 2.7 4.3 0 0.7 0 1.3-0.1 1.8 1-0.3 1.3-1.2 1.3-3.8C-1267.9 438.7-1268.8 438.2-1269.7 438.2L-1269.7 438.2zM-1271.8 452v1.2c1.7 0 3.3-0.5 4.7-1.6C-1268.7 452-1268.9 452-1271.8 452L-1271.8 452zM-1257.4 463.2h5.4v-30.1h-5.4V463.2zM-1258.2 435.2h-1.2v30.1h5.4v-1.2h-4.2V435.2zM-1235.9 433.1v16.7h-0.1l-5-16.7h-5.7v30.1h5.4V446h0.1l5.3 17.2h5.4v-30.1H-1235.9zM-1236.7 435.2h-1.2v5.6l1.2 4.1V435.2zM-1247.4 435.2h-1.2v30.1h5.4v-1.2h-4.2V435.2zM-1240.4 451.1v5.8l2.6 8.4h5.4v-1.2h-4L-1240.4 451.1zM-1209.3 439.5c0-3.1-2.4-6.8-7.8-6.8 -6 0-8.2 3.7-8.2 6.8v17.4c0 3.1 2.2 6.8 8.2 6.8 5.4 0 7.8-3.7 7.8-7.8v-9.3h-7.8v4.3h3v4.6c0 2.5-1 3.9-3 3.9 -1.9 0-2.7-1.6-2.7-2.5v-17.3c0-0.9 0.9-2.5 2.7-2.5 1.5 0 2.4 1.6 2.4 2.5v2.3h5.4V439.5zM-1211.3 443.9v-1.2h-4.2v-3.1c0-0.5-0.6-1.7-1.6-1.7 -1.1 0-1.7 0.7-1.8 1.2 1.4 0.1 2.3 1.6 2.3 2.5v2.3H-1211.3zM-1226.1 456.9v-17.4c0-0.7 0.1-1.5 0.3-2.2 -1.1 1.2-1.5 2.8-1.5 4.2v17.3c0 3.1 2.1 6.8 8.1 6.8 2.2 0 4-0.7 5.2-1.7 -0.9 0.3-2 0.5-3.2 0.5C-1223.3 464.5-1226.1 460.7-1226.1 456.9L-1226.1 456.9zM-1216.2 458.4c0.9-0.4 1.3-1.3 1.3-2.9v-3.7h-3v-3.1h-1.2v4.3h3v4.6C-1216.1 457.8-1216.2 458.1-1216.2 458.4L-1216.2 458.4z"/>
              <path id="Imported-Layers-5" class="st1" d="M-1296.6 512l-1-2 -0.8 0.9 1.8 1.7c0.4-0.4 2.9-3.3 2.9-3.3l-0.5 3.3h15.6v-25.2c0 0 2.6 11.3 6.3 18.8 0.5 1 2.6 1.2 3.5 1.1 0 0-1.3 3.5-0.8 4.1 0.9 1 2.4 1.1 3.4 1.2h3.8l-0.8-3.5c0 0 2.8 3.7 3 3.5 0.3-0.2 1.9-1.7 1.9-1.7l-0.9-1 -1.1 2 -18.1-28.4L-1296.6 512z"/>
            </g>
          </g>
        </g>
      </g>
    </g>
  </g>
</svg>
