<svg xmlns:sketch="http://www.bohemiancoding.com/sketch/ns" xmlns="http://www.w3.org/2000/svg" xmlns:xlink="http://www.w3.org/1999/xlink" version="1.1" id="Layer_1" x="0" y="0" width="157" height="158" viewBox="0 0 157 158" xml:space="preserve" enable-background="new 0 0 157 158">
  <style type="text/css">
    
	.st0{fill:#FFFFFF;}
	.st1{fill:none;stroke:#313133;stroke-width:2;stroke-linecap:round;stroke-linejoin:round;stroke-dasharray:1,4;}
	.st2{fill:#313133;}

  </style>
  <title>
    cats
  </title>
  <desc>
    Created with Sketch.
  </desc>
  <g id="landing-page" sketch:type="MSPage">
    <g id="Desktop---Landing-Page-Animals" transform="translate(-366.000000, -663.000000)" sketch:type="MSArtboardGroup">
      <g id="Pets" transform="translate(-31.000000, 533.000000)" sketch:type="MSLayerGroup">
        <g id="cats" transform="translate(397.000000, 130.000000)" sketch:type="MSShapeGroup">
          <path id="Fill-1-Copy" class="st0" d="M78.5 0.2C35.2 0.2 0 35.4 0 78.7c0 43.3 35.2 78.5 78.5 78.5 43.3 0 78.5-35.2 78.5-78.5C157 35.4 121.8 0.2 78.5 0.2z"/>
          <path id="Stroke-2" class="st1" d="M142.2 109.6c4.5-9.3 7-19.7 7-30.8 0-39-31.7-70.7-70.7-70.7S7.8 39.8 7.8 78.8c0 30.4 19.3 56.4 46.3 66.4 7.6 2.8 15.8 4.3 24.4 4.3C106.5 149.5 130.7 133.2 142.2 109.6L142.2 109.6z"/>
          <g id="cat" transform="translate(60.000000, 32.000000)">
            <g id="Group">
              <path id="Shape" class="st2" d="M32.8 9.5c0 0 1.6-2 0.6-2.8 -0.1-1.4-0.3-2.1-0.8-2.4 -0.1-0.6-0.3-0.8-0.8-0.9 -0.5-0.1-1.3 0.3-2.1-0.2 -0.9-0.4-3.7-1.8-6.6-0.5l-1.5-2.6V4c0 0-0.9 0.7-1.1 0.7 -0.2 0-1.5-1.2-2.3-1.1 -0.8 0 0.1 4.5 0.2 5.2 0.2 0.6 0.6 9-2.8 10.1 -3.5 1.1-12.2-2.3-14.8 9.8 -2.3 11.5 0.4 14.8 0.6 15.7 -0.4 0.8-1.7 5.6 3.7 13.4 4.2 6 10.4 8.9 19.2 6 6.1-2 5.7-10.2 1.3-10.6 -4.4 0.3-2.7 5-1.9 5.3 0.7 0.3-11.7 3.9-16.5-7.9 11.1 1.6 17.1-4.1 17.3-5 0.9 1.9 2.6 1.4 2.9 0.8 0.6 0.2 1.7-0.2 1.5-1.3 0.7-0.5 0.9-1.8-1.1-2.5 -1.5-4.1 0.4-6.3 1.8-7.9 1.4-1.6 4.3-7.4 2.6-16.5C30.8 10.1 32.8 9.5 32.8 9.5L32.8 9.5z"/>
              <ellipse id="Oval" class="st0" cx="28.2" cy="4.3" rx="0.6" ry="0.6"/>
            </g>
          </g>
          <path id="Cats-_x26_-Kittens" class="st2" d="M40.4 109c0.3 0.1 0.3 0.2 0.3 0.5v1.1l1.4-0.1v-2.4c-0.8-0.4-1.8-0.6-2.6-0.6 -2.2 0-4.4 1.2-4.4 4.9 0 3.2 1.6 4.8 4.4 4.8 0.9 0 2-0.2 2.8-0.6v-2.4l-1.4-0.1v1.1c0 0.3 0 0.4-0.3 0.5 -0.3 0.1-0.6 0.1-1 0.1 -1.9 0-2.7-1.3-2.7-3.5 0-2.1 0.9-3.4 2.6-3.4C39.7 108.9 40.1 108.9 40.4 109L40.4 109zM49.7 110.2c-1-0.4-2-0.5-2.5-0.5 -2.5 0-3.7 1.6-3.7 4 0 2 0.8 3.4 2.8 3.4 0.8 0 1.5-0.4 1.9-1l0 0v0.8h2.2v-1.1l-0.4 0c-0.3 0-0.3-0.1-0.3-0.4V110.2zM48 114.8c0 0.6-0.5 1.2-1.4 1.2 -1.2 0-1.5-1.1-1.5-2.3 0-1.5 0.4-2.8 1.8-2.8 0.4 0 0.9 0.1 1.1 0.2V114.8zM52.6 108.5c-0.3 0.8-0.6 1.6-1.6 1.6l-0.1 1h1v3.7c0 1 0 2.3 2.2 2.3 0.7 0 1.4-0.2 1.8-0.5l-0.4-1.1c-0.2 0.1-0.6 0.3-1 0.3 -0.6 0-0.9-0.3-0.9-1.1v-3.7h1.7l0.1-1.2h-1.9v-1.5H52.6zM60 111c0.3 0.1 0.3 0.2 0.3 0.5v0.6l1.3-0.1v-1.7c-0.5-0.3-1.4-0.6-2.3-0.6 -1.5 0-2.7 0.8-2.7 2.2 0 1.6 1.1 1.9 2.2 2.2 0.8 0.2 1.4 0.3 1.4 1 0 0.6-0.4 0.9-1.1 0.9 -0.3 0-0.7 0-0.9-0.1 -0.3-0.1-0.3-0.2-0.3-0.5v-0.7l-1.3 0.1v1.9c0.6 0.3 1.7 0.4 2.6 0.4 1.5 0 2.7-0.8 2.7-2.2 0-1.5-1.2-1.9-2.3-2.2 -0.7-0.2-1.3-0.4-1.3-1 0-0.6 0.4-0.8 1.1-0.8C59.5 110.9 59.7 110.9 60 111L60 111zM71.6 113.9c-1.4-1.2-3-2.8-3-4 0-0.7 0.4-1.1 1.1-1.1 0.3 0 0.5 0 0.7 0.1 0.3 0.1 0.3 0.2 0.3 0.5v0.9l1.4-0.1v-2.1c-0.8-0.4-1.6-0.6-2.5-0.6 -1.7 0-2.7 1-2.7 2.4 0 0.5 0.1 1 0.4 1.5 -1 0.6-1.7 1.5-1.7 2.9 0 1.4 0.9 2.8 3.3 2.8 1.2 0 2.2-0.4 2.9-1 0.7 0.5 1.3 1 1.8 1.3l0.9-1.2c-0.4-0.3-1.1-0.8-1.8-1.3 0.4-0.8 0.6-1.6 0.6-2.5l0.8 0v-1.1h-3v1.1l0.4 0c0.2 0 0.3 0.1 0.3 0.2C71.9 113.1 71.8 113.5 71.6 113.9L71.6 113.9zM70.7 115.2c-0.4 0.4-0.9 0.7-1.7 0.7 -1.1 0-1.7-0.7-1.7-1.6 0-0.7 0.3-1.3 0.9-1.6C68.8 113.5 69.8 114.4 70.7 115.2L70.7 115.2zM79.1 115.4c0 0.3-0.1 0.4-0.4 0.5l-0.5 0v1.1h3.4v-1.2l-0.8 0v-1.3L82 113l1.4 2.4c0.2 0.3 0.1 0.4-0.2 0.4l-0.4 0v1.1h3.6v-1.2l-0.7 0 -2.5-4.1 2-2.4c0.2-0.2 0.3-0.4 0.6-0.4l0.5 0v-1.1h-3.3v1.2l0.8 0 -2.9 3.5v-3.1c0-0.3 0.2-0.4 0.4-0.4l0.5 0v-1.1h-3.4v1.2l0.8 0V115.4zM89.5 110H87v1.2l0.5 0c0.3 0 0.3 0.1 0.3 0.4v3.9c0 0.3-0.2 0.4-0.4 0.4l-0.5 0v1.1h3.3v-1.1l-0.8 0V110zM87.4 108c0 0.6 0.4 1 1.1 1 0.6 0 1.1-0.4 1.1-1s-0.4-1.1-1.1-1.1C87.8 107 87.4 107.4 87.4 108L87.4 108zM92.6 108.5c-0.3 0.8-0.6 1.6-1.6 1.6l-0.1 1h1v3.7c0 1 0 2.3 2.2 2.3 0.7 0 1.4-0.2 1.8-0.5l-0.4-1.1c-0.2 0.1-0.6 0.3-1 0.3 -0.6 0-0.9-0.3-0.9-1.1v-3.7h1.7l0.1-1.2h-1.9v-1.5H92.6zM97.8 108.5c-0.3 0.8-0.6 1.6-1.6 1.6l-0.1 1h1v3.7c0 1 0 2.3 2.2 2.3 0.7 0 1.4-0.2 1.8-0.5l-0.4-1.1c-0.2 0.1-0.6 0.3-1 0.3 -0.6 0-0.9-0.3-0.9-1.1v-3.7h1.7l0.1-1.2h-1.9v-1.5H97.8zM105 109.7c-2.3 0-3.5 1.8-3.5 3.9 0 2.1 0.9 3.5 3.3 3.5 1.3 0 2.2-0.6 2.5-0.8l-0.5-1.1c-0.3 0.2-0.9 0.6-1.8 0.6 -1.2 0-1.7-0.7-1.7-1.7 1.7 0 4-0.4 4-2.5C107.3 110.4 106.4 109.7 105 109.7L105 109.7zM105.8 111.7c0 1.1-1.5 1.3-2.5 1.3 0-1 0.5-2.1 1.7-2.1C105.4 110.9 105.8 111.2 105.8 111.7L105.8 111.7zM108.2 111.1l0.6 0c0.3 0 0.3 0.1 0.3 0.4v3.9c0 0.3-0.1 0.4-0.4 0.5l-0.5 0v1.1h3.3v-1.1l-0.8 0v-3.4c0-0.7 0.5-1.4 1.4-1.4 1 0 1.1 0.6 1.1 1.5v2.9c0 0.3-0.1 0.4-0.4 0.5l-0.5 0v1.1h3.3v-1.1l-0.8 0v-3.7c0-1.7-0.8-2.4-2.2-2.4 -0.9 0-1.8 0.4-2.3 1.1V110h-2.4V111.1zM120.3 111c0.3 0.1 0.3 0.2 0.3 0.5v0.6l1.3-0.1v-1.7c-0.5-0.3-1.4-0.6-2.3-0.6 -1.5 0-2.7 0.8-2.7 2.2 0 1.6 1.1 1.9 2.2 2.2 0.8 0.2 1.4 0.3 1.4 1 0 0.6-0.4 0.9-1.1 0.9 -0.3 0-0.7 0-0.9-0.1 -0.3-0.1-0.3-0.2-0.3-0.5v-0.7l-1.3 0.1v1.9c0.6 0.3 1.7 0.4 2.6 0.4 1.5 0 2.7-0.8 2.7-2.2 0-1.5-1.2-1.9-2.3-2.2 -0.7-0.2-1.3-0.4-1.3-1 0-0.6 0.4-0.8 1-0.8C119.9 110.9 120.1 110.9 120.3 111L120.3 111z"/>
        </g>
      </g>
    </g>
  </g>
</svg>
