<?xml version="1.0" encoding="UTF-8" standalone="no"?>
<svg width="123px" height="134px" viewBox="0 0 123 134" version="1.1" xmlns="http://www.w3.org/2000/svg" xmlns:xlink="http://www.w3.org/1999/xlink" xmlns:sketch="http://www.bohemiancoding.com/sketch/ns">
    <!-- Generator: Sketch 3.3.1 (12005) - http://www.bohemiancoding.com/sketch -->
    <title>WP-Christmas jobs</title>
    <desc>Created with Sketch.</desc>
    <defs></defs>
    <g id="Homepage" stroke="none" stroke-width="1" fill="none" fill-rule="evenodd" sketch:type="MSPage">
        <g id="Home---Big-desktop" sketch:type="MSArtboardGroup" transform="translate(-1354.000000, -1952.000000)" fill="#FFFFFF">
            <g id="Group" sketch:type="MSLayerGroup" transform="translate(-15.000000, -251.000000)">
                <g id="Collections" transform="translate(476.000000, 2035.000000)" sketch:type="MSShapeGroup">
                    <g id="collection-3" transform="translate(825.000000, 95.000000)">
                        <g id="WP-Christmas-jobs" transform="translate(68.000000, 73.000000)">
                            <path d="M4.23,21.055 C4.38,22.005 4.665,22.86 5.085,23.621 C5.505,24.38 6.085,24.996 6.825,25.465 C7.564,25.935 8.525,26.17 9.705,26.17 C11.025,26.17 12.26,25.885 13.41,25.315 C14.561,24.746 15.545,23.95 16.365,22.93 C16.545,22.71 16.705,22.48 16.846,22.24 C16.984,22 17.135,21.76 17.295,21.52 C17.394,21.38 17.51,21.23 17.641,21.07 C17.769,20.911 17.926,20.831 18.105,20.831 C18.244,20.831 18.359,20.88 18.45,20.98 C18.54,21.081 18.585,21.201 18.585,21.34 C18.585,21.48 18.54,21.645 18.45,21.835 C18.359,22.026 18.275,22.18 18.195,22.3 C17.734,23.1 17.164,23.84 16.484,24.52 C15.805,25.201 15.061,25.79 14.25,26.29 C13.439,26.79 12.58,27.18 11.67,27.46 C10.76,27.74 9.835,27.88 8.895,27.88 C7.535,27.88 6.34,27.605 5.311,27.055 C4.279,26.505 3.42,25.78 2.73,24.88 C2.04,23.98 1.52,22.945 1.17,21.775 C0.82,20.605 0.645,19.401 0.645,18.16 C0.645,17.241 0.74,16.27 0.93,15.25 C1.12,14.23 1.404,13.22 1.785,12.22 C2.164,11.22 2.635,10.26 3.195,9.34 C3.755,8.42 4.4,7.611 5.13,6.91 C5.859,6.21 6.68,5.656 7.59,5.246 C8.5,4.835 9.484,4.63 10.545,4.63 C11.145,4.63 11.7,4.741 12.21,4.96 C12.721,5.18 13.155,5.475 13.516,5.845 C13.875,6.215 14.154,6.661 14.355,7.18 C14.555,7.701 14.655,8.26 14.655,8.86 C14.655,9.121 14.635,9.496 14.596,9.985 C14.555,10.475 14.49,10.975 14.4,11.485 C14.311,11.996 14.189,12.465 14.04,12.895 C13.891,13.326 13.705,13.621 13.484,13.78 C13.285,13.92 13.045,13.99 12.766,13.99 C12.585,13.99 12.415,13.956 12.255,13.885 C12.095,13.815 12.016,13.67 12.016,13.45 C12.016,13.331 12.04,13.185 12.09,13.015 C12.14,12.845 12.205,12.665 12.285,12.475 C12.365,12.286 12.439,12.1 12.51,11.92 C12.58,11.74 12.635,11.59 12.676,11.47 C12.795,11.07 12.89,10.645 12.96,10.195 C13.029,9.746 13.064,9.31 13.064,8.89 C13.064,8.19 12.87,7.585 12.48,7.075 C12.09,6.565 11.525,6.31 10.785,6.31 C10.064,6.31 9.395,6.52 8.775,6.94 C8.154,7.36 7.595,7.915 7.096,8.605 C6.595,9.295 6.15,10.071 5.76,10.93 C5.37,11.79 5.045,12.661 4.785,13.54 C4.525,14.42 4.33,15.265 4.2,16.075 C4.07,16.885 4.005,17.581 4.005,18.16 C4.005,19.14 4.08,20.105 4.23,21.055" id="Fill-1"></path>
                            <path d="M25.335,16.99 C24.955,17.41 24.545,17.95 24.105,18.61 C23.665,19.27 23.205,19.996 22.725,20.785 C22.245,21.576 21.8,22.34 21.391,23.081 C20.98,23.82 20.619,24.486 20.311,25.075 C20,25.665 19.785,26.09 19.665,26.35 C19.585,26.53 19.49,26.72 19.38,26.92 C19.269,27.12 19.15,27.31 19.02,27.49 C18.89,27.67 18.734,27.82 18.555,27.94 C18.375,28.06 18.175,28.121 17.955,28.121 C17.734,28.121 17.561,28.055 17.43,27.925 C17.3,27.794 17.195,27.64 17.115,27.46 C17.035,27.28 16.984,27.085 16.965,26.875 C16.945,26.665 16.936,26.48 16.936,26.32 C16.936,25.8 16.975,25.285 17.055,24.775 C17.135,24.265 17.205,23.751 17.266,23.23 C17.385,22.27 17.5,21.321 17.609,20.38 C17.72,19.44 17.824,18.49 17.925,17.53 C18.045,16.45 18.189,15.23 18.359,13.871 C18.529,12.51 18.734,11.135 18.975,9.746 C19.215,8.355 19.505,7.015 19.846,5.725 C20.186,4.435 20.596,3.321 21.075,2.38 C21.195,2.14 21.34,1.9 21.51,1.66 C21.68,1.42 21.87,1.195 22.08,0.985 C22.29,0.775 22.525,0.605 22.785,0.475 C23.045,0.345 23.314,0.28 23.596,0.28 C23.936,0.28 24.21,0.38 24.42,0.581 C24.63,0.781 24.795,1.026 24.915,1.315 C25.035,1.605 25.115,1.915 25.154,2.246 C25.195,2.575 25.215,2.86 25.215,3.1 C25.215,5.34 24.88,7.52 24.21,9.64 C23.539,11.76 22.705,13.81 21.705,15.79 C21.465,16.27 21.215,16.741 20.955,17.2 C20.695,17.661 20.445,18.121 20.205,18.581 C20.145,18.7 20.07,18.985 19.98,19.435 C19.891,19.885 19.8,20.38 19.71,20.92 C19.62,21.46 19.54,21.975 19.471,22.465 C19.4,22.956 19.345,23.3 19.305,23.5 C19.484,23.1 19.734,22.605 20.055,22.015 C20.375,21.425 20.734,20.795 21.135,20.125 C21.535,19.456 21.97,18.79 22.439,18.13 C22.91,17.47 23.39,16.871 23.88,16.331 C24.369,15.79 24.87,15.355 25.38,15.025 C25.891,14.695 26.375,14.53 26.835,14.53 C27.175,14.53 27.455,14.621 27.675,14.8 C27.894,14.98 28.07,15.206 28.2,15.475 C28.33,15.746 28.42,16.036 28.471,16.345 C28.52,16.656 28.545,16.951 28.545,17.23 C28.545,18.49 28.449,19.746 28.26,20.996 C28.07,22.246 27.975,23.5 27.975,24.76 C27.975,24.9 27.979,25.05 27.99,25.21 C28,25.371 28.029,25.515 28.08,25.645 C28.13,25.776 28.21,25.885 28.32,25.975 C28.43,26.065 28.585,26.11 28.785,26.11 C29.205,26.11 29.65,25.941 30.12,25.6 C30.59,25.26 31.045,24.861 31.484,24.4 C31.925,23.94 32.335,23.46 32.715,22.96 C33.095,22.46 33.385,22.05 33.585,21.73 C33.664,21.61 33.77,21.456 33.9,21.265 C34.029,21.076 34.186,20.98 34.365,20.98 C34.545,20.98 34.665,21.04 34.725,21.16 C34.785,21.28 34.814,21.42 34.814,21.581 C34.814,21.68 34.795,21.765 34.755,21.835 C34.715,21.906 34.675,21.98 34.635,22.06 C34.335,22.64 33.935,23.27 33.436,23.95 C32.936,24.63 32.375,25.265 31.755,25.855 C31.135,26.445 30.47,26.935 29.76,27.325 C29.05,27.715 28.345,27.91 27.645,27.91 C27.225,27.91 26.91,27.749 26.7,27.43 C26.49,27.11 26.335,26.73 26.234,26.29 C26.135,25.85 26.08,25.395 26.07,24.925 C26.06,24.456 26.055,24.081 26.055,23.8 C26.055,22.72 26.109,21.64 26.221,20.56 C26.33,19.48 26.435,18.4 26.535,17.32 L26.535,17.081 C26.535,16.98 26.525,16.835 26.505,16.645 C26.484,16.456 26.394,16.36 26.234,16.36 C26.015,16.36 25.715,16.57 25.335,16.99 L25.335,16.99 Z M22.83,2.71 C22.54,3.31 22.26,4.081 21.99,5.02 C21.721,5.96 21.47,6.996 21.24,8.125 C21.01,9.255 20.81,10.345 20.641,11.395 C20.47,12.445 20.33,13.385 20.221,14.215 C20.109,15.045 20.045,15.63 20.025,15.97 C20.484,15.15 20.955,14.2 21.436,13.121 C21.915,12.04 22.35,10.92 22.74,9.76 C23.13,8.6 23.455,7.45 23.715,6.31 C23.975,5.17 24.105,4.14 24.105,3.22 L24.105,2.89 C24.105,2.73 24.09,2.571 24.061,2.41 C24.029,2.251 23.994,2.11 23.955,1.99 C23.914,1.871 23.845,1.81 23.745,1.81 C23.425,1.81 23.119,2.11 22.83,2.71 L22.83,2.71 Z" id="Fill-2"></path>
                            <path d="M37.41,19.331 C37.039,19.03 36.635,18.81 36.195,18.67 C36.035,19.11 35.859,19.57 35.67,20.05 C35.479,20.53 35.265,21.01 35.025,21.49 C34.785,21.97 34.524,22.43 34.244,22.871 C33.965,23.31 33.654,23.701 33.314,24.04 C33.215,24.14 33.095,24.241 32.955,24.34 C32.814,24.441 32.665,24.49 32.505,24.49 C32.245,24.49 32.115,24.36 32.115,24.1 C32.115,23.98 32.141,23.866 32.189,23.755 C32.24,23.645 32.305,23.54 32.385,23.44 C32.965,22.6 33.51,21.741 34.02,20.86 C34.529,19.98 34.845,19.03 34.965,18.01 C34.685,17.65 34.484,17.255 34.365,16.825 C34.244,16.395 34.185,15.951 34.185,15.49 C34.185,15.25 34.22,14.94 34.29,14.56 C34.359,14.18 34.47,13.81 34.619,13.45 C34.77,13.09 34.955,12.781 35.175,12.52 C35.394,12.26 35.654,12.13 35.955,12.13 C36.175,12.13 36.345,12.225 36.465,12.415 C36.585,12.605 36.685,12.826 36.765,13.075 C36.845,13.326 36.894,13.581 36.915,13.84 C36.935,14.1 36.945,14.31 36.945,14.47 C36.945,14.95 36.915,15.43 36.855,15.91 C37.095,16.27 37.414,16.566 37.814,16.795 C38.215,17.025 38.609,17.275 39,17.545 C39.39,17.815 39.725,18.145 40.005,18.535 C40.285,18.925 40.425,19.45 40.425,20.11 C40.425,20.451 40.375,20.84 40.275,21.28 C40.114,21.98 39.975,22.68 39.855,23.38 C39.734,24.081 39.675,24.79 39.675,25.51 C39.675,25.71 39.699,25.945 39.75,26.215 C39.799,26.485 39.965,26.621 40.244,26.621 C40.584,26.621 40.98,26.451 41.43,26.11 C41.88,25.77 42.324,25.371 42.765,24.91 C43.205,24.451 43.615,23.985 43.994,23.515 C44.375,23.045 44.654,22.67 44.835,22.39 C44.935,22.251 45.049,22.095 45.18,21.925 C45.31,21.755 45.465,21.67 45.645,21.67 C45.824,21.67 45.939,21.735 45.99,21.865 C46.039,21.996 46.064,22.14 46.064,22.3 C46.064,22.42 46.039,22.531 45.99,22.63 C45.939,22.73 45.885,22.831 45.824,22.93 C45.585,23.31 45.229,23.79 44.76,24.371 C44.289,24.951 43.779,25.509 43.23,26.047 C42.68,26.585 42.109,27.045 41.52,27.428 C40.93,27.809 40.395,28 39.915,28 C39.414,28 39.024,27.848 38.744,27.545 C38.465,27.242 38.254,26.876 38.115,26.45 C37.975,26.023 37.89,25.57 37.859,25.09 C37.83,24.61 37.814,24.19 37.814,23.831 C37.814,23.27 37.84,22.72 37.89,22.18 C37.939,21.64 37.965,21.09 37.965,20.53 C37.965,20.031 37.779,19.63 37.41,19.331" id="Fill-3"></path>
                            <path d="M47.58,24.04 C47.59,24.34 47.629,24.64 47.699,24.94 C47.769,25.24 47.875,25.5 48.015,25.72 C48.154,25.941 48.354,26.05 48.615,26.05 C49.014,26.05 49.449,25.866 49.92,25.496 C50.389,25.125 50.85,24.685 51.299,24.175 C51.75,23.665 52.159,23.14 52.529,22.6 C52.899,22.06 53.185,21.63 53.385,21.31 C53.484,21.17 53.6,21.01 53.73,20.831 C53.859,20.65 54.024,20.56 54.225,20.56 C54.424,20.56 54.539,20.63 54.569,20.77 C54.6,20.911 54.615,21.06 54.615,21.22 C54.615,21.321 54.584,21.441 54.524,21.581 C54.465,21.72 54.39,21.865 54.299,22.015 C54.209,22.165 54.119,22.305 54.029,22.435 C53.939,22.566 53.865,22.67 53.805,22.75 C53.524,23.151 53.164,23.625 52.725,24.175 C52.284,24.725 51.799,25.251 51.27,25.75 C50.739,26.25 50.194,26.675 49.635,27.025 C49.074,27.374 48.524,27.55 47.984,27.55 C47.385,27.55 46.909,27.365 46.56,26.996 C46.209,26.625 45.934,26.175 45.734,25.645 C45.534,25.116 45.404,24.555 45.345,23.965 C45.285,23.376 45.254,22.86 45.254,22.42 C45.254,21.861 45.319,21.235 45.449,20.545 C45.58,19.855 45.725,19.251 45.885,18.73 C46.064,18.19 46.309,17.736 46.619,17.365 C46.93,16.996 47.404,16.81 48.045,16.81 C48.504,16.81 48.734,17.031 48.734,17.47 C48.734,17.67 48.699,17.905 48.629,18.175 C48.559,18.445 48.475,18.725 48.375,19.015 C48.274,19.305 48.174,19.595 48.074,19.885 C47.975,20.175 47.895,20.43 47.834,20.65 C47.654,21.51 47.564,22.401 47.564,23.32 C47.564,23.5 47.569,23.74 47.58,24.04 L47.58,24.04 Z M49.529,12.565 C49.719,12.795 49.814,13.06 49.814,13.36 C49.814,13.76 49.674,14.125 49.395,14.456 C49.114,14.785 48.774,14.95 48.375,14.95 C48.055,14.95 47.805,14.835 47.625,14.605 C47.444,14.376 47.355,14.11 47.355,13.81 C47.355,13.43 47.49,13.071 47.76,12.73 C48.029,12.39 48.364,12.22 48.765,12.22 C49.084,12.22 49.34,12.335 49.529,12.565 L49.529,12.565 Z" id="Fill-4"></path>
                            <path d="M57.314,17.05 C57.555,17.63 57.834,18.21 58.154,18.79 C58.474,19.371 58.784,19.956 59.084,20.545 C59.385,21.135 59.634,21.741 59.834,22.36 C60.033,22.98 60.135,23.61 60.135,24.25 C60.135,24.651 60.078,25.05 59.969,25.45 C59.859,25.85 59.684,26.22 59.444,26.56 C59.805,26.581 60.225,26.425 60.704,26.095 C61.184,25.765 61.664,25.375 62.145,24.925 C62.624,24.475 63.064,24.015 63.465,23.545 C63.863,23.076 64.154,22.701 64.334,22.42 C64.434,22.281 64.555,22.116 64.694,21.925 C64.834,21.735 65.004,21.64 65.204,21.64 C65.385,21.64 65.504,21.7 65.564,21.82 C65.624,21.94 65.654,22.081 65.654,22.24 C65.654,22.34 65.619,22.446 65.549,22.555 C65.479,22.665 65.424,22.77 65.385,22.871 C64.824,23.751 64.234,24.54 63.614,25.24 C62.994,25.941 62.318,26.53 61.59,27.01 C60.859,27.49 60.049,27.855 59.159,28.105 C58.269,28.355 57.284,28.48 56.204,28.48 C55.624,28.48 54.999,28.42 54.329,28.3 C53.658,28.18 53.104,27.91 52.664,27.49 C52.564,27.39 52.484,27.29 52.424,27.19 C52.364,27.089 52.334,26.97 52.334,26.831 C52.334,26.53 52.494,26.38 52.814,26.38 C52.934,26.38 53.029,26.4 53.1,26.44 C53.169,26.48 53.254,26.53 53.353,26.59 C53.693,26.81 54.033,26.96 54.374,27.04 C54.714,27.12 55.084,27.16 55.484,27.16 C56.283,27.16 56.889,26.915 57.299,26.425 C57.709,25.935 57.914,25.31 57.914,24.55 C57.914,24.09 57.85,23.6 57.719,23.081 C57.589,22.56 57.424,22.04 57.225,21.52 C57.023,21 56.799,20.496 56.549,20.005 C56.299,19.515 56.055,19.09 55.814,18.73 C55.674,19.13 55.499,19.576 55.289,20.065 C55.079,20.555 54.844,21.04 54.584,21.52 C54.324,22 54.049,22.46 53.76,22.9 C53.469,23.34 53.174,23.71 52.874,24.01 C52.773,24.111 52.659,24.215 52.529,24.325 C52.399,24.435 52.254,24.49 52.094,24.49 C51.814,24.49 51.674,24.35 51.674,24.07 C51.674,23.911 51.709,23.77 51.779,23.65 C51.85,23.53 51.934,23.41 52.034,23.29 C53.394,21.59 54.414,19.68 55.094,17.56 C54.914,17.04 54.824,16.51 54.824,15.97 C54.824,15.67 54.874,15.321 54.975,14.92 C55.074,14.52 55.215,14.14 55.395,13.78 C55.574,13.42 55.804,13.11 56.084,12.85 C56.363,12.59 56.684,12.46 57.044,12.46 C57.225,12.46 57.379,12.515 57.51,12.625 C57.639,12.735 57.738,12.876 57.809,13.045 C57.879,13.215 57.93,13.39 57.959,13.57 C57.989,13.75 58.004,13.92 58.004,14.081 C58.004,14.581 57.934,15.085 57.794,15.595 C57.654,16.105 57.494,16.59 57.314,17.05" id="Fill-5"></path>
                            <path d="M70.034,15.445 C69.574,16.375 69.094,17.25 68.594,18.07 C68.475,18.29 68.344,18.496 68.204,18.685 C68.064,18.876 67.924,19.071 67.784,19.27 C67.704,19.371 67.619,19.475 67.529,19.585 C67.439,19.695 67.374,19.8 67.334,19.9 C67.294,19.98 67.273,20.09 67.273,20.23 L67.273,20.56 C67.273,20.86 67.299,21.325 67.35,21.956 C67.398,22.585 67.488,23.22 67.619,23.86 C67.749,24.501 67.939,25.06 68.189,25.54 C68.439,26.02 68.764,26.26 69.164,26.26 C69.624,26.26 70.099,26.085 70.589,25.735 C71.079,25.385 71.549,24.97 71.999,24.49 C72.449,24.01 72.859,23.505 73.228,22.975 C73.6,22.446 73.894,22 74.114,21.64 C74.193,21.501 74.304,21.35 74.443,21.19 C74.584,21.031 74.734,20.95 74.895,20.95 C75.014,20.95 75.113,20.996 75.193,21.085 C75.273,21.175 75.314,21.28 75.314,21.4 C75.314,21.621 75.264,21.831 75.164,22.03 C75.064,22.23 74.954,22.43 74.834,22.63 C74.554,23.11 74.184,23.665 73.725,24.295 C73.264,24.925 72.754,25.52 72.193,26.081 C71.634,26.64 71.044,27.115 70.424,27.505 C69.804,27.895 69.193,28.09 68.594,28.09 C68.074,28.09 67.619,27.93 67.228,27.61 C66.839,27.29 66.51,26.875 66.239,26.365 C65.969,25.855 65.744,25.281 65.564,24.64 C65.385,24 65.244,23.361 65.145,22.72 C65.044,22.081 64.975,21.475 64.934,20.905 C64.894,20.335 64.874,19.86 64.874,19.48 C64.874,18.501 64.908,17.515 64.978,16.525 C65.049,15.535 65.184,14.56 65.385,13.6 C65.184,13.66 64.975,13.69 64.754,13.69 C64.273,13.69 64.034,13.45 64.034,12.97 C64.034,12.57 64.209,12.31 64.559,12.19 C64.908,12.07 65.244,12 65.564,11.98 C65.725,11.44 65.954,10.715 66.254,9.805 C66.555,8.895 66.924,7.996 67.364,7.105 C67.804,6.215 68.309,5.451 68.879,4.81 C69.449,4.17 70.084,3.85 70.784,3.85 C71.104,3.85 71.353,3.951 71.534,4.15 C71.714,4.35 71.85,4.59 71.939,4.871 C72.029,5.151 72.084,5.445 72.103,5.755 C72.123,6.066 72.135,6.331 72.135,6.55 C72.135,7.331 72.078,8.121 71.969,8.92 C71.859,9.72 71.693,10.5 71.475,11.26 C71.814,11.22 72.154,11.17 72.494,11.11 C72.834,11.05 73.174,11.02 73.514,11.02 C73.794,11.02 73.934,11.151 73.934,11.41 C73.934,11.571 73.898,11.685 73.829,11.755 C73.759,11.826 73.664,11.901 73.544,11.98 C73.464,12.02 73.314,12.076 73.094,12.145 C72.873,12.215 72.634,12.286 72.374,12.355 C72.113,12.425 71.864,12.49 71.624,12.55 C71.385,12.61 71.204,12.651 71.084,12.67 C70.844,13.59 70.494,14.515 70.034,15.445 L70.034,15.445 Z M67.199,15.746 C67.148,16.555 67.094,17.361 67.034,18.16 C67.254,17.88 67.499,17.52 67.77,17.081 C68.039,16.64 68.299,16.175 68.549,15.685 C68.799,15.195 69.023,14.715 69.225,14.246 C69.424,13.776 69.574,13.36 69.674,13 C69.314,13.081 68.954,13.135 68.594,13.165 C68.234,13.195 67.884,13.26 67.544,13.36 C67.364,14.14 67.248,14.935 67.199,15.746 L67.199,15.746 Z M69.704,6.175 C69.363,6.725 69.054,7.366 68.773,8.095 C68.494,8.826 68.259,9.54 68.068,10.24 C67.879,10.941 67.764,11.44 67.725,11.74 C68.124,11.68 68.534,11.635 68.954,11.605 C69.374,11.575 69.783,11.51 70.184,11.41 C70.424,10.65 70.623,9.8 70.784,8.86 C70.943,7.92 71.023,7.05 71.023,6.25 L71.023,6.04 C71.023,5.94 71.014,5.84 70.994,5.74 C70.975,5.64 70.943,5.55 70.904,5.47 C70.863,5.39 70.804,5.35 70.725,5.35 C70.384,5.35 70.044,5.626 69.704,6.175 L69.704,6.175 Z" id="Fill-6"></path>
                            <path d="M82.063,26.17 C81.924,25.79 81.814,25.305 81.733,24.715 C81.653,24.126 81.594,23.48 81.554,22.78 C81.514,22.081 81.494,21.4 81.494,20.74 L81.494,19 L81.494,17.92 C81.494,17.82 81.483,17.691 81.463,17.53 C81.443,17.371 81.354,17.29 81.193,17.29 C80.994,17.29 80.719,17.475 80.369,17.845 C80.019,18.215 79.639,18.69 79.228,19.27 C78.818,19.85 78.398,20.491 77.969,21.19 C77.538,21.89 77.133,22.57 76.754,23.23 C76.373,23.89 76.043,24.48 75.764,25 C75.483,25.52 75.293,25.9 75.193,26.14 C75.094,26.361 74.959,26.565 74.789,26.755 C74.619,26.945 74.394,27.04 74.113,27.04 C73.914,27.04 73.764,26.975 73.664,26.845 C73.564,26.715 73.514,26.56 73.514,26.38 C73.514,26.081 73.559,25.611 73.648,24.97 C73.738,24.331 73.848,23.605 73.978,22.795 C74.108,21.985 74.264,21.14 74.443,20.26 C74.623,19.38 74.804,18.545 74.983,17.755 C75.164,16.965 75.344,16.27 75.523,15.67 C75.703,15.07 75.853,14.65 75.974,14.41 C76.193,14.01 76.533,13.71 76.994,13.51 C77.453,13.31 77.894,13.21 78.313,13.21 C78.533,13.21 78.693,13.275 78.793,13.405 C78.894,13.536 78.943,13.71 78.943,13.93 C78.943,14.13 78.903,14.371 78.824,14.65 C78.744,14.93 78.644,15.215 78.523,15.505 C78.404,15.795 78.283,16.081 78.164,16.36 C78.043,16.64 77.943,16.88 77.863,17.081 C77.643,17.621 77.463,18.18 77.324,18.76 C77.184,19.34 77.063,19.92 76.963,20.5 C77.184,20.18 77.483,19.73 77.863,19.15 C78.243,18.57 78.658,18 79.108,17.44 C79.559,16.88 80.023,16.395 80.504,15.985 C80.983,15.576 81.424,15.371 81.824,15.371 C82.104,15.371 82.323,15.46 82.483,15.64 C82.644,15.82 82.769,16.04 82.858,16.3 C82.949,16.56 83.009,16.831 83.039,17.11 C83.068,17.39 83.084,17.63 83.084,17.831 C83.084,18.411 83.073,18.991 83.054,19.57 C83.033,20.151 83.023,20.73 83.023,21.31 L83.023,22.27 C83.023,22.59 83.063,22.9 83.144,23.2 C83.144,23.22 83.153,23.26 83.174,23.32 C83.193,23.38 83.223,23.41 83.264,23.41 C83.324,23.41 83.398,23.335 83.488,23.185 C83.578,23.035 83.643,22.93 83.684,22.871 C84.043,22.27 84.428,21.685 84.838,21.115 C85.248,20.545 85.653,19.97 86.054,19.39 C86.293,19.05 86.573,18.651 86.894,18.19 C87.213,17.73 87.559,17.29 87.929,16.871 C88.299,16.45 88.698,16.09 89.129,15.79 C89.559,15.49 90.004,15.34 90.463,15.34 C90.783,15.34 91.063,15.42 91.304,15.581 C91.543,15.741 91.738,15.94 91.889,16.18 C92.039,16.42 92.148,16.685 92.219,16.975 C92.289,17.265 92.324,17.55 92.324,17.831 C92.324,18.991 92.254,20.145 92.113,21.295 C91.974,22.446 91.904,23.6 91.904,24.76 C91.904,24.9 91.908,25.065 91.918,25.255 C91.928,25.446 91.959,25.621 92.009,25.78 C92.059,25.941 92.139,26.081 92.248,26.2 C92.358,26.32 92.514,26.38 92.713,26.38 C93.053,26.38 93.439,26.246 93.869,25.975 C94.299,25.706 94.724,25.38 95.144,25 C95.563,24.621 95.953,24.225 96.313,23.815 C96.674,23.406 96.953,23.07 97.154,22.81 C97.254,22.67 97.383,22.505 97.543,22.315 C97.703,22.125 97.883,22.03 98.084,22.03 C98.264,22.03 98.379,22.1 98.429,22.24 C98.479,22.38 98.504,22.52 98.504,22.66 C98.504,22.76 98.469,22.866 98.398,22.975 C98.328,23.085 98.264,23.18 98.203,23.26 C97.904,23.661 97.508,24.13 97.019,24.67 C96.528,25.21 95.988,25.725 95.398,26.215 C94.809,26.706 94.209,27.12 93.599,27.46 C92.988,27.8 92.424,27.97 91.904,27.97 C91.403,27.97 91.019,27.83 90.748,27.55 C90.478,27.27 90.273,26.92 90.134,26.5 C89.994,26.081 89.908,25.64 89.879,25.18 C89.849,24.72 89.834,24.31 89.834,23.95 C89.834,23.05 89.879,22.15 89.969,21.25 C90.059,20.35 90.103,19.44 90.103,18.52 C90.103,18.441 90.099,18.331 90.088,18.19 C90.078,18.05 90.059,17.915 90.029,17.785 C89.998,17.656 89.948,17.54 89.879,17.44 C89.809,17.34 89.713,17.29 89.594,17.29 C89.353,17.29 89.054,17.475 88.693,17.845 C88.334,18.215 87.948,18.69 87.539,19.27 C87.129,19.85 86.709,20.496 86.279,21.206 C85.848,21.915 85.443,22.6 85.063,23.26 C84.684,23.92 84.348,24.515 84.059,25.045 C83.769,25.576 83.543,25.96 83.384,26.2 C83.283,26.361 83.174,26.491 83.054,26.59 C82.934,26.691 82.773,26.74 82.574,26.74 C82.373,26.74 82.203,26.55 82.063,26.17" id="Fill-7"></path>
                            <path d="M111.269,22.66 C111.099,22.9 110.963,23.1 110.863,23.26 C110.584,23.64 110.244,24.081 109.844,24.581 C109.443,25.081 109.008,25.55 108.539,25.99 C108.068,26.43 107.568,26.8 107.039,27.1 C106.508,27.4 105.983,27.55 105.464,27.55 C104.963,27.55 104.563,27.374 104.264,27.025 C103.964,26.675 103.733,26.255 103.574,25.765 C103.414,25.275 103.313,24.765 103.273,24.235 C103.233,23.706 103.224,23.26 103.244,22.9 C103.043,23.2 102.789,23.575 102.478,24.025 C102.168,24.475 101.823,24.91 101.443,25.331 C101.063,25.75 100.668,26.11 100.259,26.41 C99.849,26.71 99.443,26.86 99.043,26.86 C98.684,26.86 98.384,26.751 98.144,26.53 C97.904,26.31 97.719,26.04 97.589,25.72 C97.459,25.401 97.368,25.06 97.318,24.7 C97.269,24.34 97.244,24.02 97.244,23.74 C97.244,22.96 97.434,22.071 97.813,21.07 C98.193,20.07 98.699,19.125 99.328,18.235 C99.959,17.345 100.679,16.6 101.488,16 C102.299,15.4 103.144,15.1 104.023,15.1 C104.244,15.1 104.463,15.201 104.684,15.4 C104.903,15.6 105.014,15.81 105.014,16.03 C105.014,16.13 104.984,16.206 104.924,16.255 C104.863,16.305 104.793,16.35 104.714,16.39 C104.174,16.71 103.658,17.045 103.168,17.395 C102.678,17.746 102.213,18.15 101.773,18.61 C100.994,19.411 100.373,20.305 99.914,21.295 C99.453,22.285 99.224,23.35 99.224,24.49 C99.224,24.61 99.243,24.76 99.283,24.94 C99.324,25.121 99.434,25.21 99.613,25.21 C99.834,25.21 100.084,25.075 100.363,24.805 C100.644,24.535 100.934,24.195 101.234,23.785 C101.533,23.376 101.828,22.915 102.119,22.405 C102.408,21.895 102.684,21.4 102.943,20.92 C103.203,20.44 103.428,19.996 103.619,19.585 C103.809,19.175 103.953,18.871 104.054,18.67 C104.153,18.451 104.279,18.246 104.429,18.055 C104.578,17.866 104.793,17.77 105.074,17.77 C105.233,17.77 105.389,17.8 105.539,17.86 C105.688,17.92 105.764,18.05 105.764,18.25 C105.764,18.47 105.693,18.76 105.554,19.121 C105.414,19.48 105.303,19.77 105.224,19.99 C105.064,20.51 104.949,21.066 104.879,21.655 C104.809,22.246 104.773,22.8 104.773,23.32 C104.773,23.48 104.778,23.72 104.789,24.04 C104.799,24.36 104.834,24.685 104.894,25.015 C104.953,25.345 105.049,25.635 105.179,25.885 C105.309,26.135 105.494,26.26 105.734,26.26 C106.094,26.26 106.494,26.1 106.934,25.78 C107.373,25.46 107.804,25.085 108.224,24.655 C108.644,24.225 109.033,23.781 109.394,23.32 C109.754,22.86 110.023,22.491 110.203,22.21 C110.304,22.05 110.414,21.885 110.533,21.715 C110.654,21.545 110.823,21.46 111.043,21.46 C111.363,21.46 111.523,21.651 111.523,22.03 C111.523,22.21 111.439,22.42 111.269,22.66" id="Fill-8"></path>
                            <path d="M114.674,17.05 C114.914,17.63 115.193,18.21 115.514,18.79 C115.833,19.371 116.144,19.956 116.443,20.545 C116.744,21.135 116.993,21.741 117.193,22.36 C117.393,22.98 117.494,23.61 117.494,24.25 C117.494,24.651 117.437,25.05 117.328,25.45 C117.219,25.85 117.043,26.22 116.804,26.56 C117.164,26.581 117.584,26.425 118.063,26.095 C118.543,25.765 119.023,25.375 119.504,24.925 C119.983,24.475 120.424,24.015 120.824,23.545 C121.223,23.076 121.514,22.701 121.693,22.42 C121.793,22.281 121.914,22.116 122.054,21.925 C122.193,21.735 122.363,21.64 122.563,21.64 C122.744,21.64 122.863,21.7 122.924,21.82 C122.983,21.94 123.014,22.081 123.014,22.24 C123.014,22.34 122.979,22.446 122.908,22.555 C122.838,22.665 122.783,22.77 122.744,22.871 C122.184,23.751 121.594,24.54 120.974,25.24 C120.354,25.941 119.678,26.53 118.949,27.01 C118.219,27.49 117.408,27.855 116.519,28.105 C115.629,28.355 114.644,28.48 113.563,28.48 C112.983,28.48 112.358,28.42 111.688,28.3 C111.018,28.18 110.463,27.91 110.023,27.49 C109.924,27.39 109.844,27.29 109.783,27.19 C109.724,27.089 109.693,26.97 109.693,26.831 C109.693,26.53 109.854,26.38 110.174,26.38 C110.293,26.38 110.389,26.4 110.459,26.44 C110.528,26.48 110.613,26.53 110.713,26.59 C111.053,26.81 111.393,26.96 111.733,27.04 C112.073,27.12 112.443,27.16 112.844,27.16 C113.643,27.16 114.248,26.915 114.658,26.425 C115.068,25.935 115.273,25.31 115.273,24.55 C115.273,24.09 115.209,23.6 115.078,23.081 C114.948,22.56 114.783,22.04 114.584,21.52 C114.383,21 114.158,20.496 113.908,20.005 C113.658,19.515 113.414,19.09 113.174,18.73 C113.033,19.13 112.858,19.576 112.648,20.065 C112.438,20.555 112.203,21.04 111.943,21.52 C111.684,22 111.408,22.46 111.119,22.9 C110.828,23.34 110.533,23.71 110.233,24.01 C110.133,24.111 110.019,24.215 109.889,24.325 C109.759,24.435 109.613,24.49 109.453,24.49 C109.174,24.49 109.033,24.35 109.033,24.07 C109.033,23.911 109.068,23.77 109.139,23.65 C109.209,23.53 109.293,23.41 109.394,23.29 C110.754,21.59 111.773,19.68 112.453,17.56 C112.273,17.04 112.184,16.51 112.184,15.97 C112.184,15.67 112.233,15.321 112.334,14.92 C112.434,14.52 112.574,14.14 112.754,13.78 C112.934,13.42 113.163,13.11 113.443,12.85 C113.723,12.59 114.043,12.46 114.403,12.46 C114.584,12.46 114.738,12.515 114.869,12.625 C114.998,12.735 115.098,12.876 115.168,13.045 C115.238,13.215 115.289,13.39 115.318,13.57 C115.349,13.75 115.363,13.92 115.363,14.081 C115.363,14.581 115.293,15.085 115.153,15.595 C115.014,16.105 114.853,16.59 114.674,17.05" id="Fill-9"></path>
                            <path d="M27.938,79.562 C26.497,80.762 24.337,81.626 21.408,81.626 C18.864,81.626 16.848,80.666 15.792,79.466 L17.28,77.69 L17.328,77.786 C18.672,79.322 21.024,80.234 23.664,80.234 C25.297,80.234 26.736,79.995 27.938,79.562 L27.938,79.562 Z M32.737,45.288 L32.737,71.786 C32.737,75.242 30.289,79.322 23.664,79.322 C21.072,79.322 19.057,78.41 18.049,77.162 L21.024,73.61 C21.696,74.138 22.608,74.522 23.664,74.522 C25.729,74.522 26.689,72.746 26.689,71.738 L26.689,45.288 L32.737,45.288 L32.737,45.288 Z M24.433,73.513 L24.433,47.591 L25.777,47.591 L25.777,71.786 C25.777,72.169 25.441,73.177 24.433,73.513 L24.433,73.513 Z" id="Fill-10"></path>
                            <path d="M47.569,80.283 C48.961,80.283 50.209,80.042 51.361,79.706 C49.97,80.858 47.953,81.626 45.361,81.626 C38.689,81.626 36.336,77.498 36.336,74.089 L36.336,54.696 C36.336,53.064 36.816,51.335 38.017,49.944 C37.824,50.759 37.681,51.623 37.681,52.44 L37.681,71.833 C37.681,76.01 40.705,80.283 47.569,80.283 L47.569,80.283 Z M56.258,52.392 L56.258,71.786 C56.258,75.194 53.57,79.322 47.569,79.322 C40.945,79.322 38.593,75.194 38.593,71.833 L38.593,52.392 C38.593,48.984 40.945,44.855 47.569,44.855 C53.57,44.855 56.258,48.984 56.258,52.392 L56.258,52.392 Z M50.258,52.392 C50.258,51.383 49.297,49.656 47.569,49.656 C45.457,49.656 44.594,51.383 44.594,52.344 L44.594,71.69 C44.594,72.794 45.457,74.522 47.569,74.522 C49.297,74.522 50.258,72.698 50.258,71.69 L50.258,52.392 L50.258,52.392 Z M49.394,52.44 L49.394,71.738 C49.394,72.217 48.914,73.322 48.049,73.61 L48.049,54.696 C48.049,53.688 47.137,52.104 45.553,51.912 C45.745,51.383 46.369,50.568 47.569,50.568 C48.77,50.568 49.394,51.864 49.394,52.44 L49.394,52.44 Z" id="Fill-11"></path>
                            <path d="M70.992,79.85 C72.289,79.85 73.441,79.61 74.497,79.226 C73.009,80.474 71.137,81.195 68.785,81.195 L59.856,81.195 L59.856,47.591 L61.199,46.248 L61.199,79.85 L70.992,79.85 L70.992,79.85 Z M79.969,69.29 C79.969,74.665 76.801,78.89 70.992,78.89 L62.111,78.89 L62.111,45.288 L69.889,45.288 C75.457,45.288 78.625,48.408 78.625,53.831 C78.625,56.665 77.186,59.737 74.833,60.745 C77.905,62.088 79.969,64.633 79.969,69.29 L79.969,69.29 Z M68.112,58.056 L68.4,58.056 C72.625,58.056 73.345,57.241 73.345,54.072 C73.345,51.623 72.529,50.135 70.32,50.135 L68.112,50.135 L68.112,58.056 L68.112,58.056 Z M74.257,69.29 C74.257,65.641 73.152,63.145 69.313,63.145 L68.112,63.145 L68.112,74.042 L70.129,74.042 C72.529,74.042 74.257,71.978 74.257,69.29 L74.257,69.29 Z M71.089,56.28 C71.089,54.216 70.465,52.824 68.977,52.488 L68.977,51.047 L70.32,51.047 C72.001,51.047 72.48,52.104 72.48,53.976 C72.48,55.608 72.433,56.617 71.089,56.953 L71.089,56.28 L71.089,56.28 Z M73.345,69.337 C73.345,70.778 72.816,71.978 71.904,72.65 C71.953,72.314 72.001,71.978 72.001,71.545 C72.001,68.665 71.281,66.457 68.977,65.737 L68.977,64.057 L69.313,64.057 C72.193,64.057 73.345,65.593 73.345,69.337 L73.345,69.337 Z" id="Fill-12"></path>
                            <path d="M86.928,64.057 C83.472,60.6 82.463,59.256 82.463,54.696 C82.463,52.824 83.088,51.192 84.144,49.944 C83.951,50.711 83.808,51.528 83.808,52.44 C83.808,57.241 85.104,59.016 88.561,62.473 L93.504,67.465 C94.849,68.857 95.28,70.057 95.28,71.498 C95.28,72.65 94.752,73.417 93.937,73.61 C93.889,71.881 93.217,70.585 92.016,69.145 L91.633,68.809 L91.633,67.417 L90.288,67.417 L86.928,64.057 L86.928,64.057 Z M93.456,80.283 C94.944,80.283 96.336,80.042 97.584,79.61 C95.953,80.907 93.696,81.626 91.248,81.626 C86.4,81.626 82.512,78.938 82.512,74.042 L82.512,70.585 L83.903,70.585 L83.903,71.833 C83.903,76.874 87.744,80.283 93.456,80.283 L93.456,80.283 Z M102.385,71.786 C102.385,76.634 98.257,79.322 93.456,79.322 C88.656,79.322 84.768,76.634 84.768,71.786 L84.768,68.281 L90.721,68.281 L90.721,71.45 C90.721,73.465 91.969,74.522 93.456,74.522 C94.944,74.522 96.145,73.37 96.145,71.45 C96.145,69.625 95.568,68.185 94.225,66.841 L89.184,61.8 C85.728,58.344 84.72,56.953 84.72,52.392 C84.72,47.831 88.367,44.855 93.456,44.855 C98.545,44.855 102.145,47.879 102.145,52.392 L102.145,54.696 L96.145,54.696 L96.145,53.352 C96.145,50.952 94.896,49.608 93.456,49.608 C91.969,49.608 90.721,50.759 90.721,52.248 C90.721,53.784 91.104,54.84 92.496,56.424 L98.496,63.336 C100.896,66.025 102.385,67.849 102.385,71.786 L102.385,71.786 Z M93.937,56.808 L93.937,55.608 C93.937,53.496 92.928,52.2 91.68,51.959 C91.872,51.144 92.592,50.568 93.456,50.568 C94.561,50.568 95.28,51.671 95.28,53.4 L95.28,55.608 L99.938,55.608 L99.938,56.953 L94.08,56.953 L93.937,56.808 L93.937,56.808 Z" id="Fill-13"></path>
                            <path d="M68.7209231,121.519098 C70.8232308,121.168183 72.9490769,120.609042 75.0366154,119.780788 C72.6846154,118.274408 70.1138462,115.863084 67.7152308,112.750859 C69.2133846,112.525436 70.7244615,112.188929 72.2106154,111.709732 C68.8081538,109.957479 64.8181538,106.227549 62.2201538,101.344943 C61.3095385,103.531774 57.4386154,109.159436 51.9329231,111.784098 C53.0655385,112.089929 54.6721538,112.443634 56.5856923,112.711352 C54.4695385,115.421535 51.8466154,118.05038 48.8433846,119.817972 C50.4010769,120.343648 52.6501538,120.958563 55.3307692,121.402901 C53.0189231,124.632253 50.2021538,127.71938 47,129.83231 C49.6935385,130.856239 54.2189231,132.146493 59.5210769,132.528549 L59.5376923,133.808112 L64.6063077,133.743042 L64.5915385,132.589436 C68.4850769,132.392831 72.5918462,131.599901 76.5730769,129.83231 C74.0544615,128.018704 71.3115385,125.174662 68.7209231,121.519098 Z" id="Imported-Layers-6"></path>
                        </g>
                    </g>
                </g>
            </g>
        </g>
    </g>
</svg>