<?xml version="1.0" encoding="UTF-8"?><svg width="36" height="28" xmlns="http://www.w3.org/2000/svg"><g fill="none" fill-rule="evenodd"><g transform="translate(-1068 -1428)" fill="#555555"><g transform="translate(203 1059)"><g transform="translate(733 369)"><g transform="translate(132)"><path d="M12.21 2.166c-1.737 1.537-2.828 3.741-2.828 6.203 0 1.9.658 3.69 1.807 5.13-2.847 2.381-4.732 6.194-5.12 10.461a22.621 22.621 0 0 1-6.006-1.14c-.01-.227-.015-.457-.015-.687 0-4.891 2.25-9.062 5.408-10.675a5.825 5.825 0 0 1-2.571-4.854c0-3.202 2.54-5.797 5.674-5.797 1.39 0 2.664.51 3.65 1.359zm11.855-.034a5.579 5.579 0 0 1 3.61-1.325c3.134 0 5.675 2.595 5.675 5.797a5.82 5.82 0 0 1-2.755 4.972c3.041 1.692 5.186 5.78 5.186 10.557 0 .11 0 .219-.003.328a22.11 22.11 0 0 1-6.024 1.427c-.39-4.092-2.155-7.764-4.832-10.146a8.22 8.22 0 0 0 2.01-5.373c0-2.48-1.109-4.698-2.867-6.237zM14.45 13.757c-1.848-1.15-3.07-3.133-3.07-5.388 0-3.554 3.034-6.435 6.776-6.435 3.741 0 6.774 2.88 6.774 6.435 0 2.343-1.318 4.393-3.289 5.519 3.632 1.877 6.193 6.416 6.193 11.717 0 .122-.002.243-.004.364-2.955 1.088-6.331 1.704-9.916 1.704-3.586 0-6.962-.616-9.917-1.704a16.405 16.405 0 0 1-.004-.364c0-5.429 2.686-10.058 6.457-11.848z"/></g></g></g></g></g></svg>