<?xml version="1.0" encoding="utf-8"?>
<!-- Generator: Adobe Illustrator 18.0.0, SVG Export Plug-In . SVG Version: 6.00 Build 0)  -->
<!DOCTYPE svg PUBLIC "-//W3C//DTD SVG 1.1//EN" "http://www.w3.org/Graphics/SVG/1.1/DTD/svg11.dtd">
<svg version="1.1" id="Layer_1" xmlns:sketch="http://www.bohemiancoding.com/sketch/ns"
	 xmlns="http://www.w3.org/2000/svg" xmlns:xlink="http://www.w3.org/1999/xlink" x="0px" y="0px" width="61px" height="60px"
	 viewBox="0 0 61 60" style="enable-background:new 0 0 61 60;" xml:space="preserve">
<style type="text/css">
	.st0{fill:#A8DC28;}
	.st1{fill:none;stroke:#313133;stroke-width:2;stroke-linecap:round;stroke-linejoin:round;stroke-dasharray:1,4;}
	.st2{fill:#313133;stroke:#A8DC28;stroke-width:2;}
	.st3{fill:#313133;}
</style>
<title>Community-mobile-hover</title>
<desc>Created with Sketch.</desc>
<g id="Homepage" sketch:type="MSPage">
	<g id="Home-Mobile-portrait" transform="translate(-128.000000, -499.000000)" sketch:type="MSArtboardGroup">
		<g id="Hero" transform="translate(-320.000000, -182.000000)" sketch:type="MSLayerGroup">
			<g id="What-will-you-discover_x3F_-Copy" transform="translate(320.000000, 580.000000)" sketch:type="MSShapeGroup">
				<g id="categories-hovers" transform="translate(9.000000, 21.000000)">
					
						<g id="Property-OFF-_x2B_-Property-Hover-_x2B_-Property-Active-_x2B_-Community-inActive-_x2B_-Animals-Active" transform="translate(40.000000, 80.000000)">
						<g id="Community-mobile-hover" transform="translate(79.634286, 0.000000)">
							<path id="Fill-1" class="st0" d="M60,30C60,13.5,46.5,0,30,0S0,13.5,0,30c0,16.5,13.5,30,30,30S60,46.5,60,30z"/>
							<path id="Stroke-6" class="st1" d="M53.9,41.5c1.7-3.5,2.6-7.4,2.6-11.5C56.5,15.4,44.6,3.5,30,3.5S3.5,15.4,3.5,30
								c0,11.4,7.2,21.1,17.4,24.9c2.9,1.1,5.9,1.6,9.1,1.6C40.5,56.5,49.6,50.4,53.9,41.5z"/>
							<g id="community-icon" transform="translate(16.503613, 19.175342)">
								<path id="Oval-25" class="st2" d="M15.4,10.1c2.6,1.4,4.4,4.7,4.4,8.6c0,0.1,0,0.2,0,0.3l0,0c-2.1,0.8-4.5,1.2-7.1,1.2
									s-5-0.5-7.1-1.2c0-0.1,0-0.2,0-0.3c0-4,1.9-7.3,4.6-8.7C9,9.2,8.1,7.8,8.1,6.1c0-2.6,2.2-4.7,4.8-4.7s4.8,2.1,4.8,4.7
									C17.7,7.8,16.8,9.3,15.4,10.1z"/>
								<path class="st3" d="M8.6,9.9c-0.9-1-1.5-2.4-1.5-3.8c0-1.7,0.7-3.2,1.9-4.2C8.3,1.1,7.2,0.6,6.1,0.6c-2.2,0-4,1.9-4,4.2
									c0,1.5,0.7,2.8,1.8,3.5C1.6,9.5,0,12.6,0,16.2c0,0.2,0,0.3,0,0.5c1.4,0.5,3,0.8,4.7,0.8C5,14.3,6.4,11.5,8.6,9.9z"/>
								<path class="st3" d="M21.8,8.5c1.2-0.7,2-2.1,2-3.6c0-2.3-1.8-4.2-4-4.2c-1.1,0-2.2,0.5-2.9,1.3c1.2,1,1.9,2.6,1.9,4.2
									c0,1.5-0.6,2.9-1.6,4c2,1.6,3.4,4.3,3.6,7.4c1.7-0.1,3.3-0.5,4.7-1.1c0-0.1,0-0.2,0-0.2C25.5,12.7,23.9,9.7,21.8,8.5z"/>
							</g>
						</g>
					</g>
				</g>
			</g>
		</g>
	</g>
</g>
</svg>
