<svg xmlns:sketch="http://www.bohemiancoding.com/sketch/ns" xmlns="http://www.w3.org/2000/svg" xmlns:xlink="http://www.w3.org/1999/xlink" version="1.1" id="Layer_1" x="0" y="0" width="111" height="111" viewBox="0 0 111 111" xml:space="preserve" enable-background="new 0 0 111 111">
  <style type="text/css">
    
	.st0{fill:#313133;}
	.st1{fill:none;stroke:#A8DC28;stroke-width:2;stroke-linecap:round;stroke-linejoin:round;stroke-dasharray:1,4;}
	.st2{fill:#A8DC28;}
	.st3{fill:#EFEFEF;}
	.st4{enable-background:new    ;}

  </style>
  <title>
    Community Active
  </title>
  <desc>
    Created with Sketch Beta.
  </desc>
  <g id="PAA" sketch:type="MSPage">
    <g id="Desktop-HD-For-sale-2" transform="translate(-660.000000, -755.000000)" sketch:type="MSArtboardGroup">
      <g id="Phase-1" transform="translate(457.000000, 273.000000)" sketch:type="MSLayerGroup">
        <g id="_x31_-what-are-you-selling" transform="translate(0.000000, 34.000000)">
          <g id="categories" transform="translate(0.000000, 314.000000)">
            <g id="Community-Active" transform="translate(203.077438, 134.331924)">
              <path id="Fill-1" sketch:type="MSShapeGroup" class="st0" d="M110 55c0-30.3-24.7-55-55-55S0 24.7 0 55s24.7 55 55 55S110 85.3 110 55z"/>
              <path id="Stroke-6" sketch:type="MSShapeGroup" class="st1" d="M100 76.8c3.2-6.6 5-14 5-21.8 0-27.6-22.4-50-50-50S5 27.4 5 55c0 21.5 13.7 39.9 32.8 46.9 5.4 2 11.2 3.1 17.2 3.1C74.8 105 91.9 93.5 100 76.8z"/>
              <path id="Stroke-15" sketch:type="MSShapeGroup" class="st1" d="M0 0"/>
              <g id="community-icon" transform="translate(37.308063, 32.955341)" sketch:type="MSShapeGroup">
                <path class="st2" d="M9.3 24.1c5.1 1.7 11.3 1.7 16.4 0 -0.1-4.3-2.2-8.3-5.3-9.9l-1.6-0.8 1.5-0.9c1.6-1 2.5-2.6 2.6-4.6 0-2.8-2.4-5.2-5.3-5.2S12.4 5 12.4 7.9c0 1.7 0.9 3.4 2.4 4.4l1.5 0.9L14.8 14C11.5 15.6 9.4 19.6 9.3 24.1z"/>
                <path class="st3" d="M34 21.2c0-4.5-2-8.5-4.8-10.1 1.5-1 2.5-2.7 2.6-4.8 0-3.1-2.4-5.6-5.3-5.6 -1.5 0-3 0.7-3.9 1.9C24.1 3.9 25 5.8 25 7.9c-0.1 2.1-0.9 4-2.4 5.3 2.7 2.1 4.6 5.7 5 9.7 2.3-0.2 4.5-0.7 6.4-1.4C34 21.4 34 21.3 34 21.2z"/>
                <path class="st3" d="M12.6 13c-1.4-1.3-2.2-3.2-2.2-5.1 0-2.1 0.9-3.9 2.3-5.2 -1-1.2-2.4-2-4-2 -2.9 0-5.3 2.5-5.3 5.6 0 2 1 3.7 2.4 4.7 -2.9 1.5-5 5.5-5 10.2 0 0.3 0 0.5 0 0.7 2 0.7 4.3 1.1 6.6 1.1C7.8 18.8 9.7 15.1 12.6 13z"/>
              </g>
              <g class="st4">
                <path class="st2" d="M22.9 75.6c-1.8 0-2.6 1.3-2.6 3.4 0 2.2 0.7 3.6 2.7 3.5 0.4 0 0.8 0 1-0.1 0.3-0.1 0.3-0.2 0.3-0.5v-1.1l1.4 0.1v2.4c-0.8 0.4-1.9 0.6-2.8 0.6 -2.8 0-4.4-1.6-4.4-4.8 0-3.7 2.2-4.9 4.4-4.9 0.8 0 1.8 0.2 2.6 0.6v2.4l-1.4 0.1v-1.1c0-0.3 0-0.4-0.3-0.5C23.5 75.6 23.2 75.6 22.9 75.6z"/>
                <path class="st2" d="M30.1 76.4c1 0 3.1 0.3 3.1 3.5 0 2.7-1.5 3.9-3.3 3.9 -1.9 0-3.1-1.2-3.1-3.7C26.8 77.2 28.7 76.4 30.1 76.4zM31.6 80.2c0-1.6-0.4-2.5-1.5-2.5s-1.6 1-1.6 2.3 0.2 2.7 1.5 2.7C31.1 82.6 31.6 81.6 31.6 80.2z"/>
                <path class="st2" d="M34.1 76.6h2.4v0.9c0.5-0.7 1.2-1.1 2.1-1.1 0.9 0 1.5 0.4 1.9 1.1 0.5-0.7 1.2-1.1 2.1-1.1 1.3 0 2.1 0.8 2.1 2.4v3.7h0.8v1.1h-3.3v-1.1h0.5c0.3 0 0.4-0.1 0.4-0.4v-2.9c0-0.9-0.1-1.5-1-1.5s-1.4 0.6-1.4 1.4v3.4h0.8v1.1h-3.3v-1.1h0.5c0.3 0 0.4-0.1 0.4-0.5v-2.9c0-0.9-0.1-1.5-1-1.5 -1 0-1.4 0.7-1.4 1.4v3.4h0.8v1.1h-3.3v-1.1h0.5c0.3 0 0.4-0.1 0.4-0.5l0 0V78c0-0.3-0.1-0.4-0.4-0.4h-0.6V76.6z"/>
                <path class="st2" d="M46.2 76.6h2.4v0.9c0.5-0.7 1.2-1.1 2.1-1.1 0.9 0 1.5 0.4 1.9 1.1 0.5-0.7 1.2-1.1 2.1-1.1 1.3 0 2.1 0.8 2.1 2.4v3.7h0.8v1.1h-3.3v-1.1h0.5c0.3 0 0.4-0.1 0.4-0.4v-2.9c0-0.9-0.1-1.5-1-1.5s-1.4 0.6-1.4 1.4v3.4h0.8v1.1h-3.3v-1.1h0.5c0.3 0 0.4-0.1 0.4-0.5v-2.9c0-0.9-0.1-1.5-1-1.5 -1 0-1.4 0.7-1.4 1.4v3.4h0.8v1.1h-3.3v-1.1h0.5c0.3 0 0.4-0.1 0.4-0.5l0 0V78c0-0.3-0.1-0.4-0.4-0.4h-0.6V76.6z"/>
                <path class="st2" d="M65.9 83.7h-2.3v-0.9c-0.5 0.7-1.3 1.1-2.3 1.1 -1.4 0-2.2-0.8-2.2-2.4v-3.2c0-0.3-0.1-0.4-0.3-0.4h-0.4v-1.1h2.5v4.4c0 0.9 0.1 1.5 1 1.5 1 0 1.5-0.7 1.5-1.4v-3c0-0.3-0.1-0.4-0.4-0.4h-0.4v-1.1H65v5.5c0 0.3 0.1 0.4 0.4 0.4h0.5V83.7z"/>
                <path class="st2" d="M66.6 76.6H69v0.9c0.5-0.7 1.3-1.1 2.3-1.1 1.4 0 2.2 0.8 2.2 2.4v3.7h0.8v1.1H71v-1.1h0.5c0.3 0 0.4-0.1 0.4-0.5v-2.9c0-0.9-0.2-1.5-1.1-1.5s-1.4 0.7-1.4 1.4v3.4h0.8v1.1h-3.3v-1.1h0.5c0.3 0 0.4-0.1 0.4-0.5V78c0-0.3-0.1-0.4-0.3-0.4h-0.6v-1H66.6z"/>
                <path class="st2" d="M77.7 82.5h0.8v1.1h-3.3v-1.1h0.5c0.3 0 0.4-0.1 0.4-0.4v-3.9c0-0.3-0.1-0.4-0.3-0.4h-0.5v-1.2h2.5L77.7 82.5 77.7 82.5zM76.7 73.6c0.6 0 1.1 0.5 1.1 1 0 0.6-0.4 1-1.1 1 -0.6 0-1.1-0.4-1.1-1C75.6 74.1 76 73.6 76.7 73.6z"/>
                <path class="st2" d="M81.7 75.1v1.5h1.9l-0.1 1.2h-1.7v3.7c0 0.9 0.3 1.1 0.9 1.1 0.4 0 0.7-0.2 1-0.3l0.4 1.1c-0.4 0.3-1.1 0.5-1.8 0.5 -2.2 0-2.2-1.3-2.2-2.3v-3.7h-1l0.1-1c1-0.1 1.3-0.8 1.6-1.6h0.9V75.1z"/>
                <path class="st2" d="M89.7 82.3c-0.5 0.7-1.3 1.1-2.3 1.1 -1.4 0-2.2-0.8-2.2-2.4v-2.8c0-0.3-0.1-0.4-0.3-0.4h-0.4v-1.1H87v4c0 0.9 0.1 1.5 1 1.5 1 0 1.5-0.7 1.5-1.4v-2.5c0-0.3-0.1-0.4-0.4-0.4h-0.4v-1.1h2.5v6.8c0 2.3-1.2 3.3-3.2 3.3 -0.9 0-2-0.2-2.6-0.5v-1.9l1.3-0.1v0.7c0 0.3 0.1 0.4 0.3 0.5 0.3 0.1 0.6 0.1 1 0.1 1.3 0 1.8-0.8 1.8-2.1v-1.3H89.7z"/>
              </g>
            </g>
          </g>
        </g>
      </g>
    </g>
  </g>
</svg>
