<svg xmlns:sketch="http://www.bohemiancoding.com/sketch/ns" xmlns="http://www.w3.org/2000/svg" xmlns:xlink="http://www.w3.org/1999/xlink" version="1.1" id="Layer_1" x="0" y="0" width="110" height="109" viewBox="0 0 110 109" xml:space="preserve" enable-background="new 0 0 110 109">
  <style type="text/css">
    
	.st0{fill:#EFEFEF;}
	.st1{fill:none;stroke:#313133;stroke-width:2;stroke-linecap:round;stroke-linejoin:round;stroke-dasharray:1,4;}
	.st2{enable-background:new    ;}
	.st3{fill:#313133;}
	.st4{fill:#313133;stroke:#EFEFEF;stroke-width:2;}

  </style>
  <title>
    Community Hover
  </title>
  <desc>
    Created with Sketch Beta.
  </desc>
  <g id="PAA" sketch:type="MSPage">
    <g id="Desktop-HD-For-sale-2" transform="translate(-660.000000, -759.000000)" sketch:type="MSArtboardGroup">
      <g id="Phase-1" transform="translate(457.000000, 273.000000)" sketch:type="MSLayerGroup">
        <g id="_x31_-what-are-you-selling" transform="translate(0.000000, 34.000000)">
          <g id="categories" transform="translate(0.000000, 314.000000)">
            <g id="Community-Hover" transform="translate(203.077438, 137.331924)">
              <path id="Fill-1" sketch:type="MSShapeGroup" class="st0" d="M109.1 55.2C109.1 25.3 84.6 1 54.5 1S0 25.3 0 55.2s24.5 54.2 54.5 54.2S109.1 85.1 109.1 55.2z"/>
              <path id="Stroke-6" sketch:type="MSShapeGroup" class="st1" d="M100 76.8c3.2-6.6 5-14 5-21.8 0-27.6-22.4-50-50-50S5 27.4 5 55c0 21.5 13.7 39.9 32.8 46.9 5.4 2 11.2 3.1 17.2 3.1C74.8 105 91.9 93.5 100 76.8z"/>
              <path id="Stroke-15" sketch:type="MSShapeGroup" class="st1" d="M0 0"/>
              <g class="st2">
                <path class="st3" d="M20.6 72.4c-1.8 0-2.6 1.3-2.6 3.4 0 2.2 0.7 3.6 2.7 3.5 0.4 0 0.8 0 1-0.1C22 79.1 22 79 22 78.7v-1.1l1.4 0.1v2.4c-0.8 0.4-1.9 0.6-2.8 0.6 -2.8 0-4.4-1.6-4.4-4.8 0-3.7 2.2-4.9 4.4-4.9 0.8 0 1.8 0.2 2.6 0.6V74l-1.4 0.1V73c0-0.3 0-0.4-0.3-0.5C21.2 72.4 20.8 72.4 20.6 72.4z"/>
                <path class="st3" d="M27.8 73.2c1 0 3.1 0.3 3.1 3.5 0 2.7-1.5 3.9-3.3 3.9 -1.9 0-3.1-1.2-3.1-3.7C24.5 74 26.4 73.2 27.8 73.2zM29.2 77c0-1.6-0.4-2.5-1.5-2.5s-1.6 1-1.6 2.3 0.2 2.7 1.5 2.7C28.8 79.5 29.2 78.5 29.2 77z"/>
                <path class="st3" d="M31.8 73.4h2.4v0.9c0.5-0.7 1.2-1.1 2.1-1.1 0.9 0 1.5 0.4 1.9 1.1 0.5-0.7 1.2-1.1 2.1-1.1 1.3 0 2.1 0.8 2.1 2.4v3.7h0.8v1.1h-3.3v-1.1h0.5c0.3 0 0.4-0.1 0.4-0.4V76c0-0.9-0.1-1.5-1-1.5s-1.4 0.6-1.4 1.4v3.4h0.8v1.1h-3.3v-1.1h0.5c0.3 0 0.4-0.1 0.4-0.5V76c0-0.9-0.1-1.5-1-1.5 -1 0-1.4 0.7-1.4 1.4v3.4h0.8v1.1h-3.3v-1.1h0.5c0.3 0 0.4-0.1 0.4-0.5l0 0v-3.9c0-0.3-0.1-0.4-0.4-0.4h-0.6C31.8 74.5 31.8 73.4 31.8 73.4z"/>
                <path class="st3" d="M43.9 73.4h2.4v0.9c0.5-0.7 1.2-1.1 2.1-1.1 0.9 0 1.5 0.4 1.9 1.1 0.5-0.7 1.2-1.1 2.1-1.1 1.3 0 2.1 0.8 2.1 2.4v3.7h0.8v1.1H52v-1.1h0.5c0.3 0 0.4-0.1 0.4-0.4V76c0-0.9-0.1-1.5-1-1.5s-1.4 0.6-1.4 1.4v3.4h0.8v1.1H48v-1.1h0.5c0.3 0 0.4-0.1 0.4-0.5V76c0-0.9-0.1-1.5-1-1.5 -1 0-1.4 0.7-1.4 1.4v3.4h0.8v1.1H44v-1.1h0.5c0.3 0 0.4-0.1 0.4-0.5l0 0v-3.9c0-0.3-0.1-0.4-0.4-0.4h-0.6V73.4z"/>
                <path class="st3" d="M63.6 80.5h-2.3v-0.9c-0.5 0.7-1.3 1.1-2.3 1.1 -1.4 0-2.2-0.8-2.2-2.4V75c0-0.3-0.1-0.4-0.3-0.4h-0.4v-1.1h2.5v4.4c0 0.9 0.1 1.5 1 1.5 1 0 1.5-0.7 1.5-1.4v-3c0-0.3-0.1-0.4-0.3-0.4h-0.4v-1.1h2.5V79c0 0.3 0.1 0.4 0.4 0.4h0.5v1.1H63.6z"/>
                <path class="st3" d="M64.3 73.4h2.4v0.9c0.5-0.7 1.3-1.1 2.3-1.1 1.4 0 2.2 0.8 2.2 2.4v3.7H72v1.1h-3.3v-1.1h0.5c0.3 0 0.4-0.1 0.4-0.5V76c0-0.9-0.2-1.5-1.1-1.5s-1.4 0.7-1.4 1.4v3.4h0.8v1.1h-3.3v-1.1h0.5c0.3 0 0.4-0.1 0.4-0.5V75c0-0.3-0.1-0.4-0.4-0.4h-0.6v-1.2H64.3z"/>
                <path class="st3" d="M75.3 79.3h0.8v1.1h-3.3v-1.1h0.5c0.3 0 0.4-0.1 0.4-0.4V75c0-0.3-0.1-0.4-0.4-0.4h-0.5v-1.2h2.5V79.3zM74.4 70.4c0.6 0 1.1 0.5 1.1 1 0 0.6-0.4 1-1.1 1 -0.6 0-1.1-0.4-1.1-1C73.3 70.9 73.7 70.4 74.4 70.4z"/>
                <path class="st3" d="M79.4 72v1.5h1.9l-0.1 1.2h-1.7v3.7c0 0.9 0.3 1.1 0.9 1.1 0.4 0 0.7-0.2 1-0.3l0.4 1.1c-0.4 0.3-1.1 0.5-1.8 0.5 -2.2 0-2.2-1.3-2.2-2.3v-3.7h-1l0.1-1c1-0.1 1.3-0.8 1.6-1.6h0.9V72z"/>
                <path class="st3" d="M87.4 79.2c-0.5 0.7-1.3 1.1-2.3 1.1 -1.4 0-2.2-0.8-2.2-2.4V75c0-0.3-0.1-0.4-0.4-0.4h-0.4v-1.1h2.5v4c0 0.9 0.1 1.5 1 1.5 1 0 1.5-0.7 1.5-1.4V75c0-0.3-0.1-0.4-0.4-0.4h-0.4v-1.1h2.5v6.8c0 2.3-1.2 3.3-3.2 3.3 -0.9 0-2-0.2-2.6-0.5v-1.9l1.3-0.1v0.7c0 0.3 0.1 0.4 0.3 0.5 0.3 0.1 0.6 0.1 1 0.1 1.3 0 1.8-0.8 1.8-2.1C87.4 80.3 87.4 79.2 87.4 79.2z"/>
              </g>
              <g id="community-icon" transform="translate(37.308063, 32.955341)" sketch:type="MSShapeGroup">
                <path id="Oval-26" class="st3" d="M11.4 11.1c2.8 1.6 4.8 5.5 4.8 10l0 0c-2.5 1.2-5.5 1.9-8.6 1.9 -2.4 0-4.7-0.4-6.8-1.1 0-0.2 0-0.4 0-0.7 0-4.7 2.1-8.7 5-10.2 -1.4-1-2.4-2.7-2.4-4.7 0-3.1 2.4-5.6 5.3-5.6S14 3.3 14 6.3C14 8.4 13 10.1 11.4 11.1z"/>
                <path id="Oval-26_1_" class="st3" d="M29.2 11.1C32 12.7 34 16.7 34 21.2c0 0.1 0 0.2 0 0.3l0 0c-2.3 0.9-4.9 1.5-7.7 1.5s-5.4-0.5-7.7-1.5c0-0.1 0-0.2 0-0.3 0-4.7 2.1-8.7 5-10.2 -1.4-1-2.4-2.7-2.4-4.7 0-3.1 2.4-5.6 5.3-5.6s5.3 2.5 5.3 5.6C31.7 8.4 30.7 10.1 29.2 11.1z"/>
                <path id="Oval-25" class="st4" d="M20.9 13.3c3.4 1.8 5.8 6.2 5.8 11.2 0 0.1 0 0.2 0 0.3l0 0c-2.7 1-5.9 1.6-9.2 1.6s-6.5-0.6-9.2-1.6c0-0.1 0-0.2 0-0.3 0-5.2 2.5-9.6 6-11.4 -1.7-1.1-2.9-3-2.9-5.2 0-3.4 2.8-6.2 6.3-6.2S24 4.5 24 7.9C23.9 10.3 22.7 12.2 20.9 13.3z"/>
              </g>
            </g>
          </g>
        </g>
      </g>
    </g>
  </g>
</svg>
