<?xml version="1.0" encoding="utf-8"?>
<!-- Generator: Adobe Illustrator 20.1.0, SVG Export Plug-In . SVG Version: 6.00 Build 0)  -->
<svg version="1.1" id="Layer_1" xmlns="http://www.w3.org/2000/svg" xmlns:xlink="http://www.w3.org/1999/xlink" x="0px" y="0px"
	 width="44px" height="44px" viewBox="0 0 44 44" style="enable-background:new 0 0 44 44;" xml:space="preserve">
<style type="text/css">
	.st0{fill:none;stroke:#313133;stroke-width:2;stroke-linecap:round;stroke-linejoin:round;stroke-dasharray:1,3;}
	.st1{fill:#313133;}
	.st2{fill:none;stroke:#EFEFEF;stroke-width:2;}
</style>
<title>Community-icon</title>
<desc>Created with Sketch.</desc>
<g id="Page-1">
	<g id="Dashboard---Credits" transform="translate(-462.000000, -742.000000)">
		<g id="Community-icon" transform="translate(463.000000, 743.000000)">
			<path id="Stroke-3" class="st0" d="M39.5,29.9c1.3-2.7,2-5.7,2-8.9C41.5,9.7,32.3,0.5,21,0.5S0.5,9.7,0.5,21
				c0,8.8,5.6,16.3,13.5,19.3c2.2,0.9,4.6,1.2,7,1.2C29.1,41.5,36.2,36.8,39.5,29.9L39.5,29.9z"/>
			<g id="Group" transform="translate(8.000000, 11.000000)">
				<path id="Fill-5" class="st1" d="M15.9,10.3c2.6,1.4,4.4,4.7,4.4,8.6v0.3c-2.1,0.8-4.5,1.2-7.1,1.2s-5-0.5-7.1-1.2v-0.3
					c0-4,1.9-7.3,4.6-8.7C9.5,9.4,8.6,8,8.6,6.3c0-2.6,2.2-4.7,4.8-4.7s4.8,2.1,4.8,4.7C18.2,8,17.3,9.5,15.9,10.3"/>
				<path id="Stroke-7" class="st2" d="M15.9,10.3c2.6,1.4,4.4,4.7,4.4,8.6v0.3c-2.1,0.8-4.5,1.2-7.1,1.2s-5-0.5-7.1-1.2v-0.3
					c0-4,1.9-7.3,4.6-8.7C9.5,9.4,8.6,8,8.6,6.3c0-2.6,2.2-4.7,4.8-4.7s4.8,2.1,4.8,4.7C18.2,8,17.3,9.5,15.9,10.3L15.9,10.3z"/>
				<path id="Fill-9" class="st1" d="M9.1,10.1c-0.9-1-1.5-2.4-1.5-3.8c0-1.7,0.7-3.2,1.9-4.2C8.8,1.3,7.7,0.8,6.6,0.8
					c-2.2,0-4,1.9-4,4.2c0,1.5,0.7,2.8,1.8,3.5c-2.3,1.2-3.9,4.3-3.9,7.9v0.5c1.4,0.5,3,0.8,4.7,0.8C5.5,14.5,6.9,11.7,9.1,10.1"/>
				<path id="Fill-11" class="st1" d="M22.3,8.7c1.2-0.7,2-2.1,2-3.6c0-2.3-1.8-4.2-4-4.2c-1.1,0-2.2,0.5-2.9,1.3
					c1.2,1,1.9,2.6,1.9,4.2c0,1.5-0.6,2.9-1.6,4c2,1.6,3.4,4.3,3.6,7.4c1.7-0.1,3.3-0.5,4.7-1.1v-0.2C26,12.9,24.4,9.9,22.3,8.7"/>
			</g>
		</g>
	</g>
</g>
</svg>
