<?xml version="1.0" encoding="UTF-8"?><svg width="25" height="37" xmlns="http://www.w3.org/2000/svg"><g fill="none" fill-rule="evenodd"><g transform="translate(-10 -4)" fill="#555555"><path d="M15.147 29c2.156 1.27 4.67 2 7.353 2 2.684 0 5.197-.73 7.353-2H30v12l-7.33-3.586L15 41V29h.147zm7.353 0C15.596 29 10 23.404 10 16.5S15.596 4 22.5 4 35 9.596 35 16.5 29.404 29 22.5 29zm0-8.391L27.135 23l-.885-5.065L30 14.348l-5.182-.74L22.5 9l-2.318 4.609-5.182.739 3.75 3.587L17.865 23l4.635-2.391z"/></g></g></svg>