<?xml version="1.0" encoding="utf-8"?>
<!-- Generator: Adobe Illustrator 19.2.0, SVG Export Plug-In . SVG Version: 6.00 Build 0)  -->
<svg version="1.1" id="Layer_1" xmlns="http://www.w3.org/2000/svg" xmlns:xlink="http://www.w3.org/1999/xlink" x="0px" y="0px"
	 width="20px" height="14px" viewBox="0 0 20 14" style="enable-background:new 0 0 20 14;" xml:space="preserve">
<style type="text/css">
	.st0{fill:#FFFFFF;}
</style>
<title>contact-message</title>
<desc>Created with Sketch.</desc>
<g id="Ad-details">
	<g id="Property-share---1st-tab-4" transform="translate(-1113.000000, -31.000000)">
		<g id="Top-header" transform="translate(0.000000, -1.000000)">
			<g id="Blue--CTA-Contact_3" transform="translate(937.000000, 10.000000)">
				<g id="contact" transform="translate(175.000000, 18.000000)">
					<path id="contact-message" class="st0" d="M11,12.4L11,12.4c0.2,0,0.3,0,0.4-0.1l0,0c0,0,0,0,0,0l0.4-0.3L21,4c0,0-0.1,0-0.1,0
						H1.1c0,0,0,0-0.1,0l9.5,8.2C10.7,12.3,10.8,12.4,11,12.4L11,12.4z M1,5.1v11.6L7.8,11L1,5.1L1,5.1z M14.2,11l6.8,5.7V5.2
						L14.2,11L14.2,11z M12,12.9c-0.3,0.2-0.6,0.4-1,0.4c-0.4,0-0.7-0.1-1-0.4l-1.6-1.3L1,17.9v0C1,17.9,1,18,1.1,18h19.8
						c0.1,0,0.1-0.1,0.1-0.1v0l-7.5-6.3L12,12.9L12,12.9z"/>
				</g>
			</g>
		</g>
	</g>
</g>
</svg>
