<svg xmlns="http://www.w3.org/2000/svg" version="1.1" x="0" y="0" width="32" height="26" viewBox="0 0 32 26" xml:space="preserve"><style type="text/css">
	.st0{fill:#FFFFFF;}
</style><title>contact icon</title><desc>Created with Sketch.</desc><g transform="translate(-1135.000000, -637.000000)"><g transform="translate(174.000000, 447.000000)"><g transform="translate(742.000000, 0.000000)"><g transform="translate(20.000000, 173.000000)"><g transform="translate(199.000000, 17.000000)"><path class="st0" d="M19.7 19.7c-3-2.3-3.9-1.1-5.3 0.3 -1 1-3.4-0.9-5.5-3 -2.1-2-4-4.4-3-5.4 1.5-1.4 2.7-2.3 0.3-5.3 -2.4-3-4.1-0.6-5.5 0.8 -1.6 1.6-0.4 7.3 5.2 12.8 5.5 5.5 11.3 6.7 12.9 5.1C20.2 23.8 22.7 22.1 19.7 19.7M21.3 9.2L21.3 9.2c0.2 0 0.3 0 0.4-0.1l0 0c0 0 0 0 0 0l0.4-0.3 9.1-8c0 0-0.1 0-0.1 0H11.4c0 0 0 0-0.1 0L20.8 9C21 9.1 21.1 9.2 21.3 9.2L21.3 9.2zM11.3 1.7v11.9l6.8-5.9L11.3 1.7 11.3 1.7zM24.5 7.8l6.8 5.8V1.8L24.5 7.8 24.5 7.8zM22.3 9.7c-0.3 0.2-0.6 0.4-1 0.4 -0.4 0-0.7-0.1-1-0.4l-1.6-1.4 -7.5 6.4v0c0 0.1 0 0.1 0.1 0.1h19.8c0.1 0 0.1-0.1 0.1-0.1v0l-7.5-6.4L22.3 9.7 22.3 9.7z"/></g></g></g></g></g></svg>