<?xml version="1.0" encoding="utf-8"?>
<!-- Generator: Adobe Illustrator 19.2.0, SVG Export Plug-In . SVG Version: 6.00 Build 0)  -->
<svg version="1.1" id="Layer_1" xmlns="http://www.w3.org/2000/svg" xmlns:xlink="http://www.w3.org/1999/xlink" x="0px" y="0px"
	 width="20px" height="20px" viewBox="0 0 20 20" style="enable-background:new 0 0 20 20;" xml:space="preserve">
<style type="text/css">
	.st0{fill:#FFFFFF;}
</style>
<title>contact-message</title>
<desc>Created with Sketch.</desc>
<g id="Ad-details">
	<g id="Property-share---1st-tab-4" transform="translate(-1112.000000, -27.000000)">
		<g id="Top-header" transform="translate(0.000000, -1.000000)">
			<g id="Blue--CTA-Contact_3" transform="translate(937.000000, 10.000000)">
				<g id="contact" transform="translate(175.000000, 18.000000)">
					<path id="contact-phone" class="st0" d="M18.7,14.1c-2.8-2.2-3.8-1.1-5.1,0.3c-0.9,1-3.2-0.9-5.2-2.8c-2-2-3.8-4.2-2.8-5.2
						C6.9,5,8.1,4.2,5.8,1.3C3.5-1.5,2,0.8,0.6,2.1c-1.6,1.5-0.3,7,4.9,12.3c5.3,5.3,10.7,6.5,12.3,4.9C19.2,18,21.5,16.4,18.7,14.1
						"/>
				</g>
			</g>
		</g>
	</g>
</g>
</svg>
