<svg xmlns="http://www.w3.org/2000/svg" version="1.1" x="0" y="0" width="112" height="112" viewBox="0 0 112 112" xml:space="preserve"><style type="text/css">
	.st0{fill:#FFFFFF;}
	.st1{fill:#313133;}
	.st2{fill:#EFEFEF;}
</style><title>Convertibles</title><desc>Created with Sketch.</desc><g transform="translate(-732.000000, -807.000000)"><g transform="translate(-43.000000, 537.000000)"><g transform="translate(227.000000, 242.000000)"><g transform="translate(132.000000, 20.000000)"><g transform="translate(416.000000, 8.000000)"><path class="st0" d="M111.4 55.7c0-30.6-24.9-55.5-55.5-55.5S0.4 25.1 0.4 55.7c0 30.6 24.9 55.5 55.5 55.5S111.4 86.3 111.4 55.7"/><g transform="translate(17.000000, 37.000000)"><path class="st1" d="M16.4 13.4c-3.2 0-5.8 2.6-5.8 5.9 0 3.3 2.6 5.9 5.8 5.9s5.8-2.6 5.8-5.9C22.2 16 19.6 13.4 16.4 13.4L16.4 13.4zM16.4 23.8c-2.4 0-4.4-2-4.4-4.5 0-2.5 2-4.5 4.4-4.5s4.4 2 4.4 4.5C20.8 21.8 18.8 23.8 16.4 23.8L16.4 23.8zM67 13.4c-3.2 0-5.8 2.6-5.8 5.9 0 3.3 2.6 5.9 5.8 5.9 3.2 0 5.8-2.6 5.8-5.9C72.8 16 70.2 13.4 67 13.4L67 13.4zM67 23.8c-2.4 0-4.4-2-4.4-4.5 0-2.5 2-4.5 4.4-4.5 2.4 0 4.4 2 4.4 4.5C71.4 21.8 69.5 23.8 67 23.8L67 23.8zM4.1 7.8c0 0 0 0.1 0 0.1L4.1 7.8 4.1 7.8M74.5 11.7c-0.9-0.7-2-1.1-3.1-1.3L60.2 8.7c0 0 0 0 0 0 -2.7-0.5-7-2.5-7.5-2.8 -11-6.8-18.2-5.4-20-5.3 0 1.5 0 7.3 0 7.3l-28.5 0v1.4c0.4 0.2 0.7 0.7 0.7 1.2s-0.3 0.9-0.7 1.2c0 0-0.1 0.1-0.2 0.1 -0.1 0.1-0.5 0.1-0.5 0.1C0.3 12.6 0.6 16 0.6 16c0 4.2 5 4.5 5 4.5h3.7 0.3c0-0.3-0.1-0.9-0.1-1.2 0-3.9 3-7 6.8-7s6.8 3.1 6.8 7c0 0.4 0 0.8-0.1 1.2h37.2c-0.1-0.4-0.1-0.8-0.1-1.2 0-3.9 3-7 6.8-7 3.8 0 6.8 3.1 6.8 7 0 0.4 0 0.8-0.1 1.2h4.2v-1.2c0 0 0-0.1 0-0.1C77.9 19.3 77.7 14.1 74.5 11.7L74.5 11.7zM34.7 8V2.2c8.5-0.5 13.8 3.2 13.8 3.2l5.3 3.2L34.7 8 34.7 8zM34.4 13h3.1v1.1h-3.1V13z"/></g><path class="st1" d="M22.8 72.2c0.3 0.1 0.3 0.2 0.3 0.5v1.1l1.4-0.1v-2.4c-0.8-0.4-1.8-0.6-2.6-0.6 -2.2 0-4.4 1.2-4.4 4.9 0 3.2 1.6 4.8 4.4 4.8 0.9 0 2-0.2 2.8-0.6v-2.4l-1.4-0.1v1.1c0 0.3 0 0.4-0.3 0.5 -0.3 0.1-0.6 0.1-1 0.1 -1.9 0-2.7-1.3-2.7-3.5 0-2.1 0.9-3.4 2.6-3.4C22.2 72.1 22.5 72.1 22.8 72.2L22.8 72.2zM29 79.2c-1.3 0-1.5-1.4-1.5-2.7 0-1.3 0.4-2.3 1.6-2.3 1.1 0 1.5 1 1.5 2.5C30.6 78.2 30.1 79.2 29 79.2L29 79.2zM25.8 76.7c0 2.5 1.2 3.7 3.1 3.7 1.8 0 3.3-1.2 3.3-3.9 0-3.2-2.1-3.5-3.1-3.5C27.7 72.9 25.8 73.7 25.8 76.7L25.8 76.7zM33.1 74.3l0.6 0c0.3 0 0.4 0.1 0.4 0.4v3.9c0 0.3-0.1 0.4-0.4 0.5l-0.5 0v1.1h3.3v-1.1l-0.8 0v-3.4c0-0.7 0.5-1.4 1.4-1.4 1 0 1.1 0.6 1.1 1.5v2.9c0 0.3-0.1 0.4-0.4 0.5l-0.5 0v1.1h3.3v-1.1L40 79v-3.7c0-1.7-0.8-2.4-2.2-2.4 -0.9 0-1.8 0.4-2.3 1.1v-0.9h-2.4V74.3zM43.4 73.1v1.1l0.7 0 -1.4 4.6h0l-1.4-4.6 0.9 0v-1.1h-3.3v1.1l0.4 0c0.3 0 0.3 0.1 0.4 0.3l2 5.6h2.1l1.8-5.6c0.1-0.3 0.2-0.3 0.4-0.3l0.4 0v-1.1H43.4zM50.5 72.9c-2.3 0-3.5 1.8-3.5 3.9 0 2.1 0.9 3.5 3.3 3.5 1.3 0 2.2-0.6 2.5-0.8l-0.5-1.1c-0.3 0.2-0.9 0.6-1.8 0.6 -1.2 0-1.7-0.7-1.7-1.7 1.7 0 4-0.4 4-2.5C52.8 73.6 51.9 72.9 50.5 72.9L50.5 72.9zM51.2 74.9c0 1.1-1.5 1.3-2.5 1.3 0-1 0.5-2.1 1.7-2.1C50.9 74.1 51.2 74.4 51.2 74.9L51.2 74.9zM54.6 78.6c0 0.3-0.1 0.4-0.4 0.5l-0.5 0v1.1h3.8v-1.1L56.3 79v-3.2c0-0.8 0.5-1.4 1.3-1.4 0.2 0 0.3 0 0.4 0.1 0.1 0.1 0.1 0.2 0.1 0.3v0.6l1.3-0.1v-2.1c-0.5-0.2-0.9-0.3-1.3-0.3 -0.9 0-1.7 0.6-2 1.3v-1.1h-2.4v1.1l0.6 0c0.3 0 0.4 0.1 0.4 0.4V78.6zM61.8 71.7c-0.3 0.8-0.6 1.6-1.6 1.6l-0.1 1h1v3.7c0 1 0 2.3 2.2 2.3 0.7 0 1.4-0.2 1.8-0.5l-0.4-1.1c-0.2 0.1-0.6 0.3-1 0.3 -0.6 0-0.9-0.3-0.9-1.1v-3.7h1.7l0.1-1.2h-1.9v-1.5H61.8zM68 73.1h-2.5v1.2l0.5 0c0.3 0 0.3 0.1 0.3 0.4v3.9c0 0.3-0.2 0.4-0.4 0.4l-0.5 0v1.1h3.3v-1.1L68 79V73.1zM66 71.2c0 0.6 0.4 1 1.1 1 0.6 0 1.1-0.4 1.1-1s-0.4-1.1-1.1-1.1C66.4 70.1 66 70.6 66 71.2L66 71.2zM70.2 79.8c0.6 0.3 1.8 0.6 2.8 0.6 2.3 0 3.4-1.3 3.4-4 0-2.2-1.1-3.4-2.9-3.4 -0.7 0-1.3 0.2-1.7 0.6v-3.3h-2.5v1.2l0.5 0c0.2 0 0.3 0.1 0.3 0.3V79.8zM71.9 75.2c0-0.6 0.6-1 1.3-1 1.3 0 1.6 1.3 1.6 2.4 0 1.9-0.6 2.6-1.6 2.6 -0.5 0-1-0.1-1.2-0.3V75.2zM79.9 70.2h-2.5v1.2l0.5 0c0.2 0 0.3 0.1 0.3 0.3v6.9c0 0.3-0.2 0.4-0.4 0.4l-0.5 0v1.1h3.3v-1.1l-0.8 0V70.2zM85.1 72.9c-2.3 0-3.5 1.8-3.5 3.9 0 2.1 0.9 3.5 3.3 3.5 1.3 0 2.2-0.6 2.5-0.8l-0.5-1.1c-0.3 0.2-0.9 0.6-1.8 0.6 -1.2 0-1.7-0.7-1.7-1.7 1.7 0 4-0.4 4-2.5C87.4 73.6 86.5 72.9 85.1 72.9L85.1 72.9zM85.8 74.9c0 1.1-1.5 1.3-2.5 1.3 0-1 0.5-2.1 1.7-2.1C85.5 74.1 85.8 74.4 85.8 74.9L85.8 74.9zM92 74.2c0.3 0.1 0.3 0.2 0.3 0.5v0.6l1.3-0.1v-1.7c-0.5-0.3-1.4-0.6-2.3-0.6 -1.5 0-2.7 0.8-2.7 2.2 0 1.6 1.1 1.9 2.2 2.2 0.8 0.2 1.4 0.3 1.4 1 0 0.6-0.4 0.9-1.1 0.9 -0.3 0-0.7 0-0.9-0.1 -0.3-0.1-0.3-0.2-0.3-0.5v-0.7L88.5 78v1.9c0.6 0.3 1.7 0.4 2.6 0.4 1.5 0 2.7-0.8 2.7-2.2 0-1.5-1.2-1.9-2.3-2.2 -0.7-0.2-1.3-0.4-1.3-1 0-0.6 0.4-0.8 1.1-0.8C91.6 74.1 91.8 74.1 92 74.2L92 74.2z"/></g></g></g></g></g></svg>