<svg xmlns:sketch="http://www.bohemiancoding.com/sketch/ns" xmlns="http://www.w3.org/2000/svg" xmlns:xlink="http://www.w3.org/1999/xlink" version="1.1" id="Layer_1" x="0" y="0" width="126" height="66" viewBox="0 0 126 66" xml:space="preserve" enable-background="new 0 0 126 66">
  <style type="text/css">
    
	.st0{fill:#31C5F2;}
	.st1{fill:#313133;}
	.st2{fill:#FFFFFF;}
	.st3{fill:#D89830;}
	.st4{fill:#E5A32E;}
	.st5{fill:#5B3F16;}
	.st6{fill:#BF832C;}

  </style>
  <path class="st0" d="M123.8 55.5c2.7-1.3 0.1-5.4 0.1-5.4 1.4-1.3-4.2-5.2-4.2-5.2 0.3-2.6-1.7-4.6-1.7-4.6 0.8-3-1-3.2-1-3.2l-0.2-1.5c-0.2-1.5-6.7-0.9-6.7-0.9 1.5-3.3-3.3-4.3-3.3-4.3 0-3.9-5.1-2-5.1-2 -0.2-2.3-1.7-1.9-2.9-1.1 0.6 1.1 0.9 2.4 0.9 3.8 0 4.7-3.8 8.5-8.6 8.5 -4.7 0-8.6-3.8-8.6-8.5 0-1.3 0.3-2.5 0.8-3.7 -0.8 0.2-1.4 0.5-1.4 0.5 -1.8-1.2-3 0.1-3.6 1.1 1.7 1.6 2.8 3.8 2.8 6.3 0 4.7-3.8 8.5-8.6 8.5 -4.7 0-8.6-3.8-8.6-8.5 0-0.6 0.1-1.1 0.2-1.7 -1.1 1.1-1.6 3-1.6 3 -5.7 1.3-2.6 5.5-2.6 5.5 -4.2-1.8-1.8 4.6-1.8 4.6 -8.2 0.7-1.2 6.3-1.2 6.3 -3.4 2.3 0.3 6.4 0.3 6.4 -4.1 0.9-1.7 6.5-1.8 6.4 -1.5 2.4 3.1 6.1 3.1 6.1 -1.1 4 3.8 4.6 3.8 4.6 -1.4 1.7 3.9 5.2 3.9 5.2 -0.1 3.1 3.4 2 3.4 2 -1.5 2.9 5.2 0.5 5.2 0.5 -0.9 3.6 3.6 1.6 3.6 1.6 -0.1 5.1 6.7 0.8 6.7 0.8 2.5 4.5 8.2-0.2 8.2-0.2 1.2 3.5 4.1-0.9 4.1-0.9 0.8 3.6 4.9-0.5 4.9-0.5 1.1 2.5 4.8-1.7 4.8-1.7 3.2 2 4.3-5.1 4.3-5.1 2.1 0.2 3.9-3.3 3.9-3.3 3 2.4 3.6-2.9 3.6-2.9 4-0.6 2.2-5.6 2.2-5.6 2.3 0.2 1.8-4.8 1.8-4.8 3-1.8-1.9-4.7-1.9-4.7S121.1 56.8 123.8 55.5z"/>
  <path class="st1" d="M107.9 47.3c-1.3 2.6-4.2 0.3-4.2 0.3 -0.6 3.3-4.9 1.6-4.9 1.6 -0.7 1.9-4.8 0.5-4.8 0.5 -1.4 3.4-5 0.3-5.5-0.1 -0.1 0-0.1 0-0.2 0 0 0-1.9 5.2-4.9 2.5 0 0-3 3-4.5 1.6 0 0-3 3.4-5.1 0.7 0 0-1.6 3.3-3.9 1.5 0 0-1.3 0.5-2.5 0.4 31.3 22 40-4.4 41.4-9.3C108.4 47.3 107.9 47.3 107.9 47.3z"/>
  <ellipse class="st2" cx="91.3" cy="31.1" rx="8.6" ry="8.5"/>
  <ellipse class="st2" cx="72.8" cy="35.3" rx="8.6" ry="8.5"/>
  <ellipse class="st1" cx="88.4" cy="28.9" rx="4" ry="4"/>
  <title>
    cookiemonster copy
  </title>
  <desc>
    Created with Sketch.
  </desc>
  <path id="Oval_1_" class="st3" d="M35.9 34.9C53 30.5 64.8 22 62.4 16s-18.1-7.2-35.1-2.8S-1.6 26.1 0.8 32.1 18.9 39.3 35.9 34.9L35.9 34.9z"/>
  <path class="st4" d="M62.9 17.4c-0.1-0.2-0.2-0.4-0.3-0.6 1 5.9-10.5 13.8-26.7 18C19.4 39.1 4.2 38 1 32.6c0.1 0.5 0.2 0.9 0.3 1.4 2.6 6.8 18.5 8.6 35.5 4.1C53.9 33.5 65.6 24.3 62.9 17.4z"/>
  <path id="Oval_2_" class="st5" d="M10.5 22.8c1.4-0.4 2.3-1.5 2-2.4s-1.7-1.3-3.1-0.9 -2.3 1.5-2 2.4S9.1 23.2 10.5 22.8L10.5 22.8z"/>
  <path id="Shape" class="st5" d="M54.1 19.4c0 0 2.8-3 0.4-3.8 -2.4-0.8-2.6-2.1-4.3-0.3s-2.4 5 0.8 4.5L54.1 19.4 54.1 19.4z"/>
  <path id="Shape_1_" class="st5" d="M19.4 37.9c0 0-0.5-2.4 1.5-1.8 2 0.6 5 2.5 3.5 3.3 -1.6 0.8-2.7 3.3-4.1 1.3S19.4 37.9 19.4 37.9L19.4 37.9z"/>
  <path id="Shape_2_" class="st5" d="M40.7 14.1c1.3 0.8 3.7-0.6 3.7-0.6s1.8-1.8-0.5-3.5c-2.2-1.6-2.4 1.4-2.4 1.4S39 12.9 40.7 14.1L40.7 14.1z"/>
  <path id="Shape_3_" class="st5" d="M31.4 21.9c0 0 0.8-3.7 2.6-2.2 1.8 1.6 5.5 0.6 5.5 2.2 0 1.5-4.1 5.3-5.2 3.6C33.2 24 30.7 23.9 31.4 21.9L31.4 21.9z"/>
  <path id="Shape_4_" class="st5" d="M8.8 31.5c-0.6 2.4-0.2 4.6 1.7 4.3s5-3.1 3-3.7C11.6 31.5 9.1 30.3 8.8 31.5L8.8 31.5z"/>
  <path id="Shape_5_" class="st5" d="M25.9 15.3c-0.1-3.5-4.3-2.9-5.6-1.8 -1.2 1.1-3.4 3.6-1.3 4.1 2 0.4 2.8-1.3 4-1.6C24.2 15.8 26 18.9 25.9 15.3L25.9 15.3z"/>
  <path id="Shape_6_" class="st5" d="M42.8 31.7c1.9 1.1 3.4 3.6 5.1 1.2 1.6-2.4 0.9-4.5 0.1-4.9 -0.8-0.4-4.7 1.6-4.7 1.6L42.8 31.7 42.8 31.7z"/>
  <path id="Shape_7_" class="st6" d="M53.8 27.6c-0.4-0.2-0.7-0.5-1-0.8s-0.6-0.6-0.9-0.9c-0.3-0.3-0.6-0.6-0.8-1 -0.3-0.3-0.5-0.7-0.8-1l0.5 0.2c-0.8-0.1-1.6-0.3-2.4-0.3 -0.4 0-0.8 0-1.2 0S46.4 23.9 46 24c-0.2 0-0.3 0-0.4-0.2v-0.1c-0.2-0.4-0.4-0.9-0.6-1.3 -0.2-0.4-0.4-0.9-0.6-1.4 -0.1-0.2-0.2-0.5-0.3-0.7s-0.2-0.5-0.2-0.7c-0.2-0.5-0.3-0.9-0.4-1.4l0.8 0.6h-1.1c-0.4 0-0.7 0-1.1-0.1s-0.7-0.1-1.1-0.1c-0.4 0-0.7-0.1-1.1-0.2 0 0-0.1 0 0-0.1l0 0c0.4-0.2 0.7-0.2 1.1-0.4 0.4-0.1 0.7-0.2 1.1-0.3s0.7-0.2 1.1-0.2c0.4-0.1 0.7-0.1 1.1-0.2 0.4 0 0.7 0.2 0.8 0.5v0.1c0.2 0.4 0.3 0.9 0.5 1.4 0.1 0.2 0.1 0.5 0.2 0.7 0 0.2 0.1 0.5 0.2 0.7 0.1 0.5 0.2 1 0.3 1.4 0.1 0.5 0.2 1 0.2 1.5L46 23.4c0.4 0 0.8 0.1 1.2 0.1s0.8 0 1.2 0c0.8-0.1 1.6-0.4 2.4-0.5 0.2 0 0.3 0 0.4 0.1l0.1 0.1c0.3 0.3 0.6 0.6 0.8 1s0.5 0.7 0.7 1c0.2 0.4 0.4 0.7 0.6 1.1 0.2 0.4 0.4 0.8 0.5 1.2v0.1C53.9 27.6 53.8 27.6 53.8 27.6L53.8 27.6z"/>
  <path id="Shape_8_" class="st6" d="M20.4 29.6c-0.2 0.3-0.3 0.6-0.5 0.8 -0.2 0.2-0.4 0.5-0.6 0.7 -0.4 0.4-0.8 0.9-1.3 1.2l0.2-0.4c0 0.6-0.1 1.2-0.1 1.8 0 0.6 0.2 1.2 0.3 1.7 0 0.1 0 0.2-0.1 0.2h-0.1c-0.3 0.2-0.6 0.4-0.9 0.6 -0.3 0.2-0.6 0.3-0.9 0.5s-0.6 0.3-1 0.4c-0.3 0.2-0.6 0.3-1 0.4l0.4-0.6c0 0.5 0.1 1 0.1 1.5s0 1-0.1 1.6c0 0 0 0-0.1 0l0 0c-0.2-0.5-0.4-1-0.6-1.4s-0.3-1-0.4-1.5c0-0.2 0.1-0.5 0.3-0.6h0.1c0.3-0.2 0.6-0.3 1-0.4 0.3-0.1 0.6-0.2 1-0.4 0.3-0.1 0.6-0.2 1-0.3 0.3-0.1 0.7-0.2 1-0.2L18 35.4c0-0.6 0-1.2-0.1-1.7s-0.4-1.1-0.5-1.7c0-0.1 0-0.2 0.1-0.3l0.1-0.1c0.4-0.5 0.8-0.8 1.3-1.2 0.2-0.2 0.5-0.4 0.8-0.5 0.2-0.2 0.5-0.3 0.8-0.4h0.1C20.4 29.6 20.4 29.6 20.4 29.6L20.4 29.6z"/>
  <path id="Oval_4_" class="st3" d="M83.5 0.3C75.7-0.8 69 1 68.5 4.2s5.4 6.7 13.2 7.8 14.5-0.7 15-3.9S91.3 1.4 83.5 0.3L83.5 0.3z"/>
  <path class="st4" d="M81.7 11.9c-7.4-1-13-4.2-13.2-7.2 0 0.1 0 0.1-0.1 0.2 -0.5 3.6 5.3 7.3 13.1 8.4s14.6-0.9 15.1-4.5c0-0.2 0-0.4 0-0.6C95.9 11.4 89.3 13 81.7 11.9z"/>
  <path id="Oval_5_" class="st5" d="M92.2 2.4C91.6 2.3 91 2.6 90.9 3s0.4 0.9 1.1 1 1.3-0.2 1.3-0.6S92.9 2.5 92.2 2.4L92.2 2.4z"/>
  <path id="Shape_9_" class="st5" d="M70.3 3.1c0 0-1.5-1.1-0.5-1.7 1-0.5 1-1.2 1.9-0.5s1.4 2.1 0 2.1L70.3 3.1 70.3 3.1z"/>
  <path id="Shape_10_" class="st5" d="M89.2 11.4c0 0 0-1.1-0.8-0.7 -0.9 0.4-2.1 1.5-1.3 1.7 0.8 0.3 1.5 1.3 1.9 0.3C89.5 11.7 89.2 11.4 89.2 11.4L89.2 11.4z"/>
  <path id="Shape_11_" class="st5" d="M80.5 2.7c-0.5 0.5-1.7 0-1.7 0s-0.9-0.7 0-1.6S80 1.6 80 1.6 81.2 2 80.5 2.7L80.5 2.7z"/>
  <path id="Shape_12_" class="st5" d="M82.6 5.1c0 0-0.6-1.6-1.3-0.8C80.6 5.2 78.9 5 79 5.7s2.2 2 2.6 1.2S83.1 5.9 82.6 5.1L82.6 5.1z"/>
  <path id="Shape_13_" class="st5" d="M93.4 7.7c0.5 1 0.5 2-0.4 2.1 -0.9 0-2.5-1-1.7-1.4C92.2 8 93.2 7.3 93.4 7.7L93.4 7.7z"/>
  <path id="Shape_14_" class="st5" d="M84.6 1.8c-0.2-1.6 1.7-1.6 2.3-1.2C87.5 1 88.7 2 87.8 2.3s-1.4-0.4-1.9-0.4C85.3 1.8 84.7 3.4 84.6 1.8L84.6 1.8z"/>
  <path id="Shape_15_" class="st5" d="M78.2 10.4C77.4 11 77 12.3 76 11.3c-0.9-0.9-0.7-2-0.4-2.2s2.2 0.4 2.2 0.4L78.2 10.4 78.2 10.4z"/>
  <path id="Shape_16_" class="st6" d="M72.9 9.3c0-0.2 0.1-0.4 0.2-0.6 0-0.2 0.1-0.4 0.2-0.6 0.2-0.3 0.3-0.7 0.5-1V7c0 0 0.1 0 0.2 0 0.4 0 0.8 0 1.1 0 0.4 0 0.7-0.1 1.1-0.2L76.1 7c0-0.2 0-0.5 0-0.7s0-0.5 0-0.7c0-0.5 0.1-0.9 0.2-1.3l0 0c0-0.2 0.2-0.3 0.3-0.3 0.6 0 1.3 0 2 0.2l0 0 0 0c-0.6 0.3-1.3 0.4-1.9 0.5L77 4.5c0 0.5-0.1 0.9-0.2 1.3 0 0.2-0.1 0.5-0.2 0.6 0 0.2-0.1 0.4-0.2 0.6v0.1c0 0.1-0.1 0.1-0.2 0.1 -0.4 0-0.8 0-1.1 0.1 -0.4 0.1-0.7 0.2-1.1 0.3l0.2-0.2c-0.2 0.4-0.3 0.7-0.6 1 -0.1 0.2-0.2 0.3-0.3 0.5C73.2 9.1 73 9.2 72.9 9.3 73 9.4 72.9 9.4 72.9 9.3 72.9 9.4 72.9 9.3 72.9 9.3L72.9 9.3z"/>
  <path id="Shape_17_" class="st6" d="M88.1 7.7c0.3 0.1 0.5 0.2 0.8 0.3 0.2 0.1 0.5 0.3 0.7 0.5l0 0c0 0 0.1 0.1 0 0.2 0 0.3-0.1 0.5-0.1 0.8s0 0.5 0.1 0.8l-0.1-0.1c0.3 0 0.6 0 0.9 0.1 0.3 0 0.6 0.1 0.9 0.2l0 0c0.1 0 0.2 0.2 0.2 0.2 0 0.5-0.1 0.9-0.2 1.4l0 0 0 0c-0.2-0.5-0.2-0.9-0.2-1.4l0.2 0.3c-0.3 0-0.6-0.2-0.9-0.2 -0.3-0.1-0.6-0.2-0.9-0.3l0 0 -0.1-0.1c0-0.3 0-0.5 0-0.8s-0.1-0.5-0.2-0.8L89.3 9c-0.2-0.1-0.5-0.3-0.7-0.5C88.4 8.2 88.2 8 88.1 7.7L88.1 7.7 88.1 7.7 88.1 7.7z"/>
  <path id="Oval_7_" class="st3" d="M112.5 19.1c5.2-1.4 8.8-3.9 8-5.8s-5.5-2.2-10.7-0.8 -8.8 3.9-8 5.8C102.5 20.1 107.3 20.4 112.5 19.1L112.5 19.1z"/>
  <path class="st4" d="M120.7 13.8c0-0.1-0.1-0.1-0.1-0.2 0.3 1.8-3.2 4.2-8.1 5.5 -5 1.3-9.6 1-10.6-0.7 0 0.1 0 0.3 0.1 0.4 0.8 2.1 5.6 2.6 10.8 1.2C117.9 18.6 121.5 15.8 120.7 13.8z"/>
  <path id="Oval_8_" class="st5" d="M104.8 15.4c0.4-0.1 0.7-0.4 0.6-0.7s-0.5-0.4-0.9-0.3c-0.4 0.1-0.7 0.4-0.6 0.7C103.9 15.5 104.3 15.6 104.8 15.4L104.8 15.4z"/>
  <path id="Shape_18_" class="st5" d="M118 14.4c0 0 0.9-0.9 0.1-1.2 -0.7-0.2-0.8-0.6-1.3-0.1 -0.5 0.6-0.7 1.5 0.2 1.4L118 14.4 118 14.4z"/>
  <path id="Shape_19_" class="st5" d="M107.4 20c0 0-0.1-0.7 0.5-0.6 0.6 0.2 1.5 0.7 1.1 1s-0.8 1-1.2 0.4S107.4 20 107.4 20L107.4 20z"/>
  <path id="Shape_20_" class="st5" d="M113.7 13.5c0.4 0.2 1.1-0.2 1.1-0.2s0.5-0.5-0.1-1.1c-0.7-0.5-0.7 0.4-0.7 0.4S113.2 13.2 113.7 13.5L113.7 13.5z"/>
  <path id="Shape_21_" class="st5" d="M111.1 15.1c0 0 0.2-1.1 0.8-0.6s1.7 0.2 1.7 0.6 -1.2 1.6-1.6 1.1C111.6 15.7 110.9 15.7 111.1 15.1L111.1 15.1z"/>
  <path id="Shape_22_" class="st5" d="M104.2 18.1c-0.2 0.7-0.1 1.4 0.5 1.3s1.5-1 0.9-1.1C105.1 18.1 104.3 17.7 104.2 18.1L104.2 18.1z"/>
  <path id="Shape_23_" class="st5" d="M109.4 13.2c0-1.1-1.3-0.9-1.7-0.5 -0.4 0.3-1 1.1-0.4 1.2 0.6 0.1 0.9-0.4 1.2-0.5C108.9 13.3 109.5 14.3 109.4 13.2L109.4 13.2z"/>
  <path id="Shape_24_" class="st5" d="M114.6 18.1c0.6 0.3 1 1.1 1.5 0.4s0.2-1.4 0-1.5 -1.4 0.5-1.4 0.5L114.6 18.1 114.6 18.1z"/>
  <path id="Shape_25_" class="st6" d="M105.9 20.5c0.1-0.2 0.2-0.3 0.3-0.5 0.1-0.1 0.2-0.2 0.4-0.4v0.1c0-0.2 0-0.4 0-0.5s0-0.4-0.1-0.5v-0.1l0 0c0.2-0.1 0.4-0.2 0.6-0.3 0.2-0.1 0.4-0.2 0.6-0.2l-0.1 0.2c0-0.3 0-0.6 0-0.9l0 0 0 0c0.1 0.3 0.2 0.6 0.3 0.9 0 0.1 0 0.1-0.1 0.2l0 0c-0.2 0.1-0.4 0.1-0.6 0.2s-0.4 0.1-0.6 0.1l0.1-0.1c0 0.2 0 0.4 0 0.5 0 0.2 0.1 0.4 0.1 0.5v0.1l0 0c-0.1 0.1-0.2 0.2-0.4 0.4C106.3 20.4 106.1 20.5 105.9 20.5 105.9 20.6 105.9 20.6 105.9 20.5 105.9 20.6 105.9 20.5 105.9 20.5L105.9 20.5z"/>
  <ellipse class="st1" cx="76" cy="36.8" rx="4" ry="4"/>
</svg>
