<svg xmlns="http://www.w3.org/2000/svg" width="24" height="24" viewBox="0 0 24 24">
  <path fill="#ACB0B7" d="M12,4 C16.4124444,4 20,7.58755556 20,12 C20,16.4124444 16.4124444,20 12,20 C7.58755556,20 4,16.4124444 4,12 C4,7.58755556 7.58755556,4 12,4 Z M12,5.07733333 C8.18488889,5.07733333 5.07733333,8.18133333 5.07733333,12 C5.07733333,15.8186667 8.18488889,18.9226667 12,18.9226667 C15.8151111,18.9226667 18.9226667,15.8151111 18.9226667,12 C18.9226667,8.18488889 15.8151111,5.07733333 12,5.07733333 Z M12.2524444,7.22133333 C13.536,7.22133333 14.7413333,7.72622222 15.648,8.64355556 C15.9004444,8.90311111 15.9004444,9.31911111 15.6408889,9.57511111 C15.3813333,9.82755556 14.9653333,9.82755556 14.7093333,9.568 C14.0515556,8.90311111 13.1804444,8.53688889 12.2524444,8.53688889 C10.3324444,8.53688889 8.77155556,10.1262222 8.77155556,12.0782222 C8.77155556,14.0302222 10.336,15.6195556 12.256,15.6195556 C13.1164444,15.6195556 13.9413333,15.296 14.5813333,14.7128889 C14.848,14.4675556 15.264,14.4888889 15.5093333,14.7555556 C15.7546667,15.0222222 15.7333333,15.4382222 15.4666667,15.6835556 C14.5848889,16.4906667 13.4435556,16.9351111 12.2524444,16.9351111 C9.60711111,16.9351111 7.45244444,14.7555556 7.45244444,12.0782222 C7.45244444,9.40088889 9.60711111,7.22133333 12.2524444,7.22133333 Z"/>
</svg>
