<?xml version="1.0" encoding="utf-8"?>
<!-- Generator: Adobe Illustrator 18.0.0, SVG Export Plug-In . SVG Version: 6.00 Build 0)  -->
<!DOCTYPE svg PUBLIC "-//W3C//DTD SVG 1.1//EN" "http://www.w3.org/Graphics/SVG/1.1/DTD/svg11.dtd">
<svg version="1.1" id="Layer_1" xmlns:sketch="http://www.bohemiancoding.com/sketch/ns"
	 xmlns="http://www.w3.org/2000/svg" xmlns:xlink="http://www.w3.org/1999/xlink" x="0px" y="0px" width="112px" height="112px"
	 viewBox="0 0 112 112" style="enable-background:new 0 0 112 112;" xml:space="preserve">
<style type="text/css">
	.st0{fill:#313133;}
	.st1{fill:none;stroke:#A8DC28;stroke-width:2;stroke-linecap:round;stroke-linejoin:round;stroke-dasharray:1,4;}
	.st2{fill:#A8DC28;}
	.st3{fill:#FFFFFF;}
</style>
<title>Coupes-Active</title>
<desc>Created with Sketch.</desc>
<g id="landing-page" sketch:type="MSPage">
	<g id="Desktop---landing-Page-Motors" transform="translate(-457.000000, -807.000000)" sketch:type="MSArtboardGroup">
		<g id="Find-a-car" transform="translate(-43.000000, 537.000000)" sketch:type="MSLayerGroup">
			<g id="Part2-Copy" transform="translate(227.000000, 242.000000)" sketch:type="MSShapeGroup">
				<g id="Categories-Icon" transform="translate(132.000000, 20.000000)">
					<g id="actives">
						<g id="Coupes-Active" transform="translate(141.000000, 8.000000)">
							<path id="Fill-1" class="st0" d="M111.3,55.7c0-30.6-24.9-55.5-55.5-55.5S0.3,25.1,0.3,55.7c0,30.6,24.9,55.5,55.5,55.5
								S111.3,86.3,111.3,55.7"/>
							<path id="Stroke-2-Copy-2" class="st1" d="M100.8,77.4c3.2-6.6,5-14,5-21.8c0-27.6-22.4-50-50-50s-50,22.4-50,50
								c0,21.5,13.7,39.9,32.8,46.9c5.4,2,11.2,3.1,17.2,3.1C75.6,105.7,92.7,94.1,100.8,77.4L100.8,77.4z"/>
							<g id="Fill-3-_x2B_-Fill-4-_x2B_-Fill-5" transform="translate(13.000000, 32.000000)">
								<path id="Fill-3" class="st2" d="M18.2,16.3c-3.5,0-6.3,2.9-6.3,6.5s2.8,6.5,6.3,6.5c3.5,0,6.3-2.9,6.3-6.5
									S21.7,16.3,18.2,16.3L18.2,16.3z M18.2,27.5c-2.5,0-4.5-2.1-4.5-4.7s2-4.7,4.5-4.7c2.5,0,4.5,2.1,4.5,4.7
									S20.7,27.5,18.2,27.5L18.2,27.5z"/>
								<path id="Fill-4" class="st2" d="M74,16.3c-3.5,0-6.3,2.9-6.3,6.5s2.8,6.5,6.3,6.5c3.5,0,6.3-2.9,6.3-6.5S77.5,16.3,74,16.3
									L74,16.3z M74,27.5c-2.5,0-4.5-2.1-4.5-4.7s2-4.7,4.5-4.7c2.5,0,4.5,2.1,4.5,4.7S76.5,27.5,74,27.5L74,27.5z"/>
								<path id="Fill-5" class="st3" d="M87.8,23.5c-0.3-0.8-1.3-1.2-1.3-1.2s0,0-0.1,0.1l0.5-1.9c0.5-1.3,0-3.1,0-3.1l-3.1-4.3
									c-0.2-0.2-0.4-0.4-0.6-0.4l-12.8-2.1C63,9,61,7.8,61,7.8c-12-7-20.1-7-20.1-7C29.8,0.2,19.4,4,19.4,4C9.3,8.2,9,7.8,9,7.8
									L4.9,8.2c-4,0-4,11-4,11c3.8,3.9,7.7,4.6,10,4.6c0-0.3-0.1-0.7-0.1-1c0-4.8,4.2-8.6,8.9-7.6c3.5,0.7,6,4,6,7.8
									c0,0.8-0.1,1.2-0.3,1.9c7.7-0.5,20.2-0.4,37,0.6h4.7c-0.4-1.1-0.6-2.3-0.4-3.6c0.4-3.8,3.5-6.8,7.2-6.9
									c4.2-0.1,7.6,3.4,7.6,7.8c0,1-0.2,1.9-0.5,2.8h5.1v0C88.3,25.5,87.8,23.5,87.8,23.5L87.8,23.5z M35.2,9.9H18.5
									c0,0-1.2-0.2,0.8-2.2c0,0,6.2-5.6,15.9-5.8V9.9L35.2,9.9z M36,14.6h3.5v1.3H36V14.6z M57.4,9.9H36.6v-8
									C49.7,1.7,58,8.7,58,8.7C58.7,9.8,57.4,9.9,57.4,9.9L57.4,9.9z M86.1,22.9L86.1,22.9L86.1,22.9
									C86.1,22.9,86.1,22.9,86.1,22.9L86.1,22.9z"/>
							</g>
							<path id="Coupes" class="st2" d="M39.5,72.2c0.3,0.1,0.3,0.2,0.3,0.5v1.1l1.4-0.1v-2.4c-0.8-0.4-1.8-0.6-2.6-0.6
								c-2.2,0-4.4,1.2-4.4,4.9c0,3.2,1.6,4.8,4.4,4.8c0.9,0,2-0.2,2.8-0.6v-2.4l-1.4-0.1v1.1c0,0.3,0,0.4-0.3,0.5
								c-0.3,0.1-0.6,0.1-1,0.1c-1.9,0-2.7-1.3-2.7-3.5c0-2.1,0.9-3.4,2.6-3.4C38.8,72.1,39.2,72.1,39.5,72.2L39.5,72.2z M45.7,79.2
								c-1.3,0-1.5-1.4-1.5-2.7c0-1.3,0.4-2.3,1.6-2.3c1.1,0,1.5,1,1.5,2.5C47.2,78.2,46.8,79.2,45.7,79.2L45.7,79.2z M42.5,76.7
								c0,2.5,1.2,3.7,3.1,3.7c1.8,0,3.3-1.2,3.3-3.9c0-3.2-2.1-3.5-3.1-3.5C44.4,72.9,42.5,73.7,42.5,76.7L42.5,76.7z M56.5,79.1
								l-0.5,0c-0.3,0-0.3-0.1-0.3-0.4v-5.5h-2.5v1.1l0.4,0c0.3,0,0.4,0.1,0.4,0.4v3c0,0.7-0.5,1.4-1.5,1.4c-0.9,0-1-0.6-1-1.5v-4.4
								H49v1.1l0.4,0c0.2,0,0.4,0.1,0.4,0.4v3.2c0,1.7,0.8,2.4,2.2,2.4c0.9,0,1.8-0.4,2.3-1.1v0.9h2.3V79.1z M57.7,81.5
								c0,0.3-0.1,0.4-0.4,0.5l-0.5,0v1.1h3.6V82l-1.1-0.1V80c0.4,0.2,1,0.4,1.5,0.4c1.8,0,3.1-1.3,3.1-3.9c0-2.5-1-3.6-2.5-3.6
								c-1.2,0-2,0.6-2.2,1.1v-0.9h-2.4v1.1l0.6,0c0.3,0,0.3,0.1,0.3,0.4V81.5z M62.1,76.6c0,1.2-0.4,2.4-1.6,2.4
								c-0.4,0-0.9-0.1-1.2-0.3v-3.2c0-0.6,0.6-1.2,1.4-1.2C61.5,74.3,62.1,74.8,62.1,76.6L62.1,76.6z M68.4,72.9
								c-2.3,0-3.5,1.8-3.5,3.9c0,2.1,0.9,3.5,3.3,3.5c1.3,0,2.2-0.6,2.5-0.8l-0.5-1.1c-0.3,0.2-0.9,0.6-1.8,0.6
								c-1.2,0-1.7-0.7-1.7-1.7c1.7,0,4-0.4,4-2.5C70.7,73.6,69.7,72.9,68.4,72.9L68.4,72.9z M69.1,74.9c0,1.1-1.5,1.3-2.5,1.3
								c0-1,0.5-2.1,1.7-2.1C68.8,74.1,69.1,74.4,69.1,74.9L69.1,74.9z M75.3,74.2c0.3,0.1,0.3,0.2,0.3,0.5v0.6l1.3-0.1v-1.7
								c-0.5-0.3-1.4-0.6-2.3-0.6c-1.5,0-2.7,0.8-2.7,2.2c0,1.6,1.1,1.9,2.2,2.2c0.8,0.2,1.4,0.3,1.4,1c0,0.6-0.4,0.9-1.1,0.9
								c-0.3,0-0.7,0-0.9-0.1c-0.3-0.1-0.3-0.2-0.3-0.5v-0.7L71.8,78v1.9c0.6,0.3,1.7,0.4,2.6,0.4c1.5,0,2.7-0.8,2.7-2.2
								c0-1.5-1.2-1.9-2.3-2.2c-0.7-0.2-1.3-0.4-1.3-1c0-0.6,0.4-0.8,1-0.8C74.8,74.1,75,74.1,75.3,74.2L75.3,74.2z"/>
						</g>
					</g>
				</g>
			</g>
		</g>
	</g>
</g>
</svg>
