<svg xmlns="http://www.w3.org/2000/svg" version="1.1" x="0" y="0" width="112" height="112" viewBox="0 0 112 112" xml:space="preserve"><style type="text/css">
	.st0{fill:#FFFFFF;}
	.st1{fill:#313133;}
</style><title>Coupes</title><desc>Created with Sketch.</desc><g transform="translate(-457.000000, -807.000000)"><g transform="translate(-43.000000, 537.000000)"><g transform="translate(227.000000, 242.000000)"><g transform="translate(132.000000, 20.000000)"><g transform="translate(141.000000, 8.000000)"><path class="st0" d="M111.3 55.7c0-30.6-24.9-55.5-55.5-55.5S0.3 25.1 0.3 55.7c0 30.6 24.9 55.5 55.5 55.5S111.3 86.3 111.3 55.7"/><g transform="translate(13.000000, 32.000000)"><path class="st1" d="M18.2 16.3c-3.5 0-6.3 2.9-6.3 6.5s2.8 6.5 6.3 6.5c3.5 0 6.3-2.9 6.3-6.5S21.7 16.3 18.2 16.3L18.2 16.3zM18.2 27.5c-2.5 0-4.5-2.1-4.5-4.7s2-4.7 4.5-4.7c2.5 0 4.5 2.1 4.5 4.7S20.7 27.5 18.2 27.5L18.2 27.5zM74 16.3c-3.5 0-6.3 2.9-6.3 6.5s2.8 6.5 6.3 6.5c3.5 0 6.3-2.9 6.3-6.5S77.5 16.3 74 16.3L74 16.3zM74 27.5c-2.5 0-4.5-2.1-4.5-4.7s2-4.7 4.5-4.7c2.5 0 4.5 2.1 4.5 4.7S76.5 27.5 74 27.5L74 27.5zM87.8 23.5c-0.3-0.8-1.3-1.2-1.3-1.2s0 0-0.1 0.1l0.5-1.9c0.5-1.3 0-3.1 0-3.1l-3.1-4.3c-0.2-0.2-0.4-0.4-0.6-0.4l-12.8-2.1C63 9 61 7.8 61 7.8c-12-7-20.1-7-20.1-7C29.8 0.2 19.4 4 19.4 4 9.3 8.2 9 7.8 9 7.8L4.9 8.2c-4 0-4 11-4 11 3.8 3.9 7.7 4.6 10 4.6 0-0.3-0.1-0.7-0.1-1 0-4.8 4.2-8.6 8.9-7.6 3.5 0.7 6 4 6 7.8 0 0.8-0.1 1.2-0.3 1.9 7.7-0.5 20.2-0.4 37 0.6h4.7c-0.4-1.1-0.6-2.3-0.4-3.6 0.4-3.8 3.5-6.8 7.2-6.9 4.2-0.1 7.6 3.4 7.6 7.8 0 1-0.2 1.9-0.5 2.8h5.1v0C88.3 25.5 87.8 23.5 87.8 23.5L87.8 23.5zM35.2 9.9H18.5c0 0-1.2-0.2 0.8-2.2 0 0 6.2-5.6 15.9-5.8V9.9L35.2 9.9zM36 14.6h3.5v1.3H36V14.6zM57.4 9.9H36.6v-8C49.7 1.7 58 8.7 58 8.7 58.7 9.8 57.4 9.9 57.4 9.9L57.4 9.9zM86.1 22.9L86.1 22.9 86.1 22.9C86.1 22.9 86.1 22.9 86.1 22.9L86.1 22.9z"/></g><path class="st1" d="M39.5 72.2c0.3 0.1 0.3 0.2 0.3 0.5v1.1l1.4-0.1v-2.4c-0.8-0.4-1.8-0.6-2.6-0.6 -2.2 0-4.4 1.2-4.4 4.9 0 3.2 1.6 4.8 4.4 4.8 0.9 0 2-0.2 2.8-0.6v-2.4l-1.4-0.1v1.1c0 0.3 0 0.4-0.3 0.5 -0.3 0.1-0.6 0.1-1 0.1 -1.9 0-2.7-1.3-2.7-3.5 0-2.1 0.9-3.4 2.6-3.4C38.8 72.1 39.2 72.1 39.5 72.2L39.5 72.2zM45.7 79.2c-1.3 0-1.5-1.4-1.5-2.7 0-1.3 0.4-2.3 1.6-2.3 1.1 0 1.5 1 1.5 2.5C47.2 78.2 46.8 79.2 45.7 79.2L45.7 79.2zM42.5 76.7c0 2.5 1.2 3.7 3.1 3.7 1.8 0 3.3-1.2 3.3-3.9 0-3.2-2.1-3.5-3.1-3.5C44.4 72.9 42.5 73.7 42.5 76.7L42.5 76.7zM56.5 79.1l-0.5 0c-0.3 0-0.3-0.1-0.3-0.4v-5.5h-2.5v1.1l0.4 0c0.3 0 0.4 0.1 0.4 0.4v3c0 0.7-0.5 1.4-1.5 1.4 -0.9 0-1-0.6-1-1.5v-4.4H49v1.1l0.4 0c0.2 0 0.4 0.1 0.4 0.4v3.2c0 1.7 0.8 2.4 2.2 2.4 0.9 0 1.8-0.4 2.3-1.1v0.9h2.3V79.1zM57.7 81.5c0 0.3-0.1 0.4-0.4 0.5l-0.5 0v1.1h3.6V82l-1.1-0.1V80c0.4 0.2 1 0.4 1.5 0.4 1.8 0 3.1-1.3 3.1-3.9 0-2.5-1-3.6-2.5-3.6 -1.2 0-2 0.6-2.2 1.1v-0.9h-2.4v1.1l0.6 0c0.3 0 0.3 0.1 0.3 0.4V81.5zM62.1 76.6c0 1.2-0.4 2.4-1.6 2.4 -0.4 0-0.9-0.1-1.2-0.3v-3.2c0-0.6 0.6-1.2 1.4-1.2C61.5 74.3 62.1 74.8 62.1 76.6L62.1 76.6zM68.4 72.9c-2.3 0-3.5 1.8-3.5 3.9 0 2.1 0.9 3.5 3.3 3.5 1.3 0 2.2-0.6 2.5-0.8l-0.5-1.1c-0.3 0.2-0.9 0.6-1.8 0.6 -1.2 0-1.7-0.7-1.7-1.7 1.7 0 4-0.4 4-2.5C70.7 73.6 69.7 72.9 68.4 72.9L68.4 72.9zM69.1 74.9c0 1.1-1.5 1.3-2.5 1.3 0-1 0.5-2.1 1.7-2.1C68.8 74.1 69.1 74.4 69.1 74.9L69.1 74.9zM75.3 74.2c0.3 0.1 0.3 0.2 0.3 0.5v0.6l1.3-0.1v-1.7c-0.5-0.3-1.4-0.6-2.3-0.6 -1.5 0-2.7 0.8-2.7 2.2 0 1.6 1.1 1.9 2.2 2.2 0.8 0.2 1.4 0.3 1.4 1 0 0.6-0.4 0.9-1.1 0.9 -0.3 0-0.7 0-0.9-0.1 -0.3-0.1-0.3-0.2-0.3-0.5v-0.7L71.8 78v1.9c0.6 0.3 1.7 0.4 2.6 0.4 1.5 0 2.7-0.8 2.7-2.2 0-1.5-1.2-1.9-2.3-2.2 -0.7-0.2-1.3-0.4-1.3-1 0-0.6 0.4-0.8 1-0.8C74.8 74.1 75 74.1 75.3 74.2L75.3 74.2z"/></g></g></g></g></g></svg>