<svg xmlns="http://www.w3.org/2000/svg" version="1.1" x="0" y="0" width="18" height="18" viewBox="0 0 18 18" xml:space="preserve"><style type="text/css">
	.st0{fill:#D8D8D8;}
</style><title>cross</title><desc>Created with Sketch.</desc><g transform="translate(-204.000000, -448.000000)"><g transform="translate(-12.000000, 438.000000)"><g transform="translate(225.500000, 19.500000) rotate(-45.000000) translate(-225.500000, -19.500000) translate(215.000000, 9.000000)"><path class="st0" d="M2.6 7.1h16c1.1 0 2 0.9 2 2v2c0 1.1-0.9 2-2 2h-16c-1.1 0-2-0.9-2-2v-2C0.6 8 1.5 7.1 2.6 7.1zM7.6 18.1v-16c0-1.1 0.9-2 2-2h2c1.1 0 2 0.9 2 2v16c0 1.1-0.9 2-2 2h-2C8.5 20.1 7.6 19.2 7.6 18.1z"/></g></g></g></svg>