<svg xmlns="http://www.w3.org/2000/svg" version="1.1" x="0" y="0" width="40" height="40" viewBox="0 0 40 40" xml:space="preserve"><style type="text/css">
	.st0{fill:#313133;stroke:#313133;stroke-width:2;}
	.st1{fill:#A8DC28;}
</style><title>deactivate-Icon</title><desc>Created with Sketch.</desc><circle class="st0" cx="20" cy="20" r="18"/><path class="st1" d="M27.5 23.5l-3.3-3.3 3.3-3.3c0.8-0.8 0.8-2 0-2.8l-1.4-1.4c-0.8-0.8-2-0.8-2.8 0L20 15.9l-3.5-3.5c-0.8-0.8-2-0.8-2.7 0l-1.3 1.3c-0.7 0.7-0.7 2 0 2.7l3.5 3.5 -3.3 3.3c-0.8 0.8-0.8 2 0 2.8l1.4 1.4c0.8 0.8 2 0.8 2.8 0l3.3-3.3 3.3 3.3c0.8 0.8 2 0.8 2.7 0l1.3-1.3C28.3 25.4 28.3 24.2 27.5 23.5z"/></svg>