<?xml version="1.0" encoding="utf-8"?>
<!-- Generator: Adobe Illustrator 19.1.0, SVG Export Plug-In . SVG Version: 6.00 Build 0)  -->
<svg version="1.1" id="Layer_1" xmlns="http://www.w3.org/2000/svg" xmlns:xlink="http://www.w3.org/1999/xlink" x="0px" y="0px"
	 width="13px" height="17px" viewBox="-313 232 13 17" style="enable-background:new -313 232 13 17;" xml:space="preserve">
<style type="text/css">
	.st0{fill:#D8D8D8;}
</style>
<title>delete</title>
<desc>Created with Sketch.</desc>
<path class="st0" d="M-300,234.3c0-0.5-0.2-0.9-0.5-0.9h-3.8v-1.1c0-0.2-0.1-0.3-0.2-0.3h-4c-0.1,0-0.2,0.1-0.2,0.3v1.1h-3.8
	c-0.3,0-0.5,0.4-0.5,0.9v2.7h1l0.5,10.3c0,0.5,0.4,0.8,0.9,0.8h8.2c0.5,0,0.9-0.4,0.9-0.8l0.5-10.3h1V234.3z M-308.4,245.1
	c0,0.2-0.2,0.3-0.4,0.3h-0.6c-0.2,0-0.4-0.2-0.4-0.3v-6.9c0-0.2,0.2-0.3,0.4-0.3h0.6c0.2,0,0.4,0.2,0.4,0.3V245.1z M-305.9,245.1
	c0,0.2-0.2,0.3-0.4,0.3h-0.6c-0.2,0-0.4-0.2-0.4-0.3v-6.9c0-0.2,0.2-0.3,0.4-0.3h0.6c0.2,0,0.4,0.2,0.4,0.3V245.1z M-303.4,245.1
	c0,0.2-0.2,0.3-0.4,0.3h-0.6c-0.2,0-0.4-0.2-0.4-0.3v-6.9c0-0.2,0.2-0.3,0.4-0.3h0.6c0.2,0,0.4,0.2,0.4,0.3V245.1z"/>
</svg>
