<svg xmlns="http://www.w3.org/2000/svg" version="1.1" x="0" y="0" width="13" height="18" viewBox="0 0 13 18" xml:space="preserve"><style type="text/css">
	.st0{fill:#A4A4A4;}
</style><title>delete icon</title><desc>Created with Sketch Beta.</desc><g transform="translate(-849.000000, -967.000000)"><g transform="translate(-2.000000, 260.000000)"><g transform="translate(459.000000, 21.000000)"><g transform="translate(1.000000, 563.000000)"><g transform="translate(373.000000, 118.000000)"><g transform="translate(18.000000, 5.000000)"><path class="st0" d="M11.8 7.4L11.8 7.4C11.8 7.4 11.8 7.4 11.8 7.4 11.8 7.4 11.8 7.4 11.8 7.4l-0.4 8.9h0c0 0.7-0.8 1.7-5.1 1.7 -4.3 0-5.1-1-5.1-1.7h0L0.8 7.5c0 0 0 0 0 0 0 0 0 0 0 0l0 0h0c0-0.1 0.1-0.1 0.1-0.2 0.6 0.6 2.8 0.7 5.4 0.7s4.8-0.1 5.4-0.7C11.8 7.2 11.8 7.3 11.8 7.4L11.8 7.4 11.8 7.4zM12.6 4v1c0 0.2-0.2 0.4-0.6 0.6 -1 0.5-3.2 0.8-5.7 0.8 -2.5 0-4.7-0.3-5.7-0.8C0.2 5.5 0 5.3 0 5.1V4c0-0.5 1.4-1 3.4-1.2V0.6C3.4 0.3 3.7 0 4.1 0h4.2c0.3 0 0.6 0.3 0.6 0.6v2.1C11.1 3 12.6 3.5 12.6 4L12.6 4zM7.8 1.8c0-0.4-0.1-0.7-0.1-0.7H6.9 5.5 4.7c-0.1 0-0.1 0.3-0.1 0.7v0.9l0.2 0c0.5 0 1 0 1.5 0 0.5 0 1 0 1.5 0V1.8L7.8 1.8z"/></g></g></g></g></g></g></svg>