<svg xmlns:sketch="http://www.bohemiancoding.com/sketch/ns" xmlns="http://www.w3.org/2000/svg" xmlns:xlink="http://www.w3.org/1999/xlink" version="1.1" id="Layer_1" x="0px" y="0px" width="40px" height="40px" viewBox="0 0 40 40" xml:space="preserve" enable-background="new 0 0 40 40">
  <style type="text/css">
    
	.st0{fill:#313133;}
	.st1{fill:#313133;stroke:#313133;stroke-width:2;}
	.st2{filter:url(#Adobe_OpacityMaskFilter);}
	.st3{fill:#FFFFFF;}
	.st4{mask:url(#mask-2);fill:#A8DC28;}

  </style>
  <title>
    design-icon
  </title>
  <desc>
    Created with Sketch.
  </desc>
  <circle id="Oval-795" sketch:type="MSShapeGroup" class="st0" cx="20" cy="20" r="18"/>
  <g id="Avatar-Copy-3">
    <g id="Mask" sketch:type="MSShapeGroup">
      <circle id="path-1_1_" class="st1" cx="20" cy="20" r="18"/>
    </g>
    <g id="Mask_1_" sketch:type="MSShapeGroup">
      <circle id="path-1_2_" class="st0" cx="20" cy="20" r="18"/>
    </g>
    <defs>
      <filter id="Adobe_OpacityMaskFilter" filterUnits="userSpaceOnUse" x="1.1" y="9.2" width="33.3" height="26.9">
        <feColorMatrix type="matrix" values="1 0 0 0 0  0 1 0 0 0  0 0 1 0 0  0 0 0 1 0"/>
      </filter>
    </defs>
    <mask maskUnits="userSpaceOnUse" x="1.1" y="9.2" width="33.3" height="26.9" id="mask-2">
      <g class="st2">
        <circle id="path-1" class="st3" cx="20" cy="20" r="18"/>
      </g>
    </mask>
    <path id="Imported-Layers" sketch:type="MSShapeGroup" class="st4" d="M33.7 10.1c-0.1-0.2-0.2-0.3-0.4-0.3 -0.2 0-0.3 0.1-0.4 0.2 -0.6 0.8-1.4 1.1-2.2 1.4 -0.7 0.3-1.5 0.5-2.3 1.1 -1.1 0.8-1.6 1.9-1.4 3l0 0c-0.5-0.7-1-1.3-1.5-1.9 -2.5-2.6-6.1-4.2-9.7-4.3 -0.2 0-0.3 0-0.5 0 -4.1 0-8 1.8-10.7 5 -2.7 3.1-3.9 7.2-3.3 11.2 0.1 0.3 0.1 0.7 0.2 1 1 4.4 3.6 7.7 7 9.2 0.9 0.4 1.7 0.5 2.6 0.5 2.1 0 3.9-1.1 5-3.1 0.4-0.7 0.7-1.5 0.8-2.3 0.1-0.5 0-0.9 0-1.3 0-0.5-0.1-0.9 0-1.3 0.2-1 0.9-1.6 1.9-1.6 0.3 0 0.6 0 0.9 0.1 -0.3 0.6-0.7 1.2-0.9 1.8 -0.6 1.2-1 2.1-1.2 2.9 -0.1 0.5-0.5 1.7 0.4 2.2 0.3 0.2 0.6 0.2 0.9 0.2 0.3-0.1 1.3-0.2 4-3.3 0.7-0.8 1.5-1.8 2.3-2.8 2.1-0.7 3.7-2.4 4.2-4.5 0.1-0.5 0.2-1 0.1-1.6 0.8-1.2 1.5-2.3 2.2-3.5 0 0 0 0 0-0.1 1-0.3 1.9-1.1 2.4-2.1C34.6 14.2 34.6 12.2 33.7 10.1L33.7 10.1zM22.4 17.6c-0.4 0.6-1 0.9-1.7 0.9 -0.4 0-0.7-0.1-1-0.3 -0.4-0.3-0.8-0.7-0.9-1.2s0-1 0.3-1.5c0.4-0.6 1-0.9 1.7-0.9 0.4 0 0.7 0.1 1 0.3 0.4 0.3 0.8 0.7 0.9 1.2C22.8 16.6 22.7 17.1 22.4 17.6L22.4 17.6zM25 21.1c1-1.5 2.1-2.9 3.1-4.2 0.2 0.1 0.3 0.3 0.5 0.4 0.3 0.2 0.7 0.4 1 0.5 -0.8 1.4-1.8 2.9-2.9 4.5 -1.8 2.7-3.7 5.1-5.3 6.9 -0.9 1-1.7 1.8-2.3 2.3 0.2-0.7 0.7-1.8 1.3-3C21.5 26.4 23.2 23.8 25 21.1L25 21.1zM7.5 21.1c-0.4 0-0.7-0.1-1-0.3 -0.4-0.3-0.8-0.7-0.9-1.2 -0.1-0.5 0-1 0.3-1.5 0.4-0.6 1-0.9 1.7-0.9 0.4 0 0.7 0.1 1 0.3 0.9 0.6 1.2 1.8 0.6 2.7C8.8 20.8 8.1 21.1 7.5 21.1L7.5 21.1zM5.4 25.4c0.4-0.6 1-0.9 1.7-0.9 0.4 0 0.7 0.1 1 0.3C8.6 25.1 8.9 25.5 9 26c0.1 0.5 0 1-0.3 1.5 -0.4 0.6-1 0.9-1.7 0.9 -0.4 0-0.7-0.1-1-0.3 -0.4-0.3-0.8-0.7-0.9-1.2C5 26.4 5.1 25.9 5.4 25.4L5.4 25.4zM11.7 13.8c0.4-0.6 1-0.9 1.7-0.9 0.4 0 0.7 0.1 1 0.3 0.9 0.6 1.2 1.8 0.6 2.7 -0.4 0.6-1 0.9-1.7 0.9 -0.4 0-0.7-0.1-1-0.3 -0.4-0.3-0.8-0.7-0.9-1.2C11.3 14.7 11.4 14.2 11.7 13.8L11.7 13.8z"/>
  </g>
</svg>
