<?xml version="1.0" encoding="utf-8"?>
<!-- Generator: Adobe Illustrator 21.0.2, SVG Export Plug-In . SVG Version: 6.00 Build 0)  -->
<svg version="1.1" id="Layer_1" xmlns="http://www.w3.org/2000/svg" xmlns:xlink="http://www.w3.org/1999/xlink" x="0px" y="0px"
	 width="110px" height="110px" viewBox="0 0 110 110" style="enable-background:new 0 0 110 110;" xml:space="preserve">
<style type="text/css">
	.st0{fill:#EFEFEF;}
	.st1{fill:#313133;}
</style>
<title>Adult</title>
<desc>Created with Sketch.</desc>
<g id="Page-1">
	<g id="_x31_.-Desktop-Homepage-navigation" transform="translate(-1425.000000, -621.000000)">
		<g id="Group-Copy" transform="translate(-15.000000, -251.000000)">
			<g id="What-will-you-discover_x3F_-Copy" transform="translate(478.000000, 872.000000)">
				<g id="categories">
					<g id="Adult" transform="translate(962.000000, 0.000000)">
						<path id="Shape" class="st0" d="M110,55c0-30.3-24.7-55-55-55S0,24.7,0,55s24.7,55,55,55S110,85.3,110,55z"/>
						<g id="Group" transform="translate(38.000000, 70.000000)">
							<path id="Shape_1_" class="st1" d="M3.2,1.9L2.3,1.8V0.7h3.2l2.9,8.1l0,0h0.8V10H5.6V8.9h0.5c0.3,0,0.4-0.1,0.3-0.4L6.1,7.6
								H2.8L2.4,8.8h0.8V10H0V8.9h0.5c0.2,0,0.3-0.1,0.4-0.4L3.2,1.9z M3.2,6.2h2.6l-1.3-4l0,0L3.2,6.2z M14.4,2.9V1.5
								c0-0.2-0.1-0.3-0.4-0.3h-0.6V0.1H16v8.5c0,0.2,0.1,0.3,0.4,0.3h0.5V10h-2.3V9.2l0,0c-0.4,0.7-1.1,1-1.9,1
								c-2.2,0-2.8-1.7-2.8-3.4c0-2.4,1.2-4,3.4-4C13.8,2.7,14.1,2.8,14.4,2.9z M14.4,4.2C14.1,4.1,13.8,4,13.3,4
								c-1.3,0-1.8,1.3-1.8,2.6S11.8,9,13,9c0.8,0,1.3-0.5,1.3-1.1L14.4,4.2L14.4,4.2z M25.1,10h-2.3V9.1c-0.5,0.7-1.3,1.1-2.3,1.1
								c-1.4,0-2.2-0.8-2.2-2.4V4.5c0-0.3-0.1-0.4-0.4-0.4h-0.4V3H20v4.4c0,0.9,0.1,1.5,1,1.5c1,0,1.5-0.7,1.5-1.4v-3
								c0-0.3-0.1-0.4-0.4-0.4h-0.4V3h2.5v5.5c0,0.3,0.1,0.4,0.3,0.4H25V10H25.1z M28.5,8.8h0.8v1.1H26V8.8h0.5
								c0.3,0,0.4-0.1,0.4-0.4V1.5c0-0.3-0.1-0.3-0.3-0.3h-0.5V0h2.5v8.8H28.5z M32.3,1.5V3h1.9l-0.1,1.2h-1.7v3.7
								c0,0.9,0.3,1.1,0.9,1.1c0.4,0,0.7-0.2,1-0.3l0.4,1.1c-0.4,0.3-1.1,0.5-1.8,0.5c-2.2,0-2.2-1.3-2.2-2.3V4.3h-1l0.1-1
								c1-0.1,1.3-0.8,1.6-1.6h0.9V1.5z"/>
						</g>
						<g id="Group_1_" transform="translate(44.000000, 33.000000)">
						</g>
						<path class="st1" d="M56.8,106c-0.5,0-1-0.4-1-1c0-0.6,0.4-1,1-1c0.3,0,0.7,0,1,0c0.5,0,1,0.4,1.1,0.9c0,0.6-0.4,1-0.9,1.1
							C57.5,105.9,57.2,106,56.8,106C56.8,106,56.8,106,56.8,106z M52.8,106C52.8,106,52.8,106,52.8,106c-0.4,0-0.7,0-1.1-0.1
							c-0.6,0-1-0.5-0.9-1.1s0.5-1,1.1-0.9c0.3,0,0.7,0,1,0.1c0.6,0,1,0.5,1,1C53.8,105.5,53.3,106,52.8,106z M61.8,105.5
							c-0.5,0-0.9-0.4-1-0.9c-0.1-0.5,0.3-1.1,0.9-1.1c0.3,0,0.6-0.1,1-0.1c0.5-0.1,1.1,0.3,1.1,0.8c0.1,0.5-0.3,1.1-0.8,1.1
							c-0.3,0.1-0.7,0.1-1,0.1C61.9,105.5,61.8,105.5,61.8,105.5z M47.8,105.5c0,0-0.1,0-0.1,0c-0.3,0-0.7-0.1-1-0.2
							c-0.5-0.1-0.9-0.6-0.8-1.2s0.6-0.9,1.2-0.8c0.3,0.1,0.6,0.1,1,0.2c0.5,0.1,0.9,0.6,0.8,1.1C48.7,105.1,48.3,105.5,47.8,105.5z
							 M66.7,104.6c-0.5,0-0.9-0.3-1-0.8c-0.1-0.5,0.2-1.1,0.7-1.2c0.3-0.1,0.6-0.2,1-0.2c0.5-0.1,1.1,0.2,1.2,0.7
							c0.1,0.5-0.2,1.1-0.7,1.2c-0.3,0.1-0.7,0.2-1,0.2C66.9,104.6,66.8,104.6,66.7,104.6z M42.9,104.5c-0.1,0-0.2,0-0.2,0
							c-0.3-0.1-0.7-0.2-1-0.3c-0.5-0.1-0.8-0.7-0.7-1.2c0.1-0.5,0.7-0.8,1.2-0.7c0.3,0.1,0.6,0.2,0.9,0.2c0.5,0.1,0.9,0.7,0.7,1.2
							C43.8,104.2,43.4,104.5,42.9,104.5z M71.5,103.2c-0.4,0-0.8-0.3-0.9-0.7c-0.2-0.5,0.1-1.1,0.6-1.3c0.3-0.1,0.6-0.2,0.9-0.3
							c0.5-0.2,1.1,0.1,1.3,0.6c0.2,0.5-0.1,1.1-0.6,1.3c-0.3,0.1-0.6,0.2-1,0.3C71.7,103.2,71.6,103.2,71.5,103.2z M38.2,103
							c-0.1,0-0.2,0-0.3-0.1l-0.4-0.1c-0.2-0.1-0.4-0.1-0.6-0.2c-0.5-0.2-0.8-0.8-0.6-1.3c0.2-0.5,0.8-0.8,1.3-0.6l0.9,0.3
							c0.5,0.2,0.8,0.8,0.6,1.3C38.9,102.8,38.6,103,38.2,103z M76.1,101.3c-0.4,0-0.7-0.2-0.9-0.6c-0.2-0.5,0-1.1,0.5-1.3
							c0.3-0.1,0.6-0.3,0.9-0.4c0.5-0.2,1.1,0,1.3,0.5c0.2,0.5,0,1.1-0.5,1.3c-0.3,0.1-0.6,0.3-0.9,0.4
							C76.4,101.3,76.3,101.3,76.1,101.3z M33.5,101.1c-0.1,0-0.3,0-0.4-0.1c-0.3-0.1-0.6-0.3-0.9-0.4c-0.5-0.2-0.7-0.8-0.4-1.3
							c0.2-0.5,0.8-0.7,1.3-0.4c0.3,0.1,0.6,0.3,0.9,0.4c0.5,0.2,0.7,0.8,0.5,1.3C34.3,100.9,33.9,101.1,33.5,101.1z M80.5,99
							c-0.3,0-0.7-0.2-0.9-0.5c-0.3-0.5-0.1-1.1,0.3-1.4c0.3-0.2,0.6-0.3,0.8-0.5c0.5-0.3,1.1-0.2,1.4,0.3c0.3,0.5,0.2,1.1-0.3,1.4
							c-0.3,0.2-0.6,0.4-0.9,0.5C80.9,98.9,80.7,99,80.5,99z M29.1,98.7c-0.2,0-0.4,0-0.5-0.1c-0.3-0.2-0.6-0.4-0.9-0.5
							c-0.5-0.3-0.6-0.9-0.3-1.4c0.3-0.5,0.9-0.6,1.4-0.3c0.3,0.2,0.6,0.3,0.8,0.5c0.5,0.3,0.6,0.9,0.3,1.4
							C29.8,98.6,29.5,98.7,29.1,98.7z M84.7,96.2c-0.3,0-0.6-0.1-0.8-0.4c-0.3-0.4-0.2-1.1,0.2-1.4c0.3-0.2,0.5-0.4,0.8-0.6
							c0.4-0.3,1.1-0.3,1.4,0.2c0.3,0.4,0.3,1.1-0.2,1.4c-0.3,0.2-0.5,0.4-0.8,0.6C85.1,96.2,84.9,96.2,84.7,96.2z M25,95.9
							c-0.2,0-0.4-0.1-0.6-0.2c-0.3-0.2-0.5-0.4-0.8-0.6c-0.4-0.3-0.5-1-0.2-1.4c0.3-0.4,1-0.5,1.4-0.2c0.3,0.2,0.5,0.4,0.8,0.6
							c0.4,0.3,0.5,1,0.2,1.4C25.6,95.8,25.3,95.9,25,95.9z M88.6,93.1c-0.3,0-0.5-0.1-0.7-0.3c-0.4-0.4-0.3-1,0.1-1.4
							c0.2-0.2,0.5-0.4,0.7-0.7c0.4-0.4,1-0.4,1.4,0c0.4,0.4,0.4,1,0,1.4c-0.2,0.2-0.5,0.5-0.8,0.7C89.1,93,88.8,93.1,88.6,93.1z
							 M21.2,92.7c-0.2,0-0.5-0.1-0.7-0.3c-0.2-0.2-0.5-0.5-0.7-0.7c-0.4-0.4-0.4-1,0-1.4c0.4-0.4,1-0.4,1.4,0
							c0.2,0.2,0.5,0.5,0.7,0.7c0.4,0.4,0.4,1,0.1,1.4C21.7,92.6,21.4,92.7,21.2,92.7z M92.1,89.5c-0.2,0-0.5-0.1-0.7-0.3
							c-0.4-0.4-0.4-1-0.1-1.4c0.2-0.2,0.4-0.5,0.6-0.7c0.4-0.4,1-0.5,1.4-0.1c0.4,0.4,0.5,1,0.1,1.4c-0.2,0.3-0.4,0.5-0.7,0.8
							C92.6,89.4,92.4,89.5,92.1,89.5z M17.7,89.2c-0.3,0-0.5-0.1-0.7-0.3c-0.2-0.3-0.4-0.5-0.7-0.8c-0.4-0.4-0.3-1,0.1-1.4
							c0.4-0.4,1-0.3,1.4,0.1c0.2,0.2,0.4,0.5,0.6,0.7c0.4,0.4,0.3,1-0.1,1.4C18.1,89.1,17.9,89.2,17.7,89.2z M95.3,85.6
							c-0.2,0-0.4-0.1-0.6-0.2c-0.4-0.3-0.5-1-0.2-1.4c0.2-0.3,0.4-0.5,0.6-0.8c0.3-0.5,0.9-0.6,1.4-0.2c0.5,0.3,0.6,0.9,0.2,1.4
							c-0.2,0.3-0.4,0.6-0.6,0.8C95.9,85.5,95.6,85.6,95.3,85.6z M14.5,85.3c-0.3,0-0.6-0.1-0.8-0.4c-0.2-0.3-0.4-0.6-0.6-0.8
							c-0.3-0.5-0.2-1.1,0.2-1.4c0.5-0.3,1.1-0.2,1.4,0.2c0.2,0.3,0.4,0.5,0.6,0.8c0.3,0.4,0.2,1.1-0.2,1.4
							C14.9,85.2,14.7,85.3,14.5,85.3z M98,81.5c-0.2,0-0.3,0-0.5-0.1c-0.5-0.3-0.6-0.9-0.3-1.4c0.2-0.3,0.3-0.6,0.5-0.8
							c0.3-0.5,0.9-0.7,1.4-0.4c0.5,0.3,0.7,0.9,0.4,1.4c-0.2,0.3-0.3,0.6-0.5,0.9C98.7,81.3,98.4,81.5,98,81.5z M11.8,81.1
							c-0.3,0-0.7-0.2-0.9-0.5c-0.2-0.3-0.3-0.6-0.5-0.9c-0.3-0.5-0.1-1.1,0.4-1.4c0.5-0.3,1.1-0.1,1.4,0.4c0.2,0.3,0.3,0.6,0.5,0.9
							c0.3,0.5,0.1,1.1-0.4,1.4C12.1,81.1,12,81.1,11.8,81.1z M100,77.8c-0.1,0-0.3,0-0.4-0.1c-0.5-0.2-0.7-0.8-0.5-1.3
							c0.1-0.3,0.3-0.6,0.4-0.9c0.2-0.5,0.8-0.7,1.3-0.5c0.5,0.2,0.7,0.8,0.5,1.3c-0.1,0.3-0.3,0.6-0.4,0.9
							C100.7,77.6,100.4,77.8,100,77.8z M9.5,76.7c-0.4,0-0.7-0.2-0.9-0.6c-0.1-0.3-0.3-0.6-0.4-0.9c-0.2-0.5,0-1.1,0.5-1.3
							c0.5-0.2,1.1,0,1.3,0.5c0.1,0.3,0.3,0.6,0.4,0.9c0.2,0.5,0,1.1-0.5,1.3C9.8,76.6,9.6,76.7,9.5,76.7z M102,73.2
							c-0.1,0-0.2,0-0.3-0.1c-0.5-0.2-0.8-0.8-0.6-1.3c0.1-0.3,0.2-0.6,0.3-0.9c0.2-0.5,0.8-0.8,1.3-0.6c0.5,0.2,0.8,0.8,0.6,1.3
							c-0.1,0.3-0.2,0.6-0.3,1C102.7,72.9,102.4,73.2,102,73.2z M7.6,72c-0.4,0-0.8-0.3-0.9-0.7c-0.1-0.3-0.2-0.6-0.3-1
							c-0.2-0.5,0.1-1.1,0.7-1.3c0.5-0.2,1.1,0.1,1.3,0.7c0.1,0.3,0.2,0.6,0.3,0.9C8.8,71.2,8.5,71.8,8,72C7.9,72,7.7,72,7.6,72z
							 M103.4,68.4c-0.1,0-0.2,0-0.2,0c-0.5-0.1-0.9-0.7-0.7-1.2c0.1-0.3,0.2-0.6,0.2-1c0.1-0.5,0.7-0.9,1.2-0.7
							c0.5,0.1,0.9,0.7,0.7,1.2c-0.1,0.3-0.2,0.7-0.2,1C104.3,68.1,103.9,68.4,103.4,68.4z M6.3,67.2c-0.5,0-0.9-0.3-1-0.8
							c-0.1-0.3-0.1-0.7-0.2-1c-0.1-0.5,0.2-1.1,0.8-1.2C6.4,64.1,6.9,64.5,7,65c0.1,0.3,0.1,0.6,0.2,1c0.1,0.5-0.2,1.1-0.7,1.2
							C6.4,67.2,6.3,67.2,6.3,67.2z M104.4,63.5c0,0-0.1,0-0.2,0c-0.5-0.1-0.9-0.6-0.8-1.1c0-0.3,0.1-0.6,0.1-1
							c0.1-0.5,0.6-0.9,1.1-0.9c0.5,0.1,0.9,0.6,0.9,1.1c0,0.3-0.1,0.7-0.1,1C105.3,63.2,104.9,63.5,104.4,63.5z M5.4,62.3
							c-0.5,0-0.9-0.4-1-0.9c0-0.3-0.1-0.7-0.1-1c-0.1-0.5,0.3-1,0.9-1.1c0.6-0.1,1,0.3,1.1,0.9c0,0.3,0.1,0.7,0.1,1
							c0.1,0.5-0.3,1-0.9,1.1C5.5,62.3,5.4,62.3,5.4,62.3z M104.9,58.6C104.9,58.6,104.9,58.6,104.9,58.6c-0.6,0-1-0.5-1-1
							c0-0.3,0-0.7,0-1c0-0.5,0.5-1,1-1c0,0,0,0,0,0c0.6,0,1,0.5,1,1c0,0.3,0,0.7,0,1C105.9,58.1,105.5,58.6,104.9,58.6z M5,57.3
							c-0.5,0-1-0.4-1-1c0-0.3,0-0.7,0-1c0-0.6,0.4-1,1-1c0,0,0,0,0,0c0.5,0,1,0.4,1,1c0,0.3,0,0.7,0,1C6,56.8,5.6,57.3,5,57.3
							C5,57.3,5,57.3,5,57.3z M104.9,53.6c-0.5,0-1-0.4-1-1c0-0.3,0-0.7-0.1-1c0-0.6,0.4-1,0.9-1.1c0.5,0,1,0.4,1.1,0.9
							c0,0.3,0,0.7,0.1,1C106,53.1,105.5,53.5,104.9,53.6C105,53.6,105,53.6,104.9,53.6z M5.1,52.3C5.1,52.3,5.1,52.3,5.1,52.3
							c-0.6,0-1-0.5-1-1.1c0-0.3,0.1-0.7,0.1-1c0.1-0.5,0.5-1,1.1-0.9c0.6,0.1,1,0.5,0.9,1.1c0,0.3-0.1,0.7-0.1,1
							C6.1,51.9,5.7,52.3,5.1,52.3z M104.5,48.6c-0.5,0-0.9-0.4-1-0.9c0-0.3-0.1-0.6-0.2-1c-0.1-0.5,0.3-1.1,0.8-1.2
							c0.5-0.1,1.1,0.3,1.2,0.8c0.1,0.3,0.1,0.7,0.2,1c0.1,0.5-0.3,1.1-0.8,1.1C104.6,48.6,104.5,48.6,104.5,48.6z M5.7,47.4
							c-0.1,0-0.1,0-0.2,0c-0.5-0.1-0.9-0.6-0.8-1.2c0.1-0.3,0.1-0.7,0.2-1c0.1-0.5,0.6-0.9,1.2-0.8C6.7,44.5,7,45,6.9,45.6
							c-0.1,0.3-0.1,0.6-0.2,1C6.6,47,6.2,47.4,5.7,47.4z M103.5,43.7c-0.4,0-0.9-0.3-1-0.8c-0.1-0.3-0.2-0.6-0.2-0.9
							c-0.1-0.5,0.2-1.1,0.7-1.2c0.5-0.1,1.1,0.2,1.2,0.7c0.1,0.3,0.2,0.7,0.3,1c0.1,0.5-0.2,1.1-0.7,1.2
							C103.6,43.7,103.6,43.7,103.5,43.7z M6.9,42.5c-0.1,0-0.2,0-0.3,0c-0.5-0.1-0.8-0.7-0.7-1.2c0.1-0.3,0.2-0.7,0.3-1
							c0.2-0.5,0.7-0.8,1.2-0.7c0.5,0.2,0.8,0.7,0.7,1.2c-0.1,0.3-0.2,0.6-0.3,0.9C7.7,42.2,7.3,42.5,6.9,42.5z M102,38.9
							c-0.4,0-0.8-0.3-0.9-0.7c-0.1-0.3-0.2-0.6-0.3-0.9c-0.2-0.5,0.1-1.1,0.6-1.3c0.5-0.2,1.1,0.1,1.3,0.6c0.1,0.3,0.2,0.6,0.4,1
							c0.2,0.5-0.1,1.1-0.6,1.3C102.2,38.9,102.1,38.9,102,38.9z M8.4,37.7c-0.1,0-0.2,0-0.4-0.1c-0.5-0.2-0.8-0.8-0.6-1.3
							c0.1-0.3,0.3-0.6,0.4-0.9c0.2-0.5,0.8-0.8,1.3-0.5c0.5,0.2,0.8,0.8,0.5,1.3c-0.1,0.3-0.2,0.6-0.4,0.9
							C9.2,37.5,8.8,37.7,8.4,37.7z M100.1,34.3c-0.4,0-0.7-0.2-0.9-0.6c-0.1-0.3-0.3-0.6-0.4-0.9c-0.2-0.5-0.1-1.1,0.4-1.3
							c0.5-0.3,1.1-0.1,1.3,0.4c0.2,0.3,0.3,0.6,0.5,0.9c0.2,0.5,0,1.1-0.5,1.3C100.4,34.3,100.2,34.3,100.1,34.3z M10.5,33.2
							c-0.2,0-0.3,0-0.5-0.1c-0.5-0.3-0.7-0.9-0.4-1.3c0.2-0.3,0.3-0.6,0.5-0.9c0.3-0.5,0.9-0.7,1.4-0.4c0.5,0.3,0.7,0.9,0.4,1.4
							c-0.2,0.3-0.3,0.6-0.5,0.9C11.2,33,10.9,33.2,10.5,33.2z M97.7,29.9c-0.3,0-0.7-0.2-0.9-0.5c-0.2-0.3-0.3-0.6-0.5-0.8
							c-0.3-0.5-0.2-1.1,0.3-1.4c0.5-0.3,1.1-0.2,1.4,0.3c0.2,0.3,0.4,0.6,0.5,0.9c0.3,0.5,0.1,1.1-0.3,1.4
							C98,29.9,97.8,29.9,97.7,29.9z M13,28.9c-0.2,0-0.4-0.1-0.5-0.2c-0.5-0.3-0.6-0.9-0.3-1.4c0.2-0.3,0.4-0.6,0.6-0.8
							c0.3-0.5,0.9-0.6,1.4-0.3c0.5,0.3,0.6,0.9,0.3,1.4c-0.2,0.3-0.4,0.5-0.5,0.8C13.6,28.7,13.3,28.9,13,28.9z M94.8,25.8
							c-0.3,0-0.6-0.1-0.8-0.4c-0.2-0.3-0.4-0.5-0.6-0.8c-0.3-0.4-0.3-1.1,0.2-1.4c0.4-0.3,1.1-0.3,1.4,0.2c0.2,0.3,0.4,0.5,0.6,0.8
							c0.3,0.4,0.2,1.1-0.2,1.4C95.3,25.7,95.1,25.8,94.8,25.8z M15.9,24.8c-0.2,0-0.4-0.1-0.6-0.2c-0.4-0.3-0.5-1-0.2-1.4
							c0.2-0.3,0.4-0.5,0.6-0.8c0.4-0.4,1-0.5,1.4-0.1c0.4,0.4,0.5,1,0.1,1.4c-0.2,0.3-0.4,0.5-0.6,0.8
							C16.5,24.7,16.2,24.8,15.9,24.8z M91.6,22c-0.3,0-0.5-0.1-0.7-0.3c-0.2-0.2-0.4-0.5-0.7-0.7c-0.4-0.4-0.4-1,0-1.4
							c0.4-0.4,1-0.4,1.4,0c0.2,0.2,0.5,0.5,0.7,0.7c0.4,0.4,0.4,1-0.1,1.4C92.1,21.9,91.9,22,91.6,22z M19.2,21.1
							c-0.3,0-0.5-0.1-0.7-0.3c-0.4-0.4-0.4-1,0-1.4c0.2-0.2,0.5-0.5,0.7-0.7c0.4-0.4,1-0.4,1.4,0c0.4,0.4,0.4,1,0,1.4
							c-0.2,0.2-0.5,0.5-0.7,0.7C19.7,21,19.5,21.1,19.2,21.1z M88,18.5c-0.2,0-0.5-0.1-0.7-0.2c-0.2-0.2-0.5-0.4-0.7-0.6
							c-0.4-0.4-0.5-1-0.1-1.4c0.4-0.4,1-0.5,1.4-0.1c0.3,0.2,0.5,0.4,0.8,0.7c0.4,0.4,0.5,1,0.1,1.4C88.6,18.4,88.3,18.5,88,18.5z
							 M22.9,17.7c-0.3,0-0.6-0.1-0.8-0.4c-0.4-0.4-0.3-1.1,0.1-1.4c0.3-0.2,0.5-0.4,0.8-0.6c0.4-0.3,1.1-0.3,1.4,0.2
							c0.3,0.4,0.3,1.1-0.2,1.4c-0.3,0.2-0.5,0.4-0.8,0.6C23.3,17.6,23.1,17.7,22.9,17.7z M84.1,15.4c-0.2,0-0.4-0.1-0.6-0.2
							c-0.3-0.2-0.5-0.4-0.8-0.6c-0.5-0.3-0.6-0.9-0.3-1.4c0.3-0.5,0.9-0.6,1.4-0.3c0.3,0.2,0.6,0.4,0.8,0.6
							c0.4,0.3,0.6,0.9,0.2,1.4C84.8,15.2,84.4,15.4,84.1,15.4z M26.9,14.7c-0.3,0-0.6-0.2-0.8-0.4c-0.3-0.5-0.2-1.1,0.3-1.4
							c0.3-0.2,0.6-0.4,0.8-0.6c0.5-0.3,1.1-0.2,1.4,0.3c0.3,0.5,0.2,1.1-0.3,1.4c-0.3,0.2-0.5,0.4-0.8,0.5
							C27.3,14.6,27.1,14.7,26.9,14.7z M79.9,12.7c-0.2,0-0.3,0-0.5-0.1c-0.3-0.2-0.6-0.3-0.9-0.5c-0.5-0.3-0.7-0.9-0.4-1.4
							c0.3-0.5,0.9-0.7,1.4-0.4c0.3,0.2,0.6,0.3,0.9,0.5c0.5,0.3,0.6,0.9,0.4,1.4C80.6,12.5,80.3,12.7,79.9,12.7z M31.1,12.1
							c-0.4,0-0.7-0.2-0.9-0.5c-0.3-0.5-0.1-1.1,0.4-1.4c0.3-0.2,0.6-0.3,0.9-0.5c0.5-0.3,1.1-0.1,1.3,0.4c0.3,0.5,0.1,1.1-0.4,1.3
							c-0.3,0.2-0.6,0.3-0.9,0.5C31.5,12,31.3,12.1,31.1,12.1z M75.5,10.4c-0.1,0-0.3,0-0.4-0.1c-0.3-0.1-0.6-0.3-0.9-0.4
							c-0.5-0.2-0.7-0.8-0.5-1.3c0.2-0.5,0.8-0.7,1.3-0.5c0.3,0.1,0.6,0.3,0.9,0.4c0.5,0.2,0.7,0.8,0.5,1.3
							C76.2,10.2,75.9,10.4,75.5,10.4z M35.6,9.9c-0.4,0-0.8-0.2-0.9-0.6c-0.2-0.5,0-1.1,0.5-1.3c0.3-0.1,0.6-0.3,0.9-0.4
							c0.5-0.2,1.1,0,1.3,0.6c0.2,0.5,0,1.1-0.6,1.3c-0.3,0.1-0.6,0.2-0.9,0.4C35.9,9.9,35.8,9.9,35.6,9.9z M70.8,8.6
							c-0.1,0-0.2,0-0.3-0.1c-0.3-0.1-0.6-0.2-0.9-0.3C69.1,8,68.8,7.5,68.9,7c0.2-0.5,0.7-0.8,1.3-0.7c0.3,0.1,0.6,0.2,1,0.3
							c0.5,0.2,0.8,0.7,0.6,1.3C71.7,8.3,71.3,8.6,70.8,8.6z M40.4,8.2c-0.4,0-0.8-0.3-1-0.7c-0.2-0.5,0.1-1.1,0.7-1.2
							c0.3-0.1,0.7-0.2,1-0.3c0.5-0.1,1.1,0.2,1.2,0.7c0.2,0.5-0.2,1.1-0.7,1.2C41.3,8,41,8,40.6,8.1C40.5,8.2,40.4,8.2,40.4,8.2z
							 M66,7.2c-0.1,0-0.1,0-0.2,0c-0.3-0.1-0.6-0.1-1-0.2c-0.5-0.1-0.9-0.6-0.8-1.2c0.1-0.5,0.6-0.9,1.2-0.8c0.3,0.1,0.7,0.1,1,0.2
							c0.5,0.1,0.9,0.7,0.8,1.2C66.9,6.9,66.5,7.2,66,7.2z M45.2,7c-0.5,0-0.9-0.3-1-0.8C44.1,5.6,44.5,5.1,45,5
							c0.3-0.1,0.7-0.1,1-0.2c0.5-0.1,1.1,0.3,1.2,0.8c0.1,0.5-0.3,1.1-0.8,1.2c-0.3,0.1-0.6,0.1-1,0.2C45.3,7,45.3,7,45.2,7z
							 M61.1,6.4c0,0-0.1,0-0.1,0c-0.3,0-0.6-0.1-1-0.1c-0.5-0.1-1-0.5-0.9-1.1c0.1-0.5,0.5-0.9,1.1-0.9c0.3,0,0.7,0.1,1,0.1
							c0.5,0.1,0.9,0.6,0.9,1.1C62,6,61.6,6.4,61.1,6.4z M50.1,6.2c-0.5,0-0.9-0.4-1-0.9c-0.1-0.5,0.3-1,0.9-1.1
							c0.3,0,0.7-0.1,1-0.1c0.5,0,1,0.4,1.1,0.9s-0.4,1-0.9,1.1C50.9,6.2,50.6,6.2,50.1,6.2C50.2,6.2,50.2,6.2,50.1,6.2z M56.1,6
							C56.1,6,56.1,6,56.1,6c-0.3,0-0.7,0-1,0c-0.6,0-1-0.5-1-1c0-0.6,0.4-1,1-1c0,0,0,0,0,0c0.3,0,0.7,0,1,0c0.6,0,1,0.5,1,1
							C57.1,5.6,56.7,6,56.1,6z"/>
						<g id="Group-9" transform="translate(35.000000, 19.000000)">
							<path class="st1" d="M20,41C8.4,41-1,31.6-1,20S8.4-1,20-1c11.6,0,21,9.4,21,21S31.6,41,20,41z M20,1C9.5,1,1,9.5,1,20
								s8.5,19,19,19s19-8.5,19-19S30.5,1,20,1z"/>
							<path id="Shape_3_" class="st1" d="M11.7,16.4l-2,1L9,16.1l3.1-2h1.7v9.4l1.8,0.1v1.4h-6v-1.4l1.6-0.1c0.3,0,0.5-0.2,0.5-0.6
								V16.4L11.7,16.4z M18.9,19.4c-0.8-0.5-1.7-1.3-1.7-2.6c0-1.6,1.4-2.8,3.5-2.8c2.4,0,3.2,1.3,3.2,2.6c0,1.1-0.8,2-1.6,2.7
								c1.3,0.8,2,1.7,2,3c0,1.6-1.2,3.1-3.8,3.1c-2.8,0-3.7-1.5-3.7-2.9C16.7,20.9,18,19.9,18.9,19.4z M20.2,20.1
								c-0.8,0.5-1.4,1.1-1.4,2.1c0,0.8,0.5,1.4,1.7,1.4c1,0,1.7-0.6,1.7-1.5C22.1,21.2,21.3,20.7,20.2,20.1z M19.1,16.7
								c0,0.8,0.7,1.4,1.6,1.9c0.6-0.4,1.3-1.1,1.3-1.9c0-0.8-0.6-1.2-1.4-1.2C19.7,15.4,19.1,16,19.1,16.7z M28.7,16.2h1.7v2.7h2.6
								v1.7h-2.6v2.7h-1.7v-2.7h-2.6v-1.7h2.6V16.2z"/>
						</g>
					</g>
				</g>
			</g>
		</g>
	</g>
</g>
</svg>
