<svg xmlns:sketch="http://www.bohemiancoding.com/sketch/ns" xmlns="http://www.w3.org/2000/svg" xmlns:xlink="http://www.w3.org/1999/xlink" version="1.1" id="Layer_1" x="0" y="0" width="112" height="112" viewBox="-1361 415.9 112 112" xml:space="preserve" enable-background="new -1361 415.9 112 112">
  <style type="text/css">
    
	.st0{fill:#EFEFEF;}
	.st1{fill:none;stroke:#313133;stroke-width:2;stroke-linecap:round;stroke-linejoin:round;stroke-dasharray:1,4;}
	.st2{fill:#313133;}
	.st3{fill:#313133;stroke:#EFEFEF;}

  </style>
  <title>
    Services
  </title>
  <desc>
    Created with Sketch.
  </desc>
  <g id="Homepage" sketch:type="MSPage">
    <g id="Home---Big-desktop" transform="translate(-1011.000000, -621.000000)" sketch:type="MSArtboardGroup">
      <g id="Group" transform="translate(-15.000000, -251.000000)" sketch:type="MSLayerGroup">
        <g id="What-will-you-discover_x3F_-Copy" transform="translate(615.000000, 872.000000)" sketch:type="MSShapeGroup">
          <g id="categories">
            <g id="Services" transform="translate(411.583324, 0.000000)">
              <path id="Fill-1" class="st0" d="M-1250 472c0-30.6-24.9-55.5-55.5-55.5s-55.5 24.9-55.5 55.5c0 30.6 24.9 55.5 55.5 55.5S-1250 502.6-1250 472z"/>
              <path id="Stroke-6" class="st1" d="M-1260.5 493.7c3.2-6.6 5-14 5-21.8 0-27.6-22.4-50-50-50 -27.6 0-50 22.4-50 50 0 21.5 13.7 39.9 32.8 46.9 5.4 2 11.2 3.1 17.2 3.1C-1285.7 522-1268.6 510.4-1260.5 493.7z"/>
              <g id="services-icon" transform="translate(37.008821, 22.000000)">
                <path id="Imported-Layers-4" class="st2" d="M-1330.9 425.4c-1.2-0.8-2.7-1-4-0.6 -0.9 0.3-1.8 0.9-2.4 1.8 -0.1 0.2-0.2 0.4-0.3 0.6 -0.1 0.3-0.2 0.5-0.3 0.8l-4.1 4.4 -2.6 3c0-0.1-0.1-0.1-0.1-0.2 -0.1-0.2-0.2-0.3-0.3-0.5l1.3-1.5 -2-1.3 3.1-6.9c0.2-0.2 0.5-0.4 0.7-0.6 0.1-0.2 0.3-0.3 0.4-0.5 0.6-0.9 0.9-2 0.8-3 -0.1-1.3-0.8-2.6-2-3.4 -2.1-1.4-5-0.9-6.4 1.2s-0.9 5 1.3 6.4c0.5 0.4 1.1 0.6 1.7 0.7l-10.6 22.5 7.5-8.7 0.2-0.3 1.4-1.6c0 0 0 0 0 0 0.1 0.1 0.2 0.1 0.3 0.2 0.1 0.1 0.2 0.1 0.4 0.1l-11 12.7 0 0c-1.8 3.8-0.9 4.3 1.9 1.3l18.7-20.3c0.3 0.5 0.8 1 1.3 1.4 2.1 1.4 5 0.9 6.4-1.2S-1328.8 426.9-1330.9 425.4L-1330.9 425.4zM-1345.3 424c-0.5 0-1-0.2-1.5-0.5 -1.2-0.8-1.6-2.5-0.7-3.8 0.8-1.2 2.5-1.6 3.8-0.7 1.2 0.8 1.6 2.5 0.7 3.8 -0.1 0.2-0.3 0.4-0.4 0.5C-1344 423.8-1344.6 424-1345.3 424L-1345.3 424zM-1347.8 436.4c-0.1-0.4-0.1-0.8 0.2-1.1 0.1-0.2 0.3-0.3 0.5-0.4 0.4-0.2 0.9-0.2 1.3 0.1 0.1 0.1 0.2 0.2 0.3 0.3 0.1 0.1 0.2 0.3 0.3 0.5 0 0.1 0 0.2 0 0.3 0 0.3-0.1 0.5-0.2 0.8 -0.2 0.3-0.6 0.5-0.9 0.6 -0.1 0-0.3 0-0.4 0 -0.1 0-0.3-0.1-0.4-0.2 0 0 0 0-0.1 0C-1347.5 437-1347.7 436.7-1347.8 436.4L-1347.8 436.4zM-1334.9 431.5c-0.5-0.3-0.8-0.8-1-1.3 -0.2-0.6-0.2-1.3 0-1.9 0.1-0.2 0.2-0.4 0.3-0.6 0.8-1.2 2.5-1.6 3.8-0.7 1.2 0.8 1.6 2.5 0.7 3.8C-1332 432-1333.7 432.3-1334.9 431.5L-1334.9 431.5z"/>
                <path id="Imported-Layers" class="st3" d="M-1358 424.9l5.2 3.3 12.1 11.8 -1.4 1.5 2.2 2.2 0.7-0.7c0.8 2 6.3 7.4 8.3 8.1l-0.7 0.7 2.2 2.2 4.9-5.2 -2.2-2.2 -0.7 0.7c-0.8-2-6.3-7.4-8.3-8.1l0.7-0.7 -2.2-2.2 -1.4 1.5 -12.1-11.8 -3.4-5.2 -3.7-2 -2.4 2.5L-1358 424.9z"/>
              </g>
              <path class="st2" d="M-1328.5 492.5c-0.4 0-0.7 0-1-0.1 -0.3-0.1-0.3-0.2-0.3-0.5v-0.9l-1.4 0.1v2.2c0.8 0.4 1.7 0.6 2.8 0.6 1.9 0 3.4-1 3.4-2.9 0-1.8-1.3-2.4-2.6-2.8 -1-0.3-1.9-0.6-1.9-1.4s0.6-1.2 1.5-1.2c0.3 0 0.6 0 0.9 0.1 0.3 0.1 0.3 0.2 0.3 0.5v0.8l1.4-0.1v-2.1c-0.8-0.4-1.7-0.6-2.6-0.6 -1.9 0-3.2 1-3.2 2.7 0 1.8 1.3 2.4 2.7 2.7 1 0.3 1.8 0.5 1.8 1.4C-1326.8 492.2-1327.6 492.5-1328.5 492.5L-1328.5 492.5zM-1320.6 486.5c-2.3 0-3.5 1.8-3.5 3.9 0 2.1 0.9 3.5 3.3 3.5 1.3 0 2.2-0.6 2.5-0.8l-0.5-1.1c-0.3 0.2-0.9 0.6-1.8 0.6 -1.2 0-1.7-0.7-1.7-1.7 1.7 0 4-0.4 4-2.5C-1318.3 487.2-1319.2 486.5-1320.6 486.5L-1320.6 486.5zM-1319.9 488.5c0 1.1-1.5 1.3-2.5 1.3 0-1 0.5-2.1 1.7-2.1C-1320.2 487.7-1319.9 488-1319.9 488.5L-1319.9 488.5zM-1316.5 492.2c0 0.3-0.1 0.4-0.4 0.5l-0.5 0v1.1h3.8v-1.1l-1.2-0.1v-3.2c0-0.8 0.5-1.4 1.3-1.4 0.2 0 0.3 0 0.4 0.1 0.1 0.1 0.1 0.2 0.1 0.4v0.6l1.3-0.1v-2.1c-0.5-0.2-0.9-0.3-1.3-0.3 -0.9 0-1.7 0.6-2 1.3v-1h-2.4v1.1l0.6 0c0.3 0 0.4 0.1 0.4 0.4V492.2zM-1306.6 486.7v1.1l0.7 0 -1.4 4.6h0l-1.4-4.6 0.9 0v-1.1h-3.3v1.1l0.4 0c0.3 0 0.3 0.1 0.4 0.4l2 5.6h2.1l1.8-5.6c0.1-0.3 0.2-0.3 0.4-0.3l0.4 0v-1.1H-1306.6zM-1300.5 486.7h-2.5v1.2l0.5 0c0.3 0 0.3 0.1 0.3 0.4v3.9c0 0.3-0.2 0.4-0.4 0.4l-0.5 0v1.1h3.3v-1.1l-0.8 0V486.7zM-1302.6 484.8c0 0.6 0.4 1 1.1 1 0.6 0 1.1-0.4 1.1-1 0-0.6-0.4-1-1.1-1C-1302.2 483.7-1302.6 484.2-1302.6 484.8L-1302.6 484.8zM-1295.4 492.7c-1.2 0-1.8-1-1.8-2.5 0-1.6 0.6-2.4 1.7-2.4 0.2 0 0.4 0 0.5 0.1 0.3 0.1 0.3 0.2 0.3 0.5v0.7l1.3-0.1v-1.8c-0.7-0.4-1.3-0.6-2.2-0.6 -1.6 0-3.3 1-3.3 3.8 0 2.3 1.2 3.6 3.3 3.6 1 0 1.9-0.4 2.4-0.8l-0.6-1.1C-1294.4 492.5-1294.9 492.7-1295.4 492.7L-1295.4 492.7zM-1288.8 486.5c-2.3 0-3.5 1.8-3.5 3.9 0 2.1 0.9 3.5 3.3 3.5 1.3 0 2.2-0.6 2.5-0.8l-0.5-1.1c-0.3 0.2-0.9 0.6-1.8 0.6 -1.2 0-1.7-0.7-1.7-1.7 1.7 0 4-0.4 4-2.5C-1286.5 487.2-1287.4 486.5-1288.8 486.5L-1288.8 486.5zM-1288.1 488.5c0 1.1-1.5 1.3-2.5 1.3 0-1 0.5-2.1 1.7-2.1C-1288.4 487.7-1288.1 488-1288.1 488.5L-1288.1 488.5zM-1281.9 487.8c0.3 0.1 0.3 0.2 0.3 0.5v0.6l1.3-0.1v-1.7c-0.5-0.3-1.4-0.6-2.3-0.6 -1.5 0-2.7 0.8-2.7 2.2 0 1.6 1.1 1.9 2.2 2.2 0.8 0.2 1.4 0.3 1.4 1 0 0.6-0.4 0.9-1.1 0.9 -0.3 0-0.7 0-0.9-0.1 -0.3-0.1-0.3-0.2-0.3-0.5v-0.7l-1.3 0.1v1.9c0.6 0.3 1.7 0.4 2.6 0.4 1.5 0 2.7-0.8 2.7-2.2 0-1.5-1.2-1.9-2.3-2.2 -0.7-0.2-1.3-0.4-1.3-1 0-0.6 0.4-0.8 1.1-0.8C-1282.4 487.7-1282.1 487.7-1281.9 487.8L-1281.9 487.8z"/>
            </g>
          </g>
        </g>
      </g>
    </g>
  </g>
</svg>
