<svg xmlns:sketch="http://www.bohemiancoding.com/sketch/ns" xmlns="http://www.w3.org/2000/svg" xmlns:xlink="http://www.w3.org/1999/xlink" version="1.1" id="Layer_1" x="0" y="0" width="112" height="112" viewBox="0 0 112 112" xml:space="preserve" enable-background="new 0 0 112 112">
  <style type="text/css">
    
	.st0{fill:#EFEFEF;}
	.st1{fill:none;stroke:#313133;stroke-width:2;stroke-linecap:round;stroke-linejoin:round;stroke-dasharray:1,4;}
	.st2{fill:#313133;stroke:#EFEFEF;stroke-width:2;}
	.st3{fill:#313133;}

  </style>
  <title>
    Community
  </title>
  <desc>
    Created with Sketch.
  </desc>
  <g id="Homepage" sketch:type="MSPage">
    <g id="Home---Big-desktop" transform="translate(-1287.000000, -621.000000)" sketch:type="MSArtboardGroup">
      <g id="Group" transform="translate(-15.000000, -251.000000)" sketch:type="MSLayerGroup">
        <g id="What-will-you-discover_x3F_-Copy" transform="translate(615.000000, 872.000000)" sketch:type="MSShapeGroup">
          <g id="categories">
            <g id="Community" transform="translate(687.214844, 0.000000)">
              <path id="Fill-1" class="st0" d="M111 55.5C111 24.9 86.1 0 55.5 0S0 24.9 0 55.5C0 86.1 24.9 111 55.5 111S111 86.1 111 55.5z"/>
              <path id="Stroke-6" class="st1" d="M100.5 77.3c3.2-6.6 5-14 5-21.8 0-27.6-22.4-50-50-50s-50 22.4-50 50c0 21.5 13.7 39.9 32.8 46.9 5.4 2 11.2 3.1 17.2 3.1C75.3 105.5 92.4 94 100.5 77.3z"/>
              <g id="community-icon" transform="translate(37.578872, 28.800116)">
                <path id="Oval-25" class="st2" d="M21.6 13.9c3.6 1.9 6.2 6.4 6.2 11.7 0 0.1 0 0.2 0 0.4l0 0c-3 1.1-6.3 1.7-9.9 1.7S11 27.1 8 26c0-0.1 0-0.2 0-0.4 0-5.4 2.7-10.1 6.5-11.8 -1.8-1.1-3.1-3.1-3.1-5.4 0-3.6 3-6.4 6.8-6.4s6.8 2.9 6.8 6.4C24.9 10.7 23.6 12.8 21.6 13.9z"/>
                <path class="st3" d="M12.7 13.6c-1.5-1.4-2.3-3.3-2.3-5.3 0-2.2 1-4.1 2.5-5.5 -1-1.3-2.6-2.1-4.4-2.1 -3.1 0-5.7 2.6-5.7 5.8 0 2 1 3.8 2.6 4.9C2.3 13.1 0 17.2 0 22.1c0 0.2 0 0.5 0 0.7 2.1 0.7 4.5 1.1 7 1.2C7.5 19.6 9.6 15.7 12.7 13.6z"/>
                <path class="st3" d="M30.6 11.6c1.7-1 2.8-2.9 2.8-5 0-3.2-2.5-5.8-5.7-5.8 -1.7 0-3.3 0.8-4.3 2 1.6 1.4 2.6 3.3 2.6 5.5 0 2.1-0.9 4.1-2.5 5.5 2.9 2.1 4.9 5.9 5.3 10.1 2.5-0.1 4.9-0.6 7-1.5 0-0.1 0-0.2 0-0.3C35.8 17.4 33.6 13.3 30.6 11.6z"/>
              </g>
              <path class="st3" d="M24 69.8c0.3 0.1 0.3 0.2 0.3 0.5v1.1l1.4-0.1v-2.4c-0.8-0.4-1.8-0.6-2.6-0.6 -2.2 0-4.4 1.2-4.4 4.9 0 3.2 1.6 4.8 4.4 4.8 0.9 0 2-0.2 2.8-0.6V75l-1.4-0.1V76c0 0.3 0 0.4-0.3 0.5 -0.3 0.1-0.6 0.1-1 0.1 -1.9 0-2.7-1.3-2.7-3.5 0-2.1 0.9-3.4 2.6-3.4C23.4 69.7 23.7 69.8 24 69.8L24 69.8zM30.2 76.8c-1.3 0-1.5-1.4-1.5-2.7 0-1.3 0.4-2.3 1.6-2.3 1.1 0 1.5 1 1.5 2.5C31.8 75.8 31.3 76.8 30.2 76.8L30.2 76.8zM27 74.3c0 2.5 1.2 3.7 3.1 3.7 1.8 0 3.3-1.2 3.3-3.9 0-3.2-2.1-3.5-3.1-3.5C28.9 70.6 27 71.4 27 74.3L27 74.3zM34.3 71.9l0.6 0c0.3 0 0.4 0.1 0.4 0.4v3.9h0c0 0.3-0.1 0.4-0.4 0.5l-0.5 0v1.1h3.3v-1.1l-0.8 0v-3.4c0-0.7 0.4-1.4 1.4-1.4 0.9 0 1 0.7 1 1.5v2.9c0 0.3-0.1 0.4-0.4 0.5l-0.5 0v1.1h3.3v-1.1l-0.8 0v-3.4c0-0.8 0.4-1.4 1.4-1.4 0.9 0 1 0.7 1 1.5v2.9c0 0.3-0.2 0.4-0.4 0.4l-0.5 0v1.1h3.3v-1.1l-0.8 0V73c0-1.7-0.8-2.4-2.1-2.4 -0.9 0-1.6 0.4-2.1 1.1 -0.3-0.8-1-1.1-1.9-1.1 -0.9 0-1.6 0.4-2.1 1.1v-0.9h-2.4V71.9zM46.4 71.9l0.6 0c0.3 0 0.4 0.1 0.4 0.4v3.9h0c0 0.3-0.1 0.4-0.4 0.5l-0.5 0v1.1h3.3v-1.1l-0.8 0v-3.4c0-0.7 0.4-1.4 1.4-1.4 0.9 0 1 0.7 1 1.5v2.9c0 0.3-0.1 0.4-0.4 0.5l-0.5 0v1.1h3.3v-1.1l-0.8 0v-3.4c0-0.8 0.4-1.4 1.4-1.4 0.9 0 1 0.7 1 1.5v2.9c0 0.3-0.2 0.4-0.4 0.4l-0.5 0v1.1h3.3v-1.1l-0.8 0V73c0-1.7-0.8-2.4-2.1-2.4 -0.9 0-1.6 0.4-2.1 1.1 -0.3-0.8-1-1.1-1.9-1.1 -0.9 0-1.6 0.4-2.1 1.1v-0.9h-2.4V71.9zM66.1 76.7l-0.5 0c-0.3 0-0.3-0.1-0.3-0.4v-5.5h-2.5v1.1l0.4 0c0.3 0 0.3 0.1 0.3 0.4v3c0 0.7-0.5 1.4-1.5 1.4 -0.9 0-1-0.6-1-1.5v-4.4h-2.5v1.1l0.4 0c0.2 0 0.3 0.1 0.3 0.4v3.2c0 1.7 0.8 2.4 2.2 2.4 0.9 0 1.8-0.4 2.3-1.1v0.9h2.3V76.7zM66.8 71.9l0.6 0c0.3 0 0.4 0.1 0.4 0.4v3.9c0 0.3-0.1 0.4-0.4 0.5l-0.5 0v1.1h3.3v-1.1l-0.8 0v-3.4c0-0.7 0.5-1.4 1.4-1.4 1 0 1.1 0.6 1.1 1.5v2.9c0 0.3-0.1 0.4-0.4 0.5l-0.5 0v1.1h3.3v-1.1l-0.8 0V73c0-1.7-0.8-2.4-2.2-2.4 -0.9 0-1.8 0.4-2.3 1.1v-0.9h-2.4V71.9zM77.9 70.8h-2.5v1.2l0.5 0c0.3 0 0.3 0.1 0.3 0.4v3.9c0 0.3-0.2 0.4-0.4 0.4l-0.5 0v1.1h3.3v-1.1l-0.8 0V70.8zM75.8 68.8c0 0.6 0.4 1 1.1 1 0.6 0 1.1-0.4 1.1-1s-0.4-1.1-1.1-1.1C76.2 67.8 75.8 68.2 75.8 68.8L75.8 68.8zM81 69.3c-0.3 0.8-0.6 1.6-1.6 1.6l-0.1 1h1v3.7c0 1 0 2.3 2.2 2.3 0.7 0 1.4-0.2 1.8-0.5l-0.4-1.1c-0.2 0.1-0.6 0.3-1 0.3 -0.6 0-0.9-0.3-0.9-1.1V72h1.7l0.1-1.2h-1.9v-1.5H81zM89.9 77.6c0 1.3-0.5 2.1-1.8 2.1 -0.4 0-0.7 0-1-0.1 -0.3-0.1-0.3-0.2-0.3-0.5v-0.7l-1.3 0.1v1.9c0.6 0.3 1.8 0.5 2.6 0.5 2.1 0 3.2-1 3.2-3.3v-6.8h-2.5v1.1l0.4 0c0.3 0 0.3 0.1 0.3 0.4v2.5c0 0.7-0.5 1.4-1.5 1.4 -0.9 0-1-0.6-1-1.5v-4h-2.5v1.1l0.4 0c0.2 0 0.4 0.1 0.4 0.4v2.8c0 1.7 0.8 2.4 2.2 2.4 0.9 0 1.8-0.4 2.3-1.1V77.6z"/>
            </g>
          </g>
        </g>
      </g>
    </g>
  </g>
</svg>
