<svg xmlns:sketch="http://www.bohemiancoding.com/sketch/ns" xmlns="http://www.w3.org/2000/svg" xmlns:xlink="http://www.w3.org/1999/xlink" version="1.1" id="Layer_1" x="0" y="0" width="112" height="112" viewBox="-1361 415.9 112 112" xml:space="preserve" enable-background="new -1361 415.9 112 112">
  <style type="text/css">
    
	.st0{fill:#EFEFEF;}
	.st1{fill:none;stroke:#313133;stroke-width:2;stroke-linecap:round;stroke-linejoin:round;stroke-dasharray:1,4;}
	.st2{fill:#313133;}

  </style>
  <title>
    Property
  </title>
  <desc>
    Created with Sketch.
  </desc>
  <path id="Fill-1" sketch:type="MSShapeGroup" class="st0" d="M-1249.7 471.7c0-30.6-24.9-55.5-55.5-55.5 -30.6 0-55.5 24.9-55.5 55.5 0 30.6 24.9 55.5 55.5 55.5C-1274.6 527.2-1249.7 502.3-1249.7 471.7z"/>
  <path id="Stroke-6" sketch:type="MSShapeGroup" class="st1" d="M-1260.2 493.5c3.2-6.6 5-14 5-21.8 0-27.6-22.4-50-50-50 -27.6 0-50 22.4-50 50 0 21.5 13.7 39.9 32.8 46.9 5.4 2 11.2 3.1 17.2 3.1C-1285.4 521.7-1268.3 510.2-1260.2 493.5z"/>
  <rect x="-1320.1" y="439.7" class="st2" width="29" height="2"/>
  <path class="st2" d="M-1318.6 443v30.3h9.7V466h6.7v7.2h9.7V443H-1318.6zM-1308.9 461.4h-6.7v-5.9h6.7V461.4zM-1308.9 452.2h-6.7v-5.9h6.7V452.2zM-1295.6 461.4h-6.7v-5.9h6.7V461.4zM-1295.6 452.2h-6.7v-5.9h6.7V452.2z"/>
  <g id="Rectangle-100-_x2B_-Rectangle-101" transform="translate(4.456354, 6.581106)"/>
  <path sketch:type="MSShapeGroup" class="st2" d="M-1331.6 493.5h3.7v-1.1l-1.3 0v-1.9h1.1c2 0 3.4-1 3.4-3 0-1.8-1.2-2.7-3.1-2.7h-3.8v1.1l0.8 0v6.1c0 0.3-0.2 0.3-0.4 0.4l-0.4 0V493.5zM-1329.1 489.2V486h0.8c1.3 0 2.1 0.2 2.1 1.6 0 1.2-0.8 1.6-1.9 1.6H-1329.1zM-1322.9 492.1c0 0.3-0.1 0.4-0.4 0.4l-0.4 0v1h3.5v-1l-1.1-0.1v-3.1c0-0.8 0.5-1.3 1.2-1.3 0.1 0 0.2 0 0.4 0.1 0.1 0.1 0.1 0.2 0.1 0.3v0.6l1.2-0.1v-2c-0.4-0.2-0.8-0.3-1.3-0.3 -0.9 0-1.6 0.5-1.9 1.2v-1h-2.2v1.1l0.6 0c0.3 0 0.3 0.1 0.3 0.4V492.1zM-1314.9 492.6c-1.3 0-1.4-1.3-1.4-2.5 0-1.3 0.4-2.2 1.5-2.2 1.1 0 1.4 0.9 1.4 2.4C-1313.5 491.6-1313.9 492.6-1314.9 492.6L-1314.9 492.6zM-1317.9 490.2c0 2.4 1.2 3.5 2.9 3.5 1.7 0 3.2-1.2 3.2-3.7 0-3-2-3.3-2.9-3.3C-1316.2 486.7-1317.9 487.5-1317.9 490.2L-1317.9 490.2zM-1310.2 494.8c0 0.3-0.1 0.4-0.4 0.4l-0.4 0v1h3.4v-1l-1.1-0.1v-1.8c0.3 0.2 0.9 0.4 1.4 0.4 1.7 0 2.9-1.3 2.9-3.7 0-2.4-0.9-3.4-2.4-3.4 -1.1 0-1.8 0.6-2.1 1.1v-0.9h-2.2v1.1l0.6 0c0.3 0 0.3 0.1 0.3 0.4V494.8zM-1306 490.2c0 1.1-0.4 2.3-1.5 2.3 -0.3 0-0.8-0.1-1.2-0.3v-3c0-0.6 0.6-1.1 1.3-1.1C-1306.7 488-1306 488.4-1306 490.2L-1306 490.2zM-1300.2 486.7c-2.2 0-3.3 1.7-3.3 3.7 0 2 0.9 3.3 3.1 3.3 1.2 0 2.1-0.6 2.3-0.7l-0.5-1.1c-0.3 0.2-0.9 0.6-1.7 0.6 -1.1 0-1.6-0.7-1.6-1.6 1.6 0 3.8-0.4 3.8-2.4C-1298 487.4-1298.9 486.7-1300.2 486.7L-1300.2 486.7zM-1299.5 488.6c0 1-1.4 1.2-2.4 1.3 0-1 0.5-2 1.6-2C-1299.8 487.8-1299.5 488.1-1299.5 488.6L-1299.5 488.6zM-1296.3 492.1c0 0.3-0.1 0.4-0.4 0.4l-0.4 0v1h3.5v-1l-1.1-0.1v-3.1c0-0.8 0.5-1.3 1.2-1.3 0.1 0 0.2 0 0.4 0.1 0.1 0.1 0.1 0.2 0.1 0.3v0.6l1.2-0.1v-2c-0.4-0.2-0.8-0.3-1.3-0.3 -0.9 0-1.6 0.5-1.9 1.2v-1h-2.2v1.1l0.6 0c0.3 0 0.3 0.1 0.3 0.4V492.1zM-1289.5 485.5c-0.3 0.8-0.6 1.5-1.5 1.5l-0.1 1h0.9v3.5c0 0.9 0 2.2 2 2.2 0.6 0 1.3-0.2 1.7-0.5l-0.4-1c-0.2 0.1-0.5 0.3-0.9 0.3 -0.5 0-0.9-0.2-0.9-1V488h1.6l0.1-1.1h-1.8v-1.4H-1289.5zM-1281.2 493.3c0 1.2-0.5 1.9-1.7 1.9 -0.4 0-0.7 0-0.9-0.1 -0.2-0.1-0.3-0.2-0.3-0.5V494l-1.3 0.1v1.8c0.6 0.3 1.6 0.4 2.5 0.4 2 0 3.1-0.9 3.1-3.1v-6.4h-2.3v1.1l0.4 0c0.3 0 0.3 0.1 0.3 0.4v2.4c0 0.7-0.5 1.3-1.4 1.3 -0.8 0-1-0.6-1-1.4v-3.8h-2.3v1.1l0.4 0c0.2 0 0.3 0.1 0.3 0.4v2.7c0 1.6 0.7 2.3 2 2.3 0.9 0 1.7-0.4 2.1-1V493.3z"/>
</svg>
