<svg xmlns:sketch="http://www.bohemiancoding.com/sketch/ns" xmlns="http://www.w3.org/2000/svg" xmlns:xlink="http://www.w3.org/1999/xlink" version="1.1" id="Layer_1" x="0" y="0" width="112" height="112" viewBox="0 0 112 112" xml:space="preserve" enable-background="new 0 0 112 112">
  <style type="text/css">
    
	.st0{fill:#EFEFEF;}
	.st1{fill:none;stroke:#313133;stroke-width:2;stroke-linecap:round;stroke-linejoin:round;stroke-dasharray:1,4;}
	.st2{fill:#313133;}

  </style>
  <title>
    Animals
  </title>
  <desc>
    Created with Sketch.
  </desc>
  <g id="Homepage" sketch:type="MSPage">
    <g id="Home---Big-desktop" transform="translate(-1150.000000, -621.000000)" sketch:type="MSArtboardGroup">
      <g id="Group" transform="translate(-15.000000, -251.000000)" sketch:type="MSLayerGroup">
        <g id="What-will-you-discover_x3F_-Copy" transform="translate(615.000000, 872.000000)" sketch:type="MSShapeGroup">
          <g id="categories">
            <g id="Animals" transform="translate(550.845818, 0.000000)">
              <path id="Fill-1" class="st0" d="M111 56.2c0-30.6-24.9-55.5-55.5-55.5S0 25.6 0 56.2c0 30.6 24.9 55.5 55.5 55.5S111 86.8 111 56.2z"/>
              <path id="Stroke-6" class="st1" d="M100.5 77.9c3.2-6.6 5-14 5-21.8 0-27.6-22.4-50-50-50s-50 22.4-50 50c0 21.5 13.7 39.9 32.8 46.9 5.4 2 11.2 3.1 17.2 3.1C75.3 106.2 92.4 94.7 100.5 77.9z"/>
              <g id="paw-icon" transform="translate(55.500000, 43.537676) rotate(13.000000) translate(-55.500000, -43.537676) translate(39.208065, 26.838443)">
                <path id="Fill-1_1_" class="st2" d="M8.4 30.2c-1-4.3 4.3-12.5 8.6-13.5 3.6-0.8 12.6 3.9 13.7 8.4 1.4 6.1-5 3-10.7 4.3C14.2 30.7 9.8 36.2 8.4 30.2"/>
                <path id="Fill-2" class="st2" d="M13.4 6.9c1.6 3.1 1.2 6.4-0.9 7.4 -2.1 1-5-0.6-6.6-3.7C4.2 7.6 4.7 4.3 6.7 3.3 8.8 2.2 11.8 3.9 13.4 6.9"/>
                <path id="Fill-3" class="st2" d="M8.4 22.3c-1.7 1.3-4.6 0.4-6.6-2 -2-2.4-2.3-5.5-0.6-6.8 1.7-1.3 4.6-0.4 6.6 2C9.8 17.9 10 21 8.4 22.3z"/>
                <path id="Fill-4" class="st2" d="M15.8 6.4c0 3.4 1.8 6.2 4.1 6.3 2.3 0 4.3-2.7 4.3-6.1 0.1-3.4-1.8-6.2-4.1-6.3C17.8 0.2 15.9 2.9 15.8 6.4"/>
                <path id="Fill-5" class="st2" d="M27.1 18c2.1 0.5 4.4-1.6 5.1-4.7 0.7-3.1-0.4-5.9-2.5-6.4 -2.1-0.5-4.4 1.6-5.1 4.7C23.9 14.7 25.1 17.6 27.1 18z"/>
              </g>
              <path class="st2" d="M30.2 76.3c-0.1 0.3-0.2 0.4-0.4 0.4l-0.5 0v1.1h3.2v-1.2l-0.8 0 0.4-1.2h3.3l0.3 0.9c0.1 0.3 0 0.4-0.3 0.4l-0.5 0v1.1h3.6v-1.2l-0.8 0h0l-2.9-8.1h-3.2v1.1l0.9 0.1L30.2 76.3zM33.8 70.1L33.8 70.1l1.3 4h-2.6L33.8 70.1zM38.9 71.9l0.6 0c0.3 0 0.3 0.1 0.3 0.4v3.9c0 0.3-0.1 0.4-0.4 0.5l-0.5 0v1.1h3.3v-1.1l-0.8 0v-3.4c0-0.7 0.5-1.4 1.4-1.4 1 0 1.1 0.6 1.1 1.5v2.9c0 0.3-0.1 0.4-0.4 0.5l-0.5 0v1.1h3.3v-1.1l-0.8 0V73c0-1.7-0.8-2.4-2.2-2.4 -0.9 0-1.8 0.4-2.3 1.1v-0.9h-2.4V71.9zM49.9 70.8h-2.5v1.2l0.5 0c0.3 0 0.4 0.1 0.4 0.4v3.9c0 0.3-0.2 0.4-0.4 0.4l-0.5 0v1.1h3.3v-1.1l-0.8 0V70.8zM47.9 68.8c0 0.6 0.4 1 1.1 1 0.6 0 1.1-0.4 1.1-1s-0.4-1.1-1.1-1.1C48.3 67.8 47.9 68.2 47.9 68.8L47.9 68.8zM51.5 71.9l0.6 0c0.3 0 0.3 0.1 0.3 0.4v3.9h0c0 0.3-0.1 0.4-0.4 0.5l-0.5 0v1.1h3.3v-1.1l-0.8 0v-3.4c0-0.7 0.4-1.4 1.4-1.4 0.9 0 1 0.7 1 1.5v2.9c0 0.3-0.1 0.4-0.4 0.5l-0.5 0v1.1h3.3v-1.1l-0.8 0v-3.4c0-0.8 0.4-1.4 1.4-1.4 0.9 0 1 0.7 1 1.5v2.9c0 0.3-0.2 0.4-0.4 0.4l-0.5 0v1.1h3.3v-1.1l-0.8 0V73c0-1.7-0.8-2.4-2.1-2.4 -0.9 0-1.6 0.4-2.1 1.1 -0.3-0.8-1-1.1-1.9-1.1 -0.9 0-1.6 0.4-2.1 1.1v-0.9h-2.4V71.9zM70 71.1c-1-0.4-2-0.5-2.5-0.5 -2.5 0-3.7 1.6-3.7 4 0 2 0.8 3.4 2.8 3.4 0.8 0 1.5-0.4 1.9-1l0 0v0.8h2.2v-1.1l-0.4 0c-0.3 0-0.3-0.1-0.3-0.4V71.1zM68.3 75.6c0 0.6-0.5 1.2-1.4 1.2 -1.2 0-1.5-1.1-1.5-2.3 0-1.5 0.4-2.8 1.8-2.8 0.4 0 0.9 0.1 1.1 0.2V75.6zM74.1 67.8h-2.5V69l0.5 0c0.2 0 0.3 0.1 0.3 0.3v6.9c0 0.3-0.2 0.4-0.4 0.4l-0.5 0v1.1h3.3v-1.1l-0.8 0V67.8zM79.5 71.8c0.3 0.1 0.3 0.2 0.3 0.5v0.6l1.3-0.1v-1.7c-0.5-0.3-1.4-0.6-2.3-0.6 -1.5 0-2.7 0.8-2.7 2.2 0 1.6 1.1 1.9 2.2 2.2 0.8 0.2 1.4 0.3 1.4 1 0 0.6-0.4 0.9-1.1 0.9 -0.3 0-0.7 0-0.9-0.1 -0.3-0.1-0.3-0.2-0.3-0.5v-0.7l-1.3 0.1v1.9c0.6 0.3 1.7 0.4 2.6 0.4 1.5 0 2.7-0.8 2.7-2.2 0-1.5-1.2-1.9-2.3-2.2 -0.7-0.2-1.3-0.4-1.3-1 0-0.6 0.4-0.8 1.1-0.8C79 71.7 79.2 71.7 79.5 71.8L79.5 71.8z"/>
            </g>
          </g>
        </g>
      </g>
    </g>
  </g>
</svg>
