<?xml version="1.0" encoding="utf-8"?>
<!-- Generator: Adobe Illustrator 19.1.0, SVG Export Plug-In . SVG Version: 6.00 Build 0)  -->
<!DOCTYPE svg PUBLIC "-//W3C//DTD SVG 1.1//EN" "http://www.w3.org/Graphics/SVG/1.1/DTD/svg11.dtd">
<svg version="1.1" id="Layer_1" xmlns:sketch="http://www.bohemiancoding.com/sketch/ns"
	 xmlns="http://www.w3.org/2000/svg" xmlns:xlink="http://www.w3.org/1999/xlink" x="0px" y="0px" width="112px" height="112px"
	 viewBox="-423 225 112 112" style="enable-background:new -423 225 112 112;" xml:space="preserve">
<style type="text/css">
	.st0{fill:#A8DC28;}
	.st1{fill:none;stroke:#313133;stroke-width:2;stroke-linecap:round;stroke-linejoin:round;stroke-dasharray:1,4;}
	.st2{fill:#313133;}
</style>
<title>Motors</title>
<desc>Created with Sketch.</desc>
<path id="Fill-1" class="st0" d="M-311.5,281c0-30.6-24.9-55.5-55.5-55.5s-55.5,24.9-55.5,55.5s24.9,55.5,55.5,55.5
	S-311.5,311.6-311.5,281z"/>
<path id="Stroke-6" class="st1" d="M-322,302.8c3.2-6.6,5-14,5-21.8c0-27.6-22.4-50-50-50s-50,22.4-50,50
	c0,21.5,13.7,39.9,32.8,46.9c5.4,2,11.2,3.1,17.2,3.1C-347.2,331-330.1,319.5-322,302.8z"/>
<path class="st2" d="M-349.5,261.2h-2.3v4.5h-0.6l-1.8-10.1c0,0-6.5-1.1-12.8-1.1c-6.5,0-12.8,1.1-12.8,1.1l-1.8,10.1h-0.6v-4.5
	h-2.3c-0.7,0-1.2,0.4-1.2,1.1v4.5c0,0.7,0.5,1,1.2,1l2.3,0.1h0.2l-0.2,1.1c-1.3,0-2.3,1-2.3,2.3v5.6c0,1.2,1,2.3,2.3,2.3v2.1
	c0,0.7,0.5,1.2,1.2,1.2h3.5c0.6,0,1.2-0.6,1.2-1.2v-2.1h18.7v2.1c0,0.7,0.5,1.2,1.2,1.2h3.5c0.6,0,1.2-0.6,1.2-1.2v-2.1
	c1.3,0,2.3-1,2.3-2.3v-5.6c0-1.2-1-2.3-2.3-2.3l-0.2-1.1h0.2l2.3-0.1c0.7,0,1.2-0.3,1.2-1v-4.5
	C-348.3,261.7-348.8,261.2-349.5,261.2z M-377.6,257.3c0,0,5.3-1.1,10.5-1.1c5.3,0,10.5,1.1,10.5,1.1l2.4,10.1h-25.7L-377.6,257.3z
	 M-378,276.2c-1.2,0-2.2-1-2.2-2.2s1-2.2,2.2-2.2s2.2,1,2.2,2.2S-376.8,276.2-378,276.2z M-356.1,276.2c-1.2,0-2.2-1-2.2-2.2
	s1-2.2,2.2-2.2s2.2,1,2.2,2.2S-354.9,276.2-356.1,276.2z"/>
<path class="st2" d="M-385.6,294h-2.8v1.2l0.9,0.1l-0.4,6.5c0,0.2-0.2,0.4-0.3,0.4h-0.5v1.1h3.3v-1.2h-0.9l0.3-5.2l0,0l2.1,5.5h1.3
	l2.2-5.6l0,0l0.3,4.9c0,0.3-0.1,0.4-0.4,0.4h-0.5v1.1h3.4V302h-0.9l-0.4-6.4c0-0.4,0.2-0.5,0.4-0.5h0.5V294h-2.8l-2.4,6.3l0,0
	L-385.6,294z M-373.7,302.3c-1.3,0-1.5-1.4-1.5-2.7c0-1.3,0.4-2.3,1.6-2.3c1.1,0,1.5,1,1.5,2.5
	C-372.2,301.3-372.6,302.3-373.7,302.3L-373.7,302.3z M-376.9,299.8c0,2.5,1.2,3.7,3.1,3.7c1.8,0,3.3-1.2,3.3-3.9
	c0-3.2-2.1-3.5-3.1-3.5C-375,296.1-376.9,296.9-376.9,299.8L-376.9,299.8z M-368.2,294.8c-0.3,0.8-0.6,1.6-1.6,1.6l-0.1,1h1v3.7
	c0,1,0,2.3,2.2,2.3c0.7,0,1.4-0.2,1.8-0.5l-0.4-1.1c-0.2,0.1-0.6,0.3-1,0.3c-0.6,0-0.9-0.3-0.9-1.1v-3.5h1.7l0.1-1.2h-1.9v-1.5
	H-368.2z M-361.5,302.3c-1.3,0-1.5-1.4-1.5-2.7c0-1.3,0.4-2.3,1.6-2.3c1.1,0,1.5,1,1.5,2.5C-360,301.3-360.4,302.3-361.5,302.3
	L-361.5,302.3z M-364.7,299.8c0,2.5,1.2,3.7,3.1,3.7c1.8,0,3.3-1.2,3.3-3.9c0-3.2-2.1-3.5-3.1-3.5
	C-362.8,296.1-364.7,296.9-364.7,299.8L-364.7,299.8z M-356.5,301.8c0,0.3-0.1,0.4-0.4,0.5h-0.5v1.1h3.8v-1.1l-1.2-0.1V299
	c0-0.8,0.5-1.4,1.3-1.4c0.2,0,0.3,0,0.4,0.1c0.1,0.1,0.1,0.2,0.1,0.4v0.6l1.3-0.1v-2.1c-0.5-0.2-0.9-0.3-1.3-0.3
	c-0.9,0-1.7,0.6-2,1.3v-1h-2.4v1.1h0.6c0.3,0,0.3,0.1,0.3,0.4L-356.5,301.8L-356.5,301.8z M-347.4,297.3c0.3,0.1,0.3,0.2,0.3,0.5
	v0.6l1.3-0.1v-1.7c-0.5-0.3-1.4-0.6-2.3-0.6c-1.5,0-2.7,0.8-2.7,2.2c0,1.6,1.1,1.9,2.2,2.2c0.8,0.2,1.4,0.3,1.4,1
	c0,0.6-0.4,0.9-1.1,0.9c-0.3,0-0.7,0-0.9-0.1c-0.3-0.1-0.3-0.2-0.3-0.5V301l-1.3,0.1v1.9c0.6,0.3,1.7,0.4,2.6,0.4
	c1.5,0,2.7-0.8,2.7-2.2c0-1.5-1.2-1.9-2.3-2.2c-0.7-0.2-1.3-0.4-1.3-1s0.4-0.8,1-0.8C-347.9,297.2-347.7,297.3-347.4,297.3
	L-347.4,297.3z"/>
</svg>
