<svg xmlns:sketch="http://www.bohemiancoding.com/sketch/ns" xmlns="http://www.w3.org/2000/svg" xmlns:xlink="http://www.w3.org/1999/xlink" version="1.1" id="Layer_1" x="0" y="0" width="112" height="112" viewBox="-343 180 112 112" xml:space="preserve" enable-background="new -343 180 112 112">
  <style type="text/css">
    
	.st0{fill:#EFEFEF;}
	.st1{fill:none;stroke:#313133;stroke-width:2;stroke-linecap:round;stroke-linejoin:round;stroke-dasharray:1,4;}
	.st2{fill:#313133;}

  </style>
  <title>
    Jobs
  </title>
  <desc>
    Created with Sketch.
  </desc>
  <g id="Homepage" sketch:type="MSPage">
    <g id="Home---Big-desktop" transform="translate(-875.000000, -621.000000)" sketch:type="MSArtboardGroup">
      <g id="Group" transform="translate(-15.000000, -251.000000)" sketch:type="MSLayerGroup">
        <g id="What-will-you-discover_x3F_-Copy" transform="translate(615.000000, 872.000000)" sketch:type="MSShapeGroup">
          <g id="categories">
            <g id="Jobs-OFF-_x2B_-Jobs-Hover-_x2B_-Jobs-Hover-Active" transform="translate(275.506233, 0.000000)">
              <g id="Jobs" transform="translate(0.165429, 0.102040)">
                <path id="Fill-1" class="st0" d="M-231.8 235.8c0-30.6-24.9-55.5-55.5-55.5s-55.5 24.9-55.5 55.5c0 30.6 24.9 55.5 55.5 55.5S-231.8 266.4-231.8 235.8z"/>
                <path id="Stroke-6" class="st1" d="M-242.3 257.6c3.2-6.6 5-14 5-21.8 0-27.6-22.4-50-50-50s-50 22.4-50 50c0 21.5 13.7 39.9 32.8 46.9 5.4 2 11.2 3.1 17.2 3.1C-267.6 285.8-250.4 274.3-242.3 257.6z"/>
                <g id="jobs-icon" transform="translate(58.652562, 45.036949) rotate(2.000000) translate(-58.652562, -45.036949) translate(47.552562, 24.669977)">
                  <path id="Fill-2" class="st2" d="M-325.2 203.7l4.7 20.2 -7.7 7.9 -8.3-7.4 3.3-20.4L-325.2 203.7z"/>
                  <path id="Fill-3" class="st2" d="M-323.2 204.7l1.9 6.6 3.5 4.2 2.8-2.2 -2.2-4.1L-323.2 204.7"/>
                  <path id="Fill-4" class="st2" d="M-332.2 192.6l5.3-0.2c1.5 0 2.7 1.1 2.8 2.4l0.1 3.8c0 1.4-1.1 2.6-2.6 2.6l-5.3 0.2c-1.5 0-2.7-1.1-2.8-2.5l-0.1-3.8C-334.9 193.8-333.7 192.7-332.2 192.6"/>
                </g>
                <path class="st2" d="M-298.6 259.3c1.7 0 2.5-0.8 2.7-2.1 0.1-0.5 0.1-1.1 0.1-1.5v-4.4c0-0.3 0.1-0.4 0.4-0.4l0.5 0v-1.2h-3.7v1.2l1.1 0.1v5.6c0 0.9-0.3 1.3-1 1.3 -0.3 0-0.5 0-0.7-0.1 -0.3-0.1-0.3-0.2-0.3-0.5v-1.1l-1.4 0.1v2.5C-300.3 259.2-299.5 259.3-298.6 259.3L-298.6 259.3zM-291.3 258.1c-1.4 0-1.5-1.4-1.5-2.8 0-1.4 0.5-2.3 1.6-2.3 1.1 0 1.5 1 1.5 2.6C-289.8 257.1-290.2 258.1-291.3 258.1L-291.3 258.1zM-294.6 255.6c0 2.6 1.2 3.8 3.1 3.8 1.9 0 3.4-1.3 3.4-4 0-3.3-2.1-3.6-3.2-3.6C-292.7 251.8-294.6 252.6-294.6 255.6L-294.6 255.6zM-286.8 258.7c0.6 0.3 1.8 0.6 2.8 0.6 2.3 0 3.4-1.3 3.4-4.1 0-2.2-1.1-3.5-2.9-3.5 -0.7 0-1.3 0.2-1.7 0.6V249h-2.5v1.2l0.5 0c0.2 0 0.4 0.1 0.4 0.3V258.7zM-285.1 254.1c0-0.6 0.6-1.1 1.3-1.1 1.3 0 1.6 1.3 1.6 2.4 0 2-0.6 2.6-1.6 2.6 -0.5 0-1-0.1-1.2-0.3V254.1zM-275.8 253.1c0.3 0.1 0.3 0.2 0.3 0.5v0.6l1.3-0.1v-1.7c-0.6-0.3-1.4-0.6-2.3-0.6 -1.5 0-2.7 0.8-2.7 2.3 0 1.6 1.1 1.9 2.2 2.2 0.8 0.2 1.4 0.3 1.4 1 0 0.6-0.4 0.9-1.1 0.9 -0.3 0-0.7 0-0.9-0.1 -0.3-0.1-0.3-0.2-0.3-0.5v-0.7l-1.3 0.1v2c0.6 0.3 1.7 0.4 2.6 0.4 1.5 0 2.7-0.8 2.7-2.3 0-1.6-1.2-1.9-2.3-2.2 -0.7-0.2-1.3-0.4-1.3-1 0-0.6 0.5-0.9 1.1-0.9C-276.3 252.9-276.1 253-275.8 253.1L-275.8 253.1z"/>
              </g>
            </g>
          </g>
        </g>
      </g>
    </g>
  </g>
</svg>
