<svg xmlns:sketch="http://www.bohemiancoding.com/sketch/ns" xmlns="http://www.w3.org/2000/svg" xmlns:xlink="http://www.w3.org/1999/xlink" version="1.1" id="Layer_1" x="0" y="0" width="112" height="112" viewBox="-1361 415.9 112 112" xml:space="preserve" enable-background="new -1361 415.9 112 112">
  <style type="text/css">
    
	.st0{fill:#A8DC28;}
	.st1{fill:none;stroke:#313133;stroke-width:2;stroke-linecap:round;stroke-linejoin:round;stroke-dasharray:1,4;}
	.st2{fill:#313133;}

  </style>
  <title>
    Animals hover
  </title>
  <desc>
    Created with Sketch.
  </desc>
  <g id="Homepage" sketch:type="MSPage">
    <g id="Home---Big-desktop" transform="translate(-1150.000000, -621.000000)" sketch:type="MSArtboardGroup">
      <g id="Group" transform="translate(-15.000000, -251.000000)" sketch:type="MSLayerGroup">
        <g id="What-will-you-discover_x3F_-Copy" transform="translate(615.000000, 872.000000)" sketch:type="MSShapeGroup">
          <g id="categories">
            <g id="Animals-hover" transform="translate(550.845818, 0.000000)">
              <path id="Fill-1" class="st0" d="M-1250 472.1c0-30.6-24.9-55.5-55.5-55.5s-55.5 24.9-55.5 55.5c0 30.6 24.9 55.5 55.5 55.5S-1250 502.7-1250 472.1z"/>
              <path id="Stroke-6" class="st1" d="M-1260.5 493.9c3.2-6.6 5-14 5-21.8 0-27.6-22.4-50-50-50s-50 22.4-50 50c0 21.5 13.7 39.9 32.8 46.9 5.4 2 11.2 3.1 17.2 3.1C-1285.7 522.1-1268.6 510.6-1260.5 493.9z"/>
              <g id="paw-icon" transform="translate(55.500000, 43.537676) rotate(13.000000) translate(-55.500000, -43.537676) translate(39.208065, 26.838443)">
                <path id="Fill-1_1_" class="st2" d="M-1224.2 741.6c-1-4.3 4.3-12.5 8.6-13.5 3.6-0.8 12.6 3.9 13.7 8.4 1.4 6.1-5 3-10.7 4.3C-1218.4 742.1-1222.8 747.7-1224.2 741.6"/>
                <path id="Fill-2" class="st2" d="M-1219.2 718.4c1.6 3.1 1.2 6.4-0.9 7.4 -2.1 1-5-0.6-6.6-3.7 -1.6-3.1-1.2-6.4 0.9-7.4C-1223.7 713.7-1220.8 715.3-1219.2 718.4"/>
                <path id="Fill-3" class="st2" d="M-1224.2 733.7c-1.7 1.3-4.6 0.4-6.6-2 -2-2.4-2.3-5.5-0.6-6.8 1.7-1.3 4.6-0.4 6.6 2C-1222.8 729.4-1222.5 732.4-1224.2 733.7z"/>
                <path id="Fill-4" class="st2" d="M-1216.7 717.8c0 3.4 1.8 6.2 4.1 6.3 2.3 0 4.3-2.7 4.3-6.1 0.1-3.4-1.8-6.2-4.1-6.3C-1214.8 711.6-1216.7 714.4-1216.7 717.8"/>
                <path id="Fill-5" class="st2" d="M-1205.4 729.5c2.1 0.5 4.4-1.6 5.1-4.7 0.7-3.1-0.4-5.9-2.5-6.4 -2.1-0.5-4.4 1.6-5.1 4.7C-1208.6 726.2-1207.5 729-1205.4 729.5z"/>
              </g>
              <path id="Animals" class="st2" d="M-1330.8 492.2c-0.1 0.3-0.2 0.4-0.4 0.4l-0.5 0v1.1h3.2v-1.2l-0.8 0 0.4-1.2h3.3l0.3 0.9c0.1 0.3 0 0.4-0.3 0.4l-0.5 0v1.1h3.6v-1.2l-0.8 0h0l-2.9-8.1h-3.2v1.1l0.9 0.1L-1330.8 492.2zM-1327.2 486L-1327.2 486l1.3 4h-2.6L-1327.2 486zM-1322.1 487.8l0.6 0c0.3 0 0.3 0.1 0.3 0.4v3.9c0 0.3-0.1 0.4-0.4 0.5l-0.5 0v1.1h3.3v-1.1l-0.8 0v-3.4c0-0.7 0.5-1.4 1.4-1.4 1 0 1.1 0.6 1.1 1.5v2.9c0 0.3-0.1 0.4-0.4 0.5l-0.5 0v1.1h3.3v-1.1l-0.8 0v-3.7c0-1.7-0.8-2.4-2.2-2.4 -0.9 0-1.8 0.4-2.3 1.1v-0.9h-2.4V487.8zM-1311.1 486.7h-2.5v1.2l0.5 0c0.3 0 0.3 0.1 0.3 0.4v3.9c0 0.3-0.2 0.4-0.4 0.4l-0.5 0v1.1h3.3v-1.1l-0.8 0V486.7zM-1313.1 484.8c0 0.6 0.4 1 1.1 1 0.6 0 1.1-0.4 1.1-1 0-0.6-0.4-1-1.1-1C-1312.7 483.7-1313.1 484.2-1313.1 484.8L-1313.1 484.8zM-1309.5 487.9l0.6 0c0.3 0 0.3 0.1 0.3 0.4v3.9h0c0 0.3-0.1 0.4-0.4 0.5l-0.5 0v1.1h3.3v-1.1l-0.8 0v-3.4c0-0.7 0.4-1.4 1.4-1.4 0.9 0 1 0.7 1 1.5v2.9c0 0.3-0.1 0.4-0.4 0.5l-0.5 0v1.1h3.3v-1.1l-0.8 0v-3.4c0-0.8 0.4-1.4 1.4-1.4 0.9 0 1 0.7 1 1.5v2.9c0 0.3-0.2 0.4-0.4 0.4l-0.5 0v1.1h3.3v-1.1l-0.8 0v-3.7c0-1.7-0.8-2.4-2.1-2.4 -0.9 0-1.6 0.4-2.1 1.1 -0.3-0.8-1-1.1-1.9-1.1 -0.9 0-1.6 0.4-2.1 1.1v-0.9h-2.4V487.9zM-1291 487c-1-0.4-2-0.5-2.5-0.5 -2.5 0-3.7 1.6-3.7 4 0 2 0.8 3.4 2.8 3.4 0.8 0 1.5-0.4 1.9-1l0 0v0.8h2.2v-1.1l-0.4 0c-0.3 0-0.3-0.1-0.3-0.4V487zM-1292.7 491.5c0 0.6-0.5 1.2-1.4 1.2 -1.2 0-1.5-1.1-1.5-2.3 0-1.5 0.4-2.8 1.8-2.8 0.4 0 0.9 0.1 1.1 0.2V491.5zM-1286.9 483.8h-2.5v1.2l0.5 0c0.2 0 0.4 0.1 0.4 0.3v6.9c0 0.3-0.2 0.4-0.4 0.4l-0.5 0v1.1h3.3v-1.1l-0.8 0V483.8zM-1281.5 487.8c0.3 0.1 0.3 0.2 0.3 0.5v0.6l1.3-0.1v-1.7c-0.5-0.3-1.4-0.6-2.3-0.6 -1.5 0-2.7 0.8-2.7 2.2 0 1.6 1.1 1.9 2.2 2.2 0.8 0.2 1.4 0.3 1.4 1 0 0.6-0.4 0.9-1.1 0.9 -0.3 0-0.7 0-0.9-0.1 -0.3-0.1-0.3-0.2-0.3-0.5v-0.7l-1.3 0.1v1.9c0.6 0.3 1.7 0.4 2.6 0.4 1.5 0 2.7-0.8 2.7-2.2 0-1.5-1.2-1.9-2.3-2.2 -0.7-0.2-1.3-0.4-1.3-1 0-0.6 0.4-0.8 1.1-0.8C-1282 487.7-1281.8 487.7-1281.5 487.8L-1281.5 487.8z"/>
            </g>
          </g>
        </g>
      </g>
    </g>
  </g>
</svg>
