<svg xmlns:sketch="http://www.bohemiancoding.com/sketch/ns" xmlns="http://www.w3.org/2000/svg" xmlns:xlink="http://www.w3.org/1999/xlink" version="1.1" id="Layer_1" x="0" y="0" width="112" height="112" viewBox="-1361 416.9 112 112" xml:space="preserve" enable-background="new -1361 416.9 112 112">
  <style type="text/css">
    
	.st0{fill:#A8DC28;}
	.st1{fill:none;stroke:#313133;stroke-width:2;stroke-linecap:round;stroke-linejoin:round;stroke-dasharray:1,4;}
	.st2{fill:#313133;}

  </style>
  <title>
    Community hover
  </title>
  <desc>
    Created with Sketch.
  </desc>
  <path id="Fill-1" class="st0" d="M-1249.8 472.4c0-30.6-24.9-55.5-55.5-55.5s-55.5 24.9-55.5 55.5c0 30.6 24.9 55.5 55.5 55.5S-1249.8 503-1249.8 472.4z"/>
  <path id="Stroke-6" class="st1" d="M-1260.3 494.2c3.2-6.6 5-14 5-21.8 0-27.6-22.4-50-50-50s-50 22.4-50 50c0 21.5 13.7 39.9 32.8 46.9 5.4 2 11.2 3.1 17.2 3.1C-1285.5 522.4-1268.4 510.9-1260.3 494.2z"/>
  <path id="Oval-26" class="st2" d="M-1311.7 457.3c3 1.7 5.2 5.7 5.2 10.5l0 0c-2.7 1.2-5.9 1.9-9.3 1.9 -2.6 0-5.1-0.4-7.3-1.2 0-0.2 0-0.5 0-0.7 0-4.9 2.2-9.1 5.4-10.7 -1.5-1-2.6-2.8-2.6-4.9 0-3.2 2.5-5.8 5.7-5.8 3.1 0 5.7 2.6 5.7 5.8C-1309 454.5-1310.1 456.3-1311.7 457.3z"/>
  <path id="Oval-26_1_" class="st2" d="M-1292.6 457.3c3 1.7 5.2 5.8 5.2 10.6 0 0.1 0 0.2 0 0.3l0 0c-2.5 1-5.3 1.5-8.3 1.5 -3 0-5.8-0.6-8.3-1.5 0-0.1 0-0.2 0-0.3 0-4.9 2.2-9.1 5.4-10.7 -1.5-1-2.6-2.8-2.6-4.9 0-3.2 2.5-5.8 5.7-5.8 3.1 0 5.7 2.6 5.7 5.8C-1289.9 454.5-1291 456.3-1292.6 457.3z"/>
  <path class="st2" d="M-1301.6 459.6c3.6 1.9 6.2 6.4 6.2 11.7 0 0.1 0 0.2 0 0.4l0 0c-3 1.1-6.3 1.7-9.9 1.7 -3.6 0-7-0.6-9.9-1.7 0-0.1 0-0.2 0-0.4 0-5.4 2.7-10.1 6.5-11.8 -1.8-1.1-3.1-3.1-3.1-5.4 0-3.6 3-6.4 6.8-6.4 3.7 0 6.8 2.9 6.8 6.4C-1298.3 456.5-1299.6 458.5-1301.6 459.6z"/>
  <path class="st0" d="M-1305.3 474.4c-3.6 0-7.1-0.6-10.3-1.8l-0.6-0.2 0-1.1c0-5 2.2-9.6 5.7-12 -1.5-1.4-2.3-3.3-2.3-5.3 0-4.1 3.5-7.4 7.8-7.4s7.8 3.3 7.8 7.4c0 2.1-0.9 4.1-2.5 5.5 3.3 2.4 5.4 6.9 5.4 11.8l0 1.1 -0.6 0.2C-1298.2 473.8-1301.7 474.4-1305.3 474.4zM-1314.2 471c5.5 1.8 12.3 1.9 17.8 0 -0.1-4.7-2.3-8.8-5.6-10.5l-1.6-0.8 1.6-0.9c1.7-1 2.8-2.7 2.8-4.6 0-3-2.6-5.4-5.8-5.4 -3.2 0-5.8 2.4-5.8 5.4 0 1.8 1 3.5 2.6 4.5l1.6 1 -1.7 0.8C-1311.8 462-1314.1 466.3-1314.2 471z"/>
  <path id="Community" class="st2" d="M-1336.8 486.8c0.3 0.1 0.3 0.2 0.3 0.5v1.1l1.4-0.1v-2.4c-0.8-0.4-1.8-0.6-2.6-0.6 -2.2 0-4.4 1.2-4.4 4.9 0 3.2 1.6 4.8 4.4 4.8 0.9 0 2-0.2 2.8-0.6V492l-1.4-0.1v1.1c0 0.3 0 0.4-0.3 0.5 -0.3 0.1-0.6 0.1-1 0.1 -1.9 0-2.7-1.3-2.7-3.5 0-2.1 0.9-3.4 2.6-3.4C-1337.4 486.7-1337.1 486.7-1336.8 486.8L-1336.8 486.8zM-1330.5 493.7c-1.3 0-1.5-1.4-1.5-2.7 0-1.3 0.4-2.3 1.6-2.3 1.1 0 1.5 1 1.5 2.5C-1329 492.7-1329.5 493.7-1330.5 493.7L-1330.5 493.7zM-1333.8 491.2c0 2.5 1.2 3.7 3.1 3.7 1.8 0 3.3-1.2 3.3-3.9 0-3.2-2.1-3.5-3.1-3.5C-1331.9 487.5-1333.8 488.3-1333.8 491.2L-1333.8 491.2zM-1326.5 488.9l0.6 0c0.3 0 0.3 0.1 0.3 0.4v3.9h0c0 0.3-0.1 0.4-0.4 0.5l-0.5 0v1.1h3.3v-1.1l-0.8 0v-3.4c0-0.7 0.4-1.4 1.4-1.4 0.9 0 1 0.7 1 1.5v2.9c0 0.3-0.1 0.4-0.4 0.5l-0.5 0v1.1h3.3v-1.1l-0.8 0v-3.4c0-0.8 0.4-1.4 1.4-1.4 0.9 0 1 0.7 1 1.5v2.9c0 0.3-0.2 0.4-0.4 0.4l-0.5 0v1.1h3.3v-1.1l-0.8 0v-3.7c0-1.7-0.8-2.4-2.1-2.4 -0.9 0-1.6 0.4-2.1 1.1 -0.3-0.8-1-1.1-1.9-1.1 -0.9 0-1.6 0.4-2.1 1.1v-0.9h-2.4V488.9zM-1314.3 488.9l0.6 0c0.3 0 0.3 0.1 0.3 0.4v3.9h0c0 0.3-0.1 0.4-0.4 0.5l-0.5 0v1.1h3.3v-1.1l-0.8 0v-3.4c0-0.7 0.4-1.4 1.4-1.4 0.9 0 1 0.7 1 1.5v2.9c0 0.3-0.1 0.4-0.4 0.5l-0.5 0v1.1h3.3v-1.1l-0.8 0v-3.4c0-0.8 0.4-1.4 1.4-1.4 0.9 0 1 0.7 1 1.5v2.9c0 0.3-0.2 0.4-0.4 0.4l-0.5 0v1.1h3.3v-1.1l-0.8 0v-3.7c0-1.7-0.8-2.4-2.1-2.4 -0.9 0-1.6 0.4-2.1 1.1 -0.3-0.8-1-1.1-1.9-1.1 -0.9 0-1.6 0.4-2.1 1.1v-0.9h-2.4V488.9zM-1294.7 493.7l-0.5 0c-0.3 0-0.3-0.1-0.3-0.4v-5.5h-2.5v1.1l0.4 0c0.3 0 0.4 0.1 0.4 0.4v3c0 0.7-0.5 1.4-1.5 1.4 -0.9 0-1-0.6-1-1.5v-4.4h-2.5v1.1l0.4 0c0.2 0 0.3 0.1 0.3 0.4v3.2c0 1.7 0.8 2.4 2.2 2.4 0.9 0 1.8-0.4 2.3-1.1v0.9h2.3V493.7zM-1293.9 488.8l0.6 0c0.3 0 0.3 0.1 0.3 0.4v3.9c0 0.3-0.1 0.4-0.4 0.5l-0.5 0v1.1h3.3v-1.1l-0.8 0v-3.4c0-0.7 0.5-1.4 1.4-1.4 1 0 1.1 0.6 1.1 1.5v2.9c0 0.3-0.1 0.4-0.4 0.5l-0.5 0v1.1h3.3v-1.1l-0.8 0v-3.7c0-1.7-0.8-2.4-2.2-2.4 -0.9 0-1.8 0.4-2.3 1.1v-0.9h-2.4V488.8zM-1282.9 487.7h-2.5v1.2l0.5 0c0.3 0 0.3 0.1 0.3 0.4v3.9c0 0.3-0.2 0.4-0.4 0.4l-0.5 0v1.1h3.3v-1.1l-0.8 0V487.7zM-1285 485.8c0 0.6 0.4 1 1.1 1 0.6 0 1.1-0.4 1.1-1 0-0.6-0.4-1-1.1-1C-1284.6 484.7-1285 485.2-1285 485.8L-1285 485.8zM-1279.8 486.2c-0.3 0.8-0.6 1.6-1.6 1.6l-0.1 1h1v3.7c0 1 0 2.3 2.2 2.3 0.7 0 1.4-0.2 1.8-0.5l-0.4-1.1c-0.2 0.1-0.6 0.3-1 0.3 -0.6 0-0.9-0.3-0.9-1.1v-3.7h1.7l0.1-1.2h-1.9v-1.5H-1279.8zM-1270.9 494.5c0 1.3-0.5 2.1-1.8 2.1 -0.4 0-0.7 0-1-0.1 -0.3-0.1-0.3-0.2-0.3-0.5v-0.7l-1.3 0.1v1.9c0.6 0.3 1.8 0.5 2.6 0.5 2.1 0 3.2-1 3.2-3.3v-6.8h-2.5v1.1l0.4 0c0.3 0 0.3 0.1 0.3 0.4v2.5c0 0.7-0.5 1.4-1.5 1.4 -0.9 0-1-0.6-1-1.5v-4h-2.5v1.1l0.4 0c0.2 0 0.4 0.1 0.4 0.4v2.8c0 1.7 0.8 2.4 2.2 2.4 0.9 0 1.8-0.4 2.3-1.1V494.5z"/>
</svg>
