<svg xmlns="http://www.w3.org/2000/svg" version="1.1" x="0" y="0" width="112" height="112" viewBox="-242 366.9 112 112" xml:space="preserve"><style type="text/css">
	.st0{fill:#FFFFFF;}
	.st1{fill:#A8DC28;}
	.st2{fill:none;stroke:#313133;stroke-width:2;stroke-linecap:round;stroke-linejoin:round;stroke-dasharray:1,4;}
	.st3{fill:#313133;}
</style><path class="st0" d="M-131.7 421.3c0-29.9-24.7-54.3-54.9-54.3s-54.9 24.4-54.9 54.3c0 29.9 24.7 54.3 54.9 54.3S-131.7 451.3-131.7 421.3z"/><title>for sale hover</title><desc>Created with Sketch.</desc><g transform="translate(-138.000000, -593.000000)"><g transform="translate(-239.000000, 551.691426)"><g transform="translate(247.000000, 0.000000)"><g transform="translate(130.372370, 40.947335)"><path class="st1" d="M-132.1 421.7c0-29.9-24.7-54.3-54.9-54.3s-54.9 24.4-54.9 54.3c0 29.9 24.7 54.3 54.9 54.3S-132.1 451.6-132.1 421.7z"/><path class="st2" d="M-142.1 443.2c3.2-6.5 5-13.8 5-21.5 0-27.2-22.4-49.4-50-49.4s-50 22.1-50 49.4c0 21.2 13.6 39.4 32.7 46.3 5.4 2 11.2 3 17.2 3C-167.3 471.1-150.2 459.7-142.1 443.2z"/><g transform="translate(37.470871, 30.709054)"><path class="st3" d="M-238.4 375.5c-1.9 0-3.5 1.6-3.5 3.5 0 1.1 0.6 2.1 1.4 2.8v8.8c0 1.5 1.3 2.8 2.8 2.8 1.5 0 2.8-1.2 2.8-2.8V379C-234.9 377.1-236.5 375.5-238.4 375.5M-210.9 375.5c1.9 0 3.5 1.6 3.5 3.5 0 1.1-0.6 2.1-1.4 2.8v8.8c0 1.5-1.3 2.8-2.8 2.8 -1.5 0-2.8-1.2-2.8-2.8V379C-214.4 377.1-212.8 375.5-210.9 375.5M-234.6 367c-1.7 0-3.2 1.4-3.2 3.1v4.1c2.2 0.5 3.9 2.5 3.9 4.9v2.5h18.7v-2.5c0-2.4 1.6-4.3 3.9-4.9v-4.1c0-1.7-1.4-3.1-3.2-3.1H-234.6zM-233.9 390.5h18.7v-8h-18.7V390.5z"/></g><path class="st3" d="M-242 366.9 -211.1 443.6h3.8v-1.2l-1.2 0v-2.7h3.4v-1.4h-3.4v-2.4h2.4c0.4 0 0.4 0.2 0.4 0.4v0.6l1.4-0.1v-2.3h-6.7v1.2l0.8 0v6.4c0 0.3-0.2 0.4-0.4 0.4l-0.5 0V443.6zM-201.1 442.6c-1.3 0-1.5-1.4-1.5-2.7 0-1.3 0.4-2.3 1.5-2.3 1.1 0 1.5 1 1.5 2.5C-199.6 441.6-200 442.6-201.1 442.6L-201.1 442.6zM-204.2 440.2c0 2.5 1.2 3.7 3.1 3.7 1.8 0 3.3-1.2 3.3-3.9 0-3.2-2.1-3.5-3.1-3.5C-202.4 436.5-204.2 437.3-204.2 440.2L-204.2 440.2zM-196.1 442.1c0 0.3-0.1 0.4-0.4 0.5l-0.5 0v1h3.7v-1.1l-1.2-0.1v-3.2c0-0.8 0.5-1.4 1.3-1.4 0.2 0 0.2 0 0.4 0.1 0.1 0.1 0.1 0.2 0.1 0.3v0.6l1.3-0.1v-2.1c-0.5-0.2-0.9-0.3-1.3-0.3 -0.9 0-1.6 0.6-2 1.2v-1h-2.3v1.1l0.6 0c0.3 0 0.3 0.1 0.3 0.4V442.1zM-184.2 437.8c0.2 0.1 0.3 0.2 0.3 0.5v0.6l1.2-0.1v-1.7c-0.5-0.3-1.3-0.6-2.3-0.6 -1.4 0-2.7 0.8-2.7 2.2 0 1.5 1.1 1.9 2.1 2.1 0.7 0.2 1.3 0.3 1.3 1 0 0.6-0.4 0.8-1.1 0.8 -0.3 0-0.6 0-0.9-0.1 -0.2-0.1-0.3-0.2-0.3-0.5v-0.7l-1.2 0.1v1.9c0.6 0.3 1.7 0.4 2.5 0.4 1.5 0 2.7-0.8 2.7-2.2 0-1.5-1.2-1.8-2.3-2.1 -0.6-0.2-1.3-0.4-1.3-1 0-0.6 0.4-0.8 1-0.8C-184.7 437.6-184.5 437.7-184.2 437.8L-184.2 437.8zM-175.4 437c-1-0.4-2-0.5-2.5-0.5 -2.5 0-3.6 1.5-3.6 4 0 2 0.8 3.3 2.8 3.3 0.8 0 1.5-0.4 1.9-1l0 0v0.8h2.2v-1.1l-0.4 0c-0.3 0-0.3-0.1-0.3-0.4V437zM-177 441.4c0 0.6-0.5 1.2-1.4 1.2 -1.2 0-1.4-1.1-1.4-2.2 0-1.5 0.4-2.7 1.7-2.7 0.4 0 0.9 0.1 1.1 0.2V441.4zM-171.3 433.8h-2.5v1.1l0.5 0c0.2 0 0.3 0.1 0.3 0.3v6.8c0 0.3-0.2 0.4-0.4 0.4l-0.5 0v1h3.3v-1.1l-0.8 0V433.8zM-166.3 436.5c-2.3 0-3.4 1.8-3.4 3.8 0 2.1 0.9 3.5 3.3 3.5 1.3 0 2.2-0.6 2.4-0.8l-0.5-1.1c-0.3 0.2-0.9 0.6-1.7 0.6 -1.2 0-1.6-0.7-1.7-1.6 1.6 0 3.9-0.4 3.9-2.5C-164 437.2-164.9 436.5-166.3 436.5L-166.3 436.5zM-165.5 438.4c0 1.1-1.4 1.3-2.5 1.3 0-1 0.5-2.1 1.6-2.1C-165.9 437.7-165.5 437.9-165.5 438.4L-165.5 438.4z"/></g></g></g></g></svg>