<svg xmlns:sketch="http://www.bohemiancoding.com/sketch/ns" xmlns="http://www.w3.org/2000/svg" xmlns:xlink="http://www.w3.org/1999/xlink" version="1.1" id="Layer_1" x="0" y="0" width="112" height="112" viewBox="-1361 415.9 112 112" xml:space="preserve" enable-background="new -1361 415.9 112 112">
  <style type="text/css">
    
	.st0{fill:#A8DC28;}
	.st1{fill:none;stroke:#313133;stroke-width:2;stroke-linecap:round;stroke-linejoin:round;stroke-dasharray:1,4;}
	.st2{fill:#313133;}

  </style>
  <title>
    Jobs hover
  </title>
  <desc>
    Created with Sketch.
  </desc>
  <g id="Homepage" sketch:type="MSPage">
    <g id="Home---Big-desktop" transform="translate(-875.000000, -621.000000)" sketch:type="MSArtboardGroup">
      <g id="Group" transform="translate(-15.000000, -251.000000)" sketch:type="MSLayerGroup">
        <g id="What-will-you-discover_x3F_-Copy" transform="translate(615.000000, 872.000000)" sketch:type="MSShapeGroup">
          <g id="categories">
            <g id="Jobs-hover" transform="translate(275.671662, 0.102040)">
              <path id="Fill-1" class="st0" d="M-1249.8 471.8c0-30.6-24.9-55.5-55.5-55.5s-55.5 24.9-55.5 55.5c0 30.6 24.9 55.5 55.5 55.5S-1249.8 502.4-1249.8 471.8z"/>
              <path id="Stroke-6" class="st1" d="M-1260.3 493.5c3.2-6.6 5-14 5-21.8 0-27.6-22.4-50-50-50 -27.6 0-50 22.4-50 50 0 21.5 13.7 39.9 32.8 46.9 5.4 2 11.2 3.1 17.2 3.1C-1285.6 521.8-1268.4 510.2-1260.3 493.5z"/>
              <g id="jobs-icon" transform="translate(58.652562, 45.036949) rotate(2.000000) translate(-58.652562, -45.036949) translate(47.552562, 24.669977)">
                <path id="Fill-2" class="st2" d="M-1334.3 475l4.7 20.2 -7.7 7.9 -8.3-7.4 3.3-20.4L-1334.3 475z"/>
                <path id="Fill-3" class="st2" d="M-1332.3 476l1.9 6.6 3.5 4.2 2.8-2.2 -2.2-4.1L-1332.3 476"/>
                <path id="Fill-4" class="st2" d="M-1341.4 464l5.3-0.2c1.5 0 2.7 1.1 2.8 2.4l0.1 3.8c0 1.4-1.1 2.6-2.6 2.6l-5.3 0.2c-1.5 0-2.7-1.1-2.8-2.5l-0.1-3.8C-1344 465.2-1342.9 464-1341.4 464"/>
              </g>
              <path id="Jobs" class="st2" d="M-1316.6 495.3c1.7 0 2.5-0.8 2.7-2.1 0.1-0.5 0.1-1.1 0.1-1.5v-4.4c0-0.3 0.1-0.4 0.4-0.4l0.5 0v-1.2h-3.7v1.2l1.1 0.1v5.6c0 0.9-0.3 1.3-1 1.3 -0.3 0-0.5 0-0.7-0.1 -0.3-0.1-0.3-0.2-0.3-0.5v-1.1l-1.4 0.1v2.5C-1318.3 495.1-1317.5 495.3-1316.6 495.3L-1316.6 495.3zM-1309.3 494c-1.4 0-1.5-1.4-1.5-2.8 0-1.4 0.5-2.3 1.6-2.3 1.1 0 1.5 1 1.5 2.6C-1307.8 493-1308.2 494-1309.3 494L-1309.3 494zM-1312.6 491.5c0 2.6 1.2 3.8 3.1 3.8 1.9 0 3.4-1.3 3.4-4 0-3.3-2.1-3.6-3.2-3.6C-1310.7 487.7-1312.6 488.5-1312.6 491.5L-1312.6 491.5zM-1304.8 494.7c0.6 0.3 1.8 0.6 2.8 0.6 2.3 0 3.4-1.3 3.4-4.1 0-2.2-1.1-3.5-2.9-3.5 -0.7 0-1.3 0.2-1.7 0.6v-3.4h-2.5v1.2l0.5 0c0.2 0 0.4 0.1 0.4 0.3V494.7zM-1303.1 490c0-0.6 0.6-1.1 1.3-1.1 1.3 0 1.6 1.3 1.6 2.4 0 2-0.6 2.6-1.6 2.6 -0.5 0-1-0.1-1.2-0.3V490zM-1293.8 489c0.3 0.1 0.3 0.2 0.3 0.5v0.6l1.3-0.1v-1.7c-0.6-0.3-1.4-0.6-2.3-0.6 -1.5 0-2.7 0.8-2.7 2.3 0 1.6 1.1 1.9 2.2 2.2 0.8 0.2 1.4 0.3 1.4 1 0 0.6-0.4 0.9-1.1 0.9 -0.3 0-0.7 0-0.9-0.1 -0.3-0.1-0.3-0.2-0.3-0.5v-0.7l-1.3 0.1v2c0.6 0.3 1.7 0.4 2.6 0.4 1.5 0 2.7-0.8 2.7-2.3 0-1.6-1.2-1.9-2.3-2.2 -0.7-0.2-1.3-0.4-1.3-1 0-0.6 0.5-0.9 1.1-0.9C-1294.3 488.9-1294.1 488.9-1293.8 489L-1293.8 489z"/>
            </g>
          </g>
        </g>
      </g>
    </g>
  </g>
</svg>
