<svg xmlns:sketch="http://www.bohemiancoding.com/sketch/ns" xmlns="http://www.w3.org/2000/svg" xmlns:xlink="http://www.w3.org/1999/xlink" version="1.1" id="Layer_1" x="0" y="0" width="157" height="158" viewBox="0 0 157 158" xml:space="preserve" enable-background="new 0 0 157 158">
  <style type="text/css">
    
	.st0{fill:#313133;}
	.st1{fill:none;stroke:#A8DC28;stroke-width:2;stroke-linecap:round;stroke-linejoin:round;stroke-dasharray:1,4;}
	.st2{fill:#EFEFEF;}
	.st3{fill:#FFFFFF;}
	.st4{fill:#A8DC28;}

  </style>
  <title>
    Dogs-Active
  </title>
  <desc>
    Created with Sketch.
  </desc>
  <g id="landing-page" sketch:type="MSPage">
    <g id="Desktop---Landing-Page-Animals" transform="translate(-183.000000, -664.000000)" sketch:type="MSArtboardGroup">
      <g id="Pets" transform="translate(-31.000000, 534.000000)" sketch:type="MSLayerGroup">
        <g id="Actives" transform="translate(214.000000, 130.000000)" sketch:type="MSShapeGroup">
          <g id="Dogs-Active">
            <path id="Fill-1-Copy" class="st0" d="M78.5 0.2C35.2 0.2 0 35.4 0 78.7c0 43.3 35.2 78.5 78.5 78.5 43.3 0 78.5-35.2 78.5-78.5C157 35.4 121.8 0.2 78.5 0.2z"/>
            <path id="Stroke-2" class="st1" d="M142.2 109.6c4.5-9.3 7-19.7 7-30.8 0-39-31.7-70.7-70.7-70.7S7.8 39.8 7.8 78.8c0 30.4 19.3 56.4 46.3 66.4 7.6 2.8 15.8 4.3 24.4 4.3C106.5 149.5 130.7 133.2 142.2 109.6L142.2 109.6z"/>
            <g id="dog" transform="translate(55.011138, 44.000000)">
              <g id="Group">
                <path class="st2" d="M38 1.2c0 0-1.6 0.6-3.2 5 1.7 4 5.1 4.3 6.6 4.2 0.1 0 0.4-0.2 0.4-0.3 1-3.2-0.6-8.1-1.1-9.8C39.7 0.4 38.9 0.7 38 1.2L38 1.2z"/>
                <path class="st3" d="M53.1 7.2l-4-2.1c0 0 0.1-1-1-1.8 -0.8-0.5-3.4-3-6.5-3.2 0.7 2 2.1 6.8 1 10.1 -0.2 0.5-0.7 1-1.3 1 -0.5 0-1.4 0-2.5-0.2 -1.5-0.4-3.3-1.3-4.6-3.6 -0.2 0.6-0.4 1.2-0.5 1.9 -0.5 2.1-2.6 3.6-4.2 4.6 -1.2 0.6-2.8 1.1-4.9 1.3L7.4 14.9c0 0-2.4 0.2-4.1-4.5L2.9 7.8 2.5 6.2c0 0-0.4-1.5-1.5-1.5 0 0-1 0.2-0.6 2.1l0.8 4.5c0 0 0.7 3.4 1.3 4.9 0 0 0.4 3.7-0.4 5.2 0 0-2.2 3.1-0.1 10.2 0 0 0.4 3.9-0.7 6.9l0 7 0 0 0 0 0 0 0 0c0 0.1 0.1 0.3 0.4 0.8 0.4 0.6 0.6 0.6 0.7 1.4 0 0-0.3 1.6 4.1 0.6 0 0 0 0 0.1 0 0 0 1.5-0.5 0.8-1.4 0 0-1.4-1.2-2.2-1.7l-0.3-0.5v-2.7l2.7-9.2 -0.2 6.3c0 0-0.2 3.7 1 5.3l0.4 1.3c0 0.1 0 0.3 0.1 0.5 0.3 0.7 0.6 0.8 0.5 1.6 0 0-0.6 1.6 4.2 1.3h0.1c0 0 1.7-0.2 1.1-1.4 0 0-1.2-1.5-2.1-2.2l-0.4-1c-0.3-1.6-0.6-4.2-0.3-6.2l2.8-7.3c0 0 1.4-3 5.5-1.9l9.8 1.8c0 0 1.5 0.6 1.5 2.4L30.4 44c0 0 0 0.6 0.3 1.4 0.2 0.6 0.4 0.8 0.2 1.6 0 0-0.9 1.6 4.1 2.1h0.1c0 0 1.8 0.1 1.4-1.2 0 0-1-1.8-1.8-2.7l-0.4-1.8 1.6-9.6c0 0 0.4-1.9 0.7 2.1l0.4 7.1 -0.1 0c0 0 0 0.3 0.4 0.9 0.4 0.6 0.7 0.7 0.7 1.6 0 0-0.4 1.7 4.4 0.9h0.1c0 0 1.7-0.4 1-1.6 0 0-1.4-1.4-2.4-2l-0.4-0.6 1.4-22c0.3-1.6 0.5-3 0.7-2.9l0.1-0.4 1.1-3c0.2-0.5 0.8-0.9 1.3-0.8 2.1 0.2 6.8 0.2 8.3-4.6C53.8 8.1 53.5 7.5 53.1 7.2zM46.8 6.3c-0.1 0.3-0.4 0.5-0.7 0.4 -0.3-0.1-0.5-0.4-0.4-0.7 0.1-0.3 0.4-0.5 0.7-0.4C46.7 5.7 46.9 6 46.8 6.3z"/>
              </g>
            </g>
            <path id="Dogs-_x26_-Puppies" class="st4" d="M31.1 117h4c2.3 0 4.3-1.3 4.3-5 0-2.9-1.7-4.3-4.4-4.3h-3.8v1.2l0.8 0v6.5c0 0.3-0.2 0.4-0.4 0.4l-0.5 0V117zM33.7 109h1.2c1.5 0 2.7 0.7 2.7 3.2 0 2.2-1 3.4-2.5 3.4h-1.4V109zM43.6 116c-1.3 0-1.5-1.4-1.5-2.7 0-1.3 0.4-2.3 1.6-2.3 1.1 0 1.5 1 1.5 2.5C45.1 115 44.7 116 43.6 116L43.6 116zM40.4 113.5c0 2.5 1.2 3.7 3.1 3.7 1.8 0 3.3-1.2 3.3-3.9 0-3.2-2.1-3.5-3.1-3.5C42.3 109.7 40.4 110.6 40.4 113.5L40.4 113.5zM50.8 120c2.1 0 3.1-1 3.2-3 0-0.5 0-1 0-1.5v-5.2c-0.8-0.3-1.9-0.5-2.6-0.5 -2.1 0-3.6 1.2-3.6 3.7 0 1.6 0.7 3.3 2.7 3.3 0.7 0 1.4-0.2 1.9-0.8v0.8c0 1.2-0.3 2.1-1.6 2.1 -0.4 0-0.7 0-1-0.1 -0.3-0.1-0.3-0.2-0.3-0.5v-0.7l-1.3 0.1v1.9C48.7 119.8 49.9 120 50.8 120L50.8 120zM52.4 114.1c0 0.9-0.6 1.4-1.4 1.4 -1.3 0-1.5-1.3-1.5-2.2 0-1.4 0.6-2.3 1.8-2.3 0.4 0 0.8 0.1 1.1 0.2V114.1zM59.1 111c0.3 0.1 0.3 0.2 0.3 0.5v0.6l1.3-0.1v-1.7c-0.5-0.3-1.4-0.6-2.3-0.6 -1.5 0-2.7 0.8-2.7 2.2 0 1.6 1.1 1.9 2.2 2.2 0.8 0.2 1.4 0.3 1.4 1 0 0.6-0.4 0.9-1.1 0.9 -0.3 0-0.7 0-0.9-0.1 -0.3-0.1-0.3-0.2-0.3-0.5v-0.7l-1.3 0.1v1.9c0.6 0.3 1.7 0.4 2.6 0.4 1.5 0 2.7-0.8 2.7-2.2 0-1.5-1.2-1.9-2.3-2.2 -0.7-0.2-1.3-0.4-1.3-1 0-0.6 0.4-0.8 1.1-0.8C58.6 110.9 58.8 110.9 59.1 111L59.1 111zM70.7 113.9c-1.4-1.2-3-2.8-3-4 0-0.7 0.4-1.1 1.1-1.1 0.3 0 0.5 0 0.7 0.1 0.3 0.1 0.3 0.2 0.3 0.5v0.9l1.4-0.1v-2.1c-0.8-0.4-1.6-0.6-2.5-0.6 -1.7 0-2.7 1-2.7 2.4 0 0.5 0.1 1 0.4 1.5 -1 0.6-1.7 1.5-1.7 2.9 0 1.4 0.9 2.8 3.3 2.8 1.2 0 2.2-0.4 2.9-1 0.7 0.5 1.3 1 1.8 1.3l0.9-1.2c-0.3-0.3-1.1-0.8-1.8-1.3 0.4-0.8 0.6-1.6 0.6-2.5l0.8 0v-1.1h-3v1.1l0.4 0c0.2 0 0.3 0.1 0.3 0.2C71 113.1 70.9 113.5 70.7 113.9L70.7 113.9zM69.8 115.2c-0.4 0.4-0.9 0.7-1.7 0.7 -1.1 0-1.7-0.7-1.7-1.6 0-0.7 0.3-1.3 0.9-1.6C67.9 113.5 68.9 114.4 69.8 115.2L69.8 115.2zM77.3 117h3.9v-1.2l-1.3 0v-2h1.2c2.1 0 3.6-1.1 3.6-3.2 0-1.9-1.3-2.9-3.3-2.9h-4v1.2l0.8 0v6.5c0 0.3-0.2 0.4-0.4 0.4l-0.5 0V117zM79.9 112.4V109h0.9c1.4 0 2.2 0.2 2.2 1.7 0 1.2-0.8 1.7-2 1.7H79.9zM93 115.9l-0.5 0c-0.3 0-0.3-0.1-0.3-0.4V110h-2.5v1.1l0.4 0c0.3 0 0.3 0.1 0.3 0.4v3c0 0.7-0.5 1.4-1.5 1.4 -0.9 0-1-0.6-1-1.5V110h-2.5v1.1l0.4 0c0.2 0 0.3 0.1 0.3 0.4v3.2c0 1.7 0.8 2.4 2.2 2.4 0.9 0 1.8-0.4 2.3-1.1v0.9H93V115.9zM94.5 118.3c0 0.3-0.1 0.4-0.4 0.5l-0.5 0v1.1h3.6v-1.1l-1.1-0.1v-1.9c0.4 0.2 1 0.4 1.5 0.4 1.8 0 3.1-1.3 3.1-3.9 0-2.5-1-3.6-2.5-3.6 -1.2 0-2 0.6-2.2 1.1V110h-2.4v1.1l0.6 0c0.3 0 0.3 0.1 0.3 0.4V118.3zM98.9 113.4c0 1.2-0.4 2.4-1.6 2.4 -0.4 0-0.9-0.1-1.2-0.3v-3.2c0-0.6 0.6-1.2 1.4-1.2C98.3 111.1 98.9 111.6 98.9 113.4L98.9 113.4zM102.5 118.3c0 0.3-0.1 0.4-0.4 0.5l-0.5 0v1.1h3.6v-1.1l-1.1-0.1v-1.9c0.4 0.2 1 0.4 1.5 0.4 1.8 0 3.1-1.3 3.1-3.9 0-2.5-1-3.6-2.5-3.6 -1.2 0-2 0.6-2.2 1.1V110h-2.4v1.1l0.6 0c0.3 0 0.4 0.1 0.4 0.4V118.3zM106.9 113.4c0 1.2-0.4 2.4-1.6 2.4 -0.4 0-0.9-0.1-1.2-0.3v-3.2c0-0.6 0.6-1.2 1.4-1.2C106.2 111.1 106.9 111.6 106.9 113.4L106.9 113.4zM112.2 110h-2.5v1.2l0.5 0c0.3 0 0.3 0.1 0.3 0.4v3.9c0 0.3-0.2 0.4-0.4 0.4l-0.5 0v1.1h3.3v-1.1l-0.8 0V110zM110.1 108c0 0.6 0.4 1 1.1 1 0.6 0 1.1-0.4 1.1-1s-0.4-1.1-1.1-1.1C110.5 107 110.1 107.4 110.1 108L110.1 108zM117.3 109.7c-2.3 0-3.5 1.8-3.5 3.9 0 2.1 0.9 3.5 3.3 3.5 1.3 0 2.2-0.6 2.5-0.8l-0.5-1.1c-0.3 0.2-0.9 0.6-1.8 0.6 -1.2 0-1.7-0.7-1.7-1.7 1.7 0 4-0.4 4-2.5C119.6 110.4 118.6 109.7 117.3 109.7L117.3 109.7zM118 111.7c0 1.1-1.5 1.3-2.5 1.3 0-1 0.5-2.1 1.7-2.1C117.7 110.9 118 111.2 118 111.7L118 111.7zM124.2 111c0.3 0.1 0.3 0.2 0.3 0.5v0.6l1.3-0.1v-1.7c-0.5-0.3-1.4-0.6-2.3-0.6 -1.5 0-2.7 0.8-2.7 2.2 0 1.6 1.1 1.9 2.2 2.2 0.8 0.2 1.4 0.3 1.4 1 0 0.6-0.4 0.9-1.1 0.9 -0.3 0-0.7 0-0.9-0.1 -0.3-0.1-0.3-0.2-0.3-0.5v-0.7l-1.3 0.1v1.9c0.6 0.3 1.7 0.4 2.6 0.4 1.5 0 2.7-0.8 2.7-2.2 0-1.5-1.2-1.9-2.3-2.2 -0.7-0.2-1.3-0.4-1.3-1 0-0.6 0.4-0.8 1.1-0.8C123.7 110.9 123.9 110.9 124.2 111L124.2 111z"/>
          </g>
        </g>
      </g>
    </g>
  </g>
</svg>
