<svg xmlns="http://www.w3.org/2000/svg" version="1.1" x="0" y="0" width="121" height="57" viewBox="-237 392.9 121 57" xml:space="preserve"><style type="text/css">
	.st0{fill:#675D99;}
	.st1{fill:#4A4A4A;}
</style><title>DogsAndPuppies(Nov2012) + left-arrow7 copy 3</title><desc>Created with Sketch.</desc><g transform="translate(-686.000000, -1491.000000)"><g transform="translate(685.000000, 1490.000000)"><g transform="translate(0.000000, 15.000000)"><path class="st0" d="M-198.4 423.5c-1-0.2-1.2-1.4-1.6-2.1 -0.1-0.3-0.7-0.7-1-0.9 -0.3-0.3-0.4-0.7-0.6-1 -0.7-0.7-1.3-1.2-2.5-1.2 -0.4 0-0.8 0.2-1.2 0.2 -0.6-0.1-0.9-0.2-1.4-0.5 0.1-0.2 0.2-0.2 0.4-0.1 0.4-0.3 0.7-0.9 0.6-1.4 -0.1-0.5-1-0.8-1.5-0.9 -0.6-0.2-1.2-0.5-1.7-0.8 -0.6-0.3-1.3-0.2-1.9-0.3 -0.6 0-1.1 0-1.7 0.1 -0.2 0-0.4 0.3-0.6 0.3 -0.4 0-0.8 0.1-1.2 0.1 -0.5 0-0.8 0.7-0.7 1.1 0 0.6 0.3 1.1 0.2 1.7 0.4 0 0.6-0.2 0.8-0.5 0.1 0.2 0 0.8 0.2 1 0.2 0.2 0.1 0.3 0.2 0.6 0.1 0.3 0.3 0.2 0.3 0.6 0 0.7-0.8 2.3 0.5 2.4 0.3 0 1.1 0.1 1.3 0.3 0.2 0.2 0.6-0.3 0.6-0.1 0 0.3 0 1.2 0 1.5 0.1 0.9-0.2 2.1-0.5 3 -0.1 0.3 0.1 0.7-0.4 0.6 -0.4 0-0.8 0.2-0.7 0.7 0 0.2 0.5 0.5 0.7 0.5 0.4 0.2 0.8 0.2 1.1 0.1 0.4-0.1 0.8-0.1 1-0.4 0.1-0.2 0.1-1 0.2-1.2 0-0.8 0.1-1.2 0.5-2.1 0.2-0.5 0.2-0.2 0.8-0.2 0.4 0 0.4 0.2 0.4 0.5 0.1 0.7 0.3 1.3 0.4 2 0 0.4 0 0.8 0.1 1.3 0 0.2-0.5 0.4-0.5 0.6 0 0.9 0.9 0.9 1.7 0.9 0.8 0 1.1 0.1 1.3-0.7 0.1-0.4 0-0.5-0.1-0.9 -0.1-0.2-0.1-0.3-0.2-0.4 -0.1-0.2 0.1-0.2 0.1-0.2 0.2-0.7 0.7-1.3 1.1-1.8 0.5-0.6 0-1.2 0.5-1.8 1.1 0.8 1.6 1.7 1.9 3 0.1 0.3-0.2 0.2-0.4 0.4 -0.2 0.1-0.4 0.6-0.2 0.8 0.2 0.2 1.4 0.4 1.7 0.4 1.5-0.3 0.8-2 0.4-3 -0.2-0.5 0-1-0.1-1.5 -0.2-0.6-0.3-1.2-0.4-1.9 0.4 0.2 0.7 0.8 1 1.2 0.5 0.5 0.9 0.4 1.5 0.3C-198.3 423.6-198.3 423.6-198.4 423.5"/><g transform="translate(0.000000, 2.000000)"><path class="st0" d="M-211.7 401.8c-0.2-0.3-0.7-0.4-0.9-0.8 -0.2-0.4-0.5-0.6-0.8-0.9 -0.1-0.2-0.3-0.3-0.3-0.5 -0.1-0.1 0-0.4 0-0.6 0-0.2-0.1-0.4 0-0.6 0.1-0.2 0.1-0.3 0.1-0.6 0-0.2-0.1-0.3-0.1-0.5 0.6 0.3 1.3 0.7 1.7 0.6 -0.5-0.9-0.8-2.7-1.2-3.6 -0.2-0.6-1-1.4-1.7-1.2 -0.6 0.1-1.1 0.5-1.6 0.6 -0.1-0.1-0.2-0.1-0.3-0.1 -0.1 0-0.4-0.1-0.6-0.2 -0.2 0-0.6-0.1-0.8-0.1 -0.4 0-1.9 0-2.4 0.1 -0.3 0-1.3 0.3-1.6 0.3 -0.5 0-1.1-0.3-1.6-0.3 -0.7 0-1.2 0.9-1.3 1.6 -0.1 1 0.1 2.2-0.1 3.2 0.5 0 0.7-0.3 1-0.6 0 0.1 0 0.1-0.1 0.2 -0.1 0.4-0.8 1.6-0.9 2 -0.1 0.3-0.5 0.8-0.8 1 -0.7 0.6-1.6 1.2-2.2 1.9 -0.3 0.3-0.5 0.7-0.9 1 -0.3 0.3-0.6 0.6-0.7 1 -0.3 0.9-0.9 1.7-1.3 2.5 -0.2 0.4-0.4 0.8-0.6 1.2 -0.2 0.4-0.2 0.8-0.4 1.2 -0.2 0.3-0.2 0.8-0.3 1.1 -0.1 0.4-0.3 0.8-0.5 1.2 -0.3 0.8-0.8 1.6-1 2.4 -0.1 0.4-0.2 0.8-0.4 1.2 -0.2 0.4-0.4 0.9-0.7 1.3 -0.4 0.8-0.9 1.6-1 2.5 -0.1 0.8 0 1.8 0.2 2.6 0.1 0.4 0.3 0.7 0.3 1.1 0.1 0.3 0 0.7-0.1 1 -0.1 0.5-0.6 1.6 0.3 1.8 0.4 0.1 0.8 0.2 1.2 0.5 0.1 0.1 0.3 0.4 0.4 0.3 0.3 0 0.5 0 0.8 0 0.5-0.1 1-0.1 1.6-0.1 0.5 0 0.8 0 1.3-0.1 0.2-0.1 0.3-0.1 0.6 0 0.2 0.1 0.4 0.1 0.6 0 0.4-0.1 0.8-0.1 1.2 0 0.1 0 0.1 0.1 0.2 0.1 0.1 0 0.2 0 0.3 0 0.1 0 0.2 0.1 0.3 0.1 0.6 0 0.3-0.9 0.2-1.2 0.7-0.2 1.3-0.1 1.9-0.1 0.7 0 1.3 0.1 1.9-0.2 0.2 0.5 0.1 1 0.5 1.5 0.2 0.2 0.3 0.4 0.6 0.5 0.2 0 0.3 0 0.5 0 0.1 0 0.4-0.1 0.5 0 0.1 0 0.1 0.1 0.1 0.2 0.1 0.1 0.1 0 0.2 0 0 0 0-0.1 0-0.1 0.1 0 0.1 0 0.2 0 0.2 0 0.3 0 0.5 0 0.2 0 0.2 0.1 0.4 0.1 0.1 0 0.3-0.1 0.4-0.1 0.3-0.2 0.4 0 0.7 0.1 0-0.2 0-0.4 0-0.6 0-0.1 0-0.2 0-0.2 -0.1-0.1-0.2-0.2-0.2-0.3 -0.2-0.4-0.1-0.7-0.4-1.1 -0.1-0.2-0.3-0.3-0.5-0.4 -0.1-0.1-0.2-0.4-0.2-0.6 0-0.4 0.1-0.8 0.1-1.2 0.1-0.4 0.2-0.8 0.3-1.1 0.1-0.4 0-0.7 0.2-1.1 0.3-0.8 0.5-1.5 0.8-2.2 0.1-0.4 0.3-0.7 0.4-1.1 0-0.1 0.1-0.2 0.1-0.3 0-0.1 0-0.3 0.1-0.4 0.2-0.9 0.4-1.7 0.5-2.6 0-0.3 0.1-0.5 0.2-0.7 0.1-0.3 0.2-0.6 0.2-0.9 0.1-0.4 0.4-0.7 0.4-1.2 0-0.4 0.1-0.7 0.1-1.1 0-0.3-0.1-0.5-0.2-0.7 -0.1-0.4 0-0.7-0.1-1.1 -0.1-0.4-0.2-0.8-0.6-1.2 -0.1-0.1-0.3-0.2-0.4-0.3 0 0-0.1-0.1-0.1-0.1 -0.1-0.1 0-0.1 0-0.1 -0.2-0.6-0.5-1.2-0.7-1.8 -0.1-0.2 0.1-0.4 0-0.6 -0.1-0.1-0.2-0.3-0.2-0.5 -0.1-0.4 0.6-0.5 1-0.5 0.6 0 1.2 0.3 1.7 0.5 0.5 0.2 1.2 0.5 1.7 0.5 0.4 0 0.6 0 0.9-0.2 0.1-0.1 0.2-0.2 0.3-0.2 0.1-0.1 0.3-0.1 0.4-0.2 0.3-0.2 0.2-0.5 0.3-0.7C-211.9 402.3-211.6 402.1-211.7 401.8"/></g><path class="st0" d="M-142.4 406c-0.4 0.2-0.8 0.5-1.2 0.8 -0.2 0.2-0.2 0.5-0.2 0.8 0 0.5 0.1 0.8 0.7 0.8 0.8 0 0.7-1.1 0.7-1.7V406L-142.4 406zM-142.2 409.3c-0.1-0.2-0.1-0.4-0.1-0.6h0c-0.3 0.5-0.8 0.8-1.3 0.8 -1.2 0-1.7-0.6-1.7-1.9 0-1.4 1-1.8 2.1-2.3 0.6-0.3 0.8-0.5 0.7-1.1 -0.1-0.3-0.3-0.3-0.7-0.3 -0.6 0-0.8 0.3-0.7 0.9h-1.4c0-1.2 0.4-2 2.2-2 1.9 0 2.1 1 2 1.9v3.7c0 0.3 0 0.6 0.1 0.9H-142.2L-142.2 409.3zM-138.1 403.7L-138.1 403.7c0.3-0.7 1-0.8 1.3-0.8 0.8 0 1.5 0.5 1.4 1.6v4.9h-1.4v-4.2c0-0.6-0.1-1-0.6-1 -0.5 0-0.7 0.5-0.7 1.2v4.1h-1.4V403h1.4V403.7M-131.4 405.4c0-0.5 0-1.4-0.7-1.4 -0.7 0-0.6 0.6-0.6 1.2v2.1c0 0.6 0.2 1.1 0.6 1.1 0.5 0 0.7-0.4 0.7-1.1V405.4L-131.4 405.4zM-131.4 408.7L-131.4 408.7c-0.3 0.6-0.7 0.8-1.3 0.8 -1.2 0-1.5-1.1-1.5-2.1v-2.3c0-1.7 0.6-2.2 1.5-2.2 0.6 0 1 0.2 1.3 0.8h0c0-0.2 0-0.4 0-0.6v-2.2h1.4v8.4h-1.4V408.7L-131.4 408.7zM-190.2 415.4v4.2h1c1.2 0 1.9-0.7 1.9-2.1s-0.6-2.1-1.9-2.1H-190.2L-190.2 415.4zM-190.2 428.7h-4.4v-16.2h6.8c3.2 0 5 1.8 5 5 0 3.3-2 5-5.7 5h-1.7V428.7L-190.2 428.7zM-178.5 429c-2.3 0-3.4-1-3.4-3.3v-9.3h4.2v8.1c0 1.1 0.4 1.6 1.2 1.6 0.8 0 1.2-0.5 1.2-1.6v-8.1h4.2v12.3h-4.1v-1.5h-0.2l0 0.1C-175.9 428.4-177 429-178.5 429M-164 419c-1.1 0-1.3 0.9-1.3 3.6 0 2.6 0.2 3.6 1.3 3.6 1.1 0 1.4-0.9 1.4-3.6C-162.6 419.9-162.8 419-164 419L-164 419zM-165.3 432.8h-4.2v-16.3h4.1v1.7h0.2l0-0.1c0.5-1.3 1.5-2 2.9-2 2.8 0 3.9 1.9 3.9 6.7 0 4.2-1.3 6.2-4 6.2 -1.4 0-2.3-0.6-2.7-1.7l0-0.1h-0.2V432.8L-165.3 432.8zM-151.7 419c-1.1 0-1.3 0.9-1.3 3.6 0 2.6 0.2 3.6 1.3 3.6 1.1 0 1.4-0.9 1.4-3.6C-150.3 419.9-150.5 419-151.7 419L-151.7 419zM-153 432.8h-4.2v-16.3h4.1v1.7h0.2l0-0.1c0.5-1.3 1.5-2 2.9-2 2.8 0 3.9 1.9 3.9 6.7 0 4.2-1.3 6.2-4 6.2 -1.4 0-2.3-0.6-2.7-1.7l0-0.1h-0.2V432.8L-153 432.8zM-144.9 412.5h4.2v2.9h-4.2V412.5zM-144.9 416.4h4.2v12.3h-4.2V416.4zM-134.2 418.5c-1.1 0-1.3 1-1.3 2v0.7h2.6v-0.7C-132.8 419.3-133.1 418.5-134.2 418.5L-134.2 418.5zM-134.1 429c-4.2 0-5.6-1.6-5.6-6.4 0-4.6 1.6-6.5 5.6-6.5 3.7 0 5.2 1.7 5.2 5.9v1.2h-6.6v1.7c0 1.5 0.7 1.8 1.3 1.8 0.9 0 1.3-0.6 1.4-2.2h3.8C-129.1 427.6-130.7 429-134.1 429L-134.1 429zM-123.2 429c-3.4 0-5.1-1.3-5.1-4h3.7c0 0.5 0.1 0.9 0.3 1.2 0.2 0.3 0.6 0.5 1 0.5 0.8 0 1.4-0.5 1.4-1.2 0-1-1.1-1.3-2.4-1.7 -1.8-0.5-4-1.2-4-3.9 0-2.4 1.9-3.8 5.2-3.8 3.2 0 4.8 1.3 4.9 3.7h-3.6c0-1-0.4-1.4-1.3-1.4 -0.7 0-1.2 0.4-1.2 1.1 0 0.9 1.1 1.2 2.3 1.5 1.8 0.5 4.1 1.1 4.1 3.9C-118 427.4-120 429-123.2 429M-190.3 395.9v10.5h1c1.9 0 2.1-0.9 2.1-5.2 0-4.3-0.2-5.2-2.1-5.2H-190.3L-190.3 395.9zM-188.2 409.2h-6.5V393h6.5c5.1 0 5.5 3.5 5.5 8.1C-182.7 405.7-183.1 409.2-188.2 409.2L-188.2 409.2zM-176.1 399.1c-1.1 0-1.3 1-1.3 4 0 3 0.2 4 1.3 4 1.1 0 1.3-0.9 1.3-4C-174.8 400.1-175 399.1-176.1 399.1L-176.1 399.1zM-176.1 409.6c-5.1 0-5.6-2.9-5.6-6.5 0-3.3 0.7-6.4 5.6-6.4 5.1 0 5.6 2.9 5.6 6.5C-170.6 406.5-171.2 409.6-176.1 409.6L-176.1 409.6zM-164.1 399.6c-1 0-1.4 0.8-1.4 3.2 0 2.4 0.3 3.2 1.4 3.2 1 0 1.3-0.8 1.3-3.2C-162.8 400.4-163.2 399.6-164.1 399.6L-164.1 399.6zM-164.2 413.5c-3.4 0-5-1-5.1-3.3h3.8c0 0.6 0.5 1 1.2 1s1.5-0.2 1.5-1.6V407h-0.2l0 0.1c-0.5 1.2-1.5 1.8-2.9 1.8 -2.5 0-3.8-2-3.8-6 0-4.3 1.2-6.2 4-6.2 0.8 0 2.3 0.3 2.8 2l0 0.1h0.2V397h3.9v12.1C-158.7 412.1-160.5 413.5-164.2 413.5L-164.2 413.5zM-152.5 409.6c-3.4 0-5.1-1.3-5.1-4h3.7c0 0.5 0.1 0.9 0.3 1.2 0.2 0.3 0.6 0.5 1 0.5 0.8 0 1.4-0.5 1.4-1.2 0-1-1.1-1.3-2.4-1.7 -1.8-0.5-4-1.2-4-3.9 0-2.4 1.9-3.8 5.2-3.8 3.2 0 4.8 1.2 4.9 3.7h-3.6c0-1-0.4-1.4-1.3-1.4 -0.7 0-1.2 0.4-1.2 1.1 0 0.9 1.1 1.2 2.3 1.5 1.8 0.5 4.1 1.1 4.1 3.9C-147.3 408-149.4 409.6-152.5 409.6"/></g><g transform="translate(109.500000, 6.500000) scale(-1, 1) translate(-109.500000, -6.500000) translate(101.000000, 0.000000)"><path class="st1" d="M237.3 398.1l7.3-4.1c0.2-0.1 0.3-0.1 0.5 0 0.2 0.1 0.3 0.2 0.3 0.4l0 1.9c0 0 0 0 0 0 0.2 0 0.4 0.1 0.6 0.2 0.8 0.2 1.5 0.5 2.4 0.9 0.8 0.3 1.6 0.8 2.3 1.3 0.5 0.4 1 0.8 1.5 1.3 1.2 1.3 1.9 3 1.8 4.7 0 0.3 0 0.6-0.1 0.8 0 0.2-0.2 0.4-0.5 0.4 0 0 0 0 0 0 -0.2 0-0.5-0.2-0.5-0.4 -0.1-0.7-0.4-1.4-0.7-1.9 -0.4-0.6-0.9-1.2-1.5-1.6 -0.5-0.3-1.1-0.6-1.7-0.8 -0.7-0.2-1.5-0.4-2.4-0.4 -0.4 0-0.8 0-1.2 0 0 0 0 0-0.1 0l0 1.8c0 0.2-0.1 0.3-0.2 0.4 -0.2 0.1-0.3 0.1-0.5 0l-7.3-4.1c-0.2-0.1-0.3-0.2-0.3-0.4C237.1 398.3 237.2 398.2 237.3 398.1L237.3 398.1z"/></g></g></g></svg>