<svg xmlns="http://www.w3.org/2000/svg" version="1.1" x="0" y="0" width="40" height="41" viewBox="-1397 451.9 40 41" xml:space="preserve"><style type="text/css">
	.st0{fill:#35568C;}
</style><title>facebook</title><desc>Created with Sketch.</desc><g transform="translate(-650.000000, -1359.000000)"><g transform="translate(174.000000, 447.000000)"><g transform="translate(9.000000, 22.000000)"><g transform="translate(0.000000, 875.000000)"><g transform="translate(418.000000, 15.000000)"><g transform="translate(49.000000, 0.000000)"><path class="st0" d="M-1377 452.1c-11 0-20 9-20 20 0 11 9 20 20 20 11 0 20-9 20-20C-1357 461.1-1366 452.1-1377 452.1L-1377 452.1zM-1373.4 472.1h-2.7v10h-4v-10h-1.9v-3.5h1.9v-2.3c0-1.6 0.8-4.2 4.1-4.2l3 0v3.4h-2.2c-0.4 0-0.9 0.2-0.9 1v2.1h3.1L-1373.4 472.1 -1373.4 472.1z"/></g></g></g></g></g></g></svg>