<svg xmlns="http://www.w3.org/2000/svg" version="1.1" x="0" y="0" width="41" height="40" viewBox="0 0 41 40" xml:space="preserve"><style type="text/css">
	.st0{fill:#A8A8A8;}
	.st1{fill:#FFFFFF;}
</style><title>email</title><desc>Created with Sketch.</desc><g transform="translate(-848.000000, -1359.000000)"><g transform="translate(174.000000, 447.000000)"><g transform="translate(9.000000, 22.000000)"><g transform="translate(0.000000, 875.000000)"><g transform="translate(418.000000, 15.000000)"><g transform="translate(49.000000, 0.000000)"><g transform="translate(198.000000, 0.000000)"><circle class="st0" cx="20.7" cy="20" r="20"/><path class="st1" d="M20.7 21.1L20.7 21.1c0.2 0 0.3-0.1 0.5-0.2l0 0c0 0 0 0 0 0l0.4-0.4 10.1-9.2c0 0-0.1-0.1-0.1-0.1h-22c0 0-0.1 0-0.1 0l10.6 9.6C20.3 21 20.5 21.1 20.7 21.1L20.7 21.1zM9.5 12.6v13.6l7.6-6.8L9.5 12.6 9.5 12.6zM24.2 19.5l7.6 6.7V12.6L24.2 19.5 24.2 19.5zM21.8 21.7c-0.3 0.3-0.7 0.4-1.1 0.4 -0.4 0-0.8-0.1-1.1-0.4l-1.7-1.6 -8.3 7.4v0c0 0.1 0.1 0.1 0.1 0.1h22c0.1 0 0.1-0.1 0.1-0.1v0l-8.3-7.4L21.8 21.7 21.8 21.7z"/></g></g></g></g></g></g></g></svg>