<svg xmlns="http://www.w3.org/2000/svg" version="1.1" x="0" y="0" width="40" height="40" viewBox="-1397 451.9 40 40" xml:space="preserve"><style type="text/css">
	.st0{fill:#B8242A;}
</style><title>Pinterest</title><desc>Created with Sketch.</desc><g transform="translate(-799.000000, -1359.000000)"><g transform="translate(174.000000, 447.000000)"><g transform="translate(9.000000, 22.000000)"><g transform="translate(0.000000, 875.000000)"><g transform="translate(418.000000, 15.000000)"><g transform="translate(49.000000, 0.000000)"><path class="st0" d="M-1228 451.9c-11 0-20 9-20 20 0 11 9 20 20 20s20-9 20-20C-1208 460.9-1217 451.9-1228 451.9L-1228 451.9zM-1226 476.4c-1.2 0-2.3-0.7-2.7-1.4 0 0-0.6 2.6-0.8 3.2 -0.5 1.8-1.9 3.6-2 3.8 -0.1 0.1-0.2 0.1-0.3-0.1 0-0.2-0.4-2.5 0-4.4 0.2-0.9 1.4-6.3 1.4-6.3s-0.4-0.7-0.4-1.8c0-1.7 1-3 2.1-3 1 0 1.5 0.8 1.5 1.7 0 1-0.6 2.6-1 4.1 -0.3 1.2 0.6 2.2 1.8 2.2 2.1 0 3.5-2.8 3.5-6.1 0-2.5-1.6-4.4-4.6-4.4 -3.4 0-5.5 2.6-5.5 5.5 0 1 0.3 1.7 0.7 2.3 0.2 0.3 0.2 0.4 0.2 0.6 -0.1 0.2-0.2 0.7-0.2 0.9 -0.1 0.3-0.3 0.4-0.6 0.3 -1.6-0.7-2.3-2.4-2.3-4.4 0-3.3 2.7-7.2 8-7.2 4.2 0 7 3.2 7 6.6C-1220 473-1222.4 476.4-1226 476.4L-1226 476.4z"/></g></g></g></g></g></g></svg>