<svg xmlns="http://www.w3.org/2000/svg" version="1.1" x="0" y="0" width="41" height="40" viewBox="-1397 451.9 41 40" xml:space="preserve"><style type="text/css">
	.st0{fill:#39A0CE;}
</style><title>Twitter</title><desc>Created with Sketch.</desc><g transform="translate(-699.000000, -1360.000000)"><g transform="translate(174.000000, 447.000000)"><g transform="translate(9.000000, 22.000000)"><g transform="translate(0.000000, 875.000000)"><g transform="translate(418.000000, 15.000000)"><g transform="translate(49.000000, 0.000000)"><g transform="translate(49.000000, 0.000000)"><path class="st0" d="M-1376.4 452.9c-11 0-20 9-20 20 0 11 9 20 20 20s20-9 20-20C-1356.4 461.9-1365.3 452.9-1376.4 452.9L-1376.4 452.9zM-1368.4 468.9c0 0.2 0 0.3 0 0.5 0 5.3-4.1 11.5-11.7 11.5 -2.3 0-4.5-0.7-6.3-1.8 0.3 0 0.6 0.1 1 0.1 1.9 0 3.7-0.6 5.1-1.7 -1.8 0-3.3-1.2-3.8-2.8 0.2 0 0.5 0.1 0.8 0.1 0.4 0 0.7-0.1 1.1-0.1 -1.9-0.4-3.3-2-3.3-4v-0.1c0.6 0.3 1.2 0.5 1.9 0.5 -1.1-0.7-1.8-2-1.8-3.4 0-0.7 0.2-1.4 0.6-2 2 2.4 5 4.1 8.5 4.2 -0.1-0.3-0.1-0.6-0.1-0.9 0-2.2 1.8-4 4.1-4 1.2 0 2.2 0.5 3 1.3 0.9-0.2 1.8-0.5 2.6-1 -0.3 0.9-1 1.7-1.8 2.2 0.8-0.1 1.6-0.3 2.4-0.6C-1366.9 467.6-1367.6 468.3-1368.4 468.9L-1368.4 468.9z"/></g></g></g></g></g></g></g></svg>