<svg xmlns="http://www.w3.org/2000/svg" version="1.1" x="0" y="0" width="19" height="18" viewBox="0 0 19 18" xml:space="preserve"><style type="text/css">
	.st0{fill:#9B9B9B;}
</style><title>edit icon</title><desc>Created with Sketch.</desc><g transform="translate(-1063.000000, -2029.000000)"><g transform="translate(447.000000, 518.000000)"><g transform="translate(10.000000, 1484.000000)"><g transform="translate(595.000000, 21.000000)"><g transform="translate(11.000000, 6.000000)"><path class="st0" d="M10.1 3.5H0.3C0.1 3.5 0 3.6 0 3.8v13.9C0 17.9 0.1 18 0.3 18h13.9c0.2 0 0.3-0.1 0.3-0.3v-7.2l-1.7 1.7v4h-11v-11h6.9L8.5 5 10.1 3.5zM6.8 8.9c0 0-0.1 0.1-0.1 0.2l-0.4 3c0 0.1 0 0.2 0.1 0.2 0 0 0.1 0.1 0.2 0.1 0 0 0 0 0 0l3-0.4c0.1 0 0.1 0 0.2-0.1L16.5 5l-2.9-2.9L6.8 8.9M18.6 2.9c0-0.1 0-0.1-0.1-0.2l-2.6-2.6c-0.1-0.1-0.3-0.1-0.4 0l-1.2 1.2 2.9 2.9 1.2-1.2C18.6 3 18.6 2.9 18.6 2.9"/></g></g></g></g></g></svg>