<svg xmlns:sketch="http://www.bohemiancoding.com/sketch/ns" xmlns="http://www.w3.org/2000/svg" xmlns:xlink="http://www.w3.org/1999/xlink" version="1.1" id="Layer_1" x="0" y="0" width="112" height="112" viewBox="0 0 112 112" xml:space="preserve" enable-background="new 0 0 112 112">
  <style type="text/css">
    
	.st0{fill:#FFFFFF;}
	.st1{fill:none;stroke:#313133;stroke-width:2;stroke-linecap:round;stroke-linejoin:round;stroke-dasharray:1,4;}
	.st2{fill:#323234;}
	.st3{fill:#313133;}

  </style>
  <title>
    Estates
  </title>
  <desc>
    Created with Sketch.
  </desc>
  <g id="landing-page" sketch:type="MSPage">
    <g id="Desktop---landing-Page-Motors" transform="translate(-871.000000, -807.000000)" sketch:type="MSArtboardGroup">
      <g id="Find-a-car" transform="translate(-43.000000, 537.000000)" sketch:type="MSLayerGroup">
        <g id="Part2-Copy" transform="translate(227.000000, 242.000000)" sketch:type="MSShapeGroup">
          <g id="Categories-Icon" transform="translate(132.000000, 20.000000)">
            <g id="Estates" transform="translate(555.000000, 8.000000)">
              <path id="Fill-1" class="st0" d="M111.4 55.7c0-30.6-24.9-55.5-55.5-55.5S0.4 25.1 0.4 55.7c0 30.6 24.9 55.5 55.5 55.5S111.4 86.3 111.4 55.7"/>
              <path id="Stroke-2-Copy-5" class="st1" d="M100.9 77.4c3.2-6.6 5-14 5-21.8 0-27.6-22.4-50-50-50s-50 22.4-50 50c0 21.5 13.7 39.9 32.8 46.9 5.4 2 11.2 3.1 17.2 3.1C75.7 105.7 92.8 94.1 100.9 77.4L100.9 77.4z"/>
              <g id="Imported-Layers" transform="translate(16.000000, 33.000000)">
                <path id="Fill-1_1_" class="st2" d="M17 16.4c-3.3 0-6 2.7-6 6 0 3.3 2.7 6 6 6s6-2.7 6-6C23 19.1 20.3 16.4 17 16.4L17 16.4zM17 26.6c-2.3 0-4.1-1.8-4.1-4.1 0-2.3 1.8-4.1 4.1-4.1s4.1 1.8 4.1 4.1C21.1 24.7 19.2 26.6 17 26.6L17 26.6z"/>
                <path id="Fill-2" class="st2" d="M67.8 16.7c-3.3 0-6 2.7-6 6s2.7 6 6 6c3.3 0 6-2.7 6-6S71.1 16.7 67.8 16.7L67.8 16.7zM67.8 26.9c-2.3 0-4.1-1.8-4.1-4.1s1.8-4.1 4.1-4.1c2.3 0 4.1 1.8 4.1 4.1C71.9 25 70 26.9 67.8 26.9L67.8 26.9z"/>
                <path id="Fill-3" class="st2" d="M81.7 17.2c0 0-0.7-3.2-4.9-4.9 0 0-8.1-2.3-13.3-2.8L47.7 1.9c0 0-4.9-1.5-9.2-1.6 0 0-12.2-0.9-28 0.8l-2 0.3c0 0-1.2 0.3-1.7 0.9 0 0-6 7.1-5.6 9.6v5.4c0 0-1.2 0.6-1.1 2L0.4 21c0 0 7.2 1.8 8.9 2l0.3 0c0-0.2 0-0.4 0-0.6 0-4 3.3-7.3 7.3-7.3s7.3 3.3 7.3 7.3c0 0.8-0.1 1.6-0.4 2.3l0.7 0.1h35.9l0.4 0c-0.2-0.7-0.3-1.4-0.3-2.2 0-4 3.3-7.3 7.3-7.3s7.3 3.3 7.3 7.3c0 0.5 0 1-0.1 1.5h0.4c0 0 4.5 0 5.8-0.8C81.1 23.2 82.6 20.2 81.7 17.2L81.7 17.2zM11.9 8.7C10 8.6 8.9 8 8.9 8 7.4 7.4 8.2 6.2 8.2 6.2l1.6-2.3c0.6-0.9 2.2-1 2.2-1 4.4-0.6 8.7-0.9 12.5-1.1L19.8 9 11.9 8.7 11.9 8.7zM22.1 12.4h3.5v0.7h-3.5V12.4zM23.9 9.2c-0.4-0.8-1-2.5 0.5-4.8l1.8-2.7c4.1-0.1 7.6-0.1 10.2 0l0.2 8L23.9 9.2 23.9 9.2zM40.7 12.4h3.5v0.7h-3.5V12.4zM49.4 10.5L40.1 10l-1.6-8.1c1.3 0.1 2 0.1 2 0.1C48.3 2.3 57 8.1 57 8.1l0.1 1.2 0.2 1.7C54 10.8 49.4 10.5 49.4 10.5L49.4 10.5z"/>
              </g>
              <path class="st3" d="M40.7 80.2v-2.5l-1.4-0.1v0.7c0 0.3 0 0.4-0.4 0.4h-2.3v-2.6h3.2v-1.4h-3.2v-2.4h2.1c0.4 0 0.4 0.2 0.4 0.4v0.6l1.4-0.1v-2.3h-6.4v1.2l0.8 0v6.5c0 0.3-0.2 0.4-0.4 0.4l-0.5 0v1.1H40.7zM45.4 74.2c0.3 0.1 0.3 0.2 0.3 0.5v0.6l1.3-0.1v-1.7c-0.5-0.3-1.4-0.6-2.3-0.6 -1.5 0-2.7 0.8-2.7 2.2 0 1.6 1.1 1.9 2.2 2.2 0.8 0.2 1.4 0.3 1.4 1 0 0.6-0.4 0.9-1.1 0.9 -0.3 0-0.7 0-0.9-0.1 -0.3-0.1-0.3-0.2-0.3-0.5v-0.7L41.9 78v1.9c0.6 0.3 1.7 0.4 2.6 0.4 1.5 0 2.7-0.8 2.7-2.2 0-1.5-1.2-1.9-2.3-2.2 -0.7-0.2-1.3-0.4-1.3-1 0-0.6 0.4-0.8 1-0.8C44.9 74.1 45.1 74.1 45.4 74.2L45.4 74.2zM49.1 71.7c-0.3 0.8-0.6 1.6-1.6 1.6l-0.1 1h1v3.7c0 1 0 2.3 2.2 2.3 0.7 0 1.4-0.2 1.8-0.5l-0.4-1.1c-0.2 0.1-0.6 0.3-1 0.3 -0.6 0-0.9-0.3-0.9-1.1v-3.7h1.7l0.1-1.2H50v-1.5H49.1zM59.1 73.4c-1-0.4-2-0.5-2.5-0.5 -2.5 0-3.7 1.6-3.7 4 0 2 0.8 3.4 2.8 3.4 0.8 0 1.5-0.4 1.9-1l0 0v0.8h2.2v-1.1l-0.4 0c-0.3 0-0.3-0.1-0.3-0.4V73.4zM57.5 78c0 0.6-0.5 1.2-1.4 1.2 -1.2 0-1.5-1.1-1.5-2.3 0-1.5 0.4-2.8 1.8-2.8 0.4 0 0.9 0.1 1.1 0.2V78zM61.3 71.7c-0.3 0.8-0.6 1.6-1.6 1.6l-0.1 1h1v3.7c0 1 0 2.3 2.2 2.3 0.7 0 1.4-0.2 1.8-0.5l-0.4-1.1c-0.2 0.1-0.6 0.3-1 0.3 -0.6 0-0.9-0.3-0.9-1.1v-3.7H64l0.1-1.2h-1.9v-1.5H61.3zM68.6 72.9c-2.3 0-3.5 1.8-3.5 3.9 0 2.1 0.9 3.5 3.3 3.5 1.3 0 2.2-0.6 2.5-0.8l-0.5-1.1c-0.3 0.2-0.9 0.6-1.8 0.6 -1.2 0-1.7-0.7-1.7-1.7 1.7 0 4-0.4 4-2.5C70.9 73.6 70 72.9 68.6 72.9L68.6 72.9zM69.3 74.9c0 1.1-1.5 1.3-2.5 1.3 0-1 0.5-2.1 1.7-2.1C69 74.1 69.3 74.4 69.3 74.9L69.3 74.9zM75.5 74.2c0.3 0.1 0.3 0.2 0.3 0.5v0.6l1.3-0.1v-1.7c-0.5-0.3-1.4-0.6-2.3-0.6 -1.5 0-2.7 0.8-2.7 2.2 0 1.6 1.1 1.9 2.2 2.2 0.8 0.2 1.4 0.3 1.4 1 0 0.6-0.4 0.9-1.1 0.9 -0.3 0-0.7 0-0.9-0.1 -0.3-0.1-0.3-0.2-0.3-0.5v-0.7L72 78v1.9c0.6 0.3 1.7 0.4 2.6 0.4 1.5 0 2.7-0.8 2.7-2.2 0-1.5-1.2-1.9-2.3-2.2 -0.7-0.2-1.3-0.4-1.3-1 0-0.6 0.4-0.8 1-0.8C75 74.1 75.2 74.1 75.5 74.2L75.5 74.2z"/>
            </g>
          </g>
        </g>
      </g>
    </g>
  </g>
</svg>
