<svg xmlns:sketch="http://www.bohemiancoding.com/sketch/ns" xmlns="http://www.w3.org/2000/svg" xmlns:xlink="http://www.w3.org/1999/xlink" version="1.1" id="Layer_1" x="0" y="0" width="157" height="158" viewBox="0 0 157 158" xml:space="preserve" enable-background="new 0 0 157 158">
  <style type="text/css">
    
	.st0{fill:#FFFFFF;}
	.st1{fill:none;stroke:#313133;stroke-width:2;stroke-linecap:round;stroke-linejoin:round;stroke-dasharray:1,4;}
	.st2{fill:#313133;}

  </style>
  <title>
    Exotic pets
  </title>
  <desc>
    Created with Sketch.
  </desc>
  <g id="landing-page" sketch:type="MSPage">
    <g id="Desktop---Landing-Page-Animals" transform="translate(-549.000000, -840.000000)" sketch:type="MSArtboardGroup">
      <g id="Pets" transform="translate(-31.000000, 533.000000)" sketch:type="MSLayerGroup">
        <g id="Exotic-pets" transform="translate(580.000000, 307.000000)" sketch:type="MSShapeGroup">
          <path id="Fill-1-Copy" class="st0" d="M78.5 0.2C35.2 0.2 0 35.4 0 78.7c0 43.3 35.2 78.5 78.5 78.5 43.3 0 78.5-35.2 78.5-78.5C157 35.4 121.8 0.2 78.5 0.2z"/>
          <path id="Stroke-2" class="st1" d="M142.2 109.6c4.5-9.3 7-19.7 7-30.8 0-39-31.7-70.7-70.7-70.7S7.8 39.8 7.8 78.8c0 30.4 19.3 56.4 46.3 66.4 7.6 2.8 15.8 4.3 24.4 4.3C106.5 149.5 130.7 133.2 142.2 109.6L142.2 109.6z"/>
          <g id="Monkey" transform="translate(46.000000, 45.000000)">
            <path id="Shape" class="st2" d="M61.8 4.5c-1.4-1.5-2.5-3.2-4.6-3.8 -4.3-1.2-7.7 3.3-9.6 6.5 -4.4-4.6-12.1-5.5-18.1-5.3 -10.6 0.4-19.5 5-25 14.3 -3.9 6.6-6.6 19.6 3.1 23 3 1 9.4 1.2 11.3-1.4 2.5-3.3 1.3-6.9-2.3-7.9 -0.6 0.1-0.8 0.3-0.5 0.8 1.1 1.6 2.1 3.9 0.6 5.3s-7 0.9-8.6 0c-1.1-0.6-2.5-2.4-2.8-3.2 -2.1-5.3 1.3-10.4 7.2-11.6 1.9-0.4 1.1-0.4 2.2 0.6 1.1 1.1 1.9 2.7 2.9 3.8 1.5 1.7 3.2 3.4 5.1 4.7 1.7 1.2 1.3 0.7 1.1 2.4 -0.2 2.6-1.9 6.6 0 8.9 1.7 2 6.1 2.7 9 1.7 0.9-0.4 1.4-0.9 0.8-1.6 -1.7-0.3-3.7-0.2-5.1-0.9 -0.7-0.3-0.7-0.3-1.2-0.8 -0.3-0.3 0.4-3 0.6-3.3 0.6-1.1 1.9-2 2.7-3 2.3-3.1 3.1-7 3-10.8 2.2 2.2 5.6 2.9 8.6 2.9 -0.3 5.1-0.6 10.4 0.4 15.4 0.3 1.4 1.2 2.6 2.6 3 2.3 0.7 5.2 0.4 7.4-0.7 0.9-0.5 1-1 0.2-1.6l-5.4-0.4c-0.7-0.1-1.2-0.7-1.1-1.4l0.9-6c0.2-1.6 0-5.4 0.9-6.6 0.5-0.7 2.3-1.1 3.1-2.1 1.1-1.4 1.8-3.1 2.3-4.8 0.5-1.4 0.7-4 1.7-4.7 0.9-0.6 3-0.5 4-1 1.8-0.8 5-2.6 5.8-4.6C66.1 7.8 63.2 6 61.8 4.5L61.8 4.5zM59.5 6.4c-0.4 0-0.7-0.3-0.7-0.7 0-0.4 0.3-0.7 0.7-0.7s0.7 0.3 0.7 0.7C60.2 6.1 59.9 6.4 59.5 6.4L59.5 6.4z"/>
          </g>
          <path id="Exotic-Pets" class="st2" d="M51.8 114v-2.5l-1.4-0.1v0.7c0 0.3 0 0.4-0.4 0.4h-2.3v-2.6H51v-1.4h-3.2v-2.4h2.1c0.4 0 0.4 0.2 0.4 0.4v0.6l1.4-0.1v-2.3h-6.4v1.2l0.8 0v6.5c0 0.3-0.2 0.4-0.4 0.4l-0.5 0v1.1H51.8zM56.9 112.5c0.1 0.2 0.1 0.3-0.1 0.3l-0.4 0v1.1h3.3v-1.1l-0.7-0.1 -1.8-2.4 1.5-1.9c0.2-0.2 0.3-0.3 0.6-0.3l0.4 0V107h-2.8v1.1l0.6 0 -1.1 1.4 -0.8-1.1c-0.1-0.2-0.1-0.3 0.2-0.4l0.4 0V107h-3.3v1.1l0.7 0.1 1.7 2.4 -1.6 2c-0.2 0.2-0.3 0.3-0.6 0.3l-0.4 0v1.1h2.9v-1.1l-0.7 0 1.2-1.4L56.9 112.5zM63.4 113c-1.3 0-1.5-1.4-1.5-2.7 0-1.3 0.4-2.3 1.6-2.3 1.1 0 1.5 1 1.5 2.5C64.9 112 64.4 113 63.4 113L63.4 113zM60.1 110.5c0 2.5 1.2 3.7 3.1 3.7 1.8 0 3.3-1.2 3.3-3.9 0-3.2-2.1-3.5-3.1-3.5C62 106.7 60.1 107.6 60.1 110.5L60.1 110.5zM68.9 105.5c-0.3 0.8-0.6 1.6-1.6 1.6l-0.1 1h1v3.7c0 1 0 2.3 2.2 2.3 0.7 0 1.4-0.2 1.8-0.5l-0.4-1.1c-0.2 0.1-0.6 0.3-1 0.3 -0.6 0-0.9-0.3-0.9-1.1v-3.7h1.7l0.1-1.2h-1.9v-1.5H68.9zM75.1 107h-2.5v1.2l0.5 0c0.3 0 0.3 0.1 0.3 0.4v3.9c0 0.3-0.2 0.4-0.4 0.4l-0.5 0v1.1h3.3v-1.1l-0.8 0V107zM73.1 105c0 0.6 0.4 1 1.1 1 0.6 0 1.1-0.4 1.1-1s-0.4-1.1-1.1-1.1C73.5 104 73.1 104.4 73.1 105L73.1 105zM80.2 112.9c-1.2 0-1.8-1-1.8-2.5 0-1.6 0.6-2.4 1.7-2.4 0.2 0 0.4 0 0.5 0.1 0.3 0.1 0.3 0.2 0.3 0.5v0.7l1.3-0.1v-1.8c-0.7-0.4-1.3-0.6-2.2-0.6 -1.6 0-3.3 1-3.3 3.8 0 2.3 1.2 3.6 3.3 3.6 1 0 1.9-0.4 2.4-0.8l-0.6-1.1C81.3 112.7 80.8 112.9 80.2 112.9L80.2 112.9zM86.1 114H90v-1.2l-1.3 0v-2h1.2c2.1 0 3.6-1.1 3.6-3.2 0-1.9-1.3-2.9-3.3-2.9h-4v1.2l0.8 0v6.5c0 0.3-0.2 0.4-0.4 0.4l-0.5 0V114zM88.7 109.4V106h0.9c1.4 0 2.2 0.2 2.2 1.7 0 1.2-0.8 1.7-2 1.7H88.7zM97.9 106.7c-2.3 0-3.5 1.8-3.5 3.9 0 2.1 0.9 3.5 3.3 3.5 1.3 0 2.2-0.6 2.5-0.8l-0.5-1.1c-0.3 0.2-0.9 0.6-1.8 0.6 -1.2 0-1.7-0.7-1.7-1.7 1.7 0 4-0.4 4-2.5C100.2 107.4 99.3 106.7 97.9 106.7L97.9 106.7zM98.7 108.7c0 1.1-1.5 1.3-2.5 1.3 0-1 0.5-2.1 1.7-2.1C98.3 107.9 98.7 108.2 98.7 108.7L98.7 108.7zM102.7 105.5c-0.3 0.8-0.6 1.6-1.6 1.6l-0.1 1h1v3.7c0 1 0 2.3 2.2 2.3 0.7 0 1.4-0.2 1.8-0.5l-0.4-1.1c-0.2 0.1-0.6 0.3-1 0.3 -0.6 0-0.9-0.3-0.9-1.1v-3.7h1.7l0.1-1.2h-1.9v-1.5H102.7zM110.1 108c0.3 0.1 0.3 0.2 0.3 0.5v0.6l1.3-0.1v-1.7c-0.5-0.3-1.4-0.6-2.3-0.6 -1.5 0-2.7 0.8-2.7 2.2 0 1.6 1.1 1.9 2.2 2.2 0.8 0.2 1.4 0.3 1.4 1 0 0.6-0.4 0.9-1.1 0.9 -0.3 0-0.7 0-0.9-0.1 -0.3-0.1-0.3-0.2-0.3-0.5v-0.7l-1.3 0.1v1.9c0.6 0.3 1.7 0.4 2.6 0.4 1.5 0 2.7-0.8 2.7-2.2 0-1.5-1.2-1.9-2.3-2.2 -0.7-0.2-1.3-0.4-1.3-1 0-0.6 0.4-0.8 1.1-0.8C109.6 107.9 109.9 107.9 110.1 108L110.1 108z"/>
        </g>
      </g>
    </g>
  </g>
</svg>
