<svg xmlns="http://www.w3.org/2000/svg" version="1.1" x="0" y="0" width="17" height="12" viewBox="0 0 17 12" xml:space="preserve"><style type="text/css">
	.st0{fill:#4A4A4A;}
</style><title>Shape Copy 4</title><desc>Created with Sketch.</desc><g transform="translate(-282.000000, -3192.000000)"><g transform="translate(10.000000, 3171.000000)"><g transform="translate(141.000000, 21.000000)"><path class="st0" d="M140.5 0.1c-0.2-0.1-0.3-0.1-0.5 0 -0.2 0.1-0.3 0.2-0.3 0.4 0 0 0 1.9 0 1.9 -0.2 0.1-0.4 0.1-0.6 0.2 -0.8 0.2-1.5 0.5-2.4 0.9 -0.8 0.3-1.6 0.8-2.3 1.3 -0.5 0.4-1 0.8-1.5 1.3 -1.2 1.3-1.9 3-1.8 4.7 0 0.3 0 0.6 0.1 0.8 0 0.2 0.2 0.4 0.5 0.4 0.3 0 0.5-0.2 0.5-0.4 0.1-0.7 0.4-1.4 0.7-1.9 0.4-0.6 0.9-1.2 1.5-1.6 0.5-0.3 1.1-0.6 1.7-0.8 0.7-0.2 1.5-0.4 2.4-0.4 0.4 0 0.8 0 1.2 0 0 0 0 0 0.1 0l0 1.8c0 0.2 0.1 0.3 0.3 0.4 0.2 0.1 0.3 0.1 0.5 0l7.3-4.1c0.2-0.1 0.3-0.2 0.3-0.4 0-0.2-0.1-0.3-0.2-0.4L140.5 0.1z"/></g></g></g></svg>