<svg xmlns:sketch="http://www.bohemiancoding.com/sketch/ns" xmlns="http://www.w3.org/2000/svg" xmlns:xlink="http://www.w3.org/1999/xlink" version="1.1" id="Layer_1" x="0" y="0" width="88" height="36" viewBox="0 0 88 36" xml:space="preserve" enable-background="new 0 0 88 36">
  <style type="text/css">
    
	.st0{fill:#FFFFFF;}
	.st1{fill:#A8DC28;}
	.st2{fill:#313133;}

  </style>
  <title>
    FAD signature
  </title>
  <desc>
    Created with Sketch.
  </desc>
  <g id="PAA" sketch:type="MSPage">
    <g id="Desktop-HD-For-sale-11" transform="translate(-183.000000, -289.000000)" sketch:type="MSArtboardGroup">
      <g id="Phase-1" transform="translate(-2.000000, 260.000000)" sketch:type="MSLayerGroup">
        <g id="side-navigation" sketch:type="MSShapeGroup">
          <g id="FAD-signature" transform="translate(185.000000, 29.000000)">
            <path id="Fill-1" class="st0" d="M55.5 19.9l2.7-8.5h0.1l2.6 8.5H55.5L55.5 19.9zM66.4 25l-6-16.7h-6.4v2.3l1.7 0.2 -4.8 13.5c-0.2 0.5-0.3 0.8-0.8 0.8L49 25.1v2.4h6.9V25L54 25.1l0.8-2.4h6.9l0.6 1.6c0.2 0.6 0.1 0.7-0.5 0.7l-0.9 0v2.4h7.5V25L66.4 25 66.4 25 66.4 25z"/>
            <path id="Fill-2" class="st0" d="M78.6 25h-2.7V11.2h2.3c3.2 0 5.7 1.5 5.7 6.7C83.9 22.5 81.9 25 78.6 25M78.4 8.3h-8v2.4l1.7 0.1v13.4c0 0.6-0.3 0.8-0.8 0.8l-0.9 0.1v2.4h8.1c4.7 0 9-2.7 9-10.3C87.5 11.2 84 8.3 78.4 8.3"/>
            <path id="Fill-3" class="st1" d="M40.9 17.8c0 1.4-1.1 2.4-2.5 2.4 -1.4 0-2.5-1.1-2.5-2.4s1.1-2.4 2.5-2.4C39.8 15.4 40.9 16.5 40.9 17.8M44.9 15.3L33.6 1.9c-0.8-0.9-1.9-1.4-3.1-1.4H0.3v35.3h30.3c1.5 0 2.8-0.8 3.5-2l11-13.5C46.2 18.8 46.2 16.8 44.9 15.3"/>
            <path id="Fill-4" class="st2" d="M11.8 25.5l1-0.1c0.5-0.1 0.9-0.2 0.9-0.8V11l-1.7-0.1V8.4h14.3v4.8l-3 0.2v-1.2c0-0.6-0.1-0.9-0.9-0.9h-5.1v5.2h7.3v3h-7.3v5.7l2.6 0.1v2.5h-8.1V25.5"/>
          </g>
        </g>
      </g>
    </g>
  </g>
</svg>
