<svg xmlns="http://www.w3.org/2000/svg" version="1.1" x="0" y="0" width="45" height="44" viewBox="0 0 45 44" xml:space="preserve"><style type="text/css">
	.st0{fill:#EFEFEF;stroke:#EFEFEF;stroke-width:4;}
	.st1{fill:#35568C;}
</style><title>facebook</title><desc>Created with Sketch Beta.</desc><g transform="translate(-1008.000000, -77.000000)"><g transform="translate(-7.000000, 5.000000)"><g transform="translate(1017.000000, 73.000000)"><g transform="translate(0.654297, 0.984375)"><circle class="st0" cx="20" cy="20" r="20"/><path class="st1" d="M20 0C9 0 0 9 0 20c0 11 9 20 20 20 11 0 20-9 20-20C40 9 31 0 20 0L20 0 20 0zM24.3 20h-2.8v10h-4.2V20h-2v-3.5h2v-2.3c0-1.6 0.8-4.2 4.2-4.2l3.1 0v3.4h-2.2c-0.4 0-0.9 0.2-0.9 1v2.1h3.2L24.3 20 24.3 20z"/></g></g></g></g></svg>