<?xml version="1.0" encoding="UTF-8"?>
<svg width="229px" height="36px" viewBox="0 0 229 36" version="1.1" xmlns="http://www.w3.org/2000/svg" xmlns:xlink="http://www.w3.org/1999/xlink">
    <!-- Generator: Sketch 63.1 (92452) - https://sketch.com -->
    <title>Logo / Fad / Adult / Fad-Adult-logo</title>
    <desc>Created with Sketch.</desc>
    <defs>
        <linearGradient x1="0%" y1="46.5888839%" x2="100%" y2="53.4111161%" id="linearGradient-1">
            <stop stop-color="#A75BD8" offset="0%"></stop>
            <stop stop-color="#C60A84" offset="100%"></stop>
        </linearGradient>
        <polygon id="path-2" points="0.0940656577 0.0795909091 15.5157414 0.0795909091 15.5157414 19.3332273 0.0940656577 19.3332273"></polygon>
    </defs>
    <g id="Logo-/-Fad-/-Adult-/-Fad-Adult-logo" stroke="none" stroke-width="1" fill="none" fill-rule="evenodd">
        <g id="FAD-Adult-Dark-(Horizontal)-Copy">
            <g id="Logo">
                <path d="M115.468961,0 C120.029873,0 123.487438,4.07680398 124.289306,4.97169034 L124.289306,4.97169034 L133.009818,14.7159091 C134.312854,16.1079545 134.312854,18.1960227 133.110052,19.6875 L133.110052,19.6875 L124.289306,30.8239631 C123.587672,31.9177131 120.137056,35 115.468961,35 L115.468961,35 L8,35 C3.581722,35 2.50319259e-15,31.418278 0,27 L0,27 L0,8 C-5.41083001e-16,3.581722 3.581722,8.11624501e-16 8,0 L8,0 Z M36.4,8 L28.2,8 L28.2,10.5 L29.9,10.6 L29.9,24.1 C29.9,24.7 29.5,24.8 29,24.9 L29,24.9 L28,25 L28.2,25 L28.2,27.5 L35.7,27.5 L35.7,25 L33.7,24.9 L33.7,19.8 L36.4,19.8 C37.5,19.8 37.9,20.2 38.3,21.1 L38.3,21.1 L39.7,24 C39.9,24.6 39.8,24.8 39.1,24.9 L39.1,24.9 L38.2,25 L38.2,27.4 L45.6,27.4 L45.6,24.9 L43.9,24.8 L41.7,20.2 C41.3,19.2 40.8,18.7 40,18.4 C41.6,17.8 43.6,16.2 43.6,13.3 C43.6,9.4 40.8,8 36.4,8 L36.4,8 Z M24.7,8 L10.2,8 L10.2,10.5 L11.9,10.6 L11.9,24.1 C11.9,24.7 11.5,24.8 11,24.9 L11,24.9 L10,25 L10,27.4 L18.2,27.4 L18.2,24.9 L15.5,24.8 L15.5,19.1 L22.9,19.1 L22.9,16.1 L15.5,16.1 L15.5,11 L20.7,11 C21.5,11 21.6,11.3 21.6,11.9 L21.6,11.9 L21.6,13 L24.7,12.8 L24.7,8 Z M56.5,8 L49.3,8 L49.3,10.5 L51,10.6 L50.9,10.6 L50.9,23.9 C50.9,24.7 50.6,24.8 50,24.9 L50,24.9 L49,25 L49,27.4 L56.3,27.4 L56.3,24.9 L54.6,24.8 L54.6,11.4 C54.6,10.7 55,10.6 55.5,10.5 L55.5,10.5 L56.5,10.4 L56.5,8 Z M91.6,8 L84.7,8 L84.7,10.4 L86.6,10.6 L81.9,24.1 C81.7,24.6 81.5,24.8 81,24.9 L81,24.9 L80,25 L80,27.4 L86.9,27.4 L86.9,24.9 L85.1,24.8 L86,22.2 L93,22.2 L93.6,24 C93.8,24.7 93.5,24.8 92.9,24.9 L92.9,24.9 L91.8,25 L91.8,27.4 L99.5,27.4 L99.5,24.9 L97.7,24.8 L91.6,8 Z M106.3,8 L99,8 L99,10.5 L100.399,10.6 L105.5,20 L105.6,20 L105.6,24.1 C105.6,24.7 105.3,24.9 104.7,24.9 L104.7,24.9 L103.1,25 L103.1,27.4 L111.6,27.4 L111.6,24.9 L109.3,24.8 L109.3,20 L114,11.4 C114.3,10.8 114.5,10.6 115,10.5 L115,10.5 L115.899,10.4 L115.899,8 L109.399,8 L109.399,10.6 L110.899,10.7 L107.6,16.7 L107.5,16.7 L104.899,11.6 C104.6,11 104.7,10.6 105.399,10.5 L105.399,10.5 L106.3,10.4 L106.3,8 Z M69.4,8 L61.2,8 L61.2,10.5 L62.9,10.6 L62.9,24.1 C62.9,24.7 62.5,24.8 62,24.9 L62,24.9 L61,25 L61.1,25 L61.1,27.3 L69.6,27.3 C74.4,27.3 78.8,24.6 78.8,17 C78.8,10.9 75.1,8 69.4,8 L69.4,8 Z M69.2,10.8 C72.5,10.8 75.1,12.3 75.1,17.5 C75.1,22.1 73,24.5 69.6,24.5 L69.6,24.5 L66.5,24.5 L66.5,10.8 Z M126.660268,15.0000546 L126.5,15.0065712 C125.101,15.0065712 124,16.1508987 124,17.5032856 C124,18.8556726 125.101,20 126.5,20 C127.901,20 129,18.8556726 129,17.5032856 C129,16.0468689 127.901,14.9025415 126.5,15.0065712 Z M89.5,11.3 L92.3,19.6 L86.7,19.6 L89.5,11.3 Z M35.7,10.9 C38.2,10.9 39.8,11.2 39.8,13.8 C39.8,15.9 38.7,17 36.1,17 L36.1,17 L33.5,17 L33.5,10.9 Z" id="Combined-Shape" fill="url(#linearGradient-1)"></path>
                <g id="Group-2" transform="translate(136.939287, 8.132812)">
                    <path d="M6.63459157,11.5739091 L12.119286,11.5739091 L9.46535681,3.32209091 L9.37693879,3.32209091 L6.63459157,11.5739091 Z M6.60542751,2.59845455 L4.74772335,2.42481818 L4.74772335,0.0793636364 L11.499897,0.0793636364 L17.5150995,16.7852727 L17.5442636,16.7852727 L19.2251317,16.8720909 L19.2251317,19.333 L11.617942,19.333 L11.617942,16.988 L12.7382121,16.9011818 C13.3571382,16.8434545 13.6520193,16.6698182 13.4460192,16.033 L12.8266301,14.2375455 L5.92724745,14.2375455 L5.04260438,16.7852727 L6.81189052,16.8720909 L6.81189052,19.333 L0,19.333 L0,16.988 L0.973524007,16.9011818 C1.47440512,16.8434545 1.65124115,16.6402727 1.85770416,16.0907273 L6.60542751,2.59845455 Z" id="Fill-16" fill="#212527"></path>
                    <path d="M26.822739,16.5539091 L29.8308032,16.5539091 C33.1332855,16.5539091 35.1974526,14.1793636 35.1974526,9.54709091 C35.1974526,4.33572727 32.6319414,2.888 29.4475041,2.888 L26.822739,2.888 L26.822739,16.5539091 Z M21.3972985,16.988 L22.3708225,16.9011818 C22.8721665,16.8434545 23.2253757,16.6698182 23.2253757,16.0902727 L23.2253757,2.62754545 L21.5449705,2.54027273 L21.5449705,0.0793636364 L29.6243402,0.0793636364 C35.2562437,0.0793636364 38.82398,3.00345455 38.82398,9.02572727 C38.82398,16.6116364 34.5188096,19.333 29.7715492,19.333 L21.3972985,19.333 L21.3972985,16.988 Z" id="Fill-18" fill="#212527"></path>
                    <path d="M45.9770437,13.0795909 C45.9770437,15.9168636 47.4806129,16.7564091 49.8396611,16.7564091 C52.1982463,16.7564091 53.6726514,15.5982273 53.6726514,13.2241364 L53.6726514,2.62731818 L51.9626193,2.5405 L51.9626193,0.0795909091 L58.9508829,0.0795909091 L58.9508829,2.42504545 L57.9778218,2.51140909 C57.4468508,2.56959091 57.1223428,2.80140909 57.1223428,3.3805 L57.1223428,13.7164091 C57.1223428,17.5091364 54.2036224,19.7095909 49.7216161,19.7095909 C44.8859376,19.7095909 42.4088444,17.7986818 42.4088444,13.2532273 L42.4088444,2.62731818 L40.6988123,2.5405 L40.6988123,0.0795909091 L47.8347478,0.0795909091 L47.8347478,2.42504545 L46.8612238,2.51140909 C46.3010888,2.56959091 45.9770437,2.74322727 45.9770437,3.46731818 L45.9770437,13.0795909 Z" id="Fill-20" fill="#212527"></path>
                    <path d="M61.1942007,19.3331364 L61.1942007,16.9881364 L62.1677247,16.9008636 C62.6686058,16.8431364 63.0222779,16.6699545 63.0222779,16.0904091 L63.0222779,2.62768182 L61.3414097,2.54040909 L61.3414097,0.0795 L68.4481813,0.0795 L68.4481813,2.42495455 L67.4746573,2.51177273 C66.9733132,2.5695 66.6196412,2.74313636 66.6196412,3.43813636 L66.6196412,16.3508636 L71.5145736,16.3508636 C72.1339626,16.3508636 72.1927536,15.9745 72.1927536,15.4245 L72.1927536,13.3976818 L75.2003549,13.6008636 L75.2003549,19.3331364 L61.1942007,19.3331364 Z" id="Fill-22" fill="#212527"></path>
                    <g id="Group-26" transform="translate(75.431584, 0.000000)">
                        <mask id="mask-3" fill="white">
                            <use xlink:href="#path-2"></use>
                        </mask>
                        <g id="Clip-25"></g>
                        <path d="M6.08010414,2.94595455 L3.77984699,2.94595455 C3.16092089,2.94595455 3.10166693,3.35140909 3.10166693,3.84368182 L3.10166693,5.20413636 L0.0940656577,5.00140909 L0.0940656577,0.0795909091 L15.515834,0.0795909091 L15.515834,5.00140909 L12.5082327,5.20413636 L12.5082327,3.84368182 C12.5082327,3.29368182 12.4494417,2.94595455 11.6527537,2.94595455 L9.64784048,2.94595455 L9.64784048,16.7850455 L11.9772617,16.8723182 L11.9772617,19.3332273 L3.66226492,19.3332273 L3.66226492,16.9882273 L5.22508805,16.9009545 C5.78522312,16.8432273 6.08010414,16.6695909 6.08010414,16.0905 L6.08010414,2.94595455 Z" id="Fill-24" fill="#212527" mask="url(#mask-3)"></path>
                    </g>
                </g>
            </g>
        </g>
    </g>
</svg>