<?xml version="1.0" encoding="UTF-8"?>
<svg width="177px" height="36px" viewBox="0 0 177 36" version="1.1" xmlns="http://www.w3.org/2000/svg" xmlns:xlink="http://www.w3.org/1999/xlink">
    <!-- Generator: Sketch 54.1 (76490) - https://sketchapp.com -->
    <title>Fad logo</title>
    <desc>Created with Sketch.</desc>
    <g id="Search-results" stroke="none" stroke-width="1" fill="none" fill-rule="evenodd">
        <g id="Desktop-Search-Results-(ADULT)" transform="translate(-185.000000, -46.000000)">
            <g id="Search-bar-3-+-Navigation-Menu-3" transform="translate(-1.000000, -255.000000)">
                <g id="Navigation-Menu-3" transform="translate(1.000000, 0.000000)">
                    <g id="Fad-logo" transform="translate(185.000000, 301.000000)">
                        <g id="Foundations">
                            <g id="Header-navigation">
                                <g id="Search-bar-3-+-Navigation-Menu-4">
                                    <g id="Fad-logo">
                                        <path d="M143.953325,19.5589286 L146.72331,11.1130714 L146.813102,11.1130714 L149.493942,19.5589286 L143.953325,19.5589286 L143.953325,19.5589286 Z M154.946704,24.6259286 L148.868628,8.01642857 L142.342883,8.01642857 L142.342883,10.2767143 L144.05862,10.4509286 L139.167219,23.8789286 C138.959212,24.4272857 138.844226,24.6285 138.337774,24.6863571 L137.395281,24.7718571 L137.395281,27.1594286 L144.380321,27.1594286 L144.380321,24.6574286 L142.46885,24.7384286 L143.238219,22.3733571 L150.209047,22.3733571 L150.836299,23.9907857 C151.044307,24.624 150.915109,24.6747857 150.28915,24.732 L149.327923,24.7718571 L149.327923,27.1594286 L156.89435,27.1594286 L156.89435,24.6574286 L154.97642,24.6259286 L154.946704,24.6259286 L154.946704,24.6259286 Z" id="Fill-1" fill="#313133"></path>
                                        <path d="M167.314741,24.6259286 L164.547985,24.6259286 L164.547985,10.8315 L166.92715,10.8315 C170.145449,10.8315 172.736496,12.3672857 172.736496,17.5551429 C172.736496,22.1650714 170.651901,24.6259286 167.314741,24.6259286 M167.106734,8.01642857 L159.01835,8.01642857 L159.01835,10.3917857 L160.765095,10.4785714 L160.765095,23.8789286 C160.765095,24.4555714 160.459544,24.6285 159.952445,24.6863571 L159.01835,24.7718571 L159.01835,27.1594286 L167.255956,27.1594286 C172.052398,27.1594286 176.401172,24.4600714 176.401172,16.9103571 C176.401172,10.9163571 172.796573,8.01642857 167.106734,8.01642857" id="Fill-2" fill="#313133"></path>
                                        <path d="M128.635073,17.2992857 C128.635073,18.6473571 127.505245,19.7395714 126.1125,19.7395714 C124.71911,19.7395714 123.590573,18.6473571 123.590573,17.2992857 C123.590573,15.9518571 124.71911,14.8596428 126.1125,14.8596428 C127.505245,14.8596428 128.635073,15.9518571 128.635073,17.2992857 M132.762274,14.7966428 L121.31735,1.40207143 C120.544106,0.494357143 119.390376,7.46069873e-14 118.173985,7.46069873e-14 L-4.97379915e-13,7.46069873e-14 L-4.97379915e-13,35.1893571 L118.173985,35.1893571 C119.670734,35.1893571 120.9795,34.4089285 121.6875,33.2453571 L132.804263,19.7614285 C134.004504,18.3047142 133.987062,16.2340714 132.762274,14.7966428" id="Fill-3" fill="#9C1F9F"></path>
                                        <path d="M10.4669015,25.0823571 L11.4571971,24.9962143 C11.9662336,24.9377143 12.3279854,24.7622143 12.3279854,24.183 L12.3279854,10.6797857 L10.6154781,10.5923571 L10.6154781,8.12507143 L25.1159124,8.12507143 L25.1159124,12.9452143 L22.0539416,13.1483571 L22.0539416,11.9873571 C22.0539416,11.4351429 21.993865,11.0867143 21.1825073,11.0867143 L15.9900766,11.0867143 L15.9900766,16.2257143 L23.3743358,16.2257143 L23.3743358,19.1892857 L15.9900766,19.1892857 L15.9900766,24.8785714 L18.6618723,24.9666429 L18.6618723,27.4365 L10.4669015,27.4365 L10.4669015,25.0823571" id="Fill-4" fill="#FFFFFF"></path>
                                        <path d="M36.7488175,17.0685 C39.3011058,17.0685 40.4406241,15.9351429 40.4406241,13.8754286 C40.4406241,11.2622143 38.8799234,10.9420714 36.328927,10.9420714 L34.1370985,10.9420714 L34.1370985,17.0685 L36.7488175,17.0685 L36.7488175,17.0685 Z M28.6132774,25.0823571 L29.604219,24.9962143 C30.1158394,24.9377143 30.4750073,24.7622143 30.4750073,24.183 L30.4750073,10.6797857 L28.764438,10.5923571 L28.764438,8.12507143 L36.9587628,8.12507143 C41.3708431,8.12507143 44.1640839,9.52007143 44.1640839,13.4678571 C44.1640839,16.371 42.212562,17.9389286 40.5607774,18.5779286 C41.3708431,18.8691429 41.8223869,19.3615714 42.2719927,20.3496429 L44.4334599,24.9081429 L46.1453212,24.9666429 L46.1453212,27.4365 L38.7300547,27.4365 L38.7300547,25.0823571 L39.6008431,24.9962143 C40.2914015,24.9081429 40.4406241,24.6477857 40.1712482,24.0653571 L38.761062,21.1628571 C38.3385876,20.2622143 37.9193431,19.827 36.8689708,19.827 L34.1370985,19.827 L34.1370985,24.8785714 L36.0879745,24.9666429 L36.0879745,27.4365 L28.6132774,27.4365 L28.6132774,25.0823571 L28.6132774,25.0823571 Z" id="Fill-5" fill="#FFFFFF"></path>
                                        <path d="M51.4772847,10.6797857 L49.7660693,10.5923571 L49.7660693,8.12507143 L57.0301752,8.12507143 L57.0301752,10.4772857 L56.0392336,10.5647143 C55.5301971,10.6238571 55.1690912,10.7967857 55.1690912,11.493 L55.1690912,24.8785714 L56.8809526,24.9666429 L56.8809526,27.4358571 L49.6168467,27.4358571 L49.6168467,25.0823571 L50.6058504,24.9962143 C51.1775474,24.9377143 51.4772847,24.7622143 51.4772847,24.0377143 L51.4772847,10.6797857" id="Fill-6" fill="#FFFFFF"></path>
                                        <path d="M66.6224124,24.6477857 L69.6830912,24.6477857 C73.0447993,24.6477857 75.1468358,22.266 75.1468358,17.6200714 C75.1468358,12.393 72.5357628,10.9420714 69.2929161,10.9420714 L66.6224124,10.9420714 L66.6224124,24.6477857 L66.6224124,24.6477857 Z M61.0979453,25.0823571 L62.0882409,24.9962143 C62.5985693,24.9377143 62.9596752,24.7622143 62.9596752,24.183 L62.9596752,10.6797857 L61.2478139,10.5923571 L61.2478139,8.12507143 L69.4725,8.12507143 C75.2069124,8.12507143 78.8386423,11.0584286 78.8386423,17.0980714 C78.8386423,24.705 74.4556314,27.4365 69.6230146,27.4365 L61.0979453,27.4365 L61.0979453,25.0823571 L61.0979453,25.0823571 Z" id="Fill-7" fill="#FFFFFF"></path>
                                        <path d="M87.1692701,19.6515 L92.7512299,19.6515 L90.049719,11.3772857 L89.959281,11.3772857 L87.1692701,19.6515 L87.1692701,19.6515 Z M87.1382628,10.6521429 L85.2468175,10.4772857 L85.2468175,8.12507143 L92.1207482,8.12507143 L98.2453358,24.8785714 L98.2763431,24.8785714 L99.9862664,24.9666429 L99.9862664,27.4358571 L92.2409015,27.4358571 L92.2409015,25.0823571 L93.3830036,24.9962143 C94.0134854,24.9377143 94.3125766,24.7622143 94.1026314,24.1251429 L93.4727956,22.3251429 L86.4477044,22.3251429 L85.5465547,24.8785714 L87.348854,24.9666429 L87.348854,27.4358571 L80.4148467,27.4358571 L80.4148467,25.0823571 L81.4051423,24.9962143 C81.9148248,24.9377143 82.0957007,24.7358571 82.306292,24.1823571 L87.1382628,10.6521429 L87.1382628,10.6521429 Z" id="Fill-8" fill="#FFFFFF"></path>
                                        <path d="M105.661248,20.0590714 L100.557318,10.6797857 L99.1484234,10.5923571 L99.1484234,8.12507143 L106.47196,8.12507143 L106.47196,10.4772857 L105.570164,10.5647143 C104.911905,10.6238571 104.730383,11.0867143 105.06242,11.6967857 L107.61277,16.7496429 L107.732923,16.7496429 L111.004193,10.7080714 L109.503569,10.5923571 L109.503569,8.12507143 L115.956964,8.12507143 L115.956964,10.4772857 L115.057106,10.5647143 C114.577139,10.6238571 114.338124,10.9125 114.036449,11.4351429 L109.323985,20.0590714 L109.323985,24.8785714 L111.665036,24.9666429 L111.665036,27.4358571 L103.200044,27.4358571 L103.200044,25.0823571 L104.791106,24.9962143 C105.360865,24.9666429 105.661248,24.7622143 105.661248,24.1823571 L105.661248,20.0590714" id="Fill-9" fill="#FFFFFF"></path>
                                    </g>
                                </g>
                            </g>
                        </g>
                    </g>
                </g>
            </g>
        </g>
    </g>
</svg>