<svg xmlns="http://www.w3.org/2000/svg" version="1.1" x="0" y="0" width="95" height="39" viewBox="0 0 95 39" xml:space="preserve"><style type="text/css">
	.st0{fill:#E3E3E3;}
	.st1{fill:#EFEFEF;}
</style><title>FAD signature 4</title><desc>Created with Sketch.</desc><g transform="translate(-115.000000, -637.000000)"><g transform="translate(10.000000, 155.000000)"><g transform="translate(105.000000, 482.000000)"><path class="st0" d="M60 20l3-9h0.1l2.9 9H60L60 20zM71.9 26.2L65.4 8h-7v2.5l1.8 0.2 -5.3 14.7c-0.2 0.6-0.3 0.8-0.9 0.9l-1 0.1V29h7.5v-2.7l-2.1 0.1 0.8-2.6h7.5l0.7 1.8c0.2 0.7 0.1 0.7-0.6 0.8l-1 0V29H74v-2.7L71.9 26.2 71.9 26.2 71.9 26.2zM85 26h-3V11h2.6c3.5 0 6.4 1.7 6.4 7.3C91 23.3 88.7 26 85 26M84.8 8H76v2.6l1.9 0.1v14.7c0 0.6-0.3 0.8-0.9 0.9l-1 0.1V29h9c5.2 0 10-3 10-11.2C95 11.2 91.1 8 84.8 8M43 18.5c0 1.4-1.1 2.5-2.5 2.5 -1.4 0-2.5-1.1-2.5-2.5s1.1-2.5 2.5-2.5C41.9 16 43 17.1 43 18.5M48 16.4L35.9 1.6c-0.8-1-2-1.6-3.3-1.6H0v39h32.5c1.6 0 3-0.9 3.7-2.2l11.8-14.9C49.3 20.3 49.3 18 48 16.4M13.1 27.3c0.6-0.1 1-0.3 1-0.9V11.8l-1.9-0.1V9H28v5.2l-3.3 0.2v-1.3c0-0.6-0.1-1-1-1H18v5.6h8.1V21H18v6.2l2.9 0.1V30h-9v-2.6L13.1 27.3z"/></g></g></g></svg>