<?xml version="1.0" encoding="utf-8"?>
<!-- Generator: Adobe Illustrator 23.1.1, SVG Export Plug-In . SVG Version: 6.00 Build 0)  -->
<!DOCTYPE svg PUBLIC "-//W3C//DTD SVG 1.1//EN" "http://www.w3.org/Graphics/SVG/1.1/DTD/svg11.dtd" [
	<!ENTITY st0 "fill-rule:evenodd;clip-rule:evenodd;fill:#212527;">
	<!ENTITY st1 "fill-rule:evenodd;clip-rule:evenodd;fill:url(#SVGID_1_);">
]>
<svg version="1.1" id="Layer_1" xmlns="http://www.w3.org/2000/svg" xmlns:xlink="http://www.w3.org/1999/xlink" x="0px" y="0px"
	 width="176px" height="35px" viewBox="0 0 176 35" style="enable-background:new 0 0 176 35;" xml:space="preserve">
<g>
	<path style="&st0;" d="M154.4,24.6l-6-16.6h-6.5v2.3l1.7,0.2l-4.9,13.4c-0.2,0.5-0.3,0.7-0.8,0.8l-0.9,0.1v2.4h7v-2.5l-1.9,0.1
		l0.8-2.4h7l0.6,1.6c0.2,0.6,0.1,0.7-0.5,0.7h-1v2.4h7.6v-2.5H154.4z M143.5,19.6l2.8-8.4h0.1l2.7,8.4H143.5z M166.1,8H158v2.4
		l1.7,0.1v13.4c0,0.6-0.3,0.7-0.8,0.8l-0.9,0.1v2.4h8.2c4.8,0,9.1-2.7,9.1-10.2C175.4,10.9,171.8,8,166.1,8 M166.3,24.6h-2.8V10.8
		h2.4c3.2,0,5.8,1.5,5.8,6.7C171.7,22.2,169.7,24.6,166.3,24.6"/>
	
		<linearGradient id="SVGID_1_" gradientUnits="userSpaceOnUse" x1="-414.8808" y1="23.497" x2="-412.3512" y2="23.6702" gradientTransform="matrix(134 0 0 35 55593.9961 -806.0001)">
		<stop  offset="0" style="stop-color:#A8DC28"/>
		<stop  offset="1" style="stop-color:#31C5F2"/>
	</linearGradient>
	<path style="&st1;" d="M115.5,0c4.5,0,7.9,3.9,8.8,4.9l0.1,0.1l8.7,9.7c1.3,1.3,1.3,3.3,0.2,4.8l-0.1,0.2l-8.8,11.1
		c-0.7,1.1-4,4-8.5,4.2h-0.3H8c-4.3,0-7.9-3.4-8-7.8V27V8c0-4.3,3.4-7.9,7.8-8H8H115.5z M36.4,8h-8.2v2.5l1.7,0.1v13.5
		c0,0.6-0.3,0.7-0.8,0.8H29L28,25h0.2v2.5h7.5V25l-2-0.1v-5.1h2.7c1,0,1.5,0.4,1.8,1.1l0.1,0.2l1.4,2.9c0.2,0.6,0.1,0.8-0.5,0.9
		h-0.1L38.2,25v2.4h7.4v-2.5l-1.7-0.1l-2.2-4.6c-0.4-1-0.9-1.5-1.7-1.8c1.6-0.6,3.6-2.2,3.6-5.1C43.6,9.4,40.8,8,36.4,8z M24.7,8
		H10.2v2.5l1.7,0.1v13.5c0,0.6-0.3,0.7-0.8,0.8H11L10,25v2.4h8.2v-2.5l-2.7-0.1v-5.7h7.4v-3h-7.4V11h5.2c0.8,0,0.9,0.3,0.9,0.8v0.1
		V13l3.1-0.2V8z M56.5,8h-7.2v2.5l1.7,0.1h-0.1v13.3c0,0.8-0.3,0.9-0.8,1H50L49,25v2.4h7.3v-2.5l-1.7-0.1V11.4
		c0-0.7,0.3-0.8,0.8-0.9h0.1l1-0.1C56.5,10.4,56.5,8,56.5,8z M91.6,8h-6.9v2.4l1.9,0.2l-4.7,13.5c-0.2,0.5-0.4,0.7-0.8,0.8H81L80,25
		v2.4h6.9v-2.5l-1.8-0.1l0.9-2.6h7l0.6,1.8c0.2,0.7-0.1,0.8-0.6,0.9h-0.1L91.8,25v2.4h7.7v-2.5l-1.8-0.1L91.6,8z M106.3,8H99v2.5
		l1.4,0.1l5.1,9.4h0.1v4.1c0,0.6-0.3,0.8-0.9,0.8l0,0l-1.6,0.1v2.4h8.5v-2.5l-2.3-0.1V20l4.7-8.6c0.3-0.6,0.5-0.8,1-0.9l0,0l0.9-0.1
		V8h-6.5v2.6l1.5,0.1l-3.3,6h-0.1l-2.6-5.1c-0.3-0.6-0.2-1,0.5-1.1l0,0l0.9-0.1C106.3,10.4,106.3,8,106.3,8z M69.4,8h-8.2v2.5
		l1.7,0.1v13.5c0,0.6-0.3,0.7-0.8,0.8H62L61,25h0.1v2.3h8.5c4.8,0,9.2-2.7,9.2-10.3C78.8,10.9,75.1,8,69.4,8z M69.2,10.8
		c3.3,0,5.9,1.5,5.9,6.7c0,4.5-2,6.9-5.3,7h-0.2h-3.1V10.8H69.2z M126.7,15h-0.2c-1.4,0-2.5,1.1-2.5,2.5s1.1,2.5,2.5,2.5
		s2.5-1.1,2.5-2.5c0-1.3-0.9-2.4-2.2-2.5H126.7z M89.5,11.3l2.8,8.3h-5.6L89.5,11.3z M35.7,10.9c2.5,0,4.1,0.3,4.1,2.9
		c0,2-1,3.1-3.5,3.2h-0.2h-2.6v-6.1H35.7z"/>
</g>
</svg>
