<?xml version="1.0" encoding="UTF-8" standalone="no"?>
<svg width="95px" height="19px" viewBox="0 0 95 19" version="1.1" xmlns="http://www.w3.org/2000/svg" xmlns:xlink="http://www.w3.org/1999/xlink">
    <!-- Generator: Sketch 3.8.3 (29802) - http://www.bohemiancoding.com/sketch -->
    <title>FAD Shop icon@3x</title>
    <desc>Created with Sketch.</desc>
    <defs></defs>
    <g id="Page-1" stroke="none" stroke-width="1" fill="none" fill-rule="evenodd">
        <g id="Desktop-Search-results-Shop-Icon" transform="translate(-1008.000000, -415.000000)">
            <g id="Ads" transform="translate(452.000000, -238.000000)">
                <g id="Search-results">
                    <g id="1" transform="translate(5.000000, 259.000000)">
                        <g id="Posted-ad--for-sale-Copy-2" transform="translate(0.000000, 205.000000)">
                            <g id="FAD-Shop-icon" transform="translate(551.000000, 189.000000)">
                                <g id="Group" transform="translate(52.681818, 4.318182)" fill="#313133">
                                    <path d="M1.64090909,8.89545455 C1.9,9.24090909 2.24545455,9.58636364 2.59090909,9.75909091 C2.93636364,9.93181818 3.36818182,10.0181818 3.8,10.0181818 C4.05909091,10.0181818 4.23181818,10.0181818 4.49090909,9.93181818 C4.75,9.84545455 4.92272727,9.75909091 5.18181818,9.58636364 C5.35454545,9.41363636 5.52727273,9.24090909 5.7,9.06818182 C5.78636364,8.89545455 5.87272727,8.63636364 5.87272727,8.29090909 C5.87272727,7.85909091 5.78636364,7.6 5.52727273,7.34090909 C5.26818182,7.16818182 4.92272727,6.99545455 4.57727273,6.82272727 C4.23181818,6.65 3.8,6.56363636 3.36818182,6.39090909 C2.93636364,6.21818182 2.50454545,6.04545455 2.15909091,5.87272727 C1.81363636,5.61363636 1.46818182,5.35454545 1.20909091,4.92272727 C0.95,4.49090909 0.863636364,3.97272727 0.863636364,3.28181818 C0.863636364,2.93636364 0.95,2.67727273 1.03636364,2.33181818 C1.12272727,1.98636364 1.38181818,1.64090909 1.64090909,1.38181818 C1.9,1.12272727 2.33181818,0.863636364 2.76363636,0.690909091 C3.19545455,0.518181818 3.71363636,0.431818182 4.40454545,0.431818182 C5.00909091,0.431818182 5.52727273,0.518181818 6.04545455,0.690909091 C6.56363636,0.863636364 6.99545455,1.12272727 7.42727273,1.64090909 L6.30454545,2.67727273 C6.13181818,2.41818182 5.87272727,2.15909091 5.52727273,1.98636364 C5.18181818,1.81363636 4.83636364,1.72727273 4.40454545,1.72727273 C3.97272727,1.72727273 3.71363636,1.81363636 3.45454545,1.9 C3.19545455,1.98636364 3.02272727,2.15909091 2.85,2.33181818 C2.67727273,2.50454545 2.59090909,2.67727273 2.50454545,2.85 C2.41818182,3.02272727 2.41818182,3.19545455 2.41818182,3.36818182 C2.41818182,3.8 2.50454545,4.14545455 2.76363636,4.40454545 C3.02272727,4.66363636 3.36818182,4.83636364 3.71363636,5.00909091 C4.05909091,5.18181818 4.49090909,5.26818182 4.92272727,5.44090909 C5.35454545,5.52727273 5.78636364,5.7 6.13181818,5.95909091 C6.47727273,6.13181818 6.82272727,6.47727273 7.08181818,6.82272727 C7.34090909,7.16818182 7.42727273,7.68636364 7.42727273,8.29090909 C7.42727273,8.80909091 7.34090909,9.24090909 7.16818182,9.67272727 C6.99545455,10.1045455 6.73636364,10.45 6.39090909,10.7090909 C6.04545455,10.9681818 5.7,11.2272727 5.26818182,11.3136364 C4.83636364,11.4863636 4.31818182,11.5727273 3.88636364,11.5727273 C3.19545455,11.5727273 2.59090909,11.4863636 1.98636364,11.2272727 C1.38181818,10.9681818 0.95,10.6227273 0.604545455,10.1045455 L1.64090909,8.89545455 L1.64090909,8.89545455 Z" id="Shape"></path>
                                    <polygon id="Shape" points="10.1909091 0.690909091 11.5727273 0.690909091 11.5727273 5.00909091 16.9272727 5.00909091 16.9272727 0.690909091 18.3090909 0.690909091 18.3090909 11.0545455 16.9272727 11.0545455 16.9272727 6.30454545 11.5727273 6.30454545 11.5727273 11.0545455 10.1909091 11.0545455"></polygon>
                                    <path d="M26.6,11.3136364 C25.8227273,11.3136364 25.0454545,11.1409091 24.4409091,10.8818182 C23.75,10.6227273 23.2318182,10.1909091 22.7136364,9.75909091 C22.2818182,9.24090909 21.85,8.72272727 21.5909091,8.03181818 C21.3318182,7.34090909 21.1590909,6.65 21.1590909,5.87272727 C21.1590909,5.09545455 21.3318182,4.40454545 21.5909091,3.71363636 C21.85,3.02272727 22.1954545,2.50454545 22.7136364,1.98636364 C23.1454545,1.46818182 23.75,1.12272727 24.4409091,0.863636364 C25.1318182,0.604545455 25.8227273,0.431818182 26.6,0.431818182 C27.3772727,0.431818182 28.1545455,0.604545455 28.7590909,0.863636364 C29.45,1.12272727 29.9681818,1.55454545 30.4863636,1.98636364 C31.0045455,2.41818182 31.35,3.02272727 31.6090909,3.71363636 C31.8681818,4.40454545 32.0409091,5.09545455 32.0409091,5.87272727 C32.0409091,6.65 31.8681818,7.34090909 31.6090909,8.03181818 C31.35,8.72272727 31.0045455,9.24090909 30.4863636,9.75909091 C29.9681818,10.2772727 29.45,10.6227273 28.7590909,10.8818182 C28.1545455,11.1409091 27.3772727,11.3136364 26.6,11.3136364 L26.6,11.3136364 Z M26.6,10.0181818 C27.2045455,10.0181818 27.7227273,9.93181818 28.2409091,9.67272727 C28.7590909,9.41363636 29.1045455,9.15454545 29.45,8.80909091 C29.7954545,8.46363636 30.0545455,8.03181818 30.2272727,7.51363636 C30.4,6.99545455 30.4863636,6.47727273 30.4863636,5.87272727 C30.4863636,5.26818182 30.4,4.75 30.2272727,4.23181818 C30.0545455,3.71363636 29.7954545,3.28181818 29.45,2.93636364 C29.1045455,2.59090909 28.6727273,2.24545455 28.2409091,2.07272727 C27.7227273,1.81363636 27.2045455,1.72727273 26.6,1.72727273 C25.9954545,1.72727273 25.4772727,1.81363636 24.9590909,2.07272727 C24.4409091,2.33181818 24.0954545,2.59090909 23.75,2.93636364 C23.4045455,3.28181818 23.1454545,3.71363636 22.9727273,4.23181818 C22.8,4.75 22.7136364,5.26818182 22.7136364,5.87272727 C22.7136364,6.47727273 22.8,6.99545455 22.9727273,7.51363636 C23.1454545,8.03181818 23.4045455,8.46363636 23.75,8.80909091 C24.0954545,9.15454545 24.5272727,9.5 24.9590909,9.67272727 C25.4772727,9.84545455 25.9954545,10.0181818 26.6,10.0181818 L26.6,10.0181818 Z" id="Shape"></path>
                                    <path d="M34.8045455,0.690909091 L38.4318182,0.690909091 C39.1227273,0.690909091 39.6409091,0.777272727 40.0727273,0.95 C40.5045455,1.12272727 40.85,1.38181818 41.1090909,1.64090909 C41.3681818,1.9 41.5409091,2.24545455 41.6272727,2.59090909 C41.7136364,2.93636364 41.8,3.28181818 41.8,3.62727273 C41.8,3.97272727 41.7136364,4.31818182 41.6272727,4.66363636 C41.5409091,5.00909091 41.3681818,5.35454545 41.1090909,5.61363636 C40.85,5.87272727 40.5045455,6.13181818 40.0727273,6.30454545 C39.6409091,6.47727273 39.1227273,6.56363636 38.4318182,6.56363636 L36.1863636,6.56363636 L36.1863636,11.1409091 L34.8045455,11.1409091 L34.8045455,0.690909091 L34.8045455,0.690909091 Z M36.1863636,5.26818182 L38,5.26818182 C38.2590909,5.26818182 38.5181818,5.26818182 38.7772727,5.18181818 C39.0363636,5.09545455 39.2954545,5.09545455 39.4681818,4.92272727 C39.6409091,4.83636364 39.8136364,4.66363636 39.9863636,4.40454545 C40.0727273,4.14545455 40.1590909,3.88636364 40.1590909,3.54090909 C40.1590909,3.19545455 40.0727273,2.93636364 39.9863636,2.67727273 C39.9,2.41818182 39.7272727,2.24545455 39.4681818,2.15909091 C39.2954545,2.07272727 39.0363636,1.98636364 38.7772727,1.9 C38.5181818,1.81363636 38.2590909,1.81363636 38,1.81363636 L36.1863636,1.81363636 L36.1863636,5.26818182 L36.1863636,5.26818182 Z" id="Shape"></path>
                                </g>
                                <g id="Group">
                                    <path d="M33.9409091,13.4727273 L30.8318182,4.66363636 L27.4636364,4.66363636 L27.4636364,5.87272727 L28.3272727,5.95909091 L25.8227273,13.1272727 C25.7363636,13.3863636 25.65,13.5590909 25.3909091,13.5590909 L24.8727273,13.6454545 L24.8727273,14.9409091 L28.5,14.9409091 L28.5,13.6454545 L27.55,13.7318182 L27.9818182,12.4363636 L31.6090909,12.4363636 L31.9545455,13.3 C32.0409091,13.6454545 31.9545455,13.6454545 31.6954545,13.7318182 L31.1772727,13.7318182 L31.1772727,15.0272727 L35.0636364,15.0272727 L35.0636364,13.7318182 L33.9409091,13.4727273 L33.9409091,13.4727273 L33.9409091,13.4727273 Z M28.2409091,10.7954545 L29.7090909,6.30454545 L29.7954545,6.30454545 L31.1772727,10.7954545 L28.2409091,10.7954545 L28.2409091,10.7954545 Z" id="Shape" fill="#313133"></path>
                                    <path d="M40.2454545,4.66363636 L36.1,4.66363636 L36.1,5.95909091 L36.9636364,6.04545455 L36.9636364,13.1272727 C36.9636364,13.4727273 36.7909091,13.5590909 36.5318182,13.5590909 L36.0136364,13.6454545 L36.0136364,14.9409091 L40.2454545,14.9409091 C42.75,14.9409091 44.9954545,13.4727273 44.9954545,9.5 C44.9954545,6.21818182 43.1818182,4.66363636 40.2454545,4.66363636 M40.3318182,13.4727273 L38.8636364,13.4727273 L38.8636364,6.13181818 L40.0727273,6.13181818 C41.7136364,6.13181818 43.0954545,6.90909091 43.0954545,9.67272727 C43.0954545,12.1772727 42.0590909,13.4727273 40.3318182,13.4727273" id="Shape" fill="#313133"></path>
                                    <path d="M23.0590909,8.29090909 L17.4454545,1.46818182 C17.1,1.03636364 16.4954545,0.777272727 15.8909091,0.777272727 L9.5,0.777272727 L7.08181818,0.777272727 L0.431818182,0.777272727 L0.431818182,18.6545455 L7.08181818,18.6545455 L9.5,18.6545455 L15.8909091,18.6545455 C16.6681818,18.6545455 17.2727273,18.2227273 17.6181818,17.7045455 L23.0590909,10.8818182 C23.6636364,10.1045455 23.6636364,9.06818182 23.0590909,8.29090909 M20.9863636,9.58636364 C20.9863636,10.2772727 20.4681818,10.7954545 19.7772727,10.7954545 C19.0863636,10.7954545 18.5681818,10.2772727 18.5681818,9.58636364 C18.5681818,8.89545455 19.0863636,8.37727273 19.7772727,8.37727273 C20.4681818,8.37727273 20.9863636,8.89545455 20.9863636,9.58636364" id="Shape" fill="#A8DC28"></path>
                                    <path d="M6.21818182,13.6454545 L6.73636364,13.5590909 C6.99545455,13.5590909 7.16818182,13.4727273 7.16818182,13.1272727 L7.16818182,5.87272727 L6.30454545,5.78636364 L6.30454545,4.49090909 L13.8181818,4.49090909 L13.8181818,7.08181818 L12.2636364,7.16818182 L12.2636364,6.56363636 C12.2636364,6.30454545 12.2636364,6.04545455 11.8318182,6.04545455 L9.15454545,6.04545455 L9.15454545,8.80909091 L12.9545455,8.80909091 L12.9545455,10.3636364 L9.15454545,10.3636364 L9.15454545,13.3863636 L10.5363636,13.4727273 L10.5363636,14.7681818 L6.30454545,14.7681818 L6.30454545,13.6454545 L6.21818182,13.6454545 Z" id="Shape" fill="#FFFFFF"></path>
                                </g>
                            </g>
                        </g>
                    </g>
                </g>
            </g>
        </g>
    </g>
</svg>