<svg xmlns="http://www.w3.org/2000/svg" version="1.1" x="0" y="0" width="100" height="40" viewBox="0 0 100 40" xml:space="preserve"><style type="text/css">
	.st0{fill:#4A4A4A;}
</style><title>FAD footer</title><desc>Created with Sketch Beta.</desc><g transform="translate(-670.000000, -948.000000)"><g transform="translate(-7.000000, 5.000000)"><g transform="translate(677.000000, 943.000000)"><path class="st0" d="M62.8 21.5l3.1-9.2H66l3 9.2H62.8M68.4 8.6h-7.5v2.5l2 0.2 -5.5 15.1c-0.2 0.6-0.4 0.8-1 0.9l-1.1 0.1v2.7h8.1v-2.8l-2.2 0 0.8-2.7h7.9l0.7 1.9c0.2 0.7 0.1 0.8-0.6 0.9l-1.1 0.1v2.7h8.7v-2.8l-2.4-0.2h0L68.4 8.6M86.3 27.1V11.7h2.4c3.6 0 6.6 1.7 6.6 7.5 0 5.2-2.4 7.9-6.1 7.9H86.3M88.9 8.6h-8.8v2.7l1.9 0.1v15.1c0 0.6-0.3 0.8-0.9 0.9l-1 0.1v2.7h9c5.4 0 10.3-3 10.3-11.5C99.4 11.9 95.4 8.6 88.9 8.6M43.2 22c-1.6 0-2.8-1.2-2.8-2.7 0-1.5 1.3-2.7 2.8-2.7 1.6 0 2.8 1.2 2.8 2.7C46.1 20.8 44.8 22 43.2 22M13 30.2v-2.4l1-0.1c0.6-0.1 0.9-0.3 0.9-0.9V11.6L13 11.5V8.6h16.1v5.5l-3.1 0.2v-1.3c0-0.6-0.3-0.8-1.2-0.8h-5.6v5.5h8.1v3.1h-8.1v6.6l3.1 0.1v2.5H13M34.3 0H0v39.4h34.3c1.7 0 3.2-0.9 4-2.2L50.8 22c1.4-1.6 1.3-3.9 0-5.5l-12.9-15C36.9 0.5 35.6 0 34.3 0"/></g></g></g></svg>