<?xml version="1.0" encoding="utf-8"?>
<!-- Generator: Adobe Illustrator 19.0.0, SVG Export Plug-In . SVG Version: 6.00 Build 0)  -->
<svg version="1.1" id="Layer_1" xmlns:sketch="http://www.bohemiancoding.com/sketch/ns"
	 xmlns="http://www.w3.org/2000/svg" xmlns:xlink="http://www.w3.org/1999/xlink" x="0px" y="0px" width="90px" height="129px"
	 viewBox="-1372 407.9 90 129" style="enable-background:new -1372 407.9 90 129;" xml:space="preserve">
<style type="text/css">
	.st0{fill:#FFFFFF;}
</style>
<title>WP-family-cars</title>
<desc>Created with Sketch.</desc>
<path id="Fill-1" class="st0" d="M-1354.1,416.3c-0.1,0.5-0.1,1.1-0.2,1.7c-0.1,0.9-0.2,1.7-0.3,2.6c-0.1,0.9-0.3,1.7-0.4,2.6
	c0.4-0.1,0.7-0.2,1.1-0.3c0.4-0.1,0.7-0.2,1.1-0.2c0.1,0,0.3,0,0.4,0.1c0.1,0.1,0.2,0.2,0.2,0.3c0,0.1-0.1,0.3-0.4,0.4
	c-0.3,0.1-0.6,0.3-0.9,0.4c-0.4,0.1-0.7,0.2-1,0.3c-0.3,0.1-0.6,0.1-0.7,0.2c-0.1,0.7-0.3,1.5-0.5,2.3c-0.2,0.8-0.5,1.6-0.8,2.4
	c-0.3,0.8-0.7,1.6-1.1,2.4c-0.4,0.8-0.9,1.4-1.5,2c-0.6,0.6-1.2,1-1.9,1.4c-0.7,0.3-1.5,0.5-2.4,0.5c-0.6,0-1.1-0.1-1.6-0.3
	c-0.4-0.2-0.8-0.6-1.2-1c-0.1-0.2-0.3-0.4-0.4-0.6c-0.1-0.2-0.2-0.4-0.2-0.6c0.1-0.2,0.3-0.3,0.5-0.3c0.2,0,0.4,0.1,0.5,0.3
	c0.1,0.2,0.3,0.4,0.5,0.6c0.2,0.2,0.4,0.4,0.7,0.6c0.3,0.2,0.6,0.3,1,0.3c0.6,0,1.1-0.2,1.5-0.5s0.9-0.8,1.3-1.3
	c0.4-0.5,0.7-1.1,1-1.8c0.3-0.7,0.5-1.3,0.8-2c0.2-0.7,0.4-1.3,0.5-2s0.2-1.2,0.3-1.6c-0.6,0.1-1.1,0.2-1.7,0.3
	c-0.6,0.1-1.1,0.2-1.7,0.2c-0.3,0-0.5-0.2-0.5-0.5c0-0.2,0-0.4,0.1-0.5c0.1-0.2,0.2-0.3,0.4-0.3c0.2,0,0.3-0.1,0.5-0.1
	c0.2,0,0.4,0,0.6,0c0.4,0,0.8-0.1,1.2-0.1c0.4,0,0.8-0.1,1.2-0.2c0.3-1.4,0.5-2.7,0.7-4.1c0.2-1.4,0.3-2.7,0.3-4.1
	c0-0.1,0-0.2,0-0.3c0-0.1,0-0.2,0-0.3c-1,0.1-1.9,0.2-2.9,0.3c-1,0.1-1.9,0.2-2.9,0.3c-0.3,0-0.6,0.1-1,0.2
	c-0.4,0.1-0.8,0.2-1.2,0.3s-0.7,0.3-1,0.5c-0.3,0.2-0.4,0.5-0.4,0.9c0,0.4,0.1,0.8,0.2,1.1c0.1,0.4,0.3,0.7,0.5,1
	c0.2,0.3,0.3,0.5,0.5,0.8c0.1,0.2,0.2,0.4,0.2,0.5c0,0.2-0.1,0.3-0.2,0.4h-0.1c-0.2,0-0.3,0-0.4,0c-0.1,0-0.2-0.1-0.3-0.2
	c-0.3-0.2-0.5-0.5-0.8-0.8c-0.2-0.3-0.4-0.6-0.6-1c-0.2-0.4-0.3-0.7-0.4-1.1c-0.1-0.4-0.1-0.7-0.1-1.1c0-0.6,0.2-1.1,0.6-1.5
	c0.4-0.4,0.9-0.7,1.5-0.9c0.6-0.2,1.2-0.4,1.8-0.5c0.6-0.1,1.2-0.2,1.6-0.3c0.9-0.1,1.8-0.2,2.7-0.3c0.9-0.1,1.8-0.2,2.7-0.3
	c0.9-0.1,1.8-0.2,2.7-0.3c0.9-0.1,1.8-0.3,2.7-0.5c0.1,0,0.3-0.1,0.5-0.2c0.2-0.1,0.4-0.1,0.6-0.2c0.2-0.1,0.4-0.1,0.6-0.2
	c0.2,0,0.4-0.1,0.5-0.1c0.2,0,0.3,0.1,0.3,0.3c0,0.2,0,0.3,0,0.5c0,0.3,0,0.5-0.1,0.7c-0.1,0.2-0.3,0.3-0.5,0.5
	c-0.3,0.1-0.6,0.3-1,0.4c-0.4,0.1-0.8,0.2-1.2,0.3c-0.4,0.1-0.8,0.2-1.2,0.2c-0.4,0.1-0.8,0.1-1.1,0.2
	C-1354,415.2-1354,415.8-1354.1,416.3"/>
<g>
	<path class="st0" d="M-1311.3,421.7c0.4,0,0.7-0.2,1-0.5c0.3-0.3,0.4-0.7,0.4-1.1c0-0.3-0.1-0.6-0.3-0.8c-0.2-0.2-0.4-0.3-0.8-0.3
		c-0.4,0-0.7,0.2-1,0.5c-0.3,0.3-0.4,0.7-0.4,1.1c0,0.3,0.1,0.6,0.3,0.8C-1311.9,421.6-1311.6,421.7-1311.3,421.7z"/>
	<path class="st0" d="M-1287.1,425.1c0-0.4-0.1-0.7-0.2-1c-0.1-0.3-0.2-0.5-0.3-0.6c-0.2-0.1-0.4-0.2-0.6-0.2
		c-0.2,0-0.4,0.1-0.6,0.3c-0.2,0.2-0.3,0.4-0.5,0.5c-0.7,0.9-1.4,1.8-2.1,2.8c-0.7,0.9-1.4,1.8-2.3,2.7c-0.1,0.1-0.2,0.2-0.4,0.4
		c-0.2,0.2-0.4,0.4-0.6,0.5c-0.2,0.2-0.4,0.3-0.6,0.5c-0.2,0.1-0.4,0.2-0.5,0.2c-0.2,0-0.2-0.1-0.3-0.2c0-0.2,0-0.3,0-0.4
		c0-0.3,0-0.6,0.1-1.1c0.1-0.4,0.2-0.9,0.3-1.3c0.1-0.5,0.3-0.9,0.4-1.3c0.1-0.4,0.3-0.8,0.4-1c0.1-0.2,0.2-0.5,0.4-0.9
		c0.2-0.3,0.2-0.7,0.2-0.9c0-0.3-0.1-0.6-0.4-0.9c-0.3-0.2-0.6-0.4-0.9-0.4c-0.3,0-0.5,0.1-0.7,0.2s-0.3,0.4-0.4,0.6
		c-0.1,0.2-0.2,0.4-0.2,0.6c-0.1,0.2-0.1,0.4-0.2,0.6c-0.3,0.9-0.5,1.8-0.7,2.7c-0.1,0.5-0.2,0.9-0.2,1.4c-0.1,0.2-0.2,0.3-0.3,0.5
		c-0.2,0.3-0.5,0.6-0.8,1c-0.3,0.4-0.7,0.8-1.1,1.2c-0.4,0.4-0.8,0.7-1.2,1c-0.4,0.3-0.8,0.4-1.2,0.4c-0.4,0-0.8-0.2-1-0.6
		c-0.2-0.4-0.4-0.8-0.6-1.3c-0.1-0.5-0.2-1-0.3-1.6c0-0.5-0.1-0.9-0.1-1.2c0-0.2,0-0.4,0-0.7c0-0.3,0-0.5,0.1-0.6
		c0-0.1,0.1-0.3,0.2-0.4c0.1-0.2,0.2-0.3,0.3-0.4c0.2-0.4,0.5-0.8,0.7-1.2c0.2-0.4,0.5-0.8,0.7-1.2c0.5-0.8,0.9-1.8,1.3-2.8
		c0.4-1,0.8-2.1,1.2-3.2c0.4-1.1,0.7-2.2,0.9-3.3c0.2-1.1,0.3-2.1,0.3-3.1c0-0.3,0-0.6-0.1-0.9s-0.2-0.6-0.3-0.9
		c-0.1-0.3-0.3-0.5-0.5-0.7s-0.5-0.3-0.9-0.3c-0.4,0-0.9,0.2-1.3,0.5c-0.4,0.3-0.8,0.7-1.2,1.2c-0.4,0.5-0.7,1-1,1.5
		s-0.5,0.9-0.7,1.3c-0.8,1.9-1.4,3.9-1.8,6c-0.3,2.1-0.5,4.1-0.5,6.2c0,0.4,0,0.9,0,1.5c0,0.5,0.1,1,0.1,1.6
		c-0.2,0.3-0.4,0.6-0.6,0.9c-0.4,0.5-0.8,1.1-1.2,1.6c-0.5,0.5-0.9,0.9-1.4,1.3c-0.5,0.4-0.9,0.6-1.3,0.6c-0.3,0-0.5-0.1-0.6-0.3
		c-0.1-0.2-0.2-0.5-0.3-0.8c-0.1-0.3-0.1-0.6-0.1-0.9c0-0.3,0-0.5,0-0.7c0-0.9,0.1-1.8,0.3-2.7c0.1-0.2,0.1-0.5,0.2-0.8
		c0.1-0.3,0.2-0.6,0.3-0.9c0.1-0.3,0.2-0.6,0.3-0.8c0.1-0.3,0.1-0.5,0.1-0.7c0-0.4-0.2-0.7-0.7-0.7c-0.6,0-1.1,0.2-1.4,0.6
		c-0.3,0.4-0.6,0.8-0.7,1.4c-0.2,0.5-0.3,1.1-0.4,1.8c-0.1,0.6-0.2,1.1-0.2,1.5c-0.1,0-0.2,0.1-0.3,0.2c-0.2,0.2-0.3,0.4-0.4,0.5
		c-0.2,0.3-0.5,0.6-0.8,1c-0.4,0.4-0.8,0.8-1.2,1.2s-0.8,0.7-1.3,1c-0.4,0.3-0.8,0.4-1.2,0.4c-0.2,0-0.4-0.1-0.5-0.2
		c-0.1-0.1-0.2-0.3-0.2-0.4c0-0.2-0.1-0.3-0.1-0.5c0-0.2,0-0.4,0-0.5c0-1.2,0.1-2.3,0.2-3.5c0.1-1.2,0.2-2.3,0.2-3.5
		c0-0.3,0-0.6-0.1-0.9c-0.1-0.3-0.2-0.6-0.3-0.8c-0.1-0.2-0.3-0.4-0.6-0.6s-0.5-0.2-0.8-0.2c-0.5,0-0.9,0.1-1.3,0.5
		c-0.4,0.3-0.8,0.7-1.2,1.1c-0.4,0.4-0.7,0.9-1,1.3c-0.3,0.5-0.6,0.9-0.8,1.2c-0.4,0.6-0.8,1.2-1.2,1.7c-0.4,0.6-0.8,1.2-1.2,1.8
		c0,0.1-0.1,0.2-0.2,0.3c-0.1,0.2-0.2,0.2-0.2,0.2c0,0-0.1,0-0.1-0.1c0-0.1,0-0.1,0-0.1c-0.1-0.3-0.1-0.6-0.1-0.9v-1
		c0-0.6,0-1.2,0-1.7c0-0.6,0-1.2,0-1.7c0-0.2,0-0.4,0-0.7c0-0.3-0.1-0.5-0.2-0.8c-0.1-0.3-0.2-0.5-0.4-0.7c-0.2-0.2-0.4-0.3-0.7-0.3
		c-0.4,0-0.8,0.2-1.3,0.6c-0.5,0.4-0.9,0.9-1.4,1.5c-0.4,0.6-0.9,1.1-1.2,1.7c-0.4,0.6-0.7,1-0.9,1.4c0.1-0.6,0.2-1.2,0.4-1.7
		c0.1-0.6,0.3-1.1,0.5-1.7c0.1-0.2,0.2-0.4,0.3-0.7c0.1-0.3,0.2-0.6,0.4-0.9c0.1-0.3,0.2-0.6,0.3-0.9c0.1-0.3,0.1-0.5,0.1-0.7
		c0-0.2-0.1-0.4-0.2-0.5c-0.1-0.1-0.3-0.2-0.5-0.2c-0.4,0-0.9,0.1-1.3,0.3c-0.5,0.2-0.8,0.5-1,0.9c-0.1,0.2-0.3,0.7-0.4,1.3
		c-0.2,0.6-0.4,1.3-0.5,2.1c-0.2,0.8-0.4,1.6-0.5,2.5c-0.1,0.5-0.2,0.9-0.3,1.4c0,0-0.1,0-0.1,0.1c-0.1,0.2-0.2,0.3-0.3,0.5
		c-0.2,0.3-0.4,0.6-0.8,1.1c-0.4,0.5-0.8,0.9-1.2,1.3c-0.4,0.4-0.9,0.8-1.3,1.1c-0.4,0.3-0.8,0.5-1.2,0.5c-0.2,0-0.4-0.1-0.6-0.4
		c-0.1-0.2-0.2-0.5-0.3-0.9c-0.1-0.3-0.1-0.7-0.1-1c0-0.3,0-0.6,0-0.7c0-0.5,0-1.1,0.1-1.7c0.1-0.6,0.2-1.1,0.3-1.7
		c0.1-0.2,0.2-0.5,0.3-0.9c0.1-0.4,0.2-0.6,0.2-0.9c0-0.2-0.1-0.3-0.2-0.4c-0.1-0.1-0.3-0.1-0.5-0.1c-0.3,0-0.5,0.1-0.6,0.3
		s-0.3,0.4-0.4,0.6c-0.1,0.2-0.2,0.5-0.4,0.9c-0.2,0.4-0.4,0.9-0.7,1.3c-0.3,0.5-0.5,1-0.8,1.5c-0.3,0.5-0.6,1-0.9,1.4
		c-0.3,0.4-0.6,0.8-0.9,1c-0.3,0.3-0.5,0.4-0.8,0.4c-0.2,0-0.3-0.1-0.3-0.3c0-0.2-0.1-0.3-0.1-0.5c0-1.1,0.2-2.2,0.7-3.2
		c0.5-1,1.1-1.9,1.9-2.7c0.4-0.5,0.9-0.9,1.4-1.2c0.5-0.3,1-0.7,1.5-1c0.1,0,0.1-0.1,0.2-0.1c0.1,0,0.1-0.1,0.1-0.2
		c0-0.2-0.1-0.4-0.3-0.6c-0.2-0.2-0.4-0.3-0.7-0.3c-0.9,0-1.7,0.3-2.5,0.9c-0.8,0.6-1.5,1.3-2.2,2.2c-0.6,0.9-1.1,1.8-1.5,2.8
		c-0.4,1-0.6,1.9-0.6,2.7c0,0.3,0,0.6,0.1,1c0.1,0.4,0.1,0.7,0.3,1c0.1,0.3,0.3,0.6,0.6,0.8c0.2,0.2,0.5,0.3,0.9,0.3
		c0.4,0,0.8-0.1,1.2-0.5c0.4-0.3,0.8-0.7,1.2-1.1c0.4-0.4,0.7-0.9,1-1.3c0.3-0.5,0.6-0.8,0.8-1.1c0,0.4,0,0.8,0,1.3
		c0,0.5,0.1,1,0.3,1.5c0.2,0.5,0.4,0.9,0.7,1.3c0.3,0.3,0.7,0.5,1.2,0.5c0.5,0,1-0.2,1.6-0.5c0.5-0.3,1-0.7,1.5-1.1
		c0.5-0.4,0.9-0.9,1.3-1.4c0.1-0.2,0.2-0.3,0.3-0.4c0,0.3-0.1,0.6-0.1,0.8c-0.1,0.6-0.1,1.1-0.1,1.4c0,0.2,0.1,0.3,0.2,0.5
		c0.1,0.1,0.2,0.2,0.4,0.2c0.3,0,0.5-0.1,0.7-0.3c0.2-0.2,0.3-0.4,0.4-0.6c0.1-0.2,0.3-0.6,0.6-1.1c0.3-0.5,0.6-1.1,1-1.8
		c0.4-0.7,0.8-1.3,1.2-2c0.4-0.7,0.8-1.3,1.3-1.9c0.4-0.6,0.8-1.1,1.1-1.4c0.3-0.4,0.6-0.6,0.8-0.6c0.2,0,0.2,0.1,0.3,0.2
		c0,0.2,0,0.3,0,0.4v1.1v1.7c0,0.7,0,1.3,0.1,2c0,0.7,0.1,1.3,0.2,1.9c0.1,0.6,0.2,1.1,0.3,1.5c0.1,0.4,0.3,0.6,0.5,0.6
		c0.2,0,0.4,0,0.5-0.1c0.1-0.1,0.2-0.2,0.3-0.4c0.2-0.2,0.4-0.6,0.7-1.2c0.3-0.5,0.6-1.1,1-1.8c0.4-0.7,0.8-1.3,1.2-2.1
		c0.4-0.7,0.8-1.4,1.3-1.9c0.4-0.6,0.8-1.1,1.2-1.4c0.4-0.4,0.7-0.6,0.9-0.6c0.1,0,0.2,0,0.3,0.1c0.1,0.1,0.1,0.2,0.2,0.3
		c0,0.1,0,0.3,0.1,0.4c0,0.1,0,0.3,0,0.3c0,0.9,0,1.8-0.1,2.7c-0.1,0.9-0.1,1.8-0.1,2.7c0,0.4,0,0.8,0,1.2c0,0.5,0.1,0.9,0.3,1.3
		c0.1,0.4,0.3,0.8,0.6,1.1c0.3,0.3,0.7,0.4,1.2,0.4c0.5,0,1.1-0.2,1.7-0.5c0.6-0.3,1.2-0.8,1.8-1.2c0.6-0.5,1.1-1,1.6-1.5
		c0.4-0.4,0.7-0.7,0.9-1.1c0,0.1,0,0.2,0,0.4c0.1,0.6,0.2,1.1,0.4,1.7c0.2,0.5,0.5,1,0.8,1.4c0.3,0.4,0.8,0.6,1.4,0.6
		c0.5,0,1.1-0.2,1.7-0.5c0.6-0.3,1.1-0.8,1.6-1.3c0.5-0.5,1-1,1.5-1.6c0.2-0.3,0.4-0.6,0.6-0.8c0.1,0.3,0.1,0.6,0.2,0.9
		c0.2,0.7,0.4,1.3,0.7,1.9c0.3,0.6,0.6,1,1,1.4c0.4,0.4,0.9,0.5,1.4,0.5c0.6,0,1.2-0.2,1.9-0.6c0.6-0.4,1.2-0.9,1.8-1.4
		c0.6-0.6,1.1-1.2,1.5-1.8c0,0,0,0,0,0c0,0,0,0,0,0.1c0,0.3,0.1,0.5,0.2,0.8c0.1,0.2,0.3,0.4,0.5,0.6c0.2,0.2,0.5,0.2,0.8,0.2
		c0.5,0,1.1-0.2,1.8-0.7c0.7-0.5,1.4-1.1,2.1-1.7c0.7-0.7,1.3-1.3,1.9-2c0.6-0.7,1-1.2,1.2-1.7c0.1,1.6,0.1,3.1,0.1,4.7v0.9
		c0,0.3,0,0.6,0,0.8c-0.8,0.5-1.6,1.1-2.5,1.9c-0.9,0.7-1.8,1.5-2.6,2.4c-0.8,0.9-1.4,1.8-2,2.8c-0.5,1-0.8,2-0.8,3
		c0,0.4,0,0.8,0.1,1.2c0.1,0.4,0.2,0.7,0.4,1c0.2,0.3,0.5,0.5,0.8,0.7c0.3,0.2,0.7,0.3,1.2,0.3c0.5,0,0.9-0.1,1.4-0.3
		c0.4-0.2,0.8-0.4,1.2-0.7c0.4-0.3,0.7-0.6,1.1-1c0.3-0.4,0.6-0.7,0.9-1.1c0.7-1.1,1.3-2.4,1.7-3.7c0.4-1.3,0.7-2.7,0.9-4.1
		c0.2-1.4,0.3-2.8,0.4-4.2c0-1.4,0.1-2.8,0.1-4.1v-0.8C-1287.1,425.8-1287.1,425.5-1287.1,425.1z M-1304.4,423.7v-0.5
		c0-1.4,0.2-2.9,0.5-4.5c0.3-1.6,0.7-3,1.2-4.4c0.1-0.2,0.2-0.6,0.3-1.1c0.1-0.5,0.3-1,0.5-1.4c0.2-0.5,0.5-0.9,0.7-1.2
		c0.3-0.4,0.6-0.5,0.9-0.5c0.1,0,0.2,0,0.3,0.1c0.1,0.1,0.1,0.2,0.1,0.3c0,0.1,0,0.2,0,0.4v0.3c0,1-0.2,2-0.5,3.2
		c-0.3,1.2-0.7,2.3-1.1,3.5c-0.4,1.2-0.9,2.3-1.5,3.4c-0.5,1.1-1.1,2-1.5,2.9C-1304.4,424-1304.4,423.9-1304.4,423.7z
		 M-1289.8,436.3c-0.2,0.8-0.4,1.6-0.6,2.4s-0.5,1.6-0.8,2.4c-0.3,0.8-0.7,1.4-1.1,1.9c-0.1,0.2-0.3,0.4-0.5,0.6
		c-0.2,0.2-0.4,0.4-0.6,0.6c-0.2,0.2-0.4,0.3-0.7,0.4c-0.2,0.1-0.5,0.2-0.7,0.2c-0.2,0-0.4-0.1-0.6-0.2c-0.2-0.1-0.3-0.3-0.4-0.5
		c-0.1-0.2-0.2-0.4-0.2-0.6c0-0.2,0-0.4,0-0.6c0-0.9,0.2-1.7,0.6-2.6c0.4-0.8,1-1.6,1.6-2.4c0.6-0.8,1.3-1.4,2.1-2.1
		c0.7-0.6,1.4-1.2,2.1-1.7C-1289.6,434.7-1289.7,435.5-1289.8,436.3z"/>
</g>
<path id="Fill-7" class="st0" d="M-1359.9,483c1.4,0,2.7-0.2,3.8-0.6c-1.4,1.2-3.4,2-6,2c-6.7,0-9.1-4.1-9.1-7.6v-19.3
	c0-1.6,0.5-3.3,1.8-4.7c-0.3,0.8-0.4,1.6-0.4,2.4v19.4C-1369.9,478.7-1366.8,483-1359.9,483L-1359.9,483z M-1351.1,457.7h-6v-2.5
	c0-1-1-2.8-2.7-2.8c-2.1,0-3,1.8-3,2.8v19.3c0,1,0.9,2.8,3,2.8c1.7,0,2.7-1.8,2.7-2.8v-2.5h6v2.6c0,3.5-2.7,7.5-8.8,7.5
	c-6.7,0-9.1-4.1-9.1-7.5v-19.4c0-3.5,2.4-7.5,9.1-7.5c6,0,8.8,4.1,8.8,7.5V457.7L-1351.1,457.7z M-1353.4,460h-6v-2.5
	c0-1-0.9-2.6-2.5-2.8c0.2-0.6,0.8-1.3,2-1.3c1.2,0,1.8,1.3,1.8,1.9v3.5h6L-1353.4,460L-1353.4,460z M-1359.4,474.2l1.3-1.3v1.7
	c0,0.5-0.4,1.5-1.3,1.8V474.2L-1359.4,474.2z"/>
<path id="Fill-8" class="st0" d="M-1343.8,482.5l-1.3,1.3h-5.6l6.9-33.6l1.1-1.1l-6.9,33.3H-1343.8L-1343.8,482.5z M-1335.9,473.8
	h-5.8l-1.2,7.8h-5.7l6.9-33.6h6l6.9,33.6h-6L-1335.9,473.8L-1335.9,473.8z M-1329.6,482.5l-1.3,1.3h-6l-1.2-7.8h-3l0.2-1.3h4.3
	l1.1,7.8H-1329.6L-1329.6,482.5z M-1336.8,469l-1.8-12h-0.1l-1.9,12H-1336.8L-1336.8,469z M-1338.8,462.4l0.9,5.8h-1.7l0-0.3
	L-1338.8,462.4L-1338.8,462.4z"/>
<path id="Fill-9" class="st0" d="M-1324.6,482.5h4.7v1.4h-6v-33.6h1.3V482.5L-1324.6,482.5z M-1315.8,468.1c-0.9,0-1.6,0-1.9,0v13.5
	h-6V448h10c5.8,0,8.5,4.2,8.5,9.6c0,5-2.2,8.2-5,9.6l6.3,14.4h-6.2L-1315.8,468.1L-1315.8,468.1z M-1315.8,463
	c3.8,0,4.9-0.4,4.9-5.4c0-2.7-0.6-4.8-3-4.8h-3.8V463H-1315.8L-1315.8,463z M-1311.8,457.7c0,2.9-0.3,3.9-1.4,4.3
	c0.1-0.5,0.1-1.2,0.1-2c0-2.7-0.6-4.8-3-4.8h-0.7v-1.4h3C-1312.8,453.7-1311.8,454.2-1311.8,457.7L-1311.8,457.7z M-1306.7,482.6
	l0.6,1.3h-6.2l-4.5-10.6V469h0.4l5.7,13.5H-1306.7L-1306.7,482.6z"/>
<path id="Fill-10" class="st0" d="M-1297.5,466.8c-3.5-3.5-4.5-4.8-4.5-9.4c0-1.9,0.6-3.5,1.7-4.8c-0.2,0.8-0.3,1.6-0.3,2.5
	c0,4.8,1.3,6.6,4.8,10l4.9,5c1.3,1.4,1.8,2.6,1.8,4c0,1.2-0.5,1.9-1.3,2.1c0-1.7-0.7-3-1.9-4.5l-0.4-0.3v-1.4h-1.3L-1297.5,466.8
	L-1297.5,466.8z M-1291,483c1.5,0,2.9-0.2,4.1-0.7c-1.6,1.3-3.9,2-6.3,2c-4.8,0-8.7-2.7-8.7-7.6v-3.5h1.4v1.2
	C-1300.6,479.6-1296.7,483-1291,483L-1291,483z M-1282.1,474.5c0,4.8-4.1,7.5-8.9,7.5c-4.8,0-8.7-2.7-8.7-7.5V471h6v3.2
	c0,2,1.2,3.1,2.7,3.1c1.5,0,2.7-1.2,2.7-3.1c0-1.8-0.6-3.3-1.9-4.6l-5-5c-3.5-3.5-4.5-4.8-4.5-9.4c0-4.6,3.6-7.5,8.7-7.5
	c5.1,0,8.7,3,8.7,7.5v2.3h-6v-1.3c0-2.4-1.2-3.7-2.7-3.7c-1.5,0-2.7,1.2-2.7,2.6c0,1.5,0.4,2.6,1.8,4.2l6,6.9
	C-1283.6,468.7-1282.1,470.6-1282.1,474.5L-1282.1,474.5z M-1290.5,459.5v-1.2c0-2.1-1-3.4-2.3-3.6c0.2-0.8,0.9-1.4,1.8-1.4
	c1.1,0,1.8,1.1,1.8,2.8v2.2h4.7v1.3h-5.9L-1290.5,459.5L-1290.5,459.5z"/>
<path id="Imported-Layers-3" class="st0" d="M-1318.8,513.8l-0.8-1.2h-0.6l0,1c0,0-25.2,0.2-26.3,0.8c-1.1,0.6-4.1,1.3-4.9,3.3
	c-0.8,1.9-1.1,7.1-1.1,7.1s0.3,5.1,1,7.1c0.8,2,3.8,2.7,4.9,3.3c1.1,0.6,26.3,0.8,26.3,0.8l0,0.9h0.8l0.7-1.1c0,0,4-0.2,5.1-0.2
	c1.1-0.1,7.2,0.7,11.3,0.3c4.1-0.4,4.9-6.7,5.6-6.7c0.7-0.1,0.7-4.3,0.7-4.3s0-4.2-0.6-4.3c-0.7-0.1-1.5-6.3-5.5-6.7
	c-4.1-0.4-10.2,0.3-11.3,0.3C-1314.8,514-1318.8,513.8-1318.8,513.8L-1318.8,513.8z M-1337,517.3c-0.4-0.6,0-1.6,0-1.6l17,0
	c0,0-4.1,2-5.6,1.9C-1327.2,517.5-1336.6,517.9-1337,517.3L-1337,517.3z M-1351.1,521.2c0,0,0.3-2.8,0.6-3.6
	c0.3-0.8,2.9-1.7,2.9-1.7s0.1,0.3,0,0.5c-0.1,0.2-1.9,0.9-2.4,1.4c-0.5,0.5-0.5,2.9-0.7,3.3
	C-1350.8,521.6-1351.1,521.2-1351.1,521.2L-1351.1,521.2z M-1340.3,516.7l2.4,2.9l0,11l-2.1,2.4c0,0-5.5-1.5-5.5-8.2
	C-1345.5,518.3-1340.3,516.7-1340.3,516.7L-1340.3,516.7z M-1350.5,532c-0.3-0.8-0.6-3.6-0.6-3.6s0.3-0.4,0.5,0
	c0.2,0.4,0.2,2.8,0.7,3.3c0.5,0.5,2.2,1.2,2.4,1.4c0.1,0.2,0,0.5,0,0.5S-1350.2,532.8-1350.5,532L-1350.5,532z M-1337,534
	c0,0-0.4-1.1,0-1.6c0.4-0.6,9.8-0.2,11.4-0.3c1.5-0.1,5.6,2,5.6,2L-1337,534L-1337,534z M-1299,529.5c-0.7,3.7-2.9,4.3-2.9,4.3
	c-0.4,0.2-0.5,0.1-0.8-0.3c-0.3-0.4,0.4-1.1,1.2-2.7C-1300.6,529.3-1299,529.5-1299,529.5L-1299,529.5z M-1314,525.2
	c0.1,5-2.3,7.8-2.3,7.8c-7.7-1.2-7.1-1.8-7.1-1.8c1.2-4-0.1-12.7,0-13.1c0.1-0.4,7.1-1.4,7.1-1.4S-1314.1,520.2-1314,525.2
	L-1314,525.2z M-1301.8,515.6c0,0,2.1,0.6,2.8,4.3c0,0-1.7,0.2-2.5-1.3c-0.8-1.5-1.4-2.3-1.2-2.7
	C-1302.3,515.5-1302.2,515.4-1301.8,515.6L-1301.8,515.6z"/>
</svg>
