<svg xmlns="http://www.w3.org/2000/svg" version="1.1" x="0" y="0" width="36" height="36" viewBox="0 0 36 36" xml:space="preserve"><style type="text/css">
	.st0{fill:#313133;}
	.st1{fill:#A8DC28;}
</style><title>Favourites</title><desc>Created with Sketch.</desc><g transform="translate(-876.000000, -392.000000)"><g transform="translate(876.000000, 152.000000)"><g transform="translate(0.000000, 240.000000)"><rect class="st0" width="36" height="36"/><path class="st1" d="M23.5 8c2 0.2 4.2 2.1 4.5 5.7v1.2c-0.3 3.5-2.7 7.7-10 13.1 -7.3-5.3-9.7-9.6-10-13.1v-1.2c0.3-3.6 2.5-5.5 4.5-5.7 0.3 0 0.6 0 0.9 0 2.3 0 3.4 1 4.6 2.6C19.2 9 20.3 8 22.6 8 22.9 8 23.2 8 23.5 8z"/></g></g></g></svg>