<svg xmlns:sketch="http://www.bohemiancoding.com/sketch/ns" xmlns="http://www.w3.org/2000/svg" xmlns:xlink="http://www.w3.org/1999/xlink" version="1.1" id="Layer_1" x="0" y="0" width="67" height="67" viewBox="-1384 438.9 67 67" xml:space="preserve" enable-background="new -1384 438.9 67 67">
  <style type="text/css">
    
	.st0{fill:#31C5F2;}
	.st1{fill:#4A4A4A;}
	.st2{fill:#FFFFFF;}

  </style>
  <title>
    Ribbon featured ad
  </title>
  <desc>
    Created with Sketch.
  </desc>
  <g id="Search-results-list" sketch:type="MSPage">
    <g id="Desktop-Search-results-12" transform="translate(-452.000000, -813.000000)" sketch:type="MSArtboardGroup">
      <g id="Ads" transform="translate(452.000000, 784.000000)" sketch:type="MSLayerGroup">
        <g id="Search-results" sketch:type="MSShapeGroup">
          <g id="Ribbon-featured-ad" transform="translate(0.000000, 29.000000)">
            <path id="Rectangle-150" class="st0" d="M-1357.9 439.4h40.3v0.1l-66 66v-40.4L-1357.9 439.4z"/>
            <path id="Rectangle-154" class="st1" d="M-1317.3 439.4v3.6h-3.6L-1317.3 439.4z"/>
            <path id="Rectangle-155" class="st1" d="M-1383.6 505.5h3.6v-3.6L-1383.6 505.5 -1383.6 505.5z"/>
            <g id="stars" transform="translate(17.645400, 19.392620) rotate(-45.000000) translate(-17.645400, -19.392620) translate(-1.147283, 14.898718)">
              <polygon id="Star-1" class="st2" points="-1285.3 -661.6 -1287 -660.5 -1286.7 -662.7 -1288.1 -664.3 -1286.1 -664.6 -1285.3 -666.6 -1284.4 -664.6 -1282.4 -664.3 -1283.8 -662.7 -1283.5 -660.5 "/>
              <polygon id="Star-2" class="st2" points="-1278.1 -661.8 -1280.1 -660.6 -1279.7 -663.1 -1281.3 -664.8 -1279.1 -665.2 -1278.1 -667.4 -1277.1 -665.2 -1274.9 -664.8 -1276.5 -663.1 -1276.1 -660.6 "/>
              <polygon id="Star-4" class="st2" points="-1269.5 -662 -1271.7 -660.7 -1271.2 -663.4 -1273 -665.4 -1270.6 -665.8 -1269.5 -668.3 -1268.4 -665.8 -1265.9 -665.4 -1267.7 -663.4 -1267.2 -660.7 "/>
              <polygon id="Star-3" class="st2" points="-1261.6 -661.8 -1263.6 -660.6 -1263.2 -663.1 -1264.8 -664.8 -1262.6 -665.2 -1261.6 -667.4 -1260.6 -665.2 -1258.3 -664.8 -1260 -663.1 -1259.6 -660.6 "/>
              <polygon id="Star-5" class="st2" points="-1255.2 -661.6 -1256.9 -660.5 -1256.6 -662.7 -1258 -664.3 -1256.1 -664.6 -1255.2 -666.6 -1254.3 -664.6 -1252.3 -664.3 -1253.7 -662.7 -1253.4 -660.5 "/>
            </g>
            <path id="FEATURED" class="st2" d="M-1372.9 485.1l-4.6-4.6c-0.2-0.2-0.2-0.4 0-0.6l2.5-2.5c0.1-0.1 0.3-0.1 0.6 0.1l0.2 0.2c0.2 0.2 0.3 0.4 0.1 0.6l-1.6 1.6 1.1 1.1 1.6-1.6c0.1-0.1 0.3-0.1 0.6 0.1l0.2 0.2c0.2 0.2 0.3 0.4 0.1 0.6l-1.6 1.6 1.9 1.9c0.2 0.2 0.1 0.4-0.2 0.7l-0.2 0.3C-1372.6 485.2-1372.8 485.2-1372.9 485.1L-1372.9 485.1zM-1369.3 481.3l-4.6-4.6c-0.2-0.2-0.2-0.4 0-0.6l2.7-2.7c0.1-0.1 0.3-0.1 0.6 0.1l0.2 0.2c0.2 0.2 0.3 0.4 0.1 0.6l-1.9 1.9 1.1 1.1 1.7-1.7c0.1-0.1 0.3-0.1 0.6 0.1l0.2 0.2c0.2 0.2 0.3 0.4 0.1 0.6l-1.7 1.7 1.2 1.2 1.9-1.9c0.1-0.1 0.3-0.1 0.6 0.1l0.2 0.2c0.2 0.2 0.3 0.4 0.1 0.6l-2.7 2.7C-1368.9 481.5-1369.1 481.5-1369.3 481.3L-1369.3 481.3zM-1365.7 477.9c0 0-0.1-0.1-0.1-0.2l-3.1-6.3c-0.1-0.1 0-0.3 0.3-0.6l0.4-0.4c0.2-0.2 0.4-0.3 0.6-0.3l6.3 3.1c0.1 0 0.1 0.1 0.2 0.1 0.1 0.1 0 0.3-0.2 0.5l-0.3 0.3c-0.2 0.2-0.4 0.3-0.6 0.3l-1.2-0.6 -1.7 1.7 0.6 1.2c0.1 0.1 0 0.3-0.2 0.5l-0.3 0.3C-1365.4 477.9-1365.6 478-1365.7 477.9L-1365.7 477.9zM-1365.8 474.4l1.1-1.1 -1.7-0.9 -0.6-0.4 0 0c0.2 0.3 0.3 0.5 0.4 0.6L-1365.8 474.4zM-1359.8 471.9l-4-4 -1.2 1.2c-0.1 0.1-0.3 0.1-0.6-0.1l-0.2-0.2c-0.2-0.2-0.3-0.4-0.1-0.6l3.5-3.5c0.1-0.1 0.3-0.1 0.6 0.1l0.2 0.2c0.2 0.2 0.3 0.4 0.1 0.6l-1.2 1.2 4 4c0.2 0.2 0.1 0.4-0.2 0.7l-0.3 0.3C-1359.4 472-1359.6 472.1-1359.8 471.9L-1359.8 471.9zM-1358.2 467.3l-3.2-3.2c-0.2-0.2-0.1-0.4 0.2-0.7l0.2-0.3c0.3-0.3 0.5-0.4 0.7-0.2l3.1 3.1c0.3 0.3 0.6 0.4 0.9 0.4 0.4 0 0.7-0.2 1-0.5 0.3-0.3 0.5-0.6 0.5-1 0-0.4-0.1-0.7-0.4-0.9l-3.1-3.1c-0.2-0.2-0.1-0.4 0.2-0.7l0.2-0.2c0.3-0.3 0.5-0.4 0.7-0.2l3.2 3.2c0.6 0.6 0.8 1.2 0.8 1.9 -0.1 0.7-0.4 1.4-1.1 2 -0.7 0.7-1.4 1-2 1.1S-1357.6 467.9-1358.2 467.3L-1358.2 467.3zM-1351.5 463.6l-4.6-4.6c-0.2-0.2-0.2-0.4 0-0.6l1.4-1.4c1.2-1.2 2.3-1.4 3.2-0.4 0.3 0.3 0.4 0.6 0.5 0.9 0 0.4 0 0.7-0.2 1.1l0 0c0.1-0.1 0.3-0.1 0.5 0s0.5 0.1 0.7 0.2l2.3 1c0.1 0 0.1 0.1 0.2 0.1 0.1 0.1 0 0.3-0.3 0.6l-0.3 0.3c-0.2 0.2-0.4 0.3-0.6 0.3l-2-0.9c-0.2-0.1-0.4-0.1-0.6-0.1 -0.2 0-0.4 0.2-0.6 0.4l-0.3 0.3 1.8 1.8c0.2 0.2 0.1 0.4-0.2 0.7l-0.2 0.3C-1351.1 463.7-1351.3 463.7-1351.5 463.6L-1351.5 463.6zM-1353.1 459.7l0.7-0.7c0.2-0.2 0.2-0.3 0.2-0.6 0-0.2-0.1-0.4-0.3-0.6 -0.2-0.2-0.4-0.3-0.6-0.2s-0.4 0.1-0.6 0.3l-0.6 0.6L-1353.1 459.7zM-1347 459l-4.6-4.6c-0.2-0.2-0.2-0.4 0-0.6l2.7-2.7c0.1-0.1 0.3-0.1 0.6 0.1l0.2 0.2c0.2 0.2 0.3 0.4 0.1 0.6l-1.9 1.9 1.1 1.1 1.7-1.7c0.1-0.1 0.3-0.1 0.6 0.1l0.2 0.2c0.2 0.2 0.3 0.4 0.1 0.6l-1.7 1.7 1.2 1.2 1.9-1.9c0.1-0.1 0.3-0.1 0.6 0.1l0.2 0.2c0.2 0.2 0.3 0.4 0.1 0.6l-2.7 2.7C-1346.6 459.2-1346.8 459.2-1347 459L-1347 459zM-1343 455l-4.6-4.6c-0.2-0.2-0.2-0.4 0-0.6l1.6-1.6c0.8-0.8 1.6-1.1 2.4-1.1 0.8 0 1.7 0.5 2.5 1.3 0.8 0.8 1.3 1.7 1.3 2.5 0 0.8-0.3 1.7-1.1 2.4l-1.6 1.6C-1342.6 455.2-1342.8 455.2-1343 455L-1343 455zM-1342.6 453.2l0.8-0.8c0.4-0.4 0.6-0.8 0.5-1.3 -0.1-0.5-0.4-1-0.9-1.5 -0.5-0.5-1-0.8-1.5-0.9 -0.5-0.1-0.9 0.1-1.3 0.5l-0.8 0.8L-1342.6 453.2z"/>
          </g>
        </g>
      </g>
    </g>
  </g>
</svg>
