<svg xmlns:sketch="http://www.bohemiancoding.com/sketch/ns" xmlns="http://www.w3.org/2000/svg" xmlns:xlink="http://www.w3.org/1999/xlink" version="1.1" id="Layer_1" x="0" y="0" width="157" height="158" viewBox="0 0 157 158" xml:space="preserve" enable-background="new 0 0 157 158">
  <style type="text/css">
    
	.st0{fill:#FFFFFF;}
	.st1{fill:none;stroke:#313133;stroke-width:2;stroke-linecap:round;stroke-linejoin:round;stroke-dasharray:1,4;}
	.st2{fill:#313133;}

  </style>
  <title>
    Fish
  </title>
  <desc>
    Created with Sketch.
  </desc>
  <g id="landing-page" sketch:type="MSPage">
    <g id="Desktop---Landing-Page-Animals" transform="translate(-183.000000, -840.000000)" sketch:type="MSArtboardGroup">
      <g id="Pets" transform="translate(-31.000000, 533.000000)" sketch:type="MSLayerGroup">
        <g id="Fish" transform="translate(214.000000, 307.000000)" sketch:type="MSShapeGroup">
          <path id="Fill-1-Copy" class="st0" d="M78.5 0.2C35.2 0.2 0 35.4 0 78.7c0 43.3 35.2 78.5 78.5 78.5 43.3 0 78.5-35.2 78.5-78.5C157 35.4 121.8 0.2 78.5 0.2z"/>
          <path id="Stroke-2" class="st1" d="M142.2 109.6c4.5-9.3 7-19.7 7-30.8 0-39-31.7-70.7-70.7-70.7S7.8 39.8 7.8 78.8c0 30.4 19.3 56.4 46.3 66.4 7.6 2.8 15.8 4.3 24.4 4.3C106.5 149.5 130.7 133.2 142.2 109.6L142.2 109.6z"/>
          <g id="Layer_5_13_" transform="translate(47.000000, 51.000000)">
            <path id="Shape" class="st2" d="M58.9 13.2c0.2-0.4 1.6-2.3 2.8-4.2l0 0c0.3-0.4 0.6-0.8 0.8-1.3 0 0 0 0 0 0 0-0.1 3-4.8-1.2-2.8l0 0c-0.8 0.4-1.8 1-3 1.8 -2.7 1.8-8.3 4.5-8.3 4.5s-1 0.5-1.6 0.1c-3.2-2-7.9-5.6-14.1-7.5 -0.1 0-0.2-0.1-0.1-0.3l2.6-1.9c0 0 0.2-0.2-0.1-0.3C35.6 1 30.1-0.8 25.3 0.8c-0.9 0.3-1.8 0.6-2.4 0.8 -0.3 0.1-0.6 0.2-1.1 0.3C8.9 2.4 0.2 11.8 0.2 15.5c0 2.5 1.4 4.2 6.3 6.5 0.1 0 0.8 0.5 2.5 0 0.5-0.1 3.6-1.3 3.7-1.4 0.1-0.1 0.2-0.1 0.2-0.1 0.1 0 0.1 0.2 0.1 0.2 0 0.9-1.7 1.6-2.6 2.4 -0.2 0.1-0.2 0.5 0.1 0.6 0 0 3.4 1.8 8.7 2.3 0.4 0 6 3.6 11.7 2.7 3-0.5 4.4-0.7 5.1-0.9 0.6-0.1 0.3-0.3 0.3-0.3l-2.8-2.2c-0.2-0.2 0-0.4 0.1-0.4 6.3-1.8 11.3-4.6 14.2-7 0.4-0.3 1.4 0.5 2.2 0.8 2.5 1.2 12.7 5.4 13.5 4.5 0.1-0.1 0.1-0.2 0-0.3C62.1 20 56.9 17.4 58.9 13.2L58.9 13.2zM10.6 12.9c-0.9 0-1.7-0.7-1.7-1.7 0-0.9 0.7-1.7 1.7-1.7s1.7 0.7 1.7 1.7C12.3 12.2 11.5 12.9 10.6 12.9L10.6 12.9zM18 22.4c-0.1 0.1-0.2 0.2-0.1 0 0 0 2.6-3.8 2.9-8.8 0.2-3.7-2.3-8.3-2.3-8.3s0-0.1 0.1 0C19.5 6.4 28.2 13.2 18 22.4L18 22.4z"/>
          </g>
          <path id="Fish-_x26_-Aquatics" class="st2" d="M30.5 114h3.8v-1.2l-1.2 0V110h3.4v-1.4h-3.4v-2.5h2.4c0.4 0 0.4 0.2 0.4 0.4v0.6l1.4-0.1v-2.3h-6.8v1.2l0.8 0v6.5c0 0.3-0.2 0.4-0.4 0.4l-0.5 0V114zM40.6 107h-2.5v1.2l0.5 0c0.3 0 0.3 0.1 0.3 0.4v3.9c0 0.3-0.2 0.4-0.4 0.4l-0.5 0v1.1h3.3v-1.1l-0.8 0V107zM38.5 105c0 0.6 0.4 1 1.1 1 0.6 0 1.1-0.4 1.1-1s-0.4-1.1-1.1-1.1C39 104 38.5 104.4 38.5 105L38.5 105zM45.9 108c0.3 0.1 0.3 0.2 0.3 0.5v0.6l1.3-0.1v-1.7c-0.5-0.3-1.4-0.6-2.3-0.6 -1.5 0-2.7 0.8-2.7 2.2 0 1.6 1.1 1.9 2.2 2.2 0.8 0.2 1.4 0.3 1.4 1 0 0.6-0.4 0.9-1.1 0.9 -0.3 0-0.7 0-0.9-0.1 -0.3-0.1-0.3-0.2-0.3-0.5v-0.7l-1.3 0.1v1.9c0.6 0.3 1.7 0.4 2.6 0.4 1.5 0 2.7-0.8 2.7-2.2 0-1.5-1.2-1.9-2.3-2.2 -0.7-0.2-1.3-0.4-1.3-1 0-0.6 0.4-0.8 1-0.8C45.4 107.9 45.6 107.9 45.9 108L45.9 108zM49.4 112.4c0 0.3-0.1 0.4-0.4 0.5l-0.5 0v1.1h3.3v-1.1l-0.8 0v-3.4c0-0.7 0.5-1.4 1.5-1.4 0.9 0 1.1 0.7 1.1 1.5v2.9c0 0.3-0.1 0.4-0.4 0.5l-0.5 0v1.1h3.3v-1.1l-0.8 0v-3.7c0-1.7-0.8-2.4-2.2-2.4 -0.9 0-1.6 0.4-2 1V104h-2.5v1.2l0.5 0c0.3 0 0.3 0.1 0.3 0.4V112.4zM65.9 110.9c-1.4-1.2-3-2.8-3-4 0-0.7 0.4-1.1 1.1-1.1 0.3 0 0.5 0 0.7 0.1 0.3 0.1 0.3 0.2 0.3 0.5v0.9l1.4-0.1v-2.1c-0.8-0.4-1.6-0.6-2.5-0.6 -1.7 0-2.7 1-2.7 2.4 0 0.5 0.1 1 0.4 1.5 -1 0.6-1.7 1.5-1.7 2.9 0 1.4 0.9 2.8 3.3 2.8 1.2 0 2.2-0.4 2.9-1 0.7 0.5 1.3 1 1.8 1.3l0.9-1.2c-0.3-0.3-1.1-0.8-1.8-1.3 0.4-0.8 0.6-1.6 0.6-2.5l0.8 0v-1.1h-3v1.1l0.4 0c0.2 0 0.3 0.1 0.3 0.2C66.2 110.1 66.1 110.5 65.9 110.9L65.9 110.9zM65 112.2c-0.4 0.4-0.9 0.7-1.7 0.7 -1.1 0-1.7-0.7-1.7-1.6 0-0.7 0.3-1.3 0.9-1.6C63.1 110.5 64 111.4 65 112.2L65 112.2zM73 112.4c-0.1 0.3-0.2 0.4-0.4 0.4l-0.5 0v1.1h3.2v-1.2l-0.8 0 0.4-1.2h3.3l0.3 0.9c0.1 0.3 0 0.4-0.3 0.4l-0.5 0v1.1h3.6v-1.2l-0.8 0h0l-2.9-8.1h-3.2v1.1l0.9 0.1L73 112.4zM76.6 106.3L76.6 106.3l1.3 4h-2.6L76.6 106.3zM86.5 115.3c0 0.3-0.2 0.4-0.4 0.5l-0.8 0v1.1h3.7v-1.1l-0.8 0v-8.5c-0.8-0.3-1.9-0.5-2.6-0.5 -2.1 0-3.6 1.2-3.6 4 0 1.6 0.7 3.4 2.7 3.4 0.7 0 1.4-0.2 1.9-0.8V115.3zM86.4 111.7c0 0.8-0.6 1.2-1.4 1.2 -1.3 0-1.5-1.4-1.5-2.4 0-1.5 0.6-2.6 1.7-2.6 0.4 0 0.8 0.1 1.1 0.2V111.7zM96.6 112.9l-0.5 0c-0.3 0-0.3-0.1-0.3-0.4V107h-2.5v1.1l0.4 0c0.3 0 0.3 0.1 0.3 0.4v3c0 0.7-0.5 1.4-1.5 1.4 -0.9 0-1-0.6-1-1.5V107h-2.5v1.1l0.4 0c0.2 0 0.3 0.1 0.3 0.4v3.2c0 1.7 0.8 2.4 2.2 2.4 0.9 0 1.8-0.4 2.3-1.1v0.9h2.3V112.9zM103.8 107.2c-1-0.4-2-0.5-2.5-0.5 -2.5 0-3.7 1.6-3.7 4 0 2 0.8 3.4 2.8 3.4 0.8 0 1.5-0.4 1.9-1l0 0v0.8h2.2v-1.1l-0.4 0c-0.3 0-0.4-0.1-0.4-0.4V107.2zM102.2 111.8c0 0.6-0.5 1.2-1.4 1.2 -1.2 0-1.5-1.1-1.5-2.3 0-1.5 0.4-2.8 1.8-2.8 0.4 0 0.9 0.1 1.1 0.2V111.8zM106.7 105.5c-0.3 0.8-0.6 1.6-1.6 1.6l-0.1 1h1v3.7c0 1 0 2.3 2.2 2.3 0.7 0 1.4-0.2 1.8-0.5l-0.4-1.1c-0.2 0.1-0.6 0.3-1 0.3 -0.6 0-0.9-0.3-0.9-1.1v-3.7h1.7l0.1-1.2h-1.9v-1.5H106.7zM113 107h-2.5v1.2l0.5 0c0.3 0 0.4 0.1 0.4 0.4v3.9c0 0.3-0.2 0.4-0.4 0.4l-0.5 0v1.1h3.3v-1.1l-0.8 0V107zM110.9 105c0 0.6 0.4 1 1.1 1 0.6 0 1.1-0.4 1.1-1s-0.4-1.1-1.1-1.1C111.3 104 110.9 104.4 110.9 105L110.9 105zM118.1 112.9c-1.2 0-1.8-1-1.8-2.5 0-1.6 0.6-2.4 1.7-2.4 0.2 0 0.4 0 0.5 0.1 0.3 0.1 0.3 0.2 0.3 0.5v0.7l1.3-0.1v-1.8c-0.7-0.4-1.3-0.6-2.2-0.6 -1.6 0-3.3 1-3.3 3.8 0 2.3 1.2 3.6 3.3 3.6 1 0 1.9-0.4 2.4-0.8l-0.6-1.1C119.1 112.7 118.6 112.9 118.1 112.9L118.1 112.9zM124.8 108c0.3 0.1 0.3 0.2 0.3 0.5v0.6l1.3-0.1v-1.7c-0.5-0.3-1.4-0.6-2.3-0.6 -1.5 0-2.7 0.8-2.7 2.2 0 1.6 1.1 1.9 2.2 2.2 0.8 0.2 1.4 0.3 1.4 1 0 0.6-0.4 0.9-1.1 0.9 -0.3 0-0.7 0-0.9-0.1 -0.3-0.1-0.3-0.2-0.3-0.5v-0.7l-1.3 0.1v1.9c0.6 0.3 1.7 0.4 2.6 0.4 1.5 0 2.7-0.8 2.7-2.2 0-1.5-1.2-1.9-2.3-2.2 -0.7-0.2-1.3-0.4-1.3-1 0-0.6 0.4-0.8 1.1-0.8C124.4 107.9 124.6 107.9 124.8 108L124.8 108z"/>
        </g>
      </g>
    </g>
  </g>
</svg>
