<?xml version="1.0" encoding="UTF-8" standalone="no"?>
<svg width="61px" height="61px" viewBox="0 0 61 61" version="1.1" xmlns="http://www.w3.org/2000/svg" xmlns:xlink="http://www.w3.org/1999/xlink" xmlns:sketch="http://www.bohemiancoding.com/sketch/ns">
    <!-- Generator: Sketch 3.3.2 (12043) - http://www.bohemiancoding.com/sketch -->
    <title>for sale-mobile-hover</title>
    <desc>Created with Sketch.</desc>
    <defs>
        <path id="path-1" d="M60.8823529,30.2848869 C60.8823529,13.7429687 47.4241419,0.285121128 30.8823529,0.285121128 C14.3405639,0.285121128 0.882352941,13.7429687 0.882352941,30.2848869 C0.882352941,46.8272735 14.3405639,60.2851211 30.8823529,60.2851211 C47.4241419,60.2851211 60.8823529,46.8272735 60.8823529,30.2848869 Z"></path>
    </defs>
    <g id="Homepage" stroke="none" stroke-width="1" fill="none" fill-rule="evenodd" sketch:type="MSPage">
        <g id="Home-Mobile-portrait" sketch:type="MSArtboardGroup" transform="translate(-10.000000, -419.000000)">
            <g id="Hero" sketch:type="MSLayerGroup" transform="translate(-320.000000, -182.000000)">
                <g id="What-will-you-discover?-Copy" transform="translate(320.000000, 580.000000)">
                    <g id="categories" transform="translate(9.000000, 21.000000)">
                        <g id="for-sale-mobile" transform="translate(0.553728, 0.000000)">
                            <g id="for-sale-mobile-hover">
                                <mask id="mask-2" sketch:name="Mask" fill="white">
                                    <use xlink:href="#path-1"></use>
                                </mask>
                                <use id="Mask" fill="#A8DC28" sketch:type="MSShapeGroup" xlink:href="#path-1"></use>
                                <path d="M54.7413676,41.8127754 C56.4331008,38.3255231 57.3823529,34.4139768 57.3823529,30.2849095 C57.3823529,15.6727422 45.4944036,3.78512113 30.8823529,3.78512113 C16.2703023,3.78512113 4.38235294,15.6727422 4.38235294,30.2849095 C4.38235294,41.6862914 11.6199209,51.4291848 21.7418786,55.160377 C24.5923607,56.2111319 27.6715931,56.7851211 30.8823529,56.7851211 C41.3653693,56.7851211 50.4463035,50.6664009 54.7413676,41.8127754 Z" id="Stroke-6" stroke="#313133" stroke-width="2" stroke-linecap="round" stroke-linejoin="round" stroke-dasharray="1,4" sketch:type="MSShapeGroup"></path>
                                <g id="sofa-2" transform="translate(18.922608, 20.946467)" fill="#313133" sketch:type="MSShapeGroup">
                                    <g id="Fill-1-+-Fill-2" transform="translate(0.000000, 5.778453)">
                                        <path d="M2.4013179,0.0851575422 C1.10818379,0.0851575422 0.0598368647,1.14239984 0.0598368647,2.44675321 C0.0598368647,3.22025174 0.431129038,3.90504045 1.00014853,4.33569788 L1.00014853,10.2869139 C1.00014853,11.3297328 1.83773813,12.1750927 2.87103096,12.1750927 C3.90407079,12.1750927 4.7419134,11.3297328 4.7419134,10.2869139 L4.7419134,2.44675321 C4.7419134,1.14239984 3.69356647,0.0851575422 2.4013179,0.0851575422" id="Fill-1"></path>
                                        <path d="M20.8015367,0.0851575422 C19.5084026,0.0851575422 18.4600557,1.14239984 18.4600557,2.44675321 C18.4600557,3.22025174 18.8313478,3.90504045 19.4003673,4.33569788 L19.4003673,10.2869139 C19.4003673,11.3297328 20.2379569,12.1750927 21.2712498,12.1750927 C22.3042896,12.1750927 23.1421322,11.3297328 23.1421322,10.2869139 L23.1421322,2.44675321 C23.1421322,1.14239984 22.0937853,0.0851575422 20.8015367,0.0851575422" id="Fill-2" transform="translate(20.801094, 6.130125) scale(-1, 1) translate(-20.801094, -6.130125) "></path>
                                    </g>
                                    <path d="M4.92526576,0.108331183 C3.75547403,0.108331183 2.80681304,1.0655037 2.80681304,2.24579098 L2.80681304,5.01098439 C4.286036,5.38331034 5.38258133,6.7281256 5.38321385,8.33549638 L5.38321385,10.028386 L17.8834259,10.028386 L17.8834259,8.33549638 C17.8838054,6.7281256 18.9807302,5.38331034 20.4594472,5.01098439 L20.4594472,2.24579098 C20.4594472,1.0655037 19.5109127,0.108331183 18.3409944,0.108331183 L4.92526576,0.108331183 Z M5.38321385,16.0245313 L17.8832993,16.0245313 L17.8832993,10.5625595 L5.38321385,10.5625595 L5.38321385,16.0245313 Z" id="Fill-3"></path>
                                </g>
                            </g>
                        </g>
                    </g>
                </g>
            </g>
        </g>
    </g>
</svg>