<?xml version="1.0" encoding="utf-8"?>
<!-- Generator: Adobe Illustrator 20.1.0, SVG Export Plug-In . SVG Version: 6.00 Build 0)  -->
<svg version="1.1" id="Layer_1" xmlns="http://www.w3.org/2000/svg" xmlns:xlink="http://www.w3.org/1999/xlink" x="0px" y="0px"
	 width="43px" height="43px" viewBox="0 0 43 43" style="enable-background:new 0 0 43 43;" xml:space="preserve">
<style type="text/css">
	.st0{fill:none;stroke:#313133;stroke-width:2;stroke-linecap:round;stroke-linejoin:round;stroke-dasharray:1,3;}
	.st1{fill:#313133;}
</style>
<title>For sale icon</title>
<desc>Created with Sketch.</desc>
<g id="Page-1">
	<g id="Dashboard---Credits" transform="translate(-453.000000, -524.000000)">
		<g id="For-sale" transform="translate(454.000000, 518.000000)">
			<g id="For-sale-icon" transform="translate(0.000000, 7.000000)">
				<path id="Stroke-7" class="st0" d="M41,20.5C41,9.2,31.8,0,20.5,0S0,9.2,0,20.5c0,8.8,5.6,16.4,13.4,19.2
					c2.2,0.8,4.6,1.3,7.1,1.3c8.1,0,15.1-4.7,18.5-11.6C40.3,26.7,41,23.7,41,20.5z"/>
				<g id="Group-2" transform="translate(9.000000, 12.000000)">
					<path id="Fill-9" class="st1" d="M2.8,5.6c-1.2,0-2.3,1-2.3,2.3c0,0.7,0.4,1.4,0.9,1.8v5.8c0,1,0.8,1.8,1.8,1.8
						c1,0,1.8-0.8,1.8-1.8V7.9C5,6.7,4,5.6,2.8,5.6"/>
					<path id="Fill-11" class="st1" d="M20.5,5.6c1.2,0,2.3,1,2.3,2.3c0,0.7-0.4,1.4-0.9,1.8v5.8c0,1-0.8,1.8-1.8,1.8
						c-1,0-1.8-0.8-1.8-1.8V7.9C18.3,6.7,19.3,5.6,20.5,5.6"/>
					<path id="Fill-13" class="st1" d="M5.6,15.5h12.1v-5.3H5.6V15.5z M5.2,0.1c-1.1,0-2,0.9-2,2.1v2.7C4.6,5.2,5.6,6.5,5.6,8v1.6
						h12.1V8c0-1.6,1.1-2.9,2.5-3.2V2.1c0-1.1-0.9-2.1-2-2.1H5.2z"/>
				</g>
			</g>
		</g>
	</g>
</g>
</svg>
