<svg xmlns="http://www.w3.org/2000/svg" version="1.1" x="0" y="0" width="56" height="56" viewBox="-269 392.9 56 56" xml:space="preserve"><style type="text/css">
	.st0{fill:none;stroke:#FFFFFF;stroke-width:2;stroke-linecap:round;stroke-linejoin:round;stroke-dasharray:1,4;}
	.st1{fill:#FFFFFF;}
	.st2{fill:#EFEFEF;}
</style><title>for sale active 2</title><desc>Created with Sketch.</desc><g transform="translate(-356.000000, -187.000000)"><g transform="translate(-616.000000, -555.000000)"><g transform="translate(736.000000, 743.000000)"><g transform="translate(134.000000, 0.000000)"><g transform="translate(103.000000, 0.000000)"><path class="st0" d="M-217.9 431.5c1.7-3.5 2.6-7.4 2.6-11.5 0-14.6-11.9-26.5-26.5-26.5 -14.6 0-26.5 11.9-26.5 26.5 0 11.4 7.2 21.1 17.4 24.9 2.9 1.1 5.9 1.6 9.1 1.6C-231.3 446.5-222.2 440.3-217.9 431.5z"/><g transform="translate(12.721704, 16.547491)"><g transform="translate(0.000000, 6.851660)"><path class="st1" d="M-266 393c-1.6 0-2.9 1.3-2.9 2.9 0 0.9 0.5 1.8 1.2 2.3v7.2c0 1.3 1 2.3 2.3 2.3 1.3 0 2.3-1 2.3-2.3v-9.5C-263.1 394.3-264.4 393-266 393M-243.3 393c1.6 0 2.9 1.3 2.9 2.9 0 0.9-0.5 1.8-1.2 2.3v7.2c0 1.3-1 2.3-2.3 2.3 -1.3 0-2.3-1-2.3-2.3v-9.5C-246.2 394.3-244.9 393-243.3 393"/></g><path class="st2" d="M-262.9 392.9c-1.4 0-2.6 1.2-2.6 2.6v3.3c1.8 0.4 3.2 2.1 3.2 4v2h15.4v-2c0-1.9 1.4-3.6 3.2-4v-3.3c0-1.4-1.2-2.6-2.6-2.6H-262.9zM-262.4 412.1h15.4v-6.6h-15.4V412.1z"/></g></g></g></g></g></g></svg>