<svg xmlns:sketch="http://www.bohemiancoding.com/sketch/ns" xmlns="http://www.w3.org/2000/svg" xmlns:xlink="http://www.w3.org/1999/xlink" version="1.1" id="Layer_1" x="0" y="0" width="120" height="36" viewBox="-237 402.9 120 36" xml:space="preserve" enable-background="new -237 402.9 120 36">
  <style type="text/css">
    
	.st0{fill:#4A4A4A;}
	.st1{fill:#231F1F;}
	.st2{fill:#808080;}
	.st3{fill:#FFDD14;}

  </style>
  <title>
    Shape Copy + Imported Layers
  </title>
  <desc>
    Created with Sketch.
  </desc>
  <g id="Search-results-list" sketch:type="MSPage">
    <g id="link-to-afiliate-sites" transform="translate(-687.000000, -1062.000000)" sketch:type="MSArtboardGroup">
      <g id="_x31_" transform="translate(24.000000, 33.000000)" sketch:type="MSLayerGroup">
        <g id="Posted-ad--Motors-2-Copy-2" transform="translate(0.000000, 905.000000)" sketch:type="MSShapeGroup">
          <g id="Shape-Copy-_x2B_-Imported-Layers" transform="translate(663.000000, 123.000000)">
            <path id="Shape-Copy" class="st0" d="M-121.3 408.1l-7.3-4.1c-0.2-0.1-0.3-0.1-0.5 0 -0.2 0.1-0.3 0.2-0.3 0.4l0 1.9c0 0 0 0 0 0 -0.2 0-0.4 0.1-0.6 0.2 -0.8 0.2-1.5 0.5-2.4 0.9 -0.8 0.3-1.6 0.8-2.3 1.3 -0.5 0.4-1 0.8-1.5 1.3 -1.2 1.3-1.9 3-1.8 4.7 0 0.3 0 0.6 0.1 0.8 0 0.2 0.2 0.4 0.5 0.4 0 0 0 0 0 0 0.2 0 0.5-0.2 0.5-0.4 0.1-0.7 0.4-1.4 0.7-1.9 0.4-0.6 0.9-1.2 1.5-1.6 0.5-0.3 1.1-0.6 1.7-0.8 0.7-0.2 1.5-0.4 2.4-0.4 0.4 0 0.8 0 1.2 0 0 0 0 0 0.1 0l0 1.8c0 0.2 0.1 0.3 0.2 0.4 0.2 0.1 0.3 0.1 0.5 0l7.3-4.1c0.2-0.1 0.3-0.2 0.3-0.4C-121.1 408.3-121.2 408.2-121.3 408.1L-121.3 408.1z"/>
            <g id="Imported-Layers" transform="translate(0.000000, 15.000000)">
              <path id="Fill-1" class="st1" d="M-208.6 414.9V403h5v1.7h-2.6v3.2h1.8v1.7h-1.8v5.3H-208.6"/>
              <path id="Fill-2" class="st1" d="M-203.3 412.7V409c0-0.9 0.2-1.6 0.7-2.1 0.4-0.5 1.1-0.8 2-0.8 0.9 0 1.6 0.3 2 0.8 0.4 0.5 0.7 1.2 0.7 2.1v3.7c0 0.7-0.3 1.3-0.8 1.8 -0.5 0.5-1.2 0.7-1.9 0.7 -0.5 0-0.9-0.1-1.3-0.3 -0.4-0.2-0.7-0.5-1-0.9C-203.2 413.6-203.3 413.2-203.3 412.7L-203.3 412.7zM-200.1 412.7v-4.3c0-0.4-0.2-0.7-0.5-0.7 -0.3 0-0.5 0.2-0.5 0.7v4.3c0 0.1 0 0.2 0 0.2 0 0.1 0 0.1 0 0.2 0 0.1 0.1 0.2 0.1 0.2 0.1 0 0.2 0.1 0.3 0.1C-200.3 413.4-200.1 413.2-200.1 412.7L-200.1 412.7z"/>
              <path id="Fill-3" class="st1" d="M-196.8 414.9v-8.6h2.2v0.7c0.3-0.6 0.7-0.8 1.2-0.8 0.1 0 0.3 0 0.6 0.1v1.9c-0.4 0-0.7-0.1-0.9-0.1 -0.3 0-0.5 0.1-0.7 0.3 -0.2 0.2-0.2 0.5-0.2 0.8v5.8H-196.8"/>
              <path id="Fill-4" class="st1" d="M-192 414.9V403h2.2v6.3l1.4-3h2.4l-2.1 3.6 2.1 5h-2.3l-1.1-3.8 -0.3 0.5v3.3H-192"/>
              <path id="Fill-5" class="st1" d="M-185.5 403h2.2v11.9h-2.2V403z"/>
              <path id="Fill-6" class="st1" d="M-182.1 403.5h2.2v2.1h-2.2V403.5zM-182.1 406.3h2.2v8.6h-2.2V406.3z"/>
              <path id="Fill-7" class="st1" d="M-178.3 414.9v-7.1h-0.5v-1.5h0.5v0c0-0.3 0-0.5 0-0.7 0-0.2 0-0.4 0.1-0.6 0-0.2 0.1-0.4 0.2-0.6 0.1-0.2 0.2-0.3 0.3-0.5 0.1-0.1 0.3-0.2 0.5-0.3 0.2-0.1 0.5-0.1 0.7-0.1 0.2 0 0.4 0 0.6 0 0.2 0 0.4 0 0.6 0l0.2 0v1.7c-0.3 0-0.5 0-0.6 0 -0.2 0-0.3 0.1-0.4 0.2 -0.1 0.1-0.1 0.3-0.1 0.6v0.4h1.1v1.5h-1.1v7.1H-178.3"/>
              <path id="Fill-8" class="st1" d="M-174.2 412v-4.2h-0.6v-1.5h0.6v-2.8h2.2v2.8h1.1v1.5h-1.1v4.7c0 0.2 0 0.4 0.1 0.5 0.1 0.1 0.2 0.2 0.5 0.2 0.3 0 0.5 0 0.6 0v1.7c-0.3 0.1-0.8 0.1-1.4 0.1 -0.3 0-0.5 0-0.7-0.1 -0.2-0.1-0.4-0.1-0.5-0.2 -0.1-0.1-0.3-0.2-0.4-0.4 -0.1-0.2-0.2-0.3-0.2-0.5 -0.1-0.2-0.1-0.4-0.1-0.6 0-0.2-0.1-0.4-0.1-0.6C-174.1 412.4-174.2 412.2-174.2 412"/>
              <path id="Fill-9" class="st1" d="M-169.7 412v-4.2h-0.6v-1.5h0.6v-2.8h2.2v2.8h1.1v1.5h-1.1v4.7c0 0.2 0 0.4 0.1 0.5 0.1 0.1 0.2 0.2 0.5 0.2 0.3 0 0.5 0 0.6 0v1.7c-0.3 0.1-0.8 0.1-1.4 0.1 -0.3 0-0.5 0-0.7-0.1 -0.2-0.1-0.4-0.1-0.5-0.2 -0.1-0.1-0.3-0.2-0.4-0.4 -0.1-0.2-0.2-0.3-0.2-0.5 -0.1-0.2-0.1-0.4-0.1-0.6 0-0.2-0.1-0.4-0.1-0.6C-169.7 412.4-169.7 412.2-169.7 412"/>
              <path id="Fill-10" class="st1" d="M-165.5 414.9v-8.6h2.2v0.7c0.3-0.6 0.7-0.8 1.2-0.8 0.1 0 0.3 0 0.6 0.1v1.9c-0.4 0-0.7-0.1-0.9-0.1 -0.3 0-0.5 0.1-0.7 0.3 -0.2 0.2-0.2 0.5-0.2 0.8v5.8H-165.5"/>
              <path id="Fill-11" class="st1" d="M-160.8 413.3v-6.9h2.2v6.4c0 0.5 0.1 0.7 0.3 0.7 0.2 0 0.4-0.2 0.7-0.5v-6.6h2.2v8.6h-2.2v-0.7c-0.2 0.3-0.5 0.5-0.8 0.7 -0.3 0.2-0.6 0.3-0.9 0.3 -0.5 0-0.8-0.2-1.1-0.6C-160.7 414.2-160.8 413.7-160.8 413.3"/>
              <path id="Fill-12" class="st1" d="M-154.2 409c0-0.9 0.2-1.6 0.7-2.1 0.4-0.5 1.1-0.8 2-0.8 0.9 0 1.6 0.3 2 0.8 0.4 0.5 0.7 1.2 0.7 2.1v0.8c0 0-2 0.1-2.2 0 -0.2-0.1 0-1 0-1 0-0.3 0-0.6-0.1-0.8 -0.1-0.2-0.2-0.2-0.4-0.2 -0.3 0-0.4 0.2-0.4 0.7v4.3c0 0.5 0.1 0.7 0.4 0.7 0.1 0 0.2 0 0.3-0.1 0.1 0 0.1-0.1 0.1-0.2 0-0.1 0-0.2 0.1-0.3 0-0.1 0-0.3 0-0.5v-0.9h2.2v1.3c0 0.5-0.1 0.9-0.4 1.3 -0.2 0.4-0.6 0.7-1 0.8 -0.4 0.2-0.8 0.3-1.3 0.3 -0.7 0-1.3-0.2-1.9-0.7 -0.5-0.4-0.8-1-0.8-1.7V409z"/>
              <path id="Fill-13" class="st1" d="M-148 414.9V403h2.2v6.3l1.4-3h2.4l-2.1 3.6 2.1 5h-2.3l-1.1-3.8 -0.3 0.5v3.3H-148"/>
              <path id="Fill-14" class="st1" d="M-141.5 414.9v-8.6h2.2v0.6c0.2-0.2 0.5-0.4 0.7-0.6 0.3-0.1 0.6-0.2 0.9-0.2 0.3 0 0.6 0.1 0.8 0.3 0.2 0.2 0.4 0.4 0.5 0.7 0.2-0.3 0.5-0.5 0.8-0.7 0.3-0.2 0.6-0.3 1-0.3 0.3 0 0.6 0.1 0.8 0.3 0.2 0.2 0.4 0.4 0.5 0.7 0.1 0.3 0.2 0.6 0.2 0.9v6.9h-2.2v-6.5c0-0.1 0-0.1 0-0.2 0-0.1 0-0.1 0-0.2 0-0.1-0.1-0.1-0.1-0.2 0 0-0.1-0.1-0.2-0.1 -0.2 0-0.4 0.2-0.6 0.5v6.6h-2.2v-6.5c0-0.4-0.1-0.6-0.3-0.6 -0.2 0-0.4 0.2-0.6 0.5v6.6H-141.5"/>
              <path id="Fill-15" class="st1" d="M-128.3 414.9l-0.2-0.9c-0.1 0.4-0.3 0.7-0.6 0.8 -0.3 0.2-0.7 0.2-1.1 0.2 -0.3 0-0.6-0.1-0.8-0.2 -0.2-0.1-0.4-0.3-0.6-0.5 -0.1-0.2-0.2-0.4-0.3-0.7 -0.1-0.2-0.1-0.5-0.1-0.8 0-0.3 0-0.6 0.1-0.8 0.1-0.3 0.1-0.5 0.2-0.7 0.1-0.2 0.2-0.4 0.4-0.6 0.2-0.2 0.3-0.3 0.5-0.5 0.2-0.1 0.4-0.3 0.6-0.4 0.3-0.1 0.5-0.2 0.7-0.3 0.2-0.1 0.4-0.2 0.7-0.3v-0.7c0-0.3 0-0.5-0.1-0.7 -0.1-0.1-0.2-0.2-0.4-0.2 -0.1 0-0.2 0-0.3 0.1 -0.1 0.1-0.1 0.1-0.2 0.2 0 0.1-0.1 0.2-0.1 0.3 0 0.1 0 0.2 0 0.3v0.5h-2.2c0-1 0.2-1.8 0.7-2.3 0.5-0.5 1.2-0.8 2.2-0.8 0.7 0 1.2 0.2 1.7 0.7 0.5 0.5 0.7 1 0.7 1.7v4.1c0 0.7 0.1 1.5 0.3 2.3H-128.3L-128.3 414.9zM-128.8 413v-2.1c-0.7 0.6-1.1 1.2-1.1 1.9 0 0.2 0 0.3 0.1 0.5 0.1 0.1 0.2 0.2 0.3 0.2 0.1 0 0.2 0 0.3-0.1 0.1-0.1 0.2-0.1 0.2-0.2C-128.9 413.2-128.9 413.1-128.8 413L-128.8 413z"/>
              <path id="Fill-16" class="st1" d="M-125.4 414.9v-8.6h2.2v0.7c0.3-0.6 0.7-0.8 1.2-0.8 0.1 0 0.3 0 0.6 0.1v1.9c-0.4 0-0.7-0.1-0.9-0.1 -0.3 0-0.5 0.1-0.7 0.3 -0.2 0.2-0.2 0.5-0.2 0.8v5.8H-125.4"/>
              <path id="Fill-17" class="st1" d="M-120.5 412v-4.2h-0.6v-1.5h0.6v-2.8h2.2v2.8h1.1v1.5h-1.1v4.7c0 0.2 0 0.4 0.1 0.5 0.1 0.1 0.2 0.2 0.5 0.2 0.3 0 0.5 0 0.6 0v1.7c-0.3 0.1-0.8 0.1-1.4 0.1 -0.3 0-0.5 0-0.7-0.1 -0.2-0.1-0.4-0.1-0.5-0.2 -0.1-0.1-0.3-0.2-0.4-0.4 -0.1-0.2-0.2-0.3-0.2-0.5 -0.1-0.2-0.1-0.4-0.1-0.6 0-0.2-0.1-0.4-0.1-0.6C-120.5 412.4-120.5 412.2-120.5 412"/>
              <path id="Fill-18" class="st2" d="M-208.7 422.8h1.3v1.3h-1.3V422.8z"/>
              <path id="Fill-19" class="st2" d="M-206.7 422.8v-2.2c0-0.5 0.1-1 0.4-1.3 0.3-0.3 0.7-0.5 1.2-0.5 0.5 0 0.9 0.2 1.2 0.5 0.3 0.3 0.4 0.7 0.4 1.3v0.4h-1.3v-0.6c0-0.2 0-0.4-0.1-0.5 0-0.1-0.1-0.1-0.2-0.1 -0.2 0-0.3 0.1-0.3 0.4v2.6c0 0.3 0.1 0.4 0.3 0.4 0.1 0 0.1 0 0.2 0s0.1-0.1 0.1-0.1c0-0.1 0-0.1 0-0.2s0-0.2 0-0.3V422h1.3v0.8c0 0.3-0.1 0.5-0.2 0.8 -0.1 0.2-0.3 0.4-0.6 0.5 -0.2 0.1-0.5 0.2-0.8 0.2 -0.4 0-0.8-0.1-1.1-0.4C-206.6 423.5-206.7 423.2-206.7 422.8"/>
              <path id="Fill-20" class="st2" d="M-203 422.7v-2.2c0-0.5 0.1-1 0.4-1.3 0.3-0.3 0.7-0.5 1.2-0.5 0.5 0 1 0.2 1.2 0.5 0.3 0.3 0.4 0.7 0.4 1.3v2.2c0 0.4-0.2 0.8-0.5 1 -0.3 0.3-0.7 0.4-1.1 0.4 -0.3 0-0.6-0.1-0.8-0.2 -0.2-0.1-0.4-0.3-0.6-0.5C-203 423.3-203 423-203 422.7L-203 422.7zM-201.1 422.7v-2.6c0-0.3-0.1-0.4-0.3-0.4 -0.2 0-0.3 0.1-0.3 0.4v2.6c0 0.1 0 0.1 0 0.1 0 0 0 0.1 0 0.1 0 0.1 0 0.1 0.1 0.1 0 0 0.1 0 0.2 0C-201.2 423.2-201.1 423-201.1 422.7L-201.1 422.7z"/>
              <path id="Fill-21" class="st2" d="M-199.1 422.8h1.3v1.3h-1.3V422.8z"/>
              <path id="Fill-22" class="st2" d="M-197.1 423.1v-4.2h1.3v3.8c0 0.3 0.1 0.4 0.2 0.4 0.1 0 0.3-0.1 0.4-0.3v-4h1.3v5.2h-1.3v-0.4c-0.1 0.2-0.3 0.3-0.5 0.4 -0.2 0.1-0.4 0.2-0.5 0.2 -0.3 0-0.5-0.1-0.7-0.3C-197 423.6-197.1 423.4-197.1 423.1"/>
              <path id="Fill-23" class="st2" d="M-193.1 424.1V417h1.3v3.7l0.8-1.8h1.4l-1.3 2.2 1.3 3h-1.4l-0.7-2.3 -0.2 0.3v2H-193.1"/>
              <path id="Fill-24" class="st3" d="M-236.8 421.9c0 1.2 1.2 2.2 2.7 2.2h19.9c1.5 0 2.7-1 2.7-2.2v-16.6c0-1.2-1.2-2.2-2.7-2.2h-19.9c-1.5 0-2.7 1-2.7 2.2V421.9"/>
              <path id="Fill-25" class="st1" d="M-220.3 418.1h5.2c0.2 0 0.5 0.2 0.5 0.5v0.1c0 0.2-0.2 0.5-0.5 0.5h-5.2c0 0 0 0 0 0 0-0.2 0.1-0.4 0.1-0.6C-220.3 418.4-220.3 418.3-220.3 418.1"/>
              <path id="Fill-26" class="st1" d="M-222 415.8v-6.6c0-0.2 0.2-0.5 0.5-0.5h0.1c0.2 0 0.5 0.2 0.5 0.5v7.5C-221.2 416.3-221.6 416-222 415.8"/>
              <path id="Fill-27" class="st1" d="M-225.7 418.6c0 1.3 1 2.3 2.3 2.3 1.3 0 2.3-1 2.3-2.3s-1-2.3-2.3-2.3C-224.6 416.3-225.7 417.4-225.7 418.6L-225.7 418.6zM-224.7 418.6c0-0.7 0.6-1.3 1.3-1.3 0.7 0 1.3 0.6 1.3 1.3 0 0.7-0.6 1.3-1.3 1.3C-224.1 420-224.7 419.4-224.7 418.6L-224.7 418.6z"/>
              <path id="Fill-28" class="st1" d="M-231.6 416.4c1.4 0 2.5 1.1 2.5 2.5h0v0.7h2.6v-1.1h0c0-1.6 1.2-2.8 2.7-3.1 0.1 0 0.3 0 0.4 0 0.4 0 0.8 0.1 1.2 0.2v-8.8c0-0.2-0.2-0.5-0.5-0.5h-0.7c-0.2 0-0.5 0.2-0.5 0.5v8h-0.3l-2.2-4.1c-0.2-0.4-0.8-0.8-1.3-0.8h-4c-0.5 0-0.9 0.4-0.9 0.9v4.4 0.9 0.5C-232.3 416.5-232 416.4-231.6 416.4L-231.6 416.4zM-231.3 414.2l0-0.2v-2.4h0c0-0.3 0.1-0.5 0.5-0.5h2.7c0.4 0 0.5 0.1 0.7 0.4l1.6 2.9c-0.5 0.3-1 0.7-1.3 1.1l-0.2-0.1 0 0L-231.3 414.2 -231.3 414.2z"/>
              <path id="Fill-29" class="st1" d="M-233.6 419.1c0 1 0.8 1.9 1.9 1.9 1 0 1.9-0.8 1.9-1.9 0-1-0.8-1.9-1.9-1.9C-232.8 417.2-233.6 418.1-233.6 419.1L-233.6 419.1zM-232.8 419.1c0-0.6 0.5-1.1 1.1-1.1 0.6 0 1.1 0.5 1.1 1.1 0 0.6-0.5 1.1-1.1 1.1C-232.4 420.1-232.8 419.7-232.8 419.1L-232.8 419.1z"/>
            </g>
          </g>
        </g>
      </g>
    </g>
  </g>
</svg>
