<svg xmlns="http://www.w3.org/2000/svg" version="1.1" x="0" y="0" width="111" height="111" viewBox="0 0 111 111" xml:space="preserve"><style type="text/css">
	.st0{fill:#EFEFEF;}
	.st1{fill:#313133;}
	.st2{enable-background:new    ;}
</style><title>for sale OFF</title><desc>Created with Sketch Beta.</desc><g transform="translate(-457.000000, -622.000000)"><g transform="translate(457.000000, 273.000000)"><g transform="translate(0.000000, 34.000000)"><g transform="translate(0.000000, 314.000000)"><g transform="translate(0.021989, 0.505285)"><path class="st0" d="M110 56c0-30.3-24.7-55-55-55S0 25.7 0 56s24.7 55 55 55S110 86.3 110 56zM0 0"/><g transform="translate(36.890535, 34.601480)"><g transform="translate(0.000000, 9.095137)"><path class="st1" d="M3.9 0.1c-2.1 0-3.8 1.7-3.8 3.8 0 1.2 0.6 2.3 1.5 3v9.5c0 1.7 1.3 3 3 3s3-1.4 3-3V3.9C7.6 1.8 5.9 0.1 3.9 0.1M33.5 0.1c2.1 0 3.8 1.7 3.8 3.8 0 1.2-0.6 2.3-1.5 3v9.5c0 1.7-1.3 3-3 3s-3-1.4-3-3V3.9C29.7 1.8 31.4 0.1 33.5 0.1"/></g><path class="st1" d="M7.9 0C6 0 4.5 1.5 4.5 3.4v4.4c2.4 0.6 4.1 2.8 4.1 5.3v2.7h20.1v-2.7c0-2.6 1.8-4.7 4.1-5.3V3.4c0-1.9-1.5-3.4-3.4-3.4H7.9zM8.7 25.5h20.1v-8.8H8.7V25.5z"/></g><g class="st2"><path class="st1" d="M29.5 84.4H30c0.2 0 0.4-0.1 0.4-0.4v-6.5h-0.8v-1.2h6.8v2.3L35 78.7V78c0-0.3 0-0.4-0.4-0.4h-2.4v2.5h3.4v1.4h-3.4v2.7h1.2v1.2h-3.8L29.5 84.4 29.5 84.4zM39.8 78.2c1 0 3.1 0.3 3.1 3.5 0 2.7-1.5 3.9-3.3 3.9 -1.9 0-3.1-1.2-3.1-3.7C36.5 79 38.4 78.2 39.8 78.2zM41.3 82c0-1.6-0.4-2.5-1.5-2.5s-1.6 1-1.6 2.3 0.2 2.7 1.5 2.7C40.8 84.5 41.3 83.5 41.3 82zM44.8 80c0-0.3-0.1-0.4-0.4-0.4h-0.6v-1.1h2.4v1.1c0.3-0.7 1.1-1.3 2-1.3 0.5 0 0.9 0.1 1.3 0.3v2.1l-1.3 0.1v-0.6c0-0.2 0-0.3-0.1-0.3 -0.1-0.1-0.2-0.1-0.4-0.1 -0.8 0-1.3 0.6-1.3 1.4v3.2l1.2 0.1v1.1h-3.8v-1.1h0.5c0.3 0 0.4-0.1 0.4-0.5L44.8 80 44.8 80zM56 79.4c-0.6 0-1.1 0.3-1.1 0.8 0 0.6 0.7 0.8 1.3 1 1.1 0.3 2.3 0.7 2.3 2.2s-1.2 2.2-2.7 2.2c-0.9 0-2-0.1-2.6-0.4v-1.9l1.3-0.1v0.7c0 0.3 0.1 0.4 0.3 0.5 0.3 0.1 0.6 0.1 0.9 0.1 0.7 0 1.1-0.3 1.1-0.9 0-0.7-0.6-0.8-1.4-1 -1-0.3-2.2-0.6-2.2-2.2 0-1.5 1.2-2.2 2.7-2.2 1 0 1.8 0.3 2.3 0.6v1.7l-1.3 0.1V80c0-0.3-0.1-0.4-0.3-0.5C56.6 79.4 56.4 79.4 56 79.4zM65.8 83.9c0 0.3 0.1 0.4 0.4 0.4h0.4v1.1h-2.2v-0.8l0 0c-0.4 0.6-1.1 1-1.9 1 -2 0-2.8-1.4-2.8-3.4 0-2.5 1.2-4 3.7-4 0.5 0 1.5 0.1 2.5 0.5v5.2H65.8zM64.1 79.6c-0.2-0.1-0.6-0.2-1.1-0.2 -1.3 0-1.8 1.2-1.8 2.8 0 1.2 0.3 2.3 1.5 2.3 0.9 0 1.4-0.6 1.4-1.2V79.6zM69.9 84.3h0.8v1.1h-3.3v-1.1h0.5c0.3 0 0.4-0.1 0.4-0.4V77c0-0.3-0.1-0.3-0.3-0.3h-0.5v-1.2H70L69.9 84.3 69.9 84.3zM77.4 80.2c0 2.2-2.3 2.5-4 2.5 0.1 0.9 0.5 1.7 1.7 1.7 0.8 0 1.4-0.4 1.8-0.6l0.5 1.1c-0.2 0.2-1.1 0.8-2.5 0.8 -2.4 0-3.3-1.5-3.3-3.5 0-2.1 1.2-3.9 3.5-3.9C76.5 78.2 77.4 78.9 77.4 80.2zM75 79.4c-1.1 0-1.6 1.1-1.7 2.1 1 0 2.5-0.3 2.5-1.3C75.9 79.7 75.5 79.4 75 79.4z"/></g></g></g></g></g></g></svg>