<svg xmlns:sketch="http://www.bohemiancoding.com/sketch/ns" xmlns="http://www.w3.org/2000/svg" xmlns:xlink="http://www.w3.org/1999/xlink" version="1.1" id="Layer_1" x="0" y="0" width="111" height="111" viewBox="-242 365.9 111 111" xml:space="preserve" enable-background="new -242 365.9 111 111">
  <style type="text/css">
    
	.st0{fill:#EFEFEF;}
	.st1{fill:none;stroke:#313133;stroke-width:2;stroke-linecap:round;stroke-linejoin:round;stroke-dasharray:1,4;}
	.st2{fill:#313133;}
	.st3{enable-background:new    ;}

  </style>
  <title>
    for sale hover
  </title>
  <desc>
    Created with Sketch.
  </desc>
  <g id="PAA" sketch:type="MSPage">
    <g id="Desktop-HD-Motors-PAA-1" transform="translate(-457.000000, -622.000000)" sketch:type="MSArtboardGroup">
      <g id="Phase-1" transform="translate(457.000000, 273.000000)" sketch:type="MSLayerGroup">
        <g id="_x31_-what-are-you-selling" transform="translate(0.000000, 34.000000)">
          <g id="categories" transform="translate(0.000000, 314.000000)">
            <g id="for-sale-hover" transform="translate(0.021989, 0.505285)">
              <path id="Fill-1" sketch:type="MSShapeGroup" class="st0" d="M-132 421.9c0-30.3-24.7-55-55-55s-55 24.7-55 55c0 30.3 24.7 55 55 55S-132 452.2-132 421.9z"/>
              <path id="Stroke-6" sketch:type="MSShapeGroup" class="st1" d="M-142 443.6c3.2-6.6 5-14 5-21.8 0-27.6-22.4-50-50-50s-50 22.4-50 50c0 21.5 13.7 39.9 32.8 46.9 5.4 2 11.2 3.1 17.2 3.1C-167.2 471.9-150.1 460.3-142 443.6z"/>
              <path id="Stroke-15" sketch:type="MSShapeGroup" class="st1" d="M-242 365.9"/>
              <g id="sofa" transform="translate(36.890535, 33.696617)" sketch:type="MSShapeGroup">
                <path id="Fill-1_1_" class="st2" d="M-238.1 376c-2.1 0-3.8 1.7-3.8 3.8 0 1.2 0.6 2.3 1.5 3v9.5c0 1.7 1.3 3 3 3 1.7 0 3-1.4 3-3v-12.6C-234.4 377.7-236.1 376-238.1 376"/>
                <path id="Fill-2" class="st2" d="M-208.5 376c2.1 0 3.8 1.7 3.8 3.8 0 1.2-0.6 2.3-1.5 3v9.5c0 1.7-1.3 3-3 3 -1.7 0-3-1.4-3-3v-12.6C-212.3 377.7-210.6 376-208.5 376"/>
                <path id="Fill-3" class="st2" d="M-234.1 366.8c-1.9 0-3.4 1.5-3.4 3.4v4.4c2.4 0.6 4.1 2.8 4.1 5.3v2.7h20.1V380c0-2.6 1.8-4.7 4.1-5.3v-4.4c0-1.9-1.5-3.4-3.4-3.4H-234.1zM-233.3 392.3h20.1v-8.8h-20.1V392.3z"/>
              </g>
              <g class="st3">
                <path class="st2" d="M-212.5 450.2l0.5 0c0.2 0 0.4-0.1 0.4-0.4v-6.5l-0.8 0v-1.2h6.8v2.3l-1.4 0.1v-0.6c0-0.3 0-0.4-0.4-0.4h-2.4v2.5h3.4v1.4h-3.4v2.7l1.2 0v1.2h-3.8V450.2z"/>
                <path class="st2" d="M-202.2 444.1c1 0 3.1 0.3 3.1 3.5 0 2.7-1.5 3.9-3.3 3.9 -1.9 0-3.1-1.2-3.1-3.7C-205.5 444.9-203.6 444.1-202.2 444.1zM-200.7 447.9c0-1.6-0.4-2.5-1.5-2.5 -1.1 0-1.6 1-1.6 2.3 0 1.3 0.2 2.7 1.5 2.7C-201.2 450.4-200.7 449.3-200.7 447.9z"/>
                <path class="st2" d="M-197.2 445.9c0-0.3-0.1-0.4-0.4-0.4l-0.6 0v-1.1h2.4v1.1c0.3-0.7 1.1-1.3 2-1.3 0.5 0 0.9 0.1 1.3 0.3v2.1l-1.3 0.1V446c0-0.2 0-0.3-0.1-0.3 -0.1-0.1-0.2-0.1-0.4-0.1 -0.8 0-1.3 0.6-1.3 1.4v3.2l1.2 0.1v1.1h-3.8v-1.1l0.5 0c0.3 0 0.4-0.1 0.4-0.5V445.9z"/>
                <path class="st2" d="M-186 445.3c-0.6 0-1.1 0.3-1.1 0.8 0 0.6 0.7 0.8 1.3 1 1.1 0.3 2.3 0.7 2.3 2.2 0 1.5-1.2 2.2-2.7 2.2 -0.9 0-2-0.1-2.6-0.4v-1.9l1.3-0.1v0.7c0 0.3 0.1 0.4 0.3 0.5 0.3 0.1 0.6 0.1 0.9 0.1 0.7 0 1.1-0.3 1.1-0.9 0-0.7-0.6-0.8-1.4-1 -1-0.3-2.2-0.6-2.2-2.2 0-1.5 1.2-2.2 2.7-2.2 1 0 1.8 0.3 2.3 0.6v1.7l-1.3 0.1v-0.6c0-0.3-0.1-0.4-0.3-0.5C-185.4 445.3-185.6 445.3-186 445.3z"/>
                <path class="st2" d="M-176.2 449.8c0 0.3 0.1 0.4 0.4 0.4l0.4 0v1.1h-2.2v-0.8l0 0c-0.4 0.6-1.1 1-1.9 1 -2 0-2.8-1.4-2.8-3.4 0-2.5 1.2-4 3.7-4 0.5 0 1.5 0.1 2.5 0.5V449.8zM-177.9 445.5c-0.2-0.1-0.6-0.2-1.1-0.2 -1.3 0-1.8 1.2-1.8 2.8 0 1.2 0.3 2.3 1.5 2.3 0.9 0 1.4-0.6 1.4-1.2V445.5z"/>
                <path class="st2" d="M-172.1 450.2l0.8 0v1.1h-3.3v-1.1l0.5 0c0.3 0 0.4-0.1 0.4-0.4v-6.9c0-0.3-0.1-0.3-0.3-0.3l-0.5 0v-1.2h2.5V450.2z"/>
                <path class="st2" d="M-164.6 446.1c0 2.2-2.3 2.5-4 2.5 0.1 0.9 0.5 1.7 1.7 1.7 0.8 0 1.4-0.4 1.8-0.6l0.5 1.1c-0.2 0.2-1.1 0.8-2.5 0.8 -2.4 0-3.3-1.5-3.3-3.5 0-2.1 1.2-3.9 3.5-3.9C-165.5 444.1-164.6 444.8-164.6 446.1zM-167 445.3c-1.1 0-1.6 1.1-1.7 2.1 1 0 2.5-0.3 2.5-1.3C-166.1 445.6-166.5 445.3-167 445.3z"/>
              </g>
            </g>
          </g>
        </g>
      </g>
    </g>
  </g>
</svg>
