<svg xmlns:sketch="http://www.bohemiancoding.com/sketch/ns" xmlns="http://www.w3.org/2000/svg" xmlns:xlink="http://www.w3.org/1999/xlink" version="1.1" id="Layer_1" x="0" y="0" width="112" height="111" viewBox="0 0 112 111" xml:space="preserve" enable-background="new 0 0 112 111">
  <style type="text/css">
    
	.st0{fill:#313133;stroke:#E3E3E3;}
	.st1{fill:none;stroke:#A8DC28;stroke-width:2;stroke-linecap:round;stroke-linejoin:round;stroke-dasharray:1,4;}
	.st2{fill:#A8DC28;}
	.st3{fill:#EFEFEF;}
	.st4{enable-background:new    ;}

  </style>
  <title>
    for sale active
  </title>
  <desc>
    Created with Sketch Beta.
  </desc>
  <g id="PAA" sketch:type="MSPage">
    <g id="Desktop-HD-For-sale-2" transform="translate(-456.000000, -622.000000)" sketch:type="MSArtboardGroup">
      <g id="Phase-1" transform="translate(457.000000, 273.000000)" sketch:type="MSLayerGroup">
        <g id="_x31_-what-are-you-selling" transform="translate(0.000000, 34.000000)">
          <g id="categories" transform="translate(0.000000, 314.000000)">
            <g id="for-sale-active" transform="translate(0.021989, 0.505285)">
              <path id="Fill-1" sketch:type="MSShapeGroup" class="st0" d="M110 56c0-30.3-24.7-55-55-55S0 25.7 0 56s24.7 55 55 55S110 86.3 110 56z"/>
              <path id="Stroke-6" sketch:type="MSShapeGroup" class="st1" d="M100 77.8c3.2-6.6 5-14 5-21.8 0-27.6-22.4-50-50-50S5 28.4 5 56c0 21.5 13.7 39.9 32.8 46.9 5.4 2 11.2 3.1 17.2 3.1C74.8 106 91.9 94.5 100 77.8z"/>
              <path id="Stroke-15" sketch:type="MSShapeGroup" class="st1" d="M0 0"/>
              <g id="sofa-2" transform="translate(36.890535, 34.601480)" sketch:type="MSShapeGroup">
                <g id="Fill-1-_x2B_-Fill-2" transform="translate(0.000000, 9.095137)">
                  <path id="Fill-1_1_" class="st2" d="M3.9 0.1c-2.1 0-3.8 1.7-3.8 3.8 0 1.2 0.6 2.3 1.5 3v9.5c0 1.7 1.3 3 3 3s3-1.4 3-3V3.9C7.6 1.8 5.9 0.1 3.9 0.1"/>
                  <path id="Fill-2" class="st2" d="M33.5 0.1c2.1 0 3.8 1.7 3.8 3.8 0 1.2-0.6 2.3-1.5 3v9.5c0 1.7-1.3 3-3 3s-3-1.4-3-3V3.9C29.7 1.8 31.4 0.1 33.5 0.1"/>
                </g>
                <path id="Fill-3" class="st3" d="M7.9 0C6 0 4.5 1.5 4.5 3.4v4.4c2.4 0.6 4.1 2.8 4.1 5.3v2.7h20.1v-2.7c0-2.6 1.8-4.7 4.1-5.3V3.4c0-1.9-1.5-3.4-3.4-3.4H7.9zM8.7 25.5h20.1v-8.8H8.7V25.5z"/>
              </g>
              <g class="st4">
                <path class="st2" d="M31.5 84.4H32c0.2 0 0.4-0.1 0.4-0.4v-6.5h-0.8v-1.2h6.8v2.3L37 78.7V78c0-0.3 0-0.4-0.4-0.4H34v2.5h3.4v1.4H34v2.7h1.2v1.2h-3.8L31.5 84.4 31.5 84.4z"/>
                <path class="st2" d="M41.8 78.2c1 0 3.1 0.3 3.1 3.5 0 2.7-1.5 3.9-3.3 3.9 -1.9 0-3.1-1.2-3.1-3.7C38.5 79.1 40.4 78.2 41.8 78.2zM43.2 82c0-1.6-0.4-2.5-1.5-2.5s-1.6 1-1.6 2.3 0.2 2.7 1.5 2.7C42.8 84.5 43.2 83.5 43.2 82z"/>
                <path class="st2" d="M46.7 80c0-0.3-0.1-0.4-0.4-0.4h-0.6v-1.1h2.4v1.1c0.3-0.7 1.1-1.3 2-1.3 0.5 0 0.9 0.1 1.3 0.3v2.1l-1.3 0.1v-0.6c0-0.2 0-0.3-0.1-0.3 -0.1-0.1-0.2-0.1-0.4-0.1 -0.8 0-1.3 0.6-1.3 1.4v3.2l1.2 0.1v1.1h-3.8v-1.1h0.5c0.3 0 0.4-0.1 0.4-0.5L46.7 80 46.7 80z"/>
                <path class="st2" d="M58 79.4c-0.6 0-1.1 0.3-1.1 0.8 0 0.6 0.7 0.8 1.3 1 1.1 0.3 2.3 0.7 2.3 2.2s-1.2 2.2-2.7 2.2c-0.9 0-2-0.1-2.6-0.4v-1.9l1.3-0.1v0.7c0 0.3 0.1 0.4 0.3 0.5 0.3 0.1 0.6 0.1 0.9 0.1 0.7 0 1.1-0.3 1.1-0.9 0-0.7-0.6-0.8-1.4-1 -1-0.3-2.2-0.6-2.2-2.2 0-1.5 1.2-2.2 2.7-2.2 1 0 1.8 0.3 2.3 0.6v1.7l-1.3 0.1V80c0-0.3-0.1-0.4-0.3-0.5C58.5 79.4 58.3 79.4 58 79.4z"/>
                <path class="st2" d="M67.7 83.9c0 0.3 0.1 0.4 0.3 0.4h0.4v1.1h-2.2v-0.8l0 0c-0.4 0.6-1.1 1-1.9 1 -2 0-2.8-1.4-2.8-3.4 0-2.5 1.2-4 3.7-4 0.5 0 1.5 0.1 2.5 0.5C67.7 78.7 67.7 83.9 67.7 83.9zM66.1 79.6c-0.2-0.1-0.6-0.2-1.1-0.2 -1.3 0-1.8 1.2-1.8 2.8 0 1.2 0.3 2.3 1.5 2.3 0.9 0 1.4-0.6 1.4-1.2V79.6z"/>
                <path class="st2" d="M71.9 84.3h0.8v1.1h-3.3v-1.1h0.5c0.3 0 0.4-0.1 0.4-0.4V77c0-0.3-0.1-0.3-0.3-0.3h-0.5v-1.2H72L71.9 84.3 71.9 84.3z"/>
                <path class="st2" d="M79.4 80.2c0 2.2-2.3 2.5-4 2.5 0.1 0.9 0.5 1.7 1.7 1.7 0.8 0 1.4-0.4 1.8-0.6l0.5 1.1c-0.2 0.2-1.1 0.8-2.5 0.8 -2.4 0-3.3-1.5-3.3-3.5 0-2.1 1.2-3.9 3.5-3.9C78.5 78.2 79.4 78.9 79.4 80.2zM77 79.4c-1.1 0-1.6 1.1-1.7 2.1 1 0 2.5-0.3 2.5-1.3C77.8 79.7 77.5 79.4 77 79.4z"/>
              </g>
            </g>
          </g>
        </g>
      </g>
    </g>
  </g>
</svg>
