<?xml version="1.0" encoding="UTF-8"?><svg width="35" height="27" xmlns="http://www.w3.org/2000/svg"><g fill="none" fill-rule="evenodd"><g transform="translate(-336 -1253)" fill="#555555"><g transform="translate(203 1059)"><g transform="translate(0 194)"><g transform="translate(133)"><path d="M3.596 8.627C5.53 8.627 7.1 10.182 7.1 12.1v11.535c0 1.534-1.255 2.778-2.802 2.778-1.547 0-2.801-1.244-2.801-2.778V14.88A3.459 3.459 0 0 1 .09 12.101c0-1.919 1.57-3.474 3.506-3.474zm27.551 0c1.936 0 3.506 1.555 3.506 3.474a3.459 3.459 0 0 1-1.408 2.78v8.755c0 1.534-1.254 2.778-2.801 2.778-1.547 0-2.802-1.244-2.802-2.778V12.1c0-1.919 1.57-3.474 3.505-3.474zM7.172 0h20.089c1.752 0 3.172 1.408 3.172 3.145v4.068c-2.214.548-3.857 2.526-3.857 4.891v2.49H7.858v-2.49C7.857 9.739 6.215 7.761 4 7.213V3.145C4 1.408 5.42 0 7.172 0zm.686 23.416V15.38h18.718v8.036H7.858z"/></g></g></g></g></g></svg>