<svg xmlns="http://www.w3.org/2000/svg" version="1.1" x="0" y="0" width="44" height="44" viewBox="-261 261.9 44 44" xml:space="preserve"><style type="text/css">
	.st0{fill:#EFEFEF;stroke:#EFEFEF;stroke-width:4;}
	.st1{fill:#CD4F43;}
	.st2{fill:#FFFFFF;}
</style><title>Google-+</title><desc>Created with Sketch Beta.</desc><g transform="translate(-1122.000000, -76.000000)"><g transform="translate(-7.000000, 5.000000)"><g transform="translate(1017.000000, 73.000000)"><g transform="translate(114.000000, 0.000000)"><circle class="st0" cx="-241" cy="281.9" r="20"/><path class="st1" d="M-261 281.9c0 11 9 20 20 20 11 0 20-9 20-20 0-11-9-20-20-20C-252 261.9-261 270.9-261 281.9L-261 281.9z"/></g></g></g></g><g transform="translate(-285.000000, -1603.000000)"><g transform="translate(182.000000, 573.000000)"><g transform="translate(0.000000, 382.000000)"><g transform="translate(0.000000, 507.000000)"><g transform="translate(1.000000, 26.000000)"><g transform="translate(102.745718, 0.000000)"><g transform="translate(8.000000, 13.000000)"><path class="st2" d="M-250.7 384.9v2.7h4.5c-0.2 1.2-1.4 3.5-4.5 3.5 -2.7 0-5-2.3-5-5.1s2.2-5.1 5-5.1c1.6 0 2.6 0.7 3.2 1.2l2.2-2.1c-1.4-1.3-3.2-2.1-5.4-2.1 -4.4 0-8 3.6-8 8s3.6 8 8 8c4.6 0 7.7-3.2 7.7-7.8 0-0.5-0.1-0.9-0.1-1.3h-7.6V384.9z"/><path class="st2" d="M-233.6 384.9h-2.3v-2.3h-2.3v2.3h-2.3v2.3h2.3v2.3h2.3v-2.3h2.3V384.9z"/></g></g></g></g></g></g></g></svg>