<svg xmlns="http://www.w3.org/2000/svg" version="1.1" x="0" y="0" width="137" height="40" viewBox="-215 263.9 137 40" xml:space="preserve"><style type="text/css">
	.st0{fill:#CF3D20;stroke:#CF3C20;}
	.st1{enable-background:new    ;}
	.st2{fill:#FFFFFF;}
	.st3{fill:none;stroke:#E96C53;stroke-linecap:square;}
	.st4{fill:none;stroke:#BD3217;stroke-linecap:square;}
</style><title>Google sign in hover</title><desc>Created with Sketch Beta.</desc><g transform="translate(-731.000000, -741.000000)"><g transform="translate(-2.000000, -127.000000)"><g transform="translate(456.000000, 448.000000)"><g transform="translate(277.000000, 420.000000)"><path class="st0" d="M-213 263.9h133c1.1 0 2 0.9 2 2v36c0 1.1-0.9 2-2 2h-133c-1.1 0-2-0.9-2-2v-36C-215 264.8-214.1 263.9-213 263.9z"/><g class="st1"><path class="st2" d="M-147.6 286.7c-0.9 0.6-2.2 1-3.7 1 -2.9 0-4.7-1.8-4.7-5.5 0-4.1 2.8-5.5 5.1-5.5 1.1 0 2.2 0.2 3.1 0.7v2.7l-1.6 0.1v-1.2c0-0.3 0-0.4-0.3-0.5 -0.3-0.1-0.7-0.1-1.2-0.1 -2.1 0-3.1 1.4-3.1 3.8 0 2.5 0.8 4 2.8 4 0.6 0 1.4-0.2 1.7-0.4v-2.4l0 0h-1.2v-1.4h4v1.3h-0.4c-0.3 0-0.5 0.1-0.5 0.5V286.7z"/><path class="st2" d="M-142 279.3c1.2 0 3.6 0.4 3.6 4 0 3.1-1.7 4.5-3.8 4.5 -2.1 0-3.6-1.4-3.6-4.3C-145.8 280.2-143.7 279.3-142 279.3zM-140.4 283.6c0-1.8-0.4-2.9-1.7-2.9 -1.3 0-1.8 1.1-1.8 2.6s0.2 3.1 1.7 3.1C-140.9 286.4-140.4 285.3-140.4 283.6z"/><path class="st2" d="M-133.6 279.3c1.2 0 3.6 0.4 3.6 4 0 3.1-1.7 4.5-3.8 4.5 -2.1 0-3.6-1.4-3.6-4.3C-137.4 280.2-135.2 279.3-133.6 279.3zM-132 283.6c0-1.8-0.4-2.9-1.7-2.9s-1.8 1.1-1.8 2.6 0.2 3.1 1.7 3.1C-132.5 286.4-132 285.3-132 283.6z"/><path class="st2" d="M-128.5 290.5v-2.2l1.5-0.1v0.7c0 0.3 0.1 0.5 0.4 0.6s0.7 0.2 1.1 0.2c1.5 0 1.9-1 1.9-2.4v-0.9c-0.5 0.6-1.3 0.9-2.1 0.9 -2.3 0-3.1-1.9-3.1-3.7 0-2.9 1.7-4.3 4.2-4.3 0.8 0 2 0.2 3 0.6v5.9c0 0.6 0 1.2 0 1.7 -0.2 2.4-1.3 3.4-3.7 3.4C-126.5 291-127.9 290.8-128.5 290.5zM-123.6 280.9c-0.4-0.1-0.8-0.2-1.3-0.2 -1.3 0-2 1.1-2 2.7 0 1.1 0.2 2.5 1.7 2.5 0.9 0 1.6-0.6 1.6-1.6C-123.6 284.3-123.6 280.9-123.6 280.9z"/><path class="st2" d="M-117.4 286.2h0.9v1.3h-3.8v-1.2h0.5c0.3 0 0.5-0.1 0.5-0.5v-7.9c0-0.3-0.2-0.4-0.4-0.4h-0.6v-1.3h2.9V286.2z"/><path class="st2" d="M-108.8 281.5c0 2.5-2.7 2.9-4.6 2.9 0.1 1 0.6 1.9 2 1.9 0.9 0 1.6-0.4 2-0.7l0.6 1.3c-0.3 0.2-1.3 0.9-2.8 0.9 -2.7 0-3.8-1.7-3.8-4 0-2.4 1.3-4.4 4-4.4C-109.9 279.3-108.8 280.1-108.8 281.5zM-111.6 280.6c-1.3 0-1.9 1.2-1.9 2.4 1.2 0 2.9-0.3 2.9-1.5C-110.6 280.9-111 280.6-111.6 280.6z"/></g><path class="st3" d="M-174.1 264.9v38.2"/><path class="st4" d="M-173.5 264.9v38.2"/></g></g></g></g><path class="st2" d="M-199 282.6v2.7h4.5c-0.2 1.2-1.4 3.5-4.5 3.5 -2.7 0-5-2.3-5-5.1s2.2-5.1 5-5.1c1.6 0 2.6 0.7 3.2 1.2l2.2-2.1c-1.4-1.3-3.2-2.1-5.4-2.1 -4.4 0-8 3.6-8 8s3.6 8 8 8c4.6 0 7.7-3.2 7.7-7.8 0-0.5-0.1-0.9-0.1-1.3h-7.6V282.6z"/><path class="st2" d="M-181.9 282.6h-2.3v-2.3h-2.3v2.3h-2.3v2.3h2.3v2.3h2.3v-2.3h2.3V282.6z"/></svg>