<svg xmlns="http://www.w3.org/2000/svg" version="1.1" x="0" y="0" width="137" height="40" viewBox="-215 263.9 137 40" xml:space="preserve"><style type="text/css">
	.st0{fill:#CD4F43;stroke:#CF3C20;}
	.st1{enable-background:new    ;}
	.st2{fill:#FFFFFF;}
	.st3{fill:none;stroke:#E96C53;stroke-linecap:square;}
	.st4{fill:none;stroke:#BD3217;stroke-linecap:square;}
</style><title>Google sign in</title><desc>Created with Sketch Beta.</desc><g transform="translate(277.000000, 420.000000)"><path class="st0" d="M-490-156.1h133c1.1 0 2 0.9 2 2v36c0 1.1-0.9 2-2 2h-133c-1.1 0-2-0.9-2-2v-36C-492-155.2-491.1-156.1-490-156.1z"/><g class="st1"><path class="st2" d="M-424.6-133.3c-0.9 0.6-2.2 1-3.7 1 -2.9 0-4.7-1.8-4.7-5.5 0-4.1 2.8-5.5 5.1-5.5 1.1 0 2.2 0.2 3.1 0.7v2.7l-1.6 0.1v-1.2c0-0.3 0-0.4-0.3-0.5 -0.3-0.1-0.7-0.1-1.2-0.1 -2.1 0-3.1 1.4-3.1 3.8 0 2.5 0.8 4 2.8 4 0.6 0 1.4-0.2 1.7-0.4v-2.4l0 0h-1.2v-1.4h4v1.3h-0.4c-0.3 0-0.5 0.1-0.5 0.5V-133.3z"/><path class="st2" d="M-419-140.7c1.2 0 3.6 0.4 3.6 4 0 3.1-1.7 4.5-3.8 4.5 -2.1 0-3.6-1.4-3.6-4.3C-422.8-139.8-420.7-140.7-419-140.7zM-417.4-136.4c0-1.8-0.4-2.9-1.7-2.9 -1.3 0-1.8 1.1-1.8 2.6s0.2 3.1 1.7 3.1C-417.9-133.6-417.4-134.7-417.4-136.4z"/><path class="st2" d="M-410.6-140.7c1.2 0 3.6 0.4 3.6 4 0 3.1-1.7 4.5-3.8 4.5 -2.1 0-3.6-1.4-3.6-4.3C-414.4-139.8-412.2-140.7-410.6-140.7zM-409-136.4c0-1.8-0.4-2.9-1.7-2.9 -1.3 0-1.8 1.1-1.8 2.6s0.2 3.1 1.7 3.1C-409.5-133.6-409-134.7-409-136.4z"/><path class="st2" d="M-405.5-129.5v-2.2l1.5-0.1v0.7c0 0.3 0.1 0.5 0.4 0.6 0.3 0.1 0.7 0.2 1.1 0.2 1.5 0 1.9-1 1.9-2.4v-0.9c-0.5 0.6-1.3 0.9-2.1 0.9 -2.3 0-3.1-1.9-3.1-3.7 0-2.9 1.7-4.3 4.2-4.3 0.8 0 2 0.2 3 0.6v5.9c0 0.6 0 1.2 0 1.7 -0.2 2.4-1.3 3.4-3.7 3.4C-403.5-129-404.9-129.2-405.5-129.5zM-400.6-139.1c-0.4-0.1-0.8-0.2-1.3-0.2 -1.3 0-2 1.1-2 2.7 0 1.1 0.2 2.5 1.7 2.5 0.9 0 1.6-0.6 1.6-1.6C-400.6-135.7-400.6-139.1-400.6-139.1z"/><path class="st2" d="M-394.4-133.8h0.9v1.3h-3.8v-1.2h0.5c0.3 0 0.5-0.1 0.5-0.5v-7.9c0-0.3-0.2-0.4-0.4-0.4h-0.6v-1.3h2.9V-133.8z"/><path class="st2" d="M-385.8-138.5c0 2.5-2.7 2.9-4.6 2.9 0.1 1 0.6 1.9 2 1.9 0.9 0 1.6-0.4 2-0.7l0.6 1.3c-0.3 0.2-1.3 0.9-2.8 0.9 -2.7 0-3.8-1.7-3.8-4 0-2.4 1.3-4.4 4-4.4C-386.9-140.7-385.8-139.9-385.8-138.5zM-388.6-139.4c-1.3 0-1.9 1.2-1.9 2.4 1.2 0 2.9-0.3 2.9-1.5C-387.6-139.1-388-139.4-388.6-139.4z"/></g><path class="st3" d="M-451.1-155.1v38.2"/><path class="st4" d="M-450.5-155.1v38.2"/><g transform="translate(8.000000, 13.000000)"><path class="st2" d="M-484-150.4v2.7h4.5c-0.2 1.2-1.4 3.5-4.5 3.5 -2.7 0-5-2.3-5-5.1s2.2-5.1 5-5.1c1.6 0 2.6 0.7 3.2 1.2l2.2-2.1c-1.4-1.3-3.2-2.1-5.4-2.1 -4.4 0-8 3.6-8 8s3.6 8 8 8c4.6 0 7.7-3.2 7.7-7.8 0-0.5-0.1-0.9-0.1-1.3h-7.6V-150.4z"/><path class="st2" d="M-466.9-150.4h-2.3v-2.3h-2.3v2.3h-2.3v2.3h2.3v2.3h2.3v-2.3h2.3V-150.4z"/></g></g></svg>