<svg xmlns:sketch="http://www.bohemiancoding.com/sketch/ns" xmlns="http://www.w3.org/2000/svg" xmlns:xlink="http://www.w3.org/1999/xlink" version="1.1" id="Layer_1" x="0" y="0" width="157" height="158" viewBox="-321 157 157 158" xml:space="preserve" enable-background="new -321 157 157 158">
  <style type="text/css">
    
	.st0{fill:#FFFFFF;}
	.st1{fill:none;stroke:#313133;stroke-width:2;stroke-linecap:round;stroke-linejoin:round;stroke-dasharray:1,4;}
	.st2{fill:#313133;}

  </style>
  <title>
    Guinea Pigs
  </title>
  <desc>
    Created with Sketch.
  </desc>
  <g id="landing-page" sketch:type="MSPage">
    <g id="Desktop---Landing-Page-Animals" transform="translate(-916.000000, -663.000000)" sketch:type="MSArtboardGroup">
      <g id="Pets" transform="translate(-31.000000, 533.000000)" sketch:type="MSLayerGroup">
        <g id="Guinea-Pigs" transform="translate(947.000000, 130.000000)" sketch:type="MSShapeGroup">
          <path id="Fill-1-Copy" class="st0" d="M-242.5 157.2c-43.3 0-78.5 35.2-78.5 78.5 0 43.3 35.2 78.5 78.5 78.5 43.3 0 78.5-35.2 78.5-78.5C-164 192.4-199.2 157.2-242.5 157.2z"/>
          <path id="Stroke-2" class="st1" d="M-178.8 266.6c4.5-9.3 7-19.7 7-30.8 0-39-31.7-70.7-70.7-70.7s-70.7 31.7-70.7 70.7c0 30.4 19.3 56.4 46.3 66.4 7.6 2.8 15.8 4.3 24.4 4.3C-214.5 306.5-190.3 290.2-178.8 266.6L-178.8 266.6z"/>
          <g id="mouse" transform="translate(41.000000, 46.000000)">
            <path id="Shape" class="st2" d="M-261.5 166.3c1.5-2.4 2.2-9-3.5-9 -3 0-3.4 3.2-3.4 3.9 0 0.7-0.9-5.2-6.3-3.9 0 0-4.1 1.3-4.1 4.7l0 0c0 0 0-0.1 0-0.1l-0.6-1.3c-0.1-0.2-0.4-0.3-0.6 0 -0.1 0.2-0.5 0.2-0.6 0l-0.1-0.3c-0.1-0.1-0.2-0.2-0.3-0.2h-0.3c-0.2 0-0.3-0.1-0.3-0.3v-0.4c0-0.2-0.2-0.3-0.3-0.3l-1.2 0.1c-0.1 0-0.1 0-0.2 0.1l-0.1-0.1 -0.8-0.9c-0.1-0.1-0.3 0-0.3 0.1v0.2c0 0.2-0.2 0.2-0.3 0.2 -0.4-0.3-1.1-0.7-1.5-0.9 -0.1 0-0.2 0-0.2 0.1l-0.1 0.5c0 0.2-0.3 0.2-0.4 0l-0.6-1.1c-0.1-0.1-0.2-0.1-0.3 0l-0.9 1.1c0 0-0.1 0.1-0.2 0.1h-1.1c-0.1 0-0.2 0.1-0.2 0.2v0.3c0 0.1-0.1 0.2-0.3 0.2l-1.7-0.6c-0.1 0-0.3 0-0.3 0.2v0.5c0 0.1-0.1 0.2-0.3 0.2l-2.3-0.8c-0.1 0-0.3 0-0.3 0.2v0.5c0 0.1 0 0.1-0.1 0.2l-1 0.4c-0.1 0-0.1 0.1-0.1 0.2v0.4c0 0.1-0.1 0.2-0.1 0.2l-1.4 0.5c-0.1 0-0.1 0.1-0.1 0.2v0.9c0 0.1-0.1 0.2-0.2 0.2h-1.4c-0.1 0-0.2 0.1-0.2 0.2v0.4c0 0.1-0.1 0.2-0.2 0.2h-1.4c-0.1 0-0.2 0.1-0.2 0.2v1.4c0 0.1 0 0.1-0.1 0.2l-0.9 0.6c-0.1 0-0.1 0.1-0.1 0.2v0.8c0 0.1-0.1 0.2-0.2 0.2h-0.4c-0.1 0-0.2 0.1-0.2 0.2v1.1c0 0.1-0.1 0.2-0.2 0.2h-0.4c-0.1 0-0.2 0.1-0.2 0.2v1.5c0 0.1-0.1 0.2-0.2 0.2h-0.5c-0.2 0-0.3 0.2-0.1 0.3l0.3 0.2c0.1 0.1 0.1 0.3 0 0.3l-0.5 0.2c-0.1 0.1-0.2 0.2-0.1 0.3l0.4 0.4c0.1 0.1 0.1 0.1 0 0.2l-0.6 1.2c0 0 0 0-0.1 0.1l-0.4 0.3c-0.1 0.1-0.1 0.3 0.1 0.3 0.2 0 0.3 0.2 0.1 0.3l-0.4 0.5c-0.1 0.1 0 0.3 0.1 0.3h0.3c0.1 0 0.2 0.1 0.2 0.2l-0.2 0.9c0 0.1 0 0.1 0 0.2l0.3 0.5c0 0 0 0.1 0 0.2l-0.2 0.6c0 0.1 0 0.2 0.1 0.2l0.6 0.4c0.1 0.1 0.1 0.2 0 0.3l-0.6 0.7c0 0-0.1 0.1 0 0.2l0.1 0.6c0 0.1 0.1 0.2 0.2 0.2h0.2c0.1 0 0.2 0.1 0.2 0.2l0 0.7c0 0.1 0.1 0.2 0.1 0.2 -0.8 1.5-2.9 3.5-7.1 1.8 -5.8-2.4-7.3 0.8-8.5 2.2 -1.3 1.4 4.3-2.7 9 0.6 4.7 3.3 8.1-0.8 8.3-1.5 0.2-0.7 7.2 6.3 11.1 7.1 3.9 0.9 7.1 0.7 7.1-1.2 0-1.9 4.3 1.1 4-1.6 -0.3-2.7-7.6-2.2-3.1-3.4s5.3 6.7 12.2 6.7c7 0 5.8-1.4 5.6-2.1 -0.3-0.6 5.3 1.3 5.3-0.9 0-2.1-7.2-1.1-7.2-5.1 0-4 2.1-4.4 3-4.3 0.9 0.1 10.5 1.5 10.5-1.7S-259.6 168.1-261.5 166.3L-261.5 166.3zM-273.9 165.8c-1.6 0-3-1.3-3-2.8s1.3-2.8 3-2.8 3 1.3 3 2.8S-272.2 165.8-273.9 165.8L-273.9 165.8zM-264.8 170.9c-0.8 0-1.4-0.6-1.4-1.4s0.6-1.4 1.4-1.4c0.8 0 1.4 0.6 1.4 1.4S-264 170.9-264.8 170.9L-264.8 170.9z"/>
          </g>
          <path id="Guinea-Pigs-_x26_" class="st2" d="M-277.7 260.7c0-0.3 0.1-0.4 0.4-0.5l0.3 0v-1.1h-3.5v1.2l1.1 0h0v2.1c-0.3 0.2-0.9 0.3-1.5 0.3 -1.7 0-2.4-1.3-2.4-3.5 0-2.1 0.8-3.3 2.7-3.3 0.4 0 0.8 0 1 0.1 0.3 0.1 0.3 0.2 0.3 0.5v1.1l1.4-0.1v-2.4c-0.8-0.4-1.8-0.6-2.7-0.6 -2 0-4.5 1.2-4.5 4.8 0 3.2 1.6 4.8 4.1 4.8 1.3 0 2.5-0.4 3.2-0.9V260.7zM-269 262.9l-0.5 0c-0.3 0-0.4-0.1-0.4-0.4V257h-2.5v1.1l0.4 0c0.3 0 0.4 0.1 0.4 0.4v3c0 0.7-0.5 1.4-1.5 1.4 -0.9 0-1-0.6-1-1.5V257h-2.5v1.1l0.4 0c0.2 0 0.4 0.1 0.4 0.4v3.2c0 1.7 0.8 2.4 2.2 2.4 0.9 0 1.8-0.4 2.3-1.1v0.9h2.3V262.9zM-265.6 257h-2.5v1.2l0.5 0c0.3 0 0.4 0.1 0.4 0.4v3.9c0 0.3-0.2 0.4-0.4 0.4l-0.5 0v1.1h3.3v-1.1l-0.8 0V257zM-267.7 255c0 0.6 0.4 1 1.1 1 0.6 0 1.1-0.4 1.1-1 0-0.6-0.4-1-1.1-1C-267.2 254-267.7 254.4-267.7 255L-267.7 255zM-264.1 258.1l0.6 0c0.3 0 0.4 0.1 0.4 0.4v3.9c0 0.3-0.1 0.4-0.4 0.5l-0.5 0v1.1h3.3v-1.1l-0.8 0v-3.4c0-0.7 0.5-1.4 1.4-1.4 1 0 1.1 0.6 1.1 1.5v2.9c0 0.3-0.1 0.4-0.4 0.5l-0.5 0v1.1h3.3v-1.1l-0.8 0v-3.7c0-1.7-0.8-2.4-2.2-2.4 -0.9 0-1.8 0.4-2.3 1.1V257h-2.4V258.1zM-252.1 256.7c-2.3 0-3.5 1.8-3.5 3.9 0 2.1 0.9 3.5 3.3 3.5 1.3 0 2.2-0.6 2.5-0.8l-0.5-1.1c-0.3 0.2-0.9 0.6-1.8 0.6 -1.2 0-1.7-0.7-1.7-1.7 1.7 0 4-0.4 4-2.5C-249.8 257.4-250.7 256.7-252.1 256.7L-252.1 256.7zM-251.3 258.7c0 1.1-1.5 1.3-2.5 1.3 0-1 0.5-2.1 1.7-2.1C-251.7 257.9-251.3 258.2-251.3 258.7L-251.3 258.7zM-242.5 257.2c-1-0.4-2-0.5-2.5-0.5 -2.5 0-3.7 1.6-3.7 4 0 2 0.8 3.4 2.8 3.4 0.8 0 1.5-0.4 1.9-1l0 0v0.8h2.2v-1.1l-0.4 0c-0.3 0-0.3-0.1-0.3-0.4V257.2zM-244.2 261.8c0 0.6-0.5 1.2-1.4 1.2 -1.2 0-1.5-1.1-1.5-2.3 0-1.5 0.4-2.8 1.8-2.8 0.4 0 0.9 0.1 1.1 0.2V261.8zM-238.1 264h3.9v-1.2l-1.3 0v-2h1.2c2.1 0 3.6-1.1 3.6-3.2 0-1.9-1.3-2.9-3.3-2.9h-4v1.2l0.8 0v6.5c0 0.3-0.2 0.4-0.4 0.4l-0.5 0V264zM-235.5 259.4V256h0.9c1.4 0 2.2 0.2 2.2 1.7 0 1.2-0.8 1.7-2 1.7H-235.5zM-227.3 257h-2.5v1.2l0.5 0c0.3 0 0.4 0.1 0.4 0.4v3.9c0 0.3-0.2 0.4-0.4 0.4l-0.5 0v1.1h3.3v-1.1l-0.8 0V257zM-229.3 255c0 0.6 0.4 1 1.1 1 0.6 0 1.1-0.4 1.1-1 0-0.6-0.4-1-1.1-1C-228.9 254-229.3 254.4-229.3 255L-229.3 255zM-222.7 267c2.1 0 3.1-1 3.2-3 0-0.5 0-1 0-1.5v-5.2c-0.8-0.3-1.9-0.5-2.6-0.5 -2.1 0-3.6 1.2-3.6 3.7 0 1.6 0.7 3.3 2.7 3.3 0.7 0 1.4-0.2 1.9-0.8v0.8c0 1.2-0.3 2.1-1.6 2.1 -0.4 0-0.7 0-1-0.1 -0.3-0.1-0.3-0.2-0.3-0.5v-0.7l-1.3 0.1v1.9C-224.7 266.8-223.6 267-222.7 267L-222.7 267zM-221 261.1c0 0.9-0.6 1.4-1.4 1.4 -1.3 0-1.5-1.3-1.5-2.2 0-1.4 0.6-2.3 1.8-2.3 0.4 0 0.8 0.1 1.1 0.2V261.1zM-214.4 258c0.3 0.1 0.3 0.2 0.3 0.5v0.6l1.3-0.1v-1.7c-0.5-0.3-1.4-0.6-2.3-0.6 -1.5 0-2.7 0.8-2.7 2.2 0 1.6 1.1 1.9 2.2 2.2 0.8 0.2 1.4 0.3 1.4 1 0 0.6-0.4 0.9-1.1 0.9 -0.3 0-0.7 0-0.9-0.1 -0.3-0.1-0.3-0.2-0.3-0.5v-0.7l-1.3 0.1v1.9c0.6 0.3 1.7 0.4 2.6 0.4 1.5 0 2.7-0.8 2.7-2.2 0-1.5-1.2-1.9-2.3-2.2 -0.7-0.2-1.3-0.4-1.3-1 0-0.6 0.4-0.8 1.1-0.8C-214.9 257.9-214.7 257.9-214.4 258L-214.4 258zM-202.8 260.9c-1.4-1.2-3-2.8-3-4 0-0.7 0.4-1.1 1.1-1.1 0.3 0 0.5 0 0.7 0.1 0.3 0.1 0.3 0.2 0.3 0.5v0.9l1.4-0.1v-2.1c-0.8-0.4-1.6-0.6-2.5-0.6 -1.7 0-2.7 1-2.7 2.4 0 0.5 0.1 1 0.4 1.5 -1 0.6-1.7 1.5-1.7 2.9 0 1.4 0.9 2.8 3.3 2.8 1.2 0 2.2-0.4 2.9-1 0.7 0.5 1.3 1 1.8 1.3l0.9-1.2c-0.3-0.3-1.1-0.8-1.8-1.3 0.4-0.8 0.6-1.6 0.6-2.5l0.8 0v-1.1h-3v1.1l0.4 0c0.2 0 0.3 0.1 0.3 0.2C-202.5 260.1-202.6 260.5-202.8 260.9L-202.8 260.9zM-203.7 262.2c-0.4 0.4-0.9 0.7-1.7 0.7 -1.1 0-1.7-0.7-1.7-1.6 0-0.7 0.3-1.3 0.9-1.6C-205.6 260.5-204.6 261.4-203.7 262.2L-203.7 262.2zM-281.3 277.7c-0.4 0-0.7 0-1-0.1 -0.3-0.1-0.3-0.2-0.3-0.5v-0.9l-1.4 0.1v2.2c0.8 0.4 1.7 0.6 2.8 0.6 1.9 0 3.4-1 3.4-2.9 0-1.8-1.3-2.4-2.6-2.8 -1-0.3-1.9-0.6-1.9-1.4 0-0.9 0.6-1.2 1.5-1.2 0.3 0 0.6 0 0.9 0.1 0.3 0.1 0.3 0.2 0.3 0.5v0.8l1.4-0.1v-2.1c-0.8-0.4-1.7-0.6-2.6-0.6 -1.9 0-3.2 1-3.2 2.7 0 1.8 1.3 2.4 2.7 2.7 1 0.3 1.8 0.5 1.8 1.4C-279.6 277.4-280.3 277.7-281.3 277.7L-281.3 277.7zM-276.9 273.1l0.6 0c0.3 0 0.4 0.1 0.4 0.4v3.9h0c0 0.3-0.1 0.4-0.4 0.5l-0.5 0v1.1h3.3v-1.1l-0.8 0v-3.4c0-0.7 0.4-1.4 1.4-1.4 0.9 0 1 0.7 1 1.5v2.9c0 0.3-0.1 0.4-0.4 0.5l-0.5 0v1.1h3.3v-1.1l-0.8 0v-3.4c0-0.8 0.4-1.4 1.4-1.4 0.9 0 1 0.7 1 1.5v2.9c0 0.3-0.2 0.4-0.4 0.4l-0.5 0v1.1h3.3v-1.1l-0.8 0v-3.7c0-1.7-0.8-2.4-2.1-2.4 -0.9 0-1.6 0.4-2.1 1.1 -0.3-0.8-1-1.1-1.9-1.1 -0.9 0-1.6 0.4-2.1 1.1V272h-2.4V273.1zM-258.4 272.2c-1-0.4-2-0.5-2.5-0.5 -2.5 0-3.7 1.6-3.7 4 0 2 0.8 3.4 2.8 3.4 0.8 0 1.5-0.4 1.9-1l0 0v0.8h2.2v-1.1l-0.4 0c-0.3 0-0.3-0.1-0.3-0.4V272.2zM-260.1 276.8c0 0.6-0.5 1.2-1.4 1.2 -1.2 0-1.5-1.1-1.5-2.3 0-1.5 0.4-2.8 1.8-2.8 0.4 0 0.9 0.1 1.1 0.2V276.8zM-254.3 269h-2.5v1.2l0.5 0c0.2 0 0.3 0.1 0.3 0.3v6.9c0 0.3-0.2 0.4-0.4 0.4l-0.5 0v1.1h3.3v-1.1l-0.8 0V269zM-250.1 269h-2.5v1.2l0.5 0c0.2 0 0.4 0.1 0.4 0.3v6.9c0 0.3-0.2 0.4-0.4 0.4l-0.5 0v1.1h3.3v-1.1l-0.8 0V269zM-245.6 279h3.8v-1.2l-1.2 0V275h3.4v-1.4h-3.4v-2.5h2.4c0.4 0 0.4 0.2 0.4 0.4v0.6l1.4-0.1v-2.3h-6.8v1.2l0.8 0v6.5c0 0.3-0.2 0.4-0.4 0.4l-0.5 0V279zM-230.9 277.9l-0.5 0c-0.3 0-0.3-0.1-0.3-0.4V272h-2.5v1.1l0.4 0c0.3 0 0.3 0.1 0.3 0.4v3c0 0.7-0.5 1.4-1.5 1.4 -0.9 0-1-0.6-1-1.5V272h-2.5v1.1l0.4 0c0.2 0 0.4 0.1 0.4 0.4v3.2c0 1.7 0.8 2.4 2.2 2.4 0.9 0 1.8-0.4 2.3-1.1v0.9h2.3V277.9zM-229.2 277.4c0 0.3-0.1 0.4-0.4 0.5l-0.5 0v1.1h3.8v-1.1l-1.2-0.1v-3.2c0-0.8 0.5-1.4 1.3-1.4 0.2 0 0.3 0 0.4 0.1 0.1 0.1 0.1 0.2 0.1 0.4v0.6l1.3-0.1v-2.1c-0.5-0.2-0.9-0.3-1.3-0.3 -0.9 0-1.7 0.6-2 1.3v-1h-2.4v1.1l0.6 0c0.3 0 0.3 0.1 0.3 0.4V277.4zM-222.7 277.4c0 0.3-0.1 0.4-0.4 0.5l-0.5 0v1.1h3.8v-1.1l-1.2-0.1v-3.2c0-0.8 0.5-1.4 1.3-1.4 0.2 0 0.3 0 0.4 0.1 0.1 0.1 0.1 0.2 0.1 0.4v0.6l1.3-0.1v-2.1c-0.5-0.2-0.9-0.3-1.3-0.3 -0.9 0-1.7 0.6-2 1.3v-1h-2.4v1.1l0.6 0c0.3 0 0.4 0.1 0.4 0.4V277.4zM-214.6 272h-2.5v1.2l0.5 0c0.3 0 0.3 0.1 0.3 0.4v3.9c0 0.3-0.2 0.4-0.4 0.4l-0.5 0v1.1h3.3v-1.1l-0.8 0V272zM-216.6 270c0 0.6 0.4 1 1.1 1 0.6 0 1.1-0.4 1.1-1 0-0.6-0.4-1-1.1-1C-216.2 269-216.6 269.4-216.6 270L-216.6 270zM-209.5 271.7c-2.3 0-3.5 1.8-3.5 3.9 0 2.1 0.9 3.5 3.3 3.5 1.3 0 2.2-0.6 2.5-0.8l-0.5-1.1c-0.3 0.2-0.9 0.6-1.8 0.6 -1.2 0-1.7-0.7-1.7-1.7 1.7 0 4-0.4 4-2.5C-207.2 272.4-208.1 271.7-209.5 271.7L-209.5 271.7zM-208.7 273.7c0 1.1-1.5 1.3-2.5 1.3 0-1 0.5-2.1 1.7-2.1C-209.1 272.9-208.7 273.2-208.7 273.7L-208.7 273.7zM-202.5 273c0.3 0.1 0.3 0.2 0.3 0.5v0.6l1.3-0.1v-1.7c-0.5-0.3-1.4-0.6-2.3-0.6 -1.5 0-2.7 0.8-2.7 2.2 0 1.6 1.1 1.9 2.2 2.2 0.8 0.2 1.4 0.3 1.4 1 0 0.6-0.4 0.9-1.1 0.9 -0.3 0-0.7 0-0.9-0.1 -0.3-0.1-0.3-0.2-0.3-0.5v-0.7l-1.3 0.1v1.9c0.6 0.3 1.7 0.4 2.6 0.4 1.5 0 2.7-0.8 2.7-2.2 0-1.5-1.2-1.9-2.3-2.2 -0.7-0.2-1.3-0.4-1.3-1 0-0.6 0.4-0.8 1.1-0.8C-203 272.9-202.8 272.9-202.5 273L-202.5 273z"/>
        </g>
      </g>
    </g>
  </g>
</svg>
