<svg xmlns="http://www.w3.org/2000/svg" version="1.1" x="0" y="0" width="111" height="112" viewBox="-344 180 111 112" xml:space="preserve"><style type="text/css">
	.st0{fill:#FFFFFF;}
	.st1{fill:#313133;}
</style><title>Hatchback</title><desc>Created with Sketch.</desc><g transform="translate(-320.000000, -807.000000)"><g transform="translate(-43.000000, 537.000000)"><g transform="translate(227.000000, 242.000000)"><g transform="translate(132.000000, 20.000000)"><path class="st0" d="M-284.5 188.2c-30.6 0-55.5 24.9-55.5 55.5 0 30.6 24.9 55.5 55.5 55.5 30.6 0 55.5-24.9 55.5-55.5C-229 213.1-253.9 188.2-284.5 188.2z"/><path class="st1" d="M-306.3 236.9c-3.3 0-5.9 2.7-5.9 6 0 3.3 2.7 6 5.9 6 3.3 0 5.9-2.7 5.9-6C-300.3 239.6-303 236.9-306.3 236.9L-306.3 236.9zM-306.3 246.4c-2 0-3.5-1.6-3.5-3.6s1.6-3.6 3.5-3.6c2 0 3.6 1.6 3.6 3.6S-304.3 246.4-306.3 246.4L-306.3 246.4zM-259.4 236.9c-3.3 0-5.9 2.7-5.9 6 0 3.3 2.7 6 5.9 6 3.3 0 5.9-2.7 5.9-6C-253.5 239.6-256.1 236.9-259.4 236.9L-259.4 236.9zM-259.4 246.4c-2 0-3.5-1.6-3.5-3.6s1.6-3.6 3.5-3.6c2 0 3.6 1.6 3.6 3.6S-257.4 246.4-259.4 246.4L-259.4 246.4zM-252.2 231.9l-8.8-1.6 -1.3-0.8c-13.6-9.1-29-7.9-29-7.9 -10 0.1-18.4 1.4-18.4 1.4l0.8 0.9c-9.7 5.4-9.2 15.5-9.2 15.5 0 4.3 2.3 4 2.3 4h2.2c0-0.2 0-0.3 0-0.5 0-4.1 3.3-7.4 7.3-7.4 4 0 7.3 3.3 7.3 7.4 0 0.9-0.2 1.7-0.4 2.5h33.1c-0.3-0.8-0.4-1.6-0.4-2.5 0-4.1 3.3-7.4 7.3-7.4 4 0 7.3 3.3 7.3 7.4 0 0.9-0.2 1.7-0.4 2.5h7.2v-6.8C-245.3 232.7-252.2 231.9-252.2 231.9L-252.2 231.9zM-300.3 234.2h2.7v1h-2.7V234.2zM-303.5 230.7c0 0-2.4-0.7-0.6-3.1 0 0 2.4-4.4 11.8-4.1l0.9 7.2H-303.5L-303.5 230.7zM-287.9 234.2h2.7v1h-2.7V234.2zM-271 230.7h-18.3l-1.1-7.2c15-0.3 19.3 3.9 19.3 3.9V230.7L-271 230.7zM-267 230.7h-2.4v-2.5l2.6 1.4C-266.1 230.5-267 230.7-267 230.7L-267 230.7zM-288.3 234.4h3.1v1.1h-3.1V234.4z"/><path class="st1" d="M-311.7 266.5c0 0.3-0.1 0.4-0.4 0.5l-0.5 0v1.1h3.4V267l-0.8 0v-6.5c0-0.3 0.2-0.4 0.4-0.4l0.5 0v-1.1h-3.4v1.2l0.8 0v2.6h-4v-2.2c0-0.4 0.2-0.4 0.4-0.5l0.5 0v-1.1h-3.4v1.2l0.8 0v6.5c0 0.3-0.2 0.4-0.4 0.4l-0.5 0v1.1h3.4V267l-0.8 0v-2.8h4V266.5zM-302 261.4c-1-0.4-2-0.5-2.5-0.5 -2.5 0-3.7 1.6-3.7 4 0 2 0.8 3.4 2.8 3.4 0.8 0 1.5-0.4 1.9-1l0 0v0.8h2.2v-1.1l-0.4 0c-0.3 0-0.4-0.1-0.4-0.4V261.4zM-303.6 266c0 0.6-0.5 1.2-1.4 1.2 -1.2 0-1.5-1.1-1.5-2.3 0-1.5 0.4-2.8 1.8-2.8 0.4 0 0.9 0.1 1.1 0.2V266zM-299 259.7c-0.3 0.8-0.6 1.6-1.6 1.6l-0.1 1h1v3.7c0 1 0 2.3 2.2 2.3 0.7 0 1.4-0.2 1.8-0.5l-0.4-1.1c-0.2 0.1-0.6 0.3-1 0.3 -0.6 0-0.9-0.3-0.9-1.1v-3.7h1.7l0.1-1.2h-1.9v-1.5H-299zM-291.8 267.1c-1.2 0-1.8-1-1.8-2.5 0-1.6 0.6-2.4 1.7-2.4 0.2 0 0.4 0 0.5 0.1 0.3 0.1 0.3 0.2 0.3 0.5v0.7l1.3-0.1v-1.8c-0.7-0.4-1.3-0.6-2.2-0.6 -1.6 0-3.3 1-3.3 3.8 0 2.3 1.2 3.6 3.3 3.6 1 0 1.9-0.4 2.4-0.8l-0.6-1.1C-290.8 266.9-291.3 267.1-291.8 267.1L-291.8 267.1zM-287.9 266.6c0 0.4-0.1 0.4-0.4 0.5l-0.5 0v1.1h3.3v-1.1l-0.8 0v-3.4c0-0.7 0.5-1.4 1.5-1.4 0.9 0 1.1 0.7 1.1 1.5v2.9c0 0.4-0.1 0.4-0.4 0.5l-0.5 0v1.1h3.3v-1.1l-0.8 0v-3.7c0-1.7-0.8-2.4-2.2-2.4 -0.9 0-1.6 0.4-2 1v-3.8h-2.5v1.2l0.5 0c0.3 0 0.4 0.1 0.4 0.4V266.6zM-279.7 267.8c0.6 0.3 1.8 0.6 2.8 0.6 2.3 0 3.4-1.3 3.4-4 0-2.2-1.1-3.4-2.9-3.4 -0.7 0-1.3 0.2-1.7 0.6v-3.3h-2.5v1.2l0.5 0c0.2 0 0.4 0.1 0.4 0.3V267.8zM-278.1 263.2c0-0.6 0.6-1 1.3-1 1.3 0 1.6 1.3 1.6 2.4 0 1.9-0.6 2.6-1.6 2.6 -0.5 0-1-0.1-1.2-0.3V263.2zM-266.3 261.4c-1-0.4-2-0.5-2.5-0.5 -2.5 0-3.7 1.6-3.7 4 0 2 0.8 3.4 2.8 3.4 0.8 0 1.5-0.4 1.9-1l0 0v0.8h2.2v-1.1l-0.4 0c-0.3 0-0.4-0.1-0.4-0.4V261.4zM-267.9 266c0 0.6-0.5 1.2-1.4 1.2 -1.2 0-1.5-1.1-1.5-2.3 0-1.5 0.4-2.8 1.8-2.8 0.4 0 0.9 0.1 1.1 0.2V266zM-261.1 267.1c-1.2 0-1.8-1-1.8-2.5 0-1.6 0.6-2.4 1.7-2.4 0.2 0 0.4 0 0.5 0.1 0.3 0.1 0.3 0.2 0.3 0.5v0.7l1.3-0.1v-1.8c-0.7-0.4-1.3-0.6-2.2-0.6 -1.6 0-3.3 1-3.3 3.8 0 2.3 1.2 3.6 3.3 3.6 1 0 1.9-0.4 2.4-0.8l-0.6-1.1C-260.1 266.9-260.6 267.1-261.1 267.1L-261.1 267.1zM-257.2 266.6c0 0.4-0.1 0.4-0.4 0.5l-0.5 0v1.1h3.3v-1.1l-0.8 0h0v-1.6c0.3 0 0.7-0.1 1-0.2l1.6 2.9h2v-1.1l-0.9 0 -1.4-2.5c0.7-0.6 1.1-1.3 1.2-2.3l0.7 0v-1.1h-2.9v1.1l0.5 0c0.2 0 0.3 0.1 0.2 0.5 -0.3 0.9-1.1 1.4-2.1 1.5v-6.1h-2.5v1.2l0.5 0c0.3 0 0.3 0.1 0.3 0.4V266.6z"/></g></g></g></g></svg>