<svg xmlns="http://www.w3.org/2000/svg" version="1.1" x="0" y="0" width="47" height="41" viewBox="-376 215 47 41" xml:space="preserve"><style type="text/css">
	.st0{fill:#A8A8A8;}
</style><title>help icon</title><desc>Created with Sketch.</desc><g transform="translate(-1027.000000, -294.000000)"><g transform="translate(-2.000000, -127.000000)"><g transform="translate(459.000000, 408.000000)"><path class="st0" d="M217.5 228c-13 0-23.5 7.9-23.5 17.6 0 6 4.1 11.4 10.3 14.5 0 0 0 0.1 0 0.1 0 2.6-2 5.5-2.8 6.9h0c-0.1 0.2-0.1 0.3-0.1 0.5 0 0.7 0.6 1.3 1.3 1.3 0.1 0 0.4 0 0.4 0 4.6-0.7 8.9-5 9.9-6.2 1.5 0.2 3 0.3 4.5 0.3 13 0 23.5-7.9 23.5-17.6C241 235.9 230.5 228 217.5 228L217.5 228zM213.4 260.2c-0.1 0-0.3 0-0.4 0 -0.9 0-1.7 0.4-2.3 1.1 -0.6 0.8-2.4 2.5-4.5 3.7 0.6-1.3 1-2.8 1-4.3 0-0.1 0-0.2 0-0.3 0-1.1-0.6-2.1-1.6-2.6 -5.4-2.8-8.7-7.3-8.7-12 0-8.1 9.2-14.8 20.5-14.8 11.3 0 20.5 6.6 20.5 14.8s-9.2 14.8-20.5 14.8C216.2 260.5 214.8 260.4 213.4 260.2z"/></g></g></g></svg>