<svg xmlns="http://www.w3.org/2000/svg" version="1.1" x="0" y="0" width="19" height="19" viewBox="-390 226 19 19" xml:space="preserve"><style type="text/css">
	.st0{fill:#A4A4A4;}
	.st1{enable-background:new    ;}
	.st2{fill:#FFFFFF;}
</style><title>help icon 2</title><desc>Created with Sketch.</desc><g transform="translate(-834.000000, -907.000000)"><g transform="translate(-2.000000, -127.000000)"><g transform="translate(465.000000, 451.000000)"><g transform="translate(371.000000, 583.000000)"><circle class="st0" cx="-380.5" cy="235.5" r="9.5"/><g class="st1"><path class="st2" d="M-383.4 233c0.1-0.4 0.3-0.7 0.6-0.9 0.3-0.3 0.6-0.5 0.9-0.6 0.4-0.1 0.8-0.2 1.2-0.2 0.6 0 1 0.1 1.4 0.2 0.4 0.2 0.7 0.4 0.9 0.6 0.2 0.2 0.4 0.5 0.5 0.8 0.1 0.3 0.1 0.5 0.1 0.8 0 0.4 0 0.7-0.1 0.9 -0.1 0.1-0.2 0.4-0.3 0.5 -0.1 0.1-0.3 0.3-0.5 0.5 -0.2 0.1-0.3 0.2-0.5 0.4 -0.2 0.2-0.3 0.3-0.4 0.4 -0.1 0.1-0.2 0.4-0.2 0.6v0.5h-1.7V237c0-0.3 0.1-0.6 0.2-0.9 0.1-0.2 0.2-0.4 0.4-0.6 0.1-0.2 0.3-0.4 0.4-0.5 0.2-0.1 0.3-0.2 0.5-0.4 0.1-0.1 0.2-0.3 0.3-0.4 0.1-0.1 0.1-0.3 0.1-0.5 0-0.4-0.1-0.6-0.3-0.8 -0.1-0.2-0.4-0.3-0.7-0.3 -0.2 0-0.4 0-0.6 0.1 -0.1 0.1-0.3 0.3-0.4 0.4 -0.1 0.1-0.1 0.3-0.2 0.5 0 0.2-0.1 0.4-0.1 0.6h-1.7C-383.6 233.8-383.5 233.4-383.4 233zM-379.8 238.2v1.8h-1.9v-1.8H-379.8z"/></g></g></g></g></g></svg>