<svg xmlns:sketch="http://www.bohemiancoding.com/sketch/ns" xmlns="http://www.w3.org/2000/svg" xmlns:xlink="http://www.w3.org/1999/xlink" version="1.1" id="Layer_1" x="0" y="0" width="81" height="81" viewBox="-1377 431.9 81 81" xml:space="preserve" enable-background="new -1377 431.9 81 81">
  <style type="text/css">
    
	.st0{fill:#313133;}
	.st1{fill:none;stroke:#B0D253;stroke-width:2;}
	.st2{fill:none;stroke:#B0D253;stroke-width:1.5;stroke-linecap:round;stroke-linejoin:round;stroke-dasharray:1,4;}
	.st3{fill:#A8DC28;}

  </style>
  <title>
    Mileage
  </title>
  <desc>
    Created with Sketch.
  </desc>
  <g id="Ad-details" sketch:type="MSPage">
    <g id="Desktop-HD-Ad-details-19" transform="translate(-412.000000, -1747.000000)" sketch:type="MSArtboardGroup">
      <g id="Ad-preview" transform="translate(183.000000, 447.000000)" sketch:type="MSLayerGroup">
        <g id="ad" transform="translate(0.000000, 22.000000)" sketch:type="MSShapeGroup">
          <g id="Details" transform="translate(0.000000, 914.000000)">
            <g id="Table" transform="translate(26.000000, 317.000000)">
              <g id="Mileage" transform="translate(205.000000, 49.000000)">
                <path id="Fill-1" class="st0" d="M-1300.1 470.5c0-21.2-17.2-38.4-38.4-38.4 -21.2 0-38.4 17.2-38.4 38.4 0 21.2 17.2 38.4 38.4 38.4C-1317.4 508.9-1300.1 491.7-1300.1 470.5z"/>
                <path id="Stroke-3" class="st1" d="M-1338.5 508.9c21.2 0 38.4-17.2 38.4-38.4 0-21.2-17.2-38.4-38.4-38.4 -21.2 0-38.4 17.2-38.4 38.4C-1376.9 491.7-1359.7 508.9-1338.5 508.9L-1338.5 508.9z"/>
                <path id="Stroke-6" class="st2" d="M-1307.9 485.3c2.2-4.5 3.4-9.5 3.4-14.8 0-18.8-15.3-34-34-34s-34 15.3-34 34c0 14.6 9.3 27.1 22.3 31.9 3.7 1.3 7.6 2.1 11.7 2.1C-1325.1 504.5-1313.4 496.7-1307.9 485.3z"/>
                <path id="Stroke-15" class="st2" d="M-1377 431.9"/>
                <path id="Imported-Layers" class="st3" d="M-1338.6 453.3c-8.9 0-16.1 7.2-16.1 16.1 0 0.5 0.4 0.8 0.8 0.8 0.5 0 0.8-0.4 0.8-0.8 0-0.7 0-1.4 0.1-2l2.4 0.4c0 0 0.1 0 0.1 0 0.3 0 0.5-0.2 0.6-0.5 0.1-0.3-0.1-0.6-0.5-0.6l-2.4-0.4c0.3-1.3 0.7-2.5 1.3-3.6l2.1 1.2c0.1 0.1 0.2 0.1 0.3 0.1 0.2 0 0.4-0.1 0.5-0.3 0.2-0.3 0.1-0.6-0.2-0.8l-2.1-1.2c0.7-1.1 1.5-2.1 2.5-2.9l1.6 1.9c0.1 0.1 0.3 0.2 0.4 0.2 0.1 0 0.3 0 0.4-0.1 0.2-0.2 0.3-0.6 0.1-0.8l-1.6-1.9c1-0.8 2.1-1.4 3.4-1.9l0.8 2.3c0.1 0.2 0.3 0.4 0.5 0.4 0.1 0 0.1 0 0.2 0 0.3-0.1 0.4-0.4 0.3-0.7l-0.8-2.3c1.2-0.4 2.5-0.6 3.8-0.7v2.5c0 0.3 0.3 0.6 0.6 0.6s0.6-0.3 0.6-0.6v-2.5c1.3 0.1 2.6 0.3 3.8 0.7l-0.9 2.4c-0.1 0.3 0 0.6 0.3 0.7 0.1 0 0.1 0 0.2 0 0.2 0 0.4-0.1 0.5-0.4l0.9-2.4c1.2 0.5 2.3 1.2 3.4 2l-1.6 1.9c-0.2 0.2-0.2 0.6 0.1 0.8 0.1 0.1 0.2 0.1 0.4 0.1 0.2 0 0.3-0.1 0.4-0.2l1.6-1.9c1 0.9 1.8 1.9 2.5 3l-2.2 1.3c-0.3 0.2-0.4 0.5-0.2 0.8 0.1 0.2 0.3 0.3 0.5 0.3 0.1 0 0.2 0 0.3-0.1l2.2-1.3c0.6 1.1 1.1 2.4 1.3 3.7l-2.5 0.4c-0.3 0.1-0.5 0.3-0.5 0.6 0 0.3 0.3 0.5 0.6 0.5 0 0 0.1 0 0.1 0l2.5-0.4c0.1 0.6 0.1 1.2 0.1 1.9 0 0.5 0.4 0.8 0.8 0.8 0.5 0 0.8-0.4 0.8-0.8C-1322.6 460.5-1329.8 453.3-1338.6 453.3L-1338.6 453.3zM-1338.6 447.9c-11.8 0-21.4 9.6-21.4 21.4 0 11.8 9.6 21.4 21.4 21.4s21.4-9.6 21.4-21.4C-1317.2 457.5-1326.8 447.9-1338.6 447.9L-1338.6 447.9zM-1338.6 479.3c-1.8 0-3.3-1.5-3.3-3.3 0-1.8 1.5-3.3 3.3-3.3s3.3 1.5 3.3 3.3C-1335.3 477.9-1336.8 479.3-1338.6 479.3L-1338.6 479.3zM-1334 472.5c-0.1-0.1-0.2-0.2-0.3-0.3l2.8-8.3 -5.7 6.5c-0.5-0.1-0.9-0.2-1.4-0.2 -1.9 0-3.6 0.9-4.6 2.3h-13.2c-0.2-1-0.3-2.1-0.3-3.1 0-10 8.1-18.1 18.1-18.1 10 0 18.1 8.1 18.1 18.1 0 1.1-0.1 2.1-0.3 3.1H-1334L-1334 472.5z"/>
              </g>
            </g>
          </g>
        </g>
      </g>
    </g>
  </g>
</svg>
