<svg xmlns:sketch="http://www.bohemiancoding.com/sketch/ns" xmlns="http://www.w3.org/2000/svg" xmlns:xlink="http://www.w3.org/1999/xlink" version="1.1" id="Layer_1" x="0" y="0" width="81" height="81" viewBox="0 0 81 81" xml:space="preserve" enable-background="new 0 0 81 81">
  <style type="text/css">
    
	.st0{fill:#313133;}
	.st1{fill:none;stroke:#B0D253;stroke-width:2;}
	.st2{fill:none;stroke:#B0D253;stroke-width:1.5;stroke-linecap:round;stroke-linejoin:round;stroke-dasharray:1,4;}
	.st3{fill:#A8DC28;}

  </style>
  <title>
    Engine size
  </title>
  <desc>
    Created with Sketch.
  </desc>
  <g id="Ad-details" sketch:type="MSPage">
    <g id="Desktop-HD-Ad-details-19" transform="translate(-743.000000, -1747.000000)" sketch:type="MSArtboardGroup">
      <g id="Ad-preview" transform="translate(183.000000, 447.000000)" sketch:type="MSLayerGroup">
        <g id="ad" transform="translate(0.000000, 22.000000)" sketch:type="MSShapeGroup">
          <g id="Details" transform="translate(0.000000, 914.000000)">
            <g id="Table" transform="translate(26.000000, 317.000000)">
              <g id="Engine-size" transform="translate(536.000000, 49.000000)">
                <path id="Fill-1" class="st0" d="M76.9 38.6c0-21.2-17.2-38.4-38.4-38.4S0.1 17.4 0.1 38.6C0.1 59.8 17.3 77 38.5 77S76.9 59.8 76.9 38.6z"/>
                <path id="Stroke-3" class="st1" d="M38.5 77c21.2 0 38.4-17.2 38.4-38.4 0-21.2-17.2-38.4-38.4-38.4S0.1 17.4 0.1 38.6C0.1 59.8 17.3 77 38.5 77L38.5 77z"/>
                <path id="Stroke-6" class="st2" d="M69.1 53.4c2.2-4.5 3.4-9.5 3.4-14.8 0-18.8-15.3-34-34-34s-34 15.3-34 34c0 14.6 9.3 27.1 22.3 31.9 3.7 1.3 7.6 2.1 11.7 2.1C51.9 72.6 63.6 64.8 69.1 53.4z"/>
                <path id="Stroke-15" class="st2" d="M0 0"/>
                <g id="engine" transform="translate(22.000000, 18.000000)">
                  <path id="Fill-1_1_" class="st3" d="M4.2 8.7L0.6 9.4v1.9L4.3 12c0.2 0.6 0.5 1.1 0.8 1.7l-2 3L4.4 18 7.5 16c0.5 0.3 1.1 0.5 1.7 0.6l0.7 3.5h1.9l0.7-3.6c0.6-0.2 1.1-0.4 1.6-0.7l3 2 1.3-1.3 -2.1-3.1c0.3-0.5 0.5-1.1 0.6-1.7l3.5-0.7V9.1L17 8.3c-0.2-0.6-0.4-1.1-0.7-1.7l2-3 -1.3-1.3 -3.1 2c-0.5-0.3-1.1-0.5-1.7-0.7l-0.7-3.6H9.6L8.8 3.8C8.2 4 7.7 4.2 7.2 4.5l-3-2L2.8 3.9l2 3.1C4.6 7.5 4.3 8.1 4.2 8.7L4.2 8.7zM7.8 10.2c0-1.6 1.3-2.8 2.8-2.8s2.8 1.3 2.8 2.8S12.2 13 10.7 13 7.8 11.7 7.8 10.2L7.8 10.2z"/>
                  <path id="Fill-2" class="st3" d="M25.4 28.8l2.5-3.4c0.7 0.1 1.4 0.1 2.1 0l2.2 3.5 2-0.7L33.5 24c0.5-0.4 1-0.9 1.5-1.4l4 1 0.9-2L36.5 19c0.1-0.7 0.1-1.4 0-2.1l3.5-2.2 -0.7-2 -4.2 0.7c-0.4-0.6-0.9-1-1.4-1.5l0.9-4L32.6 7l-2.5 3.4c-0.7-0.1-1.4-0.1-2.1 0l-2.2-3.5 -2 0.7 0.6 4.2c-0.5 0.4-1 0.9-1.5 1.4l-4-1 -0.9 2 3.4 2.5c-0.1 0.7-0.1 1.4 0 2.1L18.1 21l0.7 2 4.2-0.7c0.4 0.6 0.9 1 1.4 1.5l-0.9 4L25.4 28.8 25.4 28.8zM26.1 16.6c0.7-1.6 2.7-2.3 4.3-1.6 1.6 0.8 2.3 2.7 1.6 4.3 -0.7 1.6-2.7 2.3-4.3 1.6C26.1 20.1 25.4 18.2 26.1 16.6L26.1 16.6z"/>
                  <path id="Fill-3" class="st3" d="M8.1 42l2.3-3.6c0.7 0.1 1.4 0 2.1-0.1l2.3 3.4 2-0.9 -0.9-4.1c0.5-0.4 1-0.9 1.4-1.5l4 0.7 0.8-2 -3.5-2.3c0.1-0.7 0-1.4-0.1-2.1l3.4-2.4 -0.8-2 -4.1 0.9c-0.4-0.5-0.9-1-1.5-1.4l0.7-4.1 -2-0.8 -2.3 3.6c-0.7-0.1-1.4 0-2.1 0.1l-2.3-3.4 -2 0.9 0.9 4.1c-0.5 0.4-1 0.9-1.4 1.5l-4-0.7 -0.8 2 3.5 2.3c-0.1 0.7 0 1.4 0.1 2.1l-3.4 2.4 0.8 2 4.1-0.9c0.4 0.5 0.9 1 1.5 1.4l-0.7 4.1L8.1 42 8.1 42zM8.1 29.7c0.7-1.7 2.5-2.5 4.2-1.8 1.7 0.7 2.5 2.5 1.8 4.2 -0.7 1.7-2.5 2.5-4.2 1.8C8.3 33.2 7.5 31.4 8.1 29.7L8.1 29.7z"/>
                </g>
              </g>
            </g>
          </g>
        </g>
      </g>
    </g>
  </g>
</svg>
