<svg xmlns:sketch="http://www.bohemiancoding.com/sketch/ns" xmlns="http://www.w3.org/2000/svg" xmlns:xlink="http://www.w3.org/1999/xlink" version="1.1" id="Layer_1" x="0" y="0" width="81" height="81" viewBox="-1377 431.9 81 81" xml:space="preserve" enable-background="new -1377 431.9 81 81">
  <style type="text/css">
    
	.st0{fill:#313133;}
	.st1{fill:none;stroke:#B0D253;stroke-width:2;}
	.st2{fill:none;stroke:#B0D253;stroke-width:1.5;stroke-linecap:round;stroke-linejoin:round;stroke-dasharray:1,4;}
	.st3{fill:#A8DC28;}

  </style>
  <title>
    Reg year
  </title>
  <desc>
    Created with Sketch.
  </desc>
  <g id="Ad-details" sketch:type="MSPage">
    <g id="Desktop-HD-Ad-details-19" transform="translate(-251.000000, -1747.000000)" sketch:type="MSArtboardGroup">
      <g id="Ad-preview" transform="translate(183.000000, 447.000000)" sketch:type="MSLayerGroup">
        <g id="ad" transform="translate(0.000000, 22.000000)" sketch:type="MSShapeGroup">
          <g id="Details" transform="translate(0.000000, 914.000000)">
            <g id="Table" transform="translate(26.000000, 317.000000)">
              <g id="Reg-year" transform="translate(44.000000, 49.000000)">
                <path id="Fill-1" class="st0" d="M-1300.1 470.5c0-21.2-17.2-38.4-38.4-38.4 -21.2 0-38.4 17.2-38.4 38.4 0 21.2 17.2 38.4 38.4 38.4C-1317.4 508.9-1300.1 491.7-1300.1 470.5z"/>
                <path id="Stroke-3" class="st1" d="M-1338.5 508.9c21.2 0 38.4-17.2 38.4-38.4 0-21.2-17.2-38.4-38.4-38.4 -21.2 0-38.4 17.2-38.4 38.4C-1376.9 491.7-1359.7 508.9-1338.5 508.9L-1338.5 508.9z"/>
                <path id="Stroke-6" class="st2" d="M-1307.9 485.3c2.2-4.5 3.4-9.5 3.4-14.8 0-18.8-15.3-34-34-34s-34 15.3-34 34c0 14.6 9.3 27.1 22.3 31.9 3.7 1.3 7.6 2.1 11.7 2.1C-1325.1 504.5-1313.4 496.7-1307.9 485.3z"/>
                <path id="Stroke-15" class="st2" d="M-1377 431.9"/>
                <path id="Imported-Layers" class="st3" d="M-1322.7 457.2h-5.8v-2.9c0-1.3-1-2.4-2.3-2.4 -1.3 0-2.3 1.1-2.3 2.4v2.9h-10.5v-2.9c0-1.3-1-2.4-2.3-2.4 -1.3 0-2.3 1.1-2.3 2.4v2.9h-5.8c-1 0-1.8 0.8-1.8 1.8v25.6c0 1 0.8 1.8 1.8 1.8h31.6c1 0 1.8-0.8 1.8-1.8v-25.6C-1320.9 458-1321.7 457.2-1322.7 457.2L-1322.7 457.2zM-1345.2 465.1h5.6v4.7h-5.6V465.1zM-1337.3 465.1h5.6v4.7h-5.6V465.1zM-1352.5 465.1h5v4.7h-5V465.1zM-1352.5 472.1h5v3.5h-5V472.1zM-1345.2 472.1h5.6v3.5h-5.6V472.1zM-1345.2 478h5.6v4.8h-5.6V478zM-1337.3 478h5.6v4.8h-5.6V478zM-1337.3 472.1h5.6v3.5h-5.6V472.1zM-1329.4 472.1h5v3.5h-5V472.1zM-1329.4 465.1h5v4.7h-5V465.1zM-1352.5 478h5v4.8h-5V478zM-1329.4 478h5v4.8h-5V478z"/>
              </g>
            </g>
          </g>
        </g>
      </g>
    </g>
  </g>
</svg>
