<svg xmlns="http://www.w3.org/2000/svg" version="1.1" x="0" y="0" width="21" height="19" viewBox="-389 226 21 19" xml:space="preserve"><style type="text/css">
	.st0{fill:#A8A8A8;}
	.st1{enable-background:new    ;}
	.st2{fill:#FFFFFF;}
</style><title>info icon</title><desc>Created with Sketch.</desc><g transform="translate(-726.000000, -1133.000000)"><g transform="translate(-2.000000, -127.000000)"><g transform="translate(465.000000, 451.000000)"><g transform="translate(111.000000, 745.000000)"><g transform="translate(153.000000, 64.000000)"><ellipse class="st0" cx="-379.4" cy="235.5" rx="9.9" ry="9.5"/><g class="st1"><path class="st2" d="M-378.9 238.9h0.7v1h-3.1v-1h0.4c0.2 0 0.4-0.1 0.4-0.4v-3.6c0-0.3-0.1-0.4-0.3-0.4h-0.5v-1h2.3v5.4H-378.9zM-379.8 230.7c0.6 0 1 0.4 1 1 0 0.6-0.4 0.9-1 0.9 -0.6 0-1-0.4-1-0.9S-380.4 230.7-379.8 230.7z"/></g></g></g></g></g></g></svg>