<svg xmlns:sketch="http://www.bohemiancoding.com/sketch/ns" xmlns="http://www.w3.org/2000/svg" xmlns:xlink="http://www.w3.org/1999/xlink" version="1.1" id="Layer_1" x="0" y="0" width="81" height="81" viewBox="-1377 431.9 81 81" xml:space="preserve" enable-background="new -1377 431.9 81 81">
  <style type="text/css">
    
	.st0{fill:#313133;}
	.st1{fill:none;stroke:#B0D253;stroke-width:2;}
	.st2{fill:none;stroke:#B0D253;stroke-width:1.5;stroke-linecap:round;stroke-linejoin:round;stroke-dasharray:1,4;}
	.st3{fill:#A8DC28;}

  </style>
  <title>
    Fuel type
  </title>
  <desc>
    Created with Sketch.
  </desc>
  <g id="Ad-details" sketch:type="MSPage">
    <g id="Desktop-HD-Ad-details-19" transform="translate(-576.000000, -1747.000000)" sketch:type="MSArtboardGroup">
      <g id="Ad-preview" transform="translate(183.000000, 447.000000)" sketch:type="MSLayerGroup">
        <g id="ad" transform="translate(0.000000, 22.000000)" sketch:type="MSShapeGroup">
          <g id="Details" transform="translate(0.000000, 914.000000)">
            <g id="Table" transform="translate(26.000000, 317.000000)">
              <g id="Fuel-type" transform="translate(369.000000, 49.000000)">
                <path id="Fill-1" class="st0" d="M-1300.1 470.5c0-21.2-17.2-38.4-38.4-38.4 -21.2 0-38.4 17.2-38.4 38.4 0 21.2 17.2 38.4 38.4 38.4C-1317.4 508.9-1300.1 491.7-1300.1 470.5z"/>
                <path id="Stroke-3" class="st1" d="M-1338.5 508.9c21.2 0 38.4-17.2 38.4-38.4 0-21.2-17.2-38.4-38.4-38.4 -21.2 0-38.4 17.2-38.4 38.4C-1376.9 491.7-1359.7 508.9-1338.5 508.9L-1338.5 508.9z"/>
                <path id="Stroke-6" class="st2" d="M-1307.9 485.3c2.2-4.5 3.4-9.5 3.4-14.8 0-18.8-15.3-34-34-34s-34 15.3-34 34c0 14.6 9.3 27.1 22.3 31.9 3.7 1.3 7.6 2.1 11.7 2.1C-1325.1 504.5-1313.4 496.7-1307.9 485.3z"/>
                <path id="Stroke-15" class="st2" d="M-1377 431.9"/>
                <path id="Imported-Layers" class="st3" d="M-1324.6 458.5l-4.9-3.6c-0.8-0.6-2.4-1.1-3.4-1.1h-15.2c-0.2 0-0.5 0-0.7 0.1l-2.9-3h-6.4v3.8h4.8l3.3 3.4v29.5c0 1.1 0.8 1.9 1.9 1.9h23.1c1 0 1.9-0.9 1.9-1.9v-26.1C-1323 460.5-1323.7 459.1-1324.6 458.5L-1324.6 458.5zM-1344.7 468.3c0.1-0.1 0.4-0.1 0.5 0l2.6 2.6c0.1 0.1 0.1 0.4 0 0.5 -0.1 0.1-0.2 0.1-0.3 0.1 -0.1 0-0.2 0-0.3-0.1l-2.6-2.6C-1344.8 468.7-1344.8 468.4-1344.7 468.3L-1344.7 468.3zM-1341.6 482.5l-2.6 2.6c-0.1 0.1-0.2 0.1-0.3 0.1 -0.1 0-0.2 0-0.3-0.1 -0.1-0.1-0.1-0.4 0-0.5l2.6-2.6c0.1-0.1 0.4-0.1 0.5 0C-1341.4 482.1-1341.4 482.3-1341.6 482.5L-1341.6 482.5zM-1332.4 482h-8.2c-0.6 0-1.1-0.5-1.1-1.1v-8.4c0-0.6 0.5-1.1 1.1-1.1h8.2c0.6 0 1.1 0.5 1.1 1.1v8.4C-1331.3 481.5-1331.8 482-1332.4 482L-1332.4 482zM-1328.3 485.1c-0.1 0.1-0.2 0.1-0.3 0.1 -0.1 0-0.2 0-0.3-0.1l-2.6-2.6c-0.1-0.1-0.1-0.4 0-0.5 0.1-0.1 0.4-0.1 0.5 0l2.6 2.6C-1328.1 484.7-1328.1 484.9-1328.3 485.1L-1328.3 485.1zM-1328.3 468.8l-2.6 2.6c-0.1 0.1-0.2 0.1-0.3 0.1 -0.1 0-0.2 0-0.3-0.1 -0.1-0.1-0.1-0.4 0-0.5l2.6-2.6c0.1-0.1 0.4-0.1 0.5 0C-1328.1 468.4-1328.1 468.7-1328.3 468.8L-1328.3 468.8zM-1327.2 461.4h-11.7c-0.4 0-0.7-0.3-0.7-0.8v-2.9c0-0.4 0.3-0.8 0.7-0.8h5c0.4 0 1 0.2 1.4 0.4l5.5 3.6C-1326.8 461.2-1326.8 461.4-1327.2 461.4L-1327.2 461.4zM-1332.4 472.1h-8.2c-0.2 0-0.4 0.2-0.4 0.4v8.4c0 0.2 0.2 0.4 0.4 0.4h8.2c0.2 0 0.4-0.2 0.4-0.4v-8.4C-1332 472.3-1332.2 472.1-1332.4 472.1L-1332.4 472.1z"/>
              </g>
            </g>
          </g>
        </g>
      </g>
    </g>
  </g>
</svg>
