<svg xmlns:sketch="http://www.bohemiancoding.com/sketch/ns" xmlns="http://www.w3.org/2000/svg" xmlns:xlink="http://www.w3.org/1999/xlink" version="1.1" id="Layer_1" x="0px" y="0px" width="81px" height="81px" viewBox="0 0 81 81" xml:space="preserve" enable-background="new 0 0 81 81">
  <style type="text/css">
    
	.st0{fill:#313133;}
	.st1{fill:#A8DC28;}
	.st2{fill:none;stroke:#B0D253;stroke-width:2;}
	.st3{fill:none;stroke:#B0D253;stroke-width:1.5;stroke-linecap:round;stroke-linejoin:round;stroke-dasharray:1,4;}

  </style>
  <title>
    Ad type icon
  </title>
  <desc>
    Created with Sketch.
  </desc>
  <g id="Ad-details" sketch:type="MSPage">
    <g id="Property-rent-sale---1st-tab" transform="translate(-249.000000, -1778.000000)" sketch:type="MSArtboardGroup">
      <g id="Details" transform="translate(183.000000, 1415.000000)" sketch:type="MSLayerGroup">
        <g id="Table" transform="translate(21.000000, 314.000000)" sketch:type="MSShapeGroup">
          <g id="Ad-type-icon" transform="translate(47.000000, 51.000000)">
            <path id="Fill-1" class="st0" d="M76.9 38.6c0-21.2-17.2-38.4-38.4-38.4S0.1 17.4 0.1 38.6C0.1 59.8 17.3 77 38.5 77S76.9 59.8 76.9 38.6z"/>
            <g id="flat-icon" transform="translate(24.000000, 21.000000)">
              <path id="Rectangle-97" class="st1" d="M11.3 34.2H1.5V3.4h26.3v30.8H18v1.3h-6.8V34.2L11.3 34.2zM4.5 16.1v6h6.8v-6H4.5zM18 16.1v6h6.8v-6H18zM11.3 34.2H18v-7.4h-6.8V34.2L11.3 34.2zM0 2V0h29.3v2H0zM4.5 6.7v6h6.8v-6H4.5zM18 6.7v6h6.8v-6H18z"/>
            </g>
            <path id="Stroke-3" class="st2" d="M38.5 77c21.2 0 38.4-17.2 38.4-38.4 0-21.2-17.2-38.4-38.4-38.4S0.1 17.4 0.1 38.6C0.1 59.8 17.3 77 38.5 77L38.5 77z"/>
            <path id="Stroke-6" class="st3" d="M69.1 53.4c2.2-4.5 3.4-9.5 3.4-14.8 0-18.8-15.3-34-34-34s-34 15.3-34 34c0 14.6 9.3 27.1 22.3 31.9 3.7 1.3 7.6 2.1 11.7 2.1C51.9 72.6 63.6 64.8 69.1 53.4z"/>
            <path id="Stroke-15" class="st3" d="M0 0"/>
          </g>
        </g>
      </g>
    </g>
  </g>
</svg>
