<svg xmlns:sketch="http://www.bohemiancoding.com/sketch/ns" xmlns="http://www.w3.org/2000/svg" xmlns:xlink="http://www.w3.org/1999/xlink" version="1.1" id="Layer_1" x="0" y="0" width="81" height="81" viewBox="-359 195 81 81" xml:space="preserve" enable-background="new -359 195 81 81">
  <style type="text/css">
    
	.st0{fill:#313133;}
	.st1{fill:none;stroke:#B0D253;stroke-width:2;}
	.st2{fill:none;stroke:#B0D253;stroke-width:1.5;stroke-linecap:round;stroke-linejoin:round;stroke-dasharray:1,4;}
	.st3{fill:#A8DC28;}

  </style>
  <title>
    No rooms icon
  </title>
  <desc>
    Created with Sketch.
  </desc>
  <g id="Ad-details" sketch:type="MSPage">
    <g id="Property-rent-sale---1st-tab" transform="translate(-410.000000, -1778.000000)" sketch:type="MSArtboardGroup">
      <g id="Details" transform="translate(183.000000, 1415.000000)" sketch:type="MSLayerGroup">
        <g id="Table" transform="translate(21.000000, 314.000000)" sketch:type="MSShapeGroup">
          <g id="No-rooms-icon" transform="translate(208.000000, 51.000000)">
            <path id="Fill-1" class="st0" d="M-282.1 233.6c0-21.2-17.2-38.4-38.4-38.4 -21.2 0-38.4 17.2-38.4 38.4 0 21.2 17.2 38.4 38.4 38.4C-299.4 272-282.1 254.8-282.1 233.6z"/>
            <path id="Stroke-3" class="st1" d="M-320.5 272c21.2 0 38.4-17.2 38.4-38.4 0-21.2-17.2-38.4-38.4-38.4 -21.2 0-38.4 17.2-38.4 38.4C-358.9 254.8-341.7 272-320.5 272L-320.5 272z"/>
            <path id="Stroke-6" class="st2" d="M-289.9 248.4c2.2-4.5 3.4-9.5 3.4-14.8 0-18.8-15.3-34-34-34s-34 15.3-34 34c0 14.6 9.3 27.1 22.3 31.9 3.7 1.3 7.6 2.1 11.7 2.1C-307.1 267.6-295.4 259.8-289.9 248.4z"/>
            <path id="Stroke-15" class="st2" d="M-359 195"/>
            <g id="bed" transform="translate(14.000000, 24.000000)">
              <path id="Fill-1_1_" class="st3" d="M-313.2 215.1h-0.1c0.1-0.4 0.1-0.7 0.1-1.1 0-2.2-1.3-4.2-3.3-5v-8.4c0-3-0.8-3.8-3.8-3.8h-29.4c-3 0-3.8 0.8-3.8 3.8v8.4c-1.9 0.8-3.3 2.8-3.3 5 0 0.4 0 0.7 0.1 1.1h-0.1c-1.2 0-2.2 1-2.2 2.2 0 1.2 1 2.2 2.2 2.2h1.1v3.3c0 1.2 1 2.2 2.2 2.2 1.2 0 2.2-1 2.2-2.2v-3.3h32.7v3.3c0 1.2 1 2.2 2.2 2.2 1.2 0 2.2-1 2.2-2.2v-3.3h1.1c1.2 0 2.2-1 2.2-2.2C-311.1 216.1-312 215.1-313.2 215.1L-313.2 215.1zM-332 202.1h10.9c1.2 0 2.2 1 2.2 2.2v4.3h-15.3v-4.3C-334.2 203-333.2 202.1-332 202.1L-332 202.1zM-348.9 202.1h10.9c1.2 0 2.2 1 2.2 2.2v4.3h-15.3v-4.3C-351.1 203-350.1 202.1-348.9 202.1L-348.9 202.1z"/>
              <path id="Fill-2" class="st3" d="M-320.8 196.8c0-1 0.8-1.8 1.8-1.8s1.8 0.8 1.8 1.8c0 1-0.8 1.8-1.8 1.8S-320.8 197.8-320.8 196.8"/>
              <path id="Fill-3" class="st3" d="M-352.9 196.8c0-1 0.8-1.8 1.8-1.8s1.8 0.8 1.8 1.8c0 1-0.8 1.8-1.8 1.8S-352.9 197.8-352.9 196.8"/>
            </g>
          </g>
        </g>
      </g>
    </g>
  </g>
</svg>
