<svg xmlns:sketch="http://www.bohemiancoding.com/sketch/ns" xmlns="http://www.w3.org/2000/svg" xmlns:xlink="http://www.w3.org/1999/xlink" version="1.1" id="Layer_1" x="0" y="0" width="157" height="158" viewBox="-321 157 157 158" xml:space="preserve" enable-background="new -321 157 157 158">
  <style type="text/css">
    
	.st0{fill:#FFFFFF;}
	.st1{fill:none;stroke:#313133;stroke-width:2;stroke-linecap:round;stroke-linejoin:round;stroke-dasharray:1,4;}
	.st2{fill:#313133;}

  </style>
  <title>
    Insects
  </title>
  <desc>
    Created with Sketch.
  </desc>
  <g id="landing-page" sketch:type="MSPage">
    <g id="Desktop---Landing-Page-Animals" transform="translate(-366.000000, -840.000000)" sketch:type="MSArtboardGroup">
      <g id="Pets" transform="translate(-31.000000, 533.000000)" sketch:type="MSLayerGroup">
        <g id="Insects" transform="translate(397.000000, 307.000000)" sketch:type="MSShapeGroup">
          <path id="Fill-1-Copy" class="st0" d="M-242.5 157.2c-43.3 0-78.5 35.2-78.5 78.5 0 43.3 35.2 78.5 78.5 78.5 43.3 0 78.5-35.2 78.5-78.5C-164 192.4-199.2 157.2-242.5 157.2z"/>
          <path id="Stroke-2" class="st1" d="M-178.8 266.6c4.5-9.3 7-19.7 7-30.8 0-39-31.7-70.7-70.7-70.7s-70.7 31.7-70.7 70.7c0 30.4 19.3 56.4 46.3 66.4 7.6 2.8 15.8 4.3 24.4 4.3C-214.5 306.5-190.3 290.2-178.8 266.6L-178.8 266.6z"/>
          <g id="Spider" transform="translate(54.000000, 42.000000)">
            <path id="Shape" class="st2" d="M-272.3 166.5c0.4-0.7 0.1-1.6-0.6-2 -0.7-0.4-1.6-0.1-2 0.6 -2.5 4.5-5.9 7.9-10 10.2 1.3-1.1 2.6-2.4 3.4-3.7 2.6-4.2 2.6-12.5 2.6-12.9 0-0.8-0.7-1.5-1.5-1.5l0 0c-0.8 0-1.5 0.7-1.5 1.5 0 2.2-0.4 8.4-2.2 11.3 -1.5 2.5-5.3 4.9-7.2 6 -0.2-1.6-0.8-3.1-1.8-4.1 0.7-1.4 1.2-3.2 1.2-5.2 0-0.4-0.4-0.8-0.8-0.8 -0.4 0-0.8 0.4-0.8 0.8 0 1.6-0.3 3.1-0.8 4.1 -0.7-0.4-1.4-0.6-2.2-0.6 -0.8 0-1.5 0.2-2.2 0.6 -0.5-1-0.8-2.5-0.8-4.1 0-0.4-0.4-0.8-0.8-0.8 -0.4 0-0.8 0.4-0.8 0.8 0 2 0.4 3.8 1.2 5.2 -0.9 1-1.5 2.5-1.8 4.1 -2.2-1.3-5.7-3.6-7.2-6 -1.8-2.9-2.2-9.1-2.2-11.3 0-0.8-0.7-1.5-1.5-1.5l0 0c-0.8 0-1.5 0.7-1.5 1.5 0 0.3 0.1 8.7 2.6 12.9 0.8 1.3 2.1 2.6 3.4 3.7 -3.2-1.8-7-4.9-10-10.1 -0.4-0.7-1.3-1-2-0.6 -0.7 0.4-1 1.3-0.6 2 3.7 6.7 8.7 10.2 12.3 11.9 0.7 0.3 1.3 0.6 2 0.9 -0.4 0.1-0.8 0.2-1.3 0.3 -4.8 1.2-7.8 3.1-9.1 5.7 -0.4 0.7-0.1 1.6 0.6 2 0.2 0.1 0.4 0.2 0.7 0.2 0.5 0 1.1-0.3 1.3-0.8 1.4-2.7 6-4.1 9.7-4.7 -0.8 0.4-1.7 1.1-2.6 1.9 -1.7 1.6-2.9 3.6-3.8 6.1 -1 3-1.3 6.6-1 10.7 0.1 0.8 0.7 1.4 1.5 1.4h0.1c0.8-0.1 1.4-0.8 1.4-1.6 -0.4-5.4 0.4-9.8 2.5-12.8 0 0.5-0.1 0.9-0.1 1.5 0 6.7 4.5 14.9 10.1 14.9s10.1-8.2 10.1-14.9c0-0.6 0-1.2-0.1-1.7 2.2 3 3.1 7.4 2.7 13 -0.1 0.8 0.5 1.5 1.4 1.6h0.1c0.8 0 1.4-0.6 1.5-1.4 0.3-4.1 0-7.7-1-10.7 -0.8-2.5-2.1-4.5-3.8-6.1 -0.9-0.8-1.8-1.5-2.6-1.9 3.6 0.6 8.3 2.1 9.7 4.7 0.3 0.5 0.8 0.8 1.3 0.8 0.2 0 0.4 0 0.7-0.2 0.7-0.4 1-1.3 0.6-2 -1.3-2.6-4.4-4.5-9.1-5.7 -0.5-0.1-0.9-0.2-1.4-0.3 0.6-0.2 1.3-0.5 1.9-0.8C-281 176.7-276 173.2-272.3 166.5L-272.3 166.5zM-298.1 174.1c-0.7 1.1-0.9 2.4-1 3.2 0 0.4-0.4 0.7-0.8 0.6l0 0c-0.4 0-0.7-0.4-0.6-0.8 0.1-1 0.4-2.5 1.2-3.8 0.2-0.3 0.6-0.4 1-0.2C-298 173.3-297.9 173.8-298.1 174.1L-298.1 174.1z"/>
          </g>
          <path id="Insects-_x26_-Spiders" class="st2" d="M-294.3 269.4c0 0.4-0.1 0.4-0.4 0.5l-0.5 0v1.1h3.4v-1.2l-0.8 0v-6.5c0-0.3 0.2-0.4 0.4-0.4l0.5 0v-1.1h-3.4v1.2l0.8 0V269.4zM-290.9 265.1l0.6 0c0.3 0 0.4 0.1 0.4 0.4v3.9c0 0.3-0.1 0.4-0.4 0.5l-0.5 0v1.1h3.3v-1.1l-0.8 0v-3.4c0-0.7 0.5-1.4 1.4-1.4 1 0 1.1 0.6 1.1 1.5v2.9c0 0.3-0.1 0.4-0.4 0.5l-0.5 0v1.1h3.3v-1.1l-0.8 0v-3.7c0-1.7-0.8-2.4-2.2-2.4 -0.9 0-1.8 0.4-2.3 1.1V264h-2.4V265.1zM-278.8 265c0.3 0.1 0.3 0.2 0.3 0.5v0.6l1.3-0.1v-1.7c-0.5-0.3-1.4-0.6-2.3-0.6 -1.5 0-2.7 0.8-2.7 2.2 0 1.6 1.1 1.9 2.2 2.2 0.8 0.2 1.4 0.3 1.4 1 0 0.6-0.4 0.9-1.1 0.9 -0.3 0-0.7 0-0.9-0.1 -0.3-0.1-0.3-0.2-0.3-0.5v-0.7l-1.3 0.1v1.9c0.6 0.3 1.7 0.4 2.6 0.4 1.5 0 2.7-0.8 2.7-2.2 0-1.5-1.2-1.9-2.3-2.2 -0.7-0.2-1.3-0.4-1.3-1 0-0.6 0.4-0.8 1-0.8C-279.3 264.9-279.1 264.9-278.8 265L-278.8 265zM-272.6 263.7c-2.3 0-3.5 1.8-3.5 3.9 0 2.1 0.9 3.5 3.3 3.5 1.3 0 2.2-0.6 2.5-0.8l-0.5-1.1c-0.3 0.2-0.9 0.6-1.8 0.6 -1.2 0-1.7-0.7-1.7-1.7 1.7 0 4-0.4 4-2.5C-270.4 264.4-271.3 263.7-272.6 263.7L-272.6 263.7zM-271.9 265.7c0 1.1-1.5 1.3-2.5 1.3 0-1 0.5-2.1 1.7-2.1C-272.2 264.9-271.9 265.2-271.9 265.7L-271.9 265.7zM-265.9 269.9c-1.2 0-1.8-1-1.8-2.5 0-1.6 0.6-2.4 1.7-2.4 0.2 0 0.4 0 0.5 0.1 0.3 0.1 0.3 0.2 0.3 0.5v0.7l1.3-0.1v-1.8c-0.7-0.4-1.3-0.6-2.2-0.6 -1.6 0-3.3 1-3.3 3.8 0 2.3 1.2 3.6 3.3 3.6 1 0 1.9-0.4 2.4-0.8l-0.6-1.1C-264.8 269.7-265.3 269.9-265.9 269.9L-265.9 269.9zM-261.2 262.5c-0.3 0.8-0.6 1.6-1.6 1.6l-0.1 1h1v3.7c0 1 0 2.3 2.2 2.3 0.7 0 1.4-0.2 1.8-0.5l-0.4-1.1c-0.2 0.1-0.6 0.3-1 0.3 -0.6 0-0.9-0.3-0.9-1.1v-3.7h1.7l0.1-1.2h-1.9v-1.5H-261.2zM-253.8 265c0.3 0.1 0.3 0.2 0.3 0.5v0.6l1.3-0.1v-1.7c-0.5-0.3-1.4-0.6-2.3-0.6 -1.5 0-2.7 0.8-2.7 2.2 0 1.6 1.1 1.9 2.2 2.2 0.8 0.2 1.4 0.3 1.4 1 0 0.6-0.4 0.9-1.1 0.9 -0.3 0-0.7 0-0.9-0.1 -0.3-0.1-0.3-0.2-0.3-0.5v-0.7l-1.3 0.1v1.9c0.6 0.3 1.7 0.4 2.6 0.4 1.5 0 2.7-0.8 2.7-2.2 0-1.5-1.2-1.9-2.3-2.2 -0.7-0.2-1.3-0.4-1.3-1 0-0.6 0.4-0.8 1.1-0.8C-254.3 264.9-254.1 264.9-253.8 265L-253.8 265zM-242.2 267.9c-1.4-1.2-3-2.8-3-4 0-0.7 0.4-1.1 1.1-1.1 0.3 0 0.5 0 0.7 0.1 0.3 0.1 0.3 0.2 0.3 0.5v0.9l1.4-0.1v-2.1c-0.8-0.4-1.6-0.6-2.5-0.6 -1.7 0-2.7 1-2.7 2.4 0 0.5 0.1 1 0.4 1.5 -1 0.6-1.7 1.5-1.7 2.9 0 1.4 0.9 2.8 3.3 2.8 1.2 0 2.2-0.4 2.9-1 0.7 0.5 1.3 1 1.8 1.3l0.9-1.2c-0.3-0.3-1.1-0.8-1.8-1.3 0.4-0.8 0.6-1.6 0.6-2.5l0.8 0v-1.1h-3v1.1l0.4 0c0.2 0 0.3 0.1 0.3 0.2C-241.9 267.1-242 267.5-242.2 267.9L-242.2 267.9zM-243.1 269.2c-0.4 0.4-0.9 0.7-1.7 0.7 -1.1 0-1.7-0.7-1.7-1.6 0-0.7 0.3-1.3 0.9-1.6C-245 267.5-244.1 268.4-243.1 269.2L-243.1 269.2zM-232.7 269.7c-0.4 0-0.7 0-1-0.1 -0.3-0.1-0.3-0.2-0.3-0.5v-0.9l-1.4 0.1v2.2c0.8 0.4 1.7 0.6 2.8 0.6 1.9 0 3.4-1 3.4-2.9 0-1.8-1.3-2.4-2.6-2.8 -1-0.3-1.9-0.6-1.9-1.4 0-0.9 0.6-1.2 1.5-1.2 0.3 0 0.6 0 0.9 0.1 0.3 0.1 0.3 0.2 0.3 0.5v0.8l1.4-0.1v-2.1c-0.8-0.4-1.7-0.6-2.6-0.6 -1.9 0-3.2 1-3.2 2.7 0 1.8 1.3 2.4 2.7 2.7 1 0.3 1.8 0.5 1.8 1.4C-231 269.4-231.8 269.7-232.7 269.7L-232.7 269.7zM-227.5 272.3c0 0.3-0.1 0.4-0.4 0.5l-0.5 0v1.1h3.6v-1.1l-1.1-0.1v-1.9c0.4 0.2 1 0.4 1.5 0.4 1.8 0 3.1-1.3 3.1-3.9 0-2.5-1-3.6-2.5-3.6 -1.2 0-2 0.6-2.2 1.1V264h-2.4v1.1l0.6 0c0.3 0 0.4 0.1 0.4 0.4V272.3zM-223.1 267.4c0 1.2-0.4 2.4-1.6 2.4 -0.4 0-0.9-0.1-1.2-0.4v-3.2c0-0.6 0.6-1.2 1.4-1.2C-223.7 265.1-223.1 265.6-223.1 267.4L-223.1 267.4zM-217.8 264h-2.5v1.2l0.5 0c0.3 0 0.4 0.1 0.4 0.4v3.9c0 0.3-0.2 0.4-0.4 0.4l-0.5 0v1.1h3.3v-1.1l-0.8 0V264zM-219.9 262c0 0.6 0.4 1 1.1 1 0.6 0 1.1-0.4 1.1-1 0-0.6-0.4-1-1.1-1C-219.4 261-219.9 261.4-219.9 262L-219.9 262zM-212.7 263.7c-2.2 0-3.4 1.6-3.4 4 0 1.8 0.6 3.4 2.8 3.4 0.8 0 1.5-0.3 1.9-1l0 0v0.8h2.3v-1.1l-0.5 0c-0.2 0-0.3-0.1-0.4-0.3V261h-2.6v1.1l0.6 0c0.2 0 0.4 0.1 0.4 0.3v1.4C-211.8 263.8-212.2 263.7-212.7 263.7L-212.7 263.7zM-211.5 268.8c0 0.6-0.5 1.1-1.3 1.1 -1.2 0-1.5-1.1-1.5-2.4 0-1.4 0.4-2.6 1.8-2.6 0.4 0 0.8 0.1 1.1 0.2V268.8zM-204.7 263.7c-2.3 0-3.5 1.8-3.5 3.9 0 2.1 0.9 3.5 3.3 3.5 1.3 0 2.2-0.6 2.5-0.8l-0.5-1.1c-0.3 0.2-0.9 0.6-1.8 0.6 -1.2 0-1.7-0.7-1.7-1.7 1.7 0 4-0.4 4-2.5C-202.4 264.4-203.4 263.7-204.7 263.7L-204.7 263.7zM-204 265.7c0 1.1-1.5 1.3-2.5 1.3 0-1 0.5-2.1 1.7-2.1C-204.3 264.9-204 265.2-204 265.7L-204 265.7zM-200.6 269.4c0 0.3-0.1 0.4-0.4 0.5l-0.5 0v1.1h3.8v-1.1l-1.2-0.1v-3.2c0-0.8 0.5-1.4 1.3-1.4 0.2 0 0.3 0 0.4 0.1 0.1 0.1 0.1 0.2 0.1 0.4v0.6l1.3-0.1v-2.1c-0.5-0.2-0.9-0.3-1.3-0.3 -0.9 0-1.7 0.6-2 1.3v-1h-2.4v1.1l0.6 0c0.3 0 0.3 0.1 0.3 0.4V269.4zM-191.5 265c0.3 0.1 0.3 0.2 0.3 0.5v0.6l1.3-0.1v-1.7c-0.5-0.3-1.4-0.6-2.3-0.6 -1.5 0-2.7 0.8-2.7 2.2 0 1.6 1.1 1.9 2.2 2.2 0.8 0.2 1.4 0.3 1.4 1 0 0.6-0.4 0.9-1.1 0.9 -0.3 0-0.7 0-0.9-0.1 -0.3-0.1-0.3-0.2-0.3-0.5v-0.7l-1.3 0.1v1.9c0.6 0.3 1.7 0.4 2.6 0.4 1.5 0 2.7-0.8 2.7-2.2 0-1.5-1.2-1.9-2.3-2.2 -0.7-0.2-1.3-0.4-1.3-1 0-0.6 0.4-0.8 1.1-0.8C-192 264.9-191.8 264.9-191.5 265L-191.5 265z"/>
        </g>
      </g>
    </g>
  </g>
</svg>
