<?xml version="1.0" encoding="UTF-8"?>
<!-- Generator: Adobe Illustrator 20.1.0, SVG Export Plug-In . SVG Version: 6.00 Build 0)  -->
<svg version="1.1" id="Layer_1" xmlns="http://www.w3.org/2000/svg" xmlns:xlink="http://www.w3.org/1999/xlink" x="0px" y="0px" viewBox="0 0 44 44" style="enable-background:new 0 0 44 44;" xml:space="preserve">
<style type="text/css">
	.st0{fill:#EFEFEF;stroke:#EFEFEF;stroke-width:4;}
	.st1{fill:#E12C71;}
	.st2{fill:#FFFFFF;}
</style>
<title>Google-+</title>
<desc>Created with Sketch Beta.</desc>
<g transform="translate(-1122.000000, -76.000000)">
	<g transform="translate(-7.000000, 5.000000)">
		<g transform="translate(1017.000000, 73.000000)">
			<g transform="translate(114.000000, 0.000000)">
				<circle class="st0" cx="20" cy="20" r="20"/>
				<path class="st1" d="M0,20c0,11,9,20,20,20s20-9,20-20S31,0,20,0S0,9,0,20L0,20z"/>
			</g>
		</g>
	</g>
</g>
<g>
	<path class="st2" d="M22,13.9c2.6,0,3,0,4,0.1c1,0,1.5,0.2,1.8,0.3c0.5,0.2,0.8,0.4,1.1,0.7c0.3,0.3,0.6,0.7,0.7,1.1   c0.1,0.3,0.3,0.9,0.3,1.8c0,1,0.1,1.4,0.1,4s0,3-0.1,4c0,1-0.2,1.5-0.3,1.8c-0.2,0.5-0.4,0.8-0.7,1.1c-0.3,0.3-0.7,0.6-1.1,0.7   C27.5,29.9,27,30,26,30.1c-1,0-1.4,0.1-4,0.1s-3,0-4-0.1c-1,0-1.5-0.2-1.8-0.3c-0.5-0.2-0.8-0.4-1.1-0.7c-0.3-0.3-0.6-0.7-0.7-1.1   C14.1,27.5,14,27,13.9,26c0-1-0.1-1.4-0.1-4s0-3,0.1-4c0-1,0.2-1.5,0.3-1.8c0.2-0.5,0.4-0.8,0.7-1.1c0.3-0.3,0.7-0.6,1.1-0.7   c0.3-0.1,0.9-0.3,1.8-0.3C19,13.9,19.4,13.9,22,13.9 M22,12.1c-2.7,0-3,0-4.1,0.1c-1.1,0-1.8,0.2-2.4,0.5c-0.7,0.3-1.2,0.6-1.8,1.1   c-0.6,0.6-0.9,1.1-1.1,1.8c-0.2,0.6-0.4,1.4-0.5,2.4c0,1.1-0.1,1.4-0.1,4.1c0,2.7,0,3,0.1,4.1c0,1.1,0.2,1.8,0.5,2.4   c0.3,0.7,0.6,1.2,1.1,1.8c0.6,0.6,1.1,0.9,1.8,1.1c0.6,0.2,1.4,0.4,2.4,0.5c1.1,0,1.4,0.1,4.1,0.1s3,0,4.1-0.1   c1.1,0,1.8-0.2,2.4-0.5c0.7-0.3,1.2-0.6,1.8-1.1c0.6-0.6,0.9-1.1,1.1-1.8c0.2-0.6,0.4-1.4,0.5-2.4c0-1.1,0.1-1.4,0.1-4.1   s0-3-0.1-4.1c0-1.1-0.2-1.8-0.5-2.4c-0.3-0.7-0.6-1.2-1.1-1.8c-0.6-0.6-1.1-0.9-1.8-1.1c-0.6-0.2-1.4-0.4-2.4-0.5   C25,12.1,24.7,12.1,22,12.1L22,12.1z"/>
	<path class="st2" d="M22,16.9c-2.8,0-5.1,2.3-5.1,5.1s2.3,5.1,5.1,5.1s5.1-2.3,5.1-5.1S24.8,16.9,22,16.9z M22,25.3   c-1.8,0-3.3-1.5-3.3-3.3s1.5-3.3,3.3-3.3s3.3,1.5,3.3,3.3S23.8,25.3,22,25.3z"/>
	<circle class="st2" cx="27.3" cy="16.7" r="1.2"/>
</g>
</svg>