<svg xmlns:sketch="http://www.bohemiancoding.com/sketch/ns" xmlns="http://www.w3.org/2000/svg" xmlns:xlink="http://www.w3.org/1999/xlink" version="1.1" id="Layer_1" x="0px" y="0px" width="171px" height="171px" viewBox="0 0 171 171" xml:space="preserve" enable-background="new 0 0 171 171">
  <style type="text/css">
    
	.st0{fill:#9B9B9B;fill-opacity:0.8;}
	.st1{fill:#FFFFFF;}

  </style>
  <title>
    Ad-expired-ribbon
  </title>
  <desc>
    Created with Sketch.
  </desc>
  <path id="_x2D_--copy" class="st0" d="M0.3 0H169c1.1 0 2 0.9 2 2v168.7L0.3 0z"/>
  <g>
    <path class="st1" d="M125.2 78.6c0.4 0 0.8-0.2 1.1-0.5 0.2-0.2 0.3-0.5 0.4-0.8 0-0.3-0.1-0.6-0.3-0.8 -0.3-0.3-0.6-0.4-1.1-0.4s-0.8 0.2-1.1 0.5c-0.2 0.2-0.3 0.5-0.4 0.8 0 0.3 0.1 0.5 0.3 0.8C124.4 78.5 124.7 78.6 125.2 78.6z"/>
    <path class="st1" d="M148.2 116.1c-0.3 0.1-0.6 0.3-0.9 0.6 -0.3 0.3-0.4 0.5-0.4 0.9 0 0.3 0.1 0.6 0.4 0.8 0.3 0.3 0.7 0.4 1 0.3 0.3-0.1 0.6-0.3 0.9-0.6 0.2-0.2 0.3-0.5 0.3-0.9 0-0.4-0.2-0.6-0.4-0.9C148.9 116.1 148.6 116 148.2 116.1z"/>
    <path class="st1" d="M165.9 103.9c-0.2-0.2-0.4-0.3-0.7-0.4 -0.2-0.1-0.5-0.1-0.7 0 -0.2 0-0.5 0.1-0.7 0.3 -0.2 0.1-0.5 0.3-0.7 0.4 -0.5 0.3-1 0.7-1.6 1.2 -0.6 0.5-1.1 1-1.5 1.3 -0.9 0.7-1.7 1.5-2.6 2.2 -0.8 0.7-1.7 1.5-2.5 2.2 -0.4 0.3-0.8 0.7-1.2 1s-0.8 0.7-1.2 1c-0.1 0.1-0.1 0.1-0.2 0.1 0 0-0.1 0.1-0.2 0.1 -0.1 0.1-0.2 0.2-0.3 0.4 -0.1 0.2-0.1 0.4 0 0.5 0.2 0.2 0.5 0.3 0.7 0.2 0.2-0.1 0.5-0.2 0.7-0.4 0.7-0.4 1.3-0.9 2-1.3 0.7-0.4 1.3-0.9 2-1.3 1.1-0.7 2.3-1.5 3.4-2.2 1.1-0.7 2.3-1.5 3.4-2.2 0.3-0.2 0.5-0.3 0.8-0.5 0.3-0.2 0.5-0.4 0.7-0.6 0.4-0.4 0.6-0.7 0.7-1.1C166.4 104.7 166.3 104.3 165.9 103.9z"/>
    <path class="st1" d="M86.7 49.5c-0.3 0.1-0.5 0.1-0.7 0.1 -0.4 0.1-0.9 0.2-1.5 0.3s-1.2 0.1-1.8 0.2c-0.6 0-1.2 0-1.7-0.1 -0.5-0.1-1-0.3-1.3-0.6 -0.2-0.2-0.2-0.5-0.1-0.9 0.2-0.4 0.4-0.8 0.7-1.3 0.3-0.4 0.7-0.8 1-1.2 0.3-0.4 0.6-0.6 0.8-0.8 1-0.3 2.2-0.7 3.5-1.2 1.3-0.5 2.7-1.1 4-1.7 1.3-0.6 2.6-1.3 3.8-2s2.2-1.4 2.9-2.2c0.2-0.2 0.4-0.4 0.6-0.7s0.4-0.6 0.6-0.9c0.2-0.3 0.2-0.7 0.3-1 0-0.3-0.1-0.6-0.4-0.9 -0.2-0.2-0.5-0.4-0.8-0.4C96.3 34 96 34 95.7 34c-0.6 0-1.2 0.1-1.9 0.3 -0.7 0.2-1.5 0.5-2.2 0.8s-1.6 0.7-2.4 1.2c-0.8 0.5-1.5 0.9-2.3 1.4s-1.4 1-2 1.5c-0.6 0.5-1.1 0.9-1.5 1.3 0-0.6-0.2-1.1-0.6-1.6 -0.3-0.3-0.8-0.6-1.3-0.8s-1-0.3-1.5-0.3c-1.2-0.1-2.3 0.1-3.5 0.5 -0.5 0.2-0.9 0.4-1.3 0.6 -0.1 0-0.2 0-0.3 0 -0.4 0.1-0.9 0.1-1.5 0.2 -0.5 0.1-1.1 0.1-1.6 0.1 -0.5 0-1-0.1-1.5-0.2s-0.9-0.4-1.3-0.7c-0.2-0.2-0.3-0.5-0.3-0.9 0-0.4 0.1-0.8 0.3-1.3s0.4-0.9 0.7-1.4 0.6-1 0.8-1.4 0.6-0.8 0.8-1.2c0.3-0.4 0.5-0.6 0.6-0.8 0.3 0.2 0.7 0.5 1 0.8 0.4 0.3 0.7 0.5 1.1 0.7 0.2 0.1 0.4 0.1 0.6 0.2s0.4 0 0.5-0.2c0.1-0.1 0.1-0.2 0.1-0.4 0-0.1-0.1-0.2-0.2-0.3 -0.3-0.3-0.7-0.6-1.1-0.9 -0.4-0.3-0.8-0.6-1.2-0.9 0.6-0.7 1.1-1.4 1.7-2s1.2-1.2 1.8-1.9c0.8-0.8 1.6-1.5 2.4-2.2 0.8-0.7 1.7-1.5 2.4-2.2 0.2-0.2 0.3-0.4 0.4-0.6 0.1-0.3 0.1-0.5-0.1-0.7 -0.1-0.1-0.3-0.3-0.6-0.4 -0.3-0.2-0.6-0.3-0.9-0.4s-0.6-0.2-0.9-0.2 -0.5 0.1-0.7 0.2c-0.4 0.4-0.9 0.8-1.3 1.1 -0.5 0.3-1 0.5-1.5 0.8 -0.6 0.3-1.5 0.7-2.7 1.2 -1.2 0.5-2.5 1.1-3.9 1.7 -1.4 0.6-2.9 1.2-4.5 1.7s-3.1 1-4.5 1.3c-1.4 0.3-2.7 0.5-3.8 0.5S54.5 28 54 27.5c-0.2-0.2-0.4-0.4-0.5-0.7s-0.3-0.5-0.5-0.7c-0.1-0.1-0.2-0.2-0.4-0.2s-0.3 0-0.4 0.1c-0.1 0.1-0.2 0.3-0.2 0.5 0 0.2 0.1 0.4 0.2 0.6 0.1 0.2 0.3 0.4 0.4 0.6 0.2 0.2 0.3 0.3 0.4 0.4 0.8 0.8 1.9 1.3 3 1.5s2.4 0.1 3.6-0.2c1.2-0.3 2.5-0.6 3.7-1.1s2.3-0.8 3.2-1.2c0.6 0.5 1.1 0.9 1.7 1.3 0.6 0.4 1.2 0.8 1.8 1.3 -0.4 0.6-0.9 1.3-1.4 2.1 -0.5 0.8-1 1.7-1.3 2.6 -0.3 0.9-0.5 1.8-0.5 2.7 0 0.9 0.3 1.7 1 2.3 0.4 0.4 0.9 0.7 1.5 0.8 0.6 0.2 1.3 0.3 2 0.3 0.7 0 1.4 0 2-0.1 -0.1 0.1-0.2 0.3-0.3 0.4 -0.2 0.3-0.3 0.6-0.4 0.9 -0.1 0.3-0.1 0.6-0.1 0.9 0 0.3 0.1 0.6 0.4 0.8 0.3 0.3 0.7 0.6 1.3 0.7 0.6 0.2 1.2 0.3 1.8 0.4 0.6 0.1 1.3 0.1 1.9 0.1s1.1 0 1.5 0c-0.2 0.3-0.5 0.7-0.8 1.2 -0.3 0.5-0.5 0.9-0.7 1.4 -0.2 0.5-0.2 1-0.2 1.5 0 0.5 0.2 0.9 0.6 1.3 0.5 0.5 1 0.8 1.6 0.9 0.6 0.2 1.3 0.3 2 0.3 0.7 0 1.4 0 2.1-0.1 0.7-0.1 1.3-0.2 1.9-0.3 0.2 0 0.4-0.1 0.7-0.2 0.2-0.1 0.4-0.2 0.6-0.3 0.1-0.1 0.2-0.2 0.2-0.4s0-0.3-0.1-0.4C87.2 49.5 87 49.5 86.7 49.5zM84 43c0.3-0.3 0.8-0.7 1.3-1.2 0.6-0.5 1.2-0.9 2-1.5 0.7-0.5 1.5-1 2.3-1.6 0.8-0.5 1.6-1 2.3-1.4 0.8-0.4 1.5-0.8 2.1-1.1 0.6-0.3 1.2-0.4 1.6-0.5 0.1 0 0.2 0 0.3 0s0.2 0 0.3 0.1c0.1 0.1 0.1 0.1 0.1 0.2 0 0.1-0.1 0.2-0.1 0.2 -0.1 0.1-0.1 0.2-0.2 0.2l-0.1 0.1c-0.7 0.7-1.5 1.3-2.5 1.9s-2.1 1.2-3.2 1.8c-1.1 0.6-2.2 1.1-3.3 1.5s-2.1 0.9-3 1.2L84 43zM69.4 27.8c-0.5-0.4-0.9-0.7-1.4-1.1 0.7-0.3 1.5-0.6 2.2-0.9 0.7-0.3 1.4-0.6 2.2-1 0.1 0 0.3-0.1 0.5-0.2 0.2-0.1 0.5-0.2 0.8-0.4 0.3-0.1 0.5-0.2 0.8-0.3 0.2-0.1 0.4-0.1 0.4-0.1 0 0 0 0.1 0 0.1 0 0 0 0.1-0.1 0.1 -0.2 0.3-0.4 0.6-0.7 0.9s-0.5 0.6-0.8 0.8c-0.9 1-1.7 2-2.5 3C70.3 28.5 69.8 28.1 69.4 27.8zM79.3 43.4c-0.6 0-1.3 0-2 0 -0.7 0-1.4-0.1-2-0.2 -0.6-0.1-1-0.3-1.3-0.5 -0.1-0.1-0.1-0.2 0-0.3 0.1-0.1 0.2-0.2 0.2-0.3 0.4-0.4 1-0.8 1.8-1.1 0.7-0.3 1.5-0.5 2.3-0.6 0.8-0.1 1.6-0.1 2.3 0.1s1.4 0.5 1.9 0.9l-0.9 0.9c-0.3 0.3-0.6 0.6-0.9 1C80.4 43.3 79.9 43.4 79.3 43.4z"/>
    <path class="st1" d="M149.2 112c-0.3 0.1-0.5 0.1-0.7 0.1 -0.4 0.1-0.9 0.2-1.5 0.3 -0.6 0.1-1.2 0.1-1.8 0.2 -0.6 0-1.2 0-1.7-0.1 -0.5-0.1-1-0.3-1.3-0.6 -0.2-0.2-0.2-0.5-0.1-0.9 0.2-0.4 0.4-0.8 0.7-1.3 0.3-0.4 0.7-0.8 1-1.2 0.3-0.4 0.6-0.6 0.8-0.8 1-0.3 2.2-0.7 3.5-1.2 1.3-0.5 2.7-1.1 4-1.7s2.6-1.3 3.8-2 2.2-1.4 2.9-2.2c0.2-0.2 0.4-0.4 0.6-0.7s0.4-0.6 0.6-0.9c0.2-0.3 0.2-0.7 0.3-1 0-0.3-0.1-0.6-0.4-0.9 -0.2-0.2-0.5-0.4-0.8-0.4 -0.3-0.1-0.7-0.1-1-0.1 -0.6 0-1.2 0.1-1.9 0.3 -0.7 0.2-1.5 0.5-2.2 0.8s-1.6 0.7-2.4 1.2c-0.8 0.5-1.5 0.9-2.3 1.4s-1.4 1-2 1.5c-0.6 0.5-1.1 0.9-1.5 1.3 0-0.6-0.2-1.1-0.6-1.6 -0.3-0.3-0.8-0.6-1.3-0.8 -0.5-0.2-1-0.3-1.5-0.3 -1.2-0.1-2.3 0.1-3.5 0.5 -0.4 0.2-0.8 0.3-1.2 0.5 0 0-0.1 0-0.2 0 -0.6 0.1-1.2 0.2-1.8 0.3 -0.6 0.1-1.3 0.1-1.9 0 -0.6-0.1-1.2-0.2-1.8-0.4 -0.6-0.2-1.1-0.6-1.5-1 -0.5-0.5-0.7-1-0.6-1.5 0.1-0.5 0.3-1 0.8-1.5 0.3-0.3 0.6-0.5 1-0.8 0.4 0.2 1 0.4 1.7 0.4 0.7 0.1 1.4 0.1 2.1 0 0.7-0.1 1.4-0.2 2.1-0.4 0.7-0.2 1.2-0.5 1.5-0.8 0.4-0.4 0.6-0.8 0.6-1.2 0-0.4-0.1-0.9-0.5-1.2 -0.6-0.6-1.3-0.9-2.2-0.9s-1.9 0.1-2.8 0.4 -1.9 0.7-2.7 1.2c-0.5 0.3-0.9 0.5-1.2 0.8 -0.1 0-0.2 0-0.2 0 -0.3 0.1-0.8 0.1-1.4 0.2 -0.6 0.1-1.2 0.1-1.9 0.1 -0.6 0-1.2 0-1.8-0.1 -0.6-0.1-1-0.2-1.2-0.5 -0.2-0.2-0.2-0.4-0.1-0.6 0.2-0.2 0.3-0.4 0.4-0.6 0.5-0.5 1.1-1 1.6-1.4 0.6-0.4 1.2-0.8 1.8-1.2 0.4-0.2 0.7-0.5 0.9-0.7 0.5-0.5 0.7-0.9 0.8-1.4 0.1-0.5 0.1-0.9 0-1.4 -0.1-0.5-0.2-0.9-0.3-1.4 -0.1-0.4-0.1-0.9-0.1-1.3 0.4-0.3 0.7-0.6 1.1-1 0.1-0.1 0.3-0.3 0.4-0.5 0.2-0.2 0.3-0.4 0.4-0.6 0.1-0.2 0.2-0.5 0.3-0.7 0-0.2 0-0.4-0.2-0.6 -0.2-0.2-0.5-0.3-0.8-0.3 -0.3 0-0.7 0.1-1.1 0.3 -0.4 0.1-0.7 0.3-1 0.6 -0.3 0.2-0.6 0.4-0.7 0.6 -0.3 0.3-0.6 0.7-0.8 1.1 -0.2 0.4-0.4 0.8-0.4 1.3 -0.8 0.6-1.7 1.1-2.7 1.3 -0.8 0.2-1.6 0.4-2.3 0.5 -0.5 0.1-1.1 0.2-1.7 0.2 -0.7 0-1.3 0-1.9 0 -0.6-0.1-1-0.2-1.3-0.5 -0.2-0.2-0.2-0.4-0.2-0.7s0.2-0.5 0.3-0.8 0.3-0.5 0.6-0.7c0.2-0.2 0.4-0.4 0.5-0.5 0.7-0.7 1.3-1.2 2.1-1.7 0.2-0.1 0.4-0.2 0.7-0.4 0.3-0.1 0.6-0.3 0.8-0.4 0.3-0.1 0.5-0.3 0.8-0.4s0.4-0.3 0.6-0.4c0.3-0.3 0.3-0.6 0-1 -0.5-0.5-0.9-0.7-1.4-0.6s-1 0.2-1.5 0.4c-0.5 0.3-1 0.6-1.6 1 -0.3 0.2-0.6 0.4-0.8 0.6 -0.1 0-0.2 0-0.2 0.1 -0.6 0.2-1.3 0.3-2 0.4 -0.7 0.1-1.4 0-2.1-0.1 -0.7-0.1-1.4-0.3-2-0.6s-1.2-0.7-1.7-1.2c-0.2-0.2-0.4-0.4-0.6-0.7 0.2 0.2 0.5 0.3 0.7 0.3 0.3 0.1 0.5 0.1 0.8 0.1 0.6 0 1.1-0.1 1.8-0.2s1.2-0.4 1.9-0.7c0.6-0.3 1.2-0.6 1.7-1 0.5-0.4 1-0.7 1.4-1.1 0.3-0.3 0.5-0.6 0.8-0.9s0.4-0.7 0.5-1 0.1-0.7 0-1.1c-0.1-0.4-0.3-0.7-0.6-1.1s-0.8-0.6-1.4-0.7S115 71 114.3 71c-0.6 0-1.3 0-1.9 0 -0.6 0-1.1 0.1-1.6 0.2 0.3-0.2 0.5-0.4 0.8-0.6 0.3-0.2 0.5-0.4 0.8-0.7 0.1-0.1 0.2-0.3 0.3-0.5 0.1-0.2 0.2-0.4 0.2-0.7 0-0.2 0-0.5 0-0.7 0-0.2-0.1-0.4-0.3-0.5 -0.2-0.2-0.4-0.3-0.6-0.2 -0.2 0-0.4 0.1-0.6 0.2 -0.2 0.1-0.4 0.3-0.6 0.5 -0.2 0.2-0.4 0.3-0.5 0.4 -0.6 0.4-1.1 0.9-1.6 1.3 -0.4 0.3-0.8 0.6-1.1 0.9 -0.3 0.1-0.7 0.2-1.1 0.3 -0.5 0.1-1.1 0.1-1.6 0.1s-1.1-0.1-1.6-0.2 -0.9-0.3-1.2-0.7c-0.2-0.2-0.2-0.4-0.1-0.8 0.1-0.4 0.2-0.8 0.3-1.2 0.2-0.4 0.3-0.8 0.5-1.2s0.3-0.7 0.4-0.8c0.9-0.2 1.9-0.4 2.8-0.6 0.9-0.2 1.8-0.4 2.8-0.7 0.1 0 0.2-0.1 0.3-0.1s0.2-0.1 0.3-0.2 0.1-0.2 0.1-0.3c0-0.1 0-0.2-0.1-0.3 -0.1-0.1-0.2-0.1-0.3-0.1 -0.1 0-0.2 0-0.3 0 -0.8 0.2-1.6 0.3-2.5 0.5s-1.7 0.4-2.5 0.5c0.2-0.3 0.3-0.6 0.4-0.9 0.1-0.3 0.2-0.6 0.4-0.9 0.1-0.2 0.2-0.5 0.3-0.7s0.2-0.5 0.2-0.7c0-0.2 0-0.5 0-0.7 -0.1-0.2-0.2-0.4-0.4-0.7 -0.2-0.2-0.7-0.3-1.2-0.3 -0.6 0.1-1.2 0.2-1.9 0.4 -0.7 0.2-1.3 0.4-1.9 0.7 -0.6 0.2-1.1 0.4-1.4 0.5 0 0-0.1 0-0.1 0 -0.5 0.1-1.1 0.2-1.7 0.3 -0.6 0.1-1.3 0.1-1.9 0 -0.6-0.1-1.2-0.2-1.8-0.4 -0.6-0.2-1.1-0.6-1.5-1 -0.5-0.5-0.7-1-0.6-1.5s0.3-1 0.8-1.5c0.3-0.3 0.6-0.5 1-0.8 0.4 0.2 1 0.4 1.7 0.4s1.4 0.1 2.1 0 1.4-0.2 2.1-0.4c0.7-0.2 1.2-0.5 1.5-0.8 0.4-0.4 0.6-0.8 0.6-1.2 0-0.4-0.1-0.9-0.5-1.2 -0.6-0.6-1.3-0.9-2.2-0.9 -0.9 0-1.9 0.1-2.8 0.4s-1.9 0.7-2.7 1.2 -1.5 1-2 1.5c-0.4 0.4-0.7 0.8-1 1.2 -0.3 0.4-0.4 0.9-0.5 1.3 -0.1 0.5 0 0.9 0.1 1.4s0.4 0.9 0.8 1.3c0.6 0.6 1.2 1 2 1.4 0.7 0.3 1.5 0.6 2.3 0.7 0.8 0.1 1.6 0.2 2.4 0.1s1.6-0.2 2.4-0.4c0.2 0 0.3-0.1 0.4-0.1 0.1 0 0.1-0.1 0.2-0.2 0.4-0.1 0.7-0.2 1.1-0.4 0.6-0.2 1.2-0.4 1.7-0.6 0.5-0.2 0.8-0.2 0.9-0.1 0.1 0.1 0.1 0.2 0 0.4s-0.2 0.3-0.2 0.4c-0.3 0.5-0.6 1.1-0.9 1.6 -0.3 0.5-0.6 1.1-0.9 1.6 -0.2 0-0.6 0.1-1.3 0.2 -0.6 0.1-1.3 0.2-2 0.3 -0.7 0.1-1.3 0.2-1.9 0.4s-0.9 0.3-1 0.4c-0.1 0.1-0.2 0.3-0.1 0.5 0 0.2 0.1 0.4 0.2 0.5 0.2 0.2 0.3 0.2 0.6 0.2l4.9-1c-0.1 0.3-0.3 0.7-0.4 1.1 -0.1 0.4-0.2 0.8-0.3 1.2 -0.1 0.4 0 0.8 0 1.2 0.1 0.4 0.3 0.7 0.6 1 0.4 0.4 1 0.7 1.7 0.9 0.7 0.2 1.4 0.2 2.2 0.2 0.4 0 0.8 0 1.2-0.1 -0.9 0.5-1.8 0.9-2.9 1.5 -1.2 0.6-2.4 1.3-3.5 2 -1.2 0.7-2.3 1.4-3.3 2.2 -1.1 0.8-2 1.5-2.8 2.3 -0.2 0.2-0.4 0.4-0.6 0.7 -0.2 0.3-0.4 0.6-0.6 0.9 -0.1 0.3-0.2 0.6-0.2 0.9 0 0.3 0.1 0.6 0.4 0.8 0.2 0.2 0.4 0.3 0.6 0.4s0.5 0.1 0.8 0.1c0.3 0 0.5-0.1 0.8-0.1 0.3-0.1 0.5-0.1 0.7-0.2 0.8-0.3 1.7-0.8 2.7-1.5s2-1.4 3.1-2.2c1-0.8 2-1.6 3-2.4 1-0.8 1.8-1.5 2.5-2.1 -0.1 0.4 0 0.8 0.1 1.2 0.1 0.4 0.3 0.8 0.5 1.2 0.2 0.4 0.5 0.8 0.8 1.1s0.6 0.6 0.8 0.9c0.6 0.6 1.3 1.1 2 1.5 0.7 0.4 1.4 0.6 2.2 0.7 0.8 0.1 1.5 0.2 2.4 0.1 0.4 0 0.7-0.1 1.1-0.1 -0.1 0.1-0.2 0.2-0.3 0.3 -0.4 0.5-0.7 0.9-0.9 1.5 -0.2 0.5-0.4 1-0.4 1.5 0 0.5 0.2 1 0.6 1.4 0.4 0.4 0.9 0.6 1.5 0.8 0.6 0.1 1.3 0.2 2.1 0.3 0.7 0 1.4 0 2.1-0.1 0 0 0 0 0.1 0 0.1 0 0.1 0 0.2 0 0.5 0 1-0.1 1.5-0.2 0.5-0.1 1-0.3 1.5-0.4 0.5-0.2 1-0.4 1.5-0.6 0.5-0.2 0.9-0.4 1.3-0.6 0.2 0.4 0.3 0.9 0.4 1.3s-0.1 0.9-0.5 1.2c-0.4 0.4-0.8 0.8-1.2 1.1 -0.4 0.3-0.8 0.7-1.2 1.1 -0.3 0.3-0.5 0.6-0.9 0.9 -0.3 0.4-0.6 0.7-0.8 1.1 -0.2 0.4-0.3 0.8-0.3 1.2 0 0.4 0.1 0.8 0.5 1.2 0.3 0.3 0.9 0.6 1.5 0.7 0.7 0.1 1.4 0.2 2.2 0.2s1.5 0 2.3-0.1c0.1 0 0.2 0 0.3 0 -0.1 0.2-0.3 0.4-0.4 0.5 -0.3 0.4-0.4 0.9-0.5 1.3 -0.1 0.5 0 0.9 0.1 1.4 0.1 0.5 0.4 0.9 0.8 1.3 0.6 0.6 1.2 1 2 1.4 0.7 0.3 1.5 0.6 2.3 0.7 0.8 0.1 1.6 0.2 2.4 0.1 0.1 0 0.1 0 0.2 0 -0.1 0.2-0.3 0.3-0.4 0.6 -0.2 0.3-0.3 0.6-0.4 0.9 -0.1 0.3-0.1 0.6-0.1 0.9 0 0.3 0.1 0.6 0.4 0.8 0.3 0.3 0.7 0.6 1.3 0.7s1.2 0.3 1.8 0.4c0.6 0.1 1.3 0.1 1.9 0.1s1.1 0 1.5 0c-0.2 0.3-0.5 0.7-0.8 1.2 -0.3 0.5-0.5 0.9-0.7 1.4 -0.2 0.5-0.2 1-0.2 1.5 0 0.5 0.2 0.9 0.6 1.3 0.5 0.5 1 0.8 1.6 0.9 0.6 0.2 1.3 0.3 2 0.3 0.7 0 1.4 0 2.1-0.1 0.7-0.1 1.3-0.2 1.9-0.3 0.2 0 0.4-0.1 0.7-0.2s0.4-0.2 0.6-0.3c0.1-0.1 0.2-0.2 0.2-0.4 0.1-0.1 0-0.3-0.1-0.4C149.7 112 149.5 112 149.2 112zM146.5 105.5c0.3-0.3 0.8-0.7 1.3-1.2 0.6-0.5 1.2-0.9 2-1.5s1.5-1 2.3-1.6 1.6-1 2.3-1.4 1.5-0.8 2.1-1.1 1.2-0.4 1.6-0.5c0.1 0 0.2 0 0.3 0 0.1 0 0.2 0 0.3 0.1 0.1 0.1 0.1 0.1 0.1 0.2 0 0.1-0.1 0.2-0.1 0.2s-0.1 0.2-0.2 0.2l-0.1 0.1c-0.7 0.7-1.5 1.3-2.5 1.9s-2.1 1.2-3.2 1.8c-1.1 0.6-2.2 1.1-3.3 1.5 -1.1 0.5-2.1 0.9-3 1.2L146.5 105.5zM133.9 95.2c0.5-0.3 1.1-0.5 1.7-0.7 0.6-0.2 1.1-0.4 1.7-0.5 0.5-0.1 0.9 0 1.1 0.2 0.1 0.1 0.2 0.3 0.1 0.4s-0.1 0.3-0.3 0.4c-0.3 0.3-0.7 0.5-1.1 0.6 -0.5 0.1-0.9 0.3-1.5 0.3 -0.5 0.1-1 0.1-1.5 0 -0.5 0-0.9-0.1-1.3-0.2C133 95.7 133.4 95.5 133.9 95.2zM94.3 55.6c0.5-0.3 1.1-0.5 1.7-0.7 0.6-0.2 1.1-0.4 1.7-0.5 0.5-0.1 0.9 0 1.1 0.2 0.1 0.1 0.2 0.3 0.1 0.4s-0.1 0.3-0.3 0.4c-0.3 0.3-0.7 0.5-1.1 0.6 -0.5 0.1-0.9 0.3-1.5 0.3 -0.5 0.1-1 0.1-1.5 0 -0.5 0-0.9-0.1-1.3-0.2C93.4 56.1 93.7 55.9 94.3 55.6zM100.1 77.8c-1.3 1.1-2.7 2.1-4.1 3.1 -0.1 0.1-0.3 0.2-0.6 0.4 -0.3 0.2-0.6 0.4-0.9 0.6 -0.3 0.2-0.7 0.4-1 0.5 -0.3 0.1-0.5 0.2-0.6 0.1 -0.1-0.1-0.1-0.2 0-0.3s0.1-0.2 0.2-0.4c0.1-0.1 0.2-0.2 0.3-0.4l0.2-0.2c0.6-0.6 1.3-1.2 2.1-1.8 0.9-0.7 1.8-1.3 2.8-2 1-0.6 2-1.2 2.9-1.8 1-0.6 1.8-1 2.5-1.3C102.7 75.6 101.4 76.7 100.1 77.8zM107.6 76.4c-0.3-0.3-0.5-0.6-0.5-0.8s-0.1-0.4-0.2-0.5c-0.1-0.1-0.1-0.1-0.2-0.1 0.1-0.1 0.3-0.3 0.6-0.5s0.6-0.5 0.9-0.8 0.6-0.5 0.9-0.7c0.3-0.2 0.5-0.3 0.6-0.4 0.3-0.1 0.8-0.2 1.4-0.3 0.6-0.1 1.3-0.2 2-0.2 0.7 0 1.3 0 1.9 0.1 0.6 0.1 1 0.2 1.3 0.5 0.3 0.3 0.3 0.6 0.2 0.9 -0.2 0.3-0.3 0.6-0.6 0.8 -0.4 0.4-0.9 0.7-1.7 1.2 -0.7 0.4-1.5 0.8-2.4 1.1 -0.8 0.3-1.7 0.4-2.5 0.5C108.7 77 108.1 76.8 107.6 76.4zM141.7 105.9c-0.6 0-1.3 0-2 0 -0.7 0-1.4-0.1-2-0.2 -0.6-0.1-1-0.3-1.3-0.5 -0.1-0.1-0.1-0.2 0-0.4 0.1-0.1 0.2-0.2 0.2-0.3 0.4-0.4 1-0.8 1.8-1.1 0.7-0.3 1.5-0.5 2.3-0.6s1.6-0.1 2.3 0.1 1.4 0.5 1.9 0.9l-0.9 0.9c-0.3 0.3-0.6 0.6-0.9 1C142.9 105.8 142.4 105.9 141.7 105.9z"/>
  </g>
  <title>
    Ad-expired-ribbon
  </title>
  <desc>
    Created with Sketch.
  </desc>
</svg>
