<svg xmlns:sketch="http://www.bohemiancoding.com/sketch/ns" xmlns="http://www.w3.org/2000/svg" xmlns:xlink="http://www.w3.org/1999/xlink" version="1.1" id="Layer_1" x="0px" y="0px" width="171px" height="171px" viewBox="0 0 171 171" xml:space="preserve" enable-background="new 0 0 171 171">
  <style type="text/css">
    
	.st0{fill:#9B9B9B;fill-opacity:0.8;}
	.st1{fill:#FFFFFF;}

  </style>
  <title>
    Ad-sold-ribbon
  </title>
  <desc>
    Created with Sketch.
  </desc>
  <path id="_x2D_--copy-2" class="st0" d="M0.3 0H169c1.1 0 2 0.9 2 2v168.7L0.3 0z"/>
  <g>
    <path class="st1" d="M144.2 86.6c-0.2-0.2-0.4-0.3-0.7-0.4s-0.5-0.1-0.7 0c-0.2 0-0.5 0.1-0.7 0.3 -0.2 0.1-0.5 0.3-0.7 0.4 -0.5 0.3-1 0.7-1.6 1.2 -0.6 0.5-1.1 1-1.5 1.3 -0.9 0.7-1.7 1.5-2.6 2.2 -0.8 0.7-1.7 1.5-2.5 2.2 -0.4 0.3-0.8 0.7-1.2 1 -0.4 0.3-0.8 0.7-1.2 1 -0.1 0.1-0.1 0.1-0.2 0.1 0 0-0.1 0.1-0.2 0.1 -0.1 0.1-0.2 0.2-0.4 0.4 -0.1 0.2-0.1 0.4 0 0.5 0.2 0.2 0.5 0.3 0.7 0.2 0.2-0.1 0.5-0.2 0.7-0.4 0.7-0.4 1.3-0.9 2-1.3s1.3-0.9 2-1.3c1.1-0.7 2.3-1.5 3.4-2.2s2.3-1.5 3.4-2.2c0.3-0.2 0.5-0.3 0.8-0.5 0.3-0.2 0.5-0.4 0.7-0.6 0.4-0.4 0.6-0.7 0.7-1.1C144.8 87.4 144.6 87 144.2 86.6z"/>
    <path class="st1" d="M127.5 94.7c-0.3 0.1-0.5 0.1-0.7 0.1 -0.4 0.1-0.9 0.2-1.5 0.3s-1.2 0.1-1.8 0.2c-0.6 0-1.2 0-1.7-0.1 -0.5-0.1-1-0.3-1.3-0.6 -0.2-0.2-0.2-0.5-0.1-0.9 0.2-0.4 0.4-0.8 0.7-1.3s0.7-0.8 1-1.2 0.6-0.6 0.8-0.8c1-0.3 2.2-0.7 3.5-1.2 1.3-0.5 2.7-1.1 4-1.7s2.6-1.3 3.8-2c1.2-0.7 2.2-1.4 2.9-2.2 0.2-0.2 0.4-0.4 0.6-0.7 0.2-0.3 0.4-0.6 0.6-0.9 0.2-0.3 0.2-0.7 0.3-1 0-0.3-0.1-0.6-0.4-0.9 -0.2-0.2-0.5-0.3-0.8-0.4 -0.3-0.1-0.7-0.1-1-0.1 -0.6 0-1.2 0.1-1.9 0.3 -0.7 0.2-1.5 0.5-2.2 0.8s-1.6 0.7-2.4 1.2c-0.8 0.5-1.5 0.9-2.3 1.4s-1.4 1-2 1.5 -1.1 0.9-1.5 1.3c0-0.6-0.2-1.1-0.6-1.6 -0.3-0.3-0.8-0.6-1.3-0.8 -0.5-0.2-1-0.3-1.5-0.3 -1.2-0.1-2.3 0.1-3.5 0.5 -0.4 0.1-0.7 0.3-1.1 0.5 -0.2 0-0.4 0.1-0.6 0.1 -0.2 0.1-0.5 0.1-0.7 0.2 -0.3 0.1-0.8 0.1-1.3 0.2 -0.5 0.1-1.1 0.1-1.6 0.1 -0.6 0-1.1-0.1-1.6-0.2s-0.9-0.3-1.1-0.5c-0.3-0.3-0.4-0.7-0.3-1.1s0.3-0.9 0.6-1.4c0.3-0.5 0.6-0.9 0.9-1.3 0.3-0.4 0.6-0.7 0.8-0.9 0.1-0.1 0.3-0.3 0.5-0.5s0.4-0.3 0.5-0.4c0.1-0.1 0.3-0.1 0.5-0.2s0.4-0.1 0.5-0.1c0.5-0.1 0.9-0.2 1.3-0.3s0.9-0.2 1.3-0.3c0.9-0.3 1.9-0.6 2.9-1s2.1-0.9 3.1-1.4c1-0.5 2-1.1 2.9-1.7 0.9-0.6 1.7-1.3 2.4-1.9 0.2-0.2 0.4-0.4 0.6-0.7 0.2-0.3 0.3-0.5 0.4-0.8s0.1-0.6 0.1-0.8c0-0.3-0.2-0.6-0.4-0.8 -0.3-0.3-0.7-0.5-1.3-0.6 -0.5-0.1-1.1-0.1-1.7 0 -0.6 0.1-1.2 0.2-1.7 0.3 -0.6 0.2-1 0.3-1.4 0.4 -2 0.8-3.8 1.8-5.5 3s-3.3 2.6-4.8 4c-0.3 0.3-0.6 0.6-1 1.1s-0.8 1-1.3 1.5 -0.9 1.1-1.3 1.8c-0.4 0.6-0.7 1.2-0.9 1.8 -0.2 0.6-0.3 1.2-0.3 1.7 0 0.5 0.2 1 0.6 1.4 0.4 0.4 1 0.7 1.7 0.9s1.5 0.2 2.3 0.2c0.8 0 1.6-0.1 2.3-0.2 0.1 0 0.1 0 0.2 0 -0.1 0.1-0.2 0.3-0.4 0.5 -0.2 0.3-0.3 0.6-0.4 0.9 -0.1 0.3-0.1 0.6-0.1 0.9 0 0.3 0.1 0.6 0.4 0.8 0.3 0.3 0.7 0.6 1.3 0.7 0.6 0.2 1.2 0.3 1.8 0.4 0.6 0.1 1.3 0.1 1.9 0.1s1.1 0 1.5 0c-0.2 0.3-0.5 0.7-0.8 1.2 -0.3 0.5-0.5 0.9-0.7 1.4 -0.2 0.5-0.2 1-0.2 1.5s0.2 0.9 0.6 1.3c0.5 0.5 1 0.8 1.6 0.9 0.6 0.2 1.3 0.3 2 0.3 0.7 0 1.4 0 2.1-0.1s1.3-0.2 1.9-0.3c0.2 0 0.4-0.1 0.7-0.2 0.2-0.1 0.4-0.2 0.6-0.3 0.1-0.1 0.2-0.2 0.2-0.4s0-0.3-0.1-0.4C128 94.7 127.8 94.7 127.5 94.7zM124.9 88.2c0.3-0.3 0.8-0.7 1.3-1.2 0.6-0.5 1.2-0.9 2-1.5 0.7-0.5 1.5-1 2.3-1.6 0.8-0.5 1.6-1 2.3-1.4 0.8-0.4 1.5-0.8 2.1-1.1 0.6-0.3 1.2-0.4 1.6-0.5 0.1 0 0.2 0 0.3 0s0.2 0 0.3 0.1c0.1 0.1 0.1 0.1 0.1 0.2 0 0.1-0.1 0.2-0.1 0.2 -0.1 0.1-0.1 0.2-0.2 0.2l-0.1 0.1c-0.7 0.7-1.5 1.3-2.5 1.9s-2.1 1.2-3.2 1.8c-1.1 0.6-2.2 1.1-3.3 1.5 -1.1 0.5-2.1 0.9-3 1.2L124.9 88.2zM114.6 76l0.3-0.3c1-1 2.2-2 3.6-2.8s2.7-1.6 3.9-2.3c0.2-0.1 0.6-0.3 1-0.5 0.4-0.2 0.9-0.4 1.4-0.6 0.5-0.2 0.9-0.3 1.4-0.3 0.4 0 0.8 0 1 0.3 0.1 0.1 0.1 0.2 0.1 0.3 0 0.1-0.1 0.2-0.1 0.3s-0.1 0.2-0.2 0.3l-0.2 0.2c-0.7 0.7-1.5 1.3-2.6 1.9 -1 0.6-2.1 1.2-3.3 1.7 -1.1 0.5-2.3 1-3.5 1.3s-2.2 0.7-3.1 0.9C114.4 76.2 114.5 76.1 114.6 76zM120.1 88.6c-0.6 0-1.3 0-2 0 -0.7 0-1.4-0.1-2-0.2 -0.6-0.1-1-0.3-1.3-0.5 -0.1-0.1-0.1-0.2 0-0.4 0.1-0.1 0.2-0.2 0.2-0.3 0.4-0.4 1-0.8 1.8-1.1 0.7-0.3 1.5-0.5 2.3-0.6 0.8-0.1 1.6-0.1 2.3 0.1 0.8 0.1 1.4 0.5 1.9 0.9l-0.9 0.9c-0.3 0.3-0.6 0.6-0.9 1C121.2 88.5 120.7 88.6 120.1 88.6z"/>
    <path class="st1" d="M89.8 56.8c0.1-0.1 0-0.3-0.1-0.4 -0.1-0.1-0.4-0.2-0.6-0.1 -0.3 0.1-0.5 0.1-0.7 0.1 -0.4 0.1-0.9 0.2-1.5 0.3 -0.6 0.1-1.2 0.1-1.8 0.2 -0.6 0-1.2 0-1.7-0.1 -0.5-0.1-1-0.3-1.3-0.6 -0.2-0.2-0.2-0.5-0.1-0.9 0.2-0.4 0.4-0.8 0.7-1.3 0.3-0.4 0.7-0.8 1-1.2 0.3-0.4 0.6-0.6 0.8-0.8 1-0.3 2.2-0.7 3.5-1.2 1.3-0.5 2.7-1.1 4-1.7s2.6-1.3 3.8-2 2.2-1.4 2.9-2.2c0.2-0.2 0.4-0.4 0.6-0.7s0.4-0.6 0.6-0.9 0.2-0.7 0.3-1c0-0.3-0.1-0.6-0.4-0.9 -0.2-0.2-0.5-0.4-0.8-0.4 -0.3-0.1-0.7-0.1-1-0.1 -0.6 0-1.2 0.1-1.9 0.3s-1.5 0.5-2.2 0.8 -1.6 0.7-2.4 1.2c-0.8 0.5-1.5 0.9-2.3 1.4s-1.4 1-2 1.5c-0.6 0.5-1.1 0.9-1.5 1.3 0-0.6-0.2-1.1-0.6-1.6 -0.3-0.3-0.8-0.6-1.3-0.8s-1-0.3-1.5-0.3c-1.2-0.1-2.3 0.1-3.5 0.5 -0.5 0.2-0.9 0.4-1.3 0.6 -0.1 0-0.2 0-0.3 0 -0.4 0.1-0.9 0.1-1.5 0.2 -0.5 0.1-1.1 0.1-1.6 0.1s-1-0.1-1.5-0.2 -0.9-0.4-1.3-0.7c-0.2-0.2-0.3-0.5-0.3-0.9 0-0.4 0.1-0.8 0.3-1.3 0.2-0.5 0.4-0.9 0.7-1.4 0.3-0.5 0.6-1 0.8-1.4s0.6-0.8 0.8-1.2 0.5-0.6 0.6-0.8c0.3 0.2 0.7 0.5 1 0.8 0.4 0.3 0.7 0.5 1.1 0.7 0.2 0.1 0.4 0.1 0.6 0.2 0.2 0 0.4 0 0.5-0.2 0.1-0.1 0.1-0.2 0.1-0.4 0-0.1-0.1-0.2-0.2-0.3 -0.3-0.3-0.7-0.6-1.1-0.9 -0.4-0.3-0.8-0.6-1.2-0.9 0.6-0.7 1.1-1.4 1.7-2 0.6-0.6 1.2-1.2 1.8-1.9 0.8-0.8 1.6-1.5 2.4-2.2 0.8-0.7 1.7-1.5 2.4-2.2 0.2-0.2 0.3-0.4 0.4-0.6 0.1-0.3 0.1-0.5-0.1-0.7 -0.1-0.1-0.3-0.3-0.6-0.4 -0.3-0.2-0.6-0.3-0.9-0.4 -0.3-0.1-0.6-0.2-0.9-0.2s-0.5 0.1-0.7 0.2c-0.4 0.4-0.9 0.8-1.3 1.1 -0.5 0.3-1 0.5-1.5 0.8 -0.6 0.3-1.5 0.7-2.7 1.2 -1.2 0.5-2.5 1.1-3.9 1.7 -1.4 0.6-2.9 1.2-4.5 1.7 -1.6 0.6-3.1 1-4.5 1.3 -1.4 0.3-2.7 0.5-3.8 0.5 -1.1 0-1.9-0.3-2.5-0.8 -0.2-0.2-0.4-0.4-0.5-0.7 -0.1-0.2-0.3-0.5-0.5-0.7 -0.1-0.1-0.2-0.2-0.4-0.2 -0.2 0-0.3 0-0.4 0.1 -0.1 0.1-0.2 0.3-0.2 0.5 0 0.2 0.1 0.4 0.2 0.6 0.1 0.2 0.3 0.4 0.4 0.6s0.3 0.3 0.4 0.4c0.8 0.8 1.9 1.3 3 1.5s2.4 0.1 3.6-0.2c1.2-0.3 2.5-0.6 3.7-1.1C67 34.7 68 34.3 69 34c0.6 0.5 1.1 0.9 1.7 1.3 0.6 0.4 1.2 0.8 1.8 1.3 -0.4 0.6-0.9 1.3-1.4 2.1 -0.5 0.8-1 1.7-1.3 2.6s-0.5 1.8-0.5 2.7c0 0.9 0.3 1.7 1 2.3 0.4 0.4 0.9 0.7 1.5 0.8 0.6 0.2 1.3 0.3 2 0.3 0.7 0 1.4 0 2-0.1 -0.1 0.1-0.2 0.3-0.3 0.4 -0.2 0.3-0.3 0.6-0.4 0.9 -0.1 0.3-0.1 0.6-0.1 0.9 0 0.3 0.1 0.6 0.4 0.8 0.3 0.3 0.7 0.6 1.3 0.7 0.6 0.2 1.2 0.3 1.8 0.4 0.6 0.1 1.3 0.1 1.9 0.1 0.6 0 1.1 0 1.5 0 -0.2 0.3-0.5 0.7-0.8 1.2 -0.3 0.5-0.5 0.9-0.7 1.4 -0.2 0.5-0.2 1-0.2 1.5 0 0.5 0.2 0.9 0.6 1.3 0.5 0.5 1 0.8 1.6 0.9s1.3 0.3 2 0.3c0.7 0 1.4 0 2.1-0.1 0.7-0.1 1.3-0.2 1.9-0.3 0.2 0 0.4-0.1 0.7-0.2 0.2-0.1 0.4-0.2 0.6-0.3C89.7 57 89.8 56.9 89.8 56.8zM86.4 49.8c0.3-0.3 0.8-0.7 1.3-1.2 0.6-0.5 1.2-0.9 2-1.5s1.5-1 2.3-1.6 1.6-1 2.3-1.4 1.5-0.8 2.1-1.1c0.6-0.3 1.2-0.4 1.6-0.5 0.1 0 0.2 0 0.3 0 0.1 0 0.2 0 0.3 0.1 0.1 0.1 0.1 0.1 0.1 0.2 0 0.1-0.1 0.2-0.1 0.2 -0.1 0.1-0.1 0.2-0.2 0.2l-0.1 0.1c-0.7 0.7-1.5 1.3-2.5 1.9 -1 0.6-2.1 1.2-3.2 1.8 -1.1 0.6-2.2 1.1-3.3 1.5 -1.1 0.5-2.1 0.9-3 1.2L86.4 49.8zM71.8 34.5c-0.5-0.4-0.9-0.7-1.4-1.1 0.7-0.3 1.5-0.6 2.2-0.9 0.7-0.3 1.4-0.6 2.2-1 0.1 0 0.3-0.1 0.5-0.2 0.2-0.1 0.5-0.2 0.8-0.4 0.3-0.1 0.5-0.2 0.8-0.3 0.2-0.1 0.4-0.1 0.4-0.1 0 0 0 0.1 0 0.1 0 0 0 0.1-0.1 0.1 -0.2 0.3-0.4 0.6-0.7 0.9s-0.5 0.6-0.8 0.8c-0.9 1-1.7 2-2.5 3C72.7 35.2 72.2 34.9 71.8 34.5zM81.7 50.2c-0.6 0-1.3 0-2 0 -0.7 0-1.4-0.1-2-0.2 -0.6-0.1-1-0.3-1.3-0.5 -0.1-0.1-0.1-0.2 0-0.3 0.1-0.1 0.2-0.2 0.2-0.3 0.4-0.4 1-0.8 1.8-1.1 0.7-0.3 1.5-0.5 2.3-0.6s1.6-0.1 2.3 0.1c0.8 0.1 1.4 0.5 1.9 0.9l-0.9 0.9c-0.3 0.3-0.6 0.6-0.9 1C82.8 50.1 82.3 50.2 81.7 50.2z"/>
    <path class="st1" d="M109.5 74.6c0.3-0.3 0.6-0.7 0.9-1.1 0.3-0.4 0.5-0.8 0.6-1.3 0.1-0.4 0.2-0.9 0.1-1.3 -0.1-0.4-0.3-0.9-0.7-1.3 -0.6-0.6-1.4-1-2.3-1.1 -0.9-0.1-1.8 0-2.7 0.2 -0.9 0.2-1.8 0.6-2.6 1.1 -0.2 0.1-0.4 0.3-0.6 0.4 0 0 0 0 0 0 0.1 0.1 0.2 0.3 0.1 0.4 0 0.1-0.1 0.2-0.2 0.4 -0.1 0.1-0.2 0.1-0.3 0.1 -0.1 0-0.2 0.1-0.3 0.1 -0.3 0.1-0.5 0.1-0.8 0.1 -0.3 0.3-0.6 0.6-0.8 1 -0.3 0.4-0.5 0.8-0.6 1.3 -0.1 0.4-0.1 0.9 0 1.3 0.1 0.4 0.3 0.8 0.7 1.2 0.3 0.3 0.6 0.5 1 0.7s0.8 0.3 1.2 0.4c0.7 0.1 1.4 0.2 2 0.1 0.7-0.1 1.3-0.3 1.9-0.5 0.6-0.3 1.2-0.6 1.8-1C108.5 75.5 109 75 109.5 74.6zM105.8 75.8c-0.4 0.2-0.9 0.4-1.4 0.5s-1 0.1-1.4 0.1c-0.3 0-0.5-0.1-0.7-0.2 -0.2-0.1-0.5-0.2-0.6-0.4 -0.2-0.2-0.3-0.4-0.3-0.7 0-0.3 0-0.5 0.1-0.8 0.1-0.2 0.2-0.5 0.4-0.7s0.4-0.4 0.5-0.6c0.3-0.3 0.8-0.7 1.4-1.1 0.6-0.4 1.2-0.7 1.9-0.9 0.7-0.2 1.3-0.4 1.9-0.4 0.6 0 1.1 0.2 1.5 0.6 0.2 0.2 0.3 0.5 0.4 0.8s0 0.6-0.1 0.8c-0.1 0.3-0.3 0.5-0.5 0.8 -0.2 0.3-0.4 0.5-0.6 0.6 -0.3 0.3-0.7 0.6-1.1 0.9C106.7 75.3 106.3 75.5 105.8 75.8z"/>
    <path class="st1" d="M126.6 98.8c-0.3 0.1-0.6 0.3-0.9 0.6 -0.3 0.3-0.4 0.5-0.4 0.9 0 0.3 0.1 0.6 0.4 0.8 0.3 0.3 0.7 0.4 1 0.3 0.3-0.1 0.6-0.3 0.9-0.6 0.2-0.2 0.3-0.5 0.3-0.9 0-0.4-0.2-0.6-0.4-0.9C127.2 98.8 126.9 98.7 126.6 98.8z"/>
    <path class="st1" d="M102.2 70.2c-0.1-0.1-0.3-0.2-0.5-0.1 -0.2 0-0.4 0.1-0.6 0.1 -0.3 0.1-0.8 0.1-1.4 0.2s-1.3 0.1-1.9 0c-0.7 0-1.3-0.1-1.8-0.2s-1-0.3-1.2-0.6c0.4-0.1 0.8-0.2 1.2-0.4 0.4-0.2 0.7-0.4 1-0.7 0.5-0.5 0.8-1 1.1-1.5s0.5-1.2 0.8-1.8c0.2-0.6 0.4-1.3 0.6-1.9 0.2-0.6 0.4-1.2 0.6-1.8 0.5-0.2 0.9-0.4 1.4-0.7 0.5-0.3 0.9-0.6 1.2-0.9 0.1-0.1 0.2-0.2 0.3-0.4s0.2-0.3 0.3-0.5c0.1-0.2 0.1-0.3 0.1-0.5 0-0.2-0.1-0.3-0.2-0.4 -0.3-0.3-0.6-0.4-1-0.4 -0.4 0-0.8 0-1.1 0.2s-0.7 0.3-1.1 0.5c-0.4 0.2-0.6 0.4-0.8 0.6 -0.4 0.4-0.7 0.8-0.9 1.3 -2 1-4.1 1.6-6.2 1.9 -0.2 0-0.3 0-0.4 0.1 -0.1 0-0.3 0.1-0.4 0.2 -0.2 0.2-0.2 0.4 0 0.6 0.1 0.1 0.3 0.2 0.4 0.2 0.2 0 0.3 0 0.5 0 0.4 0 0.9-0.1 1.4-0.2 0.5-0.1 1-0.2 1.6-0.4 0.5-0.2 1-0.3 1.5-0.5 0.5-0.2 0.9-0.4 1.3-0.6 -0.1 0.4-0.2 0.9-0.4 1.4 -0.2 0.5-0.4 1-0.6 1.5 -0.2 0.5-0.5 1-0.8 1.5 -0.3 0.5-0.6 0.9-0.9 1.2 -0.5 0.5-1.1 0.8-1.8 0.9 -0.6 0.1-1.2-0.2-1.8-0.8 -0.3-0.3-0.5-0.6-0.7-0.9 -0.2-0.3-0.3-0.6-0.4-1 0-0.1-0.1-0.2-0.1-0.3 0-0.1-0.1-0.2-0.2-0.2 -0.2-0.2-0.4-0.2-0.7 0 -0.1 0.1-0.2 0.2-0.2 0.3 0 0.1 0 0.2 0 0.4 0 0.6 0.2 1.2 0.6 1.8 0.4 0.6 0.8 1 1.2 1.5 0.8 0.8 1.5 1.4 2.4 1.8s1.6 0.8 2.5 0.9c0.9 0.2 1.8 0.2 2.7 0.2 0.7 0 1.4-0.1 2.2-0.3 0 0 0 0 0 0C101.2 70.9 101.7 70.6 102.2 70.2z"/>
  </g>
</svg>
