<?xml version="1.0" encoding="utf-8"?>
<!-- Generator: Adobe Illustrator 19.2.1, SVG Export Plug-In . SVG Version: 6.00 Build 0)  -->
<svg version="1.1" id="Layer_1" xmlns="http://www.w3.org/2000/svg" xmlns:xlink="http://www.w3.org/1999/xlink" x="0px" y="0px"
	 width="112px" height="112px" viewBox="0 0 112 112" style="enable-background:new 0 0 112 112;" xml:space="preserve">
<style type="text/css">
	.st0{fill:#FFFFFF;}
	.st1{fill:#313133;}
</style>
<circle class="st0" cx="56" cy="56" r="56"/>
<path class="st1" d="M64.8,37.6c0,0,0.4-2.4,0.6-4.2c0.2-2.3-1.3-8.1-9.5-8.1h-0.1l0,0l0,0l0,0l0,0l0,0l0,0h-0.1
	c-8.2,0-9.8,5.9-9.5,8.1c0.2,1.8,0.6,4.2,0.6,4.2s-0.9,0.4-0.9,2c0.3,4,1.9,2.3,2.2,4c0.5,2.9,3.1,5,4.8,5.8
	c0.9,0.4,1.9,0.6,2.9,0.7l0,0l0,0l0,0l0,0c1,0,2-0.2,2.9-0.7c1.6-0.7,4.2-2.8,4.8-5.8c0.3-1.8,1.9,0,2.2-4
	C65.7,38,64.8,37.6,64.8,37.6z M56,49.3c-4.4,0-7.6-5.2-8.2-10.3c-0.1-0.7,0-1.3,0.1-1.9c6.4,0.3,10.2-2.3,12.3-4.6
	c0.9,3.2,3.5,6.3,3.5,6.3c0,0.1,0,0.1,0,0.2C63.6,43.9,60.3,49.3,56,49.3z"/>
<path class="st1" d="M71.9,55.6c-3.6-1.8-8.9-4.1-9.1-4.2l0,0c-0.1-0.1-0.3-0.1-0.5-0.1c-0.6,0-1.1,0.4-1.3,0.9l0,0
	c-0.9,2.3-2.4,8.5-2.4,8.5h-5c0,0-2.2-6.3-3.1-8.6l0,0c-0.2-0.5-0.7-0.9-1.3-0.9c-0.2,0-0.3,0-0.5,0.1l0,0c-0.3,0.1-5.5,2.4-9.1,4.2
	C38,56.3,37,57.4,37,58.4c0,3.6,0,8.5,0,8.5h18.8l0,0l0,0l0,0l0,0l0,0l0,0l0,0l0,0l0,0l0,0l0,0l0,0h18.8c0,0,0-5,0-8.5
	C74.5,57.5,73.6,56.5,71.9,55.6z"/>
<path class="st1" d="M58.1,51.3h-4.4c-0.4,0-0.7,0.4-0.5,0.7l0.8,2c0,0.1,0.1,0.2,0.2,0.3v5.3h3.4v-5.4l0.1-0.1l0.9-2
	C58.8,51.7,58.5,51.3,58.1,51.3z"/>
<path class="st1" d="M45.7,79.4c-0.3,0-0.4,0.2-0.4,0.5L43.7,87h-1.8l-1.4-5.8l0,0L39.2,87h-1.8l-1.8-7.5h-0.7v-1.1H38v1.1h-0.4
	c-0.3,0-0.5,0.1-0.4,0.5l1.1,5h0.1l1.4-5.9h1.7l1.4,5.9l0,0l1.1-5.4l-0.7-0.1v-1.1h2.9v1.1L45.7,79.4z"/>
<path class="st1" d="M52.5,85.5c0,0.3,0.1,0.4,0.3,0.4h0.4v1h-2.1v-0.8l0,0C50.7,86.7,50,87,49.3,87c-1.8,0-2.6-1.3-2.6-3.2
	c0-2.3,1.1-3.7,3.4-3.7c0.4,0,1.4,0.1,2.3,0.5L52.5,85.5L52.5,85.5z M51,81.5c-0.2-0.1-0.6-0.2-1-0.2c-1.2,0-1.7,1.2-1.7,2.6
	c0,1.1,0.3,2.1,1.4,2.1c0.8,0,1.3-0.6,1.3-1.1V81.5z"/>
<path class="st1" d="M53.9,80.4h2.2v0.8c0.5-0.6,1.2-1,2.1-1c1.3,0,2.1,0.7,2.1,2.3v3.4H61v1h-3.1v-1h0.4c0.2,0,0.4-0.1,0.4-0.4
	v-2.7c0-0.9-0.2-1.4-1.1-1.4c-0.9,0-1.3,0.6-1.3,1.3v3.1H57v1h-3v-1h0.4c0.2,0,0.4-0.1,0.4-0.4v-3.6c0-0.3-0.1-0.4-0.3-0.4H54v-1
	H53.9z"/>
<path class="st1" d="M63.6,79v1.4h1.7l-0.1,1.1h-1.6v3.4c0,0.8,0.3,1,0.8,1c0.4,0,0.7-0.1,0.9-0.3l0.4,1c-0.4,0.3-1,0.5-1.7,0.5
	c-2,0-2-1.2-2-2.2v-3.5h-0.9l0.1-0.9c0.9-0.1,1.2-0.8,1.5-1.5H63.6z"/>
<path class="st1" d="M71.6,82c0,2-2.2,2.3-3.7,2.4c0.1,0.8,0.5,1.5,1.6,1.5c0.8,0,1.3-0.4,1.6-0.6l0.5,1.1c-0.2,0.2-1.1,0.7-2.3,0.7
	c-2.2,0-3.1-1.4-3.1-3.3s1.1-3.6,3.2-3.6C70.7,80.2,71.6,80.8,71.6,82z M69.4,81.3c-1,0-1.5,1-1.5,2c1,0,2.3-0.2,2.3-1.2
	C70.1,81.6,69.8,81.3,69.4,81.3z"/>
<path class="st1" d="M76.8,80.4V79c0-0.2-0.1-0.3-0.3-0.3h-0.6v-1h2.4v7.9c0,0.2,0.1,0.3,0.3,0.3h0.5v1H77v-0.8l0,0
	c-0.4,0.7-1.1,0.9-1.8,0.9c-2,0-2.6-1.6-2.6-3.2c0-2.2,1.1-3.7,3.2-3.7C76.2,80.2,76.5,80.3,76.8,80.4z M76.8,81.5
	c-0.2-0.1-0.6-0.2-1-0.2c-1.2,0-1.7,1.2-1.7,2.4c0,1.2,0.3,2.2,1.4,2.2c0.7,0,1.2-0.5,1.2-1.1L76.8,81.5L76.8,81.5z"/>
</svg>
