<svg xmlns="http://www.w3.org/2000/svg" width="112" height="112" viewBox="0 0 112 112"><style type="text/css">  
	.st0{fill:none;}
	.st1{fill:#313133;}
	.st2{fill:none;stroke:#313133;stroke-width:4.5081;stroke-linecap:round;stroke-linejoin:round;stroke-miterlimit:10;}
	.st3{fill:none;stroke:#313133;stroke-width:4.5078;stroke-linecap:round;stroke-linejoin:round;stroke-miterlimit:10;}
	.st4{fill:#FFFFFF;}
	
		.st5{fill:none;stroke:#313133;stroke-width:2;stroke-linecap:round;stroke-linejoin:round;stroke-dasharray:0.4016,4.016,0.4016,4.016,0.4016,4.016;}
	.st6{fill:#313131;}
	.st7{fill:#A8DC28;}
	.st8{fill:#EFEFEF;}
	
		.st9{fill:none;stroke:#A8DC28;stroke-width:2;stroke-linecap:round;stroke-linejoin:round;stroke-dasharray:0.4016,4.016,0.4016,4.016,0.4016,4.016;}
	.st10{fill:#313133;stroke:#313133;stroke-width:2.0544;stroke-linecap:round;stroke-linejoin:round;stroke-miterlimit:10;}
	.st11{fill:#EFEFEF;stroke:#EFEFEF;stroke-width:2.0544;stroke-linecap:round;stroke-linejoin:round;stroke-miterlimit:10;}
	.st12{fill:none;stroke:#313133;stroke-width:1.4652;stroke-miterlimit:10;}
	.st13{fill:none;stroke:#EFEFEF;stroke-width:1.4652;stroke-miterlimit:10;}
	.st14{fill:none;stroke:#313133;stroke-width:0.7992;stroke-miterlimit:10;}
	.st15{fill:none;stroke:#EFEFEF;stroke-width:0.7992;stroke-miterlimit:10;}
	.st16{fill:none;stroke:#EFEFEF;stroke-width:4.5081;stroke-linecap:round;stroke-linejoin:round;stroke-miterlimit:10;}
	.st17{fill:none;stroke:#EFEFEF;stroke-width:4.5078;stroke-linecap:round;stroke-linejoin:round;stroke-miterlimit:10;}
</style><circle class="st6" cx="56" cy="56" r="56"/><path class="st7" d="M28.6 83.8l0.4 0c0.2 0 0.4-0.1 0.4-0.4v-6.1l-0.8 0v-1.1h3.8c1.9 0 3.1 0.9 3.1 2.7 0 2-1.4 3-3.4 3H31v1.9l1.3 0v1.1h-3.7V83.8zM32 80.5c1.1 0 1.9-0.4 1.9-1.6 0-1.4-0.8-1.6-2.1-1.6H31v3.1H32z"/><path class="st7" d="M42.3 83.4c0 0.3 0.1 0.4 0.3 0.4l0.4 0v1.1H41v-0.8l0 0c-0.4 0.6-1.1 0.9-1.8 0.9 -1.9 0-2.6-1.3-2.6-3.2 0-2.3 1.1-3.8 3.5-3.8 0.4 0 1.4 0.1 2.3 0.5V83.4zM40.8 79.4c-0.2-0.1-0.6-0.2-1-0.2 -1.3 0-1.7 1.2-1.7 2.6 0 1.1 0.3 2.1 1.4 2.1 0.8 0 1.3-0.6 1.3-1.1V79.4z"/><path class="st7" d="M44.7 79.7c0-0.3-0.1-0.4-0.3-0.4l-0.6 0v-1.1h2.2v1c0.3-0.7 1-1.2 1.9-1.2 0.4 0 0.8 0.1 1.3 0.3v2L48 80.4v-0.6c0-0.2 0-0.3-0.1-0.3 -0.1-0.1-0.2-0.1-0.4-0.1 -0.7 0-1.2 0.6-1.2 1.3v3.1l1.1 0.1v1h-3.5v-1l0.4 0c0.3 0 0.4-0.1 0.4-0.4V79.7z"/><path class="st7" d="M52.3 76.8v1.4h1.8l-0.1 1.1h-1.6v3.5c0 0.8 0.3 1 0.9 1 0.4 0 0.7-0.1 0.9-0.3l0.4 1c-0.4 0.3-1.1 0.5-1.7 0.5 -2.1 0-2-1.3-2-2.2v-3.5h-0.9l0.1-1c0.9-0.1 1.2-0.8 1.5-1.5H52.3z"/><path class="st7" d="M59.9 76.8v1.4h1.8l-0.1 1.1h-1.6v3.5c0 0.8 0.3 1 0.9 1 0.4 0 0.7-0.1 0.9-0.3l0.4 1C61.7 84.9 61 85 60.4 85c-2.1 0-2-1.3-2-2.2v-3.5h-0.9l0.1-1c0.9-0.1 1.2-0.8 1.5-1.5H59.9z"/><path class="st7" d="M65 83.8l0.8 0v1.1h-3.1v-1l0.4 0c0.2 0 0.4-0.1 0.4-0.4v-3.7c0-0.3-0.1-0.4-0.3-0.4l-0.5 0v-1.1H65V83.8zM64 75.4c0.6 0 1 0.4 1 1 0 0.6-0.4 1-1 1 -0.6 0-1-0.4-1-1C63 75.8 63.4 75.4 64 75.4z"/><path class="st7" d="M66.4 78.2h2.2v0.9c0.5-0.7 1.1-1.1 2-1.1 0.8 0 1.5 0.3 1.8 1.1 0.5-0.7 1.1-1.1 2-1.1 1.2 0 2 0.7 2 2.3v3.4l0.8 0v1.1H74v-1l0.4 0c0.2 0 0.4-0.1 0.4-0.4v-2.7c0-0.8-0.1-1.4-0.9-1.4 -0.9 0-1.3 0.6-1.3 1.4v3.2l0.7 0v1.1h-3.1v-1l0.4 0c0.3 0 0.4-0.1 0.4-0.4v-2.7c0-0.8-0.1-1.4-0.9-1.4 -0.9 0-1.3 0.6-1.3 1.3v3.2l0.7 0v1.1h-3.1v-1l0.4 0c0.3 0 0.4-0.1 0.4-0.4h0v-3.6c0-0.3-0.1-0.4-0.3-0.4l-0.6 0V78.2z"/><path class="st7" d="M83.4 79.9c0 2-2.2 2.4-3.8 2.4 0.1 0.9 0.5 1.6 1.6 1.6 0.8 0 1.3-0.4 1.7-0.6l0.5 1.1c-0.2 0.2-1.1 0.7-2.3 0.7 -2.2 0-3.1-1.4-3.1-3.3 0-2 1.1-3.7 3.3-3.7C82.5 78 83.4 78.7 83.4 79.9zM81.1 79.2c-1.1 0-1.5 1-1.6 2 1 0 2.4-0.2 2.4-1.3C81.9 79.4 81.6 79.2 81.1 79.2z"/><path class="st8" d="M56.7 22.7c-12.8-0.4-23.2 10-22.8 22.8 0.4 11.6 9.8 21 21.3 21.3C68 67.2 78.5 56.8 78.1 44 77.7 32.5 68.3 23 56.7 22.7zM56.9 61.9c-10.2 0.5-18.6-7.9-18.1-18.1 0.4-8.8 7.6-15.9 16.3-16.3 10.2-0.5 18.6 7.9 18.1 18.1C72.8 54.4 65.7 61.5 56.9 61.9z"/><path class="st8" d="M39.3 30.4L39 30c-0.6-0.6-0.6-1.7 0-2.3l1.9-1.8c0.6-0.6 1.5-0.6 2.1-0.1l0.4 0.3c0.7 0.6 0.8 1.7 0.1 2.4l-1.9 1.8C40.9 31 39.9 31 39.3 30.4z"/><path class="st8" d="M72.6 30.2L72.6 30.2c0.7-0.7 0.7-1.9 0-2.7L71 26.1c-0.7-0.6-1.7-0.7-2.4-0.1l0 0c-0.8 0.7-0.9 2-0.1 2.7l1.6 1.5C70.8 30.9 71.9 30.9 72.6 30.2z"/><path class="st8" d="M53.3 23.3v-1.3c0-0.7-0.6-1.3-1.3-1.3h-1.6c-0.7 0-1.3-0.6-1.3-1.3v-0.3c0-0.7 0.6-1.3 1.3-1.3h11.1c0.7 0 1.3 0.6 1.3 1.3v0.2c0 0.7-0.6 1.3-1.3 1.3h-1.3c-0.7 0-1.3 0.6-1.3 1.3v1.4L53.3 23.3z"/><path class="st7" d="M56 30v14.8h15.3c0-1.2-0.4-6-4.2-10C62.7 30.1 57 30 56 30z"/><circle class="st9" cx="56" cy="56" r="50.6"/></svg>