<svg xmlns="http://www.w3.org/2000/svg" width="112" height="112" viewBox="0 0 112 112"><style type="text/css">  
	.st0{fill:none;}
	.st1{fill:#313133;}
	.st2{fill:none;stroke:#313133;stroke-width:4.5081;stroke-linecap:round;stroke-linejoin:round;stroke-miterlimit:10;}
	.st3{fill:none;stroke:#313133;stroke-width:4.5078;stroke-linecap:round;stroke-linejoin:round;stroke-miterlimit:10;}
	.st4{fill:#FFFFFF;}
	
		.st5{fill:none;stroke:#313133;stroke-width:2;stroke-linecap:round;stroke-linejoin:round;stroke-dasharray:0.4016,4.016,0.4016,4.016,0.4016,4.016;}
	.st6{fill:#313131;}
	.st7{fill:#A8DC28;}
	.st8{fill:#EFEFEF;}
	
		.st9{fill:none;stroke:#A8DC28;stroke-width:2;stroke-linecap:round;stroke-linejoin:round;stroke-dasharray:0.4016,4.016,0.4016,4.016,0.4016,4.016;}
	.st10{fill:#313133;stroke:#313133;stroke-width:2.0544;stroke-linecap:round;stroke-linejoin:round;stroke-miterlimit:10;}
	.st11{fill:#EFEFEF;stroke:#EFEFEF;stroke-width:2.0544;stroke-linecap:round;stroke-linejoin:round;stroke-miterlimit:10;}
	.st12{fill:none;stroke:#313133;stroke-width:1.4652;stroke-miterlimit:10;}
	.st13{fill:none;stroke:#EFEFEF;stroke-width:1.4652;stroke-miterlimit:10;}
	.st14{fill:none;stroke:#313133;stroke-width:0.7992;stroke-miterlimit:10;}
	.st15{fill:none;stroke:#EFEFEF;stroke-width:0.7992;stroke-miterlimit:10;}
	.st16{fill:none;stroke:#EFEFEF;stroke-width:4.5081;stroke-linecap:round;stroke-linejoin:round;stroke-miterlimit:10;}
	.st17{fill:none;stroke:#EFEFEF;stroke-width:4.5078;stroke-linecap:round;stroke-linejoin:round;stroke-miterlimit:10;}
</style><circle class="st4" cx="56" cy="56" r="56"/><circle class="st0" cx="56" cy="56" r="56"/><path class="st1" d="M25.7 77.1h-1c-0.3 0-0.3 0.2-0.3 0.4v0.6L23 78.1v-2.2h6.9v2.2l-1.3 0.1v-0.6c0-0.3 0-0.4-0.4-0.4h-0.9v6.3l1 0v1.1h-3.7v-1.1l0.7 0c0.3 0 0.4-0.1 0.4-0.4V77.1z"/><path class="st1" d="M36 79.6c0 2-2.2 2.4-3.8 2.4 0.1 0.9 0.5 1.6 1.6 1.6 0.8 0 1.3-0.4 1.7-0.6L36 84c-0.2 0.2-1.1 0.7-2.3 0.7 -2.2 0-3.1-1.4-3.1-3.3 0-2 1.1-3.7 3.3-3.7C35.2 77.8 36 78.4 36 79.6zM33.8 78.9c-1.1 0-1.5 1-1.6 2 1 0 2.4-0.2 2.4-1.3C34.6 79.1 34.3 78.9 33.8 78.9z"/><path class="st1" d="M36.9 78h2.2v0.9c0.5-0.7 1.1-1.1 2-1.1 0.8 0 1.5 0.3 1.8 1.1 0.5-0.7 1.1-1.1 2-1.1 1.2 0 2 0.7 2 2.3v3.4l0.8 0v1.1h-3.1v-1l0.4 0c0.2 0 0.4-0.1 0.4-0.4v-2.7c0-0.8-0.1-1.4-0.9-1.4 -0.9 0-1.3 0.6-1.3 1.4v3.2l0.7 0v1.1h-3.1v-1l0.4 0c0.3 0 0.4-0.1 0.4-0.4v-2.7c0-0.8-0.1-1.4-0.9-1.4 -0.9 0-1.3 0.6-1.3 1.3v3.2l0.7 0v1.1h-3.1v-1l0.4 0c0.3 0 0.4-0.1 0.4-0.4h0v-3.6c0-0.3-0.1-0.4-0.3-0.4l-0.6 0V78z"/><path class="st1" d="M49.1 79.5c0-0.3-0.1-0.4-0.3-0.4l-0.6 0V78h2.2v0.9c0.2-0.4 1-1.1 2.1-1.1 1.5 0 2.4 1 2.4 3.4 0 2.4-1.1 3.7-2.9 3.7 -0.5 0-1.1-0.2-1.4-0.4v1.8l1.1 0.1v1h-3.4v-1l0.4 0c0.3 0 0.4-0.1 0.4-0.4V79.5zM52 79.1c-0.8 0-1.3 0.5-1.3 1.1v3c0.3 0.2 0.8 0.3 1.2 0.3 1.1 0 1.5-1.1 1.5-2.3C53.3 79.5 52.7 79.1 52 79.1z"/><path class="st1" d="M59 77.8c1 0 2.9 0.3 2.9 3.3 0 2.5-1.4 3.7-3.2 3.7 -1.8 0-2.9-1.1-2.9-3.5C55.9 78.5 57.6 77.8 59 77.8zM60.3 81.3c0-1.5-0.4-2.4-1.4-2.4 -1 0-1.5 0.9-1.5 2.2 0 1.2 0.2 2.5 1.4 2.5C59.9 83.6 60.3 82.7 60.3 81.3z"/><path class="st1" d="M63.6 79.5c0-0.3-0.1-0.4-0.3-0.4l-0.6 0V78H65v1c0.3-0.7 1-1.2 1.9-1.2 0.4 0 0.8 0.1 1.3 0.3v2l-1.2 0.1v-0.6c0-0.2 0-0.3-0.1-0.3 -0.1-0.1-0.2-0.1-0.4-0.1 -0.7 0-1.2 0.6-1.2 1.3v3.1l1.1 0.1v1h-3.5v-1l0.4 0c0.3 0 0.4-0.1 0.4-0.4V79.5z"/><path class="st1" d="M74.8 83.1c0 0.3 0.1 0.4 0.3 0.4l0.4 0v1.1h-2.1v-0.8l0 0c-0.4 0.6-1.1 0.9-1.8 0.9 -1.9 0-2.6-1.3-2.6-3.2 0-2.3 1.1-3.8 3.5-3.8 0.4 0 1.4 0.1 2.3 0.5V83.1zM73.3 79.1c-0.2-0.1-0.6-0.2-1-0.2 -1.3 0-1.7 1.2-1.7 2.6 0 1.1 0.3 2.1 1.4 2.1 0.8 0 1.3-0.6 1.3-1.1V79.1z"/><path class="st1" d="M77.2 79.5c0-0.3-0.1-0.4-0.3-0.4l-0.6 0V78h2.2v1c0.3-0.7 1-1.2 1.9-1.2 0.4 0 0.8 0.1 1.3 0.3v2l-1.2 0.1v-0.6c0-0.2 0-0.3-0.1-0.3 -0.1-0.1-0.2-0.1-0.4-0.1 -0.7 0-1.2 0.6-1.2 1.3v3.1l1.1 0.1v1h-3.5v-1l0.4 0c0.3 0 0.4-0.1 0.4-0.4V79.5z"/><path class="st1" d="M87.3 83.4c-0.5 0.7-1.3 1-2.1 1 -1.3 0-2-0.7-2-2.3v-2.7c0-0.3-0.1-0.4-0.3-0.4l-0.4 0V78h2.3v3.8c0 0.8 0.1 1.4 1 1.4 0.9 0 1.4-0.6 1.4-1.3v-2.4c0-0.3-0.1-0.4-0.3-0.4l-0.4 0V78h2.3v6.4c0 2.2-1.1 3.1-3.1 3.1 -0.8 0-1.9-0.2-2.5-0.4v-1.8l1.3-0.1v0.6c0 0.3 0.1 0.4 0.3 0.5 0.3 0.1 0.5 0.1 0.9 0.1 1.2 0 1.7-0.7 1.7-1.9V83.4z"/><path class="st1" d="M68.7 28.6H43.8c-1.2 0-2.2-1-2.2-2.2v0c0-1.2 1-2.2 2.2-2.2h24.9c1.2 0 2.2 1 2.2 2.2v0C70.8 27.6 69.9 28.6 68.7 28.6z"/><path class="st1" d="M68.7 64.9H43.8c-1.2 0-2.2-1-2.2-2.2v0c0-1.2 1-2.2 2.2-2.2h24.9c1.2 0 2.2 1 2.2 2.2v0C70.8 63.9 69.9 64.9 68.7 64.9z"/><path class="st12" d="M44.8 61.8c0 0-1.7-9 6.7-13 0.1 0 0.2-0.1 0.3-0.1 0.6-0.2 3.3-1.5 3.1-4 0 0 0-3.2-3.1-4.2 -1-0.3-1.9-0.8-2.7-1.4 -2-1.6-4.7-4.9-4.4-10.9"/><path class="st12" d="M67.7 61.8c0 0 1.7-9-6.7-13 -0.1 0-0.2-0.1-0.3-0.1 -0.6-0.2-3.3-1.5-3.1-4 0 0 0-3.2 3.1-4.2 1-0.3 1.9-0.8 2.7-1.4 2-1.6 4.7-4.9 4.4-10.9"/><path class="st1" d="M45.1 57.9c0 0-0.7 2.7-0.3 3.9h22.9c0 0 0.3-2.1 0-3.7 0 0-10.6 0.6-11.2-11.8h-0.3C56.2 46.4 55.6 58.7 45.1 57.9z"/><path class="st1" d="M48.5 36.6H64c0 0-0.7 1.6-4.4 3.1 -1.3 0.5-2.2 1.6-2.6 2.8 -0.3 0.9-0.5 2.1-0.4 3.8h-0.3c0 0 0.5-5-2.9-6.6 -0.1 0-0.1-0.1-0.2-0.1C52.5 39.5 49.6 38.4 48.5 36.6z"/><circle class="st5" cx="56" cy="56" r="50.6"/></svg>