<svg xmlns="http://www.w3.org/2000/svg" width="112" height="112" viewBox="0 0 112 112"><style type="text/css">  
	.st0{fill:none;}
	.st1{fill:#313133;}
	.st2{fill:none;stroke:#313133;stroke-width:4.5081;stroke-linecap:round;stroke-linejoin:round;stroke-miterlimit:10;}
	.st3{fill:none;stroke:#313133;stroke-width:4.5078;stroke-linecap:round;stroke-linejoin:round;stroke-miterlimit:10;}
	.st4{fill:#FFFFFF;}
	
		.st5{fill:none;stroke:#313133;stroke-width:2;stroke-linecap:round;stroke-linejoin:round;stroke-dasharray:0.4016,4.016,0.4016,4.016,0.4016,4.016;}
	.st6{fill:#313131;}
	.st7{fill:#A8DC28;}
	.st8{fill:#EFEFEF;}
	
		.st9{fill:none;stroke:#A8DC28;stroke-width:2;stroke-linecap:round;stroke-linejoin:round;stroke-dasharray:0.4016,4.016,0.4016,4.016,0.4016,4.016;}
	.st10{fill:#313133;stroke:#313133;stroke-width:2.0544;stroke-linecap:round;stroke-linejoin:round;stroke-miterlimit:10;}
	.st11{fill:#EFEFEF;stroke:#EFEFEF;stroke-width:2.0544;stroke-linecap:round;stroke-linejoin:round;stroke-miterlimit:10;}
	.st12{fill:none;stroke:#313133;stroke-width:1.4652;stroke-miterlimit:10;}
	.st13{fill:none;stroke:#EFEFEF;stroke-width:1.4652;stroke-miterlimit:10;}
	.st14{fill:none;stroke:#313133;stroke-width:0.7992;stroke-miterlimit:10;}
	.st15{fill:none;stroke:#EFEFEF;stroke-width:0.7992;stroke-miterlimit:10;}
	.st16{fill:none;stroke:#EFEFEF;stroke-width:4.5081;stroke-linecap:round;stroke-linejoin:round;stroke-miterlimit:10;}
	.st17{fill:none;stroke:#EFEFEF;stroke-width:4.5078;stroke-linecap:round;stroke-linejoin:round;stroke-miterlimit:10;}
</style><circle class="st6" cx="56" cy="56" r="56"/><path class="st7" d="M30.5 83.8l0.4 0c0.2 0 0.4-0.1 0.4-0.4v-6.1l-0.8 0v-1.1H37v2.2l-1.3 0.1v-0.5c0-0.3 0-0.4-0.4-0.4h-2.3v2.3h3.2v1.3h-3.2v2.6l1.2 0v1.1h-3.6V83.8z"/><path class="st7" d="M44.4 84.9h-2.1V84c-0.5 0.7-1.3 1-2.1 1 -1.3 0-2-0.7-2-2.3v-3c0-0.3-0.1-0.4-0.3-0.4l-0.4 0v-1.1h2.3v4.2c0 0.8 0.1 1.4 1 1.4 0.9 0 1.4-0.6 1.4-1.3v-2.8c0-0.3-0.1-0.4-0.3-0.4l-0.4 0v-1.1h2.3v5.2c0 0.3 0.1 0.4 0.3 0.4l0.5 0V84.9z"/><path class="st7" d="M47.6 83.8l0.8 0v1.1h-3.1v-1l0.4 0c0.2 0 0.4-0.1 0.4-0.4v-6.5c0-0.2-0.1-0.3-0.3-0.3l-0.5 0v-1.1h2.4V83.8z"/><path class="st7" d="M51.5 83.8l0.8 0v1.1h-3.1v-1l0.4 0c0.2 0 0.4-0.1 0.4-0.4v-6.5c0-0.2-0.1-0.3-0.3-0.3l-0.5 0v-1.1h2.4V83.8z"/><path class="st7" d="M58 76.8v1.4h1.8l-0.1 1.1H58v3.5c0 0.8 0.3 1 0.9 1 0.4 0 0.7-0.1 0.9-0.3l0.4 1c-0.4 0.3-1.1 0.5-1.7 0.5 -2.1 0-2-1.3-2-2.2v-3.5h-0.9l0.1-1c0.9-0.1 1.2-0.8 1.5-1.5H58z"/><path class="st7" d="M63.1 83.8l0.8 0v1.1h-3.1v-1l0.4 0c0.2 0 0.4-0.1 0.4-0.4v-3.7c0-0.3-0.1-0.4-0.3-0.4l-0.5 0v-1.1h2.4V83.8zM62.1 75.4c0.6 0 1 0.4 1 1 0 0.6-0.4 1-1 1 -0.6 0-1-0.4-1-1C61.1 75.8 61.5 75.4 62.1 75.4z"/><path class="st7" d="M64.5 78.2h2.2v0.9c0.5-0.7 1.1-1.1 2-1.1 0.8 0 1.5 0.3 1.8 1.1 0.5-0.7 1.1-1.1 2-1.1 1.2 0 2 0.7 2 2.3v3.4l0.8 0v1.1h-3.1v-1l0.4 0c0.2 0 0.4-0.1 0.4-0.4v-2.7c0-0.8-0.1-1.4-0.9-1.4 -0.9 0-1.3 0.6-1.3 1.4v3.2l0.7 0v1.1h-3.1v-1l0.4 0c0.3 0 0.4-0.1 0.4-0.4v-2.7c0-0.8-0.1-1.4-0.9-1.4 -0.9 0-1.3 0.6-1.3 1.3v3.2l0.7 0v1.1h-3.1v-1l0.4 0c0.3 0 0.4-0.1 0.4-0.4h0v-3.6c0-0.3-0.1-0.4-0.3-0.4l-0.6 0V78.2z"/><path class="st7" d="M81.5 79.9c0 2-2.2 2.4-3.8 2.4 0.1 0.9 0.5 1.6 1.6 1.6 0.8 0 1.3-0.4 1.7-0.6l0.5 1.1c-0.2 0.2-1.1 0.7-2.3 0.7 -2.2 0-3.1-1.4-3.1-3.3 0-2 1.1-3.7 3.3-3.7C80.6 78 81.5 78.7 81.5 79.9zM79.2 79.2c-1.1 0-1.5 1-1.6 2 1 0 2.4-0.2 2.4-1.3C80 79.4 79.7 79.2 79.2 79.2z"/><path class="st16" d="M56 26.6c10.5 0 19.1 8.5 19.1 19.1S66.5 64.7 56 64.7s-19.1-8.5-19.1-19.1c0-5.9 2.6-11.1 6.8-14.6"/><path class="st7" d="M48.1 49.8l3.3-4.2c0.8-1 1.2-1.4 1.2-2.4 0-1-0.6-1.4-1.4-1.4 -0.5 0-0.8 0.1-1 0.1 -0.3 0.1-0.3 0.3-0.3 0.6v1.2l-1.7-0.1v-2.7c0.9-0.4 2.1-0.8 3.4-0.8 2.1 0 3.2 1.2 3.2 3 0 1.1-0.5 2.1-1.4 3.2l-2.7 3.2h4.2v1.7h-6.7V49.8z"/><path class="st7" d="M62 43.3v3.1h1.5v1.6H62v1.5l1.4 0.1v1.4h-4.9v-1.4l1-0.1c0.3 0 0.5-0.1 0.5-0.5v-1.1h-4.3v-1.4l3.2-6.6 1.6 0.8 -2.7 5.7h2.4v-0.9l0.7-2.2H62z"/><polyline class="st17" points="37.6 28.6 46.5 28.6 46.5 36.6 "/><circle class="st9" cx="56" cy="56" r="50.6"/></svg>