<svg xmlns="http://www.w3.org/2000/svg" width="112" height="112" viewBox="0 0 112 112"><style type="text/css">  
	.st0{fill:none;}
	.st1{fill:#313133;}
	.st2{fill:none;stroke:#313133;stroke-width:4.5081;stroke-linecap:round;stroke-linejoin:round;stroke-miterlimit:10;}
	.st3{fill:none;stroke:#313133;stroke-width:4.5078;stroke-linecap:round;stroke-linejoin:round;stroke-miterlimit:10;}
	.st4{fill:#FFFFFF;}
	
		.st5{fill:none;stroke:#313133;stroke-width:2;stroke-linecap:round;stroke-linejoin:round;stroke-dasharray:0.4016,4.016,0.4016,4.016,0.4016,4.016;}
	.st6{fill:#313131;}
	.st7{fill:#A8DC28;}
	.st8{fill:#EFEFEF;}
	
		.st9{fill:none;stroke:#A8DC28;stroke-width:2;stroke-linecap:round;stroke-linejoin:round;stroke-dasharray:0.4016,4.016,0.4016,4.016,0.4016,4.016;}
	.st10{fill:#313133;stroke:#313133;stroke-width:2.0544;stroke-linecap:round;stroke-linejoin:round;stroke-miterlimit:10;}
	.st11{fill:#EFEFEF;stroke:#EFEFEF;stroke-width:2.0544;stroke-linecap:round;stroke-linejoin:round;stroke-miterlimit:10;}
	.st12{fill:none;stroke:#313133;stroke-width:1.4652;stroke-miterlimit:10;}
	.st13{fill:none;stroke:#EFEFEF;stroke-width:1.4652;stroke-miterlimit:10;}
	.st14{fill:none;stroke:#313133;stroke-width:0.7992;stroke-miterlimit:10;}
	.st15{fill:none;stroke:#EFEFEF;stroke-width:0.7992;stroke-miterlimit:10;}
	.st16{fill:none;stroke:#EFEFEF;stroke-width:4.5081;stroke-linecap:round;stroke-linejoin:round;stroke-miterlimit:10;}
	.st17{fill:none;stroke:#EFEFEF;stroke-width:4.5078;stroke-linecap:round;stroke-linejoin:round;stroke-miterlimit:10;}
</style><circle class="st4" cx="56" cy="56" r="56"/><circle class="st0" cx="56" cy="56" r="56"/><path class="st1" d="M44.4 31.2h0.6c1 0 1.8-0.8 1.8-1.8v-4.9 -1.8c0-1-0.8-1.8-1.8-1.8h-0.6c-1 0-1.8 0.8-1.8 1.8v1.8 4.9C42.7 30.4 43.5 31.2 44.4 31.2z"/><path class="st1" d="M67.3 31.1h0.6c1 0 1.8-0.8 1.8-1.8V24v-1.4c0-1-0.8-1.8-1.8-1.8h-0.6c-1 0-1.8 0.8-1.8 1.8V24v5.3C65.5 30.3 66.3 31.1 67.3 31.1z"/><path class="st1" d="M75.7 24.5h-4.6v5.3c0 1.8-1.4 2.8-3.2 2.8h-0.6c-1.8 0-3.2-1.4-3.2-3.2v-4.9H48.3v4.9c0 1.8-1.4 3.2-3.2 3.2h-0.6c-1.8 0-3.2-1.4-3.2-3.2v-4.9h-4.9c-1.6 0-2.9 1.3-2.9 2.9v35c0 1.6 1.3 2.9 2.9 2.9h39.4c1.6 0 2.9-1.3 2.9-2.9v-35C78.6 25.8 77.3 24.5 75.7 24.5zM75.7 62.3H36.3l0-26.4h39.4L75.7 62.3C75.7 62.3 75.7 62.3 75.7 62.3z"/><path class="st1" d="M65.6 44.8h5.2c0.2 0 0.4-0.2 0.4-0.4v-4.5c0-0.2-0.2-0.4-0.4-0.4h-5.2c-0.2 0-0.4 0.2-0.4 0.4v4.5C65.2 44.6 65.4 44.8 65.6 44.8z"/><path class="st1" d="M65.6 52.1h5.2c0.2 0 0.4-0.2 0.4-0.4v-4.5c0-0.2-0.2-0.4-0.4-0.4h-5.2c-0.2 0-0.4 0.2-0.4 0.4v4.5C65.2 52 65.4 52.1 65.6 52.1z"/><path class="st1" d="M70.8 54.3h-5.2c-0.2 0-0.4 0.2-0.4 0.4v4.5c0 0.2 0.2 0.4 0.4 0.4h5.2c0.2 0 0.4-0.2 0.4-0.4v-4.5C71.1 54.4 71 54.3 70.8 54.3z"/><path class="st14" d="M57.6 44.8h5.2c0.2 0 0.4-0.2 0.4-0.4v-4.5c0-0.2-0.2-0.4-0.4-0.4h-5.2c-0.2 0-0.4 0.2-0.4 0.4v4.5C57.2 44.6 57.4 44.8 57.6 44.8z"/><path class="st14" d="M57.6 52.1h5.2c0.2 0 0.4-0.2 0.4-0.4v-4.5c0-0.2-0.2-0.4-0.4-0.4h-5.2c-0.2 0-0.4 0.2-0.4 0.4v4.5C57.2 52 57.4 52.1 57.6 52.1z"/><path class="st14" d="M62.8 54.3h-5.2c-0.2 0-0.4 0.2-0.4 0.4v4.5c0 0.2 0.2 0.4 0.4 0.4h5.2c0.2 0 0.4-0.2 0.4-0.4v-4.5C63.1 54.4 63 54.3 62.8 54.3z"/><path class="st14" d="M49.6 44.8h5.2c0.2 0 0.4-0.2 0.4-0.4v-4.5c0-0.2-0.2-0.4-0.4-0.4h-5.2c-0.2 0-0.4 0.2-0.4 0.4v4.5C49.2 44.6 49.4 44.8 49.6 44.8z"/><path class="st14" d="M49.6 52.1h5.2c0.2 0 0.4-0.2 0.4-0.4v-4.5c0-0.2-0.2-0.4-0.4-0.4h-5.2c-0.2 0-0.4 0.2-0.4 0.4v4.5C49.2 52 49.4 52.1 49.6 52.1z"/><path class="st14" d="M54.8 54.3h-5.2c-0.2 0-0.4 0.2-0.4 0.4v4.5c0 0.2 0.2 0.4 0.4 0.4h5.2c0.2 0 0.4-0.2 0.4-0.4v-4.5C55.2 54.4 55 54.3 54.8 54.3z"/><path class="st14" d="M40.8 44.8H46c0.2 0 0.4-0.2 0.4-0.4v-4.5c0-0.2-0.2-0.4-0.4-0.4h-5.2c-0.2 0-0.4 0.2-0.4 0.4v4.5C40.4 44.6 40.6 44.8 40.8 44.8z"/><path class="st14" d="M40.8 52.1H46c0.2 0 0.4-0.2 0.4-0.4v-4.5c0-0.2-0.2-0.4-0.4-0.4h-5.2c-0.2 0-0.4 0.2-0.4 0.4v4.5C40.4 52 40.6 52.1 40.8 52.1z"/><path class="st14" d="M46 54.3h-5.2c-0.2 0-0.4 0.2-0.4 0.4v4.5c0 0.2 0.2 0.4 0.4 0.4H46c0.2 0 0.4-0.2 0.4-0.4v-4.5C46.4 54.4 46.2 54.3 46 54.3z"/><circle class="st5" cx="56" cy="56" r="50.6"/><path class="st1" d="M83.1 79.1c-0.6 0-1 0.3-1 0.8 0 0.6 0.6 0.8 1.3 1 1 0.3 2.2 0.6 2.2 2.1 0 1.4-1.1 2.1-2.5 2.1 -0.8 0-1.9-0.1-2.4-0.4v-1.8l1.2-0.1v0.6c0 0.3 0.1 0.4 0.3 0.4 0.3 0.1 0.6 0.1 0.9 0.1 0.7 0 1-0.3 1-0.8 0-0.6-0.6-0.8-1.3-0.9 -1-0.3-2-0.6-2-2 0-1.4 1.2-2.1 2.5-2.1 0.9 0 1.7 0.3 2.2 0.5v1.6l-1.2 0.1v-0.6c0-0.3-0.1-0.4-0.3-0.4C83.6 79.1 83.4 79.1 83.1 79.1z"/><path class="st1" d="M37.6 77.1c-0.3 0-0.4 0.2-0.4 0.5l-1.7 7.2h-1.8l-1.4-5.9h0l-1.3 5.9h-1.9l-1.8-7.6 -0.8 0V76h3.3v1.1l-0.4 0c-0.3 0-0.5 0.1-0.4 0.5l1.1 5.1h0.1l1.4-6h1.7l1.4 6h0l1.1-5.5 -0.7-0.1V76h3v1.1L37.6 77.1z"/><path class="st1" d="M44 79.8c0 2-2.2 2.4-3.8 2.4 0.1 0.9 0.5 1.6 1.6 1.6 0.8 0 1.3-0.4 1.7-0.6l0.5 1.1c-0.2 0.2-1.1 0.7-2.3 0.7 -2.2 0-3.1-1.4-3.1-3.3 0-2 1.1-3.7 3.3-3.7C43.1 78 44 78.6 44 79.8zM41.7 79.1c-1.1 0-1.5 1-1.6 2 1 0 2.4-0.2 2.4-1.3C42.5 79.4 42.2 79.1 41.7 79.1z"/><path class="st1" d="M50.4 79.8c0 2-2.2 2.4-3.8 2.4 0.1 0.9 0.5 1.6 1.6 1.6 0.8 0 1.3-0.4 1.7-0.6l0.5 1.1c-0.2 0.2-1.1 0.7-2.3 0.7 -2.2 0-3.1-1.4-3.1-3.3 0-2 1.1-3.7 3.3-3.7C49.5 78 50.4 78.6 50.4 79.8zM48.1 79.1c-1.1 0-1.5 1-1.6 2 1 0 2.4-0.2 2.4-1.3C48.9 79.4 48.6 79.1 48.1 79.1z"/><path class="st1" d="M52.1 76.9c0-0.3-0.1-0.4-0.3-0.4l-0.5 0v-1.1h2.3v5.7c0.9-0.1 1.7-0.6 2-1.5 0.1-0.3 0-0.4-0.2-0.4l-0.5 0v-1h2.7v1.1l-0.6 0c-0.1 0.9-0.5 1.6-1.2 2.1l1.3 2.3 0.8 0v1.1h-1.9l-1.5-2.7c-0.3 0.1-0.6 0.1-0.9 0.2v1.5h0l0.8 0v1.1h-3.1v-1l0.4 0c0.3 0 0.4-0.1 0.4-0.4V76.9z"/><path class="st1" d="M64.1 79.8c0 2-2.2 2.4-3.8 2.4 0.1 0.9 0.5 1.6 1.6 1.6 0.8 0 1.3-0.4 1.7-0.6l0.5 1.1C63.9 84.4 63 85 61.8 85c-2.2 0-3.1-1.4-3.1-3.3 0-2 1.1-3.7 3.3-3.7C63.2 78 64.1 78.6 64.1 79.8zM61.8 79.1c-1.1 0-1.5 1-1.6 2 1 0 2.4-0.2 2.4-1.3C62.6 79.4 62.3 79.1 61.8 79.1z"/><path class="st1" d="M64.9 78.2h2.2V79c0.5-0.7 1.3-1.1 2.1-1.1 1.3 0 2.1 0.7 2.1 2.3v3.4l0.8 0v1.1H69v-1l0.4 0c0.3 0 0.4-0.1 0.4-0.4v-2.7c0-0.9-0.2-1.4-1.1-1.4 -0.9 0-1.4 0.6-1.4 1.3v3.2l0.8 0v1.1H65v-1l0.4 0c0.3 0 0.4-0.1 0.4-0.4v-3.7c0-0.3-0.1-0.4-0.3-0.4l-0.6 0V78.2z"/><path class="st1" d="M77.3 78.1v-1.3c0-0.2-0.1-0.3-0.3-0.3l-0.6 0v-1h2.5v8c0 0.2 0.1 0.3 0.3 0.3l0.5 0v1.1h-2.1V84l0 0c-0.4 0.7-1.1 1-1.8 1 -2.1 0-2.7-1.6-2.7-3.2 0-2.3 1.2-3.8 3.2-3.8C76.7 78 77 78 77.3 78.1zM77.3 79.3c-0.2-0.1-0.6-0.2-1-0.2 -1.3 0-1.7 1.2-1.7 2.5 0 1.2 0.3 2.2 1.4 2.2 0.7 0 1.3-0.5 1.3-1.1V79.3z"/></svg>