<?xml version="1.0" encoding="utf-8"?>
<!-- Generator: Adobe Illustrator 19.2.1, SVG Export Plug-In . SVG Version: 6.00 Build 0)  -->
<svg version="1.1" id="Layer_1" xmlns="http://www.w3.org/2000/svg" xmlns:xlink="http://www.w3.org/1999/xlink" x="0px" y="0px"
	 width="112px" height="112px" viewBox="0 0 112 112" style="enable-background:new 0 0 112 112;" xml:space="preserve">
<style type="text/css">
	.st0{fill:#FFFFFF;}
	.st1{fill:#313133;}
	
		.st2{fill:none;stroke:#313133;stroke-width:2;stroke-linecap:round;stroke-linejoin:round;stroke-dasharray:0.4016,4.016,0.4016,4.016,0.4016,4.016;}
</style>
<circle class="st0" cx="56" cy="56" r="56"/>
<path class="st1" d="M28.6,83.8H29c0.2,0,0.4-0.1,0.4-0.4v-6.1h-0.8v-1.1h3.8c1.9,0,3.1,0.9,3.1,2.7c0,2-1.4,3-3.4,3H31v1.9h1.3v1.1
	h-3.7C28.6,84.9,28.6,83.8,28.6,83.8z M32,80.5c1.1,0,1.9-0.4,1.9-1.6c0-1.4-0.8-1.6-2.1-1.6H31v3.1L32,80.5L32,80.5z"/>
<path class="st1" d="M42.3,83.4c0,0.3,0.1,0.4,0.3,0.4H43v1.1h-2v-0.8l0,0c-0.4,0.6-1.1,0.9-1.8,0.9c-1.9,0-2.6-1.3-2.6-3.2
	c0-2.3,1.1-3.8,3.5-3.8c0.4,0,1.4,0.1,2.3,0.5v4.9H42.3z M40.8,79.4c-0.2-0.1-0.6-0.2-1-0.2c-1.3,0-1.7,1.2-1.7,2.6
	c0,1.1,0.3,2.1,1.4,2.1c0.8,0,1.3-0.6,1.3-1.1V79.4z"/>
<path class="st1" d="M44.7,79.7c0-0.3-0.1-0.4-0.3-0.4h-0.6v-1.1H46v1c0.3-0.7,1-1.2,1.9-1.2c0.4,0,0.8,0.1,1.3,0.3v2L48,80.4v-0.6
	c0-0.2,0-0.3-0.1-0.3c-0.1-0.1-0.2-0.1-0.4-0.1c-0.7,0-1.2,0.6-1.2,1.3v3.1l1.1,0.1v1h-3.5v-1h0.4c0.3,0,0.4-0.1,0.4-0.4V79.7z"/>
<path class="st1" d="M52.3,76.8v1.4h1.8L54,79.3h-1.6v3.5c0,0.8,0.3,1,0.9,1c0.4,0,0.7-0.1,0.9-0.3l0.4,1c-0.4,0.3-1.1,0.5-1.7,0.5
	c-2.1,0-2-1.3-2-2.2v-3.5H50l0.1-1c0.9-0.1,1.2-0.8,1.5-1.5H52.3z"/>
<path class="st1" d="M59.9,76.8v1.4h1.8l-0.1,1.1H60v3.5c0,0.8,0.3,1,0.9,1c0.4,0,0.7-0.1,0.9-0.3l0.4,1C61.7,84.9,61,85,60.4,85
	c-2.1,0-2-1.3-2-2.2v-3.5h-0.9l0.1-1c0.9-0.1,1.2-0.8,1.5-1.5H59.9z"/>
<path class="st1" d="M65,83.8h0.8v1.1h-3.1v-1h0.4c0.2,0,0.4-0.1,0.4-0.4v-3.7c0-0.3-0.1-0.4-0.3-0.4h-0.5v-1.1H65V83.8z M64,75.4
	c0.6,0,1,0.4,1,1s-0.4,1-1,1s-1-0.4-1-1S63.4,75.4,64,75.4z"/>
<path class="st1" d="M66.4,78.2h2.2v0.9c0.5-0.7,1.1-1.1,2-1.1c0.8,0,1.5,0.3,1.8,1.1c0.5-0.7,1.1-1.1,2-1.1c1.2,0,2,0.7,2,2.3v3.4
	h0.8v1.1H74v-1h0.4c0.2,0,0.4-0.1,0.4-0.4v-2.7c0-0.8-0.1-1.4-0.9-1.4c-0.9,0-1.3,0.6-1.3,1.4v3.2h0.7V85h-3.1v-1h0.4
	c0.3,0,0.4-0.1,0.4-0.4v-2.7c0-0.8-0.1-1.4-0.9-1.4c-0.9,0-1.3,0.6-1.3,1.3V84h0.7v1.1h-3.1v-1h0.4c0.3,0,0.4-0.1,0.4-0.4l0,0v-3.6
	c0-0.3-0.1-0.4-0.3-0.4h-0.6v-1.5H66.4z"/>
<path class="st1" d="M83.4,79.9c0,2-2.2,2.4-3.8,2.4c0.1,0.9,0.5,1.6,1.6,1.6c0.8,0,1.3-0.4,1.7-0.6l0.5,1.1
	c-0.2,0.2-1.1,0.7-2.3,0.7c-2.2,0-3.1-1.4-3.1-3.3c0-2,1.1-3.7,3.3-3.7C82.5,78,83.4,78.7,83.4,79.9z M81.1,79.2c-1.1,0-1.5,1-1.6,2
	c1,0,2.4-0.2,2.4-1.3C81.9,79.4,81.6,79.2,81.1,79.2z"/>
<path class="st1" d="M56.7,22.7c-12.8-0.4-23.2,10-22.8,22.8c0.4,11.6,9.8,21,21.3,21.3C68,67.2,78.5,56.8,78.1,44
	C77.7,32.5,68.3,23,56.7,22.7z M56.9,61.9C46.7,62.4,38.3,54,38.8,43.8c0.4-8.8,7.6-15.9,16.3-16.3c10.2-0.5,18.6,7.9,18.1,18.1
	C72.8,54.4,65.7,61.5,56.9,61.9z"/>
<path class="st1" d="M39.3,30.4L39,30c-0.6-0.6-0.6-1.7,0-2.3l1.9-1.8c0.6-0.6,1.5-0.6,2.1-0.1l0.4,0.3c0.7,0.6,0.8,1.7,0.1,2.4
	l-1.9,1.8C40.9,31,39.9,31,39.3,30.4z"/>
<path class="st1" d="M72.6,30.2L72.6,30.2c0.7-0.7,0.7-1.9,0-2.7L71,26.1c-0.7-0.6-1.7-0.7-2.4-0.1l0,0c-0.8,0.7-0.9,2-0.1,2.7
	l1.6,1.5C70.8,30.9,71.9,30.9,72.6,30.2z"/>
<path class="st1" d="M53.3,23.3V22c0-0.7-0.6-1.3-1.3-1.3h-1.6c-0.7,0-1.3-0.6-1.3-1.3v-0.3c0-0.7,0.6-1.3,1.3-1.3h11.1
	c0.7,0,1.3,0.6,1.3,1.3v0.2c0,0.7-0.6,1.3-1.3,1.3h-1.3c-0.7,0-1.3,0.6-1.3,1.3v1.4L53.3,23.3z"/>
<path class="st1" d="M56,30v14.8h15.3c0-1.2-0.4-6-4.2-10C62.7,30.1,57,30,56,30z"/>
<circle class="st2" cx="56" cy="56" r="50.6"/>
</svg>
