<svg xmlns="http://www.w3.org/2000/svg" width="112" height="112" viewBox="0 0 112 112"><style type="text/css">  
	.st0{fill:none;}
	.st1{fill:#313133;}
	.st2{fill:none;stroke:#313133;stroke-width:4.5081;stroke-linecap:round;stroke-linejoin:round;stroke-miterlimit:10;}
	.st3{fill:none;stroke:#313133;stroke-width:4.5078;stroke-linecap:round;stroke-linejoin:round;stroke-miterlimit:10;}
	.st4{fill:#FFFFFF;}
	
		.st5{fill:none;stroke:#313133;stroke-width:2;stroke-linecap:round;stroke-linejoin:round;stroke-dasharray:0.4016,4.016,0.4016,4.016,0.4016,4.016;}
	.st6{fill:#313131;}
	.st7{fill:#A8DC28;}
	.st8{fill:#EFEFEF;}
	
		.st9{fill:none;stroke:#A8DC28;stroke-width:2;stroke-linecap:round;stroke-linejoin:round;stroke-dasharray:0.4016,4.016,0.4016,4.016,0.4016,4.016;}
	.st10{fill:#313133;stroke:#313133;stroke-width:2.0544;stroke-linecap:round;stroke-linejoin:round;stroke-miterlimit:10;}
	.st11{fill:#EFEFEF;stroke:#EFEFEF;stroke-width:2.0544;stroke-linecap:round;stroke-linejoin:round;stroke-miterlimit:10;}
	.st12{fill:none;stroke:#313133;stroke-width:1.4652;stroke-miterlimit:10;}
	.st13{fill:none;stroke:#EFEFEF;stroke-width:1.4652;stroke-miterlimit:10;}
	.st14{fill:none;stroke:#313133;stroke-width:0.7992;stroke-miterlimit:10;}
	.st15{fill:none;stroke:#EFEFEF;stroke-width:0.7992;stroke-miterlimit:10;}
	.st16{fill:none;stroke:#EFEFEF;stroke-width:4.5081;stroke-linecap:round;stroke-linejoin:round;stroke-miterlimit:10;}
	.st17{fill:none;stroke:#EFEFEF;stroke-width:4.5078;stroke-linecap:round;stroke-linejoin:round;stroke-miterlimit:10;}
</style><circle class="st4" cx="56" cy="56" r="56"/><circle class="st0" cx="56" cy="56" r="56"/><path class="st1" d="M45.9 75.7h-3.7v2.7l0.8 0v1.1h-3.2v-1.1l0.4 0c0.2 0 0.4-0.1 0.4-0.4v-6.1l-0.8 0v-1.1H43v1.1l-0.4 0c-0.3 0-0.4 0.1-0.4 0.4v2h3.7v-2.4l-0.8 0v-1.1h3.2v1.1l-0.4 0c-0.2 0-0.4 0.1-0.4 0.4v6.1l0.8 0v1.1H45v-1.1l0.4 0c0.3 0 0.4-0.1 0.4-0.4V75.7z"/><path class="st1" d="M52.2 72.7c1 0 2.9 0.3 2.9 3.3 0 2.5-1.4 3.7-3.2 3.7 -1.8 0-2.9-1.1-2.9-3.5C49.1 73.5 50.9 72.7 52.2 72.7zM53.6 76.3c0-1.5-0.4-2.4-1.4-2.4 -1 0-1.5 0.9-1.5 2.2 0 1.2 0.2 2.5 1.4 2.5C53.2 78.6 53.6 77.6 53.6 76.3z"/><path class="st1" d="M56 72.9h2.2v0.9c0.5-0.7 1.1-1.1 2-1.1 0.8 0 1.5 0.3 1.8 1.1 0.5-0.7 1.1-1.1 2-1.1 1.2 0 2 0.7 2 2.3v3.4l0.8 0v1.1h-3.1v-1l0.4 0c0.2 0 0.4-0.1 0.4-0.4v-2.7c0-0.8-0.1-1.4-0.9-1.4 -0.9 0-1.3 0.6-1.3 1.4v3.2l0.7 0v1.1h-3.1v-1l0.4 0c0.3 0 0.4-0.1 0.4-0.4v-2.7c0-0.8-0.1-1.4-0.9-1.4 -0.9 0-1.3 0.6-1.3 1.3v3.2l0.7 0v1.1H56v-1l0.4 0c0.3 0 0.4-0.1 0.4-0.4h0v-3.6c0-0.3-0.1-0.4-0.3-0.4L56 74V72.9z"/><path class="st1" d="M72.9 74.5c0 2-2.2 2.4-3.8 2.4 0.1 0.9 0.5 1.6 1.6 1.6 0.8 0 1.3-0.4 1.7-0.6L73 79c-0.2 0.2-1.1 0.7-2.3 0.7 -2.2 0-3.1-1.4-3.1-3.3 0-2 1.1-3.7 3.3-3.7C72.1 72.7 72.9 73.4 72.9 74.5zM70.7 73.8c-1.1 0-1.5 1-1.6 2 1 0 2.4-0.2 2.4-1.3C71.5 74.1 71.2 73.8 70.7 73.8z"/><path class="st1" d="M37.7 86.4l1.4 4.9h0l0.9-4.1 -0.7 0v-1.1H42v1l-0.4 0c-0.2 0-0.3 0.1-0.4 0.3l-1.3 5.3H38L37 88.8h0l-1.1 3.9h-1.9l-1.3-5.3c-0.1-0.2-0.1-0.3-0.4-0.3l-0.4 0v-1h3v1.1l-0.7 0 0.9 4h0l1.5-4.9H37.7z"/><path class="st1" d="M45.7 85.9c1 0 2.9 0.3 2.9 3.3 0 2.5-1.4 3.7-3.2 3.7 -1.8 0-2.9-1.1-2.9-3.5C42.5 86.7 44.3 85.9 45.7 85.9zM47 89.4c0-1.5-0.4-2.4-1.4-2.4 -1 0-1.5 0.9-1.5 2.2 0 1.2 0.2 2.5 1.4 2.5C46.6 91.8 47 90.8 47 89.4z"/><path class="st1" d="M50.3 87.6c0-0.3-0.1-0.4-0.3-0.4l-0.6 0v-1.1h2.2v1c0.3-0.7 1-1.2 1.9-1.2 0.4 0 0.8 0.1 1.3 0.3v2l-1.2 0.1v-0.6c0-0.2 0-0.3-0.1-0.3 -0.1-0.1-0.2-0.1-0.4-0.1 -0.7 0-1.2 0.6-1.2 1.3v3.1l1.1 0.1v1h-3.5v-1l0.4 0c0.3 0 0.4-0.1 0.4-0.4V87.6z"/><path class="st1" d="M56 84.8c0-0.3-0.1-0.4-0.3-0.4l-0.5 0v-1.1h2.3V89c0.9-0.1 1.7-0.6 2-1.5 0.1-0.3 0-0.4-0.2-0.4l-0.5 0v-1h2.7v1.1l-0.6 0c-0.1 0.9-0.5 1.6-1.2 2.1l1.3 2.3 0.8 0v1.1H60L58.5 90c-0.3 0.1-0.6 0.1-0.9 0.2v1.5h0l0.8 0v1.1h-3.1v-1l0.4 0c0.3 0 0.4-0.1 0.4-0.4V84.8z"/><path class="st1" d="M64.9 91.6l0.8 0v1.1h-3.1v-1l0.4 0c0.2 0 0.4-0.1 0.4-0.4v-3.7c0-0.3-0.1-0.4-0.3-0.4l-0.5 0v-1.1h2.4V91.6zM64 83.3c0.6 0 1 0.4 1 1s-0.4 1-1 1c-0.6 0-1-0.4-1-1S63.4 83.3 64 83.3z"/><path class="st1" d="M66.4 86.1h2.2v0.9c0.5-0.7 1.3-1.1 2.1-1.1 1.3 0 2.1 0.7 2.1 2.3v3.4l0.8 0v1.1h-3.1v-1l0.4 0c0.3 0 0.4-0.1 0.4-0.4v-2.7c0-0.9-0.2-1.4-1.1-1.4 -0.9 0-1.4 0.6-1.4 1.3v3.2l0.8 0v1.1h-3.1v-1l0.4 0c0.3 0 0.4-0.1 0.4-0.4v-3.7c0-0.3-0.1-0.4-0.3-0.4l-0.6 0V86.1z"/><path class="st1" d="M74.7 95.1v-1.8l1.3-0.1v0.6c0 0.3 0.1 0.4 0.3 0.5 0.3 0.1 0.5 0.1 0.9 0.1 1.2 0 1.5-0.8 1.5-1.9v-0.7c-0.4 0.5-1.1 0.7-1.8 0.7 -1.9 0-2.6-1.6-2.6-3.1 0-2.4 1.4-3.5 3.4-3.5 0.6 0 1.7 0.2 2.4 0.5v4.9c0 0.5 0 1 0 1.4 -0.2 1.9-1.1 2.8-3 2.8C76.3 95.5 75.2 95.4 74.7 95.1zM78.7 87.2C78.4 87.1 78 87 77.7 87c-1.1 0-1.7 0.9-1.7 2.2 0 0.9 0.1 2.1 1.4 2.1 0.7 0 1.3-0.5 1.3-1.3V87.2z"/><path class="st1" d="M80.1 42.2l-6.6-5.4v-12c0-0.3-0.1-0.5-0.3-0.7 -0.2-0.2-0.4-0.3-0.7-0.3h-5.8c-0.3 0-0.5 0.1-0.7 0.3 -0.2 0.2-0.3 0.4-0.3 0.7v5.8l-7.4-6c-0.6-0.5-1.4-0.8-2.3-0.8 -0.9 0-1.7 0.3-2.3 0.8L31.9 42.2c-0.2 0.2-0.3 0.4-0.3 0.6 0 0.3 0.1 0.5 0.2 0.7l1.9 2.2c0.2 0.2 0.4 0.3 0.6 0.3 0.2 0 0.5 0 0.7-0.2l21-17 21 17c0.2 0.1 0.4 0.2 0.6 0.2h0.1c0.3 0 0.5-0.1 0.6-0.3l1.9-2.2c0.2-0.2 0.2-0.4 0.2-0.7C80.4 42.6 80.3 42.3 80.1 42.2z"/><path class="st1" d="M73.4 45.4L56 31.4l-17.4 14c0 0 0 0 0 0.1 0 0 0 0.1 0 0.1v14.2c0 0.5 0.2 1 0.6 1.3 0.4 0.4 0.8 0.6 1.4 0.6l11.1 0c0 0 0-0.1 0-0.1V50.3c0-1.2 1-2.2 2.2-2.2h4.4c1.2 0 2.2 1 2.2 2.2v11.2c0 0 0 0.1 0 0.1l11.1 0c0.5 0 1-0.2 1.4-0.6 0.4-0.4 0.6-0.8 0.6-1.3V45.5C73.5 45.5 73.5 45.4 73.4 45.4z"/><circle class="st5" cx="56" cy="56" r="50.6"/></svg>