<svg xmlns="http://www.w3.org/2000/svg" width="112" height="112" viewBox="0 0 112 112"><style type="text/css">  
	.st0{fill:none;}
	.st1{fill:#313133;}
	.st2{fill:none;stroke:#313133;stroke-width:4.5081;stroke-linecap:round;stroke-linejoin:round;stroke-miterlimit:10;}
	.st3{fill:none;stroke:#313133;stroke-width:4.5078;stroke-linecap:round;stroke-linejoin:round;stroke-miterlimit:10;}
	.st4{fill:#FFFFFF;}
	
		.st5{fill:none;stroke:#313133;stroke-width:2;stroke-linecap:round;stroke-linejoin:round;stroke-dasharray:0.4016,4.016,0.4016,4.016,0.4016,4.016;}
	.st6{fill:#313131;}
	.st7{fill:#A8DC28;}
	.st8{fill:#EFEFEF;}
	
		.st9{fill:none;stroke:#A8DC28;stroke-width:2;stroke-linecap:round;stroke-linejoin:round;stroke-dasharray:0.4016,4.016,0.4016,4.016,0.4016,4.016;}
	.st10{fill:#313133;stroke:#313133;stroke-width:2.0544;stroke-linecap:round;stroke-linejoin:round;stroke-miterlimit:10;}
	.st11{fill:#EFEFEF;stroke:#EFEFEF;stroke-width:2.0544;stroke-linecap:round;stroke-linejoin:round;stroke-miterlimit:10;}
	.st12{fill:none;stroke:#313133;stroke-width:1.4652;stroke-miterlimit:10;}
	.st13{fill:none;stroke:#EFEFEF;stroke-width:1.4652;stroke-miterlimit:10;}
	.st14{fill:none;stroke:#313133;stroke-width:0.7992;stroke-miterlimit:10;}
	.st15{fill:none;stroke:#EFEFEF;stroke-width:0.7992;stroke-miterlimit:10;}
	.st16{fill:none;stroke:#EFEFEF;stroke-width:4.5081;stroke-linecap:round;stroke-linejoin:round;stroke-miterlimit:10;}
	.st17{fill:none;stroke:#EFEFEF;stroke-width:4.5078;stroke-linecap:round;stroke-linejoin:round;stroke-miterlimit:10;}
</style><circle class="st4" cx="56" cy="56" r="56"/><circle class="st0" cx="56" cy="56" r="56"/><path class="st1" d="M27.5 83.7l0.4 0c0.2 0 0.4-0.1 0.4-0.4v-6.1l-0.8 0V76h6.4v2.2l-1.3 0.1v-0.5c0-0.3 0-0.4-0.4-0.4h-2.3v2.3h3.2v1.3h-3.2v2.6l1.2 0v1.1h-3.6V83.7z"/><path class="st1" d="M35.5 79.7c0-0.3-0.1-0.4-0.3-0.4l-0.6 0v-1.1h2.2v1c0.3-0.7 1-1.2 1.9-1.2 0.4 0 0.8 0.1 1.3 0.3v2l-1.2 0.1v-0.6c0-0.2 0-0.3-0.1-0.3 -0.1-0.1-0.2-0.1-0.4-0.1 -0.7 0-1.2 0.6-1.2 1.3v3.1l1.1 0.1v1h-3.5v-1l0.4 0c0.3 0 0.4-0.1 0.4-0.4V79.7z"/><path class="st1" d="M46.2 79.8c0 2-2.2 2.4-3.8 2.4 0.1 0.9 0.5 1.6 1.6 1.6 0.8 0 1.3-0.4 1.7-0.6l0.5 1.1C46 84.4 45.1 85 43.9 85c-2.2 0-3.1-1.4-3.1-3.3 0-2 1.1-3.7 3.3-3.7C45.3 78 46.2 78.6 46.2 79.8zM43.9 79.1c-1.1 0-1.5 1-1.6 2 1 0 2.4-0.2 2.4-1.3C44.7 79.4 44.4 79.1 43.9 79.1z"/><path class="st1" d="M52.6 79.8c0 2-2.2 2.4-3.8 2.4 0.1 0.9 0.5 1.6 1.6 1.6 0.8 0 1.3-0.4 1.7-0.6l0.5 1.1c-0.2 0.2-1.1 0.7-2.3 0.7 -2.2 0-3.1-1.4-3.1-3.3 0-2 1.1-3.7 3.3-3.7C51.7 78 52.6 78.6 52.6 79.8zM50.3 79.1c-1.1 0-1.5 1-1.6 2 1 0 2.4-0.2 2.4-1.3C51.1 79.4 50.8 79.1 50.3 79.1z"/><path class="st1" d="M55.9 83.7l0.8 0v1.1h-3.1v-1l0.4 0c0.2 0 0.4-0.1 0.4-0.4v-6.5c0-0.2-0.1-0.3-0.3-0.3l-0.5 0v-1.1h2.4V83.7z"/><path class="st1" d="M63.3 83.3c0 0.3 0.1 0.4 0.3 0.4l0.4 0v1.1H62V84l0 0c-0.4 0.6-1.1 0.9-1.8 0.9 -1.9 0-2.6-1.3-2.6-3.2 0-2.3 1.1-3.8 3.5-3.8 0.4 0 1.4 0.1 2.3 0.5V83.3zM61.8 79.3c-0.2-0.1-0.6-0.2-1-0.2 -1.3 0-1.7 1.2-1.7 2.6 0 1.1 0.3 2.1 1.4 2.1 0.8 0 1.3-0.6 1.3-1.1V79.3z"/><path class="st1" d="M64.8 78.2h2.2V79c0.5-0.7 1.3-1.1 2.1-1.1 1.3 0 2.1 0.7 2.1 2.3v3.4l0.8 0v1.1h-3.1v-1l0.4 0c0.3 0 0.4-0.1 0.4-0.4v-2.7c0-0.9-0.2-1.4-1.1-1.4 -0.9 0-1.4 0.6-1.4 1.3v3.2l0.8 0v1.1h-3.1v-1l0.4 0c0.3 0 0.4-0.1 0.4-0.4v-3.7c0-0.3-0.1-0.4-0.3-0.4l-0.6 0V78.2z"/><path class="st1" d="M77.6 83.2l0.6 1c-0.5 0.4-1.3 0.8-2.3 0.8 -1.9 0-3.1-1.2-3.1-3.4 0-2.7 1.6-3.6 3.1-3.6 0.8 0 1.4 0.2 2.1 0.5v1.7l-1.2 0.1v-0.6c0-0.3 0-0.4-0.3-0.4 -0.2-0.1-0.3-0.1-0.5-0.1 -1.1 0-1.6 0.8-1.6 2.3 0 1.4 0.5 2.4 1.7 2.4C76.6 83.8 77.1 83.6 77.6 83.2z"/><path class="st1" d="M84.5 79.8c0 2-2.2 2.4-3.8 2.4 0.1 0.9 0.5 1.6 1.6 1.6 0.8 0 1.3-0.4 1.7-0.6l0.5 1.1c-0.2 0.2-1.1 0.7-2.3 0.7 -2.2 0-3.1-1.4-3.1-3.3 0-2 1.1-3.7 3.3-3.7C83.6 78 84.5 78.6 84.5 79.8zM82.2 79.1c-1.1 0-1.5 1-1.6 2 1 0 2.4-0.2 2.4-1.3C83 79.4 82.7 79.1 82.2 79.1z"/><path class="st10" d="M35.7 45.3l8.5 2.9c0.3 0.1 0.6 0.1 0.8-0.1l23.8-14.6c0.4-0.2 0.8-0.2 1.2 0.1v0c0.5 0.4 0.5 1.1 0 1.5l-19 16.7c-0.2 0.2-0.3 0.4-0.3 0.6l-1.2 7.3c0 0.2 0 0.4 0.1 0.6 0.3 0.5 1 0.8 1.6 0.3l4.9-4.4c0.4-0.3 0.9-0.3 1.3-0.1l10.8 7.7c0.6 0.4 1.4 0.1 1.6-0.6l7.1-34.7c0.2-0.8-0.6-1.4-1.4-1.1l-39.9 16C34.8 43.8 34.8 45 35.7 45.3z"/><line class="st10" x1="44.1" y1="47.3" x2="49.7" y2="60.4"/><circle class="st5" cx="56" cy="56" r="50.6"/></svg>