<?xml version="1.0" encoding="utf-8"?>
<!-- Generator: Adobe Illustrator 19.2.1, SVG Export Plug-In . SVG Version: 6.00 Build 0)  -->
<svg version="1.1" id="Layer_1" xmlns="http://www.w3.org/2000/svg" xmlns:xlink="http://www.w3.org/1999/xlink" x="0px" y="0px"
	 width="112px" height="112px" viewBox="0 0 112 112" style="enable-background:new 0 0 112 112;" xml:space="preserve">
<style type="text/css">
	.st0{fill:#FFFFFF;}
	.st1{fill:#313133;}
	.st2{fill:none;stroke:#313133;stroke-width:4.5081;stroke-linecap:round;stroke-linejoin:round;stroke-miterlimit:10;}
	.st3{fill:none;stroke:#313133;stroke-width:4.5078;stroke-linecap:round;stroke-linejoin:round;stroke-miterlimit:10;}
	
		.st4{fill:none;stroke:#313133;stroke-width:2;stroke-linecap:round;stroke-linejoin:round;stroke-dasharray:0.4016,4.016,0.4016,4.016,0.4016,4.016;}
</style>
<circle class="st0" cx="56" cy="56" r="56"/>
<path class="st1" d="M30.5,83.8h0.4c0.2,0,0.4-0.1,0.4-0.4v-6.1h-0.8v-1.1H37v2.2l-1.3,0.1V78c0-0.3,0-0.4-0.4-0.4H33v2.3h3.2v1.3
	H33v2.6h1.2v1.1h-3.6v-1.1H30.5z"/>
<path class="st1" d="M44.4,84.9h-2.1V84c-0.5,0.7-1.3,1-2.1,1c-1.3,0-2-0.7-2-2.3v-3c0-0.3-0.1-0.4-0.3-0.4h-0.4v-1.1h2.3v4.2
	c0,0.8,0.1,1.4,1,1.4s1.4-0.6,1.4-1.3v-2.8c0-0.3-0.1-0.4-0.3-0.4h-0.4v-1.1h2.3v5.2c0,0.3,0.1,0.4,0.3,0.4h0.5v1.1H44.4z"/>
<path class="st1" d="M47.6,83.8h0.8v1.1h-3.1v-1h0.4c0.2,0,0.4-0.1,0.4-0.4V77c0-0.2-0.1-0.3-0.3-0.3h-0.5v-1.1h2.4v8.2H47.6z"/>
<path class="st1" d="M51.5,83.8h0.8v1.1h-3.1v-1h0.4c0.2,0,0.4-0.1,0.4-0.4V77c0-0.2-0.1-0.3-0.3-0.3h-0.5v-1.1h2.4v8.2H51.5z"/>
<path class="st1" d="M58,76.8v1.4h1.8l-0.1,1.1H58v3.5c0,0.8,0.3,1,0.9,1c0.4,0,0.7-0.1,0.9-0.3l0.4,1c-0.4,0.3-1.1,0.5-1.7,0.5
	c-2.1,0-2-1.3-2-2.2v-3.5h-0.9l0.1-1c0.9-0.1,1.2-0.8,1.5-1.5H58z"/>
<path class="st1" d="M63.1,83.8h0.8v1.1h-3.1v-1h0.4c0.2,0,0.4-0.1,0.4-0.4v-3.7c0-0.3-0.1-0.4-0.3-0.4h-0.5v-1.1h2.4v5.5H63.1z
	 M62.1,75.4c0.6,0,1,0.4,1,1s-0.4,1-1,1s-1-0.4-1-1S61.5,75.4,62.1,75.4z"/>
<path class="st1" d="M64.5,78.2h2.2v0.9c0.5-0.7,1.1-1.1,2-1.1c0.8,0,1.5,0.3,1.8,1.1c0.5-0.7,1.1-1.1,2-1.1c1.2,0,2,0.7,2,2.3v3.4
	h0.8v1.1h-3.1v-1h0.4c0.2,0,0.4-0.1,0.4-0.4v-2.7c0-0.8-0.1-1.4-0.9-1.4c-0.9,0-1.3,0.6-1.3,1.4v3.2h0.7V85h-3.1v-1h0.4
	c0.3,0,0.4-0.1,0.4-0.4v-2.7c0-0.8-0.1-1.4-0.9-1.4c-0.9,0-1.3,0.6-1.3,1.3V84h0.7v1.1h-3.1v-1H65c0.3,0,0.4-0.1,0.4-0.4l0,0v-3.6
	c0-0.3-0.1-0.4-0.3-0.4h-0.6V78.2z"/>
<path class="st1" d="M81.5,79.9c0,2-2.2,2.4-3.8,2.4c0.1,0.9,0.5,1.6,1.6,1.6c0.8,0,1.3-0.4,1.7-0.6l0.5,1.1
	c-0.2,0.2-1.1,0.7-2.3,0.7c-2.2,0-3.1-1.4-3.1-3.3c0-2,1.1-3.7,3.3-3.7C80.6,78,81.5,78.7,81.5,79.9z M79.2,79.2c-1.1,0-1.5,1-1.6,2
	c1,0,2.4-0.2,2.4-1.3C80,79.4,79.7,79.2,79.2,79.2z"/>
<path class="st2" d="M56,26.6c10.5,0,19.1,8.5,19.1,19.1s-8.6,19-19.1,19s-19.1-8.5-19.1-19.1c0-5.9,2.6-11.1,6.8-14.6"/>
<path class="st1" d="M48.1,49.8l3.3-4.2c0.8-1,1.2-1.4,1.2-2.4s-0.6-1.4-1.4-1.4c-0.5,0-0.8,0.1-1,0.1c-0.3,0.1-0.3,0.3-0.3,0.6v1.2
	l-1.7-0.1v-2.7c0.9-0.4,2.1-0.8,3.4-0.8c2.1,0,3.2,1.2,3.2,3c0,1.1-0.5,2.1-1.4,3.2l-2.7,3.2h4.2v1.7h-6.7L48.1,49.8L48.1,49.8z"/>
<path class="st1" d="M62,43.3v3.1h1.5V48H62v1.5l1.4,0.1V51h-4.9v-1.4l1-0.1c0.3,0,0.5-0.1,0.5-0.5v-1.1h-4.3v-1.4l3.2-6.6l1.6,0.8
	l-2.7,5.7h2.4v-0.9l0.7-2.2C60.9,43.3,62,43.3,62,43.3z"/>
<polyline class="st3" points="37.6,28.6 46.5,28.6 46.5,36.6 "/>
<circle class="st4" cx="56" cy="56" r="50.6"/>
</svg>
