<svg xmlns="http://www.w3.org/2000/svg" width="112" height="112" viewBox="0 0 112 112"><style type="text/css">  
	.st0{fill:none;}
	.st1{fill:#313133;}
	.st2{fill:none;stroke:#313133;stroke-width:4.5081;stroke-linecap:round;stroke-linejoin:round;stroke-miterlimit:10;}
	.st3{fill:none;stroke:#313133;stroke-width:4.5078;stroke-linecap:round;stroke-linejoin:round;stroke-miterlimit:10;}
	.st4{fill:#FFFFFF;}
	
		.st5{fill:none;stroke:#313133;stroke-width:2;stroke-linecap:round;stroke-linejoin:round;stroke-dasharray:0.4016,4.016,0.4016,4.016,0.4016,4.016;}
	.st6{fill:#313131;}
	.st7{fill:#A8DC28;}
	.st8{fill:#EFEFEF;}
	
		.st9{fill:none;stroke:#A8DC28;stroke-width:2;stroke-linecap:round;stroke-linejoin:round;stroke-dasharray:0.4016,4.016,0.4016,4.016,0.4016,4.016;}
	.st10{fill:#313133;stroke:#313133;stroke-width:2.0544;stroke-linecap:round;stroke-linejoin:round;stroke-miterlimit:10;}
	.st11{fill:#EFEFEF;stroke:#EFEFEF;stroke-width:2.0544;stroke-linecap:round;stroke-linejoin:round;stroke-miterlimit:10;}
	.st12{fill:none;stroke:#313133;stroke-width:1.4652;stroke-miterlimit:10;}
	.st13{fill:none;stroke:#EFEFEF;stroke-width:1.4652;stroke-miterlimit:10;}
	.st14{fill:none;stroke:#313133;stroke-width:0.7992;stroke-miterlimit:10;}
	.st15{fill:none;stroke:#EFEFEF;stroke-width:0.7992;stroke-miterlimit:10;}
	.st16{fill:none;stroke:#EFEFEF;stroke-width:4.5081;stroke-linecap:round;stroke-linejoin:round;stroke-miterlimit:10;}
	.st17{fill:none;stroke:#EFEFEF;stroke-width:4.5078;stroke-linecap:round;stroke-linejoin:round;stroke-miterlimit:10;}
</style><circle class="st4" cx="56" cy="56" r="56"/><circle class="st0" cx="56" cy="56" r="56"/><path class="st1" d="M34.4 77.2c-1.7 0-2.5 1.2-2.5 3.2 0 2.1 0.7 3.3 2.5 3.3 0.4 0 0.7 0 1-0.1 0.2-0.1 0.3-0.2 0.3-0.4v-1.1l1.3 0.1v2.3c-0.7 0.4-1.8 0.5-2.6 0.5 -2.7 0-4.1-1.5-4.1-4.5 0-3.4 2.1-4.6 4.1-4.6 0.8 0 1.7 0.2 2.5 0.5v2.2l-1.3 0.1v-1c0-0.3 0-0.4-0.3-0.4C35 77.3 34.7 77.2 34.4 77.2z"/><path class="st1" d="M41.3 78c1 0 2.9 0.3 2.9 3.3 0 2.5-1.4 3.7-3.2 3.7 -1.8 0-2.9-1.1-2.9-3.5C38.1 78.8 39.9 78 41.3 78zM42.6 81.6c0-1.5-0.4-2.4-1.4-2.4 -1 0-1.5 0.9-1.5 2.2 0 1.2 0.2 2.5 1.4 2.5C42.2 83.9 42.6 82.9 42.6 81.6z"/><path class="st1" d="M45 78.2h2.2v0.9c0.5-0.7 1.3-1.1 2.1-1.1 1.3 0 2.1 0.7 2.1 2.3v3.4l0.8 0v1.1h-3.1v-1l0.4 0c0.3 0 0.4-0.1 0.4-0.4v-2.7c0-0.9-0.2-1.4-1.1-1.4 -0.9 0-1.4 0.6-1.4 1.3v3.2l0.8 0v1.1h-3.1v-1l0.4 0c0.3 0 0.4-0.1 0.4-0.4v-3.7c0-0.3-0.1-0.4-0.3-0.4l-0.6 0V78.2z"/><path class="st1" d="M54.8 76.8v1.4h1.8l-0.1 1.1h-1.6v3.5c0 0.8 0.3 1 0.9 1 0.4 0 0.7-0.1 0.9-0.3l0.4 1c-0.4 0.3-1.1 0.5-1.7 0.5 -2.1 0-2-1.3-2-2.2v-3.5h-0.9l0.1-1c0.9-0.1 1.2-0.8 1.5-1.5H54.8z"/><path class="st1" d="M58.3 79.7c0-0.3-0.1-0.4-0.3-0.4l-0.6 0v-1.1h2.2v1c0.3-0.7 1-1.2 1.9-1.2 0.4 0 0.8 0.1 1.3 0.3v2l-1.2 0.1v-0.6c0-0.2 0-0.3-0.1-0.3 -0.1-0.1-0.2-0.1-0.4-0.1 -0.7 0-1.2 0.6-1.2 1.3v3.1l1.1 0.1v1h-3.5v-1l0.4 0c0.3 0 0.4-0.1 0.4-0.4V79.7z"/><path class="st1" d="M69.5 83.4c0 0.3 0.1 0.4 0.3 0.4l0.4 0v1.1h-2.1v-0.8l0 0C67.7 84.7 67 85 66.3 85c-1.9 0-2.6-1.3-2.6-3.2 0-2.3 1.1-3.8 3.5-3.8 0.4 0 1.4 0.1 2.3 0.5V83.4zM67.9 79.3c-0.2-0.1-0.6-0.2-1-0.2 -1.3 0-1.7 1.2-1.7 2.6 0 1.1 0.3 2.1 1.4 2.1 0.8 0 1.3-0.6 1.3-1.1V79.3z"/><path class="st1" d="M75.8 83.3l0.6 1c-0.5 0.4-1.3 0.8-2.3 0.8 -1.9 0-3.1-1.2-3.1-3.4 0-2.7 1.6-3.6 3.1-3.6 0.8 0 1.4 0.2 2.1 0.5v1.7L75 80.4v-0.6c0-0.3 0-0.4-0.3-0.4 -0.2-0.1-0.3-0.1-0.5-0.1 -1.1 0-1.6 0.8-1.6 2.3 0 1.4 0.5 2.4 1.7 2.4C74.8 83.8 75.3 83.7 75.8 83.3z"/><path class="st1" d="M79.6 76.8v1.4h1.8l-0.1 1.1h-1.6v3.5c0 0.8 0.3 1 0.9 1 0.4 0 0.7-0.1 0.9-0.3l0.4 1C81.3 84.9 80.7 85 80 85c-2.1 0-2-1.3-2-2.2v-3.5h-0.9l0.1-1c0.9-0.1 1.2-0.8 1.5-1.5H79.6z"/><path class="st1" d="M62.3 33H48.5c-1 0-1.8 0.8-1.8 1.8s0.8 1.8 1.8 1.8h13.8c1 0 1.8-0.8 1.8-1.8C64.2 33.8 63.3 33 62.3 33z"/><path class="st1" d="M64.2 41.8c0-1-0.8-1.8-1.8-1.8H48.5c-1 0-1.8 0.8-1.8 1.8 0 1 0.8 1.8 1.8 1.8h13.8C63.3 43.6 64.2 42.8 64.2 41.8z"/><path class="st1" d="M55.4 50.5c1 0 1.8-0.8 1.8-1.8 0-1-0.8-1.8-1.8-1.8h-6.9c-1 0-1.8 0.8-1.8 1.8 0 1 0.8 1.8 1.8 1.8H55.4z"/><path class="st1" d="M69.3 56.8l-1.9 1.3v4.6h-24V29.5h24v7.3l3.7-6.4v-2.7c0-1-0.8-1.8-1.8-1.8H41.6c-1 0-1.8 0.8-1.8 1.8v36.9c0 1 0.8 1.8 1.8 1.8h27.7c1 0 1.8-0.8 1.8-1.8V54.4l-0.9 1.5C70 56.3 69.7 56.6 69.3 56.8z"/><path class="st1" d="M80.2 34.3c0-0.2-0.4-1.7-2.8-3 -2.3-1.4-3.8-0.9-4-0.9 -0.2 0.1-0.4 0.2-0.5 0.4l-11.5 20c-0.1 0.1-0.1 0.3-0.1 0.4l-0.4 7.2c0 0.3 0.2 0.7 0.5 0.9 0.3 0.2 0.7 0.2 1 0l6-4c0.1-0.1 0.2-0.2 0.3-0.3l11.5-20C80.3 34.8 80.3 34.6 80.2 34.3zM64.6 56.1c-0.3-0.2-0.7-0.5-1-0.7 -0.4-0.2-0.8-0.4-1.1-0.5l0.1-2.2c0.5 0.1 1.2 0.3 2.1 0.8 0.9 0.5 1.4 1 1.7 1.4L64.6 56.1z"/><path class="st1" d="M52.6 59.1c0.1 0.4 0.5 0.5 0.8 0.6 0.3 0.1 0.6-0.1 0.8-0.2 1.4-0.7 3.3 0.1 4.8 0.1 0.9 0 0.9-1.4 0-1.4 -1.8 0-3.2-0.4-5-0.2 0-0.1 0-0.2-0.1-0.4 -0.3-0.6-0.7-0.7-1.2-0.6 0-0.1-0.1-0.1-0.1-0.2 -0.1-0.2-0.3-0.3-0.4-0.3 0.5-0.8 0.8-1.7 0.5-2.5 -0.1-0.2-0.4-0.3-0.6-0.3 -0.9 0-1.7 0.9-2.3 1.5 -1.5 1.5-2.8 3.1-4.1 4.8 -0.5 0.7 0.7 1.4 1.2 0.7 1.1-1.5 2.3-2.9 3.6-4.2 -0.3 0.5-0.6 1-1 1.5 -0.5 0.8 0.7 1.4 1.2 0.7 0.1-0.2 0.3-0.3 0.4-0.4 0 0.1-0.1 0.2-0.1 0.3 0 0 0 0 0 0 0 0.1-0.1 0.1-0.1 0.2 -0.3 0.8 0.8 1.1 1.3 0.5 0.1-0.2 0.2-0.3 0.3-0.5C52.6 58.7 52.6 58.9 52.6 59.1z"/><circle class="st5" cx="56" cy="56" r="50.6"/></svg>