<svg xmlns="http://www.w3.org/2000/svg" width="112" height="112" viewBox="0 0 112 112"><style type="text/css">  
	.st0{fill:none;}
	.st1{fill:#313133;}
	.st2{fill:none;stroke:#313133;stroke-width:4.5081;stroke-linecap:round;stroke-linejoin:round;stroke-miterlimit:10;}
	.st3{fill:none;stroke:#313133;stroke-width:4.5078;stroke-linecap:round;stroke-linejoin:round;stroke-miterlimit:10;}
	.st4{fill:none;stroke:#313133;stroke-width:2;stroke-linecap:round;stroke-linejoin:round;stroke-dasharray:0.3934,4;}
	.st5{fill:#313131;}
	.st6{fill:#A8DC28;}
	.st7{fill:none;stroke:#EFEFEF;stroke-width:4.5081;stroke-linecap:round;stroke-linejoin:round;stroke-miterlimit:10;}
	.st8{fill:none;stroke:#EFEFEF;stroke-width:4.5078;stroke-linecap:round;stroke-linejoin:round;stroke-miterlimit:10;}
	.st9{fill:none;stroke:#A8DC28;stroke-width:2;stroke-linecap:round;stroke-linejoin:round;stroke-dasharray:0.3934,4;}
	.st10{fill:#FFFFFF;}
	.st11{fill:#EFEFEF;}
	.st12{fill:none;stroke:#313133;stroke-width:0.7992;stroke-miterlimit:10;}
	.st13{fill:none;stroke:#EFEFEF;stroke-width:0.7992;stroke-miterlimit:10;}
	.st14{fill:#313133;stroke:#313133;stroke-width:2.0544;stroke-linecap:round;stroke-linejoin:round;stroke-miterlimit:10;}
	.st15{fill:#EFEFEF;stroke:#EFEFEF;stroke-width:2.0544;stroke-linecap:round;stroke-linejoin:round;stroke-miterlimit:10;}
	.st16{fill:none;stroke:#313133;stroke-width:1.4652;stroke-miterlimit:10;}
	.st17{fill:none;stroke:#EFEFEF;stroke-width:1.4652;stroke-miterlimit:10;}
	
		.st18{fill:none;stroke:#FFFFFF;stroke-width:2;stroke-linecap:round;stroke-linejoin:round;stroke-miterlimit:10;stroke-dasharray:1,4;}
	.st19{fill:none;stroke:#313133;stroke-width:1.7946;stroke-linecap:round;stroke-linejoin:round;stroke-dasharray:0.353,3.5893;}
	.st20{fill:none;stroke:#A8DC28;stroke-width:1.7946;stroke-linecap:round;stroke-linejoin:round;stroke-dasharray:0.353,3.5893;}
</style><circle class="st10" cx="56" cy="56" r="56"/><path class="st1" d="M64.8 37.6c0 0 0.4-2.4 0.6-4.2 0.2-2.3-1.3-8.1-9.5-8.1 0 0-0.1 0-0.1 0 0 0 0 0 0 0v0c0 0 0 0 0 0s0 0 0 0v0c0 0 0 0 0 0 0 0-0.1 0-0.1 0 -8.2 0-9.8 5.9-9.5 8.1 0.2 1.8 0.6 4.2 0.6 4.2s-0.9 0.4-0.9 2c0.3 4 1.9 2.3 2.2 4 0.5 2.9 3.1 5 4.8 5.8 0.9 0.4 1.9 0.6 2.9 0.7v0c0 0 0 0 0 0 0 0 0 0 0 0v0c1 0 2-0.2 2.9-0.7 1.6-0.7 4.2-2.8 4.8-5.8 0.3-1.8 1.9 0 2.2-4C65.7 38 64.8 37.6 64.8 37.6zM56 49.3c-4.4 0-7.6-5.2-8.2-10.3 -0.1-0.7 0-1.3 0.1-1.9 6.4 0.3 10.2-2.3 12.3-4.6 0.9 3.2 3.5 6.3 3.5 6.3 0 0.1 0 0.1 0 0.2C63.6 43.9 60.3 49.3 56 49.3z"/><path class="st1" d="M71.9 55.6c-3.6-1.8-8.9-4.1-9.1-4.2 0 0 0 0 0 0 -0.1-0.1-0.3-0.1-0.5-0.1 -0.6 0-1.1 0.4-1.3 0.9 0 0 0 0 0 0 -0.9 2.3-2.4 8.5-2.4 8.5l-5 0c0 0-2.2-6.3-3.1-8.6 0 0 0 0 0 0 -0.2-0.5-0.7-0.9-1.3-0.9 -0.2 0-0.3 0-0.5 0.1 0 0 0 0 0 0 -0.3 0.1-5.5 2.4-9.1 4.2 -1.6 0.8-2.6 1.9-2.6 2.9 0 3.6 0 8.5 0 8.5h18.8 0 0 0 0 0 0 0 0 0 0 0 0 18.8c0 0 0-5 0-8.5C74.5 57.5 73.6 56.5 71.9 55.6z"/><path class="st1" d="M58.1 51.3h-4.4c-0.4 0-0.7 0.4-0.5 0.7l0.8 2c0 0.1 0.1 0.2 0.2 0.3v5.3h3.4v-5.4c0 0 0.1-0.1 0.1-0.1l0.9-2C58.8 51.7 58.5 51.3 58.1 51.3z"/><circle class="st19" cx="56" cy="55.7" r="50.2"/><path class="st1" d="M45.7 79.4c-0.3 0-0.4 0.2-0.4 0.5l-1.6 7.1h-1.8l-1.4-5.8h0l-1.3 5.8h-1.8l-1.8-7.5 -0.7 0v-1.1H38v1.1l-0.4 0c-0.3 0-0.5 0.1-0.4 0.5l1.1 5h0.1l1.4-5.9h1.7l1.4 5.9h0l1.1-5.4 -0.7-0.1v-1.1h2.9v1.1L45.7 79.4z"/><path class="st1" d="M52.5 85.5c0 0.3 0.1 0.4 0.3 0.4l0.4 0v1h-2.1v-0.8l0 0c-0.4 0.6-1.1 0.9-1.8 0.9 -1.8 0-2.6-1.3-2.6-3.2 0-2.3 1.1-3.7 3.4-3.7 0.4 0 1.4 0.1 2.3 0.5V85.5zM51 81.5c-0.2-0.1-0.6-0.2-1-0.2 -1.2 0-1.7 1.2-1.7 2.6 0 1.1 0.3 2.1 1.4 2.1 0.8 0 1.3-0.6 1.3-1.1V81.5z"/><path class="st1" d="M53.9 80.4h2.2v0.8c0.5-0.6 1.2-1 2.1-1 1.3 0 2.1 0.7 2.1 2.3v3.4l0.7 0v1h-3.1v-1l0.4 0c0.2 0 0.4-0.1 0.4-0.4v-2.7c0-0.9-0.2-1.4-1.1-1.4 -0.9 0-1.3 0.6-1.3 1.3v3.1l0.7 0v1H54v-1l0.4 0c0.2 0 0.4-0.1 0.4-0.4v-3.6c0-0.3-0.1-0.4-0.3-0.4l-0.5 0V80.4z"/><path class="st1" d="M63.6 79v1.4h1.7l-0.1 1.1h-1.6v3.4c0 0.8 0.3 1 0.8 1 0.4 0 0.7-0.1 0.9-0.3l0.4 1c-0.4 0.3-1 0.5-1.7 0.5 -2 0-2-1.2-2-2.2v-3.5h-0.9l0.1-0.9c0.9-0.1 1.2-0.8 1.5-1.5H63.6z"/><path class="st1" d="M71.6 82c0 2-2.2 2.3-3.7 2.4 0.1 0.8 0.5 1.5 1.6 1.5 0.8 0 1.3-0.4 1.6-0.6l0.5 1.1c-0.2 0.2-1.1 0.7-2.3 0.7 -2.2 0-3.1-1.4-3.1-3.3 0-1.9 1.1-3.6 3.2-3.6C70.7 80.2 71.6 80.8 71.6 82zM69.4 81.3c-1 0-1.5 1-1.5 2 1 0 2.3-0.2 2.3-1.2C70.1 81.6 69.8 81.3 69.4 81.3z"/><path class="st1" d="M76.8 80.4V79c0-0.2-0.1-0.3-0.3-0.3l-0.6 0v-1h2.4v7.9c0 0.2 0.1 0.3 0.3 0.3l0.5 0v1H77v-0.8l0 0c-0.4 0.7-1.1 0.9-1.8 0.9 -2 0-2.6-1.6-2.6-3.2 0-2.2 1.1-3.7 3.2-3.7C76.2 80.2 76.5 80.3 76.8 80.4zM76.8 81.5c-0.2-0.1-0.6-0.2-1-0.2 -1.2 0-1.7 1.2-1.7 2.4 0 1.2 0.3 2.2 1.4 2.2 0.7 0 1.2-0.5 1.2-1.1V81.5z"/></svg>