<svg xmlns="http://www.w3.org/2000/svg" width="112" height="112" viewBox="0 0 112 112"><style type="text/css">  
	.st0{fill:none;}
	.st1{fill:#313133;}
	.st2{fill:none;stroke:#313133;stroke-width:4.5081;stroke-linecap:round;stroke-linejoin:round;stroke-miterlimit:10;}
	.st3{fill:none;stroke:#313133;stroke-width:4.5078;stroke-linecap:round;stroke-linejoin:round;stroke-miterlimit:10;}
	.st4{fill:#FFFFFF;}
	
		.st5{fill:none;stroke:#313133;stroke-width:2;stroke-linecap:round;stroke-linejoin:round;stroke-dasharray:0.4016,4.016,0.4016,4.016,0.4016,4.016;}
	.st6{fill:#313131;}
	.st7{fill:#A8DC28;}
	.st8{fill:#EFEFEF;}
	
		.st9{fill:none;stroke:#A8DC28;stroke-width:2;stroke-linecap:round;stroke-linejoin:round;stroke-dasharray:0.4016,4.016,0.4016,4.016,0.4016,4.016;}
	.st10{fill:#313133;stroke:#313133;stroke-width:2.0544;stroke-linecap:round;stroke-linejoin:round;stroke-miterlimit:10;}
	.st11{fill:#EFEFEF;stroke:#EFEFEF;stroke-width:2.0544;stroke-linecap:round;stroke-linejoin:round;stroke-miterlimit:10;}
	.st12{fill:none;stroke:#313133;stroke-width:1.4652;stroke-miterlimit:10;}
	.st13{fill:none;stroke:#EFEFEF;stroke-width:1.4652;stroke-miterlimit:10;}
	.st14{fill:none;stroke:#313133;stroke-width:0.7992;stroke-miterlimit:10;}
	.st15{fill:none;stroke:#EFEFEF;stroke-width:0.7992;stroke-miterlimit:10;}
	.st16{fill:none;stroke:#EFEFEF;stroke-width:4.5081;stroke-linecap:round;stroke-linejoin:round;stroke-miterlimit:10;}
	.st17{fill:none;stroke:#EFEFEF;stroke-width:4.5078;stroke-linecap:round;stroke-linejoin:round;stroke-miterlimit:10;}
</style><circle class="st4" cx="56" cy="56" r="56"/><circle class="st0" cx="56" cy="56" r="56"/><path class="st1" d="M29.5 84.9v-1.1l0.4 0c0.2 0 0.4-0.1 0.4-0.4v-6.1l-0.8 0v-1.1h6v2.2l-1.3 0.1v-0.5c0-0.3 0-0.4-0.4-0.4h-2v2.3h3V81h-3v2.5h2.1c0.3 0 0.4-0.2 0.4-0.4v-0.7l1.3 0.1v2.3H29.5z"/><path class="st1" d="M43.5 78.2v1l-0.4 0c-0.2 0-0.3 0.1-0.4 0.3l-1.7 5.3h-2l-1.8-5.2c-0.1-0.2-0.1-0.3-0.4-0.3l-0.4 0v-1h3.1v1.1l-0.8 0 1.4 4.3h0l1.3-4.3 -0.7 0v-1.1H43.5z"/><path class="st1" d="M49.6 79.9c0 2-2.2 2.4-3.8 2.4 0.1 0.9 0.5 1.6 1.6 1.6 0.8 0 1.3-0.4 1.7-0.6l0.5 1.1c-0.2 0.2-1.1 0.7-2.3 0.7 -2.2 0-3.1-1.4-3.1-3.3 0-2 1.1-3.7 3.3-3.7C48.7 78 49.6 78.7 49.6 79.9zM47.3 79.2c-1.1 0-1.5 1-1.6 2 1 0 2.4-0.2 2.4-1.3C48.1 79.4 47.8 79.2 47.3 79.2z"/><path class="st1" d="M50.4 78.2h2.2v0.9c0.5-0.7 1.3-1.1 2.1-1.1 1.3 0 2.1 0.7 2.1 2.3v3.4l0.8 0v1.1h-3.1v-1l0.4 0c0.3 0 0.4-0.1 0.4-0.4v-2.7c0-0.9-0.2-1.4-1.1-1.4 -0.9 0-1.4 0.6-1.4 1.3v3.2l0.8 0v1.1h-3.1v-1l0.4 0c0.3 0 0.4-0.1 0.4-0.4v-3.7c0-0.3-0.1-0.4-0.3-0.4l-0.6 0V78.2z"/><path class="st1" d="M60.8 83.8l0.8 0v1.1h-3.1v-1l0.4 0c0.2 0 0.4-0.1 0.4-0.4v-3.7c0-0.3-0.1-0.4-0.3-0.4l-0.5 0v-1.1h2.4V83.8zM59.9 75.4c0.6 0 1 0.4 1 1 0 0.6-0.4 1-1 1 -0.6 0-1-0.4-1-1C58.8 75.8 59.2 75.4 59.9 75.4z"/><path class="st1" d="M62.2 78.2h2.2v0.9c0.5-0.7 1.3-1.1 2.1-1.1 1.3 0 2.1 0.7 2.1 2.3v3.4l0.8 0v1.1h-3.1v-1l0.4 0c0.3 0 0.4-0.1 0.4-0.4v-2.7c0-0.9-0.2-1.4-1.1-1.4 -0.9 0-1.4 0.6-1.4 1.3v3.2l0.8 0v1.1h-3.1v-1l0.4 0c0.3 0 0.4-0.1 0.4-0.4v-3.7c0-0.3-0.1-0.4-0.3-0.4l-0.6 0V78.2z"/><path class="st1" d="M70.5 87.3v-1.8l1.3-0.1v0.6c0 0.3 0.1 0.4 0.3 0.5 0.3 0.1 0.5 0.1 0.9 0.1 1.2 0 1.5-0.8 1.5-1.9v-0.7c-0.4 0.5-1.1 0.7-1.8 0.7 -1.9 0-2.6-1.6-2.6-3.1 0-2.4 1.4-3.5 3.4-3.5 0.6 0 1.7 0.2 2.4 0.5v4.9c0 0.5 0 1 0 1.4 -0.2 1.9-1.1 2.8-3 2.8C72.2 87.7 71.1 87.5 70.5 87.3zM74.6 79.3c-0.3-0.1-0.7-0.2-1.1-0.2 -1.1 0-1.7 0.9-1.7 2.2 0 0.9 0.1 2.1 1.4 2.1 0.7 0 1.3-0.5 1.3-1.3V79.3z"/><path class="st1" d="M80.1 79.1c-0.6 0-1 0.3-1 0.8 0 0.6 0.6 0.8 1.3 1 1 0.3 2.2 0.6 2.2 2.1 0 1.4-1.1 2.1-2.5 2.1 -0.8 0-1.9-0.1-2.4-0.4v-1.8l1.2-0.1v0.6c0 0.3 0.1 0.4 0.3 0.4 0.3 0.1 0.6 0.1 0.9 0.1 0.7 0 1-0.3 1-0.8 0-0.6-0.6-0.8-1.3-0.9 -1-0.3-2-0.6-2-2 0-1.4 1.2-2.1 2.5-2.1 0.9 0 1.7 0.3 2.2 0.5v1.6l-1.2 0.1v-0.6c0-0.3-0.1-0.4-0.3-0.4C80.6 79.1 80.4 79.1 80.1 79.1z"/><path class="st1" d="M62.3 54.8c-7.6-1-13.6-7.1-14.5-14.7 -0.8-7 2.8-13.2 8.3-16.4 1.1-0.6 0.6-2.3-0.6-2.2 -1.4 0.1-2.8 0.3-4.2 0.6C41.7 24.4 34.6 32.7 34 42.5c-0.9 13.2 9.6 24.2 22.6 24.2 9.9 0 18.4-6.4 21.4-15.3 0.4-1.2-1-2.1-2-1.2C72.6 53.6 67.6 55.5 62.3 54.8z"/></svg>