<?xml version="1.0" encoding="utf-8"?>
<!-- Generator: Adobe Illustrator 20.1.0, SVG Export Plug-In . SVG Version: 6.00 Build 0)  -->
<svg version="1.1" id="Layer_1" xmlns="http://www.w3.org/2000/svg" xmlns:xlink="http://www.w3.org/1999/xlink" x="0px" y="0px"
	 width="43px" height="43px" viewBox="0 0 43 43" style="enable-background:new 0 0 43 43;" xml:space="preserve">
<style type="text/css">
	.st0{fill:none;stroke:#313133;stroke-width:2;stroke-linecap:round;stroke-linejoin:round;stroke-dasharray:1,3;}
	.st1{fill:#313133;}
</style>
<title>Jobs icon</title>
<desc>Created with Sketch.</desc>
<g id="Page-1">
	<g id="Dashboard---Credits" transform="translate(-452.000000, -624.000000)">
		<g id="Jobs" transform="translate(453.000000, 618.000000)">
			<g id="Jobs-icon" transform="translate(0.000000, 7.000000)">
				<path id="Stroke-3" class="st0" d="M39,29.4c1.3-2.7,2-5.7,2-8.9C41,9.2,31.8,0,20.5,0S0,9.2,0,20.5c0,8.8,5.6,16.3,13.5,19.3
					c2.2,0.9,4.6,1.2,7,1.2C28.7,41,35.7,36.2,39,29.4L39,29.4z"/>
				<polygon id="Fill-5" class="st1" points="23.2,15.2 25.8,28.3 20.7,33.1 15.6,28.2 18.2,15.2 				"/>
				<polygon id="Fill-7" class="st1" points="24.6,15.9 25.7,20.2 27.8,23 29.7,21.6 28.4,19 				"/>
				<path id="Fill-9" class="st1" d="M19,8l3.4,0c1,0,1.7,0.7,1.7,1.6l0,2.4c0,0.9-0.7,1.6-1.7,1.6l-3.4,0c-1,0-1.7-0.7-1.7-1.6
					l0-2.4C17.4,8.7,18.1,8,19,8"/>
			</g>
		</g>
	</g>
</g>
</svg>
