<svg xmlns="http://www.w3.org/2000/svg" version="1.1" x="0" y="0" width="111" height="111" viewBox="-344 180 111 111" xml:space="preserve"><style type="text/css">
	.st0{fill:#EFEFEF;}
	.st1{enable-background:new    ;}
	.st2{fill:#313133;}
</style><title>Jobs OFF</title><desc>Created with Sketch Beta.</desc><g transform="translate(-731.000000, -622.000000)"><g transform="translate(457.000000, 273.000000)"><g transform="translate(0.000000, 34.000000)"><g transform="translate(0.000000, 314.000000)"><g transform="translate(273.978011, 0.505285)"><path class="st0" d="M-233.8 235.8c0-30.3-24.7-55-55-55 -30.3 0-55 24.7-55 55s24.7 55 55 55C-258.5 290.8-233.8 266.1-233.8 235.8zM-344 180"/><g class="st1"><path class="st2" d="M-304.2 265.1v-2.5l1.4-0.1v1.1c0 0.3 0 0.4 0.3 0.5 0.2 0.1 0.4 0.1 0.7 0.1 0.8 0 1-0.4 1-1.3v-5.5l-1.1-0.1v-1.2h3.7v1.1h-0.5c-0.3 0-0.4 0.2-0.4 0.4v4.4c0 0.4 0 1-0.1 1.5 -0.1 1.3-1 2.1-2.6 2.1C-302.7 265.7-303.5 265.5-304.2 265.1zM-294.5 258.2c1 0 3.1 0.3 3.1 3.5 0 2.7-1.5 3.9-3.3 3.9 -1.9 0-3.1-1.2-3.1-3.7C-297.8 259-295.9 258.2-294.5 258.2zM-293.1 262c0-1.6-0.4-2.5-1.5-2.5s-1.6 1-1.6 2.3c0 1.3 0.2 2.7 1.5 2.7C-293.5 264.5-293.1 263.5-293.1 262zM-290.1 257c0-0.2-0.1-0.3-0.4-0.3h-0.5v-1.2h2.5v3.3c0.4-0.4 1-0.6 1.7-0.6 1.7 0 2.9 1.2 2.9 3.4 0 2.7-1.1 4-3.4 4 -1 0-2.2-0.3-2.8-0.6V257zM-288.5 264.2c0.3 0.1 0.8 0.3 1.2 0.3 1 0 1.6-0.7 1.6-2.6 0-1.1-0.3-2.4-1.6-2.4 -0.6 0-1.3 0.4-1.3 1v3.7H-288.5zM-280.1 259.4c-0.6 0-1.1 0.3-1.1 0.8 0 0.6 0.7 0.8 1.3 1 1.1 0.3 2.3 0.7 2.3 2.2s-1.2 2.2-2.7 2.2c-0.9 0-2-0.1-2.6-0.4v-1.9l1.3-0.1v0.7c0 0.3 0.1 0.4 0.3 0.5 0.3 0.1 0.6 0.1 0.9 0.1 0.7 0 1.1-0.3 1.1-0.9 0-0.7-0.6-0.8-1.4-1 -1-0.3-2.2-0.6-2.2-2.2 0-1.5 1.2-2.2 2.7-2.2 1 0 1.8 0.3 2.3 0.6v1.7l-1.3 0.1V260c0-0.3-0.1-0.4-0.3-0.5C-279.5 259.4-279.7 259.4-280.1 259.4z"/></g><g transform="translate(58.982855, 47.482246) rotate(2.000000) translate(-58.982855, -47.482246) translate(46.982855, 26.982246)"><path class="st2" d="M-325.4 203.8l4.7 20.3 -7.7 7.9 -8.2-7.4 3.3-20.5L-325.4 203.8zM-323 204.8l2 6.6 3.6 4.2 2.9-2.3 -2.2-4.1L-323 204.8M-332.4 192.7l5.3-0.2c1.5 0 2.7 1.1 2.7 2.5l0.1 3.8c0 1.4-1.1 2.6-2.6 2.6l-5.2 0.2c-1.5 0-2.7-1.1-2.7-2.5l-0.2-3.8C-335.1 193.9-333.9 192.7-332.4 192.7"/></g></g></g></g></g></g></svg>