<svg xmlns="http://www.w3.org/2000/svg" width="55" height="55" viewBox="0 0 55 55"><style type="text/css">  
	.st0{fill:none;}
	.st1{fill:#313133;}
	.st2{fill:none;stroke:#313133;stroke-width:4.5081;stroke-linecap:round;stroke-linejoin:round;stroke-miterlimit:10;}
	.st3{fill:none;stroke:#313133;stroke-width:4.5078;stroke-linecap:round;stroke-linejoin:round;stroke-miterlimit:10;}
	.st4{fill:none;stroke:#313133;stroke-width:2;stroke-linecap:round;stroke-linejoin:round;stroke-dasharray:0.3934,4;}
	.st5{fill:#313131;}
	.st6{fill:#A8DC28;}
	.st7{fill:none;stroke:#EFEFEF;stroke-width:4.5081;stroke-linecap:round;stroke-linejoin:round;stroke-miterlimit:10;}
	.st8{fill:none;stroke:#EFEFEF;stroke-width:4.5078;stroke-linecap:round;stroke-linejoin:round;stroke-miterlimit:10;}
	.st9{fill:none;stroke:#A8DC28;stroke-width:2;stroke-linecap:round;stroke-linejoin:round;stroke-dasharray:0.3934,4;}
	.st10{fill:#FFFFFF;}
	.st11{fill:#EFEFEF;}
	.st12{fill:none;stroke:#313133;stroke-width:0.7992;stroke-miterlimit:10;}
	.st13{fill:none;stroke:#EFEFEF;stroke-width:0.7992;stroke-miterlimit:10;}
	.st14{fill:#313133;stroke:#313133;stroke-width:2.0544;stroke-linecap:round;stroke-linejoin:round;stroke-miterlimit:10;}
	.st15{fill:#EFEFEF;stroke:#EFEFEF;stroke-width:2.0544;stroke-linecap:round;stroke-linejoin:round;stroke-miterlimit:10;}
	.st16{fill:none;stroke:#313133;stroke-width:1.4652;stroke-miterlimit:10;}
	.st17{fill:none;stroke:#EFEFEF;stroke-width:1.4652;stroke-miterlimit:10;}
	
		.st18{fill:none;stroke:#FFFFFF;stroke-width:2;stroke-linecap:round;stroke-linejoin:round;stroke-miterlimit:10;stroke-dasharray:1,4;}
</style><circle class="st18" cx="27.5" cy="27.5" r="26.5"/><path class="st10" d="M24.6 20.8h6.2c0.4 0 0.8 0.3 0.9 0.7L36 39.9c0.1 0.4-0.1 0.8-0.4 1l-7.7 5.3c-0.4 0.2-0.8 0.2-1.1-0.1l-7-6c-0.3-0.2-0.4-0.6-0.3-0.9l4.3-17.7C23.8 21.1 24.2 20.8 24.6 20.8z"/><path class="st10" d="M30.5 18.4h-5.7c-1.3 0-2.5-1.1-2.5-2.5v-3.2c0-1.3 1.1-2.5 2.5-2.5h5.7c1.3 0 2.5 1.1 2.5 2.5v3.2C33 17.3 31.9 18.4 30.5 18.4z"/><path class="st10" d="M35.6 27.7l3.6 4.4c0.2 0.3 0.6 0.3 0.8 0l1.9-1.8c0.3-0.3 0.3-0.8 0-1.1l-8-7.4L35.6 27.7z"/></svg>