<?xml version="1.0" encoding="UTF-8"?><svg width="22" height="40" xmlns="http://www.w3.org/2000/svg"><g fill="none" fill-rule="evenodd"><g transform="translate(-342 -1614)" fill="#555555"><g transform="translate(203 1059)"><g transform="translate(0 555)"><g><path d="M150.268 11.25l4.704 20.154-7.72 7.86L139 31.911l3.281-20.408 7.987-.254zm2.027.965l6.033 4.49 2.178 4.067-2.83 2.24-3.463-4.208-1.918-6.59zM143.218.17L148.54 0c1.47-.046 2.702 1.05 2.751 2.45l.134 3.803c.049 1.4-1.105 2.574-2.574 2.62l-5.323.17c-1.472.047-2.703-1.05-2.752-2.451l-.133-3.803c-.05-1.4 1.102-2.572 2.574-2.62z"/></g></g></g></g></g></svg>