<svg xmlns:sketch="http://www.bohemiancoding.com/sketch/ns" xmlns="http://www.w3.org/2000/svg" xmlns:xlink="http://www.w3.org/1999/xlink" version="1.1" id="Layer_1" x="0" y="0" width="111" height="111" viewBox="-344 180 111 111" xml:space="preserve" enable-background="new -344 180 111 111">
  <style type="text/css">
    
	.st0{fill:#313133;}
	.st1{fill:none;stroke:#A8DC28;stroke-width:2;stroke-linecap:round;stroke-linejoin:round;stroke-dasharray:1,4;}
	.st2{enable-background:new    ;}
	.st3{fill:#EFEFEF;}
	.st4{fill:#A8DC28;}

  </style>
  <title>
    Jobs Hover Active
  </title>
  <desc>
    Created with Sketch Beta.
  </desc>
  <g id="PAA" sketch:type="MSPage">
    <g id="Desktop-HD-For-sale-2" transform="translate(-731.000000, -622.000000)" sketch:type="MSArtboardGroup">
      <g id="Phase-1" transform="translate(457.000000, 273.000000)" sketch:type="MSLayerGroup">
        <g id="_x31_-what-are-you-selling" transform="translate(0.000000, 34.000000)">
          <g id="categories" transform="translate(0.000000, 314.000000)">
            <g id="Jobs-Hover-Active" transform="translate(273.978011, 0.505285)">
              <path id="Fill-1" sketch:type="MSShapeGroup" class="st0" d="M-233.8 235.8c0-30.3-24.7-55-55-55 -30.3 0-55 24.7-55 55s24.7 55 55 55C-258.5 290.8-233.8 266.1-233.8 235.8z"/>
              <path id="Stroke-6" sketch:type="MSShapeGroup" class="st1" d="M-243.6 257.9c3.2-6.6 5-14 5-21.8 0-27.6-22.4-50-50-50s-50 22.4-50 50c0 21.5 13.7 39.9 32.8 46.9 5.4 2 11.2 3.1 17.2 3.1C-268.8 286.1-251.7 274.6-243.6 257.9z"/>
              <path id="Stroke-15" sketch:type="MSShapeGroup" class="st1" d="M-344 180"/>
              <g class="st2">
                <path class="st0" d="M-304.2 265.1v-2.5l1.4-0.1v1.1c0 0.3 0 0.4 0.3 0.5 0.2 0.1 0.4 0.1 0.7 0.1 0.8 0 1-0.4 1-1.3v-5.5l-1.1-0.1v-1.2h3.7v1.1h-0.5c-0.3 0-0.4 0.2-0.4 0.4v4.4c0 0.4 0 1-0.1 1.5 -0.1 1.3-1 2.1-2.6 2.1C-302.7 265.7-303.5 265.5-304.2 265.1z"/>
                <path class="st0" d="M-294.5 258.2c1 0 3.1 0.3 3.1 3.5 0 2.7-1.5 3.9-3.3 3.9 -1.9 0-3.1-1.2-3.1-3.7C-297.8 259-295.9 258.2-294.5 258.2zM-293.1 262c0-1.6-0.4-2.5-1.5-2.5s-1.6 1-1.6 2.3c0 1.3 0.2 2.7 1.5 2.7C-293.5 264.5-293.1 263.5-293.1 262z"/>
                <path class="st0" d="M-290.1 257c0-0.2-0.1-0.3-0.4-0.3h-0.5v-1.2h2.5v3.3c0.4-0.4 1-0.6 1.7-0.6 1.7 0 2.9 1.2 2.9 3.4 0 2.7-1.1 4-3.4 4 -1 0-2.2-0.3-2.8-0.6V257zM-288.5 264.2c0.3 0.1 0.8 0.3 1.2 0.3 1 0 1.6-0.7 1.6-2.6 0-1.1-0.3-2.4-1.6-2.4 -0.6 0-1.3 0.4-1.3 1v3.7H-288.5z"/>
                <path class="st0" d="M-280.1 259.4c-0.6 0-1.1 0.3-1.1 0.8 0 0.6 0.7 0.8 1.3 1 1.1 0.3 2.3 0.7 2.3 2.2s-1.2 2.2-2.7 2.2c-0.9 0-2-0.1-2.6-0.4v-1.9l1.3-0.1v0.7c0 0.3 0.1 0.4 0.3 0.5 0.3 0.1 0.6 0.1 0.9 0.1 0.7 0 1.1-0.3 1.1-0.9 0-0.7-0.6-0.8-1.4-1 -1-0.3-2.2-0.6-2.2-2.2 0-1.5 1.2-2.2 2.7-2.2 1 0 1.8 0.3 2.3 0.6v1.7l-1.3 0.1V260c0-0.3-0.1-0.4-0.3-0.5C-279.5 259.4-279.7 259.4-280.1 259.4z"/>
              </g>
              <g id="Fill-2-_x2B_-Fill-3-_x2B_-Fill-4" transform="translate(58.982855, 47.482246) rotate(2.000000) translate(-58.982855, -47.482246) translate(46.982855, 26.982246)" sketch:type="MSShapeGroup">
                <path id="Fill-2" class="st3" d="M-325.4 203.8l4.7 20.3 -7.7 7.9 -8.2-7.4 3.3-20.5L-325.4 203.8z"/>
                <path id="Fill-3" class="st4" d="M-323 204.8l2 6.6 3.6 4.2 2.9-2.3 -2.2-4.1L-323 204.8"/>
                <path id="Fill-4" class="st4" d="M-332.4 192.7l5.3-0.2c1.5 0 2.7 1.1 2.7 2.5l0.1 3.8c0 1.4-1.1 2.6-2.6 2.6l-5.2 0.2c-1.5 0-2.7-1.1-2.7-2.5l-0.2-3.8C-335.1 193.9-333.9 192.7-332.4 192.7"/>
              </g>
              <g class="st2">
                <path class="st4" d="M-302.6 266.1v-2.5l1.4-0.1v1.1c0 0.3 0 0.4 0.3 0.5 0.2 0.1 0.4 0.1 0.7 0.1 0.8 0 1-0.4 1-1.3v-5.5l-1.1-0.1v-1.2h3.7v1.1h-0.5c-0.3 0-0.4 0.2-0.4 0.4v4.4c0 0.4 0 1-0.1 1.5 -0.1 1.3-1 2.1-2.6 2.1C-301 266.7-301.9 266.5-302.6 266.1z"/>
                <path class="st4" d="M-292.8 259.2c1 0 3.1 0.3 3.1 3.5 0 2.7-1.5 3.9-3.3 3.9 -1.9 0-3.1-1.2-3.1-3.7C-296.2 260.1-294.3 259.2-292.8 259.2zM-291.4 263c0-1.6-0.4-2.5-1.5-2.5 -1.1 0-1.6 1-1.6 2.3 0 1.3 0.2 2.7 1.5 2.7C-291.8 265.5-291.4 264.5-291.4 263z"/>
                <path class="st4" d="M-288.4 258c0-0.2-0.1-0.3-0.4-0.3h-0.5v-1.2h2.5v3.3c0.4-0.4 1-0.6 1.7-0.6 1.7 0 2.9 1.2 2.9 3.4 0 2.7-1.1 4-3.4 4 -1 0-2.2-0.3-2.8-0.6V258zM-286.8 265.2c0.3 0.1 0.8 0.3 1.2 0.3 1 0 1.6-0.7 1.6-2.6 0-1.1-0.3-2.4-1.6-2.4 -0.6 0-1.3 0.4-1.3 1v3.7H-286.8z"/>
                <path class="st4" d="M-278.4 260.4c-0.6 0-1.1 0.3-1.1 0.8 0 0.6 0.7 0.8 1.3 1 1.1 0.3 2.3 0.7 2.3 2.2s-1.2 2.2-2.7 2.2c-0.9 0-2-0.1-2.6-0.4v-1.9l1.3-0.1v0.7c0 0.3 0.1 0.4 0.3 0.5 0.3 0.1 0.6 0.1 0.9 0.1 0.7 0 1.1-0.3 1.1-0.9 0-0.7-0.6-0.8-1.4-1 -1-0.3-2.2-0.6-2.2-2.2 0-1.5 1.2-2.2 2.7-2.2 1 0 1.8 0.3 2.3 0.6v1.7l-1.3 0.1V261c0-0.3-0.1-0.4-0.3-0.5C-277.9 260.4-278.1 260.4-278.4 260.4z"/>
              </g>
            </g>
          </g>
        </g>
      </g>
    </g>
  </g>
</svg>
