<?xml version="1.0" encoding="utf-8"?>
<!-- Generator: Adobe Illustrator 18.0.0, SVG Export Plug-In . SVG Version: 6.00 Build 0)  -->
<!DOCTYPE svg PUBLIC "-//W3C//DTD SVG 1.1//EN" "http://www.w3.org/Graphics/SVG/1.1/DTD/svg11.dtd">
<svg version="1.1" id="Layer_1" xmlns="http://www.w3.org/2000/svg" xmlns:xlink="http://www.w3.org/1999/xlink" x="0px" y="0px"
	 width="206px" height="73px" viewBox="0 0 206 73" enable-background="new 0 0 206 73" xml:space="preserve">
<g>
	<g>
		<g>
			<path fill="#FFFFFF" d="M1.424,0c0.962,0,1.503,0.581,1.503,1.423c0,0.802-0.522,1.443-1.423,1.443C0.501,2.866,0,2.285,0,1.443
				C0,0.621,0.541,0,1.424,0z M6.596,0c0.962,0,1.503,0.581,1.503,1.423c0,0.802-0.522,1.443-1.424,1.443
				c-1.002,0-1.503-0.581-1.503-1.423C5.172,0.621,5.713,0,6.596,0z M11.608,0c0.962,0,1.503,0.581,1.503,1.423
				c0,0.802-0.522,1.443-1.423,1.443c-1.003,0-1.504-0.581-1.504-1.423C10.184,0.621,10.725,0,11.608,0z"/>
			<path fill="#FFFFFF" d="M17.498,0c0.962,0,1.503,0.581,1.503,1.423c0,0.802-0.522,1.443-1.423,1.443
				c-1.003,0-1.504-0.581-1.504-1.423C16.074,0.621,16.615,0,17.498,0z M22.67,0c0.962,0,1.503,0.581,1.503,1.423
				c0,0.802-0.522,1.443-1.424,1.443c-1.002,0-1.503-0.581-1.503-1.423C21.246,0.621,21.787,0,22.67,0z M27.682,0
				c0.962,0,1.503,0.581,1.503,1.423c0,0.802-0.522,1.443-1.423,1.443c-1.003,0-1.504-0.581-1.504-1.423
				C26.258,0.621,26.799,0,27.682,0z"/>
			<path fill="#FFFFFF" d="M33.571,0c0.962,0,1.503,0.581,1.503,1.423c0,0.802-0.521,1.443-1.423,1.443
				c-1.002,0-1.503-0.581-1.503-1.423C32.148,0.621,32.69,0,33.571,0z M38.743,0c0.962,0,1.503,0.581,1.503,1.423
				c0,0.802-0.521,1.443-1.423,1.443c-1.002,0-1.503-0.581-1.503-1.423C37.32,0.621,37.862,0,38.743,0z M43.755,0
				c0.962,0,1.503,0.581,1.503,1.423c0,0.802-0.521,1.443-1.423,1.443c-1.002,0-1.503-0.581-1.503-1.423
				C42.332,0.621,42.873,0,43.755,0z"/>
			<path fill="#FFFFFF" d="M49.645,0c0.962,0,1.503,0.581,1.503,1.423c0,0.802-0.522,1.443-1.423,1.443
				c-1.003,0-1.504-0.581-1.504-1.423C48.222,0.621,48.763,0,49.645,0z M54.818,0c0.962,0,1.503,0.581,1.503,1.423
				c0,0.802-0.522,1.443-1.424,1.443c-1.002,0-1.503-0.581-1.503-1.423C53.394,0.621,53.935,0,54.818,0z M59.829,0
				c0.962,0,1.503,0.581,1.503,1.423c0,0.802-0.522,1.443-1.423,1.443c-1.003,0-1.504-0.581-1.504-1.423
				C58.405,0.621,58.946,0,59.829,0z"/>
			<path fill="#FFFFFF" d="M65.72,0c0.962,0,1.503,0.581,1.503,1.423c0,0.802-0.522,1.443-1.423,1.443
				c-1.003,0-1.504-0.581-1.504-1.423C64.296,0.621,64.837,0,65.72,0z M70.892,0c0.962,0,1.503,0.581,1.503,1.423
				c0,0.802-0.522,1.443-1.424,1.443c-1.002,0-1.503-0.581-1.503-1.423C69.468,0.621,70.009,0,70.892,0z M75.903,0
				c0.962,0,1.503,0.581,1.503,1.423c0,0.802-0.522,1.443-1.423,1.443c-1.003,0-1.504-0.581-1.504-1.423
				C74.479,0.621,75.021,0,75.903,0z"/>
			<path fill="#FFFFFF" d="M81.794,0c0.962,0,1.503,0.581,1.503,1.423c0,0.802-0.522,1.443-1.423,1.443
				c-1.003,0-1.504-0.581-1.504-1.423C80.37,0.621,80.911,0,81.794,0z M86.966,0c0.962,0,1.503,0.581,1.503,1.423
				c0,0.802-0.522,1.443-1.424,1.443c-1.002,0-1.503-0.581-1.503-1.423C85.542,0.621,86.083,0,86.966,0z M91.978,0
				c0.962,0,1.503,0.581,1.503,1.423c0,0.802-0.522,1.443-1.423,1.443c-1.003,0-1.504-0.581-1.504-1.423
				C90.554,0.621,91.095,0,91.978,0z"/>
			<path fill="#FFFFFF" d="M97.867,0c0.962,0,1.503,0.581,1.503,1.423c0,0.802-0.521,1.443-1.423,1.443
				c-1.002,0-1.503-0.581-1.503-1.423C96.444,0.621,96.985,0,97.867,0z M103.039,0c0.962,0,1.503,0.581,1.503,1.423
				c0,0.802-0.521,1.443-1.423,1.443c-1.002,0-1.503-0.581-1.503-1.423C101.616,0.621,102.157,0,103.039,0z M108.051,0
				c0.962,0,1.503,0.581,1.503,1.423c0,0.802-0.521,1.443-1.423,1.443c-1.002,0-1.503-0.581-1.503-1.423
				C106.628,0.621,107.169,0,108.051,0z"/>
			<path fill="#FFFFFF" d="M113.941,0c0.962,0,1.503,0.581,1.503,1.423c0,0.802-0.522,1.443-1.423,1.443
				c-1.003,0-1.504-0.581-1.504-1.423C112.517,0.621,113.058,0,113.941,0z M119.113,0c0.962,0,1.503,0.581,1.503,1.423
				c0,0.802-0.522,1.443-1.424,1.443c-1.002,0-1.503-0.581-1.503-1.423C117.689,0.621,118.231,0,119.113,0z M124.125,0
				c0.962,0,1.503,0.581,1.503,1.423c0,0.802-0.522,1.443-1.423,1.443c-1.003,0-1.504-0.581-1.504-1.423
				C122.701,0.621,123.242,0,124.125,0z"/>
			<path fill="#FFFFFF" d="M130.015,0c0.962,0,1.503,0.581,1.503,1.423c0,0.802-0.522,1.443-1.423,1.443
				c-1.003,0-1.504-0.581-1.504-1.423C128.591,0.621,129.133,0,130.015,0z M135.188,0c0.962,0,1.503,0.581,1.503,1.423
				c0,0.802-0.522,1.443-1.424,1.443c-1.002,0-1.503-0.581-1.503-1.423C133.764,0.621,134.305,0,135.188,0z M140.199,0
				c0.962,0,1.503,0.581,1.503,1.423c0,0.802-0.522,1.443-1.423,1.443c-1.003,0-1.504-0.581-1.504-1.423
				C138.775,0.621,139.316,0,140.199,0z"/>
			<path fill="#FFFFFF" d="M146.09,0c0.962,0,1.503,0.581,1.503,1.423c0,0.802-0.522,1.443-1.423,1.443
				c-1.003,0-1.504-0.581-1.504-1.423C144.666,0.621,145.207,0,146.09,0z M151.262,0c0.962,0,1.503,0.581,1.503,1.423
				c0,0.802-0.522,1.443-1.424,1.443c-1.002,0-1.503-0.581-1.503-1.423C149.838,0.621,150.379,0,151.262,0z M156.273,0
				c0.962,0,1.503,0.581,1.503,1.423c0,0.802-0.522,1.443-1.423,1.443c-1.003,0-1.504-0.581-1.504-1.423
				C154.849,0.621,155.391,0,156.273,0z"/>
			<path fill="#FFFFFF" d="M162.163,0c0.962,0,1.503,0.581,1.503,1.423c0,0.802-0.521,1.443-1.423,1.443
				c-1.002,0-1.503-0.581-1.503-1.423C160.74,0.621,161.281,0,162.163,0z M167.335,0c0.962,0,1.503,0.581,1.503,1.423
				c0,0.802-0.521,1.443-1.423,1.443c-1.002,0-1.503-0.581-1.503-1.423C165.912,0.621,166.453,0,167.335,0z M172.346,0
				c0.962,0,1.503,0.581,1.503,1.423c0,0.802-0.521,1.443-1.423,1.443c-1.002,0-1.503-0.581-1.503-1.423
				C170.924,0.621,171.465,0,172.346,0z"/>
			<path fill="#FFFFFF" d="M178.237,0c0.962,0,1.503,0.581,1.503,1.423c0,0.802-0.522,1.443-1.423,1.443
				c-1.003,0-1.504-0.581-1.504-1.423C176.813,0.621,177.354,0,178.237,0z M183.409,0c0.962,0,1.503,0.581,1.503,1.423
				c0,0.802-0.522,1.443-1.424,1.443c-1.002,0-1.503-0.581-1.503-1.423C181.985,0.621,182.526,0,183.409,0z M188.421,0
				c0.962,0,1.503,0.581,1.503,1.423c0,0.802-0.522,1.443-1.423,1.443c-1.003,0-1.504-0.581-1.504-1.423
				C186.997,0.621,187.538,0,188.421,0z"/>
		</g>
		<g>
			<path fill="#FFFFFF" d="M194.313,0c0.962,0,1.503,0.581,1.503,1.423c0,0.802-0.521,1.443-1.423,1.443
				c-1.002,0-1.503-0.581-1.503-1.423C192.89,0.621,193.431,0,194.313,0z M199.485,0c0.962,0,1.503,0.581,1.503,1.423
				c0,0.802-0.521,1.443-1.423,1.443c-1.002,0-1.503-0.581-1.503-1.423C198.062,0.621,198.603,0,199.485,0z M204.497,0
				C205.459,0,206,0.581,206,1.423c0,0.802-0.521,1.443-1.423,1.443c-1.002,0-1.503-0.581-1.503-1.423
				C203.074,0.621,203.615,0,204.497,0z"/>
		</g>
	</g>
	<g>
		<g>
			<path fill="#FFFFFF" d="M1.424,70.134c0.962,0,1.503,0.581,1.503,1.423C2.927,72.359,2.405,73,1.504,73
				C0.501,73,0,72.419,0,71.577C0,70.755,0.541,70.134,1.424,70.134z M6.596,70.134c0.962,0,1.503,0.581,1.503,1.423
				C8.099,72.359,7.578,73,6.675,73c-1.002,0-1.503-0.581-1.503-1.423C5.172,70.755,5.713,70.134,6.596,70.134z M11.608,70.134
				c0.962,0,1.503,0.581,1.503,1.423c0,0.802-0.522,1.443-1.423,1.443c-1.003,0-1.504-0.581-1.504-1.423
				C10.184,70.755,10.725,70.134,11.608,70.134z"/>
			<path fill="#FFFFFF" d="M17.498,70.134c0.962,0,1.503,0.581,1.503,1.423c0,0.802-0.522,1.443-1.423,1.443
				c-1.003,0-1.504-0.581-1.504-1.423C16.074,70.755,16.615,70.134,17.498,70.134z M22.67,70.134c0.962,0,1.503,0.581,1.503,1.423
				c0,0.802-0.522,1.443-1.424,1.443c-1.002,0-1.503-0.581-1.503-1.423C21.246,70.755,21.787,70.134,22.67,70.134z M27.682,70.134
				c0.962,0,1.503,0.581,1.503,1.423c0,0.802-0.522,1.443-1.423,1.443c-1.003,0-1.504-0.581-1.504-1.423
				C26.258,70.755,26.799,70.134,27.682,70.134z"/>
			<path fill="#FFFFFF" d="M33.571,70.134c0.962,0,1.503,0.581,1.503,1.423c0,0.802-0.521,1.443-1.423,1.443
				c-1.002,0-1.503-0.581-1.503-1.423C32.148,70.755,32.69,70.134,33.571,70.134z M38.743,70.134c0.962,0,1.503,0.581,1.503,1.423
				c0,0.802-0.521,1.443-1.423,1.443c-1.002,0-1.503-0.581-1.503-1.423C37.32,70.755,37.862,70.134,38.743,70.134z M43.755,70.134
				c0.962,0,1.503,0.581,1.503,1.423c0,0.802-0.521,1.443-1.423,1.443c-1.002,0-1.503-0.581-1.503-1.423
				C42.332,70.755,42.873,70.134,43.755,70.134z"/>
			<path fill="#FFFFFF" d="M49.645,70.134c0.962,0,1.503,0.581,1.503,1.423c0,0.802-0.522,1.443-1.423,1.443
				c-1.003,0-1.504-0.581-1.504-1.423C48.222,70.755,48.763,70.134,49.645,70.134z M54.818,70.134c0.962,0,1.503,0.581,1.503,1.423
				c0,0.802-0.522,1.443-1.424,1.443c-1.002,0-1.503-0.581-1.503-1.423C53.394,70.755,53.935,70.134,54.818,70.134z M59.829,70.134
				c0.962,0,1.503,0.581,1.503,1.423c0,0.802-0.522,1.443-1.423,1.443c-1.003,0-1.504-0.581-1.504-1.423
				C58.405,70.755,58.946,70.134,59.829,70.134z"/>
			<path fill="#FFFFFF" d="M65.72,70.134c0.962,0,1.503,0.581,1.503,1.423c0,0.802-0.522,1.443-1.423,1.443
				c-1.003,0-1.504-0.581-1.504-1.423C64.296,70.755,64.837,70.134,65.72,70.134z M70.892,70.134c0.962,0,1.503,0.581,1.503,1.423
				c0,0.802-0.522,1.443-1.424,1.443c-1.002,0-1.503-0.581-1.503-1.423C69.468,70.755,70.009,70.134,70.892,70.134z M75.903,70.134
				c0.962,0,1.503,0.581,1.503,1.423c0,0.802-0.522,1.443-1.423,1.443c-1.003,0-1.504-0.581-1.504-1.423
				C74.479,70.755,75.021,70.134,75.903,70.134z"/>
			<path fill="#FFFFFF" d="M81.794,70.134c0.962,0,1.503,0.581,1.503,1.423c0,0.802-0.522,1.443-1.423,1.443
				c-1.003,0-1.504-0.581-1.504-1.423C80.37,70.755,80.911,70.134,81.794,70.134z M86.966,70.134c0.962,0,1.503,0.581,1.503,1.423
				c0,0.802-0.522,1.443-1.424,1.443c-1.002,0-1.503-0.581-1.503-1.423C85.542,70.755,86.083,70.134,86.966,70.134z M91.978,70.134
				c0.962,0,1.503,0.581,1.503,1.423c0,0.802-0.522,1.443-1.423,1.443c-1.003,0-1.504-0.581-1.504-1.423
				C90.554,70.755,91.095,70.134,91.978,70.134z"/>
			<path fill="#FFFFFF" d="M97.867,70.134c0.962,0,1.503,0.581,1.503,1.423c0,0.802-0.521,1.443-1.423,1.443
				c-1.002,0-1.503-0.581-1.503-1.423C96.444,70.755,96.985,70.134,97.867,70.134z M103.039,70.134c0.962,0,1.503,0.581,1.503,1.423
				c0,0.802-0.521,1.443-1.423,1.443c-1.002,0-1.503-0.581-1.503-1.423C101.616,70.755,102.157,70.134,103.039,70.134z
				 M108.051,70.134c0.962,0,1.503,0.581,1.503,1.423c0,0.802-0.521,1.443-1.423,1.443c-1.002,0-1.503-0.581-1.503-1.423
				C106.628,70.755,107.169,70.134,108.051,70.134z"/>
			<path fill="#FFFFFF" d="M113.941,70.134c0.962,0,1.503,0.581,1.503,1.423c0,0.802-0.522,1.443-1.423,1.443
				c-1.003,0-1.504-0.581-1.504-1.423C112.517,70.755,113.058,70.134,113.941,70.134z M119.113,70.134
				c0.962,0,1.503,0.581,1.503,1.423c0,0.802-0.522,1.443-1.424,1.443c-1.002,0-1.503-0.581-1.503-1.423
				C117.689,70.755,118.231,70.134,119.113,70.134z M124.125,70.134c0.962,0,1.503,0.581,1.503,1.423
				c0,0.802-0.522,1.443-1.423,1.443c-1.003,0-1.504-0.581-1.504-1.423C122.701,70.755,123.242,70.134,124.125,70.134z"/>
			<path fill="#FFFFFF" d="M130.015,70.134c0.962,0,1.503,0.581,1.503,1.423c0,0.802-0.522,1.443-1.423,1.443
				c-1.003,0-1.504-0.581-1.504-1.423C128.591,70.755,129.133,70.134,130.015,70.134z M135.188,70.134
				c0.962,0,1.503,0.581,1.503,1.423c0,0.802-0.522,1.443-1.424,1.443c-1.002,0-1.503-0.581-1.503-1.423
				C133.764,70.755,134.305,70.134,135.188,70.134z M140.199,70.134c0.962,0,1.503,0.581,1.503,1.423
				c0,0.802-0.522,1.443-1.423,1.443c-1.003,0-1.504-0.581-1.504-1.423C138.775,70.755,139.316,70.134,140.199,70.134z"/>
			<path fill="#FFFFFF" d="M146.09,70.134c0.962,0,1.503,0.581,1.503,1.423c0,0.802-0.522,1.443-1.423,1.443
				c-1.003,0-1.504-0.581-1.504-1.423C144.666,70.755,145.207,70.134,146.09,70.134z M151.262,70.134
				c0.962,0,1.503,0.581,1.503,1.423c0,0.802-0.522,1.443-1.424,1.443c-1.002,0-1.503-0.581-1.503-1.423
				C149.838,70.755,150.379,70.134,151.262,70.134z M156.273,70.134c0.962,0,1.503,0.581,1.503,1.423
				c0,0.802-0.522,1.443-1.423,1.443c-1.003,0-1.504-0.581-1.504-1.423C154.849,70.755,155.391,70.134,156.273,70.134z"/>
			<path fill="#FFFFFF" d="M162.163,70.134c0.962,0,1.503,0.581,1.503,1.423c0,0.802-0.521,1.443-1.423,1.443
				c-1.002,0-1.503-0.581-1.503-1.423C160.74,70.755,161.281,70.134,162.163,70.134z M167.335,70.134
				c0.962,0,1.503,0.581,1.503,1.423c0,0.802-0.521,1.443-1.423,1.443c-1.002,0-1.503-0.581-1.503-1.423
				C165.912,70.755,166.453,70.134,167.335,70.134z M172.346,70.134c0.962,0,1.503,0.581,1.503,1.423
				c0,0.802-0.521,1.443-1.423,1.443c-1.002,0-1.503-0.581-1.503-1.423C170.924,70.755,171.465,70.134,172.346,70.134z"/>
			<path fill="#FFFFFF" d="M178.237,70.134c0.962,0,1.503,0.581,1.503,1.423c0,0.802-0.522,1.443-1.423,1.443
				c-1.003,0-1.504-0.581-1.504-1.423C176.813,70.755,177.354,70.134,178.237,70.134z M183.409,70.134
				c0.962,0,1.503,0.581,1.503,1.423c0,0.802-0.522,1.443-1.424,1.443c-1.002,0-1.503-0.581-1.503-1.423
				C181.985,70.755,182.526,70.134,183.409,70.134z M188.421,70.134c0.962,0,1.503,0.581,1.503,1.423
				c0,0.802-0.522,1.443-1.423,1.443c-1.003,0-1.504-0.581-1.504-1.423C186.997,70.755,187.538,70.134,188.421,70.134z"/>
		</g>
		<g>
			<path fill="#FFFFFF" d="M194.313,70.134c0.962,0,1.503,0.581,1.503,1.423c0,0.802-0.521,1.443-1.423,1.443
				c-1.002,0-1.503-0.581-1.503-1.423C192.89,70.755,193.431,70.134,194.313,70.134z M199.485,70.134
				c0.962,0,1.503,0.581,1.503,1.423c0,0.802-0.521,1.443-1.423,1.443c-1.002,0-1.503-0.581-1.503-1.423
				C198.062,70.755,198.603,70.134,199.485,70.134z M204.497,70.134c0.962,0,1.503,0.581,1.503,1.423
				c0,0.802-0.521,1.443-1.423,1.443c-1.002,0-1.503-0.581-1.503-1.423C203.074,70.755,203.615,70.134,204.497,70.134z"/>
		</g>
	</g>
</g>
<g>
	<path fill="#FFFFFF" d="M63.365,27.834c-0.072,0.66-0.144,1.326-0.216,1.998c-0.12,1.057-0.258,2.094-0.414,3.114
		c-0.156,1.021-0.33,2.046-0.522,3.078c0.432-0.096,0.87-0.204,1.314-0.324c0.444-0.12,0.894-0.18,1.35-0.18
		c0.168,0,0.312,0.036,0.432,0.108c0.12,0.072,0.18,0.204,0.18,0.396c0,0.168-0.157,0.336-0.468,0.504
		c-0.312,0.168-0.678,0.324-1.098,0.468c-0.42,0.144-0.828,0.265-1.224,0.36c-0.396,0.096-0.666,0.168-0.81,0.216
		c-0.144,0.84-0.336,1.746-0.576,2.718c-0.24,0.972-0.546,1.95-0.918,2.934c-0.372,0.984-0.804,1.926-1.296,2.826
		c-0.492,0.9-1.074,1.698-1.746,2.394s-1.434,1.254-2.286,1.674s-1.806,0.63-2.862,0.63c-0.72,0-1.344-0.132-1.872-0.396
		c-0.528-0.264-1.021-0.672-1.476-1.224c-0.168-0.216-0.318-0.438-0.45-0.666c-0.132-0.228-0.198-0.486-0.198-0.774
		c0.144-0.264,0.336-0.396,0.576-0.396c0.24,0,0.45,0.108,0.63,0.324s0.384,0.45,0.612,0.702s0.504,0.486,0.828,0.702
		c0.324,0.216,0.738,0.324,1.242,0.324c0.671,0,1.29-0.204,1.854-0.612c0.563-0.408,1.074-0.936,1.53-1.584
		c0.456-0.648,0.858-1.374,1.206-2.178c0.348-0.804,0.648-1.62,0.9-2.448c0.252-0.828,0.456-1.62,0.612-2.376
		c0.156-0.756,0.27-1.398,0.342-1.926c-0.672,0.121-1.344,0.247-2.016,0.378c-0.672,0.132-1.344,0.198-2.016,0.198
		c-0.409,0-0.612-0.204-0.612-0.612c0-0.216,0.054-0.419,0.162-0.612c0.108-0.192,0.27-0.324,0.486-0.396
		c0.192-0.048,0.408-0.072,0.648-0.072c0.264,0,0.492-0.012,0.684-0.036c0.48-0.048,0.972-0.102,1.476-0.162
		c0.504-0.06,0.996-0.138,1.476-0.234c0.312-1.632,0.582-3.258,0.81-4.878c0.228-1.62,0.342-3.258,0.342-4.914
		c0-0.12-0.006-0.228-0.018-0.324c-0.012-0.096-0.018-0.204-0.018-0.324c-1.152,0.168-2.311,0.294-3.474,0.378
		c-1.165,0.084-2.322,0.222-3.474,0.414c-0.312,0.048-0.702,0.108-1.17,0.18c-0.468,0.072-0.931,0.187-1.386,0.342
		c-0.456,0.156-0.846,0.366-1.17,0.63c-0.324,0.264-0.486,0.612-0.486,1.044c0,0.48,0.084,0.936,0.252,1.368
		c0.167,0.432,0.36,0.822,0.576,1.17c0.216,0.348,0.408,0.648,0.576,0.9s0.252,0.438,0.252,0.558c0,0.192-0.096,0.336-0.288,0.432
		h-0.072c-0.192,0.024-0.336,0.024-0.432,0c-0.096-0.024-0.228-0.096-0.396-0.216c-0.336-0.24-0.648-0.545-0.936-0.918
		c-0.288-0.372-0.534-0.774-0.738-1.206c-0.204-0.432-0.366-0.875-0.486-1.332c-0.121-0.456-0.18-0.888-0.18-1.296
		c0-0.72,0.24-1.314,0.72-1.782c0.479-0.468,1.062-0.84,1.746-1.116c0.684-0.275,1.398-0.486,2.142-0.63
		c0.744-0.144,1.392-0.252,1.944-0.324c1.08-0.144,2.166-0.27,3.258-0.378c1.092-0.108,2.184-0.222,3.276-0.342
		c1.092-0.12,2.178-0.258,3.258-0.414c1.08-0.156,2.147-0.366,3.204-0.63c0.168-0.048,0.378-0.114,0.63-0.198
		c0.252-0.084,0.504-0.174,0.756-0.27c0.252-0.096,0.498-0.174,0.738-0.234c0.24-0.06,0.432-0.09,0.576-0.09
		c0.24,0,0.378,0.102,0.414,0.306c0.036,0.204,0.054,0.391,0.054,0.558c0,0.336-0.054,0.612-0.162,0.828
		c-0.108,0.216-0.318,0.408-0.63,0.576c-0.312,0.168-0.702,0.324-1.17,0.468c-0.468,0.144-0.948,0.264-1.44,0.36
		c-0.492,0.096-0.978,0.18-1.458,0.252c-0.48,0.072-0.912,0.144-1.296,0.216C63.473,26.508,63.437,27.174,63.365,27.834z"/>
	<path fill="#FFFFFF" d="M67.81,41.424c0.3-1.104,0.738-2.136,1.314-3.096c0.576-0.959,1.278-1.77,2.106-2.43s1.782-0.99,2.862-0.99
		c0.672,0,1.224,0.156,1.656,0.468s0.774,0.708,1.026,1.188s0.432,1.008,0.54,1.584c0.108,0.576,0.162,1.14,0.162,1.692
		c0,0.792-0.072,1.59-0.216,2.394c-0.144,0.804-0.372,1.578-0.684,2.322c-0.312,0.744-0.708,1.44-1.188,2.088
		c-0.48,0.648-1.068,1.201-1.764,1.656c-0.408,0.264-0.852,0.486-1.332,0.666c-0.48,0.18-0.972,0.27-1.476,0.27
		c-0.648,0-1.194-0.15-1.638-0.45c-0.444-0.3-0.798-0.678-1.062-1.134c-0.264-0.456-0.456-0.972-0.576-1.548
		c-0.121-0.576-0.18-1.127-0.18-1.656C67.36,43.536,67.51,42.528,67.81,41.424z M72.31,38.112c-0.517,0.552-0.948,1.212-1.296,1.98
		c-0.348,0.769-0.612,1.561-0.792,2.376c-0.18,0.816-0.27,1.5-0.27,2.052c0,0.288,0.023,0.606,0.072,0.954
		c0.048,0.348,0.138,0.666,0.27,0.954c0.132,0.288,0.318,0.534,0.558,0.738c0.24,0.205,0.54,0.306,0.9,0.306
		c0.312,0,0.606-0.066,0.882-0.198s0.534-0.294,0.774-0.486c0.456-0.36,0.846-0.786,1.17-1.278c0.324-0.492,0.588-1.014,0.792-1.566
		c0.204-0.552,0.354-1.122,0.45-1.71c0.096-0.588,0.144-1.158,0.144-1.71c0-0.288-0.024-0.624-0.072-1.008
		c-0.048-0.383-0.144-0.738-0.288-1.062c-0.144-0.324-0.336-0.6-0.576-0.828c-0.24-0.228-0.552-0.342-0.936-0.342
		C73.42,37.284,72.826,37.56,72.31,38.112z"/>
	<path fill="#FFFFFF" d="M85.09,39.48c-0.444-0.36-0.93-0.624-1.458-0.792c-0.192,0.528-0.402,1.08-0.63,1.656
		c-0.229,0.576-0.486,1.152-0.774,1.728s-0.6,1.128-0.936,1.656c-0.336,0.528-0.708,0.997-1.116,1.404
		c-0.12,0.12-0.264,0.24-0.432,0.36c-0.168,0.121-0.348,0.18-0.54,0.18c-0.312,0-0.468-0.156-0.468-0.468
		c0-0.144,0.031-0.282,0.09-0.414c0.06-0.131,0.138-0.257,0.234-0.378c0.696-1.008,1.35-2.04,1.962-3.096s0.99-2.196,1.134-3.42
		c-0.336-0.432-0.576-0.906-0.72-1.422c-0.144-0.516-0.216-1.049-0.216-1.602c0-0.288,0.042-0.66,0.126-1.116
		c0.083-0.456,0.216-0.9,0.396-1.332c0.18-0.432,0.401-0.804,0.666-1.116c0.264-0.312,0.576-0.468,0.936-0.468
		c0.264,0,0.468,0.114,0.612,0.342c0.144,0.229,0.264,0.492,0.36,0.792c0.096,0.3,0.156,0.606,0.18,0.918
		c0.023,0.312,0.036,0.564,0.036,0.756c0,0.576-0.036,1.152-0.108,1.728c0.288,0.432,0.672,0.786,1.152,1.062
		c0.479,0.276,0.954,0.576,1.422,0.9c0.468,0.324,0.87,0.72,1.206,1.188c0.336,0.468,0.504,1.098,0.504,1.89
		c0,0.409-0.06,0.876-0.18,1.404c-0.192,0.84-0.36,1.68-0.504,2.52c-0.144,0.84-0.216,1.692-0.216,2.556
		c0,0.24,0.03,0.522,0.09,0.846c0.06,0.324,0.258,0.486,0.594,0.486c0.408,0,0.882-0.204,1.422-0.612
		c0.54-0.408,1.074-0.888,1.602-1.44c0.527-0.552,1.02-1.11,1.476-1.674c0.456-0.564,0.792-1.014,1.008-1.35
		c0.12-0.167,0.258-0.354,0.414-0.558c0.156-0.204,0.342-0.306,0.558-0.306c0.216,0,0.354,0.078,0.414,0.234
		c0.06,0.156,0.09,0.33,0.09,0.522c0,0.144-0.03,0.276-0.09,0.396c-0.061,0.12-0.126,0.24-0.198,0.36
		c-0.288,0.456-0.714,1.032-1.278,1.728c-0.564,0.696-1.176,1.367-1.836,2.013c-0.661,0.646-1.345,1.197-2.052,1.656
		c-0.708,0.458-1.35,0.687-1.926,0.687c-0.601,0-1.068-0.182-1.404-0.546c-0.336-0.364-0.588-0.802-0.756-1.314
		c-0.168-0.512-0.27-1.056-0.306-1.632c-0.036-0.576-0.054-1.08-0.054-1.512c0-0.672,0.03-1.332,0.09-1.98
		c0.06-0.648,0.09-1.308,0.09-1.98C85.756,40.32,85.534,39.84,85.09,39.48z"/>
	<path fill="#FFFFFF" d="M118.426,27.276c0.252-0.288,0.522-0.57,0.81-0.846c0.288-0.275,0.558-0.545,0.81-0.81
		c0.252-0.264,0.378-0.54,0.378-0.828c0-0.192-0.072-0.336-0.216-0.432c-0.144-0.096-0.312-0.162-0.504-0.198
		c-0.192-0.036-0.384-0.06-0.576-0.072c-0.192-0.012-0.348-0.018-0.468-0.018c-0.409,0-0.816,0.012-1.224,0.036
		c-0.408,0.024-0.816,0.072-1.224,0.144c-0.576,0.096-1.212,0.282-1.908,0.558c-0.696,0.276-1.356,0.63-1.98,1.062
		c-0.625,0.432-1.146,0.931-1.566,1.494c-0.42,0.564-0.63,1.183-0.63,1.854c0,0.744,0.246,1.464,0.738,2.16
		c0.492,0.696,1.11,1.392,1.854,2.088c0.744,0.696,1.553,1.392,2.43,2.088c0.876,0.696,1.686,1.428,2.43,2.196
		c0.744,0.768,1.362,1.566,1.854,2.394c0.492,0.828,0.738,1.71,0.738,2.646c0,0.912-0.222,1.716-0.666,2.412
		c-0.444,0.696-1.026,1.284-1.746,1.764c-0.72,0.48-1.537,0.876-2.448,1.188c-0.912,0.312-1.848,0.558-2.808,0.738
		c-0.96,0.18-1.884,0.306-2.772,0.378c-0.888,0.072-1.68,0.108-2.376,0.108c-0.625,0-1.26-0.036-1.908-0.108
		c-0.144-0.024-0.366-0.049-0.666-0.072c-0.301-0.024-0.601-0.066-0.9-0.126c-0.3-0.06-0.564-0.156-0.792-0.288
		s-0.342-0.318-0.342-0.558c0-0.408,0.108-0.642,0.324-0.702c0.216-0.06,0.491-0.09,0.828-0.09c0.6,0,1.188,0.079,1.764,0.234
		c0.576,0.156,1.164,0.234,1.764,0.234c0.432,0,0.983-0.023,1.656-0.072c0.672-0.047,1.38-0.138,2.124-0.27
		c0.744-0.131,1.5-0.3,2.268-0.504c0.768-0.204,1.452-0.468,2.052-0.792c0.6-0.324,1.092-0.708,1.476-1.152
		c0.384-0.444,0.576-0.966,0.576-1.566c0-0.672-0.27-1.332-0.81-1.98s-1.206-1.308-1.998-1.98s-1.662-1.362-2.61-2.07
		c-0.948-0.708-1.818-1.463-2.61-2.268s-1.458-1.668-1.998-2.592c-0.54-0.923-0.81-1.926-0.81-3.006
		c0-0.936,0.216-1.758,0.648-2.466c0.432-0.708,1.002-1.314,1.71-1.818c0.708-0.504,1.512-0.918,2.412-1.242
		c0.9-0.324,1.818-0.576,2.754-0.756c0.936-0.18,1.859-0.306,2.772-0.378c0.912-0.072,1.716-0.108,2.412-0.108
		c0.336,0,0.726,0.024,1.17,0.072c0.444,0.048,0.87,0.144,1.278,0.288c0.408,0.144,0.75,0.354,1.026,0.63
		c0.275,0.276,0.414,0.643,0.414,1.098c0,0.456-0.096,0.895-0.288,1.314c-0.192,0.42-0.457,0.787-0.792,1.098
		c-0.168,0.168-0.391,0.348-0.666,0.54c-0.276,0.192-0.564,0.372-0.864,0.54c-0.3,0.168-0.606,0.306-0.918,0.414
		c-0.312,0.108-0.588,0.162-0.828,0.162c-0.264,0-0.486-0.083-0.666-0.252c-0.18-0.167-0.27-0.383-0.27-0.648
		C118.048,27.852,118.174,27.564,118.426,27.276z"/>
	<path fill="#FFFFFF" d="M139.63,43.476c-0.204,0.288-0.366,0.528-0.486,0.72c-0.336,0.456-0.745,0.984-1.224,1.584
		c-0.48,0.6-1.002,1.165-1.566,1.692c-0.564,0.528-1.165,0.972-1.8,1.332c-0.636,0.36-1.266,0.54-1.89,0.54
		c-0.6,0-1.08-0.21-1.44-0.63c-0.36-0.42-0.636-0.924-0.828-1.512c-0.192-0.588-0.312-1.2-0.36-1.836
		c-0.048-0.636-0.06-1.17-0.036-1.602c-0.24,0.36-0.546,0.81-0.918,1.35c-0.373,0.54-0.787,1.062-1.242,1.566
		c-0.456,0.504-0.93,0.936-1.422,1.296c-0.492,0.36-0.979,0.54-1.458,0.54c-0.432,0-0.792-0.131-1.08-0.396
		c-0.288-0.264-0.51-0.588-0.666-0.972c-0.156-0.384-0.265-0.792-0.324-1.224c-0.06-0.432-0.09-0.816-0.09-1.152
		c0-0.936,0.228-2.004,0.684-3.204c0.456-1.2,1.062-2.334,1.818-3.402c0.756-1.067,1.62-1.962,2.592-2.682
		c0.972-0.72,1.985-1.08,3.042-1.08c0.264,0,0.527,0.12,0.792,0.36c0.264,0.24,0.396,0.492,0.396,0.756
		c0,0.121-0.036,0.21-0.108,0.27c-0.072,0.061-0.156,0.114-0.252,0.162c-0.648,0.384-1.266,0.787-1.854,1.206
		c-0.588,0.42-1.146,0.906-1.674,1.458c-0.936,0.96-1.68,2.034-2.232,3.222c-0.552,1.188-0.828,2.466-0.828,3.834
		c0,0.144,0.023,0.324,0.072,0.54c0.047,0.216,0.18,0.324,0.396,0.324c0.264,0,0.563-0.162,0.9-0.486
		c0.335-0.324,0.684-0.732,1.044-1.224c0.36-0.492,0.714-1.044,1.062-1.656c0.348-0.612,0.678-1.206,0.99-1.782
		s0.582-1.11,0.81-1.602c0.228-0.492,0.402-0.858,0.522-1.098c0.12-0.264,0.27-0.51,0.45-0.738c0.18-0.228,0.438-0.342,0.774-0.342
		c0.192,0,0.378,0.036,0.558,0.108c0.18,0.072,0.27,0.229,0.27,0.468c0,0.265-0.084,0.612-0.252,1.044
		c-0.168,0.432-0.301,0.78-0.396,1.044c-0.192,0.624-0.331,1.29-0.414,1.998c-0.084,0.708-0.126,1.375-0.126,1.998
		c0,0.192,0.005,0.48,0.018,0.864c0.012,0.384,0.054,0.774,0.126,1.17c0.072,0.396,0.186,0.744,0.342,1.044
		c0.156,0.3,0.378,0.45,0.666,0.45c0.432,0,0.912-0.192,1.44-0.576c0.528-0.384,1.044-0.833,1.548-1.35
		c0.504-0.516,0.972-1.049,1.404-1.602c0.432-0.552,0.756-0.996,0.972-1.332c0.12-0.191,0.252-0.39,0.396-0.594
		c0.144-0.204,0.347-0.306,0.612-0.306c0.384,0,0.576,0.229,0.576,0.684C139.936,42.936,139.833,43.188,139.63,43.476z"/>
	<path fill="#FFFFFF" d="M141.178,49.308c-0.468-0.432-0.87-0.99-1.206-1.674c-0.336-0.684-0.6-1.452-0.792-2.304
		c-0.192-0.852-0.336-1.704-0.432-2.556c-0.096-0.852-0.162-1.65-0.198-2.394c-0.036-0.744-0.054-1.344-0.054-1.8
		c0-2.52,0.204-5.009,0.612-7.47c0.408-2.46,1.116-4.854,2.124-7.182c0.192-0.432,0.456-0.948,0.792-1.548
		c0.336-0.6,0.726-1.182,1.17-1.746c0.444-0.563,0.924-1.038,1.44-1.422c0.516-0.384,1.038-0.576,1.566-0.576
		c0.432,0,0.786,0.103,1.062,0.306c0.275,0.204,0.492,0.468,0.648,0.792c0.156,0.324,0.27,0.678,0.342,1.062
		c0.072,0.384,0.108,0.744,0.108,1.08c0,1.128-0.132,2.352-0.396,3.672c-0.264,1.32-0.612,2.64-1.044,3.96
		c-0.432,1.32-0.912,2.604-1.44,3.852c-0.528,1.248-1.068,2.364-1.62,3.348c-0.264,0.48-0.546,0.942-0.846,1.386
		c-0.3,0.444-0.594,0.906-0.882,1.386c-0.096,0.144-0.21,0.312-0.342,0.504c-0.132,0.192-0.222,0.372-0.27,0.54
		c-0.072,0.192-0.114,0.45-0.126,0.774c-0.012,0.324-0.018,0.594-0.018,0.81c0,0.36,0.024,0.858,0.072,1.494
		c0.048,0.636,0.156,1.267,0.324,1.89c0.167,0.625,0.396,1.165,0.684,1.62c0.288,0.456,0.684,0.684,1.188,0.684
		c0.432,0,0.9-0.162,1.404-0.486c0.504-0.324,0.99-0.72,1.458-1.188c0.468-0.468,0.9-0.954,1.296-1.458
		c0.396-0.504,0.713-0.923,0.954-1.26c0.168-0.24,0.324-0.486,0.468-0.738c0.144-0.252,0.3-0.498,0.468-0.738
		c0.096-0.144,0.198-0.264,0.306-0.36c0.108-0.096,0.258-0.144,0.45-0.144c0.191,0,0.324,0.066,0.396,0.198
		c0.072,0.132,0.108,0.283,0.108,0.45c0,0.24-0.06,0.468-0.18,0.684c-0.12,0.216-0.24,0.42-0.36,0.612
		c-0.36,0.576-0.81,1.248-1.35,2.016c-0.54,0.769-1.146,1.488-1.818,2.16c-0.672,0.672-1.38,1.242-2.124,1.71
		c-0.744,0.468-1.488,0.702-2.232,0.702C142.215,49.956,141.646,49.74,141.178,49.308z M145.228,20.994
		c-0.336,0.42-0.63,0.906-0.882,1.458c-0.252,0.552-0.468,1.116-0.648,1.692c-0.18,0.576-0.318,1.008-0.414,1.296
		c-0.504,1.656-0.966,3.426-1.386,5.31s-0.63,3.69-0.63,5.418c0,0.192,0,0.372,0,0.54c0,0.144,0.012,0.312,0.036,0.504
		c0.576-0.984,1.193-2.13,1.854-3.438c0.66-1.308,1.26-2.664,1.8-4.068c0.54-1.404,0.99-2.802,1.35-4.194
		c0.36-1.392,0.54-2.664,0.54-3.816c0-0.072,0-0.18,0-0.324c0-0.167-0.018-0.324-0.054-0.468s-0.09-0.27-0.162-0.378
		c-0.072-0.108-0.18-0.162-0.324-0.162C145.923,20.364,145.563,20.574,145.228,20.994z"/>
	<path fill="#FFFFFF" d="M151.203,48.606c-0.504-0.276-0.918-0.636-1.242-1.08c-0.324-0.444-0.558-0.96-0.702-1.548
		c-0.144-0.587-0.216-1.206-0.216-1.854c0-0.815,0.156-1.8,0.468-2.952c0.312-1.152,0.756-2.262,1.332-3.33
		c0.576-1.068,1.266-1.974,2.07-2.718c0.804-0.743,1.686-1.116,2.646-1.116c0.648,0,1.146,0.205,1.494,0.614
		c0.348,0.409,0.522,0.926,0.522,1.552c0,0.602-0.186,1.27-0.558,2.004s-0.84,1.444-1.404,2.129
		c-0.564,0.686-1.17,1.294-1.818,1.823c-0.648,0.53-1.249,0.89-1.8,1.083c-0.12,0.554-0.18,1.059-0.18,1.516
		c0,0.818,0.18,1.462,0.54,1.932c0.36,0.469,0.959,0.704,1.8,0.704c0.768,0,1.488-0.149,2.16-0.45
		c0.671-0.3,1.296-0.684,1.872-1.152c0.576-0.468,1.104-1.002,1.584-1.602c0.48-0.6,0.9-1.2,1.26-1.8
		c0.12-0.192,0.264-0.396,0.432-0.612c0.167-0.216,0.383-0.324,0.648-0.324c0.12,0,0.234,0.036,0.342,0.108s0.162,0.168,0.162,0.288
		c0,0.24-0.024,0.432-0.072,0.576c-0.049,0.144-0.132,0.312-0.252,0.504c-0.456,0.816-1.014,1.596-1.674,2.34
		c-0.66,0.744-1.386,1.396-2.178,1.955s-1.645,1.003-2.556,1.332c-0.913,0.329-1.86,0.493-2.844,0.493
		C152.319,49.02,151.707,48.881,151.203,48.606z M154.299,36.442c-0.36,0.519-0.696,1.123-1.008,1.811
		c-0.312,0.688-0.576,1.376-0.792,2.064c-0.216,0.688-0.348,1.188-0.396,1.502c0.384-0.241,0.804-0.562,1.26-0.959
		c0.456-0.398,0.876-0.845,1.26-1.34c0.384-0.495,0.708-1.001,0.972-1.521c0.264-0.519,0.396-1.02,0.396-1.502
		c0-0.193-0.042-0.38-0.126-0.561c-0.084-0.181-0.247-0.272-0.486-0.272C155.019,35.664,154.659,35.924,154.299,36.442z"/>
</g>
</svg>
