<?xml version="1.0" encoding="utf-8"?>
<!-- Generator: Adobe Illustrator 18.0.0, SVG Export Plug-In . SVG Version: 6.00 Build 0)  -->
<!DOCTYPE svg PUBLIC "-//W3C//DTD SVG 1.1//EN" "http://www.w3.org/Graphics/SVG/1.1/DTD/svg11.dtd">
<svg version="1.1" id="Layer_1" xmlns="http://www.w3.org/2000/svg" xmlns:xlink="http://www.w3.org/1999/xlink" x="0px" y="0px"
	 width="206px" height="73px" viewBox="0 0 206 73" enable-background="new 0 0 206 73" xml:space="preserve">
<g>
	<g>
		<g>
			<path fill="#FFFFFF" d="M1.424,0c0.962,0,1.503,0.581,1.503,1.423c0,0.802-0.522,1.443-1.423,1.443C0.501,2.866,0,2.285,0,1.443
				C0,0.621,0.541,0,1.424,0z M6.596,0c0.962,0,1.503,0.581,1.503,1.423c0,0.802-0.522,1.443-1.424,1.443
				c-1.002,0-1.503-0.581-1.503-1.423C5.172,0.621,5.713,0,6.596,0z M11.608,0c0.962,0,1.503,0.581,1.503,1.423
				c0,0.802-0.522,1.443-1.423,1.443c-1.003,0-1.504-0.581-1.504-1.423C10.184,0.621,10.725,0,11.608,0z"/>
			<path fill="#FFFFFF" d="M17.498,0c0.962,0,1.503,0.581,1.503,1.423c0,0.802-0.522,1.443-1.423,1.443
				c-1.003,0-1.504-0.581-1.504-1.423C16.074,0.621,16.615,0,17.498,0z M22.67,0c0.962,0,1.503,0.581,1.503,1.423
				c0,0.802-0.522,1.443-1.424,1.443c-1.002,0-1.503-0.581-1.503-1.423C21.246,0.621,21.787,0,22.67,0z M27.682,0
				c0.962,0,1.503,0.581,1.503,1.423c0,0.802-0.522,1.443-1.423,1.443c-1.003,0-1.504-0.581-1.504-1.423
				C26.258,0.621,26.799,0,27.682,0z"/>
			<path fill="#FFFFFF" d="M33.571,0c0.962,0,1.503,0.581,1.503,1.423c0,0.802-0.521,1.443-1.423,1.443
				c-1.002,0-1.503-0.581-1.503-1.423C32.148,0.621,32.69,0,33.571,0z M38.743,0c0.962,0,1.503,0.581,1.503,1.423
				c0,0.802-0.521,1.443-1.423,1.443c-1.002,0-1.503-0.581-1.503-1.423C37.32,0.621,37.862,0,38.743,0z M43.755,0
				c0.962,0,1.503,0.581,1.503,1.423c0,0.802-0.521,1.443-1.423,1.443c-1.002,0-1.503-0.581-1.503-1.423
				C42.332,0.621,42.873,0,43.755,0z"/>
			<path fill="#FFFFFF" d="M49.645,0c0.962,0,1.503,0.581,1.503,1.423c0,0.802-0.522,1.443-1.423,1.443
				c-1.003,0-1.504-0.581-1.504-1.423C48.222,0.621,48.763,0,49.645,0z M54.818,0c0.962,0,1.503,0.581,1.503,1.423
				c0,0.802-0.522,1.443-1.424,1.443c-1.002,0-1.503-0.581-1.503-1.423C53.394,0.621,53.935,0,54.818,0z M59.829,0
				c0.962,0,1.503,0.581,1.503,1.423c0,0.802-0.522,1.443-1.423,1.443c-1.003,0-1.504-0.581-1.504-1.423
				C58.405,0.621,58.946,0,59.829,0z"/>
			<path fill="#FFFFFF" d="M65.72,0c0.962,0,1.503,0.581,1.503,1.423c0,0.802-0.522,1.443-1.423,1.443
				c-1.003,0-1.504-0.581-1.504-1.423C64.296,0.621,64.837,0,65.72,0z M70.892,0c0.962,0,1.503,0.581,1.503,1.423
				c0,0.802-0.522,1.443-1.424,1.443c-1.002,0-1.503-0.581-1.503-1.423C69.468,0.621,70.009,0,70.892,0z M75.903,0
				c0.962,0,1.503,0.581,1.503,1.423c0,0.802-0.522,1.443-1.423,1.443c-1.003,0-1.504-0.581-1.504-1.423
				C74.479,0.621,75.021,0,75.903,0z"/>
			<path fill="#FFFFFF" d="M81.794,0c0.962,0,1.503,0.581,1.503,1.423c0,0.802-0.522,1.443-1.423,1.443
				c-1.003,0-1.504-0.581-1.504-1.423C80.37,0.621,80.911,0,81.794,0z M86.966,0c0.962,0,1.503,0.581,1.503,1.423
				c0,0.802-0.522,1.443-1.424,1.443c-1.002,0-1.503-0.581-1.503-1.423C85.542,0.621,86.083,0,86.966,0z M91.978,0
				c0.962,0,1.503,0.581,1.503,1.423c0,0.802-0.522,1.443-1.423,1.443c-1.003,0-1.504-0.581-1.504-1.423
				C90.554,0.621,91.095,0,91.978,0z"/>
			<path fill="#FFFFFF" d="M97.867,0c0.962,0,1.503,0.581,1.503,1.423c0,0.802-0.521,1.443-1.423,1.443
				c-1.002,0-1.503-0.581-1.503-1.423C96.444,0.621,96.985,0,97.867,0z M103.039,0c0.962,0,1.503,0.581,1.503,1.423
				c0,0.802-0.521,1.443-1.423,1.443c-1.002,0-1.503-0.581-1.503-1.423C101.616,0.621,102.157,0,103.039,0z M108.051,0
				c0.962,0,1.503,0.581,1.503,1.423c0,0.802-0.521,1.443-1.423,1.443c-1.002,0-1.503-0.581-1.503-1.423
				C106.628,0.621,107.169,0,108.051,0z"/>
			<path fill="#FFFFFF" d="M113.941,0c0.962,0,1.503,0.581,1.503,1.423c0,0.802-0.522,1.443-1.423,1.443
				c-1.003,0-1.504-0.581-1.504-1.423C112.517,0.621,113.058,0,113.941,0z M119.113,0c0.962,0,1.503,0.581,1.503,1.423
				c0,0.802-0.522,1.443-1.424,1.443c-1.002,0-1.503-0.581-1.503-1.423C117.689,0.621,118.231,0,119.113,0z M124.125,0
				c0.962,0,1.503,0.581,1.503,1.423c0,0.802-0.522,1.443-1.423,1.443c-1.003,0-1.504-0.581-1.504-1.423
				C122.701,0.621,123.242,0,124.125,0z"/>
			<path fill="#FFFFFF" d="M130.015,0c0.962,0,1.503,0.581,1.503,1.423c0,0.802-0.522,1.443-1.423,1.443
				c-1.003,0-1.504-0.581-1.504-1.423C128.591,0.621,129.133,0,130.015,0z M135.188,0c0.962,0,1.503,0.581,1.503,1.423
				c0,0.802-0.522,1.443-1.424,1.443c-1.002,0-1.503-0.581-1.503-1.423C133.764,0.621,134.305,0,135.188,0z M140.199,0
				c0.962,0,1.503,0.581,1.503,1.423c0,0.802-0.522,1.443-1.423,1.443c-1.003,0-1.504-0.581-1.504-1.423
				C138.775,0.621,139.316,0,140.199,0z"/>
			<path fill="#FFFFFF" d="M146.09,0c0.962,0,1.503,0.581,1.503,1.423c0,0.802-0.522,1.443-1.423,1.443
				c-1.003,0-1.504-0.581-1.504-1.423C144.666,0.621,145.207,0,146.09,0z M151.262,0c0.962,0,1.503,0.581,1.503,1.423
				c0,0.802-0.522,1.443-1.424,1.443c-1.002,0-1.503-0.581-1.503-1.423C149.838,0.621,150.379,0,151.262,0z M156.273,0
				c0.962,0,1.503,0.581,1.503,1.423c0,0.802-0.522,1.443-1.423,1.443c-1.003,0-1.504-0.581-1.504-1.423
				C154.849,0.621,155.391,0,156.273,0z"/>
			<path fill="#FFFFFF" d="M162.163,0c0.962,0,1.503,0.581,1.503,1.423c0,0.802-0.521,1.443-1.423,1.443
				c-1.002,0-1.503-0.581-1.503-1.423C160.74,0.621,161.281,0,162.163,0z M167.335,0c0.962,0,1.503,0.581,1.503,1.423
				c0,0.802-0.521,1.443-1.423,1.443c-1.002,0-1.503-0.581-1.503-1.423C165.912,0.621,166.453,0,167.335,0z M172.346,0
				c0.962,0,1.503,0.581,1.503,1.423c0,0.802-0.521,1.443-1.423,1.443c-1.002,0-1.503-0.581-1.503-1.423
				C170.924,0.621,171.465,0,172.346,0z"/>
			<path fill="#FFFFFF" d="M178.237,0c0.962,0,1.503,0.581,1.503,1.423c0,0.802-0.522,1.443-1.423,1.443
				c-1.003,0-1.504-0.581-1.504-1.423C176.813,0.621,177.354,0,178.237,0z M183.409,0c0.962,0,1.503,0.581,1.503,1.423
				c0,0.802-0.522,1.443-1.424,1.443c-1.002,0-1.503-0.581-1.503-1.423C181.985,0.621,182.526,0,183.409,0z M188.421,0
				c0.962,0,1.503,0.581,1.503,1.423c0,0.802-0.522,1.443-1.423,1.443c-1.003,0-1.504-0.581-1.504-1.423
				C186.997,0.621,187.538,0,188.421,0z"/>
		</g>
		<g>
			<path fill="#FFFFFF" d="M194.313,0c0.962,0,1.503,0.581,1.503,1.423c0,0.802-0.521,1.443-1.423,1.443
				c-1.002,0-1.503-0.581-1.503-1.423C192.89,0.621,193.431,0,194.313,0z M199.485,0c0.962,0,1.503,0.581,1.503,1.423
				c0,0.802-0.521,1.443-1.423,1.443c-1.002,0-1.503-0.581-1.503-1.423C198.062,0.621,198.603,0,199.485,0z M204.497,0
				C205.459,0,206,0.581,206,1.423c0,0.802-0.521,1.443-1.423,1.443c-1.002,0-1.503-0.581-1.503-1.423
				C203.074,0.621,203.615,0,204.497,0z"/>
		</g>
	</g>
	<g>
		<g>
			<path fill="#FFFFFF" d="M1.424,70.134c0.962,0,1.503,0.581,1.503,1.423C2.927,72.359,2.405,73,1.504,73
				C0.501,73,0,72.419,0,71.577C0,70.755,0.541,70.134,1.424,70.134z M6.596,70.134c0.962,0,1.503,0.581,1.503,1.423
				C8.099,72.359,7.578,73,6.675,73c-1.002,0-1.503-0.581-1.503-1.423C5.172,70.755,5.713,70.134,6.596,70.134z M11.608,70.134
				c0.962,0,1.503,0.581,1.503,1.423c0,0.802-0.522,1.443-1.423,1.443c-1.003,0-1.504-0.581-1.504-1.423
				C10.184,70.755,10.725,70.134,11.608,70.134z"/>
			<path fill="#FFFFFF" d="M17.498,70.134c0.962,0,1.503,0.581,1.503,1.423c0,0.802-0.522,1.443-1.423,1.443
				c-1.003,0-1.504-0.581-1.504-1.423C16.074,70.755,16.615,70.134,17.498,70.134z M22.67,70.134c0.962,0,1.503,0.581,1.503,1.423
				c0,0.802-0.522,1.443-1.424,1.443c-1.002,0-1.503-0.581-1.503-1.423C21.246,70.755,21.787,70.134,22.67,70.134z M27.682,70.134
				c0.962,0,1.503,0.581,1.503,1.423c0,0.802-0.522,1.443-1.423,1.443c-1.003,0-1.504-0.581-1.504-1.423
				C26.258,70.755,26.799,70.134,27.682,70.134z"/>
			<path fill="#FFFFFF" d="M33.571,70.134c0.962,0,1.503,0.581,1.503,1.423c0,0.802-0.521,1.443-1.423,1.443
				c-1.002,0-1.503-0.581-1.503-1.423C32.148,70.755,32.69,70.134,33.571,70.134z M38.743,70.134c0.962,0,1.503,0.581,1.503,1.423
				c0,0.802-0.521,1.443-1.423,1.443c-1.002,0-1.503-0.581-1.503-1.423C37.32,70.755,37.862,70.134,38.743,70.134z M43.755,70.134
				c0.962,0,1.503,0.581,1.503,1.423c0,0.802-0.521,1.443-1.423,1.443c-1.002,0-1.503-0.581-1.503-1.423
				C42.332,70.755,42.873,70.134,43.755,70.134z"/>
			<path fill="#FFFFFF" d="M49.645,70.134c0.962,0,1.503,0.581,1.503,1.423c0,0.802-0.522,1.443-1.423,1.443
				c-1.003,0-1.504-0.581-1.504-1.423C48.222,70.755,48.763,70.134,49.645,70.134z M54.818,70.134c0.962,0,1.503,0.581,1.503,1.423
				c0,0.802-0.522,1.443-1.424,1.443c-1.002,0-1.503-0.581-1.503-1.423C53.394,70.755,53.935,70.134,54.818,70.134z M59.829,70.134
				c0.962,0,1.503,0.581,1.503,1.423c0,0.802-0.522,1.443-1.423,1.443c-1.003,0-1.504-0.581-1.504-1.423
				C58.405,70.755,58.946,70.134,59.829,70.134z"/>
			<path fill="#FFFFFF" d="M65.72,70.134c0.962,0,1.503,0.581,1.503,1.423c0,0.802-0.522,1.443-1.423,1.443
				c-1.003,0-1.504-0.581-1.504-1.423C64.296,70.755,64.837,70.134,65.72,70.134z M70.892,70.134c0.962,0,1.503,0.581,1.503,1.423
				c0,0.802-0.522,1.443-1.424,1.443c-1.002,0-1.503-0.581-1.503-1.423C69.468,70.755,70.009,70.134,70.892,70.134z M75.903,70.134
				c0.962,0,1.503,0.581,1.503,1.423c0,0.802-0.522,1.443-1.423,1.443c-1.003,0-1.504-0.581-1.504-1.423
				C74.479,70.755,75.021,70.134,75.903,70.134z"/>
			<path fill="#FFFFFF" d="M81.794,70.134c0.962,0,1.503,0.581,1.503,1.423c0,0.802-0.522,1.443-1.423,1.443
				c-1.003,0-1.504-0.581-1.504-1.423C80.37,70.755,80.911,70.134,81.794,70.134z M86.966,70.134c0.962,0,1.503,0.581,1.503,1.423
				c0,0.802-0.522,1.443-1.424,1.443c-1.002,0-1.503-0.581-1.503-1.423C85.542,70.755,86.083,70.134,86.966,70.134z M91.978,70.134
				c0.962,0,1.503,0.581,1.503,1.423c0,0.802-0.522,1.443-1.423,1.443c-1.003,0-1.504-0.581-1.504-1.423
				C90.554,70.755,91.095,70.134,91.978,70.134z"/>
			<path fill="#FFFFFF" d="M97.867,70.134c0.962,0,1.503,0.581,1.503,1.423c0,0.802-0.521,1.443-1.423,1.443
				c-1.002,0-1.503-0.581-1.503-1.423C96.444,70.755,96.985,70.134,97.867,70.134z M103.039,70.134c0.962,0,1.503,0.581,1.503,1.423
				c0,0.802-0.521,1.443-1.423,1.443c-1.002,0-1.503-0.581-1.503-1.423C101.616,70.755,102.157,70.134,103.039,70.134z
				 M108.051,70.134c0.962,0,1.503,0.581,1.503,1.423c0,0.802-0.521,1.443-1.423,1.443c-1.002,0-1.503-0.581-1.503-1.423
				C106.628,70.755,107.169,70.134,108.051,70.134z"/>
			<path fill="#FFFFFF" d="M113.941,70.134c0.962,0,1.503,0.581,1.503,1.423c0,0.802-0.522,1.443-1.423,1.443
				c-1.003,0-1.504-0.581-1.504-1.423C112.517,70.755,113.058,70.134,113.941,70.134z M119.113,70.134
				c0.962,0,1.503,0.581,1.503,1.423c0,0.802-0.522,1.443-1.424,1.443c-1.002,0-1.503-0.581-1.503-1.423
				C117.689,70.755,118.231,70.134,119.113,70.134z M124.125,70.134c0.962,0,1.503,0.581,1.503,1.423
				c0,0.802-0.522,1.443-1.423,1.443c-1.003,0-1.504-0.581-1.504-1.423C122.701,70.755,123.242,70.134,124.125,70.134z"/>
			<path fill="#FFFFFF" d="M130.015,70.134c0.962,0,1.503,0.581,1.503,1.423c0,0.802-0.522,1.443-1.423,1.443
				c-1.003,0-1.504-0.581-1.504-1.423C128.591,70.755,129.133,70.134,130.015,70.134z M135.188,70.134
				c0.962,0,1.503,0.581,1.503,1.423c0,0.802-0.522,1.443-1.424,1.443c-1.002,0-1.503-0.581-1.503-1.423
				C133.764,70.755,134.305,70.134,135.188,70.134z M140.199,70.134c0.962,0,1.503,0.581,1.503,1.423
				c0,0.802-0.522,1.443-1.423,1.443c-1.003,0-1.504-0.581-1.504-1.423C138.775,70.755,139.316,70.134,140.199,70.134z"/>
			<path fill="#FFFFFF" d="M146.09,70.134c0.962,0,1.503,0.581,1.503,1.423c0,0.802-0.522,1.443-1.423,1.443
				c-1.003,0-1.504-0.581-1.504-1.423C144.666,70.755,145.207,70.134,146.09,70.134z M151.262,70.134
				c0.962,0,1.503,0.581,1.503,1.423c0,0.802-0.522,1.443-1.424,1.443c-1.002,0-1.503-0.581-1.503-1.423
				C149.838,70.755,150.379,70.134,151.262,70.134z M156.273,70.134c0.962,0,1.503,0.581,1.503,1.423
				c0,0.802-0.522,1.443-1.423,1.443c-1.003,0-1.504-0.581-1.504-1.423C154.849,70.755,155.391,70.134,156.273,70.134z"/>
			<path fill="#FFFFFF" d="M162.163,70.134c0.962,0,1.503,0.581,1.503,1.423c0,0.802-0.521,1.443-1.423,1.443
				c-1.002,0-1.503-0.581-1.503-1.423C160.74,70.755,161.281,70.134,162.163,70.134z M167.335,70.134
				c0.962,0,1.503,0.581,1.503,1.423c0,0.802-0.521,1.443-1.423,1.443c-1.002,0-1.503-0.581-1.503-1.423
				C165.912,70.755,166.453,70.134,167.335,70.134z M172.346,70.134c0.962,0,1.503,0.581,1.503,1.423
				c0,0.802-0.521,1.443-1.423,1.443c-1.002,0-1.503-0.581-1.503-1.423C170.924,70.755,171.465,70.134,172.346,70.134z"/>
			<path fill="#FFFFFF" d="M178.237,70.134c0.962,0,1.503,0.581,1.503,1.423c0,0.802-0.522,1.443-1.423,1.443
				c-1.003,0-1.504-0.581-1.504-1.423C176.813,70.755,177.354,70.134,178.237,70.134z M183.409,70.134
				c0.962,0,1.503,0.581,1.503,1.423c0,0.802-0.522,1.443-1.424,1.443c-1.002,0-1.503-0.581-1.503-1.423
				C181.985,70.755,182.526,70.134,183.409,70.134z M188.421,70.134c0.962,0,1.503,0.581,1.503,1.423
				c0,0.802-0.522,1.443-1.423,1.443c-1.003,0-1.504-0.581-1.504-1.423C186.997,70.755,187.538,70.134,188.421,70.134z"/>
		</g>
		<g>
			<path fill="#FFFFFF" d="M194.313,70.134c0.962,0,1.503,0.581,1.503,1.423c0,0.802-0.521,1.443-1.423,1.443
				c-1.002,0-1.503-0.581-1.503-1.423C192.89,70.755,193.431,70.134,194.313,70.134z M199.485,70.134
				c0.962,0,1.503,0.581,1.503,1.423c0,0.802-0.521,1.443-1.423,1.443c-1.002,0-1.503-0.581-1.503-1.423
				C198.062,70.755,198.603,70.134,199.485,70.134z M204.497,70.134c0.962,0,1.503,0.581,1.503,1.423
				c0,0.802-0.521,1.443-1.423,1.443c-1.002,0-1.503-0.581-1.503-1.423C203.074,70.755,203.615,70.134,204.497,70.134z"/>
		</g>
	</g>
</g>
<g>
	<path fill="#FFFFFF" d="M60.953,26.844c0,0.336,0,0.672,0,1.008c0,0.984-0.042,2.232-0.126,3.744
		c-0.084,1.512-0.247,3.114-0.486,4.806c-0.24,1.692-0.582,3.396-1.026,5.112c-0.444,1.716-1.021,3.258-1.728,4.626
		c-0.708,1.368-1.561,2.478-2.556,3.33c-0.996,0.852-2.19,1.278-3.582,1.278c-0.745,0-1.386-0.132-1.926-0.396
		s-1.05-0.672-1.53-1.224c-0.192-0.192-0.36-0.409-0.504-0.648c-0.144-0.24-0.228-0.504-0.252-0.792
		c0.144-0.264,0.324-0.396,0.54-0.396c0.216,0,0.426,0.108,0.63,0.324s0.432,0.45,0.684,0.702s0.546,0.486,0.882,0.702
		c0.335,0.216,0.756,0.324,1.26,0.324c0.912,0,1.698-0.408,2.358-1.224c0.66-0.815,1.224-1.859,1.692-3.132
		c0.468-1.272,0.846-2.688,1.134-4.248c0.288-1.56,0.51-3.09,0.666-4.59c0.156-1.5,0.264-2.88,0.324-4.14s0.09-2.214,0.09-2.862
		c0-0.48-0.006-0.966-0.018-1.458c-0.012-0.492-0.054-0.978-0.126-1.458c-1.152,0.168-2.298,0.294-3.438,0.378
		c-1.14,0.084-2.286,0.222-3.438,0.414c-0.216,0.024-0.552,0.078-1.008,0.162c-0.456,0.084-0.912,0.198-1.368,0.342
		c-0.456,0.144-0.852,0.324-1.188,0.54c-0.336,0.216-0.504,0.48-0.504,0.792c0,0.576,0.102,1.104,0.306,1.584
		c0.204,0.48,0.432,0.906,0.684,1.278c0.252,0.373,0.48,0.684,0.684,0.936c0.204,0.252,0.306,0.45,0.306,0.594
		c0,0.168-0.084,0.3-0.252,0.396h-0.216c-0.264,0-0.504-0.072-0.72-0.216c-0.36-0.24-0.702-0.54-1.026-0.9
		c-0.324-0.36-0.612-0.756-0.864-1.188s-0.45-0.876-0.594-1.332c-0.144-0.456-0.216-0.9-0.216-1.332c0-0.744,0.228-1.344,0.684-1.8
		c0.456-0.456,1.008-0.822,1.656-1.098c0.648-0.275,1.332-0.486,2.052-0.63c0.72-0.144,1.355-0.252,1.908-0.324
		c1.056-0.144,2.124-0.27,3.204-0.378s2.16-0.216,3.24-0.324c1.08-0.108,2.16-0.246,3.24-0.414s2.136-0.384,3.168-0.648
		c0.168-0.048,0.372-0.114,0.612-0.198c0.239-0.084,0.486-0.174,0.738-0.27c0.252-0.096,0.492-0.174,0.72-0.234
		c0.228-0.06,0.414-0.09,0.558-0.09c0.264,0,0.42,0.138,0.468,0.414c0.048,0.276,0.072,0.51,0.072,0.702
		c0,0.288-0.054,0.517-0.162,0.684c-0.108,0.168-0.283,0.324-0.522,0.468c-0.265,0.144-0.625,0.276-1.08,0.396
		c-0.457,0.121-0.936,0.229-1.44,0.324c-0.504,0.096-1.002,0.186-1.494,0.27c-0.492,0.084-0.906,0.186-1.242,0.306
		C60.929,26.172,60.953,26.508,60.953,26.844z"/>
	<path fill="#FFFFFF" d="M66.263,41.424c0.3-1.104,0.738-2.136,1.314-3.096c0.576-0.959,1.278-1.77,2.106-2.43
		s1.782-0.99,2.862-0.99c0.672,0,1.224,0.156,1.656,0.468s0.774,0.708,1.026,1.188s0.432,1.008,0.54,1.584
		c0.108,0.576,0.162,1.14,0.162,1.692c0,0.792-0.072,1.59-0.216,2.394c-0.144,0.804-0.372,1.578-0.684,2.322
		c-0.312,0.744-0.708,1.44-1.188,2.088c-0.48,0.648-1.068,1.201-1.764,1.656c-0.408,0.264-0.852,0.486-1.332,0.666
		c-0.48,0.18-0.972,0.27-1.476,0.27c-0.648,0-1.194-0.15-1.638-0.45c-0.444-0.3-0.798-0.678-1.062-1.134
		c-0.264-0.456-0.456-0.972-0.576-1.548c-0.121-0.576-0.18-1.127-0.18-1.656C65.812,43.536,65.962,42.528,66.263,41.424z
		 M70.763,38.112c-0.517,0.552-0.948,1.212-1.296,1.98c-0.348,0.769-0.612,1.561-0.792,2.376c-0.18,0.816-0.27,1.5-0.27,2.052
		c0,0.288,0.023,0.606,0.072,0.954c0.048,0.348,0.138,0.666,0.27,0.954c0.132,0.288,0.318,0.534,0.558,0.738
		c0.24,0.205,0.54,0.306,0.9,0.306c0.312,0,0.606-0.066,0.882-0.198s0.534-0.294,0.774-0.486c0.456-0.36,0.846-0.786,1.17-1.278
		c0.324-0.492,0.588-1.014,0.792-1.566c0.204-0.552,0.354-1.122,0.45-1.71c0.096-0.588,0.144-1.158,0.144-1.71
		c0-0.288-0.024-0.624-0.072-1.008c-0.048-0.383-0.144-0.738-0.288-1.062c-0.144-0.324-0.336-0.6-0.576-0.828
		c-0.24-0.228-0.552-0.342-0.936-0.342C71.873,37.284,71.278,37.56,70.763,38.112z"/>
	<path fill="#FFFFFF" d="M92.92,36.744c0.288,0.696,0.624,1.392,1.008,2.088c0.384,0.697,0.756,1.398,1.116,2.106
		c0.36,0.708,0.66,1.434,0.9,2.178c0.239,0.744,0.36,1.5,0.36,2.268c0,0.48-0.066,0.96-0.198,1.44
		c-0.132,0.48-0.342,0.924-0.63,1.332c0.432,0.024,0.936-0.162,1.512-0.558c0.576-0.396,1.152-0.864,1.728-1.404
		c0.576-0.54,1.104-1.092,1.584-1.656c0.479-0.563,0.828-1.014,1.044-1.35c0.12-0.168,0.264-0.366,0.432-0.594
		c0.167-0.228,0.372-0.342,0.612-0.342c0.216,0,0.36,0.072,0.432,0.216c0.072,0.144,0.108,0.312,0.108,0.504
		c0,0.121-0.042,0.247-0.126,0.378c-0.084,0.132-0.15,0.258-0.198,0.378c-0.672,1.057-1.38,2.004-2.124,2.844
		c-0.744,0.84-1.554,1.548-2.43,2.124c-0.876,0.576-1.849,1.014-2.916,1.314c-1.068,0.3-2.25,0.45-3.546,0.45
		c-0.697,0-1.446-0.072-2.25-0.216c-0.805-0.144-1.471-0.468-1.998-0.972c-0.121-0.121-0.216-0.24-0.288-0.36
		c-0.072-0.12-0.108-0.264-0.108-0.432c0-0.36,0.192-0.54,0.576-0.54c0.144,0,0.258,0.024,0.342,0.072
		c0.083,0.048,0.186,0.108,0.306,0.18c0.408,0.264,0.816,0.444,1.224,0.54c0.408,0.095,0.852,0.144,1.332,0.144
		c0.959,0,1.686-0.294,2.178-0.882c0.491-0.588,0.738-1.337,0.738-2.25c0-0.552-0.078-1.14-0.234-1.764
		c-0.156-0.624-0.354-1.248-0.594-1.872c-0.24-0.624-0.51-1.23-0.81-1.818c-0.3-0.587-0.594-1.098-0.882-1.53
		c-0.168,0.48-0.378,1.014-0.63,1.602c-0.252,0.588-0.535,1.17-0.846,1.746c-0.312,0.576-0.642,1.128-0.99,1.656
		c-0.348,0.528-0.702,0.972-1.062,1.332c-0.121,0.121-0.258,0.247-0.414,0.378c-0.156,0.132-0.33,0.198-0.522,0.198
		c-0.336,0-0.504-0.168-0.504-0.504c0-0.192,0.042-0.36,0.126-0.504s0.186-0.288,0.306-0.432c1.632-2.04,2.856-4.332,3.672-6.876
		c-0.216-0.624-0.324-1.26-0.324-1.908c0-0.36,0.06-0.78,0.18-1.26c0.12-0.48,0.288-0.936,0.504-1.368s0.492-0.804,0.828-1.116
		c0.335-0.312,0.72-0.468,1.152-0.468c0.216,0,0.401,0.066,0.558,0.198c0.156,0.132,0.275,0.301,0.36,0.504
		c0.084,0.204,0.144,0.414,0.18,0.63c0.036,0.216,0.054,0.42,0.054,0.612c0,0.6-0.084,1.206-0.252,1.818
		C93.329,35.61,93.137,36.192,92.92,36.744z"/>
	<path fill="#FFFFFF" d="M111.641,36.672c-0.456,0.504-0.948,1.152-1.476,1.944c-0.528,0.792-1.08,1.662-1.656,2.61
		c-0.576,0.949-1.111,1.867-1.602,2.754c-0.492,0.888-0.924,1.686-1.296,2.394c-0.372,0.708-0.63,1.219-0.774,1.53
		c-0.096,0.216-0.21,0.444-0.342,0.684c-0.132,0.239-0.276,0.468-0.432,0.684c-0.156,0.216-0.342,0.396-0.558,0.54
		c-0.216,0.144-0.456,0.216-0.72,0.216c-0.265,0-0.474-0.078-0.63-0.234c-0.157-0.157-0.283-0.342-0.378-0.558
		c-0.096-0.216-0.156-0.45-0.18-0.702c-0.024-0.252-0.036-0.474-0.036-0.666c0-0.624,0.048-1.242,0.144-1.854
		c0.096-0.612,0.18-1.229,0.252-1.854c0.144-1.152,0.282-2.292,0.414-3.42c0.131-1.128,0.258-2.268,0.378-3.42
		c0.144-1.296,0.318-2.76,0.522-4.392c0.204-1.632,0.45-3.282,0.738-4.95c0.288-1.667,0.635-3.276,1.044-4.824
		c0.408-1.548,0.9-2.886,1.476-4.014c0.144-0.288,0.318-0.576,0.522-0.864c0.204-0.288,0.432-0.558,0.684-0.81
		s0.534-0.456,0.846-0.612c0.312-0.156,0.636-0.234,0.972-0.234c0.408,0,0.738,0.121,0.99,0.36s0.45,0.534,0.594,0.882
		c0.144,0.348,0.239,0.72,0.288,1.116c0.048,0.396,0.072,0.738,0.072,1.026c0,2.688-0.402,5.304-1.206,7.848
		c-0.804,2.544-1.806,5.004-3.006,7.38c-0.288,0.576-0.588,1.14-0.9,1.692c-0.312,0.552-0.612,1.104-0.9,1.656
		c-0.072,0.144-0.162,0.486-0.27,1.026c-0.108,0.54-0.216,1.134-0.324,1.782s-0.204,1.266-0.288,1.854
		c-0.084,0.588-0.15,1.002-0.198,1.242c0.216-0.48,0.516-1.074,0.9-1.782c0.383-0.708,0.815-1.463,1.296-2.268
		c0.48-0.804,1.002-1.602,1.566-2.394c0.563-0.792,1.14-1.512,1.728-2.16c0.588-0.648,1.188-1.17,1.8-1.566
		c0.612-0.396,1.194-0.594,1.746-0.594c0.408,0,0.744,0.108,1.008,0.324c0.264,0.216,0.474,0.486,0.63,0.81
		c0.156,0.324,0.264,0.672,0.324,1.044s0.09,0.726,0.09,1.062c0,1.512-0.114,3.018-0.342,4.518c-0.228,1.5-0.342,3.006-0.342,4.518
		c0,0.168,0.005,0.348,0.018,0.54c0.012,0.192,0.048,0.366,0.108,0.522c0.06,0.157,0.156,0.288,0.288,0.396
		c0.131,0.108,0.318,0.162,0.558,0.162c0.504,0,1.038-0.204,1.602-0.612s1.11-0.888,1.638-1.44c0.528-0.552,1.02-1.128,1.476-1.728
		c0.456-0.6,0.804-1.092,1.044-1.476c0.096-0.144,0.222-0.33,0.378-0.558c0.156-0.228,0.342-0.342,0.558-0.342
		s0.36,0.072,0.432,0.216c0.072,0.144,0.108,0.312,0.108,0.504c0,0.121-0.024,0.222-0.072,0.306
		c-0.048,0.084-0.096,0.174-0.144,0.27c-0.36,0.696-0.841,1.452-1.44,2.268c-0.6,0.816-1.272,1.578-2.016,2.286
		c-0.744,0.708-1.542,1.296-2.394,1.764c-0.853,0.468-1.698,0.702-2.538,0.702c-0.504,0-0.882-0.192-1.134-0.576
		c-0.252-0.384-0.438-0.84-0.558-1.368c-0.121-0.527-0.187-1.074-0.198-1.638c-0.012-0.563-0.018-1.014-0.018-1.35
		c0-1.296,0.066-2.592,0.198-3.888c0.131-1.296,0.257-2.592,0.378-3.888V36.78c0-0.12-0.012-0.293-0.036-0.522
		c-0.024-0.228-0.132-0.342-0.324-0.342C112.456,35.916,112.096,36.168,111.641,36.672z M108.635,19.536
		c-0.349,0.72-0.684,1.645-1.008,2.772c-0.324,1.128-0.625,2.371-0.9,3.726c-0.276,1.356-0.517,2.664-0.72,3.924
		c-0.204,1.26-0.372,2.389-0.504,3.384c-0.132,0.996-0.21,1.698-0.234,2.106c0.552-0.984,1.116-2.124,1.692-3.42
		c0.576-1.296,1.098-2.64,1.566-4.032c0.468-1.392,0.858-2.772,1.17-4.14c0.312-1.368,0.468-2.604,0.468-3.708
		c0-0.072,0-0.204,0-0.396c0-0.192-0.018-0.384-0.054-0.576c-0.036-0.192-0.078-0.36-0.126-0.504
		c-0.048-0.144-0.132-0.216-0.252-0.216C109.348,18.456,108.982,18.816,108.635,19.536z"/>
	<path fill="#FFFFFF" d="M137.578,43.476c-0.204,0.288-0.366,0.528-0.486,0.72c-0.336,0.456-0.745,0.984-1.224,1.584
		c-0.48,0.6-1.002,1.165-1.566,1.692c-0.564,0.528-1.165,0.972-1.8,1.332c-0.636,0.36-1.266,0.54-1.89,0.54
		c-0.6,0-1.08-0.21-1.44-0.63c-0.36-0.42-0.636-0.924-0.828-1.512c-0.192-0.588-0.312-1.2-0.36-1.836
		c-0.048-0.636-0.06-1.17-0.036-1.602c-0.24,0.36-0.546,0.81-0.918,1.35c-0.373,0.54-0.787,1.062-1.242,1.566
		c-0.456,0.504-0.93,0.936-1.422,1.296c-0.492,0.36-0.979,0.54-1.458,0.54c-0.432,0-0.792-0.131-1.08-0.396
		c-0.288-0.264-0.51-0.588-0.666-0.972c-0.156-0.384-0.265-0.792-0.324-1.224c-0.06-0.432-0.09-0.816-0.09-1.152
		c0-0.936,0.228-2.004,0.684-3.204c0.456-1.2,1.062-2.334,1.818-3.402c0.756-1.067,1.62-1.962,2.592-2.682
		c0.972-0.72,1.985-1.08,3.042-1.08c0.264,0,0.527,0.12,0.792,0.36c0.264,0.24,0.396,0.492,0.396,0.756
		c0,0.121-0.036,0.21-0.108,0.27c-0.072,0.061-0.156,0.114-0.252,0.162c-0.648,0.384-1.266,0.787-1.854,1.206
		c-0.588,0.42-1.146,0.906-1.674,1.458c-0.936,0.96-1.68,2.034-2.232,3.222c-0.552,1.188-0.828,2.466-0.828,3.834
		c0,0.144,0.023,0.324,0.072,0.54c0.047,0.216,0.18,0.324,0.396,0.324c0.264,0,0.563-0.162,0.9-0.486
		c0.335-0.324,0.684-0.732,1.044-1.224c0.36-0.492,0.714-1.044,1.062-1.656c0.348-0.612,0.678-1.206,0.99-1.782
		s0.582-1.11,0.81-1.602c0.228-0.492,0.402-0.858,0.522-1.098c0.12-0.264,0.27-0.51,0.45-0.738c0.18-0.228,0.438-0.342,0.774-0.342
		c0.192,0,0.378,0.036,0.558,0.108c0.18,0.072,0.27,0.229,0.27,0.468c0,0.265-0.084,0.612-0.252,1.044
		c-0.168,0.432-0.301,0.78-0.396,1.044c-0.192,0.624-0.331,1.29-0.414,1.998c-0.084,0.708-0.126,1.375-0.126,1.998
		c0,0.192,0.005,0.48,0.018,0.864c0.012,0.384,0.054,0.774,0.126,1.17c0.072,0.396,0.186,0.744,0.342,1.044
		c0.156,0.3,0.378,0.45,0.666,0.45c0.432,0,0.912-0.192,1.44-0.576c0.528-0.384,1.044-0.833,1.548-1.35
		c0.504-0.516,0.972-1.049,1.404-1.602c0.432-0.552,0.756-0.996,0.972-1.332c0.12-0.191,0.252-0.39,0.396-0.594
		c0.144-0.204,0.347-0.306,0.612-0.306c0.384,0,0.576,0.229,0.576,0.684C137.884,42.936,137.782,43.188,137.578,43.476z"/>
	<path fill="#FFFFFF" d="M141.286,39.48c-0.444-0.36-0.93-0.624-1.458-0.792c-0.192,0.528-0.402,1.08-0.63,1.656
		c-0.229,0.576-0.486,1.152-0.774,1.728s-0.6,1.128-0.936,1.656c-0.336,0.528-0.708,0.997-1.116,1.404
		c-0.12,0.12-0.264,0.24-0.432,0.36c-0.168,0.121-0.348,0.18-0.54,0.18c-0.312,0-0.468-0.156-0.468-0.468
		c0-0.144,0.031-0.282,0.09-0.414c0.06-0.131,0.138-0.257,0.234-0.378c0.696-1.008,1.35-2.04,1.962-3.096s0.99-2.196,1.134-3.42
		c-0.336-0.432-0.576-0.906-0.72-1.422c-0.144-0.516-0.216-1.049-0.216-1.602c0-0.288,0.042-0.66,0.126-1.116
		c0.083-0.456,0.216-0.9,0.396-1.332c0.18-0.432,0.401-0.804,0.666-1.116c0.264-0.312,0.576-0.468,0.936-0.468
		c0.264,0,0.468,0.114,0.612,0.342c0.144,0.229,0.264,0.492,0.36,0.792c0.096,0.3,0.156,0.606,0.18,0.918
		c0.023,0.312,0.036,0.564,0.036,0.756c0,0.576-0.036,1.152-0.108,1.728c0.288,0.432,0.672,0.786,1.152,1.062
		c0.479,0.276,0.954,0.576,1.422,0.9c0.468,0.324,0.87,0.72,1.206,1.188c0.336,0.468,0.504,1.098,0.504,1.89
		c0,0.409-0.06,0.876-0.18,1.404c-0.192,0.84-0.36,1.68-0.504,2.52c-0.144,0.84-0.216,1.692-0.216,2.556
		c0,0.24,0.03,0.522,0.09,0.846c0.06,0.324,0.258,0.486,0.594,0.486c0.408,0,0.882-0.204,1.422-0.612
		c0.54-0.408,1.074-0.888,1.602-1.44c0.527-0.552,1.02-1.11,1.476-1.674c0.456-0.564,0.792-1.014,1.008-1.35
		c0.12-0.167,0.258-0.354,0.414-0.558c0.156-0.204,0.342-0.306,0.558-0.306c0.216,0,0.354,0.078,0.414,0.234
		c0.06,0.156,0.09,0.33,0.09,0.522c0,0.144-0.03,0.276-0.09,0.396c-0.061,0.12-0.126,0.24-0.198,0.36
		c-0.288,0.456-0.714,1.032-1.278,1.728c-0.564,0.696-1.176,1.367-1.836,2.013c-0.661,0.646-1.345,1.197-2.052,1.656
		c-0.708,0.458-1.35,0.687-1.926,0.687c-0.601,0-1.068-0.182-1.404-0.546c-0.336-0.364-0.588-0.802-0.756-1.314
		c-0.168-0.512-0.27-1.056-0.306-1.632c-0.036-0.576-0.054-1.08-0.054-1.512c0-0.672,0.03-1.332,0.09-1.98
		c0.06-0.648,0.09-1.308,0.09-1.98C141.952,40.32,141.729,39.84,141.286,39.48z"/>
	<path fill="#FFFFFF" d="M152.428,48.606c-0.504-0.276-0.918-0.636-1.242-1.08c-0.324-0.444-0.558-0.96-0.702-1.548
		c-0.144-0.587-0.216-1.206-0.216-1.854c0-0.815,0.156-1.8,0.468-2.952c0.312-1.152,0.756-2.262,1.332-3.33
		c0.576-1.068,1.266-1.974,2.07-2.718c0.804-0.743,1.686-1.116,2.646-1.116c0.648,0,1.146,0.205,1.494,0.614
		c0.348,0.409,0.522,0.926,0.522,1.552c0,0.602-0.186,1.27-0.558,2.004s-0.84,1.444-1.404,2.129
		c-0.564,0.686-1.17,1.294-1.818,1.823c-0.648,0.53-1.249,0.89-1.8,1.083c-0.12,0.554-0.18,1.059-0.18,1.516
		c0,0.818,0.18,1.462,0.54,1.932c0.36,0.469,0.959,0.704,1.8,0.704c0.768,0,1.488-0.149,2.16-0.45
		c0.671-0.3,1.296-0.684,1.872-1.152c0.576-0.468,1.104-1.002,1.584-1.602c0.48-0.6,0.9-1.2,1.26-1.8
		c0.12-0.192,0.264-0.396,0.432-0.612c0.167-0.216,0.383-0.324,0.648-0.324c0.12,0,0.234,0.036,0.342,0.108s0.162,0.168,0.162,0.288
		c0,0.24-0.024,0.432-0.072,0.576c-0.049,0.144-0.132,0.312-0.252,0.504c-0.456,0.816-1.014,1.596-1.674,2.34
		c-0.66,0.744-1.386,1.396-2.178,1.955s-1.645,1.003-2.556,1.332c-0.913,0.329-1.86,0.493-2.844,0.493
		C153.544,49.02,152.932,48.881,152.428,48.606z M155.524,36.442c-0.36,0.519-0.696,1.123-1.008,1.811
		c-0.312,0.688-0.576,1.376-0.792,2.064c-0.216,0.688-0.348,1.188-0.396,1.502c0.384-0.241,0.804-0.562,1.26-0.959
		c0.456-0.398,0.876-0.845,1.26-1.34c0.384-0.495,0.708-1.001,0.972-1.521c0.264-0.519,0.396-1.02,0.396-1.502
		c0-0.193-0.042-0.38-0.126-0.561c-0.084-0.181-0.247-0.272-0.486-0.272C156.244,35.664,155.884,35.924,155.524,36.442z"/>
</g>
</svg>
