<svg xmlns="http://www.w3.org/2000/svg" version="1.1" x="0" y="0" width="41" height="41" viewBox="-379 215 41 41" xml:space="preserve"><style type="text/css">
	.st0{fill:#FFFFFF;stroke:#A8DC28;}
	.st1{fill:#A8DC28;}
</style><title>List view HOVER/ON</title><desc>Created with Sketch.</desc><g transform="translate(-1167.000000, -562.000000)"><g transform="translate(-42.000000, 406.000000)"><g transform="translate(1168.000000, 156.000000)"><g transform="translate(41.000000, 0.000000)"><path class="st0" d="M-376.5 215.5h36c1.1 0 2 0.9 2 2v36c0 1.1-0.9 2-2 2h-36c-1.1 0-2-0.9-2-2v-36C-378.5 216.4-377.6 215.5-376.5 215.5z"/></g></g></g></g><g transform="translate(1168.000000, 156.000000)"><g transform="translate(41.000000, 0.000000)"><rect x="-1572.6" y="68" class="st1" width="18" height="5"/><rect x="-1572.6" y="77" class="st1" width="18" height="5"/><rect x="-1572.6" y="86" class="st1" width="18" height="5"/><rect x="-1580.4" y="68" class="st1" width="5" height="5"/><rect x="-1580.4" y="77" class="st1" width="5" height="5"/><rect x="-1580.4" y="86" class="st1" width="5" height="5"/></g></g></svg>