<?xml version="1.0" encoding="UTF-8" standalone="no"?>
<svg width="25px" height="36px" viewBox="0 0 25 36" version="1.1" xmlns="http://www.w3.org/2000/svg" xmlns:xlink="http://www.w3.org/1999/xlink" xmlns:sketch="http://www.bohemiancoding.com/sketch/ns">
    <!-- Generator: Sketch Beta 3.2 (9961) - http://www.bohemiancoding.com/sketch -->
    <title>location pin</title>
    <desc>Created with Sketch Beta.</desc>
    <defs></defs>
    <g id="PAA" stroke="none" stroke-width="1" fill="none" fill-rule="evenodd" sketch:type="MSPage">
        <g id="Desktop-HD-For-sale-5" sketch:type="MSArtboardGroup" transform="translate(-691.000000, -1693.000000)" fill="#313133">
            <g id="Phase-1" sketch:type="MSLayerGroup" transform="translate(-2.000000, 260.000000)">
                <g id="4-Add-more-details-2" transform="translate(459.000000, 21.000000)" sketch:type="MSShapeGroup">
                    <g id="Add-Location" transform="translate(1.000000, 1250.000000)">
                        <g id="MAP" transform="translate(148.000000, 123.000000)">
                            <g id="location-pin" transform="translate(85.000000, 39.000000)">
                                <path d="M12.5,36 C12.5,36 25,19.3121059 25,12.4410846 C25,5.5700633 19.4035594,0 12.5,0 C5.59644063,0 0,5.5700633 0,12.4410846 C0,19.3121059 12.5,36 12.5,36 Z M12.5,18 C16.0898509,18 19,15.3137085 19,12 C19,8.6862915 16.0898509,6 12.5,6 C8.91014913,6 6,8.6862915 6,12 C6,15.3137085 8.91014913,18 12.5,18 Z" id="Oval-82"></path>
                            </g>
                        </g>
                    </g>
                </g>
            </g>
        </g>
    </g>
</svg>