<svg xmlns="http://www.w3.org/2000/svg" version="1.1" x="0" y="0" width="13" height="16" viewBox="-473 273 13 16" xml:space="preserve"><style type="text/css">
	.st0{fill:#A8A8A8;}
</style><title>lock</title><desc>Created with Sketch.</desc><path class="st0" d="M-461.6 279.5v-2c0-2.5-2.2-4.5-4.9-4.5 -2.7 0-4.9 2-4.9 4.5v2c-0.9 0-1.6 0.7-1.6 1.5v1.5 0.5 1 0.5c0 2.5 2.2 4.5 4.9 4.5h3.2c2.7 0 4.9-2 4.9-4.5V284v-1 -0.5V281C-460 280.2-460.7 279.5-461.6 279.5zM-465.8 284.8c-0.1 0.4-0.3 0.7-0.7 0.7s-0.6-0.3-0.7-0.7c-0.2-0.4-0.4-1-0.4-1.3 0-0.6 0.5-1 1.1-1 0.6 0 1.1 0.4 1.1 1C-465.4 283.8-465.6 284.3-465.8 284.8zM-464.2 279.5h-0.1 -4.3v-2c0-1.1 1-2 2.2-2s2.2 0.9 2.2 2V279.5z"/></svg>