<svg xmlns="http://www.w3.org/2000/svg" version="1.1" x="0" y="0" width="30" height="30" viewBox="-384 221 30 30" xml:space="preserve"><style type="text/css">
	.st0{fill:#9B9B9B;}
	.st1{fill:#FFFFFF;}
</style><title>Share</title><desc>Created with Sketch.</desc><g transform="translate(-260.000000, -541.000000)"><g transform="translate(260.000000, 541.000000)"><circle class="st0" cx="-369" cy="236" r="15"/><path class="st1" d="M-364.3 238.7c-0.8 0-1.5 0.3-2 0.8l-6.5-3.3c0-0.1 0-0.2 0-0.3 0-0.1 0-0.2 0-0.2l6.5-3.3c0.5 0.5 1.2 0.8 2 0.8 1.7 0 3.1-1.4 3.1-3.1 0-1.7-1.4-3.1-3.1-3.1 -1.7 0-3.1 1.4-3.1 3.1 0 0.1 0 0.2 0 0.2l-6.5 3.3c-0.5-0.5-1.2-0.8-2-0.8 -1.7 0-3.1 1.4-3.1 3.1 0 1.7 1.4 3.1 3.1 3.1 0.8 0 1.5-0.3 2-0.7l6.6 3.3c0 0.1 0 0.1 0 0.2 0 1.7 1.4 3.1 3.1 3.1 1.7 0 3.1-1.4 3.1-3.1C-361.2 240.1-362.6 238.7-364.3 238.7"/></g></g></svg>