<svg xmlns="http://www.w3.org/2000/svg" version="1.1" x="0" y="0" width="40" height="40" viewBox="-278 401.9 40 40" xml:space="preserve"><style type="text/css">
	.st0{fill:#FFFFFF;}
	.st1{fill:#313133;stroke:#313133;stroke-width:2;}
	.st2{fill:#A8DC28;}
</style><path class="st0" d="M-241.1 419c-0.3-2.9-1.3-5.6-2.9-8h-15.9v8H-241.1z"/><path class="st0" d="M-243.9 430.7c1.5-2.3 2.5-5.1 2.8-8h-18.7v8H-243.9z"/><title>icon manage my ads</title><desc>Created with Sketch.</desc><g transform="translate(1.000000, 1.000000)"><circle class="st1" cx="-260" cy="419.9" r="18"/><path class="st2" d="M-244.9 429.7c1.5-2.3 2.5-5.1 2.8-8h-18.7v8H-244.9z"/><rect x="-270.8" y="421.7" class="st2" width="8" height="8"/><path class="st2" d="M-242.1 418c-0.3-2.9-1.3-5.6-2.9-8h-15.9v8H-242.1z"/><rect x="-270.8" y="410" class="st2" width="8" height="8"/></g></svg>