<svg xmlns:sketch="http://www.bohemiancoding.com/sketch/ns" xmlns="http://www.w3.org/2000/svg" xmlns:xlink="http://www.w3.org/1999/xlink" version="1.1" id="Layer_1" x="0" y="0" width="40" height="40" viewBox="-459 261 40 40" xml:space="preserve" enable-background="new -459 261 40 40">
  <style type="text/css">
    
	.st0{fill:#FBFBFB;stroke:#E3E3E3;}
	.st1{fill:#E3E3E3;}

  </style>
  <title>
    Map view OFF
  </title>
  <desc>
    Created with Sketch.
  </desc>
  <g id="Search-results-list" sketch:type="MSPage">
    <g id="Desktop-Search-results-7" transform="translate(-1217.000000, -562.000000)" sketch:type="MSArtboardGroup">
      <g id="Top-bar" transform="translate(-42.000000, 406.000000)" sketch:type="MSLayerGroup">
        <g id="View-type" transform="translate(1168.000000, 156.000000)" sketch:type="MSShapeGroup">
          <g id="Map-view-OFF" transform="translate(91.000000, 0.000000)">
            <path id="Rectangle-153" class="st0" d="M-457 261h36c1.1 0 2 0.9 2 2v36c0 1.1-0.9 2-2 2h-36c-1.1 0-2-0.9-2-2v-36C-459 261.9-458.1 261-457 261z"/>
            <path class="st1" d="M-439 270c-4.4 0-8 3.6-8 8.1 0.1 6 8.4 13.3 8.4 12.9 -0.1 0.1 7.4-6.5 7.6-12.9C-431 273.7-434.6 270-439 270zM-439 280c-1.6 0-3-1.3-3-3s1.3-3 3-3c1.6 0 3 1.3 3 3S-437.3 280-439 280z"/>
          </g>
        </g>
      </g>
    </g>
  </g>
</svg>
