<svg xmlns="http://www.w3.org/2000/svg" version="1.1" x="0" y="0" width="36" height="36" viewBox="-279 402.9 36 36" xml:space="preserve"><style type="text/css">
	.st0{fill:#313133;}
	.st1{fill:#A8DC28;}
	.st2{fill:#A8DC28;stroke:#313133;stroke-width:2;}
</style><title>Messages</title><desc>Created with Sketch.</desc><rect x="-279" y="402.9" class="st0" width="36" height="36"/><g transform="translate(11.250000, 7.500000)"><ellipse class="st1" cx="-269.2" cy="411.4" rx="9.8" ry="8.5"/><path class="st1" d="M-264.6 415.4l6 4.5h-12.1L-264.6 415.4z"/></g><g transform="translate(3.000000, 11.000000)"><g transform="translate(9.750000, 8.750000) scale(-1, 1) translate(-9.750000, -8.750000) translate(0.750000, 0.250000)"><path class="st2" d="M290.3 417.5c-0.9 0.2-1.8 0.4-2.7 0.4 -4.8 0-8.6-3.4-8.6-7.5s3.9-7.5 8.6-7.5 8.6 3.4 8.6 7.5c0 2.1-1 4.1-2.7 5.4l2.5 3.8L290.3 417.5 290.3 417.5z"/></g></g></svg>