<svg xmlns="http://www.w3.org/2000/svg" version="1.1" x="0" y="0" width="19" height="19" viewBox="-390 226 19 19" xml:space="preserve"><style type="text/css">
	.st0{fill:#A8A8A8;}
</style><title>Mileage</title><desc>Created with Sketch.</desc><g transform="translate(-326.000000, -1680.000000)"><g transform="translate(19.000000, 21.000000)"><g transform="translate(5.000000, 1580.000000)"><g transform="translate(302.000000, 79.000000)"><path class="st0" d="M-380.5 228.4c-3.7 0-6.8 3-6.8 6.8 0 0.2 0.2 0.4 0.4 0.4 0.2 0 0.4-0.2 0.4-0.4 0-0.3 0-0.6 0.1-0.9l1 0.2c0 0 0 0 0 0 0.1 0 0.2-0.1 0.2-0.2 0-0.1-0.1-0.3-0.2-0.3l-1-0.2c0.1-0.5 0.3-1 0.6-1.5l0.9 0.5c0 0 0.1 0 0.1 0 0.1 0 0.2 0 0.2-0.1 0.1-0.1 0-0.3-0.1-0.3l-0.9-0.5c0.3-0.5 0.6-0.9 1-1.2l0.7 0.8c0 0.1 0.1 0.1 0.2 0.1 0.1 0 0.1 0 0.2-0.1 0.1-0.1 0.1-0.2 0-0.3l-0.7-0.8c0.4-0.3 0.9-0.6 1.4-0.8l0.4 1c0 0.1 0.1 0.2 0.2 0.2 0 0 0.1 0 0.1 0 0.1 0 0.2-0.2 0.1-0.3l-0.4-1c0.5-0.2 1-0.3 1.6-0.3v1c0 0.1 0.1 0.2 0.2 0.2s0.2-0.1 0.2-0.2v-1c0.6 0 1.1 0.1 1.6 0.3l-0.4 1c0 0.1 0 0.3 0.1 0.3 0 0 0.1 0 0.1 0 0.1 0 0.2-0.1 0.2-0.2l0.4-1c0.5 0.2 1 0.5 1.4 0.8l-0.7 0.8c-0.1 0.1-0.1 0.2 0 0.3 0 0 0.1 0.1 0.2 0.1 0.1 0 0.1 0 0.2-0.1l0.7-0.8c0.4 0.4 0.8 0.8 1.1 1.3l-0.9 0.5c-0.1 0.1-0.2 0.2-0.1 0.3 0 0.1 0.1 0.1 0.2 0.1 0 0 0.1 0 0.1 0l0.9-0.5c0.3 0.5 0.4 1 0.6 1.6l-1.1 0.2c-0.1 0-0.2 0.1-0.2 0.3 0 0.1 0.1 0.2 0.2 0.2 0 0 0 0 0 0l1.1-0.2c0 0.3 0.1 0.5 0.1 0.8 0 0.2 0.2 0.4 0.4 0.4 0.2 0 0.4-0.2 0.4-0.4C-373.7 231.5-376.8 228.4-380.5 228.4L-380.5 228.4zM-380.5 226.2c-5 0-9 4-9 9 0 5 4 9 9 9s9-4 9-9C-371.5 230.2-375.5 226.2-380.5 226.2L-380.5 226.2zM-380.5 239.4c-0.8 0-1.4-0.6-1.4-1.4 0-0.8 0.6-1.4 1.4-1.4s1.4 0.6 1.4 1.4C-379.1 238.8-379.7 239.4-380.5 239.4L-380.5 239.4zM-378.5 236.5c0 0-0.1-0.1-0.1-0.1l1.2-3.5 -2.4 2.7c-0.2 0-0.4-0.1-0.6-0.1 -0.8 0-1.5 0.4-2 1h-5.5c-0.1-0.4-0.1-0.9-0.1-1.3 0-4.2 3.4-7.6 7.6-7.6 4.2 0 7.6 3.4 7.6 7.6 0 0.5 0 0.9-0.1 1.3H-378.5L-378.5 236.5z"/></g></g></g></g></svg>