<svg xmlns:sketch="http://www.bohemiancoding.com/sketch/ns" xmlns="http://www.w3.org/2000/svg" xmlns:xlink="http://www.w3.org/1999/xlink" version="1.1" id="Layer_1" x="0" y="0" width="29" height="28" viewBox="-465 267 29 28" xml:space="preserve" enable-background="new -465 267 29 28">
  <style type="text/css">
    
	.st0{fill:#A8DC28;}
	.st1{fill:#EFEFEF;}

  </style>
  <title>
    Services
  </title>
  <desc>
    Created with Sketch Beta.
  </desc>
  <path class="st0" d="M-462.3 271.4l1.1-1.1 2.2 1.2 2.3 3.4 8.9 8.5 1-1 0.9 0.8 -0.7 0.7c0 0 1.2 0.4 3.6 2.5l1.4 1.4c0 0 1.2 1.3 1.5 2.4l0.7-0.7 0.8 0.8 -2.8 2.8 -0.9-0.8 0.8-0.8c0 0-0.8 0.5-3.8-2.4 0 0-2.9-2.7-2.8-3.8l-0.8 0.7 -0.8-0.8 1-1.1 -8.9-8.5 -3.7-2.2L-462.3 271.4z"/>
  <path class="st1" d="M-442.5 274c-0.8-0.6-1.9-0.7-2.8-0.4 -0.7 0.2-1.2 0.6-1.7 1.3 -0.1 0.1-0.2 0.3-0.2 0.4 -0.1 0.2-0.2 0.4-0.2 0.6l-2.9 3.1 -0.4 0.4 1.5 1.4 2.2-2.4c0.2 0.4 0.5 0.7 0.9 0.9 1.5 1 3.4 0.6 4.4-0.9C-440.7 277-441 275-442.5 274zM-442.8 277.8c-0.6 0.9-1.8 1.1-2.6 0.5 -0.3-0.2-0.6-0.5-0.7-0.9 -0.2-0.4-0.2-0.9 0-1.3 0.1-0.1 0.1-0.3 0.2-0.4 0.6-0.9 1.8-1.1 2.6-0.5C-442.5 275.8-442.2 276.9-442.8 277.8z"/>
  <path class="st1" d="M-454.2 273.9c0.4 0.2 0.8 0.4 1.2 0.5l-0.9 1.8 1.6 1.5 1.8-3.9c0.2-0.1 0.3-0.3 0.5-0.4 0.1-0.1 0.2-0.2 0.3-0.4 0.4-0.6 0.6-1.4 0.5-2.1 -0.1-0.9-0.6-1.8-1.4-2.4 -1.5-1-3.4-0.6-4.4 0.9S-455.7 272.9-454.2 273.9zM-454 270.1c0.6-0.9 1.8-1.1 2.6-0.5 0.9 0.6 1.1 1.8 0.5 2.6 -0.1 0.1-0.2 0.2-0.3 0.3 -0.4 0.3-0.8 0.5-1.3 0.5 -0.4 0-0.7-0.1-1-0.3C-454.5 272.2-454.7 271-454 270.1z"/>
  <path class="st1" d="M-452.5 281.9c0 0.1 0 0.1-0.1 0.2 -0.2 0.2-0.4 0.4-0.7 0.4 -0.1 0-0.2 0-0.3 0s-0.2-0.1-0.3-0.1l0 0c-0.2-0.1-0.3-0.3-0.4-0.5 -0.1-0.2 0-0.5 0.1-0.8 0.1-0.1 0.2-0.2 0.4-0.3l0 0 -1.6-1.5 -5.2 10.9 5.3-6.1 0.2-0.2 1-1.1 0 0c0.1 0 0.1 0.1 0.2 0.1 0.1 0 0.2 0.1 0.2 0.1l-7.7 8.9 0 0c-1.3 2.6-0.7 3 1.3 0.9l8.8-9.7L-452.5 281.9z"/>
</svg>
