<svg xmlns="http://www.w3.org/2000/svg" version="1.1" x="0" y="0" width="25" height="25" viewBox="-2821.8 933.2 25 25" xml:space="preserve"><style type="text/css">
	.st0{fill:#A8DC28;}
</style><title>SEARCH ICON ON</title><desc>Created with Sketch Beta.</desc><path class="st0" d="M-2798.2 953.9l-4.5-4.5c2.7-4 2.3-9.6-1.3-13.2 -4.1-4.1-10.7-4.1-14.7 0 -4.1 4.1-4.1 10.7 0 14.7 2 2 4.6 3 7.4 3 2.1 0 4.1-0.6 5.8-1.8l4.4 4.4L-2798.2 953.9zM-2811.3 950c-1.7 0-3.3-0.7-4.5-1.9 -2.5-2.5-2.5-6.6 0-9.1 1.2-1.2 2.9-1.9 4.5-1.9 1.6 0 3.3 0.6 4.5 1.9 2.5 2.5 2.5 6.6 0 9l0 0C-2808 949.4-2809.6 950-2811.3 950z"/></svg>