<svg xmlns:sketch="http://www.bohemiancoding.com/sketch/ns" xmlns="http://www.w3.org/2000/svg" xmlns:xlink="http://www.w3.org/1999/xlink" version="1.1" id="Layer_1" x="0" y="0" width="31" height="23" viewBox="-282 408.9 31 23" xml:space="preserve" enable-background="new -282 408.9 31 23">
  <style type="text/css">
    
	.st0{fill:#A8DC28;}
	.st1{fill:#EFEFEF;}

  </style>
  <title>
    for sale
  </title>
  <desc>
    Created with Sketch.
  </desc>
  <g id="Page-1" sketch:type="MSPage">
    <g id="for-sale" sketch:type="MSLayerGroup">
      <path id="Fill-1" sketch:type="MSShapeGroup" class="st0" d="M-278.9 417.2c-1.7 0-3 1.4-3 3 0 1 0.5 1.9 1.2 2.4v7.6c0 1.3 1.1 2.4 2.4 2.4 1.3 0 2.4-1.1 2.4-2.4v-10C-275.8 418.6-277.2 417.2-278.9 417.2"/>
      <path id="Fill-2" sketch:type="MSShapeGroup" class="st0" d="M-255 417.2c1.7 0 3 1.4 3 3 0 1-0.5 1.9-1.2 2.4v7.6c0 1.3-1.1 2.4-2.4 2.4 -1.3 0-2.4-1.1-2.4-2.4v-10C-258 418.6-256.6 417.2-255 417.2"/>
      <path id="Fill-3" sketch:type="MSShapeGroup" class="st1" d="M-275.6 409.8c-1.5 0-2.8 1.2-2.8 2.7v3.5c1.9 0.5 3.3 2.2 3.3 4.3v2.2h16.2v-2.2c0-2.1 1.4-3.8 3.3-4.3v-3.5c0-1.5-1.2-2.7-2.8-2.7H-275.6L-275.6 409.8zM-275 430.2h16.2v-7H-275V430.2L-275 430.2z"/>
    </g>
  </g>
</svg>
