<?xml version="1.0" encoding="utf-8"?>
<!-- Generator: Adobe Illustrator 19.1.0, SVG Export Plug-In . SVG Version: 6.00 Build 0)  -->
<!DOCTYPE svg PUBLIC "-//W3C//DTD SVG 1.1//EN" "http://www.w3.org/Graphics/SVG/1.1/DTD/svg11.dtd">
<svg version="1.1" id="Layer_1" xmlns:sketch="http://www.bohemiancoding.com/sketch/ns"
	 xmlns="http://www.w3.org/2000/svg" xmlns:xlink="http://www.w3.org/1999/xlink" x="0px" y="0px" width="29px" height="27px"
	 viewBox="-465 267 29 27" style="enable-background:new -465 267 29 27;" xml:space="preserve">
<style type="text/css">
	.st0{fill:#A8DC28;}
	.st1{fill:#EFEFEF;}
</style>
<title>Animals</title>
<desc>Created with Sketch Beta.</desc>
<g id="PAA" sketch:type="MSPage">
	<g id="menu-mobile" transform="translate(-16.000000, -318.000000)" sketch:type="MSArtboardGroup">
		
			<g id="Navigation-Menu-_x2B_-cross-close-_x2B_-Menu-panel-1" transform="translate(-561.000000, -36.000000)" sketch:type="MSLayerGroup">
			<g id="Menu-panel-1" transform="translate(557.000000, 96.000000)" sketch:type="MSShapeGroup">
				<g id="Animals-_x2B_-paw-icon" transform="translate(16.000000, 254.000000)">
					
						<g id="Animals" transform="translate(18.500000, 18.000000) rotate(13.000000) translate(-18.500000, -18.000000) translate(4.000000, 3.000000)">
						<path id="Fill-1" class="st0" d="M-386,391.3c-0.9-3.8,3.7-10.9,7.4-11.7c3.1-0.7,10.9,3.4,11.9,7.3c1.2,5.3-4.3,2.6-9.3,3.7
							S-384.8,396.5-386,391.3"/>
						<path id="Fill-2" class="st1" d="M-381.7,371.1c1.4,2.7,1,5.5-0.8,6.4s-4.4-0.5-5.7-3.2c-1.4-2.7-1-5.5,0.8-6.4
							C-385.6,367-383.1,368.4-381.7,371.1"/>
						<path id="Fill-3" class="st1" d="M-386,384.5c-1.4,1.1-4,0.4-5.7-1.8c-1.7-2.1-2-4.8-0.5-5.9c1.4-1.1,4-0.3,5.7,1.8
							S-384.6,383.3-386,384.5z"/>
						<path id="Fill-4" class="st1" d="M-379.6,370.6c0,3,1.6,5.4,3.6,5.4s3.7-2.4,3.7-5.3c0-3-1.6-5.4-3.6-5.4
							C-377.9,365.2-379.6,367.6-379.6,370.6"/>
						<path id="Fill-5" class="st1" d="M-369.8,380.7c1.8,0.4,3.8-1.4,4.4-4.1s-0.4-5.1-2.2-5.5c-1.8-0.4-3.8,1.4-4.4,4.1
							S-371.6,380.3-369.8,380.7z"/>
					</g>
				</g>
			</g>
		</g>
	</g>
</g>
</svg>
