<?xml version="1.0" encoding="utf-8"?>
<!-- Generator: Adobe Illustrator 19.1.0, SVG Export Plug-In . SVG Version: 6.00 Build 0)  -->
<!DOCTYPE svg PUBLIC "-//W3C//DTD SVG 1.1//EN" "http://www.w3.org/Graphics/SVG/1.1/DTD/svg11.dtd">
<svg version="1.1" id="Layer_1" xmlns:sketch="http://www.bohemiancoding.com/sketch/ns"
	 xmlns="http://www.w3.org/2000/svg" xmlns:xlink="http://www.w3.org/1999/xlink" x="0px" y="0px" width="30px" height="24px"
	 viewBox="-464 269 30 24" style="enable-background:new -464 269 30 24;" xml:space="preserve">
<style type="text/css">
	.st0{fill:#EFEFEF;}
	.st1{fill:#A8DC28;}
</style>
<title>community</title>
<desc>Created with Sketch Beta.</desc>
<g>
	<g id="PAA" sketch:type="MSPage">
		<g id="menu-mobile" transform="translate(-15.000000, -362.000000)" sketch:type="MSArtboardGroup">
			
				<g id="Navigation-Menu-_x2B_-cross-close-_x2B_-Menu-panel-1" transform="translate(-561.000000, -36.000000)" sketch:type="MSLayerGroup">
				<g id="Community-_x2B_-community-icon" transform="translate(19.000000, 298.000000)">
					<g id="community" transform="translate(0.000000, 4.000000)">
						<path class="st0" d="M118.1,375c1.3-0.8,2.2-2.4,2.2-4.1c0-2.6-2-4.8-4.5-4.8c-1.5,0-2.8,0.8-3.7,2c1.2,1,1.9,2.5,1.9,4.1
							c0,2-0.6,3.7-2.2,4.7c2.2,1.1,4.3,4.9,4.5,8.4c2.1-0.1,4.1-0.5,5.9-1.2c0-0.1,0-0.2,0-0.3C122.3,379.8,120.5,376.4,118.1,375z
							"/>
						<path class="st0" d="M104.4,376.8c-0.5-0.5-1-1-1.3-1.7c-0.1,0-0.1-0.2-0.1-0.2c-0.4-0.8-0.6-1.8-0.6-2.8c0-1.6,0.7-3,1.9-4
							c-0.8-1.2-2.1-2-3.7-2c-2.5,0-4.5,2.1-4.5,4.8c0,1.7,0.8,3.2,2,4c-2.5,1.3-4.3,4.8-4.3,8.8c0,0.2,0,0.4,0,0.6
							c1.8,0.6,3.8,1,5.8,1h0.1C99.9,381.8,101.5,378.6,104.4,376.8z"/>
					</g>
				</g>
			</g>
		</g>
	</g>
	<path class="st1" d="M-447,280.8h-0.2c1.8-0.7,3-2.4,3-4.5c0-2.7-2.1-4.8-4.8-4.8c-2.7,0-4.8,2.2-4.8,4.8c0,2,1.3,3.8,3,4.5h-0.1
		c-5.8,2.8-5.5,9.7-5.5,9.7c7.7,3,14.7,0,14.7,0C-441.9,283.1-447,280.8-447,280.8z"/>
</g>
</svg>
