<svg xmlns="http://www.w3.org/2000/svg" version="1.1" x="0" y="0" width="25" height="25" viewBox="-1405 459.9 25 25" xml:space="preserve"><style type="text/css">
	.st0{fill:#313133;}
</style><title>SEARCH ICON</title><desc>Created with Sketch.</desc><path class="st0" d="M-1380.7 481.5l-4.4-4.4c1.1-1.7 1.8-3.7 1.8-5.8 0-2.8-1.1-5.4-3-7.4 -2-2-4.6-3-7.4-3 -2.8 0-5.4 1.1-7.4 3 -4.1 4.1-4.1 10.7 0 14.7 2 2 4.7 3 7.4 3 2 0 4.1-0.6 5.8-1.8l4.4 4.4L-1380.7 481.5zM-1398.3 475.8c-2.5-2.5-2.5-6.6 0-9.1 1.2-1.2 2.8-1.9 4.5-1.9s3.3 0.7 4.5 1.9c1.2 1.2 1.9 2.8 1.9 4.5s-0.7 3.3-1.9 4.5C-1391.7 478.3-1395.8 478.3-1398.3 475.8z"/></svg>