<?xml version="1.0" encoding="utf-8"?>
<!-- Generator: Adobe Illustrator 19.1.0, SVG Export Plug-In . SVG Version: 6.00 Build 0)  -->
<!DOCTYPE svg PUBLIC "-//W3C//DTD SVG 1.1//EN" "http://www.w3.org/Graphics/SVG/1.1/DTD/svg11.dtd">
<svg version="1.1" id="Layer_1" xmlns:sketch="http://www.bohemiancoding.com/sketch/ns"
	 xmlns="http://www.w3.org/2000/svg" xmlns:xlink="http://www.w3.org/1999/xlink" x="0px" y="0px" width="21px" height="31px"
	 viewBox="-469 265 21 31" style="enable-background:new -469 265 21 31;" xml:space="preserve">
<style type="text/css">
	.st0{fill:#EFEFEF;}
	.st1{fill:#A8DC28;}
</style>
<title>Jobs</title>
<desc>Created with Sketch Beta.</desc>
<g>
	<g id="PAA" sketch:type="MSPage">
		<g id="menu-mobile" transform="translate(-22.000000, -232.000000)" sketch:type="MSArtboardGroup">
			
				<g id="Navigation-Menu-_x2B_-cross-close-_x2B_-Menu-panel-1" transform="translate(-561.000000, -36.000000)" sketch:type="MSLayerGroup">
				<g id="Menu-panel-1" transform="translate(557.000000, 96.000000)" sketch:type="MSShapeGroup">
					<g id="Jobs-_x2B_-Fill-2-_x2B_-Fill-3-_x2B_-Fill-4" transform="translate(26.000000, 172.000000)">
						<g id="Jobs" transform="translate(0.000000, 1.000000)">
							<path id="Fill-2" class="st0" d="M-458.6,272.4l3.8,15.4l-6.3,6l-6.7-5.6l2.7-15.6L-458.6,272.4z"/>
						</g>
					</g>
				</g>
			</g>
		</g>
	</g>
	<path id="Fill-4_1_" class="st1" d="M-464.1,266.2l3.9-0.1c1.1,0,2,0.7,2,1.6l0.1,2.5c0,0.9-0.8,1.7-1.9,1.7l-3.9,0.1
		c-1.1,0-2-0.7-2-1.6l-0.1-2.5C-466,267-465.2,266.2-464.1,266.2"/>
	<polygon class="st1" points="-455.2,276.5 -453.7,279.8 -450.7,282.3 -449.2,280.9 -451.2,278.5 	"/>
</g>
</svg>
