<?xml version="1.0" encoding="utf-8"?>
<!-- Generator: Adobe Illustrator 20.1.0, SVG Export Plug-In . SVG Version: 6.00 Build 0)  -->
<svg version="1.1" id="Layer_1" xmlns="http://www.w3.org/2000/svg" xmlns:xlink="http://www.w3.org/1999/xlink" x="0px" y="0px"
	 width="43px" height="43px" viewBox="0 0 43 43" style="enable-background:new 0 0 43 43;" xml:space="preserve">
<style type="text/css">
	.st0{fill:none;stroke:#313133;stroke-width:2;stroke-linecap:round;stroke-linejoin:round;stroke-dasharray:1,3;}
	.st1{fill:#313133;}
</style>
<title>Motors icon</title>
<desc>Created with Sketch.</desc>
<g id="Page-1">
	<g id="Dashboard---Credits" transform="translate(-453.000000, -574.000000)">
		<g id="Motors" transform="translate(454.000000, 568.000000)">
			<g id="Motors-icon" transform="translate(0.000000, 7.000000)">
				<path id="Stroke-3" class="st0" d="M39,29.4c1.3-2.7,2-5.7,2-8.9C41,9.2,31.8,0,20.5,0S0,9.2,0,20.5c0,8.8,5.6,16.3,13.5,19.3
					c2.2,0.9,4.6,1.2,7,1.2C28.6,41,35.7,36.3,39,29.4L39,29.4z"/>
				<path id="Fill-5" class="st1" d="M27.8,25.7c-0.8,0-1.4-0.7-1.4-1.5c0-0.8,0.7-1.5,1.4-1.5c0.8,0,1.5,0.7,1.5,1.5
					C29.2,25.1,28.5,25.7,27.8,25.7L27.8,25.7z M13.8,25.7c-0.8,0-1.4-0.7-1.4-1.5c0-0.8,0.7-1.5,1.4-1.5s1.4,0.7,1.4,1.5
					C15.2,25.1,14.5,25.7,13.8,25.7L13.8,25.7z M14,13.5c0,0,3.4-0.8,6.8-0.8s6.8,0.8,6.8,0.8L29,20H12.6L14,13.5z M31.9,16.1h-1.5
					V19h-0.4l-1.2-6.6c0,0-4.2-0.8-8.2-0.8c-4.2,0-8.2,0.8-8.2,0.8L11.3,19h-0.4v-2.9H9.5c-0.5,0-0.8,0.3-0.8,0.8v2.9
					c0,0.5,0.3,0.7,0.8,0.7l1.4,0.1H11l-0.1,0.8c-0.9,0-1.4,0.7-1.4,1.4v3.7c0,0.8,0.7,1.4,1.4,1.4v1.4c0,0.5,0.3,0.8,0.8,0.8h2.2
					c0.4,0,0.8-0.4,0.8-0.8v-1.4h11.9v1.4c0,0.5,0.3,0.8,0.8,0.8h2.2c0.4,0,0.8-0.4,0.8-0.8v-1.4c0.9,0,1.5-0.7,1.5-1.4v-3.7
					c0-0.8-0.7-1.4-1.5-1.4l-0.1-0.8h0.1l1.5-0.1c0.5,0,0.8-0.2,0.8-0.7v-2.9C32.7,16.4,32.4,16.1,31.9,16.1L31.9,16.1z"/>
			</g>
		</g>
	</g>
</g>
</svg>
