<?xml version="1.0" encoding="utf-8"?>
<!-- Generator: Adobe Illustrator 18.0.0, SVG Export Plug-In . SVG Version: 6.00 Build 0)  -->
<!DOCTYPE svg PUBLIC "-//W3C//DTD SVG 1.1//EN" "http://www.w3.org/Graphics/SVG/1.1/DTD/svg11.dtd">
<svg version="1.1" id="Layer_1" xmlns:sketch="http://www.bohemiancoding.com/sketch/ns"
	 xmlns="http://www.w3.org/2000/svg" xmlns:xlink="http://www.w3.org/1999/xlink" x="0px" y="0px" width="110px" height="111px"
	 viewBox="0 0 110 111" enable-background="new 0 0 110 111" xml:space="preserve">
<title>Motors Active</title>
<desc>Created with Sketch Beta.</desc>
<g id="PAA" sketch:type="MSPage">
	<g id="Desktop-HD-For-sale-2" transform="translate(-596.000000, -622.000000)" sketch:type="MSArtboardGroup">
		<g id="Phase-1" transform="translate(457.000000, 273.000000)" sketch:type="MSLayerGroup">
			<g id="_x31_-what-are-you-selling" transform="translate(0.000000, 34.000000)">
				<g id="categories" transform="translate(0.000000, 314.000000)">
					<g id="Motors-Active" transform="translate(139.000000, 1.505285)">
						<path id="Fill-1" sketch:type="MSShapeGroup" fill="#313133" d="M110,55c0-30.3-24.7-55-55-55S0,24.7,0,55
							c0,30.3,24.7,55,55,55S110,85.3,110,55z"/>
						
							<path id="Stroke-6" sketch:type="MSShapeGroup" fill="none" stroke="#A8DC28" stroke-width="2" stroke-linecap="round" stroke-linejoin="round" stroke-dasharray="1,4" d="
							M100,76.8c3.2-6.6,5-14,5-21.8c0-27.6-22.4-50-50-50S5,27.4,5,55c0,21.5,13.7,39.9,32.8,46.9c5.4,2,11.2,3.1,17.2,3.1
							C74.8,105,91.9,93.5,100,76.8z"/>
						
							<path id="Stroke-15" sketch:type="MSShapeGroup" fill="none" stroke="#A8DC28" stroke-width="2" stroke-linecap="round" stroke-linejoin="round" stroke-dasharray="1,4" d="
							M0,0"/>
						<g enable-background="new    ">
							<path fill="#313133" d="M37.4,79.5L37.4,79.5l2.4-6.3h2.8v1.1l-0.5,0c-0.3,0-0.4,0.1-0.4,0.5l0.4,6.4l0.9,0v1.2h-3.4v-1.1
								l0.5,0c0.2,0,0.4-0.1,0.4-0.4L40.2,76h0L38,81.6h-1.3L34.5,76h0l-0.3,5.2l0.9,0v1.2h-3.3v-1.1l0.5,0c0.2,0,0.3-0.2,0.4-0.4
								l0.4-6.5l-0.9-0.1v-1.2H35L37.4,79.5z"/>
							<path fill="#313133" d="M47,75.2c1,0,3.1,0.3,3.1,3.5c0,2.7-1.5,3.9-3.3,3.9c-1.9,0-3.1-1.2-3.1-3.7
								C43.7,76,45.6,75.2,47,75.2z M48.4,79c0-1.6-0.4-2.5-1.5-2.5c-1.1,0-1.6,1-1.6,2.3c0,1.3,0.2,2.7,1.5,2.7
								C48,81.4,48.4,80.4,48.4,79z"/>
							<path fill="#313133" d="M53.3,73.9v1.5h1.9L55,76.6h-1.7v3.7c0,0.9,0.3,1.1,0.9,1.1c0.4,0,0.7-0.2,1-0.3l0.4,1.1
								c-0.4,0.3-1.1,0.5-1.8,0.5c-2.2,0-2.2-1.3-2.2-2.3v-3.7h-1l0.1-1c1-0.1,1.3-0.8,1.6-1.6H53.3z"/>
							<path fill="#313133" d="M59.2,75.2c1,0,3.1,0.3,3.1,3.5c0,2.7-1.5,3.9-3.3,3.9c-1.9,0-3.1-1.2-3.1-3.7
								C55.9,76,57.8,75.2,59.2,75.2z M60.6,79c0-1.6-0.4-2.5-1.5-2.5c-1.1,0-1.6,1-1.6,2.3c0,1.3,0.2,2.7,1.5,2.7
								C60.2,81.4,60.6,80.4,60.6,79z"/>
							<path fill="#313133" d="M64.1,77c0-0.3-0.1-0.4-0.4-0.4l-0.6,0v-1.1h2.4v1.1c0.3-0.7,1.1-1.3,2-1.3c0.5,0,0.9,0.1,1.3,0.3
								v2.1l-1.3,0.1v-0.6c0-0.2,0-0.3-0.1-0.3c-0.1-0.1-0.2-0.1-0.4-0.1c-0.8,0-1.3,0.6-1.3,1.4v3.2l1.2,0.1v1.1h-3.8v-1.1l0.5,0
								c0.3,0,0.4-0.1,0.4-0.5V77z"/>
							<path fill="#313133" d="M72.4,76.4c-0.6,0-1.1,0.3-1.1,0.8c0,0.6,0.7,0.8,1.3,1c1.1,0.3,2.3,0.7,2.3,2.2
								c0,1.5-1.2,2.2-2.7,2.2c-0.9,0-2-0.1-2.6-0.4v-1.9l1.3-0.1v0.7c0,0.3,0.1,0.4,0.3,0.5c0.3,0.1,0.6,0.1,0.9,0.1
								c0.7,0,1.1-0.3,1.1-0.9c0-0.7-0.6-0.8-1.4-1c-1-0.3-2.2-0.6-2.2-2.2c0-1.5,1.2-2.2,2.7-2.2c1,0,1.8,0.3,2.3,0.6v1.7l-1.3,0.1
								V77c0-0.3-0.1-0.4-0.3-0.5C72.9,76.4,72.7,76.4,72.4,76.4z"/>
						</g>
						<g id="Fill-2-_x2B_-Oval-23-_x2B_-Oval-24" transform="translate(35.675676, 32.097345)" sketch:type="MSShapeGroup">
							<path id="Fill-2" fill="#EFEFEF" d="M31.5,13.3l-25.7,0L8.2,3.1c0,0,5.3-1.1,10.5-1.1c5.3,0,10.5,1.1,10.5,1.1L31.5,13.3
								L31.5,13.3z M36.2,7.1l-2.3,0l0,4.5l-0.6,0L31.5,1.4c0,0-6.4-1.1-12.8-1.1c-6.4,0-12.8,1.1-12.8,1.1L4.1,11.6l-0.6,0l0-4.5
								l-2.3,0C0.5,7.1,0,7.5,0,8.2l0,4.5c0,0.7,0.5,1,1.2,1l2.3,0.1l0.2,0L3.5,15c-1.3,0-2.3,1-2.3,2.3l0,5.7c0,1.2,1,2.3,2.3,2.3
								l0,2.2c0,0.7,0.5,1.2,1.2,1.2l3.5,0c0.6,0,1.2-0.6,1.2-1.2l0-2.2l18.6,0l0,2.2c0,0.7,0.5,1.2,1.2,1.2l3.5,0
								c0.6,0,1.2-0.6,1.2-1.2l0-2.2c1.3,0,2.3-1,2.3-2.3l0-5.7c0-1.2-1-2.3-2.3-2.3l-0.2-1.1l0.2,0l2.3-0.1c0.7,0,1.2-0.3,1.2-1
								l0-4.5C37.3,7.5,36.8,7.1,36.2,7.1z"/>
							<ellipse id="Oval-28" fill="#A8DC28" stroke="#313133" cx="7.7" cy="19.9" rx="2.2" ry="2.2"/>
							<ellipse id="Oval-29" fill="#A8DC28" stroke="#313133" cx="29.6" cy="19.9" rx="2.2" ry="2.2"/>
						</g>
						<g enable-background="new    ">
							<path fill="#A8DC28" d="M38.9,82L38.9,82l2.4-6.3h2.8v1.1l-0.5,0c-0.3,0-0.4,0.1-0.4,0.5l0.4,6.4l0.9,0V85H41v-1.1l0.5,0
								c0.2,0,0.4-0.1,0.4-0.4l-0.3-4.9h0l-2.2,5.6h-1.3L36,78.6h0l-0.3,5.2l0.9,0V85h-3.3v-1.1l0.5,0c0.2,0,0.3-0.2,0.4-0.4
								l0.4-6.5l-0.9-0.1v-1.2h2.8L38.9,82z"/>
							<path fill="#A8DC28" d="M48.5,77.7c1,0,3.1,0.3,3.1,3.5c0,2.7-1.5,3.9-3.3,3.9c-1.9,0-3.1-1.2-3.1-3.7
								C45.1,78.6,47,77.7,48.5,77.7z M49.9,81.5c0-1.6-0.4-2.5-1.5-2.5c-1.1,0-1.6,1-1.6,2.3c0,1.3,0.2,2.7,1.5,2.7
								C49.5,84,49.9,83,49.9,81.5z"/>
							<path fill="#A8DC28" d="M54.8,76.5V78h1.9l-0.1,1.2h-1.7v3.7c0,0.9,0.3,1.1,0.9,1.1c0.4,0,0.7-0.2,1-0.3l0.4,1.1
								c-0.4,0.3-1.1,0.5-1.8,0.5c-2.2,0-2.2-1.3-2.2-2.3v-3.7h-1l0.1-1c1-0.1,1.3-0.8,1.6-1.6H54.8z"/>
							<path fill="#A8DC28" d="M60.7,77.7c1,0,3.1,0.3,3.1,3.5c0,2.7-1.5,3.9-3.3,3.9c-1.9,0-3.1-1.2-3.1-3.7
								C57.3,78.6,59.2,77.7,60.7,77.7z M62.1,81.5c0-1.6-0.4-2.5-1.5-2.5c-1.1,0-1.6,1-1.6,2.3c0,1.3,0.2,2.7,1.5,2.7
								C61.6,84,62.1,83,62.1,81.5z"/>
							<path fill="#A8DC28" d="M65.6,79.6c0-0.3-0.1-0.4-0.3-0.4l-0.6,0V78H67V79c0.3-0.7,1.1-1.3,2-1.3c0.5,0,0.9,0.1,1.3,0.3v2.1
								L69,80.2v-0.6c0-0.2,0-0.3-0.1-0.3c-0.1-0.1-0.2-0.1-0.4-0.1c-0.8,0-1.3,0.6-1.3,1.4v3.2l1.2,0.1V85h-3.8v-1.1l0.5,0
								c0.3,0,0.4-0.1,0.4-0.5V79.6z"/>
							<path fill="#A8DC28" d="M73.8,78.9c-0.6,0-1.1,0.3-1.1,0.8c0,0.6,0.7,0.8,1.3,1c1.1,0.3,2.3,0.7,2.3,2.2
								c0,1.5-1.2,2.2-2.7,2.2c-0.9,0-2-0.1-2.6-0.4v-1.9l1.3-0.1v0.7c0,0.3,0.1,0.4,0.3,0.5c0.3,0.1,0.6,0.1,0.9,0.1
								c0.7,0,1.1-0.3,1.1-0.9c0-0.7-0.6-0.8-1.4-1c-1-0.3-2.2-0.6-2.2-2.2c0-1.5,1.2-2.2,2.7-2.2c1,0,1.8,0.3,2.3,0.6V80L75,80.1
								v-0.6c0-0.3-0.1-0.4-0.3-0.5C74.4,78.9,74.2,78.9,73.8,78.9z"/>
						</g>
					</g>
				</g>
			</g>
		</g>
	</g>
</g>
</svg>
