<?xml version="1.0" encoding="utf-8"?>
<!-- Generator: Adobe Illustrator 18.0.0, SVG Export Plug-In . SVG Version: 6.00 Build 0)  -->
<!DOCTYPE svg PUBLIC "-//W3C//DTD SVG 1.1//EN" "http://www.w3.org/Graphics/SVG/1.1/DTD/svg11.dtd">
<svg version="1.1" id="Layer_1" xmlns:sketch="http://www.bohemiancoding.com/sketch/ns"
	 xmlns="http://www.w3.org/2000/svg" xmlns:xlink="http://www.w3.org/1999/xlink" x="0px" y="0px" width="110px" height="111px"
	 viewBox="0 0 110 111" enable-background="new 0 0 110 111" xml:space="preserve">
<title>Motors OFF</title>
<desc>Created with Sketch Beta.</desc>
<g id="PAA" sketch:type="MSPage">
	<g id="Desktop-HD-For-sale-2" transform="translate(-596.000000, -622.000000)" sketch:type="MSArtboardGroup">
		<g id="Phase-1" transform="translate(457.000000, 273.000000)" sketch:type="MSLayerGroup">
			<g id="_x31_-what-are-you-selling" transform="translate(0.000000, 34.000000)">
				<g id="categories" transform="translate(0.000000, 314.000000)">
					<g id="Motors-OFF" transform="translate(139.000000, 0.505285)">
						<path id="Fill-1" sketch:type="MSShapeGroup" fill="#EFEFEF" d="M110,56c0-30.3-24.7-55-55-55S0,25.7,0,56
							c0,30.3,24.7,55,55,55S110,86.3,110,56z"/>
						<path id="Stroke-15" sketch:type="MSShapeGroup" fill="#EFEFEF" d="M0,0"/>
						<g enable-background="new    ">
							<path fill="#313133" d="M36.9,81.5L36.9,81.5l2.4-6.3h2.8v1.1l-0.5,0c-0.3,0-0.4,0.1-0.4,0.5l0.4,6.4l0.9,0v1.2h-3.4v-1.1
								l0.5,0c0.2,0,0.4-0.1,0.4-0.4L39.7,78h0l-2.2,5.6h-1.3L34,78.1h0l-0.3,5.2l0.9,0v1.2h-3.3v-1.1l0.5,0c0.2,0,0.3-0.2,0.4-0.4
								l0.4-6.5l-0.9-0.1v-1.2h2.8L36.9,81.5z"/>
							<path fill="#313133" d="M46.5,77.2c1,0,3.1,0.3,3.1,3.5c0,2.7-1.5,3.9-3.3,3.9c-1.9,0-3.1-1.2-3.1-3.7
								C43.2,78,45.1,77.2,46.5,77.2z M47.9,81c0-1.6-0.4-2.5-1.5-2.5c-1.1,0-1.6,1-1.6,2.3c0,1.3,0.2,2.7,1.5,2.7
								C47.5,83.5,47.9,82.5,47.9,81z"/>
							<path fill="#313133" d="M52.8,76v1.5h1.9l-0.1,1.2h-1.7v3.7c0,0.9,0.3,1.1,0.9,1.1c0.4,0,0.7-0.2,1-0.3l0.4,1.1
								c-0.4,0.3-1.1,0.5-1.8,0.5c-2.2,0-2.2-1.3-2.2-2.3v-3.7h-1l0.1-1c1-0.1,1.3-0.8,1.6-1.6H52.8z"/>
							<path fill="#313133" d="M58.7,77.2c1,0,3.1,0.3,3.1,3.5c0,2.7-1.5,3.9-3.3,3.9c-1.9,0-3.1-1.2-3.1-3.7
								C55.4,78,57.3,77.2,58.7,77.2z M60.1,81c0-1.6-0.4-2.5-1.5-2.5c-1.1,0-1.6,1-1.6,2.3c0,1.3,0.2,2.7,1.5,2.7
								C59.7,83.5,60.1,82.5,60.1,81z"/>
							<path fill="#313133" d="M63.6,79c0-0.3-0.1-0.4-0.4-0.4l-0.6,0v-1.1h2.4v1.1c0.3-0.7,1.1-1.3,2-1.3c0.5,0,0.9,0.1,1.3,0.3
								v2.1l-1.3,0.1v-0.6c0-0.2,0-0.3-0.1-0.3c-0.1-0.1-0.2-0.1-0.4-0.1c-0.8,0-1.3,0.6-1.3,1.4v3.2l1.2,0.1v1.1h-3.8v-1.1l0.5,0
								c0.3,0,0.4-0.1,0.4-0.5V79z"/>
							<path fill="#313133" d="M71.9,78.4c-0.6,0-1.1,0.3-1.1,0.8c0,0.6,0.7,0.8,1.3,1c1.1,0.3,2.3,0.7,2.3,2.2
								c0,1.5-1.2,2.2-2.7,2.2c-0.9,0-2-0.1-2.6-0.4v-1.9l1.3-0.1v0.7c0,0.3,0.1,0.4,0.3,0.5c0.3,0.1,0.6,0.1,0.9,0.1
								c0.7,0,1.1-0.3,1.1-0.9c0-0.7-0.6-0.8-1.4-1c-1-0.3-2.2-0.6-2.2-2.2c0-1.5,1.2-2.2,2.7-2.2c1,0,1.8,0.3,2.3,0.6v1.7L73,79.6
								V79c0-0.3-0.1-0.4-0.3-0.5C72.4,78.4,72.2,78.4,71.9,78.4z"/>
						</g>
						<g id="Fill-2-_x2B_-Oval-23-_x2B_-Oval-25" transform="translate(35.675676, 33.097345)" sketch:type="MSShapeGroup">
							<path id="Fill-2" fill="#313133" d="M31.5,13.3l-25.7,0L8.2,3.1c0,0,5.3-1.1,10.5-1.1c5.3,0,10.5,1.1,10.5,1.1L31.5,13.3
								L31.5,13.3z M36.2,7.1l-2.3,0l0,4.5l-0.6,0L31.5,1.4c0,0-6.4-1.1-12.8-1.1c-6.4,0-12.8,1.1-12.8,1.1L4.1,11.6l-0.6,0l0-4.5
								l-2.3,0C0.5,7.1,0,7.5,0,8.2l0,4.5c0,0.7,0.5,1,1.2,1l2.3,0.1l0.2,0L3.5,15c-1.3,0-2.3,1-2.3,2.3l0,5.7c0,1.2,1,2.3,2.3,2.3
								l0,2.2c0,0.7,0.5,1.2,1.2,1.2l3.5,0c0.6,0,1.2-0.6,1.2-1.2l0-2.2l18.6,0l0,2.2c0,0.7,0.5,1.2,1.2,1.2l3.5,0
								c0.6,0,1.2-0.6,1.2-1.2l0-2.2c1.3,0,2.3-1,2.3-2.3l0-5.7c0-1.2-1-2.3-2.3-2.3l-0.2-1.1l0.2,0l2.3-0.1c0.7,0,1.2-0.3,1.2-1
								l0-4.5C37.3,7.5,36.8,7.1,36.2,7.1z"/>
							<ellipse id="Oval-28" fill="#313133" stroke="#EFEFEF" cx="7.7" cy="19.9" rx="2.2" ry="2.2"/>
							<ellipse id="Oval-29" fill="#313133" stroke="#EFEFEF" cx="29.6" cy="19.9" rx="2.2" ry="2.2"/>
						</g>
					</g>
				</g>
			</g>
		</g>
	</g>
</g>
</svg>
