<?xml version="1.0" encoding="UTF-8"?><svg width="38" height="29" xmlns="http://www.w3.org/2000/svg"><g fill="none" fill-rule="evenodd"><g transform="translate(-1068 -1251)" fill="#555555"><g transform="translate(203 1059)"><g transform="translate(734 192)"><path d="M167.197 6.755c.69 0 1.169.448 1.169 1.127v4.501c0 .68-.55 1.024-1.237 1.024l-2.266.102h-.195l.195 1.126c1.29 0 2.335 1.008 2.335 2.251v5.629c0 1.243-1.045 2.25-2.347 2.25v2.149c0 .678-.524 1.228-1.168 1.228h-3.503c-.648 0-1.17-.55-1.17-1.229v-2.148l-18.652-.002v2.149c0 .678-.523 1.228-1.168 1.228h-3.503c-.648 0-1.169-.55-1.169-1.229l-.013-2.148c-1.293 0-2.338-1.009-2.338-2.251v-5.63c0-1.242 1.044-2.25 2.337-2.25l.195-1.126h-.195l-2.302-.102c-.69 0-1.201-.345-1.201-1.024L131 7.878c0-.678.478-1.126 1.166-1.126h2.337v4.503h.583l1.75-10.13S143.229 0 149.682 0c6.39 0 12.847 1.127 12.847 1.127l1.752 10.131h.583V6.755h2.334zm-4.668 6.195L160.19 2.82s-5.242-1.126-10.51-1.127c-5.241 0-10.509 1.124-10.509 1.124l-2.333 10.13 25.69.003zm-23.811 8.804c1.237 0 2.24-.986 2.24-2.203 0-1.216-1.003-2.203-2.24-2.203-1.238 0-2.24.987-2.24 2.203 0 1.217 1.002 2.203 2.24 2.203zm21.908 0c1.238 0 2.24-.986 2.24-2.203 0-1.216-1.002-2.203-2.24-2.203-1.237 0-2.24.987-2.24 2.203 0 1.217 1.003 2.203 2.24 2.203z"/></g></g></g></g></svg>