<svg xmlns:sketch="http://www.bohemiancoding.com/sketch/ns" xmlns="http://www.w3.org/2000/svg" xmlns:xlink="http://www.w3.org/1999/xlink" version="1.1" id="Layer_1" x="0" y="0" width="112" height="112" viewBox="-343 180 112 112" xml:space="preserve" enable-background="new -343 180 112 112">
  <style type="text/css">
    
	.st0{fill:#FFFFFF;}
	.st1{fill:none;stroke:#313133;stroke-width:2;stroke-linecap:round;stroke-linejoin:round;stroke-dasharray:1,4;}
	.st2{fill:#313133;}

  </style>
  <title>
    MPVs
  </title>
  <desc>
    Created with Sketch.
  </desc>
  <g id="landing-page" sketch:type="MSPage">
    <g id="Desktop---landing-Page-Motors" transform="translate(-1008.000000, -807.000000)" sketch:type="MSArtboardGroup">
      <g id="Find-a-car" transform="translate(-43.000000, 537.000000)" sketch:type="MSLayerGroup">
        <g id="Part2-Copy" transform="translate(227.000000, 242.000000)" sketch:type="MSShapeGroup">
          <g id="Categories-Icon" transform="translate(132.000000, 20.000000)">
            <g id="MPVs" transform="translate(692.000000, 8.000000)">
              <path id="Fill-1" class="st0" d="M-231.6 235.7c0-30.6-24.9-55.5-55.5-55.5s-55.5 24.9-55.5 55.5c0 30.6 24.9 55.5 55.5 55.5S-231.6 266.3-231.6 235.7"/>
              <path id="Stroke-2-Copy-6" class="st1" d="M-242.1 257.4c3.2-6.6 5-14 5-21.8 0-27.6-22.4-50-50-50s-50 22.4-50 50c0 21.5 13.7 39.9 32.8 46.9 5.4 2 11.2 3.1 17.2 3.1C-267.4 285.7-250.2 274.1-242.1 257.4L-242.1 257.4z"/>
              <g id="Fill-3-_x2B_-Fill-4-_x2B_-Fill-5" transform="translate(15.000000, 28.000000)">
                <path id="Fill-3" class="st2" d="M-277 201.4c-3.8 0-6.8 3.1-6.8 7 0 3.9 3.1 7 6.8 7s6.8-3.1 6.8-7C-270.2 204.5-273.3 201.4-277 201.4L-277 201.4zM-277 213c-2.5 0-4.6-2.1-4.6-4.7s2.1-4.7 4.6-4.7 4.6 2.1 4.6 4.7S-274.5 213-277 213L-277 213z"/>
                <path id="Fill-4" class="st2" d="M-330.6 201.4c-3.8 0-6.8 3.1-6.8 7 0 3.9 3.1 7 6.8 7 3.8 0 6.8-3.1 6.8-7C-323.8 204.5-326.9 201.4-330.6 201.4L-330.6 201.4zM-330.6 213c-2.5 0-4.6-2.1-4.6-4.7s2.1-4.7 4.6-4.7c2.5 0 4.6 2.1 4.6 4.7S-328.1 213-330.6 213L-330.6 213z"/>
                <path id="Fill-5" class="st2" d="M-260.2 198.9c-1.9-1.3-5.3-3.1-11.6-5 0 0-5.9-3.2-11.5-6.3 0 0-8.7-5.1-12.6-5.9 -1.7-0.3-3.3-0.9-5-0.9 -8.3-0.1-22.9-1.2-33.1 1.6 -1 0.3-1.8 0.9-2.3 1.8l-4.6 7.9c-0.5 0.8-0.8 1.7-0.9 2.7l-0.3 3.3v7.1c0 0 0.6 2.8 3.1 3.7 0-0.2 0-0.5 0-0.8 0-5.1 4.3-9.1 9.3-8.6 3.8 0.4 6.9 3.4 7.5 7.2 0.2 1.4 0.1 2.6-0.2 3.8h37.4c-0.3-1.2-0.4-2.5-0.2-3.8 0.6-3.8 3.7-6.8 7.5-7.2 5-0.5 9.3 3.5 9.3 8.6 0 0.8-0.1 1.7-0.3 2.4l8.4-0.7c0 0 2.4-1.4 2.4-3.3V203C-258.1 201.3-258.9 199.8-260.2 198.9L-260.2 198.9zM-326.9 193.9h-6c0 0-5.3-1.2-0.5-7.7 0 0 2-2.7 8.7-3.1L-326.9 193.9 -326.9 193.9zM-320.8 200.3h3.1v1.1h-3.1V200.3zM-306.5 193.9h-18.1l1.9-10.8h16.3V193.9L-306.5 193.9zM-304 200.3h3.1v1.1h-3.1V200.3zM-288 193.9h-16.3v-10.8c11.6 0 16.3 5 16.3 5V193.9L-288 193.9zM-280.6 193.9h-4.9v-4.1l4.9 3.2C-279.6 193.8-280.6 193.9-280.6 193.9L-280.6 193.9z"/>
              </g>
              <path class="st2" d="M-300 250.9h-2.8v1.2l0.9 0.1 -0.4 6.5c0 0.2-0.2 0.4-0.4 0.4l-0.5 0v1.1h3.3V259l-0.9 0 0.3-5.2h0l2.1 5.5h1.3l2.2-5.6h0l0.3 4.9c0 0.3-0.1 0.4-0.4 0.4l-0.5 0v1.1h3.4V259l-0.9 0 -0.4-6.4c0-0.4 0.2-0.5 0.4-0.5l0.5 0v-1.1h-2.8l-2.4 6.3h0L-300 250.9zM-291.3 260.2h3.9V259l-1.3 0v-2h1.2c2.1 0 3.6-1.1 3.6-3.2 0-1.9-1.3-2.9-3.3-2.9h-4v1.2l0.8 0v6.5c0 0.3-0.2 0.4-0.4 0.4l-0.5 0V260.2zM-288.7 255.6v-3.3h0.9c1.4 0 2.2 0.2 2.2 1.7 0 1.2-0.8 1.7-2 1.7H-288.7zM-282.2 252.5c-0.1-0.3 0.1-0.5 0.4-0.5l0.5 0v-1.1h-3.6v1.2l0.8 0 2.9 8.1h1.8l2.6-7.7c0.1-0.3 0.2-0.4 0.4-0.4l0.5 0v-1.1h-3.2v1.2l0.9 0.1 -2 6.1h-0.1L-282.2 252.5zM-274.6 254.2c0.3 0.1 0.3 0.2 0.3 0.5v0.6l1.3-0.1v-1.7c-0.5-0.3-1.4-0.6-2.3-0.6 -1.5 0-2.7 0.8-2.7 2.2 0 1.6 1.1 1.9 2.2 2.2 0.8 0.2 1.4 0.3 1.4 1 0 0.6-0.4 0.9-1.1 0.9 -0.3 0-0.7 0-0.9-0.1 -0.3-0.1-0.3-0.2-0.3-0.5v-0.7l-1.3 0.1v1.9c0.6 0.3 1.7 0.4 2.6 0.4 1.5 0 2.7-0.8 2.7-2.2 0-1.5-1.2-1.9-2.3-2.2 -0.7-0.2-1.3-0.4-1.3-1 0-0.6 0.4-0.8 1.1-0.8C-275.1 254.1-274.9 254.1-274.6 254.2L-274.6 254.2z"/>
            </g>
          </g>
        </g>
      </g>
    </g>
  </g>
</svg>
