<svg xmlns="http://www.w3.org/2000/svg" version="1.1" x="0" y="0" width="40" height="40" viewBox="-379 216 40 40" xml:space="preserve"><style type="text/css">
	.st0{fill:#FFFFFF;}
	.st1{fill:#313133;stroke:#313133;stroke-width:2;}
	.st2{fill:#A8DC28;}
</style><circle class="st0" cx="-359" cy="236" r="18"/><circle class="st0" cx="-359" cy="236" r="18"/><title>icon my favourites</title><desc>Created with Sketch.</desc><g transform="translate(-456.000000, -2381.000000)"><g transform="translate(447.000000, 518.000000)"><g transform="translate(0.000000, 1856.000000)"><g transform="translate(11.000000, 0.000000)"><g transform="translate(0.000000, 9.000000)"><circle class="st1" cx="-361" cy="234" r="18"/><circle class="st1" cx="-361" cy="234" r="18"/><path class="st2" d="M-355 224.6c2.2 0.2 4.6 2.2 5 6v1.3c-0.3 3.6-3 8.1-11 13.7 -8-5.6-10.7-10.1-11-13.7v-1.3c0.3-3.8 2.8-5.8 5-6 0.4 0 0.7-0.1 1-0.1 2.5 0 3.7 1.1 5.1 2.7 1.4-1.6 2.6-2.7 5.1-2.7C-355.6 224.5-355.3 224.5-355 224.6z"/></g></g></g></g></g></svg>