<svg xmlns="http://www.w3.org/2000/svg" version="1.1" x="0" y="0" width="40" height="40" viewBox="-379 216 40 40" xml:space="preserve"><style type="text/css">
	.st0{fill:#313133;stroke:#313133;stroke-width:2;}
	.st1{fill:#A8DC28;}
</style><title>paypal-icon</title><desc>Created with Sketch.</desc><circle class="st0" cx="-359" cy="236" r="18"/><path class="st1" d="M-351.9 237.4c-1 0.7-2.4 1.1-4.2 1.1h-0.8c-0.7 0-1.2-0.6-1-1.2l1-4.2c0.2-0.7 0.9-1.2 1.6-1.2l1.1 0c1.3 0 2.2 0.2 2.9 0.6 0.6 0.4 1 1.1 0.9 1.9C-350.4 235.6-350.9 236.6-351.9 237.4M-344.7 230.9c-0.4-0.8-1-1.4-1.8-1.9 -0.8-0.5-1.8-0.8-2.9-1 -1.1-0.2-2.4-0.3-3.9-0.3l-6.9 0c-0.7 0-1.4 0.6-1.6 1.2l-4.7 19.9c-0.2 0.7 0.3 1.2 1 1.2h3.3c0.7 0 1.4-0.5 1.6-1.2l1.1-4.8c0.2-0.7 0.9-1.2 1.6-1.2h0.9c4 0 7.2-0.8 9.4-2.4 2.3-1.6 3.4-3.8 3.4-6.4C-344.1 232.6-344.3 231.6-344.7 230.9"/></svg>