<svg xmlns:sketch="http://www.bohemiancoding.com/sketch/ns" xmlns="http://www.w3.org/2000/svg" xmlns:xlink="http://www.w3.org/1999/xlink" version="1.1" id="Layer_1" x="0px" y="0px" width="81px" height="81px" viewBox="-359 195 81 81" xml:space="preserve" enable-background="new -359 195 81 81">
  <style type="text/css">
    
	.st0{fill:#FFFFFF;}
	.st1{fill:#313133;}
	.st2{fill:none;stroke:#B0D253;stroke-width:2;}
	.st3{fill:none;stroke:#B0D253;stroke-width:1.5;stroke-linecap:round;stroke-linejoin:round;stroke-dasharray:1,4;}
	.st4{fill:#A8DC28;}
	.st5{fill:#EFEFEF;stroke:#313133;stroke-width:2;}
	.st6{fill:none;}
	.st7{filter:url(#Adobe_OpacityMaskFilter);}
	.st8{mask:url(#mask-4);}
	.st9{fill:#EFEFEF;}

  </style>
  <g>
    <path id="path-1" class="st0" d="M-318 268.8c18.5 0 33.5-15 33.5-33.5 0-18.5-15-33.5-33.5-33.5s-33.5 15-33.5 33.5C-351.5 253.8-336.5 268.8-318 268.8L-318 268.8z"/>
  </g>
  <title>
    NCAP icon
  </title>
  <desc>
    Created with Sketch.
  </desc>
  <g id="Ad-details" sketch:type="MSPage">
    <g id="Desktop-HD-Ad-details-22" transform="translate(-322.000000, -1536.000000)" sketch:type="MSArtboardGroup">
      <g id="Ad-preview" transform="translate(183.000000, 447.000000)" sketch:type="MSLayerGroup">
        <g id="ad" transform="translate(0.000000, 22.000000)">
          <g id="Details" transform="translate(0.000000, 953.000000)">
            <g id="Group_1_" transform="translate(19.000000, 73.000000)">
              <g id="NCAP-2" transform="translate(1.000000, 43.000000)">
                <g id="NCAP-icon" transform="translate(121.000000, 0.000000)">
                  <g id="Group" sketch:type="MSShapeGroup">
                    <path id="Fill-1" class="st1" d="M-282.2 233.3c0-20.9-17.2-37.9-38.3-37.9s-38.3 17-38.3 37.9c0 20.9 17.2 37.9 38.3 37.9S-282.2 254.2-282.2 233.3z"/>
                    <path id="Stroke-3" class="st2" d="M-320.5 271.2c21.1 0 38.3-17 38.3-37.9 0-20.9-17.2-37.9-38.3-37.9s-38.3 17-38.3 37.9C-358.8 254.2-341.6 271.2-320.5 271.2L-320.5 271.2z"/>
                    <path id="Stroke-6" class="st3" d="M-289.9 247.9c2.2-4.4 3.4-9.4 3.4-14.6 0-18.5-15.2-33.6-33.9-33.6s-33.9 15.1-33.9 33.6c0 14.4 9.3 26.8 22.2 31.5 3.7 1.3 7.6 2.1 11.7 2.1C-307.1 266.8-295.4 259.1-289.9 247.9z"/>
                    <path id="Stroke-15" class="st3" d="M-359 195"/>
                  </g>
                  <g id="car-icon-3-_x2B_-Imported-Layers" transform="translate(5.000000, 4.000000)">
                    <g id="car-icon-3" transform="translate(15.226033, 12.559800)" sketch:type="MSShapeGroup">
                      <path id="Fill-2" class="st4" d="M-325.8 214.6c0 1.7-1.4 3.1-3.2 3.1 -1.8 0-3.2-1.4-3.2-3.1 0-1.7 1.4-3.1 3.2-3.1C-327.2 211.5-325.8 212.9-325.8 214.6L-325.8 214.6 -325.8 214.6zM-327.4 208.2l-25.6 0 2.3-10.1c0 0 5.2-1.1 10.5-1.1 5.2 0 10.5 1.1 10.5 1.1L-327.4 208.2 -327.4 208.2zM-351.4 211.5c1.8 0 3.2 1.4 3.2 3.1 0 1.7-1.4 3.1-3.2 3.1 -1.8 0-3.2-1.4-3.2-3.1C-354.6 212.9-353.2 211.5-351.4 211.5L-351.4 211.5 -351.4 211.5zM-321.6 203.2c0-0.7-0.5-1.1-1.2-1.1l-2.3 0 0 4.5 -0.6 0 -1.7-10.1c0 0-6.4-1.1-12.8-1.1 -6.4 0-12.8 1.1-12.8 1.1l-1.7 10.1 -0.6 0 0-4.5 -2.3 0c-0.7 0-1.2 0.4-1.2 1.1l0 4.5c0 0.7 0.5 1 1.2 1l2.3 0.1 0.2 0 -0.2 1.1c-1.3 0-2.3 1-2.3 2.2l0 5.6c0 1.2 1 2.2 2.3 2.2l0 2.1c0 0.7 0.5 1.2 1.2 1.2l3.5 0c0.6 0 1.2-0.5 1.2-1.2l0-2.1 18.6 0 0 2.1c0 0.7 0.5 1.2 1.2 1.2l3.5 0c0.6 0 1.2-0.5 1.2-1.2l0-2.1c1.3 0 2.3-1 2.3-2.2l0-5.6c0-1.2-1-2.2-2.3-2.2l-0.2-1.1 0.2 0 2.3-0.1c0.7 0 1.2-0.3 1.2-1L-321.6 203.2 -321.6 203.2z"/>
                      <ellipse id="Oval-23" class="st5" cx="-351.7" cy="214.7" rx="2.2" ry="2.2"/>
                      <ellipse id="Oval-24" class="st5" cx="-330" cy="214.7" rx="2.2" ry="2.2"/>
                    </g>
                    <g id="Imported-Layers">
                      <g id="Mask" sketch:type="MSShapeGroup">
                        <path id="path-1_1_" class="st6" d="M-325 262.8c18.5 0 33.5-15 33.5-33.5 0-18.5-15-33.5-33.5-33.5s-33.5 15-33.5 33.5C-358.5 247.8-343.5 262.8-325 262.8L-325 262.8z"/>
                      </g>
                    </g>
                  </g>
                  <g id="hands" transform="translate(8.000000, 8.000000)">
                    <g id="Fill-1-_x2B_-Fill-2">
                      <g id="Mask_1_" sketch:type="MSShapeGroup">
                        <path id="path-3_1_" class="st6" d="M-298.6 225.3c0-16.3-13.4-29.6-29.9-29.6s-29.9 13.3-29.9 29.6c0 16.3 13.4 29.6 29.9 29.6S-298.6 241.6-298.6 225.3z"/>
                      </g>
                      <defs>
                        <filter id="Adobe_OpacityMaskFilter" filterUnits="userSpaceOnUse" x="-357.7" y="220.1" width="58.3" height="35">
                          <feColorMatrix type="matrix" values="1 0 0 0 0  0 1 0 0 0  0 0 1 0 0  0 0 0 1 0"/>
                        </filter>
                      </defs>
                      <mask maskUnits="userSpaceOnUse" x="-357.7" y="220.1" width="58.3" height="35" id="mask-4">
                        <g class="st7">
                          <path id="path-3" class="st0" d="M-298.6 225.3c0-16.3-13.4-29.6-29.9-29.6s-29.9 13.3-29.9 29.6c0 16.3 13.4 29.6 29.9 29.6S-298.6 241.6-298.6 225.3z"/>
                        </g>
                      </mask>
                      <g sketch:type="MSShapeGroup" class="st8">
                        <g transform="translate(1.000000, 25.000000)">
                          <path id="Fill-1_1_" class="st9" d="M-336.8 214.2c-0.3-0.2-2.3-1.7-7.9-2 -0.3 0-0.6-0.2-0.9-0.4 -0.3-0.2-0.7-0.5-1-0.8 -0.4-0.5-0.9-0.9-1.3-1.5 -2.7-3.7-5.4-4.4-5.8-4.6 -0.5-0.2-2.6 0.1-1.6 1.4 0.1 0 3.1 4.2 3.3 4.5 0.4 0.6 0.7 0.8 1.1 1.2 0.3 0.4 0.7 0.7 1.1 1.1 0 0-2-1.1-2.4-1.6 -0.2-0.2-0.3-0.5-0.5-0.8 -0.2-0.3-0.4-0.6-0.6-0.9 -0.3-0.4-0.5-0.7-0.8-1.1 -0.4-0.4-0.7-0.9-1.1-1.3 -0.2-0.3-0.5-0.5-0.7-0.8 -0.9-1.4 0.1-2.3 1.1-2.4 0-0.2-0.5-4.4-0.6-5.2 -0.2-2.1-0.5-3.6-1.7-4 -0.3-0.1-0.5-0.1-0.8 0.2 -0.3 0.3-0.4 1.8-0.5 2.7 0 0-0.5 5.1-0.4 7.4 0.1 1.3 4.1 10 5.3 11.4 1.2 1.4 10.3 6.5 10.3 6.5 0.3 0.2 2 1.5 2 3.2v3.6l9.9 0 0-3.3c0-0.6 0.1-1.2 0.2-1.8 0.2-0.7 0-2-0.1-2.5C-332.1 217.5-336.3 214.6-336.8 214.2"/>
                          <path id="Fill-2_1_" class="st9" d="M-300.8 198.1c-0.1-0.9-0.2-2.4-0.5-2.7 -0.2-0.2-0.5-0.3-0.8-0.2 -1.2 0.4-1.4 1.9-1.7 4 -0.1 0.7-0.5 5-0.6 5.2 1 0.1 2.1 1 1.1 2.4 -0.2 0.3-0.4 0.5-0.7 0.8 -0.4 0.4-0.7 0.9-1.1 1.3 -0.3 0.4-0.5 0.7-0.8 1.1 -0.2 0.3-0.4 0.6-0.6 0.9 -0.2 0.3-0.3 0.6-0.5 0.8 -0.5 0.5-2.4 1.6-2.4 1.6 0.3-0.4 0.7-0.7 1.1-1.1 0.4-0.4 0.8-0.7 1.1-1.2 0.2-0.3 3.3-4.5 3.3-4.5 1-1.3-1.1-1.6-1.6-1.4 -0.4 0.1-3.1 0.9-5.8 4.6 -0.4 0.6-0.9 1-1.3 1.5 -0.3 0.3-0.6 0.5-1 0.8 -0.3 0.2-0.6 0.4-0.9 0.4 -5.6 0.4-7.6 1.8-7.9 2 -0.5 0.3-4.7 3.3-5.8 8.2 -0.1 0.5-0.3 1.8-0.1 2.5 0.1 0.6 0.2 1.2 0.2 1.8l0 3.3 9.9 0v-3.6c0-1.7 1.7-2.9 2-3.2 0 0 9.2-5.1 10.3-6.5s5.2-10.1 5.3-11.4C-300.2 203.1-300.8 198.1-300.8 198.1"/>
                        </g>
                      </g>
                    </g>
                  </g>
                </g>
              </g>
            </g>
          </g>
        </g>
      </g>
    </g>
  </g>
</svg>
