<svg xmlns:sketch="http://www.bohemiancoding.com/sketch/ns" xmlns="http://www.w3.org/2000/svg" xmlns:xlink="http://www.w3.org/1999/xlink" version="1.1" id="Layer_1" x="0" y="0" width="177" height="36" viewBox="0 0 177 36" xml:space="preserve" enable-background="new 0 0 177 36">
  <style type="text/css">
    
	.st0{fill:#313133;}
	.st1{fill:#A8DC28;}
	.st2{fill:#FFFFFF;}

  </style>
  <title>
    Fad logo
  </title>
  <desc>
    Created with Sketch Beta.
  </desc>
  <g id="Foundations" sketch:type="MSPage">
    <g id="Header-navigation" transform="translate(-180.000000, -438.000000)" sketch:type="MSArtboardGroup">
      <g id="Search-bar-3-_x2B_-Navigation-Menu-4" transform="translate(-2.000000, 274.000000)" sketch:type="MSLayerGroup">
        <g id="Fad-logo" transform="translate(182.000000, 164.000000)" sketch:type="MSShapeGroup">
          <path id="Fill-1" class="st0" d="M144 19.6l2.8-8.4h0.1l2.7 8.4H144L144 19.6zM154.9 24.6L148.9 8h-6.5v2.3l1.7 0.2 -4.9 13.4c-0.2 0.5-0.3 0.7-0.8 0.8l-0.9 0.1v2.4h7v-2.5l-1.9 0.1 0.8-2.4h7l0.6 1.6c0.2 0.6 0.1 0.7-0.5 0.7l-1 0v2.4h7.6v-2.5L154.9 24.6 154.9 24.6 154.9 24.6z"/>
          <path id="Fill-2" class="st0" d="M167.3 24.6h-2.8V10.8h2.4c3.2 0 5.8 1.5 5.8 6.7C172.7 22.2 170.7 24.6 167.3 24.6M167.1 8H159v2.4l1.7 0.1v13.4c0 0.6-0.3 0.7-0.8 0.8l-0.9 0.1v2.4h8.2c4.8 0 9.1-2.7 9.1-10.2C176.4 10.9 172.8 8 167.1 8"/>
          <path id="Fill-3" class="st1" d="M129.1 17.5c0 1.3-1.1 2.4-2.5 2.4 -1.4 0-2.5-1.1-2.5-2.4 0-1.3 1.1-2.4 2.5-2.4C128 15 129.1 16.1 129.1 17.5M133.2 15L121.8 1.6c-0.8-0.9-1.9-1.4-3.1-1.4H0.5v35.2h118.2c1.5 0 2.8-0.8 3.5-1.9l11.1-13.5C134.5 18.5 134.5 16.4 133.2 15"/>
          <path id="Fill-4" class="st2" d="M10.5 25.1l1-0.1c0.5-0.1 0.9-0.2 0.9-0.8V10.7l-1.7-0.1V8.1h14.5v4.8l-3.1 0.2V12c0-0.6-0.1-0.9-0.9-0.9H16v5.1h7.4v3H16v5.7l2.7 0.1v2.5h-8.2V25.1"/>
          <path id="Fill-5" class="st2" d="M36.7 17.1c2.6 0 3.7-1.1 3.7-3.2 0-2.6-1.6-2.9-4.1-2.9h-2.2v6.1H36.7L36.7 17.1zM28.6 25.1l1-0.1c0.5-0.1 0.9-0.2 0.9-0.8V10.7l-1.7-0.1V8.1H37c4.4 0 7.2 1.4 7.2 5.3 0 2.9-2 4.5-3.6 5.1 0.8 0.3 1.3 0.8 1.7 1.8l2.2 4.6 1.7 0.1v2.5h-7.4v-2.4l0.9-0.1c0.7-0.1 0.8-0.3 0.6-0.9l-1.4-2.9c-0.4-0.9-0.8-1.3-1.9-1.3h-2.7v5.1l2 0.1v2.5h-7.5V25.1L28.6 25.1z"/>
          <path id="Fill-6" class="st2" d="M51.5 10.7l-1.7-0.1V8.1H57v2.4l-1 0.1c-0.5 0.1-0.9 0.2-0.9 0.9v13.4l1.7 0.1v2.5h-7.3v-2.4l1-0.1c0.6-0.1 0.9-0.2 0.9-1V10.7"/>
          <path id="Fill-7" class="st2" d="M66.6 24.6h3.1c3.4 0 5.5-2.4 5.5-7 0-5.2-2.6-6.7-5.9-6.7h-2.7V24.6L66.6 24.6zM61.1 25.1l1-0.1c0.5-0.1 0.9-0.2 0.9-0.8V10.7l-1.7-0.1V8.1h8.2c5.7 0 9.4 2.9 9.4 9 0 7.6-4.4 10.3-9.2 10.3h-8.5V25.1L61.1 25.1z"/>
          <path id="Fill-8" class="st2" d="M87.2 19.7h5.6L90 11.4H90L87.2 19.7 87.2 19.7zM87.1 10.7l-1.9-0.2V8.1h6.9l6.1 16.8h0L100 25v2.5h-7.7v-2.4l1.1-0.1c0.6-0.1 0.9-0.2 0.7-0.9l-0.6-1.8h-7l-0.9 2.6 1.8 0.1v2.5h-6.9v-2.4l1-0.1c0.5-0.1 0.7-0.3 0.9-0.8L87.1 10.7 87.1 10.7z"/>
          <path id="Fill-9" class="st2" d="M105.7 20.1l-5.1-9.4 -1.4-0.1V8.1h7.3v2.4l-0.9 0.1c-0.7 0.1-0.8 0.5-0.5 1.1l2.6 5.1h0.1l3.3-6 -1.5-0.1V8.1h6.5v2.4l-0.9 0.1c-0.5 0.1-0.7 0.3-1 0.9l-4.7 8.6v4.8l2.3 0.1v2.5h-8.5v-2.4l1.6-0.1c0.6 0 0.9-0.2 0.9-0.8V20.1"/>
        </g>
      </g>
    </g>
  </g>
</svg>
