<svg xmlns:sketch="http://www.bohemiancoding.com/sketch/ns" xmlns="http://www.w3.org/2000/svg" xmlns:xlink="http://www.w3.org/1999/xlink" version="1.1" id="Layer_1" x="0px" y="0px" width="40px" height="40px" viewBox="-379 216 40 40" xml:space="preserve" enable-background="new -379 216 40 40">
  <style type="text/css">
    
	.st0{fill:#313133;stroke:#313133;stroke-width:1.5;}
	.st1{filter:url(#Adobe_OpacityMaskFilter);}
	.st2{fill:#FFFFFF;}
	.st3{mask:url(#mask-2);fill:#A8DC28;}
	.st4{fill:#313133;}
	.st5{fill:#A8DC28;stroke:#313133;stroke-width:2;}

  </style>
  <title>
    newsleter-pref-Icon
  </title>
  <desc>
    Created with Sketch.
  </desc>
  <g id="Dashboard" sketch:type="MSPage">
    <g id="Dashboard---Account-Closed" transform="translate(-455.000000, -725.000000)" sketch:type="MSArtboardGroup">
      <g id="newsletter-preferences" transform="translate(457.000000, 718.000000)" sketch:type="MSLayerGroup">
        <g id="newsleter-pref-Icon" transform="translate(0.000000, 9.000000)">
          <circle id="Oval-795-Copy-4" sketch:type="MSShapeGroup" class="st0" cx="-361" cy="234" r="18"/>
          <g id="Fill-2">
            <g id="Mask" sketch:type="MSShapeGroup">
              <circle id="path-1_1_" class="st0" cx="-361" cy="234" r="18"/>
            </g>
            <defs>
              <filter id="Adobe_OpacityMaskFilter" filterUnits="userSpaceOnUse" x="-382.3" y="227.5" width="31.3" height="24.5">
                <feColorMatrix type="matrix" values="1 0 0 0 0  0 1 0 0 0  0 0 1 0 0  0 0 0 1 0"/>
              </filter>
            </defs>
            <mask maskUnits="userSpaceOnUse" x="-382.3" y="227.5" width="31.3" height="24.5" id="mask-2">
              <g class="st1">
                <circle id="path-1" class="st2" cx="-361" cy="234" r="18"/>
              </g>
            </mask>
            <path sketch:type="MSShapeGroup" class="st3" d="M-366.6 242.2L-366.6 242.2c0.2 0 0.5-0.1 0.7-0.2l0.1 0c0 0 0 0 0 0l0.6-0.6 14.2-13.8c0 0-0.1-0.1-0.1-0.1h-30.9c0 0-0.1 0-0.1 0l14.9 14.4C-367.1 242.1-366.9 242.2-366.6 242.2L-366.6 242.2zM-382.3 229.4v20.4l10.7-10.1L-382.3 229.4 -382.3 229.4zM-361.6 239.8l10.6 10v-20.3L-361.6 239.8 -361.6 239.8zM-365 243.1c-0.4 0.4-1 0.6-1.6 0.6s-1.1-0.2-1.6-0.6l-2.4-2.4 -11.7 11.1v0c0 0.1 0.1 0.2 0.2 0.2h30.9c0.1 0 0.2-0.1 0.2-0.2v0l-11.7-11L-365 243.1 -365 243.1z"/>
          </g>
          <path id="Fill-3" sketch:type="MSShapeGroup" class="st4" d="M-356.8 225.5h5.8v5.8h-5.8V225.5z"/>
          <path id="Fill-4" sketch:type="MSShapeGroup" class="st5" d="M-354.5 235.6c-0.6 0-1.1-0.5-1.1-1.1v-0.6c0-0.1-0.1-0.1-0.1-0.1l-0.5 0.4c-0.2 0.2-0.5 0.3-0.8 0.3 -0.3 0-0.6-0.1-0.8-0.3l-1.3-1.4c-0.2-0.2-0.3-0.5-0.3-0.8 0-0.3 0.1-0.6 0.3-0.8l0.2-0.2c0 0 0-0.2 0-0.2 0-0.1-0.1-0.2-0.2-0.2h-0.3c-0.6 0-1.1-0.5-1.1-1.1v-1.9c0-0.6 0.5-1.2 1.1-1.2h0.3c0 0 0.1-0.1 0.2-0.2 0-0.1 0-0.2 0-0.2l-0.2-0.2c-0.4-0.5-0.4-1.2 0-1.7l1.3-1.4c0.2-0.2 0.5-0.3 0.8-0.3 0.3 0 0.6 0.1 0.8 0.4l0.2 0.2 0.1 0c0.1 0 0.3-0.1 0.3-0.2v-0.3c0-0.6 0.5-1.2 1.1-1.2h1.8c0.6 0 1.1 0.5 1.1 1.2v0.3c0 0 0 0.1 0.1 0.1 0.1 0 0.1 0.1 0.2 0.1l0 0 0.1 0 0.2-0.2c0.2-0.2 0.5-0.3 0.8-0.3 0.3 0 0.6 0.1 0.8 0.3l1.3 1.4c0.4 0.5 0.4 1.2 0 1.6l-0.3 0.3c0 0 0 0.1 0 0.2 0 0.1 0.1 0.2 0.2 0.2h0.3c0.6 0 1.1 0.5 1.1 1.2v1.9c0 0.6-0.5 1.1-1.1 1.1h-0.3c0 0-0.1 0.1-0.2 0.2 0 0.1 0 0.2 0 0.2l0.2 0.3c0.2 0.2 0.3 0.5 0.3 0.8 0 0.3-0.1 0.6-0.3 0.8l-1.3 1.4c-0.2 0.2-0.5 0.3-0.8 0.3 -0.3 0-0.6-0.1-0.8-0.3l-0.4-0.4c0 0-0.1 0-0.1 0 -0.1 0-0.1 0-0.1 0.1v0.6c0 0.6-0.5 1.1-1.1 1.1H-354.5L-354.5 235.6zM-353.5 226.4c-1.1 0-2 0.9-2 2.1 0 1.1 0.9 2.1 2 2.1 1.1 0 2-0.9 2-2.1C-351.6 227.3-352.4 226.4-353.5 226.4L-353.5 226.4z"/>
          <path id="Fill-5" sketch:type="MSShapeGroup" class="st4" d="M-352.6 221.7c0.3 0 0.6 0.3 0.6 0.7v0.3c0 0.4 0.4 0.7 0.7 0.7 0.2 0 0.3-0.1 0.4-0.2l0.2-0.2c0.1-0.1 0.3-0.2 0.4-0.2 0.2 0 0.3 0.1 0.4 0.2l1.3 1.4c0.2 0.2 0.2 0.7 0 0.9l-0.2 0.2c-0.4 0.4 0 1.3 0.5 1.3h0.3c0.3 0 0.6 0.3 0.6 0.7v1.9c0 0.4-0.3 0.6-0.6 0.6h-0.3c-0.5 0-0.9 0.9-0.5 1.3l0.2 0.2c0.2 0.2 0.2 0.7 0 0.9l-1.3 1.4c-0.1 0.1-0.3 0.2-0.4 0.2 -0.2 0-0.3-0.1-0.4-0.2l-0.4-0.4c-0.1-0.1-0.3-0.2-0.4-0.2 -0.3 0-0.6 0.3-0.6 0.6v0.6c0 0.4-0.3 0.6-0.6 0.6h-1.8c-0.3 0-0.6-0.3-0.6-0.6v-0.6c0-0.4-0.3-0.7-0.6-0.7 -0.1 0-0.3 0.1-0.4 0.2l-0.4 0.4c-0.1 0.1-0.3 0.2-0.4 0.2 -0.2 0-0.3-0.1-0.4-0.2l-1.3-1.4c-0.2-0.2-0.2-0.7 0-0.9l0.2-0.2c0.4-0.4 0.1-1.3-0.5-1.3h-0.3c-0.3 0-0.6-0.3-0.6-0.6v-1.9c0-0.4 0.3-0.7 0.6-0.7h0.3c0.5 0 0.9-0.9 0.5-1.3l-0.2-0.2c-0.2-0.3-0.2-0.7 0-0.9l1.3-1.4c0.1-0.1 0.3-0.2 0.4-0.2 0.2 0 0.3 0.1 0.4 0.2l0.2 0.2c0.1 0.1 0.3 0.2 0.4 0.2 0.4 0 0.7-0.3 0.7-0.7v-0.3c0-0.4 0.3-0.7 0.6-0.7H-352.6L-352.6 221.7zM-353.5 231c1.4 0 2.4-1.2 2.4-2.6 0-1.4-1.1-2.6-2.4-2.6 -1.3 0-2.4 1.2-2.4 2.6C-356 229.9-354.9 231-353.5 231L-353.5 231zM-352.6 220.7h-1.8c-0.8 0-1.4 0.6-1.6 1.4 -0.3-0.2-0.6-0.3-0.9-0.3 -0.4 0-0.8 0.2-1.1 0.5l-1.3 1.4c-0.5 0.6-0.6 1.5-0.2 2.2 -0.8 0.1-1.3 0.8-1.3 1.7v1.9c0 0.8 0.6 1.5 1.3 1.6 -0.2 0.3-0.3 0.6-0.3 1 0 0.5 0.2 0.9 0.5 1.2l1.3 1.4c0.3 0.3 0.7 0.5 1.1 0.5 0.3 0 0.6-0.1 0.9-0.3 0.1 0.8 0.8 1.4 1.6 1.4h1.8c0.8 0 1.4-0.6 1.6-1.4 0.3 0.2 0.6 0.3 0.9 0.3 0.4 0 0.8-0.2 1.1-0.5l1.3-1.4c0.6-0.6 0.6-1.5 0.2-2.2 0.8-0.1 1.3-0.8 1.3-1.6v-1.9c0-0.8-0.6-1.6-1.3-1.7 0.2-0.3 0.3-0.6 0.3-1 0-0.4-0.2-0.9-0.5-1.2l-1.3-1.4c-0.3-0.3-0.7-0.5-1.1-0.5 -0.3 0-0.6 0.1-0.9 0.3C-351.2 221.3-351.9 220.7-352.6 220.7L-352.6 220.7zM-353.5 230c-0.8 0-1.5-0.7-1.5-1.6 0-0.9 0.7-1.6 1.5-1.6s1.5 0.7 1.5 1.6C-352.1 229.3-352.7 230-353.5 230L-353.5 230z"/>
        </g>
      </g>
    </g>
  </g>
</svg>
