<svg xmlns="http://www.w3.org/2000/svg" version="1.1" x="0" y="0" width="68" height="69" viewBox="-1383 437.9 68 69" xml:space="preserve"><style type="text/css">
	.st0{fill:#FFFFFF;}
</style><title>placeholder image</title><desc>Created with Sketch.</desc><g transform="translate(-0.247151, 0.647866)"><g transform="translate(9.000000, 0.000000)"><path class="st0" d="M-1358.2 448.2c-6.9 0-12.4 5.3-12.4 11.8 0 6.5 5.6 11.8 12.4 11.8 6.9 0 12.4-5.3 12.4-11.8C-1345.8 453.5-1351.3 448.2-1358.2 448.2L-1358.2 448.2 -1358.2 448.2zM-1351.1 465.8c-3.3 3.7-9.2 4.1-13.1 1 -3.9-3.2-4.4-8.7-1-12.5 3.3-3.7 9.2-4.1 13.1-1C-1348.2 456.5-1347.8 462.1-1351.1 465.8L-1351.1 465.8 -1351.1 465.8zM-1358.2 454.1c-3.4 0-6.2 2.6-6.2 5.9v0c0 0.4 0.3 0.7 0.8 0.7s0.8-0.3 0.8-0.7v0c0-2.4 2.1-4.4 4.7-4.4 0.4 0 0.8-0.3 0.8-0.7C-1357.4 454.5-1357.8 454.1-1358.2 454.1L-1358.2 454.1 -1358.2 454.1zM-1337.3 446.8l-6.7-1.1 -2.1-5.1c-0.7-1.7-2.4-2.8-4.3-2.8h-15.5c-1.9 0-3.6 1.1-4.3 2.8l-2.1 5.1 -6.7 1.1c-2.3 0.4-3.9 2.2-3.9 4.4v22.1c0 2.4 2.1 4.4 4.7 4.4h40.3c2.6 0 4.7-2 4.7-4.4v-22.1C-1333.4 449-1335 447.2-1337.3 446.8L-1337.3 446.8 -1337.3 446.8zM-1336.5 473.3c0 0.8-0.7 1.5-1.6 1.5h-40.3c-0.9 0-1.6-0.7-1.6-1.5v-22.1c0-0.7 0.5-1.3 1.3-1.5l8.4-1.3 2.8-6.6c0.2-0.6 0.8-0.9 1.4-0.9h15.5c0.6 0 1.2 0.4 1.4 0.9l2.8 6.6 8.4 1.3c0.7 0.1 1.3 0.7 1.3 1.5V473.3L-1336.5 473.3z"/></g><g transform="translate(0.000000, 54.000000)"><path class="st0" d="M-1382.7 448.6v-9.3c0-0.3 0.3-0.5 0.9-0.5h0.6c0.5 0 0.8 0.1 1 0.4l3.8 5.9v-5.8c0-0.3 0.3-0.5 0.9-0.5h0.4c0.6 0 0.9 0.2 0.9 0.5v9.3c0 0.3-0.3 0.5-0.9 0.5h-0.6c-0.5 0-0.8-0.1-1-0.4l-3.9-5.9v5.9c0 0.3-0.3 0.5-0.9 0.5h-0.4C-1382.5 449.1-1382.7 448.9-1382.7 448.6L-1382.7 448.6zM-1372.7 444c0-1.7 0.4-3 1.2-3.9s2-1.3 3.5-1.3 2.6 0.4 3.4 1.3c0.8 0.9 1.2 2.2 1.2 3.9s-0.4 3-1.2 3.9c-0.8 0.9-1.9 1.3-3.4 1.3s-2.6-0.4-3.5-1.3S-1372.7 445.7-1372.7 444L-1372.7 444zM-1368 447.3c0.8 0 1.4-0.3 1.8-0.8s0.6-1.4 0.6-2.5 -0.2-1.9-0.6-2.4 -1-0.8-1.8-0.8 -1.4 0.3-1.8 0.8 -0.6 1.4-0.6 2.4 0.2 1.9 0.6 2.5S-1368.8 447.3-1368 447.3L-1368 447.3zM-1358.2 451.6V444c0-0.7 0-1.2-0.1-1.5 -0.1-0.3-0.1-0.5-0.1-0.5 0-0.2 0.2-0.3 0.6-0.3 0.4-0.1 0.7-0.1 0.9-0.1 0.2 0 0.3 0 0.4 0.1 0.1 0 0.1 0.1 0.2 0.2 0 0.1 0.1 0.2 0.1 0.2 0 0.1 0 0.1 0.1 0.3 0 0.1 0 0.2 0.1 0.2 0.2-0.3 0.4-0.6 0.8-0.8 0.3-0.2 0.7-0.3 1.2-0.3 0.8 0 1.5 0.3 2 1s0.8 1.6 0.8 2.9 -0.3 2.2-0.8 2.9c-0.5 0.7-1.3 1.1-2.3 1.1 -0.6 0-1.1-0.1-1.5-0.4v2.9c0 0.3-0.3 0.5-0.9 0.5h-0.4C-1357.9 452.1-1358.2 451.9-1358.2 451.6L-1358.2 451.6zM-1355 447.5c0.9 0 1.3-0.7 1.3-2.2s-0.4-2.2-1.2-2.2c-0.5 0-0.9 0.3-1.2 0.9v3.2C-1355.7 447.4-1355.4 447.5-1355 447.5L-1355 447.5zM-1350 448.6v-10c0-0.3 0.3-0.5 0.9-0.5h0.4c0.6 0 0.9 0.2 0.9 0.5v3.8c0.6-0.7 1.2-1 2-1 1.5 0 2.2 0.8 2.2 2.4v4.9c0 0.3-0.3 0.5-0.9 0.5h-0.4c-0.6 0-0.9-0.2-0.9-0.5V444c0-0.6-0.3-0.9-0.9-0.9 -0.5 0-0.9 0.3-1.2 0.8v4.7c0 0.3-0.3 0.5-0.9 0.5h-0.4C-1349.7 449.1-1350 448.9-1350 448.6L-1350 448.6zM-1342.1 445.3c0-1.3 0.3-2.2 0.9-2.9 0.6-0.7 1.5-1 2.6-1s2 0.3 2.6 1c0.6 0.7 0.9 1.6 0.9 2.9s-0.3 2.2-0.9 2.9c-0.6 0.7-1.5 1-2.6 1s-2-0.3-2.6-1C-1341.8 447.5-1342.1 446.5-1342.1 445.3L-1342.1 445.3zM-1338.6 447.5c0.9 0 1.3-0.7 1.3-2.2 0-1.5-0.4-2.2-1.3-2.2 -0.9 0-1.3 0.7-1.3 2.2C-1339.9 446.8-1339.5 447.5-1338.6 447.5L-1338.6 447.5zM-1330.7 447.5l0.4-0.1c0.1 0 0.2 0.1 0.3 0.4 0.1 0.3 0.1 0.5 0.1 0.6 0 0.5-0.5 0.7-1.4 0.7 -1.4 0-2.1-0.8-2.1-2.4v-3.7h-0.2c-0.3 0-0.4-0.2-0.4-0.7v-0.2c0-0.5 0.1-0.7 0.4-0.7h0.2l0.2-1.4c0-0.3 0.3-0.5 0.8-0.5h0.4c0.5 0 0.7 0.2 0.7 0.5v1.4h0.7c0.3 0 0.4 0.2 0.4 0.7v0.2c0 0.5-0.1 0.7-0.4 0.7h-0.7v3.7C-1331.2 447.3-1331 447.5-1330.7 447.5L-1330.7 447.5zM-1328.9 445.3c0-1.3 0.3-2.2 0.9-2.9 0.6-0.7 1.5-1 2.6-1s2 0.3 2.6 1c0.6 0.7 0.9 1.6 0.9 2.9s-0.3 2.2-0.9 2.9c-0.6 0.7-1.5 1-2.6 1s-2-0.3-2.6-1C-1328.6 447.5-1328.9 446.5-1328.9 445.3L-1328.9 445.3zM-1325.4 447.5c0.9 0 1.3-0.7 1.3-2.2 0-1.5-0.4-2.2-1.3-2.2 -0.9 0-1.3 0.7-1.3 2.2C-1326.7 446.8-1326.3 447.5-1325.4 447.5L-1325.4 447.5zM-1320.8 448.2c0-0.2 0.1-0.4 0.3-0.7 0.2-0.3 0.3-0.4 0.5-0.4 0 0 0.2 0.1 0.5 0.2 0.3 0.1 0.6 0.2 0.9 0.2 0.6 0 0.9-0.2 0.9-0.7 0-0.2-0.1-0.4-0.3-0.6 -0.2-0.1-0.4-0.3-0.7-0.4 -0.3-0.1-0.6-0.2-0.9-0.3 -0.3-0.1-0.5-0.4-0.7-0.7s-0.3-0.7-0.3-1.2c0-0.7 0.2-1.3 0.7-1.7 0.5-0.4 1.1-0.6 2-0.6 0.4 0 0.8 0 1.1 0.1 0.7 0.2 1 0.4 1 0.8 0 0.1-0.1 0.3-0.2 0.6 -0.1 0.3-0.3 0.4-0.4 0.4 0 0-0.2-0.1-0.4-0.2 -0.3-0.1-0.5-0.2-0.8-0.2 -0.5 0-0.8 0.2-0.8 0.5 0 0.2 0.1 0.4 0.3 0.5 0.2 0.1 0.4 0.2 0.7 0.3 0.3 0.1 0.6 0.2 0.9 0.4 0.3 0.1 0.5 0.4 0.7 0.7 0.2 0.3 0.3 0.7 0.3 1.2 0 0.8-0.2 1.4-0.7 1.8 -0.5 0.5-1.1 0.7-1.9 0.7s-1.4-0.1-1.9-0.3S-1320.8 448.5-1320.8 448.2L-1320.8 448.2z"/></g></g></svg>