<svg xmlns="http://www.w3.org/2000/svg" version="1.1" x="0" y="0" width="36" height="36" viewBox="-381 218 36 36" xml:space="preserve"><style type="text/css">
	.st0{fill:#313133;}
	.st1{fill:#A8DC28;}
</style><title>Orders</title><desc>Created with Sketch.</desc><g transform="translate(-876.000000, -352.000000)"><g transform="translate(876.000000, 152.000000)"><g transform="translate(0.000000, 200.000000)"><rect x="-381" y="218" class="st0" width="36" height="36"/><path class="st1" d="M-352.4 229.8l-10.5-3.8c-0.1 0-0.2 0-0.3 0l-10.5 3.7c-0.1 0-0.2 0.1-0.2 0.2 -0.1 0.1-0.1 0.2-0.1 0.3v11.5c0 0.2 0.1 0.4 0.3 0.5l10.5 3.6c0.1 0 0.2 0 0.3 0l10.5-3.6c0.2-0.1 0.4-0.3 0.4-0.5v-11.4C-352 230.1-352.2 229.9-352.4 229.8L-352.4 229.8zM-363 233.4l-7.9-2.7 7.9-2.8 7.5 2.8L-363 233.4 -363 233.4zM-353.9 240.8l-8 2.7V235l8-2.9V240.8L-353.9 240.8z"/></g></g></g></svg>