<svg xmlns:sketch="http://www.bohemiancoding.com/sketch/ns" xmlns="http://www.w3.org/2000/svg" xmlns:xlink="http://www.w3.org/1999/xlink" version="1.1" id="Layer_1" x="0" y="0" width="157" height="158" viewBox="-321 157 157 158" xml:space="preserve" enable-background="new -321 157 157 158">
  <style type="text/css">
    
	.st0{fill:#FFFFFF;}
	.st1{fill:none;stroke:#313133;stroke-width:2;stroke-linecap:round;stroke-linejoin:round;stroke-dasharray:1,4;}
	.st2{fill:#313131;}
	.st3{fill:#313133;}

  </style>
  <title>
    Other pets
  </title>
  <desc>
    Created with Sketch.
  </desc>
  <g id="landing-page" sketch:type="MSPage">
    <g id="Desktop---Landing-Page-Animals" transform="translate(-732.000000, -840.000000)" sketch:type="MSArtboardGroup">
      <g id="Pets" transform="translate(-31.000000, 533.000000)" sketch:type="MSLayerGroup">
        <g id="Other-pets" transform="translate(763.000000, 307.000000)" sketch:type="MSShapeGroup">
          <path id="Fill-1-Copy" class="st0" d="M-242.5 157.2c-43.3 0-78.5 35.2-78.5 78.5 0 43.3 35.2 78.5 78.5 78.5 43.3 0 78.5-35.2 78.5-78.5C-164 192.4-199.2 157.2-242.5 157.2z"/>
          <path id="Stroke-2" class="st1" d="M-178.8 266.6c4.5-9.3 7-19.7 7-30.8 0-39-31.7-70.7-70.7-70.7s-70.7 31.7-70.7 70.7c0 30.4 19.3 56.4 46.3 66.4 7.6 2.8 15.8 4.3 24.4 4.3C-214.5 306.5-190.3 290.2-178.8 266.6L-178.8 266.6z"/>
          <g id="Mink" transform="translate(36.000000, 55.000000)">
            <path id="Shape" class="st2" d="M-255.1 177c1.8 0.4 3.7 0.5 5.6 0.4 2.2-0.1 4.4-0.3 6.6-0.7 2.2-0.4 4.4-1.3 6.7-1.1 4.1 0.4 6.7 4 7.3 7.9 -2.1-1.3-5.1-1.2-7.5-0.9 -3.8 0.4-7.3 1.6-10.9 2.9 -2.8 1-5.2 0.9-7.4-1.2 -0.6-0.5-1.9-3.4-2.5-3.6 -0.9-0.3-3.9 1.5-4.7 1.9 -3.4 1.6-5.2 3.9-9.2 4.4 -1.4 0.2-4.2 0.3-3.1-1.8 0.8-1.4 3.4-2.4 4.8-3.2 -1.3 0-2.7-0.2-3.9-0.7 -1-0.4-1.9-0.9-2.7-1.7 -0.7-0.8-0.7-1.3-1.5-1.6 -0.8-0.2-2.3 0.1-3.1 0.2 -1.4 0.1-2.8 0.1-4.2 0.2 -0.8 0-2.7-0.3-3.4 0 -0.4 0.2-0.9 1-1.3 1.4 -2.3 2.4-6.8 7.7-10.5 6.9 -2-0.4-1.5-1.5-0.2-2.7 1.6-1.4 2.6-2.8 3.5-4.9 -1.2 1.7-2.9 3.2-4.7 4 -0.9 0.4-3.2 1.3-4.1 0.6 -1.1-0.9 1.1-2.4 1.8-3 1.4-1.2 3.1-2 2.2-4.1 -0.6-1.2-1.8-1.8-2.7-2.7 -0.7-0.7-1.2-1.6-1.8-2.4 -1.5-1.8-3-3.1-5.3-3.3 -2.4-0.2-4.8-0.2-7-1.1 -5.7-2.5-0.4-3.9 2-6 1.9-1.7 3.2-3.2 5.9-3.6 2.8-0.3 5.1 1.1 7.5 2.4 4.8 2.7 9.3 4.8 14.6 2.1 4.5-2.4 9.4-4.3 14.5-4.6C-262 156.6-256.5 166.5-255.1 177L-255.1 177z"/>
          </g>
          <path id="Other-Pets" class="st3" d="M-266.5 266.4c0-3.6-1.9-4.8-4-4.8 -2 0-4.2 1.3-4.2 4.8 0 3.2 1.6 4.8 4.1 4.8C-268.2 271.2-266.5 269.6-266.5 266.4L-266.5 266.4zM-272.9 266.3c0-1.7 0.6-3.3 2.4-3.3 1.9 0 2.3 2 2.3 3.4 0 1.7-0.5 3.4-2.3 3.4C-272.5 269.8-272.9 267.9-272.9 266.3L-272.9 266.3zM-264.1 262.5c-0.3 0.8-0.6 1.6-1.6 1.6l-0.1 1h1v3.7c0 1 0 2.3 2.2 2.3 0.7 0 1.4-0.2 1.8-0.5l-0.4-1.1c-0.2 0.1-0.6 0.3-1 0.3 -0.6 0-0.9-0.3-0.9-1.1v-3.7h1.7l0.1-1.2h-1.9v-1.5H-264.1zM-259.5 269.4c0 0.3-0.1 0.4-0.4 0.5l-0.5 0v1.1h3.3v-1.1l-0.8 0v-3.4c0-0.7 0.5-1.4 1.5-1.4 0.9 0 1.1 0.7 1.1 1.5v2.9c0 0.3-0.1 0.4-0.4 0.5l-0.5 0v1.1h3.3v-1.1l-0.8 0v-3.7c0-1.7-0.8-2.4-2.2-2.4 -0.9 0-1.6 0.4-2 1V261h-2.5v1.2l0.5 0c0.3 0 0.4 0.1 0.4 0.4V269.4zM-248.4 263.7c-2.3 0-3.5 1.8-3.5 3.9 0 2.1 0.9 3.5 3.3 3.5 1.3 0 2.2-0.6 2.5-0.8l-0.5-1.1c-0.3 0.2-0.9 0.6-1.8 0.6 -1.2 0-1.7-0.7-1.7-1.7 1.7 0 4-0.4 4-2.5C-246.1 264.4-247.1 263.7-248.4 263.7L-248.4 263.7zM-247.7 265.7c0 1.1-1.5 1.3-2.5 1.3 0-1 0.5-2.1 1.7-2.1C-248 264.9-247.7 265.2-247.7 265.7L-247.7 265.7zM-244.3 269.4c0 0.3-0.1 0.4-0.4 0.5l-0.5 0v1.1h3.8v-1.1l-1.2-0.1v-3.2c0-0.8 0.5-1.4 1.3-1.4 0.2 0 0.3 0 0.4 0.1 0.1 0.1 0.1 0.2 0.1 0.4v0.6l1.3-0.1v-2.1c-0.5-0.2-0.9-0.3-1.3-0.3 -0.9 0-1.7 0.6-2 1.3v-1h-2.4v1.1l0.6 0c0.3 0 0.3 0.1 0.3 0.4V269.4zM-235.9 271h3.9v-1.2l-1.3 0v-2h1.2c2.1 0 3.6-1.1 3.6-3.2 0-1.9-1.3-2.9-3.3-2.9h-4v1.2l0.8 0v6.5c0 0.3-0.2 0.4-0.4 0.4l-0.5 0V271zM-233.3 266.4V263h0.9c1.4 0 2.2 0.2 2.2 1.7 0 1.2-0.8 1.7-2 1.7H-233.3zM-224.1 263.7c-2.3 0-3.5 1.8-3.5 3.9 0 2.1 0.9 3.5 3.3 3.5 1.3 0 2.2-0.6 2.5-0.8l-0.5-1.1c-0.3 0.2-0.9 0.6-1.8 0.6 -1.2 0-1.7-0.7-1.7-1.7 1.7 0 4-0.4 4-2.5C-221.8 264.4-222.8 263.7-224.1 263.7L-224.1 263.7zM-223.4 265.7c0 1.1-1.5 1.3-2.5 1.3 0-1 0.5-2.1 1.7-2.1C-223.7 264.9-223.4 265.2-223.4 265.7L-223.4 265.7zM-219.3 262.5c-0.3 0.8-0.6 1.6-1.6 1.6l-0.1 1h1v3.7c0 1 0 2.3 2.2 2.3 0.7 0 1.4-0.2 1.8-0.5l-0.4-1.1c-0.2 0.1-0.6 0.3-1 0.3 -0.6 0-0.9-0.3-0.9-1.1v-3.7h1.7l0.1-1.2h-1.9v-1.5H-219.3zM-211.9 265c0.3 0.1 0.3 0.2 0.3 0.5v0.6l1.3-0.1v-1.7c-0.5-0.3-1.4-0.6-2.3-0.6 -1.5 0-2.7 0.8-2.7 2.2 0 1.6 1.1 1.9 2.2 2.2 0.8 0.2 1.4 0.3 1.4 1 0 0.6-0.4 0.9-1.1 0.9 -0.3 0-0.7 0-0.9-0.1 -0.3-0.1-0.3-0.2-0.3-0.5v-0.7l-1.3 0.1v1.9c0.6 0.3 1.7 0.4 2.6 0.4 1.5 0 2.7-0.8 2.7-2.2 0-1.5-1.2-1.9-2.3-2.2 -0.7-0.2-1.3-0.4-1.3-1 0-0.6 0.4-0.8 1-0.8C-212.4 264.9-212.2 264.9-211.9 265L-211.9 265z"/>
        </g>
      </g>
    </g>
  </g>
</svg>
