<svg xmlns="http://www.w3.org/2000/svg" version="1.1" x="0" y="0" width="40" height="40" viewBox="-379 216 40 40" xml:space="preserve"><style type="text/css">
	.st0{fill:#313133;stroke:#313133;stroke-width:2;}
	.st1{fill:#A8DC28;}
</style><title>payment-sources-Icon</title><desc>Created with Sketch.</desc><g transform="translate(-455.000000, -575.000000)"><g transform="translate(457.000000, 568.000000)"><g transform="translate(0.000000, 9.000000)"><circle class="st0" cx="-361" cy="234" r="18"/><g transform="translate(7.200000, 2.700000)"><path class="st1" d="M-351.3 229.9l-13.2-13c-0.5-0.5-1.2-0.8-1.9-0.8s-1.4 0.3-1.9 0.8l-7.2 7.1c-1 1-1 2.7 0 3.7l1.2 1.2h2.8l-2.6-2.6c-0.2-0.2-0.2-0.4-0.2-0.5 0-0.1 0-0.3 0.2-0.5l1-0.9 4.5 4.5h4.4l-6.7-6.7 4.1-4.1c0.2-0.2 0.4-0.2 0.5-0.2 0.1 0 0.3 0 0.5 0.2l13.2 13c0.2 0.2 0.2 0.4 0.2 0.5 0 0.1 0 0.3-0.2 0.5l-0.7 0.7v2.7l2.1-2.1C-350.3 232.5-350.3 230.9-351.3 229.9M-357.5 230.1h-18.7c-1.5 0-2.7 1.2-2.7 2.6v7h24v-7C-354.9 231.3-356.1 230.1-357.5 230.1L-357.5 230.1zM-372.4 237.4c-0.5 0-1-0.2-1.3-0.5 -0.3 0.3-0.8 0.5-1.3 0.5 -1.1 0-1.9-0.9-1.9-1.9 0-1.1 0.9-1.9 1.9-1.9 0.5 0 1 0.2 1.3 0.5 0.3-0.3 0.8-0.5 1.3-0.5 1.1 0 1.9 0.9 1.9 1.9C-370.5 236.5-371.3 237.4-372.4 237.4L-372.4 237.4zM-378.9 242.8c0 1.5 1.3 2.6 2.7 2.6h18.7c1.5 0 2.6-1.2 2.6-2.6v-0.2h-24V242.8"/></g></g></g></g></svg>