<svg xmlns:sketch="http://www.bohemiancoding.com/sketch/ns" xmlns="http://www.w3.org/2000/svg" xmlns:xlink="http://www.w3.org/1999/xlink" version="1.1" id="Layer_1" x="0" y="0" width="107" height="29" viewBox="-346 221 107 29" xml:space="preserve" enable-background="new -346 221 107 29">
  <style type="text/css">
    
	.st0{fill:#336699;}
	.st1{fill:#003366;}
	.st2{fill:#FCBA63;}
	.st3{fill:#187FAD;}

  </style>
  <title>
    Paypal
  </title>
  <desc>
    Created with Sketch.
  </desc>
  <g id="PAA" sketch:type="MSPage">
    <g id="Desktop-HD-For-sale-2" transform="translate(-837.000000, -1165.000000)" sketch:type="MSArtboardGroup">
      <g id="Payment-options" transform="translate(-1.000000, 296.000000)" sketch:type="MSLayerGroup">
        <g id="pay-now-with:" transform="translate(401.000000, 719.000000)" sketch:type="MSShapeGroup">
          <g id="PayPal" transform="translate(340.000000, 91.000000)">
            <g id="Paypal" transform="translate(98.000000, 60.000000)">
              <path id="Fill-2" class="st0" d="M-259.5 226.4c-1.1-0.6-2.9-0.9-5.2-0.9 -1.2 0-2.4 0.1-3.6 0.3 -0.9 0.1-1 0.2-1.5 0.3 -1.1 0.2-1.3 1.4-1.3 1.4l-0.4 1.5c-0.2 0.9 0.3 0.9 0.6 0.8 0.5-0.1 0.8-0.3 1.7-0.5 0.9-0.2 2-0.4 2.8-0.4 1.2 0 2.1 0.1 2.7 0.4 0.6 0.3 0.9 0.7 0.9 1.3 0 0.2 0 0.3 0 0.4 0 0.1-0.1 0.2-0.4 0.3 -1.7 0.1-2.9 0.3-4.3 0.5 -1.4 0.2-2.7 0.5-3.7 1 -1.1 0.5-1.9 1.2-2.5 2 -0.6 0.8-0.8 1.9-0.8 3.1 0 1.1 0.4 2.1 1.2 2.8 0.8 0.7 1.8 1.1 3.1 1.1 0.8 0 1.4-0.1 1.8-0.2 0.4-0.1 0.9-0.3 1.4-0.5 0.4-0.2 0.8-0.4 1.2-0.7 0.4-0.3 0.7-0.5 1.1-0.7l0 0 -0.1 0.5c0 0 0 0 0 0l0 0c-0.1 0.6 0.2 1 0.8 1.1l0 0h0l0 0c0.4 0 1.7 0 2.3 0h0.4c0 0 0 0 0 0 0.6-0.1 1.1-0.5 1.3-1.1l2.1-9.2c0-0.2 0.1-0.5 0.1-0.8 0-0.3 0.1-0.5 0.1-0.7C-257.9 228-258.4 227.1-259.5 226.4L-259.5 226.4zM-264.7 237.4c-0.4 0.2-0.7 0.4-1.2 0.6 -0.5 0.2-1.1 0.3-1.5 0.3 -0.7 0-1.3-0.1-1.7-0.3 -0.4-0.2-0.6-0.6-0.6-1.1 0-0.6 0.1-1.1 0.4-1.4 0.3-0.4 0.7-0.6 1.3-0.8 0.5-0.2 1.2-0.3 1.9-0.4 0.7-0.1 2-0.2 2.2-0.2 0.2 0 0.3-0.1 0.2 0.4 0 0.2-0.4 1.8-0.6 2.5C-264.3 237.1-264.6 237.4-264.7 237.4L-264.7 237.4z"/>
              <path id="Fill-3" class="st1" d="M-296.4 225.7c-0.6 0-1.5 0.5-1.8 1.1 0 0-4.2 7.2-4.6 7.9 -0.2 0.4-0.5 0.1-0.5 0 0-0.2-1.3-7.9-1.3-7.9 -0.1-0.6-0.8-1.2-1.6-1.1l-2.6 0c-0.6 0-1 0.5-0.9 1.1 0 0 2 11.4 2.4 14 0.2 1.5 0 1.7 0 1.7l-2.6 4.5c-0.4 0.6-0.2 1.1 0.5 1.1l3 0c0.6 0 1.5-0.5 1.8-1.1l11.7-19.8c0 0 1.1-1.7 0.1-1.7C-293.6 225.7-296.4 225.7-296.4 225.7"/>
              <path id="Fill-4" class="st1" d="M-333.3 229.7c-0.9 0.6-2.1 1-3.7 1h-0.7c-0.6 0-1-0.5-0.9-1.1l0.9-3.8c0.1-0.6 0.8-1.1 1.4-1.1l1 0c1.1 0 2 0.2 2.5 0.6 0.6 0.4 0.9 1 0.8 1.7C-331.9 228.1-332.4 229.1-333.3 229.7M-326.9 223.9c-0.4-0.7-0.9-1.3-1.6-1.7 -0.7-0.4-1.6-0.8-2.5-0.9 -1-0.2-2.1-0.3-3.5-0.3l-6.1 0c-0.6 0-1.3 0.5-1.4 1.1l-4.1 18c-0.1 0.6 0.3 1.1 0.9 1.1h2.9c0.6 0 1.3-0.5 1.4-1.1l1-4.4c0.1-0.6 0.8-1.1 1.4-1.1h0.8c3.6 0 6.4-0.7 8.4-2.2 2-1.5 3-3.4 3-5.8C-326.4 225.4-326.6 224.6-326.9 223.9"/>
              <path id="Fill-5" class="st0" d="M-280 229.8c-0.9 0.6-2.1 1-3.7 1h-0.7c-0.6 0-1-0.5-0.9-1.1l0.9-3.8c0.1-0.6 0.8-1.1 1.4-1.1l1 0c1.1 0 2 0.2 2.5 0.6 0.6 0.4 0.8 1 0.9 1.7C-278.7 228.2-279.1 229.1-280 229.8M-273.7 223.9c-0.4-0.7-0.9-1.3-1.6-1.7 -0.7-0.4-1.6-0.8-2.5-0.9 -1-0.2-2.1-0.3-3.5-0.3l-6.1 0c-0.6 0-1.3 0.5-1.4 1.1l-4.1 18c-0.2 0.6 0.3 1.1 0.9 1.1l2.9 0c0.6 0 1.3-0.5 1.4-1.1l1-4.4c0.1-0.6 0.8-1.1 1.4-1.1h0.8c3.6 0 6.4-0.7 8.4-2.2 2-1.5 3-3.4 3-5.8C-273.1 225.5-273.3 224.6-273.7 223.9"/>
              <path id="Fill-6" class="st1" d="M-312.8 226.4c-1.1-0.6-2.9-0.9-5.2-0.9 -1.2 0-2.4 0.1-3.6 0.3 -0.9 0.1-1 0.2-1.5 0.3 -1.1 0.2-1.3 1.4-1.3 1.4l-0.4 1.5c-0.2 0.9 0.3 0.9 0.6 0.8 0.5-0.1 0.8-0.3 1.7-0.5 0.9-0.2 2-0.4 2.8-0.4 1.2 0 2.1 0.1 2.7 0.4 0.6 0.3 0.9 0.7 0.9 1.3 0 0.2 0 0.3 0 0.4 0 0.1-0.1 0.2-0.4 0.3 -1.7 0.1-2.9 0.3-4.3 0.5 -1.4 0.2-2.7 0.5-3.7 1 -1.1 0.5-1.9 1.2-2.5 2 -0.6 0.8-0.8 1.9-0.8 3.1 0 1.1 0.4 2.1 1.2 2.8 0.8 0.7 1.8 1.1 3.1 1.1 0.8 0 1.4-0.1 1.8-0.2 0.4-0.1 0.9-0.3 1.4-0.5 0.4-0.2 0.8-0.4 1.2-0.7 0.4-0.3 0.7-0.5 1.1-0.7l0 0 -0.1 0.5c0 0 0 0 0 0l0 0c-0.1 0.6 0.2 1 0.8 1.1l0 0h0l0 0c0.4 0 1.7 0 2.3 0h0.4c0 0 0 0 0 0 0.6-0.1 1.1-0.5 1.3-1.1l2.1-9.3c0-0.2 0.1-0.5 0.1-0.8 0-0.3 0.1-0.5 0.1-0.7C-311.1 228-311.7 227-312.8 226.4L-312.8 226.4zM-318 237.4c-0.4 0.2-0.7 0.4-1.2 0.6 -0.5 0.2-1.1 0.3-1.5 0.3 -0.7 0-1.3-0.1-1.7-0.3 -0.4-0.2-0.6-0.6-0.6-1.1 0-0.6 0.1-1.1 0.4-1.4 0.3-0.4 0.7-0.6 1.2-0.8 0.5-0.2 1.2-0.3 1.9-0.4 0.7-0.1 2-0.2 2.2-0.2 0.2 0 0.3-0.1 0.2 0.4 0 0.2-0.4 1.8-0.6 2.5C-317.6 237-317.9 237.4-318 237.4L-318 237.4z"/>
              <path id="Fill-7" class="st2" d="M-248.5 222.2l-3.9 17.8c-0.1 0.6-0.8 1.1-1.4 1.1h-2.6c-0.6 0-1-0.5-0.9-1.1l3.9-17.8c0.1-0.6 0.8-1.1 1.4-1.1"/>
              <path id="Fill-8" class="st3" d="M-257.4 240c0.2-0.6 3.9-17.8 3.9-17.8 0.2-0.6 0.8-1.1 1.4-1.1h2.6c0.6 0 1 0.5 0.9 1.1l-3.9 17.8c-0.1 0.6-0.8 1.1-1.4 1.1h-2.7"/>
              <path id="Fill-9" class="st0" d="M-245.4 224.7c-0.1 0-0.2 0-0.3 0.1 -0.1 0-0.2 0-0.3 0 -0.3 0-0.5-0.1-0.7-0.2 -0.2-0.2-0.2-0.4-0.2-0.8v-1.5h-0.3v-0.4h0.3v-0.8h0.5v0.8h1v0.4h-1v1.3c0 0.1 0 0.3 0 0.3 0 0.1 0 0.2 0.1 0.2 0 0.1 0.1 0.1 0.2 0.2 0.1 0 0.2 0 0.3 0 0.1 0 0.2 0 0.2 0 0.1 0 0.1 0 0.2-0.1h0V224.7"/>
              <path id="Fill-10" class="st0" d="M-240.7 224.8h-0.5v-1.6c0-0.1 0-0.2 0-0.4 0-0.1 0-0.2-0.1-0.3 0-0.1-0.1-0.1-0.2-0.2 -0.1 0-0.2-0.1-0.3-0.1 -0.1 0-0.3 0-0.4 0.1 -0.1 0.1-0.3 0.2-0.4 0.3 0 0 0 0.1 0 0.1s0 0.1 0 0.2v1.8h-0.5v-1.6c0-0.1 0-0.2 0-0.4 0-0.1 0-0.2-0.1-0.3 0-0.1-0.1-0.1-0.2-0.2 -0.1 0-0.2-0.1-0.3-0.1 -0.1 0-0.3 0-0.4 0.1 -0.1 0.1-0.3 0.1-0.4 0.2v2.1h-0.5v-2.9h0.5v0.3c0.2-0.1 0.3-0.2 0.5-0.3 0.1-0.1 0.3-0.1 0.5-0.1 0.2 0 0.4 0 0.5 0.1 0.1 0.1 0.2 0.2 0.3 0.3 0.2-0.2 0.4-0.3 0.5-0.4s0.3-0.1 0.5-0.1c0.3 0 0.5 0.1 0.7 0.3 0.1 0.2 0.2 0.5 0.2 0.8V224.8"/>
            </g>
          </g>
        </g>
      </g>
    </g>
  </g>
</svg>
