<svg xmlns:sketch="http://www.bohemiancoding.com/sketch/ns" xmlns="http://www.w3.org/2000/svg" xmlns:xlink="http://www.w3.org/1999/xlink" version="1.1" id="Layer_1" x="0" y="0" width="71" height="19" viewBox="-1382 462.9 71 19" xml:space="preserve" enable-background="new -1382 462.9 71 19">
  <style type="text/css">
    
	.st0{fill:#FFFFFF;}

  </style>
  <title>
    Paypal 2
  </title>
  <desc>
    Created with Sketch.
  </desc>
  <g id="Ad-details" sketch:type="MSPage">
    <g id="Desktop-HD-Ad-details-21" transform="translate(-1110.000000, -721.000000)" sketch:type="MSArtboardGroup">
      <g id="Ad-preview" transform="translate(174.000000, 447.000000)" sketch:type="MSLayerGroup">
        <g id="Right-bar" transform="translate(742.000000, 0.000000)" sketch:type="MSShapeGroup">
          <g id="Group" transform="translate(20.000000, 173.000000)">
            <g id="Blue--CTA-Contact-6" transform="translate(0.000000, 80.000000)">
              <g id="_x31_8:40:20:40-_x2B_-Paypal-2" transform="translate(56.000000, 20.000000)">
                <g id="Paypal-2" transform="translate(118.000000, 1.000000)">
                  <path id="Fill-2" class="st0" d="M-1324 467.2c-0.7-0.4-1.9-0.6-3.5-0.6 -0.8 0-1.6 0.1-2.4 0.2 -0.6 0.1-0.6 0.1-1 0.2 -0.7 0.2-0.9 0.9-0.9 0.9l-0.2 1c-0.1 0.6 0.2 0.6 0.4 0.5 0.3-0.1 0.5-0.2 1.2-0.3 0.6-0.1 1.3-0.2 1.8-0.2 0.8 0 1.4 0.1 1.8 0.2 0.4 0.2 0.6 0.5 0.6 0.9 0 0.1 0 0.2 0 0.3 0 0.1-0.1 0.1-0.3 0.2 -1.1 0.1-1.9 0.2-2.9 0.3 -0.9 0.1-1.8 0.4-2.5 0.7 -0.7 0.3-1.3 0.8-1.7 1.3 -0.4 0.6-0.6 1.2-0.6 2 0 0.7 0.3 1.4 0.8 1.8 0.5 0.5 1.2 0.7 2.1 0.7 0.5 0 0.9 0 1.2-0.1 0.3-0.1 0.6-0.2 0.9-0.3 0.2-0.1 0.5-0.3 0.8-0.4 0.3-0.2 0.5-0.3 0.7-0.5l0 0 -0.1 0.3c0 0 0 0 0 0l0 0c-0.1 0.4 0.1 0.7 0.5 0.7l0 0h0l0 0c0.2 0 1.1 0 1.5 0h0.3c0 0 0 0 0 0 0.4 0 0.7-0.4 0.8-0.7l1.4-6.1c0-0.1 0.1-0.3 0.1-0.5 0-0.2 0-0.3 0-0.5C-1322.9 468.2-1323.2 467.6-1324 467.2L-1324 467.2zM-1327.4 474.4c-0.2 0.2-0.5 0.3-0.8 0.4 -0.4 0.1-0.7 0.2-1 0.2 -0.5 0-0.9-0.1-1.1-0.2 -0.3-0.1-0.4-0.4-0.4-0.7 0-0.4 0.1-0.7 0.3-0.9 0.2-0.2 0.5-0.4 0.8-0.6 0.4-0.1 0.8-0.2 1.3-0.3 0.4-0.1 1.3-0.2 1.4-0.2 0.1 0 0.2-0.1 0.1 0.2 0 0.1-0.3 1.2-0.4 1.6C-1327.1 474.1-1327.3 474.3-1327.4 474.4L-1327.4 474.4z"/>
                  <path id="Fill-3" class="st0" d="M-1348.4 466.7c-0.4 0-1 0.3-1.2 0.7 0 0-2.8 4.7-3.1 5.2 -0.1 0.3-0.3 0.1-0.3 0 0-0.1-0.9-5.2-0.9-5.2 -0.1-0.4-0.5-0.8-1.1-0.8l-1.7 0c-0.4 0-0.7 0.3-0.6 0.7 0 0 1.3 7.4 1.6 9.2 0.1 1 0 1.1 0 1.1l-1.7 3c-0.3 0.4-0.1 0.7 0.3 0.7l2 0c0.4 0 1-0.3 1.2-0.7l7.8-13c0 0 0.7-1.1 0.1-1.1C-1346.5 466.7-1348.4 466.7-1348.4 466.7"/>
                  <path id="Fill-4" class="st0" d="M-1372.9 469.3c-0.6 0.4-1.4 0.6-2.5 0.6h-0.5c-0.4 0-0.7-0.3-0.6-0.7l0.6-2.5c0.1-0.4 0.5-0.7 0.9-0.7l0.6 0c0.7 0 1.3 0.1 1.7 0.4 0.4 0.2 0.6 0.6 0.6 1.1C-1372 468.3-1372.3 468.9-1372.9 469.3M-1368.7 465.5c-0.2-0.5-0.6-0.8-1.1-1.1 -0.5-0.3-1-0.5-1.7-0.6 -0.7-0.1-1.4-0.2-2.3-0.2l-4.1 0c-0.4 0-0.8 0.3-0.9 0.7l-2.7 11.8c-0.1 0.4 0.2 0.7 0.6 0.7h1.9c0.4 0 0.8-0.3 0.9-0.7l0.7-2.9c0.1-0.4 0.5-0.7 0.9-0.7h0.6c2.4 0 4.2-0.5 5.6-1.4 1.3-1 2-2.2 2-3.8C-1368.3 466.5-1368.4 465.9-1368.7 465.5"/>
                  <path id="Fill-5" class="st0" d="M-1337.6 469.4c-0.6 0.4-1.4 0.6-2.5 0.6h-0.5c-0.4 0-0.7-0.3-0.6-0.7l0.6-2.5c0.1-0.4 0.5-0.7 0.9-0.7l0.6 0c0.7 0 1.3 0.1 1.7 0.4 0.4 0.2 0.6 0.6 0.6 1.1C-1336.7 468.3-1337 468.9-1337.6 469.4M-1333.4 465.5c-0.2-0.5-0.6-0.8-1.1-1.1 -0.5-0.3-1-0.5-1.7-0.6 -0.6-0.1-1.4-0.2-2.3-0.2l-4.1 0c-0.4 0-0.8 0.3-0.9 0.7l-2.7 11.8c-0.1 0.4 0.2 0.7 0.6 0.7l2 0c0.4 0 0.8-0.3 0.9-0.7l0.7-2.9c0.1-0.4 0.5-0.7 0.9-0.7h0.6c2.4 0 4.2-0.5 5.6-1.4 1.3-1 2-2.2 2-3.8C-1333 466.5-1333.1 466-1333.4 465.5"/>
                  <path id="Fill-6" class="st0" d="M-1359.3 467.1c-0.7-0.4-1.9-0.6-3.5-0.6 -0.8 0-1.6 0.1-2.4 0.2 -0.6 0.1-0.6 0.1-1 0.2 -0.7 0.2-0.9 0.9-0.9 0.9l-0.2 1c-0.1 0.6 0.2 0.6 0.4 0.5 0.3-0.1 0.5-0.2 1.2-0.3 0.6-0.1 1.3-0.2 1.8-0.2 0.8 0 1.4 0.1 1.8 0.2 0.4 0.2 0.6 0.5 0.6 0.9 0 0.1 0 0.2 0 0.3 0 0.1-0.1 0.1-0.3 0.2 -1.1 0.1-1.9 0.2-2.9 0.3 -0.9 0.1-1.8 0.4-2.5 0.7 -0.7 0.3-1.3 0.8-1.7 1.3 -0.4 0.6-0.6 1.2-0.6 2 0 0.7 0.3 1.4 0.8 1.8 0.5 0.5 1.2 0.7 2.1 0.7 0.5 0 0.9 0 1.2-0.1 0.3-0.1 0.6-0.2 0.9-0.3 0.2-0.1 0.5-0.3 0.8-0.4 0.3-0.2 0.5-0.3 0.7-0.5l0 0 -0.1 0.3c0 0 0 0 0 0l0 0c-0.1 0.4 0.1 0.7 0.5 0.7l0 0h0l0 0c0.2 0 1.1 0 1.5 0h0.3c0 0 0 0 0 0 0.4 0 0.7-0.4 0.8-0.7l1.4-6.1c0-0.1 0.1-0.3 0.1-0.5 0-0.2 0-0.3 0-0.5C-1358.2 468.2-1358.6 467.6-1359.3 467.1L-1359.3 467.1zM-1362.7 474.4c-0.2 0.2-0.5 0.3-0.8 0.4 -0.4 0.1-0.7 0.2-1 0.2 -0.5 0-0.9-0.1-1.1-0.2 -0.3-0.1-0.4-0.4-0.4-0.7 0-0.4 0.1-0.7 0.3-0.9 0.2-0.2 0.5-0.4 0.8-0.6 0.4-0.1 0.8-0.2 1.3-0.3 0.4-0.1 1.3-0.2 1.4-0.2 0.1 0 0.2-0.1 0.1 0.2 0 0.1-0.3 1.2-0.4 1.6C-1362.5 474.1-1362.7 474.3-1362.7 474.4L-1362.7 474.4z"/>
                  <path id="Fill-7" class="st0" d="M-1316.7 464.4l-2.6 11.7c-0.1 0.4-0.5 0.7-0.9 0.7h-1.7c-0.4 0-0.7-0.3-0.6-0.7l2.6-11.7c0.1-0.4 0.5-0.7 0.9-0.7"/>
                  <path id="Fill-8" class="st0" d="M-1322.5 476.1c0.1-0.4 2.6-11.7 2.6-11.7 0.1-0.4 0.5-0.7 0.9-0.7h1.7c0.4 0 0.7 0.3 0.6 0.7l-2.6 11.7c-0.1 0.4-0.5 0.7-0.9 0.7h-1.8"/>
                  <path id="Fill-9" class="st0" d="M-1314.6 466.1c-0.1 0-0.1 0-0.2 0 -0.1 0-0.1 0-0.2 0 -0.2 0-0.3-0.1-0.4-0.2 -0.1-0.1-0.2-0.3-0.2-0.5v-1h-0.2v-0.3h0.2v-0.5h0.3v0.5h0.7v0.3h-0.7v0.9c0 0.1 0 0.2 0 0.2 0 0.1 0 0.1 0 0.2 0 0 0.1 0.1 0.1 0.1 0 0 0.1 0 0.2 0 0.1 0 0.1 0 0.2 0 0.1 0 0.1 0 0.1 0h0V466.1"/>
                  <path id="Fill-10" class="st0" d="M-1311.5 466.1h-0.3V465c0-0.1 0-0.2 0-0.2 0-0.1 0-0.1 0-0.2 0 0-0.1-0.1-0.1-0.1 0 0-0.1 0-0.2 0 -0.1 0-0.2 0-0.3 0.1 -0.1 0-0.2 0.1-0.3 0.2 0 0 0 0.1 0 0.1s0 0.1 0 0.1v1.2h-0.3V465c0-0.1 0-0.2 0-0.2 0-0.1 0-0.1 0-0.2 0 0-0.1-0.1-0.1-0.1 0 0-0.1 0-0.2 0 -0.1 0-0.2 0-0.3 0.1 -0.1 0-0.2 0.1-0.3 0.2v1.4h-0.3v-1.9h0.3v0.2c0.1-0.1 0.2-0.1 0.3-0.2 0.1 0 0.2-0.1 0.3-0.1 0.1 0 0.2 0 0.3 0.1 0.1 0.1 0.2 0.1 0.2 0.2 0.1-0.1 0.2-0.2 0.4-0.2 0.1 0 0.2-0.1 0.3-0.1 0.2 0 0.4 0.1 0.5 0.2 0.1 0.1 0.1 0.3 0.1 0.5V466.1"/>
                </g>
              </g>
            </g>
          </g>
        </g>
      </g>
    </g>
  </g>
</svg>
