<svg xmlns:sketch="http://www.bohemiancoding.com/sketch/ns" xmlns="http://www.w3.org/2000/svg" xmlns:xlink="http://www.w3.org/1999/xlink" version="1.1" id="Layer_1" x="0" y="0" width="157" height="158" viewBox="-1339 392.9 157 158" xml:space="preserve" enable-background="new -1339 392.9 157 158">
  <style type="text/css">
    
	.st0{fill:#FFFFFF;}
	.st1{fill:none;stroke:#313133;stroke-width:2;stroke-linecap:round;stroke-linejoin:round;stroke-dasharray:1,4;}
	.st2{fill:#313133;}

  </style>
  <title>
    Pet supplies
  </title>
  <desc>
    Created with Sketch.
  </desc>
  <g id="landing-page" sketch:type="MSPage">
    <g id="Desktop---Landing-Page-Animals" transform="translate(-1099.000000, -840.000000)" sketch:type="MSArtboardGroup">
      <g id="Pets" transform="translate(-31.000000, 533.000000)" sketch:type="MSLayerGroup">
        <g id="Pet-supplies" transform="translate(1130.000000, 307.000000)" sketch:type="MSShapeGroup">
          <path id="Fill-1-Copy" class="st0" d="M-1260.5 393.1c-43.3 0-78.5 35.2-78.5 78.5 0 43.3 35.2 78.5 78.5 78.5 43.3 0 78.5-35.2 78.5-78.5C-1182 428.3-1217.2 393.1-1260.5 393.1z"/>
          <path id="Stroke-2" class="st1" d="M-1196.8 502.5c4.5-9.3 7-19.7 7-30.8 0-39-31.7-70.7-70.7-70.7s-70.7 31.7-70.7 70.7c0 30.4 19.3 56.4 46.3 66.4 7.6 2.8 15.8 4.3 24.4 4.3C-1232.5 542.5-1208.3 526.1-1196.8 502.5L-1196.8 502.5z"/>
          <path class="st2" d="M-1229.6 461.9l-5.3-12.6c-1.3-4.9-12.3-8.7-25.7-8.7 -13.3 0-24.4 3.9-25.7 8.8l-5.2 12.4c-0.5 1-0.8 1.9-0.8 2.9 0 6.6 14.2 12 31.8 12 17.5 0 31.8-5.4 31.8-12C-1228.8 463.8-1229.1 462.8-1229.6 461.9zM-1260.6 443.7c15 0 22.8 4.7 22.8 6.7 0 1.9-7.8 6.7-22.8 6.7s-22.8-4.7-22.8-6.7S-1275.7 443.7-1260.6 443.7zM-1249.8 467c0.4 0.5 0.6 1.2 0.6 1.9 0 1.9-1.7 3.4-3.6 3 -1.1-0.2-2-1.1-2.3-2.2 -0.1-0.3-0.1-0.6-0.1-0.9 0-0.5-0.4-1-1-1h-8.8c-0.6 0-1 0.5-1 1 0 1.9-1.7 3.4-3.7 3 -1.2-0.2-2.1-1.2-2.3-2.4 -0.2-0.9 0-1.7 0.5-2.3 0.3-0.4 0.3-0.9 0-1.3 -0.5-0.6-0.7-1.5-0.5-2.3 0.2-1.2 1.2-2.1 2.3-2.4 2-0.4 3.7 1.1 3.7 3 0 0.6 0.4 1 1 1h8.8c0.5 0 1-0.4 1-1 0-0.3 0-0.6 0.1-0.9 0.3-1.1 1.2-1.9 2.3-2.2 1.9-0.4 3.6 1.1 3.6 3 0 0.7-0.2 1.3-0.6 1.9C-1250 466.3-1250 466.7-1249.8 467z"/>
          <path id="Pet-Supplies" class="st2" d="M-1297.8 506.9h3.9v-1.2l-1.3 0v-2h1.2c2.1 0 3.6-1.1 3.6-3.2 0-1.9-1.3-2.9-3.3-2.9h-4v1.2l0.8 0v6.5c0 0.3-0.2 0.4-0.4 0.4l-0.5 0V506.9zM-1295.3 502.3V499h0.9c1.4 0 2.2 0.2 2.2 1.7 0 1.2-0.8 1.7-2 1.7H-1295.3zM-1286 499.7c-2.3 0-3.5 1.8-3.5 3.9 0 2.1 0.9 3.5 3.3 3.5 1.3 0 2.2-0.6 2.5-0.8l-0.5-1.1c-0.3 0.2-0.9 0.6-1.8 0.6 -1.2 0-1.7-0.7-1.7-1.7 1.7 0 4-0.4 4-2.5C-1283.8 500.4-1284.7 499.7-1286 499.7L-1286 499.7zM-1285.3 501.7c0 1.1-1.5 1.3-2.5 1.3 0-1 0.5-2.1 1.7-2.1C-1285.6 500.9-1285.3 501.1-1285.3 501.7L-1285.3 501.7zM-1281.2 498.4c-0.3 0.8-0.6 1.6-1.6 1.6l-0.1 1h1v3.7c0 1 0 2.3 2.2 2.3 0.7 0 1.4-0.2 1.8-0.5l-0.4-1.1c-0.2 0.1-0.6 0.3-1 0.3 -0.6 0-0.9-0.3-0.9-1.1v-3.7h1.7l0.1-1.2h-1.9v-1.5H-1281.2zM-1271.8 505.7c-0.4 0-0.7 0-1-0.1 -0.3-0.1-0.3-0.2-0.3-0.5v-0.9l-1.4 0.1v2.2c0.8 0.4 1.7 0.6 2.8 0.6 1.9 0 3.4-1 3.4-2.9 0-1.8-1.3-2.4-2.6-2.8 -1-0.3-1.9-0.6-1.9-1.4s0.6-1.2 1.5-1.2c0.3 0 0.6 0 0.9 0.1 0.3 0.1 0.3 0.2 0.3 0.5v0.8l1.4-0.1V498c-0.8-0.4-1.7-0.6-2.6-0.6 -1.9 0-3.2 1-3.2 2.7 0 1.8 1.3 2.4 2.7 2.7 1 0.3 1.8 0.5 1.8 1.4C-1270.1 505.4-1270.9 505.7-1271.8 505.7L-1271.8 505.7zM-1260.3 505.8l-0.5 0c-0.3 0-0.4-0.1-0.4-0.4v-5.5h-2.5v1.1l0.4 0c0.3 0 0.3 0.1 0.3 0.4v3c0 0.7-0.5 1.4-1.5 1.4 -0.9 0-1-0.6-1-1.5v-4.4h-2.5v1.1l0.4 0c0.2 0 0.3 0.1 0.3 0.4v3.2c0 1.7 0.8 2.4 2.2 2.4 0.9 0 1.8-0.4 2.3-1.1v0.9h2.3V505.8zM-1258.8 508.3c0 0.4-0.1 0.4-0.4 0.5l-0.5 0v1.1h3.6v-1.1l-1.1-0.1v-1.9c0.4 0.2 1 0.4 1.5 0.4 1.8 0 3.1-1.3 3.1-3.9 0-2.5-1-3.6-2.5-3.6 -1.2 0-2 0.6-2.2 1.1v-0.9h-2.4v1.1l0.6 0c0.3 0 0.3 0.1 0.3 0.4V508.3zM-1254.3 503.4c0 1.2-0.4 2.4-1.6 2.4 -0.4 0-0.9-0.1-1.2-0.4v-3.2c0-0.6 0.6-1.2 1.4-1.2C-1255 501-1254.3 501.5-1254.3 503.4L-1254.3 503.4zM-1250.8 508.3c0 0.4-0.1 0.4-0.4 0.5l-0.5 0v1.1h3.6v-1.1l-1.1-0.1v-1.9c0.4 0.2 1 0.4 1.5 0.4 1.8 0 3.1-1.3 3.1-3.9 0-2.5-1-3.6-2.5-3.6 -1.2 0-2 0.6-2.2 1.1v-0.9h-2.4v1.1l0.6 0c0.3 0 0.3 0.1 0.3 0.4V508.3zM-1246.4 503.4c0 1.2-0.4 2.4-1.6 2.4 -0.4 0-0.9-0.1-1.2-0.4v-3.2c0-0.6 0.6-1.2 1.4-1.2C-1247 501-1246.4 501.5-1246.4 503.4L-1246.4 503.4zM-1241.1 497h-2.5v1.2l0.5 0c0.2 0 0.4 0.1 0.4 0.3v6.9c0 0.3-0.2 0.4-0.4 0.4l-0.5 0v1.1h3.3v-1.1l-0.8 0V497zM-1236.9 499.9h-2.5v1.2l0.5 0c0.3 0 0.3 0.1 0.3 0.4v3.9c0 0.3-0.2 0.4-0.4 0.4l-0.5 0v1.1h3.3v-1.1l-0.8 0V499.9zM-1239 498c0 0.6 0.4 1 1.1 1 0.6 0 1.1-0.4 1.1-1 0-0.6-0.4-1-1.1-1C-1238.6 496.9-1239 497.4-1239 498L-1239 498zM-1231.8 499.7c-2.3 0-3.5 1.8-3.5 3.9 0 2.1 0.9 3.5 3.3 3.5 1.3 0 2.2-0.6 2.5-0.8l-0.5-1.1c-0.3 0.2-0.9 0.6-1.8 0.6 -1.2 0-1.7-0.7-1.7-1.7 1.7 0 4-0.4 4-2.5C-1229.5 500.4-1230.4 499.7-1231.8 499.7L-1231.8 499.7zM-1231.1 501.7c0 1.1-1.5 1.3-2.5 1.3 0-1 0.5-2.1 1.7-2.1C-1231.4 500.9-1231.1 501.1-1231.1 501.7L-1231.1 501.7zM-1224.9 501c0.3 0.1 0.3 0.2 0.3 0.5v0.6l1.3-0.1v-1.7c-0.5-0.3-1.4-0.6-2.3-0.6 -1.5 0-2.7 0.8-2.7 2.2 0 1.6 1.1 1.9 2.2 2.2 0.8 0.2 1.4 0.3 1.4 1 0 0.6-0.4 0.9-1.1 0.9 -0.3 0-0.7 0-0.9-0.1 -0.3-0.1-0.3-0.2-0.3-0.5v-0.7l-1.3 0.1v1.9c0.6 0.3 1.7 0.4 2.6 0.4 1.5 0 2.7-0.8 2.7-2.2 0-1.5-1.2-1.9-2.3-2.2 -0.7-0.2-1.3-0.4-1.3-1 0-0.6 0.4-0.8 1-0.8C-1225.4 500.8-1225.1 500.9-1224.9 501L-1224.9 501z"/>
        </g>
      </g>
    </g>
  </g>
</svg>
