<svg xmlns:sketch="http://www.bohemiancoding.com/sketch/ns" xmlns="http://www.w3.org/2000/svg" xmlns:xlink="http://www.w3.org/1999/xlink" version="1.1" id="Layer_1" x="0" y="0" width="157" height="158" viewBox="-321 157 157 158" xml:space="preserve" enable-background="new -321 157 157 158">
  <style type="text/css">
    
	.st0{fill:#313133;}
	.st1{fill:none;stroke:#A8DC28;stroke-width:2;stroke-linecap:round;stroke-linejoin:round;stroke-dasharray:1,4;}
	.st2{fill:#EFEFEF;}
	.st3{fill:#A8DC28;}

  </style>
  <title>
    Pet accessories-Active
  </title>
  <desc>
    Created with Sketch.
  </desc>
  <g id="landing-page" sketch:type="MSPage">
    <g id="Desktop---Landing-Page-Animals" transform="translate(-916.000000, -840.000000)" sketch:type="MSArtboardGroup">
      <g id="Pets" transform="translate(-31.000000, 533.000000)" sketch:type="MSLayerGroup">
        <g id="Actives" transform="translate(214.000000, 130.000000)" sketch:type="MSShapeGroup">
          <g id="Pet-accessories-Active" transform="translate(733.000000, 177.000000)">
            <path id="Fill-1-Copy" class="st0" d="M-242.5 157.2c-43.3 0-78.5 35.2-78.5 78.5 0 43.3 35.2 78.5 78.5 78.5 43.3 0 78.5-35.2 78.5-78.5C-164 192.4-199.2 157.2-242.5 157.2z"/>
            <path id="Stroke-2" class="st1" d="M-178.8 266.6c4.5-9.3 7-19.7 7-30.8 0-39-31.7-70.7-70.7-70.7s-70.7 31.7-70.7 70.7c0 30.4 19.3 56.4 46.3 66.4 7.6 2.8 15.8 4.3 24.4 4.3C-214.5 306.5-190.3 290.2-178.8 266.6L-178.8 266.6z"/>
            <g id="collar" transform="translate(48.000000, 42.000000)">
              <path id="Shape" class="st2" d="M-290.6 191.7c-2.7 0-4.8-2.1-4.8-4.8h2c0 1.5 1.3 2.8 2.8 2.8s2.8-1.3 2.8-2.8h2C-285.8 189.5-288 191.7-290.6 191.7L-290.6 191.7z"/>
              <path id="Shape_1_" class="st2" d="M-285.8 197.7h-2c0-1.5-1.3-2.8-2.8-2.8s-2.8 1.3-2.8 2.8h-2c0-2.7 2.1-4.8 4.8-4.8C-288 192.8-285.8 195-285.8 197.7L-285.8 197.7z"/>
              <path id="Shape_2_" class="st2" d="M-284.3 194.1c-0.1 0.4-0.1 0.7-0.1 1.1 0 0.6-0.5 1.2-1.2 1.2h-10.3c-0.7 0-1.2-0.6-1.2-1.2l0 0c0-2.2-2-4-4.3-3.5 -1.4 0.2-2.5 1.4-2.7 2.8 -0.2 1.1 0 2 0.6 2.7 0.4 0.5 0.4 1.1 0 1.5 -0.6 0.7-0.8 1.8-0.6 2.7 0.2 1.4 1.4 2.5 2.7 2.8 2.3 0.5 4.3-1.3 4.3-3.5l0 0c0-0.7 0.5-1.2 1.2-1.2h10.3c0.6 0 1.2 0.5 1.2 1.2 0 0.4 0 0.7 0.1 1.1 0.4 1.3 1.4 2.2 2.7 2.6 2.2 0.5 4.2-1.3 4.2-3.5 0-0.8-0.2-1.5-0.7-2.2 -0.2-0.4-0.2-0.9 0-1.3 0.5-0.6 0.7-1.4 0.7-2.2 0-2.2-2-4-4.2-3.5C-282.8 191.9-283.9 192.8-284.3 194.1L-284.3 194.1z"/>
              <path id="Shape_3_" class="st2" d="M-290.6 195.8c-0.5 0-0.9-0.5-0.9-0.9v-5.4c0-0.6 0.5-0.9 0.9-0.9s0.9 0.5 0.9 0.9v5.4C-289.7 195.3-290.1 195.8-290.6 195.8L-290.6 195.8z"/>
              <path id="Shape_4_" class="st2" d="M-290.6 157c-16.7 0-30.3 5.2-30.3 11.4v8.2c0 6.3 13.5 11.4 30.3 11.4 16.7 0 30.3-5.2 30.3-11.4v-8.2C-260.5 162.2-274 157-290.6 157L-290.6 157zM-281.7 185.1c-6.1 1.1-12 1.1-17.8 0 -1.9 0-3.4-1.5-3.4-3.4s1.5-3.4 3.4-3.4c6 0.9 11.8 0.9 17.8 0 1.9 0 3.4 1.5 3.4 3.4S-279.8 185.1-281.7 185.1L-281.7 185.1zM-290.6 176.3c-17.6 0-26.7-5.5-26.7-7.8s9-7.8 26.7-7.8c17.6 0 26.7 5.5 26.7 7.8S-273 176.3-290.6 176.3L-290.6 176.3z"/>
            </g>
            <path id="Pet-Accessories" class="st3" d="M-290.1 271h3.9v-1.2l-1.3 0v-2h1.2c2.1 0 3.6-1.1 3.6-3.2 0-1.9-1.3-2.9-3.3-2.9h-4v1.2l0.8 0v6.5c0 0.3-0.2 0.4-0.4 0.4l-0.5 0V271zM-287.5 266.4V263h0.9c1.4 0 2.2 0.2 2.2 1.7 0 1.2-0.8 1.7-2 1.7H-287.5zM-278.3 263.7c-2.3 0-3.5 1.8-3.5 3.9 0 2.1 0.9 3.5 3.3 3.5 1.3 0 2.2-0.6 2.5-0.8l-0.5-1.1c-0.3 0.2-0.9 0.6-1.8 0.6 -1.2 0-1.7-0.7-1.7-1.7 1.7 0 4-0.4 4-2.5C-276 264.4-276.9 263.7-278.3 263.7L-278.3 263.7zM-277.5 265.7c0 1.1-1.5 1.3-2.5 1.3 0-1 0.5-2.1 1.7-2.1C-277.9 264.9-277.5 265.2-277.5 265.7L-277.5 265.7zM-273.5 262.5c-0.3 0.8-0.6 1.6-1.6 1.6l-0.1 1h1v3.7c0 1 0 2.3 2.2 2.3 0.7 0 1.4-0.2 1.8-0.5l-0.4-1.1c-0.2 0.1-0.6 0.3-1 0.3 -0.6 0-0.9-0.3-0.9-1.1v-3.7h1.7l0.1-1.2h-1.9v-1.5H-273.5zM-266.5 269.4c-0.1 0.3-0.2 0.4-0.4 0.4l-0.5 0v1.1h3.2v-1.2l-0.8 0 0.4-1.2h3.3l0.3 0.9c0.1 0.3 0 0.4-0.3 0.4l-0.5 0v1.1h3.6v-1.2l-0.8 0h0l-2.9-8.1h-3.2v1.1l0.9 0.1L-266.5 269.4zM-262.9 263.3L-262.9 263.3l1.3 4h-2.6L-262.9 263.3zM-254.2 269.9c-1.2 0-1.8-1-1.8-2.5 0-1.6 0.6-2.4 1.7-2.4 0.2 0 0.4 0 0.5 0.1 0.3 0.1 0.3 0.2 0.3 0.5v0.7l1.3-0.1v-1.8c-0.7-0.4-1.3-0.6-2.2-0.6 -1.6 0-3.3 1-3.3 3.8 0 2.3 1.2 3.6 3.3 3.6 1 0 1.9-0.4 2.4-0.8l-0.6-1.1C-253.1 269.7-253.6 269.9-254.2 269.9L-254.2 269.9zM-247.6 269.9c-1.2 0-1.8-1-1.8-2.5 0-1.6 0.6-2.4 1.7-2.4 0.2 0 0.4 0 0.5 0.1 0.3 0.1 0.3 0.2 0.3 0.5v0.7l1.3-0.1v-1.8c-0.7-0.4-1.3-0.6-2.2-0.6 -1.6 0-3.3 1-3.3 3.8 0 2.3 1.2 3.6 3.3 3.6 1 0 1.9-0.4 2.4-0.8l-0.6-1.1C-246.5 269.7-247 269.9-247.6 269.9L-247.6 269.9zM-241 263.7c-2.3 0-3.5 1.8-3.5 3.9 0 2.1 0.9 3.5 3.3 3.5 1.3 0 2.2-0.6 2.5-0.8l-0.5-1.1c-0.3 0.2-0.9 0.6-1.8 0.6 -1.2 0-1.7-0.7-1.7-1.7 1.7 0 4-0.4 4-2.5C-238.7 264.4-239.6 263.7-241 263.7L-241 263.7zM-240.2 265.7c0 1.1-1.5 1.3-2.5 1.3 0-1 0.5-2.1 1.7-2.1C-240.6 264.9-240.2 265.2-240.2 265.7L-240.2 265.7zM-234 265c0.3 0.1 0.3 0.2 0.3 0.5v0.6l1.3-0.1v-1.7c-0.5-0.3-1.4-0.6-2.3-0.6 -1.5 0-2.7 0.8-2.7 2.2 0 1.6 1.1 1.9 2.2 2.2 0.8 0.2 1.4 0.3 1.4 1 0 0.6-0.4 0.9-1.1 0.9 -0.3 0-0.7 0-0.9-0.1 -0.3-0.1-0.3-0.2-0.3-0.5v-0.7l-1.3 0.1v1.9c0.6 0.3 1.7 0.4 2.6 0.4 1.5 0 2.7-0.8 2.7-2.2 0-1.5-1.2-1.9-2.3-2.2 -0.7-0.2-1.3-0.4-1.3-1 0-0.6 0.4-0.8 1.1-0.8C-234.5 264.9-234.3 264.9-234 265L-234 265zM-227.7 265c0.3 0.1 0.3 0.2 0.3 0.5v0.6l1.3-0.1v-1.7c-0.5-0.3-1.4-0.6-2.3-0.6 -1.5 0-2.7 0.8-2.7 2.2 0 1.6 1.1 1.9 2.2 2.2 0.8 0.2 1.4 0.3 1.4 1 0 0.6-0.4 0.9-1.1 0.9 -0.3 0-0.7 0-0.9-0.1 -0.3-0.1-0.3-0.2-0.3-0.5v-0.7l-1.3 0.1v1.9c0.6 0.3 1.7 0.4 2.6 0.4 1.5 0 2.7-0.8 2.7-2.2 0-1.5-1.2-1.9-2.3-2.2 -0.7-0.2-1.3-0.4-1.3-1 0-0.6 0.4-0.8 1.1-0.8C-228.2 264.9-228 264.9-227.7 265L-227.7 265zM-221.9 270c-1.3 0-1.5-1.4-1.5-2.7 0-1.3 0.4-2.3 1.6-2.3 1.1 0 1.5 1 1.5 2.5C-220.3 269-220.8 270-221.9 270L-221.9 270zM-225.1 267.5c0 2.5 1.2 3.7 3.1 3.7 1.8 0 3.3-1.2 3.3-3.9 0-3.2-2.1-3.5-3.1-3.5C-223.2 263.7-225.1 264.6-225.1 267.5L-225.1 267.5zM-216.8 269.4c0 0.3-0.1 0.4-0.4 0.5l-0.5 0v1.1h3.8v-1.1l-1.2-0.1v-3.2c0-0.8 0.5-1.4 1.3-1.4 0.2 0 0.3 0 0.4 0.1 0.1 0.1 0.1 0.2 0.1 0.4v0.6l1.3-0.1v-2.1c-0.5-0.2-0.9-0.3-1.3-0.3 -0.9 0-1.7 0.6-2 1.3v-1h-2.4v1.1l0.6 0c0.3 0 0.4 0.1 0.4 0.4V269.4zM-208.7 264h-2.5v1.2l0.5 0c0.3 0 0.4 0.1 0.4 0.4v3.9c0 0.3-0.2 0.4-0.4 0.4l-0.5 0v1.1h3.3v-1.1l-0.8 0V264zM-210.8 262c0 0.6 0.4 1 1.1 1 0.6 0 1.1-0.4 1.1-1 0-0.6-0.4-1-1.1-1C-210.3 261-210.8 261.4-210.8 262L-210.8 262zM-203.6 263.7c-2.3 0-3.5 1.8-3.5 3.9 0 2.1 0.9 3.5 3.3 3.5 1.3 0 2.2-0.6 2.5-0.8l-0.5-1.1c-0.3 0.2-0.9 0.6-1.8 0.6 -1.2 0-1.7-0.7-1.7-1.7 1.7 0 4-0.4 4-2.5C-201.3 264.4-202.2 263.7-203.6 263.7L-203.6 263.7zM-202.8 265.7c0 1.1-1.5 1.3-2.5 1.3 0-1 0.5-2.1 1.7-2.1C-203.2 264.9-202.8 265.2-202.8 265.7L-202.8 265.7zM-196.6 265c0.3 0.1 0.3 0.2 0.3 0.5v0.6l1.3-0.1v-1.7c-0.5-0.3-1.4-0.6-2.3-0.6 -1.5 0-2.7 0.8-2.7 2.2 0 1.6 1.1 1.9 2.2 2.2 0.8 0.2 1.4 0.3 1.4 1 0 0.6-0.4 0.9-1.1 0.9 -0.3 0-0.7 0-0.9-0.1 -0.3-0.1-0.3-0.2-0.3-0.5v-0.7l-1.3 0.1v1.9c0.6 0.3 1.7 0.4 2.6 0.4 1.5 0 2.7-0.8 2.7-2.2 0-1.5-1.2-1.9-2.3-2.2 -0.7-0.2-1.3-0.4-1.3-1 0-0.6 0.4-0.8 1-0.8C-197.1 264.9-196.9 264.9-196.6 265L-196.6 265z"/>
          </g>
        </g>
      </g>
    </g>
  </g>
</svg>
