<svg xmlns:sketch="http://www.bohemiancoding.com/sketch/ns" xmlns="http://www.w3.org/2000/svg" xmlns:xlink="http://www.w3.org/1999/xlink" version="1.1" id="Layer_1" x="0" y="0" width="157" height="158" viewBox="-1339 392.9 157 158" xml:space="preserve" enable-background="new -1339 392.9 157 158">
  <style type="text/css">
    
	.st0{fill:#FFFFFF;}
	.st1{fill:none;stroke:#313133;stroke-width:2;stroke-linecap:round;stroke-linejoin:round;stroke-dasharray:1,4;}
	.st2{fill:#313133;}

  </style>
  <title>
    Pet accessories
  </title>
  <desc>
    Created with Sketch.
  </desc>
  <g id="landing-page" sketch:type="MSPage">
    <g id="Desktop---Landing-Page-Animals" transform="translate(-916.000000, -840.000000)" sketch:type="MSArtboardGroup">
      <g id="Pets" transform="translate(-31.000000, 533.000000)" sketch:type="MSLayerGroup">
        <g id="Pet-accessories" transform="translate(947.000000, 307.000000)" sketch:type="MSShapeGroup">
          <path id="Fill-1-Copy" class="st0" d="M-1260.5 393.1c-43.3 0-78.5 35.2-78.5 78.5 0 43.3 35.2 78.5 78.5 78.5 43.3 0 78.5-35.2 78.5-78.5C-1182 428.3-1217.2 393.1-1260.5 393.1z"/>
          <path id="Stroke-2" class="st1" d="M-1196.8 502.5c4.5-9.3 7-19.7 7-30.8 0-39-31.7-70.7-70.7-70.7s-70.7 31.7-70.7 70.7c0 30.4 19.3 56.4 46.3 66.4 7.6 2.8 15.8 4.3 24.4 4.3C-1232.5 542.5-1208.3 526.1-1196.8 502.5L-1196.8 502.5z"/>
          <path class="st2" d="M-1260.6 434.9c-16.7 0-30.3 5.2-30.3 11.4v8.2c0 5.7 11 10.4 25.5 11.2 0.4 1.9 1.8 3.4 3.8 3.8v1.5c-1.8 0.3-3.1 1.6-3.6 3.3h-0.7c-0.7 0-1.2-0.6-1.2-1.2 0-2.2-2-4-4.3-3.5 -1.4 0.2-2.5 1.4-2.7 2.8 -0.2 1.1 0 2 0.6 2.7 0.4 0.5 0.4 1.1 0 1.5 -0.6 0.7-0.8 1.8-0.6 2.7 0.2 1.4 1.4 2.5 2.7 2.8 2.3 0.5 4.3-1.3 4.3-3.5 0-0.7 0.5-1.2 1.2-1.2h10.3c0.6 0 1.2 0.5 1.2 1.2 0 0.4 0 0.7 0.1 1.1 0.4 1.3 1.4 2.2 2.7 2.6 2.2 0.5 4.2-1.3 4.2-3.5 0-0.8-0.2-1.5-0.7-2.2 -0.2-0.4-0.2-0.9 0-1.3 0.5-0.6 0.7-1.4 0.7-2.2 0-2.2-2-4-4.2-3.5 -1.2 0.4-2.3 1.3-2.7 2.6 -0.1 0.4-0.1 0.7-0.1 1.1 0 0.6-0.5 1.2-1.2 1.2h-0.5c-0.5-1.7-1.9-3-3.6-3.3v-1.4c1.9-0.4 3.4-1.9 3.8-3.8 14.4-0.9 25.5-5.6 25.5-11.2v-8.2C-1230.5 440.1-1244 434.9-1260.6 434.9zM-1258.2 474.3h-4.8c0.3-0.6 0.9-1 1.5-1.2 0.1 0.4 0.5 0.7 0.9 0.7s0.7-0.3 0.9-0.7C-1259.1 473.3-1258.6 473.7-1258.2 474.3zM-1259.7 467.4L-1259.7 467.4c0-0.5-0.5-1-0.9-1s-0.9 0.4-0.9 0.9v0.1c-0.8-0.3-1.4-0.9-1.7-1.6 0.9 0 1.7 0 2.6 0 0.9 0 1.8 0 2.6 0C-1258.3 466.6-1258.9 467.1-1259.7 467.4zM-1251.7 463c-6.1 1.1-12 1.1-17.8 0 -1.9 0-3.4-1.5-3.4-3.4s1.5-3.4 3.4-3.4c6 0.9 11.8 0.9 17.8 0 1.9 0 3.4 1.5 3.4 3.4S-1249.8 463-1251.7 463zM-1260.6 454.3c-17.6 0-26.7-5.5-26.7-7.8 0-2.3 9-7.8 26.7-7.8 17.6 0 26.7 5.5 26.7 7.8C-1233.9 448.8-1243 454.3-1260.6 454.3z"/>
          <path id="Pet-Accessories" class="st2" d="M-1308.1 506.9h3.9v-1.2l-1.3 0v-2h1.2c2.1 0 3.6-1.1 3.6-3.2 0-1.9-1.3-2.9-3.3-2.9h-4v1.2l0.8 0v6.5c0 0.3-0.2 0.4-0.4 0.4l-0.5 0V506.9zM-1305.5 502.3V499h0.9c1.4 0 2.2 0.2 2.2 1.7 0 1.2-0.8 1.7-2 1.7H-1305.5zM-1296.3 499.7c-2.3 0-3.5 1.8-3.5 3.9 0 2.1 0.9 3.5 3.3 3.5 1.3 0 2.2-0.6 2.5-0.8l-0.5-1.1c-0.3 0.2-0.9 0.6-1.8 0.6 -1.2 0-1.7-0.7-1.7-1.7 1.7 0 4-0.4 4-2.5C-1294 500.4-1294.9 499.7-1296.3 499.7L-1296.3 499.7zM-1295.5 501.7c0 1.1-1.5 1.3-2.5 1.3 0-1 0.5-2.1 1.7-2.1C-1295.9 500.9-1295.5 501.1-1295.5 501.7L-1295.5 501.7zM-1291.5 498.4c-0.3 0.8-0.6 1.6-1.6 1.6l-0.1 1h1v3.7c0 1 0 2.3 2.2 2.3 0.7 0 1.4-0.2 1.8-0.5l-0.4-1.1c-0.2 0.1-0.6 0.3-1 0.3 -0.6 0-0.9-0.3-0.9-1.1v-3.7h1.7l0.1-1.2h-1.9v-1.5H-1291.5zM-1284.5 505.4c-0.1 0.3-0.2 0.4-0.4 0.4l-0.5 0v1.1h3.2v-1.2l-0.8 0 0.4-1.2h3.3l0.3 0.9c0.1 0.3 0 0.4-0.3 0.4l-0.5 0v1.1h3.6v-1.2l-0.8 0h0l-2.9-8.1h-3.2v1.1l0.9 0.1L-1284.5 505.4zM-1280.9 499.2L-1280.9 499.2l1.3 4h-2.6L-1280.9 499.2zM-1272.2 505.8c-1.2 0-1.8-1-1.8-2.5 0-1.6 0.6-2.4 1.7-2.4 0.2 0 0.4 0 0.5 0.1 0.3 0.1 0.3 0.2 0.3 0.5v0.7l1.3-0.1v-1.8c-0.7-0.4-1.3-0.6-2.2-0.6 -1.6 0-3.3 1-3.3 3.8 0 2.3 1.2 3.6 3.3 3.6 1 0 1.9-0.4 2.4-0.8l-0.6-1.1C-1271.1 505.7-1271.6 505.8-1272.2 505.8L-1272.2 505.8zM-1265.6 505.8c-1.2 0-1.8-1-1.8-2.5 0-1.6 0.6-2.4 1.7-2.4 0.2 0 0.4 0 0.5 0.1 0.3 0.1 0.3 0.2 0.3 0.5v0.7l1.3-0.1v-1.8c-0.7-0.4-1.3-0.6-2.2-0.6 -1.6 0-3.3 1-3.3 3.8 0 2.3 1.2 3.6 3.3 3.6 1 0 1.9-0.4 2.4-0.8l-0.6-1.1C-1264.5 505.7-1265 505.8-1265.6 505.8L-1265.6 505.8zM-1259 499.7c-2.3 0-3.5 1.8-3.5 3.9 0 2.1 0.9 3.5 3.3 3.5 1.3 0 2.2-0.6 2.5-0.8l-0.5-1.1c-0.3 0.2-0.9 0.6-1.8 0.6 -1.2 0-1.7-0.7-1.7-1.7 1.7 0 4-0.4 4-2.5C-1256.7 500.4-1257.6 499.7-1259 499.7L-1259 499.7zM-1258.2 501.7c0 1.1-1.5 1.3-2.5 1.3 0-1 0.5-2.1 1.7-2.1C-1258.6 500.9-1258.2 501.1-1258.2 501.7L-1258.2 501.7zM-1252 501c0.3 0.1 0.3 0.2 0.3 0.5v0.6l1.3-0.1v-1.7c-0.5-0.3-1.4-0.6-2.3-0.6 -1.5 0-2.7 0.8-2.7 2.2 0 1.6 1.1 1.9 2.2 2.2 0.8 0.2 1.4 0.3 1.4 1 0 0.6-0.4 0.9-1.1 0.9 -0.3 0-0.7 0-0.9-0.1 -0.3-0.1-0.3-0.2-0.3-0.5v-0.7l-1.3 0.1v1.9c0.6 0.3 1.7 0.4 2.6 0.4 1.5 0 2.7-0.8 2.7-2.2 0-1.5-1.2-1.9-2.3-2.2 -0.7-0.2-1.3-0.4-1.3-1 0-0.6 0.4-0.8 1-0.8C-1252.5 500.8-1252.3 500.9-1252 501L-1252 501zM-1245.7 501c0.3 0.1 0.3 0.2 0.3 0.5v0.6l1.3-0.1v-1.7c-0.5-0.3-1.4-0.6-2.3-0.6 -1.5 0-2.7 0.8-2.7 2.2 0 1.6 1.1 1.9 2.2 2.2 0.8 0.2 1.4 0.3 1.4 1 0 0.6-0.4 0.9-1.1 0.9 -0.3 0-0.7 0-0.9-0.1 -0.3-0.1-0.3-0.2-0.3-0.5v-0.7l-1.3 0.1v1.9c0.6 0.3 1.7 0.4 2.6 0.4 1.5 0 2.7-0.8 2.7-2.2 0-1.5-1.2-1.9-2.3-2.2 -0.7-0.2-1.3-0.4-1.3-1 0-0.6 0.4-0.8 1-0.8C-1246.2 500.8-1246 500.9-1245.7 501L-1245.7 501zM-1239.9 505.9c-1.3 0-1.5-1.4-1.5-2.7 0-1.3 0.4-2.3 1.6-2.3 1.1 0 1.5 1 1.5 2.5C-1238.3 504.9-1238.8 505.9-1239.9 505.9L-1239.9 505.9zM-1243.1 503.4c0 2.5 1.2 3.7 3.1 3.7 1.8 0 3.3-1.2 3.3-3.9 0-3.2-2.1-3.5-3.1-3.5C-1241.2 499.7-1243.1 500.5-1243.1 503.4L-1243.1 503.4zM-1234.8 505.4c0 0.3-0.1 0.4-0.4 0.5l-0.5 0v1.1h3.8v-1.1l-1.2-0.1v-3.2c0-0.8 0.5-1.4 1.3-1.4 0.2 0 0.3 0 0.4 0.1 0.1 0.1 0.1 0.2 0.1 0.4v0.6l1.3-0.1V500c-0.5-0.2-0.9-0.3-1.3-0.3 -0.9 0-1.7 0.6-2 1.3v-1h-2.4v1.1l0.6 0c0.3 0 0.3 0.1 0.3 0.4V505.4zM-1226.7 499.9h-2.5v1.2l0.5 0c0.3 0 0.3 0.1 0.3 0.4v3.9c0 0.3-0.2 0.4-0.4 0.4l-0.5 0v1.1h3.3v-1.1l-0.8 0V499.9zM-1228.8 498c0 0.6 0.4 1 1.1 1 0.6 0 1.1-0.4 1.1-1 0-0.6-0.4-1-1.1-1C-1228.3 496.9-1228.8 497.4-1228.8 498L-1228.8 498zM-1221.6 499.7c-2.3 0-3.5 1.8-3.5 3.9 0 2.1 0.9 3.5 3.3 3.5 1.3 0 2.2-0.6 2.5-0.8l-0.5-1.1c-0.3 0.2-0.9 0.6-1.8 0.6 -1.2 0-1.7-0.7-1.7-1.7 1.7 0 4-0.4 4-2.5C-1219.3 500.4-1220.2 499.7-1221.6 499.7L-1221.6 499.7zM-1220.8 501.7c0 1.1-1.5 1.3-2.5 1.3 0-1 0.5-2.1 1.7-2.1C-1221.2 500.9-1220.8 501.1-1220.8 501.7L-1220.8 501.7zM-1214.6 501c0.3 0.1 0.3 0.2 0.3 0.5v0.6l1.3-0.1v-1.7c-0.5-0.3-1.4-0.6-2.3-0.6 -1.5 0-2.7 0.8-2.7 2.2 0 1.6 1.1 1.9 2.2 2.2 0.8 0.2 1.4 0.3 1.4 1 0 0.6-0.4 0.9-1.1 0.9 -0.3 0-0.7 0-0.9-0.1 -0.3-0.1-0.3-0.2-0.3-0.5v-0.7l-1.3 0.1v1.9c0.6 0.3 1.7 0.4 2.6 0.4 1.5 0 2.7-0.8 2.7-2.2 0-1.5-1.2-1.9-2.3-2.2 -0.7-0.2-1.3-0.4-1.3-1 0-0.6 0.4-0.8 1.1-0.8C-1215.1 500.8-1214.9 500.9-1214.6 501L-1214.6 501z"/>
        </g>
      </g>
    </g>
  </g>
</svg>
