<svg xmlns="http://www.w3.org/2000/svg" version="1.1" x="0" y="0" width="31" height="31" viewBox="-1402 456.9 31 31" xml:space="preserve"><style type="text/css">
	.st0{fill:#A8DC28;}
</style><title>phone icon</title><desc>Created with Sketch.</desc><g transform="translate(-594.000000, -556.000000)"><g transform="translate(505.000000, 470.000000)"><path class="st0" d="M-1282.6 568.6l-4.3 4.3c-0.2 0.2-0.5 0.4-0.8 0.6 -0.3 0.2-0.6 0.3-0.9 0.3 0 0-0.1 0-0.2 0 -0.1 0-0.3 0-0.4 0 -0.4 0-1.1-0.1-2-0.2 -0.9-0.1-2.1-0.5-3.4-1 -1.3-0.6-2.9-1.4-4.6-2.5s-3.5-2.6-5.4-4.6c-1.5-1.5-2.8-2.9-3.8-4.3 -1-1.4-1.8-2.6-2.4-3.8 -0.6-1.2-1.1-2.2-1.4-3.2 -0.3-0.9-0.5-1.8-0.6-2.5 -0.1-0.7-0.2-1.2-0.1-1.6 0-0.4 0-0.6 0-0.7 0-0.3 0.1-0.6 0.3-0.9 0.2-0.3 0.3-0.6 0.6-0.8l4.3-4.3c0.3-0.3 0.7-0.5 1-0.5 0.3 0 0.5 0.1 0.8 0.2 0.2 0.2 0.4 0.4 0.6 0.6l3.5 6.6c0.2 0.3 0.3 0.7 0.2 1.1 -0.1 0.4-0.3 0.8-0.6 1l-1.6 1.6c0 0-0.1 0.1-0.1 0.2 0 0.1 0 0.2 0 0.2 0.1 0.5 0.3 1 0.6 1.6 0.3 0.5 0.7 1.2 1.2 1.9 0.5 0.8 1.3 1.6 2.3 2.6 1 1 1.9 1.8 2.6 2.3 0.8 0.6 1.4 1 1.9 1.2 0.5 0.3 0.9 0.4 1.2 0.5l0.4 0.1c0 0 0.1 0 0.2 0 0.1 0 0.2-0.1 0.2-0.1l1.9-1.9c0.4-0.3 0.9-0.5 1.4-0.5 0.4 0 0.7 0.1 0.9 0.2l6.3 3.7c0.5 0.3 0.7 0.6 0.8 1.1C-1282.1 567.8-1282.2 568.2-1282.6 568.6z"/></g></g></svg>