<svg xmlns="http://www.w3.org/2000/svg" version="1.1" x="0" y="0" width="21" height="20" viewBox="-1407 461.9 21 20" xml:space="preserve"><style type="text/css">
	.st0{fill:#4A4A4A;}
</style><title>phone-dark-icon</title><desc>Created with Sketch.</desc><g transform="translate(-962.000000, -1060.000000)"><g transform="translate(183.000000, 447.000000)"><g transform="translate(733.000000, 0.000000)"><g transform="translate(21.000000, 24.000000)"><g transform="translate(0.000000, 131.000000)"><g transform="translate(24.000000, 363.000000)"><path class="st0" d="M-1387.2 571c-2.9-2.2-3.7-1-5.1 0.3 -1 1-3.3-0.9-5.2-2.8 -2-1.9-3.8-4.2-2.9-5.1 1.4-1.4 2.6-2.2 0.3-5 -2.3-2.8-3.9-0.5-5.3 0.8 -1.6 1.5-0.3 7 5 12.2 5.3 5.2 10.8 6.4 12.4 4.9C-1386.7 574.9-1384.3 573.3-1387.2 571"/></g></g></g></g></g></g></svg>