<?xml version="1.0" encoding="UTF-8" standalone="no"?>
<svg width="36px" height="31px" viewBox="0 0 36 31" version="1.1" xmlns="http://www.w3.org/2000/svg" xmlns:xlink="http://www.w3.org/1999/xlink">
    <!-- Generator: Sketch 3.8.3 (29802) - http://www.bohemiancoding.com/sketch -->
    <title>photo-icon profle@3x</title>
    <desc>Created with Sketch.</desc>
    <defs>
        <path d="M37.4415,86.7006246 C37.1271786,88.671538 35.44925,90.2820978 33.3961786,90.5840639 C30.1018393,91.0685467 27.30475,88.3833889 27.8096607,85.2206568 C28.12375,83.2499662 29.8019107,81.6389607 31.8545178,81.3374404 C35.1481608,80.8527348 37.94525,83.5365554 37.4415,86.7006246 L37.4415,86.7006246 L37.4415,86.7006246 Z M44,79.0179847 L44,92.9017367 C44,93.950038 43.1150714,94.8 42.024,94.8 L19.9769286,94.8 C18.8851607,94.7997772 18,93.9502608 18,92.902851 L18,79.0179847 C18,77.9696834 18.8849286,77.1199443 19.9771607,77.1199443 L20.1668214,77.1199443 L20.1668214,76.6976375 C20.1668214,76.3564494 20.4549107,76.0798886 20.8103214,76.0798886 L23.8567321,76.0798886 C24.2119107,76.0798886 24.5,76.3564494 24.5,76.6976375 L24.5,77.1199443 L26.1781607,77.1199443 L27.5053214,74.4867113 C27.6550536,74.1894252 27.9691429,74 28.3127143,74 L36.9382142,74 C37.2815536,74 37.5956428,74.1894252 37.7439822,74.4867113 L39.0711428,77.1199443 L42.0233036,77.1199443 C43.1150714,77.1201671 44,77.9696834 44,79.0179847 L44,79.0179847 L44,79.0179847 Z M23.6875,79.2000557 C23.6875,78.4824685 23.0809107,77.9001532 22.3334107,77.9001532 C21.5859107,77.9001532 20.9793214,78.4824685 20.9793214,79.2000557 C20.9793214,79.9176429 21.5859107,80.4999582 22.3334107,80.4999582 C23.0809107,80.4999582 23.6875,79.9176429 23.6875,79.2000557 L23.6875,79.2000557 L23.6875,79.2000557 Z M31.0141608,79.3716527 C28.4253036,79.9227685 26.3367143,81.9280013 25.7623929,84.4134826 C24.6225714,89.3450003 29.0989821,93.6411635 34.2358392,92.5480688 C36.8251608,91.9967301 38.9135178,89.9914973 39.4880714,87.5062389 C40.6267322,82.574944 36.1510178,78.2785579 31.0141608,79.3716527 L31.0141608,79.3716527 L31.0141608,79.3716527 Z" id="path-1"></path>
        <filter x="-50%" y="-50%" width="200%" height="200%" filterUnits="objectBoundingBox" id="filter-2">
            <feOffset dx="0" dy="0" in="SourceAlpha" result="shadowOffsetOuter1"></feOffset>
            <feGaussianBlur stdDeviation="2.5" in="shadowOffsetOuter1" result="shadowBlurOuter1"></feGaussianBlur>
            <feColorMatrix values="0 0 0 0 0   0 0 0 0 0   0 0 0 0 0  0 0 0 0.37 0" type="matrix" in="shadowBlurOuter1"></feColorMatrix>
        </filter>
    </defs>
    <g id="Page-1" stroke="none" stroke-width="1" fill="none" fill-rule="evenodd" opacity="0.8">
        <g id="Shop-Profile_Edit" transform="translate(-198.000000, -607.000000)">
            <g id="Shop-avatar" transform="translate(0.000000, 538.000000)">
                <g id="Logo" transform="translate(185.000000, 0.000000)">
                    <g id="photo-icon-profle">
                        <use fill="black" fill-opacity="1" filter="url(#filter-2)" xlink:href="#path-1"></use>
                        <use fill="#FFFFFF" fill-rule="evenodd" xlink:href="#path-1"></use>
                    </g>
                </g>
            </g>
        </g>
    </g>
</svg>