<svg xmlns="http://www.w3.org/2000/svg" version="1.1" x="0" y="0" width="19" height="15" viewBox="-1408 464.9 19 15" xml:space="preserve"><style type="text/css">
	.st0{fill:#EFEFEF;}
</style><title>photo tab on</title><desc>Created with Sketch.</desc><g transform="translate(-251.000000, -688.000000)"><g transform="translate(174.000000, 447.000000)"><g transform="translate(9.000000, 22.000000)"><g transform="translate(1.000000, 207.000000)"><g transform="translate(67.000000, 12.000000)"><path class="st0" d="M-1393.8 474.1c-0.2 1.4-1.5 2.6-3 2.8 -2.4 0.3-4.5-1.6-4.1-3.9 0.2-1.4 1.5-2.6 3-2.8C-1395.5 469.9-1393.4 471.8-1393.8 474.1L-1393.8 474.1zM-1389 468.6v10c0 0.8-0.6 1.4-1.4 1.4h-16.1c-0.8 0-1.4-0.6-1.4-1.4v-10c0-0.8 0.6-1.4 1.4-1.4h0.1v-0.3c0-0.2 0.2-0.4 0.5-0.4h2.2c0.3 0 0.5 0.2 0.5 0.4v0.3h1.2l1-1.9c0.1-0.2 0.3-0.4 0.6-0.4h6.3c0.3 0 0.5 0.1 0.6 0.4l1 1.9h2.2C-1389.6 467.2-1389 467.8-1389 468.6L-1389 468.6zM-1403.8 468.7c0-0.5-0.4-0.9-1-0.9s-1 0.4-1 0.9 0.4 0.9 1 0.9S-1403.8 469.2-1403.8 468.7L-1403.8 468.7zM-1398.5 468.8c-1.9 0.4-3.4 1.8-3.8 3.6 -0.8 3.6 2.4 6.7 6.2 5.9 1.9-0.4 3.4-1.8 3.8-3.6C-1391.5 471.1-1394.7 468-1398.5 468.8L-1398.5 468.8z"/></g></g></g></g></g></svg>