<svg xmlns:sketch="http://www.bohemiancoding.com/sketch/ns" xmlns="http://www.w3.org/2000/svg" xmlns:xlink="http://www.w3.org/1999/xlink" version="1.1" id="Layer_1" x="0" y="0" width="122" height="58" viewBox="-1356 442.9 122 58" xml:space="preserve" enable-background="new -1356 442.9 122 58">
  <style type="text/css">
    
	.st0{fill:#1A1918;}
	.st1{fill:#90918C;}
	.st2{fill:#85619A;}
	.st3{fill:none;stroke:#FFFFFF;stroke-width:2.652;}
	.st4{fill:#FFFFFF;}
	.st5{fill:#4A4A4A;}

  </style>
  <title>
    PigeonAds
  </title>
  <desc>
    Created with Sketch.
  </desc>
  <g id="Search-results-list" sketch:type="MSPage">
    <g id="link-to-afiliate-sites" transform="translate(-685.000000, -3297.000000)" sketch:type="MSArtboardGroup">
      <g id="_x31_" transform="translate(24.000000, 33.000000)" sketch:type="MSLayerGroup">
        <g id="Posted-ad--Animals-Copy-8" transform="translate(0.000000, 3163.000000)" sketch:type="MSShapeGroup">
          <g id="image-_x2B_-Save-ad-2-_x2B_-Photos" transform="translate(21.000000, 21.000000)">
            <g id="PigeonAds" transform="translate(642.000000, 79.000000)">
              <g id="Imported-Layers" transform="translate(0.000000, 17.006211)">
                <path id="Fill-1" class="st0" d="M-1309.6 462.1v-15.6h5.7c2.4 0 3.7 0.3 4.7 1.1 1.1 0.9 1.7 2.2 1.7 3.9 0 2-1 3.6-2.6 4.4 -0.9 0.4-2.3 0.6-4.3 0.6h-0.9v5.5H-1309.6L-1309.6 462.1zM-1304.7 453.6c1.1 0 1.6-0.1 2-0.3 0.6-0.3 0.9-1 0.9-1.8 0-0.8-0.4-1.5-1.1-1.8 -0.5-0.2-0.9-0.3-1.9-0.3h-0.6v4.1H-1304.7L-1304.7 453.6z"/>
                <path id="Fill-2" class="st0" d="M-1296.3 445.5h4.1v3h-4.1V445.5zM-1296.3 450.5h4.1v11.6h-4.1V450.5z"/>
                <path id="Fill-3" class="st0" d="M-1278.1 450.5v9.9c0 2.4-0.3 3.5-1.2 4.6 -1.1 1.3-3.1 2.1-5.5 2.1 -1.6 0-3.2-0.3-4.9-0.8l0.2-3.1c1.6 0.7 2.7 1 4.1 1 1.6 0 2.8-0.6 3.2-1.6 0.2-0.5 0.3-1 0.3-2.5 -1.1 1.5-2.2 2.1-4 2.1 -1.6 0-3-0.7-3.8-1.7 -0.8-1.1-1.4-2.7-1.4-4.3 0-3.5 2.1-5.8 5.2-5.8 1.7 0 3.2 0.8 4.1 2.4V452c0-0.2 0-0.6 0-0.9 0-0.1 0-0.3 0-0.6H-1278.1L-1278.1 450.5zM-1287 456c0 1.8 1 3 2.4 3 1.4 0 2.4-1.3 2.4-2.9 0-1.7-1.1-3-2.5-3C-1286 453.2-1287 454.4-1287 456L-1287 456z"/>
                <path id="Fill-4" class="st0" d="M-1265.9 461.7c-1.4 0.5-2.6 0.7-4.2 0.7 -4.4 0-6.9-2.3-6.9-6.3 0-3.7 2.4-6 6.2-6 2.6 0 4.4 1.1 5.3 3.4 0.4 1.1 0.6 2.2 0.6 4h-8.2c0.2 1.6 1.2 2.4 3.2 2.4 1.3 0 2.4-0.3 3.9-1L-1265.9 461.7 -1265.9 461.7zM-1268.5 455.2c-0.2-1.7-0.9-2.5-2.3-2.5 -1.4 0-2.3 0.9-2.4 2.5H-1268.5L-1268.5 455.2z"/>
                <path id="Fill-5" class="st0" d="M-1250.5 456.3c0 3.7-2.6 6.1-6.6 6.1 -4.2 0-6.8-2.4-6.8-6.2 0-3.6 2.7-6 6.7-6C-1253.2 450.2-1250.5 452.6-1250.5 456.3L-1250.5 456.3zM-1259.8 456.2c0 2 1.1 3.4 2.6 3.4 1.5 0 2.6-1.4 2.6-3.3 0-2-1.1-3.4-2.6-3.4C-1258.7 452.9-1259.8 454.3-1259.8 456.2L-1259.8 456.2z"/>
                <path id="Fill-6" class="st0" d="M-1249 462.1v-7.9c0-1.6 0-0.8 0-2.3 0-0.3 0-0.4-0.1-1.4h3.7c0 0.7 0 0.6 0 2.2 0.9-1.6 2.4-2.5 4.3-2.5 1.5 0 2.9 0.6 3.6 1.6 0.4 0.6 0.7 1.4 0.8 2.2 0 0.5 0.1 1.2 0.1 2v6.1h-4.1v-5.9c0-0.9 0-1.2-0.2-1.7 -0.3-0.6-0.9-1-1.7-1 -0.8 0-1.6 0.5-2 1.2 -0.3 0.5-0.4 1.1-0.4 2v5.4H-1249"/>
                <path id="Fill-7" class="st0" d="M-1290.1 480.3l-1.2-3.3h-5.8l-1.3 3.3h-4.2l6-15.6h5l6 15.6H-1290.1L-1290.1 480.3zM-1293.9 468.9c-0.1-0.4-0.2-0.7-0.3-1.1 0 0.3-0.2 0.8-0.3 1.1l-1.8 5.3h3.9L-1293.9 468.9 -1293.9 468.9z"/>
                <path id="Fill-8" class="st0" d="M-1276.6 480.3c0-0.8 0-1.1 0-2.1 -0.9 1.6-2.2 2.3-4 2.3 -3.3 0-5.3-2.4-5.3-6.1 0-3.6 2-6 5.1-6 1.6 0 3 0.7 3.9 2 0-0.2 0-0.2 0-0.5 0-0.1 0-0.3 0-0.4v-5.8h4.1v11.9c0 1.1 0 2.1 0 2.8l0 0.4v0.4c0 0.5 0 0.3 0 0.7l0 0.3v0.3H-1276.6L-1276.6 480.3zM-1281.9 474.5c0 1.9 1 3.2 2.4 3.2 1.4 0 2.4-1.3 2.4-3.1 0-1.9-1-3.1-2.6-3.1C-1280.9 471.4-1281.9 472.6-1281.9 474.5L-1281.9 474.5z"/>
                <path id="Fill-9" class="st0" d="M-1271.1 477c1.4 0.6 2.4 0.9 3.8 0.9 1.1 0 1.6-0.3 1.6-0.9 0-0.3-0.1-0.5-0.4-0.7 -0.2-0.1-0.5-0.2-0.8-0.3l-0.3-0.1 -0.3-0.1 -0.3-0.1c-1.7-0.4-2.3-0.7-2.9-1.3 -0.5-0.5-0.8-1.3-0.8-2.1 0-2.4 2-3.8 5.2-3.8 1.4 0 2.6 0.2 3.8 0.6l-0.3 2.7c-1.3-0.6-2.2-0.8-3.2-0.8 -1 0-1.6 0.3-1.6 0.9 0 0.4 0.3 0.7 0.9 0.8 0.2 0.1 0.4 0.1 0.5 0.1l0.4 0.1 0.4 0.1 0.4 0.1c2.2 0.4 3.2 1.6 3.2 3.5 0 2.4-2 3.8-5.1 3.8 -1.6 0-2.9-0.2-4.4-0.6L-1271.1 477"/>
                <path id="Fill-10" class="st1" d="M-1261.6 478.9h1.5v1.4h-1.5V478.9z"/>
                <path id="Fill-11" class="st1" d="M-1255.6 480.2c-0.4 0.2-0.8 0.2-1.3 0.2 -0.9 0-1.6-0.3-2.1-0.9 -0.3-0.4-0.5-1-0.5-1.5 0-1.4 1-2.4 2.5-2.4 0.5 0 0.9 0.1 1.3 0.3l-0.1 1.2c-0.3-0.2-0.5-0.3-0.8-0.3 -0.8 0-1.3 0.5-1.3 1.2 0 0.7 0.6 1.2 1.4 1.2 0.3 0 0.5-0.1 0.9-0.2L-1255.6 480.2"/>
                <path id="Fill-12" class="st1" d="M-1249.9 478c0 1.5-1 2.4-2.6 2.4 -1.6 0-2.6-0.9-2.6-2.5 0-1.4 1-2.4 2.6-2.4C-1250.9 475.6-1249.9 476.6-1249.9 478L-1249.9 478zM-1253.5 478c0 0.8 0.4 1.4 1 1.4 0.6 0 1-0.5 1-1.3 0-0.8-0.4-1.3-1-1.3C-1253 476.7-1253.5 477.2-1253.5 478L-1253.5 478z"/>
                <path id="Fill-13" class="st1" d="M-1249.3 478.9h1.5v1.4h-1.5V478.9z"/>
                <path id="Fill-14" class="st1" d="M-1243.5 480.3c0-0.3 0-0.4 0-0.8 -0.4 0.6-0.9 0.9-1.6 0.9 -0.6 0-1.1-0.3-1.4-0.7 -0.2-0.4-0.3-0.8-0.3-1.5v-2.5h1.6v2.4c0 0.4 0 0.6 0.1 0.7 0.1 0.2 0.3 0.3 0.6 0.3 0.3 0 0.6-0.2 0.8-0.5 0.1-0.3 0.1-0.5 0.1-0.9v-2h1.6v3.2c0 0 0 0.2 0 0.5 0 0.5 0 0.3 0 0.8H-1243.5"/>
                <path id="Fill-15" class="st1" d="M-1241.1 480.3v-6.6h1.6v3.4c0 0.1 0 0.4 0 0.7 0.1-0.2 0.2-0.4 0.3-0.5l1-1.5h1.7l-1.6 2.1 1.7 2.5h-1.9l-1-1.8c-0.2-0.5-0.2-0.3-0.3-0.5 0 0.2 0 0.4 0 0.6v1.8H-1241.1"/>
                <path id="Fill-16" class="st2" d="M-1355.9 443.1h40.5v40.3h-40.5V443.1z"/>
                <path id="Stroke-17" class="st3" d="M-1355.9 443.1h40.5v40.3h-40.5V443.1z"/>
                <path id="Fill-18" class="st4" d="M-1334.8 447.9c0 0-0.3-1.8-2.4-1.8 -2.1 0-3.1 0.7-3.9 2.2 -0.8 1.6-1.1 2.3-1.1 4.1 0 1.8 0.1 2.3-0.9 3.9 -1 1.6-2.4 2.9-1.9 5.6 0.5 2.7 2.4 5.3 2.4 5.3s2.5 2.9 2.8 3.2c0.4 0.3 0.7 1.1 0.8 1.8 0.1 0.7 0.1 1.3 0.3 1.7 0.2 0.4 0.7 0.6 0.3 1.5 -0.4 0.9-1.1 2.2-1.1 2.2l-2.5 0.3c0 0-1.2 0.1-1.1 0.6l2.6-0.1 -2.1 0.7c0 0-0.5 0.4-0.4 0.7 0 0 0.9-0.2 1.4-0.4 0.5-0.2 1.7-0.7 1.9-0.7 0.2 0 0.7 0 0.7 0s0.1 0.8 0.3 1c0.2 0.2 0.5 0.4 0.5 0.4s0-0.5-0.1-0.8c0-0.3-0.1-0.5-0.1-0.5l0.3-0.8c0 0 0.7 0.1 1.1 0.1 0.3 0 1.1-0.5 1.1-0.5 0 0-0.7-0.1-1.1-0.1 -0.5 0.1-0.9-0.3-0.9-0.3l-0.1-0.7c0 0 0.9-1.4 1.3-2 0.4-0.6 0.8-1 0.4-1.5 0 0-0.2-0.5-0.2-0.7s0.3-1.1 0.3-1.1l1.8 0.3c0 0 0.1 0.2 0.2 0.6 0.1 0.4-0.2 1.2 0.1 1.5 0.3 0.3 0.8 1 0.8 1s0.5 0.3 0.4 0.8c-0.1 0.6-0.4 2.5-0.3 2.7l-1 0.4 -2.6 0.1c0 0-0.3 0.2-0.3 0.5l2.1 0.1 -1.6 0.7c0 0-0.1 0.3-0.1 0.5 0 0 0.8-0.1 1.2-0.3 0.4-0.1 2.6-0.7 2.6-0.7s0 1.3 0.6 1.7c0 0 0.3-0.4 0.3-0.6 0-0.2 0.1-1.6 0.5-1.7l1.2-0.6c0 0 0-0.4-1.3-0.1l-0.4-0.6c0 0 0.4-1.2 0.5-1.5 0.1-0.4 0.4-1.9 0.4-2.2 0-0.4-0.4-1.8-0.4-1.8l1.7-0.8c0 0 2 1.1 2.7 1.4 0.6 0.3 2 0.9 2.6 1.1 0.6 0.2 1-0.1 1.3-0.3 0 0 2 0.7 2.3 0.6l-3.6-3.1c0 0-1.2 0.3-3.3-0.8 0 0-3.1 0.9-3.9-1 0 0-1.6-0.1-1.8-1.4 0 0-1.6-0.8-2-2.1 -0.5-1.3-0.9-2.4-0.3-4 0.6-1.7 1.4-2.1 1.4-2.1s1.2 0.1 1.2-1c0 0-0.9-1.9-1.8-3.1 -0.9-1.2-1.3-2.4-1.2-3.3 0.1-0.9 0.2-1.2 0.4-1.3 0.2-0.2 1.5-1.1 1.5-1.1S-1336 448.6-1334.8 447.9"/>
                <path id="Fill-19" class="st4" d="M-1333.6 457.8c0 0 0.8 1.4-0.2 1.8l-0.9 0.3c0 0-0.9 1.3-1.1 2 -0.2 0.6-0.5 1.4 0.2 2.9 0.7 1.5 1 2.1 1.5 2.3 0.5 0.2 0.9 0.4 1 0.7 0.1 0.3 0.1 0.6 0.6 0.8 0.5 0.2 0.8 0.2 1.2 0.8 0.4 0.5 1.1 0.6 1.6 0.7 0 0 0.7-0.1 0.8-0.1 0.1-0.1 0-0.4 0.5-0.6 0.5-0.2 1.2-0.1 1.1-1.2 0 0-0.2-0.7 0-0.8 0.3-0.1 0.5-0.6 0.3-1 -0.2-0.4-0.7-1.5-0.7-1.5s-0.1 1.9-0.3 2.2c-0.2 0.3-1.4 1.6-1.4 1.6s-0.8 0.4-1.2 0.2c-0.3-0.2-1-0.6-1-0.6l-0.3-0.7c0 0 1.1 0.8 1.8 0.7 0.7-0.1 1.4-0.9 1.6-1.3 0.2-0.4 0.4-2.4 0.4-2.4s-0.9-1.5-1.1-2C-1329.6 462-1331.2 457.7-1333.6 457.8"/>
                <path id="Fill-20" class="st4" d="M-1326.9 466.7c0 0 0.3 0.6 0 0.7 -0.3 0.1-0.5 0.3-0.3 0.7 0.2 0.4 0.5 1.1-1.2 1.4 0 0-0.3 0.1 0.4 0.4 0.6 0.3 1.8 0.5 2.1 0.6 0.3 0.1 1.2 0.2 1.7 0l-0.2-0.5h0.7l-1.6-1.4c0 0 0.6 1.2 0.2 1.2 -0.5 0.1-2.5-0.2-2.5-0.2l0.5-0.3c0 0 1.6 0.3 1.6-0.1C-1325.5 468.8-1326.1 467.2-1326.9 466.7"/>
                <path id="Fill-21" class="st4" d="M-1334.6 448.1c0 0-0.9 0.5-0.1 1.5 0 0 1.8 0.2 2.1 0.4C-1332.6 450-1332.5 448.7-1334.6 448.1"/>
                <path id="Fill-22" class="st2" d="M-1338.6 447.8c0 0 0.3-0.9 1-0.7 0.7 0.2 0.7 0.8 0.7 0.8s-0.2 0.8-0.8 0.8C-1338.2 448.6-1338.6 448.2-1338.6 447.8"/>
                <path id="Fill-23" class="st4" d="M-1337.2 447.8c0 0.3-0.2 0.5-0.5 0.5 -0.3 0-0.5-0.2-0.5-0.5 0-0.3 0.2-0.5 0.5-0.5C-1337.4 447.3-1337.2 447.6-1337.2 447.8"/>
              </g>
              <path id="Shape-Copy-6" class="st5" d="M-1240.3 448.1l-7.3-4.1c-0.2-0.1-0.3-0.1-0.5 0 -0.2 0.1-0.3 0.2-0.3 0.4l0 1.9c0 0 0 0 0 0 -0.2 0-0.4 0.1-0.6 0.2 -0.8 0.2-1.5 0.5-2.4 0.9 -0.8 0.3-1.6 0.8-2.3 1.3 -0.5 0.4-1 0.8-1.5 1.3 -1.2 1.3-1.9 3-1.8 4.7 0 0.3 0 0.6 0.1 0.8 0 0.2 0.2 0.4 0.5 0.4 0 0 0 0 0 0 0.2 0 0.5-0.2 0.5-0.4 0.1-0.7 0.4-1.4 0.7-1.9 0.4-0.6 0.9-1.2 1.5-1.6 0.5-0.3 1.1-0.6 1.7-0.8 0.7-0.2 1.5-0.4 2.4-0.4 0.4 0 0.8 0 1.2 0 0 0 0 0 0.1 0l0 1.8c0 0.2 0.1 0.3 0.2 0.4 0.2 0.1 0.3 0.1 0.5 0l7.3-4.1c0.2-0.1 0.3-0.2 0.3-0.4C-1240.1 448.4-1240.2 448.2-1240.3 448.1L-1240.3 448.1z"/>
            </g>
          </g>
        </g>
      </g>
    </g>
  </g>
</svg>
