<svg xmlns="http://www.w3.org/2000/svg" version="1.1" x="0" y="0" width="44" height="44" viewBox="-1395 449.9 44 44" xml:space="preserve"><style type="text/css">
	.st0{fill:#EFEFEF;stroke:#EFEFEF;stroke-width:4;}
	.st1{fill:#B8242A;}
</style><title>Pinterest</title><desc>Created with Sketch Beta.</desc><g transform="translate(-1182.000000, -76.000000)"><g transform="translate(-7.000000, 5.000000)"><g transform="translate(1017.000000, 73.000000)"><g transform="translate(174.000000, 0.000000)"><circle class="st0" cx="-1375" cy="469.9" r="20"/><path class="st1" d="M-1375 449.9c-11 0-20 9-20 20 0 11 9 20 20 20s20-9 20-20C-1355 458.9-1364 449.9-1375 449.9zM-1373 474.4c-1.2 0-2.3-0.7-2.7-1.4 0 0-0.6 2.6-0.8 3.2 -0.5 1.8-1.9 3.6-2 3.8 -0.1 0.1-0.2 0.1-0.3-0.1 0-0.2-0.4-2.5 0-4.4 0.2-0.9 1.4-6.3 1.4-6.3s-0.4-0.7-0.4-1.8c0-1.7 1-3 2.1-3 1 0 1.5 0.8 1.5 1.7 0 1-0.6 2.6-1 4.1 -0.3 1.2 0.6 2.2 1.8 2.2 2.1 0 3.5-2.8 3.5-6.1 0-2.5-1.6-4.4-4.6-4.4 -3.4 0-5.5 2.6-5.5 5.5 0 1 0.3 1.7 0.7 2.3 0.2 0.3 0.2 0.4 0.2 0.6 -0.1 0.2-0.2 0.7-0.2 0.9 -0.1 0.3-0.3 0.4-0.6 0.3 -1.6-0.7-2.3-2.4-2.3-4.4 0-3.3 2.7-7.2 8-7.2 4.2 0 7 3.2 7 6.6C-1367 471-1369.4 474.4-1373 474.4z"/></g></g></g></g></svg>