<svg xmlns:sketch="http://www.bohemiancoding.com/sketch/ns" xmlns="http://www.w3.org/2000/svg" xmlns:xlink="http://www.w3.org/1999/xlink" version="1.1" id="Layer_1" x="0" y="0" width="120" height="60" viewBox="-1357 441.9 120 60" xml:space="preserve" enable-background="new -1357 441.9 120 60">
  <style type="text/css">
    
	.st0{fill:#4A4A4A;}
	.st1{fill:#863324;}
	.st2{fill:#0A0B09;}
	.st3{fill:#8F908C;}

  </style>
  <title>
    Poultryads
  </title>
  <desc>
    Created with Sketch.
  </desc>
  <g id="Search-results-list" sketch:type="MSPage">
    <g id="link-to-afiliate-sites" transform="translate(-691.000000, -3066.000000)" sketch:type="MSArtboardGroup">
      <g id="_x31_" transform="translate(24.000000, 33.000000)" sketch:type="MSLayerGroup">
        <g id="Posted-ad--Animals-Copy-7" transform="translate(0.000000, 2937.000000)" sketch:type="MSShapeGroup">
          <g id="Poultryads" transform="translate(667.000000, 95.000000)">
            <path id="Shape-Copy" class="st0" d="M-1245.3 447.1l-7.3-4.1c-0.2-0.1-0.3-0.1-0.5 0 -0.2 0.1-0.3 0.2-0.3 0.4l0 1.9c0 0 0 0 0 0 -0.2 0-0.4 0.1-0.6 0.2 -0.8 0.2-1.5 0.5-2.4 0.9 -0.8 0.3-1.6 0.8-2.3 1.3 -0.5 0.4-1 0.8-1.5 1.3 -1.2 1.3-1.9 3-1.8 4.7 0 0.3 0 0.6 0.1 0.8 0 0.2 0.2 0.4 0.5 0.4 0 0 0 0 0 0 0.2 0 0.5-0.2 0.5-0.4 0.1-0.7 0.4-1.4 0.7-1.9 0.4-0.6 0.9-1.2 1.5-1.6 0.5-0.3 1.1-0.6 1.7-0.8 0.7-0.2 1.5-0.4 2.4-0.4 0.4 0 0.8 0 1.2 0 0 0 0 0 0.1 0l0 1.8c0 0.2 0.1 0.3 0.2 0.4 0.2 0.1 0.3 0.1 0.5 0l7.3-4.1c0.2-0.1 0.3-0.2 0.3-0.4C-1245.1 447.4-1245.2 447.2-1245.3 447.1L-1245.3 447.1z"/>
            <g id="Imported-Layers" transform="translate(0.000000, 19.000000)">
              <path id="Fill-1" class="st1" d="M-1357 483.7h41.5v-41.7h-41.5V483.7zM-1318.5 458c0 1.1-0.3 2.1-0.8 3.1 0 0.1-0.1 0.1-0.2 0.2 0.1-1.3 0.1-2.5 0-3.7 -0.2-2.1-1.1-3.4-3.4-4.3 -0.3-0.1-0.6-0.2-0.9-0.1 0.4 0.3 0.8 0.7 1.2 1 0.1 0.7-0.4 0.8-0.7 1.1 0.3 0.3 0.8 0.4 0.8 1 -0.2 0.2-0.4 0.5-0.6 0.8 0 0.1 0.1 0.2 0.2 0.4 -0.3 0.4-0.6 0.8-0.9 1.1 0.3 0.1 0.7 0.2 1.2 0.4 -0.2 0.3-0.3 0.5-0.4 0.7 1.1 1.8 1 3.2-0.3 5.1 0-1.7-0.1-3.3-0.9-4.7 -0.7 0.3-1.5 0.7-2.2 1 0.6 0.6 1.7 0.9 1.7 2.1 -0.2 0.1-0.4 0.1-0.5 0.1 0 0.3 0.1 0.6 0.1 0.9 -0.1 0.1-0.2 0.1-0.3 0.1 -0.7 0.1-1.4-0.1-2-0.3 -1.2-0.4-2.4-0.7-3.7-1.1 0.1 0.3 0.2 0.6 0.4 0.9 0.2 0.4 0.4 0.8 0.8 1.2 0.5 0.4 0.8 0.9 1.2 1.4 -0.1 0.8-0.3 1.5-0.4 2.3 -0.1-0.2-0.2-0.3-0.3-0.4 -0.2 0.9-0.3 1.1-0.7 1.6 0-0.5 0-0.9-0.1-1.3 -0.2-0.1-0.4-0.3-0.5-0.4 -0.1 0.2-0.1 0.4-0.2 0.7 0.1 0.2 0.2 0.3 0.4 0.5 0 0.1-0.1 0.2-0.2 0.2 -0.1 0.2-0.3 0.3-0.4 0.5 -0.2 1.1-1 1.1-1.8 1.2 -0.7 0.1-1.3 0-2 0 -0.2 0-0.4 0-0.6 0 -0.2 0.2-0.3 0.5-0.4 0.6 -0.6 0.5-0.9 1.3-1.2 2 -0.5 1.4-0.7 2.8-0.8 4.3 0 0.2-0.1 0.4-0.1 0.6 0.1 0.1 0.2 0.2 0.3 0.3 -0.1 0.1-0.2 0.3-0.3 0.5 0.3 0.3 0.5 0.6 0.8 0.9 -0.5 0-0.9-0.1-1.4-0.1 -0.4 0-0.9 0.2-1.3 0.3 -0.4 0.1-0.9 0.2-1.3 0.2 0-0.2 0.1-0.3 0.1-0.5 -0.3 0-0.7-0.1-1-0.1 0-0.1 0.1-0.2 0.1-0.4 -0.5 0.1-1 0.2-1.4 0.4 -0.3-0.2-0.5-0.3-0.8-0.5 0.2-0.2 0.4-0.3 0.5-0.5 1.6-0.1 1.6-0.1 2.3-0.7 0.2-1.7 0.4-3.4 0.6-5.1 -0.7-0.6-1.3-1.2-2-1.7 -0.6-0.4-1-0.9-1.2-1.5 -0.4-1-1.1-1.7-1.9-2.4 -0.9-0.8-1.7-1.8-1.9-3 -0.1-0.7-0.4-1.3-0.5-2 -0.2-0.7-0.4-1.4-0.5-2.1 -0.2-1 0.2-1.9 0.6-2.8 0.2-0.4 0.3-0.9 0.5-1.4 -1.5 0.7-2.1 0.6-3-0.4 -0.1-0.7 0.1-1.2 0.5-1.8 0.2-0.2 0.5-0.5 0.3-1 -0.6 0.1-1.2 0.2-1.8 0.4 0.1-0.7 0.7-0.9 1-1.4 0.1-2.2 0.1-2.2 0.8-2.7 0-0.1-0.1-0.2-0.1-0.3 0.2 0 0.3-0.1 0.5-0.2 0-0.2 0.1-0.4 0.1-0.7 0.3 0.1 0.6 0.2 0.9 0.3 0.1-0.4 0.3-0.8 0.4-1.2 0.6 0.2 0.1 0.9 0.7 1.1 0.1-0.2 0.2-0.5 0.4-0.8 0.1 0.2 0.3 0.5 0.4 0.7 0.4 0.1 0.8 0.1 1.2 0.2 0.2 0.3 0.3 0.6 0.5 0.9 -0.1 0.3-0.3 0.5-0.4 0.8 -0.3 0.2-0.6 0.3-0.9 0.5 0.4 0.3 0.8 0.6 1.2 0.9 1.5 0.9 2.6 2.2 3.5 3.7 0.4 0.6 0.8 1.2 1.1 1.9 0.7 1.3 1.9 1.8 3.3 1.8 0.7 0 1.4 0 2.1 0 0.3-0.9 0.7-1.7 0.9-2.6 0.3-1 0.9-1.9 1.5-2.7 0.5-0.7 1.1-1.3 1.7-2 1-1 2.2-1.5 3.6-1.8 0.7-0.1 1.4-0.1 2.1-0.2 3-0.2 6 2.3 6.7 4.8C-1318.8 455.9-1318.4 456.9-1318.5 458L-1318.5 458z"/>
              <path id="Fill-2" class="st1" d="M-1339.5 473c-0.2 0.3-0.3 0.4-0.3 0.5 -0.2 0.8-0.3 1.7-0.6 2.5 -0.2 0.6-0.3 1.3-0.5 2 0 0.1 0 0.2 0 0.3 0.3 0.1 0.5 0.3 0.9 0.4 -0.4 0.2-0.7 0.3-1.1 0.4 0.5 0.1 0.9 0.2 1.4 0.3 0.5-1.9 0.5-3.8 0.5-5.7C-1339.2 473.6-1339.4 473.4-1339.5 473"/>
              <path id="Fill-3" class="st2" d="M-1296.4 452c0 0.6-0.1 1.2-0.3 1.8 -0.2 0.6-0.5 1.1-0.9 1.4 -0.2 0.2-0.5 0.5-0.8 0.7 -0.3 0.2-0.6 0.4-0.9 0.5 -0.3 0.1-0.7 0.3-1.1 0.3 -0.4 0.1-0.8 0.1-1.3 0.1h-1.8v4.5h-3.4v-13.7h5.3c0.8 0 1.5 0.1 2 0.2 0.6 0.1 1.1 0.4 1.6 0.7 0.5 0.3 0.9 0.8 1.2 1.4C-1296.6 450.6-1296.4 451.3-1296.4 452L-1296.4 452zM-1300 452.1c0-0.4-0.1-0.7-0.3-1 -0.2-0.3-0.4-0.5-0.7-0.6 -0.3-0.1-0.6-0.2-0.9-0.2 -0.3 0-0.7 0-1.2 0h-0.5v4.1h0.2c0.3 0 0.6 0 0.9 0 0.3 0 0.5 0 0.8-0.1 0.2 0 0.4-0.1 0.6-0.2 0.2-0.1 0.4-0.2 0.5-0.3 0.2-0.2 0.4-0.5 0.5-0.7C-1300 452.9-1300 452.5-1300 452.1L-1300 452.1z"/>
              <path id="Fill-4" class="st2" d="M-1284.4 456.2c0 1.7-0.5 3-1.4 4 -0.9 1-2.2 1.5-3.9 1.5 -1.7 0-3-0.5-3.9-1.5 -0.9-1-1.4-2.3-1.4-4 0-1.7 0.5-3.1 1.4-4 0.9-1 2.2-1.5 3.9-1.5 1.7 0 3 0.5 3.9 1.5C-1284.9 453.2-1284.4 454.5-1284.4 456.2L-1284.4 456.2zM-1287.7 456.3c0-0.6-0.1-1.1-0.2-1.5 -0.1-0.4-0.2-0.7-0.4-1 -0.2-0.3-0.4-0.4-0.6-0.5 -0.2-0.1-0.5-0.2-0.8-0.2 -0.3 0-0.5 0-0.8 0.1 -0.2 0.1-0.4 0.3-0.6 0.5 -0.2 0.2-0.3 0.6-0.4 1 -0.1 0.4-0.2 0.9-0.2 1.6 0 0.6 0.1 1.1 0.2 1.5 0.1 0.4 0.2 0.7 0.4 0.9 0.2 0.2 0.4 0.4 0.6 0.5 0.3 0.1 0.5 0.2 0.9 0.2 0.3 0 0.5-0.1 0.8-0.2s0.5-0.3 0.6-0.5c0.2-0.3 0.3-0.6 0.4-0.9C-1287.8 457.4-1287.7 456.9-1287.7 456.3L-1287.7 456.3z"/>
              <path id="Fill-5" class="st2" d="M-1272.7 461.4h-3.2v-1.1c-0.6 0.5-1.1 0.8-1.5 1.1 -0.5 0.2-1 0.4-1.7 0.4 -1 0-1.8-0.3-2.4-1s-0.9-1.6-0.9-2.9v-6.7h3.2v5.1c0 0.5 0 1 0 1.3 0 0.3 0.1 0.6 0.2 0.9 0.1 0.2 0.2 0.4 0.5 0.5 0.2 0.1 0.5 0.2 0.9 0.2 0.2 0 0.5-0.1 0.8-0.2 0.3-0.1 0.6-0.3 0.9-0.4v-7.3h3.2V461.4"/>
              <path id="Fill-6" class="st2" d="M-1269.7 447.1h3.2v14.3h-3.2V447.1z"/>
              <path id="Fill-7" class="st2" d="M-1259.7 461.6c-1.3 0-2.3-0.3-2.9-0.8 -0.6-0.5-0.9-1.4-0.9-2.6v-4.8h-1.2v-2.2h1.2v-2.9h3.2v2.9h3.1v2.2h-3.1v3.7c0 0.4 0 0.7 0 0.9s0.1 0.5 0.1 0.7c0.1 0.2 0.2 0.4 0.5 0.5 0.2 0.1 0.5 0.2 0.9 0.2 0.2 0 0.4 0 0.7-0.1 0.3-0.1 0.5-0.1 0.6-0.2h0.3v2.3c-0.3 0.1-0.7 0.2-1.1 0.2C-1258.6 461.6-1259.1 461.6-1259.7 461.6"/>
              <path id="Fill-8" class="st2" d="M-1248.4 454.1h-0.3c-0.1 0-0.3-0.1-0.5-0.1 -0.2 0-0.5 0-0.8 0 -0.3 0-0.7 0-1.1 0.1 -0.4 0.1-0.7 0.2-1.1 0.3v6.9h-3.2v-10.3h3.2v1.5c0.1-0.1 0.4-0.3 0.6-0.5 0.3-0.2 0.5-0.4 0.7-0.5 0.2-0.1 0.5-0.3 0.8-0.4 0.3-0.1 0.6-0.2 0.9-0.2 0.1 0 0.2 0 0.3 0 0.1 0 0.2 0 0.3 0V454.1"/>
              <path id="Fill-9" class="st2" d="M-1237.1 451.1l-5.2 14.1h-3.5l1.6-4 -3.8-10.1h3.4l2.2 6.5 2-6.5H-1237.1"/>
              <path id="Fill-10" class="st2" d="M-1308.4 479.6l4.6-13.7h3.7l4.6 13.7h-3.5l-0.9-2.8h-4.3l-0.9 2.8H-1308.4L-1308.4 479.6zM-1300.6 474.4l-1.4-4.5 -1.4 4.5H-1300.6L-1300.6 474.4z"/>
              <path id="Fill-11" class="st2" d="M-1284.3 479.6h-3.2v-1.1c-0.2 0.2-0.4 0.4-0.7 0.6 -0.3 0.2-0.5 0.3-0.7 0.4 -0.3 0.1-0.5 0.2-0.8 0.3 -0.3 0.1-0.6 0.1-0.9 0.1 -1.2 0-2.1-0.5-2.8-1.5s-1-2.3-1-3.9c0-0.9 0.1-1.7 0.3-2.3 0.2-0.7 0.6-1.2 1-1.7 0.4-0.4 0.8-0.8 1.4-1.1 0.5-0.3 1.1-0.4 1.7-0.4 0.5 0 1 0.1 1.3 0.2 0.3 0.1 0.7 0.3 1.2 0.5v-4.4h3.2V479.6L-1284.3 479.6zM-1287.5 476.8v-5.1c-0.2-0.1-0.4-0.1-0.6-0.2 -0.3-0.1-0.5-0.1-0.7-0.1 -0.8 0-1.4 0.3-1.7 0.8 -0.4 0.5-0.6 1.3-0.6 2.3 0 1 0.2 1.7 0.5 2.2 0.3 0.5 0.8 0.7 1.5 0.7 0.3 0 0.6-0.1 0.9-0.2C-1288 477.1-1287.7 477-1287.5 476.8L-1287.5 476.8z"/>
              <path id="Fill-12" class="st2" d="M-1278.1 479.9c-0.8 0-1.5-0.1-2.2-0.2 -0.7-0.2-1.2-0.4-1.7-0.6v-2.7h0.3c0.2 0.1 0.3 0.2 0.5 0.4 0.2 0.1 0.5 0.3 0.8 0.4 0.3 0.1 0.6 0.3 1 0.4 0.4 0.1 0.8 0.2 1.2 0.2 0.5 0 0.9-0.1 1.2-0.2 0.3-0.1 0.5-0.4 0.5-0.7 0-0.2-0.1-0.4-0.2-0.5 -0.2-0.1-0.5-0.2-0.9-0.3 -0.2-0.1-0.6-0.1-0.9-0.2 -0.4-0.1-0.7-0.2-1-0.2 -0.8-0.3-1.4-0.6-1.8-1.1 -0.4-0.5-0.6-1.1-0.6-1.9 0-0.5 0.1-0.9 0.3-1.3 0.2-0.4 0.5-0.8 0.9-1.1 0.4-0.3 0.9-0.6 1.5-0.7 0.6-0.2 1.3-0.3 2-0.3 0.7 0 1.4 0.1 2 0.2 0.6 0.1 1.1 0.3 1.5 0.5v2.6h-0.3c-0.1-0.1-0.3-0.2-0.5-0.3 -0.2-0.1-0.5-0.3-0.7-0.4 -0.3-0.1-0.6-0.2-0.9-0.3 -0.3-0.1-0.7-0.1-1-0.1 -0.5 0-0.9 0.1-1.2 0.2 -0.3 0.2-0.5 0.4-0.5 0.6 0 0.2 0.1 0.4 0.2 0.6 0.2 0.1 0.5 0.3 1 0.4 0.3 0.1 0.6 0.1 0.9 0.2 0.4 0.1 0.7 0.2 1 0.3 0.7 0.2 1.3 0.6 1.7 1.1 0.4 0.5 0.6 1.1 0.6 1.8 0 0.5-0.1 0.9-0.3 1.4 -0.2 0.4-0.5 0.8-1 1.1 -0.4 0.3-1 0.6-1.6 0.8C-1276.5 479.8-1277.2 479.9-1278.1 479.9"/>
              <path id="Fill-13" class="st3" d="M-1270.1 477.7h1.6v1.8h-1.6V477.7z"/>
              <path id="Fill-14" class="st3" d="M-1264.5 479.6c-0.4 0-0.8-0.1-1.1-0.2 -0.3-0.1-0.6-0.3-0.9-0.5 -0.3-0.2-0.4-0.5-0.6-0.8 -0.1-0.3-0.2-0.7-0.2-1.2 0-0.5 0.1-0.9 0.2-1.2 0.2-0.3 0.4-0.6 0.6-0.8 0.3-0.2 0.5-0.4 0.9-0.5 0.3-0.1 0.7-0.2 1.1-0.2 0.3 0 0.6 0 0.8 0.1 0.3 0.1 0.6 0.2 0.8 0.3v1.4h-0.2c-0.1-0.1-0.1-0.1-0.2-0.2 -0.1-0.1-0.2-0.1-0.3-0.2 -0.1-0.1-0.2-0.1-0.4-0.2 -0.1 0-0.3-0.1-0.5-0.1 -0.4 0-0.7 0.1-0.9 0.4 -0.2 0.3-0.3 0.7-0.3 1.1 0 0.5 0.1 0.9 0.4 1.1 0.2 0.2 0.5 0.4 0.9 0.4 0.2 0 0.4 0 0.5-0.1 0.1 0 0.3-0.1 0.4-0.2 0.1-0.1 0.2-0.1 0.3-0.2 0.1-0.1 0.1-0.1 0.2-0.2h0.2v1.4c-0.1 0-0.2 0.1-0.3 0.1 -0.1 0.1-0.2 0.1-0.4 0.1 -0.2 0-0.3 0.1-0.4 0.1C-1264.1 479.6-1264.3 479.6-1264.5 479.6"/>
              <path id="Fill-15" class="st3" d="M-1256.9 477c0 0.8-0.2 1.5-0.7 2 -0.5 0.5-1.1 0.7-1.9 0.7 -0.8 0-1.5-0.2-1.9-0.7 -0.5-0.5-0.7-1.1-0.7-2 0-0.8 0.2-1.5 0.7-2 0.5-0.5 1.1-0.7 1.9-0.7 0.8 0 1.5 0.2 1.9 0.7C-1257.2 475.5-1256.9 476.1-1256.9 477L-1256.9 477zM-1258.6 477c0-0.3 0-0.6-0.1-0.8 0-0.2-0.1-0.4-0.2-0.5 -0.1-0.1-0.2-0.2-0.3-0.3 -0.1 0-0.3-0.1-0.4-0.1 -0.1 0-0.3 0-0.4 0.1 -0.1 0-0.2 0.1-0.3 0.3 -0.1 0.1-0.2 0.3-0.2 0.5 -0.1 0.2-0.1 0.5-0.1 0.8s0 0.6 0.1 0.8c0.1 0.2 0.1 0.3 0.2 0.5 0.1 0.1 0.2 0.2 0.3 0.3 0.1 0.1 0.3 0.1 0.4 0.1 0.1 0 0.3 0 0.4-0.1 0.1-0.1 0.2-0.1 0.3-0.2 0.1-0.1 0.2-0.3 0.2-0.5C-1258.6 477.5-1258.6 477.3-1258.6 477L-1258.6 477z"/>
              <path id="Fill-16" class="st3" d="M-1255.8 477.7h1.6v1.8h-1.6V477.7z"/>
              <path id="Fill-17" class="st3" d="M-1247.9 479.5h-1.6v-0.6c-0.3 0.2-0.5 0.4-0.8 0.5 -0.2 0.1-0.5 0.2-0.8 0.2 -0.5 0-0.9-0.2-1.2-0.5 -0.3-0.3-0.4-0.8-0.4-1.4v-3.3h1.6v2.5c0 0.3 0 0.5 0 0.6s0 0.3 0.1 0.4c0 0.1 0.1 0.2 0.2 0.2 0.1 0.1 0.2 0.1 0.4 0.1 0.1 0 0.2 0 0.4-0.1 0.2-0.1 0.3-0.1 0.4-0.2v-3.6h1.6V479.5"/>
              <path id="Fill-18" class="st3" d="M-1241.3 479.5h-1.9l-1.4-2.2 -0.2 0.3v1.9h-1.6v-7h1.6v3.9l1.5-2h1.9l-1.8 2.2L-1241.3 479.5"/>
            </g>
          </g>
        </g>
      </g>
    </g>
  </g>
</svg>
