<svg xmlns="http://www.w3.org/2000/svg" version="1.1" x="0" y="0" width="17" height="26" viewBox="42.3 -2.4 17 26" xml:space="preserve"><style type="text/css">
	.st0{enable-background:new    ;}
	.st1{fill:#A4A4A4;}
</style><g transform="translate(-570.000000, -2138.000000)"><g transform="translate(-2.000000, -127.000000)"><g transform="translate(459.000000, 414.000000)"><g transform="translate(10.000000, 1056.000000)"><g transform="translate(103.000000, 787.000000)"><g class="st0"><path class="st1" d="M42.3 30.4v-0.6c0-0.6 0.5-1 1.5-1.4 0.4-0.2 0.7-0.5 1.1-0.9 0.3-0.4 0.5-1 0.5-1.7v-6.7h-2c-0.5 0-0.7-0.4-0.7-1.1v-0.4c0-0.7 0.2-1.1 0.7-1.1h2v-3.2c0-5.1 2.5-7.7 7.4-7.7 2.4 0 3.6 0.4 3.6 1.2 0 0.2-0.1 0.6-0.2 1 -0.1 0.4-0.3 0.7-0.6 0.7 0 0-0.3-0.1-0.8-0.2 -0.5-0.1-1-0.2-1.5-0.2 -1.7 0-3 0.4-3.8 1.1 -0.8 0.8-1.2 2-1.2 3.7v3.4h5.3c0.5 0 0.7 0.4 0.7 1.1v0.4c0 0.7-0.2 1.1-0.7 1.1h-5.2v3.4c0 3.1-0.5 5-1.4 6 -0.2 0.2-0.4 0.3-0.6 0.5h10.2c0.5 0 0.7 0.4 0.7 1.1v0.4c0 0.7-0.2 1.1-0.7 1.1H43C42.5 31.6 42.3 31.1 42.3 30.4z"/></g></g></g></g></g></g></svg>