<svg xmlns="http://www.w3.org/2000/svg" version="1.1" x="0" y="0" width="16" height="16" viewBox="-1409 463.9 16 16" xml:space="preserve"><style type="text/css">
	.st0{fill:#A8A8A8;}
</style><title>Print</title><desc>Created with Sketch.</desc><g transform="translate(-1095.000000, -703.000000)"><g transform="translate(458.000000, 519.000000)"><g transform="translate(595.000000, 177.000000)"><g transform="translate(42.000000, 7.000000)"><path class="st0" d="M-1397 463.9h-8v2h8V463.9L-1397 463.9zM-1397 478.9h-8v-8h-1v9h10v-9h-1V478.9L-1397 478.9zM-1404 477.9h6v-1h-6V477.9L-1404 477.9zM-1403 475.9h4v-1h-4V475.9L-1403 475.9zM-1399 472.9h-4v1h4V472.9L-1399 472.9zM-1409 466.9v7h2v-4h12v4h2v-7H-1409L-1409 466.9zM-1394.5 468.9c-0.3 0-0.5-0.2-0.5-0.5s0.2-0.5 0.5-0.5 0.5 0.2 0.5 0.5S-1394.2 468.9-1394.5 468.9L-1394.5 468.9z"/></g></g></g></g></svg>