<svg xmlns:sketch="http://www.bohemiancoding.com/sketch/ns" xmlns="http://www.w3.org/2000/svg" xmlns:xlink="http://www.w3.org/1999/xlink" version="1.1" id="Layer_1" x="0" y="0" width="36" height="36" viewBox="-1399 453.9 36 36" xml:space="preserve" enable-background="new -1399 453.9 36 36">
  <style type="text/css">
    
	.st0{fill:#313133;}
	.st1{fill:#313133;stroke:#313133;stroke-width:1.8;}
	.st2{fill:#A8DC28;}

  </style>
  <title>
    Profile
  </title>
  <desc>
    Created with Sketch.
  </desc>
  <g id="Dashboard" sketch:type="MSPage">
    <g id="Dashboard-Home-Copy" transform="translate(-876.000000, -312.000000)" sketch:type="MSArtboardGroup">
      <g id="Icons" transform="translate(876.000000, 152.000000)" sketch:type="MSLayerGroup">
        <g id="Profile" transform="translate(0.000000, 160.000000)">
          <rect id="Rectangle-3768-Copy-5" x="-1399" y="453.9" sketch:type="MSShapeGroup" class="st0" width="36" height="36"/>
          <g id="Avatar-Copy-2" transform="translate(3.000000, 3.000000)">
            <g id="Mask" sketch:type="MSShapeGroup">
              <circle id="path-1_1_" class="st1" cx="-1384" cy="468.9" r="15"/>
            </g>
            <path id="Fill-1" class="st2" d="M-1379.2 472.4c-0.1 0-0.2-0.1-0.2-0.1s-3.1-1.5-1.5-3.1c0.6-0.6 1-1.7 1.2-2.9 0.4 0 0.8-0.8 1.1-1.8 0.3-1.1 0.2-2-0.2-2.1l-0.1 0c-0.2 1.8-0.8 3.9-0.9 2.3 -0.1-2.4-1-4.1-1.7-4.3 -0.7-0.2-1.3 0.5-2.4 0.5 -1.1 0-1.7-0.7-2.4-0.5 -0.7 0.2-1.6 2-1.7 4.3 -0.1 1.6-0.8-0.4-1-2.3l-0.1 0c-0.4 0.1-0.4 1-0.2 2.1 0.3 1 0.7 1.8 1.1 1.8 0.2 1.2 0.6 2.3 1.2 2.9 1.5 1.5-1.5 3.1-1.5 3.1s-0.1 0-0.2 0.1c1.4 1.1 3 1.7 4.8 1.7C-1382.3 474.1-1380.6 473.5-1379.2 472.4"/>
            <path id="Fill-2" class="st2" d="M-1380.9 455.9c0 0-5.2 0.1-6.3 2 -0.6 1.1-1 1.4-1.8 2.5 -0.3 0.4-0.3 1.2-0.2 2.1 0 0 0 0 0 0 0 0 0 0 0 0 0 0 0 0 0 0.1 0 0 0 0 0 0 0 0 0 0 0 0 0 0 0 0 0 0 0 0 0 0 0 0 0 0 0 0 0 0 0 0 0 0 0 0 0.1 1 0.4 2 0.7 2.5 0 0 0 0 0 0 0 0 0 0 0 0 0 0 0 0 0 0 0 0 0 0 0 0 0.1 0.1 0.1 0.1 0.1 0.2 0 0 0 0 0 0 0 0 0 0 0 0 0 0 0 0 0 0 0 0 0 0 0 0 0 0 0 0 0 0 0 0 0 0 0 0 0 0 0 0 0 0h0c0.1 0 0.1-0.2 0.2-0.6 0 0 0 0 0 0 0 0 0 0 0 0 0.1-2.4 1-4.1 1.7-4.3 0.1 0 0.2 0 0.3 0h0 0c0.2 0 0.5 0.1 0.8 0.2 0.4 0.2 0.8 0.3 1.4 0.3 0.5 0 1-0.2 1.4-0.3 0.3-0.1 0.5-0.2 0.8-0.2h0 0c0.1 0 0.2 0 0.3 0 0.7 0.2 1.6 2 1.7 4.3 0 0 0 0 0 0s0 0 0 0v0c0 0 0 0 0 0 0 0.4 0.1 0.5 0.1 0.5h0c0 0 0 0 0 0 0 0 0 0 0 0 0 0 0.1 0 0.1-0.1 0 0 0 0 0 0 0 0 0 0 0 0h0c0 0 0 0 0 0 0 0 0 0 0 0v0c0.2-0.3 0.5-1.5 0.6-2.6v0c0 0 0 0 0 0 0 0 0 0 0 0 0 0 0 0 0 0 0 0 0 0 0 0 0 0 0 0 0 0 0 0 0 0 0 0 0 0 0 0 0 0 0.1-0.9 0.1-1.7-0.2-2.1 -0.8-1.1-0.9-2.1-2.1-2.5C-1382.4 457.4-1380.9 455.9-1380.9 455.9"/>
            <path class="st2" d="M-1373.2 475.9c-1-0.9-3.6-2.3-5.1-3.1l-0.4 0.3c-1.6 1.4-3.4 2.2-5.3 2.2 -1.9 0-3.8-0.8-5.3-2.2l-0.4-0.3c-1.5 0.7-4.2 2.1-5.1 3.1 -0.3 0.3-0.6 1.3-0.8 2.5 2.7 3.4 7 5.6 11.7 5.6 4.7 0 8.9-2.2 11.6-5.5C-1372.6 477.2-1372.9 476.2-1373.2 475.9z"/>
          </g>
        </g>
      </g>
    </g>
  </g>
</svg>
