<svg xmlns:sketch="http://www.bohemiancoding.com/sketch/ns" xmlns="http://www.w3.org/2000/svg" xmlns:xlink="http://www.w3.org/1999/xlink" version="1.1" id="Layer_1" x="0" y="0" width="110" height="110" viewBox="-1362 416.9 110 110" xml:space="preserve" enable-background="new -1362 416.9 110 110">
  <style type="text/css">
    
	.st0{fill:#313133;}
	.st1{fill:none;stroke:#A8DC28;stroke-width:2;stroke-linecap:round;stroke-linejoin:round;stroke-dasharray:1,4;}
	.st2{enable-background:new    ;}
	.st3{fill:#A8DC28;}
	.st4{fill:#EFEFEF;}
	.st5{fill:#A8DC28;stroke:#313133;}

  </style>
  <title>
    Property Active
  </title>
  <desc>
    Created with Sketch Beta.
  </desc>
  <path id="Fill-1" sketch:type="MSShapeGroup" class="st0" d="M-1252 471.9c0-30.3-24.7-55-55-55s-55 24.7-55 55 24.7 55 55 55S-1252 502.2-1252 471.9z"/>
  <path id="Stroke-6" sketch:type="MSShapeGroup" class="st1" d="M-1262 493.7c3.2-6.6 5-14 5-21.8 0-27.6-22.4-50-50-50s-50 22.4-50 50c0 21.5 13.7 39.9 32.8 46.9 5.4 2 11.2 3.1 17.2 3.1C-1287.2 521.9-1270.1 510.4-1262 493.7z"/>
  <g class="st2">
    <path class="st3" d="M-1334.6 499.8h0.5c0.2 0 0.4-0.1 0.4-0.4v-6.5h-0.8v-1.2h4c2.1 0 3.3 1 3.3 2.9 0 2.1-1.5 3.2-3.6 3.2h-1.2v2h1.3v1.1h-3.9V499.8zM-1331 496.3c1.2 0 2-0.4 2-1.7 0-1.4-0.8-1.7-2.2-1.7h-0.8v3.3L-1331 496.3 -1331 496.3z"/>
    <path class="st3" d="M-1325.4 495.5c0-0.3-0.1-0.4-0.4-0.4h-0.6v-1.2h2.4v1c0.3-0.7 1.1-1.3 2-1.3 0.5 0 0.9 0.1 1.3 0.3v2.1l-1.3 0.1v-0.6c0-0.2 0-0.3-0.1-0.3 -0.1-0.1-0.2-0.1-0.4-0.1 -0.8 0-1.3 0.6-1.3 1.4v3.2l1.2 0.1v1.1h-3.8v-1.1h0.5c0.3 0 0.4-0.1 0.4-0.5L-1325.4 495.5 -1325.4 495.5z"/>
    <path class="st3" d="M-1316.8 493.6c1 0 3.1 0.3 3.1 3.5 0 2.7-1.5 3.9-3.3 3.9 -1.9 0-3.1-1.2-3.1-3.7C-1320.1 494.5-1318.2 493.6-1316.8 493.6zM-1315.3 497.4c0-1.6-0.4-2.5-1.5-2.5 -1.1 0-1.6 1-1.6 2.3 0 1.3 0.2 2.7 1.5 2.7C-1315.8 499.9-1315.3 498.9-1315.3 497.4z"/>
    <path class="st3" d="M-1311.9 495.5c0-0.3-0.1-0.4-0.4-0.4h-0.6v-1.2h2.4v0.9c0.3-0.5 1-1.1 2.2-1.1 1.6 0 2.5 1.1 2.5 3.6 0 2.6-1.2 3.9-3.1 3.9 -0.5 0-1.1-0.2-1.5-0.4v1.9l1.1 0.1v1.1h-3.6v-1.1h0.5c0.3 0 0.4-0.1 0.4-0.5L-1311.9 495.5 -1311.9 495.5zM-1308.9 495c-0.8 0-1.4 0.6-1.4 1.2v3.2c0.4 0.2 0.9 0.3 1.2 0.3 1.2 0 1.6-1.2 1.6-2.4C-1307.5 495.5-1308.1 495-1308.9 495z"/>
    <path class="st3" d="M-1298.9 495.6c0 2.2-2.3 2.5-4 2.5 0.1 0.9 0.5 1.7 1.7 1.7 0.8 0 1.4-0.4 1.8-0.6l0.5 1.1c-0.2 0.2-1.1 0.8-2.5 0.8 -2.4 0-3.3-1.5-3.3-3.5 0-2.1 1.2-3.9 3.5-3.9C-1299.9 493.6-1298.9 494.3-1298.9 495.6zM-1301.3 494.8c-1.1 0-1.6 1.1-1.7 2.1 1 0 2.5-0.3 2.5-1.3C-1300.5 495.1-1300.8 494.8-1301.3 494.8z"/>
    <path class="st3" d="M-1297.1 495.5c0-0.3-0.1-0.4-0.3-0.4h-0.6v-1.2h2.4v1c0.3-0.7 1.1-1.3 2-1.3 0.5 0 0.9 0.1 1.3 0.3v2.1l-1.3 0.1v-0.6c0-0.2 0-0.3-0.1-0.3 -0.1-0.1-0.2-0.1-0.4-0.1 -0.8 0-1.3 0.6-1.3 1.4v3.2l1.2 0.1v1.1h-3.8v-1.1h0.5c0.3 0 0.4-0.1 0.4-0.5V495.5z"/>
    <path class="st3" d="M-1289 492.4v1.5h1.9l-0.1 1.2h-1.8v3.7c0 0.9 0.3 1.1 0.9 1.1 0.4 0 0.7-0.2 1-0.3l0.4 1.1c-0.4 0.3-1.1 0.5-1.8 0.5 -2.2 0-2.2-1.3-2.2-2.3v-3.7h-1l0.1-1c1-0.1 1.3-0.8 1.6-1.6h1V492.4z"/>
    <path class="st3" d="M-1281.1 499.6c-0.5 0.7-1.3 1.1-2.3 1.1 -1.4 0-2.2-0.8-2.2-2.4v-2.8c0-0.3-0.1-0.4-0.3-0.4h-0.4v-1.2h2.5v4c0 0.9 0.1 1.5 1 1.5 1 0 1.5-0.7 1.5-1.4v-2.5c0-0.3-0.1-0.4-0.4-0.4h-0.4v-1.2h2.5v6.8c0 2.3-1.2 3.3-3.2 3.3 -0.9 0-2-0.2-2.6-0.5v-1.9l1.3-0.1v0.7c0 0.3 0.1 0.4 0.3 0.5 0.3 0.1 0.6 0.1 1 0.1 1.3 0 1.8-0.8 1.8-2.1L-1281.1 499.6 -1281.1 499.6z"/>
  </g>
  <path id="Stroke-15" sketch:type="MSShapeGroup" class="st3" d="M-1362 416.9"/>
  <path class="st4" d="M-1294.1 446.6h-25.7v30.7h9.5V470h6.6v7.3h9.6V446.6zM-1310.3 465.3h-6.6v-6h6.6V465.3zM-1310.3 455.9h-6.6v-6h6.6V455.9zM-1297.1 455.9h-6.6v-6h6.6V455.9z"/>
  <rect id="Rectangle-101_1_" x="-1303.7" y="459.3" class="st5" width="6.6" height="6"/>
  <rect id="Rectangle-98" x="-1321.3" y="443.3" class="st3" width="28.6" height="2"/>
</svg>
