<svg xmlns="http://www.w3.org/2000/svg" version="1.1" x="0" y="0" width="110" height="110" viewBox="-1362 416.9 110 110" xml:space="preserve"><style type="text/css">
	.st0{fill:#EFEFEF;}
	.st1{enable-background:new    ;}
	.st2{fill:#313133;}
	.st3{fill:none;}
</style><title>Property OFF</title><desc>Created with Sketch Beta.</desc><g transform="translate(-800.000000, -755.000000)"><g transform="translate(457.000000, 273.000000)"><g transform="translate(0.000000, 34.000000)"><g transform="translate(0.000000, 314.000000)"><g transform="translate(343.000000, 134.000000)"><path class="st0" d="M-1252 471.9c0-30.3-24.7-55-55-55s-55 24.7-55 55 24.7 55 55 55S-1252 502.2-1252 471.9zM-1362 416.9"/><g class="st1"><path class="st2" d="M-1336.6 499.3h0.5c0.2 0 0.4-0.1 0.4-0.4v-6.5h-0.8v-1.2h4c2.1 0 3.3 1 3.3 2.9 0 2.1-1.5 3.2-3.6 3.2h-1.2v2h1.3v1.2h-3.9V499.3zM-1333 495.8c1.2 0 2-0.4 2-1.7 0-1.4-0.8-1.7-2.2-1.7h-0.8v3.3L-1333 495.8 -1333 495.8zM-1327.4 494.9c0-0.3-0.1-0.4-0.4-0.4h-0.6v-1.1h2.4v1.1c0.3-0.7 1.1-1.3 2-1.3 0.5 0 0.9 0.1 1.3 0.3v2.1h-1.3V495c0-0.2 0-0.3-0.1-0.3 -0.1-0.1-0.2-0.1-0.4-0.1 -0.8 0-1.3 0.6-1.3 1.4v3.2l1.2 0.1v1.1h-3.8v-1.1h0.5c0.3 0 0.4-0.1 0.4-0.5L-1327.4 494.9 -1327.4 494.9zM-1318.8 493.1c1 0 3.1 0.3 3.1 3.5 0 2.7-1.5 3.9-3.3 3.9 -1.9 0-3.1-1.2-3.1-3.7C-1322.1 493.9-1320.2 493.1-1318.8 493.1zM-1317.4 496.9c0-1.6-0.4-2.5-1.5-2.5s-1.6 1-1.6 2.3c0 1.3 0.2 2.7 1.5 2.7C-1317.8 499.4-1317.4 498.4-1317.4 496.9zM-1313.9 494.9c0-0.3-0.1-0.4-0.4-0.4h-0.6v-1.1h2.4v0.9c0.3-0.5 1-1.1 2.2-1.1 1.6 0 2.5 1.1 2.5 3.6 0 2.6-1.2 3.9-3.1 3.9 -0.5 0-1.1-0.2-1.5-0.4v1.9l1.1 0.1v1.1h-3.6v-1.1h0.5c0.3 0 0.4-0.1 0.4-0.5L-1313.9 494.9 -1313.9 494.9zM-1310.9 494.5c-0.8 0-1.4 0.6-1.4 1.2v3.2c0.4 0.2 0.9 0.3 1.2 0.3 1.2 0 1.6-1.2 1.6-2.4C-1309.5 495-1310.2 494.5-1310.9 494.5zM-1301 495.1c0 2.2-2.3 2.5-4 2.5 0.1 0.9 0.5 1.7 1.7 1.7 0.8 0 1.4-0.4 1.8-0.6l0.5 1.1c-0.2 0.2-1.1 0.8-2.5 0.8 -2.4 0-3.3-1.5-3.3-3.5 0-2.1 1.2-3.9 3.5-3.9C-1301.9 493.1-1301 493.8-1301 495.1zM-1303.3 494.3c-1.1 0-1.6 1.1-1.7 2.1 1 0 2.5-0.3 2.5-1.3C-1302.5 494.6-1302.8 494.3-1303.3 494.3zM-1299.1 494.9c0-0.3-0.1-0.4-0.4-0.4h-0.6v-1.1h2.4v1.1c0.3-0.7 1.1-1.3 2-1.3 0.5 0 0.9 0.1 1.3 0.3v2.1l-1.3 0.1v-0.6c0-0.2 0-0.3-0.1-0.3 -0.1-0.1-0.2-0.1-0.4-0.1 -0.8 0-1.3 0.6-1.3 1.4v3.2l1.2 0.1v1.1h-3.7v-1.1h0.5c0.3 0 0.4-0.1 0.4-0.5V494.9zM-1291.1 491.9v1.5h1.9l-0.1 1.2h-1.7v3.7c0 0.9 0.3 1.1 0.9 1.1 0.4 0 0.7-0.2 1-0.3l0.4 1.1c-0.4 0.3-1.1 0.5-1.8 0.5 -2.2 0-2.2-1.3-2.2-2.3v-3.7h-1l0.1-1c1-0.1 1.3-0.8 1.6-1.6h0.9V491.9zM-1283.1 499.1c-0.5 0.7-1.3 1.1-2.3 1.1 -1.4 0-2.2-0.8-2.2-2.4v-2.9c0-0.3-0.1-0.4-0.4-0.4h-0.4v-1.1h2.5v4c0 0.9 0.1 1.5 1 1.5 1 0 1.5-0.7 1.5-1.4v-2.6c0-0.3-0.1-0.4-0.4-0.4h-0.4v-1.1h2.5v6.8c0 2.3-1.2 3.3-3.2 3.3 -0.9 0-2-0.2-2.6-0.5v-1.9l1.3-0.1v0.7c0 0.3 0.1 0.4 0.3 0.5 0.3 0.1 0.6 0.1 1 0.1 1.3 0 1.8-0.8 1.8-2.1C-1283.1 500.2-1283.1 499.1-1283.1 499.1z"/></g><g transform="translate(40.654876, 26.317125)"><rect x="-1362" y="416.9" class="st2" width="28.6" height="2"/><rect x="-1357.6" y="423.6" class="st3" width="6.6" height="6"/><rect x="-1351" y="443.6" class="st3" width="6.6" height="7.3"/><rect x="-1357.6" y="432.9" class="st3" width="6.6" height="6"/><rect x="-1344.4" y="432.9" class="st3" width="6.6" height="6"/><rect x="-1344.4" y="423.6" class="st3" width="6.6" height="6"/><path class="st2" d="M-1360.5 420.2v30.7h9.5v-7.3h6.6v7.3h9.6v-30.7H-1360.5zM-1351 438.9h-6.6v-6h6.6V438.9zM-1351 429.6h-6.6v-6h6.6V429.6zM-1337.8 438.9h-6.6v-6h6.6V438.9zM-1337.8 429.6h-6.6v-6h6.6V429.6z"/></g></g></g></g></g></g></svg>