<svg xmlns:sketch="http://www.bohemiancoding.com/sketch/ns" xmlns="http://www.w3.org/2000/svg" xmlns:xlink="http://www.w3.org/1999/xlink" version="1.1" id="Layer_1" x="0" y="0" width="61" height="61" viewBox="-1387 441.9 61 61" xml:space="preserve" enable-background="new -1387 441.9 61 61">
  <style type="text/css">
    
	.st0{fill:#A8DC28;}
	.st1{fill:none;stroke:#313133;stroke-width:2;stroke-linecap:round;stroke-linejoin:round;stroke-dasharray:1,4;}
	.st2{fill:#313133;}

  </style>
  <title>
    Property-mobile-hover
  </title>
  <desc>
    Created with Sketch.
  </desc>
  <g id="Homepage" sketch:type="MSPage">
    <g id="Home-Mobile-portrait" transform="translate(-209.000000, -499.000000)" sketch:type="MSArtboardGroup">
      <g id="Hero" transform="translate(-320.000000, -182.000000)" sketch:type="MSLayerGroup">
        <g id="What-will-you-discover_x3F_-Copy" transform="translate(320.000000, 580.000000)">
          <g id="categories-hovers" transform="translate(9.000000, 21.000000)">
            <g id="Property-OFF-_x2B_-Property-Hover-_x2B_-Property-Active-_x2B_-Community-inActive-_x2B_-Animals-Active" transform="translate(40.000000, 80.000000)">
              <g id="Property-mobile-hover" transform="translate(160.191329, 0.172336)">
                <path id="Fill-1" sketch:type="MSShapeGroup" class="st0" d="M-1327 471.9c0-16.5-13.5-30-30-30s-30 13.5-30 30c0 16.5 13.5 30 30 30S-1327 488.5-1327 471.9z"/>
                <path id="Stroke-6" sketch:type="MSShapeGroup" class="st1" d="M-1333.1 483.5c1.7-3.5 2.6-7.4 2.6-11.5 0-14.6-11.9-26.5-26.5-26.5s-26.5 11.9-26.5 26.5c0 11.4 7.2 21.1 17.4 24.9 2.9 1.1 5.9 1.6 9.1 1.6C-1346.5 498.4-1337.4 492.3-1333.1 483.5z"/>
                <rect x="-1367.3" y="459.7" class="st2" width="19.5" height="1.3"/>
                <path class="st2" d="M-1366.3 461.8V482h6.5v-4.8h4.5v4.8h6.5v-20.1H-1366.3zM-1359.8 474.1h-4.5v-3.9h4.5V474.1zM-1359.8 468h-4.5V464h4.5V468zM-1350.8 474.1h-4.5v-3.9h4.5V474.1zM-1350.8 468h-4.5V464h4.5V468z"/>
                <g id="Rectangle-100-_x2B_-Rectangle-101" transform="translate(3.001576, 3.841786)"/>
              </g>
            </g>
          </g>
        </g>
      </g>
    </g>
  </g>
</svg>
