<svg xmlns:sketch="http://www.bohemiancoding.com/sketch/ns" xmlns="http://www.w3.org/2000/svg" xmlns:xlink="http://www.w3.org/1999/xlink" version="1.1" id="Layer_1" x="0" y="0" width="110" height="110" viewBox="-1362 416.9 110 110" xml:space="preserve" enable-background="new -1362 416.9 110 110">
  <style type="text/css">
    
	.st0{fill:#EFEFEF;}
	.st1{fill:none;stroke:#313133;stroke-width:2;stroke-linecap:round;stroke-linejoin:round;stroke-dasharray:1,4;}
	.st2{enable-background:new    ;}
	.st3{fill:#313133;}

  </style>
  <title>
    Property Hover
  </title>
  <desc>
    Created with Sketch Beta.
  </desc>
  <g id="PAA" sketch:type="MSPage">
    <g id="Desktop-HD-For-sale-2" transform="translate(-800.000000, -755.000000)" sketch:type="MSArtboardGroup">
      <g id="Phase-1" transform="translate(457.000000, 273.000000)" sketch:type="MSLayerGroup">
        <g id="_x31_-what-are-you-selling" transform="translate(0.000000, 34.000000)">
          <g id="categories" transform="translate(0.000000, 314.000000)">
            <g id="Property-Hover" transform="translate(343.000000, 134.000000)">
              <path id="Fill-1" sketch:type="MSShapeGroup" class="st0" d="M-1252 471.9c0-30.3-24.7-55-55-55s-55 24.7-55 55 24.7 55 55 55S-1252 502.2-1252 471.9z"/>
              <path id="Stroke-6" sketch:type="MSShapeGroup" class="st1" d="M-1262 493.7c3.2-6.6 5-14 5-21.8 0-27.6-22.4-50-50-50s-50 22.4-50 50c0 21.5 13.7 39.9 32.8 46.9 5.4 2 11.2 3.1 17.2 3.1C-1287.2 521.9-1270.1 510.4-1262 493.7z"/>
              <path id="Stroke-15" sketch:type="MSShapeGroup" class="st1" d="M-1362 416.9"/>
              <g class="st2">
                <path class="st3" d="M-1336.6 499.3h0.5c0.2 0 0.4-0.1 0.4-0.4v-6.5h-0.8v-1.2h4c2.1 0 3.3 1 3.3 2.9 0 2.1-1.5 3.2-3.6 3.2h-1.2v2h1.3v1.2h-3.9V499.3zM-1333 495.8c1.2 0 2-0.4 2-1.7 0-1.4-0.8-1.7-2.2-1.7h-0.8v3.3L-1333 495.8 -1333 495.8z"/>
                <path class="st3" d="M-1327.4 494.9c0-0.3-0.1-0.4-0.4-0.4h-0.6v-1.1h2.4v1.1c0.3-0.7 1.1-1.3 2-1.3 0.5 0 0.9 0.1 1.3 0.3v2.1h-1.3V495c0-0.2 0-0.3-0.1-0.3 -0.1-0.1-0.2-0.1-0.4-0.1 -0.8 0-1.3 0.6-1.3 1.4v3.2l1.2 0.1v1.1h-3.8v-1.1h0.5c0.3 0 0.4-0.1 0.4-0.5L-1327.4 494.9 -1327.4 494.9z"/>
                <path class="st3" d="M-1318.8 493.1c1 0 3.1 0.3 3.1 3.5 0 2.7-1.5 3.9-3.3 3.9 -1.9 0-3.1-1.2-3.1-3.7C-1322.1 493.9-1320.2 493.1-1318.8 493.1zM-1317.4 496.9c0-1.6-0.4-2.5-1.5-2.5s-1.6 1-1.6 2.3c0 1.3 0.2 2.7 1.5 2.7C-1317.8 499.4-1317.4 498.4-1317.4 496.9z"/>
                <path class="st3" d="M-1313.9 494.9c0-0.3-0.1-0.4-0.4-0.4h-0.6v-1.1h2.4v0.9c0.3-0.5 1-1.1 2.2-1.1 1.6 0 2.5 1.1 2.5 3.6 0 2.6-1.2 3.9-3.1 3.9 -0.5 0-1.1-0.2-1.5-0.4v1.9l1.1 0.1v1.1h-3.6v-1.1h0.5c0.3 0 0.4-0.1 0.4-0.5L-1313.9 494.9 -1313.9 494.9zM-1310.9 494.5c-0.8 0-1.4 0.6-1.4 1.2v3.2c0.4 0.2 0.9 0.3 1.2 0.3 1.2 0 1.6-1.2 1.6-2.4C-1309.5 495-1310.2 494.5-1310.9 494.5z"/>
                <path class="st3" d="M-1301 495.1c0 2.2-2.3 2.5-4 2.5 0.1 0.9 0.5 1.7 1.7 1.7 0.8 0 1.4-0.4 1.8-0.6l0.5 1.1c-0.2 0.2-1.1 0.8-2.5 0.8 -2.4 0-3.3-1.5-3.3-3.5 0-2.1 1.2-3.9 3.5-3.9C-1301.9 493.1-1301 493.8-1301 495.1zM-1303.3 494.3c-1.1 0-1.6 1.1-1.7 2.1 1 0 2.5-0.3 2.5-1.3C-1302.5 494.6-1302.8 494.3-1303.3 494.3z"/>
                <path class="st3" d="M-1299.1 494.9c0-0.3-0.1-0.4-0.4-0.4h-0.6v-1.1h2.4v1.1c0.3-0.7 1.1-1.3 2-1.3 0.5 0 0.9 0.1 1.3 0.3v2.1l-1.3 0.1v-0.6c0-0.2 0-0.3-0.1-0.3 -0.1-0.1-0.2-0.1-0.4-0.1 -0.8 0-1.3 0.6-1.3 1.4v3.2l1.2 0.1v1.1h-3.7v-1.1h0.5c0.3 0 0.4-0.1 0.4-0.5V494.9z"/>
                <path class="st3" d="M-1291.1 491.9v1.5h1.9l-0.1 1.2h-1.7v3.7c0 0.9 0.3 1.1 0.9 1.1 0.4 0 0.7-0.2 1-0.3l0.4 1.1c-0.4 0.3-1.1 0.5-1.8 0.5 -2.2 0-2.2-1.3-2.2-2.3v-3.7h-1l0.1-1c1-0.1 1.3-0.8 1.6-1.6h0.9V491.9z"/>
                <path class="st3" d="M-1283.1 499.1c-0.5 0.7-1.3 1.1-2.3 1.1 -1.4 0-2.2-0.8-2.2-2.4v-2.9c0-0.3-0.1-0.4-0.4-0.4h-0.4v-1.1h2.5v4c0 0.9 0.1 1.5 1 1.5 1 0 1.5-0.7 1.5-1.4v-2.6c0-0.3-0.1-0.4-0.4-0.4h-0.4v-1.1h2.5v6.8c0 2.3-1.2 3.3-3.2 3.3 -0.9 0-2-0.2-2.6-0.5v-1.9l1.3-0.1v0.7c0 0.3 0.1 0.4 0.3 0.5 0.3 0.1 0.6 0.1 1 0.1 1.3 0 1.8-0.8 1.8-2.1C-1283.1 500.2-1283.1 499.1-1283.1 499.1z"/>
              </g>
              <g id="flat-icon" transform="translate(40.654876, 26.317125)" sketch:type="MSShapeGroup">
                <rect id="Rectangle-98" x="-1362" y="416.9" class="st3" width="28.6" height="2"/>
                <path class="st3" d="M-1334.8 420.2h-25.7v30.7h9.5v-7.3h6.6v7.3h9.6V420.2zM-1351 438.9h-6.6v-6h6.6V438.9zM-1351 429.6h-6.6v-6h6.6V429.6zM-1337.8 438.9h-6.6v-6h6.6V438.9zM-1337.8 429.6h-6.6v-6h6.6V429.6z"/>
              </g>
            </g>
          </g>
        </g>
      </g>
    </g>
  </g>
</svg>
