<svg xmlns:sketch="http://www.bohemiancoding.com/sketch/ns" xmlns="http://www.w3.org/2000/svg" xmlns:xlink="http://www.w3.org/1999/xlink" version="1.1" id="Layer_1" x="0" y="0" width="56" height="56" viewBox="-1389 443.9 56 56" xml:space="preserve" enable-background="new -1389 443.9 56 56">
  <style type="text/css">
    
	.st0{fill:none;stroke:#FFFFFF;stroke-width:2;stroke-linecap:round;stroke-linejoin:round;stroke-dasharray:1,4;}
	.st1{fill:#FFFFFF;}

  </style>
  <title>
    Property-hero-icon
  </title>
  <desc>
    Created with Sketch.
  </desc>
  <path id="Stroke-6" class="st0" d="M-1336.9 483.5c1.7-3.5 2.6-7.4 2.6-11.5 0-14.6-11.9-26.5-26.5-26.5s-26.5 11.9-26.5 26.5c0 11.4 7.2 21.1 17.4 24.9 2.9 1.1 5.9 1.6 9.1 1.6C-1350.3 498.5-1341.2 492.4-1336.9 483.5z"/>
  <path class="st1" d="M-1371.6 459.9v24.8h7.9v-5.9h5.5v5.9h7.9v-24.8H-1371.6zM-1363.7 475.1h-5.5v-4.9h5.5V475.1zM-1363.7 467.5h-5.5v-4.9h5.5V467.5zM-1352.7 475.1h-5.5v-4.9h5.5V475.1zM-1352.7 467.5h-5.5v-4.9h5.5V467.5z"/>
  <rect id="Rectangle-98" x="-1372.8" y="457.2" class="st1" width="23.7" height="1.6"/>
</svg>
