<?xml version="1.0" encoding="utf-8"?>
<!-- Generator: Adobe Illustrator 20.1.0, SVG Export Plug-In . SVG Version: 6.00 Build 0)  -->
<svg version="1.1" id="Layer_1" xmlns="http://www.w3.org/2000/svg" xmlns:xlink="http://www.w3.org/1999/xlink" x="0px" y="0px"
	 width="43px" height="43px" viewBox="0 0 43 43" style="enable-background:new 0 0 43 43;" xml:space="preserve">
<style type="text/css">
	.st0{fill:none;stroke:#313133;stroke-width:2;stroke-linecap:round;stroke-linejoin:round;stroke-dasharray:1,3;}
	.st1{fill:#313133;}
</style>
<path id="Stroke-3" class="st0" d="M40,30.4c1.3-2.7,2-5.7,2-8.9C42,10.2,32.8,1,21.5,1S1,10.2,1,21.5c0,8.8,5.6,16.3,13.5,19.3
	c2.2,0.9,4.6,1.2,7,1.2C29.6,42,36.7,37.3,40,30.4L40,30.4z"/>
<polygon id="Fill-5" class="st1" points="11.7,11.9 30.2,11.9 30.2,10.7 11.7,10.7 "/>
<path class="st1" d="M12.6,12.8V32h6.2v-4.6h4.3V32h6.2V12.8H12.6z M18.8,24.4h-4.3v-3.7h4.3V24.4z M18.8,18.6h-4.3v-3.7h4.3V18.6z
	 M27.4,24.4h-4.3v-3.7h4.3V24.4z M27.4,18.6h-4.3v-3.7h4.3V18.6z"/>
</svg>
