<svg xmlns:sketch="http://www.bohemiancoding.com/sketch/ns" xmlns="http://www.w3.org/2000/svg" xmlns:xlink="http://www.w3.org/1999/xlink" version="1.1" id="Layer_1" x="0" y="0" width="61" height="61" viewBox="-1387 441.9 61 61" xml:space="preserve" enable-background="new -1387 441.9 61 61">
  <style type="text/css">
    
	.st0{fill:#EFEFEF;}
	.st1{fill:none;stroke:#313133;stroke-width:2;stroke-linecap:round;stroke-linejoin:round;stroke-dasharray:1,4;}
	.st2{fill:#313133;}

  </style>
  <title>
    Property-mobile
  </title>
  <desc>
    Created with Sketch.
  </desc>
  <path id="Fill-1" sketch:type="MSShapeGroup" class="st0" d="M-1326.8 472.1c0-16.5-13.5-30-30-30 -16.5 0-30 13.5-30 30 0 16.5 13.5 30 30 30C-1340.3 502.1-1326.8 488.7-1326.8 472.1z"/>
  <path id="Stroke-6" sketch:type="MSShapeGroup" class="st1" d="M-1332.9 483.6c1.7-3.5 2.6-7.4 2.6-11.5 0-14.6-11.9-26.5-26.5-26.5s-26.5 11.9-26.5 26.5c0 11.4 7.2 21.1 17.4 24.9 2.9 1.1 5.9 1.6 9.1 1.6C-1346.3 498.6-1337.2 492.5-1332.9 483.6z"/>
  <rect x="-1367.1" y="459.8" class="st2" width="19.5" height="1.3"/>
  <path class="st2" d="M-1366.1 482.2h6.5v-4.8h4.5v4.8h6.5V462h-17.5V482.2zM-1355.1 464.2h4.5v3.9h-4.5V464.2zM-1355.1 470.3h4.5v3.9h-4.5V470.3zM-1364.1 464.2h4.5v3.9h-4.5V464.2zM-1364.1 470.3h4.5v3.9h-4.5V470.3z"/>
  <g id="Rectangle-100-_x2B_-Rectangle-101" transform="translate(3.001576, 3.841786)"/>
</svg>
