<svg xmlns:sketch="http://www.bohemiancoding.com/sketch/ns" xmlns="http://www.w3.org/2000/svg" xmlns:xlink="http://www.w3.org/1999/xlink" version="1.1" id="Layer_1" x="0" y="0" width="111" height="112" viewBox="0 0 111 112" xml:space="preserve" enable-background="new 0 0 111 112">
  <style type="text/css">
    
	.st0{fill:#FFFFFF;}
	.st1{fill:#313133;}

  </style>
  <title>
    Any-hover
  </title>
  <desc>
    Created with Sketch.
  </desc>
  <g id="landing-page" sketch:type="MSPage">
    <g id="Desktop---landing-Page-Motors" transform="translate(-185.000000, -807.000000)" sketch:type="MSArtboardGroup">
      <g id="Find-a-car" transform="translate(-43.000000, 537.000000)" sketch:type="MSLayerGroup">
        <g id="Part2-Copy" transform="translate(227.000000, 242.000000)" sketch:type="MSShapeGroup">
          <g id="Any-hover" transform="translate(1.000000, 28.000000)">
            <path id="Fill-1-Copy" class="st0" d="M55.5 0.2C24.9 0.2 0 25.1 0 55.7c0 30.6 24.9 55.5 55.5 55.5 30.6 0 55.5-24.9 55.5-55.5C111 25.1 86.1 0.2 55.5 0.2z"/>
            <path id="Any" class="st1" d="M39.8 59.3c-0.1 0.3-0.2 0.5-0.5 0.5l-0.6 0.1v1.5h4.2v-1.5l-1.1-0.1 0.5-1.6h4.2l0.4 1.1c0.1 0.4-0.1 0.5-0.4 0.5l-0.7 0.1v1.5h4.6v-1.5l-1-0.1h0l-3.7-10.4h-4.1v1.5l1.1 0.1L39.8 59.3zM44.4 51.4L44.4 51.4l1.7 5.1h-3.3L44.4 51.4zM51 53.7l0.8 0.1c0.3 0 0.5 0.2 0.5 0.6v5c0 0.5-0.2 0.6-0.5 0.6L51.1 60v1.4h4.3v-1.4l-1-0.1v-4.4c0-0.9 0.7-1.8 1.9-1.8 1.2 0 1.5 0.8 1.5 1.9v3.7c0 0.5-0.2 0.6-0.5 0.6L56.5 60v1.4h4.3v-1.4l-1-0.1v-4.7c0-2.1-1.1-3.1-2.9-3.1 -1.2 0-2.3 0.5-2.9 1.4v-1.2h-3V53.7zM68.5 61c0 1.6-0.7 2.6-2.3 2.6 -0.5 0-0.9-0.1-1.3-0.2 -0.3-0.1-0.4-0.3-0.4-0.6V62l-1.7 0.1v2.5c0.8 0.4 2.2 0.6 3.4 0.6 2.7 0 4.2-1.2 4.2-4.2v-8.7h-3.2v1.5l0.6 0c0.3 0 0.5 0.1 0.5 0.5v3.3c0 0.9-0.7 1.8-1.9 1.8 -1.2 0-1.3-0.8-1.3-1.9v-5.2h-3.2v1.5l0.6 0c0.3 0 0.4 0.1 0.4 0.5v3.6c0 2.1 1 3.1 2.8 3.1 1.2 0 2.3-0.5 2.9-1.4V61z"/>
          </g>
        </g>
      </g>
    </g>
  </g>
</svg>
