<svg xmlns:sketch="http://www.bohemiancoding.com/sketch/ns" xmlns="http://www.w3.org/2000/svg" xmlns:xlink="http://www.w3.org/1999/xlink" version="1.1" id="Layer_1" x="0" y="0" width="112" height="111" viewBox="0 0 112 111" xml:space="preserve" enable-background="new 0 0 112 111">
  <style type="text/css">
    
	.st0{fill:#FFFFFF;}
	.st1{fill:#313133;}

  </style>
  <title>
    Commercial
  </title>
  <desc>
    Created with Sketch.
  </desc>
  <g id="landing-page" sketch:type="MSPage">
    <g id="Desktop---Landing-Page-Property" transform="translate(-457.000000, -933.000000)" sketch:type="MSArtboardGroup">
      <g id="FIla-2" transform="translate(181.000000, 932.500000)" sketch:type="MSLayerGroup">
        <g id="Commercial" transform="translate(276.000000, 0.000000)" sketch:type="MSShapeGroup">
          <path id="Fill-1-Copy-21" class="st0" d="M56 0.5C25.4 0.5 0.5 25.4 0.5 56c0 30.6 24.9 55.5 55.5 55.5 30.6 0 55.5-24.9 55.5-55.5C111.5 25.4 86.6 0.5 56 0.5z"/>
          <path id="Imported-Layers" class="st1" d="M37.5 42.5c0 2.2 1.5 3.9 3.5 4.5v15.2h-2.3c-0.6 0-1.2 0.5-1.2 1.2s0.5 1.2 1.2 1.2h34.7c0.6 0 1.2-0.5 1.2-1.2s-0.5-1.2-1.2-1.2H71V46.9c2-0.5 3.5-2.3 3.5-4.5v-1.2h-37V42.5L37.5 42.5zM60.6 47.1c2.6 0 4.6-2.1 4.6-4.6 0 2.2 1.5 3.9 3.5 4.5v15.2H51.4v-15c2.6 0 4.6-2.1 4.6-4.6C56 45 58.1 47.1 60.6 47.1L60.6 47.1zM50.2 46.9v15.2h-6.9V46.9c2-0.5 3.5-2.3 3.5-4.5C46.8 44.6 48.2 46.4 50.2 46.9L50.2 46.9zM69.9 30.9H42.1l-4.6 9.2h37L69.9 30.9 69.9 30.9zM47.3 33.5L45 38.1c-0.1 0.2-0.3 0.3-0.5 0.3 -0.1 0-0.2 0-0.3-0.1 -0.3-0.1-0.4-0.5-0.3-0.8l2.3-4.6c0.1-0.3 0.5-0.4 0.8-0.3C47.3 32.8 47.4 33.2 47.3 33.5L47.3 33.5zM51.9 33.5l-2.3 4.6c-0.1 0.2-0.3 0.3-0.5 0.3 -0.1 0-0.2 0-0.3-0.1 -0.3-0.1-0.4-0.5-0.3-0.8l2.3-4.6c0.1-0.3 0.5-0.4 0.8-0.3C51.9 32.8 52 33.2 51.9 33.5L51.9 33.5zM56.6 37.8c0 0.3-0.3 0.6-0.6 0.6 -0.3 0-0.6-0.3-0.6-0.6v-4.6c0-0.3 0.3-0.6 0.6-0.6 0.3 0 0.6 0.3 0.6 0.6V37.8L56.6 37.8zM63.2 38.3c-0.1 0-0.2 0.1-0.3 0.1 -0.2 0-0.4-0.1-0.5-0.3l-2.5-4.6c-0.2-0.3 0-0.6 0.2-0.8 0.3-0.2 0.6-0.1 0.8 0.2l2.5 4.6C63.6 37.8 63.5 38.2 63.2 38.3L63.2 38.3zM67.8 38.3c-0.1 0-0.2 0.1-0.3 0.1 -0.2 0-0.4-0.1-0.5-0.3l-2.3-4.6c-0.1-0.3 0-0.6 0.3-0.8 0.3-0.1 0.6 0 0.8 0.3l2.3 4.6C68.2 37.9 68.1 38.2 67.8 38.3L67.8 38.3zM47.3 55.3v-2.7c-0.3-0.2-0.6-0.6-0.6-1 0-0.6 0.5-1.2 1.2-1.2 0.6 0 1.2 0.5 1.2 1.2 0 0.4-0.2 0.8-0.6 1v2.7c0.3 0.2 0.6 0.6 0.6 1 0 0.6-0.5 1.2-1.2 1.2 -0.6 0-1.2-0.5-1.2-1.2C46.8 55.9 47 55.6 47.3 55.3L47.3 55.3zM42.1 28.6c0-0.6 0.5-1.2 1.2-1.2h25.4c0.6 0 1.2 0.5 1.2 1.2 0 0.6-0.5 1.2-1.2 1.2H43.3C42.6 29.7 42.1 29.2 42.1 28.6L42.1 28.6zM57.8 53.3l-0.8-0.8 3.3-3.3L61 50 57.8 53.3 57.8 53.3zM57.8 56.5l-0.8-0.8 6.5-6.5 0.8 0.8L57.8 56.5 57.8 56.5zM63.5 52.5l0.8 0.8L61 56.5l-0.8-0.8L63.5 52.5 63.5 52.5z"/>
          <path id="Flats-Copy-5" class="st1" d="M23.5 73.2c0.3 0.1 0.3 0.2 0.3 0.5v1.1l1.4-0.1v-2.4c-0.8-0.4-1.8-0.6-2.6-0.6 -2.2 0-4.4 1.2-4.4 4.9 0 3.2 1.6 4.8 4.4 4.8 0.9 0 2-0.2 2.8-0.6v-2.4L24 78.3v1.1c0 0.3 0 0.4-0.3 0.5C23.4 80 23 80 22.6 80c-1.9 0-2.7-1.3-2.7-3.5 0-2.1 0.9-3.4 2.6-3.4C22.9 73.1 23.3 73.2 23.5 73.2L23.5 73.2zM29.8 80.2c-1.3 0-1.5-1.4-1.5-2.7 0-1.3 0.4-2.3 1.6-2.3 1.1 0 1.5 1 1.5 2.5C31.3 79.2 30.9 80.2 29.8 80.2L29.8 80.2zM26.5 77.7c0 2.5 1.2 3.7 3.1 3.7 1.8 0 3.3-1.2 3.3-3.9 0-3.2-2.1-3.5-3.1-3.5C28.4 74 26.5 74.8 26.5 77.7L26.5 77.7zM33.9 75.3l0.6 0c0.3 0 0.3 0.1 0.3 0.4v3.9h0c0 0.3-0.1 0.4-0.4 0.5l-0.5 0v1.1h3.3v-1.1l-0.8 0v-3.4c0-0.7 0.4-1.4 1.4-1.4 0.9 0 1 0.7 1 1.5v2.9c0 0.3-0.1 0.4-0.4 0.5l-0.5 0v1.1h3.3v-1.1l-0.8 0v-3.4c0-0.8 0.4-1.4 1.4-1.4 0.9 0 1 0.7 1 1.5v2.9c0 0.3-0.2 0.4-0.4 0.4l-0.5 0v1.1h3.3v-1.1l-0.8 0v-3.7c0-1.7-0.8-2.4-2.1-2.4 -0.9 0-1.6 0.4-2.1 1.1 -0.3-0.8-1-1.1-1.9-1.1 -0.9 0-1.6 0.4-2.1 1.1v-0.9h-2.4V75.3zM46 75.3l0.6 0c0.3 0 0.3 0.1 0.3 0.4v3.9h0c0 0.3-0.1 0.4-0.4 0.5l-0.5 0v1.1h3.3v-1.1l-0.8 0v-3.4c0-0.7 0.4-1.4 1.4-1.4 0.9 0 1 0.7 1 1.5v2.9c0 0.3-0.1 0.4-0.4 0.5l-0.5 0v1.1h3.3v-1.1l-0.8 0v-3.4c0-0.8 0.4-1.4 1.4-1.4 0.9 0 1 0.7 1 1.5v2.9c0 0.3-0.2 0.4-0.4 0.4l-0.5 0v1.1h3.3v-1.1l-0.8 0v-3.7c0-1.7-0.8-2.4-2.1-2.4 -0.9 0-1.6 0.4-2.1 1.1 -0.3-0.8-1-1.1-1.9-1.1 -0.9 0-1.6 0.4-2.1 1.1v-0.9H46V75.3zM61.7 74c-2.3 0-3.5 1.8-3.5 3.9 0 2.1 0.9 3.5 3.3 3.5 1.3 0 2.2-0.6 2.5-0.8l-0.5-1.1c-0.3 0.2-0.9 0.6-1.8 0.6 -1.2 0-1.7-0.7-1.7-1.7 1.7 0 4-0.4 4-2.5C64 74.7 63.1 74 61.7 74L61.7 74zM62.4 75.9c0 1.1-1.5 1.3-2.5 1.3 0-1 0.5-2.1 1.7-2.1C62.1 75.2 62.4 75.4 62.4 75.9L62.4 75.9zM65.8 79.7c0 0.3-0.1 0.4-0.4 0.5l-0.5 0v1.1h3.8v-1.1l-1.2-0.1v-3.2c0-0.8 0.5-1.4 1.3-1.4 0.2 0 0.3 0 0.4 0.1 0.1 0.1 0.1 0.2 0.1 0.3v0.6l1.3-0.1v-2.1c-0.5-0.2-0.9-0.3-1.3-0.3 -0.9 0-1.7 0.6-2 1.3v-1h-2.4v1.1l0.6 0c0.3 0 0.3 0.1 0.3 0.4V79.7zM74.9 80.1c-1.2 0-1.8-1-1.8-2.5 0-1.6 0.6-2.4 1.7-2.4 0.2 0 0.4 0 0.5 0.1 0.3 0.1 0.3 0.2 0.3 0.5v0.7l1.3-0.1v-1.8c-0.7-0.4-1.3-0.6-2.2-0.6 -1.6 0-3.3 1-3.3 3.8 0 2.3 1.2 3.6 3.3 3.6 1 0 1.9-0.4 2.4-0.8l-0.6-1.1C75.9 79.9 75.4 80.1 74.9 80.1L74.9 80.1zM80.5 74.2H78v1.2l0.5 0c0.3 0 0.3 0.1 0.3 0.4v3.9c0 0.3-0.2 0.4-0.4 0.4l-0.5 0v1.1h3.3v-1.1l-0.8 0V74.2zM78.5 72.2c0 0.6 0.4 1 1.1 1 0.6 0 1.1-0.4 1.1-1 0-0.6-0.4-1-1.1-1C78.9 71.2 78.5 71.7 78.5 72.2L78.5 72.2zM88.4 74.5c-1-0.4-2-0.5-2.5-0.5 -2.5 0-3.7 1.6-3.7 4 0 2 0.8 3.4 2.8 3.4 0.8 0 1.5-0.4 1.9-1l0 0v0.8h2.2v-1.1l-0.4 0c-0.3 0-0.3-0.1-0.3-0.4V74.5zM86.8 79c0 0.6-0.5 1.2-1.4 1.2 -1.2 0-1.5-1.1-1.5-2.3 0-1.5 0.4-2.8 1.8-2.8 0.4 0 0.9 0.1 1.1 0.2V79zM92.6 71.2h-2.5v1.2l0.5 0c0.2 0 0.3 0.1 0.3 0.3v6.9c0 0.3-0.2 0.4-0.4 0.4l-0.5 0v1.1h3.3v-1.1l-0.8 0V71.2z"/>
        </g>
      </g>
    </g>
  </g>
</svg>
