<svg xmlns:sketch="http://www.bohemiancoding.com/sketch/ns" xmlns="http://www.w3.org/2000/svg" xmlns:xlink="http://www.w3.org/1999/xlink" version="1.1" id="Layer_1" x="0" y="0" width="112" height="111" viewBox="0 0 112 111" xml:space="preserve" enable-background="new 0 0 112 111">
  <style type="text/css">
    
	.st0{fill:#FFFFFF;}
	.st1{fill:none;stroke:#313133;stroke-width:2;stroke-linecap:round;stroke-linejoin:round;stroke-dasharray:1,4;}
	.st2{fill:#313133;}

  </style>
  <title>
    Flats-hover
  </title>
  <desc>
    Created with Sketch.
  </desc>
  <g id="landing-page" sketch:type="MSPage">
    <g id="Desktop---Landing-Page-Property" transform="translate(-457.000000, -804.000000)" sketch:type="MSArtboardGroup">
      <g id="Fila-1" transform="translate(184.000000, 803.000000)" sketch:type="MSLayerGroup">
        <g id="Flats-hover" transform="translate(273.000000, 0.500000)" sketch:type="MSShapeGroup">
          <path id="Fill-1-Copy-18" class="st0" d="M56 0.5C25.4 0.5 0.5 25.4 0.5 56c0 30.6 24.9 55.5 55.5 55.5 30.6 0 55.5-24.9 55.5-55.5C111.5 25.4 86.6 0.5 56 0.5z"/>
          <path id="Stroke-2-Copy-3" class="st1" d="M101 77.8c3.2-6.6 5-14 5-21.8 0-27.6-22.4-50-50-50S6 28.4 6 56c0 21.5 13.7 39.9 32.8 46.9 5.4 2 11.2 3.1 17.2 3.1C75.8 106 92.9 94.5 101 77.8L101 77.8z"/>
          <path id="Imported-Layers" class="st2" d="M76.9 60h-0.5C76 60 76 59.7 76 59.7V35.2c0-0.6-0.5-1.1-1.1-1.1h-8.6C66 34 66 33.7 66 33.7V29c0 0 0-0.1 0.2-0.1 0.3 0 0.6-0.3 0.6-0.6v-1.1c0-0.3-0.3-0.6-0.6-0.6H46.3c-0.3 0-0.6 0.3-0.6 0.6v1.1c0 0.3 0.3 0.6 0.6 0.6 0.2 0 0.2 0.2 0.2 0.2v4.5c0 0 0 0.4-0.2 0.4h-9.3c-0.6 0-1.1 0.5-1.1 1.1v24.6c0 0.2-0.1 0.3-0.4 0.3H35c-0.3 0-0.6 0.3-0.6 0.6v1.3c0 0.3 0.3 0.6 0.6 0.6h41.8c0.3 0 0.6-0.3 0.6-0.6v-1.3C77.5 60.3 77.2 60 76.9 60L76.9 60zM58.6 39.4h3.7c0.3 0 0.5 0.2 0.5 0.5v3.7c0 0.3-0.2 0.5-0.5 0.5h-3.7c-0.3 0-0.5-0.2-0.5-0.5v-3.7C58.1 39.6 58.3 39.4 58.6 39.4L58.6 39.4zM58.1 37.1v-3.7c0-0.3 0.2-0.5 0.5-0.5h3.7c0.3 0 0.5 0.2 0.5 0.5v3.7c0 0.3-0.2 0.5-0.5 0.5h-3.7C58.3 37.6 58.1 37.4 58.1 37.1L58.1 37.1zM58.6 45.7h3.7c0.3 0 0.5 0.2 0.5 0.5v3.7c0 0.3-0.2 0.5-0.5 0.5h-3.7c-0.3 0-0.5-0.2-0.5-0.5v-3.7C58.1 45.9 58.3 45.7 58.6 45.7L58.6 45.7zM59.1 53.2c0.3 0 0.5 0.2 0.5 0.5v5.8c0 0.3-0.2 0.5-0.5 0.5h-5.7c-0.3 0-0.5-0.2-0.5-0.5v-5.8c0-0.3 0.2-0.5 0.5-0.5H59.1L59.1 53.2zM54.4 37.1c0 0.3-0.2 0.5-0.5 0.5h-3.7c-0.3 0-0.5-0.2-0.5-0.5v-3.7c0-0.3 0.2-0.5 0.5-0.5h3.7c0.3 0 0.5 0.2 0.5 0.5V37.1L54.4 37.1zM50.2 39.4h3.7c0.3 0 0.5 0.2 0.5 0.5v3.7c0 0.3-0.2 0.5-0.5 0.5h-3.7c-0.3 0-0.5-0.2-0.5-0.5v-3.7C49.7 39.6 49.9 39.4 50.2 39.4L50.2 39.4zM50.2 45.7h3.7c0.3 0 0.5 0.2 0.5 0.5v3.7c0 0.3-0.2 0.5-0.5 0.5h-3.7c-0.3 0-0.5-0.2-0.5-0.5v-3.7C49.7 45.9 49.9 45.7 50.2 45.7L50.2 45.7zM67.5 39.8c0-0.3 0.2-0.5 0.5-0.5h3.7c0.3 0 0.5 0.2 0.5 0.5v3.7c0 0.3-0.2 0.5-0.5 0.5H68c-0.3 0-0.5-0.2-0.5-0.5V39.8L67.5 39.8zM67.5 46.3c0-0.3 0.2-0.5 0.5-0.5h3.7c0.3 0 0.5 0.2 0.5 0.5v3.7c0 0.3-0.2 0.5-0.5 0.5H68c-0.3 0-0.5-0.2-0.5-0.5V46.3L67.5 46.3zM67.5 52.6c0-0.3 0.2-0.5 0.5-0.5h3.7c0.3 0 0.5 0.2 0.5 0.5v3.7c0 0.3-0.2 0.5-0.5 0.5H68c-0.3 0-0.5-0.2-0.5-0.5V52.6L67.5 52.6zM39.7 39.8c0-0.3 0.2-0.5 0.5-0.5h3.7c0.3 0 0.5 0.2 0.5 0.5v3.7c0 0.3-0.2 0.5-0.5 0.5h-3.7c-0.3 0-0.5-0.2-0.5-0.5V39.8L39.7 39.8zM39.7 46.3c0-0.3 0.2-0.5 0.5-0.5h3.7c0.3 0 0.5 0.2 0.5 0.5v3.7c0 0.3-0.2 0.5-0.5 0.5h-3.7c-0.3 0-0.5-0.2-0.5-0.5V46.3L39.7 46.3zM39.7 52.6c0-0.3 0.2-0.5 0.5-0.5h3.7c0.3 0 0.5 0.2 0.5 0.5v3.7c0 0.3-0.2 0.5-0.5 0.5h-3.7c-0.3 0-0.5-0.2-0.5-0.5V52.6L39.7 52.6z"/>
          <path id="Flats" class="st2" d="M40.7 79.5h3.8v-1.2l-1.2 0v-2.7h3.4v-1.4h-3.4v-2.5h2.4c0.4 0 0.4 0.2 0.4 0.4v0.6l1.4-0.1v-2.3h-6.8v1.2l0.8 0v6.5c0 0.3-0.2 0.4-0.4 0.4l-0.5 0V79.5zM50.8 69.5h-2.5v1.2l0.5 0c0.2 0 0.3 0.1 0.3 0.3v6.9c0 0.3-0.2 0.4-0.4 0.4l-0.5 0v1.1h3.3v-1.1l-0.8 0V69.5zM58.8 72.7c-1-0.4-2-0.5-2.5-0.5 -2.5 0-3.7 1.6-3.7 4 0 2 0.8 3.4 2.8 3.4 0.8 0 1.5-0.4 1.9-1l0 0v0.8h2.2v-1.1l-0.4 0c-0.3 0-0.4-0.1-0.4-0.4V72.7zM57.1 77.3c0 0.6-0.5 1.2-1.4 1.2 -1.2 0-1.5-1.1-1.5-2.3 0-1.5 0.4-2.8 1.8-2.8 0.4 0 0.9 0.1 1.1 0.2V77.3zM61.7 71c-0.3 0.8-0.6 1.6-1.6 1.6l-0.1 1h1v3.7c0 1 0 2.3 2.2 2.3 0.7 0 1.4-0.2 1.8-0.5l-0.4-1.1c-0.2 0.1-0.6 0.3-1 0.3 -0.6 0-0.9-0.3-0.9-1.1v-3.7h1.7l0.1-1.2h-1.9V71H61.7zM69.1 73.5c0.3 0.1 0.3 0.2 0.3 0.5v0.6l1.3-0.1v-1.7c-0.5-0.3-1.4-0.6-2.3-0.6 -1.5 0-2.7 0.8-2.7 2.2 0 1.6 1.1 1.9 2.2 2.2 0.8 0.2 1.4 0.3 1.4 1 0 0.6-0.4 0.9-1.1 0.9 -0.3 0-0.7 0-0.9-0.1 -0.3-0.1-0.3-0.2-0.3-0.5v-0.7l-1.3 0.1v1.9c0.6 0.3 1.7 0.4 2.6 0.4 1.5 0 2.7-0.8 2.7-2.2 0-1.5-1.2-1.9-2.3-2.2 -0.7-0.2-1.3-0.4-1.3-1 0-0.6 0.4-0.8 1.1-0.8C68.6 73.4 68.8 73.4 69.1 73.5L69.1 73.5z"/>
        </g>
      </g>
    </g>
  </g>
</svg>
