<svg xmlns:sketch="http://www.bohemiancoding.com/sketch/ns" xmlns="http://www.w3.org/2000/svg" xmlns:xlink="http://www.w3.org/1999/xlink" version="1.1" id="Layer_1" x="0" y="0" width="112" height="112" viewBox="-241 364.9 112 112" xml:space="preserve" enable-background="new -241 364.9 112 112">
  <style type="text/css">
    
	.st0{fill:#FFFFFF;}
	.st1{fill:none;stroke:#313133;stroke-width:2;stroke-linecap:round;stroke-linejoin:round;stroke-dasharray:1,4;}
	.st2{fill:#313133;stroke:#313133;stroke-width:2;}
	.st3{fill:#313133;}

  </style>
  <title>
    Garages-hover
  </title>
  <desc>
    Created with Sketch.
  </desc>
  <g id="landing-page" sketch:type="MSPage">
    <g id="Desktop---Landing-Page-Property" transform="translate(-181.000000, -934.000000)" sketch:type="MSArtboardGroup">
      <g id="FIla-2" transform="translate(181.000000, 932.500000)" sketch:type="MSLayerGroup">
        <g id="Group" sketch:type="MSShapeGroup">
          <g id="Garages-hover" transform="translate(0.000000, 1.000000)">
            <path id="Fill-1-Copy-26" class="st0" d="M-184.8 365.4c-30.7 0-55.8 25-55.8 55.7 0 30.7 25 55.8 55.8 55.8 30.7 0 55.8-25 55.8-55.8C-129 390.4-154 365.4-184.8 365.4z"/>
            <path id="Stroke-2-Copy-8" class="st1" d="M-139.7 442.9c3.2-6.6 5-14 5-21.8 0-27.6-22.4-50-50-50s-50 22.4-50 50c0 21.5 13.7 39.9 32.8 46.9 5.4 2 11.2 3.1 17.2 3.1C-165 471.1-147.8 459.6-139.7 442.9L-139.7 442.9z"/>
            <g id="Imported-Layers" transform="translate(36.750000, 32.000000)">
              <path id="Fill-1" class="st2" d="M-202.5 365v25.8h-1.1v-24.9h-36v24.9h-1.1V365H-202.5"/>
              <path id="Fill-2" class="st3" d="M-237.7 368.1h32v3.6h-32L-237.7 368.1"/>
              <path id="Fill-3" class="st3" d="M-237.7 373.1h32v3.6h-32L-237.7 373.1"/>
              <path id="Fill-3-Copy" class="st3" d="M-237.7 378.1h32v3.6h-32L-237.7 378.1"/>
            </g>
            <path id="Flats-Copy-3" class="st3" d="M-203.1 441.3c0-0.3 0.1-0.4 0.4-0.5l0.3 0v-1.1h-3.5v1.2l1.1 0h0v2.1c-0.3 0.2-0.9 0.3-1.5 0.3 -1.7 0-2.4-1.3-2.4-3.5 0-2.1 0.8-3.3 2.7-3.3 0.4 0 0.8 0 1 0.1 0.3 0.1 0.3 0.2 0.3 0.5v1.1l1.4-0.1v-2.4c-0.8-0.4-1.8-0.6-2.7-0.6 -2 0-4.5 1.2-4.5 4.8 0 3.2 1.6 4.8 4.1 4.8 1.3 0 2.4-0.4 3.2-0.9V441.3zM-195.3 437.8c-1-0.4-2-0.5-2.5-0.5 -2.5 0-3.7 1.6-3.7 4 0 2 0.8 3.4 2.8 3.4 0.8 0 1.5-0.4 1.9-1l0 0v0.8h2.2v-1.1l-0.4 0c-0.3 0-0.3-0.1-0.3-0.4V437.8zM-196.9 442.3c0 0.6-0.5 1.2-1.4 1.2 -1.2 0-1.5-1.1-1.5-2.3 0-1.5 0.4-2.8 1.8-2.8 0.4 0 0.9 0.1 1.1 0.2V442.3zM-192.8 443c0 0.4-0.1 0.4-0.4 0.5l-0.5 0v1.1h3.8v-1.1l-1.2-0.1v-3.2c0-0.8 0.5-1.4 1.3-1.4 0.2 0 0.3 0 0.4 0.1 0.1 0.1 0.1 0.2 0.1 0.3v0.6l1.3-0.1v-2.1c-0.5-0.2-0.9-0.3-1.3-0.3 -0.9 0-1.7 0.6-2 1.3v-1.1h-2.4v1.1l0.6 0c0.3 0 0.4 0.1 0.4 0.4V443zM-180.9 437.8c-1-0.4-2-0.5-2.5-0.5 -2.5 0-3.7 1.6-3.7 4 0 2 0.8 3.4 2.8 3.4 0.8 0 1.5-0.4 1.9-1l0 0v0.8h2.2v-1.1l-0.4 0c-0.3 0-0.4-0.1-0.4-0.4V437.8zM-182.5 442.3c0 0.6-0.5 1.2-1.4 1.2 -1.2 0-1.5-1.1-1.5-2.3 0-1.5 0.4-2.8 1.8-2.8 0.4 0 0.9 0.1 1.1 0.2V442.3zM-176.3 447.6c2.1 0 3.1-1 3.2-3 0-0.5 0-1 0-1.5v-5.2c-0.8-0.4-1.9-0.5-2.6-0.5 -2.1 0-3.6 1.2-3.6 3.7 0 1.6 0.7 3.3 2.7 3.3 0.7 0 1.4-0.2 1.9-0.8v0.8c0 1.2-0.3 2.1-1.6 2.1 -0.4 0-0.7 0-1-0.1 -0.3-0.1-0.3-0.2-0.3-0.5V445l-1.3 0.1v1.9C-178.3 447.4-177.1 447.6-176.3 447.6L-176.3 447.6zM-174.6 441.7c0 0.9-0.6 1.4-1.4 1.4 -1.3 0-1.5-1.3-1.5-2.2 0-1.4 0.6-2.3 1.8-2.3 0.4 0 0.8 0.1 1.1 0.2V441.7zM-168.1 437.3c-2.3 0-3.5 1.8-3.5 3.9 0 2.1 0.9 3.5 3.3 3.5 1.3 0 2.2-0.6 2.5-0.8l-0.5-1.1c-0.3 0.2-0.9 0.6-1.8 0.6 -1.2 0-1.7-0.7-1.7-1.7 1.7 0 4-0.4 4-2.5C-165.9 438-166.8 437.3-168.1 437.3L-168.1 437.3zM-167.4 439.3c0 1.1-1.5 1.3-2.5 1.3 0-1 0.5-2.1 1.7-2.1C-167.7 438.5-167.4 438.8-167.4 439.3L-167.4 439.3zM-161.2 438.6c0.3 0.1 0.3 0.2 0.3 0.5v0.6l1.3-0.1v-1.7c-0.5-0.3-1.4-0.6-2.3-0.6 -1.5 0-2.7 0.8-2.7 2.2 0 1.6 1.1 1.9 2.2 2.2 0.8 0.2 1.4 0.3 1.4 1 0 0.6-0.4 0.9-1.1 0.9 -0.3 0-0.7 0-0.9-0.1 -0.3-0.1-0.3-0.2-0.3-0.5v-0.7l-1.3 0.1v1.9c0.6 0.3 1.7 0.4 2.6 0.4 1.5 0 2.7-0.8 2.7-2.2 0-1.5-1.2-1.9-2.3-2.2 -0.7-0.2-1.3-0.4-1.3-1 0-0.6 0.4-0.8 1.1-0.8C-161.7 438.5-161.5 438.5-161.2 438.6L-161.2 438.6z"/>
          </g>
        </g>
      </g>
    </g>
  </g>
</svg>
