<svg xmlns:sketch="http://www.bohemiancoding.com/sketch/ns" xmlns="http://www.w3.org/2000/svg" xmlns:xlink="http://www.w3.org/1999/xlink" version="1.1" id="Layer_1" x="0" y="0" width="112" height="111" viewBox="-343 180 112 111" xml:space="preserve" enable-background="new -343 180 112 111">
  <style type="text/css">
    
	.st0{fill:#FFFFFF;}
	.st1{fill:#313133;}

  </style>
  <title>
    Houses
  </title>
  <desc>
    Created with Sketch.
  </desc>
  <g id="landing-page" sketch:type="MSPage">
    <g id="Desktop---Landing-Page-Property" transform="translate(-319.000000, -804.000000)" sketch:type="MSArtboardGroup">
      <g id="Fila-1" transform="translate(184.000000, 803.000000)" sketch:type="MSLayerGroup">
        <g id="Houses" transform="translate(135.000000, 0.500000)" sketch:type="MSShapeGroup">
          <path id="Fill-1-Copy-16" class="st0" d="M-287 180.5c-30.6 0-55.5 24.9-55.5 55.5 0 30.6 24.9 55.5 55.5 55.5 30.6 0 55.5-24.9 55.5-55.5C-231.5 205.4-256.4 180.5-287 180.5z"/>
          <g id="Imported-Layers" transform="translate(34.000000, 26.000000)">
            <path id="Fill-1" class="st1" d="M-335.9 217.4c1.2 0 10.9 0 10.9 0l0-8.6c0 0-0.2-1.4 1.3-1.4h4.5c1.7 0 1.6 1.4 1.6 1.4l0 8.6h10.7c1.2 0 1.1-1.2 1.1-1.2v-15.9l-15.1-12.9 -16 12.9v16.2C-336.8 216.5-336.8 217.4-335.9 217.4z"/>
            <path id="Fill-2" class="st1" d="M-342.7 199.1c0 0 1.4 2.4 4.3 0l17.7-14.5 16.6 14.4c3.4 2.4 4.7 0 4.7 0l-21.3-18.6L-342.7 199.1"/>
            <path id="Fill-3" class="st1" d="M-304.5 184.6h-4.3l0 5 4.3 3.5V184.6"/>
          </g>
          <path class="st1" d="M-302.6 257.9c0 0.4-0.1 0.4-0.4 0.5l-0.5 0v1.1h3.4v-1.2l-0.8 0v-6.5c0-0.3 0.2-0.4 0.4-0.4l0.5 0v-1.1h-3.4v1.2l0.8 0v2.6h-4v-2.2c0-0.4 0.2-0.4 0.4-0.5l0.5 0v-1.1h-3.4v1.2l0.8 0v6.5c0 0.3-0.2 0.4-0.4 0.4l-0.5 0v1.1h3.4v-1.2l-0.8 0v-2.8h4V257.9zM-295.9 258.5c-1.3 0-1.5-1.4-1.5-2.7 0-1.3 0.4-2.3 1.6-2.3 1.1 0 1.5 1 1.5 2.5C-294.4 257.5-294.8 258.5-295.9 258.5L-295.9 258.5zM-299.1 256c0 2.5 1.2 3.7 3.1 3.7 1.8 0 3.3-1.2 3.3-3.9 0-3.2-2.1-3.5-3.1-3.5C-297.2 252.2-299.1 253.1-299.1 256L-299.1 256zM-284.5 258.4l-0.5 0c-0.3 0-0.4-0.1-0.4-0.4v-5.5h-2.5v1.1l0.4 0c0.3 0 0.4 0.1 0.4 0.4v3c0 0.7-0.5 1.4-1.5 1.4 -0.9 0-1-0.6-1-1.5v-4.4h-2.5v1.1l0.4 0c0.2 0 0.4 0.1 0.4 0.4v3.2c0 1.7 0.8 2.4 2.2 2.4 0.9 0 1.8-0.4 2.3-1.1v0.9h2.3V258.4zM-280.2 253.5c0.3 0.1 0.3 0.2 0.3 0.5v0.6l1.3-0.1v-1.7c-0.5-0.3-1.4-0.6-2.3-0.6 -1.5 0-2.7 0.8-2.7 2.2 0 1.6 1.1 1.9 2.2 2.2 0.8 0.2 1.4 0.3 1.4 1 0 0.6-0.4 0.9-1.1 0.9 -0.3 0-0.7 0-0.9-0.1 -0.3-0.1-0.3-0.2-0.3-0.5v-0.7l-1.3 0.1v1.9c0.6 0.3 1.7 0.4 2.6 0.4 1.5 0 2.7-0.8 2.7-2.2 0-1.5-1.2-1.9-2.3-2.2 -0.7-0.2-1.3-0.4-1.3-1 0-0.6 0.4-0.8 1-0.8C-280.6 253.4-280.4 253.4-280.2 253.5L-280.2 253.5zM-274 252.2c-2.3 0-3.5 1.8-3.5 3.9 0 2.1 0.9 3.5 3.3 3.5 1.3 0 2.2-0.6 2.5-0.8l-0.5-1.1c-0.3 0.2-0.9 0.6-1.8 0.6 -1.2 0-1.7-0.7-1.7-1.7 1.7 0 4-0.4 4-2.5C-271.7 252.9-272.6 252.2-274 252.2L-274 252.2zM-273.3 254.2c0 1.1-1.5 1.3-2.5 1.3 0-1 0.5-2.1 1.7-2.1C-273.6 253.4-273.3 253.7-273.3 254.2L-273.3 254.2zM-267.1 253.5c0.3 0.1 0.3 0.2 0.3 0.5v0.6l1.3-0.1v-1.7c-0.5-0.3-1.4-0.6-2.3-0.6 -1.5 0-2.7 0.8-2.7 2.2 0 1.6 1.1 1.9 2.2 2.2 0.8 0.2 1.4 0.3 1.4 1 0 0.6-0.4 0.9-1.1 0.9 -0.3 0-0.7 0-0.9-0.1 -0.3-0.1-0.3-0.2-0.3-0.5v-0.7l-1.3 0.1v1.9c0.6 0.3 1.7 0.4 2.6 0.4 1.5 0 2.7-0.8 2.7-2.2 0-1.5-1.2-1.9-2.3-2.2 -0.7-0.2-1.3-0.4-1.3-1 0-0.6 0.4-0.8 1.1-0.8C-267.5 253.4-267.3 253.4-267.1 253.5L-267.1 253.5z"/>
        </g>
      </g>
    </g>
  </g>
</svg>
