<svg xmlns:sketch="http://www.bohemiancoding.com/sketch/ns" xmlns="http://www.w3.org/2000/svg" xmlns:xlink="http://www.w3.org/1999/xlink" version="1.1" id="Layer_1" x="0" y="0" width="112" height="111" viewBox="-343 180 112 111" xml:space="preserve" enable-background="new -343 180 112 111">
  <style type="text/css">
    
	.st0{fill:#313133;}
	.st1{fill:none;stroke:#A8DC28;stroke-width:2;stroke-linecap:round;stroke-linejoin:round;stroke-dasharray:1,4;}
	.st2{fill:#FFFFFF;}
	.st3{fill:none;stroke:#EFEFEF;}
	.st4{fill:#A8DC28;}

  </style>
  <title>
    Land-active
  </title>
  <desc>
    Created with Sketch.
  </desc>
  <g id="landing-page" sketch:type="MSPage">
    <g id="Desktop---Landing-Page-Property" transform="translate(-595.000000, -933.000000)" sketch:type="MSArtboardGroup">
      <g id="FIla-2" transform="translate(181.000000, 932.500000)" sketch:type="MSLayerGroup">
        <g id="actives" sketch:type="MSShapeGroup">
          <g id="Land-active" transform="translate(414.000000, 0.000000)">
            <path id="Fill-1-Copy-22" class="st0" d="M-287 180.5c-30.6 0-55.5 24.9-55.5 55.5 0 30.6 24.9 55.5 55.5 55.5 30.6 0 55.5-24.9 55.5-55.5C-231.5 205.4-256.4 180.5-287 180.5z"/>
            <path id="Stroke-2-Copy-9" class="st1" d="M-242 257.8c3.2-6.6 5-14 5-21.8 0-27.6-22.4-50-50-50 -27.6 0-50 22.4-50 50 0 21.5 13.7 39.9 32.8 46.9 5.4 2 11.2 3.1 17.2 3.1C-267.2 286-250.1 274.5-242 257.8L-242 257.8z"/>
            <g id="Imported-Layers" transform="translate(35.000000, 23.000000)">
              <path id="Fill-1" class="st2" d="M-331.6 191.5h19v19.1h-19V191.5z"/>
              <path id="Stroke-2" class="st3" d="M-307.7 186.3l6.3-6.3"/>
              <path id="Fill-3" class="st2" d="M-304.2 186.8l-2.8-1.1 -1.1-2.8 -2.7 6.6L-304.2 186.8"/>
              <path id="Stroke-4" class="st3" d="M-307.7 216.4l6.3 6.3"/>
              <path id="Fill-5" class="st2" d="M-308.1 219.9l1.1-2.8 2.8-1.1 -6.6-2.7L-308.1 219.9"/>
              <path id="Stroke-6" class="st3" d="M-336.2 216.4l-6.3 6.3"/>
              <path id="Fill-7" class="st2" d="M-339.6 216l2.8 1.1 1.1 2.8 2.7-6.6L-339.6 216"/>
              <path id="Stroke-8" class="st3" d="M-336.2 186.3l-6.3-6.3"/>
              <path id="Fill-9" class="st2" d="M-335.7 182.9l-1.1 2.8 -2.8 1.1 6.6 2.7L-335.7 182.9"/>
            </g>
            <path id="Flats-Copy-6" class="st4" d="M-296 261.2v-2.8l-1.4-0.1v1c0 0.3 0 0.4-0.3 0.4h-2.3v-6.2c0-0.3 0.2-0.4 0.4-0.4l0.5 0v-1.1h-3.4v1.2l0.8 0v6.5c0 0.3-0.2 0.4-0.4 0.4l-0.5 0v1.1H-296zM-288.9 254.4c-1-0.4-2-0.5-2.5-0.5 -2.5 0-3.7 1.6-3.7 4 0 2 0.8 3.4 2.8 3.4 0.8 0 1.5-0.4 1.9-1l0 0v0.8h2.2v-1.1l-0.4 0c-0.3 0-0.4-0.1-0.4-0.4V254.4zM-290.5 258.9c0 0.6-0.5 1.2-1.4 1.2 -1.2 0-1.5-1.1-1.5-2.3 0-1.5 0.4-2.8 1.8-2.8 0.4 0 0.9 0.1 1.1 0.2V258.9zM-287.3 255.2l0.6 0c0.3 0 0.4 0.1 0.4 0.4v3.9c0 0.4-0.1 0.4-0.4 0.5l-0.5 0v1.1h3.3v-1.1l-0.8 0v-3.4c0-0.7 0.5-1.4 1.4-1.4 1 0 1.1 0.6 1.1 1.5v2.9c0 0.4-0.1 0.4-0.4 0.5l-0.5 0v1.1h3.3v-1.1l-0.8 0v-3.7c0-1.7-0.8-2.4-2.2-2.4 -0.9 0-1.8 0.4-2.3 1.1v-0.9h-2.4V255.2zM-275.3 253.9c-2.2 0-3.4 1.6-3.4 4 0 1.8 0.6 3.4 2.8 3.4 0.8 0 1.5-0.3 1.9-1l0 0v0.8h2.3v-1.1l-0.5 0c-0.2 0-0.3-0.1-0.4-0.3v-8.5h-2.6v1.1l0.6 0c0.2 0 0.4 0.1 0.4 0.3v1.4C-274.5 254-274.8 253.9-275.3 253.9L-275.3 253.9zM-274.1 259c0 0.6-0.5 1.1-1.3 1.1 -1.2 0-1.5-1.1-1.5-2.4 0-1.4 0.4-2.6 1.8-2.6 0.4 0 0.8 0.1 1.1 0.2V259z"/>
          </g>
        </g>
      </g>
    </g>
  </g>
</svg>
