<svg xmlns:sketch="http://www.bohemiancoding.com/sketch/ns" xmlns="http://www.w3.org/2000/svg" xmlns:xlink="http://www.w3.org/1999/xlink" version="1.1" id="Layer_1" x="0" y="0" width="112" height="112" viewBox="-343 180 112 112" xml:space="preserve" enable-background="new -343 180 112 112">
  <style type="text/css">
    
	.st0{fill:#FFFFFF;}
	.st1{fill:#313133;}

  </style>
  <title>
    Mobile-homes
  </title>
  <desc>
    Created with Sketch.
  </desc>
  <g id="landing-page" sketch:type="MSPage">
    <g id="Desktop---Landing-Page-Property" transform="translate(-731.000000, -804.000000)" sketch:type="MSArtboardGroup">
      <g id="Fila-1" transform="translate(184.000000, 803.000000)" sketch:type="MSLayerGroup">
        <g id="Mobile-homes" transform="translate(547.000000, 1.000000)" sketch:type="MSShapeGroup">
          <path id="Fill-1-Copy-19" class="st0" d="M-287 180.5c-30.6 0-55.5 24.9-55.5 55.5 0 30.6 24.9 55.5 55.5 55.5 30.6 0 55.5-24.9 55.5-55.5C-231.5 205.4-256.4 180.5-287 180.5z"/>
          <path id="Flats-Copy-2" class="st1" d="M-324.4 249.7h-2.8v1.2l0.9 0.1 -0.4 6.5c0 0.2-0.2 0.4-0.4 0.4l-0.5 0v1.1h3.3v-1.2l-0.9 0 0.3-5.2h0l2.1 5.5h1.3l2.2-5.6h0l0.3 4.9c0 0.3-0.1 0.4-0.4 0.4l-0.5 0v1.1h3.4v-1.2l-0.9 0 -0.3-6.4c0-0.4 0.2-0.5 0.4-0.5l0.5 0v-1.1h-2.8l-2.4 6.3h0L-324.4 249.7zM-313.1 258c-1.3 0-1.5-1.4-1.5-2.7 0-1.3 0.4-2.3 1.6-2.3 1.1 0 1.5 1 1.5 2.5C-311.5 257-312 258-313.1 258L-313.1 258zM-316.3 255.5c0 2.5 1.2 3.7 3.1 3.7 1.8 0 3.3-1.2 3.3-3.9 0-3.2-2.1-3.5-3.1-3.5C-314.4 251.7-316.3 252.6-316.3 255.5L-316.3 255.5zM-309 258.6c0.6 0.3 1.8 0.6 2.8 0.6 2.3 0 3.4-1.3 3.4-4 0-2.2-1.1-3.4-2.9-3.4 -0.7 0-1.3 0.2-1.7 0.6V249h-2.5v1.2l0.5 0c0.2 0 0.4 0.1 0.4 0.3V258.6zM-307.4 254c0-0.6 0.6-1.1 1.3-1.1 1.3 0 1.6 1.3 1.6 2.4 0 1.9-0.6 2.6-1.6 2.6 -0.5 0-1-0.1-1.2-0.3V254zM-299.8 252h-2.5v1.2l0.5 0c0.3 0 0.4 0.1 0.4 0.4v3.9c0 0.3-0.2 0.4-0.4 0.4l-0.5 0v1.1h3.3v-1.1l-0.8 0V252zM-301.9 250c0 0.6 0.4 1 1.1 1 0.6 0 1.1-0.4 1.1-1 0-0.6-0.4-1-1.1-1C-301.5 249-301.9 249.4-301.9 250L-301.9 250zM-296.2 249h-2.5v1.2l0.5 0c0.2 0 0.4 0.1 0.4 0.3v6.9c0 0.3-0.2 0.4-0.4 0.4l-0.5 0v1.1h3.3v-1.1l-0.8 0V249zM-291.5 251.7c-2.3 0-3.5 1.8-3.5 3.9 0 2.1 0.9 3.5 3.3 3.5 1.3 0 2.2-0.6 2.5-0.8l-0.5-1.1c-0.3 0.2-0.9 0.6-1.8 0.6 -1.2 0-1.7-0.7-1.7-1.7 1.7 0 4-0.4 4-2.5C-289.3 252.4-290.2 251.7-291.5 251.7L-291.5 251.7zM-290.8 253.7c0 1.1-1.5 1.3-2.5 1.3 0-1 0.5-2.1 1.7-2.1C-291.1 252.9-290.8 253.2-290.8 253.7L-290.8 253.7zM-280 257.4c0 0.4-0.1 0.4-0.4 0.5l-0.5 0v1.1h3.4v-1.2l-0.8 0v-6.5c0-0.3 0.2-0.4 0.4-0.4l0.5 0v-1.1h-3.4v1.2l0.8 0v2.6h-4v-2.2c0-0.4 0.2-0.4 0.4-0.5l0.5 0v-1.1h-3.4v1.2l0.8 0v6.5c0 0.3-0.2 0.4-0.4 0.4l-0.5 0v1.1h3.4v-1.2l-0.8 0v-2.8h4V257.4zM-273.8 258c-1.3 0-1.5-1.4-1.5-2.7 0-1.3 0.4-2.3 1.6-2.3 1.1 0 1.5 1 1.5 2.5C-272.3 257-272.7 258-273.8 258L-273.8 258zM-277 255.5c0 2.5 1.2 3.7 3.1 3.7 1.8 0 3.3-1.2 3.3-3.9 0-3.2-2.1-3.5-3.1-3.5C-275.1 251.7-277 252.6-277 255.5L-277 255.5zM-270.2 253.1l0.6 0c0.3 0 0.4 0.1 0.4 0.4v3.9h0c0 0.3-0.1 0.4-0.4 0.5l-0.5 0v1.1h3.3v-1.1l-0.8 0v-3.4c0-0.7 0.4-1.4 1.4-1.4 0.9 0 1 0.7 1 1.5v2.9c0 0.3-0.1 0.4-0.4 0.5l-0.5 0v1.1h3.3v-1.1l-0.8 0v-3.4c0-0.8 0.4-1.4 1.4-1.4 0.9 0 1 0.7 1 1.5v2.9c0 0.3-0.2 0.4-0.4 0.4l-0.5 0v1.1h3.3v-1.1l-0.8 0v-3.7c0-1.7-0.8-2.4-2.1-2.4 -0.9 0-1.6 0.4-2.1 1.1 -0.3-0.8-1-1.1-1.9-1.1 -0.9 0-1.6 0.4-2.1 1.1V252h-2.4V253.1zM-255 251.7c-2.3 0-3.5 1.8-3.5 3.9 0 2.1 0.9 3.5 3.3 3.5 1.3 0 2.2-0.6 2.5-0.8l-0.5-1.1c-0.3 0.2-0.9 0.6-1.8 0.6 -1.2 0-1.7-0.7-1.7-1.7 1.7 0 4-0.4 4-2.5C-252.7 252.4-253.6 251.7-255 251.7L-255 251.7zM-254.2 253.7c0 1.1-1.5 1.3-2.5 1.3 0-1 0.5-2.1 1.7-2.1C-254.6 252.9-254.2 253.2-254.2 253.7L-254.2 253.7zM-248.6 253c0.3 0.1 0.3 0.2 0.3 0.5v0.6l1.3-0.1v-1.7c-0.5-0.3-1.4-0.6-2.3-0.6 -1.5 0-2.7 0.8-2.7 2.2 0 1.6 1.1 1.9 2.2 2.2 0.8 0.2 1.4 0.3 1.4 1 0 0.6-0.4 0.9-1.1 0.9 -0.3 0-0.7 0-0.9-0.1 -0.3-0.1-0.3-0.2-0.3-0.5v-0.7l-1.3 0.1v1.9c0.6 0.3 1.7 0.4 2.6 0.4 1.5 0 2.7-0.8 2.7-2.2 0-1.5-1.2-1.9-2.3-2.2 -0.7-0.2-1.3-0.4-1.3-1 0-0.6 0.4-0.8 1-0.8C-249 252.9-248.8 252.9-248.6 253L-248.6 253z"/>
          <g id="Fill-1-_x2B_-Fill-1-Copy-19-_x2B_-Flats-Copy-2-_x2B_-Fill-1-_x2B_-Imported-Layers" transform="translate(33.000000, 26.000000)">
            <path id="Fill-1" class="st1" d="M-320 180.3l-22.2 7.1v23.4h2.3c0.8-1.8 2.6-3 4.6-3 2.1 0 3.8 1.2 4.6 3h21.8c0.8-1.8 2.6-3 4.6-3 2.1 0 3.8 1.2 4.6 3h1.8v-23.7L-320 180.3 -320 180.3zM-336.2 192.1h5.1v6.6h-5.1V192.1zM-323.2 192.1h5.1v6.6h-5.1V192.1zM-310.8 192.1h7v13.7h-7V192.1z"/>
            <g id="Fill-1-Copy-19-_x2B_-Flats-Copy-2-_x2B_-Fill-1-_x2B_-Imported-Layers" transform="translate(3.833333, 27.791667)">
              <g id="Imported-Layers">
                <path id="Fill-2" class="st1" d="M-342.6 185c0 2.3 1.7 4.1 3.8 4.1 2.1 0 3.8-1.8 3.8-4.1 0-2.3-1.7-4.1-3.8-4.1C-340.9 180.9-342.6 182.8-342.6 185L-342.6 185zM-340.9 185c0-1.3 1-2.3 2.1-2.3 1.2 0 2.1 1 2.1 2.3 0 1.3-1 2.3-2.1 2.3C-340 187.3-340.9 186.3-340.9 185L-340.9 185z"/>
                <path id="Fill-3" class="st1" d="M-311.6 185c0 2.3 1.7 4.1 3.8 4.1 2.1 0 3.8-1.8 3.8-4.1 0-2.3-1.7-4.1-3.8-4.1C-309.8 180.9-311.6 182.8-311.6 185L-311.6 185zM-309.8 185c0-1.3 1-2.3 2.1-2.3 1.2 0 2.1 1 2.1 2.3 0 1.3-1 2.3-2.1 2.3C-308.9 187.3-309.8 186.3-309.8 185L-309.8 185z"/>
              </g>
            </g>
          </g>
        </g>
      </g>
    </g>
  </g>
</svg>
