<?xml version="1.0" encoding="utf-8"?>
<!-- Generator: Adobe Illustrator 19.0.0, SVG Export Plug-In . SVG Version: 6.00 Build 0)  -->
<svg version="1.1" id="Layer_1" xmlns:sketch="http://www.bohemiancoding.com/sketch/ns"
	 xmlns="http://www.w3.org/2000/svg" xmlns:xlink="http://www.w3.org/1999/xlink" x="0px" y="0px" width="112px" height="111px"
	 viewBox="-343 180 112 111" style="enable-background:new -343 180 112 111;" xml:space="preserve">
<style type="text/css">
	.st0{fill:#313133;}
	.st1{fill:none;stroke:#A8DC28;stroke-width:2;stroke-linecap:round;stroke-linejoin:round;stroke-dasharray:1,4;}
	.st2{fill:#EFEFEF;}
	.st3{fill:#A8DC28;}
</style>
<title>Overseas-active</title>
<desc>Created with Sketch.</desc>
<g id="landing-page" sketch:type="MSPage">
	<g id="Desktop---Landing-Page-Property" transform="translate(-732.000000, -933.000000)" sketch:type="MSArtboardGroup">
		<g id="FIla-2" transform="translate(181.000000, 932.500000)" sketch:type="MSLayerGroup">
			<g id="actives" sketch:type="MSShapeGroup">
				<g id="Overseas-active" transform="translate(551.000000, 0.000000)">
					<path id="Fill-1-Copy-23" class="st0" d="M-287,180.5c-30.6,0-55.5,24.9-55.5,55.5c0,30.6,24.9,55.5,55.5,55.5
						c30.6,0,55.5-24.9,55.5-55.5C-231.5,205.4-256.4,180.5-287,180.5z"/>
					<path id="Stroke-2-Copy-10" class="st1" d="M-242,257.8c3.2-6.6,5-14,5-21.8c0-27.6-22.4-50-50-50c-27.6,0-50,22.4-50,50
						c0,21.5,13.7,39.9,32.8,46.9c5.4,2,11.2,3.1,17.2,3.1C-267.2,286-250.1,274.5-242,257.8L-242,257.8z"/>
					<path id="Fill-1" class="st2" d="M-267,223.3c0-0.6-0.1-1.2-0.2-1.9c-0.3-2-0.9-3.9-1.8-5.8c-3.4-6.8-10.3-11.1-17.9-11.1
						c-4.7,0-9.3,1.7-12.9,4.7c-1.3,1.1-2.4,2.3-3.3,3.6c-1.5,2-2.5,4.4-3.2,6.9c-0.4,1.6-0.6,3.2-0.6,4.8c0,1.8,0.2,3.5,0.7,5.2
						c0.5,2,1.3,3.8,2.4,5.5c1.7,2.7,4.1,5,6.8,6.6c3,1.7,6.4,2.7,10.1,2.7c0.9,0,1.8-0.1,2.7-0.2c3.3-0.4,6.4-1.7,9-3.6
						c4.8-3.5,8.1-9.1,8.3-15.5c0-0.2,0-0.5,0-0.7C-267,224.1-267,223.7-267,223.3L-267,223.3z M-271.8,219.8
						c0.1-0.1,0.5-0.1,0.9,0.1c0.1,0.1,0.2,0.1,0.2,0.1c0.2,0.6,0.3,1.3,0.4,1.9c0,0.1,0,0.2,0,0.3c-0.1-0.3-0.3-0.6-0.5-0.8
						l-0.6-0.6C-271.8,220.4-272,220-271.8,219.8L-271.8,219.8z M-271.7,231.8c-1.3,2.7-3.3,5.1-5.8,6.8c-0.7,0.5-1.4,0.9-2.2,1.3
						c-0.5,0.3-1.1,0.5-1.6,0.7c-0.8,0.3-1.5,0.5-2.3,0.6c-0.3,0.1-0.5,0.1-0.8,0.1c-0.8,0.1-1.6,0.2-2.5,0.2c-3.6,0-6.9-1.1-9.6-3
						c-2.2-1.5-4-3.5-5.3-5.9c-0.4-0.7-0.7-1.4-1-2.2c-0.7-1.8-1.1-3.8-1.1-5.9c0-0.9,0.1-1.8,0.2-2.7c0,0.1,0,0.2,0.1,0.3l0.6,1.9
						c0.2,0.5,0.7,1,1.2,1.1l2.9,0.4c0.5,0.1,1,0.5,1.2,1c0,0,0,0.1,0,0.1l0.3,0.9c0.2,0.5-0.1,1.2-0.5,1.5l-0.6,0.4
						c-0.4,0.3-0.9,1-1,1.5l-0.3,1.2l-0.1,0.6c-0.1,0.5,0.1,1.1,0.6,1.4c0.5,0.3,1.3,0.5,1.8,0.6c0.5,0.1,1.2,0.5,1.4,0.8
						c0,0,0.1,0.1,0.1,0.1c0.3,0.4,0.6,1,0.8,1.4l0.9,1.8c0.2,0.5,0.8,0.9,1.3,0.9c0.5,0,0.8-0.4,0.7-1l-0.4-2.7
						c-0.1-0.5,0.1-1.3,0.4-1.8l0.5-0.8c0.3-0.5,0.5-1.3,0.5-1.8l-0.1-1.3c0-0.5-0.5-1.1-0.9-1.3l-1.8-0.7c-0.5-0.2-1-0.8-1.2-1.3
						l-0.4-1.4c-0.1-0.3-0.2-0.8-0.3-1.2c0-0.2-0.1-0.5-0.1-0.7c0-0.6,0.3-1.3,0.6-1.7l0.2-0.3c0.1-0.2,0.3-0.3,0.5-0.3
						c0.2,0,0.4,0.1,0.5,0.4c0.2,0.5,0.5,0.8,0.7,0.7c0.2-0.1,0.5-0.6,0.6-1.1c0.1-0.5,0.6-1.1,1.1-1.4l0.1-0.1
						c0.5-0.3,0.9-0.9,1.1-1.4l0.8-3c0.1-0.5-0.1-1.2-0.5-1.6l-0.5-0.4c-0.4-0.3-1-0.9-1.4-1.3l-0.1-0.1c0,0,0,0-0.1-0.1
						c-0.4-0.3-1.1-0.6-1.6-0.6h-2.9c-0.2,0-0.6,0-0.9,0c1.1-0.9,2.3-1.7,3.6-2.4c2.2-1.1,4.7-1.6,7.2-1.6c5.6,0,10.7,2.8,13.7,7.1
						l-3.7-0.5c-0.3,0-0.7,0-1,0.2c-0.2,0.1-0.4,0.2-0.6,0.4l-1.6,1.9l-1.7,2.1c-0.4,0.5-0.7,1.2-0.7,1.8l-0.1,1.3
						c0,0.5,0.3,0.7,0.6,0.3l0.5-0.5c0.4-0.4,1.1-0.7,1.7-0.7h0.4c0.5,0,1.1,0.4,1.2,0.9l0.1,0.4c0.1,0.5,0.1,1.2-0.1,1.6
						c-0.2,0.4-0.8,0.6-1.3,0.6l-1.4-0.1c-0.5-0.1-1.2,0.2-1.6,0.6l-0.5,0.5c-0.1,0.1-0.2,0.2-0.2,0.3c-0.2,0.4-0.4,0.9-0.3,1.3
						l0.2,1.3c0,0.1,0.1,0.3,0.1,0.4c0.2,0.4,0.5,0.9,0.8,1.1l0.7,0.5c0.4,0.3,0.8,1,0.8,1.5l0,3.1c0,0.5,0.3,1,0.6,1.2
						c0.1,0,0.1,0.1,0.2,0.1c0.4,0.2,1.1,0.1,1.4-0.3l0.6-0.7c0.4-0.4,0.8-1.1,1-1.6c0,0,0.4-1.1,0.4-1.3c0-0.2,0.4-0.4,0.4-0.4
						c0.5-0.2,1-0.7,1.2-1.1c0.1-0.3,0.3-0.7,0.5-1c0-0.1,0.1-0.2,0.1-0.3c0.1-0.3,0.6-0.9,1-1.2c0.5-0.4,1.1-1,1.3-1.5l0.4-0.6
						c0.1-0.1,0.1-0.3,0.1-0.3c0,0,0-0.1,0-0.1c-0.1-0.1-0.3-0.2-0.5-0.1c-0.6,0.1-1.4,0-1.8-0.3l-0.4-0.3c-0.4-0.3-0.7-0.7-0.6-0.9
						c0.1-0.2,0.5-0.2,1,0.1l0.3,0.2c0.5,0.3,1.3,0.4,1.8,0.4l0.4,0c0.5,0,1.1-0.3,1.2-0.6c0.1-0.2,0.2-0.5,0.3-0.8
						c0,0.3,0,0.6,0,0.9c0,0.2,0,0.4,0,0.6C-270.2,227.5-270.8,229.8-271.7,231.8z"/>
					<path id="Flats-Copy-7" class="st3" d="M-307.1,256c0-3.6-1.9-4.8-4-4.8c-2,0-4.2,1.3-4.2,4.8c0,3.2,1.6,4.8,4.1,4.8
						C-308.8,260.9-307.1,259.2-307.1,256L-307.1,256z M-313.6,256c0-1.7,0.6-3.3,2.4-3.3c1.9,0,2.3,2,2.3,3.4
						c0,1.7-0.5,3.4-2.3,3.4C-313.2,259.4-313.6,257.6-313.6,256L-313.6,256z M-302.1,253.6v1.1l0.7,0l-1.4,4.6h0l-1.4-4.6l0.9,0
						v-1.1h-3.3v1.1l0.4,0c0.3,0,0.3,0.1,0.4,0.4l2,5.6h2.1l1.8-5.6c0.1-0.3,0.2-0.3,0.4-0.3l0.4,0v-1.1H-302.1z M-295.1,253.4
						c-2.3,0-3.5,1.8-3.5,3.9c0,2.1,0.9,3.5,3.3,3.5c1.3,0,2.2-0.6,2.5-0.8l-0.5-1.1c-0.3,0.2-0.9,0.6-1.8,0.6
						c-1.2,0-1.7-0.7-1.7-1.7c1.7,0,4-0.4,4-2.5C-292.8,254.1-293.7,253.4-295.1,253.4L-295.1,253.4z M-294.3,255.4
						c0,1.1-1.5,1.3-2.5,1.3c0-1,0.5-2.1,1.7-2.1C-294.7,254.6-294.3,254.9-294.3,255.4L-294.3,255.4z M-290.9,259.1
						c0,0.4-0.1,0.4-0.4,0.5l-0.5,0v1.1h3.8v-1.1l-1.2-0.1v-3.2c0-0.8,0.5-1.4,1.3-1.4c0.2,0,0.3,0,0.4,0.1c0.1,0.1,0.1,0.2,0.1,0.4
						v0.6l1.3-0.1v-2.1c-0.5-0.2-0.9-0.3-1.3-0.3c-0.9,0-1.7,0.6-2,1.3v-1h-2.4v1.1l0.6,0c0.3,0,0.4,0.1,0.4,0.4V259.1z
						 M-281.9,254.7c0.3,0.1,0.3,0.2,0.3,0.5v0.6l1.3-0.1V254c-0.5-0.3-1.4-0.6-2.3-0.6c-1.5,0-2.7,0.8-2.7,2.2
						c0,1.6,1.1,1.9,2.2,2.2c0.8,0.2,1.4,0.3,1.4,1c0,0.6-0.4,0.9-1.1,0.9c-0.3,0-0.7,0-0.9-0.1c-0.3-0.1-0.3-0.2-0.3-0.5v-0.7
						l-1.3,0.1v1.9c0.6,0.3,1.7,0.4,2.6,0.4c1.5,0,2.7-0.8,2.7-2.2c0-1.5-1.2-1.9-2.3-2.2c-0.7-0.2-1.3-0.4-1.3-1
						c0-0.6,0.4-0.8,1.1-0.8C-282.4,254.6-282.2,254.6-281.9,254.7L-281.9,254.7z M-275.7,253.4c-2.3,0-3.5,1.8-3.5,3.9
						c0,2.1,0.9,3.5,3.3,3.5c1.3,0,2.2-0.6,2.5-0.8l-0.5-1.1c-0.3,0.2-0.9,0.6-1.8,0.6c-1.2,0-1.7-0.7-1.7-1.7c1.7,0,4-0.4,4-2.5
						C-273.4,254.1-274.4,253.4-275.7,253.4L-275.7,253.4z M-275,255.4c0,1.1-1.5,1.3-2.5,1.3c0-1,0.5-2.1,1.7-2.1
						C-275.3,254.6-275,254.9-275,255.4L-275,255.4z M-266.2,253.9c-1-0.4-2-0.5-2.5-0.5c-2.5,0-3.7,1.6-3.7,4c0,2,0.8,3.4,2.8,3.4
						c0.8,0,1.5-0.4,1.9-1l0,0v0.8h2.2v-1.1l-0.4,0c-0.3,0-0.4-0.1-0.4-0.4V253.9z M-267.8,258.4c0,0.6-0.5,1.2-1.4,1.2
						c-1.2,0-1.5-1.1-1.5-2.3c0-1.5,0.4-2.8,1.8-2.8c0.4,0,0.9,0.1,1.1,0.2V258.4z M-260.9,254.7c0.3,0.1,0.3,0.2,0.3,0.5v0.6
						l1.3-0.1V254c-0.5-0.3-1.4-0.6-2.3-0.6c-1.5,0-2.7,0.8-2.7,2.2c0,1.6,1.1,1.9,2.2,2.2c0.8,0.2,1.4,0.3,1.4,1
						c0,0.6-0.4,0.9-1.1,0.9c-0.3,0-0.7,0-0.9-0.1c-0.3-0.1-0.3-0.2-0.3-0.5v-0.7l-1.3,0.1v1.9c0.6,0.3,1.7,0.4,2.6,0.4
						c1.5,0,2.7-0.8,2.7-2.2c0-1.5-1.2-1.9-2.3-2.2c-0.7-0.2-1.3-0.4-1.3-1c0-0.6,0.4-0.8,1-0.8
						C-261.3,254.6-261.1,254.6-260.9,254.7L-260.9,254.7z"/>
				</g>
			</g>
		</g>
	</g>
</g>
</svg>
