<svg xmlns:sketch="http://www.bohemiancoding.com/sketch/ns" xmlns="http://www.w3.org/2000/svg" xmlns:xlink="http://www.w3.org/1999/xlink" version="1.1" id="Layer_1" x="0" y="0" width="112" height="111" viewBox="-343 180 112 111" xml:space="preserve" enable-background="new -343 180 112 111">
  <style type="text/css">
    
	.st0{fill:#313133;}
	.st1{fill:none;stroke:#A8DC28;stroke-width:2;stroke-linecap:round;stroke-linejoin:round;stroke-dasharray:1,4;}
	.st2{fill:#EFEFEF;}
	.st3{fill:#A8DC28;}

  </style>
  <title>
    Parking-active
  </title>
  <desc>
    Created with Sketch.
  </desc>
  <g id="landing-page" sketch:type="MSPage">
    <g id="Desktop---Landing-Page-Property" transform="translate(-318.000000, -933.000000)" sketch:type="MSArtboardGroup">
      <g id="FIla-2" transform="translate(181.000000, 932.500000)" sketch:type="MSLayerGroup">
        <g id="actives" sketch:type="MSShapeGroup">
          <g id="Parking-active" transform="translate(137.000000, 0.000000)">
            <path id="Fill-1-Copy-25" class="st0" d="M-287 180.5c-30.6 0-55.5 24.9-55.5 55.5 0 30.6 24.9 55.5 55.5 55.5 30.6 0 55.5-24.9 55.5-55.5C-231.5 205.4-256.4 180.5-287 180.5z"/>
            <path id="Stroke-2-Copy-7" class="st1" d="M-242 257.8c3.2-6.6 5-14 5-21.8 0-27.6-22.4-50-50-50 -27.6 0-50 22.4-50 50 0 21.5 13.7 39.9 32.8 46.9 5.4 2 11.2 3.1 17.2 3.1C-267.2 286-250.1 274.5-242 257.8L-242 257.8z"/>
            <g id="Imported-Layers" transform="translate(41.500445, 23.642029)">
              <path id="Fill-1" class="st2" d="M-319.4 180.3h-18c-2.9 0-5.2 2.4-5.2 5.3v19.2c0 2.9 2.3 5.3 5.2 5.3h7.3v5.8c-1.6 0.5-2.9 1.7-3.5 3.3 -0.1 0.3-0.1 0.6 0.1 0.8 0.2 0.2 0.4 0.4 0.7 0.4h8.9c0.3 0 0.6-0.2 0.7-0.4 0.2-0.2 0.2-0.6 0.1-0.8 -0.6-1.6-1.9-2.8-3.5-3.3v-5.8h7.3c2.9 0 5.2-2.4 5.2-5.3v-19.2C-314.2 182.7-316.6 180.3-319.4 180.3L-319.4 180.3zM-316.4 204c0 2.1-1.7 3.8-3.8 3.8h-16.6c-2.1 0-3.8-1.7-3.8-3.8v-17.6c0-2.1 1.7-3.8 3.8-3.8h16.6c2.1 0 3.8 1.7 3.8 3.8V204L-316.4 204z"/>
              <path id="Fill-2" class="st2" d="M-320.2 184.3h-16.6c-1.1 0-2 0.9-2 2.1V204c0 1.1 0.9 2.1 2 2.1h16.6c1.1 0 2-0.9 2-2.1v-17.6C-318.2 185.2-319.1 184.3-320.2 184.3L-320.2 184.3zM-324.4 195.5c-1.1 1-2.7 1.5-4.5 1.5 -0.4 0-0.8 0-1.1-0.1v5.1h-3.1v-14c1-0.2 2.3-0.3 4.3-0.3 1.9 0 3.3 0.4 4.3 1.1 0.9 0.7 1.5 1.9 1.5 3.3C-323.1 193.5-323.6 194.7-324.4 195.5L-324.4 195.5z"/>
              <path id="Fill-3" class="st2" d="M-328.7 190.1c-0.6 0-1.1 0.1-1.3 0.1v4.2c0.3 0.1 0.6 0.1 1.1 0.1 1.7 0 2.7-0.9 2.7-2.3C-326.3 190.9-327.1 190.1-328.7 190.1"/>
            </g>
            <path id="Flats-Copy-4" class="st3" d="M-311.9 261.2h3.9V260l-1.3 0v-2h1.2c2.1 0 3.6-1.1 3.6-3.2 0-1.9-1.3-2.9-3.3-2.9h-4v1.2l0.8 0v6.5c0 0.3-0.2 0.4-0.4 0.4l-0.5 0V261.2zM-309.3 256.6v-3.3h0.9c1.4 0 2.2 0.2 2.2 1.7 0 1.2-0.8 1.7-2 1.7H-309.3zM-297.3 254.5c-1-0.4-2-0.5-2.5-0.5 -2.5 0-3.7 1.6-3.7 4 0 2 0.8 3.4 2.8 3.4 0.8 0 1.5-0.4 1.9-1l0 0v0.8h2.2v-1.1l-0.4 0c-0.3 0-0.3-0.1-0.3-0.4V254.5zM-298.9 259c0 0.6-0.5 1.2-1.4 1.2 -1.2 0-1.5-1.1-1.5-2.3 0-1.5 0.4-2.8 1.8-2.8 0.4 0 0.9 0.1 1.1 0.2V259zM-294.8 259.7c0 0.4-0.1 0.4-0.4 0.5l-0.5 0v1.1h3.8v-1.1l-1.2-0.1v-3.2c0-0.8 0.5-1.4 1.3-1.4 0.2 0 0.3 0 0.4 0.1 0.1 0.1 0.1 0.2 0.1 0.4v0.6l1.3-0.1v-2.1c-0.5-0.2-0.9-0.3-1.3-0.3 -0.9 0-1.7 0.6-2 1.3v-1h-2.4v1.1l0.6 0c0.3 0 0.4 0.1 0.4 0.4V259.7zM-288.7 259.7c0 0.4-0.1 0.4-0.4 0.5l-0.5 0v1.1h3.3v-1.1l-0.8 0h0v-1.6c0.3 0 0.7-0.1 1-0.2l1.6 2.9h2v-1.1l-0.9 0 -1.4-2.5c0.7-0.6 1.1-1.3 1.2-2.3l0.7 0v-1.1h-2.9v1.1l0.5 0c0.2 0 0.3 0.1 0.2 0.5 -0.3 0.9-1.1 1.4-2.1 1.5v-6.1h-2.5v1.2l0.5 0c0.3 0 0.3 0.1 0.3 0.4V259.7zM-279.3 254.2h-2.5v1.2l0.5 0c0.3 0 0.4 0.1 0.4 0.4v3.9c0 0.3-0.2 0.4-0.4 0.4l-0.5 0v1.1h3.3v-1.1l-0.8 0V254.2zM-281.4 252.2c0 0.6 0.4 1 1.1 1 0.6 0 1.1-0.4 1.1-1 0-0.6-0.4-1-1.1-1C-280.9 251.2-281.4 251.7-281.4 252.2L-281.4 252.2zM-277.8 255.3l0.6 0c0.3 0 0.4 0.1 0.4 0.4v3.9c0 0.4-0.1 0.4-0.4 0.5l-0.5 0v1.1h3.3v-1.1l-0.8 0v-3.4c0-0.7 0.5-1.4 1.4-1.4 1 0 1.1 0.6 1.1 1.5v2.9c0 0.4-0.1 0.4-0.4 0.5l-0.5 0v1.1h3.3v-1.1l-0.8 0v-3.7c0-1.7-0.8-2.4-2.2-2.4 -0.9 0-1.8 0.4-2.3 1.1v-0.9h-2.4V255.3zM-266.3 264.2c2.1 0 3.1-1 3.2-3 0-0.5 0-1 0-1.5v-5.2c-0.8-0.4-1.9-0.5-2.6-0.5 -2.1 0-3.6 1.2-3.6 3.7 0 1.6 0.7 3.3 2.7 3.3 0.7 0 1.4-0.2 1.9-0.8v0.8c0 1.2-0.3 2.1-1.6 2.1 -0.4 0-0.7 0-1-0.1 -0.3-0.1-0.3-0.2-0.3-0.5v-0.7l-1.3 0.1v1.9C-268.3 264.1-267.2 264.2-266.3 264.2L-266.3 264.2zM-264.7 258.4c0 0.9-0.6 1.4-1.4 1.4 -1.3 0-1.5-1.3-1.5-2.2 0-1.4 0.6-2.3 1.8-2.3 0.4 0 0.8 0.1 1.1 0.2V258.4z"/>
          </g>
        </g>
      </g>
    </g>
  </g>
</svg>
