<svg xmlns:sketch="http://www.bohemiancoding.com/sketch/ns" xmlns="http://www.w3.org/2000/svg" xmlns:xlink="http://www.w3.org/1999/xlink" version="1.1" id="Layer_1" x="0" y="0" width="112" height="111" viewBox="-1361 416.9 112 111" xml:space="preserve" enable-background="new -1361 416.9 112 111">
  <style type="text/css">
    
	.st0{fill:#313133;}
	.st1{fill:none;stroke:#A8DC28;stroke-width:2;stroke-linecap:round;stroke-linejoin:round;stroke-dasharray:1,4;}
	.st2{fill:#EFEFEF;}
	.st3{fill:#A8DC28;}

  </style>
  <title>
    Rooms-active
  </title>
  <desc>
    Created with Sketch.
  </desc>
  <g id="landing-page" sketch:type="MSPage">
    <g id="Desktop---Landing-Page-Property" transform="translate(-595.000000, -804.000000)" sketch:type="MSArtboardGroup">
      <g id="Fila-1" transform="translate(184.000000, 803.000000)" sketch:type="MSLayerGroup">
        <g id="actives" transform="translate(135.000000, 0.000000)" sketch:type="MSShapeGroup">
          <g id="Rooms-active" transform="translate(276.000000, 0.500000)">
            <path id="Fill-1-Copy-17" class="st0" d="M-1305 417.4c-30.6 0-55.5 24.9-55.5 55.5 0 30.6 24.9 55.5 55.5 55.5 30.6 0 55.5-24.9 55.5-55.5C-1249.5 442.3-1274.4 417.4-1305 417.4z"/>
            <path id="Stroke-2-Copy-4" class="st1" d="M-1260 494.7c3.2-6.6 5-14 5-21.8 0-27.6-22.4-50-50-50s-50 22.4-50 50c0 21.5 13.7 39.9 32.8 46.9 5.4 2 11.2 3.1 17.2 3.1C-1285.2 522.9-1268.1 511.4-1260 494.7L-1260 494.7z"/>
            <path id="Imported-Layers" class="st2" d="M-1317 479.6h23.9v-39h-23.9V479.6zM-1312 464c-0.6 0-1-0.4-1-1s0.4-1 1-1 1 0.4 1 1S-1311.5 464-1312 464L-1312 464zM-1313 444.5h16v15.6h-16V444.5z"/>
            <path id="Flats-Copy" class="st3" d="M-1325.8 496.4h3.5v-1.2l-0.9 0v-2.4h1.3c0.5 0 0.7 0.2 0.9 0.6l0.7 1.4c0.1 0.3 0.1 0.4-0.3 0.4l-0.4 0v1.1h3.5v-1.2l-0.8 0 -1-2.2c-0.2-0.5-0.4-0.7-0.8-0.9 0.8-0.3 1.7-1.1 1.7-2.5 0-1.9-1.3-2.6-3.4-2.6h-3.8v1.2l0.8 0v6.5c0 0.3-0.2 0.4-0.4 0.4l-0.5 0V496.4zM-1323.2 491.4v-3h1c1.2 0 1.9 0.2 1.9 1.4 0 1-0.5 1.5-1.7 1.5H-1323.2zM-1313.8 495.4c-1.3 0-1.5-1.4-1.5-2.7 0-1.3 0.4-2.3 1.6-2.3 1.1 0 1.5 1 1.5 2.5C-1312.2 494.4-1312.7 495.4-1313.8 495.4L-1313.8 495.4zM-1317 492.9c0 2.5 1.2 3.7 3.1 3.7 1.8 0 3.3-1.2 3.3-3.9 0-3.2-2.1-3.5-3.1-3.5C-1315.1 489.2-1317 490-1317 492.9L-1317 492.9zM-1306.4 495.4c-1.3 0-1.5-1.4-1.5-2.7 0-1.3 0.4-2.3 1.6-2.3 1.1 0 1.5 1 1.5 2.5C-1304.9 494.4-1305.3 495.4-1306.4 495.4L-1306.4 495.4zM-1309.6 492.9c0 2.5 1.2 3.7 3.1 3.7 1.8 0 3.3-1.2 3.3-3.9 0-3.2-2.1-3.5-3.1-3.5C-1307.7 489.2-1309.6 490-1309.6 492.9L-1309.6 492.9zM-1302.3 490.5l0.6 0c0.3 0 0.4 0.1 0.4 0.4v3.9h0c0 0.3-0.1 0.4-0.4 0.5l-0.5 0v1.1h3.3v-1.1l-0.8 0v-3.4c0-0.7 0.4-1.4 1.4-1.4 0.9 0 1 0.7 1 1.5v2.9c0 0.3-0.1 0.4-0.4 0.5l-0.5 0v1.1h3.3v-1.1l-0.8 0v-3.4c0-0.8 0.4-1.4 1.4-1.4 0.9 0 1 0.7 1 1.5v2.9c0 0.3-0.2 0.4-0.4 0.4l-0.5 0v1.1h3.3v-1.1l-0.8 0v-3.7c0-1.7-0.8-2.4-2.1-2.4 -0.9 0-1.6 0.4-2.1 1.1 -0.3-0.8-1-1.1-1.9-1.1 -0.9 0-1.6 0.4-2.1 1.1v-0.9h-2.4V490.5zM-1286.4 490.5c0.3 0.1 0.3 0.2 0.3 0.5v0.6l1.3-0.1v-1.7c-0.5-0.3-1.4-0.6-2.3-0.6 -1.5 0-2.7 0.8-2.7 2.2 0 1.6 1.1 1.9 2.2 2.2 0.8 0.2 1.4 0.3 1.4 1 0 0.6-0.4 0.9-1.1 0.9 -0.3 0-0.7 0-0.9-0.1 -0.3-0.1-0.3-0.2-0.3-0.5v-0.7l-1.3 0.1v1.9c0.6 0.3 1.7 0.4 2.6 0.4 1.5 0 2.7-0.8 2.7-2.2 0-1.5-1.2-1.9-2.3-2.2 -0.7-0.2-1.3-0.4-1.3-1 0-0.6 0.4-0.8 1-0.8C-1286.9 490.3-1286.7 490.4-1286.4 490.5L-1286.4 490.5z"/>
          </g>
        </g>
      </g>
    </g>
  </g>
</svg>
