<svg xmlns="http://www.w3.org/2000/svg" version="1.1" x="0" y="0" width="36" height="36" viewBox="-1399 453.9 36 36" xml:space="preserve"><style type="text/css">
	.st0{fill:#313133;}
	.st1{fill:#A8DC28;}
	.st2{fill:#A8DC28;stroke:#313133;stroke-width:2;}
</style><title>Purchases</title><desc>Created with Sketch.</desc><g transform="translate(-876.000000, -472.000000)"><g transform="translate(0.000000, 320.000000)"><rect x="-523" y="605.9" class="st0" width="36" height="36"/><path class="st1" d="M-503.5 617.9c0-2.5-2-4.5-4.5-4.5s-4.5 2-4.5 4.5h-2.5v14h14v-14H-503.5zM-508 614.4c1.9 0 3.5 1.6 3.5 3.5h-7C-511.5 616-509.9 614.4-508 614.4z"/><rect x="-502" y="622.8" class="st2" width="10" height="10"/><path class="st1" d="M-493.6 622.8C-493.6 622.8-493.6 622.8-493.6 622.8c0-1.9-1.5-3.4-3.4-3.4s-3.4 1.5-3.4 3.4c0 0 0 0 0 0h-1.6v10h10v-10H-493.6zM-499.4 622.8c0-1.3 1.1-2.4 2.4-2.4s2.4 1.1 2.4 2.4c0 0 0 0 0 0L-499.4 622.8C-499.4 622.8-499.4 622.8-499.4 622.8z"/></g></g></svg>