<svg xmlns:sketch="http://www.bohemiancoding.com/sketch/ns" xmlns="http://www.w3.org/2000/svg" xmlns:xlink="http://www.w3.org/1999/xlink" version="1.1" id="Layer_1" x="0" y="0" width="157" height="158" viewBox="-1339 392.9 157 158" xml:space="preserve" enable-background="new -1339 392.9 157 158">
  <style type="text/css">
    
	.st0{fill:#313133;}
	.st1{fill:none;stroke:#A8DC28;stroke-width:2;stroke-linecap:round;stroke-linejoin:round;stroke-dasharray:1,4;}
	.st2{fill:#EFEFEF;}
	.st3{fill:#A8DC28;}

  </style>
  <title>
    Rabbits-Active
  </title>
  <desc>
    Created with Sketch.
  </desc>
  <g id="landing-page" sketch:type="MSPage">
    <g id="Desktop---Landing-Page-Animals" transform="translate(-732.000000, -663.000000)" sketch:type="MSArtboardGroup">
      <g id="Pets" transform="translate(-31.000000, 533.000000)" sketch:type="MSLayerGroup">
        <g id="Actives" transform="translate(214.000000, 130.000000)" sketch:type="MSShapeGroup">
          <g id="Rabbits-Active" transform="translate(549.000000, 0.000000)">
            <path id="Fill-1-Copy" class="st0" d="M-1260.5 393.1c-43.3 0-78.5 35.2-78.5 78.5 0 43.3 35.2 78.5 78.5 78.5 43.3 0 78.5-35.2 78.5-78.5C-1182 428.3-1217.2 393.1-1260.5 393.1z"/>
            <path id="Stroke-2" class="st1" d="M-1196.8 502.5c4.5-9.3 7-19.7 7-30.8 0-39-31.7-70.7-70.7-70.7s-70.7 31.7-70.7 70.7c0 30.4 19.3 56.4 46.3 66.4 7.6 2.8 15.8 4.3 24.4 4.3C-1232.5 542.5-1208.3 526.1-1196.8 502.5L-1196.8 502.5z"/>
            <g id="Rabbit" transform="translate(50.000000, 41.000000)">
              <path id="Shape" class="st2" d="M-1286.7 408.3c-2.5-3.6-4.8-5.3-6.9-4.9 -0.2 0-3.8-6.6-3.8-6.6 -1.4-2.6-4.3-5.1-5-2.9 -0.3 1.6 3.6 8.6 3.5 8.7 -0.4-0.2-3.7-7-6.6-8.1 -4.4-1.7 2.4 7 3 14.3 0.1 0.8-1.3 1.5-2.1 1.2 -1.6-0.7-2.8-1.3-3.6-1.7 -14.8-6.9-24.5 7.4-25.3 20.8 -0.1 0.5-0.1 0.9-0.6 0.5 -1.2-1.1-3-3.3-3.6-3.3 -2 0-1.5 5.7 3.6 9.2 0.4 0.3 0.9 0.3 1.4 0s0.9-0.4 1-0.3c1.4 1.3 2.5 2.3 3.4 2.9 1.6 2.2 1.8 3.1 7.9 3.8 6 0.8 7.5 1.9 8.4-0.1 0.8-1.6-0.2-2.1-1.6-3.2 -0.7-0.5-3-1.5-3-1.5 13.4-8.1 7.2-11.5 7.2-11.5 3.4 1.6 4.9 5.5-3.5 10.9 0 0 10.3 0.9 11.5 2.7 1.7 2.2 2.4 3 4.9 3.3 1 0 1.7-0.4 2.1-1.2 1.3-2.5-5.6-5.6-4.3-7.2 3.6-1.9 7.2-6.8 7.2-11.1 6 0 9.1-4.8 9.1-6.9C-1282.3 413.7-1284.3 411.7-1286.7 408.3L-1286.7 408.3zM-1292.3 410.8c-0.7 0-1.4-0.6-1.4-1.4 0-0.7 0.6-1.4 1.4-1.4s1.4 0.6 1.4 1.4C-1290.9 410.2-1291.5 410.8-1292.3 410.8L-1292.3 410.8z"/>
            </g>
            <path id="Rabbits" class="st3" d="M-1284 509.9h3.5v-1.2l-0.9 0v-2.4h1.3c0.5 0 0.7 0.2 0.9 0.6l0.7 1.4c0.1 0.3 0.1 0.4-0.3 0.4l-0.4 0v1.1h3.5v-1.2l-0.8 0 -1-2.2c-0.2-0.5-0.4-0.7-0.8-0.9 0.8-0.3 1.7-1.1 1.7-2.5 0-1.9-1.3-2.6-3.4-2.6h-3.8v1.2l0.8 0v6.5c0 0.3-0.2 0.4-0.4 0.4l-0.5 0V509.9zM-1281.5 504.9v-3h1c1.2 0 1.9 0.2 1.9 1.4 0 1-0.5 1.5-1.7 1.5H-1281.5zM-1269 503.2c-1-0.4-2-0.5-2.5-0.5 -2.5 0-3.7 1.6-3.7 4 0 2 0.8 3.4 2.8 3.4 0.8 0 1.5-0.4 1.9-1l0 0v0.8h2.2v-1.1l-0.4 0c-0.3 0-0.3-0.1-0.3-0.4V503.2zM-1270.6 507.7c0 0.6-0.5 1.2-1.4 1.2 -1.2 0-1.5-1.1-1.5-2.3 0-1.5 0.4-2.8 1.8-2.8 0.4 0 0.9 0.1 1.1 0.2V507.7zM-1266.7 509.5c0.6 0.3 1.8 0.6 2.8 0.6 2.3 0 3.4-1.3 3.4-4 0-2.2-1.1-3.4-2.9-3.4 -0.7 0-1.3 0.2-1.7 0.6V500h-2.5v1.2l0.5 0c0.2 0 0.3 0.1 0.3 0.3V509.5zM-1265.1 505c0-0.6 0.6-1.1 1.3-1.1 1.3 0 1.6 1.3 1.6 2.4 0 1.9-0.6 2.6-1.6 2.6 -0.5 0-1-0.1-1.2-0.3V505zM-1258.9 509.5c0.6 0.3 1.8 0.6 2.8 0.6 2.3 0 3.4-1.3 3.4-4 0-2.2-1.1-3.4-2.9-3.4 -0.7 0-1.3 0.2-1.7 0.6V500h-2.5v1.2l0.5 0c0.2 0 0.3 0.1 0.3 0.3V509.5zM-1257.3 505c0-0.6 0.6-1.1 1.3-1.1 1.3 0 1.6 1.3 1.6 2.4 0 1.9-0.6 2.6-1.6 2.6 -0.5 0-1-0.1-1.2-0.3V505zM-1249.2 502.9h-2.5v1.2l0.5 0c0.3 0 0.3 0.1 0.3 0.4v3.9c0 0.3-0.2 0.4-0.4 0.4l-0.5 0v1.1h3.3v-1.1l-0.8 0V502.9zM-1251.3 501c0 0.6 0.4 1 1.1 1 0.6 0 1.1-0.4 1.1-1 0-0.6-0.4-1-1.1-1C-1250.9 499.9-1251.3 500.4-1251.3 501L-1251.3 501zM-1246.1 501.4c-0.3 0.8-0.6 1.6-1.6 1.6l-0.1 1h1v3.7c0 1 0 2.3 2.2 2.3 0.7 0 1.4-0.2 1.8-0.5l-0.4-1.1c-0.2 0.1-0.6 0.3-1 0.3 -0.6 0-0.9-0.3-0.9-1.1v-3.7h1.7l0.1-1.2h-1.9v-1.5H-1246.1zM-1238.7 504c0.3 0.1 0.3 0.2 0.3 0.5v0.6l1.3-0.1v-1.7c-0.5-0.3-1.4-0.6-2.3-0.6 -1.5 0-2.7 0.8-2.7 2.2 0 1.6 1.1 1.9 2.2 2.2 0.8 0.2 1.4 0.3 1.4 1 0 0.6-0.4 0.9-1.1 0.9 -0.3 0-0.7 0-0.9-0.1 -0.3-0.1-0.3-0.2-0.3-0.5v-0.7l-1.3 0.1v1.9c0.6 0.3 1.7 0.4 2.6 0.4 1.5 0 2.7-0.8 2.7-2.2 0-1.5-1.2-1.9-2.3-2.2 -0.7-0.2-1.3-0.4-1.3-1 0-0.6 0.4-0.8 1.1-0.8C-1239.1 503.8-1238.9 503.9-1238.7 504L-1238.7 504z"/>
          </g>
        </g>
      </g>
    </g>
  </g>
</svg>
