<svg xmlns="http://www.w3.org/2000/svg" version="1.1" x="0" y="0" width="19" height="19" viewBox="-1408 462.9 19 19" xml:space="preserve"><style type="text/css">
	.st0{fill:#A8A8A8;}
</style><title>Reg year</title><desc>Created with Sketch.</desc><g transform="translate(-261.000000, -1680.000000)"><g transform="translate(19.000000, 21.000000)"><g transform="translate(5.000000, 1580.000000)"><g transform="translate(237.000000, 79.000000)"><path class="st0" d="M-1390.5 466.1h-2.9v-1.5c0-0.7-0.5-1.2-1.2-1.2 -0.6 0-1.2 0.5-1.2 1.2v1.5h-5.3v-1.5c0-0.7-0.5-1.2-1.2-1.2 -0.6 0-1.2 0.5-1.2 1.2v1.5h-2.9c-0.5 0-0.9 0.4-0.9 0.9v13.2c0 0.5 0.4 0.9 0.9 0.9h15.8c0.5 0 0.9-0.4 0.9-0.9V467C-1389.6 466.5-1390 466.1-1390.5 466.1L-1390.5 466.1zM-1401.8 470.2h2.8v2.4h-2.8V470.2zM-1397.8 470.2h2.8v2.4h-2.8V470.2zM-1405.4 470.2h2.5v2.4h-2.5V470.2zM-1405.4 473.8h2.5v1.8h-2.5V473.8zM-1401.8 473.8h2.8v1.8h-2.8V473.8zM-1401.8 476.8h2.8v2.4h-2.8V476.8zM-1397.8 476.8h2.8v2.4h-2.8V476.8zM-1397.8 473.8h2.8v1.8h-2.8V473.8zM-1393.9 473.8h2.5v1.8h-2.5V473.8zM-1393.9 470.2h2.5v2.4h-2.5V470.2zM-1405.4 476.8h2.5v2.4h-2.5V476.8zM-1393.9 476.8h2.5v2.4h-2.5V476.8z"/></g></g></g></g></svg>