<svg xmlns:sketch="http://www.bohemiancoding.com/sketch/ns" xmlns="http://www.w3.org/2000/svg" xmlns:xlink="http://www.w3.org/1999/xlink" version="1.1" id="Layer_1" x="0" y="0" width="157" height="158" viewBox="-1339 392.9 157 158" xml:space="preserve" enable-background="new -1339 392.9 157 158">
  <style type="text/css">
    
	.st0{fill:#313133;}
	.st1{fill:none;stroke:#A8DC28;stroke-width:2;stroke-linecap:round;stroke-linejoin:round;stroke-dasharray:1,4;}
	.st2{fill:#EFEFEF;}
	.st3{fill:#A8DC28;}

  </style>
  <title>
    Reptiles-Active
  </title>
  <desc>
    Created with Sketch.
  </desc>
  <g id="landing-page" sketch:type="MSPage">
    <g id="Desktop---Landing-Page-Animals" transform="translate(-1099.000000, -663.000000)" sketch:type="MSArtboardGroup">
      <g id="Pets" transform="translate(-31.000000, 533.000000)" sketch:type="MSLayerGroup">
        <g id="Actives" transform="translate(214.000000, 130.000000)" sketch:type="MSShapeGroup">
          <g id="Reptiles-Active" transform="translate(916.000000, 0.000000)">
            <path id="Fill-1-Copy" class="st0" d="M-1260.5 393.1c-43.3 0-78.5 35.2-78.5 78.5 0 43.3 35.2 78.5 78.5 78.5 43.3 0 78.5-35.2 78.5-78.5C-1182 428.3-1217.2 393.1-1260.5 393.1z"/>
            <path id="Stroke-2" class="st1" d="M-1196.8 502.5c4.5-9.3 7-19.7 7-30.8 0-39-31.7-70.7-70.7-70.7s-70.7 31.7-70.7 70.7c0 30.4 19.3 56.4 46.3 66.4 7.6 2.8 15.8 4.3 24.4 4.3C-1232.5 542.5-1208.3 526.1-1196.8 502.5L-1196.8 502.5z"/>
            <g id="snake" transform="translate(47.000000, 39.000000)">
              <path id="Shape" class="st2" d="M-1276.3 424.1c-1.3-2.1-3.3-3.5-5.4-4.8 -1.2-0.7-2.5-1.4-3.8-2.1 -0.1 0-0.2-0.1-0.3-0.2 0.6-0.1 1.1-0.2 1.6-0.2 1.3-0.1 2.5-0.2 3.8-0.6 0.5-0.1 1-0.4 1.2-0.9 2.6-4.2-0.4-4.5-0.4-4.5 -0.5-0.1-0.9-0.1-1.4-0.1 -0.3 0-0.6 0-0.9 0 -0.4 0-0.7-0.1-1-0.3 -0.2-0.1-0.5-0.2-0.8-0.2 -0.7 0-1.4 0.1-2.2-0.1 -0.2 0-0.4 0-0.5 0 -0.6 0.2-1.2 0.2-1.9 0.2 -0.6 0-1.2 0-1.8 0.1 -0.9 0.2-1.6 0.8-2.2 1.6 -0.1 0.1-0.1 0.2-0.2 0.2 -0.9 0.5-1.4 1.3-1.8 2.2 -0.4 0.8-0.2 1.6 0.3 2.2 0.6 0.7 1.3 1.5 2 2.1 1.2 0.9 2.4 1.8 3.7 2.7 1.4 1 2.9 1.8 4.3 2.8 0.9 0.6 1.8 1.4 2.5 2.4 -0.4 0.2-0.8 0.3-1.2 0.5 -0.5 0.1-1.1 0.2-1.6 0.3 -0.4 0.1-0.7 0.1-1.1 0.1 -0.8 0-1.5 0.1-2.3 0 -0.9-0.1-1.8-0.2-2.6-0.3 -1.5-0.1-2.9-0.7-4.3-1.2 -0.5-0.2-1-0.5-1.4-0.9 -0.2-0.1-0.2-0.4-0.3-0.6 -0.4-2.4-1.3-4.5-2.8-6.5 -0.7-0.9-1.5-1.6-2.4-2.2 -1.7-1.2-3.7-2.1-5.7-2.8 -2.2-0.8-4.5-1.3-6.9-1.7 -1.9-0.3-3.8-0.5-5.7-1 -1.2-0.3-2.3-0.7-3.5-1.2 0.2-0.1 0.4-0.2 0.5-0.3 1.1-0.6 2.2-1.2 3.2-1.8 0.7-0.4 1.3-1 1.8-1.6 0.6-0.9 0.6-1.9 0.2-2.8 -0.5-1-1.2-1.6-2.2-2.1 -1.7-0.8-3.6-1-5.4-1.1 -2.5-0.1-5-0.1-7.5-0.1 -1.7 0-3.2-0.5-4.6-1.5 -0.9-0.7-1.3-1.9-1-3 0.1-0.5 0.4-1 0.6-1.5 0-0.1 0.1-0.2 0.1-0.3 -0.9 1-1.7 2.1-1.5 3.6 0.1 0.8 0.4 1.4 1 2 1.1 1.2 2.5 2 4.1 2.4 1.3 0.3 2.6 0.4 3.9 0.6 1.9 0.2 3.9 0.4 5.8 0.8 0.8 0.2 1.5 0.5 2.2 0.7 0.1 0 0.3 0.1 0.5 0.2 -0.2 0.1-0.2 0.1-0.3 0.2 -1.2 0.5-2.4 0.9-3.5 1.5 -1.5 0.8-3 1.8-3.4 3.6 -0.6 2.1-0.4 3.4 1.5 5 1.6 1.3 3.5 2.1 5.4 2.7 1.9 0.6 3.9 1 5.9 1.3 1.9 0.2 3.7 0.7 5.5 1.2 1.4 0.4 2.7 0.9 3.9 1.7 0.8 0.5 1.5 0.9 1.9 1.8 0.5 0.9 0.8 1.8 1 2.8 0.1 0.7 0.2 1.5 0.4 2.2 0.4 1.6 1.4 2.9 2.7 3.9 1.5 1.2 3.3 2 5.1 2.6 2.4 0.8 4.9 1.2 7.4 1.3 2.9 0.1 5.8-0.3 8.5-1.5 1.6-0.7 3-1.7 4-3.3 0.2-0.4 0.4-0.8 0.5-1.2C-1274.8 427.1-1275.4 425.6-1276.3 424.1L-1276.3 424.1zM-1283.6 411.6c0.2 0 0.4 0.2 0.4 0.4 0 0.2-0.2 0.4-0.4 0.4 -0.2 0-0.4-0.2-0.4-0.4S-1283.8 411.6-1283.6 411.6L-1283.6 411.6z"/>
            </g>
            <path id="Reptiles-_x26_" class="st3" d="M-1291.5 499.9h3.5v-1.2l-0.9 0v-2.4h1.3c0.5 0 0.7 0.2 0.9 0.6l0.7 1.4c0.1 0.3 0.1 0.4-0.3 0.4l-0.4 0v1.1h3.5v-1.2l-0.8 0 -1-2.2c-0.2-0.5-0.4-0.7-0.8-0.9 0.8-0.3 1.7-1.1 1.7-2.5 0-1.9-1.3-2.6-3.4-2.6h-3.8v1.2l0.8 0v6.5c0 0.3-0.2 0.4-0.4 0.4l-0.5 0V499.9zM-1289 494.9v-3h1c1.2 0 1.9 0.2 1.9 1.4 0 1-0.5 1.5-1.7 1.5H-1289zM-1279.2 492.7c-2.3 0-3.5 1.8-3.5 3.9 0 2.1 0.9 3.5 3.3 3.5 1.3 0 2.2-0.6 2.5-0.8l-0.5-1.1c-0.3 0.2-0.9 0.6-1.8 0.6 -1.2 0-1.7-0.7-1.7-1.7 1.7 0 4-0.4 4-2.5C-1277 493.4-1277.9 492.7-1279.2 492.7L-1279.2 492.7zM-1278.5 494.7c0 1.1-1.5 1.3-2.5 1.3 0-1 0.5-2.1 1.7-2.1C-1278.8 493.9-1278.5 494.1-1278.5 494.7L-1278.5 494.7zM-1275.2 501.3c0 0.4-0.1 0.4-0.4 0.5l-0.5 0v1.1h3.6v-1.1l-1.1-0.1v-1.9c0.4 0.2 1 0.4 1.5 0.4 1.8 0 3.1-1.3 3.1-3.9 0-2.5-1-3.6-2.5-3.6 -1.2 0-2 0.6-2.2 1.1v-0.9h-2.4v1.1l0.6 0c0.3 0 0.3 0.1 0.3 0.4V501.3zM-1270.8 496.4c0 1.2-0.4 2.4-1.6 2.4 -0.4 0-0.9-0.1-1.2-0.4v-3.2c0-0.6 0.6-1.2 1.4-1.2C-1271.4 494-1270.8 494.5-1270.8 496.4L-1270.8 496.4zM-1266.5 491.4c-0.3 0.8-0.6 1.6-1.6 1.6l-0.1 1h1v3.7c0 1 0 2.3 2.2 2.3 0.7 0 1.4-0.2 1.8-0.5l-0.4-1.1c-0.2 0.1-0.6 0.3-1 0.3 -0.6 0-0.9-0.3-0.9-1.1v-3.7h1.7l0.1-1.2h-1.9v-1.5H-1266.5zM-1260.2 492.9h-2.5v1.2l0.5 0c0.3 0 0.3 0.1 0.3 0.4v3.9c0 0.3-0.2 0.4-0.4 0.4l-0.5 0v1.1h3.3v-1.1l-0.8 0V492.9zM-1262.3 491c0 0.6 0.4 1 1.1 1 0.6 0 1.1-0.4 1.1-1 0-0.6-0.4-1-1.1-1C-1261.8 489.9-1262.3 490.4-1262.3 491L-1262.3 491zM-1256.1 490h-2.5v1.2l0.5 0c0.2 0 0.3 0.1 0.3 0.3v6.9c0 0.3-0.2 0.4-0.4 0.4l-0.5 0v1.1h3.3v-1.1l-0.8 0V490zM-1250.9 492.7c-2.3 0-3.5 1.8-3.5 3.9 0 2.1 0.9 3.5 3.3 3.5 1.3 0 2.2-0.6 2.5-0.8l-0.5-1.1c-0.3 0.2-0.9 0.6-1.8 0.6 -1.2 0-1.7-0.7-1.7-1.7 1.7 0 4-0.4 4-2.5C-1248.6 493.4-1249.5 492.7-1250.9 492.7L-1250.9 492.7zM-1250.2 494.7c0 1.1-1.5 1.3-2.5 1.3 0-1 0.5-2.1 1.7-2.1C-1250.5 493.9-1250.2 494.1-1250.2 494.7L-1250.2 494.7zM-1244 494c0.3 0.1 0.3 0.2 0.3 0.5v0.6l1.3-0.1v-1.7c-0.5-0.3-1.4-0.6-2.3-0.6 -1.5 0-2.7 0.8-2.7 2.2 0 1.6 1.1 1.9 2.2 2.2 0.8 0.2 1.4 0.3 1.4 1 0 0.6-0.4 0.9-1.1 0.9 -0.3 0-0.7 0-0.9-0.1 -0.3-0.1-0.3-0.2-0.3-0.5v-0.7l-1.3 0.1v1.9c0.6 0.3 1.7 0.4 2.6 0.4 1.5 0 2.7-0.8 2.7-2.2 0-1.5-1.2-1.9-2.3-2.2 -0.7-0.2-1.3-0.4-1.3-1 0-0.6 0.4-0.8 1-0.8C-1244.5 493.8-1244.2 493.9-1244 494L-1244 494zM-1232.3 496.9c-1.4-1.2-3-2.8-3-4 0-0.7 0.4-1.1 1.1-1.1 0.3 0 0.5 0 0.7 0.1 0.3 0.1 0.3 0.2 0.3 0.5v0.9l1.4-0.1V491c-0.8-0.4-1.6-0.6-2.5-0.6 -1.7 0-2.7 1-2.7 2.4 0 0.5 0.1 1 0.4 1.5 -1 0.6-1.7 1.5-1.7 2.9 0 1.4 0.9 2.8 3.3 2.8 1.2 0 2.2-0.4 2.9-1 0.7 0.5 1.3 1 1.8 1.3l0.9-1.2c-0.3-0.3-1.1-0.8-1.8-1.3 0.4-0.8 0.6-1.6 0.6-2.5l0.8 0v-1.1h-3v1.1l0.4 0c0.2 0 0.3 0.1 0.3 0.2C-1232.1 496-1232.2 496.5-1232.3 496.9L-1232.3 496.9zM-1233.3 498.1c-0.4 0.4-0.9 0.7-1.7 0.7 -1.1 0-1.7-0.7-1.7-1.6 0-0.7 0.3-1.3 0.9-1.6C-1235.2 496.4-1234.2 497.3-1233.3 498.1L-1233.3 498.1zM-1297.8 513.4c-0.1 0.3-0.2 0.4-0.4 0.4l-0.5 0v1.1h3.2v-1.2l-0.8 0 0.4-1.2h3.3l0.3 0.9c0.1 0.3 0 0.4-0.3 0.4l-0.5 0v1.1h3.6v-1.2l-0.8 0h0l-2.9-8.1h-3.2v1.1l0.9 0.1L-1297.8 513.4zM-1294.2 507.2L-1294.2 507.2l1.3 4h-2.6L-1294.2 507.2zM-1289.1 509l0.6 0c0.3 0 0.3 0.1 0.3 0.4v3.9h0c0 0.3-0.1 0.4-0.4 0.5l-0.5 0v1.1h3.3v-1.1l-0.8 0v-3.4c0-0.7 0.4-1.4 1.4-1.4 0.9 0 1 0.7 1 1.5v2.9c0 0.3-0.1 0.4-0.4 0.5l-0.5 0v1.1h3.3v-1.1l-0.8 0v-3.4c0-0.8 0.4-1.4 1.4-1.4 0.9 0 1 0.7 1 1.5v2.9c0 0.3-0.2 0.4-0.4 0.4l-0.5 0v1.1h3.3v-1.1l-0.8 0v-3.7c0-1.7-0.8-2.4-2.1-2.4 -0.9 0-1.6 0.4-2.1 1.1 -0.3-0.8-1-1.1-1.9-1.1 -0.9 0-1.6 0.4-2.1 1.1v-0.9h-2.4V509zM-1276.1 516.3c0 0.3-0.1 0.4-0.4 0.5l-0.5 0v1.1h3.6v-1.1l-1.1-0.1v-1.9c0.4 0.2 1 0.4 1.5 0.4 1.8 0 3.1-1.3 3.1-3.9 0-2.5-1-3.6-2.5-3.6 -1.2 0-2 0.6-2.2 1.1v-0.9h-2.4v1.1l0.6 0c0.3 0 0.3 0.1 0.3 0.4V516.3zM-1271.6 511.4c0 1.2-0.4 2.4-1.6 2.4 -0.4 0-0.9-0.1-1.2-0.4v-3.2c0-0.6 0.6-1.2 1.4-1.2C-1272.3 509-1271.6 509.5-1271.6 511.4L-1271.6 511.4zM-1268.1 513.4c0 0.3-0.1 0.4-0.4 0.5l-0.5 0v1.1h3.3v-1.1l-0.8 0v-3.4c0-0.7 0.5-1.4 1.5-1.4 0.9 0 1.1 0.7 1.1 1.5v2.9c0 0.3-0.1 0.4-0.4 0.5l-0.5 0v1.1h3.3v-1.1l-0.8 0v-3.7c0-1.7-0.8-2.4-2.2-2.4 -0.9 0-1.6 0.4-2 1V505h-2.5v1.2l0.5 0c0.3 0 0.3 0.1 0.3 0.4V513.4zM-1258 507.9h-2.5v1.2l0.5 0c0.3 0 0.3 0.1 0.3 0.4v3.9c0 0.3-0.2 0.4-0.4 0.4l-0.5 0v1.1h3.3v-1.1l-0.8 0V507.9zM-1260 506c0 0.6 0.4 1 1.1 1 0.6 0 1.1-0.4 1.1-1 0-0.6-0.4-1-1.1-1C-1259.6 504.9-1260 505.4-1260 506L-1260 506zM-1255.8 514.5c0.6 0.3 1.8 0.6 2.8 0.6 2.3 0 3.4-1.3 3.4-4 0-2.2-1.1-3.4-2.9-3.4 -0.7 0-1.3 0.2-1.7 0.6V505h-2.5v1.2l0.5 0c0.2 0 0.3 0.1 0.3 0.3V514.5zM-1254.1 510c0-0.6 0.6-1.1 1.3-1.1 1.3 0 1.6 1.3 1.6 2.4 0 1.9-0.6 2.6-1.6 2.6 -0.5 0-1-0.1-1.2-0.3V510zM-1246.1 507.9h-2.5v1.2l0.5 0c0.3 0 0.3 0.1 0.3 0.4v3.9c0 0.3-0.2 0.4-0.4 0.4l-0.5 0v1.1h3.3v-1.1l-0.8 0V507.9zM-1248.1 506c0 0.6 0.4 1 1.1 1 0.6 0 1.1-0.4 1.1-1 0-0.6-0.4-1-1.1-1C-1247.7 504.9-1248.1 505.4-1248.1 506L-1248.1 506zM-1238.2 508.2c-1-0.4-2-0.5-2.5-0.5 -2.5 0-3.7 1.6-3.7 4 0 2 0.8 3.4 2.8 3.4 0.8 0 1.5-0.4 1.9-1l0 0v0.8h2.2v-1.1l-0.4 0c-0.3 0-0.3-0.1-0.3-0.4V508.2zM-1239.8 512.7c0 0.6-0.5 1.2-1.4 1.2 -1.2 0-1.5-1.1-1.5-2.3 0-1.5 0.4-2.8 1.8-2.8 0.4 0 0.9 0.1 1.1 0.2V512.7zM-1236.6 509l0.6 0c0.3 0 0.3 0.1 0.3 0.4v3.9c0 0.3-0.1 0.4-0.4 0.5l-0.5 0v1.1h3.3v-1.1l-0.8 0v-3.4c0-0.7 0.5-1.4 1.4-1.4 1 0 1.1 0.6 1.1 1.5v2.9c0 0.3-0.1 0.4-0.4 0.5l-0.5 0v1.1h3.3v-1.1l-0.8 0v-3.7c0-1.7-0.8-2.4-2.2-2.4 -0.9 0-1.8 0.4-2.3 1.1v-0.9h-2.4V509zM-1224.4 509c0.3 0.1 0.3 0.2 0.3 0.5v0.6l1.3-0.1v-1.7c-0.5-0.3-1.4-0.6-2.3-0.6 -1.5 0-2.7 0.8-2.7 2.2 0 1.6 1.1 1.9 2.2 2.2 0.8 0.2 1.4 0.3 1.4 1 0 0.6-0.4 0.9-1.1 0.9 -0.3 0-0.7 0-0.9-0.1 -0.3-0.1-0.3-0.2-0.3-0.5v-0.7l-1.3 0.1v1.9c0.6 0.3 1.7 0.4 2.6 0.4 1.5 0 2.7-0.8 2.7-2.2 0-1.5-1.2-1.9-2.3-2.2 -0.7-0.2-1.3-0.4-1.3-1 0-0.6 0.4-0.8 1.1-0.8C-1224.9 508.8-1224.7 508.9-1224.4 509L-1224.4 509z"/>
          </g>
        </g>
      </g>
    </g>
  </g>
</svg>
