<svg xmlns="http://www.w3.org/2000/svg" version="1.1" x="0" y="0" width="38" height="38" viewBox="-278 401.9 38 38" xml:space="preserve"><style type="text/css">
	.st0{fill:#FFFFFF;}
	.st1{fill:#313133;stroke:#313133;stroke-width:2;}
	.st2{fill:#A8DC28;}
	.st3{fill:#313133;}
</style><path class="st0" d="M-266.5 427.3c-4.2-0.5-7.9-2.3-10.4-5.1 0-0.5-0.1-0.9-0.1-1.4 0-9.9 8.1-18 18-18 2.5 0 4.8 0.5 7 1.4l0 0c2.4 2.5 3.8 5.6 3.8 9.1 0 3.7-1.7 7.2-4.4 9.7l6 4.4h-20.1L-266.5 427.3z"/><title>Icon reviews</title><desc>Created with Sketch.</desc><g transform="translate(1.000000, 1.000000)"><circle class="st1" cx="-260" cy="419.9" r="18"/><path class="st2" d="M-267.5 426.3c-4.2-0.5-7.9-2.3-10.4-5.1 0-0.5-0.1-0.9-0.1-1.4 0-9.9 8.1-18 18-18 2.5 0 4.8 0.5 7 1.4l0 0c2.4 2.5 3.8 5.6 3.8 9.1 0 3.7-1.7 7.2-4.4 9.7l6 4.4h-20.1L-267.5 426.3z"/><path class="st3" d="M-265.4 416.7l-3.7 1.9 0.7-4.1 -3-2.9 4.1-0.6 1.9-3.8 1.9 3.8 4.1 0.6 -3 2.9 0.7 4.1L-265.4 416.7z"/></g></svg>