<svg xmlns="http://www.w3.org/2000/svg" version="1.1" x="0" y="0" width="15" height="15" viewBox="-1410 464.9 15 15" xml:space="preserve"><style type="text/css">
	.st0{fill:#A4A4A4;}
</style><title>rotate icon</title><desc>Created with Sketch Beta.</desc><g transform="translate(-780.000000, -1311.000000)"><g transform="translate(-2.000000, 260.000000)"><g transform="translate(459.000000, 21.000000)"><g transform="translate(1.000000, 563.000000)"><g transform="translate(314.000000, 459.000000)"><g transform="translate(8.000000, 8.000000)"><path class="st0" d="M-1397.4 472.5c0-2.8-2.3-5.1-5.2-5.1 -1.2 0-2.4 0.4-3.2 1.1l2.6 2.2 -6.8 1 0-6.8 2.4 2c1.3-1.2 3.1-1.9 5.1-1.9 4.2 0 7.6 3.3 7.6 7.4 0 4.1-3.4 7.4-7.6 7.4 -3.3 0-6.1-2.1-7.1-4.9l2.4-0.4c0.8 1.7 2.6 2.9 4.7 2.9C-1399.7 477.6-1397.4 475.3-1397.4 472.5z"/></g></g></g></g></g></g></svg>