<svg xmlns:sketch="http://www.bohemiancoding.com/sketch/ns" xmlns="http://www.w3.org/2000/svg" xmlns:xlink="http://www.w3.org/1999/xlink" version="1.1" id="Layer_1" x="0" y="0" width="112" height="112" viewBox="-1361 415.9 112 112" xml:space="preserve" enable-background="new -1361 415.9 112 112">
  <style type="text/css">
    
	.st0{fill:#313133;}
	.st1{fill:none;stroke:#A8DC28;stroke-width:2;stroke-linecap:round;stroke-linejoin:round;stroke-dasharray:1,4;}
	.st2{fill:#A8DC28;}
	.st3{fill:#FFFFFF;}

  </style>
  <title>
    Saloons-Active
  </title>
  <desc>
    Created with Sketch.
  </desc>
  <g id="landing-page" sketch:type="MSPage">
    <g id="Desktop---landing-Page-Motors" transform="translate(-595.000000, -807.000000)" sketch:type="MSArtboardGroup">
      <g id="Find-a-car" transform="translate(-43.000000, 537.000000)" sketch:type="MSLayerGroup">
        <g id="Part2-Copy" transform="translate(227.000000, 242.000000)" sketch:type="MSShapeGroup">
          <g id="Categories-Icon" transform="translate(132.000000, 20.000000)">
            <g id="actives">
              <g id="Saloons-Active" transform="translate(279.000000, 8.000000)">
                <path id="Fill-1" class="st0" d="M-1249.5 471.6c0-30.6-24.9-55.5-55.5-55.5s-55.5 24.9-55.5 55.5c0 30.6 24.9 55.5 55.5 55.5S-1249.5 502.2-1249.5 471.6"/>
                <path id="Stroke-2-Copy-3" class="st1" d="M-1260 493.3c3.2-6.6 5-14 5-21.8 0-27.6-22.4-50-50-50s-50 22.4-50 50c0 21.5 13.7 39.9 32.8 46.9 5.4 2 11.2 3.1 17.2 3.1C-1285.3 521.6-1268.1 510.1-1260 493.3L-1260 493.3z"/>
                <g id="Fill-3-_x2B_-Fill-4-_x2B_-Fill-5" transform="translate(10.000000, 35.000000)">
                  <path id="Fill-3" class="st2" d="M-1337.8 430.3c-3.6 0-6.5 2.9-6.5 6.5s2.9 6.5 6.5 6.5c3.6 0 6.5-2.9 6.5-6.5S-1334.3 430.3-1337.8 430.3L-1337.8 430.3zM-1337.8 440.6c-2.1 0-3.8-1.7-3.8-3.8 0-2.1 1.7-3.8 3.8-3.8 2.1 0 3.8 1.7 3.8 3.8C-1334 438.9-1335.7 440.6-1337.8 440.6L-1337.8 440.6z"/>
                  <path id="Fill-4" class="st2" d="M-1284.8 430.4c-3.6 0-6.5 2.9-6.5 6.5 0 3.6 2.9 6.5 6.5 6.5 3.6 0 6.5-2.9 6.5-6.5C-1278.4 433.3-1281.3 430.4-1284.8 430.4L-1284.8 430.4zM-1284.8 440.7c-2.1 0-3.8-1.7-3.8-3.8 0-2.1 1.7-3.8 3.8-3.8 2.1 0 3.8 1.7 3.8 3.8C-1281 438.9-1282.7 440.7-1284.8 440.7L-1284.8 440.7z"/>
                  <path id="Fill-5" class="st3" d="M-1269.4 431.8c-0.9-1.7 0.5-4.8-3.8-5.6l-21.3-1.6 -10.8-6.6c-0.4-0.3-0.9-0.5-1.4-0.5 -3-0.5-6.7-0.6-9.9-0.7l-9-0.1 -6.9 0.5c-0.8 0.1-3.8 0.7-4.4 1.3l-7 6.1 -11.5 0.1c0 0-3.1-0.5-3.1 1.9 0 0.2-0.2 3-0.4 3.8 0 0-1.3 0.4-1.6 1.5 -0.3 0.9 0 1.5 0 1.6 0 0-0.5 3 3.7 3h10.8c0.2-4.2 3.8-7.6 8.1-7.6 4.5 0 8.1 3.6 8.1 8 0 0.4 0 0.8-0.1 1.1h37.1c-0.1-0.4-0.1-0.7-0.1-1.1 0-4.4 3.6-8 8.1-8 4.5 0 8.1 3.6 8.1 8 0 0.4 0 0.8-0.1 1.1h4c0.2 0 2.7-0.7 3.3-3.1C-1269.2 433.9-1268.9 432.7-1269.4 431.8L-1269.4 431.8zM-1332.1 427.3h2.7v1h-2.7V427.3zM-1337.1 425.3l3.4-4.2c1.3-1.6 3.4-2.6 5.6-2.6h8.6l0.9 6.8H-1337.1L-1337.1 425.3zM-1315.9 427.3h2.7v1h-2.7V427.3zM-1316.6 425.3l-0.9-6.8c10.8 0.2 11.1 0.8 11.1 0.8l8.9 6H-1316.6L-1316.6 425.3z"/>
                </g>
                <path id="Saloons" class="st2" d="M-1325.6 494.9c-0.4 0-0.7 0-1-0.1 -0.3-0.1-0.3-0.2-0.3-0.5v-0.9l-1.4 0.1v2.2c0.8 0.4 1.7 0.6 2.8 0.6 1.9 0 3.4-1 3.4-2.9 0-1.8-1.3-2.4-2.6-2.8 -1-0.3-1.9-0.6-1.9-1.4 0-0.9 0.6-1.2 1.5-1.2 0.3 0 0.6 0 0.9 0.1 0.3 0.1 0.3 0.2 0.3 0.5v0.8l1.4-0.1v-2.1c-0.8-0.4-1.7-0.6-2.6-0.6 -1.9 0-3.2 1-3.2 2.7 0 1.8 1.3 2.4 2.7 2.7 1 0.3 1.8 0.5 1.8 1.4C-1323.9 494.6-1324.7 494.9-1325.6 494.9L-1325.6 494.9zM-1314.9 489.4c-1-0.4-2-0.5-2.5-0.5 -2.5 0-3.7 1.6-3.7 4 0 2 0.8 3.4 2.8 3.4 0.8 0 1.5-0.4 1.9-1l0 0v0.8h2.2V495l-0.4 0c-0.3 0-0.3-0.1-0.3-0.4V489.4zM-1316.6 493.9c0 0.6-0.5 1.2-1.4 1.2 -1.2 0-1.5-1.1-1.5-2.3 0-1.5 0.4-2.8 1.8-2.8 0.4 0 0.9 0.1 1.1 0.2V493.9zM-1310.8 486.1h-2.5v1.2l0.5 0c0.2 0 0.3 0.1 0.3 0.3v6.9c0 0.3-0.2 0.4-0.4 0.4l-0.5 0v1.1h3.3V495l-0.8 0V486.1zM-1305.9 495.1c-1.3 0-1.5-1.4-1.5-2.7 0-1.3 0.4-2.3 1.6-2.3 1.1 0 1.5 1 1.5 2.5C-1304.4 494.1-1304.8 495.1-1305.9 495.1L-1305.9 495.1zM-1309.1 492.6c0 2.5 1.2 3.7 3.1 3.7 1.8 0 3.3-1.2 3.3-3.9 0-3.2-2.1-3.5-3.1-3.5C-1307.2 488.9-1309.1 489.7-1309.1 492.6L-1309.1 492.6zM-1298.5 495.1c-1.3 0-1.5-1.4-1.5-2.7 0-1.3 0.4-2.3 1.6-2.3 1.1 0 1.5 1 1.5 2.5C-1297 494.1-1297.4 495.1-1298.5 495.1L-1298.5 495.1zM-1301.7 492.6c0 2.5 1.2 3.7 3.1 3.7 1.8 0 3.3-1.2 3.3-3.9 0-3.2-2.1-3.5-3.1-3.5C-1299.8 488.9-1301.7 489.7-1301.7 492.6L-1301.7 492.6zM-1294.4 490.2l0.6 0c0.3 0 0.3 0.1 0.3 0.4v3.9c0 0.4-0.1 0.4-0.4 0.5l-0.5 0v1.1h3.3V495l-0.8 0v-3.4c0-0.7 0.5-1.4 1.4-1.4 1 0 1.1 0.6 1.1 1.5v2.9c0 0.4-0.1 0.4-0.4 0.5l-0.5 0v1.1h3.3V495l-0.8 0v-3.7c0-1.7-0.8-2.4-2.2-2.4 -0.9 0-1.8 0.4-2.3 1.1v-0.9h-2.4V490.2zM-1282.3 490.1c0.3 0.1 0.3 0.2 0.3 0.5v0.6l1.3-0.1v-1.7c-0.5-0.3-1.4-0.6-2.3-0.6 -1.5 0-2.7 0.8-2.7 2.2 0 1.6 1.1 1.9 2.2 2.2 0.8 0.2 1.4 0.3 1.4 1 0 0.6-0.4 0.9-1.1 0.9 -0.3 0-0.7 0-0.9-0.1 -0.3-0.1-0.3-0.2-0.3-0.5v-0.7l-1.3 0.1v1.9c0.6 0.3 1.7 0.4 2.6 0.4 1.5 0 2.7-0.8 2.7-2.2 0-1.5-1.2-1.9-2.3-2.2 -0.7-0.2-1.3-0.4-1.3-1 0-0.6 0.4-0.8 1-0.8C-1282.7 490-1282.5 490-1282.3 490.1L-1282.3 490.1z"/>
              </g>
            </g>
          </g>
        </g>
      </g>
    </g>
  </g>
</svg>
