<svg xmlns="http://www.w3.org/2000/svg" version="1.1" x="0" y="0" width="36" height="36" viewBox="-1399 453.9 36 36" xml:space="preserve"><style type="text/css">
	.st0{fill:#313133;}
	.st1{fill:#A8DC28;}
</style><title>Saved-searches</title><desc>Created with Sketch.</desc><rect x="-1399" y="453.9" class="st0" width="36" height="36"/><path class="st1" d="M-1375.6 475c0 0 1.3-3 1.3-5 0-5.2-4.2-9.4-9.4-9.4 -5.2 0-9.4 4.2-9.4 9.4s4.2 9.4 9.4 9.4c2 0 4.6-0.9 4.6-0.9l4 4 3.5-3.5L-1375.6 475zM-1383.7 476.4c-3.5 0-6.4-2.9-6.4-6.4s2.9-6.4 6.4-6.4c3.5 0 6.4 2.9 6.4 6.4S-1380.1 476.4-1383.7 476.4z"/></svg>