<svg xmlns="http://www.w3.org/2000/svg" version="1.1" x="0" y="0" width="21" height="20" viewBox="-1407 461.9 21 20" xml:space="preserve"><style type="text/css">
	.st0{fill:#A8DC28;}
</style><title>Heart</title><desc>Created with Sketch.</desc><g transform="translate(-213.000000, -1241.000000)"><g transform="translate(183.000000, 447.000000)"><g transform="translate(0.000000, 22.000000)"><g transform="translate(0.000000, 762.000000)"><g transform="translate(30.000000, 10.000000)"><path class="st0" d="M-1390.7 462c2.1 0.2 4.4 2.1 4.7 5.7v1.2c-0.3 3.5-2.9 7.7-10.5 13.1 -7.6-5.3-10.2-9.6-10.5-13.1v-1.2c0.3-3.6 2.7-5.5 4.7-5.7 0.3 0 0.7 0 1 0 2.4 0 3.5 1 4.8 2.6 1.3-1.6 2.4-2.6 4.8-2.6C-1391.4 461.9-1391.1 462-1390.7 462z"/></g></g></g></g></g></svg>