<svg xmlns="http://www.w3.org/2000/svg" version="1.1" x="0" y="0" width="61" height="40" viewBox="-1387 451.9 61 40" xml:space="preserve"><style type="text/css">
	.st0{fill:#E3E3E3;stroke:#E3E3E3;}
	.st1{fill:#A8A8A8;}
	.st2{fill:#D8D8D8;stroke:#E10F84;}
	.st3{enable-background:new    ;}
	.st4{fill:#A1A1A1;}
</style><title>sec code icon</title><desc>Created with Sketch.</desc><g transform="translate(-676.000000, -1425.000000)"><g transform="translate(-1.000000, 296.000000)"><g transform="translate(571.000000, 114.000000)"><g transform="translate(39.000000, 587.000000)"><g transform="translate(67.000000, 428.000000)"><path class="st0" d="M-1383 451.9h53c2.2 0 4 1.8 4 4v32c0 2.2-1.8 4-4 4h-53c-2.2 0-4-1.8-4-4v-32C-1387 453.7-1385.2 451.9-1383 451.9z"/><rect x="-1387" y="461.9" class="st1" width="61" height="8"/><ellipse class="st2" cx="-1342.5" cy="481.4" rx="14.5" ry="8.5"/><g class="st3"><path class="st4" d="M-1350.5 481.9v-6.6h-2.4v-0.9c0.3 0 0.6 0 0.9-0.1s0.6-0.1 0.8-0.3 0.4-0.3 0.6-0.5c0.2-0.2 0.3-0.5 0.3-0.9h0.8v9.2H-1350.5zM-1346.1 474.7c0.1-0.4 0.3-0.7 0.6-1 0.3-0.3 0.6-0.5 1-0.7 0.4-0.2 0.8-0.2 1.3-0.2 0.4 0 0.8 0.1 1.1 0.2 0.4 0.1 0.7 0.3 0.9 0.5 0.3 0.2 0.5 0.5 0.6 0.8 0.2 0.3 0.2 0.7 0.2 1.1 0 0.4-0.1 0.8-0.2 1.1 -0.1 0.3-0.3 0.6-0.5 0.8s-0.4 0.5-0.7 0.7c-0.3 0.2-0.5 0.4-0.8 0.6 -0.3 0.2-0.6 0.3-0.9 0.5 -0.3 0.2-0.5 0.3-0.8 0.5 -0.2 0.2-0.4 0.4-0.6 0.6 -0.2 0.2-0.3 0.5-0.3 0.8h4.7v1h-6c0-0.5 0.1-1 0.3-1.4 0.2-0.4 0.3-0.7 0.6-1s0.5-0.5 0.8-0.8c0.3-0.2 0.6-0.4 0.9-0.6 0.4-0.2 0.7-0.5 1-0.7 0.3-0.2 0.5-0.4 0.7-0.6s0.3-0.4 0.4-0.7c0.1-0.2 0.2-0.5 0.2-0.8 0-0.3 0-0.5-0.1-0.7 -0.1-0.2-0.2-0.4-0.4-0.5s-0.3-0.3-0.6-0.3c-0.2-0.1-0.4-0.1-0.7-0.1 -0.3 0-0.6 0.1-0.8 0.2 -0.2 0.1-0.4 0.3-0.6 0.5 -0.1 0.2-0.3 0.5-0.3 0.7 -0.1 0.3-0.1 0.5-0.1 0.8h-1.1C-1346.2 475.5-1346.2 475.1-1346.1 474.7zM-1336.6 476.7c0 0 0.1 0 0.1 0h0.2c0.2 0 0.5 0 0.7-0.1 0.2-0.1 0.4-0.2 0.6-0.3 0.2-0.1 0.3-0.3 0.4-0.5 0.1-0.2 0.1-0.4 0.1-0.6 0-0.5-0.2-0.9-0.5-1.1 -0.3-0.2-0.7-0.4-1.2-0.4 -0.3 0-0.6 0.1-0.8 0.2 -0.2 0.1-0.4 0.3-0.5 0.4 -0.1 0.2-0.2 0.4-0.3 0.6 -0.1 0.2-0.1 0.5-0.1 0.8h-1.1c0-0.4 0.1-0.8 0.2-1.2 0.1-0.4 0.3-0.7 0.5-0.9s0.5-0.5 0.9-0.6c0.4-0.1 0.8-0.2 1.2-0.2 0.4 0 0.8 0 1.1 0.1 0.3 0.1 0.6 0.2 0.9 0.4 0.2 0.2 0.4 0.5 0.6 0.8 0.1 0.3 0.2 0.7 0.2 1.1 0 0.4-0.1 0.8-0.4 1.1 -0.2 0.3-0.5 0.6-0.9 0.7v0c0.6 0.1 1 0.4 1.3 0.8 0.3 0.4 0.4 0.9 0.4 1.4 0 0.5-0.1 0.9-0.3 1.2 -0.2 0.4-0.4 0.6-0.7 0.9 -0.3 0.2-0.6 0.4-1 0.5s-0.8 0.2-1.2 0.2c-0.5 0-0.9-0.1-1.3-0.2 -0.4-0.1-0.7-0.3-1-0.6 -0.3-0.3-0.5-0.6-0.6-0.9 -0.1-0.4-0.2-0.8-0.2-1.3h1.1c0 0.6 0.2 1.1 0.5 1.5 0.3 0.4 0.8 0.6 1.4 0.6 0.3 0 0.5 0 0.8-0.1 0.2-0.1 0.5-0.2 0.6-0.4 0.2-0.2 0.3-0.3 0.4-0.6 0.1-0.2 0.2-0.5 0.2-0.7 0-0.3-0.1-0.5-0.2-0.8 -0.1-0.2-0.2-0.4-0.4-0.6 -0.2-0.2-0.4-0.3-0.6-0.3 -0.2-0.1-0.5-0.1-0.8-0.1 -0.2 0-0.5 0-0.7 0v-0.9C-1336.7 476.7-1336.6 476.7-1336.6 476.7z"/></g></g></g></g></g></g></svg>