<?xml version="1.0" encoding="UTF-8" standalone="no"?>
<svg width="201px" height="164px" viewBox="0 0 201 164" version="1.1" xmlns="http://www.w3.org/2000/svg" xmlns:xlink="http://www.w3.org/1999/xlink" xmlns:sketch="http://www.bohemiancoding.com/sketch/ns">
    <!-- Generator: Sketch 3.3.2 (12043) - http://www.bohemiancoding.com/sketch -->
    <title>Self-Service_Title</title>
    <desc>Created with Sketch.</desc>
    <defs></defs>
    <g id="PAA" stroke="none" stroke-width="1" fill="none" fill-rule="evenodd" sketch:type="MSPage">
        <g id="Desktop-HD-Motors-PAA-10" sketch:type="MSArtboardGroup" transform="translate(-205.000000, -1146.000000)" fill="#313133">
            <g id="DPAA-banner-Copy" sketch:type="MSLayerGroup" transform="translate(171.000000, 1119.000000)">
                <g id="Self-Service_Title" transform="translate(10.000000, 27.000000)" sketch:type="MSShapeGroup">
                    <path d="M24.9367089,118.690163 C24.9367089,119.397891 25.3586498,119.88656 26.2025316,119.88656 C26.9620253,119.88656 27.4008439,119.347339 27.4008439,118.673312 C27.4008439,117.965585 26.9451477,117.476916 26.1350211,117.476916 C25.3924051,117.476916 24.9367089,117.999286 24.9367089,118.690163 L24.9367089,118.690163 Z M30.8607595,118.690163 C30.8607595,119.397891 31.2827004,119.88656 32.1265823,119.88656 C32.8860759,119.88656 33.3248945,119.347339 33.3248945,118.673312 C33.3248945,117.965585 32.8691983,117.476916 32.0590717,117.476916 C31.3164557,117.476916 30.8607595,117.999286 30.8607595,118.690163 L30.8607595,118.690163 Z M36.7848101,118.690163 C36.7848101,119.397891 37.2067511,119.88656 38.0506329,119.88656 C38.8101266,119.88656 39.2489451,119.347339 39.2489451,118.673312 C39.2489451,117.965585 38.7932489,117.476916 37.9831224,117.476916 C37.2405063,117.476916 36.7848101,117.999286 36.7848101,118.690163 L36.7848101,118.690163 Z M42.7088608,118.690163 C42.7088608,119.397891 43.1308017,119.88656 43.9746835,119.88656 C44.7341772,119.88656 45.1729958,119.347339 45.1729958,118.673312 C45.1729958,117.965585 44.7172996,117.476916 43.907173,117.476916 C43.164557,117.476916 42.7088608,117.999286 42.7088608,118.690163 L42.7088608,118.690163 Z M48.6329114,118.690163 C48.6329114,119.397891 49.0548523,119.88656 49.8987342,119.88656 C50.6582278,119.88656 51.0970464,119.347339 51.0970464,118.673312 C51.0970464,117.965585 50.6413502,117.476916 49.8312236,117.476916 C49.0886076,117.476916 48.6329114,117.999286 48.6329114,118.690163 L48.6329114,118.690163 Z M54.556962,118.690163 C54.556962,119.397891 54.978903,119.88656 55.8227848,119.88656 C56.5822785,119.88656 57.021097,119.347339 57.021097,118.673312 C57.021097,117.965585 56.5654008,117.476916 55.7552743,117.476916 C55.0126582,117.476916 54.556962,117.999286 54.556962,118.690163 L54.556962,118.690163 Z M60.4810127,118.690163 C60.4810127,119.397891 60.9029536,119.88656 61.7468354,119.88656 C62.5063291,119.88656 62.9451477,119.347339 62.9451477,118.673312 C62.9451477,117.965585 62.4894515,117.476916 61.6793249,117.476916 C60.9367089,117.476916 60.4810127,117.999286 60.4810127,118.690163 L60.4810127,118.690163 Z M66.4050633,118.690163 C66.4050633,119.397891 66.8270042,119.88656 67.6708861,119.88656 C68.4303797,119.88656 68.8691983,119.347339 68.8691983,118.673312 C68.8691983,117.965585 68.4135021,117.476916 67.6033755,117.476916 C66.8607595,117.476916 66.4050633,117.999286 66.4050633,118.690163 L66.4050633,118.690163 Z M72.3291139,118.690163 C72.3291139,119.397891 72.7510549,119.88656 73.5949367,119.88656 C74.3544304,119.88656 74.7932489,119.347339 74.7932489,118.673312 C74.7932489,117.965585 74.3375527,117.476916 73.5274262,117.476916 C72.7848101,117.476916 72.3291139,117.999286 72.3291139,118.690163 L72.3291139,118.690163 Z M78.2531646,118.690163 C78.2531646,119.397891 78.6751055,119.88656 79.5189873,119.88656 C80.278481,119.88656 80.7172996,119.347339 80.7172996,118.673312 C80.7172996,117.965585 80.2616034,117.476916 79.4514768,117.476916 C78.7088608,117.476916 78.2531646,117.999286 78.2531646,118.690163 L78.2531646,118.690163 Z M84.1772152,118.690163 C84.1772152,119.397891 84.5991561,119.88656 85.443038,119.88656 C86.2025316,119.88656 86.6413502,119.347339 86.6413502,118.673312 C86.6413502,117.965585 86.185654,117.476916 85.3755274,117.476916 C84.6329114,117.476916 84.1772152,117.999286 84.1772152,118.690163 L84.1772152,118.690163 Z M90.1012658,118.690163 C90.1012658,119.397891 90.5232068,119.88656 91.3670886,119.88656 C92.1265823,119.88656 92.5654008,119.347339 92.5654008,118.673312 C92.5654008,117.965585 92.1097046,117.476916 91.2995781,117.476916 C90.556962,117.476916 90.1012658,117.999286 90.1012658,118.690163 L90.1012658,118.690163 Z M96.0253165,118.690163 C96.0253165,119.397891 96.4472574,119.88656 97.2911392,119.88656 C98.0506329,119.88656 98.4894515,119.347339 98.4894515,118.673312 C98.4894515,117.965585 98.0337553,117.476916 97.2236287,117.476916 C96.4810127,117.476916 96.0253165,117.999286 96.0253165,118.690163 L96.0253165,118.690163 Z M101.949367,118.690163 C101.949367,119.397891 102.371308,119.88656 103.21519,119.88656 C103.974684,119.88656 104.413502,119.347339 104.413502,118.673312 C104.413502,117.965585 103.957806,117.476916 103.147679,117.476916 C102.405063,117.476916 101.949367,117.999286 101.949367,118.690163 L101.949367,118.690163 Z M107.873418,118.690163 C107.873418,119.397891 108.295359,119.88656 109.139241,119.88656 C109.898734,119.88656 110.337553,119.347339 110.337553,118.673312 C110.337553,117.965585 109.881857,117.476916 109.07173,117.476916 C108.329114,117.476916 107.873418,117.999286 107.873418,118.690163 L107.873418,118.690163 Z M113.797468,118.690163 C113.797468,119.397891 114.219409,119.88656 115.063291,119.88656 C115.822785,119.88656 116.261603,119.347339 116.261603,118.673312 C116.261603,117.965585 115.805907,117.476916 114.995781,117.476916 C114.253165,117.476916 113.797468,117.999286 113.797468,118.690163 L113.797468,118.690163 Z M119.721519,118.690163 C119.721519,119.397891 120.14346,119.88656 120.987342,119.88656 C121.746835,119.88656 122.185654,119.347339 122.185654,118.673312 C122.185654,117.965585 121.729958,117.476916 120.919831,117.476916 C120.177215,117.476916 119.721519,117.999286 119.721519,118.690163 L119.721519,118.690163 Z M125.64557,118.690163 C125.64557,119.397891 126.067511,119.88656 126.911392,119.88656 C127.670886,119.88656 128.109705,119.347339 128.109705,118.673312 C128.109705,117.965585 127.654008,117.476916 126.843882,117.476916 C126.101266,117.476916 125.64557,117.999286 125.64557,118.690163 L125.64557,118.690163 Z M131.56962,118.690163 C131.56962,119.397891 131.991561,119.88656 132.835443,119.88656 C133.594937,119.88656 134.033755,119.347339 134.033755,118.673312 C134.033755,117.965585 133.578059,117.476916 132.767932,117.476916 C132.025316,117.476916 131.56962,117.999286 131.56962,118.690163 L131.56962,118.690163 Z M137.493671,118.690163 C137.493671,119.397891 137.915612,119.88656 138.759494,119.88656 C139.518987,119.88656 139.957806,119.347339 139.957806,118.673312 C139.957806,117.965585 139.50211,117.476916 138.691983,117.476916 C137.949367,117.476916 137.493671,117.999286 137.493671,118.690163 L137.493671,118.690163 Z M141.308017,118.690163 C141.308017,119.397891 141.729958,119.88656 142.57384,119.88656 C143.333333,119.88656 143.772152,119.347339 143.772152,118.673312 C143.772152,117.965585 143.316456,117.476916 142.506329,117.476916 C141.763713,117.476916 141.308017,117.999286 141.308017,118.690163 L141.308017,118.690163 Z M147.232068,118.690163 C147.232068,119.397891 147.654008,119.88656 148.49789,119.88656 C149.257384,119.88656 149.696203,119.347339 149.696203,118.673312 C149.696203,117.965585 149.240506,117.476916 148.43038,117.476916 C147.687764,117.476916 147.232068,117.999286 147.232068,118.690163 L147.232068,118.690163 Z M153.156118,118.690163 C153.156118,119.397891 153.578059,119.88656 154.421941,119.88656 C155.181435,119.88656 155.620253,119.347339 155.620253,118.673312 C155.620253,117.965585 155.164557,117.476916 154.35443,117.476916 C153.611814,117.476916 153.156118,117.999286 153.156118,118.690163 L153.156118,118.690163 Z M159.080169,118.690163 C159.080169,119.397891 159.50211,119.88656 160.345992,119.88656 C161.105485,119.88656 161.544304,119.347339 161.544304,118.673312 C161.544304,117.965585 161.088608,117.476916 160.278481,117.476916 C159.535865,117.476916 159.080169,117.999286 159.080169,118.690163 L159.080169,118.690163 Z M165.004219,118.690163 C165.004219,119.397891 165.42616,119.88656 166.270042,119.88656 C167.029536,119.88656 167.468354,119.347339 167.468354,118.673312 C167.468354,117.965585 167.012658,117.476916 166.202532,117.476916 C165.459916,117.476916 165.004219,117.999286 165.004219,118.690163 L165.004219,118.690163 Z M170.92827,118.690163 C170.92827,119.397891 171.350211,119.88656 172.194093,119.88656 C172.953586,119.88656 173.392405,119.347339 173.392405,118.673312 C173.392405,117.965585 172.936709,117.476916 172.126582,117.476916 C171.383966,117.476916 170.92827,117.999286 170.92827,118.690163 L170.92827,118.690163 Z M176.852321,118.690163 C176.852321,119.397891 177.274262,119.88656 178.118143,119.88656 C178.877637,119.88656 179.316456,119.347339 179.316456,118.673312 C179.316456,117.965585 178.860759,117.476916 178.050633,117.476916 C177.308017,117.476916 176.852321,117.999286 176.852321,118.690163 L176.852321,118.690163 Z M182.776371,118.690163 C182.776371,119.397891 183.198312,119.88656 184.042194,119.88656 C184.801688,119.88656 185.240506,119.347339 185.240506,118.673312 C185.240506,117.965585 184.78481,117.476916 183.974684,117.476916 C183.232068,117.476916 182.776371,117.999286 182.776371,118.690163 L182.776371,118.690163 Z M188.700422,118.690163 C188.700422,119.397891 189.122363,119.88656 189.966245,119.88656 C190.725738,119.88656 191.164557,119.347339 191.164557,118.673312 C191.164557,117.965585 190.708861,117.476916 189.898734,117.476916 C189.156118,117.476916 188.700422,117.999286 188.700422,118.690163 L188.700422,118.690163 Z M194.624473,118.690163 C194.624473,119.397891 195.046414,119.88656 195.890295,119.88656 C196.649789,119.88656 197.088608,119.347339 197.088608,118.673312 C197.088608,117.965585 196.632911,117.476916 195.822785,117.476916 C195.080169,117.476916 194.624473,117.999286 194.624473,118.690163 L194.624473,118.690163 Z M200.548523,118.690163 C200.548523,119.397891 200.970464,119.88656 201.814346,119.88656 C202.57384,119.88656 203.012658,119.347339 203.012658,118.673312 C203.012658,117.965585 202.556962,117.476916 201.746835,117.476916 C201.004219,117.476916 200.548523,117.999286 200.548523,118.690163 L200.548523,118.690163 Z M206.472574,118.690163 C206.472574,119.397891 206.894515,119.88656 207.738397,119.88656 C208.49789,119.88656 208.936709,119.347339 208.936709,118.673312 C208.936709,117.965585 208.481013,117.476916 207.670886,117.476916 C206.92827,117.476916 206.472574,117.999286 206.472574,118.690163 L206.472574,118.690163 Z M212.396624,118.690163 C212.396624,119.397891 212.818565,119.88656 213.662447,119.88656 C214.421941,119.88656 214.860759,119.347339 214.860759,118.673312 C214.860759,117.965585 214.405063,117.476916 213.594937,117.476916 C212.852321,117.476916 212.396624,117.999286 212.396624,118.690163 L212.396624,118.690163 Z M218.320675,118.690163 C218.320675,119.397891 218.742616,119.88656 219.586498,119.88656 C220.345992,119.88656 220.78481,119.347339 220.78481,118.673312 C220.78481,117.965585 220.329114,117.476916 219.518987,117.476916 C218.776371,117.476916 218.320675,117.999286 218.320675,118.690163 L218.320675,118.690163 Z" id="...................."></path>
                    <path d="M24.9367089,162.776185 C24.9367089,163.483912 25.3586498,163.972581 26.2025316,163.972581 C26.9620253,163.972581 27.4008439,163.43336 27.4008439,162.759334 C27.4008439,162.051606 26.9451477,161.562937 26.1350211,161.562937 C25.3924051,161.562937 24.9367089,162.085308 24.9367089,162.776185 L24.9367089,162.776185 Z M30.8607595,162.776185 C30.8607595,163.483912 31.2827004,163.972581 32.1265823,163.972581 C32.8860759,163.972581 33.3248945,163.43336 33.3248945,162.759334 C33.3248945,162.051606 32.8691983,161.562937 32.0590717,161.562937 C31.3164557,161.562937 30.8607595,162.085308 30.8607595,162.776185 L30.8607595,162.776185 Z M36.7848101,162.776185 C36.7848101,163.483912 37.2067511,163.972581 38.0506329,163.972581 C38.8101266,163.972581 39.2489451,163.43336 39.2489451,162.759334 C39.2489451,162.051606 38.7932489,161.562937 37.9831224,161.562937 C37.2405063,161.562937 36.7848101,162.085308 36.7848101,162.776185 L36.7848101,162.776185 Z M42.7088608,162.776185 C42.7088608,163.483912 43.1308017,163.972581 43.9746835,163.972581 C44.7341772,163.972581 45.1729958,163.43336 45.1729958,162.759334 C45.1729958,162.051606 44.7172996,161.562937 43.907173,161.562937 C43.164557,161.562937 42.7088608,162.085308 42.7088608,162.776185 L42.7088608,162.776185 Z M48.6329114,162.776185 C48.6329114,163.483912 49.0548523,163.972581 49.8987342,163.972581 C50.6582278,163.972581 51.0970464,163.43336 51.0970464,162.759334 C51.0970464,162.051606 50.6413502,161.562937 49.8312236,161.562937 C49.0886076,161.562937 48.6329114,162.085308 48.6329114,162.776185 L48.6329114,162.776185 Z M54.556962,162.776185 C54.556962,163.483912 54.978903,163.972581 55.8227848,163.972581 C56.5822785,163.972581 57.021097,163.43336 57.021097,162.759334 C57.021097,162.051606 56.5654008,161.562937 55.7552743,161.562937 C55.0126582,161.562937 54.556962,162.085308 54.556962,162.776185 L54.556962,162.776185 Z M60.4810127,162.776185 C60.4810127,163.483912 60.9029536,163.972581 61.7468354,163.972581 C62.5063291,163.972581 62.9451477,163.43336 62.9451477,162.759334 C62.9451477,162.051606 62.4894515,161.562937 61.6793249,161.562937 C60.9367089,161.562937 60.4810127,162.085308 60.4810127,162.776185 L60.4810127,162.776185 Z M66.4050633,162.776185 C66.4050633,163.483912 66.8270042,163.972581 67.6708861,163.972581 C68.4303797,163.972581 68.8691983,163.43336 68.8691983,162.759334 C68.8691983,162.051606 68.4135021,161.562937 67.6033755,161.562937 C66.8607595,161.562937 66.4050633,162.085308 66.4050633,162.776185 L66.4050633,162.776185 Z M72.3291139,162.776185 C72.3291139,163.483912 72.7510549,163.972581 73.5949367,163.972581 C74.3544304,163.972581 74.7932489,163.43336 74.7932489,162.759334 C74.7932489,162.051606 74.3375527,161.562937 73.5274262,161.562937 C72.7848101,161.562937 72.3291139,162.085308 72.3291139,162.776185 L72.3291139,162.776185 Z M78.2531646,162.776185 C78.2531646,163.483912 78.6751055,163.972581 79.5189873,163.972581 C80.278481,163.972581 80.7172996,163.43336 80.7172996,162.759334 C80.7172996,162.051606 80.2616034,161.562937 79.4514768,161.562937 C78.7088608,161.562937 78.2531646,162.085308 78.2531646,162.776185 L78.2531646,162.776185 Z M84.1772152,162.776185 C84.1772152,163.483912 84.5991561,163.972581 85.443038,163.972581 C86.2025316,163.972581 86.6413502,163.43336 86.6413502,162.759334 C86.6413502,162.051606 86.185654,161.562937 85.3755274,161.562937 C84.6329114,161.562937 84.1772152,162.085308 84.1772152,162.776185 L84.1772152,162.776185 Z M90.1012658,162.776185 C90.1012658,163.483912 90.5232068,163.972581 91.3670886,163.972581 C92.1265823,163.972581 92.5654008,163.43336 92.5654008,162.759334 C92.5654008,162.051606 92.1097046,161.562937 91.2995781,161.562937 C90.556962,161.562937 90.1012658,162.085308 90.1012658,162.776185 L90.1012658,162.776185 Z M96.0253165,162.776185 C96.0253165,163.483912 96.4472574,163.972581 97.2911392,163.972581 C98.0506329,163.972581 98.4894515,163.43336 98.4894515,162.759334 C98.4894515,162.051606 98.0337553,161.562937 97.2236287,161.562937 C96.4810127,161.562937 96.0253165,162.085308 96.0253165,162.776185 L96.0253165,162.776185 Z M101.949367,162.776185 C101.949367,163.483912 102.371308,163.972581 103.21519,163.972581 C103.974684,163.972581 104.413502,163.43336 104.413502,162.759334 C104.413502,162.051606 103.957806,161.562937 103.147679,161.562937 C102.405063,161.562937 101.949367,162.085308 101.949367,162.776185 L101.949367,162.776185 Z M107.873418,162.776185 C107.873418,163.483912 108.295359,163.972581 109.139241,163.972581 C109.898734,163.972581 110.337553,163.43336 110.337553,162.759334 C110.337553,162.051606 109.881857,161.562937 109.07173,161.562937 C108.329114,161.562937 107.873418,162.085308 107.873418,162.776185 L107.873418,162.776185 Z M113.797468,162.776185 C113.797468,163.483912 114.219409,163.972581 115.063291,163.972581 C115.822785,163.972581 116.261603,163.43336 116.261603,162.759334 C116.261603,162.051606 115.805907,161.562937 114.995781,161.562937 C114.253165,161.562937 113.797468,162.085308 113.797468,162.776185 L113.797468,162.776185 Z M119.721519,162.776185 C119.721519,163.483912 120.14346,163.972581 120.987342,163.972581 C121.746835,163.972581 122.185654,163.43336 122.185654,162.759334 C122.185654,162.051606 121.729958,161.562937 120.919831,161.562937 C120.177215,161.562937 119.721519,162.085308 119.721519,162.776185 L119.721519,162.776185 Z M125.64557,162.776185 C125.64557,163.483912 126.067511,163.972581 126.911392,163.972581 C127.670886,163.972581 128.109705,163.43336 128.109705,162.759334 C128.109705,162.051606 127.654008,161.562937 126.843882,161.562937 C126.101266,161.562937 125.64557,162.085308 125.64557,162.776185 L125.64557,162.776185 Z M131.56962,162.776185 C131.56962,163.483912 131.991561,163.972581 132.835443,163.972581 C133.594937,163.972581 134.033755,163.43336 134.033755,162.759334 C134.033755,162.051606 133.578059,161.562937 132.767932,161.562937 C132.025316,161.562937 131.56962,162.085308 131.56962,162.776185 L131.56962,162.776185 Z M137.493671,162.776185 C137.493671,163.483912 137.915612,163.972581 138.759494,163.972581 C139.518987,163.972581 139.957806,163.43336 139.957806,162.759334 C139.957806,162.051606 139.50211,161.562937 138.691983,161.562937 C137.949367,161.562937 137.493671,162.085308 137.493671,162.776185 L137.493671,162.776185 Z M141.308017,162.776185 C141.308017,163.483912 141.729958,163.972581 142.57384,163.972581 C143.333333,163.972581 143.772152,163.43336 143.772152,162.759334 C143.772152,162.051606 143.316456,161.562937 142.506329,161.562937 C141.763713,161.562937 141.308017,162.085308 141.308017,162.776185 L141.308017,162.776185 Z M147.232068,162.776185 C147.232068,163.483912 147.654008,163.972581 148.49789,163.972581 C149.257384,163.972581 149.696203,163.43336 149.696203,162.759334 C149.696203,162.051606 149.240506,161.562937 148.43038,161.562937 C147.687764,161.562937 147.232068,162.085308 147.232068,162.776185 L147.232068,162.776185 Z M153.156118,162.776185 C153.156118,163.483912 153.578059,163.972581 154.421941,163.972581 C155.181435,163.972581 155.620253,163.43336 155.620253,162.759334 C155.620253,162.051606 155.164557,161.562937 154.35443,161.562937 C153.611814,161.562937 153.156118,162.085308 153.156118,162.776185 L153.156118,162.776185 Z M159.080169,162.776185 C159.080169,163.483912 159.50211,163.972581 160.345992,163.972581 C161.105485,163.972581 161.544304,163.43336 161.544304,162.759334 C161.544304,162.051606 161.088608,161.562937 160.278481,161.562937 C159.535865,161.562937 159.080169,162.085308 159.080169,162.776185 L159.080169,162.776185 Z M165.004219,162.776185 C165.004219,163.483912 165.42616,163.972581 166.270042,163.972581 C167.029536,163.972581 167.468354,163.43336 167.468354,162.759334 C167.468354,162.051606 167.012658,161.562937 166.202532,161.562937 C165.459916,161.562937 165.004219,162.085308 165.004219,162.776185 L165.004219,162.776185 Z M170.92827,162.776185 C170.92827,163.483912 171.350211,163.972581 172.194093,163.972581 C172.953586,163.972581 173.392405,163.43336 173.392405,162.759334 C173.392405,162.051606 172.936709,161.562937 172.126582,161.562937 C171.383966,161.562937 170.92827,162.085308 170.92827,162.776185 L170.92827,162.776185 Z M176.852321,162.776185 C176.852321,163.483912 177.274262,163.972581 178.118143,163.972581 C178.877637,163.972581 179.316456,163.43336 179.316456,162.759334 C179.316456,162.051606 178.860759,161.562937 178.050633,161.562937 C177.308017,161.562937 176.852321,162.085308 176.852321,162.776185 L176.852321,162.776185 Z M182.776371,162.776185 C182.776371,163.483912 183.198312,163.972581 184.042194,163.972581 C184.801688,163.972581 185.240506,163.43336 185.240506,162.759334 C185.240506,162.051606 184.78481,161.562937 183.974684,161.562937 C183.232068,161.562937 182.776371,162.085308 182.776371,162.776185 L182.776371,162.776185 Z M188.700422,162.776185 C188.700422,163.483912 189.122363,163.972581 189.966245,163.972581 C190.725738,163.972581 191.164557,163.43336 191.164557,162.759334 C191.164557,162.051606 190.708861,161.562937 189.898734,161.562937 C189.156118,161.562937 188.700422,162.085308 188.700422,162.776185 L188.700422,162.776185 Z M194.624473,162.776185 C194.624473,163.483912 195.046414,163.972581 195.890295,163.972581 C196.649789,163.972581 197.088608,163.43336 197.088608,162.759334 C197.088608,162.051606 196.632911,161.562937 195.822785,161.562937 C195.080169,161.562937 194.624473,162.085308 194.624473,162.776185 L194.624473,162.776185 Z M200.548523,162.776185 C200.548523,163.483912 200.970464,163.972581 201.814346,163.972581 C202.57384,163.972581 203.012658,163.43336 203.012658,162.759334 C203.012658,162.051606 202.556962,161.562937 201.746835,161.562937 C201.004219,161.562937 200.548523,162.085308 200.548523,162.776185 L200.548523,162.776185 Z M206.472574,162.776185 C206.472574,163.483912 206.894515,163.972581 207.738397,163.972581 C208.49789,163.972581 208.936709,163.43336 208.936709,162.759334 C208.936709,162.051606 208.481013,161.562937 207.670886,161.562937 C206.92827,161.562937 206.472574,162.085308 206.472574,162.776185 L206.472574,162.776185 Z M212.396624,162.776185 C212.396624,163.483912 212.818565,163.972581 213.662447,163.972581 C214.421941,163.972581 214.860759,163.43336 214.860759,162.759334 C214.860759,162.051606 214.405063,161.562937 213.594937,161.562937 C212.852321,161.562937 212.396624,162.085308 212.396624,162.776185 L212.396624,162.776185 Z M218.320675,162.776185 C218.320675,163.483912 218.742616,163.972581 219.586498,163.972581 C220.345992,163.972581 220.78481,163.43336 220.78481,162.759334 C220.78481,162.051606 220.329114,161.562937 219.518987,161.562937 C218.776371,161.562937 218.320675,162.085308 218.320675,162.776185 L218.320675,162.776185 Z" id="....................-copy-2"></path>
                    <path d="M24.9367089,56.4661601 C24.9367089,57.1738877 25.3586498,57.6625568 26.2025316,57.6625568 C26.9620253,57.6625568 27.4008439,57.1233357 27.4008439,56.4493094 C27.4008439,55.7415818 26.9451477,55.2529128 26.1350211,55.2529128 C25.3924051,55.2529128 24.9367089,55.7752832 24.9367089,56.4661601 L24.9367089,56.4661601 Z M30.8607595,56.4661601 C30.8607595,57.1738877 31.2827004,57.6625568 32.1265823,57.6625568 C32.8860759,57.6625568 33.3248945,57.1233357 33.3248945,56.4493094 C33.3248945,55.7415818 32.8691983,55.2529128 32.0590717,55.2529128 C31.3164557,55.2529128 30.8607595,55.7752832 30.8607595,56.4661601 L30.8607595,56.4661601 Z M36.7848101,56.4661601 C36.7848101,57.1738877 37.2067511,57.6625568 38.0506329,57.6625568 C38.8101266,57.6625568 39.2489451,57.1233357 39.2489451,56.4493094 C39.2489451,55.7415818 38.7932489,55.2529128 37.9831224,55.2529128 C37.2405063,55.2529128 36.7848101,55.7752832 36.7848101,56.4661601 L36.7848101,56.4661601 Z M42.7088608,56.4661601 C42.7088608,57.1738877 43.1308017,57.6625568 43.9746835,57.6625568 C44.7341772,57.6625568 45.1729958,57.1233357 45.1729958,56.4493094 C45.1729958,55.7415818 44.7172996,55.2529128 43.907173,55.2529128 C43.164557,55.2529128 42.7088608,55.7752832 42.7088608,56.4661601 L42.7088608,56.4661601 Z M48.6329114,56.4661601 C48.6329114,57.1738877 49.0548523,57.6625568 49.8987342,57.6625568 C50.6582278,57.6625568 51.0970464,57.1233357 51.0970464,56.4493094 C51.0970464,55.7415818 50.6413502,55.2529128 49.8312236,55.2529128 C49.0886076,55.2529128 48.6329114,55.7752832 48.6329114,56.4661601 L48.6329114,56.4661601 Z M54.556962,56.4661601 C54.556962,57.1738877 54.978903,57.6625568 55.8227848,57.6625568 C56.5822785,57.6625568 57.021097,57.1233357 57.021097,56.4493094 C57.021097,55.7415818 56.5654008,55.2529128 55.7552743,55.2529128 C55.0126582,55.2529128 54.556962,55.7752832 54.556962,56.4661601 L54.556962,56.4661601 Z M60.4810127,56.4661601 C60.4810127,57.1738877 60.9029536,57.6625568 61.7468354,57.6625568 C62.5063291,57.6625568 62.9451477,57.1233357 62.9451477,56.4493094 C62.9451477,55.7415818 62.4894515,55.2529128 61.6793249,55.2529128 C60.9367089,55.2529128 60.4810127,55.7752832 60.4810127,56.4661601 L60.4810127,56.4661601 Z M66.4050633,56.4661601 C66.4050633,57.1738877 66.8270042,57.6625568 67.6708861,57.6625568 C68.4303797,57.6625568 68.8691983,57.1233357 68.8691983,56.4493094 C68.8691983,55.7415818 68.4135021,55.2529128 67.6033755,55.2529128 C66.8607595,55.2529128 66.4050633,55.7752832 66.4050633,56.4661601 L66.4050633,56.4661601 Z M72.3291139,56.4661601 C72.3291139,57.1738877 72.7510549,57.6625568 73.5949367,57.6625568 C74.3544304,57.6625568 74.7932489,57.1233357 74.7932489,56.4493094 C74.7932489,55.7415818 74.3375527,55.2529128 73.5274262,55.2529128 C72.7848101,55.2529128 72.3291139,55.7752832 72.3291139,56.4661601 L72.3291139,56.4661601 Z M78.2531646,56.4661601 C78.2531646,57.1738877 78.6751055,57.6625568 79.5189873,57.6625568 C80.278481,57.6625568 80.7172996,57.1233357 80.7172996,56.4493094 C80.7172996,55.7415818 80.2616034,55.2529128 79.4514768,55.2529128 C78.7088608,55.2529128 78.2531646,55.7752832 78.2531646,56.4661601 L78.2531646,56.4661601 Z M84.1772152,56.4661601 C84.1772152,57.1738877 84.5991561,57.6625568 85.443038,57.6625568 C86.2025316,57.6625568 86.6413502,57.1233357 86.6413502,56.4493094 C86.6413502,55.7415818 86.185654,55.2529128 85.3755274,55.2529128 C84.6329114,55.2529128 84.1772152,55.7752832 84.1772152,56.4661601 L84.1772152,56.4661601 Z M90.1012658,56.4661601 C90.1012658,57.1738877 90.5232068,57.6625568 91.3670886,57.6625568 C92.1265823,57.6625568 92.5654008,57.1233357 92.5654008,56.4493094 C92.5654008,55.7415818 92.1097046,55.2529128 91.2995781,55.2529128 C90.556962,55.2529128 90.1012658,55.7752832 90.1012658,56.4661601 L90.1012658,56.4661601 Z M96.0253165,56.4661601 C96.0253165,57.1738877 96.4472574,57.6625568 97.2911392,57.6625568 C98.0506329,57.6625568 98.4894515,57.1233357 98.4894515,56.4493094 C98.4894515,55.7415818 98.0337553,55.2529128 97.2236287,55.2529128 C96.4810127,55.2529128 96.0253165,55.7752832 96.0253165,56.4661601 L96.0253165,56.4661601 Z M101.949367,56.4661601 C101.949367,57.1738877 102.371308,57.6625568 103.21519,57.6625568 C103.974684,57.6625568 104.413502,57.1233357 104.413502,56.4493094 C104.413502,55.7415818 103.957806,55.2529128 103.147679,55.2529128 C102.405063,55.2529128 101.949367,55.7752832 101.949367,56.4661601 L101.949367,56.4661601 Z M107.873418,56.4661601 C107.873418,57.1738877 108.295359,57.6625568 109.139241,57.6625568 C109.898734,57.6625568 110.337553,57.1233357 110.337553,56.4493094 C110.337553,55.7415818 109.881857,55.2529128 109.07173,55.2529128 C108.329114,55.2529128 107.873418,55.7752832 107.873418,56.4661601 L107.873418,56.4661601 Z M113.797468,56.4661601 C113.797468,57.1738877 114.219409,57.6625568 115.063291,57.6625568 C115.822785,57.6625568 116.261603,57.1233357 116.261603,56.4493094 C116.261603,55.7415818 115.805907,55.2529128 114.995781,55.2529128 C114.253165,55.2529128 113.797468,55.7752832 113.797468,56.4661601 L113.797468,56.4661601 Z M119.721519,56.4661601 C119.721519,57.1738877 120.14346,57.6625568 120.987342,57.6625568 C121.746835,57.6625568 122.185654,57.1233357 122.185654,56.4493094 C122.185654,55.7415818 121.729958,55.2529128 120.919831,55.2529128 C120.177215,55.2529128 119.721519,55.7752832 119.721519,56.4661601 L119.721519,56.4661601 Z M125.64557,56.4661601 C125.64557,57.1738877 126.067511,57.6625568 126.911392,57.6625568 C127.670886,57.6625568 128.109705,57.1233357 128.109705,56.4493094 C128.109705,55.7415818 127.654008,55.2529128 126.843882,55.2529128 C126.101266,55.2529128 125.64557,55.7752832 125.64557,56.4661601 L125.64557,56.4661601 Z M131.56962,56.4661601 C131.56962,57.1738877 131.991561,57.6625568 132.835443,57.6625568 C133.594937,57.6625568 134.033755,57.1233357 134.033755,56.4493094 C134.033755,55.7415818 133.578059,55.2529128 132.767932,55.2529128 C132.025316,55.2529128 131.56962,55.7752832 131.56962,56.4661601 L131.56962,56.4661601 Z M137.493671,56.4661601 C137.493671,57.1738877 137.915612,57.6625568 138.759494,57.6625568 C139.518987,57.6625568 139.957806,57.1233357 139.957806,56.4493094 C139.957806,55.7415818 139.50211,55.2529128 138.691983,55.2529128 C137.949367,55.2529128 137.493671,55.7752832 137.493671,56.4661601 L137.493671,56.4661601 Z M141.308017,56.4661601 C141.308017,57.1738877 141.729958,57.6625568 142.57384,57.6625568 C143.333333,57.6625568 143.772152,57.1233357 143.772152,56.4493094 C143.772152,55.7415818 143.316456,55.2529128 142.506329,55.2529128 C141.763713,55.2529128 141.308017,55.7752832 141.308017,56.4661601 L141.308017,56.4661601 Z M147.232068,56.4661601 C147.232068,57.1738877 147.654008,57.6625568 148.49789,57.6625568 C149.257384,57.6625568 149.696203,57.1233357 149.696203,56.4493094 C149.696203,55.7415818 149.240506,55.2529128 148.43038,55.2529128 C147.687764,55.2529128 147.232068,55.7752832 147.232068,56.4661601 L147.232068,56.4661601 Z M153.156118,56.4661601 C153.156118,57.1738877 153.578059,57.6625568 154.421941,57.6625568 C155.181435,57.6625568 155.620253,57.1233357 155.620253,56.4493094 C155.620253,55.7415818 155.164557,55.2529128 154.35443,55.2529128 C153.611814,55.2529128 153.156118,55.7752832 153.156118,56.4661601 L153.156118,56.4661601 Z M159.080169,56.4661601 C159.080169,57.1738877 159.50211,57.6625568 160.345992,57.6625568 C161.105485,57.6625568 161.544304,57.1233357 161.544304,56.4493094 C161.544304,55.7415818 161.088608,55.2529128 160.278481,55.2529128 C159.535865,55.2529128 159.080169,55.7752832 159.080169,56.4661601 L159.080169,56.4661601 Z M165.004219,56.4661601 C165.004219,57.1738877 165.42616,57.6625568 166.270042,57.6625568 C167.029536,57.6625568 167.468354,57.1233357 167.468354,56.4493094 C167.468354,55.7415818 167.012658,55.2529128 166.202532,55.2529128 C165.459916,55.2529128 165.004219,55.7752832 165.004219,56.4661601 L165.004219,56.4661601 Z M170.92827,56.4661601 C170.92827,57.1738877 171.350211,57.6625568 172.194093,57.6625568 C172.953586,57.6625568 173.392405,57.1233357 173.392405,56.4493094 C173.392405,55.7415818 172.936709,55.2529128 172.126582,55.2529128 C171.383966,55.2529128 170.92827,55.7752832 170.92827,56.4661601 L170.92827,56.4661601 Z M176.852321,56.4661601 C176.852321,57.1738877 177.274262,57.6625568 178.118143,57.6625568 C178.877637,57.6625568 179.316456,57.1233357 179.316456,56.4493094 C179.316456,55.7415818 178.860759,55.2529128 178.050633,55.2529128 C177.308017,55.2529128 176.852321,55.7752832 176.852321,56.4661601 L176.852321,56.4661601 Z M182.776371,56.4661601 C182.776371,57.1738877 183.198312,57.6625568 184.042194,57.6625568 C184.801688,57.6625568 185.240506,57.1233357 185.240506,56.4493094 C185.240506,55.7415818 184.78481,55.2529128 183.974684,55.2529128 C183.232068,55.2529128 182.776371,55.7752832 182.776371,56.4661601 L182.776371,56.4661601 Z M188.700422,56.4661601 C188.700422,57.1738877 189.122363,57.6625568 189.966245,57.6625568 C190.725738,57.6625568 191.164557,57.1233357 191.164557,56.4493094 C191.164557,55.7415818 190.708861,55.2529128 189.898734,55.2529128 C189.156118,55.2529128 188.700422,55.7752832 188.700422,56.4661601 L188.700422,56.4661601 Z M194.624473,56.4661601 C194.624473,57.1738877 195.046414,57.6625568 195.890295,57.6625568 C196.649789,57.6625568 197.088608,57.1233357 197.088608,56.4493094 C197.088608,55.7415818 196.632911,55.2529128 195.822785,55.2529128 C195.080169,55.2529128 194.624473,55.7752832 194.624473,56.4661601 L194.624473,56.4661601 Z M200.548523,56.4661601 C200.548523,57.1738877 200.970464,57.6625568 201.814346,57.6625568 C202.57384,57.6625568 203.012658,57.1233357 203.012658,56.4493094 C203.012658,55.7415818 202.556962,55.2529128 201.746835,55.2529128 C201.004219,55.2529128 200.548523,55.7752832 200.548523,56.4661601 L200.548523,56.4661601 Z M206.472574,56.4661601 C206.472574,57.1738877 206.894515,57.6625568 207.738397,57.6625568 C208.49789,57.6625568 208.936709,57.1233357 208.936709,56.4493094 C208.936709,55.7415818 208.481013,55.2529128 207.670886,55.2529128 C206.92827,55.2529128 206.472574,55.7752832 206.472574,56.4661601 L206.472574,56.4661601 Z M212.396624,56.4661601 C212.396624,57.1738877 212.818565,57.6625568 213.662447,57.6625568 C214.421941,57.6625568 214.860759,57.1233357 214.860759,56.4493094 C214.860759,55.7415818 214.405063,55.2529128 213.594937,55.2529128 C212.852321,55.2529128 212.396624,55.7752832 212.396624,56.4661601 L212.396624,56.4661601 Z M218.320675,56.4661601 C218.320675,57.1738877 218.742616,57.6625568 219.586498,57.6625568 C220.345992,57.6625568 220.78481,57.1233357 220.78481,56.4493094 C220.78481,55.7415818 220.329114,55.2529128 219.518987,55.2529128 C218.776371,55.2529128 218.320675,55.7752832 218.320675,56.4661601 L218.320675,56.4661601 Z" id="....................-copy"></path>
                    <g id="Group" transform="translate(24.734982, 0.000000)">
                        <path d="M18.7592379,13.9294546 C18.7592379,14.2519778 18.8695018,14.5158565 19.090033,14.7210985 C19.3105641,14.9263405 19.5825485,15.02896 19.9059942,15.02896 C20.2000358,15.02896 20.5381785,14.9629903 20.9204325,14.831049 C21.3026865,14.6991077 21.6775839,14.5305186 22.0451358,14.3252766 C22.4126878,14.1200345 22.7655323,13.9001357 23.1036801,13.6655733 C23.4418279,13.431011 23.7138123,13.2111121 23.9196414,13.0058701 C24.3312995,12.6247063 24.6547404,12.1775786 24.8899736,11.6644735 C25.1252069,11.1513685 25.2428217,10.6162812 25.2428217,10.0591957 C25.2428217,9.50211019 25.0737504,9.05498247 24.7356026,8.71779914 C24.3974548,8.38061581 23.9784519,8.12406712 23.4785812,7.94814538 C22.9787106,7.77222364 22.4567947,7.65494424 21.9128178,7.59630366 C21.3688409,7.53766308 20.8910305,7.50834323 20.4793724,7.50834323 C19.6266519,7.50834323 18.6416274,7.552323 17.5242695,7.64028387 C16.4069116,7.72824474 15.2748686,7.88217395 14.1281065,8.10207613 C12.9813445,8.3219783 11.8566524,8.62983673 10.7539966,9.02566065 C9.65134075,9.42148456 8.66631632,9.92725198 7.79889373,10.5429781 C6.93147115,11.1587042 6.23313293,11.8990304 5.70385813,12.7639789 C5.17458333,13.6289275 4.9099499,14.6331323 4.9099499,15.7766237 C4.9099499,17.0960367 5.24074169,18.3201404 5.90233519,19.4489716 C6.56392869,20.5778028 7.37988176,21.6333174 8.35021889,22.6155471 C9.32055602,23.5977768 10.3864407,24.5213521 11.5479048,25.3863006 C12.7093689,26.2512492 13.7752536,27.0941949 14.7455907,27.915163 C15.7159279,28.7361311 16.5318809,29.542427 17.1934744,30.3340748 C17.8550679,31.1257227 18.1858597,31.9320185 18.1858597,32.7529867 C18.1858597,33.4859939 17.95063,34.1237007 17.4801635,34.666126 C17.009697,35.2085514 16.4069209,35.677669 15.671817,36.0734929 C14.9367131,36.4693168 14.0987072,36.7918352 13.1577743,37.0410576 C12.2168413,37.2902801 11.2906243,37.4955191 10.3790955,37.6567806 C9.46756665,37.8180422 8.60015708,37.9279917 7.77684073,37.9866323 C6.95352437,38.0452728 6.27723894,38.0745927 5.74796414,38.0745927 C5.01286026,38.0745927 4.29246926,37.9793032 3.58676952,37.7887213 C2.88106979,37.5981394 2.16067879,37.5028499 1.4255749,37.5028499 C1.01391673,37.5028499 0.675774012,37.5394997 0.411136613,37.6128004 C0.146499214,37.6861012 0.0141824988,37.9719697 0.0141824988,38.4704146 C0.0141824988,38.7636175 0.153850142,38.9908464 0.433189619,39.152108 C0.712529096,39.3133696 1.03596995,39.430649 1.4035219,39.5039497 C1.77107384,39.5772504 2.13862027,39.6285601 2.50617221,39.6578804 C2.87372416,39.6872007 3.14570852,39.7165206 3.32213345,39.7458409 C4.11604565,39.8338017 4.89524408,39.8777815 5.65975212,39.8777815 C6.51247263,39.8777815 7.4827952,39.8338017 8.57074895,39.7458409 C9.65870271,39.65788 10.7907457,39.5039508 11.9669119,39.2840486 C13.1430781,39.0641464 14.289823,38.763618 15.4071809,38.3824542 C16.5245388,38.0012904 17.5242651,37.5175129 18.4063898,36.9311071 C19.2885144,36.3447013 20.0015545,35.626365 20.5455314,34.7760766 C21.0895083,33.9257882 21.3614926,32.9435732 21.3614926,31.8294022 C21.3614926,30.6859108 21.0601046,29.6084063 20.4573194,28.5968563 C19.8545342,27.5853063 19.0973885,26.6104213 18.1858597,25.672172 C17.2743309,24.7339228 16.2819555,23.8396673 15.2087039,22.9893789 C14.1354522,22.1390905 13.1430768,21.2888149 12.231548,20.4385265 C11.3200192,19.588238 10.5628735,18.7379624 9.96008835,17.887674 C9.35730317,17.0373856 9.05591509,16.1577901 9.05591509,15.2488611 C9.05591509,14.427893 9.31319759,13.6729068 9.82777032,12.98388 C10.342343,12.2948532 10.9818738,11.6864663 11.7463819,11.1587011 C12.5108899,10.6309359 13.3194921,10.1984681 14.1722126,9.86128473 C15.0249331,9.5241014 15.8041315,9.29687256 16.5098312,9.1795914 C17.0097019,9.09163053 17.509565,9.03299083 18.0094357,9.00367054 C18.5093063,8.97435025 19.0091695,8.95969032 19.5090401,8.95969032 C19.6560609,8.95969032 19.847185,8.96702029 20.0824183,8.98168043 C20.3176515,8.99634058 20.5528812,9.02566043 20.7881145,9.06964086 C21.0233477,9.1136213 21.2291737,9.19425088 21.4055986,9.31153204 C21.5820236,9.4288132 21.6702347,9.6047323 21.6702347,9.83929462 C21.6702347,10.1911381 21.5158652,10.5283164 21.2071216,10.8508396 C20.8983779,11.1733628 20.5675862,11.5032111 20.2147363,11.8403944 C19.8618864,12.1775777 19.5310946,12.522086 19.222351,12.8739295 C18.9136074,13.2257729 18.7592379,13.5776111 18.7592379,13.9294546 L18.7592379,13.9294546 Z" id="Path"></path>
                        <path d="M29.8739531,39.4379794 C31.0795234,39.4379794 32.2409702,39.2327404 33.3583281,38.8222563 C34.475686,38.4117723 35.5195178,37.8620251 36.489855,37.1729983 C37.4601921,36.4839715 38.3496545,35.6850055 39.1582687,34.7760766 C39.966883,33.8671476 40.6505194,32.9142524 41.2091983,31.9173626 C41.3562191,31.6828003 41.4591321,31.4775613 41.5179404,31.3016396 C41.5767487,31.1257178 41.6061524,30.891159 41.6061524,30.5979561 C41.6061524,30.4513547 41.5399941,30.3340753 41.4076754,30.2461144 C41.2753567,30.1581535 41.135689,30.1141738 40.9886683,30.1141738 C40.6652225,30.1141738 40.4005891,30.2461131 40.19476,30.5099957 C39.9889309,30.7738783 39.8125087,31.023097 39.6654879,31.2576594 C39.2244255,31.9906666 38.7098605,32.7236629 38.1217774,33.4566701 C37.5336943,34.1896774 36.8868126,34.842044 36.1811129,35.4137897 C35.4754131,35.9855353 34.7109166,36.4546529 33.8876002,36.8211566 C33.0642839,37.1876602 32.1821724,37.3709092 31.2412395,37.3709092 C30.212094,37.3709092 29.4770012,37.0850407 29.0359388,36.5132951 C28.5948765,35.9415494 28.3743486,35.1572434 28.3743486,34.1603535 C28.3743486,33.603268 28.4478579,32.9875512 28.5948787,32.3131845 C29.2711743,32.0786222 30.0062671,31.6388244 30.8001793,30.9937781 C31.5940915,30.3487317 32.3365353,29.6084055 33.027533,28.7727772 C33.7185306,27.9371489 34.2919031,27.0722134 34.7476675,26.1779445 C35.2034319,25.2836757 35.4313107,24.4700498 35.4313107,23.7370426 C35.4313107,22.974715 35.2181337,22.3443383 34.7917735,21.8458933 C34.3654132,21.3474484 33.7552862,21.0982297 32.961374,21.0982297 C31.7852077,21.0982297 30.7046212,21.5526874 29.719582,22.4616163 C28.7345428,23.3705453 27.889186,24.4773697 27.1834863,25.7821226 C26.4777866,27.0868755 25.9338178,28.4429186 25.5515638,29.8502925 C25.1693098,31.2576664 24.9781857,32.4597802 24.9781857,33.4566701 C24.9781857,34.2483179 25.0663968,35.0033041 25.2428217,35.7216512 C25.4192467,36.4399983 25.7059329,37.0703751 26.102889,37.6128004 C26.4998451,38.1552258 27.0070592,38.5950235 27.6245464,38.9322069 C28.2420337,39.2693902 28.9918284,39.4379794 29.8739531,39.4379794 Z M32.7408439,23.1652998 C33.0348854,23.1652998 33.2333605,23.2752492 33.3362751,23.4951514 C33.4391896,23.7150536 33.4906461,23.9422824 33.4906461,24.1768447 C33.4906461,24.7632505 33.3289257,25.3716374 33.00548,26.0020237 C32.6820343,26.6324099 32.2850841,27.2481267 31.8146176,27.8491927 C31.3441511,28.4502586 30.8295861,28.9926759 30.2709072,29.4764606 C29.7122282,29.9602454 29.1976632,30.3487334 28.7271967,30.6419363 C28.7860051,30.2607726 28.9477255,29.6523857 29.2123629,28.8167574 C29.4770003,27.9811292 29.8004411,27.1455134 30.1826952,26.3098852 C30.5649492,25.4742569 30.9766012,24.7412606 31.4176635,24.1108744 C31.8587258,23.4804882 32.2997816,23.1652998 32.7408439,23.1652998 Z" id="Path"></path>
                        <path d="M44.7817853,40.5814649 C45.6933142,40.5814649 46.6048293,40.2955964 47.5163581,39.7238508 C48.427887,39.1521051 49.2952965,38.4557587 50.1186129,37.6347905 C50.9419292,36.8138224 51.684373,35.9342269 52.3459665,34.9959776 C53.00756,34.0577284 53.5588797,33.2367726 53.999942,32.5330856 C54.1469628,32.2985233 54.2939813,32.0493045 54.4410021,31.7854219 C54.5880229,31.5215393 54.6615322,31.2430007 54.6615322,30.9497978 C54.6615322,30.7445558 54.6174266,30.5613068 54.5292141,30.4000452 C54.4410017,30.2387836 54.2792812,30.158154 54.044048,30.158154 C53.8088148,30.158154 53.6250415,30.2167937 53.4927228,30.3340748 C53.3604041,30.451356 53.2354384,30.5979552 53.1178217,30.773877 C52.9119927,31.0670799 52.7208685,31.3676084 52.5444436,31.6754714 C52.3680186,31.9833344 52.1768945,32.2838629 51.9710654,32.5770658 C51.6770239,32.9875499 51.2874246,33.5006472 50.8022561,34.1163733 C50.3170875,34.7320994 49.7878207,35.3258264 49.2144396,35.897572 C48.6410586,36.4693177 48.0456334,36.9530952 47.4281461,37.3489191 C46.8106588,37.7447431 46.2372864,37.942652 45.7080116,37.942652 C45.0905243,37.942652 44.6053631,37.6641135 44.2525132,37.107028 C43.8996633,36.5499424 43.620328,35.8902458 43.414499,35.1279183 C43.2086699,34.3655907 43.0763532,33.5959447 43.0175448,32.818957 C42.9587365,32.0419693 42.9293328,31.4335824 42.9293328,30.9937781 C42.9293328,30.7298955 42.9366837,30.4000471 42.9513858,30.0042232 C42.9660879,29.6083993 43.0175444,29.2932109 43.1057569,29.0586486 C43.1645652,28.8534066 43.2748291,28.6335077 43.436552,28.3989454 C43.5982748,28.1643831 43.7379425,27.9591441 43.8555591,27.7832224 C44.2084089,27.1968166 44.5686044,26.6324095 44.9361564,26.0899841 C45.3037083,25.5475587 45.649202,24.9831516 45.9726477,24.3967458 C46.6489433,23.1946139 47.3105268,21.8312409 47.9574183,20.3065858 C48.6043097,18.7819307 49.192384,17.2133187 49.7216588,15.6007028 C50.2509336,13.9880868 50.6772874,12.3754951 51.0007331,10.7628791 C51.3241788,9.15026319 51.4858993,7.65495083 51.4858993,6.2768972 C51.4858993,5.86641314 51.4417937,5.42661539 51.3535812,4.95749075 C51.2653688,4.48836611 51.1257011,4.05589832 50.9345741,3.66007441 C50.7434471,3.26425049 50.4788137,2.94173214 50.1406659,2.69250968 C49.8025181,2.44328721 49.3688133,2.31867785 48.8395385,2.31867785 C48.1926471,2.31867785 47.5531163,2.55323665 46.920927,3.02236129 C46.2887376,3.49148593 45.7006633,4.07055297 45.1566865,4.75957978 C44.6127096,5.4486066 44.1348992,6.15961297 43.723241,6.89262022 C43.3115829,7.62562746 42.988142,8.25600424 42.7529088,8.78376946 C41.5179342,11.6278376 40.6505247,14.5524926 40.150654,17.5578224 C39.6507834,20.5631521 39.4008518,23.6050865 39.4008518,26.683717 C39.4008518,27.2408025 39.4229046,27.9737988 39.4670108,28.8827277 C39.5111171,29.7916567 39.5919773,30.7665417 39.7095939,31.807412 C39.8272105,32.8482823 40.0036328,33.889137 40.238866,34.9300073 C40.4740993,35.9708776 40.7975401,36.9091128 41.2091983,37.7447411 C41.6208565,38.5803693 42.1133687,39.2620559 42.6867497,39.7898211 C43.2601308,40.3175863 43.958469,40.5814649 44.7817853,40.5814649 Z M48.9718565,4.42972817 C49.1482815,4.42972817 49.2805982,4.49569783 49.3688107,4.62763914 C49.4570231,4.75958044 49.5231815,4.91350966 49.5672877,5.0894314 C49.611394,5.26535314 49.6334467,5.45593216 49.6334467,5.66117419 L49.6334467,6.05699613 C49.6334467,7.46437005 49.4129189,9.01832211 48.9718565,10.7188989 C48.5307942,12.4194757 47.9794746,14.127357 47.3178811,15.842594 C46.6562876,17.5578309 45.9211947,19.2144025 45.1125804,20.8123583 C44.3039662,22.4103141 43.5468205,23.8103369 42.8411208,25.0124688 C42.8117166,24.7779065 42.7970148,24.5726675 42.7970148,24.3967458 L42.7970148,23.7370426 C42.7970148,21.6259817 43.0542973,19.419663 43.56887,17.1180202 C44.0834427,14.8163775 44.6494642,12.6540385 45.2669515,10.6309385 C45.3845681,10.279095 45.5536395,9.75133771 45.7741706,9.04765075 C45.9947018,8.34396379 46.2593352,7.65494731 46.5680789,6.98058065 C46.8768225,6.30621398 47.237018,5.71248701 47.6486762,5.19938194 C48.0603343,4.68627686 48.5013901,4.42972817 48.9718565,4.42972817 Z" id="Path"></path>
                        <path d="M60.7922679,28.7947673 C61.174522,28.7947673 61.6155777,28.8020973 62.1154483,28.8167574 C62.615319,28.8314176 63.0857784,28.7947678 63.5268407,28.7068069 C63.9679031,28.618846 64.3428004,28.4429269 64.651544,28.1790443 C64.9602877,27.9151617 65.1146572,27.5046838 65.1146572,26.9475983 C65.1146572,26.713036 65.033797,26.5664367 64.8720741,26.5077961 C64.7103513,26.4491555 64.5412799,26.4198357 64.364855,26.4198357 C64.1296217,26.4198357 63.9017429,26.4418256 63.6812118,26.485806 C63.4606806,26.5297865 63.2328018,26.5810962 62.9975686,26.6397368 C62.6447187,26.6983774 62.2918741,26.7423571 61.9390243,26.7716774 C61.5861744,26.8009977 61.218628,26.8156576 60.836374,26.8156576 C60.5717366,26.8156576 60.2409448,26.8083277 59.8439887,26.7936675 C59.4470326,26.7790074 59.0427315,26.7570175 58.6310733,26.7276972 C58.2194151,26.6983769 57.822465,26.6543971 57.440211,26.5957566 C57.057957,26.537116 56.749218,26.4638164 56.5139847,26.3758555 C57.0138554,23.297225 57.7342464,20.2846104 58.6751793,17.3379213 C59.6161123,14.3912321 60.7040497,11.4958969 61.9390243,8.65182882 C62.3212783,7.80154041 62.7255794,6.95859472 63.1519396,6.12296645 C63.5782999,5.28733819 63.9826009,4.4443925 64.364855,3.59410409 C64.4824716,3.35954177 64.5780337,3.117653 64.651544,2.86843054 C64.7250544,2.61920807 64.7618091,2.34799946 64.7618091,2.05479656 C64.7618091,1.70295308 64.6809489,1.39509465 64.519226,1.13121204 C64.3575032,0.867329433 64.0708169,0.735390108 63.6591588,0.735390108 C63.3945214,0.735390108 63.1004842,0.779369883 62.7770385,0.867330753 C62.4535928,0.955291623 62.1301519,1.07257102 61.8067062,1.21917247 C61.4832605,1.36577392 61.1818725,1.53436306 60.902533,1.72494495 C60.6231935,1.91552683 60.3953147,2.09877589 60.2188898,2.27469763 C59.9836565,2.53858024 59.7925324,2.83177875 59.6455116,3.15430194 C59.4984908,3.47682513 59.3514723,3.79934348 59.2044515,4.12186667 C56.9991398,9.83932321 55.3451809,15.5933438 54.2425251,21.3841011 C53.1398692,27.1748583 52.5885496,33.1487778 52.5885496,39.3060387 C52.5885496,39.7165228 52.5959005,40.2809299 52.6106026,40.999277 C52.6253047,41.7176241 52.6694102,42.4799402 52.7429206,43.2862482 C52.816431,44.0925561 52.9266949,44.913512 53.0737157,45.7491402 C53.2207365,46.5847685 53.4339134,47.3470846 53.7132529,48.0361114 C53.9925924,48.7251382 54.345437,49.2822154 54.7717972,49.7073596 C55.1981575,50.1325038 55.7200734,50.3450727 56.3375607,50.3450727 C57.7489601,50.3450727 58.9177578,49.9052749 59.8439887,49.0256662 C60.7702196,48.1460575 61.5126634,47.068553 62.0713423,45.7931204 C62.6300213,44.5176878 63.0196205,43.1689747 63.2401516,41.7469406 C63.4606828,40.3249066 63.5709467,39.071483 63.5709467,37.9866323 C63.5709467,37.2829453 63.5268412,36.5059693 63.4386287,35.6556809 C63.3504162,34.8053925 63.2033977,33.9551168 62.9975686,33.1048284 C62.7917395,32.25454 62.5124042,31.4482441 62.1595543,30.6859166 C61.8067045,29.923589 61.3509469,29.2932122 60.7922679,28.7947673 Z M55.8523945,29.6743716 C56.705115,30.114176 57.4181551,30.685913 57.9915361,31.3896 C58.5649172,32.093287 59.0280257,32.870263 59.3808755,33.7205514 C59.7337254,34.5708398 59.9910079,35.4650952 60.1527308,36.4033445 C60.3144536,37.3415938 60.3953138,38.2505092 60.3953138,39.1301178 L60.3953138,39.2620585 C60.3953138,39.8484643 60.373261,40.4275313 60.3291548,40.999277 C60.2850486,41.5710226 60.2041884,42.1500897 60.0865717,42.7364955 C60.0277634,43.1176593 59.9027976,43.6454166 59.7116706,44.3197832 C59.5205436,44.9941499 59.277963,45.6538465 58.9839214,46.2988929 C58.6898799,46.9439393 58.3370353,47.5010164 57.9253771,47.9701411 C57.5137189,48.4392657 57.0432595,48.6738245 56.5139847,48.6738245 C56.1023265,48.6738245 55.7715348,48.387956 55.5215994,47.8162103 C55.2716641,47.2444647 55.08054,46.5774381 54.9482213,45.8151105 C54.8159026,45.052783 54.7350424,44.3124568 54.7056382,43.5941097 C54.676234,42.8757626 54.6615322,42.3553352 54.6615322,42.032812 C54.6615322,39.9510715 54.779147,37.884022 55.0143803,35.8316017 C55.2496135,33.7791814 55.5289488,31.7267919 55.8523945,29.6743716 Z" id="Path"></path>
                        <path d="M97.0915164,13.9294546 C97.0915164,14.2519778 97.2017803,14.5158565 97.4223115,14.7210985 C97.6428426,14.9263405 97.914827,15.02896 98.2382727,15.02896 C98.5323142,15.02896 98.870457,14.9629903 99.252711,14.831049 C99.634965,14.6991077 100.009862,14.5305186 100.377414,14.3252766 C100.744966,14.1200345 101.097811,13.9001357 101.435959,13.6655733 C101.774106,13.431011 102.046091,13.2111121 102.25192,13.0058701 C102.663578,12.6247063 102.987019,12.1775786 103.222252,11.6644735 C103.457485,11.1513685 103.5751,10.6162812 103.5751,10.0591957 C103.5751,9.50211019 103.406029,9.05498247 103.067881,8.71779914 C102.729733,8.38061581 102.31073,8.12406712 101.81086,7.94814538 C101.310989,7.77222364 100.789073,7.65494424 100.245096,7.59630366 C99.7011194,7.53766308 99.223309,7.50834323 98.8116509,7.50834323 C97.9589303,7.50834323 96.9739059,7.552323 95.856548,7.64028387 C94.7391901,7.72824474 93.6071471,7.88217395 92.460385,8.10207613 C91.313623,8.3219783 90.1889309,8.62983673 89.0862751,9.02566065 C87.9836192,9.42148456 86.9985948,9.92725198 86.1311722,10.5429781 C85.2637496,11.1587042 84.5654114,11.8990304 84.0361366,12.7639789 C83.5068618,13.6289275 83.2422284,14.6331323 83.2422284,15.7766237 C83.2422284,17.0960367 83.5730202,18.3201404 84.2346137,19.4489716 C84.8962072,20.5778028 85.7121602,21.6333174 86.6824974,22.6155471 C87.6528345,23.5977768 88.7187191,24.5213521 89.8801833,25.3863006 C91.0416474,26.2512492 92.1075321,27.0941949 93.0778692,27.915163 C94.0482063,28.7361311 94.8641594,29.542427 95.5257529,30.3340748 C96.1873464,31.1257227 96.5181382,31.9320185 96.5181382,32.7529867 C96.5181382,33.4859939 96.2829085,34.1237007 95.812442,34.666126 C95.3419755,35.2085514 94.7391994,35.677669 94.0040955,36.0734929 C93.2689916,36.4693168 92.4309857,36.7918352 91.4900528,37.0410576 C90.5491198,37.2902801 89.6229028,37.4955191 88.711374,37.6567806 C87.7998451,37.8180422 86.9324356,37.9279917 86.1091192,37.9866323 C85.2858029,38.0452728 84.6095174,38.0745927 84.0802426,38.0745927 C83.3451387,38.0745927 82.6247477,37.9793032 81.919048,37.7887213 C81.2133483,37.5981394 80.4929573,37.5028499 79.7578534,37.5028499 C79.3461952,37.5028499 79.0080525,37.5394997 78.7434151,37.6128004 C78.4787777,37.6861012 78.346461,37.9719697 78.346461,38.4704146 C78.346461,38.7636175 78.4861286,38.9908464 78.7654681,39.152108 C79.0448076,39.3133696 79.3682484,39.430649 79.7358004,39.5039497 C80.1033523,39.5772504 80.4708988,39.6285601 80.8384507,39.6578804 C81.2060026,39.6872007 81.477987,39.7165206 81.6544119,39.7458409 C82.4483241,39.8338017 83.2275226,39.8777815 83.9920306,39.8777815 C84.8447511,39.8777815 85.8150737,39.8338017 86.9030274,39.7458409 C87.9909812,39.65788 89.1230242,39.5039508 90.2991904,39.2840486 C91.4753566,39.0641464 92.6221015,38.763618 93.7394594,38.3824542 C94.8568173,38.0012904 95.8565436,37.5175129 96.7386683,36.9311071 C97.6207929,36.3447013 98.333833,35.626365 98.8778099,34.7760766 C99.4217867,33.9257882 99.6937711,32.9435732 99.6937711,31.8294022 C99.6937711,30.6859108 99.392383,29.6084063 98.7895978,28.5968563 C98.1868127,27.5853063 97.429667,26.6104213 96.5181382,25.672172 C95.6066094,24.7339228 94.614234,23.8396673 93.5409823,22.9893789 C92.4677307,22.1390905 91.4753553,21.2888149 90.5638265,20.4385265 C89.6522977,19.588238 88.895152,18.7379624 88.2923668,17.887674 C87.6895816,17.0373856 87.3881936,16.1577901 87.3881936,15.2488611 C87.3881936,14.427893 87.6454761,13.6729068 88.1600488,12.98388 C88.6746215,12.2948532 89.3141523,11.6864663 90.0786603,11.1587011 C90.8431684,10.6309359 91.6517705,10.1984681 92.504491,9.86128473 C93.3572116,9.5241014 94.13641,9.29687256 94.8421097,9.1795914 C95.3419804,9.09163053 95.8418435,9.03299083 96.3417141,9.00367054 C96.8415848,8.97435025 97.3414479,8.95969032 97.8413186,8.95969032 C97.9883394,8.95969032 98.1794635,8.96702029 98.4146967,8.98168043 C98.64993,8.99634058 98.8851597,9.02566043 99.1203929,9.06964086 C99.3556262,9.1136213 99.5614522,9.19425088 99.7378771,9.31153204 C99.9143021,9.4288132 100.002513,9.6047323 100.002513,9.83929462 C100.002513,10.1911381 99.8481437,10.5283164 99.5394001,10.8508396 C99.2306564,11.1733628 98.8998646,11.5032111 98.5470148,11.8403944 C98.1941649,12.1775777 97.8633731,12.522086 97.5546295,12.8739295 C97.2458859,13.2257729 97.0915164,13.5776111 97.0915164,13.9294546 L97.0915164,13.9294546 Z" id="Path"></path>
                        <path d="M108.206232,39.4379794 C109.411802,39.4379794 110.573249,39.2327404 111.690607,38.8222563 C112.807964,38.4117723 113.851796,37.8620251 114.822133,37.1729983 C115.792471,36.4839715 116.681933,35.6850055 117.490547,34.7760766 C118.299161,33.8671476 118.982798,32.9142524 119.541477,31.9173626 C119.688498,31.6828003 119.791411,31.4775613 119.850219,31.3016396 C119.909027,31.1257178 119.938431,30.891159 119.938431,30.5979561 C119.938431,30.4513547 119.872273,30.3340753 119.739954,30.2461144 C119.607635,30.1581535 119.467968,30.1141738 119.320947,30.1141738 C118.997501,30.1141738 118.732868,30.2461131 118.527039,30.5099957 C118.321209,30.7738783 118.144787,31.023097 117.997766,31.2576594 C117.556704,31.9906666 117.042139,32.7236629 116.454056,33.4566701 C115.865973,34.1896774 115.219091,34.842044 114.513391,35.4137897 C113.807692,35.9855353 113.043195,36.4546529 112.219879,36.8211566 C111.396562,37.1876602 110.514451,37.3709092 109.573518,37.3709092 C108.544373,37.3709092 107.80928,37.0850407 107.368217,36.5132951 C106.927155,35.9415494 106.706627,35.1572434 106.706627,34.1603535 C106.706627,33.603268 106.780136,32.9875512 106.927157,32.3131845 C107.603453,32.0786222 108.338546,31.6388244 109.132458,30.9937781 C109.92637,30.3487317 110.668814,29.6084055 111.359811,28.7727772 C112.050809,27.9371489 112.624182,27.0722134 113.079946,26.1779445 C113.53571,25.2836757 113.763589,24.4700498 113.763589,23.7370426 C113.763589,22.974715 113.550412,22.3443383 113.124052,21.8458933 C112.697692,21.3474484 112.087565,21.0982297 111.293652,21.0982297 C110.117486,21.0982297 109.0369,21.5526874 108.051861,22.4616163 C107.066821,23.3705453 106.221465,24.4773697 105.515765,25.7821226 C104.810065,27.0868755 104.266096,28.4429186 103.883842,29.8502925 C103.501588,31.2576664 103.310464,32.4597802 103.310464,33.4566701 C103.310464,34.2483179 103.398675,35.0033041 103.5751,35.7216512 C103.751525,36.4399983 104.038211,37.0703751 104.435167,37.6128004 C104.832124,38.1552258 105.339338,38.5950235 105.956825,38.9322069 C106.574312,39.2693902 107.324107,39.4379794 108.206232,39.4379794 Z M111.073122,23.1652998 C111.367164,23.1652998 111.565639,23.2752492 111.668554,23.4951514 C111.771468,23.7150536 111.822925,23.9422824 111.822925,24.1768447 C111.822925,24.7632505 111.661204,25.3716374 111.337758,26.0020237 C111.014313,26.6324099 110.617363,27.2481267 110.146896,27.8491927 C109.67643,28.4502586 109.161865,28.9926759 108.603186,29.4764606 C108.044507,29.9602454 107.529942,30.3487334 107.059475,30.6419363 C107.118284,30.2607726 107.280004,29.6523857 107.544641,28.8167574 C107.809279,27.9811292 108.13272,27.1455134 108.514974,26.3098852 C108.897228,25.4742569 109.30888,24.7412606 109.749942,24.1108744 C110.191004,23.4804882 110.63206,23.1652998 111.073122,23.1652998 Z" id="Path"></path>
                        <path d="M124.48135,29.4984508 C124.48135,30.3194189 124.444596,31.1257148 124.371085,31.9173626 C124.297575,32.7090104 124.26082,33.5153063 124.26082,34.3362744 C124.26082,34.8640396 124.282873,35.4797565 124.326979,36.1834434 C124.371085,36.8871304 124.496051,37.554157 124.70188,38.1845432 C124.907709,38.8149295 125.216448,39.3573467 125.628107,39.8118112 C126.039765,40.2662757 126.613137,40.4935045 127.348241,40.4935045 C128.053941,40.4935045 128.84049,40.207636 129.707913,39.6358903 C130.575335,39.0641447 131.413341,38.3824582 132.221955,37.5908103 C133.03057,36.7991625 133.780364,35.9782067 134.471362,35.1279183 C135.16236,34.2776299 135.684276,33.5739535 136.037126,33.016868 C136.125338,32.8702665 136.206198,32.7236673 136.279709,32.5770658 C136.353219,32.4304644 136.389974,32.2692052 136.389974,32.0932834 C136.389974,31.8587211 136.353219,31.6461522 136.279709,31.4555703 C136.206198,31.2649884 136.037127,31.1696989 135.772489,31.1696989 C135.507852,31.1696989 135.279973,31.2943083 135.088846,31.5435308 C134.897719,31.7927532 134.728648,32.0199821 134.581627,32.2252241 C134.31699,32.6357081 133.905338,33.1854553 133.346659,33.8744822 C132.78798,34.563509 132.185204,35.2451955 131.538312,35.9195622 C130.891421,36.5939288 130.237188,37.1803258 129.575595,37.6787708 C128.914001,38.1772157 128.333278,38.4264344 127.833407,38.4264344 C127.421749,38.4264344 127.179168,38.2285254 127.105658,37.8327015 C127.032148,37.4368776 126.995393,37.0923694 126.995393,36.7991665 C126.995393,35.743636 127.083604,34.7027813 127.260029,33.6765712 C127.436454,32.650361 127.64228,31.6241663 127.877513,30.5979561 C128.024534,29.9529097 128.098043,29.3811727 128.098043,28.8827277 C128.098043,27.9151582 127.892217,27.1455121 127.480559,26.5737665 C127.068901,26.0020208 126.576389,25.5182433 126.003008,25.1224194 C125.429627,24.7265954 124.848903,24.3600973 124.26082,24.022914 C123.672737,23.6857306 123.202278,23.2532629 122.849428,22.7254976 C122.93764,22.0218107 122.981746,21.3181343 122.981746,20.6144473 C122.981746,20.379885 122.967044,20.0720266 122.93764,19.6908628 C122.908236,19.309699 122.834726,18.9358709 122.71711,18.5693673 C122.599493,18.2028637 122.452475,17.8803453 122.27605,17.6018026 C122.099625,17.3232598 121.849693,17.1839905 121.526247,17.1839905 C121.085185,17.1839905 120.702937,17.3745696 120.379491,17.7557333 C120.056045,18.1368971 119.784061,18.5913548 119.56353,19.11912 C119.342999,19.6468852 119.181278,20.1893024 119.078364,20.746388 C118.975449,21.3034735 118.923993,21.7579311 118.923993,22.1097746 C118.923993,22.7841413 119.012204,23.436508 119.188629,24.0668942 C119.365054,24.6972804 119.659091,25.2763475 120.070749,25.8041127 C119.894324,27.2994475 119.431216,28.6921404 118.68141,29.9822331 C117.931604,31.2723259 117.130352,32.5330794 116.277632,33.7645316 C116.160015,33.9111331 116.064453,34.0650623 115.990943,34.2263239 C115.917432,34.3875855 115.880678,34.5561746 115.880678,34.7320963 C115.880678,35.1132601 116.071802,35.3038391 116.454056,35.3038391 C116.689289,35.3038391 116.909817,35.2305395 117.115646,35.0839381 C117.321475,34.9373366 117.497897,34.7907374 117.644918,34.6441359 C118.144789,34.145691 118.600546,33.5739539 119.012205,32.9289075 C119.423863,32.2838611 119.806111,31.6095046 120.158961,30.9058176 C120.511811,30.2021307 120.827901,29.4984543 121.10724,28.7947673 C121.38658,28.0910804 121.643862,27.4167238 121.879095,26.7716774 C122.525987,26.9769194 123.121412,27.2994378 123.665389,27.7392422 C124.209366,28.1790465 124.48135,28.7654435 124.48135,29.4984508 L124.48135,29.4984508 Z" id="Path"></path>
                        <path d="M134.272885,24.7485875 C134.272885,24.9245093 134.346394,25.0930984 134.493415,25.25436 C134.640436,25.4156216 134.772753,25.5548909 134.890369,25.672172 C135.419644,26.2878981 135.948911,27.1308438 136.478186,28.2010344 C137.00746,29.271225 137.507324,30.4073692 137.97779,31.6095011 C138.448257,32.811633 138.852558,33.9990869 139.190705,35.1718985 C139.528853,36.3447101 139.756732,37.3269251 139.874349,38.1185729 C139.962561,38.5876975 140.058123,38.9761856 140.161038,39.2840486 C140.263952,39.5919116 140.609446,39.7458409 141.197529,39.7458409 C141.726804,39.7458409 142.057596,39.5992416 142.189914,39.3060387 C142.322233,39.0128358 142.432497,38.6609976 142.520709,38.2505135 C142.579518,37.9573106 142.792695,37.4515432 143.160247,36.7331961 C143.527799,36.014849 143.976205,35.1792333 144.50548,34.2263239 C145.034755,33.2734144 145.608127,32.2618796 146.225614,31.191689 C146.843102,30.1214984 147.445878,29.1099636 148.033961,28.1570542 C148.622044,27.2041448 149.151311,26.3538691 149.621777,25.6062017 C150.092244,24.8585343 150.445088,24.338107 150.680322,24.0449041 C150.73913,23.9569432 150.805288,23.8689837 150.878799,23.7810228 C150.952309,23.6930619 150.989064,23.5757825 150.989064,23.4291811 C150.989064,23.1359782 150.856747,22.8940894 150.59211,22.7035075 C150.327472,22.5129256 150.062839,22.4176361 149.798201,22.4176361 C149.533564,22.4176361 149.313036,22.5275856 149.136611,22.7474877 C148.960186,22.9673899 148.798466,23.1652989 148.651445,23.3412206 C147.416471,25.100438 146.291779,26.9182688 145.277335,28.7947673 C144.262892,30.6712659 143.241113,32.5330764 142.211967,34.3802546 C142.035542,33.5592865 141.785611,32.6650311 141.462165,31.6974615 C141.138719,30.7298919 140.763822,29.7623369 140.337462,28.7947673 C139.911102,27.8271977 139.447993,26.9036225 138.948122,26.0240138 C138.448252,25.1444051 137.904283,24.3967489 137.3162,23.7810228 C137.139775,23.5757808 136.948651,23.3998617 136.742822,23.2532602 C136.536993,23.1066588 136.287061,23.0333591 135.99302,23.0333591 C135.610766,23.0333591 135.228517,23.2239382 134.846263,23.6051019 C134.464009,23.9862657 134.272885,24.3674238 134.272885,24.7485875 L134.272885,24.7485875 Z" id="Path"></path>
                        <path d="M156.193573,33.632591 C156.193573,32.2838576 156.32589,30.9791243 156.590527,29.7183518 C156.67874,29.3958286 156.796355,29.0220005 156.943376,28.5968563 C157.090396,28.1717121 157.237415,27.7465743 157.384436,27.3214301 C157.531456,26.8962859 157.656422,26.485808 157.759337,26.0899841 C157.862251,25.6941602 157.913708,25.3496519 157.913708,25.056449 C157.913708,24.4114027 157.575565,24.0888843 156.89927,24.0888843 C155.958337,24.0888843 155.259998,24.3600929 154.804234,24.9025183 C154.34847,25.4449436 153.988274,26.1119702 153.723637,26.9036181 C153.488403,27.6659456 153.275226,28.5528711 153.084099,29.5644211 C152.892972,30.5759711 152.79741,31.4922164 152.79741,32.3131845 C152.79741,32.9582309 152.841516,33.713217 152.929728,34.5781656 C153.017941,35.4431141 153.209065,36.26407 153.503107,37.0410576 C153.797148,37.8180453 154.201449,38.4777419 154.716022,39.0201673 C155.230595,39.5625927 155.928933,39.8338013 156.811057,39.8338013 C157.60497,39.8338013 158.413572,39.5772526 159.236888,39.0641475 C160.060205,38.5510425 160.861456,37.9279956 161.640666,37.1949884 C162.419876,36.4619811 163.132916,35.6923351 163.779807,34.8860271 C164.426699,34.0797191 164.955966,33.3833727 165.367624,32.7969669 C165.455836,32.6796857 165.5661,32.5257565 165.698419,32.3351746 C165.830738,32.1445927 165.963054,31.9393538 166.095373,31.7194516 C166.227692,31.4995494 166.337956,31.2869805 166.426168,31.0817385 C166.514381,30.8764965 166.558486,30.7005774 166.558486,30.5539759 C166.558486,30.3194136 166.536434,30.0995147 166.492327,29.8942727 C166.448221,29.6890307 166.27915,29.5864112 165.985108,29.5864112 C165.691067,29.5864112 165.448486,29.7183505 165.257359,29.9822331 C165.066232,30.2461157 164.897161,30.4806745 164.75014,30.6859166 C164.456098,31.1550412 164.037095,31.785418 163.493118,32.5770658 C162.949142,33.3687136 162.346365,34.1383597 161.684772,34.8860271 C161.023178,35.6336945 160.346893,36.2787312 159.655895,36.8211566 C158.964898,37.3635819 158.325367,37.6347905 157.737284,37.6347905 C157.35503,37.6347905 157.060993,37.4735314 156.855164,37.1510082 C156.649334,36.828485 156.494965,36.4473269 156.39205,36.0075226 C156.289136,35.5677182 156.230328,35.1279205 156.215626,34.6881161 C156.200924,34.2483118 156.193573,33.8964736 156.193573,33.632591 L156.193573,33.632591 Z" id="Path"></path>
                        <path d="M157.957814,17.3599114 C157.369731,17.3599114 156.877219,17.6091301 156.480262,18.1075751 C156.083306,18.60602 155.884831,19.1337773 155.884831,19.6908628 C155.884831,20.1306671 156.017148,20.5191552 156.281785,20.8563385 C156.546423,21.1935218 156.913969,21.362111 157.384436,21.362111 C157.972519,21.362111 158.472382,21.1202222 158.88404,20.6364374 C159.295698,20.1526526 159.501524,19.6175654 159.501524,19.0311596 C159.501524,18.5913552 159.361857,18.2028672 159.082517,17.8656839 C158.803178,17.5285005 158.42828,17.3599114 157.957814,17.3599114 L157.957814,17.3599114 Z" id="Path"></path>
                        <path d="M170.086967,39.8338013 C171.38075,39.8338013 172.630408,39.6212324 173.835978,39.1960882 C175.041549,38.770944 176.15889,38.1918769 177.188035,37.4588697 C178.217181,36.7258624 179.1581,35.8682568 180.01082,34.8860271 C180.863541,33.9037974 181.598634,32.8702727 182.216121,31.7854219 C182.304333,31.6388205 182.392544,31.4775613 182.480757,31.3016396 C182.568969,31.1257178 182.613075,30.9497987 182.613075,30.773877 C182.613075,30.3047523 182.377845,30.0701935 181.907379,30.0701935 C181.613337,30.0701935 181.356055,30.2021329 181.135523,30.4660155 C180.914992,30.7298981 180.731219,30.9791168 180.584198,31.2136791 C180.113732,32.005327 179.562412,32.774973 178.930223,33.5226404 C178.298034,34.2703078 177.607046,34.9300045 176.85724,35.5017501 C176.107434,36.0734958 175.291481,36.5352834 174.409357,36.8871269 C173.527232,37.2389704 172.601015,37.4148895 171.630678,37.4148895 C170.983786,37.4148895 170.432467,37.2829501 169.976702,37.0190675 C169.520938,36.7551849 169.153391,36.4033467 168.874052,35.9635424 C168.594712,35.523738 168.396237,35.0326305 168.278621,34.4902052 C168.161004,33.9477798 168.102197,33.3980326 168.102197,32.8409471 C168.102197,32.1959007 168.219812,31.3309651 168.455045,30.2461144 C168.690278,29.1612637 169.028421,28.0910891 169.469483,27.0355587 C169.910545,25.9800283 170.454514,25.0711129 171.101406,24.3087854 C171.748297,23.5464578 172.48339,23.1652998 173.306706,23.1652998 C173.806577,23.1652998 174.107965,23.3485488 174.210879,23.7150525 C174.313794,24.0815561 174.365251,24.4700441 174.365251,24.8805282 C174.365251,25.5255746 174.232934,26.1046416 173.968296,26.6177467 C173.703659,27.1308517 173.571342,27.5486596 173.571342,27.8711828 C173.571342,28.1643857 173.733063,28.3109849 174.056508,28.3109849 C174.497571,28.3109849 174.865117,28.1790456 175.159159,27.915163 C175.4532,27.6512804 175.673728,27.328762 175.820749,26.9475983 C175.96777,26.5664345 176.070683,26.1632866 176.129491,25.7381424 C176.188299,25.3129982 176.217703,24.9245101 176.217703,24.5726667 C176.217703,23.3998551 175.901613,22.5495794 175.269424,22.0218142 C174.637234,21.494049 173.762474,21.2301703 172.645116,21.2301703 C171.321929,21.2301703 170.14578,21.5966684 169.116635,22.3296757 C168.08749,23.0626829 167.22008,23.9789283 166.51438,25.0784391 C165.808681,26.17795 165.279414,27.3800639 164.926564,28.6848168 C164.573714,29.9895697 164.397292,31.2136734 164.397292,32.3571647 C164.397292,33.2367734 164.500205,34.1163689 164.706034,34.9959776 C164.911863,35.8755863 165.250006,36.6745523 165.720472,37.3928994 C166.190939,38.1112465 166.786364,38.6976435 167.506766,39.152108 C168.227167,39.6065725 169.087226,39.8338013 170.086967,39.8338013 L170.086967,39.8338013 Z" id="Path"></path>
                        <path d="M185.038906,39.4379794 C186.244476,39.4379794 187.405923,39.2327404 188.523281,38.8222563 C189.640639,38.4117723 190.68447,37.8620251 191.654807,37.1729983 C192.625145,36.4839715 193.514607,35.6850055 194.323221,34.7760766 C195.131836,33.8671476 195.815472,32.9142524 196.374151,31.9173626 C196.521172,31.6828003 196.624085,31.4775613 196.682893,31.3016396 C196.741701,31.1257178 196.771105,30.891159 196.771105,30.5979561 C196.771105,30.4513547 196.704947,30.3340753 196.572628,30.2461144 C196.440309,30.1581535 196.300642,30.1141738 196.153621,30.1141738 C195.830175,30.1141738 195.565542,30.2461131 195.359713,30.5099957 C195.153883,30.7738783 194.977461,31.023097 194.83044,31.2576594 C194.389378,31.9906666 193.874813,32.7236629 193.28673,33.4566701 C192.698647,34.1896774 192.051765,34.842044 191.346065,35.4137897 C190.640366,35.9855353 189.875869,36.4546529 189.052553,36.8211566 C188.229236,37.1876602 187.347125,37.3709092 186.406192,37.3709092 C185.377047,37.3709092 184.641954,37.0850407 184.200891,36.5132951 C183.759829,35.9415494 183.539301,35.1572434 183.539301,34.1603535 C183.539301,33.603268 183.61281,32.9875512 183.759831,32.3131845 C184.436127,32.0786222 185.17122,31.6388244 185.965132,30.9937781 C186.759044,30.3487317 187.501488,29.6084055 188.192486,28.7727772 C188.883483,27.9371489 189.456856,27.0722134 189.91262,26.1779445 C190.368384,25.2836757 190.596263,24.4700498 190.596263,23.7370426 C190.596263,22.974715 190.383086,22.3443383 189.956726,21.8458933 C189.530366,21.3474484 188.920239,21.0982297 188.126326,21.0982297 C186.95016,21.0982297 185.869574,21.5526874 184.884535,22.4616163 C183.899495,23.3705453 183.054139,24.4773697 182.348439,25.7821226 C181.642739,27.0868755 181.09877,28.4429186 180.716516,29.8502925 C180.334262,31.2576664 180.143138,32.4597802 180.143138,33.4566701 C180.143138,34.2483179 180.231349,35.0033041 180.407774,35.7216512 C180.584199,36.4399983 180.870885,37.0703751 181.267842,37.6128004 C181.664798,38.1552258 182.172012,38.5950235 182.789499,38.9322069 C183.406986,39.2693902 184.156781,39.4379794 185.038906,39.4379794 Z M187.905796,23.1652998 C188.199838,23.1652998 188.398313,23.2752492 188.501228,23.4951514 C188.604142,23.7150536 188.655599,23.9422824 188.655599,24.1768447 C188.655599,24.7632505 188.493878,25.3716374 188.170432,26.0020237 C187.846987,26.6324099 187.450037,27.2481267 186.97957,27.8491927 C186.509104,28.4502586 185.994539,28.9926759 185.43586,29.4764606 C184.877181,29.9602454 184.362616,30.3487334 183.892149,30.6419363 C183.950958,30.2607726 184.112678,29.6523857 184.377315,28.8167574 C184.641953,27.9811292 184.965394,27.1455134 185.347648,26.3098852 C185.729902,25.4742569 186.141554,24.7412606 186.582616,24.1108744 C187.023678,23.4804882 187.464734,23.1652998 187.905796,23.1652998 Z" id="Path"></path>
                    </g>
                    <path d="M38.4493671,67.9414576 L28.164557,67.9414576 L28.164557,104.80227 L34.757384,104.80227 L34.757384,89.9526284 C35.1793249,90.0052867 37.8691983,90.0052867 38.2911392,90.0052867 C43.1434599,90.0052867 47.7848101,86.1085723 47.7848101,78.4731183 C47.7848101,72.5753883 44.778481,67.9414576 38.4493671,67.9414576 L38.4493671,67.9414576 Z M36.0759494,84.3708483 L34.757384,84.3708483 L34.757384,73.2599462 L38.2383966,73.2599462 C40.8227848,73.2599462 41.5084388,75.5242533 41.5084388,78.4731183 C41.5084388,83.8969235 40.2953586,84.3708483 36.0759494,84.3708483 L36.0759494,84.3708483 Z M27.1624473,70.4690562 L25.685654,70.4690562 L25.685654,107.329869 L32.278481,107.329869 L32.278481,105.802778 L27.1624473,105.802778 L27.1624473,70.4690562 Z M38.2383966,74.2077957 L35.7067511,74.2077957 L35.7594937,75.7348865 C38.3966245,75.7348865 39.0295359,78.0518519 39.0295359,81.0007168 C39.0295359,81.895908 39.0295359,82.6331243 38.9240506,83.2123656 C40.1898734,82.8437575 40.5063291,81.7379331 40.5063291,78.5257766 C40.5063291,74.787037 39.3987342,74.2077957 38.2383966,74.2077957 L38.2383966,74.2077957 Z M35.7067511,91.0057945 L35.7067511,92.480227 C37.8164557,92.480227 39.8206751,91.8483274 41.5084388,90.4792115 C39.5042194,91.0584528 39.2405063,91.0057945 35.7067511,91.0057945 L35.7067511,91.0057945 Z M68.3544304,104.80227 L75.2109705,104.80227 L68.2489451,89.0574373 C71.4135021,87.4776882 73.7869198,83.9495818 73.7869198,78.4731183 C73.7869198,72.5753883 70.7805907,67.9414576 64.4514768,67.9414576 L53.42827,67.9414576 L53.42827,104.80227 L60.021097,104.80227 L60.021097,89.9526284 C60.2848101,89.9526284 61.128692,90.0052867 62.0780591,90.0052867 L68.3544304,104.80227 Z M60.021097,84.3708483 L60.021097,73.2599462 L64.2405063,73.2599462 C66.8248945,73.2599462 67.5105485,75.5242533 67.5105485,78.4731183 C67.5105485,83.8969235 66.2974684,84.3708483 62.0780591,84.3708483 L60.021097,84.3708483 Z M52.4261603,70.4690562 L50.9493671,70.4690562 L50.9493671,107.329869 L57.5421941,107.329869 L57.5421941,105.802778 L52.4261603,105.802778 L52.4261603,70.4690562 Z M64.2405063,74.2077957 L60.9704641,74.2077957 L60.9704641,75.7348865 L61.7616034,75.7348865 C64.3987342,75.7348865 65.0316456,78.0518519 65.0316456,81.0007168 C65.0316456,81.895908 65.0316456,82.6331243 64.9261603,83.2123656 C66.1919831,82.8437575 66.5084388,81.7379331 66.5084388,78.5257766 C66.5084388,74.787037 65.4008439,74.2077957 64.2405063,74.2077957 L64.2405063,74.2077957 Z M67.721519,105.855436 L61.4451477,91.0057945 L60.9704641,91.0057945 L60.9704641,95.7450418 L65.92827,107.329869 L72.7320675,107.329869 L72.0991561,105.855436 L67.721519,105.855436 Z M79.9578059,67.9414576 L79.9578059,104.80227 L86.5506329,104.80227 L86.5506329,67.9414576 L79.9578059,67.9414576 Z M79.0084388,70.4690562 L77.5316456,70.4690562 L77.5316456,107.329869 L84.1244726,107.329869 L84.1244726,105.802778 L79.0084388,105.802778 L79.0084388,70.4690562 Z M106.381857,67.9414576 L106.381857,88.4255376 L106.276371,88.4255376 L100.158228,67.9414576 L93.1962025,67.9414576 L93.1962025,104.80227 L99.7890295,104.80227 L99.7890295,83.7389486 L99.8945148,83.7389486 L106.381857,104.80227 L112.974684,104.80227 L112.974684,67.9414576 L106.381857,67.9414576 Z M105.432489,70.4690562 L103.955696,70.4690562 L103.955696,77.3146356 L105.432489,82.3171744 L105.432489,70.4690562 Z M92.2468354,70.4690562 L90.7700422,70.4690562 L90.7700422,107.329869 L97.3628692,107.329869 L97.3628692,105.855436 L92.2468354,105.855436 L92.2468354,70.4690562 Z M100.791139,89.9526284 L100.791139,97.0614994 L103.955696,107.329869 L110.548523,107.329869 L110.548523,105.855436 L105.64346,105.855436 L100.791139,89.9526284 Z M118.459916,67.9414576 L118.459916,73.2072879 L125.21097,73.2072879 L125.21097,104.80227 L131.803797,104.80227 L131.803797,73.2072879 L138.607595,73.2072879 L138.607595,67.9414576 L118.459916,67.9414576 Z M124.261603,74.2077957 L117.457806,74.2077957 L117.457806,70.4163978 L115.981013,70.4163978 L115.981013,75.6822282 L122.732068,75.6822282 L122.732068,107.27721 L129.324895,107.27721 L129.324895,105.802778 L124.261603,105.802778 L124.261603,74.2077957 Z M132.805907,75.6822282 L136.128692,75.6822282 L136.128692,74.2077957 L132.805907,74.2077957 L132.805907,75.6822282 Z M166.877637,104.80227 L173.470464,104.80227 L165.875527,67.9414576 L159.2827,67.9414576 L151.687764,104.80227 L157.911392,104.80227 L159.177215,96.2189665 L165.559072,96.2189665 L166.877637,104.80227 Z M160.28481,90.9531362 L162.341772,77.735902 L162.5,77.735902 L164.504219,90.9531362 L160.28481,90.9531362 Z M150.474684,105.802778 L158.016878,69.2579152 L156.803797,70.4163978 L149.261603,107.27721 L155.432489,107.27721 L156.909283,105.802778 L150.474684,105.802778 Z M165.981013,105.802778 L164.767932,97.2721326 L160.021097,97.2721326 L159.810127,98.7465651 L163.132911,98.7465651 L164.398734,107.27721 L170.991561,107.27721 L172.468354,105.802778 L165.981013,105.802778 Z M161.445148,89.6893369 L161.49789,90.057945 L163.343882,90.057945 L162.394515,83.7389486 L161.445148,89.6893369 Z M198.523207,74.1024791 C197.679325,70.5217145 194.567511,67.9414576 190.822785,67.9414576 L178.955696,67.9414576 L178.955696,104.80227 L190.822785,104.80227 C196.518987,104.80227 198.99789,99.9050478 198.99789,94.2706093 L198.99789,78.4731183 C198.99789,76.9986858 198.839662,75.471595 198.523207,74.1024791 L198.523207,74.1024791 Z M192.774262,94.2706093 C192.774262,97.2194743 192.14135,99.4837814 189.451477,99.4837814 L185.548523,99.4837814 L185.548523,73.2599462 L189.451477,73.2599462 C192.14135,73.2599462 192.774262,75.5242533 192.774262,78.4731183 L192.774262,94.2706093 Z M185.548523,105.802778 L177.953586,105.802778 L177.953586,70.4690562 L176.476793,70.4690562 L176.476793,107.329869 L188.343882,107.329869 C190.295359,107.329869 192.088608,106.592652 193.459916,105.381511 C192.616034,105.644803 191.719409,105.802778 190.822785,105.802778 L185.548523,105.802778 Z M189.451477,74.2077957 L186.49789,74.2077957 L186.49789,75.7348865 L187.025316,75.7348865 C189.662447,75.7348865 190.295359,77.9991935 190.295359,81.0007168 L190.295359,96.7455496 C190.295359,97.3774492 190.242616,97.9566906 190.189873,98.5359319 C191.086498,98.2199821 191.772152,97.2721326 191.772152,94.3232676 L191.772152,78.5257766 C191.772152,74.787037 190.7173,74.2077957 189.451477,74.2077957 L189.451477,74.2077957 Z M220.305907,87.7409797 L213.71308,80.158184 C212.183544,78.42046 211.761603,77.2619773 211.761603,75.5769116 C211.761603,73.9445042 213.132911,72.6807049 214.767932,72.6807049 C216.350211,72.6807049 217.721519,74.1551374 217.721519,76.7880526 L217.721519,78.2624851 L224.314346,78.2624851 L224.314346,75.7348865 C224.314346,70.785006 220.35865,67.4675329 214.767932,67.4675329 C209.177215,67.4675329 205.168776,70.7323477 205.168776,75.7348865 C205.168776,80.7374253 206.276371,82.2645161 210.07384,86.055914 L215.611814,91.5850358 C217.088608,93.0594683 217.721519,94.6392174 217.721519,96.640233 C217.721519,98.7465651 216.402954,100.010364 214.767932,100.010364 C213.132911,100.010364 211.761603,98.8518817 211.761603,96.640233 L211.761603,93.1647849 L205.221519,93.1647849 L205.221519,97.0088411 C205.221519,102.32733 209.493671,105.276195 214.767932,105.276195 C220.042194,105.276195 224.578059,102.32733 224.578059,97.0088411 C224.578059,92.6908602 222.943038,90.6898447 220.305907,87.7409797 L220.305907,87.7409797 Z M204.272152,97.0614994 L204.272152,95.6923835 L202.742616,95.6923835 L202.742616,99.4837814 C202.742616,104.854928 207.014768,107.803793 212.341772,107.803793 C215.031646,107.803793 217.510549,107.013919 219.303797,105.592145 C217.932489,106.066069 216.402954,106.329361 214.767932,106.329361 C208.491561,106.329361 204.272152,102.590621 204.272152,97.0614994 L204.272152,97.0614994 Z M211.28692,92.2169355 L212.763713,92.2169355 L212.763713,93.7440263 L213.185654,94.1126344 C214.504219,95.6923835 215.242616,97.1141577 215.295359,99.0098566 C216.191983,98.7992234 216.772152,97.9566906 216.772152,96.6928913 C216.772152,95.1131422 216.297468,93.7966846 214.820675,92.2695938 L209.388186,86.7931302 C205.590717,83.0017324 204.166667,81.0533751 204.166667,75.7875448 C204.166667,74.787037 204.324895,73.8918459 204.535865,73.049313 C203.375527,74.4184289 202.689873,76.2088112 202.689873,78.2624851 C202.689873,83.2650239 203.797468,84.7394564 207.594937,88.5308542 L211.28692,92.2169355 Z M215.453586,80.7374253 L221.888186,80.7374253 L221.888186,79.2629928 L216.772152,79.2629928 L216.772152,76.8407109 C216.772152,74.9450119 215.981013,73.733871 214.767932,73.733871 C213.818565,73.733871 213.027426,74.3657706 212.816456,75.2609618 C214.187764,75.5242533 215.295359,76.9460275 215.295359,79.2629928 L215.295359,80.5794504 L215.453586,80.7374253 Z M26.2436709,147.982079 L32.8343882,147.982079 L32.8343882,146.174846 L30.6065401,146.174846 L30.6065401,140.938504 L36.2689873,140.938504 L36.2689873,139.038593 L30.6065401,139.038593 L30.6065401,133.616894 L35.5727848,133.616894 L35.5727848,135.493636 L37.5917722,135.493636 L37.5917722,131.624303 L26.2436709,131.624303 L26.2436709,133.408367 L28.285865,133.408367 L28.285865,146.174846 L26.2436709,146.174846 L26.2436709,147.982079 Z M39.5179325,139.687343 C39.5179325,144.506631 43.1845992,148.260115 47.9419831,148.260115 C52.6761603,148.260115 56.3660338,144.506631 56.3660338,139.687343 C56.3660338,134.983903 52.6761603,131.346268 47.9419831,131.346268 C43.1845992,131.346268 39.5179325,134.983903 39.5179325,139.687343 L39.5179325,139.687343 Z M41.9082278,139.687343 C41.9082278,136.119216 44.600211,133.385197 47.9419831,133.385197 C51.2605485,133.385197 53.9525316,136.119216 53.9525316,139.687343 C53.9525316,143.371318 51.2605485,146.198016 47.9419831,146.198016 C44.600211,146.198016 41.9082278,143.371318 41.9082278,139.687343 L41.9082278,139.687343 Z M58.5474684,147.982079 L64.9293249,147.982079 L64.9293249,146.174846 L62.9103376,146.174846 L62.9103376,141.378728 L64.8597046,141.378728 C65.8575949,141.378728 66.1592827,141.587254 66.5770042,142.282344 L69.1065401,146.754087 C69.6635021,147.727213 69.9883966,147.982079 71.3808017,147.982079 L72.7732068,147.982079 L72.7732068,146.174846 L72.285865,146.174846 C71.7056962,146.174846 71.4040084,146.082167 71.1487342,145.641944 L68.8280591,141.610424 C68.5495781,141.077522 68.1318565,140.845826 68.1318565,140.845826 L68.1318565,140.799486 C70.2204641,140.266584 71.5200422,138.5752 71.5200422,136.211895 C71.5200422,133.987608 70.3829114,132.55109 68.6656118,131.971848 C67.7605485,131.670643 66.8090717,131.624303 65.6487342,131.624303 L58.5474684,131.624303 L58.5474684,133.408367 L60.5896624,133.408367 L60.5896624,146.174846 L58.5474684,146.174846 L58.5474684,147.982079 Z M62.9103376,139.478816 L62.9103376,133.524215 L65.6255274,133.524215 C66.414557,133.524215 67.1107595,133.616894 67.6445148,133.825421 C68.6656118,134.242474 69.1761603,135.122921 69.1761603,136.397252 C69.1761603,138.320333 67.992616,139.478816 66.2056962,139.478816 L62.9103376,139.478816 Z M80.6402954,147.982079 L88.3913502,147.982079 C89.2964135,147.982079 90.0622363,147.93574 90.8512658,147.680873 C92.5453586,147.101632 93.8681435,145.479756 93.8681435,143.324978 C93.8681435,141.471406 92.9166667,139.8727 91.1529536,139.362968 L91.1529536,139.316628 C92.4293249,138.667878 93.2183544,137.393547 93.2183544,135.794841 C93.2183544,134.033947 92.2668776,132.690108 90.9672996,132.110866 C90.1550633,131.740152 89.2732068,131.624303 88.0896624,131.624303 L80.6402954,131.624303 L80.6402954,133.408367 L82.6824895,133.408367 L82.6824895,146.174846 L80.6402954,146.174846 L80.6402954,147.982079 Z M85.0031646,138.505691 L85.0031646,133.524215 L88.0896624,133.524215 C88.785865,133.524215 89.3196203,133.616894 89.7837553,133.84859 C90.4799578,134.242474 90.8512658,135.053412 90.8512658,136.003368 C90.8512658,137.486226 89.9229958,138.505691 88.4377637,138.505691 L85.0031646,138.505691 Z M85.0031646,146.082167 L85.0031646,140.405602 L88.6698312,140.405602 C90.3871308,140.405602 91.5010549,141.517746 91.5010549,143.20913 C91.5010549,144.437122 90.8976793,145.456587 89.9462025,145.850471 C89.5052743,146.035828 88.9483122,146.082167 88.4841772,146.082167 L85.0031646,146.082167 Z M97.9757384,141.88846 C97.9757384,143.463996 98.3006329,144.831006 99.0664557,145.87364 C100.18038,147.379668 102.129747,148.260115 104.450422,148.260115 C106.67827,148.260115 108.674051,147.449177 109.787975,145.87364 C110.507384,144.854176 110.925105,143.440827 110.925105,141.88846 L110.925105,133.408367 L112.9673,133.408367 L112.9673,131.624303 L106.53903,131.624303 L106.53903,133.408367 L108.60443,133.408367 L108.60443,141.842121 C108.60443,142.907925 108.372363,143.811541 107.977848,144.483461 C107.304852,145.595605 106.005274,146.198016 104.450422,146.198016 C102.872363,146.198016 101.595992,145.595605 100.922996,144.5298 C100.505274,143.857881 100.296414,142.931094 100.296414,141.86529 L100.296414,133.408367 L102.361814,133.408367 L102.361814,131.624303 L95.9103376,131.624303 L95.9103376,133.408367 L97.9757384,133.408367 L97.9757384,141.88846 Z M114.916667,143.070112 L114.916667,144.784667 C114.916667,147.124802 117.771097,148.260115 120.32384,148.260115 C123.363924,148.260115 125.916667,146.638239 125.916667,143.510336 C125.916667,140.475111 123.526371,139.548325 121.112869,138.644708 C119.279536,137.949619 117.631857,137.370378 117.631857,135.632654 C117.631857,134.126626 118.908228,133.385197 120.509494,133.385197 C121.855485,133.385197 123.317511,133.89493 123.317511,134.844885 L123.317511,135.980198 L125.475738,135.980198 L125.475738,134.057117 C125.475738,132.273054 122.969409,131.346268 120.509494,131.346268 C117.74789,131.346268 115.264768,132.666938 115.264768,135.748502 C115.264768,138.644708 117.469409,139.571495 119.627637,140.382432 C121.646624,141.170201 123.572785,141.795781 123.572785,143.695693 C123.572785,145.317569 122.203586,146.198016 120.32384,146.198016 C118.60654,146.198016 117.051688,145.479756 117.051688,144.274934 L117.051688,143.070112 L114.916667,143.070112 Z M128.330169,147.982079 L134.758439,147.982079 L134.758439,146.174846 L132.693038,146.174846 L132.693038,133.408367 L134.758439,133.408367 L134.758439,131.624303 L128.330169,131.624303 L128.330169,133.408367 L130.372363,133.408367 L130.372363,146.174846 L128.330169,146.174846 L128.330169,147.982079 Z M137.195148,147.982079 L143.669831,147.982079 L143.669831,146.174846 L141.558017,146.174846 L141.558017,136.397252 C141.581224,135.88752 141.46519,135.076582 141.46519,135.076582 L141.53481,135.076582 C141.53481,135.076582 141.790084,135.794841 142.091772,136.258234 L150.144515,147.982079 L152.418776,147.982079 L152.418776,133.408367 L154.484177,133.408367 L154.484177,131.624303 L148.009494,131.624303 L148.009494,133.408367 L150.098101,133.408367 L150.098101,143.20913 C150.098101,143.718863 150.214135,144.5298 150.214135,144.5298 L150.144515,144.5298 C150.144515,144.5298 149.866034,143.811541 149.587553,143.348148 L141.53481,131.624303 L137.195148,131.624303 L137.195148,133.408367 L139.237342,133.408367 L139.237342,146.174846 L137.195148,146.174846 L137.195148,147.982079 Z M156.642405,147.982079 L168.89557,147.982079 L168.89557,144.112747 L166.876582,144.112747 L166.876582,146.082167 L161.005274,146.082167 L161.005274,140.683638 L166.806962,140.683638 L166.806962,138.783726 L161.005274,138.783726 L161.005274,133.524215 L166.482068,133.524215 L166.482068,135.424127 L168.501055,135.424127 L168.501055,131.624303 L156.642405,131.624303 L156.642405,133.408367 L158.684599,133.408367 L158.684599,146.174846 L156.642405,146.174846 L156.642405,147.982079 Z M171.309072,143.070112 L171.309072,144.784667 C171.309072,147.124802 174.163502,148.260115 176.716245,148.260115 C179.756329,148.260115 182.309072,146.638239 182.309072,143.510336 C182.309072,140.475111 179.918776,139.548325 177.505274,138.644708 C175.671941,137.949619 174.024262,137.370378 174.024262,135.632654 C174.024262,134.126626 175.300633,133.385197 176.901899,133.385197 C178.24789,133.385197 179.709916,133.89493 179.709916,134.844885 L179.709916,135.980198 L181.868143,135.980198 L181.868143,134.057117 C181.868143,132.273054 179.361814,131.346268 176.901899,131.346268 C174.140295,131.346268 171.657173,132.666938 171.657173,135.748502 C171.657173,138.644708 173.861814,139.571495 176.020042,140.382432 C178.03903,141.170201 179.96519,141.795781 179.96519,143.695693 C179.96519,145.317569 178.595992,146.198016 176.716245,146.198016 C174.998945,146.198016 173.444093,145.479756 173.444093,144.274934 L173.444093,143.070112 L171.309072,143.070112 Z M184.722574,143.070112 L184.722574,144.784667 C184.722574,147.124802 187.577004,148.260115 190.129747,148.260115 C193.169831,148.260115 195.722574,146.638239 195.722574,143.510336 C195.722574,140.475111 193.332278,139.548325 190.918776,138.644708 C189.085443,137.949619 187.437764,137.370378 187.437764,135.632654 C187.437764,134.126626 188.714135,133.385197 190.315401,133.385197 C191.661392,133.385197 193.123418,133.89493 193.123418,134.844885 L193.123418,135.980198 L195.281646,135.980198 L195.281646,134.057117 C195.281646,132.273054 192.775316,131.346268 190.315401,131.346268 C187.553797,131.346268 185.070675,132.666938 185.070675,135.748502 C185.070675,138.644708 187.275316,139.571495 189.433544,140.382432 C191.452532,141.170201 193.378692,141.795781 193.378692,143.695693 C193.378692,145.317569 192.009494,146.198016 190.129747,146.198016 C188.412447,146.198016 186.857595,145.479756 186.857595,144.274934 L186.857595,143.070112 L184.722574,143.070112 Z M198.136076,147.982079 L210.389241,147.982079 L210.389241,144.112747 L208.370253,144.112747 L208.370253,146.082167 L202.498945,146.082167 L202.498945,140.683638 L208.300633,140.683638 L208.300633,138.783726 L202.498945,138.783726 L202.498945,133.524215 L207.975738,133.524215 L207.975738,135.424127 L209.994726,135.424127 L209.994726,131.624303 L198.136076,131.624303 L198.136076,133.408367 L200.17827,133.408367 L200.17827,146.174846 L198.136076,146.174846 L198.136076,147.982079 Z M212.802743,143.070112 L212.802743,144.784667 C212.802743,147.124802 215.657173,148.260115 218.209916,148.260115 C221.25,148.260115 223.802743,146.638239 223.802743,143.510336 C223.802743,140.475111 221.412447,139.548325 218.998945,138.644708 C217.165612,137.949619 215.517932,137.370378 215.517932,135.632654 C215.517932,134.126626 216.794304,133.385197 218.39557,133.385197 C219.741561,133.385197 221.203586,133.89493 221.203586,134.844885 L221.203586,135.980198 L223.361814,135.980198 L223.361814,134.057117 C223.361814,132.273054 220.855485,131.346268 218.39557,131.346268 C215.633966,131.346268 213.150844,132.666938 213.150844,135.748502 C213.150844,138.644708 215.355485,139.571495 217.513713,140.382432 C219.5327,141.170201 221.458861,141.795781 221.458861,143.695693 C221.458861,145.317569 220.089662,146.198016 218.209916,146.198016 C216.492616,146.198016 214.937764,145.479756 214.937764,144.274934 L214.937764,143.070112 L212.802743,143.070112 Z" id="Self-Service-Copy"></path>
                </g>
            </g>
        </g>
    </g>
</svg>