<svg xmlns:sketch="http://www.bohemiancoding.com/sketch/ns" xmlns="http://www.w3.org/2000/svg" xmlns:xlink="http://www.w3.org/1999/xlink" version="1.1" id="Layer_1" x="0" y="0" width="110" height="111" viewBox="-1362 416.9 110 111" xml:space="preserve" enable-background="new -1362 416.9 110 111">
  <style type="text/css">
    
	.st0{fill:#313133;}
	.st1{fill:none;stroke:#A8DC28;stroke-width:2;stroke-linecap:round;stroke-linejoin:round;stroke-dasharray:1,4;}
	.st2{fill:#EFEFEF;}
	.st3{fill:#A8DC28;stroke:#313133;}
	.st4{enable-background:new    ;}
	.st5{fill:#A8DC28;}

  </style>
  <title>
    Services Active
  </title>
  <desc>
    Created with Sketch Beta.
  </desc>
  <g id="PAA" sketch:type="MSPage">
    <g id="Desktop-HD-For-sale-2" transform="translate(-868.000000, -622.000000)" sketch:type="MSArtboardGroup">
      <g id="Phase-1" transform="translate(457.000000, 273.000000)" sketch:type="MSLayerGroup">
        <g id="_x31_-what-are-you-selling" transform="translate(0.000000, 34.000000)">
          <g id="categories" transform="translate(0.000000, 314.000000)">
            <g id="Services-Active" transform="translate(411.000000, 0.505285)">
              <path id="Fill-1" sketch:type="MSShapeGroup" class="st0" d="M-1252 472.9c0-30.3-24.7-55-55-55s-55 24.7-55 55 24.7 55 55 55S-1252 503.2-1252 472.9z"/>
              <path id="Stroke-6" sketch:type="MSShapeGroup" class="st1" d="M-1262 494.7c3.2-6.6 5-14 5-21.8 0-27.6-22.4-50-50-50s-50 22.4-50 50c0 21.5 13.7 39.9 32.8 46.9 5.4 2 11.2 3.1 17.2 3.1C-1287.2 522.9-1270.1 511.4-1262 494.7z"/>
              <path id="Stroke-15" sketch:type="MSShapeGroup" class="st1" d="M-1362 416.9"/>
              <path id="Imported-Layers-4" sketch:type="MSShapeGroup" class="st2" d="M-1293.8 451.7c-1.2-0.8-2.7-1-4-0.5 -0.9 0.3-1.8 0.9-2.4 1.8 -0.1 0.2-0.2 0.4-0.3 0.6 -0.1 0.3-0.2 0.5-0.3 0.8l-4.2 4.4 -2.6 3c0-0.1-0.1-0.1-0.1-0.2 -0.1-0.2-0.2-0.3-0.3-0.5l1.4-1.6 -2-1.3 3.1-6.9c0.2-0.2 0.5-0.4 0.7-0.6 0.1-0.2 0.3-0.3 0.4-0.5 0.6-0.9 0.9-2 0.8-3 -0.1-1.3-0.8-2.6-2-3.4 -2.1-1.4-5-0.9-6.4 1.3 -1.4 2.2-0.9 5 1.2 6.4 0.5 0.4 1.1 0.6 1.7 0.7l-10.9 22.7 7.6-8.8 0.2-0.3 1.4-1.6 0 0c0.1 0.1 0.2 0.1 0.3 0.2s0.2 0.1 0.4 0.1l-11 12.8 0 0c-1.8 3.8-1 4.4 1.9 1.3l18.9-20.6c0.3 0.5 0.8 1 1.3 1.4 2.1 1.4 5 0.9 6.4-1.3C-1291.2 456-1291.7 453.1-1293.8 451.7L-1293.8 451.7zM-1308.4 450.3c-0.5 0-1-0.2-1.5-0.5 -1.2-0.8-1.6-2.5-0.7-3.8 0.9-1.3 2.5-1.6 3.8-0.7 1.2 0.8 1.6 2.5 0.7 3.8 -0.1 0.2-0.3 0.4-0.4 0.5C-1307 450-1307.7 450.3-1308.4 450.3L-1308.4 450.3zM-1310.8 462.9c-0.1-0.4-0.1-0.8 0.2-1.1 0.1-0.2 0.3-0.4 0.5-0.5 0.4-0.2 0.9-0.2 1.3 0.1 0.1 0.1 0.2 0.2 0.3 0.3 0.1 0.1 0.2 0.3 0.3 0.5 0 0.1 0 0.2 0 0.3 0 0.3-0.1 0.6-0.2 0.8 -0.2 0.3-0.6 0.5-1 0.6 -0.1 0-0.3 0-0.4 0 -0.1 0-0.3-0.1-0.4-0.2 0 0 0 0-0.1 0C-1310.6 463.4-1310.7 463.2-1310.8 462.9L-1310.8 462.9zM-1298 457.8c-0.5-0.3-0.8-0.8-1-1.3 -0.2-0.6-0.2-1.3 0-1.9 0.1-0.2 0.2-0.4 0.3-0.6 0.8-1.3 2.5-1.6 3.8-0.7 1.2 0.8 1.6 2.5 0.7 3.8C-1295.1 458.3-1296.8 458.7-1298 457.8L-1298 457.8z"/>
              <path id="Imported-Layers" sketch:type="MSShapeGroup" class="st3" d="M-1321.3 451.3l5.3 3.3 12.3 11.9 -1.4 1.4 2.3 2.2 0.7-0.7c0.8 2 6.4 7.4 8.4 8.1l-0.7 0.7 2.3 2.2 5-5.2 -2.3-2.2 -0.7 0.7c-0.8-2-6.4-7.4-8.4-8.1l0.7-0.7 -2.3-2.2 -1.4 1.5 -12.3-11.8 -3.5-5.2 -3.8-2 -2.4 2.5L-1321.3 451.3z"/>
              <g class="st4">
                <path class="st5" d="M-1326.3 500c0-0.8-0.7-1.1-1.7-1.3 -1.3-0.4-2.5-0.9-2.5-2.5s1.2-2.5 3-2.5c0.9 0 1.7 0.2 2.4 0.5v2l-1.3 0.1v-0.8c0-0.2 0-0.4-0.3-0.4 -0.1-0.2-0.5-0.2-0.7-0.2 -0.8 0-1.4 0.3-1.4 1.1 0 0.8 0.8 1 1.7 1.3 1.2 0.4 2.4 0.9 2.4 2.6 0 1.7-1.4 2.7-3.1 2.7 -1 0-1.8-0.2-2.6-0.5V500l1.3-0.1v0.8c0 0.2 0 0.4 0.3 0.4 0.2 0.1 0.6 0.1 0.9 0.1C-1327 501.2-1326.3 501-1326.3 500z"/>
                <path class="st5" d="M-1318.4 497.5c0 2-2.2 2.3-3.7 2.4 0.1 0.8 0.5 1.5 1.6 1.5 0.8 0 1.3-0.4 1.6-0.6l0.5 1.1c-0.2 0.2-1.1 0.7-2.3 0.7 -2.2 0-3.1-1.4-3.1-3.3s1.1-3.6 3.2-3.6C-1319.2 495.7-1318.4 496.3-1318.4 497.5zM-1320.6 496.8c-1 0-1.5 1-1.5 2 1 0 2.3-0.2 2.3-1.2C-1319.8 497-1320.1 496.8-1320.6 496.8z"/>
                <path class="st5" d="M-1316.7 497.3c0-0.3-0.1-0.4-0.3-0.4h-0.5v-1h2.2v1c0.3-0.6 1-1.2 1.8-1.2 0.4 0 0.8 0.1 1.2 0.3v1.9l-1.2 0.1v-0.6c0-0.2 0-0.3-0.1-0.3 -0.1-0.1-0.2-0.1-0.4-0.1 -0.7 0-1.2 0.6-1.2 1.3v3l1.1 0.1v1h-3.5v-1h0.4c0.2 0 0.4-0.1 0.4-0.4v-3.7H-1316.7z"/>
                <path class="st5" d="M-1304.8 495.9v1h-0.4c-0.2 0-0.3 0.1-0.4 0.3l-1.7 5.2h-2l-1.7-5.2c-0.1-0.2-0.1-0.3-0.4-0.3h-0.4v-1h3.1v1h-0.8l1.3 4.3 0 0 1.3-4.3h-0.7v-1H-1304.8z"/>
                <path class="st5" d="M-1301.9 501.3h0.7v1h-3.1v-1h0.4c0.2 0 0.4-0.1 0.4-0.4v-3.6c0-0.3-0.1-0.4-0.3-0.4h-0.5v-1h2.3L-1301.9 501.3 -1301.9 501.3zM-1302.8 493.1c0.6 0 1 0.4 1 1 0 0.6-0.4 0.9-1 0.9 -0.6 0-1-0.4-1-0.9S-1303.4 493.1-1302.8 493.1z"/>
                <path class="st5" d="M-1295.6 500.8l0.6 1c-0.5 0.4-1.3 0.8-2.3 0.8 -1.9 0-3-1.2-3-3.4 0-2.6 1.6-3.5 3.1-3.5 0.8 0 1.4 0.2 2 0.5v1.7l-1.2 0.1v-0.6c0-0.2 0-0.4-0.3-0.4 -0.2-0.1-0.3-0.1-0.5-0.1 -1 0-1.6 0.8-1.6 2.2 0 1.4 0.5 2.3 1.7 2.3C-1296.6 501.4-1296.2 501.2-1295.6 500.8z"/>
                <path class="st5" d="M-1288.9 497.5c0 2-2.2 2.3-3.7 2.4 0.1 0.8 0.5 1.5 1.6 1.5 0.8 0 1.3-0.4 1.6-0.6l0.5 1.1c-0.2 0.2-1.1 0.7-2.3 0.7 -2.2 0-3.1-1.4-3.1-3.3s1.1-3.6 3.2-3.6C-1289.7 495.7-1288.9 496.3-1288.9 497.5zM-1291.1 496.8c-1 0-1.5 1-1.5 2 1 0 2.3-0.2 2.3-1.2C-1290.3 497-1290.6 496.8-1291.1 496.8z"/>
                <path class="st5" d="M-1285.3 496.7c-0.6 0-1 0.3-1 0.8 0 0.6 0.6 0.8 1.2 0.9 1 0.3 2.1 0.6 2.1 2s-1.1 2.1-2.5 2.1c-0.8 0-1.8-0.1-2.4-0.4v-1.8l1.2-0.1v0.7c0 0.2 0.1 0.4 0.3 0.4 0.2 0.1 0.5 0.1 0.9 0.1 0.7 0 1-0.2 1-0.8 0-0.6-0.6-0.7-1.3-0.9 -1-0.2-2-0.6-2-2s1.1-2.1 2.5-2.1c0.9 0 1.7 0.3 2.2 0.5v1.6l-1.2 0.1v-0.5c0-0.2-0.1-0.4-0.3-0.4C-1284.8 496.8-1285 496.7-1285.3 496.7z"/>
              </g>
            </g>
          </g>
        </g>
      </g>
    </g>
  </g>
</svg>
