<svg xmlns:sketch="http://www.bohemiancoding.com/sketch/ns" xmlns="http://www.w3.org/2000/svg" xmlns:xlink="http://www.w3.org/1999/xlink" version="1.1" id="Layer_1" x="0" y="0" width="61" height="61" viewBox="-1387 441.9 61 61" xml:space="preserve" enable-background="new -1387 441.9 61 61">
  <style type="text/css">
    
	.st0{fill:#EFEFEF;}
	.st1{fill:none;stroke:#313133;stroke-width:2;stroke-linecap:round;stroke-linejoin:round;stroke-dasharray:1,4;}
	.st2{fill:#313133;}
	.st3{fill:#313133;stroke:#EFEFEF;}

  </style>
  <title>
    Services-mobile
  </title>
  <desc>
    Created with Sketch.
  </desc>
  <g id="Homepage" sketch:type="MSPage">
    <g id="Home-Mobile-portrait" transform="translate(-249.000000, -419.000000)" sketch:type="MSArtboardGroup">
      <g id="Hero" transform="translate(-320.000000, -182.000000)" sketch:type="MSLayerGroup">
        <g id="What-will-you-discover_x3F_-Copy" transform="translate(320.000000, 580.000000)" sketch:type="MSShapeGroup">
          <g id="categories" transform="translate(9.000000, 21.000000)">
            <g id="Services-mobile" transform="translate(240.362484, 0.000000)">
              <path id="Fill-1" class="st0" d="M-1327 472.2c0-16.5-13.5-30-30-30 -16.5 0-30 13.5-30 30 0 16.5 13.5 30 30 30C-1340.5 502.2-1327 488.8-1327 472.2z"/>
              <path id="Stroke-6" class="st1" d="M-1333.1 483.8c1.7-3.5 2.6-7.4 2.6-11.5 0-14.6-11.9-26.5-26.5-26.5s-26.5 11.9-26.5 26.5c0 11.4 7.2 21.1 17.4 24.9 2.9 1.1 5.9 1.6 9.1 1.6C-1346.5 498.7-1337.4 492.6-1333.1 483.8z"/>
              <g id="services-icon" transform="translate(17.000000, 15.000000)">
                <path id="Imported-Layers-4" class="st2" d="M-1366.1 448.7c-0.8-0.6-1.8-0.7-2.7-0.4 -0.6 0.2-1.2 0.6-1.6 1.2 -0.1 0.1-0.2 0.3-0.2 0.4 -0.1 0.2-0.2 0.4-0.2 0.5l-2.8 2.9 -1.7 2c0 0 0-0.1-0.1-0.1 -0.1-0.1-0.1-0.2-0.2-0.3l0.9-1 -1.3-0.9 2.1-4.6c0.2-0.1 0.3-0.3 0.5-0.4 0.1-0.1 0.2-0.2 0.3-0.3 0.4-0.6 0.6-1.3 0.5-2 -0.1-0.9-0.6-1.7-1.4-2.3 -1.4-1-3.3-0.6-4.3 0.8 -1 1.4-0.6 3.3 0.8 4.3 0.4 0.2 0.7 0.4 1.1 0.5l-7.1 15.1 5-5.8 0.2-0.2 0.9-1.1c0 0 0 0 0 0 0.1 0 0.1 0.1 0.2 0.1 0.1 0 0.2 0.1 0.2 0.1l-7.4 8.5 0 0c-1.2 2.5-0.6 2.9 1.3 0.9l12.6-13.6c0.2 0.4 0.5 0.7 0.9 0.9 1.4 1 3.3 0.6 4.3-0.8C-1364.3 451.6-1364.6 449.6-1366.1 448.7L-1366.1 448.7zM-1375.7 447.7c-0.3 0-0.7-0.1-1-0.3 -0.8-0.6-1.1-1.7-0.5-2.5 0.6-0.8 1.7-1 2.5-0.5 0.8 0.6 1.1 1.7 0.5 2.5 -0.1 0.1-0.2 0.2-0.3 0.3C-1374.8 447.5-1375.3 447.7-1375.7 447.7L-1375.7 447.7zM-1377.4 456.1c-0.1-0.2 0-0.5 0.1-0.7 0.1-0.1 0.2-0.2 0.4-0.3 0.3-0.1 0.6-0.1 0.9 0.1 0.1 0 0.1 0.1 0.2 0.2 0.1 0.1 0.1 0.2 0.2 0.3 0 0.1 0 0.1 0 0.2 0 0.2 0 0.4-0.1 0.5 -0.2 0.2-0.4 0.3-0.6 0.4 -0.1 0-0.2 0-0.3 0 -0.1 0-0.2-0.1-0.3-0.1 0 0 0 0 0 0C-1377.2 456.4-1377.3 456.2-1377.4 456.1L-1377.4 456.1zM-1368.8 452.7c-0.3-0.2-0.6-0.5-0.7-0.9 -0.2-0.4-0.2-0.9 0-1.3 0.1-0.1 0.1-0.3 0.2-0.4 0.6-0.8 1.7-1 2.5-0.5 0.8 0.6 1.1 1.7 0.5 2.5C-1366.8 453.1-1367.9 453.3-1368.8 452.7L-1368.8 452.7z"/>
                <path id="Imported-Layers" class="st3" d="M-1384.3 448.3l3.5 2.2 8.1 7.9 -0.9 1 1.5 1.5 0.4-0.5c0.5 1.3 4.2 5 5.6 5.4l-0.4 0.5 1.5 1.5 3.3-3.5 -1.5-1.5 -0.5 0.5c-0.5-1.3-4.2-5-5.6-5.4l0.4-0.5 -1.5-1.5 -0.9 1 -8.1-7.9 -2.3-3.5 -2.5-1.4 -1.6 1.7L-1384.3 448.3z"/>
              </g>
            </g>
          </g>
        </g>
      </g>
    </g>
  </g>
</svg>
