<?xml version="1.0" encoding="utf-8"?>
<!-- Generator: Adobe Illustrator 20.1.0, SVG Export Plug-In . SVG Version: 6.00 Build 0)  -->
<svg version="1.1" id="Layer_1" xmlns="http://www.w3.org/2000/svg" xmlns:xlink="http://www.w3.org/1999/xlink" x="0px" y="0px"
	 width="43px" height="43px" viewBox="0 0 43 43" style="enable-background:new 0 0 43 43;" xml:space="preserve">
<style type="text/css">
	.st0{fill:none;stroke:#313133;stroke-width:2;stroke-linecap:round;stroke-linejoin:round;stroke-dasharray:1,3;}
	.st1{fill:#313133;}
	.st2{fill:none;stroke:#EFEFEF;stroke-width:0.96;}
</style>
<title>services icon</title>
<desc>Created with Sketch.</desc>
<g id="Page-1">
	<g id="Dashboard---Credits" transform="translate(-453.000000, -674.000000)">
		<g id="Services" transform="translate(454.000000, 668.000000)">
			<g id="services-icon" transform="translate(0.000000, 7.000000)">
				<path id="Stroke-3" class="st0" d="M39,29.4c1.3-2.7,2-5.7,2-8.9C41,9.2,31.8,0,20.5,0S0,9.2,0,20.5c0,8.8,5.6,16.3,13.5,19.3
					c2.2,0.9,4.6,1.2,7,1.2C28.6,40.9,35.7,36.2,39,29.4L39,29.4z"/>
				<path id="Fill-5" class="st1" d="M26,17.6c-0.3-0.2-0.6-0.5-0.7-0.9c-0.2-0.4-0.2-0.9,0-1.3c0.1-0.1,0.1-0.3,0.2-0.4
					c0.6-0.8,1.6-1,2.4-0.5c0.8,0.6,1.1,1.6,0.5,2.4C28,18,26.9,18.2,26,17.6 M17.7,20.9c-0.1-0.2,0-0.5,0.1-0.7
					c0.1-0.1,0.2-0.2,0.4-0.3c0.3-0.1,0.6-0.1,0.9,0.1c0.1,0,0.1,0.1,0.2,0.2s0.1,0.2,0.2,0.3v0.2c0,0.2,0,0.4-0.1,0.5
					c-0.2,0.2-0.4,0.3-0.6,0.4h-0.3c-0.1,0-0.2-0.1-0.3-0.1C17.9,21.2,17.8,21,17.7,20.9 M19.4,12.8c-0.3,0-0.7-0.1-1-0.3
					c-0.8-0.6-1.1-1.6-0.5-2.4c0.6-0.8,1.6-1,2.4-0.5c0.8,0.6,1.1,1.6,0.5,2.4c-0.1,0.1-0.2,0.2-0.3,0.3
					C20.2,12.6,19.7,12.8,19.4,12.8 M28.6,13.8c-0.8-0.6-1.7-0.7-2.6-0.4c-0.6,0.2-1.2,0.6-1.5,1.2c-0.1,0.1-0.2,0.3-0.2,0.4
					c-0.1,0.2-0.2,0.4-0.2,0.5l-2.7,2.8l-1.6,1.9c0,0,0-0.1-0.1-0.1c-0.1-0.1-0.1-0.2-0.2-0.3l0.9-1l-1.3-0.9l2-4.4
					c0.2-0.1,0.3-0.3,0.5-0.4c0.1-0.1,0.2-0.2,0.3-0.3c0.4-0.6,0.6-1.3,0.5-1.9C22.3,10,21.8,9.2,21,8.7c-1.4-1-3.2-0.6-4.2,0.8
					c-1,1.4-0.6,3.2,0.8,4.2c0.4,0.2,0.7,0.4,1.1,0.5l-6.9,14.6l4.8-5.6l0.2-0.2l0.9-1.1c0.1,0,0.1,0.1,0.2,0.1
					c0.1,0,0.2,0.1,0.2,0.1l-7.2,8.2c-1.2,2.4-0.6,2.8,1.3,0.9l12.2-13.1c0.2,0.4,0.5,0.7,0.9,0.9c1.4,1,3.2,0.6,4.2-0.8
					C30.4,16.6,30.1,14.7,28.6,13.8"/>
				<path id="Fill-7" class="st1" d="M11,13.4l3.4,2.1l7.8,7.6l-0.9,1l1.4,1.4l0.4-0.5c0.5,1.3,4.1,4.8,5.4,5.2l-0.4,0.5l1.5,1.4
					l3.2-3.4l-1.4-1.4L31,27.9c-0.5-1.3-4.1-4.8-5.4-5.2l0.4-0.5l-1.5-1.4l-0.9,1l-7.8-7.6l-2.2-3.4l-2.4-1.4L9.6,11L11,13.4z"/>
				<path id="Stroke-9" class="st2" d="M11,13.4l3.4,2.1l7.8,7.6l-0.9,1l1.4,1.4l0.4-0.5c0.5,1.3,4.1,4.8,5.4,5.2l-0.4,0.5l1.5,1.4
					l3.2-3.4l-1.4-1.4L31,27.9c-0.5-1.3-4.1-4.8-5.4-5.2l0.4-0.5l-1.5-1.4l-0.9,1l-7.8-7.6l-2.2-3.4l-2.4-1.4L9.6,11L11,13.4
					L11,13.4z"/>
			</g>
		</g>
	</g>
</g>
</svg>
