<?xml version="1.0" encoding="UTF-8"?><svg width="39" height="40" xmlns="http://www.w3.org/2000/svg"><g fill="none" fill-rule="evenodd"><g transform="translate(-700 -1241)" fill="#555555"><g transform="translate(203 1059)"><g transform="translate(367 182)"><g transform="translate(131)"><path d="M30.083 9.505a4.626 4.626 0 0 0-4.017-.568 4.544 4.544 0 0 0-2.383 1.789c-.126.186-.23.38-.325.576a4.439 4.439 0 0 0-.297.796l-4.148 4.36-2.56 2.955c-.024-.059-.058-.115-.087-.171a2.022 2.022 0 0 0-.32-.465l1.337-1.542-1.971-1.33 3.09-6.869A4.753 4.753 0 0 0 19.5 7.903a4.55 4.55 0 0 0 .76-2.99 4.63 4.63 0 0 0-2.026-3.4c-2.116-1.428-4.981-.881-6.4 1.22-1.417 2.103-.851 4.964 1.266 6.392.528.357 1.107.591 1.696.707L4.19 32.34l7.52-8.675.229-.265 1.396-1.609.021.019c.1.067.204.119.31.166.118.053.238.093.36.122L3.053 34.759l-.018.038c-1.775 3.765-.927 4.335 1.892 1.273l18.7-20.313c.332.523.774.991 1.323 1.361 2.117 1.428 4.982.88 6.4-1.222 1.417-2.102.85-4.964-1.266-6.391zm-14.38-1.448a2.72 2.72 0 0 1-1.492-.466 2.716 2.716 0 0 1-.746-3.769 2.715 2.715 0 0 1 3.773-.72 2.716 2.716 0 0 1 .747 3.769c-.128.19-.28.35-.445.495-.511.457-1.167.7-1.837.69zm-2.454 12.447a1.278 1.278 0 0 1 .16-1.087 1.27 1.27 0 0 1 .53-.443c.399-.184.88-.164 1.27.1.105.07.192.158.269.25a1.278 1.278 0 0 1 .3.76c.014.27-.051.546-.213.787-.225.332-.578.52-.95.555a1.291 1.291 0 0 1-.4-.021 1.313 1.313 0 0 1-.399-.162c-.017-.012-.034-.017-.051-.029a1.307 1.307 0 0 1-.516-.71zm12.81-4.976a2.723 2.723 0 0 1-1.038-3.171c.074-.206.165-.408.294-.598a2.715 2.715 0 0 1 3.772-.72 2.715 2.715 0 0 1 .746 3.768 2.716 2.716 0 0 1-3.773.721z"/><path d="M10.758 9.62l1.837 1.792 9.894 9.659 1.393-1.46 2.95 2.879-.54.564c2.194 1.282 6.232 5.224 7.58 7.4l.54-.566 2.946 2.879-5.63 5.895-2.947-2.871.538-.563c-2.194-1.283-6.232-5.226-7.583-7.403l-.536.564-2.947-2.875 1.393-1.463-5.883-5.736-5.86-5.72L2.603 9.27.226 5.128 3.103 2.12l4.186 2.26 3.469 5.24z" stroke="#EFEDEA"/></g></g></g></g></g></svg>