<?xml version="1.0" encoding="UTF-8" standalone="no"?>
<svg width="16px" height="16px" viewBox="0 0 16 16" version="1.1" xmlns="http://www.w3.org/2000/svg" xmlns:xlink="http://www.w3.org/1999/xlink" xmlns:sketch="http://www.bohemiancoding.com/sketch/ns">
    <!-- Generator: Sketch 3.2 (9961) - http://www.bohemiancoding.com/sketch -->
    <title>Share</title>
    <desc>Created with Sketch.</desc>
    <defs></defs>
    <g id="PAA" stroke="none" stroke-width="1" fill="none" fill-rule="evenodd" sketch:type="MSPage">
        <g id="Desktop-HD-For-sale-6" sketch:type="MSArtboardGroup" transform="translate(-1110.000000, -490.000000)" fill="#A8A8A8">
            <g id="Ad-preview" sketch:type="MSLayerGroup" transform="translate(-1.000000, 272.000000)">
                <g id="Right-bar" transform="translate(917.000000, 27.000000)" sketch:type="MSShapeGroup">
                    <g id="print-+-share" transform="translate(95.000000, 186.000000)">
                        <path d="M101.570719,15.5717188 C102.288094,15.5717188 102.936094,15.276 103.402594,14.8016875 L109.891813,18.0867813 C109.876125,18.199875 109.856625,18.31125 109.856625,18.4273437 C109.856625,19.848375 111.008313,20.9999688 112.428375,20.9999688 C113.848313,21 115,19.848375 115,18.427375 C115,17.0092187 113.848313,15.8556562 112.428375,15.8556562 C111.703187,15.8556562 111.050219,16.1601562 110.583719,16.6432813 L104.105281,13.3640625 C104.121875,13.2440312 104.142375,13.1249375 104.142375,12.9989687 C104.142375,12.8604375 104.121875,12.7247187 104.101375,12.590125 L110.570125,9.341125 C111.038531,9.832 111.696313,10.1423438 112.428406,10.1423438 C113.848344,10.1423438 115.000031,8.99071875 115.000031,7.57071875 C115,6.1516875 113.848313,5 112.428375,5 C111.008344,5 109.856625,6.1516875 109.856625,7.57071875 C109.856625,7.6819375 109.876125,7.78540625 109.888813,7.8928125 L103.372312,11.168125 C102.907813,10.7114062 102.273375,10.428375 101.570719,10.428375 C100.151687,10.428375 99,11.5799687 99,12.999 C99,14.419 100.151687,15.5717188 101.570719,15.5717188 L101.570719,15.5717188 Z" id="Share"></path>
                    </g>
                </g>
            </g>
        </g>
    </g>
</svg>