<svg xmlns="http://www.w3.org/2000/svg" version="1.1" x="0" y="0" width="41" height="19" viewBox="-1397 462.9 41 19" xml:space="preserve"><style type="text/css">
	.st0{fill:#8A8A8A;}
	.st1{enable-background:new    ;}
	.st2{fill:#EFEFEF;}
</style><title>Shape Copy + SOLD</title><desc>Created with Sketch.</desc><g transform="translate(-221.000000, -595.000000)"><g transform="translate(158.000000, 333.000000)"><g transform="translate(25.000000, 260.000000)"><g transform="translate(0.000000, 2.000000)"><g transform="translate(38.000000, 0.000000)"><path class="st0" d="M-1358.6 472.2c0 0.7-0.6 1.3-1.3 1.3 -0.7 0-1.3-0.6-1.3-1.3 0-0.7 0.6-1.3 1.3-1.3S-1358.6 471.4-1358.6 472.2M-1362.6 463.7c-0.4-0.5-1-0.8-1.7-0.8h-22.9 -2.6 -7.2v19h7.2 2.6 22.9c0.8 0 1.5-0.4 1.9-1l5.9-7.3c0.6-0.8 0.6-1.9 0-2.7L-1362.6 463.7z"/><g class="st1"><path class="st2" d="M-1390.9 475.8c1 0 1.6-0.4 1.6-1.2 0-0.4-0.2-0.8-0.7-1 -0.2-0.1-0.6-0.2-0.9-0.3 -0.4-0.1-0.7-0.2-1-0.3 -0.3-0.1-0.5-0.3-0.8-0.4 -0.5-0.4-0.8-1-0.8-1.8s0.3-1.4 0.8-1.9 1.3-0.7 2.2-0.7c0.9 0 1.7 0.2 2.5 0.5v1.9l-1.3 0.1V470c0-0.1 0-0.2-0.1-0.3 -0.1-0.2-0.4-0.2-0.9-0.2s-0.9 0.1-1.1 0.3c-0.2 0.2-0.4 0.5-0.4 0.8 0 0.3 0.1 0.5 0.3 0.7 0.1 0.1 0.3 0.3 0.6 0.3s0.6 0.2 0.9 0.3c0.3 0.1 0.6 0.2 0.8 0.3 0.2 0.1 0.5 0.3 0.7 0.5 0.5 0.4 0.8 1 0.8 1.8 0 0.8-0.3 1.5-0.9 1.9s-1.4 0.7-2.3 0.7c-1 0-1.8-0.2-2.6-0.5v-2.1l1.3-0.1v0.8c0 0.1 0 0.2 0.1 0.3s0.1 0.1 0.3 0.2C-1391.5 475.7-1391.2 475.8-1390.9 475.8zM-1382.7 468.1c1 0 1.9 0.4 2.6 1.1s1 1.8 1 3.3c0 1.5-0.3 2.6-1 3.4s-1.6 1.2-2.8 1.2c-1.2 0-2.1-0.4-2.8-1.1s-1-1.9-1-3.3c0-0.8 0.1-1.5 0.4-2.1s0.5-1.1 0.9-1.4C-1384.6 468.5-1383.8 468.1-1382.7 468.1zM-1385.1 472.6c0 2.1 0.7 3.2 2.2 3.2 0.8 0 1.4-0.3 1.7-1 0.3-0.6 0.4-1.3 0.4-2.1 0-0.8-0.1-1.4-0.4-2.1 -0.1-0.3-0.4-0.6-0.7-0.8s-0.7-0.3-1.2-0.3 -0.9 0.2-1.2 0.5c-0.3 0.3-0.6 0.7-0.7 1.1C-1385 471.5-1385.1 472-1385.1 472.6zM-1372 476.9h-6.2v-1.1l0.4 0c0.3 0 0.4-0.1 0.4-0.4v-6l-0.7 0v-1.1h3.1v1.1l-0.4 0c-0.3 0-0.4 0.2-0.4 0.4v5.8h2.2c0.1 0 0.2 0 0.2-0.1s0.1-0.2 0.1-0.3v-0.9l1.3 0.1V476.9zM-1371.2 476.9v-1.1l0.4 0c0.3 0 0.4-0.1 0.4-0.4v-6l-0.7 0v-1.1h3.6c1.3 0 2.3 0.3 3 1s1.1 1.7 1.1 3c0 0.8-0.1 1.5-0.3 2.2 -0.2 0.6-0.5 1.1-0.9 1.4 -0.7 0.7-1.7 1-2.8 1H-1371.2zM-1368.8 469.6v6.1h1.3c0.7 0 1.3-0.3 1.7-0.8s0.6-1.3 0.6-2.3c0-2-0.8-3-2.5-3H-1368.8z"/></g></g></g></g></g></g></svg>