<?xml version="1.0" encoding="UTF-8" standalone="no"?>
<svg width="53px" height="52px" viewBox="0 0 53 52" version="1.1" xmlns="http://www.w3.org/2000/svg" xmlns:xlink="http://www.w3.org/1999/xlink" xmlns:sketch="http://www.bohemiancoding.com/sketch/ns">
    <!-- Generator: Sketch 3.3.2 (12043) - http://www.bohemiancoding.com/sketch -->
    <title>shops-Pinterest-icon</title>
    <desc>Created with Sketch.</desc>
    <defs></defs>
    <g id="Profile-pages" stroke="none" stroke-width="1" fill="none" fill-rule="evenodd" sketch:type="MSPage">
        <g id="Shop-Profile-_4_all-other-categories" sketch:type="MSArtboardGroup" transform="translate(-378.000000, -1587.000000)" fill="#B8242A">
            <g id="Group" sketch:type="MSLayerGroup" transform="translate(182.000000, 1054.000000)">
                <g id="Find-us-on:" transform="translate(0.000000, 507.000000)" sketch:type="MSShapeGroup">
                    <g id="Group" transform="translate(1.000000, 26.000000)">
                        <path d="M221.791021,0 C207.432521,0 195.791021,11.6404633 195.791021,25.9976847 C195.791021,40.3581558 207.432521,51.9953695 221.791021,51.9953695 C236.149521,51.9953695 247.791021,40.3581558 247.791021,25.9976847 C247.791021,11.6404633 236.149521,0 221.791021,0 L221.791021,0 Z M224.384409,31.7868548 C222.821198,31.7868548 221.35244,30.917566 220.850261,29.9264143 C220.850261,29.9264143 220.008047,33.3661983 219.831733,34.0307574 C219.205189,36.3786496 217.361765,38.7265419 217.220084,38.9182729 C217.120907,39.0515097 216.898941,39.0092638 216.875327,38.8321564 C216.835971,38.533186 216.365276,35.5727295 216.917832,33.1582189 C217.19647,31.9444642 218.780147,25.0210256 218.780147,25.0210256 C218.780147,25.0210256 218.317323,24.0688699 218.317323,22.6601346 C218.317323,20.4438543 219.560965,18.7946428 221.110009,18.7946428 C222.426066,18.7946428 223.058907,19.8134168 223.058907,21.0352957 C223.058907,22.3985355 222.218267,24.4425829 221.782205,26.3338954 C221.420132,27.9181134 222.552004,29.2098603 224.066415,29.2098603 C226.807151,29.2098603 228.653724,25.5767205 228.653724,21.2692725 C228.653724,17.9968469 226.517492,15.5482146 222.63229,15.5482146 C218.244908,15.5482146 215.510469,18.9278796 215.510469,22.7007556 C215.510469,24.0022515 215.881987,24.9186607 216.464453,25.6270905 C216.732072,25.9536831 216.769854,26.0869199 216.672251,26.4606328 C216.601411,26.7336058 216.445562,27.3981649 216.37787,27.6581391 C216.281842,28.0383514 215.984313,28.1715882 215.653724,28.0318521 C213.632411,27.1820613 212.691021,24.8975378 212.691021,22.3270426 C212.691021,18.086213 216.155904,12.9988424 223.030571,12.9988424 C228.554547,12.9988424 232.191021,17.1243084 232.191021,21.5552441 C232.191021,27.4095388 229.034688,31.7868548 224.384409,31.7868548 L224.384409,31.7868548 Z" id="shops-Pinterest-icon"></path>
                    </g>
                </g>
            </g>
        </g>
    </g>
</svg>