<svg xmlns="http://www.w3.org/2000/svg" version="1.1" x="0" y="0" width="42" height="41" viewBox="-284 376 42 41" xml:space="preserve"><style type="text/css">
	.st0{fill:#326699;}
</style><title>shops-Intagram-icon</title><desc>Created with Sketch.</desc><g transform="translate(-387.000000, -1603.000000)"><g transform="translate(182.000000, 573.000000)"><g transform="translate(0.000000, 115.000000)"><g transform="translate(0.000000, 382.000000)"><g transform="translate(0.000000, 507.000000)"><g transform="translate(1.000000, 26.000000)"><path class="st0" d="M-58.9 376c-11.2 0-20.3 9.2-20.3 20.5 0 11.3 9.1 20.5 20.3 20.5 11.2 0 20.3-9.2 20.3-20.5C-38.6 385.2-47.7 376-58.9 376zM-67 384.9h17.8c1.7 0 3.1 1.4 3.1 3.1v17.8c0 1.7-1.4 3.1-3.1 3.1H-67c-1.7 0-3.1-1.4-3.1-3.1V388C-70.1 386.3-68.7 384.9-67 384.9zM-52.7 387.5c-0.6 0-1.1 0.5-1.1 1.1v2.6c0 0.6 0.5 1.1 1.1 1.1h2.7c0.6 0 1.1-0.5 1.1-1.1v-2.6c0-0.6-0.5-1.1-1.1-1.1H-52.7L-52.7 387.5zM-48.9 395H-51c0.2 0.7 0.3 1.3 0.3 2.1 0 4-3.3 7.2-7.5 7.2 -4.1 0-7.5-3.2-7.5-7.2 0-0.7 0.1-1.4 0.3-2.1h-2.2v10.1c0 0.5 0.4 1 1 1h16.7c0.5 0 1-0.4 1-1V395L-48.9 395zM-58.1 392.2c-2.7 0-4.8 2.1-4.8 4.7 0 2.6 2.2 4.7 4.8 4.7 2.7 0 4.8-2.1 4.8-4.7C-53.3 394.2-55.4 392.2-58.1 392.2L-58.1 392.2z"/></g></g></g></g></g></g></svg>