<?xml version="1.0" encoding="UTF-8" standalone="no"?>
<svg width="53px" height="53px" viewBox="0 0 53 53" version="1.1" xmlns="http://www.w3.org/2000/svg" xmlns:xlink="http://www.w3.org/1999/xlink" xmlns:sketch="http://www.bohemiancoding.com/sketch/ns">
    <!-- Generator: Sketch 3.3.2 (12043) - http://www.bohemiancoding.com/sketch -->
    <title>shops-Twitter-icon</title>
    <desc>Created with Sketch.</desc>
    <defs></defs>
    <g id="Profile-pages" stroke="none" stroke-width="1" fill="none" fill-rule="evenodd" sketch:type="MSPage">
        <g id="Shop-Profile-_4_all-other-categories" sketch:type="MSArtboardGroup" transform="translate(-248.000000, -1588.000000)" fill="#39A0CE">
            <g id="Group" sketch:type="MSLayerGroup" transform="translate(182.000000, 1054.000000)">
                <g id="Find-us-on:" transform="translate(0.000000, 507.000000)" sketch:type="MSShapeGroup">
                    <g id="Group" transform="translate(1.000000, 26.000000)">
                        <g id="shops-Twitter-icon" transform="translate(64.387651, 1.000000)">
                            <path d="M26.7795905,0.252348432 C12.4210905,0.252348432 0.779590463,11.8938484 0.779590463,26.2523484 C0.779590463,40.6140984 12.4210905,52.2523484 26.7795905,52.2523484 C41.1380905,52.2523484 52.7795905,40.6140984 52.7795905,26.2523484 C52.7795905,11.8938484 41.1380905,0.252348432 26.7795905,0.252348432 L26.7795905,0.252348432 Z M37.1178405,21.0339513 C37.1292155,21.2579168 37.1340905,21.4834821 37.1340905,21.7106472 C37.1340905,28.6503795 31.7683405,36.6523484 21.9565905,36.6523484 C18.9438405,36.6523484 16.1407155,35.7836821 13.7795905,34.2943112 C14.1988405,34.3407041 14.6229655,34.3663001 15.0519655,34.3663001 C17.5528405,34.3663001 19.8505905,33.5280291 21.6754655,32.1186459 C19.3435905,32.0754526 17.3724655,30.5572861 16.6948405,28.4728068 C17.0198405,28.5319977 17.3529655,28.5671923 17.6974655,28.5671923 C18.1849655,28.5671923 18.6562155,28.5016024 19.1014655,28.3816209 C16.6639655,27.8984952 14.8244655,25.7756218 14.8244655,23.2336129 L14.8244655,23.1680229 C15.5443405,23.5615624 16.3665905,23.7951265 17.2408405,23.823922 C15.8092155,22.8832668 14.8683405,21.2739143 14.8683405,19.4517947 C14.8683405,18.4903426 15.1315905,17.5864816 15.5898405,16.8122008 C18.2190905,19.989312 22.1515905,22.0801903 26.5845905,22.2993566 C26.4935905,21.9138159 26.4464655,21.5138774 26.4464655,21.1027407 C26.4464655,18.2023869 28.8352155,15.8523484 31.7813405,15.8523484 C33.3153405,15.8523484 34.7014655,16.4906502 35.6748405,17.5080937 C36.8887155,17.2745296 38.0310905,16.8377968 39.0629655,16.2346896 C38.6632155,17.4617008 37.8182155,18.4903426 36.7164655,19.1398427 C37.7954655,19.0150619 38.8240905,18.7303057 39.7795905,18.3143697 C39.0662155,19.3670077 38.1610905,20.2932652 37.1178405,21.0339513 L37.1178405,21.0339513 Z" id="twitter"></path>
                        </g>
                    </g>
                </g>
            </g>
        </g>
    </g>
</svg>