<?xml version="1.0" encoding="UTF-8" standalone="no"?>
<svg width="52px" height="53px" viewBox="0 0 52 53" version="1.1" xmlns="http://www.w3.org/2000/svg" xmlns:xlink="http://www.w3.org/1999/xlink" xmlns:sketch="http://www.bohemiancoding.com/sketch/ns">
    <!-- Generator: Sketch 3.3.2 (12043) - http://www.bohemiancoding.com/sketch -->
    <title>shops-facebook-icon</title>
    <desc>Created with Sketch.</desc>
    <defs></defs>
    <g id="Profile-pages" stroke="none" stroke-width="1" fill="none" fill-rule="evenodd" sketch:type="MSPage">
        <g id="Shop-Profile-_4_all-other-categories" sketch:type="MSArtboardGroup" transform="translate(-183.000000, -1587.000000)" fill="#35568C">
            <g id="Group" sketch:type="MSLayerGroup" transform="translate(182.000000, 1054.000000)">
                <g id="Find-us-on:" transform="translate(0.000000, 507.000000)" sketch:type="MSShapeGroup">
                    <g id="Group" transform="translate(1.000000, 26.000000)">
                        <g id="shops-facebook-icon">
                            <path d="M26,0.217421603 C11.6415,0.217421603 0,11.8589216 0,26.2174216 C0,40.5791716 11.6415,52.2174216 26,52.2174216 C40.360125,52.2174216 52,40.5791716 52,26.2174216 C52,11.8589216 40.360125,0.217421603 26,0.217421603 L26,0.217421603 Z M30.7421329,26.2271716 L27.2145105,26.2271716 L27.2145105,39.2174216 L21.9875874,39.2174216 L21.9875874,26.2271716 L19.5,26.2271716 L19.5,21.6381716 L21.9875874,21.6381716 L21.9875874,18.6676716 C21.9875874,16.5405466 22.9646853,13.2174216 27.2617133,13.2174216 L31.1339161,13.2336716 L31.1339161,17.6894216 L28.3237762,17.6894216 C27.8659091,17.6894216 27.2145105,17.9250466 27.2145105,18.9406716 L27.2145105,21.6381716 L31.2,21.6381716 L30.7421329,26.2271716 L30.7421329,26.2271716 Z" id="facebook"></path>
                        </g>
                    </g>
                </g>
            </g>
        </g>
    </g>
</svg>