<svg xmlns="http://www.w3.org/2000/svg" version="1.1" x="0" y="0" width="40" height="40" viewBox="-263 263.9 40 40" xml:space="preserve"><style type="text/css">
	.st0{fill:#DC4E41;}
	.st1{fill:#FFFFFF;}
</style><title>Google +</title><desc>Created with Sketch.</desc><g transform="translate(102.745718, 0.000000)"><path class="st0" d="M-365.6 283.9c0 11 8.9 20 19.8 20s19.8-9 19.8-20 -8.9-20-19.8-20S-365.6 272.9-365.6 283.9z"/><path class="st1" d="M-349.9 283.3v2.6h4.4c-0.2 1.2-1.4 3.4-4.4 3.4 -2.6 0-4.9-2.2-4.9-5 0-2.7 2.1-5 4.9-5 1.6 0 2.5 0.7 3.1 1.2l2.1-2c-1.4-1.3-3.1-2-5.3-2 -4.3 0-7.8 3.5-7.8 7.8 0 4.3 3.5 7.8 7.8 7.8 4.5 0 7.5-3.1 7.5-7.6 0-0.5-0.1-0.9-0.1-1.3h-7.4V283.3z"/><path class="st1" d="M-333.3 283.3h-2.2v-2.2h-2.2v2.2h-2.2v2.2h2.2v2.2h2.2v-2.2h2.2V283.3z"/></g></svg>