<?xml version="1.0" encoding="utf-8"?>
<!-- Generator: Adobe Illustrator 19.0.0, SVG Export Plug-In . SVG Version: 6.00 Build 0)  -->
<svg version="1.1" id="Layer_1" xmlns:sketch="http://www.bohemiancoding.com/sketch/ns"
	 xmlns="http://www.w3.org/2000/svg" xmlns:xlink="http://www.w3.org/1999/xlink" x="0px" y="0px" width="35px" height="35px"
	 viewBox="-266 266.93 35 35" style="enable-background:new -266 266.93 35 35;" xml:space="preserve">
<style type="text/css">
	.st0{fill:#FFFFFF;}
</style>
<title>Google button icon</title>
<desc>Created with Sketch.</desc>
<g id="Profile-pages" sketch:type="MSPage">
	<g id="Shop-Profile-_4_all-other-categories" transform="translate(-285.000000, -1603.000000)" sketch:type="MSArtboardGroup">
		<g id="Company-info" transform="translate(182.000000, 573.000000)" sketch:type="MSLayerGroup">
			<g id="Find-us-on:" transform="translate(0.000000, 382.000000)">
				<g transform="translate(0.000000, 507.000000)">
					<g id="Group" transform="translate(1.000000, 26.000000)">
						<g id="shops-Google-icon" transform="translate(102.745718, 0.000000)">
							<g id="Shape" transform="translate(8.000000, 13.000000)">
								<path class="st0" d="M-263.563,385.042v3.749h6.248c-0.278,1.666-1.944,4.86-6.248,4.86c-3.749,0-6.942-3.193-6.942-7.081
									s3.055-7.081,6.942-7.081c2.222,0,3.61,0.972,4.443,1.666l3.055-2.916c-1.944-1.805-4.443-2.916-7.498-2.916
									c-6.109,0-11.108,4.998-11.108,11.108s4.998,11.108,11.108,11.108c6.387,0,10.691-4.443,10.691-10.83
									c0-0.694-0.139-1.25-0.139-1.805h-10.552V385.042z"/>
								<path id="Shape-Copy" class="st0" d="M-239.821,385.042h-3.193v-3.193h-3.193v3.193h-3.193v3.193h3.193v3.193h3.193v-3.193
									h3.193"/>
							</g>
						</g>
					</g>
				</g>
			</g>
		</g>
	</g>
</g>
</svg>
