<?xml version="1.0" encoding="utf-8"?>
<!-- Generator: Adobe Illustrator 20.0.0, SVG Export Plug-In . SVG Version: 6.00 Build 0)  -->
<svg version="1.1" id="Layer_1" xmlns:sketch="http://www.bohemiancoding.com/sketch/ns"
	 xmlns="http://www.w3.org/2000/svg" xmlns:xlink="http://www.w3.org/1999/xlink" x="0px" y="0px" width="120px" height="72.5px"
	 viewBox="0 0 120 72.5" style="enable-background:new 0 0 120 72.5;" xml:space="preserve">
<style type="text/css">
	.st0{fill:#FFFFFF;}
	.st1{fill:#8D6644;}
	.st2{fill:#C1C1C1;}
	.st3{fill:none;}
	.st4{fill:#2695BC;}
	.st5{fill:#9E7D60;}
	.st6{fill:#4A4A4A;}
	.st7{fill:#10A5E0;}
	.st8{fill:#F79F11;}
	.st9{fill:#056F31;}
	.st10{fill:#D7D7D8;}
	.st11{fill:#CDCDCC;}
	.st12{fill:#F3F3F3;}
	.st13{fill:#E1E0E0;}
	.st14{fill:#83B527;}
	.st15{fill:#31B9E8;}
	.st16{fill:#5E5E61;}
	.st17{fill:#1692C5;}
	.st18{fill:#2D2D2D;}
	.st19{fill:#84838C;}
	.st20{fill:#364B99;}
	.st21{fill:#E9EDF1;}
	.st22{fill:#E40076;}
	.st23{fill:#103151;}
	.st24{fill:#A2C654;}
	.st25{fill:#233978;}
	.st26{fill:#EC6F1D;}
	.st27{fill:#78428E;}
	.st28{fill:#43224E;}
	.st29{fill:#1DC3EF;}
	.st30{fill:#EF45B2;}
	.st31{fill:#2293D1;}
	.st32{fill:#0B4B84;}
	.st33{fill:#31B1DD;}
	.st34{fill:#EACB49;}
	.st35{opacity:0.2;fill:#FFFFFF;enable-background:new    ;}
	.st36{fill:#52BCCE;}
	.st37{fill:#BC2359;}
	.st38{fill:#197EC1;}
	.st39{fill:url(#SVGID_1_);}
	.st40{fill:url(#SVGID_4_);}
	.st41{fill:#83C1E9;}
	.st42{fill:#22B573;}
	.st43{fill:#074425;}
</style>
<g>
	<path id="Shape-Copy_14_" sketch:type="MSShapeGroup" class="st6" d="M116,4.3l-7.3-4.2c-0.2-0.1-0.3-0.1-0.5,0s-0.3,0.2-0.3,0.4
		v1.9l0,0c-0.2,0-0.4,0.1-0.6,0.2c-0.8,0.2-1.5,0.5-2.4,0.9c-0.8,0.3-1.6,0.8-2.3,1.3c-0.5,0.4-1,0.8-1.5,1.3
		c-1.2,1.3-1.9,3-1.8,4.7c0,0.3,0,0.6,0.1,0.8c0,0.2,0.2,0.4,0.5,0.4l0,0c0.2,0,0.5-0.2,0.5-0.4c0.1-0.7,0.4-1.4,0.7-1.9
		c0.4-0.6,0.9-1.2,1.5-1.6c0.5-0.3,1.1-0.6,1.7-0.8c0.7-0.2,1.5-0.4,2.4-0.4c0.4,0,0.8,0,1.2,0c0,0,0,0,0.1,0v1.8
		c0,0.2,0.1,0.3,0.2,0.4c0.2,0.1,0.3,0.1,0.5,0L116,5c0.2-0.1,0.3-0.2,0.3-0.4C116.2,4.5,116.1,4.4,116,4.3L116,4.3z"/>
	<g>
		<g>
			<path class="st42" d="M6.7,37.9c-3.8-0.9-5.6-2.6-5.6-5.6c0-4,2.8-6.3,7.7-6.3c1.8,0,3.7,0.3,5.1,0.6l2,0.5
				c0.3,0.1,0.5,0.3,0.4,0.6l-1.2,4.1c-0.1,0.3-0.3,0.4-0.6,0.4l-2-0.5c-1.1-0.2-2.7-0.4-3.7-0.4c-1,0-1.6,0.4-1.6,1
				c0,0.4,0.4,0.8,1,1l3.3,0.8c3.8,0.9,5.5,2.7,5.5,5.8c0,4-2.8,6.3-7.6,6.3c-1.7,0-3.8-0.2-6-0.7L1.3,45C1,44.9,0.9,44.6,1,44.3
				l1.2-4.2c0.1-0.3,0.3-0.4,0.6-0.4l1.9,0.5c1.7,0.4,4.1,0.6,4.8,0.6c1,0,1.5-0.4,1.5-1.1c0-0.5-0.4-1-1.1-1.2L6.7,37.9z"/>
			<path class="st42" d="M38.7,27.6c0.4,0.6,0.6,0.6,1.3,0c1.5-1.3,3.2-1.6,4.3-1.6c1.7,0,3.5,0.6,4.8,1.8c0.8,0.7,1.2,0.5,1.9,0
				c1.9-1.5,3.4-1.7,4.5-1.7c4.7,0,7.3,2.7,7.3,7.3v12c0,0.3-0.2,0.5-0.5,0.5H57c-0.3,0-0.5-0.2-0.5-0.5V34.1c0-1.6-0.6-2.5-2.1-2.5
				c-1.8,0-2.8,1.4-2.8,4v9.7c0,0.3-0.2,0.5-0.5,0.5h-5.2c-0.3,0-0.5-0.2-0.5-0.5V34c0-1.5-0.7-2.4-2.1-2.4c-1.9,0-2.8,1.4-2.8,4
				v9.7c0,0.3-0.2,0.5-0.5,0.5h-5.2c-0.3,0-0.5-0.2-0.5-0.5V26.9c0-0.3,0.2-0.5,0.5-0.5h2.8c0.3,0,0.5,0.1,0.6,0.4L38.7,27.6z"/>
			<path class="st42" d="M71.4,27.7c0.3,0.5,0.6,0.4,1,0c1.7-1.4,3.3-1.8,5-1.8c5.2,0,8.5,3.9,8.5,10.1c0,6.2-3.5,10.1-9.1,10.1
				c-1.1,0-1.9-0.2-2.6-0.5l-0.9-0.4v8.5c0,0.3-0.2,0.5-0.5,0.5h-5.2c-0.3,0-0.5-0.2-0.5-0.5V26.9c0-0.3,0.2-0.5,0.5-0.5h2.8
				c0.3,0,0.5,0.1,0.6,0.4L71.4,27.7z M73.8,40.2c0.7,0.4,1.6,0.5,2.4,0.5c2.3,0,3.5-1.7,3.5-4.6c0-2.8-1.3-4.5-3.5-4.5
				c-2,0-3.2,1.5-3.2,3.9v4.4L73.8,40.2z"/>
			<path class="st42" d="M95.7,39.9c0,0.4,0.2,0.7,0.5,0.7c0.1,0,0.2,0,0.2,0c0.3-0.1,0.6,0,0.7,0.3l1.6,4.1c0.1,0.3,0,0.6-0.2,0.7
				c-0.7,0.3-1.6,0.5-2.3,0.5c-4.2,0-6.8-2.3-6.8-6.3V17.6c0-0.3,0.2-0.5,0.5-0.5h5.2c0.3,0,0.5,0.2,0.5,0.5V39.9z"/>
			<path class="st42" d="M109.5,54c-0.1,0.3-0.3,0.4-0.6,0.4h-5.3c-0.4,0-0.5-0.2-0.4-0.6l1.4-3.8c1.3-3.6,0.9-6.2-0.9-11.1L99.3,27
				c-0.2-0.4,0-0.6,0.4-0.6h5.4c0.3,0,0.5,0.1,0.6,0.4l1.6,4.5c0.7,2,1.5,5.3,1.8,7.2c0.1,0.4,0.6,0.4,0.7,0
				c0.3-1.9,1.1-5.1,1.8-7.2l1.5-4.4c0.1-0.3,0.3-0.4,0.6-0.4h5.4c0.4,0,0.6,0.2,0.4,0.6L109.5,54z"/>
			<path class="st43" d="M25.9,31h-1.7c-1,0-1.6,0.4-1.8,1.3l-1.2,13.5c-0.2,1.3,3,5.9,4,5.9h0c1,0,4.2-4.7,4-6L28,32.2
				c-0.2-0.9-0.8-1.3-1.8-1.3H25.9 M26.9,21.9h-1.6h-1.7c-1,0-1.9,0.8-1.8,1.8l0.6,3.6c0.2,1.1,0.8,1.4,1.8,1.4h1.1h0.9
				c1,0,1.6-0.4,1.8-1.5l0.6-3.5C28.8,22.7,27.9,21.9,26.9,21.9z"/>
		</g>
		<g>
			<path class="st43" d="M2.3,65c-1.2-0.3-1.8-1-1.8-2c0-1.3,1-2.1,2.8-2.1c0.7,0,1.4,0.1,1.9,0.2l0.6,0.2c0.1,0,0.1,0.1,0.1,0.2
				l-0.2,0.6c0,0.1-0.1,0.1-0.2,0.1L5,62c-0.4-0.1-1.1-0.2-1.6-0.2c-1.1,0-1.8,0.5-1.8,1.2c0,0.6,0.3,0.9,1.1,1.2l1.9,0.5
				c1.3,0.3,1.8,1,1.8,2.1c0,1.4-1.1,2.3-3,2.3c-1,0-1.8-0.1-2.5-0.4l-0.4-0.1c-0.1,0-0.1-0.1-0.1-0.2l0.2-0.7
				c0-0.1,0.1-0.1,0.2-0.1l0.4,0.1C1.8,67.9,2.6,68,3.4,68c1.2,0,1.9-0.5,1.9-1.3c0-0.6-0.3-1-1.1-1.2L2.3,65z"/>
			<path class="st43" d="M9.4,61c0.5-0.1,1.1-0.2,1.8-0.2c2,0,3.3,1.2,3.3,3.2v4.7c0,0.1,0,0.1-0.1,0.1h-0.5c-0.1,0-0.1,0-0.2-0.1
				l0-0.7c0-0.2-0.2-0.2-0.3,0c-0.6,0.7-1.4,1.1-2.6,1.1C9,69,8,68.1,8,66.6c0-1.4,1-2.4,2.9-2.4h2.5V64c0-1.4-0.8-2.2-2.2-2.2
				c-0.6,0-1.1,0.1-1.5,0.2l-0.6,0.2c-0.1,0-0.2,0-0.2-0.1l-0.2-0.6c0-0.1,0-0.2,0.1-0.2L9.4,61z M10.9,65.1c-1.3,0-1.8,0.6-1.8,1.4
				c0,0.9,0.6,1.5,1.6,1.5c1.7,0,2.7-1,2.7-2.7v-0.2H10.9z"/>
			<path class="st43" d="M17.9,67.4c0,0.4,0.1,0.6,0.4,0.6c0,0,0.1,0,0.1,0c0.1,0,0.1,0,0.2,0.1l0.3,0.6c0,0.1,0,0.2-0.1,0.2
				c-0.2,0-0.3,0.1-0.5,0.1c-0.9,0-1.5-0.6-1.5-1.6V57.3c0-0.1,0-0.1,0.1-0.1h0.8c0.1,0,0.1,0,0.1,0.1V67.4z"/>
			<path class="st43" d="M25.8,68.7C25.2,68.9,24.6,69,24,69c-2.3,0-3.6-1.6-3.6-4.1c0-2.5,1.4-4.1,3.6-4.1c1.9,0,3,0.9,3,2.4
				c0,1.2-0.7,1.8-2.2,2.1l-3.2,0.5c0.2,1.4,1.1,2.2,2.5,2.2c0.6,0,1.1-0.1,1.5-0.2l0.5-0.1c0.1,0,0.2,0,0.2,0.1l0.2,0.7
				c0,0.1,0,0.2-0.1,0.2L25.8,68.7z M24.6,64.4c0.9-0.1,1.3-0.5,1.3-1.2c0-0.9-0.7-1.5-1.9-1.5c-1.5,0-2.5,1-2.5,3.1L24.6,64.4z"/>
			<path class="st43" d="M30.6,65c-1.2-0.3-1.8-1-1.8-2c0-1.3,1-2.1,2.8-2.1c0.7,0,1.4,0.1,1.9,0.2l0.6,0.2c0.1,0,0.1,0.1,0.1,0.2
				l-0.2,0.6c0,0.1-0.1,0.1-0.2,0.1L33.3,62c-0.4-0.1-1.1-0.2-1.6-0.2c-1.1,0-1.8,0.5-1.8,1.2c0,0.6,0.3,0.9,1.1,1.2l1.9,0.5
				c1.3,0.3,1.8,1,1.8,2.1c0,1.4-1.1,2.3-3,2.3c-1,0-1.8-0.1-2.5-0.4l-0.4-0.1c-0.1,0-0.1-0.1-0.1-0.2l0.2-0.7
				c0-0.1,0.1-0.1,0.2-0.1l0.4,0.1c0.6,0.2,1.3,0.3,2.2,0.3c1.2,0,1.9-0.5,1.9-1.3c0-0.6-0.3-1-1.1-1.2L30.6,65z"/>
			<path class="st43" d="M41.9,69.8c0,1-0.4,1.7-1.2,2.3l-0.5,0.4c-0.1,0.1-0.2,0-0.2,0l-0.4-0.6c0-0.1,0-0.1,0-0.2l0.5-0.4
				c0.5-0.3,0.7-0.8,0.7-1.5v-7.9h-0.8c-0.1,0-0.1,0-0.1-0.1v-0.7c0-0.1,0-0.1,0.1-0.1h1.7c0.1,0,0.1,0,0.1,0.1V69.8z M41.9,57.8
				c0,0.5-0.2,0.7-0.7,0.7c-0.4,0-0.7-0.3-0.7-0.7c0-0.5,0.3-0.7,0.7-0.7C41.7,57.1,41.9,57.4,41.9,57.8z"/>
			<path class="st43" d="M51.2,64.9c0,2.5-1.4,4.1-3.6,4.1c-2.2,0-3.6-1.6-3.6-4.1c0-2.5,1.4-4.1,3.6-4.1
				C49.9,60.8,51.2,62.3,51.2,64.9z M45.1,64.9c0,2,0.9,3.1,2.5,3.1c1.6,0,2.5-1.2,2.5-3.1c0-1.9-1-3.1-2.5-3.1
				C46.1,61.8,45.1,62.9,45.1,64.9z"/>
			<path class="st43" d="M54.4,60.4c0,0.7,0,1.2-0.1,1.7c0,0.2,0.1,0.2,0.2,0.1c0.5-0.8,1.4-1.3,2.5-1.3c2.1,0,3.4,1.6,3.4,4.1
				c0,2.6-1.4,4.1-3.6,4.1c-0.8,0-1.5-0.2-2.1-0.4l-1.2-0.5c-0.1,0-0.1-0.1-0.1-0.2V57.3c0-0.1,0-0.1,0.1-0.1h0.8
				c0.1,0,0.1,0,0.1,0.1V60.4z M55.1,67.7c0.4,0.2,1,0.3,1.7,0.3c1.6,0,2.5-1.2,2.5-3.1c0-1.9-0.9-3.1-2.4-3.1
				c-1.7,0-2.5,1.4-2.5,3.3v2.3L55.1,67.7z"/>
			<path class="st43" d="M64,65c-1.2-0.3-1.8-1-1.8-2c0-1.3,1-2.1,2.8-2.1c0.7,0,1.4,0.1,1.9,0.2l0.6,0.2c0.1,0,0.1,0.1,0.1,0.2
				l-0.2,0.6c0,0.1-0.1,0.1-0.2,0.1L66.7,62c-0.4-0.1-1.1-0.2-1.6-0.2c-1.1,0-1.8,0.5-1.8,1.2c0,0.6,0.3,0.9,1.1,1.2l1.9,0.5
				c1.3,0.3,1.8,1,1.8,2.1c0,1.4-1.1,2.3-3,2.3c-1,0-1.8-0.1-2.5-0.4l-0.4-0.1c-0.1,0-0.1-0.1-0.1-0.2l0.2-0.7
				c0-0.1,0.1-0.1,0.2-0.1l0.4,0.1c0.6,0.2,1.3,0.3,2.2,0.3c1.2,0,1.9-0.5,1.9-1.3c0-0.6-0.3-1-1.1-1.2L64,65z"/>
		</g>
	</g>
</g>
</svg>
