<?xml version="1.0" encoding="utf-8"?>
<!-- Generator: Adobe Illustrator 23.1.1, SVG Export Plug-In . SVG Version: 6.00 Build 0)  -->
<!DOCTYPE svg PUBLIC "-//W3C//DTD SVG 1.1//EN" "http://www.w3.org/Graphics/SVG/1.1/DTD/svg11.dtd" [
	<!ENTITY st0 "fill:#25292C;">
]>
<svg version="1.1" id="Layer_1" xmlns="http://www.w3.org/2000/svg" xmlns:xlink="http://www.w3.org/1999/xlink" x="0px" y="0px"
	 width="351px" height="61px" viewBox="0 0 351 61" style="enable-background:new 0 0 351 61;" xml:space="preserve">
<path style="&st0;" d="M13.5,29.7c1.3,0.3,2.4,0.9,3.2,1.9c0.8,1,1.2,2.1,1.2,3.5c0,1.8-0.6,3.3-1.8,4.3c-1.2,1.1-3,1.6-5.3,1.6H2.1
	V19.1h8.6c2.2,0,3.9,0.5,5,1.5s1.8,2.3,1.8,4c0,1.4-0.4,2.5-1.1,3.4C15.7,28.9,14.7,29.4,13.5,29.7z M5.7,28.5H10
	c1.2,0,2.2-0.3,2.8-0.9c0.7-0.6,1-1.4,1-2.4c0-1-0.3-1.8-1-2.4c-0.7-0.6-1.6-0.9-3-0.9H5.7V28.5z M10.1,38.1c1.3,0,2.4-0.3,3.1-0.9
	c0.7-0.6,1.1-1.5,1.1-2.6c0-1.1-0.4-2-1.1-2.6c-0.7-0.6-1.8-0.9-3.1-0.9H5.7v7H10.1z M27,19.1v13c0,1.9,0.4,3.4,1.3,4.3
	c0.9,1,2.1,1.4,3.6,1.4c1.5,0,2.7-0.5,3.6-1.4c0.9-1,1.3-2.4,1.3-4.3v-13h3.5v13c0,3-0.8,5.3-2.3,6.8c-1.6,1.5-3.6,2.3-6.1,2.3
	c-2.5,0-4.5-0.8-6.1-2.3c-1.5-1.5-2.3-3.8-2.3-6.8v-13H27z M63.2,19.1L55.9,33v8h-3.6v-8l-7.3-13.9h4.1l5,10.1l5-10.1H63.2z
	 M70.9,37.1V41h-4v-3.9H70.9z M100.3,35.2c0,1.1-0.3,2.1-0.8,3c-0.5,0.9-1.3,1.7-2.4,2.2s-2.3,0.8-3.9,0.8c-1.5,0-2.8-0.3-4-0.8
	c-1.2-0.5-2.1-1.3-2.8-2.2s-1.1-2-1.2-3.3H89c0.1,1,0.5,1.8,1.2,2.4s1.7,1,2.9,1c1.1,0,1.9-0.3,2.5-0.9s0.9-1.3,0.9-2.2
	c0-0.8-0.2-1.4-0.7-1.9c-0.4-0.5-1-0.9-1.6-1.2c-0.6-0.3-1.5-0.6-2.6-1c-1.4-0.4-2.5-0.9-3.3-1.3s-1.6-1.1-2.2-1.9
	c-0.6-0.8-0.9-1.9-0.9-3.3c0-1.2,0.3-2.2,0.9-3.1s1.4-1.6,2.5-2.1c1.1-0.5,2.3-0.7,3.7-0.7c2.2,0,4,0.5,5.3,1.6
	c1.3,1.1,2.1,2.5,2.2,4.2H96c-0.1-0.8-0.5-1.5-1.2-2.1c-0.6-0.6-1.5-0.9-2.6-0.9c-1,0-1.8,0.3-2.4,0.8c-0.6,0.5-0.9,1.2-0.9,2.2
	c0,0.7,0.2,1.4,0.6,1.8c0.4,0.5,0.9,0.9,1.6,1.1c0.6,0.3,1.5,0.6,2.6,1c1.4,0.4,2.5,0.9,3.4,1.3c0.9,0.4,1.6,1.1,2.2,1.9
	S100.3,33.8,100.3,35.2z M109.7,22v6.6h8.1v2.7h-8.1v6.8h9V41h-12.5V19.1h12.5V22H109.7z M127.9,38.2h7.6V41h-11.1V19.1h3.5V38.2z
	 M144.1,38.2h7.6V41h-11.1V19.1h3.5V38.2z M159.5,37.1V41h-4v-3.9H159.5z M193.2,30c0,2.2-0.4,4.1-1.3,5.8c-0.9,1.6-2.2,2.9-3.9,3.8
	c-1.7,0.9-3.8,1.4-6.2,1.4h-7.3V19.1h7.3c2.4,0,4.5,0.4,6.2,1.3s3,2.2,3.9,3.8C192.8,25.9,193.2,27.8,193.2,30z M181.5,37.8
	c2.6,0,4.6-0.7,6-2c1.4-1.4,2.1-3.3,2.1-5.7s-0.7-4.4-2.1-5.7c-1.4-1.4-3.4-2-6-2H178v15.6H181.5z M202.6,19.1V41h-3.5V19.1H202.6z
	 M223.6,35.2c0,1.1-0.3,2.1-0.8,3c-0.5,0.9-1.3,1.7-2.4,2.2s-2.3,0.8-3.9,0.8c-1.5,0-2.8-0.3-4-0.8c-1.2-0.5-2.1-1.3-2.8-2.2
	c-0.7-1-1.1-2-1.2-3.3h3.8c0.1,1,0.5,1.8,1.2,2.4c0.7,0.7,1.7,1,2.9,1c1.1,0,1.9-0.3,2.5-0.9s0.9-1.3,0.9-2.2c0-0.8-0.2-1.4-0.7-1.9
	s-1-0.9-1.6-1.2c-0.6-0.3-1.5-0.6-2.6-1c-1.4-0.4-2.5-0.9-3.3-1.3s-1.6-1.1-2.2-1.9c-0.6-0.8-0.9-1.9-0.9-3.3c0-1.2,0.3-2.2,0.9-3.1
	c0.6-0.9,1.4-1.6,2.5-2.1c1.1-0.5,2.3-0.7,3.7-0.7c2.2,0,4,0.5,5.3,1.6c1.3,1.1,2.1,2.5,2.2,4.2h-3.8c-0.1-0.8-0.5-1.5-1.2-2.1
	c-0.6-0.6-1.5-0.9-2.6-0.9c-1,0-1.8,0.3-2.4,0.8s-0.9,1.2-0.9,2.2c0,0.7,0.2,1.4,0.6,1.8c0.4,0.5,0.9,0.9,1.6,1.1
	c0.6,0.3,1.5,0.6,2.6,1c1.4,0.4,2.5,0.9,3.4,1.3s1.6,1.1,2.2,1.9C223.3,32.7,223.6,33.8,223.6,35.2z M239.2,18.9
	c2.7,0,4.9,0.7,6.7,2c1.8,1.4,3,3.2,3.6,5.5h-3.8c-0.5-1.3-1.3-2.4-2.5-3.1c-1.1-0.8-2.5-1.2-4.1-1.2c-1.3,0-2.5,0.3-3.5,1
	c-1,0.6-1.8,1.6-2.4,2.7s-0.9,2.6-0.9,4.2c0,1.6,0.3,3,0.9,4.1s1.4,2.1,2.4,2.7c1,0.6,2.2,1,3.5,1c1.6,0,3-0.4,4.1-1.2
	c1.1-0.8,1.9-1.8,2.5-3.1h3.8c-0.6,2.3-1.8,4.2-3.6,5.5c-1.8,1.4-4,2-6.7,2c-2.1,0-3.9-0.5-5.5-1.4s-2.8-2.3-3.7-3.9
	c-0.9-1.7-1.3-3.6-1.3-5.8c0-2.2,0.4-4.1,1.3-5.8c0.9-1.7,2.1-3,3.7-4S237.1,18.9,239.2,18.9z M265.5,18.8c2,0,3.9,0.5,5.5,1.4
	c1.6,1,2.9,2.3,3.9,4c0.9,1.7,1.4,3.6,1.4,5.8s-0.5,4.1-1.4,5.8c-0.9,1.7-2.2,3-3.9,4c-1.6,1-3.5,1.4-5.5,1.4c-2,0-3.9-0.5-5.5-1.4
	s-2.9-2.3-3.9-4c-1-1.7-1.4-3.6-1.4-5.8s0.5-4.1,1.4-5.8c1-1.7,2.2-3,3.9-4C261.6,19.3,263.4,18.8,265.5,18.8z M265.5,22.1
	c-1.4,0-2.7,0.3-3.8,1c-1.1,0.6-1.9,1.6-2.6,2.8c-0.6,1.2-0.9,2.6-0.9,4.2c0,1.6,0.3,3,0.9,4.2c0.6,1.2,1.5,2.1,2.6,2.8
	c1.1,0.6,2.3,1,3.8,1c1.4,0,2.6-0.3,3.7-1c1.1-0.6,1.9-1.6,2.5-2.8c0.6-1.2,0.9-2.6,0.9-4.2c0-1.6-0.3-3-0.9-4.2s-1.5-2.1-2.5-2.8
	C268.1,22.4,266.8,22.1,265.5,22.1z M284.3,19.1l6.3,18.1l6.3-18.1h3.8L292.9,41h-4.5l-7.9-21.9H284.3z M309.2,22v6.6h8.1v2.7h-8.1
	v6.8h9V41h-12.5V19.1h12.5V22H309.2z M335.5,41l-5.5-8.7h-2.5V41H324V19.1h7.7c2.5,0,4.4,0.6,5.7,1.8c1.3,1.2,1.9,2.8,1.9,4.8
	c0,1.7-0.5,3.1-1.4,4.2s-2.4,1.8-4.2,2.1l5.7,8.9H335.5z M327.5,29.7h3.9c2.9,0,4.3-1.3,4.3-3.8c0-1.2-0.3-2.1-1-2.8
	c-0.7-0.7-1.8-1-3.2-1h-3.9V29.7z M347.6,37.1V41h-4v-3.9H347.6z"/>
</svg>
