<svg xmlns="http://www.w3.org/2000/svg" version="1.1" x="0" y="0" width="351" height="61" viewBox="-122 390.9 351 61" xml:space="preserve"><style type="text/css">
	.st0{fill:#343737;}
</style><title>Tagline</title><desc>Created with Sketch.</desc><path class="st0" d="M-104.7 414.7c1.3 0.4 2.5 0.9 3.7 1.5 1.2 0.6 2.2 1.4 3 2.2 0.8 0.9 1.2 1.9 1.2 3 0 1.1-0.3 2.1-1 3 -0.6 0.9-1.5 1.8-2.5 2.5 -1 0.8-2.2 1.4-3.5 2 -1.3 0.6-2.6 1.1-3.9 1.5 -1.3 0.4-2.6 0.7-3.8 0.9 -1.2 0.2-2.3 0.3-3.1 0.3 -0.3 0.8-0.7 1.4-1.1 1.6 -0.4 0.2-1 0.3-1.9 0.3 -0.3 0-0.6 0-1-0.1 -0.4-0.1-0.6-0.3-0.6-0.6 0-0.6 0-1.2 0.1-1.8 0-0.6 0.1-1.2 0.2-1.8 0.1-1.1 0.2-2.1 0.3-3.2s0.2-2.1 0.3-3.2c0.4-3.5 0.8-6.9 1.4-10.2 0.5-3.4 1.2-6.8 1.9-10.2 -0.7 0.1-1.5 0.1-2.2 0.2 -0.7 0-1.4 0.1-2.1 0.2 -0.3 0-0.5 0.1-0.7 0.1s-0.5 0.1-0.7 0.1c-0.5 0-0.7-0.2-0.7-0.6 0-0.5 0.2-0.8 0.7-0.9 0.5-0.1 0.9-0.2 1.2-0.3 0.8-0.1 1.7-0.2 2.5-0.4 0.8-0.1 1.7-0.2 2.5-0.3 0.3-1.1 0.5-2.2 0.9-3.3 0.4-1.1 1.1-1.9 2.3-2.4 0.6-0.3 1.2-0.4 1.8-0.4 0.1 0 0.3 0 0.5 0 0.2 0 0.3 0.1 0.3 0.3 0 0.1 0 0.2-0.1 0.3 -0.3 0.7-0.6 1.6-0.7 2.6 -0.2 1-0.3 1.9-0.5 2.7 0.5 0 1.1 0 2 0 0.8 0 1.8 0.1 2.8 0.2 1 0.1 2 0.2 3 0.4 1 0.2 1.9 0.5 2.7 0.8 0.8 0.3 1.5 0.7 2 1.2s0.8 1.1 0.8 1.8c0 0.6-0.2 1.3-0.6 1.9 -0.4 0.6-0.9 1.3-1.6 1.9 -0.7 0.6-1.4 1.2-2.2 1.8 -0.8 0.6-1.6 1.1-2.4 1.5 -0.8 0.4-1.6 0.8-2.4 1.2 -0.8 0.3-1.4 0.5-2 0.7C-107 414-105.9 414.3-104.7 414.7L-104.7 414.7 -104.7 414.7zM-113.6 421c-0.3 2-0.5 4.1-0.5 6.1v1c0 0.3 0 0.6 0 0.9 0.5 0 1.3-0.1 2.2-0.3s1.9-0.4 3-0.7c1.1-0.3 2.2-0.6 3.2-1 1.1-0.4 2.1-0.8 3-1.3 0.9-0.5 1.6-1 2.2-1.6 0.6-0.6 0.8-1.2 0.8-1.9 0-0.8-0.2-1.5-0.7-2.1 -0.5-0.6-1.1-1.2-1.9-1.7 -0.8-0.5-1.6-0.9-2.6-1.3 -1-0.4-1.9-0.7-2.9-1s-1.9-0.5-2.8-0.7c-0.9-0.2-1.6-0.3-2.2-0.4C-113 416.9-113.3 418.9-113.6 421L-113.6 421 -113.6 421zM-100.2 404.2c-0.4-0.3-1-0.6-1.7-0.9 -0.7-0.2-1.5-0.4-2.3-0.6 -0.8-0.1-1.7-0.2-2.5-0.3 -0.8-0.1-1.6-0.1-2.2-0.1 -0.7 0-1.2 0-1.5 0 -0.4 1.7-0.7 3.5-1 5.2 -0.3 1.7-0.6 3.5-0.9 5.2 0.8-0.2 1.9-0.5 3.3-0.9 1.4-0.4 2.8-0.9 4.2-1.6 1.4-0.6 2.6-1.3 3.7-2.1s1.6-1.7 1.6-2.6C-99.5 404.9-99.7 404.5-100.2 404.2L-100.2 404.2 -100.2 404.2zM-93.1 420.9c0.2-1.5 0.5-3 1-4.3 0.3-0.7 0.7-1.3 1.3-1.7 0.6-0.4 1.3-0.6 2-0.6 0.7 0 1.1 0.4 1.1 1.1 0 0.3 0 0.5-0.1 0.8 -0.1 0.3-0.2 0.5-0.2 0.8 -0.3 0.8-0.5 1.7-0.8 2.6 -0.3 1-0.5 1.9-0.7 3 -0.2 1-0.4 2-0.5 3 -0.1 1-0.2 1.9-0.2 2.7 0 0.3 0 0.7 0.1 1.2 0.1 0.5 0.3 0.7 0.8 0.7 0.5 0 1.1-0.2 1.8-0.7 0.7-0.5 1.3-1.1 2-1.9 0.7-0.8 1.4-1.7 2-2.6 0.7-1 1.3-1.9 1.9-2.9s1.1-1.8 1.5-2.6c0.4-0.8 0.8-1.4 1-1.9 0.1-0.3 0.3-0.6 0.4-1 0.1-0.4 0.3-0.7 0.5-1 0.2-0.3 0.4-0.6 0.7-0.8 0.3-0.2 0.6-0.3 1-0.3 0.3 0 0.5 0 0.7 0.1 0.2 0.1 0.3 0.3 0.3 0.7 0 0.3-0.1 0.6-0.2 0.9 -0.1 0.3-0.2 0.6-0.3 0.9 -0.3 0.7-0.5 1.5-0.7 2.4 -0.2 0.9-0.4 1.8-0.6 2.7 -0.2 0.9-0.3 1.9-0.4 2.8 -0.1 0.9-0.1 1.8-0.1 2.5 0 0.2 0 0.5 0 0.9 0 0.4 0.1 0.8 0.2 1.1 0.1 0.4 0.2 0.7 0.4 1 0.2 0.3 0.4 0.4 0.8 0.4 0.5 0 1.1-0.3 1.8-1 0.7-0.7 1.5-1.4 2.2-2.3 0.7-0.9 1.4-1.8 2-2.6 0.6-0.9 1.1-1.5 1.3-1.9 0.2-0.2 0.4-0.5 0.6-0.9 0.3-0.4 0.6-0.6 0.8-0.6 0.3 0 0.5 0.1 0.6 0.3 0.1 0.2 0.1 0.4 0.1 0.6 0 0.2 0 0.3-0.1 0.5 -0.1 0.2-0.2 0.3-0.2 0.5 -0.4 0.8-1 1.7-1.7 2.8 -0.8 1.1-1.6 2.1-2.6 3.1 -1 1-2 1.8-3 2.5 -1 0.7-2 1.1-2.9 1.1 -0.7 0-1.3-0.3-1.7-0.8 -0.4-0.5-0.7-1.1-1-1.8 -0.2-0.7-0.4-1.4-0.4-2.2 0-0.8-0.1-1.4-0.1-1.9v-0.9c0-0.3 0-0.6 0.1-0.9 -0.5 0.7-1.1 1.5-1.8 2.4 -0.7 0.9-1.4 1.7-2.3 2.5 -0.8 0.8-1.7 1.5-2.6 2 -0.9 0.6-1.8 0.8-2.7 0.8 -0.9 0-1.5-0.2-2-0.7 -0.5-0.5-0.8-1.1-1-1.8 -0.2-0.7-0.3-1.4-0.4-2.2 0-0.8-0.1-1.5-0.1-2.1C-93.4 423.9-93.3 422.4-93.1 420.9M-66.5 451c-0.5-0.3-0.9-0.7-1.2-1.2 -0.3-0.5-0.6-1-0.7-1.7 -0.1-0.6-0.2-1.3-0.2-1.9 0-1.6 0.4-3.2 1.3-4.8 0.8-1.6 1.9-3 3.2-4.4 1.3-1.4 2.6-2.7 4.1-3.9 1.5-1.2 2.8-2.2 4.1-3 0-0.4 0-0.9 0-1.3v-1.4c0-2.5 0-4.9-0.1-7.4 -0.4 0.7-1 1.6-1.9 2.7 -0.9 1.1-1.9 2.2-3 3.3 -1.1 1.1-2.2 2-3.3 2.8 -1.1 0.8-2.1 1.2-2.9 1.2 -0.5 0-1-0.1-1.3-0.4 -0.3-0.2-0.6-0.5-0.8-0.9 -0.2-0.4-0.3-0.8-0.4-1.2 -0.1-0.5-0.1-0.9-0.1-1.3 0-1.4 0.2-2.9 0.5-4.4 0.3-1.5 0.7-2.9 1.2-4.3 0.1-0.3 0.2-0.6 0.3-0.9 0.1-0.3 0.2-0.6 0.4-0.9 0.2-0.4 0.4-0.7 0.7-1 0.3-0.3 0.7-0.4 1.1-0.4 0.5 0 1 0.2 1.4 0.6 0.4 0.4 0.6 0.8 0.6 1.4 0 0.4-0.1 0.9-0.4 1.5 -0.3 0.6-0.5 1-0.6 1.4 -0.2 0.4-0.4 1-0.6 1.6 -0.2 0.7-0.5 1.4-0.7 2.1 -0.2 0.7-0.4 1.4-0.5 2.1 -0.1 0.7-0.2 1.2-0.2 1.7 0 0.2 0 0.4 0 0.6 0 0.3 0.2 0.4 0.4 0.4 0.2 0 0.4-0.1 0.8-0.3 0.3-0.2 0.6-0.5 1-0.8 0.3-0.3 0.7-0.6 1-0.9 0.3-0.3 0.5-0.5 0.6-0.6 1.3-1.3 2.5-2.8 3.6-4.2s2.2-3 3.4-4.4c0.2-0.3 0.5-0.5 0.7-0.9 0.3-0.3 0.6-0.5 1-0.5 0.3 0 0.6 0.1 1 0.3 0.2 0.1 0.3 0.4 0.5 1 0.1 0.5 0.2 1.1 0.2 1.6 0 0.6 0.1 1.1 0.1 1.7v1.2c0 2.1 0 4.3-0.1 6.6 -0.1 2.3-0.3 4.5-0.6 6.7 -0.3 2.2-0.8 4.4-1.5 6.5 -0.7 2.1-1.6 4.1-2.8 5.9 -0.4 0.6-0.8 1.2-1.4 1.8 -0.5 0.6-1.1 1.1-1.7 1.6 -0.6 0.4-1.3 0.8-2 1.1 -0.7 0.3-1.4 0.4-2.2 0.4C-65.4 451.5-66 451.3-66.5 451L-66.5 451 -66.5 451zM-59.7 435.1c-1.2 1-2.3 2.1-3.3 3.3 -1 1.2-1.9 2.5-2.6 3.8 -0.7 1.3-1 2.7-1 4.1 0 0.3 0 0.6 0.1 1 0 0.4 0.1 0.7 0.3 1 0.1 0.3 0.3 0.6 0.6 0.8 0.2 0.2 0.6 0.3 0.9 0.3 0.4 0 0.8-0.1 1.1-0.3 0.4-0.2 0.7-0.4 1.1-0.7 0.3-0.3 0.6-0.6 0.9-0.9 0.3-0.3 0.5-0.6 0.8-0.9 0.6-0.8 1.2-1.8 1.7-3 0.5-1.2 0.9-2.5 1.3-3.8 0.4-1.3 0.7-2.6 0.9-3.9 0.3-1.3 0.4-2.5 0.5-3.5C-57.4 433.1-58.5 434.1-59.7 435.1L-59.7 435.1 -59.7 435.1zM-43.1 431.1c-0.4-0.4-0.6-0.8-0.6-1.4 0-0.5 0.1-1.1 0.4-1.6 0.2-0.5 0.7-0.8 1.3-0.8 0.5 0 1 0.2 1.4 0.6 0.4 0.4 0.6 0.8 0.6 1.4 0 0.6-0.1 1.2-0.3 1.7 -0.2 0.5-0.7 0.7-1.5 0.7C-42.2 431.6-42.7 431.4-43.1 431.1M-3.4 403.2c0.3-0.4 0.7-0.8 1.1-1.1 0.4-0.4 0.7-0.7 1.1-1.1 0.3-0.4 0.5-0.7 0.5-1.1 0-0.3-0.1-0.4-0.3-0.6 -0.2-0.1-0.4-0.2-0.7-0.3 -0.3 0-0.5-0.1-0.8-0.1 -0.3 0-0.5 0-0.6 0 -0.5 0-1.1 0-1.6 0 -0.5 0-1.1 0.1-1.6 0.2 -0.8 0.1-1.6 0.4-2.5 0.7 -0.9 0.4-1.8 0.8-2.6 1.4 -0.8 0.6-1.5 1.2-2.1 2 -0.6 0.8-0.8 1.6-0.8 2.5 0 1 0.3 2 1 2.9 0.7 0.9 1.5 1.9 2.5 2.8 1 0.9 2.1 1.9 3.2 2.8 1.2 0.9 2.2 1.9 3.2 2.9 1 1 1.8 2.1 2.5 3.2 0.7 1.1 1 2.3 1 3.5 0 1.2-0.3 2.3-0.9 3.2 -0.6 0.9-1.4 1.7-2.3 2.4 -1 0.6-2 1.2-3.3 1.6 -1.2 0.4-2.5 0.7-3.7 1 -1.3 0.2-2.5 0.4-3.7 0.5 -1.2 0.1-2.2 0.1-3.2 0.1 -0.8 0-1.7 0-2.5-0.1 -0.2 0-0.5-0.1-0.9-0.1 -0.4 0-0.8-0.1-1.2-0.2 -0.4-0.1-0.8-0.2-1.1-0.4 -0.3-0.2-0.5-0.4-0.5-0.7 0-0.5 0.1-0.9 0.4-0.9 0.3-0.1 0.7-0.1 1.1-0.1 0.8 0 1.6 0.1 2.4 0.3 0.8 0.2 1.6 0.3 2.4 0.3 0.6 0 1.3 0 2.2-0.1 0.9-0.1 1.8-0.2 2.8-0.4 1-0.2 2-0.4 3-0.7 1-0.3 1.9-0.6 2.7-1.1 0.8-0.4 1.5-0.9 2-1.5 0.5-0.6 0.8-1.3 0.8-2.1 0-0.9-0.4-1.8-1.1-2.6 -0.7-0.9-1.6-1.7-2.7-2.6 -1.1-0.9-2.2-1.8-3.5-2.8 -1.3-0.9-2.4-2-3.5-3 -1.1-1.1-1.9-2.2-2.7-3.5 -0.7-1.2-1.1-2.6-1.1-4 0-1.2 0.3-2.3 0.9-3.3 0.6-0.9 1.3-1.8 2.3-2.4 0.9-0.7 2-1.2 3.2-1.7 1.2-0.4 2.4-0.8 3.7-1 1.2-0.2 2.5-0.4 3.7-0.5 1.2-0.1 2.3-0.1 3.2-0.1 0.4 0 1 0 1.6 0.1 0.6 0.1 1.2 0.2 1.7 0.4 0.5 0.2 1 0.5 1.4 0.8 0.4 0.4 0.6 0.9 0.6 1.5 0 0.6-0.1 1.2-0.4 1.8 -0.3 0.6-0.6 1-1.1 1.5 -0.2 0.2-0.5 0.5-0.9 0.7 -0.4 0.3-0.8 0.5-1.2 0.7 -0.4 0.2-0.8 0.4-1.2 0.6 -0.4 0.1-0.8 0.2-1.1 0.2 -0.4 0-0.6-0.1-0.9-0.3 -0.2-0.2-0.4-0.5-0.4-0.9C-3.9 404-3.7 403.6-3.4 403.2M5.8 431.7c-0.7-0.4-1.2-0.8-1.7-1.4 -0.4-0.6-0.7-1.3-0.9-2.1 -0.2-0.8-0.3-1.6-0.3-2.5 0-1.1 0.2-2.4 0.6-3.9 0.4-1.5 1-3 1.8-4.4 0.8-1.4 1.7-2.6 2.8-3.6 1.1-1 2.2-1.5 3.5-1.5 0.9 0 1.5 0.3 2 0.8 0.5 0.5 0.7 1.2 0.7 2.1 0 0.8-0.2 1.7-0.7 2.7 -0.5 1-1.1 1.9-1.9 2.8 -0.8 0.9-1.6 1.7-2.4 2.4 -0.9 0.7-1.7 1.2-2.4 1.4 -0.2 0.7-0.2 1.4-0.2 2 0 1.1 0.2 2 0.7 2.6 0.5 0.6 1.3 0.9 2.4 0.9 1 0 2-0.2 2.9-0.6 0.9-0.4 1.7-0.9 2.5-1.5 0.8-0.6 1.5-1.3 2.1-2.1 0.6-0.8 1.2-1.6 1.7-2.4 0.2-0.3 0.4-0.5 0.6-0.8 0.2-0.3 0.5-0.4 0.9-0.4 0.2 0 0.3 0 0.5 0.1s0.2 0.2 0.2 0.4c0 0.3 0 0.6-0.1 0.8 -0.1 0.2-0.2 0.4-0.3 0.7 -0.6 1.1-1.4 2.1-2.2 3.1 -0.9 1-1.8 1.9-2.9 2.6s-2.2 1.3-3.4 1.8c-1.2 0.4-2.5 0.7-3.8 0.7C7.2 432.2 6.4 432 5.8 431.7L5.8 431.7 5.8 431.7zM9.9 415.4c-0.5 0.7-0.9 1.5-1.3 2.4 -0.4 0.9-0.8 1.8-1.1 2.8 -0.3 0.9-0.5 1.6-0.5 2 0.5-0.3 1.1-0.7 1.7-1.3 0.6-0.5 1.2-1.1 1.7-1.8 0.5-0.7 0.9-1.3 1.3-2 0.4-0.7 0.5-1.4 0.5-2 0-0.3-0.1-0.5-0.2-0.7 -0.1-0.2-0.3-0.4-0.6-0.4C10.8 414.4 10.4 414.7 9.9 415.4L9.9 415.4 9.9 415.4zM22.1 432.6c-0.6-0.6-1.2-1.3-1.6-2.2 -0.4-0.9-0.8-1.9-1.1-3.1s-0.4-2.3-0.6-3.4c-0.1-1.1-0.2-2.2-0.3-3.2 0-1-0.1-1.8-0.1-2.4 0-3.4 0.3-6.7 0.8-10 0.5-3.3 1.5-6.5 2.8-9.6 0.3-0.6 0.6-1.3 1.1-2.1 0.4-0.8 1-1.6 1.6-2.3 0.6-0.8 1.2-1.4 1.9-1.9s1.4-0.8 2.1-0.8c0.6 0 1 0.1 1.4 0.4 0.4 0.3 0.7 0.6 0.9 1.1 0.2 0.4 0.4 0.9 0.5 1.4 0.1 0.5 0.1 1 0.1 1.4 0 1.5-0.2 3.1-0.5 4.9s-0.8 3.5-1.4 5.3c-0.6 1.8-1.2 3.5-1.9 5.1 -0.7 1.7-1.4 3.2-2.2 4.5 -0.4 0.6-0.7 1.3-1.1 1.8 -0.4 0.6-0.8 1.2-1.2 1.8 -0.1 0.2-0.3 0.4-0.5 0.7 -0.2 0.3-0.3 0.5-0.4 0.7 -0.1 0.3-0.2 0.6-0.2 1 0 0.4 0 0.8 0 1.1 0 0.5 0 1.1 0.1 2 0.1 0.8 0.2 1.7 0.4 2.5 0.2 0.8 0.5 1.6 0.9 2.2 0.4 0.6 0.9 0.9 1.6 0.9 0.6 0 1.2-0.2 1.9-0.6 0.7-0.4 1.3-1 1.9-1.6 0.6-0.6 1.2-1.3 1.7-1.9 0.5-0.7 1-1.2 1.3-1.7 0.2-0.3 0.4-0.6 0.6-1s0.4-0.7 0.6-1c0.1-0.2 0.3-0.4 0.4-0.5 0.1-0.1 0.3-0.2 0.6-0.2s0.4 0.1 0.5 0.3c0.1 0.2 0.1 0.4 0.1 0.6 0 0.3-0.1 0.6-0.2 0.9 -0.2 0.3-0.3 0.6-0.5 0.8 -0.5 0.8-1.1 1.7-1.8 2.7 -0.7 1-1.5 2-2.4 2.9 -0.9 0.9-1.8 1.7-2.8 2.3 -1 0.6-2 0.9-3 0.9C23.5 433.5 22.8 433.2 22.1 432.6L22.1 432.6 22.1 432.6zM27.5 394.8c-0.4 0.6-0.8 1.2-1.2 1.9s-0.6 1.5-0.9 2.3c-0.2 0.8-0.4 1.3-0.6 1.7 -0.7 2.2-1.3 4.6-1.8 7.1s-0.8 4.9-0.8 7.2v0.7c0 0.2 0 0.4 0 0.7 0.8-1.3 1.6-2.8 2.5-4.6 0.9-1.7 1.7-3.6 2.4-5.4s1.3-3.7 1.8-5.6c0.5-1.9 0.7-3.6 0.7-5.1v-0.4c0-0.2 0-0.4-0.1-0.6 0-0.2-0.1-0.4-0.2-0.5 -0.1-0.1-0.2-0.2-0.4-0.2C28.5 394 28 394.3 27.5 394.8L27.5 394.8 27.5 394.8zM36.5 432.6c-0.6-0.6-1.2-1.3-1.6-2.2 -0.4-0.9-0.8-1.9-1.1-3.1s-0.4-2.3-0.6-3.4c-0.1-1.1-0.2-2.2-0.3-3.2 0-1-0.1-1.8-0.1-2.4 0-3.4 0.3-6.7 0.8-10 0.5-3.3 1.5-6.5 2.8-9.6 0.3-0.6 0.6-1.3 1.1-2.1 0.4-0.8 1-1.6 1.6-2.3 0.6-0.8 1.2-1.4 1.9-1.9 0.7-0.5 1.4-0.8 2.1-0.8 0.6 0 1 0.1 1.4 0.4 0.4 0.3 0.7 0.6 0.9 1.1 0.2 0.4 0.4 0.9 0.5 1.4 0.1 0.5 0.1 1 0.1 1.4 0 1.5-0.2 3.1-0.5 4.9 -0.4 1.8-0.8 3.5-1.4 5.3 -0.6 1.8-1.2 3.5-1.9 5.1 -0.7 1.7-1.4 3.2-2.2 4.5 -0.4 0.6-0.7 1.3-1.1 1.8 -0.4 0.6-0.8 1.2-1.2 1.8 -0.1 0.2-0.3 0.4-0.5 0.7 -0.2 0.3-0.3 0.5-0.4 0.7 -0.1 0.3-0.2 0.6-0.2 1 0 0.4 0 0.8 0 1.1 0 0.5 0 1.1 0.1 2 0.1 0.8 0.2 1.7 0.4 2.5 0.2 0.8 0.5 1.6 0.9 2.2 0.4 0.6 0.9 0.9 1.6 0.9 0.6 0 1.2-0.2 1.9-0.6 0.7-0.4 1.3-1 1.9-1.6 0.6-0.6 1.2-1.3 1.7-1.9 0.5-0.7 1-1.2 1.3-1.7 0.2-0.3 0.4-0.6 0.6-1s0.4-0.7 0.6-1c0.1-0.2 0.3-0.4 0.4-0.5 0.1-0.1 0.3-0.2 0.6-0.2s0.4 0.1 0.5 0.3c0.1 0.2 0.1 0.4 0.1 0.6 0 0.3-0.1 0.6-0.2 0.9 -0.2 0.3-0.3 0.6-0.5 0.8 -0.5 0.8-1.1 1.7-1.8 2.7 -0.7 1-1.5 2-2.4 2.9 -0.9 0.9-1.8 1.7-2.8 2.3s-2 0.9-3 0.9C37.9 433.5 37.1 433.2 36.5 432.6L36.5 432.6 36.5 432.6zM41.9 394.8c-0.4 0.6-0.8 1.2-1.2 1.9s-0.6 1.5-0.9 2.3c-0.2 0.8-0.4 1.3-0.6 1.7 -0.7 2.2-1.3 4.6-1.8 7.1 -0.6 2.5-0.8 4.9-0.8 7.2v0.7c0 0.2 0 0.4 0 0.7 0.8-1.3 1.6-2.8 2.5-4.6 0.9-1.7 1.7-3.6 2.4-5.4s1.3-3.7 1.8-5.6c0.5-1.9 0.7-3.6 0.7-5.1v-0.4c0-0.2 0-0.4-0.1-0.6 0-0.2-0.1-0.4-0.2-0.5 -0.1-0.1-0.2-0.2-0.4-0.2C42.8 394 42.3 394.3 41.9 394.8L41.9 394.8 41.9 394.8zM51.9 431.1c-0.4-0.4-0.6-0.8-0.6-1.4 0-0.5 0.1-1.1 0.4-1.6 0.2-0.5 0.7-0.8 1.3-0.8 0.5 0 1 0.2 1.4 0.6 0.4 0.4 0.6 0.8 0.6 1.4 0 0.6-0.1 1.2-0.3 1.7 -0.2 0.5-0.7 0.7-1.5 0.7C52.8 431.6 52.3 431.4 51.9 431.1M76.8 432.9c-0.1 0.3-0.3 0.5-0.4 0.6 -0.2 0.1-0.4 0.2-0.7 0.2 -0.3 0-0.7 0-1.3 0 -0.3 0-0.6 0-1-0.1s-0.6-0.3-0.6-0.6c0-2.1 0.1-4.3 0.4-6.4 0.2-2.1 0.5-4.2 0.8-6.4 0.4-3.3 0.9-6.6 1.5-9.8 0.5-3.3 1.2-6.5 1.9-9.8 -0.4 0.1-0.9 0.1-1.4 0.2 -0.5 0-0.9 0.1-1.4 0.2 -0.3 0.1-0.5 0.1-0.7 0.1 -0.2 0-0.4 0-0.7 0 -0.5 0-0.8-0.2-0.8-0.6 0-0.4 0.2-0.6 0.7-0.8 0.4-0.2 1-0.3 1.6-0.4 0.6-0.1 1.2-0.2 1.8-0.2 0.6 0 1 0 1.2 0 0.1-0.3 0.2-0.6 0.3-0.9 0.1-0.3 0.2-0.6 0.3-0.9 0.2-0.6 0.5-1.1 0.8-1.5 0.3-0.4 0.8-0.7 1.4-0.9 0.6-0.3 1.2-0.4 1.8-0.4 0.2 0 0.4 0.1 0.5 0.2 0.2 0.1 0.2 0.3 0.2 0.5 0 0.1 0 0.2-0.1 0.4 -0.3 0.5-0.4 1.1-0.6 1.6 -0.1 0.6-0.2 1.1-0.4 1.7 2.4 0 4.7 0.3 6.7 0.9s3.8 1.5 5.3 2.8c1.5 1.2 2.6 2.8 3.5 4.7s1.2 4.1 1.2 6.7c0 2-0.5 3.9-1.4 5.6 -0.9 1.7-2.1 3.2-3.6 4.6 -1.5 1.4-3.1 2.5-4.8 3.6 -1.8 1-3.5 1.8-5.1 2.5 -0.9 0.4-2 0.7-3.2 1.1 -1.2 0.4-2.3 0.5-3.3 0.5C77 432.2 76.9 432.6 76.8 432.9L76.8 432.9 76.8 432.9zM80.5 428.2c1-0.3 2-0.7 3.1-1.1 1.4-0.6 2.8-1.3 4.3-2.1 1.5-0.8 2.8-1.8 4-2.9 1.2-1.1 2.2-2.4 2.9-3.8s1.1-3 1.1-4.7c0-2-0.4-3.8-1.2-5.4 -0.8-1.6-1.8-3-3.1-4.1 -1.3-1.1-2.8-2-4.6-2.6 -1.7-0.6-3.6-0.9-5.5-1 -1.2 6-2.2 12-3.2 18.1 -0.3 1.7-0.5 3.4-0.7 5.1 -0.2 1.7-0.3 3.4-0.3 5.1C78.5 428.7 79.5 428.5 80.5 428.2L80.5 428.2 80.5 428.2zM104.8 427c0 0.5 0.1 1 0.2 1.4 0.1 0.5 0.3 0.9 0.5 1.2 0.2 0.4 0.5 0.5 1 0.5 0.6 0 1.3-0.3 2.1-0.9 0.8-0.6 1.5-1.3 2.2-2.1 0.7-0.8 1.4-1.7 2-2.5 0.6-0.9 1-1.6 1.4-2.1 0.2-0.2 0.3-0.5 0.6-0.8 0.2-0.3 0.5-0.4 0.8-0.4 0.3 0 0.5 0.1 0.6 0.3s0.1 0.5 0.1 0.7c0 0.2 0 0.4-0.1 0.6 -0.1 0.2-0.2 0.5-0.4 0.7 -0.1 0.2-0.3 0.5-0.4 0.7 -0.1 0.2-0.3 0.4-0.4 0.5 -0.4 0.6-1 1.4-1.7 2.3 -0.7 0.9-1.5 1.7-2.3 2.5 -0.8 0.8-1.7 1.5-2.6 2 -0.9 0.6-1.8 0.8-2.6 0.8 -1 0-1.7-0.3-2.3-0.9 -0.6-0.6-1-1.3-1.3-2.2 -0.3-0.8-0.5-1.7-0.6-2.7 -0.1-0.9-0.1-1.8-0.1-2.5 0-0.9 0.1-1.9 0.3-3 0.2-1.1 0.4-2.1 0.7-2.9 0.3-0.9 0.7-1.6 1.2-2.2 0.5-0.6 1.3-0.9 2.3-0.9 0.7 0 1.1 0.4 1.1 1.1 0 0.3-0.1 0.7-0.2 1.1 -0.1 0.4-0.2 0.9-0.4 1.3 -0.2 0.5-0.3 0.9-0.5 1.4 -0.2 0.5-0.3 0.9-0.4 1.2 -0.3 1.4-0.4 2.8-0.4 4.3C104.8 426.2 104.8 426.5 104.8 427L104.8 427 104.8 427zM107.9 408.7c0.3 0.4 0.5 0.8 0.5 1.3 0 0.6-0.2 1.2-0.7 1.8 -0.4 0.5-1 0.8-1.6 0.8 -0.5 0-0.9-0.2-1.2-0.6 -0.3-0.4-0.4-0.8-0.4-1.3 0-0.6 0.2-1.2 0.6-1.7 0.4-0.5 1-0.8 1.6-0.8C107.2 408.1 107.6 408.3 107.9 408.7L107.9 408.7 107.9 408.7zM120.4 415.8c0.4 0.9 0.8 1.9 1.3 2.8 0.5 0.9 1 1.9 1.5 2.8 0.5 0.9 0.9 1.9 1.2 2.9 0.3 1 0.5 2 0.5 3 0 0.6-0.1 1.3-0.3 1.9 -0.2 0.6-0.5 1.2-0.8 1.8 0.6 0 1.2-0.2 2-0.7 0.8-0.5 1.5-1.2 2.3-1.9 0.8-0.7 1.5-1.5 2.1-2.2 0.6-0.8 1.1-1.4 1.4-1.8 0.2-0.2 0.4-0.5 0.6-0.8 0.2-0.3 0.5-0.5 0.8-0.5 0.3 0 0.5 0.1 0.6 0.3 0.1 0.2 0.1 0.4 0.1 0.7 0 0.2-0.1 0.3-0.2 0.5 -0.1 0.2-0.2 0.3-0.3 0.5 -0.9 1.4-1.8 2.7-2.8 3.8 -1 1.1-2.1 2.1-3.2 2.8 -1.2 0.8-2.5 1.4-3.9 1.8 -1.4 0.4-3 0.6-4.7 0.6 -0.9 0-1.9-0.1-3-0.3 -1.1-0.2-2-0.6-2.7-1.3 -0.2-0.2-0.3-0.3-0.4-0.5 -0.1-0.2-0.1-0.4-0.1-0.6 0-0.5 0.3-0.7 0.8-0.7 0.2 0 0.3 0 0.5 0.1 0.1 0.1 0.2 0.1 0.4 0.2 0.5 0.4 1.1 0.6 1.6 0.7 0.5 0.1 1.1 0.2 1.8 0.2 1.3 0 2.2-0.4 2.9-1.2 0.7-0.8 1-1.8 1-3 0-0.7-0.1-1.5-0.3-2.4 -0.2-0.8-0.5-1.7-0.8-2.5 -0.3-0.8-0.7-1.6-1.1-2.4 -0.4-0.8-0.8-1.5-1.2-2 -0.2 0.6-0.5 1.4-0.8 2.1s-0.7 1.6-1.1 2.3c-0.4 0.8-0.9 1.5-1.3 2.2 -0.5 0.7-0.9 1.3-1.4 1.8 -0.2 0.2-0.3 0.3-0.6 0.5 -0.2 0.2-0.4 0.3-0.7 0.3 -0.4 0-0.7-0.2-0.7-0.7 0-0.3 0.1-0.5 0.2-0.7 0.1-0.2 0.2-0.4 0.4-0.6 2.2-2.7 3.8-5.8 4.9-9.2 -0.3-0.8-0.4-1.7-0.4-2.5 0-0.5 0.1-1 0.2-1.7 0.2-0.6 0.4-1.2 0.7-1.8 0.3-0.6 0.7-1.1 1.1-1.5 0.4-0.4 1-0.6 1.5-0.6 0.3 0 0.5 0.1 0.7 0.3 0.2 0.2 0.4 0.4 0.5 0.7 0.1 0.3 0.2 0.6 0.2 0.8 0 0.3 0.1 0.6 0.1 0.8 0 0.8-0.1 1.6-0.3 2.4C120.9 414.3 120.7 415.1 120.4 415.8M135.8 431.9c-0.8-0.5-1.4-1.1-1.9-1.9 -0.5-0.8-0.9-1.7-1.1-2.6 -0.2-1-0.3-1.9-0.3-2.9 0-1.2 0.2-2.6 0.6-4 0.4-1.4 1-2.7 1.7-3.9 0.8-1.2 1.7-2.2 2.8-3 1.1-0.8 2.4-1.2 3.8-1.2 1.2 0 2.2 0.3 2.9 0.9 0.7 0.6 1 1.5 1 2.8 0 0.4 0 0.8-0.1 1.3 -0.1 0.5-0.2 0.9-0.3 1.3 -0.2 0.4-0.4 0.8-0.7 1.1s-0.7 0.4-1.2 0.4c-0.4 0-0.5-0.2-0.5-0.5 0-0.4 0.1-0.8 0.4-1.4s0.4-1.2 0.4-1.9c0-0.4-0.1-0.9-0.2-1.3 -0.1-0.4-0.4-0.6-1-0.6 -0.9 0-1.7 0.4-2.4 1.2 -0.7 0.8-1.3 1.8-1.8 3 -0.5 1.2-0.8 2.3-1.1 3.5 -0.3 1.2-0.4 2.1-0.4 2.8 0 0.6 0.1 1.2 0.2 1.8 0.1 0.6 0.3 1.1 0.6 1.6 0.3 0.5 0.7 0.9 1.2 1.2 0.5 0.3 1.1 0.4 1.8 0.4 1.1 0 2.1-0.2 3-0.6 1-0.4 1.8-0.9 2.7-1.5 0.8-0.6 1.6-1.3 2.3-2.2 0.7-0.8 1.3-1.7 1.8-2.5 0.2-0.3 0.4-0.5 0.6-0.8s0.5-0.4 0.8-0.4c0.5 0 0.8 0.3 0.8 0.8 0 0.2 0 0.4-0.1 0.6 -0.1 0.2-0.2 0.4-0.3 0.5 -0.7 1.2-1.5 2.3-2.4 3.4s-2 2-3.1 2.8c-1.1 0.8-2.3 1.4-3.6 1.9 -1.3 0.5-2.7 0.7-4.1 0.7C137.5 432.6 136.5 432.4 135.8 431.9M150.9 422.1c0.4-1.5 1-2.8 1.8-4.1 0.8-1.3 1.7-2.4 2.8-3.2 1.1-0.9 2.4-1.3 3.8-1.3 0.9 0 1.6 0.2 2.2 0.6 0.6 0.4 1 0.9 1.4 1.6 0.3 0.6 0.6 1.3 0.7 2.1 0.1 0.8 0.2 1.5 0.2 2.3 0 1.1-0.1 2.1-0.3 3.2 -0.2 1.1-0.5 2.1-0.9 3.1 -0.4 1-0.9 1.9-1.6 2.8 -0.6 0.9-1.4 1.6-2.4 2.2 -0.5 0.4-1.1 0.6-1.8 0.9 -0.6 0.2-1.3 0.4-2 0.4 -0.9 0-1.6-0.2-2.2-0.6 -0.6-0.4-1.1-0.9-1.4-1.5 -0.4-0.6-0.6-1.3-0.8-2.1 -0.2-0.8-0.2-1.5-0.2-2.2C150.3 424.9 150.5 423.6 150.9 422.1L150.9 422.1 150.9 422.1zM156.9 417.7c-0.7 0.7-1.3 1.6-1.7 2.6 -0.5 1-0.8 2.1-1.1 3.2 -0.2 1.1-0.4 2-0.4 2.7 0 0.4 0 0.8 0.1 1.3 0.1 0.5 0.2 0.9 0.4 1.3 0.2 0.4 0.4 0.7 0.7 1 0.3 0.3 0.7 0.4 1.2 0.4 0.4 0 0.8-0.1 1.2-0.3 0.4-0.2 0.7-0.4 1-0.6 0.6-0.5 1.1-1 1.6-1.7 0.4-0.7 0.8-1.4 1.1-2.1 0.3-0.7 0.5-1.5 0.6-2.3 0.1-0.8 0.2-1.5 0.2-2.3 0-0.4 0-0.8-0.1-1.3 -0.1-0.5-0.2-1-0.4-1.4 -0.2-0.4-0.4-0.8-0.8-1.1 -0.3-0.3-0.7-0.5-1.2-0.5C158.4 416.6 157.6 416.9 156.9 417.7L156.9 417.7 156.9 417.7zM167.4 414.9c0.4-0.4 0.8-0.6 1.2-0.6 0.3 0 0.6 0.1 0.8 0.2 0.2 0.2 0.4 0.4 0.6 0.6 0.6 0.7 1.2 1.5 1.8 2.4 0.5 1 1 2 1.5 3s0.9 2.1 1.2 3.2 0.6 2 0.8 2.9c1.1-2 2.2-4 3.3-6.1 1.1-2 2.3-4 3.7-6 0.2-0.2 0.3-0.4 0.5-0.6 0.2-0.2 0.4-0.4 0.7-0.4 0.3 0 0.6 0.1 0.9 0.3s0.4 0.5 0.4 0.8c0 0.2 0 0.3-0.1 0.4 -0.1 0.1-0.2 0.2-0.2 0.3 -0.3 0.3-0.6 0.9-1.2 1.7 -0.5 0.8-1.1 1.7-1.7 2.8 -0.6 1-1.3 2.1-2 3.3 -0.7 1.2-1.3 2.3-1.9 3.3 -0.6 1-1.1 2-1.5 2.7 -0.4 0.8-0.6 1.3-0.7 1.7 -0.1 0.4-0.2 0.8-0.4 1.2 -0.1 0.3-0.5 0.5-1.1 0.5 -0.6 0-1-0.2-1.1-0.5 -0.1-0.3-0.2-0.8-0.3-1.3 -0.1-0.9-0.4-1.9-0.7-3.2 -0.4-1.3-0.8-2.6-1.3-3.9 -0.5-1.3-1.1-2.6-1.6-3.7 -0.6-1.2-1.2-2.1-1.7-2.8 -0.1-0.1-0.3-0.3-0.4-0.5 -0.2-0.2-0.2-0.4-0.2-0.6C166.7 415.8 166.9 415.3 167.4 414.9M189.2 431.7c-0.7-0.4-1.2-0.8-1.7-1.4 -0.4-0.6-0.7-1.3-0.9-2.1 -0.2-0.8-0.3-1.6-0.3-2.5 0-1.1 0.2-2.4 0.6-3.9 0.4-1.5 1-3 1.8-4.4 0.8-1.4 1.7-2.6 2.8-3.6 1.1-1 2.2-1.5 3.5-1.5 0.9 0 1.5 0.3 2 0.8 0.5 0.5 0.7 1.2 0.7 2.1 0 0.8-0.2 1.7-0.7 2.7 -0.5 1-1.1 1.9-1.9 2.8 -0.8 0.9-1.6 1.7-2.4 2.4 -0.9 0.7-1.7 1.2-2.4 1.4 -0.2 0.7-0.2 1.4-0.2 2 0 1.1 0.2 2 0.7 2.6 0.5 0.6 1.3 0.9 2.4 0.9 1 0 2-0.2 2.9-0.6 0.9-0.4 1.7-0.9 2.5-1.5 0.8-0.6 1.5-1.3 2.1-2.1 0.6-0.8 1.2-1.6 1.7-2.4 0.2-0.3 0.4-0.5 0.6-0.8 0.2-0.3 0.5-0.4 0.9-0.4 0.2 0 0.3 0 0.5 0.1 0.1 0.1 0.2 0.2 0.2 0.4 0 0.3 0 0.6-0.1 0.8 -0.1 0.2-0.2 0.4-0.3 0.7 -0.6 1.1-1.4 2.1-2.2 3.1 -0.9 1-1.8 1.9-2.9 2.6 -1.1 0.7-2.2 1.3-3.4 1.8 -1.2 0.4-2.5 0.7-3.8 0.7C190.7 432.2 189.9 432 189.2 431.7L189.2 431.7 189.2 431.7zM193.3 415.4c-0.5 0.7-0.9 1.5-1.3 2.4 -0.4 0.9-0.8 1.8-1.1 2.8 -0.3 0.9-0.5 1.6-0.5 2 0.5-0.3 1.1-0.7 1.7-1.3 0.6-0.5 1.2-1.1 1.7-1.8 0.5-0.7 0.9-1.3 1.3-2 0.4-0.7 0.5-1.4 0.5-2 0-0.3-0.1-0.5-0.2-0.7 -0.1-0.2-0.3-0.4-0.6-0.4C194.3 414.4 193.8 414.7 193.3 415.4L193.3 415.4 193.3 415.4zM208.5 419.5c-0.6-0.5-1.2-0.8-1.9-1.1 -0.3 0.7-0.5 1.4-0.8 2.2 -0.3 0.8-0.6 1.5-1 2.3 -0.4 0.8-0.8 1.5-1.2 2.2 -0.4 0.7-0.9 1.3-1.5 1.9 -0.2 0.2-0.4 0.3-0.6 0.5 -0.2 0.2-0.5 0.2-0.7 0.2 -0.4 0-0.6-0.2-0.6-0.6 0-0.2 0-0.4 0.1-0.6s0.2-0.3 0.3-0.5c0.9-1.3 1.8-2.7 2.6-4.1 0.8-1.4 1.3-2.9 1.5-4.6 -0.4-0.6-0.8-1.2-1-1.9 -0.2-0.7-0.3-1.4-0.3-2.1 0-0.4 0.1-0.9 0.2-1.5 0.1-0.6 0.3-1.2 0.5-1.8 0.2-0.6 0.5-1.1 0.9-1.5 0.4-0.4 0.8-0.6 1.2-0.6 0.4 0 0.6 0.2 0.8 0.5 0.2 0.3 0.4 0.7 0.5 1.1 0.1 0.4 0.2 0.8 0.2 1.2 0 0.4 0 0.8 0 1 0 0.8 0 1.5-0.1 2.3 0.4 0.6 0.9 1 1.5 1.4 0.6 0.4 1.3 0.8 1.9 1.2s1.2 1 1.6 1.6c0.4 0.6 0.7 1.5 0.7 2.5 0 0.5-0.1 1.2-0.2 1.9 -0.3 1.1-0.5 2.2-0.7 3.4 -0.2 1.1-0.3 2.3-0.3 3.4 0 0.3 0 0.7 0.1 1.1 0.1 0.4 0.3 0.6 0.8 0.6 0.5 0 1.2-0.3 1.9-0.8 0.7-0.5 1.4-1.2 2.1-1.9 0.7-0.7 1.4-1.5 2-2.2 0.6-0.8 1.1-1.4 1.3-1.8 0.2-0.2 0.3-0.5 0.6-0.7 0.2-0.3 0.5-0.4 0.7-0.4 0.3 0 0.5 0.1 0.6 0.3 0.1 0.2 0.1 0.4 0.1 0.7 0 0.2 0 0.4-0.1 0.5 -0.1 0.2-0.2 0.3-0.3 0.5 -0.4 0.6-1 1.4-1.7 2.3 -0.8 0.9-1.6 1.8-2.4 2.7 -0.9 0.9-1.8 1.6-2.7 2.2 -0.9 0.6-1.8 0.9-2.6 0.9 -0.8 0-1.4-0.2-1.9-0.7 -0.4-0.5-0.8-1.1-1-1.8 -0.2-0.7-0.4-1.4-0.4-2.2 0-0.8-0.1-1.4-0.1-2 0-0.9 0-1.8 0.1-2.6 0.1-0.9 0.1-1.7 0.1-2.6C209.4 420.6 209.1 420 208.5 419.5M225.4 431.1c-0.4-0.4-0.6-0.8-0.6-1.4 0-0.5 0.1-1.1 0.4-1.6 0.2-0.5 0.7-0.8 1.3-0.8 0.5 0 1 0.2 1.4 0.6 0.4 0.4 0.6 0.8 0.6 1.4 0 0.6-0.1 1.2-0.3 1.7 -0.2 0.5-0.7 0.7-1.5 0.7C226.2 431.6 225.8 431.4 225.4 431.1"/></svg>