<svg xmlns:sketch="http://www.bohemiancoding.com/sketch/ns" xmlns="http://www.w3.org/2000/svg" xmlns:xlink="http://www.w3.org/1999/xlink" version="1.1" id="Layer_1" x="0" y="0" width="293" height="308" viewBox="-1271 317.9 293 308" xml:space="preserve" enable-background="new -1271 317.9 293 308">
  <style type="text/css">
    
	.st0{fill:#4A5459;}
	.st1{fill:#313133;}
	.st2{fill:#FFFFFF;}
	.st3{fill:#4A575E;}
	.st4{fill:#5E7078;}
	.st5{fill:#4A4A4A;}
	.st6{fill:#546169;}
	.st7{fill:#A1ABB0;}
	.st8{fill:#F2DE63;}
	.st9{filter:url(#Adobe_OpacityMaskFilter);}
	.st10{mask:url(#mask-2);fill:#6E6E6E;}
	.st11{fill:#F2F2F2;}
	.st12{fill:#CFCFCF;}
	.st13{fill:#7A7A7A;}
	.st14{fill:#D1D1D4;}
	.st15{fill:#B0B2B5;}
	.st16{fill:#696B6B;}
	.st17{fill:#DBDEDE;}
	.st18{fill:#B2B8B8;}
	.st19{fill:#999C9E;}
	.st20{fill:#BDC2C2;}
	.st21{fill:#A8DC28;}
	.st22{fill:#FCD9A6;}
	.st23{fill:#574740;}
	.st24{fill:#363D42;}
	.st25{fill:#59666B;}

  </style>
  <title>
    Testimonials illustration
  </title>
  <desc>
    Created with Sketch.
  </desc>
  <g id="Imported-Layers" transform="translate(0.000000, 71.000000)">
    <path id="Fill-1" sketch:type="MSShapeGroup" class="st0" d="M-1114 435.6h-21.8c0 0 1.8 30.8-9.1 30.8h39.9C-1115.8 466.4-1114 435.6-1114 435.6"/>
    <path id="Fill-2" sketch:type="MSShapeGroup" class="st1" d="M-1055.8 356.7h-138.3c-2.2 0-4 1.8-4 4v88.5c0 1.9 1.6 3.5 3.5 3.5h139.3c1.9 0 3.5-1.5 3.5-3.5v-88.5C-1051.8 358.5-1053.6 356.7-1055.8 356.7"/>
    <path id="Fill-3" sketch:type="MSShapeGroup" class="st2" d="M-1193.3 361.3h136.7v73.3h-136.7V361.3z"/>
    <path id="Fill-4" sketch:type="MSShapeGroup" class="st3" d="M-1193.3 434h136.8v4.3h-136.8V434z"/>
    <path id="Fill-5" sketch:type="MSShapeGroup" class="st4" d="M-1121.3 445.2c0 2-1.6 3.6-3.6 3.6 -2 0-3.6-1.6-3.6-3.6 0-2 1.6-3.6 3.6-3.6C-1122.9 441.6-1121.3 443.2-1121.3 445.2"/>
    <path id="Fill-6" sketch:type="MSShapeGroup" class="st5" d="M-1006.3 460.2l-4.1-1.9 10.9-23 4.1 1.9L-1006.3 460.2"/>
    <path id="Fill-7" sketch:type="MSShapeGroup" class="st5" d="M-993.7 434.9l-4.2 1.5 -8.6-24 4.2-1.5L-993.7 434.9"/>
    <path id="Fill-8" sketch:type="MSShapeGroup" class="st6" d="M-1021.1 457.3h26.5v2.5h-26.5V457.3z"/>
    <path id="Fill-9" sketch:type="MSShapeGroup" class="st5" d="M-994.3 462.9h-27.1c-1 0-1.9-0.9-1.9-1.9 0-1 0.9-1.9 1.9-1.9h27.1c1 0 1.9 0.9 1.9 1.9C-992.4 462.1-993.3 462.9-994.3 462.9"/>
    <path id="Fill-10" sketch:type="MSShapeGroup" class="st3" d="M-991.9 433.8c0 2.4-2 4.4-4.4 4.4 -2.4 0-4.4-2-4.4-4.4s2-4.4 4.4-4.4C-993.9 429.5-991.9 431.4-991.9 433.8"/>
    <path id="Fill-11" sketch:type="MSShapeGroup" class="st7" d="M-993.7 433.8c0 1.4-1.2 2.6-2.6 2.6s-2.6-1.2-2.6-2.6 1.2-2.6 2.6-2.6S-993.7 432.4-993.7 433.8"/>
    <path id="Fill-12" sketch:type="MSShapeGroup" class="st8" d="M-1014.8 414.7c0.7 3.1-1.3 6.2-4.4 6.9 -3.1 0.7-6.2-1.3-6.9-4.4 -0.7-3.1 1.3-6.2 4.4-6.9C-1018.5 409.6-1015.5 411.6-1014.8 414.7"/>
    <path id="Fill-13" sketch:type="MSShapeGroup" class="st5" d="M-1001.8 406.7l-6 1.3 -17.6-3.2 5.1 23.4 14.6-10.3 6-1.3c0 0 5.3-1.3 4.3-6.1C-996.5 405.6-1001.8 406.7-1001.8 406.7"/>
    <g id="Group-16" transform="translate(245.181009, 86.813187)">
      <g id="Clip-15"/>
      <defs>
        <filter id="Adobe_OpacityMaskFilter" filterUnits="userSpaceOnUse" x="-1258.4" y="300.7" width="55.2" height="25.6">
          <feColorMatrix type="matrix" values="1"/>
        </filter>
      </defs>
      <mask maskUnits="userSpaceOnUse" x="-1258.4" y="300.7" width="55.2" height="25.6" id="mask-2">
        <g class="st9">
          <path id="path-1" class="st2" d="M-1265.4 341.3l14.6-10.3 6-1.3c0 0 5.3-1.3 4.3-6.1 -1.1-4.8-6.4-3.7-6.4-3.7l-6 1.3 -17.6-3.2L-1265.4 341.3"/>
        </g>
      </mask>
      <path id="Fill-14" sketch:type="MSShapeGroup" class="st10" d="M-1250.9 326.3l47.6-11.9 -13.6-13.6 -41.5 7.6L-1250.9 326.3"/>
    </g>
    <path id="Fill-17" sketch:type="MSShapeGroup" class="st11" d="M-1098.6 461.9h-172.3v13.7h6.9v77.6h70.7v-77.6h136.7v77.6h70.7v-77.6h6.9v-13.7H-1098.6"/>
    <path id="Fill-18" sketch:type="MSShapeGroup" class="st12" d="M-1055.8 475.8h69.4v0.6h-69.4V475.8z"/>
    <path id="Fill-19" sketch:type="MSShapeGroup" class="st12" d="M-1055.8 503.7h69.4v0.6h-69.4V503.7z"/>
    <path id="Fill-20" sketch:type="MSShapeGroup" class="st12" d="M-1055.8 531.5h69.4v0.6h-69.4V531.5z"/>
    <path id="Fill-21" sketch:type="MSShapeGroup" class="st12" d="M-1263.5 475.8h69.4v0.6h-69.4V475.8z"/>
    <path id="Fill-22" sketch:type="MSShapeGroup" class="st12" d="M-1263.5 503.7h69.4v0.6h-69.4V503.7z"/>
    <path id="Fill-23" sketch:type="MSShapeGroup" class="st12" d="M-1263.5 531.5h69.4v0.6h-69.4V531.5z"/>
    <path id="Fill-24" sketch:type="MSShapeGroup" class="st13" d="M-1226.4 480.7c0 1.3-1 2.3-2.3 2.3 -1.3 0-2.3-1-2.3-2.3 0-1.3 1-2.3 2.3-2.3C-1227.5 478.3-1226.4 479.4-1226.4 480.7"/>
    <path id="Fill-25" sketch:type="MSShapeGroup" class="st13" d="M-1226.4 508.5c0 1.3-1 2.3-2.3 2.3 -1.3 0-2.3-1-2.3-2.3 0-1.3 1-2.3 2.3-2.3C-1227.5 506.2-1226.4 507.2-1226.4 508.5"/>
    <path id="Fill-26" sketch:type="MSShapeGroup" class="st13" d="M-1226.4 536.3c0 1.3-1 2.3-2.3 2.3 -1.3 0-2.3-1-2.3-2.3 0-1.3 1-2.3 2.3-2.3C-1227.5 534-1226.4 535-1226.4 536.3"/>
    <path id="Fill-27" sketch:type="MSShapeGroup" class="st13" d="M-1023.4 480.7c0 1.3 1 2.3 2.3 2.3 1.3 0 2.3-1 2.3-2.3 0-1.3-1-2.3-2.3-2.3C-1022.4 478.3-1023.4 479.4-1023.4 480.7"/>
    <path id="Fill-28" sketch:type="MSShapeGroup" class="st13" d="M-1023.4 508.5c0 1.3 1 2.3 2.3 2.3 1.3 0 2.3-1 2.3-2.3 0-1.3-1-2.3-2.3-2.3C-1022.4 506.2-1023.4 507.2-1023.4 508.5"/>
    <path id="Fill-29" sketch:type="MSShapeGroup" class="st13" d="M-1023.4 536.3c0 1.3 1 2.3 2.3 2.3 1.3 0 2.3-1 2.3-2.3 0-1.3-1-2.3-2.3-2.3C-1022.4 534-1023.4 535-1023.4 536.3"/>
    <path id="Fill-30" sketch:type="MSShapeGroup" class="st14" d="M-1193.3 476.2h-0.7v0.2h-65.5l28.5 4.7c0-0.1 0-0.3 0-0.4 0-1.3 1-2.3 2.3-2.3 1.3 0 2.3 1 2.3 2.3 0 0.4-0.1 0.8-0.3 1.1l33.4 5.5V476.2"/>
    <path id="Fill-31" sketch:type="MSShapeGroup" class="st15" d="M-1260.6 476.2l1.1 0.2h65.5v-0.2H-1260.6"/>
    <path id="Fill-32" sketch:type="MSShapeGroup" class="st16" d="M-1228.8 478.3c-1.3 0-2.3 1-2.3 2.3 0 0.1 0 0.3 0 0.4l4.3 0.7c0.2-0.3 0.3-0.7 0.3-1.1C-1226.4 479.4-1227.5 478.3-1228.8 478.3"/>
    <path id="Fill-33" sketch:type="MSShapeGroup" class="st17" d="M-985.8 476.2v11l0.1 0L-985.8 476.2 -985.8 476.2"/>
    <path id="Fill-34" sketch:type="MSShapeGroup" class="st14" d="M-985.8 476.2h-0.6v0.2h-65.6l28.6 4.7c0-0.1 0-0.3 0-0.4 0-1.3 1-2.3 2.3-2.3 1.3 0 2.3 1 2.3 2.3 0 0.4-0.1 0.8-0.3 1.1l33.2 5.4V476.2"/>
    <path id="Fill-35" sketch:type="MSShapeGroup" class="st15" d="M-1053.1 476.2l1.1 0.2h65.6v-0.2H-1053.1"/>
    <path id="Fill-36" sketch:type="MSShapeGroup" class="st16" d="M-1021.1 478.3c-1.3 0-2.3 1-2.3 2.3 0 0.1 0 0.3 0 0.4l4.3 0.7c0.2-0.3 0.3-0.7 0.3-1.1C-1018.8 479.4-1019.8 478.3-1021.1 478.3"/>
    <path id="Fill-37" sketch:type="MSShapeGroup" class="st17" d="M-1193.3 476.2h11.4v-0.6h-11.4V476.2zM-1067.9 476.2h11.4v-0.6h-11.4V476.2zM-1271 469.3v7h7v-0.6h-6.9L-1271 469.3 -1271 469.3 -1271 469.3zM-978.9 469.3v6.4h-6.8v0.6h6.8L-978.9 469.3 -978.9 469.3 -978.9 469.3z"/>
    <path id="Fill-38" sketch:type="MSShapeGroup" class="st14" d="M-978.9 469.3h-77.3c-3.8 0.5-7.9 0.9-11.7 1.2v5.2h11.4v0.6h0.7v-0.4h0.4l-1.1-0.2h77.5V469.3L-978.9 469.3zM-1193.6 469.3h-77.3v6.4h6.9v0.6h0.6v-0.4h0.5l-1.1-0.2h82.1v-5.2C-1185.7 470.2-1189.9 469.8-1193.6 469.3L-1193.6 469.3z"/>
    <path id="Fill-39" sketch:type="MSShapeGroup" class="st15" d="M-1055.8 475.8v0.4h2.7l-2.3-0.4H-1055.8"/>
    <path id="Fill-40" sketch:type="MSShapeGroup" class="st15" d="M-1263.5 475.8v0.4h2.8l-2.3-0.4H-1263.5"/>
    <path id="Fill-41" sketch:type="MSShapeGroup" class="st18" d="M-1264 475.7l1.1 0.2h68.9v0.4h0.7v-0.6H-1264"/>
    <path id="Fill-42" sketch:type="MSShapeGroup" class="st19" d="M-1263 475.8l2.3 0.4h66.6v-0.4H-1263"/>
    <path id="Fill-43" sketch:type="MSShapeGroup" class="st20" d="M-985.8 475.7L-985.8 475.7l0.1 0.6h-0.1V475.7z"/>
    <path id="Fill-44" sketch:type="MSShapeGroup" class="st18" d="M-1056.5 475.7l1.1 0.2h69v0.4h0.6v-0.6H-1056.5L-1056.5 475.7zM-985.8 475.7L-985.8 475.7 -985.8 475.7 -985.8 475.7z"/>
    <path id="Fill-45" sketch:type="MSShapeGroup" class="st19" d="M-1055.4 475.8l2.3 0.4h66.7v-0.4H-1055.4"/>
    <path id="Fill-46" sketch:type="MSShapeGroup" class="st21" d="M-1043.2 455.8c-2.8-9.2-31.3-50-31.3-50v-1.9c0-2-1.4-3.7-3.4-4.1l-28.1-5.1c-5 2.8-11.6 4.6-18.9 4.6 -7.3 0-13.9-1.7-18.9-4.6l-28.1 5.1c-2 0.4-3.4 2.1-3.4 4.1v1.9c0 0-28.5 40.8-31.3 50 0 0-3.2 6.3 2.2 10.4 5.4 4.1 34 4.8 34 4.8h91c0 0 28.6-0.7 34-4.8C-1040.1 462.1-1043.2 455.8-1043.2 455.8"/>
    <path id="Fill-47" sketch:type="MSShapeGroup" class="st22" d="M-1108.6 379.2h-32.7l-1.1 9.6c2.8 5.9 17.4 3.9 17.4 3.9s14.6 1.9 17.4-3.9L-1108.6 379.2"/>
    <path id="Fill-48" sketch:type="MSShapeGroup" class="st11" d="M-1107.5 388.8c0 0-5.3 1.7-17.4 1.7 -12.1 0-17.4-1.7-17.4-1.7l-6.1 6.8c6.6 6.5 23.5 6.2 23.5 6.2s17 0.3 23.5-6.2L-1107.5 388.8"/>
    <path id="Fill-49" sketch:type="MSShapeGroup" class="st23" d="M-1102.4 330h1.8c-5.5-11.4-25.1-11.7-25.1-11.7s-19.6 0.3-25.1 11.7h1.8c0 0-5.4 12-5.1 14.7 0.3 2.7 0 12.1 5.3 19.1l0 0c1.2 3.7 2.3 6.1 2.3 6.1l5.2 9.3c0 0 15.3 3.5 15.6 5.9 0.3-2.4 17.1-5.9 17.1-5.9l3.7-9.3c0 0 1-2.4 2.3-6.1l0 0c5.3-7 5-16.4 5.3-19.1C-1097 342-1102.4 330-1102.4 330"/>
    <path id="Fill-50" sketch:type="MSShapeGroup" class="st5" d="M-1073.5 554.9h-102.9c-3.1 0-5.6-2.5-5.6-5.6v-99.3c0-14.6 11.8-26.4 26.5-26.4h61.1c14.6 0 26.5 11.8 26.5 26.4v99.3C-1067.9 552.5-1070.4 554.9-1073.5 554.9"/>
    <path id="Fill-51" sketch:type="MSShapeGroup" class="st1" d="M-1093.7 553.8h-62.4v-90.4c0-14.6 11.8-26.4 26.5-26.4h9.5c14.6 0 26.5 11.8 26.5 26.4V553.8"/>
    <path id="Fill-52" sketch:type="MSShapeGroup" class="st24" d="M-1123 454.6c0 1.1-0.9 1.9-1.9 1.9 -1.1 0-2-0.9-2-1.9s0.9-1.9 2-1.9C-1123.9 452.6-1123 453.5-1123 454.6"/>
    <path id="Fill-53" sketch:type="MSShapeGroup" class="st25" d="M-1123 455.6c-0.2 0.8-1 1.5-1.9 1.5s-1.7-0.6-1.9-1.5c-1.3 0.3-2.5 0.8-3.5 1.5 0.5 0.7 0.4 1.7-0.3 2.4 -0.4 0.4-0.9 0.6-1.4 0.6 -0.4 0-0.7-0.1-1-0.3 -0.7 1.1-1.2 2.2-1.5 3.5 0.9 0.2 1.5 1 1.5 1.9s-0.6 1.7-1.5 1.9c0.3 1.3 0.8 2.5 1.5 3.5 0.3-0.2 0.7-0.3 1-0.3 0.5 0 1 0.2 1.4 0.6 0.6 0.6 0.7 1.6 0.3 2.4 1.1 0.7 2.3 1.2 3.5 1.5 0.2-0.8 1-1.5 1.9-1.5s1.7 0.6 1.9 1.5c1.3-0.3 2.5-0.8 3.5-1.5 -0.5-0.7-0.4-1.7 0.3-2.4 0.4-0.4 0.9-0.6 1.4-0.6 0.4 0 0.7 0.1 1 0.3 0.7-1.1 1.2-2.2 1.5-3.5 -0.9-0.2-1.5-1-1.5-1.9s0.6-1.7 1.5-1.9c-0.3-1.3-0.8-2.5-1.5-3.5 -0.3 0.2-0.7 0.3-1 0.3 -0.5 0-1-0.2-1.4-0.6 -0.6-0.6-0.7-1.6-0.3-2.4C-1120.6 456.3-1121.8 455.8-1123 455.6"/>
    <path id="Fill-54" sketch:type="MSShapeGroup" class="st5" d="M-1115.4 462.7c-0.3-1.3-0.8-2.5-1.5-3.5 -0.8 0.5-1.7 0.4-2.4-0.3 -0.6-0.6-0.7-1.6-0.3-2.4 -1.1-0.7-2.3-1.2-3.5-1.5 -0.2 0.8-1 1.5-1.9 1.5s-1.7-0.6-1.9-1.5c-1.3 0.3-2.5 0.8-3.5 1.5 0.5 0.7 0.4 1.7-0.3 2.4 -0.6 0.6-1.6 0.7-2.4 0.3 -0.7 1.1-1.2 2.2-1.5 3.5 0.9 0.2 1.5 1 1.5 1.9 0 0.9-0.6 1.7-1.5 1.9 0.3 1.3 0.8 2.5 1.5 3.5 0.7-0.5 1.7-0.4 2.4 0.3s0.7 1.6 0.3 2.4c1.1 0.7 2.3 1.2 3.5 1.5 0.2-0.8 1-1.5 1.9-1.5s1.7 0.6 1.9 1.5c1.3-0.3 2.5-0.8 3.5-1.5 -0.5-0.7-0.4-1.7 0.3-2.4 0.6-0.6 1.6-0.7 2.4-0.3 0.7-1.1 1.2-2.2 1.5-3.5 -0.9-0.2-1.5-1-1.5-1.9C-1116.9 463.6-1116.2 462.9-1115.4 462.7"/>
  </g>
  <circle id="Oval-19" sketch:type="MSShapeGroup" class="st2" cx="-1085" cy="401.9" r="5"/>
  <path class="st2" d="M-1059.4 318c-23.5 0-42.6 15.9-42.6 35.5 0 12.9 8.2 24.1 20.5 30.4 -1 1.3-1.6 2.9-1.6 4.6 0 4.1 3.4 7.5 7.5 7.5s7.5-3.4 7.5-7.5c0-0.1 0-0.2 0-0.2 2.8 0.5 5.7 0.7 8.6 0.7 23.5 0 42.6-15.9 42.6-35.5S-1035.9 318-1059.4 318z"/>
  <g id="FAD-signature" transform="translate(184.067923, 22.608915)" sketch:type="MSShapeGroup">
    <path id="Fill-1_1_" class="st1" d="M-1232.1 332.2l1.9-6.1h0.1l1.9 6.1H-1232.1L-1232.1 332.2zM-1224.4 335.9l-4.2-12h-4.5v1.6l1.2 0.1 -3.4 9.7c-0.1 0.4-0.2 0.5-0.6 0.6l-0.7 0.1v1.7h4.8v-1.8l-1.3 0.1 0.5-1.7h4.8l0.4 1.2c0.1 0.5 0.1 0.5-0.4 0.5l-0.7 0v1.7h5.2v-1.8L-1224.4 335.9 -1224.4 335.9 -1224.4 335.9z"/>
    <path id="Fill-2_1_" class="st1" d="M-1215.9 335.9h-1.9V326h1.6c2.2 0 4 1.1 4 4.8C-1212.1 334.1-1213.6 335.9-1215.9 335.9M-1216 323.9h-5.6v1.7l1.2 0.1v9.7c0 0.4-0.2 0.5-0.6 0.6l-0.6 0.1v1.7h5.7c3.3 0 6.3-1.9 6.3-7.4C-1209.6 326-1212.1 323.9-1216 323.9"/>
    <path id="Fill-3_1_" class="st21" d="M-1242.3 330.8c0 1-0.8 1.8-1.7 1.8 -1 0-1.7-0.8-1.7-1.8s0.8-1.8 1.7-1.8C-1243.1 329-1242.3 329.8-1242.3 330.8M-1239.5 328.9l-7.9-9.7c-0.5-0.7-1.3-1-2.2-1h-21.2v25.4h21.2c1 0 1.9-0.6 2.4-1.4l7.7-9.7C-1238.6 331.5-1238.6 330-1239.5 328.9"/>
    <path id="Fill-4_1_" class="st2" d="M-1262.7 336.2l0.7-0.1c0.4 0 0.6-0.2 0.6-0.6v-9.7l-1.2-0.1V324h10v3.5l-2.1 0.1v-0.8c0-0.4 0-0.6-0.6-0.6h-3.6v3.7h5.1v2.1h-5.1v4.1l1.9 0.1v1.8h-5.7V336.2"/>
  </g>
</svg>
