<svg xmlns="http://www.w3.org/2000/svg" version="1.1" x="0" y="0" width="21" height="19" viewBox="-1407 462.9 21 19" xml:space="preserve"><style type="text/css">
	.st0{fill:#E3E3E3;}
</style><title>testimonial icon</title><desc>Created with Sketch.</desc><g transform="translate(-186.000000, -370.000000)"><g transform="translate(184.000000, 370.000000)"><g transform="translate(2.000000, 0.000000)"><path class="st0" d="M-1403.4 473c0 0.7 0.4 1 1.1 1l1.2 0.1c0.8 0 1.6 0.4 2.2 1.2 0.6 0.7 0.9 1.6 0.9 2.5 0 1.1-0.4 2.1-1.2 2.9 -0.8 0.8-1.8 1.2-3 1.2 -1.4 0-2.6-0.6-3.5-1.7 -0.9-1.1-1.3-2.6-1.3-4.3 0-3.3 1.3-6.6 3.8-10.1 0.9-1.3 1.7-1.9 2.4-1.9 0.8 0 1.1 0.4 1.1 1.2 0 0.3-0.2 0.8-0.7 1.4 -0.8 1-1.5 2.2-2.2 3.6S-1403.4 472.3-1403.4 473L-1403.4 473zM-1391.8 473c0 0.7 0.4 1 1.1 1l1.2 0.1c0.8 0 1.5 0.4 2.1 1.2 0.6 0.7 0.9 1.6 0.9 2.5 0 1.1-0.4 2.1-1.2 2.9 -0.8 0.8-1.8 1.2-3 1.2 -1.4 0-2.5-0.6-3.4-1.7s-1.3-2.6-1.3-4.3c0-3.3 1.3-6.6 3.8-10.1 0.9-1.3 1.7-1.9 2.4-1.9 0.8 0 1.1 0.4 1.1 1.2 0 0.3-0.2 0.8-0.7 1.4 -1.1 1.4-2 3.1-2.7 5C-1391.7 472-1391.8 472.5-1391.8 473L-1391.8 473z"/></g></g></g></svg>