<svg width="80" height="79" xmlns="http://www.w3.org/2000/svg">
 <style type="text/css">.st0{fill:#323234;}
	.st1{fill:#B0CD57;}
	.st2{fill:none;stroke:#B0CD57;stroke-width:1.5;stroke-linecap:round;stroke-linejoin:round;stroke-dasharray:1,4;}
	.st3{fill:#AACA3F;}</style>

 <g>
  <title>background</title>
  <rect fill="none" id="canvas_background" height="81" width="82" y="-1" x="-1"/>
 </g>
 <g>
  <title>Layer 1</title>
  <g id="Details_4_">
   <g id="Engine-size_4_">
    <path d="m78.518181,39.556793c0,-20.814514 -17.258514,-37.701736 -38.530483,-37.701736c-21.272034,0 -38.530454,16.887221 -38.530454,37.701736s17.25842,37.701797 38.530454,37.701797s38.530483,-16.887226 38.530483,-37.701797z" class="st0" id="Fill-1_5_"/>
    <path id="svg_1" d="m40.088005,78.24041c-21.773647,0 -39.533779,-17.378155 -39.533779,-38.683617c0,-21.305374 17.760132,-38.683509 39.533779,-38.683509c21.773785,0 39.533836,17.378135 39.533836,38.683509c0,21.305462 -17.760117,38.683617 -39.533836,38.683617zm0,-75.403529c-20.66995,0 -37.527013,16.494458 -37.527013,36.719912c0,20.225441 16.857063,36.719894 37.527013,36.719894c20.669983,0 37.527054,-16.494453 37.527054,-36.719894c0,-20.225378 -16.857071,-36.719912 -37.527054,-36.719912z" class="st1"/>
    <path id="svg_2" d="m40.088005,73.625832l-0.501694,0c-0.40136,0 -0.70232,-0.294456 -0.70232,-0.785347s0.40139,-0.687332 0.802692,-0.687332l0.501713,0l0.501663,0c0,0 0,0 0,0c0.401356,0 0.702408,0.294563 0.802711,0.687332c0,0.39267 -0.300949,0.785347 -0.70232,0.785347l-0.702446,0zm4.515282,-0.19632c-0.401291,0 -0.702324,-0.29454 -0.702324,-0.687302c-0.100307,-0.392685 0.200607,-0.785431 0.602016,-0.785431c0.301071,0 0.601986,-0.098175 1.003395,-0.098175c0.40139,-0.09819 0.802746,0.19635 0.903084,0.589111c0.100307,0.392769 -0.200714,0.785439 -0.602016,0.883659c-0.401375,0 -0.802769,0 -1.204155,0.098137c0,0 0,0 0,0zm-9.03056,-0.098137c0,0 -0.100273,0 -0.100273,0c-0.301067,0 -0.70237,-0.098221 -1.003422,-0.196404c-0.401413,-0.098221 -0.702339,-0.490959 -0.602039,-0.883644c0.100304,-0.392723 0.501698,-0.687241 0.903091,-0.589134c0.300945,0.098289 0.601997,0.098289 1.003407,0.196411c0.401276,0.098175 0.702358,0.392723 0.601982,0.785408c-0.100372,0.490959 -0.40139,0.687363 -0.802746,0.687363zm13.947247,-0.98185c-0.301018,0 -0.602005,-0.196373 -0.702374,-0.490921c-0.100338,-0.392738 0.100368,-0.785423 0.501663,-0.883636c0.300995,-0.09816 0.6021,-0.19632 0.903084,-0.294548c0.401302,-0.098152 0.802692,0.098228 0.903,0.490906c0.100391,0.392761 -0.100307,0.785454 -0.501698,0.883675c-0.300983,0.098152 -0.702286,0.196327 -1.003391,0.294525c0,0 -0.100285,0 -0.100285,0zm-18.863831,0c-0.100428,0 -0.100428,0 -0.200729,0c-0.301018,-0.098198 -0.702324,-0.196373 -1.003391,-0.294525c-0.401358,-0.098221 -0.602018,-0.490913 -0.50168,-0.883675s0.50168,-0.589058 0.903072,-0.490906c0.300982,0.098228 0.601999,0.196388 0.903069,0.294548c0.401304,0.098213 0.602049,0.490898 0.501696,0.883636c0.100353,0.294548 -0.200729,0.490921 -0.602036,0.490921zm23.579765,-1.669106c-0.30098,0 -0.602051,-0.196373 -0.702374,-0.392776c-0.200623,-0.392654 0,-0.785416 0.401394,-0.981796c0.30098,-0.098167 0.602001,-0.29454 0.903091,-0.392685c0.401283,-0.196396 0.802616,0 1.003387,0.294518s0,0.785454 -0.301056,0.981819c-0.301048,0.098145 -0.601994,0.294548 -0.903084,0.392769c-0.200638,0.098152 -0.301037,0.098152 -0.40136,0.098152zm-28.295773,0c-0.100323,0 -0.200695,0 -0.301003,-0.098152c-0.300999,-0.098221 -0.602102,-0.294624 -0.903086,-0.392769c-0.401306,-0.196365 -0.501698,-0.589058 -0.301016,-0.981819c0.20071,-0.392769 0.601999,-0.490913 1.003389,-0.294518c0.30102,0.098145 0.602036,0.294518 0.903088,0.392685c0.401339,0.196381 0.501696,0.589142 0.401339,0.981796c-0.200695,0.196404 -0.501713,0.392776 -0.802711,0.392776zm32.710735,-2.356415c-0.200684,0 -0.501713,-0.098152 -0.602039,-0.294464c-0.200642,-0.294594 -0.100307,-0.785461 0.200737,-0.98188c0.300961,-0.19635 0.50164,-0.392761 0.802658,-0.490913c0.301052,-0.196342 0.802761,-0.098251 1.003387,0.196426s0.100327,0.785446 -0.200626,0.981773c-0.301064,0.19632 -0.602047,0.392685 -0.802761,0.589058c-0.200684,0 -0.301018,0 -0.401356,0zm-37.025303,0c-0.100391,0 -0.301035,0 -0.401358,-0.098152c-0.30105,-0.196312 -0.60207,-0.392746 -0.802782,-0.589073c-0.301016,-0.196457 -0.401356,-0.68734 -0.20059,-0.98188c0.20059,-0.294495 0.702322,-0.392693 1.003372,-0.196404c0.300966,0.196404 0.501696,0.392815 0.802647,0.490944c0.301102,0.196419 0.401373,0.68734 0.200762,0.981827c-0.200762,0.294586 -0.40139,0.392738 -0.602051,0.392738zm40.938549,-2.945404c-0.200665,0 -0.401394,-0.098213 -0.60202,-0.294586c-0.301052,-0.294487 -0.20068,-0.7854 0.100338,-1.080025c0.20068,-0.196342 0.501682,-0.392666 0.702358,-0.687202c0.301022,-0.294617 0.802708,-0.294617 1.103695,0c0.301014,0.294537 0.301014,0.785454 0,1.079971c-0.200649,0.196373 -0.50164,0.490906 -0.802673,0.687256c-0.100323,0.196373 -0.301022,0.294586 -0.501698,0.294586zm-44.952131,0c-0.200731,0 -0.401358,-0.098213 -0.50173,-0.196388c-0.300983,-0.196373 -0.501678,-0.490913 -0.802679,-0.687286c-0.301086,-0.294594 -0.301086,-0.78545 0,-1.079994c0.301001,-0.294464 0.802679,-0.294464 1.103678,0c0.200731,0.196392 0.501715,0.392715 0.702393,0.687309c0.301033,0.294518 0.301033,0.687286 0.100389,1.079971c-0.200764,0.098175 -0.401392,0.196388 -0.602051,0.196388zm48.464056,-3.53455c-0.200714,0 -0.301064,-0.098148 -0.50174,-0.196365c-0.301018,-0.294544 -0.40136,-0.687286 -0.100342,-1.079975c0.200668,-0.196346 0.401367,-0.490913 0.602081,-0.785454c0.300972,-0.294563 0.702362,-0.392712 1.103691,-0.098221c0.301048,0.294567 0.401352,0.687328 0.100372,1.080044c-0.200714,0.29454 -0.40139,0.490887 -0.602081,0.785458c-0.100296,0.294514 -0.401352,0.294514 -0.601982,0.294514zm-51.975962,0c-0.200696,0 -0.401408,-0.098148 -0.602088,-0.294514c-0.200643,-0.294571 -0.401322,-0.490917 -0.702305,-0.785458c-0.301085,-0.294594 -0.200678,-0.785477 0.100306,-1.080044c0.301001,-0.294491 0.802679,-0.196342 1.103696,0.098221c0.200713,0.29454 0.401408,0.490917 0.602103,0.785454c0.300965,0.294544 0.20068,0.785431 -0.100407,1.079975c-0.100288,0.098194 -0.200644,0.196365 -0.401305,0.196365zm54.986124,-3.927296c-0.100296,0 -0.301018,0 -0.401405,-0.098145c-0.401299,-0.196323 -0.501671,-0.687233 -0.200653,-0.981773c0.200653,-0.294598 0.301041,-0.589134 0.501762,-0.785538c0.200623,-0.392681 0.702324,-0.490883 1.003395,-0.29451c0.401291,0.196373 0.501656,0.687309 0.300972,0.981796c-0.200691,0.294544 -0.300972,0.589161 -0.501694,0.883701c-0.200699,0.196243 -0.501717,0.294468 -0.702377,0.294468zm-57.996316,0c-0.200697,0 -0.501731,-0.098145 -0.602087,-0.392685c-0.200644,-0.294548 -0.401321,-0.589085 -0.501678,-0.883633c-0.200644,-0.392735 -0.100306,-0.785423 0.301035,-0.981819c0.401322,-0.196373 0.802731,-0.098202 1.003409,0.294544c0.200644,0.29454 0.300982,0.589077 0.501695,0.785423c0.200644,0.392792 0.100323,0.785484 -0.200712,0.98185c-0.200644,0.098095 -0.300982,0.19632 -0.501661,0.19632zm59.702088,-3.141792c-0.100349,0 -0.200699,0 -0.301018,-0.098148c-0.401375,-0.196365 -0.501656,-0.58913 -0.301033,-0.98185c0.100349,-0.29459 0.301033,-0.589081 0.401352,-0.883648c0.200699,-0.392689 0.602036,-0.490917 1.00341,-0.392689c0.40139,0.196342 0.501686,0.589058 0.40139,0.981747c-0.100327,0.29459 -0.301064,0.589161 -0.40139,0.883678c-0.30101,0.392761 -0.501717,0.49091 -0.802711,0.49091zm-62.009906,-1.27631c-0.301052,0 -0.602053,-0.196423 -0.702357,-0.490967c-0.100408,-0.29454 -0.301034,-0.589005 -0.401408,-0.883625c-0.200696,-0.392715 0,-0.78548 0.401408,-0.9818c0.401305,-0.196316 0.802696,0 1.003374,0.392742c0.100305,0.294544 0.200695,0.589058 0.401322,0.883678c0.200678,0.392635 0,0.7854 -0.401322,0.981773c-0.10039,0.098198 -0.200678,0.098198 -0.301017,0.098198zm63.916347,-3.23999c-0.100342,0 -0.100342,0 -0.200645,0c-0.401398,-0.098171 -0.60202,-0.490913 -0.501694,-0.883675c0.100296,-0.294548 0.20063,-0.589088 0.300987,-0.883606c0.100388,-0.392761 0.501755,-0.589134 0.903038,-0.490879c0.401367,0.098118 0.602081,0.490879 0.501701,0.883545c-0.100334,0.294621 -0.200638,0.687305 -0.300926,0.981876c-0.100426,0.196342 -0.40139,0.392738 -0.702461,0.392738zm-65.521825,-1.374615c0,0 -0.602017,-0.196369 -0.702356,-0.589058c-0.100357,-0.294544 -0.200662,-0.687283 -0.301035,-0.9818c-0.100305,-0.392765 0.200679,-0.785477 0.602069,-0.883675c0.401322,-0.098148 0.802679,0.196392 0.903035,0.589111c0.100374,0.294563 0.200696,0.589081 0.200696,0.981819c0.100305,0.392715 -0.100322,0.785454 -0.501713,0.883602c-0.100305,0 -0.200696,0 -0.200696,0zm66.625592,-3.43631c0,0 -0.10038,0 -0.10038,0c-0.401352,-0.098141 -0.702316,-0.392738 -0.602028,-0.883675c0.100327,-0.294544 0.100327,-0.589058 0.100327,-0.981827c0.100349,-0.392685 0.401367,-0.687202 0.802765,-0.687202c0.401405,0.098148 0.702332,0.392666 0.702332,0.785431c0,0.29454 -0.100296,0.687252 -0.100296,0.981819c-0.100342,0.589058 -0.401398,0.785454 -0.802719,0.785454zm-67.628984,-1.374588c-0.401322,0 -0.702374,-0.29454 -0.702374,-0.687283c0,-0.29454 -0.100322,-0.687279 -0.100322,-0.981823c0,-0.392635 0.301,-0.785423 0.702391,-0.785423c0.40134,0 0.802713,0.294514 0.802713,0.687252c0,0.294563 0.100287,0.687309 0.100287,0.981827c0,0.392765 -0.301,0.78545 -0.802696,0.78545c0.100374,0 0,0 0,0zm68.030305,-3.436333c0,0 0,0 0,0c-0.401321,0 -0.802628,-0.294567 -0.802628,-0.785507l0,-0.294518c0,-0.196316 0,-0.392708 0,-0.687305c0,-0.392685 0.300926,-0.785374 0.702293,-0.785374c0,0 0,0 0,0c0.40139,0 0.702408,0.294514 0.802742,0.687202c0,0.19635 0,0.490936 0,0.68726l0,0.294567c-0.000038,0.490959 -0.30101,0.883675 -0.702408,0.883675zm-68.230983,-1.472733c0,0 0,0 0,0c-0.401357,0 -0.802714,-0.392769 -0.802714,-0.785458c0,-0.294514 0,-0.687283 0,-0.9818c0,-0.392761 0.401357,-0.687305 0.802714,-0.687305c0.401357,0 0.702374,0.392765 0.702374,0.785431c0,0.294567 0,0.589161 0,0.98185c0.100373,0.392685 -0.301017,0.687283 -0.702374,0.687283zm67.92995,-3.436359c-0.401306,0 -0.70237,-0.294491 -0.70237,-0.589085c0,-0.294621 -0.100327,-0.589081 -0.100327,-0.981773c-0.100288,-0.392765 0.20063,-0.785534 0.602028,-0.883675c0.401367,-0.098148 0.802757,0.196392 0.903099,0.589077c0.100296,0.294598 0.100296,0.68729 0.200645,0.98175c0.100327,0.392792 -0.200645,0.785507 -0.602043,0.785507c-0.301033,0.098198 -0.301033,0.098198 -0.301033,0.098198zm-67.327898,-1.374538c0,0 -0.100339,0 -0.100339,0c-0.40134,-0.098122 -0.702357,-0.490891 -0.602018,-0.883602c0.100305,-0.29454 0.100305,-0.687283 0.200678,-0.981873c0.100305,-0.392689 0.501679,-0.68718 0.903,-0.589035c0.401392,0.098171 0.702409,0.49094 0.602053,0.883625c-0.10034,0.294544 -0.10034,0.589088 -0.200661,0.981831c-0.200696,0.294514 -0.501679,0.589054 -0.802713,0.589054zm66.224245,-3.436335c-0.301048,0 -0.602112,-0.196423 -0.702446,-0.490911c-0.100296,-0.294567 -0.200623,-0.589058 -0.300957,-0.88368c-0.100403,-0.392656 0.100334,-0.785427 0.501648,-0.883547c0.401352,-0.098248 0.802711,0.09812 0.903038,0.490891c0.100349,0.29454 0.200775,0.589058 0.301064,0.98177c0.100304,0.39274 -0.100288,0.785479 -0.501678,0.883654c0,-0.098175 -0.10041,-0.098175 -0.200668,-0.098175zm-65.020141,-1.374592c-0.100374,0 -0.20073,0 -0.20073,0c-0.401357,-0.098116 -0.602053,-0.589029 -0.501644,-0.981794c0.100287,-0.294569 0.200678,-0.589085 0.300982,-0.981852c0.100321,-0.39274 0.602018,-0.589031 1.003391,-0.39274c0.401392,0.098225 0.602018,0.58919 0.401392,0.981825c-0.100374,0.294621 -0.200713,0.589134 -0.301052,0.883678c-0.10034,0.294516 -0.401305,0.490883 -0.70234,0.490883zm63.314292,-3.239983c-0.300995,0 -0.602013,-0.196371 -0.702377,-0.392769c-0.100319,-0.294514 -0.30101,-0.589058 -0.401291,-0.883547c-0.200722,-0.39274 0,-0.785429 0.300972,-0.981825c0.401352,-0.196367 0.802696,0 1.003403,0.294491c0.200706,0.294594 0.30101,0.589111 0.401337,0.88373c0.200691,0.392637 0,0.785402 -0.401337,0.981771c0,0.098148 -0.100365,0.098148 -0.200706,0.098148zm-61.307492,-1.276316c-0.100391,0 -0.200713,0 -0.301069,-0.098146c-0.401322,-0.196423 -0.501713,-0.589188 -0.301018,-0.981825c0.200678,-0.294592 0.301018,-0.589136 0.501696,-0.883678c0.200729,-0.392763 0.702392,-0.49091 1.003392,-0.294516s0.501747,0.687283 0.301018,0.981773c-0.200644,0.294567 -0.301018,0.589058 -0.501697,0.883652c-0.200644,0.294518 -0.501678,0.39274 -0.702322,0.39274zm58.89932,-2.945471c-0.200653,0 -0.501671,-0.098146 -0.60202,-0.294518c-0.200607,-0.29454 -0.401367,-0.490858 -0.501694,-0.785429c-0.2006,-0.294645 -0.2006,-0.785528 0.200745,-0.981848c0.300949,-0.196371 0.802681,-0.196371 1.003357,0.19632c0.200722,0.29459 0.401344,0.589134 0.602074,0.785528c0.200623,0.294571 0.100288,0.785429 -0.200729,0.9818c-0.301048,-0.000051 -0.401344,0.098146 -0.501732,0.098146zm-56.290536,-1.178169c-0.200662,0 -0.301,0 -0.401357,-0.098171c-0.301017,-0.196396 -0.401357,-0.687283 -0.200644,-0.981825c0.200644,-0.294569 0.40134,-0.490911 0.602001,-0.785479c0.301035,-0.294569 0.702407,-0.392664 1.103729,-0.098146c0.301069,0.294542 0.401392,0.687256 0.10041,1.079967c-0.200729,0.294544 -0.401408,0.490887 -0.602121,0.785482c-0.200593,0 -0.401271,0.098171 -0.602017,0.098171zm53.180039,-2.749075c-0.200676,0 -0.40136,-0.098146 -0.601997,-0.294567c-0.200729,-0.196348 -0.401413,-0.490913 -0.702377,-0.687258c-0.301018,-0.294518 -0.301018,-0.785429 0,-1.079969c0.300964,-0.294596 0.802711,-0.294596 1.103699,0c0.200676,0.196291 0.501701,0.490911 0.702415,0.785452c0.300972,0.294518 0.20063,0.785427 -0.10038,1.079971c0,0.098171 -0.200684,0.196371 -0.40136,0.196371zm-49.969136,-1.080097c-0.200694,0 -0.401303,-0.098101 -0.501712,-0.196321c-0.300982,-0.294542 -0.300982,-0.785427 0,-1.079971c0.200696,-0.196368 0.501712,-0.490861 0.702408,-0.687305c0.300983,-0.294517 0.802715,-0.294517 1.103697,0c0.301069,0.294539 0.301069,0.785453 0,1.079996c-0.200626,0.196367 -0.501713,0.490883 -0.702305,0.687281c-0.200764,0.196321 -0.401392,0.196321 -0.602088,0.196321zm46.356931,-2.356289c-0.200768,0 -0.301052,-0.098145 -0.501698,-0.196369c-0.200733,-0.196371 -0.50169,-0.392689 -0.802746,-0.589058c-0.301022,-0.294516 -0.401405,-0.687282 -0.100338,-1.080047c0.301014,-0.294492 0.702351,-0.392638 1.103729,-0.098147c0.301052,0.196369 0.501678,0.39274 0.802784,0.58906c0.300892,0.294619 0.401302,0.687279 0.100288,1.080046c-0.100288,0.196319 -0.301003,0.294516 -0.60202,0.294516zm-42.644346,-0.8836c-0.200748,0 -0.40139,-0.098223 -0.602087,-0.294594c-0.300983,-0.294515 -0.200697,-0.785427 0.100391,-1.079993c0.300947,-0.196347 0.501696,-0.392689 0.802645,-0.58911c0.301048,-0.196319 0.802729,-0.196319 1.003408,0.196422c0.200727,0.294489 0.200727,0.785402 -0.20068,0.981771c-0.301033,0.196396 -0.50168,0.392663 -0.802729,0.589083c0.00005,0.196422 -0.100325,0.196422 -0.300949,0.196422zm38.630774,-1.963697c-0.100384,0 -0.301067,0 -0.40139,-0.098147c-0.301067,-0.196345 -0.602032,-0.29462 -0.802761,-0.490911c-0.401321,-0.196396 -0.501698,-0.687256 -0.300961,-0.981798c0.200653,-0.392766 0.702316,-0.490912 1.003422,-0.294593c0.300934,0.196369 0.601997,0.294593 0.903,0.490911c0.401325,0.196372 0.501709,0.687283 0.200695,0.981772c-0.100342,0.29462 -0.401371,0.392767 -0.602005,0.392767zm-34.416565,-0.687257c-0.300949,0 -0.501696,-0.098198 -0.702322,-0.392766c-0.200712,-0.392687 -0.100323,-0.785427 0.301001,-0.981796c0.301001,-0.196321 0.602087,-0.294569 0.903,-0.490939c0.401394,-0.196293 0.802782,0 1.003393,0.294618c0.200779,0.392691 0.100405,0.785431 -0.300898,0.981826c-0.301102,0.196292 -0.602089,0.294489 -0.903107,0.49086c-0.100388,0 -0.200695,0.098198 -0.301067,0.098198zm30.001575,-1.570884c-0.100334,0 -0.200672,0 -0.301018,-0.098195c-0.30098,-0.098173 -0.602047,-0.294568 -0.903069,-0.392715c-0.401287,-0.196395 -0.601986,-0.589084 -0.401287,-0.981823c0.200615,-0.392766 0.601986,-0.589059 1.003376,-0.392766c0.30098,0.098249 0.601997,0.294619 0.903015,0.392766c0.401356,0.19637 0.602077,0.589058 0.401356,0.981823c-0.200672,0.294542 -0.501694,0.490911 -0.702374,0.490911zm-25.486279,-0.589058c-0.30093,0 -0.602016,-0.196369 -0.702324,-0.490936c-0.100321,-0.392739 0,-0.785429 0.401394,-0.981799c0.30093,-0.098173 0.602015,-0.196394 1.003372,-0.392765c0.401323,-0.098172 0.802647,0.098249 1.003391,0.490937c0.100325,0.39274 -0.10037,0.785506 -0.501694,0.9818c-0.301054,0.098221 -0.602068,0.196394 -0.903055,0.294592c-0.100407,0.098171 -0.200727,0.098171 -0.301085,0.098171zm20.670006,-0.981823c-0.100395,0 -0.100395,0 -0.200684,0c-0.301018,-0.098146 -0.602032,-0.19637 -1.003422,-0.19637c-0.40136,-0.098173 -0.70229,-0.490937 -0.602001,-0.883601c0.100307,-0.392766 0.501698,-0.687308 0.903088,-0.589136c0.30093,0.098223 0.702335,0.19637 1.003395,0.19637c0.401318,0.098147 0.602024,0.490887 0.50169,0.883651c0.100334,0.294466 -0.200748,0.589085 -0.602066,0.589085zm-15.853657,-0.39274c-0.301071,0 -0.702442,-0.19642 -0.702442,-0.589108c-0.100323,-0.39274 0.200764,-0.78548 0.602066,-0.883653c0.301003,-0.098147 0.702374,-0.098147 1.003395,-0.19637c0.401302,-0.098146 0.802692,0.19637 0.903015,0.589135c0.100391,0.392689 -0.200607,0.785429 -0.60202,0.883575c-0.300995,0.098248 -0.602016,0.098248 -1.003387,0.19642c-0.100323,0 -0.200626,0 -0.200626,0zm10.936981,-0.490937c0,0 0,0 0,0c-0.401302,0 -0.702385,-0.098172 -1.103783,-0.098172c-0.401333,0 -0.70232,-0.39274 -0.70232,-0.78548c0,-0.392689 0.401405,-0.687231 0.802715,-0.687231c0.301003,0 0.702393,0.098198 1.003387,0.098198c0.401325,0 0.702393,0.392714 0.702393,0.785403c0,0.392765 -0.300983,0.687282 -0.702393,0.687282zm-6.020382,-0.19637c-0.401302,0 -0.702374,-0.294542 -0.702374,-0.687282c0,-0.392689 0.301071,-0.785453 0.702374,-0.785453c0.301003,0 0.702408,0 1.003407,-0.098147c0.401291,0 0.8027,0.294568 0.8027,0.687257c0,0.392714 -0.301018,0.785478 -0.70232,0.785478c-0.401379,0.098148 -0.702427,0.098148 -1.103786,0.098148c0.100391,0 0.100391,0 0,0z" class="st1"/>
    <path d="m1.457244,1.658739" class="st2" id="Stroke-15_4_"/>
    <g id="svg_3">
     <path id="svg_4" d="m53.934929,55.658619l-2.608871,2.552673c-0.50169,0.490917 -1.806084,0.785538 -1.906395,0.785538c-8.328247,0.098145 -16.255127,-3.141815 -22.175119,-8.836338c-5.92001,-5.792774 -9.130913,-13.647289 -9.030575,-21.796318c0,0 0.300999,-1.276394 0.802713,-1.767277l2.608799,-2.552759c1.003391,-0.981825 2.809551,-1.374512 4.11396,-0.981825l0.602068,0.196398c1.304392,0.392714 2.608833,1.767252 3.010208,3.141815l1.304359,4.712671c0.401373,1.276421 -0.100361,3.141869 -1.103731,4.025444l-1.705748,1.669128c1.705748,6.283581 6.722719,11.094479 13.044157,12.763584l1.70573,-1.669106c1.003376,-0.981823 2.809582,-1.374516 4.113903,-1.079918l4.816364,1.276291c1.304413,0.392761 2.709141,1.669128 3.210804,2.945499l0.200802,0.589104c0.401272,1.276291 -0.10041,3.043591 -1.003429,4.025394zm3.812889,-30.338167l-5.21767,-5.105434l-8.528862,8.345449l-3.511894,-3.436382l0,12.076378l12.341824,0l-3.511887,-3.436359l8.42849,-8.443651z" class="st3"/>
    </g>
   </g>
  </g>
 </g>
</svg>