<svg xmlns:sketch="http://www.bohemiancoding.com/sketch/ns" xmlns="http://www.w3.org/2000/svg" xmlns:xlink="http://www.w3.org/1999/xlink" version="1.1" id="Layer_1" x="0" y="0" width="158" height="134" viewBox="-1338 404.9 158 134" xml:space="preserve" enable-background="new -1338 404.9 158 134">
  <style type="text/css">
    
	.st0{fill:#FFFFFF;}

  </style>
  <title>
    WP-travel-systems
  </title>
  <desc>
    Created with Sketch.
  </desc>
  <g id="Homepage" sketch:type="MSPage">
    <path id="Fill-1" class="st0" d="M-1281.2 412.7v0.8c0 0.8 0 1.9-0.1 3.1 -0.1 1.3-0.2 2.6-0.4 4 -0.2 1.4-0.5 2.8-0.9 4.3 -0.4 1.4-0.9 2.7-1.4 3.9 -0.6 1.1-1.3 2.1-2.1 2.8 -0.8 0.7-1.8 1.1-3 1.1 -0.6 0-1.2-0.1-1.6-0.3 -0.5-0.2-0.9-0.6-1.3-1 -0.2-0.2-0.3-0.3-0.4-0.5 -0.1-0.2-0.2-0.4-0.2-0.7 0.1-0.2 0.3-0.3 0.5-0.3 0.2 0 0.4 0.1 0.5 0.3 0.2 0.2 0.4 0.4 0.6 0.6 0.2 0.2 0.5 0.4 0.7 0.6 0.3 0.2 0.6 0.3 1 0.3 0.8 0 1.4-0.3 2-1s1-1.5 1.4-2.6c0.4-1.1 0.7-2.2 0.9-3.5 0.2-1.3 0.4-2.6 0.6-3.8 0.1-1.2 0.2-2.4 0.3-3.4 0-1.1 0.1-1.8 0.1-2.4 0-0.4 0-0.8 0-1.2 0-0.4 0-0.8-0.1-1.2 -1 0.1-1.9 0.2-2.9 0.3 -1 0.1-1.9 0.2-2.9 0.3 -0.2 0-0.5 0.1-0.8 0.1 -0.4 0.1-0.8 0.2-1.1 0.3 -0.4 0.1-0.7 0.3-1 0.4 -0.3 0.2-0.4 0.4-0.4 0.7 0 0.5 0.1 0.9 0.3 1.3 0.2 0.4 0.4 0.8 0.6 1.1 0.2 0.3 0.4 0.6 0.6 0.8 0.2 0.2 0.3 0.4 0.3 0.5 0 0.1-0.1 0.2-0.2 0.3h-0.2c-0.2 0-0.4-0.1-0.6-0.2 -0.3-0.2-0.6-0.5-0.9-0.8 -0.3-0.3-0.5-0.6-0.7-1 -0.2-0.4-0.4-0.7-0.5-1.1 -0.1-0.4-0.2-0.8-0.2-1.1 0-0.6 0.2-1.1 0.6-1.5 0.4-0.4 0.8-0.7 1.4-0.9 0.5-0.2 1.1-0.4 1.7-0.5 0.6-0.1 1.1-0.2 1.6-0.3 0.9-0.1 1.8-0.2 2.7-0.3s1.8-0.2 2.7-0.3c0.9-0.1 1.8-0.2 2.7-0.3 0.9-0.1 1.8-0.3 2.6-0.5 0.1 0 0.3-0.1 0.5-0.2 0.2-0.1 0.4-0.1 0.6-0.2 0.2-0.1 0.4-0.1 0.6-0.2 0.2-0.1 0.3-0.1 0.5-0.1 0.2 0 0.4 0.1 0.4 0.3 0 0.2 0.1 0.4 0.1 0.6 0 0.2 0 0.4-0.1 0.6 -0.1 0.1-0.2 0.3-0.4 0.4 -0.2 0.1-0.5 0.2-0.9 0.3s-0.8 0.2-1.2 0.3c-0.4 0.1-0.8 0.2-1.2 0.2 -0.4 0.1-0.8 0.2-1 0.3C-1281.3 412.2-1281.2 412.5-1281.2 412.7"/>
    <path class="st0" d="M-1252.4 425.4c-0.2 0-0.4 0.1-0.5 0.3 -0.1 0.2-0.2 0.3-0.3 0.5 -0.2 0.3-0.5 0.6-0.8 1.1 -0.4 0.5-0.8 0.9-1.2 1.3 -0.4 0.4-0.8 0.8-1.3 1.1 -0.4 0.3-0.8 0.5-1.2 0.5 -0.2 0-0.4-0.1-0.6-0.4 -0.1-0.2-0.2-0.5-0.3-0.9 -0.1-0.3-0.1-0.7-0.1-1 0-0.3 0-0.6 0-0.7 0-0.5 0-1.1 0.1-1.7 0.1-0.6 0.2-1.1 0.3-1.7 0.1-0.2 0.2-0.5 0.3-0.9 0.1-0.4 0.2-0.7 0.2-0.9 0-0.2-0.1-0.3-0.2-0.4 -0.2-0.1-0.3-0.1-0.5-0.1 -0.3 0-0.5 0.1-0.6 0.3 -0.2 0.2-0.3 0.4-0.4 0.6 -0.1 0.2-0.2 0.5-0.4 0.9 -0.2 0.4-0.4 0.9-0.7 1.3 -0.3 0.5-0.5 1-0.8 1.5 -0.3 0.5-0.6 1-0.9 1.4 -0.3 0.4-0.6 0.8-0.9 1 -0.3 0.3-0.5 0.4-0.8 0.4 -0.2 0-0.3-0.1-0.3-0.3 0-0.2-0.1-0.3-0.1-0.5 0-1.1 0.2-2.2 0.7-3.2 0.5-1 1.1-1.9 1.9-2.7 0.4-0.5 0.9-0.9 1.4-1.2 0.5-0.4 1-0.7 1.5-1 0.1 0 0.2-0.1 0.2-0.1 0.1 0 0.1-0.1 0.1-0.2 0-0.2-0.1-0.4-0.3-0.6 -0.2-0.2-0.4-0.3-0.7-0.3 -0.9 0-1.7 0.3-2.5 0.9 -0.8 0.6-1.5 1.3-2.2 2.2 -0.6 0.9-1.1 1.8-1.5 2.8 -0.2 0.5-0.3 1-0.4 1.4 -0.2 0.3-0.4 0.6-0.8 1 -0.4 0.5-0.8 0.9-1.2 1.4 -0.4 0.5-0.9 0.9-1.3 1.2 -0.5 0.3-0.8 0.5-1.2 0.5 -0.3 0-0.4-0.1-0.5-0.4 0-0.3-0.1-0.5-0.1-0.7 0-0.7 0.1-1.4 0.2-2.1 0.1-0.7 0.3-1.4 0.4-2.1 0.1-0.4 0.2-0.8 0.2-1.2 0-0.7-0.1-1.2-0.4-1.6 -0.3-0.4-0.6-0.7-1-1 -0.4-0.3-0.8-0.5-1.2-0.8 -0.4-0.2-0.7-0.5-1-0.9 0.1-0.5 0.1-1 0.1-1.4 0-0.2 0-0.4 0-0.6 0-0.3-0.1-0.5-0.2-0.8 -0.1-0.2-0.2-0.5-0.3-0.7 -0.1-0.2-0.3-0.3-0.5-0.3 -0.3 0-0.6 0.1-0.8 0.4 -0.2 0.3-0.4 0.6-0.6 0.9s-0.3 0.7-0.3 1.1c-0.1 0.4-0.1 0.7-0.1 0.9 0 0.5 0.1 0.9 0.2 1.3 0.1 0.4 0.3 0.8 0.6 1.2 -0.1 1-0.4 2-0.9 2.8 -0.5 0.9-1.1 1.7-1.6 2.6 -0.1 0.1-0.1 0.2-0.2 0.3 -0.1 0.1-0.1 0.2-0.1 0.3 0 0.3 0.1 0.4 0.4 0.4 0.2 0 0.3 0 0.4-0.1 0.1-0.1 0.3-0.2 0.4-0.3 0.3-0.3 0.6-0.7 0.9-1.2 0.3-0.4 0.5-0.9 0.8-1.4s0.5-1 0.6-1.4c0.2-0.5 0.4-0.9 0.5-1.4 0.4 0.1 0.8 0.4 1.2 0.7 0.4 0.3 0.6 0.7 0.6 1.2 0 0.6 0 1.1-0.1 1.7 0 0.5-0.1 1.1-0.1 1.7 0 0.4 0 0.8 0 1.3 0 0.5 0.1 0.9 0.3 1.4 0.1 0.4 0.3 0.8 0.6 1.1 0.3 0.3 0.7 0.5 1.2 0.5 0.5 0 1-0.2 1.6-0.6 0.6-0.4 1.2-0.8 1.7-1.4 0.5-0.5 1-1 1.4-1.6 0 0.1 0 0.1 0 0.2 0 0.4 0.1 0.7 0.3 1 0.1 0.3 0.3 0.6 0.6 0.8 0.2 0.2 0.5 0.3 0.9 0.3 0.4 0 0.8-0.1 1.2-0.5 0.4-0.3 0.8-0.7 1.2-1.1 0.4-0.4 0.7-0.9 1-1.3 0.3-0.5 0.6-0.8 0.8-1.1 0 0.4 0 0.8 0 1.3 0 0.5 0.1 1 0.3 1.5 0.2 0.5 0.4 0.9 0.7 1.3 0.3 0.3 0.7 0.5 1.2 0.5 0.5 0 1-0.1 1.6-0.5 0.5-0.3 1-0.7 1.5-1.1 0.5-0.4 0.9-0.9 1.3-1.4 0.4-0.5 0.7-0.9 1-1.3 0.1-0.2 0.2-0.4 0.4-0.6 0.2-0.2 0.3-0.4 0.3-0.6C-1252 425.6-1252.1 425.4-1252.4 425.4z"/>
    <path id="Fill-5" class="st0" d="M-1253.2 420.4c0.3-0.3 0.5-0.4 0.8-0.4 0.2 0 0.4 0 0.5 0.1 0.1 0.1 0.3 0.2 0.4 0.4 0.4 0.4 0.8 0.9 1.1 1.5 0.3 0.6 0.7 1.2 0.9 1.9 0.3 0.7 0.5 1.3 0.8 2 0.2 0.7 0.4 1.3 0.5 1.8 0.7-1.3 1.4-2.5 2.1-3.8 0.7-1.3 1.5-2.5 2.3-3.7 0.1-0.1 0.2-0.3 0.3-0.4 0.1-0.1 0.3-0.2 0.4-0.2 0.2 0 0.4 0.1 0.5 0.2 0.2 0.1 0.3 0.3 0.3 0.5 0 0.1 0 0.2-0.1 0.2 -0.1 0.1-0.1 0.1-0.1 0.2 -0.2 0.2-0.4 0.6-0.7 1.1 -0.3 0.5-0.7 1.1-1.1 1.7s-0.8 1.3-1.2 2.1c-0.4 0.7-0.8 1.4-1.2 2.1 -0.4 0.7-0.7 1.2-0.9 1.7s-0.4 0.8-0.4 1c-0.1 0.3-0.1 0.5-0.2 0.7 -0.1 0.2-0.3 0.3-0.7 0.3 -0.4 0-0.6-0.1-0.7-0.3 -0.1-0.2-0.1-0.5-0.2-0.8 -0.1-0.5-0.2-1.2-0.5-2 -0.2-0.8-0.5-1.6-0.8-2.4 -0.3-0.8-0.7-1.6-1-2.3 -0.4-0.7-0.7-1.3-1.1-1.7 -0.1-0.1-0.2-0.2-0.3-0.3 -0.1-0.1-0.1-0.2-0.1-0.3C-1253.6 420.9-1253.5 420.7-1253.2 420.4"/>
    <path class="st0" d="M-1221.3 425.1c-0.1-0.1-0.2-0.2-0.3-0.2 -0.2 0-0.3 0-0.4 0.1 -0.1 0.1-0.2 0.2-0.3 0.3 -0.1 0.2-0.3 0.4-0.4 0.6 -0.1 0.2-0.3 0.4-0.4 0.6 -0.2 0.3-0.5 0.6-0.8 1.1 -0.3 0.4-0.7 0.8-1.1 1.2s-0.8 0.7-1.2 1c-0.4 0.3-0.8 0.4-1.2 0.4 -0.4 0-0.8-0.2-1-0.6 -0.2-0.4-0.4-0.8-0.6-1.3 -0.1-0.5-0.2-1-0.3-1.6 0-0.5-0.1-0.9-0.1-1.2 0-0.2 0-0.4 0-0.7 0-0.3 0-0.5 0.1-0.6 0-0.1 0.1-0.3 0.2-0.4 0.1-0.2 0.2-0.3 0.3-0.4 0.2-0.4 0.5-0.8 0.7-1.2s0.5-0.8 0.7-1.2c0.5-0.8 0.9-1.8 1.3-2.8 0.4-1 0.8-2.1 1.2-3.2 0.4-1.1 0.7-2.2 0.9-3.3 0.2-1.1 0.3-2.1 0.3-3.1 0-0.3 0-0.6-0.1-0.9 -0.1-0.3-0.2-0.6-0.3-0.9 -0.1-0.3-0.3-0.5-0.5-0.7 -0.2-0.2-0.5-0.3-0.9-0.3 -0.4 0-0.9 0.2-1.3 0.5 -0.4 0.3-0.8 0.7-1.2 1.2 -0.4 0.5-0.7 1-1 1.5s-0.5 0.9-0.7 1.3c-0.8 1.9-1.4 3.9-1.8 6 -0.3 2.1-0.5 4.1-0.5 6.2 0 0.4 0 0.9 0 1.5 0 0.5 0.1 1.1 0.1 1.7 -0.3 0.5-0.6 1-1 1.5 -0.4 0.5-0.8 0.9-1.3 1.3 -0.5 0.4-1 0.7-1.6 1 -0.6 0.3-1.2 0.4-1.8 0.4 -0.7 0-1.2-0.2-1.5-0.6 -0.3-0.4-0.4-0.9-0.4-1.6 0-0.4 0-0.8 0.1-1.3 0.5-0.2 1-0.5 1.5-0.9 0.5-0.4 1-0.9 1.5-1.5 0.5-0.6 0.9-1.2 1.2-1.8 0.3-0.6 0.5-1.2 0.5-1.7 0-0.5-0.1-1-0.4-1.3 -0.3-0.3-0.7-0.5-1.2-0.5 -0.8 0-1.5 0.3-2.2 0.9 -0.7 0.6-1.2 1.4-1.7 2.3 -0.5 0.9-0.9 1.8-1.1 2.8 -0.3 1-0.4 1.8-0.4 2.5 0 0.5 0.1 1.1 0.2 1.5 0.1 0.5 0.3 0.9 0.6 1.3 0.3 0.4 0.6 0.7 1 0.9 0.4 0.2 0.9 0.3 1.5 0.3 0.8 0 1.6-0.1 2.4-0.4 0.8-0.3 1.5-0.6 2.1-1.1 0.7-0.5 1.3-1 1.8-1.6 0.2-0.2 0.4-0.5 0.6-0.7 0 0.3 0.1 0.5 0.2 0.8 0.2 0.7 0.4 1.3 0.7 1.9 0.3 0.6 0.6 1 1 1.4 0.4 0.4 0.9 0.5 1.4 0.5 0.6 0 1.2-0.2 1.9-0.6 0.6-0.4 1.2-0.9 1.8-1.4 0.6-0.6 1.1-1.2 1.5-1.8 0.5-0.6 0.8-1.2 1.1-1.7 0.1-0.2 0.2-0.3 0.3-0.5 0.1-0.2 0.2-0.4 0.2-0.6C-1221.2 425.3-1221.2 425.2-1221.3 425.1zM-1238.5 424c0.2-0.6 0.4-1.1 0.7-1.7s0.5-1.1 0.8-1.5c0.3-0.4 0.6-0.6 0.9-0.6 0.2 0 0.3 0.1 0.4 0.2 0.1 0.2 0.1 0.3 0.1 0.5 0 0.4-0.1 0.8-0.3 1.3 -0.2 0.4-0.5 0.9-0.8 1.3 -0.3 0.4-0.7 0.8-1 1.1 -0.4 0.3-0.7 0.6-1.1 0.8C-1238.8 425-1238.7 424.5-1238.5 424zM-1229.3 421v-0.5c0-1.4 0.2-2.9 0.5-4.5 0.3-1.6 0.7-3 1.2-4.4 0.1-0.2 0.2-0.6 0.3-1.1 0.1-0.5 0.3-1 0.5-1.4 0.2-0.5 0.5-0.9 0.7-1.2 0.3-0.3 0.6-0.5 0.9-0.5 0.1 0 0.2 0 0.3 0.1 0.1 0.1 0.1 0.2 0.1 0.3 0 0.1 0 0.2 0 0.4v0.3c0 1-0.2 2-0.5 3.2 -0.3 1.2-0.7 2.3-1.1 3.5 -0.4 1.2-0.9 2.3-1.5 3.4 -0.5 1.1-1.1 2-1.5 2.9C-1229.2 421.2-1229.3 421.1-1229.3 421z"/>
    <path id="Fill-8" class="st0" d="M-1333.1 464c-3.5-3.5-4.5-4.8-4.5-9.4 0-1.9 0.6-3.5 1.7-4.8 -0.2 0.8-0.3 1.6-0.3 2.5 0 4.8 1.3 6.6 4.8 10l4.9 5c1.3 1.4 1.8 2.6 1.8 4 0 1.2-0.5 1.9-1.3 2.1 0-1.7-0.7-3-1.9-4.5l-0.4-0.3v-1.4h-1.3L-1333.1 464 -1333.1 464zM-1326.6 480.2c1.5 0 2.9-0.2 4.1-0.7 -1.6 1.3-3.9 2-6.3 2 -4.8 0-8.7-2.7-8.7-7.6v-3.5h1.4v1.2C-1336.1 476.8-1332.3 480.2-1326.6 480.2L-1326.6 480.2zM-1317.6 471.7c0 4.8-4.1 7.5-8.9 7.5 -4.8 0-8.7-2.7-8.7-7.5v-3.5h6v3.2c0 2 1.2 3.1 2.7 3.1 1.5 0 2.7-1.2 2.7-3.1 0-1.8-0.6-3.3-1.9-4.6l-5-5c-3.5-3.5-4.5-4.8-4.5-9.4 0-4.6 3.6-7.5 8.7-7.5 5.1 0 8.7 3 8.7 7.5v2.3h-6v-1.3c0-2.4-1.2-3.7-2.7-3.7 -1.5 0-2.7 1.2-2.7 2.6 0 1.5 0.4 2.6 1.8 4.2l6 6.9C-1319.1 466-1317.6 467.8-1317.6 471.7L-1317.6 471.7zM-1326.1 456.7v-1.2c0-2.1-1-3.4-2.3-3.6 0.2-0.8 0.9-1.4 1.8-1.4 1.1 0 1.8 1.1 1.8 2.8v2.2h4.7v1.3h-5.9L-1326.1 456.7 -1326.1 456.7z"/>
    <path id="Fill-9" class="st0" d="M-1308 479.8h4.5v1.3h-5.8v-13.1l-7-20.5h2.1l6.2 18.4V479.8L-1308 479.8zM-1294.3 445.2l-7.1 20.5v13.1h-5.8v-13.1l-7-20.5h5.9l4.1 16.2 3.9-16.2H-1294.3L-1294.3 445.2zM-1304.1 457.9l-0.4-1.6 2.1-8.8h0.8L-1304.1 457.9 -1304.1 457.9z"/>
    <path id="Fill-10" class="st0" d="M-1289 464c-3.5-3.5-4.5-4.8-4.5-9.4 0-1.9 0.6-3.5 1.7-4.8 -0.2 0.8-0.3 1.6-0.3 2.5 0 4.8 1.3 6.6 4.8 10l4.9 5c1.3 1.4 1.8 2.6 1.8 4 0 1.2-0.5 1.9-1.3 2.1 0-1.7-0.7-3-1.9-4.5l-0.4-0.3v-1.4h-1.3L-1289 464 -1289 464zM-1282.4 480.2c1.5 0 2.9-0.2 4.1-0.7 -1.6 1.3-3.9 2-6.3 2 -4.8 0-8.7-2.7-8.7-7.6v-3.5h1.4v1.2C-1292 476.8-1288.2 480.2-1282.4 480.2L-1282.4 480.2zM-1273.5 471.7c0 4.8-4.1 7.5-8.9 7.5s-8.7-2.7-8.7-7.5v-3.5h6v3.2c0 2 1.2 3.1 2.7 3.1s2.7-1.2 2.7-3.1c0-1.8-0.6-3.3-1.9-4.6l-5-5c-3.5-3.5-4.5-4.8-4.5-9.4 0-4.6 3.6-7.5 8.7-7.5 5.1 0 8.7 3 8.7 7.5v2.3h-6v-1.3c0-2.4-1.2-3.7-2.7-3.7 -1.5 0-2.7 1.2-2.7 2.6 0 1.5 0.4 2.6 1.8 4.2l6 6.9C-1275 466-1273.5 467.8-1273.5 471.7L-1273.5 471.7zM-1282 456.7v-1.2c0-2.1-1-3.4-2.3-3.6 0.2-0.8 0.9-1.4 1.8-1.4 1.1 0 1.8 1.1 1.8 2.8v2.2h4.7v1.3h-5.9L-1282 456.7 -1282 456.7z"/>
    <path id="Fill-11" class="st0" d="M-1264.4 479.7h4.6v1.3h-6v-28.8h-6.1v-4.8h1.3v3.5h6.2V479.7L-1264.4 479.7zM-1251.3 445.2v4.8h-6.2v28.8h-6V450h-6.1v-4.8H-1251.3L-1251.3 445.2zM-1256.6 450.9h3v1.3h-3V450.9z"/>
    <path id="Fill-12" class="st0" d="M-1248.1 479.7h13.8v1.4h-15.2v-33.6h1.3V479.7L-1248.1 479.7zM-1232 474v4.8h-15.2v-33.6h14.5v4.8h-8.5v8.2h6v4.8h-6V474H-1232L-1232 474zM-1240.3 450.9h5.4v1.4h-5.4V450.9zM-1240.3 464h3v1.3h-3V464z"/>
    <path id="Fill-13" class="st0" d="M-1228.7 479.8h4.6v1.3h-6v-33.6h1.4V479.8L-1228.7 479.8zM-1203.9 445.2v33.6h-6v-20.7l-3.9 20.7h-4.2l-3.8-20.7h-0.1v20.7h-6v-33.6h8.1l3.8 20.1h0.1l3.8-20.1H-1203.9L-1203.9 445.2zM-1218.7 479.8h2.9l-0.2 1.3h-4.2l-0.8-4.2v-9.6L-1218.7 479.8 -1218.7 479.8zM-1215.8 461l-0.5-2.4 2.1-11h0.9L-1215.8 461 -1215.8 461zM-1210.7 479.8h4.7v1.3h-6v-6.3l1.3-7.4V479.8L-1210.7 479.8z"/>
    <path id="Fill-14" class="st0" d="M-1195.8 464c-3.5-3.5-4.5-4.8-4.5-9.4 0-1.9 0.6-3.5 1.7-4.8 -0.2 0.8-0.3 1.6-0.3 2.5 0 4.8 1.3 6.6 4.8 10l4.9 5c1.3 1.4 1.8 2.6 1.8 4 0 1.2-0.5 1.9-1.3 2.1 0-1.7-0.7-3-1.9-4.5l-0.4-0.3v-1.4h-1.3L-1195.8 464 -1195.8 464zM-1189.3 480.2c1.5 0 2.9-0.2 4.1-0.7 -1.6 1.3-3.9 2-6.3 2 -4.8 0-8.7-2.7-8.7-7.6v-3.5h1.4v1.2C-1198.8 476.8-1195 480.2-1189.3 480.2L-1189.3 480.2zM-1180.4 471.7c0 4.8-4.1 7.5-8.9 7.5s-8.7-2.7-8.7-7.5v-3.5h6v3.2c0 2 1.2 3.1 2.7 3.1s2.7-1.2 2.7-3.1c0-1.8-0.6-3.3-1.9-4.6l-5-5c-3.5-3.5-4.5-4.8-4.5-9.4 0-4.6 3.6-7.5 8.7-7.5 5.1 0 8.7 3 8.7 7.5v2.3h-6v-1.3c0-2.4-1.2-3.7-2.7-3.7 -1.5 0-2.7 1.2-2.7 2.6 0 1.5 0.4 2.6 1.8 4.2l6 6.9C-1181.8 466-1180.4 467.8-1180.4 471.7L-1180.4 471.7zM-1188.8 456.7v-1.2c0-2.1-1-3.4-2.3-3.6 0.2-0.8 0.9-1.4 1.8-1.4 1.1 0 1.8 1.1 1.8 2.8v2.2h4.7v1.3h-5.9L-1188.8 456.7 -1188.8 456.7z"/>
    <path id="Fill-14_1_" class="st0" d="M-1264.2 505.2v10.6h9.4C-1254.8 515.8-1254.2 506.2-1264.2 505.2"/>
    <path class="st0" d="M-1260.3 528.8c-0.8 0-1.6 0.2-2.3 0.6 -0.8-1.4-1.9-2.6-3-3.5 1.2-1 2.3-1.6 2.8-1.8 0.2 0 0.5 0 0.7 0 7.8-0.1 7.2-7 7.2-7h-21.9c0 2.3 1.1 3.8 1.1 3.8 2.1 3.3 4.8 3.1 4.8 3.1s0.3 0 2.1 0.1c0.5 0.3 1.6 0.9 2.7 1.8 -1.1 0.9-2.2 2.1-2.9 3.5 -0.7-0.4-1.5-0.6-2.3-0.6 -2.6 0-4.8 2.2-4.8 5 0 2.7 2.1 5 4.8 5 2.6 0 4.8-2.2 4.8-5 0-1.8-0.9-3.3-2.2-4.2 0.8-1.4 1.9-2.6 2.9-3.5 1.1 0.9 2.2 2 2.9 3.5 -1.3 0.9-2.2 2.4-2.2 4.2 0 2.7 2.1 5 4.8 5 2.6 0 4.8-2.2 4.8-5C-1255.5 531-1257.6 528.8-1260.3 528.8zM-1271.3 529.4v3.6c-0.2 0-0.4 0.1-0.5 0.2l-2.8-2.1C-1273.8 530.1-1272.7 529.4-1271.3 529.4zM-1274.7 531.3l2.8 2.1c-0.1 0.1-0.1 0.2-0.1 0.4 0 0.1 0 0.3 0.1 0.4l-2.8 2c-0.4-0.7-0.7-1.5-0.7-2.4C-1275.4 532.9-1275.2 532-1274.7 531.3zM-1274.6 536.4l2.8-2c0.1 0.1 0.3 0.2 0.5 0.3v3.6C-1272.7 538.1-1273.9 537.4-1274.6 536.4zM-1271.1 538.2v-3.6c0.2 0 0.4-0.1 0.5-0.2l2.8 2.1C-1268.6 537.4-1269.8 538.1-1271.1 538.2zM-1267.7 536.2l-2.8-2.1c0.1-0.1 0.1-0.2 0.1-0.4 0-0.1 0-0.3-0.1-0.4l2.8-2c0.4 0.7 0.7 1.5 0.7 2.4C-1267 534.7-1267.3 535.5-1267.7 536.2zM-1267.8 531.2l-2.8 2c-0.1-0.1-0.3-0.2-0.5-0.3v-3.6C-1269.8 529.4-1268.6 530.1-1267.8 531.2zM-1265.7 525.8c-0.9-0.7-1.8-1.3-2.4-1.6 1.1 0 2.6 0 4.8 0C-1263.9 524.5-1264.8 525-1265.7 525.8zM-1256.9 531.1l-2.8 2.1c-0.1-0.1-0.3-0.2-0.5-0.2v-3.6C-1258.8 529.4-1257.6 530.1-1256.9 531.1zM-1260.4 529.4v3.6c-0.2 0-0.4 0.1-0.5 0.3l-2.8-2C-1262.9 530.1-1261.7 529.4-1260.4 529.4zM-1263.8 531.4l2.8 2c-0.1 0.1-0.1 0.2-0.1 0.4 0 0.1 0 0.3 0.1 0.4l-2.8 2.1c-0.5-0.7-0.7-1.6-0.7-2.5C-1264.5 532.9-1264.2 532-1263.8 531.4zM-1263.6 536.4l2.8-2.1c0.1 0.1 0.3 0.2 0.5 0.3v3.6C-1261.7 538.1-1262.9 537.4-1263.6 536.4zM-1260.2 538.2v-3.6c0.2 0 0.4-0.1 0.5-0.3l2.8 2C-1257.6 537.4-1258.8 538.1-1260.2 538.2zM-1256.7 536.2l-2.8-2c0.1-0.1 0.1-0.2 0.1-0.4 0-0.1 0-0.3-0.1-0.4l2.8-2.1c0.5 0.7 0.7 1.6 0.7 2.5C-1256 534.7-1256.3 535.5-1256.7 536.2z"/>
    <path class="st0" d="M-1254.8 515.8h-16c0 0 0 0 0 0l-2.5-2.4c0 0 0 0-0.1 0 -0.1-0.1-3.2-1.8-4.8-0.6 -0.4 0.3-0.5 0.6-0.4 0.8 0.2 0.9 2.2 1.5 2.9 1.7l0.5 0.6h-1.4c-0.8 0.5 0 1.3 0 1.3h21.8C-1254 516.4-1254.8 515.8-1254.8 515.8zM-1275.3 514.8c0 0-0.1-0.1-0.1-0.1 -1.2-0.3-2.5-0.9-2.6-1.3 0-0.1 0.1-0.2 0.2-0.3 1-0.8 3.3 0.2 4.2 0.6l2 2h-2.8L-1275.3 514.8z"/>
  </g>
</svg>
