<svg width="80" height="79" xmlns="http://www.w3.org/2000/svg">
 <style type="text/css">.st0{fill:#323234;}
	.st1{fill:#B0CD57;}
	.st2{fill:none;stroke:#B0CD57;stroke-width:1.5;stroke-linecap:round;stroke-linejoin:round;stroke-dasharray:1,4;}
	.st3{fill:#AACA3F;}</style>

 <g>
  <title>background</title>
  <rect fill="none" id="canvas_background" height="81" width="82" y="-1" x="-1"/>
 </g>
 <g>
  <title>Layer 1</title>
  <g id="Details_5_">
   <g id="Engine-size_5_">
    <path d="m78.560715,39.589134c0,-20.785492 -17.2276,-37.649192 -38.46159,-37.649192s-38.461574,16.8637 -38.461574,37.649192s17.227575,37.649254 38.461574,37.649254c21.133846,0 38.46159,-16.863693 38.46159,-37.649254z" class="st0" id="Fill-1_6_"/>
    <path id="svg_1" d="m39.998917,78.218803c-21.734802,0 -39.463227,-17.353893 -39.463227,-38.629669c0,-21.275646 17.728424,-38.629613 39.463227,-38.629613c21.734795,0 39.463127,17.353967 39.463127,38.629613c0.000092,21.275776 -17.728333,38.629669 -39.463127,38.629669zm0,-75.298439c-20.633032,0 -37.460027,16.47152 -37.460027,36.66877c0,20.197247 16.826996,36.668777 37.460027,36.668777c20.63311,0 37.459946,-16.471531 37.459946,-36.668777c0.000053,-20.19718 -16.826836,-36.66877 -37.459946,-36.66877z" class="st1"/>
    <path id="svg_2" d="m39.998917,73.610695l-0.500835,0c-0.400589,0 -0.701057,-0.294121 -0.701057,-0.78434c0,-0.39222 0.400593,-0.686333 0.80127,-0.686333l0.500832,0l0.50082,0c0,0 0,0 0,0c0.400593,0 0.701061,0.294113 0.801216,0.686333c0,0.392113 -0.300415,0.78434 -0.701088,0.78434l-0.701157,0zm4.507206,-0.196053c-0.400612,0 -0.701084,-0.294144 -0.701084,-0.686386c-0.100151,-0.392097 0.200325,-0.784317 0.600945,-0.784317c0.300465,0 0.600941,-0.098038 1.001564,-0.098038c0.400681,-0.098038 0.801357,0.196083 0.901508,0.588234c0.100109,0.39222 -0.200287,0.784332 -0.600967,0.882439c-0.400696,0 -0.801289,0 -1.201965,0.098068c0,0 0,0 0,0zm-9.01442,-0.098068c0,0 -0.100216,0 -0.100216,0c-0.300377,0 -0.701061,-0.09803 -1.001534,-0.196075c-0.40062,-0.098038 -0.701088,-0.490196 -0.600967,-0.882378c0.10014,-0.39222 0.500744,-0.686348 0.90144,-0.58831c0.300472,0.098099 0.600941,0.098099 1.001621,0.196091c0.400696,0.098038 0.701092,0.39222 0.600956,0.784401c-0.100136,0.490196 -0.400623,0.686272 -0.8013,0.686272zm13.922283,-0.980415c-0.300472,0 -0.600945,-0.196136 -0.701061,-0.490257c-0.100143,-0.392189 0.100117,-0.78434 0.500744,-0.882393c0.300537,-0.098038 0.600937,-0.196075 0.901516,-0.294128c0.400677,-0.09803 0.801266,0.098053 0.901409,0.490219c0.100208,0.392174 -0.100143,0.78434 -0.500732,0.882431c-0.300571,0.097992 -0.701256,0.196091 -1.001656,0.294128c-0.000069,0 -0.10022,0 -0.10022,0zm-18.83008,0c-0.100224,0 -0.100224,0 -0.200438,0c-0.300396,-0.098038 -0.701077,-0.196136 -1.001562,-0.294128c-0.400578,-0.098091 -0.600939,-0.490257 -0.500801,-0.882431s0.500801,-0.588249 0.901424,-0.490219c0.300543,0.098053 0.600939,0.196091 0.901516,0.294128c0.400681,0.098053 0.600939,0.490204 0.500803,0.882393c0.100136,0.294121 -0.200335,0.490257 -0.600943,0.490257zm23.537642,-1.666779c-0.300465,0 -0.600952,-0.196121 -0.701149,-0.392227c-0.200294,-0.392143 0,-0.784325 0.400684,-0.980423c0.300465,-0.098022 0.600952,-0.294113 0.901421,-0.392159c0.400677,-0.196083 0.801304,0 1.001621,0.294136s0,0.784332 -0.300545,0.980423c-0.3004,0.098022 -0.600964,0.294128 -0.90144,0.39222c-0.200329,0.09803 -0.300468,0.09803 -0.400593,0.09803zm-28.245188,0c-0.100212,0 -0.20035,0 -0.300472,-0.09803c-0.300571,-0.098091 -0.600971,-0.294197 -0.901514,-0.39222c-0.400608,-0.196091 -0.500834,-0.588272 -0.300468,-0.980423c0.200331,-0.392235 0.601011,-0.490219 1.001635,-0.294136c0.30047,0.098045 0.601027,0.294136 0.901413,0.392159c0.400608,0.196098 0.50083,0.58828 0.400608,0.980423c-0.20026,0.196106 -0.500732,0.392227 -0.801201,0.392227zm32.652266,-2.353104c-0.200363,0 -0.500832,-0.098076 -0.601048,-0.294121c-0.200253,-0.294136 -0.100117,-0.78434 0.200428,-0.980431c0.300411,-0.196167 0.500828,-0.39222 0.80122,-0.49028c0.30048,-0.196091 0.801277,-0.09803 1.001545,0.196152s0.100224,0.78434 -0.200268,0.980423c-0.300537,0.196075 -0.600933,0.392166 -0.801277,0.588257c-0.200264,0 -0.300392,0 -0.4006,0zm-36.959208,0c-0.100124,0 -0.300488,0 -0.400593,-0.098076c-0.300575,-0.196045 -0.600971,-0.392143 -0.801405,-0.588234c-0.300371,-0.196129 -0.400579,-0.686348 -0.20026,-0.980461c0.20026,-0.294151 0.70109,-0.39212 1.001665,-0.196091c0.300468,0.196091 0.500727,0.392143 0.801201,0.490204c0.30047,0.19606 0.400593,0.686348 0.200331,0.980476c-0.200331,0.196091 -0.400591,0.392181 -0.600939,0.392181zm40.865438,-2.941322c-0.200314,0 -0.400574,-0.098053 -0.601013,-0.294144c-0.300396,-0.294113 -0.200256,-0.78434 0.100212,-1.078506c0.200329,-0.196087 0.500801,-0.392178 0.701164,-0.686298c0.300472,-0.294189 0.801289,-0.294189 1.101772,0c0.300491,0.294121 0.300491,0.784336 0,1.078457c-0.200359,0.196152 -0.500816,0.490211 -0.8013,0.686348c-0.100208,0.196091 -0.300472,0.294144 -0.500835,0.294144zm-44.871822,0c-0.200436,0 -0.400696,-0.098053 -0.500816,-0.196159c-0.300474,-0.196091 -0.500822,-0.490219 -0.801291,-0.686295c-0.300484,-0.294113 -0.300484,-0.78434 0,-1.078465c0.300468,-0.294121 0.801291,-0.294121 1.101671,0c0.200436,0.196091 0.500834,0.392181 0.701239,0.686306c0.300411,0.294121 0.300411,0.686356 0.100151,1.078453c-0.200363,0.098106 -0.400694,0.196159 -0.600954,0.196159zm48.377472,-3.529652c-0.200333,0 -0.300453,-0.097961 -0.500786,-0.196064c-0.300484,-0.294128 -0.400642,-0.686306 -0.100235,-1.078476c0.200455,-0.196068 0.400688,-0.490189 0.601021,-0.784332c0.300499,-0.29417 0.701103,-0.392227 1.101791,-0.098103c0.300407,0.294117 0.400604,0.686367 0.100121,1.078522c-0.200363,0.294121 -0.400665,0.490208 -0.600967,0.784336c-0.100197,0.294117 -0.400581,0.294117 -0.600945,0.294117zm-51.883125,0c-0.200259,0 -0.400607,-0.097961 -0.600941,-0.294117c-0.200347,-0.294128 -0.400607,-0.490215 -0.701165,-0.784336c-0.30047,-0.294193 -0.20026,-0.784405 0.10021,-1.078522s0.801289,-0.196068 1.101759,0.098103c0.200274,0.294144 0.400621,0.490208 0.60097,0.784332c0.300469,0.294147 0.200245,0.784348 -0.100225,1.078476c-0.100123,0.09803 -0.20026,0.196064 -0.400608,0.196064zm54.887886,-3.92178c-0.100113,0 -0.300392,0 -0.400627,-0.097988c-0.400574,-0.196087 -0.50074,-0.686348 -0.20031,-0.980461c0.20031,-0.294201 0.300545,-0.588268 0.500824,-0.784412c0.20034,-0.392105 0.701149,-0.490204 1.001511,-0.294117c0.400696,0.196136 0.500854,0.686348 0.300583,0.980465c-0.20034,0.294125 -0.300583,0.588318 -0.500824,0.882439c-0.200333,0.196014 -0.500816,0.294075 -0.701157,0.294075zm-57.892632,0c-0.200334,0 -0.500819,-0.097988 -0.601028,-0.392178c-0.200334,-0.294125 -0.400608,-0.588245 -0.500818,-0.882366c-0.200348,-0.392174 -0.100137,-0.784332 0.300485,-0.980423c0.400681,-0.196167 0.801362,-0.098099 1.001621,0.294125c0.200348,0.294125 0.300486,0.588192 0.500818,0.784328c0.20026,0.392178 0.100138,0.784336 -0.200333,0.980423c-0.200261,0.09803 -0.300486,0.196091 -0.500745,0.196091zm59.595422,-3.137405c-0.100204,0 -0.200424,0 -0.300537,-0.098053c-0.400688,-0.196064 -0.500854,-0.588314 -0.300484,-0.9804c0.100212,-0.294189 0.300484,-0.588314 0.400597,-0.882462c0.200424,-0.39222 0.601036,-0.490181 1.001648,-0.39222c0.400604,0.196156 0.500725,0.588314 0.400604,0.980492c-0.100128,0.294189 -0.300491,0.588314 -0.400604,0.882435c-0.300461,0.392155 -0.500725,0.490208 -0.801224,0.490208zm-61.899165,-1.274612c-0.300484,0 -0.600955,-0.196083 -0.701092,-0.490208c-0.100211,-0.294121 -0.300543,-0.588249 -0.400681,-0.882439c-0.200347,-0.392109 0,-0.784332 0.400681,-0.980419c0.400608,-0.196018 0.801303,0 1.001563,0.392178c0.100137,0.294121 0.200347,0.588242 0.400607,0.882431c0.200348,0.392155 0,0.784336 -0.400607,0.980476c-0.100122,0.09798 -0.20026,0.09798 -0.300471,0.09798zm63.802173,-3.235439c-0.100212,0 -0.100212,0 -0.200363,0c-0.400696,-0.098053 -0.600945,-0.490204 -0.500816,-0.882427c0.100121,-0.294125 0.200333,-0.588272 0.300575,-0.882393c0.10009,-0.392155 0.500786,-0.588314 0.90139,-0.490211c0.400604,0.098057 0.600937,0.490211 0.500847,0.882389c-0.100243,0.294193 -0.200363,0.686275 -0.300484,0.980423c-0.100151,0.196136 -0.400696,0.39222 -0.701149,0.39222zm-65.404763,-1.372643c-0.30047,0 -0.600941,-0.196087 -0.701078,-0.588268c-0.100138,-0.294167 -0.200347,-0.686279 -0.30047,-0.980396c-0.100138,-0.392254 0.200333,-0.784473 0.600955,-0.882458c0.400593,-0.098034 0.801289,0.196091 0.901412,0.588264c0.100137,0.294193 0.200347,0.58831 0.200347,0.980423c0.100122,0.392223 -0.10021,0.784378 -0.500818,0.882435c-0.100211,0 -0.200348,0 -0.200348,0zm66.506486,-3.431591c0,0 -0.10009,0 -0.10009,0c-0.400635,-0.097992 -0.70118,-0.392185 -0.601044,-0.882435c0.100197,-0.294071 0.100197,-0.5882 0.100197,-0.980431c0.100212,-0.392166 0.400604,-0.686287 0.801308,-0.686287c0.400612,0.098038 0.701088,0.39217 0.701088,0.784393c0,0.294125 -0.100212,0.686298 -0.100212,0.980423c-0.100151,0.588249 -0.400604,0.784336 -0.801247,0.784336zm-67.508034,-1.37265c-0.400696,0 -0.701166,-0.294125 -0.701166,-0.686291c0,-0.294132 -0.100123,-0.686356 -0.100123,-0.98048c0,-0.392101 0.30047,-0.78434 0.701151,-0.78434c0.400608,0 0.801216,0.294136 0.801216,0.686356c0,0.294125 0.100137,0.686291 0.100137,0.980423c0,0.392223 -0.300412,0.784332 -0.801215,0.784332c0.100123,0 0,0 0,0zm67.908677,-3.431522c0,0 0,0 0,0c-0.400642,0 -0.801216,-0.29414 -0.801216,-0.784409l0,-0.294117c0,-0.196087 0,-0.39217 0,-0.686287c0,-0.392239 0.300484,-0.784351 0.701065,-0.784351c0,0 0,0 0,0c0.400604,0 0.70118,0.294136 0.8013,0.686234c0,0.196148 0,0.490284 0,0.686359l0,0.294117c0,0.490288 -0.300476,0.882454 -0.701149,0.882454zm-68.109024,-1.470695c0,0 0,0 0,0c-0.400608,0 -0.801289,-0.392235 -0.801289,-0.784332c0,-0.294136 0,-0.686363 0,-0.980476c0,-0.39217 0.400681,-0.686302 0.801289,-0.686302c0.40068,0 0.70115,0.392166 0.70115,0.784328c0,0.294132 0,0.588314 0,0.980427c0.100152,0.392239 -0.30047,0.686356 -0.70115,0.686356zm67.808632,-3.431595c-0.400703,0 -0.701187,-0.294121 -0.701187,-0.588242c0,-0.294193 -0.100113,-0.588314 -0.100113,-0.980423c-0.10022,-0.392231 0.200325,-0.784386 0.60096,-0.882439c0.400581,-0.098038 0.801186,0.196079 0.901405,0.588245c0.100143,0.294193 0.100143,0.686302 0.200356,0.980423c0.100121,0.392223 -0.200356,0.784466 -0.601028,0.784466c-0.300392,0.097969 -0.300392,0.097969 -0.300392,0.097969zm-67.207677,-1.372578c0,0 -0.100137,0 -0.100137,0c-0.400608,-0.098042 -0.701166,-0.490211 -0.600955,-0.882446c0.100137,-0.294117 0.100137,-0.686226 0.200347,-0.980408c0.100138,-0.392166 0.500745,-0.6863 0.901353,-0.588257c0.400681,0.098045 0.701151,0.490211 0.601028,0.882439c-0.100224,0.294128 -0.100224,0.588257 -0.200347,0.980415c-0.200348,0.294125 -0.500818,0.588257 -0.801289,0.588257zm66.105886,-3.431589c-0.300545,0 -0.601028,-0.196089 -0.701241,-0.490217c-0.100121,-0.294117 -0.200249,-0.588243 -0.3004,-0.882431c-0.100212,-0.392111 0.100151,-0.784334 0.500854,-0.882318c0.400604,-0.098108 0.801193,0.097984 0.90139,0.490208c0.100212,0.294134 0.200363,0.588259 0.300484,0.980425c0.100121,0.392164 -0.100121,0.784334 -0.500816,0.882378c0,-0.098043 -0.100121,-0.098043 -0.200272,-0.098043zm-64.903989,-1.372648c-0.100137,0 -0.20026,0 -0.20026,0c-0.400695,-0.097977 -0.601028,-0.588184 -0.500818,-0.980427c0.100123,-0.294117 0.20026,-0.58824 0.300471,-0.980406c0.100123,-0.392239 0.60094,-0.588257 1.001636,-0.392239c0.400607,0.098104 0.600956,0.588316 0.400607,0.980423c-0.100122,0.294188 -0.200274,0.588314 -0.300484,0.882435c-0.100123,0.294123 -0.400608,0.490213 -0.701151,0.490213zm63.201299,-3.235447c-0.300499,0 -0.601036,-0.196077 -0.701195,-0.392168c-0.100113,-0.294121 -0.300453,-0.58824 -0.400696,-0.882376c-0.200241,-0.392227 0,-0.784393 0.300583,-0.98048c0.400696,-0.196079 0.801308,0 1.001572,0.294132c0.200333,0.294121 0.300461,0.588242 0.400658,0.882435c0.200279,0.392168 0,0.784336 -0.400658,0.980421c0,0.098036 -0.100151,0.098036 -0.200264,0.098036zm-61.198115,-1.274544c-0.100122,0 -0.200259,0 -0.30047,-0.098034c-0.400607,-0.196089 -0.50073,-0.588314 -0.30047,-0.980421c0.200333,-0.294191 0.30047,-0.588314 0.500818,-0.882437c0.200334,-0.392237 0.701152,-0.490282 1.001636,-0.294134c0.400681,0.196091 0.500818,0.6863 0.300471,0.980423c-0.200334,0.294123 -0.300471,0.588255 -0.500818,0.882376c-0.200334,0.294121 -0.500818,0.392227 -0.701166,0.392227zm58.7942,-2.941372c-0.20031,0 -0.500801,-0.097986 -0.601006,-0.294134c-0.200264,-0.294123 -0.400597,-0.490211 -0.500816,-0.784332c-0.200272,-0.294182 -0.200272,-0.784393 0.200417,-0.980425c0.3004,-0.196135 0.801193,-0.196135 1.00164,0.196032c0.200279,0.294182 0.400528,0.588314 0.600853,0.784393c0.200272,0.294121 0.100159,0.784332 -0.200325,0.98048c-0.300407,-0.000061 -0.400528,0.097986 -0.500763,0.097986zm-56.189973,-1.176569c-0.200348,0 -0.300485,0 -0.400695,-0.097977c-0.30047,-0.196087 -0.400593,-0.686357 -0.20026,-0.98048c0.20026,-0.294195 0.400607,-0.490211 0.600955,-0.784403c0.300487,-0.294121 0.701166,-0.392109 1.101773,-0.097973c0.30047,0.29406 0.400681,0.686287 0.10021,1.078453c-0.200348,0.294193 -0.400695,0.490211 -0.601028,0.784403c-0.200347,0 -0.400607,0.097977 -0.600955,0.097977zm53.085053,-2.745237c-0.200363,0 -0.400642,-0.097977 -0.601059,-0.294121c-0.200241,-0.196091 -0.400604,-0.490215 -0.701096,-0.686291c-0.300453,-0.294132 -0.300453,-0.784342 0,-1.078465c0.300491,-0.294194 0.801308,-0.294194 1.101791,0c0.200363,0.19602 0.500816,0.490211 0.701149,0.784332c0.300499,0.294132 0.200363,0.784332 -0.100204,1.078466c0,0.098032 -0.200249,0.196077 -0.400581,0.196077zm-49.879885,-1.078527c-0.200334,0 -0.400681,-0.097969 -0.500818,-0.196075c-0.300558,-0.294123 -0.300558,-0.784334 0,-1.078467c0.20026,-0.196075 0.500818,-0.490197 0.701078,-0.686348c0.300558,-0.294133 0.8013,-0.294133 1.101774,0c0.300468,0.294122 0.300468,0.784394 0,1.078454c-0.20035,0.196148 -0.50082,0.490269 -0.701078,0.686361c-0.200348,0.196075 -0.400696,0.196075 -0.600956,0.196075zm46.274008,-2.352998c-0.200256,0 -0.300396,-0.098042 -0.500729,-0.196149c-0.200291,-0.196075 -0.500832,-0.392105 -0.801228,-0.588182c-0.300545,-0.294122 -0.400684,-0.686358 -0.100208,-1.078586c0.300468,-0.294134 0.701145,-0.392107 1.101768,-0.097985c0.300396,0.196092 0.500835,0.392166 0.801197,0.588254c0.300575,0.294195 0.4007,0.68629 0.100212,1.078528c-0.100212,0.196018 -0.400681,0.29412 -0.601013,0.29412zm-42.568096,-0.882434c-0.200331,0 -0.400621,-0.098048 -0.600939,-0.294133c-0.300486,-0.294123 -0.200277,-0.784335 0.100107,-1.078518c0.300501,-0.196015 0.500832,-0.392165 0.801304,-0.588255c0.30047,-0.196074 0.801304,-0.196074 1.001635,0.19609c0.20026,0.294121 0.20026,0.784333 -0.200331,0.980482c-0.300474,0.196078 -0.500834,0.392094 -0.801304,0.588245c0,0.196089 -0.10021,0.196089 -0.300472,0.196089zm38.561714,-1.960906c-0.100136,0 -0.3004,0 -0.400608,-0.098043c-0.300468,-0.196075 -0.601044,-0.294181 -0.8013,-0.490198c-0.400593,-0.19609 -0.500732,-0.686298 -0.300468,-0.980422c0.200344,-0.392236 0.701145,-0.490271 1.00156,-0.294195c0.300556,0.196093 0.601025,0.294195 0.901512,0.490212c0.400677,0.196091 0.500805,0.686289 0.200314,0.980422c-0.100208,0.294181 -0.400677,0.392224 -0.601009,0.392224zm-34.354982,-0.686357c-0.30047,0 -0.500816,-0.097974 -0.701151,-0.392167c-0.200291,-0.392165 -0.10014,-0.784334 0.300543,-0.980481c0.300398,-0.196017 0.600941,-0.294121 0.901409,-0.490211c0.400625,-0.196017 0.801231,0 1.001562,0.294193c0.200363,0.392164 0.100214,0.784333 -0.300468,0.980483c-0.300468,0.196015 -0.600941,0.29406 -0.901411,0.490209c-0.100151,0 -0.20026,0.097974 -0.300484,0.097974zm29.947996,-1.568666c-0.100216,0 -0.200371,0 -0.300476,-0.098045c-0.300568,-0.09803 -0.600956,-0.294181 -0.901512,-0.392165c-0.400696,-0.196078 -0.600956,-0.588244 -0.400696,-0.980482c0.200439,-0.392166 0.601044,-0.588242 1.00164,-0.392166c0.300568,0.098044 0.601044,0.294193 0.901508,0.392166c0.400608,0.196151 0.600872,0.588255 0.400608,0.980482c-0.200348,0.294135 -0.500744,0.490211 -0.701073,0.490211zm-25.440811,-0.588243c-0.300467,0 -0.601011,-0.196088 -0.701149,-0.490211c-0.100124,-0.392238 0,-0.784333 0.400682,-0.98048c0.300467,-0.097985 0.600937,-0.196091 1.001633,-0.392167c0.400608,-0.098044 0.801231,0.098032 1.001562,0.490199c0.100138,0.392237 -0.100122,0.784403 -0.500803,0.980481c-0.300484,0.098044 -0.600882,0.196091 -0.901455,0.294133c-0.100107,0.098045 -0.200258,0.098045 -0.30047,0.098045zm20.633118,-0.980422c-0.100208,0 -0.100208,0 -0.200417,0c-0.300388,-0.098044 -0.600952,-0.196148 -1.001637,-0.196148c-0.400608,-0.097974 -0.701092,-0.490211 -0.600937,-0.882318c0.100208,-0.392226 0.500797,-0.686348 0.901482,-0.588314c0.300495,0.098043 0.701092,0.196088 1.001652,0.196088c0.400589,0.098045 0.60088,0.490211 0.500744,0.882437c0.100136,0.294062 -0.200264,0.588254 -0.600887,0.588254zm-15.825432,-0.392237c-0.300396,0 -0.701092,-0.196078 -0.701092,-0.588243c-0.100109,-0.392166 0.200291,-0.784403 0.600975,-0.882437c0.300541,-0.097985 0.70116,-0.097985 1.001633,-0.196088c0.400593,-0.098045 0.80127,0.196088 0.901424,0.588315c0.100136,0.392166 -0.200336,0.784332 -0.600956,0.882377c-0.300468,0.098046 -0.600941,0.098046 -1.00156,0.196078c-0.100212,0 -0.200424,0 -0.200424,0zm10.917538,-0.490199c0,0 0,0 0,0c-0.400677,0 -0.701145,-0.098044 -1.101742,-0.098044c-0.400681,0 -0.701183,-0.392166 -0.701183,-0.784403c0,-0.392167 0.400604,-0.686288 0.801304,-0.686288c0.300476,0 0.701153,0.098044 1.001621,0.098044c0.400623,0 0.701096,0.392226 0.701096,0.784333c0,0.392226 -0.300472,0.686359 -0.701096,0.686359zm-6.00964,-0.196089c-0.400681,0 -0.701164,-0.294121 -0.701164,-0.686358c0,-0.392167 0.300484,-0.784332 0.701164,-0.784332c0.300472,0 0.701149,0 1.001633,-0.098046c0.400612,0 0.801201,0.294134 0.801201,0.6863c0,0.392167 -0.300465,0.784393 -0.701057,0.784393c-0.400627,0.098044 -0.701096,0.098044 -1.101776,0.098044c0.100124,0 0.100124,0 0,0z" class="st1"/>
    <path d="m1.437203,1.743924" class="st2" id="Stroke-15_5_"/>
    <g id="svg_3">
     <path id="svg_4" d="m53.9212,55.668556l-2.604137,2.549084c-0.50082,0.490261 -1.802856,0.784454 -1.903076,0.784454c-8.31324,0.097988 -16.225952,-3.137447 -22.135471,-8.824081c-5.909357,-5.784641 -9.114527,-13.628242 -9.0144,-21.765903c0,0 0.300556,-1.274599 0.801302,-1.764811l2.604136,-2.549215c1.001637,-0.980412 2.804564,-1.37258 4.106596,-0.980412l0.601013,0.196075c1.302036,0.392239 2.604168,1.764816 3.004745,3.137461l1.302139,4.706141c0.400681,1.274544 -0.10014,3.137402 -1.101776,4.019779l-1.702711,1.666767c1.702711,6.27494 6.710732,11.079037 13.02087,12.745804l1.702717,-1.666767c1.001637,-0.980427 2.804474,-1.372574 4.106491,-1.078457l4.807755,1.274616c1.30204,0.392155 2.704281,1.666771 3.205112,2.941311l0.200333,0.588318c0.400604,1.274544 0,3.039345 -1.001637,4.019836zm-13.421467,-23.62883l5.208355,5.098293l8.513584,-8.333799l3.505653,3.431581l0,-12.059513l-12.319778,0l3.505634,3.431583l-8.413448,8.431854z" class="st3"/>
    </g>
   </g>
  </g>
 </g>
</svg>