<?xml version="1.0" encoding="UTF-8" standalone="no"?>
<svg width="44px" height="44px" viewBox="0 0 44 44" version="1.1" xmlns="http://www.w3.org/2000/svg" xmlns:xlink="http://www.w3.org/1999/xlink" xmlns:sketch="http://www.bohemiancoding.com/sketch/ns">
    <!-- Generator: Sketch Beta 3.2 (9961) - http://www.bohemiancoding.com/sketch -->
    <title>twitter</title>
    <desc>Created with Sketch Beta.</desc>
    <defs></defs>
    <g id="Foundations" stroke="none" stroke-width="1" fill="none" fill-rule="evenodd" sketch:type="MSPage">
        <g id="Footer-navigation" sketch:type="MSArtboardGroup" transform="translate(-1065.000000, -77.000000)">
            <g id="Footer-desktop-2" sketch:type="MSLayerGroup" transform="translate(-7.000000, 5.000000)">
                <g id="Social" transform="translate(1017.000000, 73.000000)" sketch:type="MSShapeGroup">
                    <g id="twitter" transform="translate(57.000000, 1.000000)">
                        <circle id="Oval-75" stroke="#EFEFEF" stroke-width="4" fill="#EFEFEF" cx="20" cy="20" r="20"></circle>
                        <path d="M39.9994866,20.0000073 C39.9998287,19.9521213 40,19.904195 40,19.8562289 C40,8.88993651 31.045695,0 20,0 C8.954305,0 0,8.88993651 0,19.8562289 C0,19.904195 0.000171308795,19.9521213 0.000513352097,20.0000073 C0.000171308831,20.0478885 0,20.0958099 0,20.1437711 C0,31.1118555 8.955,40 20,40 C31.045,40 40,31.1118555 40,20.1437711 C40,20.0958099 39.9998287,20.0478885 39.9994866,20.0000073 Z M27.9525,16.0968234 C27.96125,16.2705654 27.965,16.4455484 27.965,16.6217725 C27.965,22.0052925 23.8375,28.2128461 16.29,28.2128461 C13.9725,28.2128461 11.81625,27.5389753 10,26.383591 C10.3225,26.4195804 10.64875,26.4394366 10.97875,26.4394366 C12.9025,26.4394366 14.67,25.7891452 16.07375,24.6958115 C14.28,24.6623042 12.76375,23.4845816 12.2425,21.8675399 C12.4925,21.9134575 12.74875,21.9407598 13.01375,21.9407598 C13.38875,21.9407598 13.75125,21.8898782 14.09375,21.7968021 C12.21875,21.4220158 10.80375,19.7751898 10.80375,17.8032181 L10.80375,17.7523365 C11.3575,18.057626 11.99,18.2388141 12.6625,18.2611524 C11.56125,17.5314359 10.8375,16.2829755 10.8375,14.8694602 C10.8375,14.1236106 11.04,13.4224376 11.3925,12.8217866 C13.415,15.2864411 16.44,16.9084468 19.85,17.0784657 C19.78,16.7793813 19.74375,16.4691277 19.74375,16.150187 C19.74375,13.9002281 21.58125,12.0771781 23.8475,12.0771781 C25.0275,12.0771781 26.09375,12.5723428 26.8425,13.3616279 C27.77625,13.1804398 28.655,12.8416429 29.44875,12.3737805 C29.14125,13.3256384 28.49125,14.1236106 27.64375,14.6274625 C28.47375,14.5306633 29.265,14.3097628 30,13.9870991 C29.45125,14.8036865 28.755,15.5222338 27.9525,16.0968234 L27.9525,16.0968234 L27.9525,16.0968234 Z" id="Oval-34" fill="#39A0CD"></path>
                    </g>
                </g>
            </g>
        </g>
    </g>
</svg>