<svg xmlns="http://www.w3.org/2000/svg" version="1.1" x="0" y="0" width="120" height="34" viewBox="-1357 454.9 120 34" xml:space="preserve"><style type="text/css">
	.st0{fill:#D7222A;}
	.st1{fill:#FFFFFF;}
	.st2{fill:#4A4A4A;}
</style><title>Imported Layers + Shape Copy 2</title><desc>Created with Sketch.</desc><g transform="translate(-687.000000, -2642.000000)"><g transform="translate(24.000000, 33.000000)"><g transform="translate(0.000000, 2486.000000)"><g transform="translate(663.000000, 122.000000)"><g transform="translate(0.000000, 15.000000)"><path class="st0" d="M-1327.3 463.7l0.1-0.5 -0.6-0.1 0.2-1.2h3.6l-0.4 1.2 -0.6 0.1 -0.2 0.5 -0.8 3.2c-0.3 1.2-0.5 2.2-1.5 3.1 -0.9 0.8-2.2 1.1-3.5 1.1 -1.9 0-3.9-0.9-3.9-2.8 0-0.5 0.1-0.9 0.2-1.4l0.7-3.3 0.1-0.5 -0.6-0.1 0.2-1.2h4.3l-0.4 1.2 -0.6 0.1 -0.2 0.5 -0.9 3.7c-0.1 0.3-0.2 0.7-0.2 1 0 0.9 0.6 1.5 1.7 1.5 0.8 0 1.6-0.4 1.9-1 0.3-0.4 0.5-1.4 0.6-2L-1327.3 463.7M-1322.5 463.7l0.1-0.5 -0.6-0.1 0.2-1.2h3.9l-0.4 1.2 -0.4 0.1 -0.2 0.5 -0.6 2.4 3.2-2.9 -0.4-0.1 0.2-1.2h3.1l-0.4 1.2 -0.4 0.1 -0.9 0.6 -2.4 2.1 3 3.5 0.3 0.3 0.4 0.1 -0.2 1.2h-4.5l0.4-1.2 0.4-0.1 -2.1-2.8 -0.5 2.3 0 0.5 0.4 0.1 -0.2 1.2h-3.9l0.4-1.2 0.6-0.1 0.2-0.5L-1322.5 463.7M-1314 470.9l0.4-1.2 0.6-0.1 0.2-0.5 1.2-5.4 0-0.5 -0.6-0.1 0.2-1.2h4.1c0.7 0 1.4 0 2 0.2 0.8 0.3 1.3 0.8 1.3 1.5 0 1.3-1.5 2.4-2.8 2.6v0c1.1 0.2 2.3 1 2.3 2 0 0.9-0.6 1.6-1.4 2.1 -0.8 0.5-1.8 0.5-2.8 0.5H-1314L-1314 470.9zM-1310.5 469.6c0.3 0 0.5 0.1 0.8 0.1 0.5 0 1-0.1 1.3-0.4 0.4-0.3 0.6-0.8 0.6-1.3 0-1-1.1-1.2-2.1-1.2L-1310.5 469.6 -1310.5 469.6zM-1309.4 465.7c0.6 0 1.2-0.1 1.6-0.5 0.3-0.3 0.6-0.9 0.6-1.3 0-0.9-0.9-0.8-1.7-0.8h-0.1l-0.6 2.6H-1309.4L-1309.4 465.7zM-1300.6 469.1l0 0.5 0.6 0.1 -0.2 1.2h-4.3l0.4-1.2 0.6-0.1 0.2-0.5 1.2-5.4 0-0.5 -0.6-0.1 0.2-1.2h4.3l-0.4 1.2 -0.6 0.1 -0.2 0.5L-1300.6 469.1M-1296.6 463.7l0.1-0.5 -0.6-0.1 0.2-1.2h3.9l-0.4 1.2 -0.4 0.1 -0.2 0.5 -0.6 2.4 3.2-2.9 -0.4-0.1 0.2-1.2h3.1l-0.4 1.2 -0.4 0.1 -0.9 0.6 -2.4 2.1 3 3.5 0.3 0.3 0.4 0.1 -0.2 1.2h-4.5l0.4-1.2 0.4-0.1 -2.1-2.8 -0.5 2.3 0 0.5 0.4 0.1 -0.2 1.2h-3.9l0.4-1.2 0.6-0.1 0.2-0.5L-1296.6 463.7M-1287.7 469.7l0.6-0.1 0.2-0.5 1.2-5.4 0.1-0.5 -0.6-0.1 0.2-1.2h7.8l-0.5 1.9 -1.3-0.1 0-0.5 -0.8-0.1h-1.9l-0.6 2.5h3.5l-0.4 1.3 -1.5-0.1h-1.8l-0.5 2.3 0 0.5h2.2l0.8-0.1 0.2-0.4 1.4-0.1 -0.3 1.9h-8.1L-1287.7 469.7M-1277.9 468.5h2.7l-0.5 2.4h-2.7L-1277.9 468.5M-1263.5 464l-1.3-0.1 0.1-0.6c-0.6-0.3-1.3-0.4-1.9-0.4 -2.5 0-3.7 2.9-3.7 4.7 0 1.4 0.8 2.2 2.4 2.2 1.1 0 2.4-0.3 3.4-0.6l-0.3 1.4c-1.3 0.4-2.6 0.6-4 0.6 -2.6 0-4.5-1-4.5-3.5 0-1.6 0.9-3.1 2.2-4.2 1.4-1.2 2.8-1.7 4.8-1.7 1.1 0 2.3 0.1 3.4 0.4L-1263.5 464M-1260.7 463.4c1.4-1.2 3-1.8 4.9-1.8 2.6 0 4.4 1.1 4.4 3.5 0 1.6-0.8 3.1-2.1 4.2 -1.4 1.2-3 1.8-5 1.8 -2.5 0-4.3-1.1-4.3-3.5C-1262.8 466-1262 464.6-1260.7 463.4L-1260.7 463.4zM-1258 469.9c2.5 0 3.7-3 3.7-4.8 0-1.2-0.4-2.3-1.9-2.3 -2.5 0-3.7 3-3.7 4.8C-1259.9 468.8-1259.5 469.9-1258 469.9L-1258 469.9zM-1247.4 464.7L-1247.4 464.7l-1 4.3 -0.1 0.5 0.4 0.1 -0.2 1.2h-3.2l0.4-1.2 0.6-0.1 0.2-0.5 1.2-5.4 0.1-0.5 -0.6-0.1 0.2-1.2h3.5l1.5 5.3 4-5.3h3.2l-0.4 1.2 -0.6 0.1 -0.2 0.5 -1.2 5.4 -0.1 0.5 0.6 0.1 -0.2 1.2h-3.8l0.4-1.2 0.4-0.1 0.2-0.5 1-4.1 0 0 -3.5 4.6h-1.4L-1247.4 464.7M-1349.5 464.2c-4.2 0.6-8.6 4.8-7.2 7.8 1.1 2.3 5.7 2.9 10.2 1 4.3-1.8 6.7-5.1 6.1-7.4 -0.4-1.6 0.3-8 15.3-10.4C-1330.2 454-1350.8 458.5-1349.5 464.2M-1344 466.6c0.5 1.2-1 2.9-3.3 3.9 -2.3 1-4.6 0.8-5.1-0.4 -0.5-1.2 1-2.9 3.3-3.9C-1346.8 465.3-1344.5 465.5-1344 466.6"/></g><path class="st2" d="M-1241.3 460.1l-7.3-4.1c-0.2-0.1-0.3-0.1-0.5 0 -0.2 0.1-0.3 0.2-0.3 0.4l0 1.9c0 0 0 0 0 0 -0.2 0-0.4 0.1-0.6 0.2 -0.8 0.2-1.5 0.5-2.4 0.9 -0.8 0.3-1.6 0.8-2.3 1.3 -0.5 0.4-1 0.8-1.5 1.3 -1.2 1.3-1.9 3-1.8 4.7 0 0.3 0 0.6 0.1 0.8 0 0.2 0.2 0.4 0.5 0.4 0 0 0 0 0 0 0.2 0 0.5-0.2 0.5-0.4 0.1-0.7 0.4-1.4 0.7-1.9 0.4-0.6 0.9-1.2 1.5-1.6 0.5-0.3 1.1-0.6 1.7-0.8 0.7-0.2 1.5-0.4 2.4-0.4 0.4 0 0.8 0 1.2 0 0 0 0 0 0.1 0l0 1.8c0 0.2 0.1 0.3 0.2 0.4 0.2 0.1 0.3 0.1 0.5 0l7.3-4.1c0.2-0.1 0.3-0.2 0.3-0.4C-1241.1 460.4-1241.2 460.2-1241.3 460.1L-1241.3 460.1z"/></g></g></g></g></svg>