<svg xmlns:sketch="http://www.bohemiancoding.com/sketch/ns" xmlns="http://www.w3.org/2000/svg" xmlns:xlink="http://www.w3.org/1999/xlink" version="1.1" id="Layer_1" x="0" y="0" width="67" height="67" viewBox="-1384 438.9 67 67" xml:space="preserve" enable-background="new -1384 438.9 67 67">
  <style type="text/css">
    
	.st0{fill:#A8DC28;}
	.st1{fill:#455E07;}
	.st2{fill:#FFFFFF;}

  </style>
  <title>
    Ribbon urgent ad
  </title>
  <desc>
    Created with Sketch.
  </desc>
  <g id="Search-results-list" sketch:type="MSPage">
    <g id="Other-category-listing-v2" transform="translate(-19.000000, -695.000000)" sketch:type="MSArtboardGroup">
      <g id="_x31_" transform="translate(19.000000, 21.000000)" sketch:type="MSLayerGroup">
        <g id="Ribbon-urgent-ad" transform="translate(0.000000, 674.000000)" sketch:type="MSShapeGroup">
          <path id="Fill-1" class="st0" d="M-1357.9 439.4h40.3v0.1l-66 66v-40.4L-1357.9 439.4"/>
          <path id="Fill-2" class="st1" d="M-1317.3 439.4v3.6h-3.6L-1317.3 439.4"/>
          <path id="Fill-3" class="st1" d="M-1383.7 505.4h3.6v-3.6L-1383.7 505.4"/>
          <g id="Group" transform="translate(10.147000, 9.853000)">
            <path id="Fill-4" class="st2" d="M-1380.6 470.8l-3.3-3.3c-0.2-0.2-0.1-0.4 0.2-0.7l0.3-0.3c0.3-0.3 0.5-0.4 0.7-0.2l3.2 3.2c0.3 0.3 0.6 0.4 1 0.4 0.4 0 0.7-0.2 1-0.5 0.3-0.3 0.5-0.6 0.5-1 0-0.4-0.1-0.7-0.4-1l-3.2-3.2c-0.2-0.2-0.1-0.4 0.2-0.7l0.3-0.3c0.3-0.3 0.5-0.4 0.7-0.2l3.3 3.3c0.6 0.6 0.8 1.2 0.8 1.9s-0.4 1.4-1.1 2.1c-0.7 0.7-1.4 1.1-2.1 1.1C-1379.4 471.6-1380 471.4-1380.6 470.8"/>
            <path id="Fill-5" class="st2" d="M-1373.6 466.9l-4.8-4.8c-0.2-0.2-0.2-0.4 0-0.6l1.5-1.5c1.3-1.3 2.4-1.4 3.3-0.5 0.3 0.3 0.5 0.6 0.5 1 0.1 0.4 0 0.7-0.2 1.1l0 0c0.1-0.1 0.3-0.1 0.6 0 0.2 0 0.5 0.1 0.7 0.2l2.3 1c0.1 0 0.2 0.1 0.2 0.1 0.1 0.1 0 0.3-0.3 0.6l-0.3 0.3c-0.3 0.3-0.5 0.3-0.6 0.3l-2.1-0.9c-0.3-0.1-0.5-0.1-0.6-0.1 -0.2 0-0.4 0.2-0.6 0.4l-0.3 0.3 1.9 1.9c0.2 0.2 0.1 0.4-0.2 0.7l-0.3 0.3C-1373.2 467-1373.4 467.1-1373.6 466.9L-1373.6 466.9zM-1375.3 462.9l0.7-0.7c0.2-0.2 0.2-0.4 0.2-0.6 0-0.2-0.1-0.5-0.3-0.6 -0.2-0.2-0.4-0.3-0.6-0.3 -0.2 0-0.4 0.1-0.6 0.3l-0.7 0.7L-1375.3 462.9 -1375.3 462.9z"/>
            <path id="Fill-6" class="st2" d="M-1371.6 460c-1.8-1.8-1.9-3.6-0.2-5.2 0.4-0.4 0.8-0.7 1.2-0.9 0.5-0.3 0.8-0.3 0.9-0.2 0.1 0.1 0.2 0.3 0.3 0.6 0.1 0.3 0 0.5 0 0.6 0 0-0.1 0.1-0.2 0.1 -0.4 0.2-0.8 0.4-1.2 0.8 -0.9 0.9-0.7 1.9 0.4 3 1.1 1.1 2.2 1.3 3 0.4 0.2-0.2 0.4-0.4 0.5-0.6l-1-1 -0.7 0.7c-0.2 0.2-0.4 0.1-0.6-0.2l-0.2-0.2c-0.3-0.3-0.3-0.5-0.2-0.6l1.5-1.5c0.2-0.2 0.4-0.2 0.6 0l2.1 2.1c0.1 0.1 0.2 0.3 0.1 0.5 0 0.2-0.1 0.4-0.3 0.7 -0.3 0.4-0.6 0.8-1 1.2 -0.9 0.9-1.7 1.3-2.6 1.2C-1369.8 461.4-1370.7 460.9-1371.6 460"/>
            <path id="Fill-7" class="st2" d="M-1363.9 457.1l-4.7-4.7c-0.2-0.2-0.2-0.4 0-0.6l2.8-2.8c0.2-0.2 0.4-0.1 0.6 0.2l0.2 0.2c0.3 0.3 0.3 0.5 0.2 0.6l-1.9 1.9 1.1 1.1 1.7-1.7c0.2-0.2 0.4-0.1 0.6 0.2l0.2 0.2c0.3 0.3 0.3 0.5 0.2 0.6l-1.7 1.7 1.2 1.2 1.9-1.9c0.2-0.2 0.4-0.1 0.6 0.2l0.2 0.2c0.3 0.3 0.3 0.5 0.2 0.6l-2.8 2.8C-1363.5 457.3-1363.7 457.3-1363.9 457.1"/>
            <path id="Fill-8" class="st2" d="M-1359.7 453l-4.9-4.9c-0.2-0.2-0.1-0.4 0.2-0.7l0.3-0.3c0.2-0.2 0.5-0.3 0.7-0.3l5.1 1.1 -3-3c-0.2-0.2-0.1-0.4 0.2-0.7l0.2-0.2c0.3-0.3 0.5-0.4 0.7-0.2l4.9 4.9c0.2 0.2 0.1 0.4-0.2 0.7l-0.3 0.3c-0.2 0.2-0.5 0.3-0.7 0.3l-5.2-1.1 3.1 3.1c0.2 0.2 0.1 0.4-0.2 0.7l-0.2 0.2C-1359.3 453.1-1359.5 453.2-1359.7 453"/>
            <path id="Fill-9" class="st2" d="M-1353.3 446.6l-4.1-4.1 -1.2 1.2c-0.2 0.2-0.4 0.1-0.6-0.2l-0.2-0.2c-0.3-0.3-0.3-0.5-0.2-0.6l3.6-3.6c0.2-0.2 0.4-0.1 0.6 0.2l0.2 0.2c0.3 0.3 0.3 0.5 0.2 0.6l-1.2 1.2 4.1 4.1c0.2 0.2 0.1 0.4-0.2 0.7l-0.3 0.3C-1352.9 446.7-1353.1 446.7-1353.3 446.6"/>
          </g>
          <path id="_x21_-_x21_-_x21_" class="st2" d="M-1368.6 463.6c-0.1 0.1-0.3 0.2-0.4 0.2 -0.1 0-0.2 0-0.3-0.1l-3.2-3.2c-0.2-0.2-0.1-0.4 0.2-0.7l0.3-0.3c0.3-0.3 0.5-0.4 0.7-0.2 0 0 1 1.2 2.8 3.6 0.1 0.1 0.1 0.2 0.1 0.3C-1368.3 463.2-1368.4 463.3-1368.6 463.6L-1368.6 463.6zM-1367.7 465.6l-0.7-0.7c-0.2-0.2-0.1-0.4 0.2-0.7l0.2-0.2c0.3-0.3 0.5-0.4 0.7-0.2l0.7 0.7c0.2 0.2 0.1 0.4-0.2 0.7l-0.2 0.2C-1367.3 465.6-1367.5 465.7-1367.7 465.6L-1367.7 465.6zM-1364.6 459.1c-0.2 0.2-0.3 0.3-0.4 0.3 -0.1 0-0.2 0-0.3-0.1l-3.6-3.6c-0.2-0.2-0.1-0.5 0.2-0.8l0.4-0.4c0.3-0.3 0.6-0.4 0.8-0.3 0 0 1.1 1.4 3.2 4.1 0.1 0.1 0.1 0.2 0.1 0.3S-1364.4 458.9-1364.6 459.1L-1364.6 459.1zM-1363.6 461.4l-0.8-0.8c-0.2-0.2-0.1-0.5 0.2-0.8l0.3-0.3c0.3-0.3 0.6-0.4 0.8-0.2l0.8 0.8c0.2 0.2 0.1 0.5-0.2 0.8l-0.3 0.3C-1363.1 461.5-1363.4 461.6-1363.6 461.4L-1363.6 461.4zM-1360.2 455.1c-0.1 0.1-0.3 0.2-0.4 0.2 -0.1 0-0.2 0-0.3-0.1l-3.2-3.2c-0.2-0.2-0.1-0.4 0.2-0.7l0.3-0.3c0.3-0.3 0.5-0.4 0.7-0.2 0 0 1 1.2 2.8 3.6 0.1 0.1 0.1 0.2 0.1 0.3C-1359.9 454.8-1359.9 454.9-1360.2 455.1L-1360.2 455.1zM-1359.3 457.1l-0.7-0.7c-0.2-0.2-0.1-0.4 0.2-0.7l0.2-0.2c0.3-0.3 0.5-0.4 0.7-0.2l0.7 0.7c0.2 0.2 0.1 0.4-0.2 0.7l-0.2 0.2C-1358.9 457.2-1359.1 457.3-1359.3 457.1L-1359.3 457.1z"/>
        </g>
      </g>
    </g>
  </g>
</svg>
