<?xml version="1.0" encoding="utf-8"?>
<!-- Generator: Adobe Illustrator 18.0.0, SVG Export Plug-In . SVG Version: 6.00 Build 0)  -->
<!DOCTYPE svg PUBLIC "-//W3C//DTD SVG 1.1//EN" "http://www.w3.org/Graphics/SVG/1.1/DTD/svg11.dtd">
<svg version="1.1" id="Layer_1" xmlns:sketch="http://www.bohemiancoding.com/sketch/ns"
	 xmlns="http://www.w3.org/2000/svg" xmlns:xlink="http://www.w3.org/1999/xlink" x="0px" y="0px" width="69.4px" height="57.5px"
	 viewBox="-282.7 -60.8 69.4 57.5" enable-background="new -282.7 -60.8 69.4 57.5" xml:space="preserve">
<g id="NO-logo-yet_3_" transform="translate(0.000000, 2.000000)" sketch:type="MSLayerGroup">
	<g id="Page-1" sketch:type="MSShapeGroup">
		<g id="NO-logo-yet_2_">
			<g id="Foundations">
				<g id="seller-info">
					<g id="Shop-3">
						<g id="NO-logo-yet_1_">
							<g id="Add-a-photo-">
								<g id="image-icon-2" transform="translate(17.000000, 0.000000)">
									
										<rect id="Rectangle-128" x="-282.9" y="-60.6" fill="none" stroke="#FFFFFF" stroke-width="4" width="37.6" height="28.6"/>
									<path id="Path-107" fill="#FFFFFF" d="M-280.7-34.2h33.2l-0.1-13l-6.9,6.2l-13.8-9.9l-12.4,9.9V-34.2L-280.7-34.2z"/>
									<ellipse id="Oval-71" fill="#FFFFFF" cx="-254.5" cy="-51.8" rx="3.5" ry="3.5"/>
								</g>
								<g id="NO-photo-yet" transform="translate(0.000000, 41.000000)">
									<g id="NO-logo-yet">
										<path fill="#FFFFFF" d="M-282.5-49.8v-8.5c0-0.3,0.3-0.4,0.8-0.4h0.6c0.4,0,0.7,0.1,0.9,0.4l3.5,5.4v-5.3
											c0-0.3,0.3-0.4,0.8-0.4h0.4c0.5,0,0.8,0.1,0.8,0.4v8.5c0,0.3-0.3,0.4-0.8,0.4h-0.5c-0.4,0-0.7-0.1-0.9-0.4l-3.6-5.4v5.4
											c0,0.3-0.3,0.4-0.8,0.4h-0.4C-282.3-49.4-282.5-49.5-282.5-49.8L-282.5-49.8z M-273.3-54.1c0-1.5,0.4-2.7,1.1-3.5
											c0.7-0.8,1.8-1.2,3.2-1.2s2.4,0.4,3.2,1.2c0.7,0.8,1.1,2,1.1,3.5s-0.4,2.7-1.1,3.5c-0.7,0.8-1.8,1.2-3.2,1.2
											s-2.4-0.4-3.2-1.2C-272.9-51.4-273.3-52.5-273.3-54.1L-273.3-54.1z M-269-51c0.7,0,1.2-0.3,1.6-0.8
											c0.4-0.5,0.5-1.3,0.5-2.2c0-1-0.2-1.7-0.5-2.2c-0.4-0.5-0.9-0.8-1.6-0.8s-1.2,0.3-1.6,0.8c-0.4,0.5-0.6,1.3-0.6,2.2
											c0,1,0.2,1.7,0.6,2.2C-270.3-51.3-269.7-51-269-51L-269-51z M-257.7-50.9l0.4-0.1c0.1,0,0.2,0.1,0.3,0.4
											c0.1,0.3,0.1,0.4,0.1,0.6c0,0.4-0.4,0.7-1.3,0.7c-1.3,0-1.9-0.7-1.9-2.2V-59c0-0.3,0.3-0.4,0.8-0.4h0.4
											c0.5,0,0.8,0.1,0.8,0.4v7.6C-258.1-51.1-258-50.9-257.7-50.9L-257.7-50.9z M-256.4-52.9c0-1.2,0.3-2,0.8-2.7
											s1.4-0.9,2.4-0.9c1.1,0,1.9,0.3,2.4,0.9s0.8,1.5,0.8,2.7s-0.3,2-0.8,2.7c-0.5,0.6-1.3,0.9-2.4,0.9c-1.1,0-1.9-0.3-2.4-0.9
											C-256.2-50.8-256.4-51.7-256.4-52.9L-256.4-52.9z M-253.2-50.9c0.8,0,1.2-0.7,1.2-2c0-1.4-0.4-2-1.2-2s-1.2,0.7-1.2,2
											C-254.4-51.5-254-50.9-253.2-50.9L-253.2-50.9z M-249.1-48.4c0-0.7,0.4-1.2,1.2-1.5l0-0.1c-0.4-0.2-0.6-0.5-0.6-1
											s0.3-0.8,0.8-1.1c-0.7-0.4-1.1-1-1.1-1.9c0-0.9,0.3-1.5,0.8-1.9c0.5-0.4,1.2-0.6,2.1-0.6c0.3,0,0.7,0,1,0.1h2.1
											c0.3,0,0.4,0.2,0.4,0.7v0.2c0,0.4-0.1,0.6-0.3,0.6c-0.2,0-0.4,0-0.6-0.1l0,0.1c0.1,0.2,0.2,0.4,0.2,0.7
											c0,0.8-0.3,1.4-0.8,1.8s-1.2,0.6-2,0.6c-0.5,0-0.8,0.1-0.8,0.4c0,0.3,0.4,0.4,1.1,0.5c0.7,0.1,1.3,0.2,1.9,0.4
											c0.3,0.1,0.5,0.3,0.7,0.6c0.2,0.3,0.3,0.6,0.3,1c0,0.7-0.3,1.2-0.9,1.6s-1.5,0.6-2.5,0.6C-248-46.6-249.1-47.2-249.1-48.4
											L-249.1-48.4z M-245.9-53.2c0.3,0,0.5-0.1,0.7-0.2c0.2-0.2,0.3-0.4,0.3-0.7s-0.1-0.5-0.3-0.7c-0.2-0.2-0.4-0.2-0.7-0.2
											s-0.5,0.1-0.7,0.2c-0.2,0.2-0.3,0.4-0.3,0.7s0.1,0.5,0.3,0.7C-246.4-53.3-246.2-53.2-245.9-53.2L-245.9-53.2z
											 M-247.2-48.7c0,0.4,0.5,0.6,1.4,0.6c0.9,0,1.4-0.2,1.4-0.7c0-0.2-0.1-0.4-0.4-0.4c-0.3-0.1-0.8-0.2-1.6-0.2
											C-246.9-49.3-247.2-49.1-247.2-48.7L-247.2-48.7z M-241.6-52.9c0-1.2,0.3-2,0.8-2.7s1.4-0.9,2.4-0.9s1.9,0.3,2.4,0.9
											s0.8,1.5,0.8,2.7s-0.3,2-0.8,2.7c-0.5,0.6-1.3,0.9-2.4,0.9s-1.9-0.3-2.4-0.9C-241.3-50.8-241.6-51.7-241.6-52.9
											L-241.6-52.9z M-238.4-50.9c0.8,0,1.2-0.7,1.2-2c0-1.4-0.4-2-1.2-2s-1.2,0.7-1.2,2C-239.6-51.5-239.2-50.9-238.4-50.9
											L-238.4-50.9z M-231.2-56.1c0-0.2,0.3-0.3,0.8-0.3h0.4c0.4,0,0.7,0.1,0.7,0.3l0.8,2.5c0.1,0.2,0.2,0.8,0.4,1.6h0.1
											c0.2-0.9,0.3-1.4,0.4-1.6l0.8-2.5c0.1-0.2,0.3-0.3,0.7-0.3h0.3c0.5,0,0.8,0.1,0.8,0.3c0,0.1,0,0.1,0,0.2l-3,8.9
											c-0.1,0.2-0.3,0.3-0.7,0.3h-0.2c-0.5,0-0.8-0.1-0.8-0.3c0-0.1,0-0.2,0.1-0.2l0.8-2.2l-2.2-6.4
											C-231.2-56-231.2-56.1-231.2-56.1L-231.2-56.1z M-223.5-50.2c-0.6-0.6-0.9-1.5-0.9-2.7c0-1.2,0.3-2.1,0.9-2.6
											c0.6-0.6,1.4-0.9,2.4-0.9c1,0,1.7,0.3,2.2,1c0.5,0.6,0.7,1.5,0.7,2.5c0,0.1-0.1,0.3-0.3,0.5c-0.2,0.2-0.3,0.3-0.4,0.3
											h-3.4c0,0.5,0.2,0.9,0.5,1.1c0.3,0.2,0.6,0.3,1,0.3s0.8-0.1,1.1-0.2c0.4-0.1,0.6-0.2,0.6-0.2c0.1,0,0.3,0.1,0.4,0.4
											c0.2,0.3,0.2,0.5,0.2,0.6c0,0.3-0.3,0.5-0.8,0.7c-0.6,0.2-1.1,0.3-1.6,0.3C-222.1-49.3-223-49.6-223.5-50.2L-223.5-50.2z
											 M-220.2-53.6c0-0.4-0.1-0.7-0.2-1s-0.4-0.4-0.7-0.4c-0.7,0-1.1,0.4-1.2,1.3H-220.2z M-214.3-50.9l0.4-0.1
											c0.1,0,0.2,0.1,0.3,0.4s0.1,0.4,0.1,0.6c0,0.4-0.4,0.7-1.3,0.7c-1.3,0-1.9-0.7-1.9-2.2v-3.3h-0.2c-0.3,0-0.4-0.2-0.4-0.7
											v-0.2c0-0.4,0.1-0.7,0.4-0.7h0.2l0.2-1.3c0-0.3,0.3-0.4,0.7-0.4h0.4c0.4,0,0.7,0.1,0.7,0.4v1.3h0.7c0.3,0,0.4,0.2,0.4,0.7
											v0.2c0,0.4-0.1,0.7-0.4,0.7h-0.7v3.4C-214.8-51.1-214.6-50.9-214.3-50.9L-214.3-50.9z"/>
									</g>
								</g>
							</g>
						</g>
					</g>
				</g>
			</g>
		</g>
	</g>
</g>
</svg>
