<svg xmlns:sketch="http://www.bohemiancoding.com/sketch/ns" xmlns="http://www.w3.org/2000/svg" xmlns:xlink="http://www.w3.org/1999/xlink" version="1.1" id="Layer_1" x="0" y="0" width="120" height="31" viewBox="-1357 456.9 120 31" xml:space="preserve" enable-background="new -1357 456.9 120 31">
  <style type="text/css">
    
	.st0{fill:#4A4A4A;}
	.st1{fill:#EB8B2D;}
	.st2{fill:#595A59;}

  </style>
  <title>
    Shape Copy + Imported Layers
  </title>
  <desc>
    Created with Sketch.
  </desc>
  <g id="Search-results-list" sketch:type="MSPage">
    <g id="link-to-afiliate-sites" transform="translate(-687.000000, -841.000000)" sketch:type="MSArtboardGroup">
      <g id="_x31_" transform="translate(24.000000, 33.000000)" sketch:type="MSLayerGroup">
        <g id="Posted-ad--Motors-2-Copy-3" transform="translate(0.000000, 679.000000)" sketch:type="MSShapeGroup">
          <g id="Shape-Copy-_x2B_-Imported-Layers" transform="translate(663.000000, 128.000000)">
            <path id="Shape-Copy" class="st0" d="M-1241.3 462.1l-7.3-4.1c-0.2-0.1-0.3-0.1-0.5 0 -0.2 0.1-0.3 0.2-0.3 0.4l0 1.9c0 0 0 0 0 0 -0.2 0-0.4 0.1-0.6 0.2 -0.8 0.2-1.5 0.5-2.4 0.9 -0.8 0.3-1.6 0.8-2.3 1.3 -0.5 0.4-1 0.8-1.5 1.3 -1.2 1.3-1.9 3-1.8 4.7 0 0.3 0 0.6 0.1 0.8 0 0.2 0.2 0.4 0.5 0.4 0 0 0 0 0 0 0.2 0 0.5-0.2 0.5-0.4 0.1-0.7 0.4-1.4 0.7-1.9 0.4-0.6 0.9-1.2 1.5-1.6 0.5-0.3 1.1-0.6 1.7-0.8 0.7-0.2 1.5-0.4 2.4-0.4 0.4 0 0.8 0 1.2 0 0 0 0 0 0.1 0l0 1.8c0 0.2 0.1 0.3 0.2 0.4 0.2 0.1 0.3 0.1 0.5 0l7.3-4.1c0.2-0.1 0.3-0.2 0.3-0.4C-1241.1 462.4-1241.2 462.2-1241.3 462.1L-1241.3 462.1z"/>
            <g id="Imported-Layers" transform="translate(0.000000, 16.000000)">
              <path id="Fill-1" class="st1" d="M-1356.8 457.4h3.8l1.4 11.3h0l1.4-11.3h3.8l-2.9 15h-4.6L-1356.8 457.4"/>
              <path id="Fill-2" class="st1" d="M-1343.6 457.4h4.4l3.3 15h-3.8l-0.4-2.6h-2.8l-0.4 2.6h-3.8L-1343.6 457.4 -1343.6 457.4zM-1341.4 460.4L-1341.4 460.4l-1 6.4h2L-1341.4 460.4 -1341.4 460.4z"/>
              <path id="Fill-3" class="st1" d="M-1335.3 457.4h3.9l2.3 9.2h0v-9.2h3.3v15h-3.9l-2.4-9.3h0v9.3h-3.3V457.4"/>
              <path id="Fill-4" class="st1" d="M-1318.8 461.7v-0.4c0-0.9-0.3-1.6-1-1.6 -0.8 0-1.1 0.7-1.1 1.3 0 3 5.8 1.5 5.8 7 0 3.2-1.7 4.4-4.8 4.4 -2.9 0-4.6-0.8-4.6-4v-0.5h3.4v0.4c0 1.3 0.5 1.7 1.2 1.7 0.7 0 1.1-0.6 1.1-1.4 0-3-5.5-1.5-5.5-6.8 0-3 1.5-4.7 4.4-4.7 3.1 0 4.4 1.4 4.4 4.6H-1318.8"/>
              <path id="Fill-5" class="st1" d="M-1295.2 460.7h-2.7v-3.3h8.8v3.3h-2.7v11.7h-3.5V460.7"/>
              <path id="Fill-6" class="st1" d="M-1288.2 457.4h5.5c2.7 0 3.7 1.7 3.7 4 0 2-0.7 3.3-2.3 3.6v0c1.7 0.2 2.2 1.4 2.2 3.4v1.3c0 0.8 0 1.8 0.2 2.1 0.1 0.2 0.2 0.3 0.4 0.5v0.2h-3.8c-0.3-0.8-0.3-2.2-0.3-2.9v-1c0-1.7-0.3-2.1-1.2-2.1h-0.9v6h-3.5V457.4L-1288.2 457.4zM-1284.7 463.7h0.7c1 0 1.5-0.7 1.5-1.8 0-1.2-0.4-1.7-1.5-1.7h-0.7V463.7L-1284.7 463.7z"/>
              <path id="Fill-7" class="st1" d="M-1273.9 457.4v10.8c0 1.4 0.4 1.8 1.1 1.8 0.7 0 1.1-0.4 1.1-1.8v-10.8h3.5v9.8c0 4.2-1.6 5.2-4.6 5.2 -3 0-4.6-1-4.6-5.2v-9.8H-1273.9"/>
              <path id="Fill-8" class="st1" d="M-1261.3 461.9c0-1.7-0.3-2.2-1-2.2 -1.1 0-1.2 1.1-1.2 5.1s0.1 5.1 1.2 5.1c0.9 0 1.1-0.8 1.1-3.7h3.4v1.1c0 4.2-2.2 4.9-4.5 4.9 -4 0-4.8-1.9-4.8-7.5 0-5.7 1.2-7.8 4.8-7.8 3.2 0 4.4 1.8 4.4 4.7v0.9h-3.4V461.9"/>
              <path id="Fill-9" class="st1" d="M-1256.7 457.4h3.5v5.8h0l2.6-5.8h3.8l-3.4 6.6 3.8 8.4h-4l-2.1-5.2 -0.7 1.3v4h-3.5V457.4"/>
              <path id="Fill-10" class="st1" d="M-1240.7 461.7v-0.4c0-0.9-0.3-1.6-1-1.6 -0.8 0-1.1 0.7-1.1 1.3 0 3 5.8 1.5 5.8 7 0 3.2-1.7 4.4-4.8 4.4 -2.9 0-4.6-0.8-4.6-4v-0.5h3.4v0.4c0 1.3 0.5 1.7 1.2 1.7 0.7 0 1.1-0.6 1.1-1.4 0-3-5.5-1.5-5.5-6.8 0-3 1.5-4.7 4.4-4.7 3.1 0 4.4 1.4 4.4 4.6H-1240.7"/>
              <path id="Fill-11" class="st2" d="M-1314.6 471.8l1.9-8.7h2l1.8 8.7h-1.6l-0.4-2.2h-1.7l-0.4 2.2H-1314.6L-1314.6 471.8zM-1312.3 468.3h1.3l-0.4-2.5c-0.1-0.4-0.1-0.8-0.1-1.2 0-0.2 0-0.4-0.1-0.6h0c0 0.2 0 0.4-0.1 0.6 0 0.4-0.1 0.8-0.1 1.2L-1312.3 468.3 -1312.3 468.3z"/>
              <path id="Fill-12" class="st2" d="M-1304.5 463.1h1.5v8.7h-1.5l-1.2-3.1c-0.4-1-0.7-2.1-1.1-3.5h0c0.1 0.7 0.1 1.6 0.2 2.5 0 0.9 0.1 1.7 0.1 2.4v1.6h-1.5v-8.7h1.5l1.2 3.2c0.4 1 0.7 2 1.1 3.5h0c-0.1-0.8-0.1-1.6-0.1-2.5 0-0.8-0.1-1.7-0.1-2.4V463.1"/>
              <path id="Fill-13" class="st2" d="M-1301.6 471.8v-8.7h3.1c0.4 0 1.1 0.2 1.5 1 0.3 0.6 0.4 1.6 0.4 3 0 1.7 0 3.7-1.2 4.5 -0.3 0.2-0.7 0.2-1.1 0.2H-1301.6L-1301.6 471.8zM-1299.5 470.5c1.3 0 1.4-0.8 1.4-3.3 0-2.1-0.2-2.9-1.1-2.9h-1v6.1H-1299.5L-1299.5 470.5z"/>
            </g>
          </g>
        </g>
      </g>
    </g>
  </g>
</svg>
