<svg xmlns="http://www.w3.org/2000/svg" version="1.1" x="0" y="0" width="17" height="10.6" viewBox="-472.4 262.7 17 10.6" xml:space="preserve"><style type="text/css">
	.st0{fill:#9B9B9B;}
</style><title>View-icon</title><desc>Created with Sketch.</desc><g transform="translate(-1094.000000, -666.000000)"><g transform="translate(458.000000, 519.000000)"><g transform="translate(595.000000, 137.000000)"><g transform="translate(41.000000, 7.000000)"><g transform="translate(0.000000, 3.000000)"><path class="st0" d="M-463.9 262.7c-4.7 0-8.5 5.3-8.5 5.3s3.8 5.3 8.5 5.3c4.7 0 8.5-5.3 8.5-5.3S-459.2 262.7-463.9 262.7zM-463.9 271.2c-1.8 0-3.2-1.4-3.2-3.2s1.4-3.2 3.2-3.2c1.8 0 3.2 1.4 3.2 3.2S-462.1 271.2-463.9 271.2z"/><circle class="st0" cx="-463.9" cy="268" r="1.4"/></g></g></g></g></g></svg>