<svg xmlns="http://www.w3.org/2000/svg" version="1.1" x="0" y="0" width="20" height="20" viewBox="-1407 461.9 20 20" xml:space="preserve"><style type="text/css">
	.st0{fill:#A8A8A8;}
</style><title>website</title><desc>Created with Sketch.</desc><g transform="translate(-953.000000, -1577.000000)"><g transform="translate(458.000000, 1506.000000)"><g transform="translate(495.000000, 71.000000)"><path class="st0" d="M-1391.6 476.7l3.9-0.8 -9.9-6.1 -0.2 0.2 2.2 11.4 2.1-3.4 2.1 3c0.4 0.6 1.1 0.8 1.6 0.4 0.5-0.3 0.6-1.1 0.2-1.7L-1391.6 476.7 -1391.6 476.7zM-1397.3 479.6c-1.6 0-3.1-0.5-4.3-1.2 1.1 0-0.8-1.7 0.5-2 1.4-0.3 2-1.9 1.6-1.9 -0.5 0-1.3-0.2-1.9-1 -0.6-0.8-1.1-0.6-1.8-0.5 -0.6 0.1-1.2 1.7-1.4 2.1 -0.4-0.8-0.7-1.7-0.9-2.7 0.7-0.4 1.8-1 2.3-1.3 0.6-0.5-0.2-0.7-0.3-1 -0.1-0.3 0-1 0-1.7 0-0.7 1.4-0.7 1.9-1.4 0.4-0.5-0.3-1.6-0.7-2.2 1.4-1.1 3.1-1.7 5-1.7 0.5 0 1 0.1 1.5 0.1 0.1 0.9 0.4 2.1 1 2.4 0.9 0.5 2 1.6 2.4 1.8 0.4 0.2 0.9 1.9 0.8 2.6 -0.1 0.5-0.7 1-0.9 1.6l4.2 2.6c0.3-0.9 0.5-1.9 0.5-2.9 0-5.2-4.2-9.4-9.4-9.4 -5.2 0-9.4 4.2-9.4 9.4 0 5.2 4.2 9.4 9.4 9.4 0.2 0 0.4 0 0.6 0l-0.2-1.1C-1397.1 479.6-1397.2 479.6-1397.3 479.6L-1397.3 479.6zM-1389.1 472.6c-0.2-0.7-0.5-1.4-1.3-1.9 -0.5-0.4-0.9-1.9-0.6-2.4 0.2-0.3 0.7-0.6 1-0.7 0.6 1.2 1 2.5 1 3.9C-1389 471.8-1389.1 472.2-1389.1 472.6L-1389.1 472.6z"/></g></g></g></svg>