<svg xmlns="http://www.w3.org/2000/svg" version="1.1" x="0" y="0" width="20" height="19" viewBox="-1407 462.9 20 19" xml:space="preserve"><style type="text/css">
	.st0{fill:#4A4A4A;}
</style><title>Website-dark-icon</title><desc>Created with Sketch.</desc><g transform="translate(-963.000000, -1118.000000)"><g transform="translate(183.000000, 447.000000)"><g transform="translate(733.000000, 0.000000)"><g transform="translate(21.000000, 24.000000)"><g transform="translate(26.000000, 647.000000)"><path class="st0" d="M-1397.3 480.6c-1.6 0-3.1-0.5-4.3-1.2 1.1 0-0.8-1.7 0.5-2 1.4-0.3 2-1.9 1.6-1.9 -0.5 0-1.3-0.2-1.9-1 -0.6-0.8-1.1-0.6-1.8-0.5 -0.6 0.1-1.2 1.7-1.4 2.1 -0.4-0.8-0.7-1.7-0.9-2.7 0.7-0.4 1.8-1 2.3-1.3 0.6-0.5-0.2-0.7-0.3-1 -0.1-0.3 0-1 0-1.7 0-0.7 1.4-0.7 1.9-1.4 0.4-0.5-0.3-1.6-0.7-2.2 1.4-1.1 3.1-1.7 5-1.7 0.5 0 1 0.1 1.5 0.1 0.1 0.9 0.4 2.1 1 2.4 0.9 0.5 2 1.6 2.4 1.8 0.4 0.2 0.9 1.9 0.8 2.6 -0.1 0.5-0.7 1-0.9 1.6l4.2 2.6c0.3-0.9 0.5-1.9 0.5-2.9 0-5.2-4.2-9.4-9.4-9.4 -5.2 0-9.4 4.2-9.4 9.4 0 5.2 4.2 9.4 9.4 9.4 0.2 0 0.4 0 0.6 0l-0.2-1.1C-1397.1 480.6-1397.2 480.6-1397.3 480.6L-1397.3 480.6zM-1389.1 473.6c-0.2-0.7-0.5-1.4-1.3-1.9 -0.5-0.4-0.9-1.9-0.6-2.4 0.2-0.3 0.7-0.6 1-0.7 0.6 1.2 1 2.5 1 3.9C-1389 472.8-1389.1 473.2-1389.1 473.6L-1389.1 473.6z"/></g></g></g></g></g></svg>