<?xml version="1.0" encoding="utf-8"?>
<!-- Generator: Adobe Illustrator 19.1.0, SVG Export Plug-In . SVG Version: 6.00 Build 0)  -->
<!DOCTYPE svg PUBLIC "-//W3C//DTD SVG 1.1//EN" "http://www.w3.org/Graphics/SVG/1.1/DTD/svg11.dtd">
<svg version="1.1" id="Layer_1" xmlns:sketch="http://www.bohemiancoding.com/sketch/ns"
	 xmlns="http://www.w3.org/2000/svg" xmlns:xlink="http://www.w3.org/1999/xlink" x="0px" y="0px" width="113px" height="110px"
	 viewBox="-423 226 113 110" style="enable-background:new -423 226 113 110;" xml:space="preserve">
<style type="text/css">
	.st0{fill:#FFFFFF;}
	.st1{fill:#A3CA53;}
</style>
<title>What will Discover</title>
<desc>Created with Sketch.</desc>
<g>
	<path id="path-3" class="st0" d="M-317.9,226.4l2.4,5.6l-2.4,5.6l7.1-5.6L-317.9,226.4L-317.9,226.4z"/>
	<path id="path-1" class="st0" d="M-317.9,324.4l2.4,5.6l-2.4,5.6l7.1-5.6L-317.9,324.4L-317.9,324.4z"/>
	<path class="st0" d="M-325.8,330c0-0.8,0.6-1.4,1.4-1.4l0,0c0.8,0,1.4,0.6,1.4,1.4l0,0c0,0.8-0.6,1.4-1.4,1.4l0,0
		C-325.2,331.4-325.8,330.8-325.8,330z M-331.5,330c0-0.8,0.6-1.4,1.4-1.4l0,0c0.8,0,1.4,0.6,1.4,1.4l0,0c0,0.8-0.6,1.4-1.4,1.4l0,0
		C-330.9,331.4-331.5,330.8-331.5,330z M-337.2,330c0-0.8,0.6-1.4,1.4-1.4l0,0c0.8,0,1.4,0.6,1.4,1.4l0,0c0,0.8-0.6,1.4-1.4,1.4l0,0
		C-336.5,331.4-337.2,330.8-337.2,330z M-342.8,330c0-0.8,0.6-1.4,1.4-1.4l0,0c0.8,0,1.4,0.6,1.4,1.4l0,0c0,0.8-0.6,1.4-1.4,1.4l0,0
		C-342.2,331.4-342.8,330.8-342.8,330z M-348.5,330c0-0.8,0.6-1.4,1.4-1.4l0,0c0.8,0,1.4,0.6,1.4,1.4l0,0c0,0.8-0.6,1.4-1.4,1.4l0,0
		C-347.9,331.4-348.5,330.8-348.5,330z M-354.2,330c0-0.8,0.6-1.4,1.4-1.4l0,0c0.8,0,1.4,0.6,1.4,1.4l0,0c0,0.8-0.6,1.4-1.4,1.4l0,0
		C-353.6,331.4-354.2,330.8-354.2,330z M-359.8,330c0-0.8,0.6-1.4,1.4-1.4l0,0c0.8,0,1.4,0.6,1.4,1.4l0,0c0,0.8-0.6,1.4-1.4,1.4l0,0
		C-359.2,331.4-359.8,330.8-359.8,330z M-365.5,330c0-0.8,0.6-1.4,1.4-1.4l0,0c0.8,0,1.4,0.6,1.4,1.4l0,0c0,0.8-0.6,1.4-1.4,1.4l0,0
		C-364.9,331.4-365.5,330.8-365.5,330z M-371.2,330c0-0.8,0.6-1.4,1.4-1.4l0,0c0.8,0,1.4,0.6,1.4,1.4l0,0c0,0.8-0.6,1.4-1.4,1.4l0,0
		C-370.6,331.4-371.2,330.8-371.2,330z M-376.8,330c0-0.8,0.6-1.4,1.4-1.4l0,0c0.8,0,1.4,0.6,1.4,1.4l0,0c0,0.8-0.6,1.4-1.4,1.4l0,0
		C-376.2,331.4-376.8,330.8-376.8,330z M-382.5,330c0-0.8,0.6-1.4,1.4-1.4l0,0c0.8,0,1.4,0.6,1.4,1.4l0,0c0,0.8-0.6,1.4-1.4,1.4l0,0
		C-381.9,331.4-382.5,330.8-382.5,330z M-388.2,330c0-0.8,0.6-1.4,1.4-1.4l0,0c0.8,0,1.4,0.6,1.4,1.4l0,0c0,0.8-0.6,1.4-1.4,1.4l0,0
		C-387.6,331.4-388.2,330.8-388.2,330z M-393.9,330c0-0.8,0.6-1.4,1.4-1.4l0,0c0.8,0,1.4,0.6,1.4,1.4l0,0c0,0.8-0.6,1.4-1.4,1.4l0,0
		C-393.2,331.4-393.9,330.8-393.9,330z M-399.5,330c0-0.8,0.6-1.4,1.4-1.4l0,0c0.8,0,1.4,0.6,1.4,1.4l0,0c0,0.8-0.6,1.4-1.4,1.4l0,0
		C-398.9,331.4-399.5,330.8-399.5,330z M-405.2,330c0-0.8,0.6-1.4,1.4-1.4l0,0c0.8,0,1.4,0.6,1.4,1.4l0,0c0,0.8-0.6,1.4-1.4,1.4l0,0
		C-404.6,331.4-405.2,330.8-405.2,330z M-410.9,330c0-0.8,0.6-1.4,1.4-1.4l0,0c0.8,0,1.4,0.6,1.4,1.4l0,0c0,0.8-0.6,1.4-1.4,1.4l0,0
		C-410.2,331.4-410.9,330.8-410.9,330z M-416.5,330c0-0.8,0.6-1.4,1.4-1.4l0,0c0.8,0,1.4,0.6,1.4,1.4l0,0c0,0.8-0.6,1.4-1.4,1.4l0,0
		C-415.9,331.4-416.5,330.8-416.5,330z M-422.2,330c0-0.8,0.6-1.4,1.4-1.4l0,0c0.8,0,1.4,0.6,1.4,1.4l0,0c0,0.8-0.6,1.4-1.4,1.4l0,0
		C-421.6,331.4-422.2,330.8-422.2,330z"/>
	<path class="st0" d="M-325.8,232c0-0.8,0.6-1.4,1.4-1.4l0,0c0.8,0,1.4,0.6,1.4,1.4l0,0c0,0.8-0.6,1.4-1.4,1.4l0,0
		C-325.2,233.4-325.8,232.8-325.8,232z M-331.5,232c0-0.8,0.6-1.4,1.4-1.4l0,0c0.8,0,1.4,0.6,1.4,1.4l0,0c0,0.8-0.6,1.4-1.4,1.4l0,0
		C-330.9,233.4-331.5,232.8-331.5,232z M-337.2,232c0-0.8,0.6-1.4,1.4-1.4l0,0c0.8,0,1.4,0.6,1.4,1.4l0,0c0,0.8-0.6,1.4-1.4,1.4l0,0
		C-336.5,233.4-337.2,232.8-337.2,232z M-342.8,232c0-0.8,0.6-1.4,1.4-1.4l0,0c0.8,0,1.4,0.6,1.4,1.4l0,0c0,0.8-0.6,1.4-1.4,1.4l0,0
		C-342.2,233.4-342.8,232.8-342.8,232z M-348.5,232c0-0.8,0.6-1.4,1.4-1.4l0,0c0.8,0,1.4,0.6,1.4,1.4l0,0c0,0.8-0.6,1.4-1.4,1.4l0,0
		C-347.9,233.4-348.5,232.8-348.5,232z M-354.2,232c0-0.8,0.6-1.4,1.4-1.4l0,0c0.8,0,1.4,0.6,1.4,1.4l0,0c0,0.8-0.6,1.4-1.4,1.4l0,0
		C-353.6,233.4-354.2,232.8-354.2,232z M-359.8,232c0-0.8,0.6-1.4,1.4-1.4l0,0c0.8,0,1.4,0.6,1.4,1.4l0,0c0,0.8-0.6,1.4-1.4,1.4l0,0
		C-359.2,233.4-359.8,232.8-359.8,232z M-365.5,232c0-0.8,0.6-1.4,1.4-1.4l0,0c0.8,0,1.4,0.6,1.4,1.4l0,0c0,0.8-0.6,1.4-1.4,1.4l0,0
		C-364.9,233.4-365.5,232.8-365.5,232z M-371.2,232c0-0.8,0.6-1.4,1.4-1.4l0,0c0.8,0,1.4,0.6,1.4,1.4l0,0c0,0.8-0.6,1.4-1.4,1.4l0,0
		C-370.6,233.4-371.2,232.8-371.2,232z M-376.9,232c0-0.8,0.6-1.4,1.4-1.4l0,0c0.8,0,1.4,0.6,1.4,1.4l0,0c0,0.8-0.6,1.4-1.4,1.4l0,0
		C-376.2,233.4-376.9,232.8-376.9,232z M-382.5,232c0-0.8,0.6-1.4,1.4-1.4l0,0c0.8,0,1.4,0.6,1.4,1.4l0,0c0,0.8-0.6,1.4-1.4,1.4l0,0
		C-381.9,233.4-382.5,232.8-382.5,232z M-388.2,232c0-0.8,0.6-1.4,1.4-1.4l0,0c0.8,0,1.4,0.6,1.4,1.4l0,0c0,0.8-0.6,1.4-1.4,1.4l0,0
		C-387.6,233.4-388.2,232.8-388.2,232z M-393.9,232c0-0.8,0.6-1.4,1.4-1.4l0,0c0.8,0,1.4,0.6,1.4,1.4l0,0c0,0.8-0.6,1.4-1.4,1.4l0,0
		C-393.2,233.4-393.9,232.8-393.9,232z M-399.5,232c0-0.8,0.6-1.4,1.4-1.4l0,0c0.8,0,1.4,0.6,1.4,1.4l0,0c0,0.8-0.6,1.4-1.4,1.4l0,0
		C-398.9,233.4-399.5,232.8-399.5,232z M-405.2,232c0-0.8,0.6-1.4,1.4-1.4l0,0c0.8,0,1.4,0.6,1.4,1.4l0,0c0,0.8-0.6,1.4-1.4,1.4l0,0
		C-404.6,233.4-405.2,232.8-405.2,232z M-410.9,232c0-0.8,0.6-1.4,1.4-1.4l0,0c0.8,0,1.4,0.6,1.4,1.4l0,0c0,0.8-0.6,1.4-1.4,1.4l0,0
		C-410.2,233.4-410.9,232.8-410.9,232z M-416.5,232c0-0.8,0.6-1.4,1.4-1.4l0,0c0.8,0,1.4,0.6,1.4,1.4l0,0c0,0.8-0.6,1.4-1.4,1.4l0,0
		C-415.9,233.4-416.5,232.8-416.5,232z M-422.2,232c0-0.8,0.6-1.4,1.4-1.4l0,0c0.8,0,1.4,0.6,1.4,1.4l0,0c0,0.8-0.6,1.4-1.4,1.4l0,0
		C-421.6,233.4-422.2,232.8-422.2,232z"/>
	<path id="Fill-11" sketch:type="MSShapeGroup" class="st1" d="M-418.6,318.1c-0.1,0.2-0.2,0.3-0.3,0.4c-0.1,0.1-0.3,0.1-0.5,0.1
		s-0.5,0-0.9,0c-0.2,0-0.4,0-0.7-0.1c-0.3-0.1-0.4-0.2-0.4-0.4c0-1.4,0.1-2.9,0.2-4.3c0.2-1.4,0.3-2.8,0.5-4.2
		c0.3-2.2,0.6-4.4,1-6.6s0.8-4.4,1.3-6.5c-0.3,0-0.6,0.1-0.9,0.1s-0.6,0.1-0.9,0.1c-0.2,0-0.3,0.1-0.5,0.1c-0.1,0-0.3,0-0.5,0
		c-0.3,0-0.5-0.1-0.5-0.4c0-0.2,0.1-0.4,0.4-0.5s0.6-0.2,1-0.3s0.8-0.1,1.2-0.1c0.4,0,0.7,0,0.8,0c0-0.2,0.1-0.4,0.2-0.6
		s0.1-0.4,0.2-0.6c0.1-0.4,0.3-0.7,0.6-1c0.2-0.2,0.5-0.5,0.9-0.6c0.4-0.2,0.8-0.3,1.2-0.3c0.1,0,0.2,0,0.4,0.1
		c0.1,0.1,0.2,0.2,0.2,0.4c0,0,0,0.1-0.1,0.3c-0.2,0.3-0.3,0.7-0.4,1.1s-0.2,0.8-0.2,1.1c1.6,0,3.1,0.2,4.5,0.6s2.5,1,3.5,1.8
		s1.8,1.9,2.3,3.1c0.6,1.3,0.8,2.8,0.8,4.5c0,1.3-0.3,2.6-0.9,3.7s-1.4,2.1-2.4,3.1c-1,0.9-2,1.7-3.2,2.4s-2.3,1.2-3.4,1.7
		c-0.6,0.2-1.3,0.5-2.1,0.7c-0.8,0.2-1.5,0.4-2.2,0.4C-418.5,317.7-418.5,318-418.6,318.1L-418.6,318.1z M-416.1,315
		c0.7-0.2,1.4-0.4,2-0.7c0.9-0.4,1.9-0.9,2.9-1.4c1-0.6,1.9-1.2,2.6-2c0.8-0.7,1.4-1.6,1.9-2.5s0.8-2,0.8-3.1c0-1.3-0.3-2.6-0.8-3.6
		c-0.5-1.1-1.2-2-2.1-2.7s-1.9-1.3-3-1.7c-1.2-0.4-2.4-0.6-3.6-0.6c-0.8,4-1.5,8-2.1,12.1c-0.2,1.1-0.3,2.3-0.5,3.4
		s-0.2,2.3-0.2,3.4C-417.5,315.3-416.8,315.2-416.1,315L-416.1,315z"/>
	<path class="st1" d="M-399.1,304.5c0.4,0,0.8-0.2,1.1-0.5c0.3-0.4,0.4-0.7,0.4-1.2c0-0.3-0.1-0.6-0.3-0.8c-0.2-0.2-0.5-0.4-0.8-0.4
		c-0.4,0-0.8,0.2-1.1,0.5c-0.3,0.4-0.4,0.7-0.4,1.2c0,0.3,0.1,0.6,0.3,0.8C-399.7,304.4-399.4,304.5-399.1,304.5z"/>
	<path class="st1" d="M-352.3,305.3c-0.2,0-0.4,0.1-0.5,0.2c-0.1,0.2-0.2,0.3-0.4,0.4c-0.9,1.3-1.7,2.6-2.4,4
		c-0.7,1.4-1.5,2.7-2.2,4.1c-0.1-0.6-0.3-1.2-0.5-2c-0.2-0.7-0.5-1.4-0.8-2.1s-0.6-1.4-1-2s-0.8-1.2-1.2-1.6
		c-0.1-0.1-0.3-0.3-0.4-0.4s-0.3-0.2-0.5-0.2c-0.3,0-0.6,0.1-0.8,0.4l-0.1,0.1c-0.2-0.3-0.4-0.5-0.7-0.8c-0.4-0.3-0.9-0.4-1.5-0.4
		c-1,0-1.8,0.3-2.5,0.9s-1.4,1.3-1.9,2.2s-0.9,1.8-1.2,2.8c-0.3,1-0.4,1.9-0.4,2.7c0,0.1,0,0.1,0,0.2c-0.3,0.4-0.7,0.7-1.1,1
		c-0.5,0.4-1.1,0.8-1.8,1c-0.6,0.3-1.3,0.4-2,0.4c-0.5,0-0.9-0.1-1.2-0.3c-0.3-0.2-0.6-0.4-0.8-0.8c-0.2-0.3-0.3-0.7-0.4-1.1
		s-0.1-0.8-0.1-1.2c0-0.5,0.1-1.1,0.3-1.9c0.2-0.8,0.4-1.6,0.7-2.3c0.3-0.8,0.7-1.4,1.2-2s1-0.8,1.6-0.8c0.4,0,0.6,0.1,0.7,0.4
		s0.1,0.5,0.1,0.8c0,0.5-0.1,0.9-0.3,1.3c-0.2,0.4-0.3,0.7-0.3,0.9s0.1,0.3,0.4,0.3s0.6-0.1,0.8-0.3c0.2-0.2,0.4-0.4,0.5-0.7
		s0.2-0.6,0.2-0.9s0.1-0.6,0.1-0.8c0-0.9-0.2-1.5-0.7-1.9s-1.1-0.6-1.9-0.6c-1,0-1.8,0.3-2.6,0.8c-0.7,0.5-1.4,1.2-1.9,2
		s-0.9,1.7-1.2,2.6c-0.2,0.7-0.3,1.3-0.3,1.9c-0.1,0-0.1,0.1-0.2,0.2c-0.2,0.2-0.3,0.4-0.4,0.5c-0.2,0.3-0.5,0.7-0.9,1.2
		s-0.9,1-1.4,1.5s-1,0.9-1.5,1.2c-0.5,0.4-1,0.5-1.3,0.5c0.3-0.4,0.4-0.8,0.6-1.2c0.1-0.4,0.2-0.9,0.2-1.3c0-0.7-0.1-1.4-0.3-2
		c-0.2-0.7-0.5-1.3-0.8-1.9s-0.6-1.3-1-1.9c-0.3-0.6-0.6-1.2-0.9-1.9c0.2-0.5,0.4-1,0.5-1.6c0.1-0.5,0.2-1.1,0.2-1.6
		c0-0.2,0-0.4,0-0.5c0-0.2-0.1-0.4-0.2-0.6s-0.2-0.3-0.3-0.4c-0.1-0.1-0.3-0.2-0.5-0.2c-0.4,0-0.7,0.1-1,0.4s-0.5,0.6-0.7,1
		s-0.3,0.8-0.4,1.2s-0.2,0.8-0.2,1.1c0,0.6,0.1,1.1,0.3,1.7c-0.5,1.4-1.1,2.7-1.8,4l0,0c-0.2,0.3-0.5,0.8-0.9,1.4s-0.8,1.1-1.3,1.7
		c-0.5,0.5-1,1-1.5,1.4s-1,0.6-1.4,0.6c-0.3,0-0.5-0.1-0.6-0.4c-0.2-0.2-0.3-0.5-0.3-0.8c-0.1-0.3-0.1-0.6-0.1-1c0-0.3,0-0.6,0-0.8
		c0-1,0.1-1.9,0.3-2.8c0.1-0.2,0.1-0.5,0.3-0.8c0.1-0.3,0.2-0.6,0.3-0.9c0.1-0.3,0.2-0.6,0.3-0.9c0.1-0.3,0.1-0.5,0.1-0.8
		c0-0.5-0.2-0.7-0.7-0.7c-0.7,0-1.2,0.2-1.5,0.6s-0.6,0.9-0.8,1.5c-0.2,0.6-0.3,1.2-0.5,1.9c-0.1,0.7-0.2,1.4-0.2,2
		c0,0.5,0,1,0.1,1.6s0.2,1.2,0.4,1.8c0.2,0.6,0.5,1,0.9,1.4s0.9,0.6,1.5,0.6s1.2-0.2,1.8-0.6c0.6-0.4,1.2-0.8,1.7-1.4
		c0.6-0.5,1.1-1.1,1.6-1.7l0.1-0.1c0,0,0.1,0,0.1-0.1c0.3-0.3,0.6-0.7,0.9-1.2c0.1-0.2,0.3-0.5,0.4-0.7c0.1-0.1,0.1-0.2,0.2-0.3
		c0,0,0-0.1,0.1-0.1c0.1-0.1,0.2-0.3,0.2-0.4c0.3-0.5,0.5-1,0.8-1.6c0.2-0.5,0.4-1,0.6-1.4c0.3,0.4,0.5,0.8,0.8,1.4
		c0.3,0.5,0.5,1.1,0.7,1.6c0.2,0.6,0.4,1.1,0.5,1.7s0.2,1.1,0.2,1.6c0,0.8-0.2,1.5-0.7,2c-0.4,0.5-1.1,0.8-1.9,0.8
		c-0.4,0-0.8,0-1.2-0.1c-0.4-0.1-0.7-0.2-1.1-0.5c-0.1-0.1-0.2-0.1-0.3-0.2c-0.1,0-0.2-0.1-0.3-0.1c-0.3,0-0.5,0.2-0.5,0.5
		c0,0.1,0,0.3,0.1,0.4s0.1,0.2,0.3,0.3c0.5,0.4,1.1,0.7,1.8,0.9c0.7,0.1,1.4,0.2,2,0.2c1.2,0,2.2-0.1,3.2-0.4
		c0.9-0.3,1.8-0.7,2.6-1.2c0.8-0.5,1.5-1.1,2.2-1.9c0.5-0.5,0.9-1.1,1.4-1.8c0,0.2,0.1,0.5,0.1,0.7c0.1,0.6,0.4,1.2,0.7,1.7
		c0.3,0.5,0.8,0.9,1.3,1.3c0.5,0.3,1.1,0.5,1.9,0.5c0.9,0,1.8-0.2,2.7-0.5c0.9-0.3,1.7-0.7,2.4-1.3c0.4-0.3,0.7-0.6,1.1-0.9
		c0.1,0.4,0.2,0.8,0.4,1.1c0.2,0.4,0.5,0.7,0.9,1s0.9,0.4,1.5,0.4c0.4,0,0.9-0.1,1.3-0.2c0.4-0.2,0.8-0.4,1.2-0.6
		c0.6-0.4,1.1-0.9,1.6-1.5c0.4-0.6,0.8-1.2,1.1-1.9c0.3-0.7,0.5-1.4,0.6-2.1s0.2-1.4,0.2-2.1c0-0.3,0-0.7-0.1-1
		c0.2,0.3,0.4,0.6,0.5,1c0.4,0.8,0.7,1.6,1.1,2.5c0.3,0.9,0.6,1.7,0.9,2.6c0.2,0.9,0.4,1.6,0.5,2.1c0.1,0.3,0.1,0.6,0.2,0.8
		s0.3,0.3,0.8,0.3c0.4,0,0.6-0.1,0.7-0.3s0.2-0.5,0.2-0.8c0-0.2,0.2-0.6,0.5-1.1s0.6-1.1,1-1.8s0.8-1.4,1.2-2.2
		c0.4-0.8,0.9-1.5,1.3-2.2s0.8-1.3,1.2-1.9c0.3-0.5,0.6-0.9,0.8-1.1c0-0.1,0.1-0.1,0.1-0.2c0.1-0.1,0.1-0.1,0.1-0.3
		s-0.1-0.4-0.3-0.5C-351.9,305.4-352.1,305.3-352.3,305.3z M-363.9,311.6c-0.1,0.5-0.2,1-0.4,1.5c-0.2,0.5-0.4,1-0.7,1.4
		c-0.3,0.4-0.6,0.8-1,1.1c-0.2,0.2-0.4,0.3-0.7,0.4c-0.2,0.1-0.5,0.2-0.8,0.2s-0.6-0.1-0.8-0.3c-0.2-0.2-0.4-0.4-0.5-0.7
		s-0.2-0.5-0.2-0.8s-0.1-0.6-0.1-0.8c0-0.3,0-0.6,0.1-0.9c0.1-0.2,0.3-0.5,0.4-0.7c0.1-0.1,0.1-0.2,0.2-0.4c0.1-0.1,0.1-0.3,0.1-0.4
		c0-0.3-0.1-0.4-0.3-0.5c0.1-0.4,0.3-0.8,0.4-1.2c0.3-0.7,0.7-1.3,1.2-1.8s1-0.7,1.6-0.7c0.3,0,0.6,0.1,0.8,0.3
		c0.2,0.2,0.4,0.4,0.5,0.7s0.2,0.6,0.3,0.9c0,0.3,0.1,0.6,0.1,0.9C-363.8,310.6-363.8,311.1-363.9,311.6z"/>
	<path class="st1" d="M-326.6,311.9c-0.1-0.1-0.2-0.2-0.4-0.2c-0.2,0-0.4,0.1-0.5,0.3s-0.3,0.3-0.4,0.5c-0.2,0.3-0.5,0.7-0.9,1.2
		s-0.8,1-1.3,1.5s-0.9,0.9-1.4,1.3s-0.9,0.5-1.3,0.5c-0.3,0-0.5-0.1-0.5-0.4c-0.1-0.3-0.1-0.5-0.1-0.8c0-0.8,0.1-1.5,0.2-2.3
		c0.1-0.7,0.3-1.5,0.4-2.2c0.1-0.5,0.2-0.9,0.2-1.2c0-0.7-0.1-1.3-0.4-1.7s-0.7-0.8-1.1-1.1s-0.8-0.6-1.3-0.8
		c-0.4-0.2-0.8-0.6-1-0.9c0.1-0.5,0.1-1,0.1-1.5c0-0.2,0-0.4,0-0.7s-0.1-0.5-0.2-0.8s-0.2-0.5-0.3-0.7c-0.1-0.2-0.3-0.3-0.5-0.3
		c-0.3,0-0.6,0.1-0.8,0.4c-0.2,0.3-0.4,0.6-0.6,1s-0.3,0.8-0.4,1.2s-0.1,0.7-0.1,1c0,0.5,0.1,1,0.2,1.4c0.1,0.5,0.3,0.9,0.6,1.3
		c-0.1,1.1-0.5,2.1-1,3c-0.5,0.8-0.9,1.5-1.4,2.3c-0.1,0.1-0.1,0.2-0.2,0.2c-0.4,0.5-0.9,1-1.4,1.4s-1.1,0.8-1.7,1
		c-0.6,0.3-1.2,0.4-1.9,0.4c-0.7,0-1.3-0.2-1.6-0.6c-0.3-0.4-0.5-1-0.5-1.7c0-0.4,0.1-0.9,0.2-1.3c0.5-0.2,1-0.5,1.6-1
		s1.1-1,1.6-1.6s0.9-1.2,1.2-1.9c0.3-0.7,0.5-1.2,0.5-1.8s-0.2-1-0.5-1.4s-0.8-0.5-1.3-0.5c-0.9,0-1.6,0.3-2.4,1
		c-0.7,0.7-1.3,1.5-1.8,2.4s-0.9,1.9-1.2,3c-0.3,1-0.4,1.9-0.4,2.6c0,0.6,0.1,1.1,0.2,1.6s0.3,1,0.6,1.4c0.3,0.4,0.7,0.7,1.1,1
		c0.4,0.2,1,0.4,1.6,0.4c0.9,0,1.7-0.1,2.5-0.4s1.6-0.7,2.3-1.2c0.7-0.5,1.3-1.1,1.9-1.7l0,0l0.1-0.1c0.4-0.4,0.7-0.8,1-1.2
		c0.3-0.5,0.6-1,0.8-1.5c0.3-0.5,0.5-1,0.7-1.5s0.4-1,0.6-1.5c0.5,0.1,0.9,0.4,1.3,0.7s0.6,0.7,0.6,1.3s0,1.2-0.1,1.8
		s-0.1,1.2-0.1,1.8c0,0.4,0,0.8,0,1.3s0.1,1,0.3,1.5c0.1,0.5,0.4,0.8,0.7,1.2c0.3,0.3,0.7,0.5,1.2,0.5s1.1-0.2,1.7-0.6
		s1.2-0.9,1.8-1.5c0.6-0.6,1.1-1.2,1.6-1.8s0.9-1.1,1.1-1.5c0.1-0.1,0.1-0.2,0.2-0.3s0.1-0.2,0.1-0.4
		C-326.5,312.2-326.5,312-326.6,311.9z M-347.4,309.9c0.2-0.6,0.4-1.2,0.7-1.8c0.3-0.6,0.6-1.1,0.9-1.6s0.6-0.7,1-0.7
		c0.2,0,0.4,0.1,0.4,0.2c0.1,0.2,0.1,0.3,0.1,0.5c0,0.4-0.1,0.9-0.4,1.3c-0.2,0.5-0.5,0.9-0.9,1.4c-0.3,0.4-0.7,0.8-1.1,1.2
		s-0.8,0.6-1.1,0.9C-347.8,311-347.6,310.6-347.4,309.9z"/>
	<path id="Fill-19" sketch:type="MSShapeGroup" class="st1" d="M-321.9,316.8c-0.1,0.3-0.5,0.5-1,0.5c-0.4,0-0.7-0.1-0.9-0.4
		c-0.3-0.2-0.4-0.5-0.4-0.9s0.1-0.7,0.2-1.1c0.2-0.4,0.5-0.5,0.9-0.5c0.3,0,0.7,0.1,0.9,0.4c0.3,0.2,0.4,0.5,0.4,0.9
		C-321.7,316.1-321.8,316.4-321.9,316.8L-321.9,316.8z M-322.9,311.8c-0.1-0.1-0.1-0.2-0.2-0.4c0-0.1-0.1-0.3-0.1-0.4s0-0.3,0-0.4
		c0-0.9,0.2-1.7,0.5-2.4c0.4-0.7,0.8-1.4,1.3-2.1s1.1-1.3,1.7-2c0.6-0.6,1.2-1.3,1.7-2s1-1.5,1.3-2.3c0.4-0.8,0.5-1.8,0.5-2.8
		c0-0.4-0.1-0.7-0.2-1.1c-0.1-0.3-0.3-0.6-0.6-0.9c-0.2-0.3-0.5-0.5-0.8-0.6c-0.3-0.2-0.7-0.2-1.1-0.2s-0.8,0.1-1.1,0.2
		c-0.4,0.2-0.7,0.4-1,0.6c-0.3,0.3-0.5,0.6-0.7,0.9c-0.2,0.4-0.3,0.7-0.3,1.1c0,0.3,0,0.7,0.1,0.9c0.1,0.3,0.2,0.5,0.3,0.8
		c0.1,0.2,0.2,0.4,0.3,0.6c0.1,0.1,0.1,0.3,0.1,0.4c0,0.2-0.1,0.3-0.2,0.4s-0.3,0.2-0.5,0.2c-0.3,0-0.5-0.1-0.7-0.4
		c-0.2-0.2-0.4-0.5-0.5-0.9c-0.1-0.3-0.2-0.7-0.3-1.1c-0.1-0.4-0.1-0.6-0.1-0.9c0-0.7,0.1-1.3,0.4-1.8c0.3-0.6,0.7-1.1,1.2-1.5
		s1-0.7,1.6-1c0.6-0.2,1.2-0.4,1.9-0.4c0.7,0,1.4,0.1,2,0.3s1.2,0.4,1.6,0.8c0.5,0.4,0.8,0.8,1.1,1.4c0.3,0.6,0.4,1.2,0.4,2
		c0,1-0.2,2-0.6,2.9s-1,1.7-1.6,2.5s-1.3,1.5-2.1,2.2c-0.8,0.7-1.5,1.4-2.1,2.1c-0.7,0.7-1.2,1.4-1.7,2c-0.5,0.7-0.7,1.4-0.8,2.1
		c0,0.1,0,0.2,0,0.4c0,0.1,0,0.2,0,0.4c0,0.1-0.1,0.2-0.2,0.3S-322.6,311.8-322.9,311.8C-322.7,311.9-322.9,311.9-322.9,311.8
		L-322.9,311.8z"/>
	<path id="Fill-20" sketch:type="MSShapeGroup" class="st0" d="M-403.5,268.1h3.5l-0.2,1h-4.5l-5.1-25.2h1.4L-403.5,268.1
		L-403.5,268.1z M-383.1,242.1l-5.1,25.2h-4.4l-3-14.9l-3,14.9h-4.4l-5.1-25.2h4.4l2.9,18.6h0.1l3-18.6h4.4l2.9,18.6h0.1l3-18.6
		H-383.1L-383.1,242.1z M-400.7,256.9l-0.4-2.4l1.7-10.6h0.7L-400.7,256.9L-400.7,256.9z M-393.2,268.1h3.5l-0.2,1h-4.4l-2-9.9
		l0.6-3.3L-393.2,268.1L-393.2,268.1z M-390.3,256.9l-0.4-2.4l1.7-10.6h0.8L-390.3,256.9L-390.3,256.9z"/>
	<path id="Fill-21" sketch:type="MSShapeGroup" class="st0" d="M-380,268.1h3.5v1h-4.5v-25.2h1V268.1L-380,268.1z M-365.6,242.1
		v25.2h-4.5v-11.8h-4.8v11.8h-4.5v-25.2h4.5v9.8h4.8v-9.8L-365.6,242.1L-365.6,242.1z M-370.8,268.1h3.5v1h-4.5v-11.8h-2.4v-1h3.4
		V268.1L-370.8,268.1z M-371.8,243.9h1v7.4h-1V243.9z"/>
	<path id="Fill-22" sketch:type="MSShapeGroup" class="st0" d="M-358.3,268l-1,1h-4.2l5.1-25.2l0.8-0.8l-5.1,25H-358.3L-358.3,268z
		 M-352.4,261.5h-4.4l-0.9,5.9h-4.2l5.2-25.2h4.5l5.2,25.2h-4.5L-352.4,261.5L-352.4,261.5z M-347.7,268l-1,1h-4.5l-0.9-5.8h-2.3
		l0.1-1h3.2l0.8,5.8H-347.7L-347.7,268z M-353.2,257.9l-1.4-9h-0.1l-1.4,9H-353.2L-353.2,257.9z M-354.6,252.9l0.6,4.3h-1.3v-0.3
		L-354.6,252.9L-354.6,252.9z"/>
	<path id="Fill-23" sketch:type="MSShapeGroup" class="st0" d="M-342.8,268h3.5v1h-4.5v-21.6h-4.6v-3.6h1v2.6h4.6V268L-342.8,268z
		 M-333,242.1v3.6h-4.6v21.6h-4.5v-21.6h-4.6v-3.6H-333L-333,242.1z M-337,246.4h2.3v1h-2.3V246.4z"/>
	<path id="Fill-24" sketch:type="MSShapeGroup" class="st0" d="M-400.8,280.9l2,6.8l0,0l2.3-6.8h1.2l2.3,6.8l0,0l2-6.8h1.3l-2.7,8.4
		h-1.3l-2.2-6.8l0,0l-2.2,6.8h-1.3l-2.7-8.4H-400.8"/>
	<path id="Fill-25" sketch:type="MSShapeGroup" class="st0" d="M-386,277.7c0,0.3-0.1,0.5-0.3,0.6c-0.2,0.2-0.4,0.2-0.6,0.2
		s-0.4-0.1-0.6-0.2c-0.2-0.2-0.3-0.4-0.3-0.6c0-0.3,0.1-0.5,0.3-0.6c0.2-0.2,0.4-0.2,0.6-0.2s0.4,0.1,0.6,0.2S-386,277.4-386,277.7
		L-386,277.7z M-387.5,280.9h1.2v8.4h-1.2V280.9z"/>
	<path id="Fill-26" sketch:type="MSShapeGroup" class="st0" d="M-383,275.7h1.2v13.6h-1.2V275.7z"/>
	<path id="Fill-27" sketch:type="MSShapeGroup" class="st0" d="M-378.5,275.7h1.2v13.6h-1.2V275.7z"/>
	<path id="Fill-28" sketch:type="MSShapeGroup" class="st0" d="M-366.6,288L-366.6,288l2.6-7.1h1.3l-4.2,10.6
		c-0.3,0.6-0.6,1.2-1,1.6s-1,0.6-1.7,0.6c-0.4,0-0.7,0-1.1-0.1l0.1-1.1c0.3,0.1,0.6,0.1,0.9,0.1c0.4,0,0.8-0.1,1-0.4
		s0.4-0.6,0.6-1.1l0.7-1.8l-3.6-8.4h1.4L-366.6,288"/>
	<path id="Fill-29" sketch:type="MSShapeGroup" class="st0" d="M-352.3,285.1c0,0.6-0.1,1.2-0.3,1.8c-0.2,0.5-0.5,1-0.9,1.4
		s-0.9,0.7-1.4,0.9c-0.6,0.2-1.2,0.3-1.8,0.3c-0.6,0-1.2-0.1-1.8-0.3c-0.6-0.2-1-0.5-1.4-0.9s-0.7-0.9-0.9-1.4
		c-0.2-0.5-0.3-1.1-0.3-1.8c0-0.6,0.1-1.2,0.3-1.8c0.2-0.5,0.5-1,0.9-1.4s0.9-0.7,1.4-0.9c0.6-0.2,1.2-0.3,1.8-0.3
		c0.7,0,1.3,0.1,1.8,0.3c0.6,0.2,1,0.5,1.4,0.9s0.7,0.9,0.9,1.4C-352.4,283.9-352.3,284.5-352.3,285.1L-352.3,285.1z M-353.6,285.1
		c0-0.5-0.1-0.9-0.2-1.3c-0.2-0.4-0.4-0.8-0.6-1.1c-0.3-0.3-0.6-0.5-1-0.7s-0.8-0.3-1.3-0.3s-0.9,0.1-1.3,0.3s-0.7,0.4-1,0.7
		s-0.5,0.7-0.6,1.1s-0.2,0.9-0.2,1.3c0,0.5,0.1,0.9,0.2,1.3c0.2,0.4,0.4,0.8,0.6,1.1c0.3,0.3,0.6,0.5,1,0.7s0.8,0.3,1.3,0.3
		s0.9-0.1,1.3-0.3s0.7-0.4,1-0.7s0.5-0.7,0.6-1.1S-353.6,285.6-353.6,285.1L-353.6,285.1z"/>
	<path id="Fill-30" sketch:type="MSShapeGroup" class="st0" d="M-343.6,289.3c0-0.2,0-0.5-0.1-0.8c0-0.3,0-0.5,0-0.7l0,0
		c-0.2,0.5-0.6,0.9-1.2,1.2s-1.1,0.5-1.7,0.5c-1.1,0-1.9-0.3-2.4-1c-0.5-0.6-0.8-1.5-0.8-2.5v-5.2h1.2v4.7c0,0.4,0,0.8,0.1,1.2
		s0.2,0.7,0.4,0.9c0.2,0.2,0.4,0.5,0.7,0.6c0.3,0.1,0.7,0.2,1.1,0.2c0.3,0,0.6-0.1,0.9-0.2s0.6-0.3,0.8-0.6c0.2-0.3,0.4-0.6,0.6-1
		c0.1-0.4,0.2-0.9,0.2-1.5v-4.3h1.2v6.6c0,0.2,0,0.5,0,0.9s0,0.7,0.1,1L-343.6,289.3"/>
</g>
</svg>
