<svg xmlns="http://www.w3.org/2000/svg" version="1.1" x="0" y="0" width="26" height="26" viewBox="0 0 26 26" xml:space="preserve"><style type="text/css">
	.st0{fill:#FFFFFF;}
</style><title>cross 2</title><desc>Created with Sketch.</desc><path class="st0" d="M18.4 13l6.4-6.4c0.8-0.8 0.8-2 0-2.8l-2.7-2.7c-0.8-0.8-2-0.8-2.8 0l-6.4 6.4L7.2 1.8C6 0.7 4.3 0.5 3.3 1.5L1.4 3.4c-1 1-0.9 2.8 0.3 3.9L7.4 13 1 19.4c-0.8 0.8-0.8 2 0 2.8l2.7 2.7c0.8 0.8 2 0.8 2.8 0l6.4-6.4 5.7 5.7c1.2 1.2 2.9 1.3 3.9 0.3l1.8-1.8c1-1 0.9-2.8-0.3-3.9L18.4 13z"/></svg>