<?xml version="1.0" encoding="utf-8"?>
<!-- Generator: Adobe Illustrator 20.0.0, SVG Export Plug-In . SVG Version: 6.00 Build 0)  -->
<svg version="1.1" id="Layer_1" xmlns:sketch="http://www.bohemiancoding.com/sketch/ns"
	 xmlns="http://www.w3.org/2000/svg" xmlns:xlink="http://www.w3.org/1999/xlink" x="0px" y="0px" width="120px" height="47px"
	 viewBox="0 0 120 47" style="enable-background:new 0 0 120 47;" xml:space="preserve">
<style type="text/css">
	.st0{fill:#FFFFFF;}
	.st1{fill:#8D6644;}
	.st2{fill:#C1C1C1;}
	.st3{fill:none;}
	.st4{fill:#2695BC;}
	.st5{fill:#9E7D60;}
	.st6{fill:#4A4A4A;}
	.st7{fill:#10A5E0;}
	.st8{fill:#F79F11;}
	.st9{fill:#056F31;}
	.st10{fill:#D7D7D8;}
	.st11{fill:#CDCDCC;}
	.st12{fill:#F3F3F3;}
	.st13{fill:#E1E0E0;}
	.st14{fill:#83B527;}
	.st15{fill:#31B9E8;}
	.st16{fill:#5E5E61;}
	.st17{fill:#1692C5;}
	.st18{fill:#2D2D2D;}
	.st19{fill:#84838C;}
	.st20{fill:#364B99;}
	.st21{fill:#E9EDF1;}
	.st22{fill:#E40076;}
	.st23{fill:#103151;}
	.st24{fill:#A2C654;}
	.st25{fill:#233978;}
	.st26{fill:#EC6F1D;}
	.st27{fill:#78428E;}
	.st28{fill:#43224E;}
	.st29{fill:#1DC3EF;}
	.st30{fill:#EF45B2;}
	.st31{fill:#2293D1;}
	.st32{fill:#0B4B84;}
	.st33{fill:#31B1DD;}
	.st34{fill:#EACB49;}
	.st35{opacity:0.2;fill:#FFFFFF;enable-background:new    ;}
	.st36{fill:#52BCCE;}
	.st37{fill:#BC2359;}
	.st38{fill:#197EC1;}
	.st39{fill:url(#SVGID_1_);}
	.st40{fill:url(#SVGID_4_);}
	.st41{fill:#83C1E9;}
	.st42{fill:#22B573;}
	.st43{fill:#074425;}
	.st44{fill:#F94B4B;}
	.st45{clip-path:url(#SVGID_6_);}
	.st46{clip-path:url(#SVGID_8_);fill:#FF8436;}
	.st47{clip-path:url(#SVGID_10_);}
	.st48{clip-path:url(#SVGID_12_);fill:#FF8436;}
	.st49{clip-path:url(#SVGID_14_);}
	.st50{clip-path:url(#SVGID_17_);fill:#FF8436;}
	.st51{clip-path:url(#SVGID_19_);}
	.st52{clip-path:url(#SVGID_22_);fill:#FF8436;}
	.st53{clip-path:url(#SVGID_24_);}
	.st54{clip-path:url(#SVGID_26_);fill:#FF8436;}
	.st55{clip-path:url(#SVGID_28_);}
	.st56{clip-path:url(#SVGID_30_);fill:#FF8436;}
	.st57{clip-path:url(#SVGID_32_);}
	.st58{clip-path:url(#SVGID_34_);fill:#FF8436;}
	.st59{clip-path:url(#SVGID_36_);}
	.st60{clip-path:url(#SVGID_38_);fill:#FF8436;}
</style>
<g id="Search-results-list_2_" sketch:type="MSPage">
	<g id="link-to-afiliate-sites_2_" transform="translate(-687.000000, -2402.000000)" sketch:type="MSArtboardGroup">
		<g id="_x31__2_" transform="translate(24.000000, 33.000000)" sketch:type="MSLayerGroup">
			<g id="Posted-ad--Motors-2_2_" transform="translate(0.000000, 2260.000000)">
				<g id="Imported-Layers-_x2B_-Shape-Copy_2_" transform="translate(663.000000, 108.000000)">
					<path id="Shape-Copy_16_" sketch:type="MSShapeGroup" class="st6" d="M115.7,5.2L108.4,1c-0.2-0.1-0.3-0.1-0.5,0
						s-0.3,0.2-0.3,0.4v1.9l0,0c-0.2,0-0.4,0.1-0.6,0.2c-0.8,0.2-1.5,0.5-2.4,0.9c-0.8,0.3-1.6,0.8-2.3,1.3c-0.5,0.4-1,0.8-1.5,1.3
						c-1.2,1.3-1.9,3-1.8,4.7c0,0.3,0,0.6,0.1,0.8c0,0.2,0.2,0.4,0.5,0.4l0,0c0.2,0,0.5-0.2,0.5-0.4c0.1-0.7,0.4-1.4,0.7-1.9
						c0.4-0.6,0.9-1.2,1.5-1.6c0.5-0.3,1.1-0.6,1.7-0.8c0.7-0.2,1.5-0.4,2.4-0.4c0.4,0,0.8,0,1.2,0c0,0,0,0,0.1,0v1.8
						c0,0.2,0.1,0.3,0.2,0.4c0.2,0.1,0.3,0.1,0.5,0l7.3-4.1c0.2-0.1,0.3-0.2,0.3-0.4C115.9,5.4,115.8,5.3,115.7,5.2L115.7,5.2z"/>
				</g>
			</g>
		</g>
	</g>
</g>
<g>
	<g>
		<defs>
			<polygon id="SVGID_5_" points="19.7,22.6 15.8,35.8 15.7,35.8 12,22.6 9.9,22.6 6.1,35.8 6,35.8 2.1,22.6 0.1,22.6 5.1,38.1 
				7.1,38.1 10.9,25.1 10.9,25.1 14.7,38.1 16.8,38.1 21.7,22.6 			"/>
		</defs>
		<clipPath id="SVGID_1_">
			<use xlink:href="#SVGID_5_"  style="overflow:visible;"/>
		</clipPath>
		<g style="clip-path:url(#SVGID_1_);">
			<defs>
				<rect id="SVGID_7_" x="0.1" y="16.6" width="119.9" height="27.6"/>
			</defs>
			<clipPath id="SVGID_3_">
				<use xlink:href="#SVGID_7_"  style="overflow:visible;"/>
			</clipPath>
			<rect x="-3.3" y="19.3" style="clip-path:url(#SVGID_3_);fill:#FF8436;" width="28.4" height="22.2"/>
		</g>
	</g>
	<g>
		<defs>
			<path id="SVGID_9_" d="M23.8,38.1h1.9V22.6h-1.9V38.1z M23.8,19.7h1.9v-3h-1.9V19.7z"/>
		</defs>
		<clipPath id="SVGID_4_">
			<use xlink:href="#SVGID_9_"  style="overflow:visible;"/>
		</clipPath>
		<g style="clip-path:url(#SVGID_4_);">
			<defs>
				<rect id="SVGID_11_" x="0.1" y="16.6" width="119.9" height="27.6"/>
			</defs>
			<clipPath id="SVGID_6_">
				<use xlink:href="#SVGID_11_"  style="overflow:visible;"/>
			</clipPath>
			<rect x="20.4" y="13.4" style="clip-path:url(#SVGID_6_);fill:#FF8436;" width="8.6" height="28.1"/>
		</g>
	</g>
	<g>
		<defs>
			<path id="SVGID_13_" d="M41.9,39.9c-0.2,0.9-0.6,1.7-1.2,2.3c-0.5,0.6-1.2,1.1-2.1,1.5c-0.9,0.3-1.9,0.5-3.2,0.5
				c-0.8,0-1.5-0.1-2.3-0.3c-0.7-0.2-1.4-0.5-2-0.8c-0.6-0.4-1.1-0.9-1.5-1.4c-0.4-0.6-0.6-1.3-0.7-2.1H31c0.1,0.6,0.3,1.1,0.6,1.4
				c0.3,0.4,0.6,0.7,1,0.9c0.4,0.2,0.9,0.4,1.4,0.5c0.5,0.1,1,0.2,1.5,0.2c1.8,0,3-0.5,3.8-1.5c0.8-1,1.2-2.4,1.2-4.3v-2.1h-0.1
				c-0.4,1-1.1,1.7-1.9,2.3c-0.8,0.6-1.8,0.9-3,0.9c-1.2,0-2.3-0.2-3.2-0.6c-0.9-0.4-1.6-1-2.2-1.7c-0.6-0.7-1-1.6-1.2-2.5
				c-0.3-1-0.4-2-0.4-3.1c0-1.1,0.2-2.1,0.5-3c0.3-0.9,0.8-1.8,1.3-2.5c0.6-0.7,1.3-1.3,2.2-1.7c0.9-0.4,1.9-0.6,3-0.6
				c0.6,0,1.1,0.1,1.6,0.2c0.5,0.2,1,0.4,1.4,0.7c0.4,0.3,0.8,0.6,1.1,1c0.3,0.4,0.6,0.8,0.8,1.2h0.1v-2.7h1.9v14.2
				C42.3,37.9,42.2,39,41.9,39.9 M37.6,35.8c0.6-0.3,1.1-0.8,1.6-1.4c0.4-0.6,0.7-1.2,0.9-2c0.2-0.7,0.3-1.5,0.3-2.3
				c0-0.8-0.1-1.5-0.3-2.3c-0.2-0.8-0.5-1.4-0.9-2.1c-0.4-0.6-0.9-1.1-1.5-1.5c-0.6-0.4-1.4-0.6-2.3-0.6c-0.9,0-1.7,0.2-2.3,0.6
				c-0.6,0.4-1.2,0.9-1.6,1.4c-0.4,0.6-0.7,1.3-0.9,2c-0.2,0.8-0.3,1.5-0.3,2.3c0,0.8,0.1,1.5,0.3,2.3c0.2,0.7,0.5,1.4,0.9,2
				c0.4,0.6,0.9,1,1.6,1.4c0.6,0.3,1.4,0.5,2.3,0.5C36.3,36.3,37,36.1,37.6,35.8"/>
		</defs>
		<clipPath id="SVGID_8_">
			<use xlink:href="#SVGID_13_"  style="overflow:visible;"/>
		</clipPath>
		<g style="clip-path:url(#SVGID_8_);">
			<defs>
				<rect id="SVGID_16_" x="0.1" y="16.6" width="119.9" height="27.6"/>
			</defs>
			<clipPath id="SVGID_10_">
				<use xlink:href="#SVGID_16_"  style="overflow:visible;"/>
			</clipPath>
			<rect x="25.1" y="18.8" style="clip-path:url(#SVGID_10_);fill:#FF8436;" width="20.5" height="28.7"/>
		</g>
	</g>
	<g>
		<defs>
			<path id="SVGID_18_" d="M47.7,16.7v8.6h0.1c0.4-0.9,1-1.7,1.9-2.3c0.9-0.6,1.9-0.9,3-0.9c1.1,0,2,0.1,2.7,0.4
				c0.7,0.3,1.3,0.7,1.7,1.2c0.4,0.5,0.7,1.1,0.9,1.9c0.2,0.7,0.3,1.6,0.3,2.5v9.9h-1.9v-9.6c0-0.7-0.1-1.3-0.2-1.8
				c-0.1-0.6-0.3-1.1-0.6-1.5c-0.3-0.4-0.7-0.7-1.2-1c-0.5-0.2-1.1-0.4-1.9-0.4c-0.8,0-1.4,0.1-2,0.4c-0.6,0.3-1.1,0.6-1.5,1.1
				c-0.4,0.5-0.7,1-1,1.7c-0.2,0.6-0.4,1.3-0.4,2.1v9h-1.9V16.7H47.7z"/>
		</defs>
		<clipPath id="SVGID_12_">
			<use xlink:href="#SVGID_18_"  style="overflow:visible;"/>
		</clipPath>
		<g style="clip-path:url(#SVGID_12_);">
			<defs>
				<rect id="SVGID_21_" x="0.1" y="16.6" width="119.9" height="27.6"/>
			</defs>
			<clipPath id="SVGID_14_">
				<use xlink:href="#SVGID_21_"  style="overflow:visible;"/>
			</clipPath>
			<rect x="42.5" y="13.4" style="clip-path:url(#SVGID_14_);fill:#FF8436;" width="19.2" height="28.1"/>
		</g>
	</g>
	<g>
		<defs>
			<path id="SVGID_23_" d="M68,22.6v1.6h-3.1v10.4c0,0.6,0.1,1.1,0.3,1.4c0.2,0.3,0.6,0.5,1.3,0.6c0.5,0,1.1,0,1.6-0.1v1.6
				c-0.3,0-0.6,0-0.8,0c-0.3,0-0.6,0-0.8,0c-1.3,0-2.1-0.2-2.6-0.7C63.2,37,63,36.1,63,34.8V24.2h-2.7v-1.6H63V18h1.9v4.6H68z"/>
		</defs>
		<clipPath id="SVGID_17_">
			<use xlink:href="#SVGID_23_"  style="overflow:visible;"/>
		</clipPath>
		<g style="clip-path:url(#SVGID_17_);">
			<defs>
				<rect id="SVGID_25_" x="0.1" y="16.6" width="119.9" height="27.6"/>
			</defs>
			<clipPath id="SVGID_19_">
				<use xlink:href="#SVGID_25_"  style="overflow:visible;"/>
			</clipPath>
			<rect x="57" y="14.6" style="clip-path:url(#SVGID_19_);fill:#FF8436;" width="14.4" height="26.9"/>
		</g>
	</g>
	<g>
		<defs>
			<path id="SVGID_27_" d="M74.8,16.7v7.8h0.1c0.5-0.8,1.2-1.4,2.1-1.7c0.9-0.4,1.8-0.6,2.8-0.6c0.8,0,1.5,0.2,2.3,0.5
				c0.8,0.3,1.4,0.8,2,1.5c0.6,0.7,1.1,1.5,1.5,2.5c0.4,1,0.6,2.2,0.6,3.7c0,1.4-0.2,2.6-0.6,3.7c-0.4,1-0.9,1.9-1.5,2.5
				c-0.6,0.7-1.3,1.1-2,1.5c-0.8,0.3-1.5,0.5-2.3,0.5c-1.1,0-2.1-0.2-3-0.5s-1.6-1-2-1.8h-0.1v2h-4V16.7H74.8z M81.7,28.5
				c-0.1-0.6-0.4-1.1-0.7-1.6c-0.3-0.5-0.7-0.8-1.1-1.1c-0.4-0.3-1-0.4-1.6-0.4c-0.6,0-1.2,0.1-1.6,0.4c-0.5,0.3-0.8,0.6-1.1,1.1
				c-0.3,0.5-0.5,1-0.7,1.6c-0.1,0.6-0.2,1.2-0.2,1.9c0,0.6,0.1,1.3,0.2,1.9c0.1,0.6,0.4,1.1,0.7,1.6c0.3,0.5,0.7,0.8,1.1,1.1
				c0.5,0.3,1,0.4,1.6,0.4c0.6,0,1.2-0.1,1.6-0.4c0.4-0.3,0.8-0.6,1.1-1.1c0.3-0.5,0.5-1,0.7-1.6c0.1-0.6,0.2-1.2,0.2-1.9
				C81.9,29.7,81.8,29.1,81.7,28.5z"/>
		</defs>
		<clipPath id="SVGID_22_">
			<use xlink:href="#SVGID_27_"  style="overflow:visible;"/>
		</clipPath>
		<g style="clip-path:url(#SVGID_22_);">
			<defs>
				<rect id="SVGID_29_" x="0.1" y="16.6" width="119.9" height="27.6"/>
			</defs>
			<clipPath id="SVGID_24_">
				<use xlink:href="#SVGID_29_"  style="overflow:visible;"/>
			</clipPath>
			<rect x="67.2" y="13.4" style="clip-path:url(#SVGID_24_);fill:#FF8436;" width="22.3" height="28.5"/>
		</g>
	</g>
	<g>
		<defs>
			<path id="SVGID_31_" d="M88.6,27.4c0.1-1,0.3-1.8,0.7-2.5c0.4-0.7,1-1.2,1.7-1.6c0.7-0.4,1.4-0.7,2.3-0.9
				c0.8-0.2,1.7-0.3,2.6-0.3c0.8,0,1.6,0.1,2.4,0.2c0.8,0.1,1.5,0.3,2.2,0.6c0.7,0.3,1.2,0.8,1.6,1.3c0.4,0.6,0.6,1.3,0.6,2.3v8
				c0,0.7,0,1.4,0.1,2c0.1,0.6,0.2,1.1,0.4,1.4h-4.3c-0.1-0.2-0.1-0.5-0.2-0.7c-0.1-0.2-0.1-0.5-0.1-0.8c-0.7,0.7-1.5,1.2-2.4,1.5
				c-0.9,0.3-1.9,0.4-2.8,0.4c-0.7,0-1.4-0.1-2.1-0.3c-0.6-0.2-1.2-0.5-1.7-0.8c-0.5-0.4-0.9-0.9-1.1-1.4c-0.3-0.6-0.4-1.3-0.4-2.1
				c0-0.9,0.2-1.6,0.5-2.2c0.3-0.6,0.7-1,1.2-1.4c0.5-0.3,1-0.6,1.7-0.8c0.6-0.2,1.3-0.3,1.9-0.4c0.6-0.1,1.3-0.2,1.9-0.2
				c0.6-0.1,1.2-0.1,1.6-0.3c0.5-0.1,0.9-0.3,1.1-0.5c0.3-0.2,0.4-0.6,0.4-1c0-0.5-0.1-0.8-0.2-1.1c-0.1-0.3-0.3-0.5-0.6-0.6
				c-0.2-0.1-0.5-0.2-0.9-0.3c-0.3,0-0.7-0.1-1.1-0.1c-0.8,0-1.5,0.2-2,0.5c-0.5,0.4-0.8,1-0.8,1.8H88.6z M98.4,30.5
				c-0.2,0.2-0.4,0.3-0.7,0.4c-0.3,0.1-0.6,0.2-0.9,0.2c-0.3,0.1-0.6,0.1-1,0.1c-0.3,0-0.7,0.1-1,0.1c-0.3,0.1-0.6,0.1-0.9,0.2
				c-0.3,0.1-0.6,0.2-0.8,0.4c-0.2,0.2-0.4,0.4-0.6,0.6c-0.1,0.3-0.2,0.6-0.2,1c0,0.4,0.1,0.7,0.2,1c0.1,0.3,0.3,0.5,0.6,0.6
				c0.2,0.1,0.5,0.3,0.8,0.3c0.3,0.1,0.6,0.1,1,0.1c0.8,0,1.5-0.1,1.9-0.4c0.5-0.3,0.8-0.6,1-1c0.2-0.4,0.4-0.8,0.4-1.2
				c0-0.4,0.1-0.7,0.1-1V30.5z"/>
		</defs>
		<clipPath id="SVGID_26_">
			<use xlink:href="#SVGID_31_"  style="overflow:visible;"/>
		</clipPath>
		<g style="clip-path:url(#SVGID_26_);">
			<defs>
				<rect id="SVGID_33_" x="0.1" y="16.6" width="119.9" height="27.6"/>
			</defs>
			<clipPath id="SVGID_28_">
				<use xlink:href="#SVGID_33_"  style="overflow:visible;"/>
			</clipPath>
			<rect x="84.8" y="18.8" style="clip-path:url(#SVGID_28_);fill:#FF8436;" width="21.8" height="23"/>
		</g>
	</g>
	<g>
		<defs>
			<path id="SVGID_35_" d="M111.6,42.7c-0.8,0.5-2,0.8-3.4,0.8c-0.4,0-0.9,0-1.3,0c-0.4,0-0.9-0.1-1.3-0.1v-3.5
				c0.4,0,0.8,0.1,1.2,0.1c0.4,0,0.8,0,1.3,0c0.6-0.1,1-0.3,1.2-0.7c0.3-0.4,0.4-0.8,0.4-1.3c0-0.3-0.1-0.7-0.2-1l-5.4-14.5h4.5
				l3.5,10.6h0.1l3.4-10.6h4.4L113.5,40C113.1,41.2,112.5,42.1,111.6,42.7"/>
		</defs>
		<clipPath id="SVGID_30_">
			<use xlink:href="#SVGID_35_"  style="overflow:visible;"/>
		</clipPath>
		<g style="clip-path:url(#SVGID_30_);">
			<defs>
				<rect id="SVGID_37_" x="0.1" y="16.6" width="119.9" height="27.6"/>
			</defs>
			<clipPath id="SVGID_32_">
				<use xlink:href="#SVGID_37_"  style="overflow:visible;"/>
			</clipPath>
			<rect x="100.8" y="19.2" style="clip-path:url(#SVGID_32_);fill:#FF8436;" width="22.6" height="27.6"/>
		</g>
	</g>
</g>
</svg>
