<?xml version="1.0" encoding="utf-8"?>
<!-- Generator: Adobe Illustrator 19.0.0, SVG Export Plug-In . SVG Version: 6.00 Build 0)  -->
<svg version="1.1" id="Layer_1" xmlns:sketch="http://www.bohemiancoding.com/sketch/ns"
	 xmlns="http://www.w3.org/2000/svg" xmlns:xlink="http://www.w3.org/1999/xlink" x="0px" y="0px" width="40px" height="40px"
	 viewBox="-1397 451.9 40 40" style="enable-background:new -1397 451.9 40 40;" xml:space="preserve">
<style type="text/css">
	.st0{fill:#313133;stroke:#313133;stroke-width:2;}
	.st1{fill:#A8DC28;}
</style>
<title>your-details-icon</title>
<desc>Created with Sketch.</desc>
<g id="Mask" sketch:type="MSShapeGroup">
	<circle id="path-1_1_" class="st0" cx="-1377" cy="471.9" r="18"/>
</g>
<g>
	<path class="st1" d="M-1377.8,473.6c0.9,0.9,2.5,0.9,3.4,0l12.1-12.1c-0.9-1.3-2-2.5-3.3-3.5l-12.2,12.2
		C-1378.8,471.1-1378.8,472.6-1377.8,473.6z"/>
	<path class="st1" d="M-1381.3,466.8c-0.5,0.5-0.5,1.2,0,1.7c0.5,0.5,1.2,0.5,1.7,0l11.9-11.9c-0.7-0.4-1.5-0.8-2.2-1.2
		L-1381.3,466.8z"/>
	<path class="st1" d="M-1374.4,478.7c-0.6-0.6-0.9-1.3-1-2.1c-0.2,0-0.5,0.1-0.7,0.1c-1.3,0-2.5-0.5-3.4-1.4
		c-0.9-0.9-1.4-2.1-1.4-3.4c0-0.2,0-0.5,0.1-0.7c-0.8-0.1-1.5-0.4-2.1-1c-0.1-0.1-0.1-0.1-0.1-0.2l-2.9,11.8l11.8-2.9
		C-1374.3,478.8-1374.4,478.7-1374.4,478.7z"/>
	<path class="st1" d="M-1361.1,463.6l-11.6,11.6c-0.5,0.5-0.5,1.2,0,1.7c0.5,0.5,1.2,0.5,1.7,0l11-11
		C-1360.3,465.2-1360.7,464.4-1361.1,463.6z"/>
</g>
</svg>
