<svg xmlns:sketch="http://www.bohemiancoding.com/sketch/ns" xmlns="http://www.w3.org/2000/svg" xmlns:xlink="http://www.w3.org/1999/xlink" version="1.1" id="Layer_1" x="0" y="0" width="227" height="100" viewBox="0 0 227 100" xml:space="preserve" enable-background="new 0 0 227 100">
  <style type="text/css">
    
	.st0{fill:#F9F9F9;stroke:#F4F2F2;}
	.st1{fill:#FBB231;}
	.st2{fill:#EC1C2E;}
	.st3{fill:#FFFFFF;}
	.st4{fill:none;stroke:#FFFFFF;stroke-width:0.216;}
	.st5{fill:#0066B2;}
	.st6{fill:#F9A533;}
	.st7{enable-background:new    ;}
	.st8{fill:#175FA0;}
	.st9{fill:#045EA0;}
	.st10{fill:#FAA929;}
	.st11{fill:#F9F9F9;stroke:#F3F2F2;}
	.st12{fill:#0084C4;}
	.st13{fill:none;stroke:#FFFFFF;stroke-width:0.215;}

  </style>
  <title>
    credit cards desktop
  </title>
  <desc>
    Created with Sketch.
  </desc>
  <g id="PAA" sketch:type="MSPage">
    <g id="Desktop-HD-For-sale-2" transform="translate(-437.000000, -1130.000000)" sketch:type="MSArtboardGroup">
      <g id="Payment-options" transform="translate(-1.000000, 296.000000)" sketch:type="MSLayerGroup">
        <g id="pay-now-with:" transform="translate(401.000000, 719.000000)">
          <g id="credit-cards" transform="translate(0.000000, 91.000000)">
            <g id="credit-cards-desktop" transform="translate(38.000000, 25.000000)">
              <g id="Mastercard" transform="translate(38.021301, 53.152542)" sketch:type="MSShapeGroup">
                <path id="Fill-1" class="st0" d="M68.5 41.2c0 1.3-1 2.3-2.3 2.3H2.1c-1.3 0-2.3-1-2.3-2.3V2.1c0-1.3 1-2.3 2.3-2.3h64.2c1.3 0 2.3 1 2.3 2.3V41.2"/>
                <path id="Fill-2" class="st1" d="M42.4 33.6l0.6 0 0.6 0 0.6-0.1 0.6-0.1 0.6-0.1 0.6-0.2 0.6-0.2 0.6-0.2 0.5-0.2 0.5-0.3 0.5-0.3 0.5-0.3 0.5-0.3 0.5-0.4 0.4-0.4 0.4-0.4 0.4-0.4 0.4-0.4 0.4-0.5 0.3-0.5 0.3-0.5 0.3-0.5 0.3-0.5 0.2-0.5 0.2-0.6 0.2-0.6 0.2-0.6 0.1-0.6 0.1-0.6 0.1-0.6 0-0.6 0-0.6 0-0.6 0-0.6 -0.1-0.6 -0.1-0.6 -0.1-0.6 -0.2-0.6L54 17l-0.2-0.6 -0.2-0.5 -0.3-0.5L53 14.9l-0.3-0.5 -0.3-0.5 -0.4-0.5L51.6 13l-0.4-0.4 -0.4-0.4 -0.4-0.4 -0.5-0.4 -0.5-0.3 -0.5-0.3 -0.5-0.3 -0.5-0.3 -0.5-0.3 -0.6-0.2 -0.6-0.2 -0.6-0.2 -0.6-0.1 -0.6-0.1L43.7 9 43 9l-0.6 0 -0.6 0 -0.6 0 -0.6 0.1 -0.6 0.1 -0.6 0.1 -0.6 0.2 -0.6 0.2 -0.6 0.2 -0.5 0.3 -0.5 0.3L36 10.7l-0.5 0.3L35 11.4l-0.5 0.4 -0.4 0.4 -0.4 0.4L33.3 13l-0.4 0.4 -0.4 0.5 -0.3 0.5 -0.3 0.5 -0.3 0.5 -0.3 0.5 -0.2 0.5L30.8 17l-0.2 0.6 -0.2 0.6 -0.1 0.6 -0.1 0.6L30.2 20l0 0.6 0 0.6 0 0.6 0 0.6 0.1 0.6 0.1 0.6 0.1 0.6 0.2 0.6 0.2 0.6 0.2 0.6 0.2 0.5 0.3 0.5 0.3 0.5 0.3 0.5 0.3 0.5 0.4 0.5 0.4 0.4 0.4 0.4 0.4 0.4 0.4 0.4 0.5 0.4 0.5 0.3 0.5 0.3 0.5 0.3 0.5 0.3 0.5 0.2 0.6 0.2 0.6 0.2 0.6 0.2 0.6 0.1 0.6 0.1 0.6 0.1 0.6 0L42.4 33.6"/>
                <path id="Fill-3" class="st2" d="M25.9 33.6l0.6 0 0.6 0 0.6-0.1 0.6-0.1 0.6-0.1 0.6-0.2 0.6-0.2 0.6-0.2 0.5-0.2 0.5-0.3 0.5-0.3 0.5-0.3 0.5-0.3 0.5-0.4 0.4-0.4 0.4-0.4 0.4-0.4 0.4-0.4 0.4-0.5 0.3-0.5 0.3-0.5 0.3-0.5 0.3-0.5 0.2-0.5 0.2-0.6 0.2-0.6 0.2-0.6 0.1-0.6 0.1-0.6 0.1-0.6 0-0.6 0-0.6 0-0.6 0-0.6 -0.1-0.6L38 18.8l-0.1-0.6 -0.2-0.6L37.5 17l-0.2-0.6L37 15.9l-0.3-0.5 -0.3-0.5 -0.3-0.5 -0.3-0.5 -0.4-0.5L35 13l-0.4-0.4 -0.4-0.4 -0.4-0.4 -0.5-0.4 -0.5-0.3 -0.5-0.3 -0.5-0.3 -0.5-0.3 -0.5-0.3 -0.6-0.2 -0.6-0.2L29 9.3l-0.6-0.1 -0.6-0.1L27.2 9l-0.6 0 -0.6 0 -0.6 0 -0.6 0L24 9.1l-0.6 0.1 -0.6 0.1 -0.6 0.2 -0.6 0.2 -0.6 0.2 -0.5 0.3L20 10.4l-0.5 0.3L19 11.1l-0.5 0.3L18 11.8l-0.4 0.4 -0.4 0.4L16.8 13l-0.4 0.4L16 13.9l-0.3 0.5 -0.3 0.5L15 15.4l-0.3 0.5 -0.3 0.5L14.3 17l-0.2 0.6 -0.2 0.6 -0.1 0.6 -0.1 0.6L13.6 20l0 0.6 0 0.6 0 0.6 0 0.6 0.1 0.6 0.1 0.6 0.1 0.6 0.2 0.6 0.2 0.6 0.2 0.6 0.3 0.5 0.3 0.5 0.3 0.5 0.3 0.5 0.3 0.5 0.4 0.5 0.4 0.4 0.4 0.4 0.4 0.4 0.4 0.4 0.5 0.4 0.5 0.3 0.5 0.3 0.5 0.3 0.5 0.3 0.5 0.2 0.6 0.2 0.6 0.2 0.6 0.2 0.6 0.1 0.6 0.1 0.6 0.1 0.6 0L25.9 33.6"/>
                <path id="Fill-4" class="st1" d="M32.7 13.7h6.6V13h-6L32.7 13.7"/>
                <path id="Fill-5" class="st1" d="M31.7 15.2h7.5v-0.7h-7.1L31.7 15.2"/>
                <path id="Fill-6" class="st1" d="M31 16.7h8.3V16h-8L31 16.7"/>
                <path id="Fill-7" class="st1" d="M30.5 18.1h8.8v-0.7h-8.6L30.5 18.1"/>
                <path id="Fill-8" class="st1" d="M30.8 25.3h8.5v-0.7h-8.7L30.8 25.3"/>
                <path id="Fill-9" class="st1" d="M31.4 26.8h7.9v-0.7h-8.2L31.4 26.8"/>
                <path id="Fill-10" class="st1" d="M32.3 28.3h7v-0.7h-7.4L32.3 28.3"/>
                <path id="Fill-11" class="st1" d="M33.5 29.8h5.8v-0.7h-6.4L33.5 29.8"/>
                <path id="Fill-12" class="st1" d="M30.2 19.6h9.1V19h-8.9L30.2 19.6"/>
                <path id="Fill-13" class="st1" d="M35.7 23.9h3.5v-0.7h-3.3L35.7 23.9"/>
                <path id="Fill-14" class="st1" d="M36 22.4h3.2v-0.7h-3.1L36 22.4"/>
                <path id="Fill-15" class="st1" d="M30 21.7h0.9v0.7H30L30 21.7"/>
                <path id="Fill-16" class="st3" d="M28.3 20.9L28.3 20.9l-0.1 0 -0.1 0 -0.1 0 -0.1 0 -0.1 0 -0.1 0 -0.1 0 -0.1 0 -0.1 0 -0.1 0 -0.1 0h-0.1l-0.1 0 -0.1 0 -0.1 0 -0.1 0 -0.1 0 -0.1 0 -0.1 0 -0.1 0 -0.1 0 0 0 0 0 0 0 0 0 0 0v0.1l0 0.1 0 0.1 0 0.1 0 0.1 0.1 0.1 0.1 0.1 0.1 0.1 0.1 0 0.1 0 0.1 0 0.1 0.1 0.1 0.1 0.1 0.1 0.1 0.1 0.1 0.1 0.1 0.1 0.1 0.2 0 0.2 0 0.2 0 0.3 0 0.2 0 0.2 -0.1 0.2L28 23.8l-0.1 0.1L27.8 24l-0.1 0.1 -0.1 0.1 -0.1 0.1 -0.1 0.1 -0.1 0 -0.1 0 -0.1 0 -0.1 0 -0.1 0 -0.1 0h-0.2l-0.2 0H26l-0.1 0 -0.1 0 -0.1 0 -0.1 0 -0.1 0 -0.1 0 -0.1 0 -0.1 0 -0.1 0 -0.1 0 -0.1 0 -0.1 0 -0.1 0 0.2-0.9 0 0 0 0 0.1 0 0.1 0 0.1 0 0.1 0 0.1 0 0.1 0 0.1 0 0.1 0 0.1 0 0.1 0 0.1 0 0.1 0h0.1l0.1 0 0.1 0 0.1 0 0.1 0 0.1-0.1 0-0.1 0-0.1 0-0.1 0-0.1 0-0.1 0-0.1 -0.1-0.1 -0.1-0.1 -0.1-0.1 -0.1-0.1 -0.2-0.1 -0.2-0.1L26 22.4l-0.2-0.1 -0.1-0.1L25.5 22l-0.1-0.2 -0.1-0.2 0-0.2 0-0.3 0-0.2 0-0.2 0-0.1 0-0.1 0.1-0.1 0.1-0.1 0.1-0.1 0.1-0.1 0.1-0.1 0.1-0.1 0.1-0.1 0.2 0 0.2 0 0.2 0 0.2 0 0.2 0h0.2l0.1 0 0.1 0 0.1 0 0.1 0 0.1 0 0.1 0 0.1 0 0.1 0 0.1 0 0.1 0 0.1 0 0 0 0 0 0 0 0 0L28.3 20.9"/>
                <path id="Stroke-17" class="st4" d="M28.3 20.9L28.3 20.9 28.3 20.9l-0.1 0 -0.1 0 -0.1 0 -0.1 0 -0.1 0 -0.1 0 -0.1 0 -0.1 0 -0.1 0 -0.1 0 -0.1 0h-0.1l-0.1 0 -0.1 0 -0.1 0 -0.1 0 -0.1 0 -0.1 0 -0.1 0 -0.1 0 -0.1 0 0 0 0 0 0 0 0 0 0 0v0.1l0 0.1 0 0.1 0 0.1 0 0.1 0.1 0.1 0.1 0.1 0.1 0.1 0.1 0 0.1 0 0.1 0 0.1 0.1 0.1 0.1 0.1 0.1 0.1 0.1 0.1 0.1 0.1 0.1 0.1 0.2 0 0.2 0 0.2 0 0.3 0 0.2 0 0.2 -0.1 0.2L28 23.8l-0.1 0.1L27.8 24l-0.1 0.1 -0.1 0.1 -0.1 0.1 -0.1 0.1 -0.1 0 -0.1 0 -0.1 0 -0.1 0 -0.1 0 -0.1 0h-0.2l-0.2 0H26l-0.1 0 -0.1 0 -0.1 0 -0.1 0 -0.1 0 -0.1 0 -0.1 0 -0.1 0 -0.1 0 -0.1 0 -0.1 0 -0.1 0 -0.1 0 0.2-0.9 0 0 0 0 0.1 0 0.1 0 0.1 0 0.1 0 0.1 0 0.1 0 0.1 0 0.1 0 0.1 0 0.1 0 0.1 0 0.1 0h0.1l0.1 0 0.1 0 0.1 0 0.1 0 0.1-0.1 0-0.1 0-0.1 0-0.1 0-0.1 0-0.1 0-0.1 -0.1-0.1 -0.1-0.1 -0.1-0.1 -0.1-0.1 -0.2-0.1 -0.2-0.1L26 22.4l-0.2-0.1 -0.1-0.1L25.5 22l-0.1-0.2 -0.1-0.2 0-0.2 0-0.3 0-0.2 0-0.2 0-0.1 0-0.1 0.1-0.1 0.1-0.1 0.1-0.1 0.1-0.1 0.1-0.1 0.1-0.1 0.1-0.1 0.2 0 0.2 0 0.2 0 0.2 0 0.2 0h0.2l0.1 0 0.1 0 0.1 0 0.1 0 0.1 0 0.1 0 0.1 0 0.1 0 0.1 0 0.1 0 0.1 0 0 0 0 0 0 0 0 0L28.3 20.9"/>
                <path id="Fill-18" class="st3" d="M29.3 18.9h1.2l-0.2 1H31l-0.1 0.9 -0.7 0 -0.4 2.3 0 0.1 0 0.1 0 0.1 0.1 0 0.1 0 0.1 0 0.1 0 0.1 0 0.1 0 0.1 0 0.1 0 0.1 0 0.1 0 0 0 0 0 0 0 -0.1 0.8 0 0 0 0 0 0 0 0 0 0 0 0 0 0 0 0 0 0 0 0 0 0 0 0 -0.1 0 -0.1 0 -0.1 0 -0.1 0h-0.3l-0.2 0 -0.1 0 -0.1 0 -0.1 0 -0.1 0 -0.1 0 -0.1-0.1 -0.1-0.1 0-0.1 0-0.1 0-0.1 0-0.1 0-0.1v-0.1l0-0.1 0-0.1L29.3 18.9"/>
                <path id="Stroke-19" class="st4" d="M29.3 18.9h1.2l-0.2 1H31l-0.1 0.9 -0.7 0 -0.4 2.3 0 0.1 0 0.1 0 0.1 0.1 0 0.1 0 0.1 0 0.1 0 0.1 0 0.1 0 0.1 0 0.1 0 0.1 0 0.1 0 0 0 0 0 0 0 -0.1 0.8 0 0 0 0 0 0 0 0 0 0 0 0 0 0 0 0 0 0 0 0 0 0 0 0 -0.1 0 -0.1 0 -0.1 0 -0.1 0h-0.3l-0.2 0 -0.1 0 -0.1 0 -0.1 0 -0.1 0 -0.1 0 -0.1-0.1 -0.1-0.1 0-0.1 0-0.1 0-0.1 0-0.1 0-0.1v-0.1l0-0.1 0-0.1L29.3 18.9M31.9 22.4L31.9 22.4 31.9 22.4l0 0.1 0 0.1 0 0.1 0 0.1 0 0.1 0 0.1 0 0.1 0.1 0.1 0.1 0.1 0.1 0.1 0.1 0 0.1 0 0.1 0 0.1 0 0.1 0 0.1 0 0.1 0 0.1 0 0.1 0 0.1 0h0.1l0.1 0 0.1 0 0.1 0 0.1 0 0.1 0 0.1 0 0.1 0 0.1-0.1 0.1-0.1 0.1-0.1 -0.2 1 -0.1 0 -0.1 0 -0.1 0 -0.1 0 -0.1 0 -0.1 0 -0.1 0 -0.1 0 -0.1 0 -0.1 0 -0.1 0 -0.1 0 -0.1 0h-0.1l-0.1 0h-0.1l-0.2 0 -0.2 0 -0.2 0 -0.2-0.1 -0.2-0.1 -0.2-0.1L31.5 24l-0.2-0.1 -0.2-0.1L31 23.6l-0.1-0.2 -0.1-0.2 -0.1-0.2 0-0.3 0-0.3 0-0.3 0-0.1 0-0.2 0-0.2 0-0.2 0.1-0.2 0.1-0.2 0.1-0.2 0.1-0.2 0.1-0.2 0.2-0.2 0.2-0.1 0.2-0.1 0.2-0.1 0.3-0.1 0.3 0 0.3 0 0.2 0 0.2 0 0.2 0 0.2 0 0.2 0.1 0.2 0.1 0.2 0.1 0.1 0.1 0.1 0.1 0.1 0.2 0.1 0.2 0.1 0.2 0 0.2 0 0.3 0 0.3 -0.1 0.4 0 0.3h-3l0.2-0.8h1.8l0-0.1 0-0.1 0-0.1 0-0.1 0-0.1 0-0.1 0-0.1 0-0.1 0 0 -0.1 0 -0.1 0 -0.1 0 -0.1 0 -0.1 0 -0.1 0 -0.1 0 -0.1 0 -0.1 0 -0.1 0 -0.1 0 -0.1 0 -0.1 0 -0.1 0 -0.1 0L32.3 21l0 0.1 0 0.1 0 0.1 0 0.1 0 0.1 0 0.1L31.9 22.4"/>
                <path id="Fill-20" class="st3" d="M41.8 20.2L41.8 20.2l-0.1-0.1 -0.1 0 -0.1 0 -0.1 0 -0.1 0 -0.1 0 -0.1 0 -0.1 0 -0.1 0 -0.1 0 -0.1 0 -0.1 0 -0.1 0h-0.3l-0.1 0 -0.1 0 -0.1 0L40 20l-0.1 0 -0.1 0.1 -0.1 0.1 -0.1 0.1 -0.1 0.1 -0.1 0.1 -0.1 0.2 -0.1 0.2L39.1 21 39 21.2l-0.1 0.3 0 0.1 0 0.1 0 0.1 0 0.1 0 0.1 0 0.1 0 0.1 0 0.1 0.1 0.1 0.1 0.1 0.1 0.1 0.1 0.1 0.1 0.1 0.1 0.1 0.1 0.1 0.2 0 0.1 0 0.1 0 0.1 0 0.1 0 0.1 0h0.2l0.1 0 0.1 0 0.1 0 0.1 0 0.1 0 0.1 0 0.1-0.1 0.1-0.1 0.1-0.1 -0.2 1.1 0 0 0 0 0 0 0 0 0 0 -0.1 0 -0.1 0 -0.1 0 -0.1 0 -0.1 0 -0.1 0 -0.1 0 -0.2 0 -0.2 0 -0.2 0 -0.2 0 -0.2 0 -0.2 0 -0.2-0.1 -0.2-0.1 -0.2-0.1 -0.2-0.1 -0.2-0.1 -0.2-0.2 -0.1-0.2 -0.1-0.2L37.7 23l-0.1-0.3 0-0.3 0-0.3 0-0.3 0-0.3 0-0.2 0-0.2 0-0.2 0-0.2 0-0.1 0.1-0.1 0.1-0.1 0.1-0.1 0.1-0.1 0.1-0.1 0.1-0.1 0.1-0.1 0.1-0.1 0.1-0.1 0.1-0.1 0.1-0.1 0.1-0.1 0.1-0.1 0.1-0.1 0.1-0.1 0.1-0.1 0.1-0.1 0.1-0.1 0.1 0 0.1 0 0.1 0 0.1 0 0.1 0 0.1 0 0.1 0 0.1 0 0.2 0 0.1 0 0.1 0 0.1 0 0.1 0 0.1 0 0.1 0 0.1 0 0.1 0 0.1 0 0.1 0 0.1 0 0.1 0 0.1 0 0 0 0 0 0 0L41.8 20.2"/>
                <path id="Stroke-21" class="st4" d="M41.8 20.2L41.8 20.2 41.8 20.2l-0.1-0.1 -0.1 0 -0.1 0 -0.1 0 -0.1 0 -0.1 0 -0.1 0 -0.1 0 -0.1 0 -0.1 0 -0.1 0 -0.1 0 -0.1 0h-0.3l-0.1 0 -0.1 0 -0.1 0L40 20l-0.1 0 -0.1 0.1 -0.1 0.1 -0.1 0.1 -0.1 0.1 -0.1 0.1 -0.1 0.2 -0.1 0.2L39.1 21 39 21.2l-0.1 0.3 0 0.1 0 0.1 0 0.1 0 0.1 0 0.1 0 0.1 0 0.1 0 0.1 0.1 0.1 0.1 0.1 0.1 0.1 0.1 0.1 0.1 0.1 0.1 0.1 0.1 0.1 0.2 0 0.1 0 0.1 0 0.1 0 0.1 0 0.1 0h0.2l0.1 0 0.1 0 0.1 0 0.1 0 0.1 0 0.1 0 0.1-0.1 0.1-0.1 0.1-0.1 -0.2 1.1 0 0 0 0 0 0 0 0 0 0 -0.1 0 -0.1 0 -0.1 0 -0.1 0 -0.1 0 -0.1 0 -0.1 0 -0.2 0 -0.2 0 -0.2 0 -0.2 0 -0.2 0 -0.2 0 -0.2-0.1 -0.2-0.1 -0.2-0.1 -0.2-0.1 -0.2-0.1 -0.2-0.2 -0.1-0.2 -0.1-0.2L37.7 23l-0.1-0.3 0-0.3 0-0.3 0-0.3 0-0.3 0-0.2 0-0.2 0-0.2 0-0.2 0-0.1 0.1-0.1 0.1-0.1 0.1-0.1 0.1-0.1 0.1-0.1 0.1-0.1 0.1-0.1 0.1-0.1 0.1-0.1 0.1-0.1 0.1-0.1 0.1-0.1 0.1-0.1 0.1-0.1 0.1-0.1 0.1-0.1 0.1-0.1 0.1-0.1 0.1 0 0.1 0 0.1 0 0.1 0 0.1 0 0.1 0 0.1 0 0.1 0 0.2 0 0.1 0 0.1 0 0.1 0 0.1 0 0.1 0 0.1 0 0.1 0 0.1 0 0.1 0 0.1 0 0.1 0 0.1 0 0.1 0 0 0 0 0 0 0L41.8 20.2"/>
                <path id="Fill-22" class="st3" d="M52 24.4h-1.2l0.1-0.5v0L50.9 24 50.8 24l-0.1 0.1 -0.1 0.1 -0.1 0.1 -0.1 0 -0.1 0 -0.1 0 -0.1 0 -0.1 0 -0.1 0 -0.1 0 -0.1 0 -0.1 0 -0.1 0h-0.1l-0.2 0 -0.2 0 -0.2-0.1L49 24.2l-0.1-0.1L48.7 24l-0.1-0.2 -0.1-0.2 -0.1-0.2 -0.1-0.2 0-0.2 0-0.2 0-0.2 0-0.2 0-0.2 0-0.2 0.1-0.2 0.1-0.2 0.1-0.2 0.1-0.2 0.1-0.2 0.1-0.2 0.1-0.1 0.1-0.1 0.1-0.1 0.2-0.1 0.2-0.1 0.2-0.1 0.2-0.1 0.2 0 0.2 0 0.2 0 0.1 0 0.1 0 0.1 0 0.1 0 0.1 0 0.1 0 0.1 0 0.1 0 0.1 0 0.1 0.1 0.1 0.1 0 0.1 0 0.1 0 0.1 0 0.1 0 0 0.3-1.6H53L52 24.4"/>
                <path id="Stroke-23" class="st4" d="M52 24.4h-1.2l0.1-0.5v0L50.9 24 50.8 24l-0.1 0.1 -0.1 0.1 -0.1 0.1 -0.1 0 -0.1 0 -0.1 0 -0.1 0 -0.1 0 -0.1 0 -0.1 0 -0.1 0 -0.1 0 -0.1 0h-0.1l-0.2 0 -0.2 0 -0.2-0.1L49 24.2l-0.1-0.1L48.7 24l-0.1-0.2 -0.1-0.2 -0.1-0.2 -0.1-0.2 0-0.2 0-0.2 0-0.2 0-0.2 0-0.2 0-0.2 0.1-0.2 0.1-0.2 0.1-0.2 0.1-0.2 0.1-0.2 0.1-0.2 0.1-0.1 0.1-0.1 0.1-0.1 0.2-0.1 0.2-0.1 0.2-0.1 0.2-0.1 0.2 0 0.2 0 0.2 0 0.1 0 0.1 0 0.1 0 0.1 0 0.1 0 0.1 0 0.1 0 0.1 0 0.1 0 0.1 0.1 0.1 0.1 0 0.1 0 0.1 0 0.1 0 0.1 0 0 0.3-1.6H53L52 24.4"/>
                <path id="Fill-24" class="st1" d="M50.2 23.4l0.1 0 0.1 0 0.1 0 0.1 0 0.1 0 0.1-0.1 0.1-0.1 0.1-0.1 0.1-0.1 0.1-0.1 0.1-0.1 0-0.1 0-0.1 0-0.1 0-0.1 0-0.1 0-0.1 0-0.1v-0.1l0-0.1 0-0.1 0-0.1 0-0.1 0-0.1 0-0.1 0-0.1L51 21.1 51 21l-0.1 0 -0.1 0 -0.1 0 -0.1 0 -0.1 0 -0.1 0 -0.1 0 -0.1 0 -0.1 0.1 -0.1 0.1L50 21.2l-0.1 0.1 -0.1 0.1 -0.1 0.1 -0.1 0.1 0 0.1 0 0.1 0 0.1 0 0.1 0 0.1 0 0.2 0 0.2 0 0.2 0.1 0.2 0.1 0.2 0.1 0.1 0.1 0.1L50.2 23.4"/>
                <path id="Fill-25" class="st3" d="M24.6 23.5l-0.2 0.9h-1l0-0.2 0-0.2 0-0.1 0-0.1 -0.1 0.1L23.4 24l-0.1 0.1 -0.1 0.1 -0.1 0.1 -0.1 0 -0.1 0.1 -0.1 0 -0.1 0 -0.1 0 -0.1 0 -0.1 0 -0.1 0 -0.1 0 -0.1 0 -0.1 0 -0.1 0 -0.1 0 -0.1-0.1 -0.1-0.1 -0.1-0.1 -0.1-0.1L21.1 24 21 23.9l0-0.1 0-0.1 0-0.1 0-0.1 0-0.1 0-0.1 0-0.1v-0.1l0-0.2 0-0.2 0-0.1 0.1-0.1 0.1-0.1 0.1-0.1 0.1-0.1 0.1-0.1 0.1-0.1 0.1-0.1 0.1-0.1 0.1-0.1 0.1-0.1 0.1 0 0.1 0 0.1 0h0l0 0 0 0 0 0 0 0 0.1 0 0.1 0 0.1 0 0.1 0 0.1 0 0.1 0 0.1 0 0.1 0 0.1 0 0.1 0h0.1l0.1 0 0.1 0h0.1l0.1 0 0.1 0 0 0h0l0 0 0-0.1 0-0.1 0-0.1 0-0.1 0-0.1L23.7 21 23.6 21l-0.1-0.1 -0.1 0 -0.1 0 -0.1 0 -0.1 0 -0.1 0h-0.1l-0.1 0 -0.1 0 -0.1 0 -0.1 0 -0.1 0 -0.1 0 -0.1 0 -0.1 0 -0.1 0 -0.1 0 -0.1 0 -0.1 0 0 0 0.3-1 0.1 0 0.1 0 0.1 0 0.1 0 0.1 0 0.1 0 0.1 0 0.1 0 0.1 0 0.1 0 0.1 0h0.4l0.1 0 0.1 0 0.1 0 0.1 0 0.1 0 0.1 0 0.1 0.1 0.1 0.1 0.1 0.1 0.1 0.1 0.1 0.1 0.1 0.1 0.1 0.1 0.1 0.1 0 0.1 0 0.1v0.2l0 0.2L24.6 23.5"/>
                <path id="Stroke-26" class="st4" d="M24.6 23.5l-0.2 0.9h-1l0-0.2 0-0.2 0-0.1 0-0.1 -0.1 0.1L23.4 24l-0.1 0.1 -0.1 0.1 -0.1 0.1 -0.1 0 -0.1 0.1 -0.1 0 -0.1 0 -0.1 0 -0.1 0 -0.1 0 -0.1 0 -0.1 0 -0.1 0 -0.1 0 -0.1 0 -0.1 0 -0.1-0.1 -0.1-0.1 -0.1-0.1 -0.1-0.1L21.1 24 21 23.9l0-0.1 0-0.1 0-0.1 0-0.1 0-0.1 0-0.1 0-0.1v-0.1l0-0.2 0-0.2 0-0.1 0.1-0.1 0.1-0.1 0.1-0.1 0.1-0.1 0.1-0.1 0.1-0.1 0.1-0.1 0.1-0.1 0.1-0.1 0.1-0.1 0.1 0 0.1 0 0.1 0h0l0 0 0 0 0 0 0 0 0.1 0 0.1 0 0.1 0 0.1 0 0.1 0 0.1 0 0.1 0 0.1 0 0.1 0 0.1 0h0.1l0.1 0 0.1 0h0.1l0.1 0 0.1 0 0 0h0l0 0 0-0.1 0-0.1 0-0.1 0-0.1 0-0.1L23.7 21 23.6 21l-0.1-0.1 -0.1 0 -0.1 0 -0.1 0 -0.1 0 -0.1 0h-0.1l-0.1 0 -0.1 0 -0.1 0 -0.1 0 -0.1 0 -0.1 0 -0.1 0 -0.1 0 -0.1 0 -0.1 0 -0.1 0 -0.1 0 0 0 0.3-1 0.1 0 0.1 0 0.1 0 0.1 0 0.1 0 0.1 0 0.1 0 0.1 0 0.1 0 0.1 0 0.1 0h0.4l0.1 0 0.1 0 0.1 0 0.1 0 0.1 0 0.1 0 0.1 0.1 0.1 0.1 0.1 0.1 0.1 0.1 0.1 0.1 0.1 0.1 0.1 0.1 0.1 0.1 0 0.1 0 0.1v0.2l0 0.2L24.6 23.5"/>
                <path id="Fill-27" class="st2" d="M23.6 22.4L23.6 22.4 23.6 22.4 23.6 22.4 23.6 22.4l-0.1-0.1 -0.1 0h-0.1l-0.1 0 -0.1 0 -0.1 0 -0.1 0 -0.1 0 -0.1 0 0 0 0 0 0 0 0 0 0 0 0 0 -0.1 0 -0.1 0 -0.1 0 -0.1 0 -0.1 0 -0.1 0 0 0.1 0 0 0 0.1 0 0.1 0 0.1 0 0.1 0 0.1 0 0.1 0 0.1 0.1 0.1 0.1 0 0.1 0 0.1 0 0.1 0 0.1 0 0.1 0 0.1 0 0.1 0 0.1 0 0.1 0 0.1 0 0.1 0 0.1 0 0 0 0 0 0 0 0 0 0 0 0 0 0 0 0-0.1 0-0.1 0-0.1L23.6 22.4"/>
                <path id="Fill-28" class="st3" d="M15.9 24.4h-1.1l0.9-5.5h2l0.2 3.2 1.4-3.2h2.1l-1 5.5h-1.1l0.7-4.1h0l-1.7 4.1h-1.3l0-0.2 0-0.5 0-0.6L16.6 21l0-0.5 0-0.2h-0.1L15.9 24.4"/>
                <path id="Stroke-29" class="st4" d="M15.9 24.4h-1.1l0.9-5.5h2l0.2 3.2 1.4-3.2h2.1l-1 5.5h-1.1l0.7-4.1h0l-1.7 4.1h-1.3l0-0.2 0-0.5 0-0.6L16.6 21l0-0.5 0-0.2h-0.1L15.9 24.4"/>
                <path id="Fill-30" class="st3" d="M45.3 23.5l-0.2 0.9h-1l0-0.2 0-0.1V24l0 0L44 24 43.9 24l-0.1 0.1 -0.1 0.1 -0.1 0.1 -0.1 0 -0.1 0.1 -0.1 0 -0.1 0 -0.1 0 -0.1 0 -0.1 0 -0.1 0 -0.1 0 -0.1 0 -0.1 0 -0.1 0 -0.1 0 -0.1-0.1L42 24.2l-0.1-0.1 -0.1-0.1L41.7 24l-0.1-0.1 0-0.1 0-0.1 0-0.1 0-0.1 0-0.1 0-0.1 0-0.1v-0.1l0-0.2 0-0.2 0-0.1 0.1-0.1 0.1-0.1 0.1-0.1 0.1-0.1 0.1-0.1L42 22l0.1-0.1 0.1-0.1 0.1-0.1 0.1-0.1 0.1 0 0.1 0 0.1 0h0l0 0 0 0 0 0 0.1 0 0.1 0 0.1 0 0.1 0 0.1 0 0.1 0 0.1 0 0.1 0 0.1 0 0.1 0 0.1 0h0.1l0.1 0 0.1 0h0.1l0.1 0 0.1 0 0 0h0l0 0 0-0.1 0-0.1 0-0.1 0-0.1 0-0.1L44.3 21 44.3 21l-0.1-0.1 -0.1 0 -0.1 0 -0.1 0 -0.1 0 -0.1 0h-0.1l-0.1 0 -0.1 0 -0.1 0 -0.1 0 -0.1 0 -0.1 0 -0.1 0 -0.1 0 -0.1 0 -0.1 0 -0.1 0 -0.1 0 0 0 0.3-1 0.1 0 0.1 0 0.1 0 0.1 0 0.1 0 0.1 0 0.1 0 0.1 0 0.1 0 0.1 0 0.1 0H44l0.1 0 0.1 0 0.1 0 0.1 0 0.1 0 0.1 0 0.1 0.1 0.1 0.1 0.1 0.1 0.1 0.1 0.1 0.1 0.1 0.1 0.1 0.1 0.1 0.1 0 0.1 0 0.1v0.2l0 0.2L45.3 23.5"/>
                <path id="Fill-31" class="st3" d="M45.1 24.4L45.1 24.4l0.2-0.9 0 0L45.1 24.4 45.1 24.4 45.1 24.4 45.1 24.4 45.1 24.4 45.1 24.4"/>
                <path id="Fill-32" class="st3" d="M44 24.4L44 24.4l1.1 0v-0.1L44 24.4 44 24.4 44 24.4 44 24.4 44 24.4 44 24.4"/>
                <path id="Fill-33" class="st3" d="M44.1 23.9L44.1 23.9 44.1 23.9 44 24.1v0.1l0 0.2h0l0-0.2 0-0.1V23.9L44.1 23.9 44.1 23.9 44.1 23.9"/>
                <path id="Fill-34" class="st3" d="M42.5 24.5L42.5 24.5l0.1 0 0.1 0 0.1 0 0.1 0 0.1 0 0.1 0 0.1 0 0.1 0 0.1 0 0.1 0 0.1 0 0.1-0.1 0.1-0.1L44 24 44 24l0.1-0.1 0 0L44 23.9 43.9 24l-0.1 0.1 -0.1 0.1 -0.1 0 -0.1 0.1 -0.1 0 -0.1 0 -0.1 0 -0.1 0 -0.1 0 -0.1 0 -0.1 0 -0.1 0 -0.1 0L42.5 24.5 42.5 24.5"/>
                <path id="Fill-35" class="st3" d="M41.5 23.2L41.5 23.2 41.5 23.2l0 0.2 0 0.1 0 0.1 0 0.1 0 0.1 0 0.1 0.1 0.1 0.1 0.1 0.1 0.1 0.1 0.1 0.1 0.1 0.1 0.1 0.1 0.1 0.1 0 0.2 0 0 0 -0.2 0 -0.1 0 -0.1-0.1L42 24.2l-0.1-0.1 -0.1-0.1L41.7 24l-0.1-0.1 0-0.1 0-0.1 0-0.1 0-0.1 0-0.1 0-0.1L41.5 23.2 41.5 23.2 41.5 23.2"/>
                <path id="Fill-36" class="st3" d="M43 21.6L43 21.6l-0.1 0 -0.1 0 -0.1 0 -0.1 0.1 -0.1 0.1 -0.1 0.1L42 22l-0.1 0.1 -0.1 0.1 -0.1 0.1 -0.1 0.1 -0.1 0.1 -0.1 0.1 0 0.1 0 0.2 0 0.2h0.1l0-0.2 0-0.1 0-0.1 0.1-0.1 0.1-0.1 0.1-0.1 0.1-0.1 0.1-0.1 0.1-0.1 0.1-0.1 0.1-0.1 0.1-0.1 0.1-0.1 0.1 0 0.1 0L43 21.6 43 21.6"/>
                <path id="Fill-37" class="st3" d="M43.8 21.5L43.8 21.5l-0.1 0 -0.1 0 -0.1 0 -0.1 0 -0.1 0 -0.1 0 -0.1 0 -0.1 0 -0.1 0 -0.1 0 -0.1 0 0 0 0 0 0 0h0v0.1h0l0 0 0 0 0 0 0.1 0 0.1 0 0.1 0 0.1 0 0.1 0 0.1 0 0.1 0 0.1 0 0.1 0 0.1 0L43.8 21.5 43.8 21.5"/>
                <path id="Fill-38" class="st3" d="M44.4 21.5L44.4 21.5 44.4 21.5 44.4 21.5 44.4 21.5l-0.2 0H44l-0.1 0h-0.1v0.1H44l0.1 0L44.4 21.5 44.4 21.5 44.4 21.5 44.4 21.5 44.4 21.5 44.4 21.5 44.4 21.5 44.4 21.5 44.4 21.5"/>
                <path id="Fill-39" class="st3" d="M44.4 21.3L44.4 21.3 44.4 21.3l0 0.2 0 0.1 0 0 0 0 0 0 0-0.1L44.4 21.3 44.4 21.3 44.4 21.3"/>
                <path id="Fill-40" class="st3" d="M43.9 20.9L43.9 20.9 43.9 20.9l0.2 0 0.1 0 0.1 0.1 0.1 0.1 0.1 0.1 0 0.1 0 0.1h0l0-0.1 0-0.1L44.4 21 44.3 21l-0.1-0.1 -0.1 0 -0.1 0L43.9 20.9 43.9 20.9"/>
                <path id="Fill-41" class="st3" d="M42.1 21.1L42.1 21.1 42.1 21.1l0.1 0 0.1 0 0.1 0 0.1 0 0.1 0 0.1 0 0.1 0 0.1 0 0.1 0 0.1 0 0.1 0h0.4l0.1 0v0l-0.1 0 -0.1 0h-0.1l-0.1 0 -0.1 0 -0.1 0 -0.1 0 -0.1 0 -0.1 0 -0.1 0 -0.1 0 -0.1 0 -0.1 0 -0.1 0L42.1 21.1 42.1 21.1 42.1 21.1 42.1 21.1"/>
                <path id="Fill-42" class="st3" d="M42.4 20L42.4 20l-0.3 1 0 0L42.4 20 42.4 20 42.4 20 42.4 20 42.4 20 42.4 20"/>
                <path id="Fill-43" class="st3" d="M44.3 19.9L44.3 19.9l-0.1 0 -0.1 0h-0.4l-0.1 0 -0.1 0 -0.1 0 -0.1 0 -0.1 0 -0.1 0 -0.1 0 -0.1 0 -0.1 0 -0.1 0 -0.1 0 0 0.1 0.1 0 0.1 0 0.1 0 0.1 0 0.1 0 0.1 0 0.1 0 0.1 0 0.1 0 0.1 0H44l0.1 0L44.3 19.9 44.3 19.9"/>
                <path id="Fill-44" class="st3" d="M45.7 21.3L45.7 21.3l0-0.2v-0.2l0-0.1 0-0.1 -0.1-0.1 -0.1-0.1 -0.1-0.1 -0.1-0.1 -0.1-0.1 -0.1-0.1L44.9 20 44.8 20l-0.1 0 -0.1 0 -0.1 0 -0.1 0v0l0.1 0 0.1 0 0.1 0 0.1 0 0.1 0 0.1 0.1 0.1 0.1 0.1 0.1 0.1 0.1 0.1 0.1 0.1 0.1 0.1 0.1 0 0.1 0 0.1v0.2L45.7 21.3 45.7 21.3"/>
                <path id="Fill-45" class="st3" d="M45.3 23.5L45.3 23.5l0.4-2.2 0 0L45.3 23.5 45.3 23.5"/>
                <path id="Fill-46" class="st1" d="M44.2 22.4L44.2 22.4 44.2 22.4 44.2 22.4 44.2 22.4l-0.1-0.1 -0.1 0H44l-0.1 0 -0.1 0 -0.1 0 -0.1 0 -0.1 0 -0.1 0 -0.1 0 -0.1 0 0 0 0 0 0 0 0 0 0 0 -0.1 0 0 0 -0.1 0 -0.1 0 -0.1 0 -0.1 0 0 0 0 0.1 0 0.1 0 0.1 0 0.1 0 0.1 0 0.1 0 0.1 0 0.1 0 0.1 0.1 0 0.1 0 0.1 0 0.1 0 0.1 0 0.1 0 0.1 0 0.1 0 0.1 0 0.1 0 0.1 0 0.1 0 0.1 0 0-0.1 0-0.1 0-0.1 0 0 0 0 0 0 0 0 0-0.1 0-0.1 0-0.1L44.2 22.4"/>
                <path id="Fill-47" class="st3" d="M52.8 23.8L52.8 23.8l0-0.2 0.1-0.1 0.1-0.1 0.1-0.1 0.1-0.1 0.1 0 0.1 0 0.1 0 0.1 0 0.1 0.1 0.1 0.1 0.1 0.1 0.1 0.1 0 0.1 0 0.1h-0.1l0-0.1 0-0.1 0-0.1 -0.1-0.1 -0.1-0.1 -0.1 0 -0.1 0 -0.1 0 -0.1 0 -0.1 0 -0.1 0 -0.1 0.1L53 23.6l0 0.1 0 0.1 0 0.1H52.8"/>
                <path id="Fill-48" class="st3" d="M53.2 23.8v-0.2h0.2l0.1 0 0 0 0 0 0 0 0 0 0 0 0 0 0 0 0 0 0 0 0 0 0 0h-0.2l0 0 0 0 0 0 0 0 0 0 0 0 0 0v0l0 0 0 0 0 0 0 0 0 0 0 0h-0.2v0.2H53.2"/>
                <path id="Fill-49" class="st3" d="M52.8 23.8L52.8 23.8l0 0.1 0 0.1 0.1 0.1 0.1 0.1 0.1 0.1 0.1 0.1 0.1 0 0.1 0 0.1 0 0.1 0 0.1-0.1 0.1-0.1 0.1-0.1 0.1-0.1 0-0.1 0-0.1 0 0h-0.1l0 0 0 0.1 0 0.1 0 0.1 -0.1 0.1 -0.1 0.1 -0.1 0 -0.1 0 -0.1 0 -0.1 0 -0.1 0 -0.1 0 -0.1-0.1L53 24.1l0-0.1 0-0.1 0-0.1v0H52.8"/>
                <path id="Fill-50" class="st3" d="M53.2 23.8v0.3h0.1v-0.2h0.1l0.1 0.2h0.1l-0.1-0.2h0l0 0 0 0 0 0 0 0h-0.2l0 0h-0.1v0H53.2"/>
                <path id="Stroke-51" class="st4" d="M52.8 23.8L52.8 23.8l0-0.1 0-0.1 0.1-0.1 0.1-0.1 0.1-0.1 0.1-0.1 0.1 0 0.1 0 0.1 0 0.1 0 0.1 0.1 0.1 0.1 0.1 0.1 0.1 0.1 0 0.1 0 0.1 0 0.1 0 0.1 -0.1 0.1 -0.1 0.1 -0.1 0.1 -0.1 0.1 -0.1 0 -0.1 0 -0.1 0 -0.1 0 -0.1-0.1L53 24.3l-0.1-0.1 -0.1-0.1 0-0.1L52.8 23.8M53.3 24.1h-0.1v-0.5h0.2l0.1 0 0 0 0 0 0 0 0 0 0 0 0 0 0 0 0 0 0 0 0 0 0 0 0 0 0 0 0 0h0l0.1 0.2h-0.1l-0.1-0.2h-0.1V24.1M53.4 23.8L53.4 23.8 53.4 23.8 53.4 23.8 53.4 23.8l0.1 0 0 0 0 0 0 0v0l0 0 0 0 0 0 0 0 0 0 0 0h-0.2v0.2H53.4M53.4 24.3L53.4 24.3 53.4 24.3l0.2 0 0.1 0 0.1-0.1 0.1-0.1 0-0.1 0-0.1 0-0.1 0-0.1 0-0.1 0-0.1 -0.1-0.1 -0.1-0.1 -0.1 0 -0.1 0 -0.1 0 -0.1 0 -0.1 0 -0.1 0 -0.1 0.1L53 23.6l0 0.1 0 0.1 0 0.1 0 0.1 0 0.1 0 0.1 0.1 0.1 0.1 0.1 0.1 0L53.4 24.3 53.4 24.3"/>
                <path id="Fill-52" class="st3" d="M45.6 24.4h1.2l0.4-2.4 0-0.1 0-0.1 0-0.1 0-0.1 0-0.1 0-0.1 0.1-0.1 0.1-0.1 0.1-0.1 0.1-0.1 0.1-0.1 0.1 0 0.1 0 0.1 0 0.1 0 0.2 0h0.1l0.2-1.1 -0.1 0 -0.1 0 -0.1 0 -0.1 0 -0.1 0 -0.1 0 -0.1 0 -0.1 0 -0.1 0.1 -0.1 0.1 -0.1 0.1 -0.1 0.1 -0.1 0.1 -0.1 0.1 -0.1 0.1 -0.1 0.1 0.1-0.8h-1.2L45.6 24.4"/>
                <path id="Stroke-53" class="st4" d="M45.6 24.4h1.2l0.4-2.4 0-0.1 0-0.1 0-0.1 0-0.1 0-0.1 0-0.1 0.1-0.1 0.1-0.1 0.1-0.1 0.1-0.1 0.1-0.1 0.1 0 0.1 0 0.1 0 0.1 0 0.2 0h0.1l0.2-1.1 -0.1 0 -0.1 0 -0.1 0 -0.1 0 -0.1 0 -0.1 0 -0.1 0 -0.1 0 -0.1 0.1 -0.1 0.1 -0.1 0.1 -0.1 0.1 -0.1 0.1 -0.1 0.1 -0.1 0.1 -0.1 0.1 0.1-0.8h-1.2L45.6 24.4"/>
                <path id="Fill-54" class="st3" d="M34.6 24.4h1.2l0.4-2.4 0-0.1 0-0.1 0-0.1 0-0.1 0-0.1 0-0.1 0-0.1 0.1-0.1 0.1-0.1 0.1-0.1 0.1-0.1 0.1 0 0.1 0 0.1 0 0.1 0 0.2 0h0l0 0 0 0h0l0 0 0 0 0 0h0l0 0 0 0 0-0.1 0-0.1 0-0.1 0-0.1 0-0.1 0-0.1 0-0.1 0-0.1 0-0.1 0-0.1 0-0.1 0 0 0 0 0 0h0l0 0 0 0 0 0h0l0 0 0 0h0l-0.1 0 -0.1 0 -0.1 0 -0.1 0 -0.1 0L37 20l-0.1 0 -0.1 0 -0.1 0.1 -0.1 0.1 -0.1 0.1 -0.1 0.1 -0.1 0.1 -0.1 0.1 -0.1 0.2 0.1-0.8h-1.2L34.6 24.4"/>
                <path id="Stroke-55" class="st4" d="M34.6 24.4h1.2l0.4-2.4 0-0.1 0-0.1 0-0.1 0-0.1 0-0.1 0-0.1 0-0.1 0.1-0.1 0.1-0.1 0.1-0.1 0.1-0.1 0.1 0 0.1 0 0.1 0 0.1 0 0.2 0h0l0 0 0 0h0l0 0 0 0 0 0h0l0 0 0 0 0-0.1 0-0.1 0-0.1 0-0.1 0-0.1 0-0.1 0-0.1 0-0.1 0-0.1 0-0.1 0-0.1 0 0 0 0 0 0h0l0 0 0 0 0 0h0l0 0 0 0h0l-0.1 0 -0.1 0 -0.1 0 -0.1 0 -0.1 0L37 20l-0.1 0 -0.1 0 -0.1 0.1 -0.1 0.1 -0.1 0.1 -0.1 0.1 -0.1 0.1 -0.1 0.1 -0.1 0.2 0.1-0.8h-1.2L34.6 24.4"/>
                <path id="Fill-56" class="st1" d="M52.8 28.8L52.8 28.8l0-0.1 0.1-0.1 0.1-0.1 0.1-0.1 0.1-0.1 0.1 0 0.1 0 0.1 0 0.1 0 0.1 0.1 0.1 0.1 0.1 0.1 0.1 0.1 0 0.1v0h-0.1l0-0.1 0-0.1 -0.1-0.1 -0.1-0.1 -0.1 0 -0.1 0 -0.1 0 -0.1 0 -0.1 0 -0.1 0 -0.1 0.1L53 28.6l0 0.1 0 0.1H52.8"/>
                <path id="Fill-57" class="st1" d="M53.2 28.8v-0.1h0.3l0 0 0 0 0 0 0 0 0 0 0 0 0 0h-0.1v0l0 0 0 0 0 0 0 0 0 0 0 0h-0.2v0.1H53.2"/>
                <path id="Fill-58" class="st1" d="M52.8 28.9L52.8 28.9l0.1-0.1v0l0 0.1H52.8"/>
                <path id="Fill-59" class="st1" d="M53.2 28.9L53.2 28.9l0.1-0.1v0.1h0.1l0 0 0 0 0 0 0 0 0 0 0 0 0 0v0h0.1l0 0 0 0 0 0 0 0H53.2"/>
                <path id="Fill-60" class="st1" d="M53.9 28.9L53.9 28.9 53.9 28.9l0.1-0.1 0 0.1H53.9"/>
                <path id="Fill-61" class="st1" d="M52.8 28.9L52.8 28.9l0 0.1 0 0.1 0.1 0.1 0.1 0.1 0.1 0.1 0.1 0 0.1 0 0.1 0 0.1 0 0.1 0 0.1 0 0.1-0.1 0.1-0.1 0.1-0.1 0-0.1 0-0.1v0h-0.1v0l0 0.1 0 0.1 0 0.1 -0.1 0.1 -0.1 0.1 -0.1 0 -0.1 0 -0.1 0 -0.1 0 -0.1 0 -0.1 0 -0.1-0.1L53 29.1l0-0.1 0-0.1 0-0.1v0H52.8"/>
                <path id="Fill-62" class="st1" d="M53.2 28.9v0.2h0.1v-0.2h0.1l0.1 0.2h0.1l-0.1-0.2h0l0 0 0 0 0 0H53.2"/>
                <path id="Fill-63" class="st3" d="M34.7 21.3l0-0.2 -0.1-0.2 -0.1-0.2 -0.1-0.2 -0.1-0.1 -0.1-0.1L34 20.1 33.8 20l-0.2-0.1 -0.2 0 -0.2 0 -0.2 0 -0.2 0 -0.3 0 -0.3 0L32.1 20l-0.2 0.1 -0.2 0.1 -0.2 0.1 -0.2 0.2 -0.1 0.2L31 20.9 30.9 21l-0.1 0.2 -0.1 0.2 0 0.2 0 0.2 0 0.2 0 0.1 0 0.3 0 0.3 0 0.3 0.1 0.2 0.1 0.2 0.1 0.2 0.1 0.2 0.2 0.1 0.2 0.1 0.2 0.1 0.2 0.1 0.2 0.1 0.2 0.1 0.2 0 0.2 0 0.2 0H33l0.1 0h0.1l0.1 0 0.1 0 0.1 0 0.1 0 0.1 0 0.1 0 0.1 0 0.1 0 0.1 0 0.1 0 0.1 0 0.1 0 0.1 0 0.2-1 -0.1 0.1 -0.1 0.1 -0.1 0.1 -0.1 0 -0.1 0 -0.1 0 -0.1 0 -0.1 0 -0.1 0 -0.1 0h-0.1l-0.1 0 -0.1 0 -0.1 0 -0.1 0 -0.1 0 -0.1 0 -0.1 0 -0.1 0 -0.1 0 -0.1 0 -0.1-0.1 -0.1-0.1L32 23l0-0.1 0-0.1 0-0.1 0-0.1 0-0.1 0-0.1 0-0.1 0-0.1h2.7l0-0.3 0.1-0.4 0-0.3L34.7 21.3 34.7 21.3zM33.6 21.6H32l0 0 0 0 0-0.1 0-0.1 0-0.1 0-0.1 0-0.1 0-0.1 0-0.1 0-0.1 0.1-0.1 0.1 0 0.1 0 0.1 0 0.1 0 0.1 0 0.1 0 0.1 0 0.1 0 0.1 0 0.1 0 0.1 0 0.1 0 0.1 0 0.1 0 0.1 0 0 0 0 0.1 0 0.1 0 0.1 0 0.1 0 0.1 0 0.1 0 0.1L33.6 21.6 33.6 21.6z"/>
              </g>
              <g id="VISA" transform="translate(0.000000, -0.004969)" sketch:type="MSShapeGroup">
                <path id="Fill-1_1_" class="st0" d="M68.5 41.4c0 1.3-1 2.3-2.3 2.3H2.1c-1.3 0-2.3-1-2.3-2.3V2.3C-0.2 1 0.8 0 2.1 0h64.2c1.3 0 2.3 1 2.3 2.3V41.4"/>
                <path id="Fill-4_1_" class="st5" d="M31.6 28.2h-3.4l2.1-12.9h3.4L31.6 28.2"/>
                <path id="Fill-5_1_" class="st5" d="M25.1 15.3l-3.2 8.9 -0.4-1.9v0l-1.1-5.8c0 0-0.1-1.2-1.6-1.2h-5.3l-0.1 0.2c0 0 1.6 0.3 3.5 1.5l2.9 11.2h3.5l5.3-12.9H25.1"/>
                <path id="Fill-6_1_" class="st5" d="M47.7 23.7l1.8-4.8 1 4.8H47.7L47.7 23.7zM51.4 28.2h3.1l-2.7-12.9h-2.7c-1.2 0-1.6 1-1.6 1l-5 11.9H46l0.7-1.9H51L51.4 28.2 51.4 28.2z"/>
                <path id="Fill-7_1_" class="st5" d="M42.8 18.1l0.5-2.8c0 0-1.5-0.6-3-0.6 -1.7 0-5.6 0.7-5.6 4.3 0 3.3 4.6 3.4 4.6 5.1 0 1.7-4.2 1.4-5.5 0.3l-0.5 2.9c0 0 1.5 0.7 3.8 0.7 2.3 0 5.7-1.2 5.7-4.4 0-3.4-4.7-3.7-4.7-5.1C38 17.2 41.3 17.3 42.8 18.1"/>
                <path id="Fill-8_1_" class="st6" d="M20.4 16.5c0 0-0.1-1.2-1.6-1.2h-5.3l-0.1 0.2c0 0 2.5 0.5 5 2.5 2.3 1.9 3.1 4.2 3.1 4.2L20.4 16.5z"/>
              </g>
              <g id="VISA-2" transform="translate(78.421266, -0.004969)">
                <path id="Fill-1_2_" sketch:type="MSShapeGroup" class="st0" d="M68.5 41.4c0 1.3-1 2.3-2.3 2.3H2.1c-1.3 0-2.3-1-2.3-2.3V2.3C-0.2 1 0.8 0 2.1 0h64.2c1.3 0 2.3 1 2.3 2.3V41.4"/>
                <g class="st7">
                  <path class="st8" d="M38.5 30c0.5 0 1 0.1 1.2 0.4 0.3 0.3 0.4 0.6 0.4 1.1 0 0.3 0 0.7-0.1 0.9 -0.1 0.3-0.2 0.5-0.4 0.8 -0.2 0.2-0.4 0.4-0.7 0.5 -0.3 0.1-0.6 0.2-1 0.2h-1.6l0.8-3.9H38.5zM38 33.2c0.2 0 0.4 0 0.6-0.1 0.2-0.1 0.3-0.2 0.4-0.3 0.1-0.1 0.2-0.3 0.3-0.5s0.1-0.4 0.1-0.6c0-0.1 0-0.3 0-0.4 0-0.1-0.1-0.2-0.1-0.3 -0.1-0.1-0.2-0.1-0.3-0.2 -0.1 0-0.2-0.1-0.4-0.1h-0.6l-0.5 2.5H38z"/>
                  <path class="st8" d="M41.2 32.7C41.2 32.7 41.2 32.8 41.2 32.7v0.1c0 0.2 0.1 0.3 0.2 0.4 0.1 0.1 0.3 0.2 0.5 0.2 0.1 0 0.1 0 0.2 0 0.1 0 0.1-0.1 0.2-0.1s0.1-0.1 0.1-0.1c0 0 0.1-0.1 0.1-0.1h0.8c-0.1 0.2-0.1 0.3-0.2 0.4 -0.1 0.1-0.2 0.2-0.3 0.3 -0.1 0.1-0.3 0.1-0.4 0.2S41.9 34 41.7 34c-0.2 0-0.4 0-0.5-0.1 -0.2-0.1-0.3-0.1-0.4-0.2 -0.1-0.1-0.2-0.2-0.3-0.4 -0.1-0.2-0.1-0.3-0.1-0.5 0-0.2 0-0.4 0.1-0.7 0.1-0.2 0.2-0.4 0.3-0.6 0.1-0.2 0.3-0.3 0.5-0.4C41.5 31 41.7 31 42 31c0.2 0 0.4 0 0.5 0.1 0.2 0.1 0.3 0.1 0.4 0.2 0.1 0.1 0.2 0.2 0.3 0.4 0.1 0.2 0.1 0.3 0.1 0.5 0 0.1 0 0.3 0 0.4L41.2 32.7C41.2 32.7 41.2 32.7 41.2 32.7zM42.5 32c0-0.1 0-0.1-0.1-0.2 0-0.1-0.1-0.1-0.2-0.1 -0.1 0-0.2-0.1-0.3-0.1 -0.1 0-0.2 0-0.3 0 -0.1 0-0.2 0.1-0.2 0.1 -0.1 0.1-0.1 0.1-0.2 0.2 0 0.1-0.1 0.1-0.1 0.2h1.3C42.5 32.1 42.5 32 42.5 32z"/>
                  <path class="st8" d="M45 30l-0.3 1.4h0c0.1-0.1 0.2-0.2 0.4-0.3 0.1-0.1 0.3-0.1 0.5-0.1 0.2 0 0.3 0 0.5 0.1s0.2 0.1 0.3 0.3c0.1 0.1 0.1 0.2 0.2 0.4 0 0.1 0.1 0.3 0.1 0.5 0 0.2 0 0.4-0.1 0.6s-0.2 0.4-0.3 0.6c-0.1 0.2-0.3 0.3-0.5 0.4S45.4 34 45.1 34c-0.2 0-0.4 0-0.5-0.1 -0.2-0.1-0.3-0.2-0.3-0.4h0l-0.1 0.4h-0.7l0.8-3.9H45zM44.9 31.7c-0.1 0.1-0.2 0.2-0.3 0.3 -0.1 0.1-0.1 0.3-0.1 0.4s0 0.3 0 0.4c0 0.2 0 0.3 0.1 0.4 0.1 0.1 0.2 0.2 0.4 0.2 0.1 0 0.3 0 0.4-0.1s0.2-0.2 0.3-0.3c0.1-0.1 0.1-0.2 0.1-0.4 0-0.1 0-0.3 0-0.4 0-0.2 0-0.3-0.1-0.4s-0.2-0.2-0.4-0.2C45.1 31.6 45 31.6 44.9 31.7z"/>
                  <path class="st8" d="M48.1 31.1l-0.6 2.8h-0.8l0.6-2.8H48.1zM47.4 30.6l0.1-0.6h0.8l-0.1 0.6H47.4z"/>
                  <path class="st8" d="M50.3 31.1l-0.1 0.5h-0.6L49.4 33c0 0 0 0.1 0 0.1 0 0 0 0 0 0.1 0 0.1 0 0.1 0 0.1 0 0 0 0 0.1 0.1s0.1 0 0.1 0c0 0 0.1 0 0.1 0 0.1 0 0.2 0 0.3 0l-0.1 0.6c-0.1 0-0.2 0-0.2 0 -0.1 0-0.2 0-0.2 0 -0.1 0-0.2 0-0.3 0 -0.1 0-0.2 0-0.2-0.1s-0.1-0.1-0.2-0.2c0-0.1-0.1-0.2-0.1-0.3 0 0 0-0.1 0-0.1 0 0 0-0.1 0-0.1l0.3-1.5h-0.5l0.1-0.5H49l0.2-0.9h0.8l-0.2 0.9H50.3z"/>
                </g>
                <path id="Fill-4_2_" sketch:type="MSShapeGroup" class="st5" d="M31.6 28.2h-3.4l2.1-12.9h3.4L31.6 28.2"/>
                <path id="Fill-5_2_" sketch:type="MSShapeGroup" class="st5" d="M25.1 15.3l-3.2 8.9 -0.4-1.9v0l-1.1-5.8c0 0-0.1-1.2-1.6-1.2h-5.3l-0.1 0.2c0 0 1.6 0.3 3.5 1.5l2.9 11.2h3.5l5.3-12.9H25.1"/>
                <path id="Fill-6_2_" sketch:type="MSShapeGroup" class="st5" d="M47.7 23.7l1.8-4.8 1 4.8H47.7L47.7 23.7zM51.4 28.2h3.1l-2.7-12.9h-2.7c-1.2 0-1.6 1-1.6 1l-5 11.9H46l0.7-1.9H51L51.4 28.2 51.4 28.2z"/>
                <path id="Fill-7_2_" sketch:type="MSShapeGroup" class="st5" d="M42.8 18.1l0.5-2.8c0 0-1.5-0.6-3-0.6 -1.7 0-5.6 0.7-5.6 4.3 0 3.3 4.6 3.4 4.6 5.1 0 1.7-4.2 1.4-5.5 0.3l-0.5 2.9c0 0 1.5 0.7 3.8 0.7 2.3 0 5.7-1.2 5.7-4.4 0-3.4-4.7-3.7-4.7-5.1C38 17.2 41.3 17.3 42.8 18.1"/>
                <path id="Fill-8_2_" sketch:type="MSShapeGroup" class="st6" d="M20.4 16.5c0 0-0.1-1.2-1.6-1.2h-5.3l-0.1 0.2c0 0 2.5 0.5 5 2.5 2.3 1.9 3.1 4.2 3.1 4.2L20.4 16.5z"/>
              </g>
              <g id="VISA-electron" transform="translate(156.842532, -0.004969)" sketch:type="MSShapeGroup">
                <path id="Fill-1_3_" class="st9" d="M68.6 41.1c0 1.3-1 2.3-2.3 2.3H2.2c-1.3 0-2.3-1-2.3-2.3V2.1c0-1.3 1-2.3 2.3-2.3h64.2c1.3 0 2.3 1 2.3 2.3V41.1"/>
                <path id="Fill-2_1_" class="st10" d="M23 23.9c5.2-2.2 12.5-4.2 22.2-2.2l0.1-2.5c-10.2-1.1-17.5 2.1-22.3 4.4V23.9"/>
                <path id="Fill-3_1_" class="st3" d="M13.6 25.7h4.9v1.5h-3l0 1.4h3V30h-3l0 1.4h3v1.5h-4.8L13.6 25.7"/>
                <path id="Fill-4_3_" class="st3" d="M19.8 25.1h1.8l0 7.7h-1.8L19.8 25.1"/>
                <path id="Fill-5_3_" class="st3" d="M27.7 32.2c-0.6 0.5-1.5 0.8-2.3 0.8 -1.9 0-2.7-1.3-2.7-2.7 0-1.6 1.2-2.9 2.8-2.9 2 0 2.6 1.4 2.6 3.2h-3.6c0 0.4 0.3 1.1 1.2 1.1 0.6 0 1-0.2 1.5-0.5L27.7 32.2 27.7 32.2zM26.4 29.6c0-0.5-0.3-1-0.9-1 -0.6 0-1 0.5-1.1 1H26.4L26.4 29.6z"/>
                <path id="Fill-6_3_" class="st3" d="M33.4 32.5c-0.5 0.3-1.3 0.5-1.9 0.5 -1.6 0-2.8-0.9-2.8-2.6 0-1.7 1.2-2.9 2.9-2.9 0.6 0 1.4 0.2 1.8 0.5l-0.6 1.2c-0.3-0.1-0.6-0.2-0.8-0.2 -0.9 0-1.5 0.5-1.5 1.4 0 0.7 0.6 1.3 1.3 1.3 0.3 0 0.7-0.2 1-0.3L33.4 32.5"/>
                <path id="Fill-7_3_" class="st3" d="M34.1 27.7h0.8l0-1.8h1.7l0 1.8H38l0 1.3h-1.5c0 0.7-0.1 1.5-0.1 1.9 0 0.5 0.1 0.7 0.5 0.7 0.2 0 0.5-0.1 0.7-0.2l0.4 1.2c-0.5 0.3-1.2 0.5-1.8 0.5 -1.4 0-1.5-0.9-1.5-2.1 0-0.6 0.1-1.3 0.1-2H34L34.1 27.7"/>
                <path id="Fill-8_3_" class="st3" d="M38.9 27.7h1.8v0.7h0c0.3-0.4 0.6-0.9 1.3-0.9 0.2 0 0.4 0 0.6 0.1l-0.2 1.8c-0.2-0.1-0.4-0.1-0.6-0.1 -0.6 0-1.1 0.5-1.1 0.6l0 3h-1.8L38.9 27.7"/>
                <path id="Fill-9_1_" class="st3" d="M45.9 27.5c1.9 0 2.9 1.2 2.9 2.8s-1 2.8-2.9 2.8C44 33 43 31.8 43 30.2S44 27.5 45.9 27.5L45.9 27.5zM45.9 31.7c0.9 0 1.1-0.7 1.1-1.4 0-0.7-0.3-1.4-1.1-1.4 -0.9 0-1.1 0.7-1.1 1.4C44.8 30.9 45 31.7 45.9 31.7L45.9 31.7z"/>
                <path id="Fill-10_1_" class="st3" d="M49.7 27.7h1.8v0.6c0.4-0.4 1-0.7 1.7-0.7 1.1 0 1.7 0.6 1.7 2 0 1.1 0 2.2 0 3.3h-1.8c0-1 0-2 0-3.1 0-0.4-0.1-0.7-0.6-0.7 -0.3 0-0.7 0.2-0.9 0.5l0 3.3h-1.8L49.7 27.7"/>
                <path id="Fill-11_1_" class="st3" d="M28.3 17l2.3-7.4h2L30.3 17H28.3"/>
                <path id="Fill-12_1_" class="st3" d="M27.4 9.6l-1.8 3.2c-0.5 0.8-0.7 1.2-0.9 1.8h0c0-0.7-0.1-1.5-0.1-1.9l-0.2-3h-3.4l0 0.2c0.9 0 1.4 0.4 1.5 1.3l0.7 5.9h2.1l4.2-7.4H27.4"/>
                <path id="Fill-13_1_" class="st3" d="M43.1 17L43 15.9l-2.5 0L40 17h-2.2l4-7.4h2.7l0.7 7.4H43.1L43.1 17zM42.8 12.6c0-0.6 0-1.3 0-1.7h0c-0.1 0.4-0.6 1.5-0.9 2l-0.7 1.6h1.8L42.8 12.6 42.8 12.6z"/>
                <path id="Fill-14_1_" class="st3" d="M34.7 17.2c-1.4 0-2.4-0.5-3-0.9l1-1.5c0.6 0.3 1.1 0.7 2.2 0.7 0.4 0 0.7-0.1 0.9-0.4 0.3-0.5-0.1-0.7-0.8-1.2l-0.4-0.3c-1.2-0.8-1.7-1.6-1.1-2.9 0.4-0.8 1.3-1.5 2.8-1.5 1.1 0 2 0.5 2.6 0.9l-1.1 1.3c-0.6-0.5-1-0.7-1.6-0.7 -0.4 0-0.7 0.2-0.9 0.4 -0.2 0.4 0.1 0.7 0.7 1.1l0.5 0.3c1.4 0.9 1.8 1.8 1.4 2.7C37.1 16.9 36 17.2 34.7 17.2"/>
              </g>
              <g id="maestro" transform="translate(116.442567, 53.978082)" sketch:type="MSShapeGroup">
                <path id="Fill-1_4_" class="st11" d="M68.5 41.2c0 1.3-1 2.3-2.3 2.3H2c-1.3 0-2.3-1-2.3-2.3V2.1c0-1.3 1-2.3 2.3-2.3h64.2c1.3 0 2.3 1 2.3 2.3V41.2"/>
                <path id="Fill-2_2_" class="st2" d="M42.3 33.6l0.6 0 0.6 0 0.6-0.1 0.6-0.1 0.6-0.1 0.6-0.2 0.6-0.2 0.6-0.2 0.5-0.2 0.5-0.3 0.5-0.3 0.5-0.3 0.5-0.3 0.5-0.4 0.5-0.4L51 30l0.4-0.4 0.4-0.4 0.4-0.5 0.3-0.5 0.3-0.5 0.3-0.5 0.3-0.5 0.2-0.5 0.2-0.6 0.2-0.6 0.2-0.6 0.1-0.6 0.1-0.6 0.1-0.6 0-0.6 0-0.6 0-0.6 0-0.6 -0.1-0.6 -0.1-0.6 -0.1-0.6 -0.2-0.6L53.9 17l-0.2-0.6 -0.2-0.5 -0.3-0.5 -0.3-0.5 -0.3-0.5 -0.3-0.5 -0.4-0.5L51.4 13 51 12.6l-0.4-0.4 -0.5-0.4 -0.5-0.4 -0.5-0.3 -0.5-0.3 -0.5-0.3 -0.5-0.3 -0.5-0.2 -0.6-0.2L46 9.5l-0.6-0.2 -0.6-0.1 -0.6-0.1L43.5 9l-0.6 0 -0.6 0 -0.6 0L41 9l-0.6 0.1 -0.6 0.1 -0.6 0.1 -0.6 0.2L38 9.7l-0.6 0.2 -0.5 0.2 -0.5 0.3 -0.5 0.3 -0.5 0.3 -0.5 0.3 -0.5 0.4L34 12.2l-0.4 0.4L33.1 13l-0.4 0.4 -0.4 0.5L32 14.4l-0.3 0.5 -0.3 0.5 -0.3 0.5 -0.2 0.5L30.7 17l-0.2 0.6 -0.2 0.6 -0.1 0.6 -0.1 0.6L30 20l0 0.6 0 0.6 0 0.6 0 0.6 0.1 0.6 0.1 0.6 0.1 0.6 0.2 0.6 0.2 0.6 0.2 0.6 0.2 0.5 0.3 0.5 0.3 0.5 0.3 0.5 0.3 0.5 0.4 0.5 0.4 0.4 0.4 0.4 0.4 0.4 0.4 0.4 0.5 0.4 0.5 0.3 0.5 0.3 0.5 0.3 0.5 0.3 0.5 0.2 0.6 0.2 0.6 0.2 0.6 0.2 0.6 0.1 0.6 0.1 0.6 0.1 0.6 0L42.3 33.6"/>
                <path id="Fill-3_2_" class="st12" d="M25.9 33.6l0.6 0 0.6 0 0.6-0.1 0.6-0.1 0.6-0.1 0.6-0.2 0.6-0.2 0.6-0.2 0.5-0.2 0.5-0.3 0.5-0.3 0.5-0.3 0.5-0.3 0.5-0.4 0.4-0.4 0.4-0.4 0.4-0.4 0.4-0.4 0.4-0.5 0.3-0.5 0.3-0.5 0.3-0.5 0.3-0.5 0.2-0.5 0.2-0.6 0.2-0.6 0.2-0.6 0.1-0.6 0.1-0.6 0.1-0.6 0-0.6 0-0.6 0-0.6 0-0.6 -0.1-0.6L38 18.8l-0.1-0.6 -0.2-0.6L37.5 17l-0.2-0.6L37 15.9l-0.3-0.5 -0.3-0.5 -0.3-0.5 -0.3-0.5 -0.4-0.5L35.1 13l-0.4-0.4 -0.4-0.4 -0.4-0.4 -0.5-0.4 -0.5-0.3 -0.5-0.3 -0.5-0.3 -0.5-0.3 -0.5-0.2 -0.6-0.2 -0.6-0.2L29 9.3l-0.6-0.1 -0.6-0.1L27.2 9l-0.6 0 -0.6 0 -0.6 0 -0.6 0L24 9.1l-0.6 0.1 -0.6 0.1 -0.6 0.2 -0.6 0.2 -0.6 0.2 -0.5 0.2L20 10.4l-0.5 0.3L19 11.1l-0.5 0.3 -0.5 0.4 -0.5 0.4 -0.4 0.4L16.8 13l-0.4 0.4L16 13.9l-0.3 0.5 -0.3 0.5 -0.3 0.5 -0.3 0.5 -0.2 0.5L14.3 17l-0.2 0.6 -0.2 0.6 -0.1 0.6 -0.1 0.6L13.6 20l0 0.6 0 0.6 0 0.6 0 0.6 0.1 0.6 0.1 0.6 0.1 0.6 0.2 0.6 0.2 0.6 0.2 0.6 0.2 0.5 0.3 0.5 0.3 0.5 0.3 0.5 0.3 0.5 0.4 0.5 0.4 0.4 0.4 0.4 0.4 0.4 0.5 0.4 0.5 0.4 0.5 0.3 0.5 0.3 0.5 0.3 0.5 0.3 0.5 0.2 0.6 0.2 0.6 0.2 0.6 0.2 0.6 0.1 0.6 0.1 0.6 0.1 0.6 0L25.9 33.6"/>
                <path id="Fill-4_4_" class="st2" d="M32.6 13.6h6.3V13h-5.7L32.6 13.6"/>
                <path id="Fill-5_4_" class="st2" d="M31.6 15.1h7.2v-0.7H32L31.6 15.1"/>
                <path id="Fill-6_4_" class="st2" d="M30.9 16.6h8v-0.7h-7.6L30.9 16.6"/>
                <path id="Fill-7_4_" class="st2" d="M30.4 18.1h8.4v-0.7h-8.2L30.4 18.1"/>
                <path id="Fill-8_4_" class="st2" d="M30.1 19.5h8.8v-0.7h-8.6L30.1 19.5"/>
                <path id="Fill-9_2_" class="st2" d="M30 22.3h8.8v-0.7h-8.9L30 22.3"/>
                <path id="Fill-10_2_" class="st2" d="M30.2 23.9h8.6v-0.7h-8.7L30.2 23.9"/>
                <path id="Fill-11_2_" class="st2" d="M30.6 25.1h8.2v-0.7h-8.4L30.6 25.1"/>
                <path id="Fill-12_2_" class="st2" d="M31.3 26.7h7.6V26h-7.9L31.3 26.7"/>
                <path id="Fill-13_2_" class="st2" d="M32.1 28.2h6.7v-0.7h-7.2L32.1 28.2"/>
                <path id="Fill-14_2_" class="st2" d="M33.2 29.7h5.5V29h-6.1L33.2 29.7"/>
                <path id="Fill-15_1_" class="st2" d="M52.6 28.8l0-0.1 0.1-0.1 0.1-0.1 0.1-0.1 0.1-0.1 0.1 0 0.1 0 0.1 0 0.1 0 0.1 0.1 0.1 0.1 0.1 0.1 0.1 0.1 0 0.1h-0.1l0-0.1 0-0.1 -0.1-0.1 -0.1-0.1 -0.1 0 -0.1 0 -0.1 0 -0.1 0 -0.1 0 -0.1 0 -0.1 0.1 -0.1 0.1 0 0.1 0 0.1H52.6"/>
                <path id="Fill-16_1_" class="st2" d="M53 28.8v-0.1h0.2l0.1 0 0 0 0 0 0 0 0 0 0 0 0 0 0 0h-0.1l0 0 0 0 0 0 0 0 0 0 0 0 0 0h-0.2v0.1H53"/>
                <path id="Fill-17" class="st2" d="M52.6 28.9l0-0.1v0h0.1l0 0 0 0.1H52.6"/>
                <path id="Fill-18_1_" class="st2" d="M53 28.9v-0.1h0.1v0.1h0.2l0 0 0 0 0 0 0 0 0 0v0h0.1l0 0 0 0 0 0 0 0H53"/>
                <path id="Fill-19" class="st2" d="M53.7 28.9L53.7 28.9l0-0.1h0.1v0l0 0.1H53.7"/>
                <path id="Fill-20_1_" class="st2" d="M52.6 28.9L52.6 28.9l0 0.1 0 0.1 0.1 0.1 0.1 0.1 0.1 0.1 0.1 0.1 0.1 0 0.1 0 0.1 0 0.1 0 0.1-0.1 0.1-0.1 0.1-0.1 0.1-0.1 0-0.1 0-0.1v0h-0.1v0l0 0.1 0 0.1 0 0.1 -0.1 0.1 -0.1 0.1 -0.1 0 -0.1 0 -0.1 0 -0.1 0 -0.1 0 -0.1 0 -0.1-0.1 -0.1-0.1 0-0.1 0-0.1 0-0.1v0H52.6"/>
                <path id="Fill-21" class="st2" d="M53 28.9v0.3h0.1V29h0.1l0.1 0.2h0.1L53.3 29l0 0 0 0 0 0 0 0 0 0H53"/>
                <path id="Fill-22_1_" class="st3" d="M39.6 20.2L39.6 20.2l-0.2 0 -0.1 0 -0.1 0 -0.1 0 -0.1 0 -0.1 0 -0.1 0 -0.1 0 -0.1 0 -0.1 0 -0.1 0h-0.1l-0.1 0 -0.2 0 -0.2 0 -0.1 0 -0.1 0 -0.1 0 -0.1 0 -0.1 0 -0.1 0 -0.1 0.1 0 0.1 0 0.1 0 0.1 0 0.1v0.1l0 0.1 0 0.1 0 0.1 0.1 0.1 0.1 0.1 0.1 0.1 0.2 0.1 0.2 0.1 0.2 0.1 0.2 0.1 0.2 0.1 0.2 0.1 0.2 0.1 0.2 0.1 0.1 0.2 0.1 0.2 0.1 0.2 0.1 0.3 0 0.3 0 0.4 0 0.3 -0.1 0.2 -0.1 0.2 -0.1 0.2 -0.1 0.2 -0.2 0.1 -0.2 0.1 -0.2 0.1 -0.2 0.1L38.2 25 38 25l-0.2 0 -0.2 0 -0.2 0 -0.2 0 -0.2 0h-0.3l-0.2 0 -0.2 0 -0.2 0 -0.2 0 -0.2 0 -0.1 0 -0.1 0 -0.1 0 -0.1 0 -0.1 0 -0.1 0L35 25l-0.1 0 -0.1 0 -0.1 0 0.3-1.3 0.1 0 0.1 0 0.1 0 0.1 0 0.1 0 0.1 0 0.1 0 0.1 0 0.1 0 0.2 0 0.2 0 0.2 0 0.2 0 0.2 0h0.2l0.2 0 0.2 0 0.1 0 0.1-0.1 0.1-0.1 0.1-0.1 0-0.1 0-0.1 0-0.1 0-0.1 0-0.1 0-0.1 0-0.1 0-0.1 -0.1-0.1 -0.1-0.1 -0.1 0 -0.1 0 -0.1 0 -0.1 0 -0.1 0 -0.1 0 -0.1 0 -0.1 0 -0.1 0 -0.1 0 -0.1-0.1 -0.1-0.1 -0.1-0.1L36 22.1 35.9 22l-0.1-0.1 -0.1-0.1 -0.1-0.1 -0.1-0.1 -0.1-0.1 0-0.1 0-0.2 0-0.2 0-0.2 0-0.2 0-0.1 0-0.1 0-0.1 0-0.1 0-0.1 0-0.1 0-0.1 0-0.1 0-0.1 0-0.1 0.1-0.1 0.1-0.1 0.1-0.1 0.1-0.1 0.1-0.1 0.1-0.1 0.1-0.1 0.1-0.1 0.1 0 0.1 0 0.1 0 0.1 0 0.1 0 0.1 0 0.1 0 0.1 0 0.1 0 0.1 0 0.2 0 0.2 0 0.2 0h0.4l0.2 0 0.2 0 0.2 0 0.1 0 0.1 0 0.1 0 0.1 0 0.1 0 0.1 0 0.1 0 0.1 0 0.1 0 0.1 0 0 0 0 0L39.6 20.2"/>
                <path id="Stroke-23_1_" class="st13" d="M39.6 20.2L39.6 20.2 39.6 20.2l-0.2 0 -0.1 0 -0.1 0 -0.1 0 -0.1 0 -0.1 0 -0.1 0 -0.1 0 -0.1 0 -0.1 0 -0.1 0h-0.1l-0.1 0 -0.2 0 -0.2 0 -0.1 0 -0.1 0 -0.1 0 -0.1 0 -0.1 0 -0.1 0 -0.1 0.1 0 0.1 0 0.1 0 0.1 0 0.1v0.1l0 0.1 0 0.1 0 0.1 0.1 0.1 0.1 0.1 0.1 0.1 0.2 0.1 0.2 0.1 0.2 0.1 0.2 0.1 0.2 0.1 0.2 0.1 0.2 0.1 0.2 0.1 0.1 0.2 0.1 0.2 0.1 0.2 0.1 0.3 0 0.3 0 0.4 0 0.3 -0.1 0.2 -0.1 0.2 -0.1 0.2 -0.1 0.2 -0.2 0.1 -0.2 0.1 -0.2 0.1 -0.2 0.1L38.2 25 38 25l-0.2 0 -0.2 0 -0.2 0 -0.2 0 -0.2 0h-0.3l-0.2 0 -0.2 0 -0.2 0 -0.2 0 -0.2 0 -0.1 0 -0.1 0 -0.1 0 -0.1 0 -0.1 0 -0.1 0L35 25l-0.1 0 -0.1 0 -0.1 0 0.3-1.3 0.1 0 0.1 0 0.1 0 0.1 0 0.1 0 0.1 0 0.1 0 0.1 0 0.1 0 0.2 0 0.2 0 0.2 0 0.2 0 0.2 0h0.2l0.2 0 0.2 0 0.1 0 0.1-0.1 0.1-0.1 0.1-0.1 0-0.1 0-0.1 0-0.1 0-0.1 0-0.1 0-0.1 0-0.1 0-0.1 -0.1-0.1 -0.1-0.1 -0.1 0 -0.1 0 -0.1 0 -0.1 0 -0.1 0 -0.1 0 -0.1 0 -0.1 0 -0.1 0 -0.1 0 -0.1-0.1 -0.1-0.1 -0.1-0.1L36 22.1 35.9 22l-0.1-0.1 -0.1-0.1 -0.1-0.1 -0.1-0.1 -0.1-0.1 0-0.1 0-0.2 0-0.2 0-0.2 0-0.2 0-0.1 0-0.1 0-0.1 0-0.1 0-0.1 0-0.1 0-0.1 0-0.1 0-0.1 0-0.1 0.1-0.1 0.1-0.1 0.1-0.1 0.1-0.1 0.1-0.1 0.1-0.1 0.1-0.1 0.1-0.1 0.1 0 0.1 0 0.1 0 0.1 0 0.1 0 0.1 0 0.1 0 0.1 0 0.1 0 0.1 0 0.2 0 0.2 0 0.2 0h0.4l0.2 0 0.2 0 0.2 0 0.1 0 0.1 0 0.1 0 0.1 0 0.1 0 0.1 0 0.1 0 0.1 0 0.1 0 0.1 0 0 0 0 0L39.6 20.2"/>
                <path id="Fill-24_1_" class="st3" d="M40.9 17.5h1.6l-0.3 1.4h1l-0.2 1.3 -1 0 -0.5 3.2 0 0.1v0.1l0 0.1 0 0 0 0 0 0 0 0 0 0 0 0 0 0 0.1 0 0.1 0 0.1 0 0.1 0 0.1 0h0.2l0.1 0 0.1 0 0.1 0 0.1 0 0.1 0 0 0 0 0 -0.2 1.1 0 0 0 0 0 0 0 0 0 0 0 0 0 0 -0.1 0 -0.1 0 -0.1 0 -0.1 0 -0.1 0 -0.1 0 -0.1 0 -0.1 0 -0.1 0h-0.4l-0.2 0 -0.2 0 -0.2 0 -0.2 0 -0.1 0 -0.1-0.1 -0.1-0.1L40 24.8l-0.1-0.1 0-0.1 0-0.1 0-0.1 0-0.1 0-0.1 0-0.1 0-0.1L40.9 17.5"/>
                <path id="Stroke-25" class="st13" d="M40.9 17.5h1.6l-0.3 1.4h1l-0.2 1.3 -1 0 -0.5 3.2 0 0.1v0.1l0 0.1 0 0 0 0 0 0 0 0 0 0 0 0 0 0 0.1 0 0.1 0 0.1 0 0.1 0 0.1 0h0.2l0.1 0 0.1 0 0.1 0 0.1 0 0.1 0 0 0 0 0 -0.2 1.1 0 0 0 0 0 0 0 0 0 0 0 0 0 0 -0.1 0 -0.1 0 -0.1 0 -0.1 0 -0.1 0 -0.1 0 -0.1 0 -0.1 0 -0.1 0h-0.4l-0.2 0 -0.2 0 -0.2 0 -0.2 0 -0.1 0 -0.1-0.1 -0.1-0.1L40 24.8l-0.1-0.1 0-0.1 0-0.1 0-0.1 0-0.1 0-0.1 0-0.1 0-0.1L40.9 17.5"/>
                <path id="Fill-26" class="st3" d="M31 22.4l0 0.1 0 0.1 0 0.1 0 0.1 0 0.1 0 0.1 0.1 0.1 0.1 0.1 0.1 0.1 0.1 0.1 0.1 0.1 0.1 0.1 0.1 0.1 0.1 0.1 0.1 0 0.1 0 0.1 0 0.1 0 0.2 0 0.1 0 0.2 0H33l0.2 0 0.2 0 0.2 0 0.2 0 0.2 0 0.2-0.1 0.2-0.1 0.2-0.1 0.2-0.1 0.2-0.1 -0.3 1.4 -0.1 0 -0.1 0 -0.1 0L34 25l-0.1 0 -0.1 0 -0.1 0 -0.1 0 -0.1 0 -0.1 0 -0.1 0 -0.1 0 -0.1 0h-0.2l-0.2 0h-0.3l-0.1 0 -0.1 0 -0.1 0 -0.1 0 -0.1 0 -0.1 0 -0.1 0 -0.1 0 -0.1 0 -0.1-0.1 -0.1-0.1 -0.1-0.1 -0.1-0.1 -0.1-0.1 -0.1-0.1 -0.1-0.1L30 24.3l-0.1-0.1 -0.1-0.1 -0.1-0.1 -0.1-0.1 -0.1-0.1 -0.1-0.2 -0.1-0.2 0-0.2 0-0.2 0-0.2 0-0.2v-0.2l0-0.2 0-0.2 0-0.1 0-0.1 0-0.1 0-0.1 0-0.1 0-0.1 0-0.1 0-0.1 0-0.1 0-0.1 0.1-0.1 0.1-0.1 0.1-0.1 0.1-0.1 0.1-0.1L30 20l0.1-0.1 0.1-0.1 0.1-0.1 0.1-0.1 0.1-0.1 0.1-0.1 0.1-0.1 0.2-0.1 0.2-0.1 0.2-0.1 0.2-0.1 0.2 0 0.2 0 0.2 0 0.2 0 0.2 0h0.1l0.1 0 0.1 0 0.1 0 0.1 0 0.1 0 0.1 0 0.1 0 0.1 0 0.1 0 0.1 0 0.1 0.1 0.1 0.1 0.1 0.1 0.1 0.1 0.1 0.1 0.1 0.1 0.1 0.1 0.1 0.1 0.1 0.1 0.1 0.1 0.1 0.1 0 0.2 0 0.2 0 0.2 0 0.2 0 0.2v0.2l0 0.2 0 0.2 0 0.2 0 0.3 -0.1 0.4h-4.2l0.3-1.1h2.5l0-0.2V21l0-0.1 0-0.1 0-0.1 0-0.1 -0.1-0.1 -0.1-0.1 -0.1-0.1L33 20.3l-0.1 0 -0.1 0 -0.1 0 -0.1 0 -0.1 0 -0.1 0h-0.1l-0.1 0 -0.1 0 -0.1 0 -0.1 0 -0.1 0.1 -0.1 0.1 -0.1 0.1 -0.1 0.1 -0.1 0.1 -0.1 0.1 -0.1 0.1 0 0.1 0 0.1 0 0.1 0 0.1L31 22.4"/>
                <path id="Stroke-27" class="st13" d="M31 22.4L31 22.4l0 0.1 0 0.1 0 0.1 0 0.1 0 0.1 0 0.1 0.1 0.1 0.1 0.1 0.1 0.1 0.1 0.1 0.1 0.1 0.1 0.1 0.1 0.1 0.1 0.1 0.1 0 0.1 0 0.1 0 0.1 0 0.2 0 0.1 0 0.2 0H33l0.2 0 0.2 0 0.2 0 0.2 0 0.2 0 0.2-0.1 0.2-0.1 0.2-0.1 0.2-0.1 0.2-0.1 -0.3 1.4 -0.1 0 -0.1 0 -0.1 0L34 25l-0.1 0 -0.1 0 -0.1 0 -0.1 0 -0.1 0 -0.1 0 -0.1 0 -0.1 0 -0.1 0h-0.2l-0.2 0h-0.3l-0.1 0 -0.1 0 -0.1 0 -0.1 0 -0.1 0 -0.1 0 -0.1 0 -0.1 0 -0.1 0 -0.1-0.1 -0.1-0.1 -0.1-0.1 -0.1-0.1 -0.1-0.1 -0.1-0.1 -0.1-0.1L30 24.3l-0.1-0.1 -0.1-0.1 -0.1-0.1 -0.1-0.1 -0.1-0.1 -0.1-0.2 -0.1-0.2 0-0.2 0-0.2 0-0.2 0-0.2v-0.2l0-0.2 0-0.2 0-0.1 0-0.1 0-0.1 0-0.1 0-0.1 0-0.1 0-0.1 0-0.1 0-0.1 0-0.1 0.1-0.1 0.1-0.1 0.1-0.1 0.1-0.1 0.1-0.1L30 20l0.1-0.1 0.1-0.1 0.1-0.1 0.1-0.1 0.1-0.1 0.1-0.1 0.1-0.1 0.2-0.1 0.2-0.1 0.2-0.1 0.2-0.1 0.2 0 0.2 0 0.2 0 0.2 0 0.2 0h0.1l0.1 0 0.1 0 0.1 0 0.1 0 0.1 0 0.1 0 0.1 0 0.1 0 0.1 0 0.1 0 0.1 0.1 0.1 0.1 0.1 0.1 0.1 0.1 0.1 0.1 0.1 0.1 0.1 0.1 0.1 0.1 0.1 0.1 0.1 0.1 0.1 0.1 0 0.2 0 0.2 0 0.2 0 0.2 0 0.2v0.2l0 0.2 0 0.2 0 0.2 0 0.3 -0.1 0.4h-4.2l0.3-1.1h2.5l0-0.2V21l0-0.1 0-0.1 0-0.1 0-0.1 -0.1-0.1 -0.1-0.1 -0.1-0.1L33 20.3l-0.1 0 -0.1 0 -0.1 0 -0.1 0 -0.1 0 -0.1 0h-0.1l-0.1 0 -0.1 0 -0.1 0 -0.1 0 -0.1 0.1 -0.1 0.1 -0.1 0.1 -0.1 0.1 -0.1 0.1 -0.1 0.1 -0.1 0.1 0 0.1 0 0.1 0 0.1 0 0.1L31 22.4"/>
                <path id="Fill-28_1_" class="st3" d="M28.8 23.9l-0.2 1.3h-1.5l0-0.1 0-0.1 0-0.1 0-0.1 0-0.1 0-0.1 0 0 0 0 -0.1 0.1L27 24.6l-0.1 0.1 -0.1 0.1 -0.1 0.1L26.5 25 26.4 25l-0.2 0.1L26 25.1l-0.2 0 -0.2 0 -0.2 0 -0.2 0 -0.2 0 -0.2 0 -0.2 0 -0.2 0 -0.2-0.1L24.3 25l-0.1-0.1L24 24.8l-0.1-0.1 -0.1-0.1 -0.1-0.1 -0.1-0.1 -0.1-0.1 0-0.1 0-0.1 0-0.1 0-0.1 0-0.1 0-0.1 0-0.2 0-0.2 0.1-0.2 0.1-0.2 0.1-0.2 0.1-0.2 0.1-0.2 0.1-0.2 0.2-0.1 0.2-0.1 0.2-0.1 0.2-0.1 0.2-0.1 0.2-0.1 0.2 0 0.2 0h0l0 0 0 0 0.1 0 0.1 0 0.1 0 0.1 0 0.1 0 0.1 0 0.1 0 0.1 0 0.1 0 0.1 0 0.1 0 0.1 0H27l0.1 0h0.1l0.1 0h0.1l0.1 0h0.1l0 0h0l0 0h0l0 0 0-0.1 0-0.1v-0.1l0-0.1 0-0.1 0-0.1 0-0.1 0-0.1 0-0.1 0 0 0 0 -0.1 0 -0.1 0 -0.1 0 -0.1 0 -0.1 0 -0.1 0 -0.1 0 -0.1 0 -0.2 0 -0.2 0 -0.2 0 -0.2 0 -0.2 0 -0.2 0 -0.2 0 -0.2 0 -0.2 0 -0.2 0 -0.1 0 -0.1 0 -0.1 0 -0.1 0 -0.1 0 -0.1 0 0.4-1.4 0.1-0.1 0.1-0.1 0.1 0 0.1 0 0.1 0 0.1 0 0.2 0 0.2 0 0.2 0 0.2 0 0.2 0H27l0.2 0 0.2 0 0.2 0 0.2 0 0.2 0 0.2 0.1 0.2 0.1 0.2 0.1 0.2 0.1 0.2 0.1 0.1 0.1 0.1 0.1 0.1 0.2 0.1 0.2 0.1 0.2 0 0.2 0 0.2 0 0.2L28.8 23.9"/>
                <path id="Stroke-29_1_" class="st13" d="M28.8 23.9l-0.2 1.3h-1.5l0-0.1 0-0.1 0-0.1 0-0.1 0-0.1 0-0.1 0 0 0 0 -0.1 0.1L27 24.6l-0.1 0.1 -0.1 0.1 -0.1 0.1L26.5 25 26.4 25l-0.2 0.1L26 25.1l-0.2 0 -0.2 0 -0.2 0 -0.2 0 -0.2 0 -0.2 0 -0.2 0 -0.2 0 -0.2-0.1L24.3 25l-0.1-0.1L24 24.8l-0.1-0.1 -0.1-0.1 -0.1-0.1 -0.1-0.1 -0.1-0.1 0-0.1 0-0.1 0-0.1 0-0.1 0-0.1 0-0.1 0-0.2 0-0.2 0.1-0.2 0.1-0.2 0.1-0.2 0.1-0.2 0.1-0.2 0.1-0.2 0.2-0.1 0.2-0.1 0.2-0.1 0.2-0.1 0.2-0.1 0.2-0.1 0.2 0 0.2 0h0l0 0 0 0 0.1 0 0.1 0 0.1 0 0.1 0 0.1 0 0.1 0 0.1 0 0.1 0 0.1 0 0.1 0 0.1 0 0.1 0H27l0.1 0h0.1l0.1 0h0.1l0.1 0h0.1l0 0h0l0 0h0l0 0 0-0.1 0-0.1v-0.1l0-0.1 0-0.1 0-0.1 0-0.1 0-0.1 0-0.1 0 0 0 0 -0.1 0 -0.1 0 -0.1 0 -0.1 0 -0.1 0 -0.1 0 -0.1 0 -0.1 0 -0.2 0 -0.2 0 -0.2 0 -0.2 0 -0.2 0 -0.2 0 -0.2 0 -0.2 0 -0.2 0 -0.2 0 -0.1 0 -0.1 0 -0.1 0 -0.1 0 -0.1 0 -0.1 0 0.4-1.4 0.1-0.1 0.1-0.1 0.1 0 0.1 0 0.1 0 0.1 0 0.2 0 0.2 0 0.2 0 0.2 0 0.2 0H27l0.2 0 0.2 0 0.2 0 0.2 0 0.2 0 0.2 0.1 0.2 0.1 0.2 0.1 0.2 0.1 0.2 0.1 0.1 0.1 0.1 0.1 0.1 0.2 0.1 0.2 0.1 0.2 0 0.2 0 0.2 0 0.2L28.8 23.9"/>
                <path id="Fill-30_1_" class="st12" d="M27.4 22.3L27.4 22.3 27.4 22.3 27.4 22.3l-0.1-0.1 -0.1 0 -0.1 0h-0.2l-0.1 0 -0.1 0 -0.1 0 -0.1 0 -0.1 0 -0.1 0 -0.1 0 -0.1 0 0 0 0 0 -0.1 0 -0.1 0 -0.1 0 -0.1 0 -0.1 0 -0.1 0 -0.1 0.1 -0.1 0.1 -0.1 0.1 -0.1 0.1 -0.1 0.1 0 0.1 0 0.1 0 0.1 0 0.2 0 0.2 0 0.1 0.1 0.1 0.1 0.1 0.1 0 0.1 0 0.1 0 0.2 0 0.2 0 0.1 0 0.1 0 0.1 0 0.1 0 0.1-0.1 0.1-0.1 0.1-0.1 0.1-0.1 0.1-0.1 0-0.1 0-0.1 0-0.1 0-0.1 0-0.1 0-0.1 0-0.1 0-0.1 0-0.1 0-0.1 0-0.1L27.4 22.3 27.4 22.3"/>
                <path id="Fill-31_1_" class="st3" d="M16.5 25.1H15l1.3-7.6H19l0.3 4.5 1.9-4.5h2.9l-1.3 7.6h-1.6l1-5.7h-0.1l-2.4 5.7h-1.8l0-0.2 0-0.6 -0.2-3 -0.1-0.9 0-0.7 0-0.3h-0.1 0L16.5 25.1"/>
                <path id="Stroke-32" class="st13" d="M16.5 25.1H15l1.3-7.6H19l0.3 4.5 1.9-4.5h2.9l-1.3 7.6h-1.6l1-5.7h-0.1l-2.4 5.7h-1.8l0-0.2 0-0.6 -0.2-3 -0.1-0.9 0-0.7 0-0.3h-0.1 0L16.5 25.1"/>
                <path id="Fill-33_1_" class="st3" d="M43 25.1h1.7l0.6-3.3 0-0.1 0-0.1 0-0.1 0-0.1 0-0.1 0.1-0.1 0.1-0.1 0.1-0.1 0.1-0.1 0.1-0.1 0.1-0.1 0.1-0.1 0.2-0.1 0.2 0 0.2 0 0.2 0h0l0 0 0 0h0l0 0 0 0 0 0h0l0 0 0-0.1 0-0.1 0-0.1 0-0.1 0-0.2 0.1-0.2 0.1-0.2 0-0.1 0.1-0.1 0.1-0.1 0.1-0.1 0-0.1 0-0.1 0 0 0 0h0l0 0 0 0 0 0 0 0 0 0 0 0h0l-0.2 0 -0.2 0 -0.2 0 -0.1 0 -0.1 0L46.5 19l-0.1 0.1 -0.1 0.1 -0.1 0.1 -0.1 0.1L46 19.4l-0.1 0.1 -0.1 0.1 -0.1 0.1 -0.1 0.1L45.6 20l0.2-1 -1.7 0L43 25.1"/>
                <path id="Stroke-34" class="st13" d="M43 25.1h1.7l0.6-3.3 0-0.1 0-0.1 0-0.1 0-0.1 0-0.1 0.1-0.1 0.1-0.1 0.1-0.1 0.1-0.1 0.1-0.1 0.1-0.1 0.1-0.1 0.2-0.1 0.2 0 0.2 0 0.2 0h0l0 0 0 0h0l0 0 0 0 0 0h0l0 0 0-0.1 0-0.1 0-0.1 0-0.1 0-0.2 0.1-0.2 0.1-0.2 0-0.1 0.1-0.1 0.1-0.1 0.1-0.1 0-0.1 0-0.1 0 0 0 0h0l0 0 0 0 0 0 0 0 0 0 0 0h0l-0.2 0 -0.2 0 -0.2 0 -0.1 0 -0.1 0L46.5 19l-0.1 0.1 -0.1 0.1 -0.1 0.1 -0.1 0.1L46 19.4l-0.1 0.1 -0.1 0.1 -0.1 0.1 -0.1 0.1L45.6 20l0.2-1 -1.7 0L43 25.1"/>
                <path id="Fill-35_1_" class="st3" d="M50.2 18.8l0.2 0 0.2 0 0.2 0 0.2 0 0.2 0 0.2 0 0.2 0 0.1 0.1 0.1 0.1 0.1 0.1 0.1 0.1 0.1 0.1 0.1 0.1 0.1 0.1 0.1 0.1 0.1 0.1 0.1 0.1 0.1 0.1 0.1 0.1 0.1 0.1 0.1 0.1 0.1 0.1 0.1 0.1 0 0.1 0 0.1 0 0.2 0 0.2 0 0.2 0 0.2 0 0.2 0 0.2 0 0.2 0 0.2 0 0.2 0 0.2 0 0.2 0 0.2L53 23.1 53 23.3l-0.1 0.2 -0.1 0.2 -0.1 0.1 -0.1 0.1L52.6 24l-0.1 0.1 -0.1 0.1 -0.1 0.1 -0.1 0.1 -0.1 0.1 -0.1 0.1 -0.1 0.1 -0.1 0.1 -0.1 0.1 -0.1 0.1L51.3 25l-0.1 0.1 -0.1 0 -0.2 0 -0.2 0 -0.2 0 -0.2 0 -0.2 0 -0.2 0 -0.2 0 -0.2 0 -0.2 0 -0.2 0 -0.2 0 -0.2 0 -0.2 0 -0.1 0 -0.1 0L48.5 25l-0.1-0.1 -0.1-0.1 -0.1-0.1L48 24.7l-0.1-0.1 -0.1-0.1 -0.1-0.1 -0.1-0.1 -0.1-0.1 -0.1-0.1L47.3 24l-0.1-0.1 -0.1-0.1 -0.1-0.1L47 23.5l0-0.2 0-0.2 0-0.2 0-0.2 0-0.2 0-0.2 0-0.2 0-0.2 0-0.2 0-0.2 0-0.2 0-0.2 0-0.2 0-0.2 0.1-0.2 0.1-0.2 0.1-0.2 0.1-0.1 0.1-0.1 0.1-0.1 0.1-0.1 0.1-0.1 0.1-0.1 0.1-0.1 0.1-0.1 0.1-0.1 0.1-0.1 0.1-0.1 0.1-0.1 0.1-0.1 0.1-0.1 0.1-0.1 0.2 0 0.2 0 0.2 0 0.2 0 0.2 0 0.2 0 0.2 0L50.2 18.8"/>
                <path id="Stroke-36" class="st13" d="M50.2 18.8L50.2 18.8l0.2 0 0.2 0 0.2 0 0.2 0 0.2 0 0.2 0 0.2 0 0.1 0.1 0.1 0.1 0.1 0.1 0.1 0.1 0.1 0.1 0.1 0.1 0.1 0.1 0.1 0.1 0.1 0.1 0.1 0.1 0.1 0.1 0.1 0.1 0.1 0.1 0.1 0.1 0.1 0.1 0.1 0.1 0 0.1 0 0.1 0 0.2 0 0.2 0 0.2 0 0.2 0 0.2 0 0.2 0 0.2 0 0.2 0 0.2 0 0.2 0 0.2 0 0.2L53 23.1 53 23.3l-0.1 0.2 -0.1 0.2 -0.1 0.1 -0.1 0.1L52.6 24l-0.1 0.1 -0.1 0.1 -0.1 0.1 -0.1 0.1 -0.1 0.1 -0.1 0.1 -0.1 0.1 -0.1 0.1 -0.1 0.1 -0.1 0.1L51.3 25l-0.1 0.1 -0.1 0 -0.2 0 -0.2 0 -0.2 0 -0.2 0 -0.2 0 -0.2 0 -0.2 0 -0.2 0 -0.2 0 -0.2 0 -0.2 0 -0.2 0 -0.2 0 -0.1 0 -0.1 0L48.5 25l-0.1-0.1 -0.1-0.1 -0.1-0.1L48 24.7l-0.1-0.1 -0.1-0.1 -0.1-0.1 -0.1-0.1 -0.1-0.1 -0.1-0.1L47.3 24l-0.1-0.1 -0.1-0.1 -0.1-0.1L47 23.5l0-0.2 0-0.2 0-0.2 0-0.2 0-0.2 0-0.2 0-0.2 0-0.2 0-0.2 0-0.2 0-0.2 0-0.2 0-0.2 0-0.2 0.1-0.2 0.1-0.2 0.1-0.2 0.1-0.1 0.1-0.1 0.1-0.1 0.1-0.1 0.1-0.1 0.1-0.1 0.1-0.1 0.1-0.1 0.1-0.1 0.1-0.1 0.1-0.1 0.1-0.1 0.1-0.1 0.1-0.1 0.1-0.1 0.2 0 0.2 0 0.2 0 0.2 0 0.2 0 0.2 0 0.2 0L50.2 18.8"/>
                <path id="Fill-37_1_" class="st3" d="M52.6 24.8h0.5v0.1h-0.2v0.4h-0.1v-0.4L52.6 24.8 52.6 24.8"/>
                <path id="Stroke-38" class="st13" d="M52.6 24.8h0.5v0.1h-0.2v0.4h-0.1v-0.4L52.6 24.8 52.6 24.8"/>
                <path id="Fill-39_1_" class="st3" d="M53.1 24.8h0.1l0.2 0.4 0.2-0.4h0.1v0.5h-0.1v-0.4l-0.2 0.4h-0.1l-0.2-0.4v0.4h-0.1V24.8"/>
                <path id="Stroke-40" class="st13" d="M53.1 24.8h0.1l0.2 0.4 0.2-0.4h0.1v0.5h-0.1v-0.4l-0.2 0.4h-0.1l-0.2-0.4v0.4h-0.1V24.8"/>
                <path id="Fill-41_1_" class="st2" d="M48.9 21.8l0 0.2 0 0.2v0.2l0 0.2 0 0.2 0 0.1 0 0.1 0.1 0.1 0.1 0.1 0.1 0.1 0.1 0.1 0.1 0.1 0.1 0 0.1 0 0.1 0 0.1 0 0.1 0 0.1 0 0.1 0 0.1 0 0.1-0.1 0.1-0.1 0.1-0.1 0.1-0.1 0.1-0.1 0.1-0.1 0.1-0.1 0.1-0.2 0.1-0.2 0.1-0.2 0-0.2 0-0.2 0-0.2 0-0.2v-0.2l0-0.2 0-0.1 0-0.1 0-0.1 -0.1-0.1L51 20.6 51 20.5l-0.1-0.1 -0.1-0.1 -0.1-0.1 -0.1 0 -0.1 0h-0.1l-0.2 0 -0.2 0 -0.1 0 -0.1 0.1 -0.1 0.1 -0.1 0.1 -0.1 0.1 -0.1 0.1 -0.1 0.1L49.1 21l-0.1 0.1L49 21.3l0 0.1 0 0.1 0 0.1L48.9 21.8"/>
              </g>
            </g>
          </g>
        </g>
      </g>
    </g>
  </g>
</svg>
