<svg xmlns:sketch="http://www.bohemiancoding.com/sketch/ns" xmlns="http://www.w3.org/2000/svg" xmlns:xlink="http://www.w3.org/1999/xlink" version="1.1" id="Layer_1" x="0" y="0" width="270" height="33" viewBox="0 0 270 33" xml:space="preserve" enable-background="new 0 0 270 33">
  <style type="text/css">
    
	.st0{fill:#F9F9F9;stroke:#F4F2F2;}
	.st1{fill:#FBB231;}
	.st2{fill:#EC1C2E;}
	.st3{fill:#FFFFFF;}
	.st4{fill:none;stroke:#FFFFFF;stroke-width:0.216;}
	.st5{fill:#0066B2;}
	.st6{fill:#F9A533;}
	.st7{enable-background:new    ;}
	.st8{fill:#175FA0;}
	.st9{fill:#045EA0;}
	.st10{fill:#FAA929;}
	.st11{fill:#F9F9F9;stroke:#F3F2F2;}
	.st12{fill:#0084C4;}
	.st13{fill:none;stroke:#FFFFFF;stroke-width:0.215;}

  </style>
  <title>
    credit cards mobile
  </title>
  <desc>
    Created with Sketch.
  </desc>
  <g id="PAA" sketch:type="MSPage">
    <g id="Mobile-portrait-2" transform="translate(-24.000000, -1118.000000)" sketch:type="MSArtboardGroup">
      <g id="Payment" transform="translate(-101.000000, 89.000000)" sketch:type="MSLayerGroup">
        <g id="form-2" transform="translate(111.000000, 443.000000)">
          <g id="credit-cards-mobile" transform="translate(15.000000, 587.000000)">
            <g id="Mastercard" transform="translate(165.000000, 0.000000)" sketch:type="MSShapeGroup">
              <path id="Fill-1" class="st0" d="M48.3 29c0 0.9-0.7 1.6-1.6 1.6H1.5c-0.9 0-1.6-0.7-1.6-1.6V1.5c0-0.9 0.7-1.6 1.6-1.6h45.2c0.9 0 1.6 0.7 1.6 1.6V29"/>
              <path id="Fill-2" class="st1" d="M29.9 23.7l0.4 0 0.4 0 0.4-0.1 0.4-0.1 0.4-0.1 0.4-0.1 0.4-0.1 0.4-0.2 0.4-0.2 0.4-0.2 0.4-0.2 0.4-0.2 0.3-0.2 0.3-0.3 0.3-0.3 0.3-0.3 0.3-0.3 0.3-0.3 0.3-0.3 0.2-0.3 0.2-0.4 0.2-0.4 0.2-0.4 0.2-0.4L38 18l0.1-0.4 0.1-0.4 0.1-0.4 0.1-0.4 0.1-0.4 0-0.4 0-0.4 0-0.4 0-0.4 -0.1-0.4 -0.1-0.4 -0.1-0.4 -0.1-0.4L38 12l-0.2-0.4 -0.2-0.4 -0.2-0.4 -0.2-0.4 -0.2-0.4 -0.2-0.3 -0.3-0.3 -0.3-0.3L36 8.8l-0.3-0.3 -0.3-0.3L35.1 8l-0.3-0.2 -0.4-0.2L34 7.4l-0.4-0.2L33.2 7l-0.4-0.2 -0.4-0.1L32 6.6l-0.4-0.1 -0.4-0.1 -0.4-0.1 -0.4 0 -0.4 0 -0.4 0 -0.4 0 -0.4 0.1 -0.4 0.1 -0.4 0.1 -0.4 0.1 -0.4 0.1L26.5 7l-0.4 0.2 -0.4 0.2 -0.4 0.2L25 7.8 24.7 8l-0.3 0.3L24 8.6l-0.3 0.3 -0.3 0.3 -0.3 0.3 -0.3 0.3 -0.2 0.3 -0.2 0.4 -0.2 0.4L22 11.2l-0.2 0.4L21.7 12l-0.1 0.4 -0.1 0.4 -0.1 0.4 -0.1 0.4 -0.1 0.4 0 0.4 0 0.4 0 0.4 0 0.4 0.1 0.4 0.1 0.4 0.1 0.4 0.1 0.4 0.1 0.4 0.2 0.4 0.2 0.4 0.2 0.4 0.2 0.4 0.2 0.4 0.2 0.3 0.3 0.3 0.3 0.3 0.3 0.3 0.3 0.3 0.3 0.3 0.3 0.3 0.3 0.2 0.4 0.2 0.4 0.2 0.4 0.2 0.4 0.2 0.4 0.2 0.4 0.1 0.4 0.1 0.4 0.1 0.4 0.1 0.4 0.1 0.4 0L29.9 23.7"/>
              <path id="Fill-3" class="st2" d="M18.2 23.7l0.4 0 0.4 0 0.4-0.1 0.4-0.1 0.4-0.1 0.4-0.1 0.4-0.1 0.4-0.2 0.4-0.2 0.4-0.2 0.4-0.2 0.4-0.2 0.3-0.2 0.3-0.3 0.3-0.3 0.3-0.3 0.3-0.3 0.3-0.3 0.3-0.3 0.2-0.3 0.2-0.4 0.2-0.4 0.2-0.4 0.2-0.4 0.2-0.4 0.1-0.4 0.1-0.4 0.1-0.4 0.1-0.4 0.1-0.4 0-0.4 0-0.4 0-0.4 0-0.4 -0.1-0.4 -0.1-0.4 -0.1-0.4 -0.1-0.4L26.4 12l-0.2-0.4 -0.2-0.4 -0.2-0.4 -0.2-0.4 -0.2-0.4 -0.2-0.3 -0.3-0.3 -0.3-0.3 -0.3-0.3 -0.3-0.3 -0.3-0.3L23.4 8l-0.3-0.2 -0.4-0.2 -0.4-0.2L22 7.2 21.6 7l-0.4-0.2 -0.4-0.1 -0.4-0.1L20 6.5l-0.4-0.1 -0.4-0.1 -0.4 0 -0.4 0 -0.4 0 -0.4 0 -0.4 0.1 -0.4 0.1 -0.4 0.1 -0.4 0.1 -0.4 0.1L14.9 7l-0.4 0.2 -0.4 0.2 -0.4 0.2 -0.4 0.2L13 8l-0.3 0.3 -0.3 0.3 -0.3 0.3 -0.3 0.3 -0.3 0.3 -0.3 0.3L11 10.1l-0.2 0.4 -0.2 0.4 -0.2 0.4 -0.2 0.4L10.1 12l-0.1 0.4 -0.1 0.4 -0.1 0.4 -0.1 0.4 -0.1 0.4 0 0.4 0 0.4 0 0.4 0 0.4 0.1 0.4 0.1 0.4 0.1 0.4 0.1 0.4 0.1 0.4 0.2 0.4 0.2 0.4 0.2 0.4 0.2 0.4 0.2 0.4 0.2 0.3 0.3 0.3 0.3 0.3 0.3 0.3 0.3 0.3 0.3 0.3 0.3 0.3 0.3 0.2 0.4 0.2 0.4 0.2 0.4 0.2 0.4 0.2 0.4 0.2 0.4 0.1 0.4 0.1 0.4 0.1 0.4 0.1 0.4 0.1 0.4 0L18.2 23.7"/>
              <path id="Fill-4" class="st1" d="M23 9.6h4.6V9.2h-4.2L23 9.6"/>
              <path id="Fill-5" class="st1" d="M22.3 10.7h5.3v-0.5h-5L22.3 10.7"/>
              <path id="Fill-6" class="st1" d="M21.8 11.7h5.8v-0.5H22L21.8 11.7"/>
              <path id="Fill-7" class="st1" d="M21.5 12.8h6.2v-0.5h-6L21.5 12.8"/>
              <path id="Fill-8" class="st1" d="M21.7 17.8h6v-0.5h-6.1L21.7 17.8"/>
              <path id="Fill-9" class="st1" d="M22.1 18.9h5.5v-0.5h-5.8L22.1 18.9"/>
              <path id="Fill-10" class="st1" d="M22.7 19.9h4.9v-0.5h-5.2L22.7 19.9"/>
              <path id="Fill-11" class="st1" d="M23.6 21h4.1v-0.5h-4.5L23.6 21"/>
              <path id="Fill-12" class="st1" d="M21.3 13.8h6.4v-0.5h-6.3L21.3 13.8"/>
              <path id="Fill-13" class="st1" d="M25.2 16.8h2.4v-0.5h-2.3L25.2 16.8"/>
              <path id="Fill-14" class="st1" d="M25.3 15.8h2.2v-0.5h-2.2L25.3 15.8"/>
              <path id="Fill-15" class="st1" d="M21.1 15.3h0.6v0.5h-0.6L21.1 15.3"/>
              <path id="Fill-16" class="st3" d="M19.9 14.7L19.9 14.7 19.9 14.7l-0.1 0 0 0 0 0 0 0 0 0 0 0 0 0 0 0 -0.1 0 -0.1 0h-0.1l-0.1 0 -0.1 0 -0.1 0 -0.1 0 -0.1 0 0 0 0 0 0 0 0 0 0 0 0 0 0 0 0 0 0 0v0l0 0 0 0 0 0 0 0 0.1 0.1 0.1 0 0.1 0 0.1 0 0.1 0 0.1 0 0.1 0 0.1 0 0.1 0 0.1 0.1 0.1 0.1 0.1 0.1 0 0.1 0 0.1 0 0.2 0 0.2 0 0.1 0 0.1 0 0.1 -0.1 0.1 -0.1 0.1 -0.1 0.1L19.5 17 19.4 17l-0.1 0 -0.1 0 -0.1 0 -0.1 0 -0.1 0 -0.1 0 -0.1 0 -0.1 0h-0.1l-0.1 0h-0.1l-0.1 0 -0.1 0 -0.1 0 -0.1 0 -0.1 0 -0.1 0 -0.1 0 -0.1 0 0 0 -0.1 0 0 0 0 0 0 0 0.1-0.6 0 0 0 0 0 0 0.1 0 0.1 0 0.1 0 0.1 0 0.1 0 0.1 0 0.1 0 0.1 0 0.1 0 0.1 0 0.1 0h0.1l0.1 0 0.1 0 0.1 0 0.1 0 0 0 0 0 0 0 0 0 0 0 0-0.1 0-0.1L18.9 16l-0.1 0 -0.1 0 -0.1 0 -0.1 0 -0.1 0 -0.1-0.1 -0.1-0.1 -0.1-0.1L18 15.5l-0.1-0.1 -0.1-0.1 0-0.2 0-0.2 0-0.1 0-0.1 0-0.1 0-0.1 0-0.1 0.1-0.1 0.1-0.1 0.1-0.1 0.1-0.1 0.1 0 0.1 0 0.1 0 0.1 0 0.1 0 0.2 0 0.2 0h0.1l0.1 0 0.1 0 0.1 0 0.1 0 0.1 0 0.1 0 0.1 0 0.1 0 0 0 0 0 0 0 0 0 0 0 0 0 0 0L19.9 14.7"/>
              <path id="Stroke-17" class="st4" d="M19.9 14.7L19.9 14.7 19.9 14.7 19.9 14.7l-0.1 0 0 0 0 0 0 0 0 0 0 0 0 0 0 0 -0.1 0 -0.1 0h-0.1l-0.1 0 -0.1 0 -0.1 0 -0.1 0 -0.1 0 0 0 0 0 0 0 0 0 0 0 0 0 0 0 0 0 0 0v0l0 0 0 0 0 0 0 0 0.1 0.1 0.1 0 0.1 0 0.1 0 0.1 0 0.1 0 0.1 0 0.1 0 0.1 0 0.1 0.1 0.1 0.1 0.1 0.1 0 0.1 0 0.1 0 0.2 0 0.2 0 0.1 0 0.1 0 0.1 -0.1 0.1 -0.1 0.1 -0.1 0.1L19.5 17 19.4 17l-0.1 0 -0.1 0 -0.1 0 -0.1 0 -0.1 0 -0.1 0 -0.1 0 -0.1 0h-0.1l-0.1 0h-0.1l-0.1 0 -0.1 0 -0.1 0 -0.1 0 -0.1 0 -0.1 0 -0.1 0 -0.1 0 0 0 -0.1 0 0 0 0 0 0 0 0.1-0.6 0 0 0 0 0 0 0.1 0 0.1 0 0.1 0 0.1 0 0.1 0 0.1 0 0.1 0 0.1 0 0.1 0 0.1 0 0.1 0h0.1l0.1 0 0.1 0 0.1 0 0.1 0 0 0 0 0 0 0 0 0 0 0 0-0.1 0-0.1L18.9 16l-0.1 0 -0.1 0 -0.1 0 -0.1 0 -0.1 0 -0.1-0.1 -0.1-0.1 -0.1-0.1L18 15.5l-0.1-0.1 -0.1-0.1 0-0.2 0-0.2 0-0.1 0-0.1 0-0.1 0-0.1 0-0.1 0.1-0.1 0.1-0.1 0.1-0.1 0.1-0.1 0.1 0 0.1 0 0.1 0 0.1 0 0.1 0 0.2 0 0.2 0h0.1l0.1 0 0.1 0 0.1 0 0.1 0 0.1 0 0.1 0 0.1 0 0.1 0 0 0 0 0 0 0 0 0 0 0 0 0 0 0L19.9 14.7"/>
              <path id="Fill-18" class="st3" d="M20.6 13.3h0.8L21.3 14h0.5l-0.1 0.7 -0.5 0 -0.3 1.6 0 0.1 0 0.1 0 0 0 0 0.1 0 0.1 0 0.1 0 0.1 0 0.1 0 0.1 0 0.1 0 0 0 0 0 0 0 0 0 0 0L21.4 17l0 0 0 0 0 0 0 0 0 0 0 0 0 0 0 0 0 0 0 0 0 0 0 0 0 0 0 0 0 0 -0.1 0h-0.2l-0.1 0 -0.1 0 -0.1 0 -0.1 0 -0.1 0 -0.1 0 0 0 0 0 0 0 0 0 0-0.1 0-0.1 0-0.1v-0.1l0-0.1 0-0.1L20.6 13.3"/>
              <path id="Stroke-19" class="st4" d="M20.6 13.3h0.8L21.3 14h0.5l-0.1 0.7 -0.5 0 -0.3 1.6 0 0.1 0 0.1 0 0 0 0 0.1 0 0.1 0 0.1 0 0.1 0 0.1 0 0.1 0 0.1 0 0 0 0 0 0 0 0 0 0 0L21.4 17l0 0 0 0 0 0 0 0 0 0 0 0 0 0 0 0 0 0 0 0 0 0 0 0 0 0 0 0 0 0 -0.1 0h-0.2l-0.1 0 -0.1 0 -0.1 0 -0.1 0 -0.1 0 -0.1 0 0 0 0 0 0 0 0 0 0-0.1 0-0.1 0-0.1v-0.1l0-0.1 0-0.1L20.6 13.3M22.4 15.8L22.4 15.8 22.4 15.8l0 0.1 0 0.1 0 0.1 0 0.1 0 0.1 0 0.1 0 0 0 0.1 0 0 0 0 0.1 0 0.1 0 0.1 0 0.1 0 0.1 0 0.1 0 0.1 0 0.1 0 0.1 0 0.1 0h0.1l0.1 0 0.1 0 0.1 0 0.1 0 0.1 0 0.1 0 0.1 0 0.1 0 0.1 0 0.1 0L24.1 17l0 0 0 0 0 0 0 0 0 0 0 0 0 0 0 0 -0.1 0 -0.1 0 -0.1 0 -0.1 0 -0.1 0h-0.1l-0.1 0h-0.1l-0.1 0 -0.1 0 -0.1 0 -0.1 0 -0.1 0L22.3 17l-0.1-0.1 -0.1-0.1 -0.1-0.1 -0.1-0.1 -0.1-0.1 -0.1-0.2 0-0.2 0-0.2 0-0.2 0-0.2 0-0.1 0-0.1 0-0.1 0-0.1 0-0.1 0.1-0.1 0.1-0.1 0.1-0.1 0.1-0.1 0.1-0.1 0.1-0.1 0.1-0.1 0.2-0.1 0.2-0.1 0.2 0 0.2 0 0.1 0 0.1 0 0.1 0 0.1 0 0.1 0 0.1 0.1 0.1 0.1 0.1 0.1 0.1 0.1 0.1 0.1 0.1 0.1 0 0.2 0 0.2 0 0.2 0 0.2 0 0.2 0 0.2h-2.1l0.1-0.6h1.3l0-0.1 0-0.1 0-0.1 0-0.1 0-0.1 0-0.1 0 0 0 0 0 0 0 0 0 0 0 0 0 0 0 0 0 0 -0.1 0 -0.1 0 -0.1 0 0 0 0 0 -0.1 0 0 0 0 0 0 0 0 0 0 0 0 0 0 0.1 0 0.1 0 0.1 0 0.1L22.4 15.8"/>
              <path id="Fill-20" class="st3" d="M29.4 14.2L29.4 14.2 29.4 14.2l-0.1-0.1 0 0 0 0 0 0 -0.1 0 -0.1 0L29 14 29 14l-0.1 0 -0.1 0 -0.1 0 -0.1 0h-0.2l-0.1 0 -0.1 0 -0.1 0 -0.1 0 -0.1 0 -0.1 0 -0.1 0.1 -0.1 0.1 -0.1 0.1 -0.1 0.1 -0.1 0.1 -0.1 0.1 -0.1 0.1L27.4 15l0 0.2 0 0.1 0 0.1 0 0.1 0 0.1 0 0.1 0 0.1 0 0.1 0 0.1 0 0.1 0.1 0.1 0.1 0.1 0.1 0.1 0.1 0.1 0.1 0 0.1 0 0.1 0 0 0 0 0 0.1 0 0.1 0 0.1 0h0.1l0.1 0 0.1 0 0.1 0 0.1 0 0.1 0 0.1 0 0.1 0 0.1 0 0.1-0.1L29 16.9l0 0 0 0 0 0 0 0 0 0 0 0 0 0 -0.1 0 -0.1 0 -0.1 0 -0.1 0 -0.1 0 -0.1 0 -0.1 0 -0.1 0 -0.2 0 -0.1 0 -0.1 0 -0.1 0L27.3 17l-0.1-0.1L27 16.8l-0.1-0.1 -0.1-0.1 -0.1-0.1 -0.1-0.1 -0.1-0.2L26.5 16l0-0.2 0-0.2 0-0.2 0-0.2 0-0.1 0-0.1 0-0.1 0-0.1 0-0.1 0-0.1 0-0.1 0-0.1 0-0.1 0-0.1 0-0.1 0.1-0.1 0.1-0.1 0.1-0.1 0.1-0.1 0.1-0.1 0.1-0.1 0.1-0.1 0.1 0 0.1 0 0.1 0 0.1 0 0.1 0 0.1 0 0.1 0 0.1 0 0.1 0 0.1 0 0.1 0 0.1 0 0.1 0 0.1 0 0.1 0 0.1 0 0.1 0 0.1 0 0.1 0 0.1 0 0.1 0 0.1 0 0.1 0 0.1 0 0.1 0 0 0 0 0 0 0 0 0 0 0L29.4 14.2"/>
              <path id="Stroke-21" class="st4" d="M29.4 14.2L29.4 14.2 29.4 14.2 29.4 14.2l-0.1-0.1 0 0 0 0 0 0 -0.1 0 -0.1 0L29 14 29 14l-0.1 0 -0.1 0 -0.1 0 -0.1 0h-0.2l-0.1 0 -0.1 0 -0.1 0 -0.1 0 -0.1 0 -0.1 0 -0.1 0.1 -0.1 0.1 -0.1 0.1 -0.1 0.1 -0.1 0.1 -0.1 0.1 -0.1 0.1L27.4 15l0 0.2 0 0.1 0 0.1 0 0.1 0 0.1 0 0.1 0 0.1 0 0.1 0 0.1 0 0.1 0.1 0.1 0.1 0.1 0.1 0.1 0.1 0.1 0.1 0 0.1 0 0.1 0 0 0 0 0 0.1 0 0.1 0 0.1 0h0.1l0.1 0 0.1 0 0.1 0 0.1 0 0.1 0 0.1 0 0.1 0 0.1 0 0.1-0.1L29 16.9l0 0 0 0 0 0 0 0 0 0 0 0 0 0 -0.1 0 -0.1 0 -0.1 0 -0.1 0 -0.1 0 -0.1 0 -0.1 0 -0.1 0 -0.2 0 -0.1 0 -0.1 0 -0.1 0L27.3 17l-0.1-0.1L27 16.8l-0.1-0.1 -0.1-0.1 -0.1-0.1 -0.1-0.1 -0.1-0.2L26.5 16l0-0.2 0-0.2 0-0.2 0-0.2 0-0.1 0-0.1 0-0.1 0-0.1 0-0.1 0-0.1 0-0.1 0-0.1 0-0.1 0-0.1 0-0.1 0.1-0.1 0.1-0.1 0.1-0.1 0.1-0.1 0.1-0.1 0.1-0.1 0.1-0.1 0.1 0 0.1 0 0.1 0 0.1 0 0.1 0 0.1 0 0.1 0 0.1 0 0.1 0 0.1 0 0.1 0 0.1 0 0.1 0 0.1 0 0.1 0 0.1 0 0.1 0 0.1 0 0.1 0 0.1 0 0.1 0 0.1 0 0.1 0 0.1 0 0.1 0 0 0 0 0 0 0 0 0 0 0L29.4 14.2"/>
              <path id="Fill-22" class="st3" d="M36.6 17.2h-0.8l0.1-0.3v0l0 0.1 0 0.1 0 0 -0.1 0 -0.1 0 -0.1 0 -0.1 0 -0.1 0 -0.1 0 -0.1 0 -0.1 0 -0.1 0 -0.1 0 -0.1 0 -0.1 0H35l-0.2 0 -0.1 0 -0.1 0 -0.1-0.1L34.4 17l-0.1-0.1 -0.1-0.1 -0.1-0.1 -0.1-0.1 0-0.1 0-0.1 0-0.1 0-0.1 0-0.2 0-0.1 0-0.1 0-0.2 0.1-0.2 0.1-0.1 0.1-0.1 0.1-0.1 0.1-0.1 0.1-0.1 0.1-0.1 0.1-0.1 0.1-0.1 0.1-0.1 0.1 0 0.1 0 0.1 0 0.1 0 0.1 0 0.1 0 0.1 0 0.1 0 0.1 0 0.1 0 0.1 0 0.1 0 0.1 0 0 0 0 0 0 0 0 0 0 0 0 0 0 0 0 0 0.2-1.2h0.8L36.6 17.2"/>
              <path id="Stroke-23" class="st4" d="M36.6 17.2h-0.8l0.1-0.3v0l0 0.1 0 0.1 0 0 -0.1 0 -0.1 0 -0.1 0 -0.1 0 -0.1 0 -0.1 0 -0.1 0 -0.1 0 -0.1 0 -0.1 0 -0.1 0 -0.1 0H35l-0.2 0 -0.1 0 -0.1 0 -0.1-0.1L34.4 17l-0.1-0.1 -0.1-0.1 -0.1-0.1 -0.1-0.1 0-0.1 0-0.1 0-0.1 0-0.1 0-0.2 0-0.1 0-0.1 0-0.2 0.1-0.2 0.1-0.1 0.1-0.1 0.1-0.1 0.1-0.1 0.1-0.1 0.1-0.1 0.1-0.1 0.1-0.1 0.1-0.1 0.1 0 0.1 0 0.1 0 0.1 0 0.1 0 0.1 0 0.1 0 0.1 0 0.1 0 0.1 0 0.1 0 0.1 0 0.1 0 0 0 0 0 0 0 0 0 0 0 0 0 0 0 0 0 0.2-1.2h0.8L36.6 17.2"/>
              <path id="Fill-24" class="st1" d="M35.3 16.5L35.3 16.5l0.2 0 0.1 0 0.1 0 0.1 0 0.1 0 0.1 0 0-0.1 0-0.1 0-0.1 0-0.1 0-0.1 0-0.1 0-0.1 0-0.1 0-0.1 0-0.1 0-0.1v-0.1l0-0.1 0-0.1 0-0.1 0-0.1 0-0.1 0-0.1 0-0.1 0 0 0 0 0 0 -0.1 0 -0.1 0 -0.1 0 -0.1 0 -0.1 0 -0.1 0 -0.1 0 -0.1 0 -0.1 0 0 0 0 0.1 0 0.1 0 0.1 0 0.1 0 0.1 0 0.1 0 0.1 0 0.1 0 0.1 0 0.1 0 0.1 0 0.1 0 0.1 0.1 0.1 0.1 0.1 0.1 0.1L35.3 16.5"/>
              <path id="Fill-25" class="st3" d="M17.3 16.5l-0.1 0.7h-0.7l0-0.1 0-0.1 0-0.1 0 0 0 0 0 0 -0.1 0 -0.1 0 -0.1 0 -0.1 0 -0.1 0 -0.1 0 -0.1 0 -0.1 0 -0.1 0 -0.1 0 -0.1 0 -0.1 0 -0.1 0 -0.1 0 -0.1 0 -0.1 0 -0.1 0 -0.1 0 -0.1 0L14.9 17l0-0.1 0-0.1 0-0.1 0-0.1 0-0.1 0-0.1 0-0.1 0-0.1 0-0.1v-0.1l0-0.1 0-0.1 0-0.1 0-0.1 0-0.1 0.1-0.1 0.1-0.1 0.1-0.1 0.1-0.1 0.1-0.1 0.1-0.1 0.1 0 0.1 0 0.1 0 0.1 0 0.1 0h0l0 0 0 0 0 0 0 0 0 0 0 0 0.1 0 0 0 0.1 0 0.1 0 0 0 0 0 0 0 0 0h0.1l0.1 0 0.1 0h0.1l0.1 0 0 0 0 0h0l0 0 0-0.1 0-0.1 0-0.1 0-0.1 0-0.1 0-0.1 0 0 -0.1 0 -0.1 0 -0.1 0 -0.1 0 -0.1 0 -0.1 0h-0.1l-0.1 0 -0.1 0 -0.1 0 -0.1 0 -0.1 0 -0.1 0 -0.1 0 -0.1 0 -0.1 0 -0.1 0 -0.1 0 0 0 0 0 0.2-0.7 0.1 0 0.1 0 0.1 0 0.1 0 0.1 0 0.1 0 0.1 0 0.1 0 0.1 0 0.1 0 0.1 0h0.3l0.1 0 0.1 0 0.1 0 0.1 0 0.1 0 0.1 0 0.1 0 0.1 0 0.1 0 0.1 0.1 0.1 0.1 0.1 0.1 0.1 0.1 0 0.1 0 0.1 0 0.1v0.1l0 0.1L17.3 16.5"/>
              <path id="Stroke-26" class="st4" d="M17.3 16.5l-0.1 0.7h-0.7l0-0.1 0-0.1 0-0.1 0 0 0 0 0 0 -0.1 0 -0.1 0 -0.1 0 -0.1 0 -0.1 0 -0.1 0 -0.1 0 -0.1 0 -0.1 0 -0.1 0 -0.1 0 -0.1 0 -0.1 0 -0.1 0 -0.1 0 -0.1 0 -0.1 0 -0.1 0 -0.1 0L14.9 17l0-0.1 0-0.1 0-0.1 0-0.1 0-0.1 0-0.1 0-0.1 0-0.1 0-0.1v-0.1l0-0.1 0-0.1 0-0.1 0-0.1 0-0.1 0.1-0.1 0.1-0.1 0.1-0.1 0.1-0.1 0.1-0.1 0.1-0.1 0.1 0 0.1 0 0.1 0 0.1 0 0.1 0h0l0 0 0 0 0 0 0 0 0 0 0 0 0.1 0 0 0 0.1 0 0.1 0 0 0 0 0 0 0 0 0h0.1l0.1 0 0.1 0h0.1l0.1 0 0 0 0 0h0l0 0 0-0.1 0-0.1 0-0.1 0-0.1 0-0.1 0-0.1 0 0 -0.1 0 -0.1 0 -0.1 0 -0.1 0 -0.1 0 -0.1 0h-0.1l-0.1 0 -0.1 0 -0.1 0 -0.1 0 -0.1 0 -0.1 0 -0.1 0 -0.1 0 -0.1 0 -0.1 0 -0.1 0 0 0 0 0 0.2-0.7 0.1 0 0.1 0 0.1 0 0.1 0 0.1 0 0.1 0 0.1 0 0.1 0 0.1 0 0.1 0 0.1 0h0.3l0.1 0 0.1 0 0.1 0 0.1 0 0.1 0 0.1 0 0.1 0 0.1 0 0.1 0 0.1 0.1 0.1 0.1 0.1 0.1 0.1 0.1 0 0.1 0 0.1 0 0.1v0.1l0 0.1L17.3 16.5"/>
              <path id="Fill-27" class="st2" d="M16.6 15.8L16.6 15.8 16.6 15.8 16.6 15.8 16.6 15.8 16.6 15.8l-0.1-0.1h-0.1l0 0 0 0 0 0 0 0 0 0 0 0 0 0 0 0 0 0 0 0 0 0 0 0 0 0 0 0 0 0 0 0 0 0 0 0 0 0 0 0 0 0 0 0 0 0 0 0 0 0.1 0 0.1 0 0.1 0 0 0 0 0.1 0 0 0 0 0 0.1 0 0.1 0 0.1 0 0.1 0 0.1 0 0.1 0 0 0 0 0 0 0 0 0 0 0 0 0 0 0 0 0 0 0 0 0 0-0.1 0-0.1L16.6 15.8 16.6 15.8"/>
              <path id="Fill-28" class="st3" d="M11.2 17.2h-0.8l0.7-3.8h1.4l0.1 2.3 1-2.3H15l-0.7 3.8h-0.8l0.5-2.9h0l-1.2 2.9h-0.9l0-0.1 0-0.3 0-0.5 -0.1-1.5 0-0.3 0-0.1h0L11.2 17.2"/>
              <path id="Stroke-29" class="st4" d="M11.2 17.2h-0.8l0.7-3.8h1.4l0.1 2.3 1-2.3H15l-0.7 3.8h-0.8l0.5-2.9h0l-1.2 2.9h-0.9l0-0.1 0-0.3 0-0.5 -0.1-1.5 0-0.3 0-0.1h0L11.2 17.2"/>
              <path id="Fill-30" class="st3" d="M31.9 16.5l-0.1 0.7H31l0-0.1 0-0.1v-0.1l0 0 0 0 0 0 -0.1 0 -0.1 0 -0.1 0 -0.1 0 -0.1 0 -0.1 0 -0.1 0 -0.1 0 -0.1 0 -0.1 0 -0.1 0 -0.1 0 -0.1 0 -0.1 0 -0.1 0 -0.1 0 -0.1 0 -0.1 0 -0.1 0L29.4 17l0-0.1 0-0.1 0-0.1 0-0.1 0-0.1 0-0.1 0-0.1 0-0.1 0-0.1v-0.1l0-0.1 0-0.1 0-0.1 0-0.1 0-0.1 0.1-0.1 0.1-0.1 0.1-0.1 0.1-0.1 0.1-0.1 0.1-0.1 0.1 0 0.1 0 0.1 0 0.1 0 0.1 0h0l0 0 0 0 0 0 0 0 0 0 0 0 0 0 0.1 0 0.1 0 0 0 0 0 0 0 0 0 0 0h0.1l0.1 0 0.1 0h0.1l0.1 0 0 0 0 0h0l0 0 0-0.1 0-0.1 0-0.1 0-0.1 0-0.1 0-0.1 0 0 -0.1 0 -0.1 0 -0.1 0 -0.1 0 -0.1 0 -0.1 0h-0.1l-0.1 0 -0.1 0 -0.1 0 -0.1 0 -0.1 0 -0.1 0 -0.1 0 -0.1 0 -0.1 0 -0.1 0 -0.1 0 0 0 0 0 0.2-0.7 0.1 0 0.1 0 0.1 0 0.1 0 0.1 0 0.1 0 0.1 0 0.1 0 0.1 0 0.1 0 0.1 0H31l0.1 0 0.1 0 0.1 0 0.1 0 0.1 0 0.1 0 0.1 0 0.1 0 0.1 0 0.1 0.1 0.1 0.1 0.1 0.1 0.1 0.1 0 0.1 0 0.1 0 0.1v0.1l0 0.1L31.9 16.5"/>
              <path id="Fill-31" class="st3" d="M31.7 17.2L31.7 17.2l0.1-0.7 0 0L31.7 17.2 31.7 17.2 31.7 17.2 31.7 17.2 31.7 17.2 31.7 17.2"/>
              <path id="Fill-32" class="st3" d="M31 17.2L31 17.2l0.8 0v0L31 17.2 31 17.2 31 17.2 31 17.2 31 17.2 31 17.2"/>
              <path id="Fill-33" class="st3" d="M31 16.8L31 16.8 31 16.8l0 0.1V17l0 0.1h0l0-0.1 0-0.1V16.8L31 16.8 31 16.8 31 16.8"/>
              <path id="Fill-34" class="st3" d="M29.9 17.2L29.9 17.2 29.9 17.2l0.2 0 0.1 0 0.1 0 0.1 0 0.1 0 0.1 0 0.1 0 0.1 0 0.1 0 0.1 0 0.1 0 0.1 0 0.1 0 0 0 0 0 0 0 0 0 0 0 -0.1 0 -0.1 0 -0.1 0 -0.1 0 -0.1 0 -0.1 0 -0.1 0 -0.1 0 -0.1 0 -0.1 0 -0.1 0 -0.1 0L29.9 17.2 29.9 17.2 29.9 17.2"/>
              <path id="Fill-35" class="st3" d="M29.2 16.3L29.2 16.3 29.2 16.3l0 0.1 0 0.1 0 0.1 0 0.1 0 0.1 0 0.1 0 0.1 0 0.1 0 0.1 0.1 0.1 0.1 0 0.1 0 0.1 0 0.1 0 0.1 0 0 0 -0.1 0 -0.1 0 -0.1 0 -0.1 0 -0.1 0 -0.1-0.1 0-0.1 0-0.1 0-0.1 0-0.1 0-0.1 0-0.1 0-0.1 0-0.1L29.2 16.3 29.2 16.3 29.2 16.3"/>
              <path id="Fill-36" class="st3" d="M30.2 15.2L30.2 15.2l-0.1 0 -0.1 0 -0.1 0 -0.1 0 -0.1 0 -0.1 0.1 -0.1 0.1 -0.1 0.1 -0.1 0.1 -0.1 0.1 -0.1 0.1 0 0.1 0 0.1 0 0.1 0 0.1 0 0.1h0l0-0.1 0-0.1 0-0.1 0-0.1 0-0.1 0.1-0.1 0.1-0.1 0.1-0.1 0.1-0.1 0.1-0.1 0.1-0.1 0.1 0 0.1 0 0.1 0L30.2 15.2 30.2 15.2 30.2 15.2"/>
              <path id="Fill-37" class="st3" d="M30.8 15.1L30.8 15.1 30.8 15.1l-0.1 0 0 0 0 0 0 0 -0.1 0 -0.1 0 0 0 0 0 0 0 0 0 0 0 0 0 0 0h0v0h0l0 0 0 0 0 0 0 0 0 0 0 0 0 0 0.1 0 0.1 0 0 0 0 0 0 0L30.8 15.1 30.8 15.1 30.8 15.1"/>
              <path id="Fill-38" class="st3" d="M31.2 15.2L31.2 15.2 31.2 15.2 31.2 15.2 31.2 15.2l-0.1 0H31l-0.1 0h-0.1v0H31l0.1 0L31.2 15.2 31.2 15.2 31.2 15.2 31.2 15.2 31.2 15.2 31.2 15.2 31.2 15.2 31.2 15.2 31.2 15.2"/>
              <path id="Fill-39" class="st3" d="M31.3 15L31.3 15 31.3 15l0 0.1 0 0.1 0 0 0 0 0 0 0-0.1L31.3 15 31.3 15 31.3 15"/>
              <path id="Fill-40" class="st3" d="M30.9 14.7L30.9 14.7 30.9 14.7l0.1 0 0.1 0 0 0 0 0 0 0 0 0.1 0 0.1h0l0-0.1 0-0.1 0-0.1 0 0 -0.1 0 -0.1 0L30.9 14.7 30.9 14.7 30.9 14.7"/>
              <path id="Fill-41" class="st3" d="M29.7 14.8L29.7 14.8 29.7 14.8 29.7 14.8l0.1 0 0.1 0 0.1 0 0.1 0 0.1 0 0.1 0 0.1 0 0.1 0 0.1 0 0.1 0h0.3l0.1 0v0l-0.1 0 -0.1 0h-0.1l-0.1 0 -0.1 0 -0.1 0 -0.1 0 -0.1 0 -0.1 0 -0.1 0 -0.1 0 -0.1 0 -0.1 0L29.7 14.8 29.7 14.8 29.7 14.8 29.7 14.8 29.7 14.8"/>
              <path id="Fill-42" class="st3" d="M29.9 14.1L29.9 14.1l-0.2 0.7 0 0L29.9 14.1 29.9 14.1 29.9 14.1 29.9 14.1 29.9 14.1 29.9 14.1"/>
              <path id="Fill-43" class="st3" d="M31.2 14L31.2 14 31.2 14 31 14h-0.3l-0.1 0 -0.1 0 -0.1 0 -0.1 0 -0.1 0 -0.1 0 -0.1 0 -0.1 0 -0.1 0 -0.1 0 -0.1 0 0 0 0.1 0 0.1 0 0.1 0 0.1 0 0.1 0 0.1 0 0.1 0 0.1 0 0.1 0 0.1 0H31L31.2 14 31.2 14 31.2 14"/>
              <path id="Fill-44" class="st3" d="M32.2 15L32.2 15l0-0.1v-0.1l0-0.1 0-0.1 0-0.1L32 14.4 32 14.3l-0.1-0.1 -0.1-0.1 -0.1-0.1 -0.1 0 -0.1 0 -0.1 0 -0.1 0 -0.1 0 -0.1 0v0l0.1 0 0.1 0 0.1 0 0.1 0 0.1 0 0.1 0 0.1 0 0.1 0.1 0.1 0.1 0.1 0.1 0.1 0.1 0 0.1 0 0.1 0 0.1v0.1L32.2 15 32.2 15"/>
              <path id="Fill-45" class="st3" d="M31.9 16.5L31.9 16.5l0.3-1.5 0 0L31.9 16.5 31.9 16.5"/>
              <path id="Fill-46" class="st1" d="M31.2 15.8L31.2 15.8 31.2 15.8 31.2 15.8 31.2 15.8 31.2 15.8 31 15.7h0l0 0 0 0 0 0 0 0 0 0 0 0 0 0 0 0 0 0 0 0 0 0 0 0 0 0 0 0 0 0 0 0 0 0 0 0 0 0 0 0 0 0 0 0 0 0 0 0 0 0 0 0.1 0 0.1 0 0.1 0 0 0 0 0.1 0 0 0 0 0 0.1 0 0.1 0 0.1 0 0.1 0 0.1 0 0.1 0 0.1 0 0 0 0 0 0 0 0 0 0 0 0 0 0 0 0 0 0 0 0-0.1 0-0.1L31.2 15.8 31.2 15.8"/>
              <path id="Fill-47" class="st3" d="M37.2 16.8L37.2 16.8l0-0.1 0-0.1 0-0.1 0.1 0 0.1 0 0.1 0 0.1 0 0.1 0 0.1 0 0.1 0 0.1 0 0 0.1 0 0.1 0 0.1 0 0.1h-0.1l0-0.1 0-0.1 0-0.1 0-0.1 0 0 -0.1 0 -0.1 0 -0.1 0 -0.1 0 -0.1 0 -0.1 0 0 0 0 0.1 0 0.1L37.2 16.8 37.2 16.8 37.2 16.8"/>
              <path id="Fill-48" class="st3" d="M37.5 16.8v-0.2h0.2l0 0 0 0 0 0 0 0 0 0 0 0 0 0 0 0 0 0 0 0 0 0 0 0h-0.1l0 0 0 0 0 0 0 0 0 0 0 0 0 0v0l0 0 0 0 0 0 0 0 0 0 0 0h-0.1L37.5 16.8 37.5 16.8"/>
              <path id="Fill-49" class="st3" d="M37.2 16.8L37.2 16.8l0 0.1 0 0.1 0 0.1 0 0.1 0.1 0 0.1 0 0.1 0 0.1 0 0.1 0 0.1 0 0.1 0 0.1 0 0-0.1 0-0.1 0-0.1 0-0.1 0 0h-0.1l0 0 0 0.1 0 0.1 0 0.1 0 0 0 0 -0.1 0 -0.1 0 -0.1 0 -0.1 0 -0.1 0 -0.1 0 0 0 0 0 0-0.1L37.2 16.8 37.2 16.8 37.2 16.8 37.2 16.8"/>
              <path id="Fill-50" class="st3" d="M37.5 16.8v0.2h0.1L37.5 16.8l0.1 0 0.1 0.1h0.1l-0.1-0.1h0l0 0 0 0 0 0 0 0h-0.1l0 0L37.5 16.8 37.5 16.8 37.5 16.8"/>
              <path id="Stroke-51" class="st4" d="M37.2 16.8L37.2 16.8 37.2 16.8l0-0.2 0-0.1 0-0.1 0.1 0 0.1 0 0.1 0 0.1 0 0.1 0 0.1 0 0.1 0 0.1 0 0 0.1 0 0.1 0 0.1 0 0.1 0 0.1 0 0.1 0 0.1 0 0.1 -0.1 0 -0.1 0 -0.1 0 -0.1 0 -0.1 0 -0.1 0 -0.1 0 -0.1 0 0-0.1 0-0.1L37.2 16.8 37.2 16.8M37.5 16.9L37.5 16.9l-0.1-0.4h0.2l0 0 0 0 0 0 0 0 0 0 0 0 0 0 0 0 0 0 0 0 0 0 0 0 0 0 0 0 0 0h0l0.1 0.1h-0.1l-0.1-0.1h-0.1V16.9M37.6 16.8L37.6 16.8 37.6 16.8 37.6 16.8 37.6 16.8 37.6 16.8 37.6 16.8 37.6 16.8l0.1-0.1v0L37.6 16.8 37.6 16.8l0.1-0.1 0 0 0 0 0 0h-0.1L37.6 16.8 37.6 16.8M37.6 17.1L37.6 17.1 37.6 17.1l0.1 0 0.1 0 0 0 0 0 0-0.1 0-0.1 0-0.1 0-0.1 0-0.1 0-0.1 0-0.1 0 0 -0.1 0 -0.1 0 -0.1 0 -0.1 0 -0.1 0 -0.1 0 0 0 0 0.1 0 0.1 0 0.1 0 0.1 0 0.1 0 0.1 0 0.1 0 0 0 0 0.1 0L37.6 17.1 37.6 17.1"/>
              <path id="Fill-52" class="st3" d="M32.1 17.2h0.8l0.3-1.7 0-0.1 0-0.1 0-0.1 0-0.1 0-0.1 0-0.1 0-0.1 0-0.1 0.1 0 0.1 0 0.1 0 0.1 0 0.1 0 0.1 0 0.1 0 0.1 0h0.1l0.1-0.8 -0.1 0 -0.1 0L34 14 34 14l-0.1 0 -0.1 0 -0.1 0 -0.1 0 -0.1 0 -0.1 0 0 0 0 0 0 0.1 0 0.1 0 0.1 0 0.1 0.1-0.5h-0.8L32.1 17.2"/>
              <path id="Stroke-53" class="st4" d="M32.1 17.2h0.8l0.3-1.7 0-0.1 0-0.1 0-0.1 0-0.1 0-0.1 0-0.1 0-0.1 0-0.1 0.1 0 0.1 0 0.1 0 0.1 0 0.1 0 0.1 0 0.1 0 0.1 0h0.1l0.1-0.8 -0.1 0 -0.1 0L34 14 34 14l-0.1 0 -0.1 0 -0.1 0 -0.1 0 -0.1 0 -0.1 0 0 0 0 0 0 0.1 0 0.1 0 0.1 0 0.1 0.1-0.5h-0.8L32.1 17.2"/>
              <path id="Fill-54" class="st3" d="M24.3 17.2h0.8l0.3-1.7 0-0.1 0-0.1 0-0.1 0-0.1 0-0.1 0-0.1 0-0.1 0 0 0 0 0.1 0 0.1 0 0.1 0 0.1 0 0.1 0 0.1 0 0.1 0h0l0 0 0 0h0l0 0 0 0 0 0h0l0 0 0 0 0-0.1 0-0.1 0-0.1 0-0.1 0-0.1 0-0.1 0-0.1 0-0.1 0-0.1 0 0 0 0 0 0 0 0 0 0h0l0 0 0 0 0 0h0l0 0 0 0h0l-0.1 0 -0.1 0 -0.1 0 -0.1 0 -0.1 0 -0.1 0 -0.1 0 -0.1 0 0 0 0 0 0 0 0 0 0 0.1 0 0.1 -0.1 0.1 0.1-0.5h-0.8L24.3 17.2"/>
              <path id="Stroke-55" class="st4" d="M24.3 17.2h0.8l0.3-1.7 0-0.1 0-0.1 0-0.1 0-0.1 0-0.1 0-0.1 0-0.1 0 0 0 0 0.1 0 0.1 0 0.1 0 0.1 0 0.1 0 0.1 0 0.1 0h0l0 0 0 0h0l0 0 0 0 0 0h0l0 0 0 0 0-0.1 0-0.1 0-0.1 0-0.1 0-0.1 0-0.1 0-0.1 0-0.1 0-0.1 0 0 0 0 0 0 0 0 0 0h0l0 0 0 0 0 0h0l0 0 0 0h0l-0.1 0 -0.1 0 -0.1 0 -0.1 0 -0.1 0 -0.1 0 -0.1 0 -0.1 0 0 0 0 0 0 0 0 0 0 0.1 0 0.1 -0.1 0.1 0.1-0.5h-0.8L24.3 17.2"/>
              <path id="Fill-56" class="st1" d="M37.2 20.3L37.2 20.3 37.2 20.3l0.1-0.2 0-0.1 0.1 0 0.1 0 0.1 0 0.1 0 0.1 0 0.1 0 0.1 0 0.1 0 0 0.1 0 0.1 0 0.1v0h-0.1l0-0.1 0-0.1 0-0.1 0 0 -0.1 0 -0.1 0 -0.1 0 -0.1 0 -0.1 0 -0.1 0 0 0 0 0.1 0 0.1L37.2 20.3 37.2 20.3"/>
              <path id="Fill-57" class="st1" d="M37.5 20.3v-0.1h0.2l0 0 0 0 0 0 0 0 0 0 0 0 0 0h-0.1v0l0 0 0 0 0 0 0 0 0 0 0 0L37.5 20.3 37.5 20.3 37.5 20.3"/>
              <path id="Fill-58" class="st1" d="M37.2 20.3L37.2 20.3 37.2 20.3 37.2 20.3 37.2 20.3 37.2 20.3"/>
              <path id="Fill-59" class="st1" d="M37.5 20.3L37.5 20.3 37.5 20.3 37.5 20.3l0.1 0 0 0 0 0 0 0 0 0 0 0 0 0 0 0v0h0.1l0 0 0 0 0 0 0 0H37.5"/>
              <path id="Fill-60" class="st1" d="M37.9 20.3L37.9 20.3 37.9 20.3 37.9 20.3 37.9 20.3 37.9 20.3"/>
              <path id="Fill-61" class="st1" d="M37.2 20.3L37.2 20.3 37.2 20.3l0 0.2 0 0.1 0 0.1 0.1 0 0.1 0 0.1 0 0.1 0 0.1 0 0.1 0 0.1 0 0.1 0 0-0.1 0-0.1 0-0.1 0-0.1v0h-0.1v0l0 0.1 0 0.1 0 0.1 0 0 0 0 -0.1 0 -0.1 0 -0.1 0 -0.1 0 -0.1 0 -0.1 0 0 0 0 0 0-0.1L37.2 20.3 37.2 20.3 37.2 20.3 37.2 20.3"/>
              <path id="Fill-62" class="st1" d="M37.5 20.3v0.2h0.1L37.5 20.3l0.1 0 0.1 0.1h0.1l-0.1-0.1h0l0 0 0 0 0 0H37.5"/>
              <path id="Fill-63" class="st3" d="M24.4 15l0-0.2 0-0.2 -0.1-0.1 -0.1-0.1 -0.1-0.1L24 14.2l-0.1-0.1 -0.1-0.1 -0.1 0 -0.1 0 -0.1 0 -0.1 0 -0.1 0L23 14l-0.2 0 -0.2 0.1 -0.2 0.1 -0.1 0.1 -0.1 0.1L22 14.4l-0.1 0.1 -0.1 0.1 -0.1 0.1 -0.1 0.1 0 0.1 0 0.1 0 0.1 0 0.1 0 0.1 0 0.2 0 0.2 0 0.2 0 0.2 0.1 0.2 0.1 0.1 0.1 0.1 0.1 0.1 0.1 0.1 0.1 0.1 0.1 0.1 0.1 0 0.1 0 0.1 0 0.1 0 0.1 0h0.1l0.1 0h0.1l0.1 0 0.1 0 0.1 0 0.1 0 0.1 0 0 0 0 0 0 0 0 0 0 0 0 0 0 0 0 0 0.1-0.7 -0.1 0 -0.1 0 -0.1 0 -0.1 0 -0.1 0 -0.1 0 -0.1 0 -0.1 0 -0.1 0 -0.1 0h-0.1l-0.1 0 -0.1 0 -0.1 0 -0.1 0 -0.1 0 -0.1 0 -0.1 0 -0.1 0 -0.1 0 -0.1 0 0 0 0 0 0-0.1 0 0 0-0.1 0-0.1 0-0.1 0-0.1 0-0.1 0 0 0 0h1.9l0-0.2 0-0.2 0-0.2L24.4 15 24.4 15zM23.6 15.2h-1.1l0 0 0 0 0 0 0-0.1 0-0.1 0-0.1 0-0.1 0-0.1 0 0 0 0 0 0 0 0 0 0 0 0 0.1 0 0 0 0 0 0.1 0 0.1 0 0.1 0 0 0 0 0 0 0 0 0 0 0 0 0 0 0 0 0 0 0 0 0.1 0 0.1 0 0.1 0 0.1L23.6 15.2 23.6 15.2 23.6 15.2z"/>
            </g>
            <g id="VISA" sketch:type="MSShapeGroup">
              <path id="Fill-1_1_" class="st0" d="M48.2 29.2c0 0.9-0.7 1.6-1.6 1.6H1.4c-0.9 0-1.6-0.7-1.6-1.6V1.6C-0.2 0.7 0.6 0 1.4 0h45.2c0.9 0 1.6 0.7 1.6 1.6V29.2"/>
              <path id="Fill-4_1_" class="st5" d="M22.3 19.9h-2.4l1.5-9.1h2.4L22.3 19.9"/>
              <path id="Fill-5_1_" class="st5" d="M17.7 10.8l-2.3 6.2 -0.3-1.3v0l-0.8-4.1c0 0-0.1-0.8-1.1-0.8H9.5l0 0.2c0 0 1.1 0.2 2.5 1l2.1 7.9h2.5l3.8-9.1H17.7"/>
              <path id="Fill-6_1_" class="st5" d="M33.6 16.7l1.2-3.4 0.7 3.4H33.6L33.6 16.7zM36.2 19.9h2.2l-1.9-9.1h-1.9c-0.9 0-1.1 0.7-1.1 0.7l-3.5 8.4h2.5l0.5-1.3h3L36.2 19.9 36.2 19.9z"/>
              <path id="Fill-7_1_" class="st5" d="M30.1 12.8l0.3-2c0 0-1-0.4-2.1-0.4 -1.2 0-4 0.5-4 3 0 2.3 3.3 2.4 3.3 3.6 0 1.2-2.9 1-3.9 0.2l-0.4 2c0 0 1.1 0.5 2.7 0.5 1.6 0 4-0.8 4-3.1 0-2.4-3.3-2.6-3.3-3.6C26.8 12.1 29.1 12.2 30.1 12.8"/>
              <path id="Fill-8_1_" class="st6" d="M14.4 11.6c0 0-0.1-0.8-1.1-0.8H9.5l0 0.2c0 0 1.8 0.4 3.5 1.8 1.6 1.3 2.2 3 2.2 3L14.4 11.6z"/>
            </g>
            <g id="VISA-2" transform="translate(55.000000, 0.000000)">
              <path id="Fill-1_2_" sketch:type="MSShapeGroup" class="st0" d="M48.2 29.2c0 0.9-0.7 1.6-1.6 1.6H1.4c-0.9 0-1.6-0.7-1.6-1.6V1.6C-0.2 0.7 0.6 0 1.4 0h45.2c0.9 0 1.6 0.7 1.6 1.6V29.2"/>
              <g class="st7">
                <path class="st8" d="M27 21.7c0.4 0 0.6 0.1 0.8 0.3 0.2 0.2 0.3 0.4 0.3 0.7 0 0.2 0 0.4-0.1 0.6 -0.1 0.2-0.2 0.4-0.3 0.5 -0.1 0.1-0.3 0.3-0.5 0.3s-0.4 0.1-0.7 0.1h-1.1l0.5-2.6H27zM26.7 23.9c0.1 0 0.3 0 0.4-0.1 0.1-0.1 0.2-0.1 0.3-0.2 0.1-0.1 0.1-0.2 0.2-0.3 0-0.1 0.1-0.2 0.1-0.4 0-0.1 0-0.2 0-0.3 0-0.1-0.1-0.1-0.1-0.2 0-0.1-0.1-0.1-0.2-0.1 -0.1 0-0.2 0-0.3 0h-0.4l-0.3 1.6H26.7z"/>
                <path class="st8" d="M28.8 23.6C28.8 23.6 28.8 23.6 28.8 23.6L28.8 23.6c0 0.2 0 0.3 0.1 0.3C29 24 29.1 24 29.2 24c0.1 0 0.1 0 0.1 0 0 0 0.1 0 0.1-0.1 0 0 0.1-0.1 0.1-0.1 0 0 0-0.1 0.1-0.1h0.5c0 0.1-0.1 0.2-0.1 0.3s-0.1 0.1-0.2 0.2 -0.2 0.1-0.3 0.1c-0.1 0-0.2 0-0.4 0 -0.1 0-0.2 0-0.3-0.1 -0.1 0-0.2-0.1-0.3-0.2s-0.1-0.2-0.2-0.3c0-0.1-0.1-0.2-0.1-0.4 0-0.2 0-0.3 0.1-0.4 0-0.1 0.1-0.3 0.2-0.4 0.1-0.1 0.2-0.2 0.3-0.3 0.1-0.1 0.3-0.1 0.4-0.1 0.1 0 0.3 0 0.4 0.1 0.1 0 0.2 0.1 0.3 0.2 0.1 0.1 0.1 0.2 0.2 0.3 0 0.1 0.1 0.2 0.1 0.4 0 0.1 0 0.2 0 0.3L28.8 23.6C28.8 23.5 28.8 23.6 28.8 23.6zM29.7 23.1c0 0 0-0.1 0-0.1 0 0-0.1-0.1-0.1-0.1 0 0-0.1 0-0.2 0 -0.1 0-0.1 0-0.2 0 -0.1 0-0.1 0.1-0.1 0.1 0 0-0.1 0.1-0.1 0.1 0 0-0.1 0.1-0.1 0.2h0.9C29.7 23.2 29.7 23.1 29.7 23.1z"/>
                <path class="st8" d="M31.4 21.7l-0.2 0.9h0c0.1-0.1 0.2-0.2 0.2-0.2s0.2-0.1 0.3-0.1c0.1 0 0.2 0 0.3 0.1s0.2 0.1 0.2 0.2c0.1 0.1 0.1 0.2 0.1 0.3 0 0.1 0 0.2 0 0.3 0 0.1 0 0.3-0.1 0.4 0 0.1-0.1 0.3-0.2 0.4 -0.1 0.1-0.2 0.2-0.3 0.3 -0.1 0.1-0.3 0.1-0.4 0.1 -0.1 0-0.3 0-0.4-0.1 -0.1 0-0.2-0.1-0.2-0.3h0l-0.1 0.3h-0.5l0.5-2.6H31.4zM31.3 22.9c-0.1 0.1-0.1 0.1-0.2 0.2S31 23.3 31 23.3s0 0.2 0 0.3c0 0.1 0 0.2 0.1 0.3s0.2 0.1 0.3 0.1c0.1 0 0.2 0 0.3-0.1 0.1-0.1 0.1-0.1 0.2-0.2 0-0.1 0.1-0.2 0.1-0.3 0-0.1 0-0.2 0-0.3 0-0.1 0-0.2-0.1-0.3s-0.2-0.1-0.3-0.1C31.4 22.8 31.4 22.8 31.3 22.9z"/>
                <path class="st8" d="M33.5 22.5l-0.4 1.9h-0.5l0.4-1.9H33.5zM33 22.2l0.1-0.4h0.5l-0.1 0.4H33z"/>
                <path class="st8" d="M34.9 22.5l-0.1 0.3h-0.4l-0.2 0.9c0 0 0 0 0 0.1 0 0 0 0 0 0 0 0 0 0.1 0 0.1s0 0 0 0c0 0 0 0 0.1 0 0 0 0 0 0.1 0 0.1 0 0.1 0 0.2 0l-0.1 0.4c-0.1 0-0.1 0-0.2 0s-0.1 0-0.2 0c-0.1 0-0.1 0-0.2 0 -0.1 0-0.1 0-0.2-0.1 0 0-0.1-0.1-0.1-0.1 0 0 0-0.1 0-0.2 0 0 0-0.1 0-0.1s0-0.1 0-0.1l0.2-1h-0.3l0.1-0.3H34l0.1-0.6h0.5l-0.1 0.6H34.9z"/>
              </g>
              <path id="Fill-4_2_" sketch:type="MSShapeGroup" class="st5" d="M22.3 19.9h-2.4l1.5-9.1h2.4L22.3 19.9"/>
              <path id="Fill-5_2_" sketch:type="MSShapeGroup" class="st5" d="M17.7 10.8l-2.3 6.2 -0.3-1.3v0l-0.8-4.1c0 0-0.1-0.8-1.1-0.8H9.5l0 0.2c0 0 1.1 0.2 2.5 1l2.1 7.9h2.5l3.8-9.1H17.7"/>
              <path id="Fill-6_2_" sketch:type="MSShapeGroup" class="st5" d="M33.6 16.7l1.2-3.4 0.7 3.4H33.6L33.6 16.7zM36.2 19.9h2.2l-1.9-9.1h-1.9c-0.9 0-1.1 0.7-1.1 0.7l-3.5 8.4h2.5l0.5-1.3h3L36.2 19.9 36.2 19.9z"/>
              <path id="Fill-7_2_" sketch:type="MSShapeGroup" class="st5" d="M30.1 12.8l0.3-2c0 0-1-0.4-2.1-0.4 -1.2 0-4 0.5-4 3 0 2.3 3.3 2.4 3.3 3.6 0 1.2-2.9 1-3.9 0.2l-0.4 2c0 0 1.1 0.5 2.7 0.5 1.6 0 4-0.8 4-3.1 0-2.4-3.3-2.6-3.3-3.6C26.8 12.1 29.1 12.2 30.1 12.8"/>
              <path id="Fill-8_2_" sketch:type="MSShapeGroup" class="st6" d="M14.4 11.6c0 0-0.1-0.8-1.1-0.8H9.5l0 0.2c0 0 1.8 0.4 3.5 1.8 1.6 1.3 2.2 3 2.2 3L14.4 11.6z"/>
            </g>
            <g id="VISA-electron" transform="translate(110.000000, 0.000000)" sketch:type="MSShapeGroup">
              <path id="Fill-1_3_" class="st9" d="M48.3 29c0 0.9-0.7 1.6-1.6 1.6H1.5c-0.9 0-1.6-0.7-1.6-1.6V1.5c0-0.9 0.7-1.6 1.6-1.6h45.2c0.9 0 1.6 0.7 1.6 1.6V29"/>
              <path id="Fill-2_1_" class="st10" d="M16.2 16.8c3.7-1.6 8.8-3 15.6-1.6l0.1-1.7c-7.2-0.8-12.3 1.5-15.7 3.1V16.8"/>
              <path id="Fill-3_1_" class="st3" d="M9.6 18.1h3.5v1h-2.1l0 1H13v1h-2.1l0 1H13v1H9.6L9.6 18.1"/>
              <path id="Fill-4_3_" class="st3" d="M13.9 17.7h1.3l0 5.4h-1.3L13.9 17.7"/>
              <path id="Fill-5_3_" class="st3" d="M19.5 22.7c-0.4 0.4-1.1 0.5-1.7 0.5 -1.3 0-1.9-0.9-1.9-1.9 0-1.1 0.8-2 2-2 1.4 0 1.8 1 1.8 2.2h-2.5c0 0.3 0.2 0.8 0.9 0.8 0.4 0 0.7-0.1 1-0.4L19.5 22.7 19.5 22.7zM18.6 20.8c0-0.4-0.2-0.7-0.6-0.7 -0.4 0-0.7 0.4-0.8 0.7H18.6L18.6 20.8z"/>
              <path id="Fill-6_3_" class="st3" d="M23.5 22.9c-0.3 0.2-0.9 0.4-1.3 0.4 -1.2 0-2-0.7-2-1.9 0-1.2 0.8-2 2.1-2 0.4 0 1 0.1 1.2 0.3l-0.4 0.8c-0.2-0.1-0.4-0.1-0.6-0.1 -0.6 0-1 0.4-1 1 0 0.5 0.4 0.9 0.9 0.9 0.2 0 0.5-0.1 0.7-0.2L23.5 22.9"/>
              <path id="Fill-7_3_" class="st3" d="M24 19.5h0.6l0-1.2h1.2l0 1.2h1l0 0.9h-1c0 0.5 0 1 0 1.3 0 0.3 0.1 0.5 0.4 0.5 0.2 0 0.3-0.1 0.5-0.2l0.3 0.9c-0.4 0.2-0.8 0.4-1.2 0.4 -1 0-1.1-0.6-1.1-1.5 0-0.4 0-0.9 0-1.4H24L24 19.5"/>
              <path id="Fill-8_3_" class="st3" d="M27.4 19.5h1.3V20h0c0.2-0.3 0.4-0.6 0.9-0.6 0.1 0 0.3 0 0.4 0l-0.2 1.2c-0.1 0-0.3-0.1-0.4-0.1 -0.4 0-0.7 0.4-0.7 0.4l0 2.1h-1.3L27.4 19.5"/>
              <path id="Fill-9_1_" class="st3" d="M32.3 19.3c1.3 0 2 0.9 2 1.9 0 1.1-0.7 2-2 2 -1.3 0-2-0.9-2-2C30.3 20.2 30.9 19.3 32.3 19.3L32.3 19.3zM32.3 22.3c0.6 0 0.8-0.5 0.8-1 0-0.5-0.2-1-0.8-1 -0.6 0-0.8 0.5-0.8 1C31.5 21.8 31.7 22.3 32.3 22.3L32.3 22.3z"/>
              <path id="Fill-10_1_" class="st3" d="M35 19.5h1.3v0.4c0.3-0.3 0.7-0.5 1.2-0.5 0.8 0 1.2 0.4 1.2 1.4 0 0.7 0 1.5 0 2.3h-1.3c0-0.7 0-1.4 0-2.2 0-0.3-0.1-0.5-0.5-0.5 -0.2 0-0.5 0.2-0.7 0.3l0 2.4H35L35 19.5"/>
              <path id="Fill-11_1_" class="st3" d="M19.9 12l1.6-5.2h1.4L21.4 12H19.9"/>
              <path id="Fill-12_1_" class="st3" d="M19.3 6.7L18 9c-0.3 0.6-0.5 0.9-0.6 1.2h0c0-0.5 0-1 0-1.4l-0.1-2.1h-2.4l0 0.1c0.6 0 1 0.3 1.1 0.9l0.5 4.2h1.5l3-5.2H19.3"/>
              <path id="Fill-13_1_" class="st3" d="M30.3 12l0-0.8 -1.8 0L28.2 12h-1.5l2.8-5.2h1.9l0.5 5.2H30.3L30.3 12zM30.2 8.9c0-0.4 0-0.9 0-1.2h0c-0.1 0.3-0.5 1-0.6 1.4L29 10.2h1.2L30.2 8.9 30.2 8.9z"/>
              <path id="Fill-14_1_" class="st3" d="M24.4 12.1c-1 0-1.7-0.3-2.1-0.6l0.7-1c0.4 0.2 0.8 0.5 1.5 0.5 0.2 0 0.5-0.1 0.6-0.3 0.2-0.3 0-0.5-0.6-0.8l-0.3-0.2c-0.8-0.6-1.2-1.1-0.8-2 0.2-0.6 0.9-1 2-1 0.7 0 1.4 0.3 1.8 0.6l-0.8 0.9c-0.4-0.3-0.7-0.5-1.1-0.5 -0.3 0-0.5 0.1-0.6 0.3 -0.1 0.3 0 0.5 0.5 0.8l0.3 0.2c1 0.6 1.2 1.3 1 1.9C26.2 11.9 25.3 12.1 24.4 12.1"/>
            </g>
            <g id="maestro" transform="translate(220.000000, 0.000000)" sketch:type="MSShapeGroup">
              <path id="Fill-1_4_" class="st11" d="M48.2 29c0 0.9-0.7 1.6-1.6 1.6H1.4c-0.9 0-1.6-0.7-1.6-1.6V1.5c0-0.9 0.7-1.6 1.6-1.6h45.2c0.9 0 1.6 0.7 1.6 1.6V29"/>
              <path id="Fill-2_2_" class="st2" d="M29.8 23.7l0.4 0 0.4 0 0.4-0.1 0.4-0.1 0.4-0.1 0.4-0.1 0.4-0.1 0.4-0.2 0.4-0.2 0.4-0.2 0.4-0.2 0.4-0.2 0.3-0.2 0.3-0.3 0.3-0.3 0.3-0.3 0.3-0.3 0.3-0.3 0.3-0.3 0.2-0.3 0.2-0.4 0.2-0.4 0.2-0.4 0.2-0.4 0.2-0.4 0.1-0.4 0.1-0.4 0.1-0.4 0.1-0.4 0.1-0.4 0-0.4 0-0.4 0-0.4 0-0.4 -0.1-0.4 -0.1-0.4 -0.1-0.4 -0.1-0.4L37.9 12l-0.2-0.4 -0.2-0.4 -0.2-0.4 -0.2-0.4L37 10.1l-0.2-0.3 -0.3-0.3 -0.3-0.3 -0.3-0.3 -0.3-0.3 -0.3-0.3L35 8l-0.3-0.2 -0.4-0.2 -0.4-0.2 -0.4-0.2L33.2 7l-0.4-0.2 -0.4-0.1 -0.4-0.1 -0.4-0.1 -0.4-0.1 -0.4-0.1 -0.4 0 -0.4 0 -0.4 0 -0.4 0 -0.4 0.1L28 6.5l-0.4 0.1 -0.4 0.1 -0.4 0.1L26.4 7 26 7.2l-0.4 0.2 -0.4 0.2 -0.4 0.2L24.6 8l-0.3 0.3 -0.3 0.3 -0.3 0.3 -0.3 0.3 -0.3 0.3 -0.3 0.3 -0.2 0.3 -0.2 0.4 -0.2 0.4 -0.2 0.4 -0.2 0.4L21.6 12l-0.1 0.4 -0.1 0.4 -0.1 0.4 -0.1 0.4 -0.1 0.4 0 0.4 0 0.4 0 0.4 0 0.4 0.1 0.4 0.1 0.4 0.1 0.4 0.1 0.4 0.1 0.4 0.2 0.4 0.2 0.4 0.2 0.4 0.2 0.4 0.2 0.4 0.2 0.3 0.3 0.3 0.3 0.3 0.3 0.3 0.3 0.3 0.3 0.3 0.3 0.3 0.3 0.2 0.4 0.2 0.4 0.2 0.4 0.2 0.4 0.2 0.4 0.2 0.4 0.1 0.4 0.1 0.4 0.1 0.4 0.1 0.4 0.1 0.4 0L29.8 23.7"/>
              <path id="Fill-3_2_" class="st12" d="M18.2 23.7l0.4 0 0.4 0 0.4-0.1 0.4-0.1 0.4-0.1 0.4-0.1 0.4-0.1 0.4-0.2 0.4-0.2 0.4-0.2 0.4-0.2 0.4-0.2 0.3-0.2 0.3-0.3 0.3-0.3 0.3-0.3 0.3-0.3 0.3-0.3 0.3-0.3 0.2-0.3 0.2-0.4 0.2-0.4 0.2-0.4 0.2-0.4 0.2-0.4 0.1-0.4 0.1-0.4 0.1-0.4 0.1-0.4 0.1-0.4 0-0.4 0-0.4 0-0.4 0-0.4 -0.1-0.4 -0.1-0.4 -0.1-0.4 -0.1-0.4L26.4 12l-0.2-0.4 -0.2-0.4 -0.2-0.4 -0.2-0.4 -0.2-0.4 -0.2-0.3L25 9.5l-0.3-0.3 -0.3-0.3 -0.3-0.3 -0.3-0.3L23.4 8l-0.3-0.2 -0.4-0.2 -0.4-0.2L22 7.2 21.6 7l-0.4-0.2 -0.4-0.1 -0.4-0.1L20 6.5l-0.4-0.1 -0.4-0.1 -0.4 0 -0.4 0 -0.4 0 -0.4 0 -0.4 0.1 -0.4 0.1 -0.4 0.1 -0.4 0.1 -0.4 0.1L14.9 7l-0.4 0.2 -0.4 0.2 -0.4 0.2 -0.4 0.2L13 8l-0.3 0.3 -0.3 0.3 -0.3 0.3 -0.3 0.3 -0.3 0.3 -0.3 0.3L11 10.1l-0.2 0.4 -0.2 0.4 -0.2 0.4 -0.2 0.4L10.1 12l-0.1 0.4 -0.1 0.4 -0.1 0.4 -0.1 0.4 -0.1 0.4 0 0.4 0 0.4 0 0.4 0 0.4 0.1 0.4 0.1 0.4 0.1 0.4 0.1 0.4 0.1 0.4 0.2 0.4 0.2 0.4 0.2 0.4 0.2 0.4 0.2 0.4 0.2 0.3 0.3 0.3 0.3 0.3 0.3 0.3 0.3 0.3 0.3 0.3 0.3 0.3 0.3 0.2 0.4 0.2 0.4 0.2 0.4 0.2 0.4 0.2 0.4 0.2 0.4 0.1 0.4 0.1 0.4 0.1 0.4 0.1 0.4 0.1 0.4 0L18.2 23.7"/>
              <path id="Fill-4_4_" class="st2" d="M22.9 9.6h4.4V9.1h-4L22.9 9.6"/>
              <path id="Fill-5_4_" class="st2" d="M22.2 10.6h5.1v-0.5h-4.8L22.2 10.6"/>
              <path id="Fill-6_4_" class="st2" d="M21.7 11.7h5.6v-0.5H22L21.7 11.7"/>
              <path id="Fill-7_4_" class="st2" d="M21.4 12.7h5.9v-0.5h-5.8L21.4 12.7"/>
              <path id="Fill-8_4_" class="st2" d="M21.2 13.7h6.2v-0.5h-6.1L21.2 13.7"/>
              <path id="Fill-9_2_" class="st2" d="M21.1 15.7h6.2v-0.5h-6.3L21.1 15.7"/>
              <path id="Fill-10_2_" class="st2" d="M21.3 16.8h6.1v-0.5h-6.2L21.3 16.8"/>
              <path id="Fill-11_2_" class="st2" d="M21.6 17.7h5.8v-0.5h-5.9L21.6 17.7"/>
              <path id="Fill-12_2_" class="st2" d="M22 18.8h5.3v-0.5h-5.6L22 18.8"/>
              <path id="Fill-13_2_" class="st2" d="M22.6 19.9h4.7v-0.5h-5L22.6 19.9"/>
              <path id="Fill-14_2_" class="st2" d="M23.4 20.9h3.9v-0.5H23L23.4 20.9"/>
              <path id="Fill-15_1_" class="st2" d="M37 20.3L37 20.3l0.1-0.1 0.1-0.1 0.1-0.1 0.1 0 0.1 0 0.1 0 0.1 0 0.1 0 0.1 0 0.1 0.1 0.1 0.1 0 0.1 0 0.1h-0.1l0-0.1 0-0.1 0-0.1 0 0 -0.1 0 -0.1 0 -0.1 0 -0.1 0 -0.1 0 -0.1 0 -0.1 0 0 0.1 0 0.1L37 20.3 37 20.3"/>
              <path id="Fill-16_1_" class="st2" d="M37.3 20.3v-0.1h0.2l0 0 0 0 0 0 0 0 0 0 0 0 0 0 0 0h-0.1l0 0 0 0 0 0 0 0 0 0 0 0 0 0L37.3 20.3 37.3 20.3 37.3 20.3"/>
              <path id="Fill-17" class="st2" d="M37 20.4L37 20.4 37 20.4 37 20.4 37 20.4 37 20.4 37 20.4"/>
              <path id="Fill-18_1_" class="st2" d="M37.3 20.4L37.3 20.4 37.3 20.4 37.3 20.4l0.2 0 0 0 0 0 0 0 0 0 0 0v0h0.1l0 0 0 0 0 0 0 0H37.3"/>
              <path id="Fill-19" class="st2" d="M37.8 20.4L37.8 20.4 37.8 20.4 37.8 20.4 37.8 20.4 37.8 20.4 37.8 20.4"/>
              <path id="Fill-20_1_" class="st2" d="M37 20.4L37 20.4 37 20.4l0 0.2 0 0.1 0.1 0.1 0.1 0 0.1 0 0.1 0 0.1 0 0.1 0 0.1 0 0.1 0 0.1 0 0.1-0.1 0-0.1 0-0.1 0-0.1v0h-0.1v0l0 0.1 0 0.1 0 0.1 0 0.1 0 0 -0.1 0 -0.1 0 -0.1 0 -0.1 0 -0.1 0 -0.1 0 -0.1 0 0-0.1 0-0.1L37 20.4 37 20.4 37 20.4 37 20.4"/>
              <path id="Fill-21" class="st2" d="M37.3 20.4v0.2h0.1L37.3 20.4l0.1 0 0.1 0.1h0.1l-0.1-0.1 0 0 0 0 0 0 0 0 0 0H37.3"/>
              <path id="Fill-22_1_" class="st3" d="M27.9 14.2L27.9 14.2l-0.1 0 -0.1 0 -0.1 0 -0.1 0 -0.1 0 -0.1 0 -0.1 0 -0.1 0 -0.1 0 -0.1 0 -0.1 0h-0.1l-0.1 0 -0.1 0 -0.1 0 -0.1 0 -0.1 0 -0.1 0 -0.1 0 -0.1 0 -0.1 0 0 0 0 0 0 0 0 0 0 0v0.1l0 0.1 0 0.1 0 0.1 0 0.1 0.1 0.1 0.1 0.1 0.1 0.1 0.1 0 0.1 0 0.1 0 0.1 0 0.1 0.1 0.1 0.1 0.1 0.1 0.1 0.1 0.1 0.1 0.1 0.2 0 0.2 0 0.2 0 0.3 0 0.2 -0.1 0.2 -0.1 0.2 -0.1 0.1 -0.1 0.1 -0.1 0.1 -0.1 0.1 -0.1 0.1L27 17.5l-0.1 0.1 -0.1 0 -0.1 0 -0.1 0 -0.1 0 -0.1 0 -0.1 0h-0.2l-0.2 0 -0.1 0 -0.1 0 -0.1 0 -0.1 0 -0.1 0 -0.1 0 -0.1 0 -0.1 0 -0.1 0 -0.1 0 -0.1 0 -0.1 0 -0.1 0 -0.1 0 0.2-0.9 0 0 0 0 0.1 0 0.1 0 0.1 0 0.1 0 0.1 0 0.1 0 0.1 0 0.1 0 0.1 0 0.1 0 0.1 0 0.1 0H26l0.1 0 0.1 0 0.1 0 0.1 0 0.1-0.1 0-0.1 0-0.1 0-0.1 0-0.1 0-0.1 0-0.1 0-0.1 0 0 0 0 0 0 0 0 -0.1 0 -0.1 0 -0.1 0 -0.1 0 -0.1 0 -0.1 0 -0.1 0 -0.1 0 -0.1 0 -0.1 0 -0.1 0 -0.1 0 -0.1 0 -0.1 0 -0.1-0.1 -0.1-0.1 -0.1-0.1 -0.1-0.1 0-0.1 0-0.1 0-0.1 0-0.1 0-0.1 0-0.1 0-0.1 0-0.1 0-0.1 0-0.1 0-0.1 0-0.1 0-0.1 0-0.1 0-0.1 0-0.1 0-0.1 0-0.1 0-0.1 0-0.1 0 0 0 0 0.1 0 0.1 0 0.1 0 0.1 0 0.1 0 0.1 0 0.1 0 0.1 0 0.1 0 0.1 0 0.1 0 0.1 0 0.1 0 0.1 0 0.1 0 0.1 0H27l0.1 0 0.1 0 0.1 0 0.1 0 0.1 0 0.1 0 0.1 0 0.1 0 0.1 0 0.1 0 0 0 0 0 0 0 0 0 0 0L27.9 14.2"/>
              <path id="Stroke-23_1_" class="st13" d="M27.9 14.2L27.9 14.2 27.9 14.2l-0.1 0 -0.1 0 -0.1 0 -0.1 0 -0.1 0 -0.1 0 -0.1 0 -0.1 0 -0.1 0 -0.1 0 -0.1 0h-0.1l-0.1 0 -0.1 0 -0.1 0 -0.1 0 -0.1 0 -0.1 0 -0.1 0 -0.1 0 -0.1 0 0 0 0 0 0 0 0 0 0 0v0.1l0 0.1 0 0.1 0 0.1 0 0.1 0.1 0.1 0.1 0.1 0.1 0.1 0.1 0 0.1 0 0.1 0 0.1 0 0.1 0.1 0.1 0.1 0.1 0.1 0.1 0.1 0.1 0.1 0.1 0.2 0 0.2 0 0.2 0 0.3 0 0.2 -0.1 0.2 -0.1 0.2 -0.1 0.1 -0.1 0.1 -0.1 0.1 -0.1 0.1 -0.1 0.1L27 17.5l-0.1 0.1 -0.1 0 -0.1 0 -0.1 0 -0.1 0 -0.1 0 -0.1 0h-0.2l-0.2 0 -0.1 0 -0.1 0 -0.1 0 -0.1 0 -0.1 0 -0.1 0 -0.1 0 -0.1 0 -0.1 0 -0.1 0 -0.1 0 -0.1 0 -0.1 0 -0.1 0 0.2-0.9 0 0 0 0 0.1 0 0.1 0 0.1 0 0.1 0 0.1 0 0.1 0 0.1 0 0.1 0 0.1 0 0.1 0 0.1 0 0.1 0H26l0.1 0 0.1 0 0.1 0 0.1 0 0.1-0.1 0-0.1 0-0.1 0-0.1 0-0.1 0-0.1 0-0.1 0-0.1 0 0 0 0 0 0 0 0 -0.1 0 -0.1 0 -0.1 0 -0.1 0 -0.1 0 -0.1 0 -0.1 0 -0.1 0 -0.1 0 -0.1 0 -0.1 0 -0.1 0 -0.1 0 -0.1 0 -0.1-0.1 -0.1-0.1 -0.1-0.1 -0.1-0.1 0-0.1 0-0.1 0-0.1 0-0.1 0-0.1 0-0.1 0-0.1 0-0.1 0-0.1 0-0.1 0-0.1 0-0.1 0-0.1 0-0.1 0-0.1 0-0.1 0-0.1 0-0.1 0-0.1 0-0.1 0 0 0 0 0.1 0 0.1 0 0.1 0 0.1 0 0.1 0 0.1 0 0.1 0 0.1 0 0.1 0 0.1 0 0.1 0 0.1 0 0.1 0 0.1 0 0.1 0 0.1 0H27l0.1 0 0.1 0 0.1 0 0.1 0 0.1 0 0.1 0 0.1 0 0.1 0 0.1 0 0.1 0 0 0 0 0 0 0 0 0 0 0L27.9 14.2"/>
              <path id="Fill-24_1_" class="st3" d="M28.8 12.3H30l-0.2 1h0.7l-0.2 0.9 -0.7 0 -0.4 2.3 0 0v0l0 0 0 0 0 0 0 0 0 0 0 0 0 0 0 0 0 0 0 0 0 0 0 0 0 0h0.1l0.1 0 0.1 0 0.1 0 0 0 0 0 0 0 0 0L30 17.5l0 0 0 0 0 0 0 0 0 0 0 0 0 0 0 0 0 0 0 0 0 0 -0.1 0 -0.1 0 -0.1 0 -0.1 0 -0.1 0H29l-0.2 0 -0.1 0 -0.1 0 -0.1 0 -0.1 0 -0.1 0 -0.1 0 -0.1-0.1 0-0.1 0-0.1 0-0.1 0-0.1 0-0.1 0-0.1 0-0.1 0-0.1L28.8 12.3"/>
              <path id="Stroke-25" class="st13" d="M28.8 12.3H30l-0.2 1h0.7l-0.2 0.9 -0.7 0 -0.4 2.3 0 0v0l0 0 0 0 0 0 0 0 0 0 0 0 0 0 0 0 0 0 0 0 0 0 0 0 0 0h0.1l0.1 0 0.1 0 0.1 0 0 0 0 0 0 0 0 0L30 17.5l0 0 0 0 0 0 0 0 0 0 0 0 0 0 0 0 0 0 0 0 0 0 -0.1 0 -0.1 0 -0.1 0 -0.1 0 -0.1 0H29l-0.2 0 -0.1 0 -0.1 0 -0.1 0 -0.1 0 -0.1 0 -0.1 0 -0.1-0.1 0-0.1 0-0.1 0-0.1 0-0.1 0-0.1 0-0.1 0-0.1 0-0.1L28.8 12.3"/>
              <path id="Fill-26" class="st3" d="M21.9 15.8L21.9 15.8l0 0.1 0 0.1 0 0.1 0 0.1 0 0.1 0 0.1 0 0.1 0.1 0.1 0.1 0.1 0.1 0.1 0.1 0.1 0.1 0 0.1 0 0.1 0 0.1 0 0.1 0 0.1 0 0.1 0 0.1 0 0.1 0h0.1l0.1 0 0.1 0 0.1 0 0.1 0 0.1 0 0.1 0 0.1 0 0.1-0.1 0.1-0.1 0.1-0.1 -0.2 1 -0.1 0 -0.1 0 -0.1 0 -0.1 0 -0.1 0 -0.1 0 -0.1 0 -0.1 0 -0.1 0 -0.1 0 -0.1 0 -0.1 0 -0.1 0h-0.1l-0.1 0h-0.2l-0.1 0 -0.1 0 -0.1 0 -0.1 0 -0.1 0 -0.1 0 -0.1 0 -0.1 0 -0.1 0 -0.1 0 -0.1 0 -0.1 0 -0.1-0.1 -0.1-0.1 -0.1-0.1 -0.1-0.1 -0.1-0.1L21 17 21 16.9l-0.1-0.1 -0.1-0.1 -0.1-0.1 0-0.1 0-0.1 0-0.1 0-0.1 0-0.1 0-0.1v-0.2l0-0.2 0-0.2 0-0.1 0-0.1 0-0.1 0-0.1 0-0.1 0-0.1 0-0.1 0-0.1 0-0.1 0-0.1 0-0.1 0-0.1 0-0.1 0-0.1 0.1-0.1 0.1-0.1 0.1-0.1 0.1-0.1 0.1-0.1 0.1-0.1 0.1-0.1 0.1-0.1 0.1-0.1 0.1-0.1 0.1-0.1 0.1 0 0.1 0 0.1 0 0.1 0 0.2 0 0.2 0 0.2 0H23l0.1 0 0.1 0 0.1 0 0.1 0 0.1 0 0.1 0 0.1 0 0.1 0 0.1 0 0.1 0 0.1 0 0.1 0 0.1 0 0.1 0.1 0.1 0.1 0.1 0.1 0.1 0.1 0.1 0.1 0 0.1 0 0.1 0 0.1 0 0.1 0 0.1 0 0.1 0 0.1 0 0.1v0.1l0 0.2 0 0.2 0 0.2 0 0.2 0 0.3h-3l0.2-0.8h1.8l0-0.1v-0.1l0-0.1 0-0.1 0-0.1 0-0.1 0-0.1 0-0.1 0-0.1 -0.1 0 -0.1 0 -0.1 0 -0.1 0 -0.1 0 -0.1 0 -0.1 0h-0.1l-0.1 0 -0.1 0 -0.1 0 -0.1 0 -0.1 0 -0.1 0 -0.1 0 -0.1 0.1 0 0.1 0 0.1 0 0.1 0 0.1 0 0.1 0 0.1 0 0.1L21.9 15.8"/>
              <path id="Stroke-27" class="st13" d="M21.9 15.8L21.9 15.8 21.9 15.8l0 0.1 0 0.1 0 0.1 0 0.1 0 0.1 0 0.1 0 0.1 0.1 0.1 0.1 0.1 0.1 0.1 0.1 0.1 0.1 0 0.1 0 0.1 0 0.1 0 0.1 0 0.1 0 0.1 0 0.1 0 0.1 0h0.1l0.1 0 0.1 0 0.1 0 0.1 0 0.1 0 0.1 0 0.1 0 0.1-0.1 0.1-0.1 0.1-0.1 -0.2 1 -0.1 0 -0.1 0 -0.1 0 -0.1 0 -0.1 0 -0.1 0 -0.1 0 -0.1 0 -0.1 0 -0.1 0 -0.1 0 -0.1 0 -0.1 0h-0.1l-0.1 0h-0.2l-0.1 0 -0.1 0 -0.1 0 -0.1 0 -0.1 0 -0.1 0 -0.1 0 -0.1 0 -0.1 0 -0.1 0 -0.1 0 -0.1 0 -0.1-0.1 -0.1-0.1 -0.1-0.1 -0.1-0.1 -0.1-0.1L21 17 21 16.9l-0.1-0.1 -0.1-0.1 -0.1-0.1 0-0.1 0-0.1 0-0.1 0-0.1 0-0.1 0-0.1v-0.2l0-0.2 0-0.2 0-0.1 0-0.1 0-0.1 0-0.1 0-0.1 0-0.1 0-0.1 0-0.1 0-0.1 0-0.1 0-0.1 0-0.1 0-0.1 0-0.1 0.1-0.1 0.1-0.1 0.1-0.1 0.1-0.1 0.1-0.1 0.1-0.1 0.1-0.1 0.1-0.1 0.1-0.1 0.1-0.1 0.1-0.1 0.1 0 0.1 0 0.1 0 0.1 0 0.2 0 0.2 0 0.2 0H23l0.1 0 0.1 0 0.1 0 0.1 0 0.1 0 0.1 0 0.1 0 0.1 0 0.1 0 0.1 0 0.1 0 0.1 0 0.1 0 0.1 0.1 0.1 0.1 0.1 0.1 0.1 0.1 0.1 0.1 0 0.1 0 0.1 0 0.1 0 0.1 0 0.1 0 0.1 0 0.1 0 0.1v0.1l0 0.2 0 0.2 0 0.2 0 0.2 0 0.3h-3l0.2-0.8h1.8l0-0.1v-0.1l0-0.1 0-0.1 0-0.1 0-0.1 0-0.1 0-0.1 0-0.1 -0.1 0 -0.1 0 -0.1 0 -0.1 0 -0.1 0 -0.1 0 -0.1 0h-0.1l-0.1 0 -0.1 0 -0.1 0 -0.1 0 -0.1 0 -0.1 0 -0.1 0 -0.1 0.1 0 0.1 0 0.1 0 0.1 0 0.1 0 0.1 0 0.1 0 0.1L21.9 15.8"/>
              <path id="Fill-28_1_" class="st3" d="M20.3 16.8l-0.2 0.9h-1l0-0.1 0-0.1 0-0.1 0-0.1 0-0.1 0-0.1 0 0 0 0 -0.1 0.1L19 17.3 19 17.4l-0.1 0.1 -0.1 0.1 -0.1 0.1 -0.1 0 -0.1 0 -0.1 0 -0.1 0 -0.1 0 -0.1 0 -0.1 0 -0.1 0 -0.1 0 -0.1 0 -0.1 0 -0.1 0 -0.1-0.1L17 17.6l-0.1-0.1 -0.1-0.1 -0.1-0.1 -0.1-0.1 0-0.1 0-0.1 0-0.1 0-0.1 0-0.1 0-0.1 0-0.1 0-0.1 0-0.2 0-0.2 0-0.1 0.1-0.1 0.1-0.1 0.1-0.1 0.1-0.1 0.1-0.1 0.1-0.1 0.1-0.1 0.1-0.1 0.1-0.1 0.1-0.1 0.1 0 0.1 0 0.1 0h0l0 0 0 0 0 0 0 0 0.1 0 0.1 0 0.1 0 0.1 0 0.1 0 0.1 0 0.1 0 0.1 0 0.1 0 0.1 0H19l0.1 0h0l0 0h0.1l0 0h0l0 0h0l0 0h0l0 0 0-0.1 0-0.1v-0.1l0-0.1 0 0 0 0 0 0 0 0 0 0 0 0 0 0 0 0 0 0 0 0 0 0 0 0 0 0 0 0 0 0 -0.1 0 -0.1 0 -0.1 0 -0.1 0 -0.1 0 -0.1 0 -0.1 0 -0.1 0 -0.1 0 -0.1 0 -0.1 0 -0.1 0 -0.1 0 -0.1 0 -0.1 0 0 0 0.3-1 0.1 0 0.1 0 0.1 0 0.1 0 0.1 0 0.1 0 0.1 0 0.1 0 0.1 0 0.1 0 0.1 0H19l0.1 0 0.1 0 0.1 0 0.1 0 0.1 0 0.1 0 0.1 0 0.1 0.1 0.1 0.1 0.1 0.1 0.1 0.1 0.1 0.1 0.1 0.1 0.1 0.1 0 0.1 0 0.1 0 0.2 0 0.2L20.3 16.8"/>
              <path id="Stroke-29_1_" class="st13" d="M20.3 16.8l-0.2 0.9h-1l0-0.1 0-0.1 0-0.1 0-0.1 0-0.1 0-0.1 0 0 0 0 -0.1 0.1L19 17.3 19 17.4l-0.1 0.1 -0.1 0.1 -0.1 0.1 -0.1 0 -0.1 0 -0.1 0 -0.1 0 -0.1 0 -0.1 0 -0.1 0 -0.1 0 -0.1 0 -0.1 0 -0.1 0 -0.1 0 -0.1-0.1L17 17.6l-0.1-0.1 -0.1-0.1 -0.1-0.1 -0.1-0.1 0-0.1 0-0.1 0-0.1 0-0.1 0-0.1 0-0.1 0-0.1 0-0.1 0-0.2 0-0.2 0-0.1 0.1-0.1 0.1-0.1 0.1-0.1 0.1-0.1 0.1-0.1 0.1-0.1 0.1-0.1 0.1-0.1 0.1-0.1 0.1-0.1 0.1 0 0.1 0 0.1 0h0l0 0 0 0 0 0 0 0 0.1 0 0.1 0 0.1 0 0.1 0 0.1 0 0.1 0 0.1 0 0.1 0 0.1 0 0.1 0H19l0.1 0h0l0 0h0.1l0 0h0l0 0h0l0 0h0l0 0 0-0.1 0-0.1v-0.1l0-0.1 0 0 0 0 0 0 0 0 0 0 0 0 0 0 0 0 0 0 0 0 0 0 0 0 0 0 0 0 0 0 -0.1 0 -0.1 0 -0.1 0 -0.1 0 -0.1 0 -0.1 0 -0.1 0 -0.1 0 -0.1 0 -0.1 0 -0.1 0 -0.1 0 -0.1 0 -0.1 0 -0.1 0 0 0 0.3-1 0.1 0 0.1 0 0.1 0 0.1 0 0.1 0 0.1 0 0.1 0 0.1 0 0.1 0 0.1 0 0.1 0H19l0.1 0 0.1 0 0.1 0 0.1 0 0.1 0 0.1 0 0.1 0 0.1 0.1 0.1 0.1 0.1 0.1 0.1 0.1 0.1 0.1 0.1 0.1 0.1 0.1 0 0.1 0 0.1 0 0.2 0 0.2L20.3 16.8"/>
              <path id="Fill-30_1_" class="st12" d="M19.3 15.7L19.3 15.7 19.3 15.7 19.3 15.7 19.3 15.7l-0.1-0.1 -0.1 0H19l-0.1 0 -0.1 0 -0.1 0 -0.1 0 -0.1 0 -0.1 0 -0.1 0 0 0 0 0 0 0 0 0 0 0 0 0 -0.1 0 -0.1 0 -0.1 0 -0.1 0L18 16l0 0 0 0.1 0 0.1 0 0.1 0 0.1 0 0.1 0 0.1 0 0.1 0 0.1 0.1 0.1 0.1 0 0.1 0 0.1 0 0.1 0 0.1 0 0.1 0 0.1 0 0.1 0 0.1 0 0.1 0 0.1 0 0.1 0 0.1 0 0 0 0 0 0 0 0 0 0 0 0 0 0 0 0-0.1 0-0.1 0-0.1 0-0.1 0-0.1 0-0.1L19.3 15.7 19.3 15.7"/>
              <path id="Fill-31_1_" class="st3" d="M11.6 17.7h-1.1l0.9-5.4h1.9l0.2 3.2 1.3-3.2h2L16 17.7h-1.1l0.7-4h0l-1.7 4h-1.3l0-0.2 0-0.4L12.5 15l0-0.6 0-0.5 0-0.2h-0.1 0L11.6 17.7"/>
              <path id="Stroke-32" class="st13" d="M11.6 17.7h-1.1l0.9-5.4h1.9l0.2 3.2 1.3-3.2h2L16 17.7h-1.1l0.7-4h0l-1.7 4h-1.3l0-0.2 0-0.4L12.5 15l0-0.6 0-0.5 0-0.2h-0.1 0L11.6 17.7"/>
              <path id="Fill-33_1_" class="st3" d="M30.3 17.7h1.2l0.4-2.3 0-0.1 0-0.1 0-0.1 0-0.1 0-0.1 0-0.1 0-0.1 0.1-0.1 0.1-0.1 0.1-0.1 0.1-0.1 0.1 0 0.1 0 0.1 0 0.1 0 0.2 0h0l0 0 0 0h0l0 0 0 0 0 0h0l0 0 0 0 0-0.1 0-0.1 0-0.1 0-0.1 0-0.1 0-0.1 0-0.1 0-0.1 0-0.1 0-0.1 0-0.1 0 0 0 0 0 0h0l0 0 0 0 0 0 0 0 0 0 0 0h0l-0.1 0 -0.1 0 -0.1 0 -0.1 0 -0.1 0 -0.1 0 -0.1 0 -0.1 0 -0.1 0.1 -0.1 0.1 -0.1 0.1 -0.1 0.1 -0.1 0.1 -0.1 0.1L32.2 14l-0.1 0.1 0.1-0.7 -1.2 0L30.3 17.7"/>
              <path id="Stroke-34" class="st13" d="M30.3 17.7h1.2l0.4-2.3 0-0.1 0-0.1 0-0.1 0-0.1 0-0.1 0-0.1 0-0.1 0.1-0.1 0.1-0.1 0.1-0.1 0.1-0.1 0.1 0 0.1 0 0.1 0 0.1 0 0.2 0h0l0 0 0 0h0l0 0 0 0 0 0h0l0 0 0 0 0-0.1 0-0.1 0-0.1 0-0.1 0-0.1 0-0.1 0-0.1 0-0.1 0-0.1 0-0.1 0-0.1 0 0 0 0 0 0h0l0 0 0 0 0 0 0 0 0 0 0 0h0l-0.1 0 -0.1 0 -0.1 0 -0.1 0 -0.1 0 -0.1 0 -0.1 0 -0.1 0 -0.1 0.1 -0.1 0.1 -0.1 0.1 -0.1 0.1 -0.1 0.1 -0.1 0.1L32.2 14l-0.1 0.1 0.1-0.7 -1.2 0L30.3 17.7"/>
              <path id="Fill-35_1_" class="st3" d="M35.3 13.3l0.1 0 0.1 0 0.1 0 0.1 0 0.1 0 0.1 0 0.1 0 0.1 0 0.1 0 0.1 0 0.1 0 0.1 0.1 0.1 0.1 0.1 0.1 0.1 0.1 0.1 0.1L37 14l0.1 0.1 0.1 0.1 0.1 0.1 0.1 0.1 0 0.1 0 0.1 0 0.1 0 0.1 0 0.1 0 0.1 0 0.1 0 0.1 0 0.1 0 0.1 0 0.1 0 0.1 0 0.1 0 0.1 0 0.1 0 0.1 0 0.1 0 0.1 0 0.1 -0.1 0.1 -0.1 0.1 -0.1 0.1L37 16.9 37 17l-0.1 0.1 -0.1 0.1 -0.1 0.1 -0.1 0.1 -0.1 0.1 -0.1 0.1 -0.1 0.1 -0.1 0.1 -0.1 0 -0.1 0 -0.1 0 -0.1 0 -0.1 0 -0.1 0 -0.1 0 -0.1 0 -0.1 0 -0.1 0 -0.1 0 -0.1 0 -0.1 0 -0.1 0 -0.1 0 -0.1 0 -0.1 0 -0.1 0 -0.1 0 -0.1 0 -0.1 0 -0.1 0 -0.1-0.1 -0.1-0.1 -0.1-0.1 -0.1-0.1 -0.1-0.1 -0.1-0.1 -0.1-0.1L33.4 17l-0.1-0.1 -0.1-0.1 -0.1-0.1 0-0.1 0-0.1 0-0.1 0-0.1 0-0.1 0-0.1 0-0.1 0-0.1 0-0.1 0-0.1 0-0.1 0-0.1 0-0.1 0-0.1 0-0.1 0-0.1 0-0.1 0-0.1 0-0.1 0.1-0.1 0.1-0.1 0.1-0.1 0.1-0.1 0.1-0.1 0.1-0.1 0.1-0.1 0.1-0.1 0.1-0.1 0.1-0.1 0.1-0.1 0.1-0.1 0.1-0.1 0.1 0 0.1 0 0.1 0 0.1 0 0.1 0 0.1 0 0.1 0 0.1 0 0.1 0L35.3 13.3"/>
              <path id="Stroke-36" class="st13" d="M35.3 13.3L35.3 13.3l0.1 0 0.1 0 0.1 0 0.1 0 0.1 0 0.1 0 0.1 0 0.1 0 0.1 0 0.1 0 0.1 0 0.1 0.1 0.1 0.1 0.1 0.1 0.1 0.1 0.1 0.1L37 14l0.1 0.1 0.1 0.1 0.1 0.1 0.1 0.1 0 0.1 0 0.1 0 0.1 0 0.1 0 0.1 0 0.1 0 0.1 0 0.1 0 0.1 0 0.1 0 0.1 0 0.1 0 0.1 0 0.1 0 0.1 0 0.1 0 0.1 0 0.1 0 0.1 -0.1 0.1 -0.1 0.1 -0.1 0.1L37 16.9 37 17l-0.1 0.1 -0.1 0.1 -0.1 0.1 -0.1 0.1 -0.1 0.1 -0.1 0.1 -0.1 0.1 -0.1 0.1 -0.1 0 -0.1 0 -0.1 0 -0.1 0 -0.1 0 -0.1 0 -0.1 0 -0.1 0 -0.1 0 -0.1 0 -0.1 0 -0.1 0 -0.1 0 -0.1 0 -0.1 0 -0.1 0 -0.1 0 -0.1 0 -0.1 0 -0.1 0 -0.1 0 -0.1 0 -0.1-0.1 -0.1-0.1 -0.1-0.1 -0.1-0.1 -0.1-0.1 -0.1-0.1 -0.1-0.1L33.4 17l-0.1-0.1 -0.1-0.1 -0.1-0.1 0-0.1 0-0.1 0-0.1 0-0.1 0-0.1 0-0.1 0-0.1 0-0.1 0-0.1 0-0.1 0-0.1 0-0.1 0-0.1 0-0.1 0-0.1 0-0.1 0-0.1 0-0.1 0-0.1 0.1-0.1 0.1-0.1 0.1-0.1 0.1-0.1 0.1-0.1 0.1-0.1 0.1-0.1 0.1-0.1 0.1-0.1 0.1-0.1 0.1-0.1 0.1-0.1 0.1-0.1 0.1 0 0.1 0 0.1 0 0.1 0 0.1 0 0.1 0 0.1 0 0.1 0 0.1 0L35.3 13.3"/>
              <path id="Fill-37_1_" class="st3" d="M37 17.5h0.3v0h-0.1v0.3h-0.1v-0.3L37 17.5 37 17.5"/>
              <path id="Stroke-38" class="st13" d="M37 17.5h0.3v0h-0.1v0.3h-0.1v-0.3L37 17.5 37 17.5"/>
              <path id="Fill-39_1_" class="st3" d="M37.4 17.5h0.1l0.1 0.2 0.1-0.2h0.1v0.3h-0.1v-0.2l-0.1 0.2h-0.1L37.4 17.5l0.1 0.3h-0.1V17.5"/>
              <path id="Stroke-40" class="st13" d="M37.4 17.5h0.1l0.1 0.2 0.1-0.2h0.1v0.3h-0.1v-0.2l-0.1 0.2h-0.1L37.4 17.5l0.1 0.3h-0.1V17.5"/>
              <path id="Fill-41_1_" class="st2" d="M34.4 15.4l0 0.2 0 0.1v0.1l0 0.1 0 0.1 0 0.1 0 0.1 0 0.1 0 0.1 0.1 0.1 0.1 0.1 0.1 0 0.1 0 0.1 0 0.1 0 0.1 0 0.1 0 0.1 0 0.1 0 0.1 0 0.1 0 0.1-0.1 0.1-0.1 0.1-0.1 0.1-0.1 0.1-0.1 0.1-0.1 0-0.1 0-0.1 0-0.1 0-0.1 0-0.2 0-0.1 0-0.1V15l0-0.1 0-0.1 0-0.1 0-0.1 0-0.1 0-0.1 -0.1-0.1 -0.1-0.1 -0.1 0 -0.1 0 -0.1 0 -0.1 0h-0.1l-0.1 0 -0.1 0 -0.1 0 -0.1 0 -0.1 0.1 -0.1 0.1 -0.1 0.1 -0.1 0.1 -0.1 0.1 -0.1 0.1 0 0.1 0 0.1 0 0.1 0 0.1L34.4 15.4 34.4 15.4"/>
            </g>
          </g>
        </g>
      </g>
    </g>
  </g>
</svg>
