<?xml version="1.0" encoding="UTF-8"?>
<svg width="112px" height="112px" viewBox="0 0 112 112" version="1.1" xmlns="http://www.w3.org/2000/svg" xmlns:xlink="http://www.w3.org/1999/xlink">
    <!-- Generator: Sketch 63.1 (92452) - https://sketch.com -->
    <title>Badge / Jobs / Hover / Evenings</title>
    <desc>Created with Sketch.</desc>
    <defs>
        <linearGradient x1="2.36134945%" y1="0%" x2="243.37464%" y2="253.935268%" id="linearGradient-1">
            <stop stop-color="#A8DC28" offset="0%"></stop>
            <stop stop-color="#31C5F2" offset="100%"></stop>
        </linearGradient>
    </defs>
    <g id="Badge-/-Jobs-/-Hover-/-Evenings" stroke="none" stroke-width="1" fill="none" fill-rule="evenodd">
        <g id="Badge-/-Properties-/-Hover">
            <g id="Badge-/-z.Base-/-Large">
                <g id="Badge-/-z.Base-/-Shapes-/-Large" fill="#FFFFFF" fill-rule="evenodd" stroke="#CBD5D9" stroke-width="1">
                    <rect id="Rectangle" x="0.5" y="0.5" width="111" height="111" rx="4"></rect>
                </g>
                <text id="Category-name" font-family="Poppins-SemiBold, Poppins" font-size="14" font-weight="500" fill="#82C148">
                    <tspan x="24.003" y="81">Evenings</tspan>
                </text>
                <g id="Icon-/-Category-/-Jobs-/-Evenings" transform="translate(32.000000, 21.000000)" fill="url(#linearGradient-1)" fill-rule="evenodd">
                    <path d="M29.7532213,33.6594125 C22.8936864,32.7568421 17.4782641,27.2511628 16.6659508,20.3916279 C15.9438944,14.0736352 19.1931478,8.47769884 24.1572849,5.58947362 C25.1501123,5.04793139 24.6988271,3.51356174 23.6157427,3.60381878 C22.3521442,3.69407582 21.0885456,3.8745899 19.8249471,4.14536101 C11.1602714,6.22127289 4.75202172,13.712607 4.2104795,22.5577968 C3.39816615,34.4717258 12.8751552,44.4 24.6085701,44.4 C33.5440169,44.4 41.2158651,38.6235496 43.9235763,30.5906732 C44.2846044,29.5075887 43.0210059,28.6952754 42.1184355,29.5075887 C39.0496962,32.576328 34.5368443,34.2912117 29.7532213,33.6594125 Z" id="Path"></path>
                </g>
            </g>
        </g>
    </g>
</svg>