<?xml version="1.0" encoding="UTF-8"?>
<svg width="112px" height="112px" viewBox="0 0 112 112" version="1.1" xmlns="http://www.w3.org/2000/svg" xmlns:xlink="http://www.w3.org/1999/xlink">
    <!-- Generator: Sketch 63.1 (92452) - https://sketch.com -->
    <title>Badge / Jobs / Selected / Part Time</title>
    <desc>Created with Sketch.</desc>
    <g id="Badge-/-Jobs-/-Selected-/-Part-Time" stroke="none" stroke-width="1" fill="none" fill-rule="evenodd">
        <rect id="Rectangle" fill="#FFFFFF" x="2" y="2" width="108" height="108"></rect>
        <g id="Category-buttons-/-Home&amp;PAA-/-Selected-/-Ic-btn-Adult-ON">
            <g id="Badge-/-z.Base-/-1">
                <g id="Badge-/-z.Base-/-Large">
                    <g id="Badge-/-z.Base-/-Shapes-/-Large" stroke="#91D851" stroke-width="3">
                        <rect id="Rectangle" x="1.5" y="1.5" width="109" height="109" rx="4"></rect>
                    </g>
                    <text id="Category-name" font-family="Poppins-SemiBold, Poppins" font-size="14" font-weight="500" fill="#82C148">
                        <tspan x="22.148" y="81">Part Time</tspan>
                    </text>
                    <g id="Icon-/-Category-/-Jobs-/-Part-Time" transform="translate(32.000000, 21.000000)" fill="#91D851" fill-rule="evenodd">
                        <path d="M28.8613139,2.4 C29.4744526,2.4 30,2.92363636 30,3.53454545 L30,3.70909091 C30,4.32 29.4744526,4.84363636 28.8613139,4.84363636 L27.7226277,4.84363636 C27.1094891,4.84363636 26.5839416,5.36727273 26.5839416,5.97818182 L26.5833145,6.16525947 C30.1154977,6.63219497 33.3482982,8.08661408 36.0047078,10.2345499 C35.9708685,9.70475799 36.1827772,9.15012769 36.6047936,8.77731855 L36.6047936,8.77731855 L36.7296014,8.67964917 C37.368579,8.22923658 38.2214547,8.34441057 38.8298755,8.87092027 L38.8298755,8.87092027 L40.3132633,10.1813444 C40.9622456,10.9301582 40.9622456,12.0533789 40.3132633,12.7085909 L40.3132633,12.7085909 L40.1950384,12.8174151 C39.8327788,13.1209208 39.3803366,13.2438475 38.945025,13.1861953 C41.4750575,16.3329597 43.0423736,20.2820579 43.1903936,24.5472693 C43.5377303,35.6872068 34.4201435,44.738406 23.3053711,44.390283 C13.3194427,44.1291907 5.15703171,35.9482991 4.80969507,25.8527307 C4.65975954,21.0439306 6.25734461,16.6243476 9.01572906,13.1820314 C8.59351329,13.2484043 8.16948493,13.1182792 7.86326809,12.8105831 L7.59796085,12.4551312 C7.06734638,11.9219534 7.06734638,10.9444608 7.59796085,10.411283 L9.27824001,8.81174962 C9.80885449,8.27857182 10.6047762,8.27857182 11.1353907,8.72288665 L11.4891336,8.98947555 C11.84637,9.29715736 12.0269055,9.75280124 11.9967505,10.2027147 C14.7117693,8.02359119 18.0360749,6.57196449 21.6785407,6.13691781 L21.6788321,6.06545455 C21.6788321,5.45454545 21.1532847,4.93090909 20.540146,4.93090909 L19.1386861,4.93090909 C18.5255474,4.93090909 18,4.40727273 18,3.79636364 L18,3.53454545 C18,2.92363636 18.5255474,2.4 19.1386861,2.4 L28.8613139,2.4 Z M38.9355198,25.9397615 C39.3696906,17.0626238 32.0756212,9.75203978 23.2185369,10.1871936 C15.663965,10.5353166 9.41190553,16.7145007 9.06456889,24.3732078 C8.63039809,33.2503455 15.9244675,40.5609295 24.7815518,40.1257757 C32.4229578,39.7776526 38.5881832,33.5984685 38.9355198,25.9397615 Z M24,13.2 C24.8627451,13.2 29.7803922,13.2891892 33.5764706,17.4810811 C36.854902,21.0486486 37.2,25.3297297 37.2,26.4 L37.2,26.4 L24,26.4 Z" id="Combined-Shape"></path>
                    </g>
                </g>
            </g>
            <g id="Icon-/-Check-/-Checkbox" transform="translate(80.000000, 8.000000)" fill="#91D851" fill-rule="evenodd">
                <path d="M10.9709463,13.366529 L16.3112027,6.57437624 C16.8225102,5.92405564 17.7675383,5.80875183 18.4219821,6.31683796 C19.0764259,6.8249241 19.1924607,7.76399831 18.6811532,8.41431891 C14.2260171,13.9508613 11.8927875,16.7447414 11.6814646,16.7959592 C11.0876228,17.1417187 10.3115238,17.0459069 9.82251261,16.5248105 L6.403984,12.8819836 C5.83758363,12.2784203 5.87081232,11.3328702 6.47820235,10.7700383 C7.08559238,10.2072064 8.0371375,10.2402257 8.60353787,10.843789 L10.9709463,13.366529 Z" id="Path"></path>
            </g>
        </g>
    </g>
</svg>