<?xml version="1.0" encoding="UTF-8"?>
<svg width="112px" height="112px" viewBox="0 0 112 112" version="1.1" xmlns="http://www.w3.org/2000/svg" xmlns:xlink="http://www.w3.org/1999/xlink">
    <!-- Generator: Sketch 63.1 (92452) - https://sketch.com -->
    <title>Badge / Jobs / Hover / Temporary</title>
    <desc>Created with Sketch.</desc>
    <defs>
        <linearGradient x1="24.0870757%" y1="0%" x2="155.18565%" y2="253.935268%" id="linearGradient-1">
            <stop stop-color="#A8DC28" offset="0%"></stop>
            <stop stop-color="#31C5F2" offset="100%"></stop>
        </linearGradient>
    </defs>
    <g id="Badge-/-Jobs-/-Hover-/-Temporary" stroke="none" stroke-width="1" fill="none" fill-rule="evenodd">
        <g id="Badge-/-Properties-/-Hover">
            <g id="Badge-/-z.Base-/-Large">
                <g id="Badge-/-z.Base-/-Shapes-/-Large" fill="#FFFFFF" fill-rule="evenodd" stroke="#CBD5D9" stroke-width="1">
                    <rect id="Rectangle" x="0.5" y="0.5" width="111" height="111" rx="4"></rect>
                </g>
                <text id="Category-name" font-family="Poppins-SemiBold, Poppins" font-size="14" font-weight="500" fill="#82C148">
                    <tspan x="16.457" y="81">Temporary</tspan>
                </text>
                <g id="Icon-/-Category-/-Jobs-/-Temporary" transform="translate(32.000000, 21.000000)" fill="url(#linearGradient-1)" fill-rule="evenodd">
                    <path d="M36.794742,2.4 C38.0153808,2.4 39.0410565,3.40189394 39.1244103,4.63756313 L39.1298771,4.8 C39.0237346,6.10909091 38.0684521,7.2 36.794742,7.2 L36.7191229,7.2 L36.7343626,7.56664444 C36.8987119,12.8794664 34.8948781,16.6961787 31.6883763,19.1987198 C30.7009654,19.9213395 29.6567161,20.4591211 28.5672922,20.7778452 C27.57736,21.089443 26.8998352,21.6518604 26.4553683,22.407339 C26.2101136,22.8242083 26.0502029,23.2772196 25.9612028,23.7310507 C25.9297374,23.8915001 25.9111332,24.0272826 25.9006494,24.1456083 L25.8891041,24.3611202 C25.8198642,25.2056538 26.1924324,25.9448589 26.9247751,26.5978585 C27.40055,27.0220871 28.0056291,27.3738943 28.4266276,27.5419453 L28.5024,27.5688 L28.5346151,27.5737712 C28.6019908,27.5879991 28.6641435,27.6099346 28.7345503,27.6407647 L28.77,27.6564 L28.8160392,27.6565943 L28.9922191,27.7384573 C32.080231,29.1733198 34.1879856,31.2977192 35.436547,33.9173099 C36.5361323,36.2243359 36.8718452,38.6250506 36.74542,40.800747 L36.794742,40.8 C38.0153808,40.8 39.0410565,41.8018939 39.1244103,43.0375631 L39.1298771,43.2 C39.0237346,44.5090909 38.0684521,45.6 36.794742,45.6 L10.365258,45.6 C9.14461916,45.6 8.11894349,44.5981061 8.03558968,43.3624369 L8.03012285,43.2 C8.03012285,41.8909091 9.09154791,40.8 10.365258,40.8 L10.41458,40.800747 C10.2881548,38.6250506 10.6238677,36.2243359 11.723453,33.9173099 C12.9152616,31.4167915 14.8899301,29.3674702 17.752753,27.9383761 L18.1677809,27.7384573 L18.3439608,27.6565943 L18.3888,27.6564 L18.4254497,27.6407647 C18.4958565,27.6099346 18.5580092,27.5879991 18.6253849,27.5737712 L18.6564,27.5688 L18.7333724,27.5419453 C19.1017461,27.3949007 19.6110565,27.1071677 20.0513602,26.753332 L20.2352249,26.5978585 C20.9065391,25.9992756 21.2755427,25.328256 21.2767847,24.5147395 L21.2679562,24.2892857 C21.2679562,24.197363 21.2512396,23.9984663 21.1987972,23.7310507 C21.1097971,23.2772196 20.9498864,22.8242083 20.7046317,22.407339 C20.2601648,21.6518604 19.58264,21.089443 18.6096757,20.7829986 C17.5032839,20.4591211 16.4590346,19.9213395 15.4498562,19.1822649 C12.2789907,16.7070185 10.2794281,12.9139656 10.4235389,7.63867189 L10.4401229,7.2 L10.365258,7.2 C9.14461916,7.2 8.11894349,6.19810606 8.03558968,4.96243687 L8.03012285,4.8 C8.03012285,3.49090909 9.09154791,2.4 10.365258,2.4 L36.794742,2.4 Z M23.6330713,26.4 C23.6330713,26.4 24.1637838,20.8329897 20.5549386,19.0515464 C20.4487961,19.0515464 20.4487961,18.9402062 20.3426536,18.9402062 C19.599656,18.828866 16.5215233,17.6041237 15.3539558,15.6 L31.8060442,15.6 C31.8060442,15.6 31.0630467,17.3814433 27.135774,19.0515464 C25.7559214,19.6082474 24.8006388,20.8329897 24.3760688,22.1690722 C24.0576413,23.171134 23.8453563,24.5072165 23.9514988,26.4 L23.8453563,26.4 C24.3763452,36.8054167 32.2860217,38.1153448 34.9010415,38.2633145 C34.7448622,37.0716146 34.4113659,35.8529164 33.849369,34.6737979 C32.8282585,32.5314188 31.1425237,30.7767117 28.6513724,29.5262116 L28.3608,29.3856 L28.2916645,29.366815 L28.1905603,29.3270924 L28.1424,29.304 L28.0314219,29.2681522 C26.0554089,28.6254362 24.0694865,26.8932653 24.1204554,24.5433992 L24.1338038,24.2892857 C24.1338038,23.5646202 24.333429,22.5466872 24.9399405,21.5157749 C25.5987991,20.395886 26.621315,19.5470894 28.0563588,19.0955728 C28.9563192,18.8321246 29.8197225,18.3874775 30.6282346,17.7963065 C33.3758438,15.6514632 35.1033816,12.3806191 34.9793068,7.7021472 L34.9614913,7.24498815 L35.8291229,7.2 L11.3301229,7.2 L12.1985087,7.24498815 C11.9462258,12.1684252 13.6955236,15.5822747 16.509998,17.7798517 C17.3402775,18.3874775 18.2036808,18.8321246 19.1206092,19.1007262 C20.538685,19.5470894 21.5612009,20.395886 22.2200595,21.5157749 C22.826571,22.5466872 23.0261962,23.5646202 23.0232564,24.2174513 C23.2251667,26.6801941 21.314345,28.4751245 19.3402383,29.1951395 L19.0164,29.304 L18.9694397,29.3270924 C18.9342363,29.3425075 18.9010965,29.3556989 18.8683355,29.366815 L18.798,29.3856 L18.5086276,29.5262116 C16.1485895,30.7108959 14.5114184,32.3481095 13.4774027,34.3387662 L13.310631,34.6737979 C12.7739526,35.7997959 12.4456503,36.9618877 12.2805111,38.1023039 C22.9106613,38.4797856 23.5269287,26.499005 23.5269287,26.4 L23.5269287,26.4 L23.6330713,26.4 Z" id="Combined-Shape"></path>
                </g>
            </g>
        </g>
    </g>
</svg>