<?xml version="1.0" encoding="UTF-8"?>
<svg width="112px" height="112px" viewBox="0 0 112 112" version="1.1" xmlns="http://www.w3.org/2000/svg" xmlns:xlink="http://www.w3.org/1999/xlink">
    <!-- Generator: Sketch 63.1 (92452) - https://sketch.com -->
    <title>Badge / Jobs / Selected / Weekends </title>
    <desc>Created with Sketch.</desc>
    <defs>
        <linearGradient x1="0%" y1="2.81632653%" x2="252.959821%" y2="242.448302%" id="linearGradient-1">
            <stop stop-color="#A8DC28" offset="0%"></stop>
            <stop stop-color="#31C5F2" offset="100%"></stop>
        </linearGradient>
    </defs>
    <g id="Badge-/-Jobs-/-Selected-/-Weekends-" stroke="none" stroke-width="1" fill="none" fill-rule="evenodd">
        <g id="Badge-/-Properties-/-Selected-Copy">
            <g id="Badge-/-z.Base-/-Large">
                <g id="Badge-/-z.Base-/-Shapes-/-Large" fill="#FFFFFF" fill-rule="evenodd" stroke="#CBD5D9" stroke-width="1">
                    <rect id="Rectangle" x="0.5" y="0.5" width="111" height="111" rx="4"></rect>
                </g>
                <text id="Category-name" font-family="Poppins-SemiBold, Poppins" font-size="14" font-weight="500" fill="#82C148">
                    <tspan x="18.599" y="81">Weekends</tspan>
                </text>
                <g id="Icon-/-Category-/-Jobs-/-Weekends" transform="translate(32.000000, 21.000000)" fill="url(#linearGradient-1)" fill-rule="evenodd">
                    <path d="M10.4486865,7.2 L10.4486865,11.6676471 C10.4486865,13.3088235 11.7495714,14.5852941 13.4221378,14.5852941 L13.4221378,14.5852941 L13.9796599,14.5852941 C15.6522263,14.5852941 16.9531113,13.3088235 16.9531113,11.6676471 L16.9531113,11.6676471 L16.9531113,7.2 L31.6345272,7.2 L31.6345272,11.6676471 C31.6345272,13.3088235 32.9354122,14.5852941 34.6079785,14.5852941 L34.6079785,14.5852941 L35.1655006,14.5852941 C36.838067,14.5852941 38.138952,13.6735294 38.138952,12.0323529 L38.138952,12.0323529 L38.138952,7.2 L42.4132883,7.2 C43.9000139,7.2 45.1079785,8.38529412 45.2008989,9.84411765 L45.2008989,9.84411765 L45.2008989,41.7558824 C45.2008989,43.2147059 43.9929343,44.4 42.5062086,44.4 L42.5062086,44.4 L5.89558914,44.4 C4.40886348,44.4 3.20089888,43.2147059 3.20089888,41.7558824 L3.20089888,41.7558824 L3.20089888,9.84411765 C3.20089888,8.38529412 4.40886348,7.2 5.89558914,7.2 L5.89558914,7.2 L10.4486865,7.2 Z M42.8008989,18 L6.80089888,18 L6.80089888,42 L42.8008989,42 L42.8008989,18 Z M30.4638202,34.32048 C30.889039,34.32048 31.1343591,34.562805 31.2849097,35.008943 L31.2849097,35.008943 L31.3100818,35.1622642 L31.3100818,39.2377358 C31.3100818,39.685027 30.910713,40.07952 30.4638202,40.07952 L30.4638202,40.07952 L25.6961798,40.07952 C25.249287,40.07952 24.8499182,39.685027 24.8499182,39.2377358 L24.8499182,39.2377358 L24.8499182,35.1622642 C24.8499182,34.714973 25.249287,34.32048 25.6961798,34.32048 L25.6961798,34.32048 Z M23.1289888,34.32048 C23.5955037,34.32048 23.9752503,34.633072 23.9752503,35.1622642 L23.9752503,35.1622642 L23.9752503,39.2377358 C23.9752503,39.685027 23.5758816,40.07952 23.1289888,40.07952 L23.1289888,40.07952 L18.3613483,40.07952 C17.9144555,40.07952 17.5150867,39.685027 17.5150867,39.2377358 L17.5150867,39.2377358 L17.5150867,35.1622642 C17.5150867,34.714973 17.9144555,34.32048 18.3613483,34.32048 L18.3613483,34.32048 Z M15.0606742,34.32048 C15.5271891,34.32048 15.9069357,34.633072 15.9069357,35.1622642 L15.9069357,35.1622642 L15.9069357,39.2377358 C15.9069357,39.685027 15.507567,40.07952 15.0606742,40.07952 L15.0606742,40.07952 L10.2930337,40.07952 C9.84614091,40.07952 9.44677213,39.685027 9.44677213,39.2377358 L9.44677213,39.2377358 L9.44677213,35.1622642 C9.44677213,34.714973 9.84614091,34.32048 10.2930337,34.32048 L10.2930337,34.32048 Z M37.7986517,34.8 C37.9820225,34.8 38.0737079,34.890566 38.1653933,35.1622642 L38.1653933,35.1622642 L38.1653933,39.2377358 C38.1653933,39.4188679 37.9820225,39.6 37.7986517,39.6 L37.7986517,39.6 L33.0310112,39.6 C32.8476404,39.6 32.6642697,39.4188679 32.6642697,39.2377358 L32.6642697,39.2377358 L32.6642697,35.1622642 C32.6642697,34.9811321 32.8476404,34.8 33.0310112,34.8 L33.0310112,34.8 Z M30.3504,35.2788 L25.8084,35.2788 L25.8084,39.12 L30.3504,39.12 L30.3504,35.2788 Z M23.016,35.2788 L18.474,35.2788 L18.474,39.12 L23.016,39.12 L23.016,35.2788 Z M14.9472,35.2788 L10.4052,35.2788 L10.4052,39.12 L14.9472,39.12 L14.9472,35.2788 Z M30.4638202,27.12048 C30.910713,27.12048 31.3100818,27.514973 31.3100818,27.9622642 L31.3100818,27.9622642 L31.3100818,32.0377358 C31.3100818,32.485027 30.910713,32.87952 30.4638202,32.87952 L30.4638202,32.87952 L25.6961798,32.87952 C25.2296648,32.87952 24.8499182,32.566928 24.8499182,32.0377358 L24.8499182,32.0377358 L24.8499182,27.9622642 C24.8499182,27.514973 25.249287,27.12048 25.6961798,27.12048 L25.6961798,27.12048 Z M23.1289888,27.12048 C23.5758816,27.12048 23.9752503,27.514973 23.9752503,27.9622642 L23.9752503,27.9622642 L23.9752503,32.0377358 C23.9752503,32.485027 23.5758816,32.87952 23.1289888,32.87952 L23.1289888,32.87952 L18.3613483,32.87952 C17.8948334,32.87952 17.5150867,32.566928 17.5150867,32.0377358 L17.5150867,32.0377358 L17.5150867,27.9622642 C17.5150867,27.514973 17.9144555,27.12048 18.3613483,27.12048 L18.3613483,27.12048 Z M15.0606742,27.12048 C15.507567,27.12048 15.9069357,27.514973 15.9069357,27.9622642 L15.9069357,27.9622642 L15.9069357,32.0377358 C15.9069357,32.485027 15.507567,32.87952 15.0606742,32.87952 L15.0606742,32.87952 L10.2930337,32.87952 C9.82651875,32.87952 9.44677213,32.566928 9.44677213,32.0377358 L9.44677213,32.0377358 L9.44677213,27.9622642 C9.44677213,27.514973 9.84614091,27.12048 10.2930337,27.12048 L10.2930337,27.12048 Z M37.7986517,27.6 C37.9820225,27.6 38.1653933,27.7811321 38.1653933,27.9622642 L38.1653933,27.9622642 L38.1653933,32.0377358 C38.1653933,32.2188679 37.9820225,32.4 37.7986517,32.4 L37.7986517,32.4 L33.0310112,32.4 C32.8476404,32.4 32.6642697,32.309434 32.6642697,32.0377358 L32.6642697,32.0377358 L32.6642697,27.9622642 C32.6642697,27.7811321 32.8476404,27.6 33.0310112,27.6 L33.0310112,27.6 Z M30.3504,28.0788 L25.8084,28.0788 L25.8084,31.92 L30.3504,31.92 L30.3504,28.0788 Z M23.016,28.0788 L18.474,28.0788 L18.474,31.92 L23.016,31.92 L23.016,28.0788 Z M14.9472,28.0788 L10.4052,28.0788 L10.4052,31.92 L14.9472,31.92 L14.9472,28.0788 Z M30.4638202,19.92048 C30.910713,19.92048 31.3100818,20.314973 31.3100818,20.7622642 L31.3100818,20.7622642 L31.3100818,24.8377358 C31.3100818,25.285027 30.910713,25.67952 30.4638202,25.67952 L30.4638202,25.67952 L25.6961798,25.67952 C25.249287,25.67952 24.8499182,25.285027 24.8499182,24.8377358 L24.8499182,24.8377358 L24.8499182,20.7622642 C24.8499182,20.314973 25.249287,19.92048 25.6961798,19.92048 L25.6961798,19.92048 Z M23.1289888,19.92048 C23.5758816,19.92048 23.9752503,20.314973 23.9752503,20.7622642 L23.9752503,20.7622642 L23.9752503,24.8377358 C23.9752503,25.285027 23.5758816,25.67952 23.1289888,25.67952 L23.1289888,25.67952 L18.3613483,25.67952 C17.9144555,25.67952 17.5150867,25.285027 17.5150867,24.8377358 L17.5150867,24.8377358 L17.5150867,20.7622642 C17.5150867,20.314973 17.9144555,19.92048 18.3613483,19.92048 L18.3613483,19.92048 Z M15.0606742,19.92048 C15.507567,19.92048 15.9069357,20.314973 15.9069357,20.7622642 L15.9069357,20.7622642 L15.9069357,24.8377358 C15.9069357,25.285027 15.507567,25.67952 15.0606742,25.67952 L15.0606742,25.67952 L10.2930337,25.67952 C9.84614091,25.67952 9.44677213,25.285027 9.44677213,24.8377358 L9.44677213,24.8377358 L9.44677213,20.7622642 C9.44677213,20.314973 9.84614091,19.92048 10.2930337,19.92048 L10.2930337,19.92048 Z M37.7986517,20.4 C37.9820225,20.4 38.1653933,20.5811321 38.1653933,20.7622642 L38.1653933,20.7622642 L38.1653933,24.8377358 C38.1653933,25.0188679 37.9820225,25.2 37.7986517,25.2 L37.7986517,25.2 L33.0310112,25.2 C32.8476404,25.2 32.6642697,25.0188679 32.6642697,24.8377358 L32.6642697,24.8377358 L32.6642697,20.7622642 C32.6642697,20.5811321 32.8476404,20.4 33.0310112,20.4 L33.0310112,20.4 Z M30.3504,20.8788 L25.8084,20.8788 L25.8084,24.72 L30.3504,24.72 L30.3504,20.8788 Z M23.016,20.8788 L18.474,20.8788 L18.474,24.72 L23.016,24.72 L23.016,20.8788 Z M14.9472,20.8788 L10.4052,20.8788 L10.4052,24.72 L14.9472,24.72 L14.9472,20.8788 Z M14.1438202,3.6 C15.0606742,3.6 15.7941573,4.34563107 15.7941573,5.2776699 L15.7941573,5.2776699 L15.7941573,11.5223301 C15.7941573,12.4543689 15.0606742,13.2 14.1438202,13.2 L14.1438202,13.2 L13.5937079,13.2 C12.7685393,13.2 12.0350562,12.4543689 11.9433708,11.5223301 L11.9433708,11.5223301 L11.9433708,5.2776699 C11.9433708,4.34563107 12.6768539,3.6 13.5937079,3.6 L13.5937079,3.6 Z M35.1397753,3.6 C36.0566292,3.6 36.7901124,4.34563107 36.7901124,5.2776699 L36.7901124,5.2776699 L36.7901124,11.5223301 C36.7901124,12.4543689 36.0566292,13.2 35.1397753,13.2 L35.1397753,13.2 L34.5896629,13.2 C33.672809,13.2 32.9393258,12.4543689 32.9393258,11.5223301 L32.9393258,11.5223301 L32.9393258,5.2776699 C32.9393258,4.34563107 33.672809,3.6 34.5896629,3.6 L34.5896629,3.6 Z" id="Combined-Shape"></path>
                </g>
            </g>
            <g id="Badge-/-z.Base-/-Shapes-/-Large" stroke="#91D851" stroke-width="3">
                <rect id="Rectangle" x="1.5" y="1.5" width="109" height="109" rx="4"></rect>
            </g>
            <g id="Icon-/-Check-/-Checkbox" transform="translate(80.000000, 8.000000)" fill="#91D851" fill-rule="evenodd">
                <path d="M10.9709463,13.366529 L16.3112027,6.57437624 C16.8225102,5.92405564 17.7675383,5.80875183 18.4219821,6.31683796 C19.0764259,6.8249241 19.1924607,7.76399831 18.6811532,8.41431891 C14.2260171,13.9508613 11.8927875,16.7447414 11.6814646,16.7959592 C11.0876228,17.1417187 10.3115238,17.0459069 9.82251261,16.5248105 L6.403984,12.8819836 C5.83758363,12.2784203 5.87081232,11.3328702 6.47820235,10.7700383 C7.08559238,10.2072064 8.0371375,10.2402257 8.60353787,10.843789 L10.9709463,13.366529 Z" id="Path"></path>
            </g>
        </g>
    </g>
</svg>