<?xml version="1.0" encoding="UTF-8" standalone="no"?>
<svg width="29px" height="40px" viewBox="0 0 29 40" version="1.1" xmlns="http://www.w3.org/2000/svg" xmlns:xlink="http://www.w3.org/1999/xlink" xmlns:sketch="http://www.bohemiancoding.com/sketch/ns">
    <!-- Generator: Sketch 3.2.2 (9983) - http://www.bohemiancoding.com/sketch -->
    <title>Plate icon</title>
    <desc>Created with Sketch.</desc>
    <defs></defs>
    <g id="PAA" stroke="none" stroke-width="1" fill="none" fill-rule="evenodd" sketch:type="MSPage">
        <g id="Desktop-HD-Motors-PAA-3.1" sketch:type="MSArtboardGroup" transform="translate(-570.000000, -707.000000)">
            <g id="2-Milage" sketch:type="MSLayerGroup" transform="translate(458.000000, 297.000000)">
                <g id="Registration" transform="translate(44.000000, 267.000000)">
                    <g id="Plate-field" transform="translate(68.000000, 143.000000)">
                        <g id="Plate-icon">
                            <rect id="Rectangle-13" fill="#0A3D9F" sketch:type="MSShapeGroup" x="0" y="0" width="29" height="40" rx="4"></rect>
                            <g id="Imported-Layers" transform="translate(5.000000, 4.000000)" sketch:type="MSShapeGroup">
                                <path d="M18.4003824,10.7342907 L17.5967433,10.13308 L16.7582032,10.729984 L17.0831845,9.78190933 L16.2548048,9.17097067 L17.2593155,9.186272 L17.5859225,8.2118 L17.8817433,9.16929867 L18.9119599,9.17796267 L18.0902861,9.754448 L18.4003824,10.7342907" id="Fill-1" fill="#FFFFFF"></path>
                                <path d="M18.4003824,10.74174 L18.4480824,10.72664 L18.4003824,10.74174 M17.2593155,9.186272 L17.5859225,8.2118 L17.8817433,9.16929867 L18.9119599,9.17796267 L18.0902861,9.754448 L18.4003824,10.7342907 L17.5967433,10.13308 L16.7582032,10.729984 L17.0831845,9.78190933 L16.2548048,9.17097067 L17.2593155,9.186272 M17.5868877,8.12896 L17.2411283,9.16068533 L16.1761123,9.144472 L17.0531096,9.79128267 L16.7085695,10.7964587 L17.5963877,10.1644427 L18.4484412,10.80188 L18.120107,9.76448 L18.991262,9.153288 L17.9005401,9.14411733 L17.5868877,8.12896" id="Fill-2" fill="#FAFDD4"></path>
                                <path d="M17.2775027,9.21190933 L17.5849572,8.29464 L17.8629465,9.19448 L18.8326578,9.20263733 L18.0604652,9.74436533 L18.3523743,10.6666507 L17.5970989,10.1016667 L16.8077861,10.66356 L17.1132086,9.77258667 L16.3334973,9.19752 L17.2775027,9.21190933 M17.5859225,8.2118 L17.2593155,9.186272 L16.2548048,9.17097067 L17.0831845,9.78190933 L16.7582032,10.729984 L17.5967433,10.13308 L18.4003824,10.7342907 L18.0902861,9.754448 L18.9119599,9.17796267 L17.8817433,9.16929867 L17.5859225,8.2118" id="Fill-3" fill="#FAFDD4"></path>
                                <path d="M17.3110829,6.68121067 L16.5074439,6.08 L15.6689037,6.676904 L15.993885,5.72888 L15.1655053,5.11794133 L16.170016,5.13324267 L16.496623,4.15872 L16.7924439,5.11621867 L17.8226604,5.12488267 L17.0009866,5.701368 L17.3110829,6.68121067" id="Fill-4" fill="#FFFFFF"></path>
                                <path d="M17.3110829,6.68861067 L17.3587829,6.67361067 L17.3110829,6.68861067 M16.170016,5.13324267 L16.496623,4.15872 L16.7924439,5.11621867 L17.8226604,5.12488267 L17.0009866,5.701368 L17.3110829,6.68121067 L16.5074439,6.08 L15.6689037,6.676904 L15.993885,5.72888 L15.1655053,5.11794133 L16.170016,5.13324267 M16.4975882,4.07588 L16.1518289,5.10760533 L15.0868128,5.091392 L15.9638102,5.73820267 L15.6192701,6.74337867 L16.5070882,6.11141333 L17.3591417,6.74885067 L17.0308075,5.7114 L17.9019626,5.100208 L16.8112406,5.09103733 L16.4975882,4.07588" id="Fill-5" fill="#FAFDD4"></path>
                                <path d="M16.1882032,5.15882933 L16.4956578,4.24156 L16.7736471,5.1414 L17.7433583,5.14955733 L16.9712166,5.69128533 L17.2630749,6.61362133 L16.5078503,6.04863733 L15.7185374,6.61048 L16.0239091,5.71950667 L15.2441979,5.14449067 L16.1882032,5.15882933 M16.496623,4.15872 L16.170016,5.13324267 L15.1655053,5.11794133 L15.993885,5.72888 L15.6689037,6.676904 L16.5074439,6.08 L17.3110829,6.68121067 L17.0009866,5.701368 L17.8226604,5.12488267 L16.7924439,5.11621867 L16.496623,4.15872" id="Fill-6" fill="#FAFDD4"></path>
                                <path d="M14.4202888,3.75632533 L13.6166497,3.15511467 L12.7781096,3.75206933 L13.1030909,2.80399467 L12.2747112,2.193056 L13.2792219,2.20835733 L13.6058289,1.23383467 L13.9016497,2.19133333 L14.9318663,2.19999733 L14.1101925,2.77648267 L14.4202888,3.75632533" id="Fill-7" fill="#FFFFFF"></path>
                                <path d="M14.4202888,3.76372533 L14.4679888,3.74872533 L14.4202888,3.76372533 M13.2792219,2.20835733 L13.6058289,1.23383467 L13.9016497,2.19133333 L14.9318663,2.19999733 L14.1101925,2.77648267 L14.4202888,3.75632533 L13.6166497,3.15511467 L12.7781096,3.75206933 L13.1030909,2.80399467 L12.2747112,2.193056 L13.2792219,2.20835733 M13.6067941,1.15099467 L13.2610348,2.18272 L12.1960187,2.16650667 L13.073016,2.81331733 L12.7284759,3.81849333 L13.6162941,3.186528 L14.4683476,3.82396533 L14.1400134,2.78651467 L15.0111684,2.17532267 L13.9204465,2.166152 L13.6067941,1.15099467" id="Fill-8" fill="#FAFDD4"></path>
                                <path d="M13.2974091,2.233944 L13.6048128,1.31667467 L13.8828529,2.21651467 L14.8525642,2.224672 L14.0803717,2.76645067 L14.3722807,3.688736 L13.6170053,3.12370133 L12.8276925,3.68559467 L13.133115,2.79462133 L12.3534037,2.21960533 L13.2974091,2.233944 M13.6058289,1.23383467 L13.2792219,2.20835733 L12.2747112,2.193056 L13.1030909,2.80399467 L12.7781096,3.75206933 L13.6166497,3.15511467 L14.4202888,3.75632533 L14.1101925,2.77648267 L14.9318663,2.19999733 L13.9016497,2.19133333 L13.6058289,1.23383467" id="Fill-9" fill="#FAFDD4"></path>
                                <path d="M10.3564225,2.62818133 L9.55278342,2.02697067 L8.71419251,2.62387467 L9.0391738,1.6758 L8.21084492,1.06486133 L9.21530481,1.08016267 L9.54191176,0.10564 L9.83773262,1.06318933 L10.8679492,1.07180267 L10.0462754,1.648288 L10.3564225,2.62818133" id="Fill-10" fill="#FFFFFF"></path>
                                <path d="M10.3564225,2.63563067 L10.4040225,2.62053067 L10.3564225,2.63563067 M9.21530481,1.08016267 L9.54191176,0.10564 L9.83773262,1.06318933 L10.8679492,1.07180267 L10.0462754,1.648288 L10.3564225,2.62818133 L9.55278342,2.02697067 L8.71419251,2.62387467 L9.0391738,1.6758 L8.21084492,1.06486133 L9.21530481,1.08016267 M9.54292781,0.0228506667 L9.19711765,1.05452533 L8.1321016,1.03836267 L9.00914973,1.68517333 L8.66455882,2.69034933 L9.55237701,2.05833333 L10.4044305,2.69577067 L10.0760963,1.65837067 L10.9472513,1.04717867 L9.85652941,1.038008 L9.54292781,0.0228506667" id="Fill-11" fill="#FAFDD4"></path>
                                <path d="M9.23349198,1.1058 L9.54094652,0.188530667 L9.81893583,1.08832 L10.7886471,1.09647733 L10.0165053,1.638256 L10.3083636,2.56054133 L9.55313904,1.99555733 L8.7638262,2.5574 L9.06924866,1.66647733 L8.28948663,1.09141067 L9.23349198,1.1058 M9.54191176,0.10564 L9.21530481,1.08016267 L8.21084492,1.06486133 L9.0391738,1.6758 L8.71419251,2.62387467 L9.55278342,2.02697067 L10.3564225,2.62818133 L10.0462754,1.648288 L10.8679492,1.07180267 L9.83773262,1.06318933 L9.54191176,0.10564" id="Fill-12" fill="#FAFDD4"></path>
                                <path d="M6.33441711,3.714576 L5.53077807,3.11331467 L4.69218717,3.71026933 L5.01716845,2.76219467 L4.18883957,2.151256 L5.19329947,2.16655733 L5.51990642,1.19203467 L5.81572727,2.14953333 L6.84594385,2.15819733 L6.02432086,2.73468267 L6.33441711,3.714576" id="Fill-13" fill="#FFFFFF"></path>
                                <path d="M6.33441711,3.72202533 L6.38201711,3.70692533 L6.33441711,3.72202533 M5.19329947,2.16655733 L5.51990642,1.19203467 L5.81572727,2.14953333 L6.84594385,2.15819733 L6.02432086,2.73468267 L6.33441711,3.714576 L5.53077807,3.11331467 L4.69218717,3.71026933 L5.01716845,2.76219467 L4.18883957,2.151256 L5.19329947,2.16655733 M5.52092246,1.10924533 L5.1751123,2.14092 L4.11014706,2.12470667 L4.98714439,2.77151733 L4.64255348,3.77669333 L5.53037166,3.144728 L6.38242513,3.78216533 L6.05414171,2.74476533 L6.92529679,2.13352267 L5.83452406,2.12440267 L5.52092246,1.10924533" id="Fill-14" fill="#FAFDD4"></path>
                                <path d="M5.21148663,2.192144 L5.51894118,1.27487467 L5.79693048,2.17471467 L6.76664171,2.182872 L5.9945,2.72465067 L6.28635829,3.646936 L5.53113369,3.081952 L4.74182086,3.64379467 L5.04724332,2.752872 L4.26753209,2.17780533 L5.21148663,2.192144 M5.51990642,1.19203467 L5.19329947,2.16655733 L4.18883957,2.151256 L5.01716845,2.76219467 L4.69218717,3.71026933 L5.53077807,3.11331467 L6.33441711,3.714576 L6.02432086,2.73468267 L6.84594385,2.15819733 L5.81572727,2.14953333 L5.51990642,1.19203467" id="Fill-15" fill="#FAFDD4"></path>
                                <path d="M3.3178877,6.63946133 L2.51424866,6.0382 L1.67570856,6.63515467 L2.00068984,5.68708 L1.17231016,5.07614133 L2.17682086,5.09144267 L2.50342781,4.11692 L2.79924866,5.07446933 L3.82946524,5.08308267 L3.00779144,5.659568 L3.3178877,6.63946133" id="Fill-16" fill="#FFFFFF"></path>
                                <path d="M3.3178877,6.64691067 L3.3655877,6.63181067 L3.3178877,6.64691067 M2.17682086,5.09144267 L2.50342781,4.11692 L2.79924866,5.07446933 L3.82946524,5.08308267 L3.00779144,5.659568 L3.3178877,6.63946133 L2.51424866,6.0382 L1.67570856,6.63515467 L2.00068984,5.68708 L1.17231016,5.07614133 L2.17682086,5.09144267 M2.50439305,4.03413067 L2.15863369,5.06580533 L1.09361765,5.04964267 L1.97061497,5.69645333 L1.62607487,6.70157867 L2.51389305,6.06961333 L3.36594652,6.70705067 L3.0376123,5.66965067 L3.90876738,5.058408 L2.81804545,5.04923733 L2.50439305,4.03413067" id="Fill-17" fill="#FAFDD4"></path>
                                <path d="M2.19500802,5.11702933 L2.50246257,4.19981067 L2.78045187,5.0996 L3.7501631,5.10775733 L2.97797059,5.649536 L3.26987968,6.571872 L2.51460428,6.00683733 L1.72529144,6.56868 L2.0307139,5.67775733 L1.25105348,5.10269067 L2.19500802,5.11702933 M2.50342781,4.11692 L2.17682086,5.09144267 L1.17231016,5.07614133 L2.00068984,5.68708 L1.67570856,6.63515467 L2.51424866,6.0382 L3.3178877,6.63946133 L3.00779144,5.659568 L3.82946524,5.08308267 L2.79924866,5.07446933 L2.50342781,4.11692" id="Fill-18" fill="#FAFDD4"></path>
                                <path d="M2.22858824,10.6924907 L1.4249492,10.09128 L0.586409091,10.688184 L0.911390374,9.74016 L0.0830106952,9.12922133 L1.08752139,9.14452267 L1.41412834,8.17 L1.7099492,9.12749867 L2.74016578,9.13616267 L1.91849198,9.712648 L2.22858824,10.6924907" id="Fill-19" fill="#FFFFFF"></path>
                                <path d="M2.22858824,10.6998907 L2.27628824,10.6848907 L2.22858824,10.6998907 M1.08752139,9.14452267 L1.41412834,8.17 L1.7099492,9.12749867 L2.74016578,9.13616267 L1.91849198,9.712648 L2.22858824,10.6924907 L1.4249492,10.09128 L0.586409091,10.688184 L0.911390374,9.74016 L0.0830106952,9.12922133 L1.08752139,9.14452267 M1.41509358,8.08716 L1.06933422,9.11888533 L0.00431818182,9.102672 L0.881315508,9.74948267 L0.536775401,10.7546587 L1.42459358,10.1226933 L2.27664706,10.7601307 L1.94831283,9.72268 L2.81946791,9.111488 L1.72874599,9.10231733 L1.41509358,8.08716" id="Fill-20" fill="#FAFDD4"></path>
                                <path d="M1.10570856,9.17010933 L1.4131631,8.25284 L1.69115241,9.15268 L2.66086364,9.16083733 L1.88872193,9.702616 L2.18058021,10.6249013 L1.42535561,10.0598667 L0.636042781,10.62176 L0.941414439,9.73078667 L0.161754011,9.15572 L1.10570856,9.17010933 M1.41412834,8.17 L1.08752139,9.14452267 L0.0830106952,9.12922133 L0.911390374,9.74016 L0.586409091,10.688184 L1.4249492,10.09128 L2.22858824,10.6924907 L1.91849198,9.712648 L2.74016578,9.13616267 L1.7099492,9.12749867 L1.41412834,8.17" id="Fill-21" fill="#FAFDD4"></path>
                                <path d="M3.3178877,14.82912 L2.51424866,14.2279093 L1.67570856,14.8248133 L2.00068984,13.8767893 L1.17231016,13.2658507 L2.17682086,13.281152 L2.50342781,12.3066293 L2.79924866,13.264128 L3.82946524,13.272792 L3.00779144,13.8492773 L3.3178877,14.82912" id="Fill-22" fill="#FFFFFF"></path>
                                <path d="M3.3178877,14.83652 L3.3655877,14.82152 L3.3178877,14.83652 M2.17682086,13.281152 L2.50342781,12.3066293 L2.79924866,13.264128 L3.82946524,13.272792 L3.00779144,13.8492773 L3.3178877,14.82912 L2.51424866,14.2279093 L1.67570856,14.8248133 L2.00068984,13.8767893 L1.17231016,13.2658507 L2.17682086,13.281152 M2.50439305,12.2237893 L2.15863369,13.2555147 L1.09361765,13.2393013 L1.97061497,13.886112 L1.62607487,14.891288 L2.51389305,14.259272 L3.36594652,14.8967093 L3.0376123,13.8593093 L3.90876738,13.2481173 L2.81804545,13.2389467 L2.50439305,12.2237893" id="Fill-23" fill="#FAFDD4"></path>
                                <path d="M2.19500802,13.3067387 L2.50246257,12.3894693 L2.78045187,13.2893093 L3.7501631,13.2974667 L2.97797059,13.8391947 L3.26987968,14.7615307 L2.51460428,14.196496 L1.72529144,14.7583893 L2.0307139,13.867416 L1.25100267,13.2923493 L2.19500802,13.3067387 M2.50342781,12.3066293 L2.17682086,13.281152 L1.17231016,13.2658507 L2.00068984,13.8767893 L1.67570856,14.8248133 L2.51424866,14.2279093 L3.3178877,14.82912 L3.00779144,13.8492773 L3.82946524,13.272792 L2.79924866,13.264128 L2.50342781,12.3066293" id="Fill-24" fill="#FAFDD4"></path>
                                <path d="M6.25059358,17.8375547 L5.44695455,17.236344 L4.60841444,17.8332987 L4.93339572,16.885224 L4.10501604,16.2742853 L5.10952674,16.2895867 L5.43613369,15.315064 L5.73195455,16.2725627 L6.76217112,16.2812267 L5.94049733,16.857712 L6.25059358,17.8375547" id="Fill-25" fill="#FFFFFF"></path>
                                <path d="M6.25059358,17.8449547 L6.29829358,17.8299547 L6.25059358,17.8449547 M5.10952674,16.2895867 L5.43613369,15.315064 L5.73195455,16.2725627 L6.76217112,16.2812267 L5.94049733,16.857712 L6.25059358,17.8375547 L5.44695455,17.236344 L4.60841444,17.8332987 L4.93339572,16.885224 L4.10501604,16.2742853 L5.10952674,16.2895867 M5.43709893,15.232224 L5.09133957,16.2639493 L4.02632353,16.247736 L4.90332086,16.8945467 L4.55878075,17.8997227 L5.44659893,17.2677573 L6.29865241,17.9051947 L5.97031818,16.8677947 L6.84147326,16.2566027 L5.75075134,16.247432 L5.43709893,15.232224" id="Fill-26" fill="#FAFDD4"></path>
                                <path d="M5.1277139,16.3151733 L5.43516845,15.397904 L5.71315775,16.297744 L6.68286898,16.3059013 L5.91067647,16.84768 L6.20258556,17.7699653 L5.44736096,17.2049813 L4.65804813,17.766824 L4.96341979,16.8759013 L4.18370856,16.3008347 L5.1277139,16.3151733 M5.43613369,15.315064 L5.10952674,16.2895867 L4.10501604,16.2742853 L4.93339572,16.885224 L4.60841444,17.8332987 L5.44695455,17.236344 L6.25059358,17.8375547 L5.94049733,16.857712 L6.76217112,16.2812267 L5.73195455,16.2725627 L5.43613369,15.315064" id="Fill-27" fill="#FAFDD4"></path>
                                <path d="M10.3145107,18.9239493 L9.51087166,18.3227387 L8.67228075,18.9196933 L8.99726203,17.9716187 L8.16893316,17.36068 L9.17339305,17.3759813 L9.5000508,16.4014587 L9.79587166,17.3589573 L10.8260882,17.3676213 L10.0044144,17.9441067 L10.3145107,18.9239493" id="Fill-28" fill="#FFFFFF"></path>
                                <path d="M10.3145107,18.9313493 L10.3622107,18.9163493 L10.3145107,18.9313493 M9.17339305,17.3759813 L9.5000508,16.4014587 L9.79587166,17.3589573 L10.8260882,17.3676213 L10.0044144,17.9441067 L10.3145107,18.9239493 L9.51087166,18.3227387 L8.67228075,18.9196933 L8.99726203,17.9716187 L8.16893316,17.36068 L9.17339305,17.3759813 M9.50101604,16.3186187 L9.15520588,17.350344 L8.09024064,17.3341307 L8.96723797,17.9809413 L8.62269786,18.9861173 L9.51051604,18.354152 L10.3625187,18.9915893 L10.0342353,17.9541893 L10.9053904,17.3429467 L9.81466845,17.333776 L9.50101604,16.3186187" id="Fill-29" fill="#FAFDD4"></path>
                                <path d="M9.19163102,17.401568 L9.49903476,16.4842987 L9.77702406,17.3841387 L10.7467353,17.392296 L9.97459358,17.9340747 L10.2664519,18.85636 L9.51122727,18.291376 L8.72191444,18.8532187 L9.0273369,17.9622453 L8.24762567,17.3872293 L9.19163102,17.401568 M9.5000508,16.4014587 L9.17339305,17.3759813 L8.16893316,17.36068 L8.99726203,17.9716187 L8.67228075,18.9196933 L9.51087166,18.3227387 L10.3145107,18.9239493 L10.0044144,17.9441067 L10.8260882,17.3676213 L9.79587166,17.3589573 L9.5000508,16.4014587" id="Fill-30" fill="#FAFDD4"></path>
                                <path d="M14.378377,17.8375547 L13.574738,17.236344 L12.7361979,17.8332987 L13.0611791,16.885224 L12.2327995,16.2742853 L13.2373102,16.2895867 L13.5639171,15.315064 L13.859738,16.2725627 L14.8899545,16.2812267 L14.0682807,16.857712 L14.378377,17.8375547" id="Fill-31" fill="#FFFFFF"></path>
                                <path d="M14.378377,17.8449547 L14.426077,17.8299547 L14.378377,17.8449547 M13.2373102,16.2895867 L13.5639171,15.315064 L13.859738,16.2725627 L14.8899545,16.2812267 L14.0682807,16.857712 L14.378377,17.8375547 L13.574738,17.236344 L12.7361979,17.8332987 L13.0611791,16.885224 L12.2327995,16.2742853 L13.2373102,16.2895867 M13.5648824,15.232224 L13.219123,16.2639493 L12.154107,16.247736 L13.0311043,16.8945467 L12.6865642,17.8997227 L13.5743824,17.2677573 L14.4264358,17.9051947 L14.0981016,16.8677947 L14.9692567,16.2566027 L13.8785348,16.247432 L13.5648824,15.232224" id="Fill-32" fill="#FAFDD4"></path>
                                <path d="M13.2554973,16.3151733 L13.5629519,15.397904 L13.8409412,16.297744 L14.8106524,16.3059013 L14.0384599,16.84768 L14.330369,17.7699653 L13.5751444,17.2049813 L12.7858316,17.766824 L13.0912032,16.8759013 L12.311492,16.3008347 L13.2554973,16.3151733 M13.5639171,15.315064 L13.2373102,16.2895867 L12.2327995,16.2742853 L13.0611791,16.885224 L12.7361979,17.8332987 L13.574738,17.236344 L14.378377,17.8375547 L14.0682807,16.857712 L14.8899545,16.2812267 L13.859738,16.2725627 L13.5639171,15.315064" id="Fill-33" fill="#FAFDD4"></path>
                                <path d="M17.3949064,14.82912 L16.5912674,14.2279093 L15.7526765,14.8248133 L16.0776578,13.8767893 L15.2493289,13.2658507 L16.2537888,13.281152 L16.5804465,12.3066293 L16.8762674,13.264128 L17.9064332,13.272792 L17.0848102,13.8492773 L17.3949064,14.82912" id="Fill-34" fill="#FFFFFF"></path>
                                <path d="M17.3949064,14.83652 L17.4425064,14.82152 L17.3949064,14.83652 M16.2537888,13.281152 L16.5804465,12.3066293 L16.8762674,13.264128 L17.9064332,13.272792 L17.0848102,13.8492773 L17.3949064,14.82912 L16.5912674,14.2279093 L15.7526765,14.8248133 L16.0776578,13.8767893 L15.2493289,13.2658507 L16.2537888,13.281152 M16.5814118,12.2237893 L16.2356016,13.2555147 L15.1706364,13.2393013 L16.0476337,13.886112 L15.7030428,14.891288 L16.590861,14.259272 L17.4429144,14.8967093 L17.114631,13.8593093 L17.9857861,13.2481173 L16.8950642,13.2389467 L16.5814118,12.2237893" id="Fill-35" fill="#FAFDD4"></path>
                                <path d="M16.2719759,13.3067387 L16.5794305,12.3894693 L16.8574198,13.2893093 L17.827131,13.2974667 L17.0549893,13.8391947 L17.3468476,14.7615307 L16.591623,14.196496 L15.8023102,14.7583893 L16.1077326,13.867416 L15.3280214,13.2923493 L16.2719759,13.3067387 M16.5804465,12.3066293 L16.2537888,13.281152 L15.2493289,13.2658507 L16.0776578,13.8767893 L15.7526765,14.8248133 L16.5912674,14.2279093 L17.3949064,14.82912 L17.0848102,13.8492773 L17.9064332,13.272792 L16.8762674,13.264128 L16.5804465,12.3066293" id="Fill-36" fill="#FAFDD4"></path>
                            </g>
                            <text id="GB" sketch:type="MSTextLayer" font-family="Helvetica Neue" font-size="12" font-weight="normal" fill="#FFFFFF">
                                <tspan x="6" y="36">GB</tspan>
                            </text>
                        </g>
                    </g>
                </g>
            </g>
        </g>
    </g>
</svg>