<svg xmlns:sketch="http://www.bohemiancoding.com/sketch/ns" xmlns="http://www.w3.org/2000/svg" xmlns:xlink="http://www.w3.org/1999/xlink" version="1.1" id="Layer_1" x="0" y="0" width="122" height="64" viewBox="0 0 122 64" xml:space="preserve" enable-background="new 0 0 122 64">
  <style type="text/css">
    
	.st0{fill:#BA242C;}
	.st1{fill:none;stroke:#FFFFFF;stroke-width:3.825;}
	.st2{fill:#1A1918;}
	.st3{fill:#8E8E8A;}
	.st4{fill:#FFFFFF;}
	.st5{fill:#4A4A4A;}

  </style>
  <title>
    BirdTrader(FullColour) + Shape Copy 4
  </title>
  <desc>
    Created with Sketch.
  </desc>
  <g id="Search-results-list" sketch:type="MSPage">
    <g id="link-to-afiliate-sites" transform="translate(-685.000000, -356.000000)" sketch:type="MSArtboardGroup">
      <g id="_x31_" transform="translate(24.000000, 33.000000)" sketch:type="MSLayerGroup">
        <g id="BirdTrader_x28_FullColour_x29_-_x2B_-Shape-Copy-4" transform="translate(663.000000, 322.000000)" sketch:type="MSShapeGroup">
          <g id="BirdTrader_x28_FullColour_x29_" transform="translate(0.000000, 17.000000)">
            <path id="Fill-1" class="st0" d="M0.2 0.1h45.1v45.1H0.2V0.1z"/>
            <path id="Stroke-2" class="st1" d="M0.2 0.1h45.1v45.1H0.2V0.1z"/>
            <path id="Fill-4" class="st2" d="M56.7 12.4H59c0.8 0 1.3-0.1 1.6-0.4 0.3-0.3 0.5-0.6 0.5-1.1 0-0.4-0.2-0.8-0.5-1 -0.3-0.3-0.9-0.4-1.6-0.4h-2.2V12.4L56.7 12.4zM56.7 6.8h1.9c0.7 0 1.2-0.1 1.4-0.4 0.3-0.2 0.4-0.6 0.4-1 0-0.4-0.1-0.7-0.4-1C59.8 4.2 59.4 4 58.7 4h-2V6.8L56.7 6.8zM52.3 1.1h8.3c1.4 0 2.4 0.3 3.2 1 0.7 0.7 1.1 1.5 1.1 2.5 0 0.8-0.3 1.6-0.8 2.2 -0.4 0.4-0.9 0.7-1.5 1 1 0.2 1.8 0.7 2.3 1.3 0.5 0.6 0.7 1.4 0.7 2.3 0 0.7-0.2 1.4-0.5 2 -0.3 0.6-0.8 1.1-1.4 1.4 -0.4 0.2-0.9 0.4-1.7 0.5 -1 0.1-1.7 0.2-2 0.2h-7.6V1.1L52.3 1.1z"/>
            <path id="Fill-5" class="st2" d="M66.8 5.1h4v10.4h-4V5.1zM66.8 1.1h4v2.7h-4V1.1z"/>
            <path id="Fill-6" class="st2" d="M72.4 5.1h3.7v1.7c0.4-0.7 0.7-1.2 1.1-1.5 0.4-0.3 0.9-0.4 1.4-0.4 0.6 0 1.2 0.2 1.9 0.5l-1.2 2.8c-0.5-0.2-0.8-0.3-1.1-0.3 -0.5 0-0.9 0.2-1.2 0.6 -0.4 0.6-0.6 1.7-0.6 3.4v3.5h-4V5.1"/>
            <path id="Fill-7" class="st2" d="M87.7 10.2c0-0.8-0.2-1.4-0.5-1.8 -0.3-0.4-0.8-0.6-1.3-0.6 -0.5 0-0.8 0.2-1.2 0.6 -0.3 0.4-0.5 1-0.5 1.9 0 0.8 0.2 1.5 0.5 1.9 0.3 0.4 0.7 0.6 1.2 0.6 0.5 0 0.9-0.2 1.3-0.6C87.5 11.8 87.7 11.1 87.7 10.2L87.7 10.2zM91.7 1.1v14.3H88v-1.5c-0.5 0.7-1 1.1-1.4 1.3 -0.6 0.3-1.2 0.4-1.9 0.4 -1.4 0-2.5-0.5-3.2-1.6 -0.7-1.1-1.1-2.4-1.1-3.9 0-1.7 0.4-3 1.2-3.9 0.8-0.9 1.9-1.4 3.1-1.4 0.6 0 1.2 0.1 1.7 0.3 0.5 0.2 1 0.5 1.3 0.9v-5H91.7L91.7 1.1z"/>
            <path id="Fill-8" class="st2" d="M52.2 17.1h13.4v3.5h-4.5v10.8h-4.4V20.6h-4.5V17.1"/>
            <path id="Fill-9" class="st2" d="M66.1 21h3.7v1.7c0.4-0.7 0.7-1.2 1.1-1.5 0.4-0.3 0.9-0.4 1.4-0.4 0.6 0 1.2 0.2 1.9 0.5L73 24.2c-0.5-0.2-0.8-0.3-1.1-0.3 -0.5 0-0.9 0.2-1.2 0.6 -0.4 0.6-0.6 1.7-0.6 3.4v3.5h-4V21"/>
            <path id="Fill-10" class="st2" d="M81.4 26.5c-0.5 0.2-1.1 0.4-1.7 0.5 -0.8 0.2-1.3 0.4-1.5 0.6 -0.2 0.2-0.3 0.5-0.3 0.7 0 0.3 0.1 0.6 0.3 0.8 0.2 0.2 0.5 0.3 1 0.3 0.4 0 0.9-0.1 1.2-0.3 0.4-0.2 0.7-0.5 0.8-0.8 0.2-0.3 0.2-0.7 0.2-1.2V26.5L81.4 26.5zM78 24.4L74.2 24c0.1-0.7 0.4-1.2 0.6-1.6 0.3-0.4 0.7-0.7 1.2-1 0.4-0.2 0.9-0.4 1.5-0.5 0.6-0.1 1.3-0.2 2.1-0.2 1.2 0 2.1 0.1 2.9 0.2 0.7 0.1 1.3 0.4 1.8 0.8 0.3 0.3 0.6 0.7 0.8 1.2 0.2 0.5 0.3 1 0.3 1.5v4.6c0 0.5 0 0.9 0.1 1.1 0.1 0.3 0.2 0.6 0.4 1.1h-3.7c-0.1-0.3-0.2-0.5-0.3-0.6 0-0.1-0.1-0.4-0.1-0.7 -0.5 0.5-1 0.9-1.6 1.1 -0.7 0.3-1.5 0.4-2.5 0.4 -1.2 0-2.2-0.3-2.8-0.9 -0.6-0.6-1-1.3-1-2.1 0-0.8 0.2-1.4 0.7-1.9 0.5-0.5 1.3-0.9 2.6-1.1 1.5-0.3 2.5-0.5 2.9-0.6 0.4-0.1 0.9-0.3 1.4-0.5 0-0.5-0.1-0.8-0.3-1 -0.2-0.2-0.6-0.3-1.1-0.3 -0.7 0-1.1 0.1-1.5 0.3C78.3 23.6 78.1 23.9 78 24.4L78 24.4z"/>
            <path id="Fill-11" class="st2" d="M93.7 26.2c0-0.8-0.2-1.4-0.5-1.8 -0.3-0.4-0.8-0.6-1.3-0.6 -0.5 0-0.8 0.2-1.2 0.6 -0.3 0.4-0.5 1-0.5 1.9 0 0.8 0.2 1.5 0.5 1.9 0.3 0.4 0.7 0.6 1.2 0.6 0.5 0 0.9-0.2 1.3-0.6C93.5 27.7 93.7 27.1 93.7 26.2L93.7 26.2zM97.6 17.1v14.3h-3.7v-1.5c-0.5 0.7-1 1.1-1.4 1.3 -0.6 0.3-1.2 0.4-1.9 0.4 -1.4 0-2.5-0.5-3.2-1.6 -0.7-1.1-1.1-2.4-1.1-3.9 0-1.7 0.4-3 1.2-3.9 0.8-0.9 1.9-1.4 3.1-1.4 0.6 0 1.2 0.1 1.7 0.3 0.5 0.2 1 0.5 1.3 0.9v-5H97.6L97.6 17.1z"/>
            <path id="Fill-12" class="st2" d="M106.6 25.3c-0.1-0.8-0.3-1.3-0.6-1.7 -0.3-0.3-0.8-0.5-1.3-0.5 -0.6 0-1.1 0.3-1.5 0.8 -0.2 0.3-0.4 0.8-0.5 1.4H106.6L106.6 25.3zM110.6 27.2h-8c0.1 0.6 0.2 1.1 0.5 1.4 0.4 0.4 0.9 0.7 1.5 0.7 0.4 0 0.8-0.1 1.1-0.3 0.2-0.1 0.4-0.3 0.7-0.7l3.9 0.4c-0.6 1-1.3 1.8-2.2 2.2 -0.8 0.5-2.1 0.7-3.6 0.7 -1.4 0-2.5-0.2-3.2-0.6 -0.8-0.4-1.4-1-2-1.8 -0.5-0.8-0.8-1.8-0.8-3 0-1.6 0.5-2.9 1.6-3.9s2.5-1.5 4.3-1.5c1.5 0 2.7 0.2 3.5 0.7 0.9 0.4 1.5 1.1 2 2 0.4 0.9 0.7 2 0.7 3.3V27.2L110.6 27.2z"/>
            <path id="Fill-13" class="st2" d="M111.6 21h3.7v1.7c0.4-0.7 0.7-1.2 1.1-1.5 0.4-0.3 0.9-0.4 1.4-0.4 0.6 0 1.2 0.2 1.9 0.5l-1.2 2.8c-0.5-0.2-0.8-0.3-1.1-0.3 -0.5 0-0.9 0.2-1.2 0.6 -0.4 0.6-0.6 1.7-0.6 3.4v3.5h-4V21"/>
            <path id="Fill-14" class="st3" d="M53.6 41.7H57v3.2h-3.4V41.7z"/>
            <path id="Fill-15" class="st3" d="M65.1 41.6l3 0.3c-0.2 0.6-0.4 1.2-0.8 1.6 -0.4 0.5-0.9 0.8-1.4 1.1 -0.6 0.3-1.3 0.4-2.2 0.4 -0.9 0-1.6-0.1-2.2-0.2 -0.6-0.2-1.1-0.4-1.5-0.8 -0.4-0.4-0.7-0.8-1-1.3 -0.2-0.5-0.4-1.1-0.4-2 0-0.8 0.1-1.6 0.4-2.1 0.2-0.4 0.5-0.8 0.9-1.1 0.4-0.3 0.7-0.6 1.1-0.7 0.6-0.3 1.4-0.4 2.4-0.4 1.3 0 2.4 0.2 3.1 0.7 0.7 0.5 1.2 1.2 1.5 2.1l-3 0.4c-0.1-0.4-0.3-0.6-0.5-0.8 -0.2-0.2-0.6-0.3-1-0.3 -0.5 0-0.9 0.2-1.3 0.6 -0.3 0.4-0.5 0.9-0.5 1.7 0 0.7 0.2 1.2 0.5 1.5 0.3 0.4 0.7 0.5 1.2 0.5 0.4 0 0.8-0.1 1-0.3C64.7 42.4 64.9 42.1 65.1 41.6"/>
            <path id="Fill-16" class="st3" d="M71.9 40.7c0 0.7 0.1 1.3 0.4 1.6 0.3 0.4 0.7 0.5 1.1 0.5 0.5 0 0.8-0.2 1.1-0.5 0.3-0.3 0.4-0.9 0.4-1.7 0-0.7-0.1-1.2-0.4-1.6 -0.3-0.4-0.7-0.5-1.1-0.5 -0.5 0-0.8 0.2-1.1 0.5C72 39.5 71.9 40 71.9 40.7L71.9 40.7zM68.7 40.7c0-1.3 0.4-2.3 1.3-3.1 0.8-0.8 2-1.2 3.4-1.2 1.7 0 2.9 0.5 3.7 1.4 0.7 0.8 1 1.7 1 2.9 0 1.3-0.4 2.3-1.3 3.1 -0.8 0.8-2 1.2-3.5 1.2 -1.3 0-2.4-0.3-3.2-1C69.2 43.2 68.7 42.1 68.7 40.7L68.7 40.7z"/>
            <path id="Fill-17" class="st3" d="M79 41.7h3.4v3.2H79V41.7z"/>
            <path id="Fill-18" class="st3" d="M92.5 44.8h-3v-1.3c-0.4 0.5-0.9 0.9-1.3 1.2 -0.4 0.2-1 0.4-1.7 0.4 -0.9 0-1.6-0.3-2-0.8 -0.5-0.5-0.7-1.3-0.7-2.4v-5.3h3.2v4.5c0 0.5 0.1 0.9 0.3 1.1s0.5 0.3 0.8 0.3c0.4 0 0.7-0.1 0.9-0.4 0.2-0.3 0.4-0.8 0.4-1.6v-4h3.2V44.8"/>
            <path id="Fill-19" class="st3" d="M93.9 33.5h3.2v5.9l2.4-2.7h3.9l-3 2.9 3.1 5.4H100l-1.7-3.3 -1.2 1.2v2.1h-3.2V33.5"/>
            <path id="Fill-20" class="st4" d="M31.9 30.3c0.8 0.2 2.6-0.1 2.6-0.1s-1.2-0.9-2.1-1.7c-0.9-0.8-2.9-2.4-3.5-2.9 -0.6-0.5-1.8-2-1.8-2l1.2 0.3c-0.6-0.1-1.3-1.9-2.7-3.7 -0.8-1.1-2.6-3.3-3.6-4.5 -1-1.2-2.5-2.8-3.7-4.2 -1.2-1.4-3.4-3.7-4.2-4.5C13.4 6.3 13 5.2 9.5 5.5 6.9 5.8 6.6 8 6.6 8s-2.1 1.6 0.6 3.4c0 0-0.2-0.7 0.3-1 0.3 0.3 1.1 0.8 1.7 0.5 0.7 0.5 1.6 2.8 1.6 2.8s-0.1 0.8 0.8 4 4.4 6 4.4 6l-0.2 1.8c-0.6-1.3-3.3-1.2-3.3-1.2 2.2 1.8 4 5.3 4 5.3l1.8 0.3c0 0-0.1-1.4-0.6-1.7C17.3 28.1 17 27 17 27c1-0.5 2.7-1 2.7-1 2.1 1.7 4.2 1.4 4.7 1.5 0.6 0.1 4.7 2.8 4.7 2.8C34.5 34 40 41.1 40 41.1l1.2 0.1C39.8 38.6 31.9 30.3 31.9 30.3"/>
          </g>
          <path id="Shape-Copy-4" class="st5" d="M115.7 5.2L108.4 1c-0.2-0.1-0.3-0.1-0.5 0 -0.2 0.1-0.3 0.2-0.3 0.4l0 1.9c0 0 0 0 0 0 -0.2 0-0.4 0.1-0.6 0.2 -0.8 0.2-1.5 0.5-2.4 0.9 -0.8 0.3-1.6 0.8-2.3 1.3 -0.5 0.4-1 0.8-1.5 1.3 -1.2 1.3-1.9 3-1.8 4.7 0 0.3 0 0.6 0.1 0.8 0 0.2 0.2 0.4 0.5 0.4 0 0 0 0 0 0 0.2 0 0.5-0.2 0.5-0.4 0.1-0.7 0.4-1.4 0.7-1.9 0.4-0.6 0.9-1.2 1.5-1.6 0.5-0.3 1.1-0.6 1.7-0.8 0.7-0.2 1.5-0.4 2.4-0.4 0.4 0 0.8 0 1.2 0 0 0 0 0 0.1 0l0 1.8c0 0.2 0.1 0.3 0.2 0.4 0.2 0.1 0.3 0.1 0.5 0l7.3-4.1c0.2-0.1 0.3-0.2 0.3-0.4C115.9 5.4 115.8 5.3 115.7 5.2L115.7 5.2z"/>
        </g>
      </g>
    </g>
  </g>
</svg>
