<svg xmlns="http://www.w3.org/2000/svg" version="1.1" x="0" y="0" width="120" height="47" viewBox="0 0 120 47" xml:space="preserve"><style type="text/css">
	.st0{fill:#4A4A4A;}
	.st1{fill:#1C4A67;}
</style><title>Shape Copy + Imported Layers</title><desc>Created with Sketch.</desc><g transform="translate(-687.000000, -1273.000000)"><g transform="translate(24.000000, 33.000000)"><g transform="translate(0.000000, 1131.000000)"><g transform="translate(663.000000, 108.000000)"><path class="st0" d="M115.7 5.2L108.4 1c-0.2-0.1-0.3-0.1-0.5 0 -0.2 0.1-0.3 0.2-0.3 0.4l0 1.9c0 0 0 0 0 0 -0.2 0-0.4 0.1-0.6 0.2 -0.8 0.2-1.5 0.5-2.4 0.9 -0.8 0.3-1.6 0.8-2.3 1.3 -0.5 0.4-1 0.8-1.5 1.3 -1.2 1.3-1.9 3-1.8 4.7 0 0.3 0 0.6 0.1 0.8 0 0.2 0.2 0.4 0.5 0.4 0 0 0 0 0 0 0.2 0 0.5-0.2 0.5-0.4 0.1-0.7 0.4-1.4 0.7-1.9 0.4-0.6 0.9-1.2 1.5-1.6 0.5-0.3 1.1-0.6 1.7-0.8 0.7-0.2 1.5-0.4 2.4-0.4 0.4 0 0.8 0 1.2 0 0 0 0 0 0.1 0l0 1.8c0 0.2 0.1 0.3 0.2 0.4 0.2 0.1 0.3 0.1 0.5 0l7.3-4.1c0.2-0.1 0.3-0.2 0.3-0.4C115.9 5.4 115.8 5.3 115.7 5.2L115.7 5.2z"/><g transform="translate(0.000000, 15.231638)"><path class="st1" d="M97.9 16.2c0 0 9.4-10.1 17.7-15.6 0.3-0.2 0.1-0.5-0.2-0.5C78.7 0.2 32.5 15 32.5 15S77.3 3 109.6 2.6C107.5 4.4 97.9 16.2 97.9 16.2M75.6 3.7c-7.1-8.1-23.1 0.3-34.8 9C52.6 6.9 63.7-2 75.6 3.7M100.1 15.1l-2.3 1.2 0 0c-0.4-0.1-7.1-1.4-14-1.4 -7.1 0-9.1 2.1-15.8 3 -6.4 0.8-10.1-1.6-15-2.1 -5-0.6-18.5 3.1-36.4 1.2 11.4 0 17.4-0.6 26.8-2.5 10.6-2.1 14 4.4 26.9-1 11.5-4.8 26.7 2.4 27.5 2.8l-0.4-0.3c-5.7-3.1-12.1-9.1-23.8-7.6C63.8 9.5 32.5 15 32.5 15h-32v6.6h119.1v-6.5H100.1M97.8 16.2L97.8 16.2C97.9 16.2 97.9 16.2 97.8 16.2 97.9 16.2 97.8 16.2 97.8 16.2M0.2 24.8c0.5-0.1 1.4-0.2 2.3-0.2 1.1 0 1.8 0.1 2.3 0.4 0.6 0.3 1 0.8 1 1.6 0 0.7-0.4 1.4-1.3 1.7v0c0.9 0.2 1.6 0.9 1.6 2 0 0.7-0.3 1.3-0.8 1.7 -0.6 0.5-1.5 0.7-3.1 0.7 -0.9 0-1.5-0.1-1.9-0.1V24.8L0.2 24.8zM2 27.8h0.6c0.9 0 1.4-0.4 1.4-1 0-0.6-0.5-0.9-1.3-0.9 -0.4 0-0.6 0-0.8 0V27.8L2 27.8zM2 31.4c0.2 0 0.4 0 0.7 0 0.8 0 1.5-0.3 1.5-1.1 0-0.8-0.7-1.1-1.6-1.1H2V31.4L2 31.4zM14.2 28.6c0 2.6-1.6 4.2-3.9 4.2 -2.4 0-3.7-1.8-3.7-4 0-2.4 1.5-4.2 3.9-4.2C12.9 24.6 14.2 26.4 14.2 28.6L14.2 28.6zM8.5 28.7c0 1.6 0.7 2.7 1.9 2.7 1.2 0 1.9-1.2 1.9-2.7 0-1.4-0.7-2.7-1.9-2.7C9.2 26 8.5 27.1 8.5 28.7L8.5 28.7zM16.7 30.6l-0.6 2h-1.9l2.4-7.9h2.4l2.5 7.9h-1.9l-0.6-2H16.7L16.7 30.6zM18.7 29.3l-0.5-1.7c-0.1-0.5-0.3-1.1-0.4-1.5h0c-0.1 0.5-0.2 1.1-0.4 1.5L17 29.3H18.7L18.7 29.3zM22.8 26.2h-2.1v-1.5h6.1v1.5h-2.2v6.4h-1.8V26.2M27.3 30.8c0.5 0.2 1.2 0.5 2 0.5 0.8 0 1.3-0.3 1.3-0.9 0-0.5-0.4-0.8-1.3-1.1 -1.3-0.5-2.2-1.2-2.2-2.3 0-1.4 1.1-2.4 3-2.4 0.9 0 1.6 0.2 2 0.4l-0.4 1.4C31.4 26.3 30.8 26 30 26c-0.8 0-1.2 0.4-1.2 0.8 0 0.5 0.4 0.7 1.5 1.1 1.4 0.5 2.1 1.2 2.1 2.4 0 1.3-1 2.5-3.2 2.5 -0.9 0-1.8-0.2-2.2-0.5L27.3 30.8M35.1 30.6l-0.6 2h-1.9l2.4-7.9h2.4l2.5 7.9H38l-0.6-2H35.1L35.1 30.6zM37.1 29.3l-0.5-1.7c-0.1-0.5-0.3-1.1-0.4-1.5h0c-0.1 0.5-0.2 1.1-0.4 1.5l-0.5 1.7H37.1L37.1 29.3zM40.7 32.6v-7.9h2.1l1.6 2.9c0.5 0.8 0.9 1.8 1.3 2.7h0c-0.1-1-0.2-2.1-0.2-3.3v-2.3h1.6v7.9h-1.9l-1.7-3.1c-0.5-0.8-1-1.9-1.4-2.8l0 0c0 1 0.1 2.2 0.1 3.5v2.4H40.7M48.4 24.8c0.7-0.1 1.5-0.2 2.4-0.2 1.5 0 2.5 0.3 3.3 0.8 0.8 0.6 1.3 1.6 1.3 3 0 1.5-0.6 2.6-1.3 3.2 -0.8 0.7-2.1 1-3.7 1 -0.9 0-1.6-0.1-2-0.1V24.8L48.4 24.8zM50.2 31.3c0.2 0 0.4 0 0.6 0 1.6 0 2.7-0.9 2.7-2.8 0-1.6-1-2.5-2.5-2.5 -0.4 0-0.7 0-0.8 0.1V31.3L50.2 31.3zM63.6 28.6c0 2.6-1.6 4.2-3.9 4.2 -2.4 0-3.7-1.8-3.7-4 0-2.4 1.5-4.2 3.9-4.2C62.2 24.6 63.6 26.4 63.6 28.6L63.6 28.6zM57.8 28.7c0 1.6 0.7 2.7 1.9 2.7 1.2 0 1.9-1.2 1.9-2.7 0-1.4-0.7-2.7-1.9-2.7C58.5 26 57.8 27.1 57.8 28.7L57.8 28.7zM66.2 24.7v4.6c0 1.4 0.5 2.1 1.4 2.1 0.9 0 1.5-0.7 1.5-2.1v-4.6h1.8v4.5c0 2.5-1.2 3.6-3.3 3.6 -2 0-3.2-1.1-3.2-3.6v-4.4H66.2M73.6 26.2h-2.1v-1.5h6.1v1.5h-2.2v6.4h-1.8V26.2M78.2 24.8c0.5-0.1 1.4-0.2 2.3-0.2 1.1 0 1.8 0.1 2.3 0.4 0.6 0.3 1 0.8 1 1.6 0 0.7-0.4 1.4-1.3 1.7v0c0.9 0.2 1.6 0.9 1.6 2 0 0.7-0.3 1.3-0.8 1.7 -0.6 0.5-1.5 0.7-3.1 0.7 -0.9 0-1.5-0.1-1.9-0.1V24.8L78.2 24.8zM79.9 27.8h0.6c0.9 0 1.4-0.4 1.4-1 0-0.6-0.5-0.9-1.3-0.9 -0.4 0-0.6 0-0.8 0V27.8L79.9 27.8zM79.9 31.4c0.2 0 0.4 0 0.7 0 0.8 0 1.5-0.3 1.5-1.1 0-0.8-0.7-1.1-1.6-1.1h-0.6V31.4L79.9 31.4zM92.2 28.6c0 2.6-1.6 4.2-3.9 4.2 -2.4 0-3.7-1.8-3.7-4 0-2.4 1.5-4.2 3.9-4.2C90.9 24.6 92.2 26.4 92.2 28.6L92.2 28.6zM86.5 28.7c0 1.6 0.7 2.7 1.9 2.7 1.2 0 1.9-1.2 1.9-2.7 0-1.4-0.7-2.7-1.9-2.7C87.2 26 86.5 27.1 86.5 28.7L86.5 28.7zM94.7 30.6l-0.6 2h-1.9l2.4-7.9H97l2.5 7.9h-1.9l-0.6-2H94.7L94.7 30.6zM96.7 29.3l-0.5-1.7c-0.1-0.5-0.3-1.1-0.4-1.5h0c-0.1 0.5-0.2 1.1-0.4 1.5l-0.5 1.7H96.7L96.7 29.3zM100.2 24.8c0.6-0.1 1.4-0.2 2.4-0.2 1.2 0 2 0.2 2.6 0.6 0.5 0.4 0.7 0.9 0.7 1.7 0 1-0.7 1.7-1.4 2v0c0.6 0.2 0.9 0.8 1.1 1.5 0.2 0.9 0.5 1.9 0.6 2.2h-1.8c-0.1-0.2-0.3-0.9-0.6-1.8 -0.2-1-0.6-1.3-1.3-1.3H102v3.1h-1.8V24.8L100.2 24.8zM102 28.2h0.7c0.9 0 1.4-0.4 1.4-1.1 0-0.7-0.5-1.1-1.3-1.1 -0.4 0-0.7 0-0.8 0.1V28.2L102 28.2zM106.8 24.8c0.7-0.1 1.5-0.2 2.4-0.2 1.5 0 2.5 0.3 3.3 0.8 0.8 0.6 1.3 1.6 1.3 3 0 1.5-0.6 2.6-1.3 3.2 -0.8 0.7-2.1 1-3.7 1 -0.9 0-1.6-0.1-2-0.1V24.8L106.8 24.8zM108.6 31.3c0.2 0 0.4 0 0.6 0 1.6 0 2.7-0.9 2.7-2.8 0-1.6-1-2.5-2.5-2.5 -0.4 0-0.7 0-0.8 0.1V31.3L108.6 31.3zM114.7 30.8c0.5 0.2 1.2 0.5 2 0.5 0.8 0 1.3-0.3 1.3-0.9 0-0.5-0.4-0.8-1.3-1.1 -1.3-0.5-2.2-1.2-2.2-2.3 0-1.4 1.1-2.4 3-2.4 0.9 0 1.6 0.2 2 0.4l-0.4 1.4c-0.3-0.2-0.9-0.4-1.7-0.4 -0.8 0-1.2 0.4-1.2 0.8 0 0.5 0.4 0.7 1.5 1.1 1.4 0.5 2.1 1.2 2.1 2.4 0 1.3-1 2.5-3.2 2.5 -0.9 0-1.8-0.2-2.2-0.5L114.7 30.8"/></g></g></g></g></g></svg>