<?xml version="1.0" encoding="utf-8"?>
<!-- Generator: Adobe Illustrator 20.0.0, SVG Export Plug-In . SVG Version: 6.00 Build 0)  -->
<svg version="1.1" id="Layer_1" xmlns:sketch="http://www.bohemiancoding.com/sketch/ns"
	 xmlns="http://www.w3.org/2000/svg" xmlns:xlink="http://www.w3.org/1999/xlink" x="0px" y="0px" width="120px" height="47px"
	 viewBox="0 0 120 47" style="enable-background:new 0 0 120 47;" xml:space="preserve">
<style type="text/css">
	.st0{fill:#FFFFFF;}
	.st1{fill:#8D6644;}
	.st2{fill:#C1C1C1;}
	.st3{fill:none;}
	.st4{fill:#2695BC;}
	.st5{fill:#9E7D60;}
	.st6{fill:#4A4A4A;}
	.st7{fill:#10A5E0;}
	.st8{fill:#F79F11;}
	.st9{fill:#056F31;}
	.st10{fill:#D7D7D8;}
	.st11{fill:#CDCDCC;}
	.st12{fill:#F3F3F3;}
	.st13{fill:#E1E0E0;}
	.st14{fill:#83B527;}
	.st15{fill:#31B9E8;}
	.st16{fill:#5E5E61;}
	.st17{fill:#1692C5;}
	.st18{fill:#2D2D2D;}
	.st19{fill:#84838C;}
	.st20{fill:#364B99;}
	.st21{fill:#E9EDF1;}
	.st22{fill:#E40076;}
	.st23{fill:#103151;}
	.st24{fill:#A2C654;}
	.st25{fill:#233978;}
	.st26{fill:#EC6F1D;}
	.st27{fill:#78428E;}
	.st28{fill:#43224E;}
	.st29{fill:#1DC3EF;}
	.st30{fill:#EF45B2;}
	.st31{fill:#2293D1;}
	.st32{fill:#0B4B84;}
	.st33{fill:#31B1DD;}
	.st34{fill:#EACB49;}
	.st35{opacity:0.2;fill:#FFFFFF;enable-background:new    ;}
	.st36{fill:#52BCCE;}
	.st37{fill:#BC2359;}
	.st38{fill:#197EC1;}
	.st39{fill:url(#SVGID_1_);}
	.st40{fill:url(#SVGID_4_);}
	.st41{fill:#83C1E9;}
	.st42{fill:#22B573;}
	.st43{fill:#074425;}
	.st44{fill:#F94B4B;}
	.st45{clip-path:url(#SVGID_6_);}
	.st46{clip-path:url(#SVGID_8_);fill:#FF8436;}
	.st47{clip-path:url(#SVGID_10_);}
	.st48{clip-path:url(#SVGID_12_);fill:#FF8436;}
	.st49{clip-path:url(#SVGID_14_);}
	.st50{clip-path:url(#SVGID_17_);fill:#FF8436;}
	.st51{clip-path:url(#SVGID_19_);}
	.st52{clip-path:url(#SVGID_22_);fill:#FF8436;}
	.st53{clip-path:url(#SVGID_24_);}
	.st54{clip-path:url(#SVGID_26_);fill:#FF8436;}
	.st55{clip-path:url(#SVGID_28_);}
	.st56{clip-path:url(#SVGID_30_);fill:#FF8436;}
	.st57{clip-path:url(#SVGID_32_);}
	.st58{clip-path:url(#SVGID_34_);fill:#FF8436;}
	.st59{clip-path:url(#SVGID_36_);}
	.st60{clip-path:url(#SVGID_38_);fill:#FF8436;}
	.st61{fill:#262E64;}
	.st62{fill:#F39315;}
	.st63{fill:none;stroke:#F39315;stroke-width:0.2028;}
	.st64{fill:none;stroke:#F39315;stroke-width:0.1969;}
</style>
<g id="Search-results-list_3_" sketch:type="MSPage">
	<g id="link-to-afiliate-sites_3_" transform="translate(-687.000000, -2402.000000)" sketch:type="MSArtboardGroup">
		<g id="_x31__3_" transform="translate(24.000000, 33.000000)" sketch:type="MSLayerGroup">
			<g id="Posted-ad--Motors-2_3_" transform="translate(0.000000, 2260.000000)">
				<g id="Imported-Layers-_x2B_-Shape-Copy_3_" transform="translate(663.000000, 108.000000)">
					<path id="Shape-Copy_17_" sketch:type="MSShapeGroup" class="st6" d="M115.7,5.2L108.4,1c-0.2-0.1-0.3-0.1-0.5,0
						s-0.3,0.2-0.3,0.4v1.9l0,0c-0.2,0-0.4,0.1-0.6,0.2c-0.8,0.2-1.5,0.5-2.4,0.9c-0.8,0.3-1.6,0.8-2.3,1.3c-0.5,0.4-1,0.8-1.5,1.3
						c-1.2,1.3-1.9,3-1.8,4.7c0,0.3,0,0.6,0.1,0.8c0,0.2,0.2,0.4,0.5,0.4l0,0c0.2,0,0.5-0.2,0.5-0.4c0.1-0.7,0.4-1.4,0.7-1.9
						c0.4-0.6,0.9-1.2,1.5-1.6c0.5-0.3,1.1-0.6,1.7-0.8c0.7-0.2,1.5-0.4,2.4-0.4c0.4,0,0.8,0,1.2,0c0,0,0,0,0.1,0v1.8
						c0,0.2,0.1,0.3,0.2,0.4c0.2,0.1,0.3,0.1,0.5,0l7.3-4.1c0.2-0.1,0.3-0.2,0.3-0.4C115.9,5.4,115.8,5.3,115.7,5.2L115.7,5.2z"/>
				</g>
			</g>
		</g>
	</g>
</g>
<rect x="0.1" y="18.1" class="st61" width="120" height="28.5"/>
<g>
	<path class="st62" d="M107,26.8c0.1-0.2,0.2-0.2,0.2,0l1.4,4.1c0.1,0.2,0.3,0.4,0.5,0.4h4.3c0.2,0,0.2,0.1,0.1,0.2L110,34
		c-0.2,0.1-0.3,0.4-0.2,0.6l1.4,4.1c0.1,0.2,0,0.3-0.2,0.2l-3.5-2.5c-0.2-0.1-0.5-0.1-0.6,0l-3.5,2.5c-0.2,0.1-0.3,0.1-0.2-0.2
		l1.3-4.1c0.1-0.2,0-0.5-0.2-0.6l-3.5-2.5c-0.2-0.1-0.2-0.2,0.1-0.2h4.3c0.2,0,0.5-0.2,0.5-0.4L107,26.8z"/>
	<path class="st63" d="M107,26.8c0.1-0.2,0.2-0.2,0.2,0l1.4,4.1c0.1,0.2,0.3,0.4,0.5,0.4h4.3c0.2,0,0.2,0.1,0.1,0.2L110,34
		c-0.2,0.1-0.3,0.4-0.2,0.6l1.4,4.1c0.1,0.2,0,0.3-0.2,0.2l-3.5-2.5c-0.2-0.1-0.5-0.1-0.6,0l-3.5,2.5c-0.2,0.1-0.3,0.1-0.2-0.2
		l1.3-4.1c0.1-0.2,0-0.5-0.2-0.6l-3.5-2.5c-0.2-0.1-0.2-0.2,0.1-0.2h4.3c0.2,0,0.5-0.2,0.5-0.4L107,26.8z"/>
</g>
<g>
	<path class="st62" d="M101.9,23.6c0.1-0.1,0.2,0,0.1,0.1l-0.9,2.1c-0.1,0.2,0,0.3,0.1,0.4l1.7,1.5c0.1,0.1,0.1,0.2-0.1,0.2
		l-2.2-0.2c-0.2,0-0.3,0.1-0.4,0.2l-0.9,2.1c-0.1,0.2-0.2,0.1-0.2,0l-0.5-2.2c0-0.2-0.2-0.3-0.3-0.3l-2.2-0.2c-0.2,0-0.2-0.1,0-0.2
		l1.9-1.2c0.1-0.1,0.2-0.3,0.2-0.4l-0.5-2.2c0-0.2,0-0.2,0.2-0.1l1.7,1.5c0.1,0.1,0.3,0.1,0.5,0L101.9,23.6z"/>
	<path class="st64" d="M101.9,23.6c0.1-0.1,0.2,0,0.1,0.1l-0.9,2.1c-0.1,0.2,0,0.3,0.1,0.4l1.7,1.5c0.1,0.1,0.1,0.2-0.1,0.2
		l-2.2-0.2c-0.2,0-0.3,0.1-0.4,0.2l-0.9,2.1c-0.1,0.2-0.2,0.1-0.2,0l-0.5-2.2c0-0.2-0.2-0.3-0.3-0.3l-2.2-0.2c-0.2,0-0.2-0.1,0-0.2
		l1.9-1.2c0.1-0.1,0.2-0.3,0.2-0.4l-0.5-2.2c0-0.2,0-0.2,0.2-0.1l1.7,1.5c0.1,0.1,0.3,0.1,0.5,0L101.9,23.6z"/>
</g>
<g>
	<path class="st62" d="M94.2,26.4c0.1,0.1,0.1,0.2,0,0.2l-0.8,0.1c-0.2,0-0.3,0.2-0.3,0.3l-0.2,0.8c0,0.2-0.1,0.2-0.2,0L92.2,27
		c-0.1-0.2-0.2-0.2-0.4-0.2L91,26.9c-0.2,0-0.2,0-0.1-0.2l0.7-0.6c0.1-0.1,0.2-0.3,0.1-0.4L91.3,25c-0.1-0.2,0-0.2,0.1-0.1l0.7,0.4
		c0.1,0.1,0.3,0,0.5,0l0.7-0.6c0.1-0.1,0.2-0.1,0.2,0.1l-0.2,0.8c0,0.2,0,0.3,0.2,0.4L94.2,26.4z"/>
	<path class="st64" d="M94.2,26.4c0.1,0.1,0.1,0.2,0,0.2l-0.8,0.1c-0.2,0-0.3,0.2-0.3,0.3l-0.2,0.8c0,0.2-0.1,0.2-0.2,0L92.2,27
		c-0.1-0.2-0.2-0.2-0.4-0.2L91,26.9c-0.2,0-0.2,0-0.1-0.2l0.7-0.6c0.1-0.1,0.2-0.3,0.1-0.4L91.3,25c-0.1-0.2,0-0.2,0.1-0.1l0.7,0.4
		c0.1,0.1,0.3,0,0.5,0l0.7-0.6c0.1-0.1,0.2-0.1,0.2,0.1l-0.2,0.8c0,0.2,0,0.3,0.2,0.4L94.2,26.4z"/>
</g>
<g>
	<path class="st0" d="M10.9,31.5c0,0.8-0.2,1.2-0.8,1.4c0.7,0.2,0.9,0.7,0.9,1.6c0,1.4-0.7,2-2.4,2H7.3c-0.1,0-0.2,0-0.3,0
		c-0.2,0-0.4,0-0.6-0.1S6.3,36,6.3,35.5c0-0.5,0-0.9,0-1.4c0-0.5,0-1.1,0-1.6c0-0.5,0-1,0-1.7c0-0.2,0-0.3,0-0.5
		c0-0.2,0.3-0.3,0.8-0.3c0.2,0,0.4,0,0.5,0H9C10.3,29.9,10.9,30.4,10.9,31.5z M8.5,35.1c0.4,0,0.7-0.3,0.7-0.7
		c0-0.5-0.2-0.7-0.7-0.7c-0.3,0-0.4,0.1-0.4,0.3v0.8C8.1,35,8.3,35.1,8.5,35.1z M8.4,32.3c0.5,0,0.7-0.2,0.7-0.6
		c0-0.3-0.2-0.5-0.6-0.5c-0.2,0-0.3,0.1-0.3,0.2v0.7C8.2,32.2,8.3,32.3,8.4,32.3z"/>
	<path class="st0" d="M13.5,31.7v2.4c0,0.6,0,1,0.4,1c0.3,0,0.5-0.2,0.5-0.7v-2c0-0.3-0.1-0.5-0.1-0.8c0-0.4,0.2-0.4,0.6-0.4h0.8
		c0.3,0,0.4,0.1,0.4,0.5v3.7c0,0.1,0,0.3,0,0.5c0,0.5-0.1,0.5-0.7,0.5h-0.7c-0.3,0-0.4,0-0.4-0.3c0,0,0,0,0-0.1h-0.1
		c-0.3,0.3-0.7,0.5-1.2,0.5c-1,0-1.4-0.6-1.4-1.8V32c0-0.5,0-0.7,0.6-0.7h0.5C13.4,31.2,13.5,31.3,13.5,31.7z"/>
	<path class="st0" d="M16.9,35.5c0,0,0-0.1,0-0.2c0-0.3,0-0.4,0.3-0.4c0.2,0,0.3,0.1,0.7,0.1s0.5-0.1,0.5-0.3c0-0.3-0.3-0.4-0.7-0.7
		c-0.6-0.4-0.8-0.8-0.8-1.4c0-0.9,0.8-1.5,1.9-1.5c0.9,0,1.2,0,1.2,0.5v0.5c0,0.3-0.1,0.4-0.4,0.4c-0.1,0-0.3,0-0.5,0
		c-0.3,0-0.4,0.1-0.4,0.3s0.3,0.4,0.8,0.8c0.5,0.4,0.7,0.8,0.7,1.4c0,1-0.8,1.7-2.1,1.7c-0.8,0-1.3-0.1-1.3-0.3c0,0,0,0,0-0.1
		L16.9,35.5z"/>
	<path class="st0" d="M21,32.1c0-0.1,0-0.3,0-0.4c0-0.3,0.2-0.4,0.7-0.4c0.1,0,0.2,0,0.2,0c0.2,0,0.3,0,0.5,0c0.4,0,0.5,0,0.5,0.3
		c0,0,0,0.2,0,0.3v3.9c0,0.1,0,0.2,0,0.3c0,0.3,0,0.4-0.4,0.4c-0.2,0-0.4,0-0.5,0c-0.3,0-0.5,0-0.6,0c-0.3,0-0.3-0.1-0.3-0.4
		c0,0,0-0.1,0-0.2L21,32.1L21,32.1z M21,30.3c0-0.4,0.1-0.5,0.5-0.5c0.1,0,0.3,0,0.5,0c0.1,0,0.3,0,0.4,0c0.5,0,0.5,0.1,0.5,0.6
		c0,0.5-0.1,0.6-0.7,0.6c-0.1,0-0.2,0-0.3,0C21,31,21,30.9,21,30.3z"/>
	<path class="st0" d="M26.4,36v-2.4c0-0.6,0-1-0.4-1c-0.3,0-0.5,0.2-0.5,0.7v1.9c0,0.3,0.1,0.6,0.1,0.8c0,0.4-0.2,0.4-0.6,0.4h-0.8
		c-0.3,0-0.4-0.1-0.4-0.5v-3.7c0-0.1,0-0.3,0-0.5c0-0.5,0.1-0.5,0.7-0.5h0.7c0.3,0,0.4,0,0.4,0.3c0,0,0,0,0,0.1h0.1
		c0.3-0.3,0.7-0.5,1.2-0.5c1,0,1.4,0.6,1.4,1.8v2.8c0,0.5,0,0.7-0.6,0.7h-0.5C26.5,36.5,26.4,36.4,26.4,36z"/>
	<path class="st0" d="M33,36c0,0.2,0,0.3-0.1,0.3c-0.2,0.1-0.8,0.3-1.5,0.3c-1.9,0-2.6-0.8-2.6-2.7c0-1.8,0.6-2.6,2.2-2.6
		c0.8,0,1.4,0.3,1.8,0.8c0.3,0.4,0.3,0.9,0.3,1.7c0,0.5,0,0.7-0.4,0.7h-1.9c-0.1,0-0.2,0.1-0.2,0.1c0,0.5,0.3,0.7,1,0.7
		c0.5,0,0.8-0.2,1-0.2c0.3,0,0.4,0.1,0.4,0.3L33,36L33,36z M31.2,33.3c0.3,0,0.3-0.1,0.3-0.3c0-0.5-0.1-0.7-0.5-0.7
		c-0.3,0-0.4,0.2-0.4,0.5c0,0.3,0,0.4,0.2,0.4L31.2,33.3L31.2,33.3z"/>
	<path class="st0" d="M33.7,35.5c0,0,0-0.1,0-0.2c0-0.3,0-0.4,0.3-0.4c0.2,0,0.3,0.1,0.7,0.1s0.5-0.1,0.5-0.3c0-0.3-0.3-0.4-0.7-0.7
		c-0.6-0.4-0.8-0.8-0.8-1.4c0-0.9,0.8-1.5,1.9-1.5c0.9,0,1.2,0,1.2,0.5v0.5c0,0.3-0.1,0.4-0.4,0.4c-0.1,0-0.3,0-0.5,0
		c-0.3,0-0.4,0.1-0.4,0.3s0.3,0.4,0.8,0.8c0.5,0.4,0.7,0.8,0.7,1.4c0,1-0.8,1.7-2.1,1.7c-0.8,0-1.3-0.1-1.3-0.3c0,0,0,0,0-0.1
		L33.7,35.5z"/>
	<path class="st0" d="M37.6,35.5c0,0,0-0.1,0-0.2c0-0.3,0-0.4,0.3-0.4c0.2,0,0.3,0.1,0.7,0.1s0.5-0.1,0.5-0.3c0-0.3-0.3-0.4-0.7-0.7
		c-0.6-0.4-0.8-0.8-0.8-1.4c0-0.9,0.8-1.5,1.9-1.5c0.9,0,1.2,0,1.2,0.5v0.5c0,0.3-0.1,0.4-0.4,0.4c-0.1,0-0.3,0-0.5,0
		c-0.3,0-0.4,0.1-0.4,0.3s0.3,0.4,0.8,0.8C40.8,34,41,34.5,41,35c0,1-0.8,1.7-2.1,1.7c-0.8,0-1.3-0.1-1.3-0.3c0,0,0,0,0-0.1
		L37.6,35.5z"/>
	<path class="st0" d="M45.7,36c0,0.2,0,0.3-0.1,0.3c-0.2,0.1-0.8,0.3-1.5,0.3c-1.9,0-2.6-0.8-2.6-2.7c0-1.8,0.6-2.6,2.2-2.6
		c0.8,0,1.4,0.3,1.8,0.8c0.3,0.4,0.3,0.9,0.3,1.7c0,0.5,0,0.7-0.4,0.7h-1.9c-0.1,0-0.2,0.1-0.2,0.1c0,0.5,0.3,0.7,1,0.7
		c0.5,0,0.8-0.2,1-0.2c0.3,0,0.4,0.1,0.4,0.3C45.7,35.3,45.7,36,45.7,36z M43.9,33.3c0.3,0,0.3-0.1,0.3-0.3c0-0.5-0.1-0.7-0.5-0.7
		c-0.3,0-0.4,0.2-0.4,0.5c0,0.3,0,0.4,0.2,0.4L43.9,33.3L43.9,33.3z"/>
	<path class="st0" d="M46.4,35.5c0,0,0-0.1,0-0.2c0-0.3,0-0.4,0.3-0.4c0.2,0,0.3,0.1,0.7,0.1c0.3,0,0.5-0.1,0.5-0.3
		c0-0.3-0.3-0.4-0.7-0.7c-0.6-0.4-0.8-0.8-0.8-1.4c0-0.9,0.8-1.5,1.9-1.5c0.9,0,1.2,0,1.2,0.5v0.5c0,0.3-0.1,0.4-0.4,0.4
		c-0.1,0-0.3,0-0.5,0c-0.3,0-0.4,0.1-0.4,0.3s0.3,0.4,0.8,0.8c0.5,0.4,0.7,0.8,0.7,1.4c0,1-0.8,1.7-2.1,1.7c-0.8,0-1.3-0.1-1.3-0.3
		c0,0,0,0,0-0.1L46.4,35.5z"/>
	<path class="st0" d="M50.4,30.7c0-0.1,0-0.3,0-0.4c0-0.3,0.1-0.4,0.5-0.4c0.1,0,0.2,0,0.3,0c0.1,0,0.2,0,0.3,0h1.7
		c0.2,0,0.3,0,0.4,0c0.4,0,0.5,0.1,0.5,0.5c0,0.1,0,0.3,0,0.4c0,0.5-0.2,0.5-1.1,0.5c-0.1,0-0.2,0-0.3,0c-0.4,0-0.4,0-0.4,0.5
		s0,0.5,0.7,0.5c0,0,0.1,0,0.1,0c0.3,0,0.5,0,0.7,0c0.3,0,0.3,0.1,0.3,0.4c0,0.1,0,0.2,0,0.3c0,0,0,0.1,0,0.2c0,0.4-0.1,0.5-0.6,0.5
		c-0.2,0-0.4,0-0.7,0c-0.4,0-0.5,0.1-0.5,0.5v1.3c0,0.3,0,0.5,0,0.6c0,0.2-0.1,0.3-0.5,0.3c-0.2,0-0.5,0-0.7,0c-0.2,0-0.3,0-0.5,0
		c-0.3,0-0.3-0.1-0.3-0.3c0,0,0-0.1,0-0.2c0-0.1,0-0.2,0-0.3L50.4,30.7L50.4,30.7z"/>
	<path class="st0" d="M54.9,31.8c0.4-0.5,1-0.7,1.8-0.7c1.6,0,2.1,0.8,2.1,2.4c0,1,0,1.7-0.3,2.1c-0.4,0.6-1,0.8-1.9,0.8
		c-1.7,0-2.1-0.9-2.1-2.7C54.5,32.8,54.6,32.2,54.9,31.8z M56.6,35.1c0.3,0,0.5-0.2,0.5-0.5v-1.5c0-0.4,0-0.6-0.5-0.6
		c-0.3,0-0.4,0.2-0.4,0.4v1.7C56.2,35,56.3,35.1,56.6,35.1z"/>
	<path class="st0" d="M59.5,36v-3.7c0-0.1,0-0.3,0-0.5c0-0.5,0.1-0.5,0.7-0.5h0.6c0.4,0,0.3,0.1,0.4,0.5h0.1
		c0.2-0.4,0.4-0.7,0.6-0.7c0.3,0,0.3,0.2,0.3,0.5v1c0,0.3,0,0.3-0.3,0.4c-0.5,0-0.6,0.2-0.6,0.6v1.7c0,0.3,0,0.5,0,0.8
		c0,0.4-0.1,0.5-0.5,0.5h-0.9C59.6,36.5,59.5,36.4,59.5,36z"/>
	<path class="st0" d="M62.8,35.2L62.8,35.2c0-0.3,0.2-0.5,0.5-0.5c0.2,0,0.4,0.2,1,0.2c0.4,0,0.6-0.1,0.6-0.4c0-0.4-0.5-0.7-1.2-1.1
		c-0.7-0.5-1-1-1-1.7c0-1.2,0.9-1.9,2.7-1.9c1.2,0,1.2,0.1,1.2,0.6v0.7c0,0.3-0.1,0.5-0.4,0.5c-0.3,0-0.6-0.1-0.8-0.1
		c-0.3,0-0.5,0.1-0.5,0.3c0,0.3,0.6,0.6,1.4,1.2c0.6,0.5,0.8,0.9,0.8,1.5c0,1.4-0.8,2-2.5,2c-0.8,0-1.3-0.1-1.5-0.2
		s-0.2-0.2-0.2-0.4c0,0,0,0,0-0.1L62.8,35.2z"/>
	<path class="st0" d="M70.3,36.1c-0.1,0.3-0.4,0.4-0.9,0.4c-0.9,0-1.5-0.7-1.5-1.9c0-1.2,0.7-1.9,1.7-1.9c0.3,0,0.6,0.1,0.7,0.1
		c0.1,0,0.2,0,0.2-0.2c0-0.3-0.3-0.4-0.7-0.4c-0.5,0-0.8,0.2-1,0.2c-0.2,0-0.3-0.1-0.3-0.3v-0.5c0-0.2,0-0.3,0.2-0.3
		c0.2-0.1,0.8-0.2,1.5-0.2c1.5,0,2,0.4,2,1.4c0,0.2,0,0.4,0,0.4V36c0,0.1,0,0.1,0,0.2c0,0.3-0.1,0.3-0.5,0.3h-0.8
		C70.4,36.5,70.4,36.5,70.3,36.1C70.4,36.1,70.3,36.1,70.3,36.1z M69.5,34.9c0,0.3,0.2,0.5,0.4,0.5c0.3,0,0.4-0.2,0.4-0.5v-0.5
		c0-0.3-0.1-0.5-0.4-0.5s-0.5,0.2-0.5,0.5L69.5,34.9L69.5,34.9z"/>
	<path class="st0" d="M72.9,30.2c0-0.4,0.2-0.4,0.7-0.4c0,0,0.1,0,0.2,0c0.1,0,0.3,0,0.6,0c0.3,0,0.3,0.1,0.3,0.3c0,0,0,0.2,0,0.3
		v5.6c0,0.3,0,0.4-0.4,0.4c-0.2,0-0.3,0-0.5,0c-0.2,0-0.4,0-0.5,0c-0.3,0-0.3-0.2-0.3-0.5c0,0,0,0,0-0.1v-5.3
		C72.9,30.5,72.9,30.4,72.9,30.2z"/>
	<path class="st0" d="M79.6,36c0,0.2,0,0.3-0.1,0.3c-0.2,0.1-0.8,0.3-1.5,0.3c-1.9,0-2.6-0.8-2.6-2.7c0-1.8,0.6-2.6,2.2-2.6
		c0.8,0,1.4,0.3,1.8,0.8c0.3,0.4,0.3,0.9,0.3,1.7c0,0.5,0,0.7-0.4,0.7h-1.9c-0.1,0-0.2,0.1-0.2,0.1c0,0.5,0.3,0.7,1,0.7
		c0.5,0,0.8-0.2,1-0.2c0.3,0,0.4,0.1,0.4,0.3V36z M77.7,33.3c0.3,0,0.3-0.1,0.3-0.3c0-0.5-0.1-0.7-0.5-0.7c-0.3,0-0.4,0.2-0.4,0.5
		c0,0.3,0,0.4,0.2,0.4L77.7,33.3L77.7,33.3z"/>
	<path class="st0" d="M81.8,36.5h-1c-0.3,0-0.4-0.1-0.4-0.3v-1c0-0.2,0.1-0.3,0.4-0.3h1c0.3,0,0.4,0.1,0.4,0.3v1
		C82.2,36.4,82.1,36.5,81.8,36.5z"/>
	<path class="st0" d="M85.6,32.3c0,0.3-0.2,0.3-0.5,0.3c-0.5,0-0.5,0.4-0.5,1.2c0,0.8,0,1.1,0.5,1.1c0.1,0,0.1,0,0.1,0
		c0.3,0,0.3,0.1,0.3,0.3v1c0,0.2-0.2,0.3-0.5,0.3c-1.7,0-2.2-0.7-2.2-2.6c0-2,0.4-2.8,2.2-2.8c0.4,0,0.5,0.1,0.5,0.3V32.3z"/>
	<path class="st0" d="M86.6,31.8c0.4-0.5,1-0.7,1.8-0.7c1.6,0,2.1,0.8,2.1,2.4c0,1,0,1.7-0.3,2.1c-0.4,0.6-1,0.8-1.9,0.8
		c-1.7,0-2.1-0.9-2.1-2.7C86.3,32.8,86.3,32.2,86.6,31.8z M88.3,35.1c0.3,0,0.5-0.2,0.5-0.5v-1.5c0-0.4,0-0.6-0.5-0.6
		c-0.3,0-0.4,0.2-0.4,0.4v1.7C88,35,88.1,35.1,88.3,35.1z"/>
	<path class="st0" d="M94.2,31.2c0.6,0,1,0.2,1.4,0.6c0.4-0.4,0.8-0.6,1.3-0.6c1,0,1.4,0.6,1.4,1.8v2.8c0,0.5,0,0.7-0.6,0.7h-0.4
		c-0.7,0-0.7-0.1-0.7-0.5v-2.4c0-0.6,0-1-0.4-1c-0.3,0-0.5,0.2-0.5,0.6v2.5c0,0.5,0,0.7-0.6,0.7h-0.5c-0.7,0-0.7-0.1-0.7-0.5v-2.4
		c0-0.6,0-1-0.4-1c-0.3,0-0.5,0.2-0.5,0.7v1.9c0,0.3,0.1,0.6,0.1,0.8c0,0.4-0.2,0.4-0.6,0.4h-0.8c-0.3,0-0.4-0.1-0.4-0.5v-3.7
		c0-0.1,0-0.3,0-0.5c0-0.5,0.1-0.5,0.7-0.5h0.7c0.3,0,0.4,0,0.4,0.3c0,0,0,0,0,0.1h0.1C93.4,31.3,93.8,31.2,94.2,31.2z"/>
</g>
</svg>
