<svg xmlns:sketch="http://www.bohemiancoding.com/sketch/ns" xmlns="http://www.w3.org/2000/svg" xmlns:xlink="http://www.w3.org/1999/xlink" version="1.1" id="Layer_1" x="0" y="0" width="120" height="47" viewBox="0 0 120 47" xml:space="preserve" enable-background="new 0 0 120 47">
  <style type="text/css">
    
	.st0{fill:#8D6644;}
	.st1{fill:#C1C1C1;}
	.st2{filter:url(#Adobe_OpacityMaskFilter);}
	.st3{fill:#FFFFFF;}
	.st4{mask:url(#mask-2);fill:none;}
	.st5{filter:url(#Adobe_OpacityMaskFilter_1_);}
	.st6{mask:url(#mask-4);fill:none;}
	.st7{filter:url(#Adobe_OpacityMaskFilter_2_);}
	.st8{mask:url(#mask-6);fill:none;}
	.st9{filter:url(#Adobe_OpacityMaskFilter_3_);}
	.st10{mask:url(#mask-8);fill:none;}
	.st11{filter:url(#Adobe_OpacityMaskFilter_4_);}
	.st12{mask:url(#mask-10);fill:none;}
	.st13{filter:url(#Adobe_OpacityMaskFilter_5_);}
	.st14{mask:url(#mask-12);fill:none;}
	.st15{filter:url(#Adobe_OpacityMaskFilter_6_);}
	.st16{mask:url(#mask-14);fill:none;}
	.st17{filter:url(#Adobe_OpacityMaskFilter_7_);}
	.st18{mask:url(#mask-16);fill:none;}
	.st19{filter:url(#Adobe_OpacityMaskFilter_8_);}
	.st20{mask:url(#mask-18);fill:none;}
	.st21{filter:url(#Adobe_OpacityMaskFilter_9_);}
	.st22{mask:url(#mask-20);fill:none;}
	.st23{filter:url(#Adobe_OpacityMaskFilter_10_);}
	.st24{mask:url(#mask-22);fill:none;}
	.st25{filter:url(#Adobe_OpacityMaskFilter_11_);}
	.st26{mask:url(#mask-24);fill:none;}
	.st27{filter:url(#Adobe_OpacityMaskFilter_12_);}
	.st28{mask:url(#mask-26);fill:none;}
	.st29{filter:url(#Adobe_OpacityMaskFilter_13_);}
	.st30{mask:url(#mask-28);fill:none;}
	.st31{filter:url(#Adobe_OpacityMaskFilter_14_);}
	.st32{mask:url(#mask-30);fill:none;}
	.st33{filter:url(#Adobe_OpacityMaskFilter_15_);}
	.st34{mask:url(#mask-32);fill:none;}
	.st35{fill:#2695BC;}
	.st36{fill:#9E7D60;}
	.st37{fill:#4A4A4A;}

  </style>
  <title>
    Imported Layers + Shape Copy
  </title>
  <desc>
    Created with Sketch.
  </desc>
  <g id="Search-results-list" sketch:type="MSPage">
    <g id="link-to-afiliate-sites" transform="translate(-687.000000, -2402.000000)" sketch:type="MSArtboardGroup">
      <g id="_x31_" transform="translate(24.000000, 33.000000)" sketch:type="MSLayerGroup">
        <g id="Posted-ad--Motors-2" transform="translate(0.000000, 2260.000000)">
          <g id="Imported-Layers-_x2B_-Shape-Copy" transform="translate(663.000000, 108.000000)">
            <g id="Imported-Layers" transform="translate(0.000000, 14.000000)">
              <path id="Fill-1" sketch:type="MSShapeGroup" class="st0" d="M29.1 8.4c0-2.8 0.6-6 1.7-7.8H15.2C8.4 0.5 1.9 5 1.9 11.8v3.7c0 4.3 2.8 8 6.4 10.2H1.1c-0.6 0-1 0.6-1 1.2s0.5 1.2 1 1.2h19.5c0.4 2.4 2.9 5.4 6.1 5.4 3.1 0 5.7-3 6.1-5.4h14.7c0.3 0 0.5 0 0.8-0.1C37.5 27.4 29.1 18.8 29.1 8.4M12.4 12.6c-1.7 0-3.3-1.3-3.3-3V9.2c0-1.7 1.6-3.3 3.3-3.3h10.3c1.7 0 2.9 1.6 2.9 3.3v0.4c0 1.7-1.2 3-2.9 3H12.4M26.6 29.6c-1.3 0-2.4-1.1-2.4-2.4 0-1.3 1.1-2.4 2.4-2.4 1.3 0 2.4 1.1 2.4 2.4C29 28.5 27.9 29.6 26.6 29.6"/>
              <path id="Fill-2" sketch:type="MSShapeGroup" class="st1" d="M55.4 25v2.8c-0.3 0.1-0.5 0.1-0.8 0.1 -0.3 0-0.5 0-0.8 0 -0.2 0-0.5 0-0.8 0 -0.3 0-0.5-0.1-0.8-0.1v-9.6h7.1c0.1 0.2 0.1 0.5 0.1 0.7 0 0.2 0 0.4 0 0.6 0 0.2 0 0.4 0 0.6 0 0.2-0.1 0.4-0.1 0.7h-4v1.5h3.2c0.1 0.2 0.1 0.5 0.1 0.7 0 0.2 0 0.4 0 0.6s0 0.4 0 0.6c0 0.2-0.1 0.4-0.1 0.7H55.4"/>
              <path id="Fill-3" sketch:type="MSShapeGroup" class="st1" d="M60.3 23.2c0-0.8 0.1-1.4 0.3-2.1 0.2-0.6 0.5-1.2 0.9-1.6 0.4-0.4 0.9-0.8 1.5-1 0.6-0.2 1.3-0.4 2.1-0.4 0.8 0 1.5 0.1 2.1 0.4 0.6 0.2 1.1 0.6 1.5 1 0.4 0.4 0.7 1 0.9 1.6 0.2 0.6 0.3 1.3 0.3 2.1 0 0.7-0.1 1.4-0.3 2 -0.2 0.6-0.5 1.1-0.9 1.6 -0.4 0.4-0.9 0.8-1.5 1 -0.6 0.2-1.3 0.4-2.1 0.4 -0.8 0-1.5-0.1-2.1-0.4 -0.6-0.2-1.1-0.6-1.5-1 -0.4-0.4-0.7-1-0.9-1.6C60.4 24.6 60.3 23.9 60.3 23.2L60.3 23.2zM66.7 23.2c0-0.8-0.1-1.4-0.4-1.8 -0.3-0.4-0.7-0.6-1.2-0.6 -0.5 0-0.9 0.2-1.2 0.6 -0.3 0.4-0.4 1-0.4 1.8 0 0.8 0.1 1.4 0.4 1.8 0.3 0.4 0.7 0.6 1.2 0.6 0.5 0 1-0.2 1.2-0.6C66.6 24.5 66.7 23.9 66.7 23.2L66.7 23.2z"/>
              <path id="Fill-4" sketch:type="MSShapeGroup" class="st1" d="M71.5 18.3c0.6-0.1 1.2-0.1 1.8-0.2 0.6 0 1.2-0.1 1.8-0.1 1.5 0 2.6 0.3 3.4 0.8 0.7 0.6 1.1 1.4 1.1 2.4 0 0.4 0 0.7-0.1 1 -0.1 0.3-0.2 0.5-0.3 0.7 -0.1 0.2-0.3 0.4-0.4 0.5 -0.1 0.1-0.2 0.2-0.3 0.3l2.1 4.1c-0.2 0-0.5 0.1-0.8 0.1 -0.3 0-0.6 0-0.9 0 -0.3 0-0.7 0-1 0 -0.3 0-0.6-0.1-0.8-0.1L75 23.5l0.3-0.1c0.4-0.2 0.7-0.5 0.9-0.8 0.2-0.3 0.2-0.6 0.2-0.9 0-0.3-0.1-0.6-0.3-0.8 -0.2-0.2-0.5-0.3-0.9-0.3 -0.2 0-0.4 0-0.5 0v7.3C74.3 28 74 28 73.8 28c-0.3 0-0.5 0-0.7 0 -0.2 0-0.4 0-0.7 0 -0.2 0-0.5-0.1-0.9-0.1V18.3"/>
              <path id="Fill-5" sketch:type="MSShapeGroup" class="st0" d="M89.5 21.9c0.4 0.1 0.7 0.2 1 0.4 0.3 0.1 0.6 0.3 0.8 0.5 0.2 0.2 0.4 0.5 0.5 0.8 0.1 0.3 0.2 0.7 0.2 1.2 0 0.5-0.1 0.9-0.3 1.3 -0.2 0.4-0.5 0.8-0.9 1.1 -0.4 0.3-0.8 0.5-1.4 0.7 -0.6 0.2-1.2 0.3-1.9 0.3 -0.6 0-1.1 0-1.7-0.1 -0.5-0.1-1-0.2-1.6-0.4 0.1-0.8 0.3-1.7 0.7-2.6 0.4 0.2 0.8 0.3 1.2 0.4 0.4 0.1 0.9 0.1 1.3 0.1 0.1 0 0.3 0 0.5 0 0.2 0 0.3 0 0.4-0.1 0.1 0 0.2-0.1 0.3-0.2 0.1-0.1 0.1-0.2 0.1-0.3 0-0.2-0.1-0.3-0.2-0.4 -0.2-0.1-0.3-0.2-0.6-0.2L86.8 24c-0.7-0.2-1.2-0.5-1.6-0.9 -0.4-0.4-0.7-1.1-0.7-1.8 0-0.5 0.1-0.9 0.3-1.3 0.2-0.4 0.5-0.7 0.8-1 0.4-0.3 0.8-0.5 1.3-0.6 0.5-0.1 1-0.2 1.6-0.2 0.5 0 1 0 1.5 0.1 0.6 0.1 1.1 0.2 1.7 0.4 0 0.4-0.1 0.8-0.2 1.3 -0.1 0.5-0.3 0.9-0.5 1.2 -0.3-0.1-0.7-0.3-1.2-0.4 -0.5-0.1-0.9-0.2-1.3-0.2 -0.6 0-0.9 0.2-0.9 0.5 0 0.1 0.1 0.2 0.2 0.3 0.1 0.1 0.3 0.1 0.5 0.2L89.5 21.9"/>
              <path id="Fill-6" sketch:type="MSShapeGroup" class="st0" d="M93.1 24.8c0-0.6 0.1-1.1 0.4-1.5 0.3-0.4 0.6-0.7 1-0.9 0.4-0.2 0.9-0.4 1.4-0.5 0.5-0.1 1-0.1 1.4-0.1h1.1c0-0.2-0.1-0.4-0.2-0.6 -0.1-0.1-0.3-0.3-0.4-0.3 -0.2-0.1-0.4-0.1-0.6-0.2 -0.2 0-0.4 0-0.7 0 -0.3 0-0.6 0-1 0.1 -0.4 0.1-0.8 0.2-1.2 0.3 -0.1-0.2-0.2-0.4-0.3-0.6 -0.1-0.2-0.1-0.3-0.2-0.5 0-0.2-0.1-0.4-0.1-0.6 0-0.2 0-0.4 0-0.7 0.6-0.2 1.2-0.3 1.8-0.4 0.6-0.1 1.1-0.1 1.6-0.1 0.6 0 1.2 0.1 1.7 0.2 0.5 0.2 1 0.4 1.3 0.7 0.4 0.3 0.6 0.7 0.8 1.2 0.2 0.5 0.3 1.1 0.3 1.8v5.4c-0.5 0.1-1 0.3-1.7 0.4 -0.7 0.1-1.4 0.2-2.1 0.2 -0.6 0-1.2-0.1-1.8-0.2 -0.5-0.1-1-0.3-1.4-0.6 -0.4-0.3-0.7-0.6-0.9-1C93.3 25.9 93.1 25.4 93.1 24.8L93.1 24.8zM97.5 25.8c0.1 0 0.3 0 0.5 0 0.2 0 0.4 0 0.5-0.1v-2h-1.1c-0.4 0-0.8 0.1-1.1 0.3 -0.3 0.2-0.4 0.4-0.4 0.8 0 0.2 0.1 0.4 0.2 0.6 0.1 0.1 0.3 0.3 0.4 0.3 0.2 0.1 0.3 0.1 0.5 0.1C97.2 25.8 97.4 25.8 97.5 25.8L97.5 25.8z"/>
              <path id="Fill-7" sketch:type="MSShapeGroup" class="st0" d="M106.5 25.3h3.5c0.1 0.2 0.1 0.5 0.1 0.7 0 0.2 0 0.4 0 0.6 0 0.2 0 0.4 0 0.6 0 0.2-0.1 0.4-0.1 0.7h-6.7l0-9.6c0.3-0.1 0.5-0.1 0.8-0.1 0.3 0 0.5 0 0.8 0 0.2 0 0.5 0 0.8 0 0.3 0 0.5 0.1 0.8 0.1L106.5 25.3"/>
              <path id="Fill-8" sketch:type="MSShapeGroup" class="st0" d="M114 24.1c0.1 0.5 0.4 0.9 0.7 1.1 0.3 0.2 0.8 0.3 1.3 0.3 0.4 0 0.8 0 1.2-0.1 0.4-0.1 0.9-0.2 1.3-0.4 0.2 0.3 0.3 0.7 0.5 1.2 0.1 0.4 0.2 0.9 0.2 1.4 -1.1 0.4-2.2 0.6-3.4 0.6 -0.9 0-1.7-0.1-2.3-0.4 -0.6-0.2-1.2-0.6-1.6-1 -0.4-0.4-0.7-1-0.9-1.6 -0.2-0.6-0.3-1.3-0.3-2 0-0.7 0.1-1.4 0.3-2 0.2-0.6 0.5-1.2 0.9-1.6 0.4-0.5 0.9-0.8 1.5-1.1 0.6-0.3 1.3-0.4 2.1-0.4 0.7 0 1.2 0.1 1.8 0.3 0.5 0.2 1 0.5 1.3 0.9 0.4 0.4 0.6 0.9 0.8 1.4 0.2 0.6 0.3 1.2 0.3 1.8 0 0.3 0 0.6 0 0.9 0 0.3-0.1 0.5-0.1 0.7H114L114 24.1zM115.5 20.4c-0.4 0-0.7 0.1-1 0.4 -0.3 0.2-0.5 0.6-0.5 1.2h3c0-0.4-0.2-0.8-0.4-1.1C116.3 20.6 115.9 20.4 115.5 20.4L115.5 20.4z"/>
              <g id="Group-15" transform="translate(32.338530, 0.000000)">
                <g id="Group-11">
                  <g id="Clip-10"/>
                  <defs>
                    <filter id="Adobe_OpacityMaskFilter" filterUnits="userSpaceOnUse" x="0.2" y="0.2" width="11.2" height="15.4">
                      <feColorMatrix type="matrix" values="1"/>
                    </filter>
                  </defs>
                  <mask maskUnits="userSpaceOnUse" x="0.2" y="0.2" width="11.2" height="15.4" id="mask-2">
                    <g class="st2">
                      <path id="path-1" class="st3" d="M4.1 8c0 2.9 1.2 4.4 3.7 4.4 0.4 0 0.9 0 1.3-0.1 0.4-0.1 0.9-0.2 1.4-0.4 0.5 1 0.8 2 0.9 3.1 -0.4 0.2-0.8 0.3-1.1 0.4 -0.3 0.1-0.7 0.2-1 0.2 -0.3 0-0.6 0.1-0.9 0.1 -0.3 0-0.6 0-1 0 -1.2 0-2.2-0.2-3.1-0.6 -0.9-0.4-1.6-0.9-2.2-1.6C1.5 12.8 1 12 0.7 11c-0.3-0.9-0.5-2-0.5-3.1 0-1.1 0.2-2.1 0.5-3.1C1 3.9 1.5 3.1 2.1 2.4c0.6-0.7 1.3-1.2 2.2-1.6 0.9-0.4 1.9-0.6 3-0.6 0.7 0 1.3 0 1.9 0.1 0.6 0.1 1.3 0.3 2 0.6 0 0.6-0.1 1.1-0.3 1.7 -0.2 0.5-0.4 1-0.6 1.4 -0.3-0.1-0.5-0.2-0.8-0.3C9.4 3.7 9.2 3.6 9 3.6c-0.2 0-0.4-0.1-0.6-0.1 -0.2 0-0.4 0-0.7 0 -1.1 0-2 0.4-2.6 1.1C4.4 5.3 4.1 6.5 4.1 8"/>
                    </g>
                  </mask>
                  <path id="Fill-9" sketch:type="MSShapeGroup" class="st4" d="M4.1 8c0 2.9 1.2 4.4 3.7 4.4 0.4 0 0.9 0 1.3-0.1 0.4-0.1 0.9-0.2 1.4-0.4 0.5 1 0.8 2 0.9 3.1 -0.4 0.2-0.8 0.3-1.1 0.4 -0.3 0.1-0.7 0.2-1 0.2 -0.3 0-0.6 0.1-0.9 0.1 -0.3 0-0.6 0-1 0 -1.2 0-2.2-0.2-3.1-0.6 -0.9-0.4-1.6-0.9-2.2-1.6C1.5 12.8 1 12 0.7 11c-0.3-0.9-0.5-2-0.5-3.1 0-1.1 0.2-2.1 0.5-3.1C1 3.9 1.5 3.1 2.1 2.4c0.6-0.7 1.3-1.2 2.2-1.6 0.9-0.4 1.9-0.6 3-0.6 0.7 0 1.3 0 1.9 0.1 0.6 0.1 1.3 0.3 2 0.6 0 0.6-0.1 1.1-0.3 1.7 -0.2 0.5-0.4 1-0.6 1.4 -0.3-0.1-0.5-0.2-0.8-0.3C9.4 3.7 9.2 3.6 9 3.6c-0.2 0-0.4-0.1-0.6-0.1 -0.2 0-0.4 0-0.7 0 -1.1 0-2 0.4-2.6 1.1C4.4 5.3 4.1 6.5 4.1 8"/>
                </g>
                <g id="Group-14">
                  <g id="Clip-13"/>
                  <defs>
                    <filter id="Adobe_OpacityMaskFilter_1_" filterUnits="userSpaceOnUse" x="0.2" y="0.2" width="11.2" height="15.4">
                      <feColorMatrix type="matrix" values="1"/>
                    </filter>
                  </defs>
                  <mask maskUnits="userSpaceOnUse" x="0.2" y="0.2" width="11.2" height="15.4" id="mask-4">
                    <g class="st5">
                      <path id="path-3" class="st3" d="M4.1 8c0 2.9 1.2 4.4 3.7 4.4 0.4 0 0.9 0 1.3-0.1 0.4-0.1 0.9-0.2 1.4-0.4 0.5 1 0.8 2 0.9 3.1 -0.4 0.2-0.8 0.3-1.1 0.4 -0.3 0.1-0.7 0.2-1 0.2 -0.3 0-0.6 0.1-0.9 0.1 -0.3 0-0.6 0-1 0 -1.2 0-2.2-0.2-3.1-0.6 -0.9-0.4-1.6-0.9-2.2-1.6C1.5 12.8 1 12 0.7 11c-0.3-0.9-0.5-2-0.5-3.1 0-1.1 0.2-2.1 0.5-3.1C1 3.9 1.5 3.1 2.1 2.4c0.6-0.7 1.3-1.2 2.2-1.6 0.9-0.4 1.9-0.6 3-0.6 0.7 0 1.3 0 1.9 0.1 0.6 0.1 1.3 0.3 2 0.6 0 0.6-0.1 1.1-0.3 1.7 -0.2 0.5-0.4 1-0.6 1.4 -0.3-0.1-0.5-0.2-0.8-0.3C9.4 3.7 9.2 3.6 9 3.6c-0.2 0-0.4-0.1-0.6-0.1 -0.2 0-0.4 0-0.7 0 -1.1 0-2 0.4-2.6 1.1C4.4 5.3 4.1 6.5 4.1 8"/>
                    </g>
                  </mask>
                  <path id="Fill-12" sketch:type="MSShapeGroup" class="st6" d="M4.1 8c0 2.9 1.2 4.4 3.7 4.4 0.4 0 0.9 0 1.3-0.1 0.4-0.1 0.9-0.2 1.4-0.4 0.5 1 0.8 2 0.9 3.1 -0.4 0.2-0.8 0.3-1.1 0.4 -0.3 0.1-0.7 0.2-1 0.2 -0.3 0-0.6 0.1-0.9 0.1 -0.3 0-0.6 0-1 0 -1.2 0-2.2-0.2-3.1-0.6 -0.9-0.4-1.6-0.9-2.2-1.6C1.5 12.8 1 12 0.7 11c-0.3-0.9-0.5-2-0.5-3.1 0-1.1 0.2-2.1 0.5-3.1C1 3.9 1.5 3.1 2.1 2.4c0.6-0.7 1.3-1.2 2.2-1.6 0.9-0.4 1.9-0.6 3-0.6 0.7 0 1.3 0 1.9 0.1 0.6 0.1 1.3 0.3 2 0.6 0 0.6-0.1 1.1-0.3 1.7 -0.2 0.5-0.4 1-0.6 1.4 -0.3-0.1-0.5-0.2-0.8-0.3C9.4 3.7 9.2 3.6 9 3.6c-0.2 0-0.4-0.1-0.6-0.1 -0.2 0-0.4 0-0.7 0 -1.1 0-2 0.4-2.6 1.1C4.4 5.3 4.1 6.5 4.1 8"/>
                </g>
              </g>
              <g id="Group-22" transform="translate(44.632517, 4.276169)">
                <g id="Group-18">
                  <g id="Clip-17"/>
                  <defs>
                    <filter id="Adobe_OpacityMaskFilter_2_" filterUnits="userSpaceOnUse" x="0.2" y="0.1" width="9.2" height="11.2">
                      <feColorMatrix type="matrix" values="1"/>
                    </filter>
                  </defs>
                  <mask maskUnits="userSpaceOnUse" x="0.2" y="0.1" width="9.2" height="11.2" id="mask-6">
                    <g class="st7">
                      <path id="path-5" class="st3" d="M0.2 7.6c0-0.7 0.1-1.2 0.4-1.7 0.3-0.4 0.7-0.8 1.1-1.1 0.5-0.3 1-0.4 1.5-0.6 0.6-0.1 1.1-0.2 1.6-0.2h1.3c0-0.2-0.1-0.5-0.2-0.6C5.8 3.4 5.6 3.2 5.5 3.1 5.3 3.1 5 3 4.8 3c-0.2 0-0.5-0.1-0.7-0.1 -0.3 0-0.7 0-1.2 0.1C2.5 3.1 2 3.2 1.5 3.4 1.4 3.1 1.3 2.9 1.2 2.7 1.1 2.5 1.1 2.3 1 2.1c0-0.2-0.1-0.4-0.1-0.6 0-0.2 0-0.5 0-0.7 0.7-0.2 1.3-0.4 2-0.5 0.7-0.1 1.3-0.2 1.8-0.2 0.7 0 1.4 0.1 2 0.3 0.6 0.2 1.1 0.4 1.5 0.8C8.5 1.5 8.8 2 9 2.6c0.2 0.6 0.3 1.2 0.3 2v6.1c-0.5 0.2-1.2 0.3-1.9 0.5 -0.7 0.2-1.5 0.2-2.4 0.2 -0.7 0-1.4-0.1-2-0.2C2.5 11 2 10.8 1.5 10.5c-0.4-0.3-0.8-0.7-1-1.2C0.3 8.9 0.2 8.3 0.2 7.6L0.2 7.6zM5.1 8.8c0.1 0 0.3 0 0.5 0 0.2 0 0.4-0.1 0.5-0.1V6.4H5c-0.5 0-0.9 0.1-1.2 0.3C3.4 6.9 3.2 7.2 3.2 7.5c0 0.3 0.1 0.5 0.2 0.7 0.1 0.2 0.3 0.3 0.5 0.4 0.2 0.1 0.4 0.1 0.6 0.2C4.7 8.8 4.9 8.8 5.1 8.8L5.1 8.8z"/>
                    </g>
                  </mask>
                  <path id="Fill-16" sketch:type="MSShapeGroup" class="st8" d="M0.2 7.6c0-0.7 0.1-1.2 0.4-1.7 0.3-0.4 0.7-0.8 1.1-1.1 0.5-0.3 1-0.4 1.5-0.6 0.6-0.1 1.1-0.2 1.6-0.2h1.3c0-0.2-0.1-0.5-0.2-0.6C5.8 3.4 5.6 3.2 5.5 3.1 5.3 3.1 5 3 4.8 3c-0.2 0-0.5-0.1-0.7-0.1 -0.3 0-0.7 0-1.2 0.1C2.5 3.1 2 3.2 1.5 3.4 1.4 3.1 1.3 2.9 1.2 2.7 1.1 2.5 1.1 2.3 1 2.1c0-0.2-0.1-0.4-0.1-0.6 0-0.2 0-0.5 0-0.7 0.7-0.2 1.3-0.4 2-0.5 0.7-0.1 1.3-0.2 1.8-0.2 0.7 0 1.4 0.1 2 0.3 0.6 0.2 1.1 0.4 1.5 0.8C8.5 1.5 8.8 2 9 2.6c0.2 0.6 0.3 1.2 0.3 2v6.1c-0.5 0.2-1.2 0.3-1.9 0.5 -0.7 0.2-1.5 0.2-2.4 0.2 -0.7 0-1.4-0.1-2-0.2C2.5 11 2 10.8 1.5 10.5c-0.4-0.3-0.8-0.7-1-1.2C0.3 8.9 0.2 8.3 0.2 7.6L0.2 7.6zM5.1 8.8c0.1 0 0.3 0 0.5 0 0.2 0 0.4-0.1 0.5-0.1V6.4H5c-0.5 0-0.9 0.1-1.2 0.3C3.4 6.9 3.2 7.2 3.2 7.5c0 0.3 0.1 0.5 0.2 0.7 0.1 0.2 0.3 0.3 0.5 0.4 0.2 0.1 0.4 0.1 0.6 0.2C4.7 8.8 4.9 8.8 5.1 8.8L5.1 8.8z"/>
                </g>
                <g id="Group-21">
                  <g id="Clip-20"/>
                  <defs>
                    <filter id="Adobe_OpacityMaskFilter_3_" filterUnits="userSpaceOnUse" x="0.2" y="0.1" width="9.2" height="11.2">
                      <feColorMatrix type="matrix" values="1"/>
                    </filter>
                  </defs>
                  <mask maskUnits="userSpaceOnUse" x="0.2" y="0.1" width="9.2" height="11.2" id="mask-8">
                    <g class="st9">
                      <path id="path-7" class="st3" d="M0.2 7.6c0-0.7 0.1-1.2 0.4-1.7 0.3-0.4 0.7-0.8 1.1-1.1 0.5-0.3 1-0.4 1.5-0.6 0.6-0.1 1.1-0.2 1.6-0.2h1.3c0-0.2-0.1-0.5-0.2-0.6C5.8 3.4 5.6 3.2 5.5 3.1 5.3 3.1 5 3 4.8 3c-0.2 0-0.5-0.1-0.7-0.1 -0.3 0-0.7 0-1.2 0.1C2.5 3.1 2 3.2 1.5 3.4 1.4 3.1 1.3 2.9 1.2 2.7 1.1 2.5 1.1 2.3 1 2.1c0-0.2-0.1-0.4-0.1-0.6 0-0.2 0-0.5 0-0.7 0.7-0.2 1.3-0.4 2-0.5 0.7-0.1 1.3-0.2 1.8-0.2 0.7 0 1.4 0.1 2 0.3 0.6 0.2 1.1 0.4 1.5 0.8C8.5 1.5 8.8 2 9 2.6c0.2 0.6 0.3 1.2 0.3 2v6.1c-0.5 0.2-1.2 0.3-1.9 0.5 -0.7 0.2-1.5 0.2-2.4 0.2 -0.7 0-1.4-0.1-2-0.2C2.5 11 2 10.8 1.5 10.5c-0.4-0.3-0.8-0.7-1-1.2C0.3 8.9 0.2 8.3 0.2 7.6L0.2 7.6zM5.1 8.8c0.1 0 0.3 0 0.5 0 0.2 0 0.4-0.1 0.5-0.1V6.4H5c-0.5 0-0.9 0.1-1.2 0.3C3.4 6.9 3.2 7.2 3.2 7.5c0 0.3 0.1 0.5 0.2 0.7 0.1 0.2 0.3 0.3 0.5 0.4 0.2 0.1 0.4 0.1 0.6 0.2C4.7 8.8 4.9 8.8 5.1 8.8L5.1 8.8z"/>
                    </g>
                  </mask>
                  <path id="Fill-19" sketch:type="MSShapeGroup" class="st10" d="M0.2 7.6c0-0.7 0.1-1.2 0.4-1.7 0.3-0.4 0.7-0.8 1.1-1.1 0.5-0.3 1-0.4 1.5-0.6 0.6-0.1 1.1-0.2 1.6-0.2h1.3c0-0.2-0.1-0.5-0.2-0.6C5.8 3.4 5.6 3.2 5.5 3.1 5.3 3.1 5 3 4.8 3c-0.2 0-0.5-0.1-0.7-0.1 -0.3 0-0.7 0-1.2 0.1C2.5 3.1 2 3.2 1.5 3.4 1.4 3.1 1.3 2.9 1.2 2.7 1.1 2.5 1.1 2.3 1 2.1c0-0.2-0.1-0.4-0.1-0.6 0-0.2 0-0.5 0-0.7 0.7-0.2 1.3-0.4 2-0.5 0.7-0.1 1.3-0.2 1.8-0.2 0.7 0 1.4 0.1 2 0.3 0.6 0.2 1.1 0.4 1.5 0.8C8.5 1.5 8.8 2 9 2.6c0.2 0.6 0.3 1.2 0.3 2v6.1c-0.5 0.2-1.2 0.3-1.9 0.5 -0.7 0.2-1.5 0.2-2.4 0.2 -0.7 0-1.4-0.1-2-0.2C2.5 11 2 10.8 1.5 10.5c-0.4-0.3-0.8-0.7-1-1.2C0.3 8.9 0.2 8.3 0.2 7.6L0.2 7.6zM5.1 8.8c0.1 0 0.3 0 0.5 0 0.2 0 0.4-0.1 0.5-0.1V6.4H5c-0.5 0-0.9 0.1-1.2 0.3C3.4 6.9 3.2 7.2 3.2 7.5c0 0.3 0.1 0.5 0.2 0.7 0.1 0.2 0.3 0.3 0.5 0.4 0.2 0.1 0.4 0.1 0.6 0.2C4.7 8.8 4.9 8.8 5.1 8.8L5.1 8.8z"/>
                </g>
              </g>
              <g id="Group-29" transform="translate(56.124722, 4.276169)">
                <g id="Group-25">
                  <g id="Clip-24"/>
                  <defs>
                    <filter id="Adobe_OpacityMaskFilter_4_" filterUnits="userSpaceOnUse" x="0.1" y="0.1" width="10.1" height="11.1">
                      <feColorMatrix type="matrix" values="1"/>
                    </filter>
                  </defs>
                  <mask maskUnits="userSpaceOnUse" x="0.1" y="0.1" width="10.1" height="11.1" id="mask-10">
                    <g class="st11">
                      <path id="path-9" class="st3" d="M0.1 0.4c0.7-0.1 1.3-0.2 2-0.2 0.7-0.1 1.4-0.1 2-0.1 1.7 0 2.9 0.3 3.8 0.9 0.8 0.6 1.3 1.5 1.3 2.7 0 0.4 0 0.8-0.1 1.1C8.9 5.2 8.8 5.4 8.6 5.7 8.5 5.9 8.4 6.1 8.2 6.2 8 6.4 7.9 6.5 7.8 6.5l2.4 4.5c-0.3 0.1-0.6 0.1-0.9 0.1 -0.3 0-0.7 0-1 0 -0.4 0-0.8 0-1.1 0 -0.4 0-0.7-0.1-0.9-0.1L4 6.2 4.3 6c0.5-0.3 0.8-0.6 1-0.9 0.2-0.3 0.3-0.6 0.3-1 0-0.4-0.1-0.7-0.3-0.9C5 3 4.6 2.9 4.2 2.9c-0.3 0-0.5 0-0.6 0v8.2c-0.4 0.1-0.7 0.1-1 0.1 -0.3 0-0.5 0-0.8 0 -0.2 0-0.5 0-0.8 0 -0.3 0-0.6-0.1-1-0.1V0.4"/>
                    </g>
                  </mask>
                  <path id="Fill-23" sketch:type="MSShapeGroup" class="st12" d="M0.1 0.4c0.7-0.1 1.3-0.2 2-0.2 0.7-0.1 1.4-0.1 2-0.1 1.7 0 2.9 0.3 3.8 0.9 0.8 0.6 1.3 1.5 1.3 2.7 0 0.4 0 0.8-0.1 1.1C8.9 5.2 8.8 5.4 8.6 5.7 8.5 5.9 8.4 6.1 8.2 6.2 8 6.4 7.9 6.5 7.8 6.5l2.4 4.5c-0.3 0.1-0.6 0.1-0.9 0.1 -0.3 0-0.7 0-1 0 -0.4 0-0.8 0-1.1 0 -0.4 0-0.7-0.1-0.9-0.1L4 6.2 4.3 6c0.5-0.3 0.8-0.6 1-0.9 0.2-0.3 0.3-0.6 0.3-1 0-0.4-0.1-0.7-0.3-0.9C5 3 4.6 2.9 4.2 2.9c-0.3 0-0.5 0-0.6 0v8.2c-0.4 0.1-0.7 0.1-1 0.1 -0.3 0-0.5 0-0.8 0 -0.2 0-0.5 0-0.8 0 -0.3 0-0.6-0.1-1-0.1V0.4"/>
                </g>
                <g id="Group-28">
                  <g id="Clip-27"/>
                  <defs>
                    <filter id="Adobe_OpacityMaskFilter_5_" filterUnits="userSpaceOnUse" x="0.1" y="0.1" width="10.1" height="11.1">
                      <feColorMatrix type="matrix" values="1"/>
                    </filter>
                  </defs>
                  <mask maskUnits="userSpaceOnUse" x="0.1" y="0.1" width="10.1" height="11.1" id="mask-12">
                    <g class="st13">
                      <path id="path-11" class="st3" d="M0.1 0.4c0.7-0.1 1.3-0.2 2-0.2 0.7-0.1 1.4-0.1 2-0.1 1.7 0 2.9 0.3 3.8 0.9 0.8 0.6 1.3 1.5 1.3 2.7 0 0.4 0 0.8-0.1 1.1C8.9 5.2 8.8 5.4 8.6 5.7 8.5 5.9 8.4 6.1 8.2 6.2 8 6.4 7.9 6.5 7.8 6.5l2.4 4.5c-0.3 0.1-0.6 0.1-0.9 0.1 -0.3 0-0.7 0-1 0 -0.4 0-0.8 0-1.1 0 -0.4 0-0.7-0.1-0.9-0.1L4 6.2 4.3 6c0.5-0.3 0.8-0.6 1-0.9 0.2-0.3 0.3-0.6 0.3-1 0-0.4-0.1-0.7-0.3-0.9C5 3 4.6 2.9 4.2 2.9c-0.3 0-0.5 0-0.6 0v8.2c-0.4 0.1-0.7 0.1-1 0.1 -0.3 0-0.5 0-0.8 0 -0.2 0-0.5 0-0.8 0 -0.3 0-0.6-0.1-1-0.1V0.4"/>
                    </g>
                  </mask>
                  <path id="Fill-26" sketch:type="MSShapeGroup" class="st14" d="M0.1 0.4c0.7-0.1 1.3-0.2 2-0.2 0.7-0.1 1.4-0.1 2-0.1 1.7 0 2.9 0.3 3.8 0.9 0.8 0.6 1.3 1.5 1.3 2.7 0 0.4 0 0.8-0.1 1.1C8.9 5.2 8.8 5.4 8.6 5.7 8.5 5.9 8.4 6.1 8.2 6.2 8 6.4 7.9 6.5 7.8 6.5l2.4 4.5c-0.3 0.1-0.6 0.1-0.9 0.1 -0.3 0-0.7 0-1 0 -0.4 0-0.8 0-1.1 0 -0.4 0-0.7-0.1-0.9-0.1L4 6.2 4.3 6c0.5-0.3 0.8-0.6 1-0.9 0.2-0.3 0.3-0.6 0.3-1 0-0.4-0.1-0.7-0.3-0.9C5 3 4.6 2.9 4.2 2.9c-0.3 0-0.5 0-0.6 0v8.2c-0.4 0.1-0.7 0.1-1 0.1 -0.3 0-0.5 0-0.8 0 -0.2 0-0.5 0-0.8 0 -0.3 0-0.6-0.1-1-0.1V0.4"/>
                </g>
              </g>
              <g id="Group-36" transform="translate(66.815145, 4.276169)">
                <g id="Group-32">
                  <g id="Clip-31"/>
                  <defs>
                    <filter id="Adobe_OpacityMaskFilter_6_" filterUnits="userSpaceOnUse" x="0.2" y="0.1" width="9.2" height="11.2">
                      <feColorMatrix type="matrix" values="1"/>
                    </filter>
                  </defs>
                  <mask maskUnits="userSpaceOnUse" x="0.2" y="0.1" width="9.2" height="11.2" id="mask-14">
                    <g class="st15">
                      <path id="path-13" class="st3" d="M0.2 7.6c0-0.7 0.1-1.2 0.4-1.7 0.3-0.4 0.7-0.8 1.1-1.1 0.5-0.3 1-0.4 1.5-0.6 0.6-0.1 1.1-0.2 1.6-0.2h1.3c0-0.2-0.1-0.5-0.2-0.6C5.8 3.4 5.6 3.2 5.5 3.1 5.3 3.1 5 3 4.8 3c-0.2 0-0.5-0.1-0.7-0.1 -0.3 0-0.7 0-1.2 0.1C2.5 3.1 2 3.2 1.5 3.4 1.4 3.1 1.3 2.9 1.2 2.7 1.1 2.5 1.1 2.3 1 2.1c0-0.2-0.1-0.4-0.1-0.6 0-0.2 0-0.5 0-0.7 0.7-0.2 1.3-0.4 2-0.5 0.7-0.1 1.3-0.2 1.8-0.2 0.7 0 1.4 0.1 2 0.3 0.6 0.2 1.1 0.4 1.5 0.8C8.5 1.5 8.8 2 9 2.6c0.2 0.6 0.3 1.2 0.3 2v6.1c-0.5 0.2-1.2 0.3-1.9 0.5 -0.7 0.2-1.5 0.2-2.4 0.2 -0.7 0-1.4-0.1-2-0.2C2.5 11 2 10.8 1.5 10.5c-0.4-0.3-0.8-0.7-1-1.2C0.3 8.9 0.2 8.3 0.2 7.6L0.2 7.6zM5.1 8.8c0.1 0 0.3 0 0.5 0 0.2 0 0.4-0.1 0.5-0.1V6.4H5c-0.5 0-0.9 0.1-1.2 0.3C3.4 6.9 3.2 7.2 3.2 7.5c0 0.3 0.1 0.5 0.2 0.7 0.1 0.2 0.3 0.3 0.5 0.4 0.2 0.1 0.4 0.1 0.6 0.2C4.7 8.8 4.9 8.8 5.1 8.8L5.1 8.8z"/>
                    </g>
                  </mask>
                  <path id="Fill-30" sketch:type="MSShapeGroup" class="st16" d="M0.2 7.6c0-0.7 0.1-1.2 0.4-1.7 0.3-0.4 0.7-0.8 1.1-1.1 0.5-0.3 1-0.4 1.5-0.6 0.6-0.1 1.1-0.2 1.6-0.2h1.3c0-0.2-0.1-0.5-0.2-0.6C5.8 3.4 5.6 3.2 5.5 3.1 5.3 3.1 5 3 4.8 3c-0.2 0-0.5-0.1-0.7-0.1 -0.3 0-0.7 0-1.2 0.1C2.5 3.1 2 3.2 1.5 3.4 1.4 3.1 1.3 2.9 1.2 2.7 1.1 2.5 1.1 2.3 1 2.1c0-0.2-0.1-0.4-0.1-0.6 0-0.2 0-0.5 0-0.7 0.7-0.2 1.3-0.4 2-0.5 0.7-0.1 1.3-0.2 1.8-0.2 0.7 0 1.4 0.1 2 0.3 0.6 0.2 1.1 0.4 1.5 0.8C8.5 1.5 8.8 2 9 2.6c0.2 0.6 0.3 1.2 0.3 2v6.1c-0.5 0.2-1.2 0.3-1.9 0.5 -0.7 0.2-1.5 0.2-2.4 0.2 -0.7 0-1.4-0.1-2-0.2C2.5 11 2 10.8 1.5 10.5c-0.4-0.3-0.8-0.7-1-1.2C0.3 8.9 0.2 8.3 0.2 7.6L0.2 7.6zM5.1 8.8c0.1 0 0.3 0 0.5 0 0.2 0 0.4-0.1 0.5-0.1V6.4H5c-0.5 0-0.9 0.1-1.2 0.3C3.4 6.9 3.2 7.2 3.2 7.5c0 0.3 0.1 0.5 0.2 0.7 0.1 0.2 0.3 0.3 0.5 0.4 0.2 0.1 0.4 0.1 0.6 0.2C4.7 8.8 4.9 8.8 5.1 8.8L5.1 8.8z"/>
                </g>
                <g id="Group-35">
                  <g id="Clip-34"/>
                  <defs>
                    <filter id="Adobe_OpacityMaskFilter_7_" filterUnits="userSpaceOnUse" x="0.2" y="0.1" width="9.2" height="11.2">
                      <feColorMatrix type="matrix" values="1"/>
                    </filter>
                  </defs>
                  <mask maskUnits="userSpaceOnUse" x="0.2" y="0.1" width="9.2" height="11.2" id="mask-16">
                    <g class="st17">
                      <path id="path-15" class="st3" d="M0.2 7.6c0-0.7 0.1-1.2 0.4-1.7 0.3-0.4 0.7-0.8 1.1-1.1 0.5-0.3 1-0.4 1.5-0.6 0.6-0.1 1.1-0.2 1.6-0.2h1.3c0-0.2-0.1-0.5-0.2-0.6C5.8 3.4 5.6 3.2 5.5 3.1 5.3 3.1 5 3 4.8 3c-0.2 0-0.5-0.1-0.7-0.1 -0.3 0-0.7 0-1.2 0.1C2.5 3.1 2 3.2 1.5 3.4 1.4 3.1 1.3 2.9 1.2 2.7 1.1 2.5 1.1 2.3 1 2.1c0-0.2-0.1-0.4-0.1-0.6 0-0.2 0-0.5 0-0.7 0.7-0.2 1.3-0.4 2-0.5 0.7-0.1 1.3-0.2 1.8-0.2 0.7 0 1.4 0.1 2 0.3 0.6 0.2 1.1 0.4 1.5 0.8C8.5 1.5 8.8 2 9 2.6c0.2 0.6 0.3 1.2 0.3 2v6.1c-0.5 0.2-1.2 0.3-1.9 0.5 -0.7 0.2-1.5 0.2-2.4 0.2 -0.7 0-1.4-0.1-2-0.2C2.5 11 2 10.8 1.5 10.5c-0.4-0.3-0.8-0.7-1-1.2C0.3 8.9 0.2 8.3 0.2 7.6L0.2 7.6zM5.1 8.8c0.1 0 0.3 0 0.5 0 0.2 0 0.4-0.1 0.5-0.1V6.4H5c-0.5 0-0.9 0.1-1.2 0.3C3.4 6.9 3.2 7.2 3.2 7.5c0 0.3 0.1 0.5 0.2 0.7 0.1 0.2 0.3 0.3 0.5 0.4 0.2 0.1 0.4 0.1 0.6 0.2C4.7 8.8 4.9 8.8 5.1 8.8L5.1 8.8z"/>
                    </g>
                  </mask>
                  <path id="Fill-33" sketch:type="MSShapeGroup" class="st18" d="M0.2 7.6c0-0.7 0.1-1.2 0.4-1.7 0.3-0.4 0.7-0.8 1.1-1.1 0.5-0.3 1-0.4 1.5-0.6 0.6-0.1 1.1-0.2 1.6-0.2h1.3c0-0.2-0.1-0.5-0.2-0.6C5.8 3.4 5.6 3.2 5.5 3.1 5.3 3.1 5 3 4.8 3c-0.2 0-0.5-0.1-0.7-0.1 -0.3 0-0.7 0-1.2 0.1C2.5 3.1 2 3.2 1.5 3.4 1.4 3.1 1.3 2.9 1.2 2.7 1.1 2.5 1.1 2.3 1 2.1c0-0.2-0.1-0.4-0.1-0.6 0-0.2 0-0.5 0-0.7 0.7-0.2 1.3-0.4 2-0.5 0.7-0.1 1.3-0.2 1.8-0.2 0.7 0 1.4 0.1 2 0.3 0.6 0.2 1.1 0.4 1.5 0.8C8.5 1.5 8.8 2 9 2.6c0.2 0.6 0.3 1.2 0.3 2v6.1c-0.5 0.2-1.2 0.3-1.9 0.5 -0.7 0.2-1.5 0.2-2.4 0.2 -0.7 0-1.4-0.1-2-0.2C2.5 11 2 10.8 1.5 10.5c-0.4-0.3-0.8-0.7-1-1.2C0.3 8.9 0.2 8.3 0.2 7.6L0.2 7.6zM5.1 8.8c0.1 0 0.3 0 0.5 0 0.2 0 0.4-0.1 0.5-0.1V6.4H5c-0.5 0-0.9 0.1-1.2 0.3C3.4 6.9 3.2 7.2 3.2 7.5c0 0.3 0.1 0.5 0.2 0.7 0.1 0.2 0.3 0.3 0.5 0.4 0.2 0.1 0.4 0.1 0.6 0.2C4.7 8.8 4.9 8.8 5.1 8.8L5.1 8.8z"/>
                </g>
              </g>
              <g id="Group-43" transform="translate(76.703786, 4.276169)">
                <g id="Group-39">
                  <g id="Clip-38"/>
                  <defs>
                    <filter id="Adobe_OpacityMaskFilter_8_" filterUnits="userSpaceOnUse" x="0.1" y="0.2" width="11.5" height="11">
                      <feColorMatrix type="matrix" values="1"/>
                    </filter>
                  </defs>
                  <mask maskUnits="userSpaceOnUse" x="0.1" y="0.2" width="11.5" height="11" id="mask-18">
                    <g class="st19">
                      <path id="path-17" class="st3" d="M7.7 0.4c0.1 0 0.3-0.1 0.7-0.1 0.3 0 0.7 0 1.1 0 0.5 0 0.9 0 1.3 0 0.4 0 0.7 0.1 0.8 0.1L7.5 11.1c-0.3 0.1-0.6 0.1-0.9 0.1 -0.3 0-0.6 0-0.9 0 -0.3 0-0.6 0-0.9 0 -0.3 0-0.6-0.1-0.8-0.1l-4-10.7c0.2 0 0.4-0.1 0.8-0.1 0.4 0 0.8 0 1.3 0 0.4 0 0.7 0 1.1 0 0.4 0 0.6 0.1 0.7 0.1l1.9 6.4c0.3-1.1 0.6-2.1 0.9-3.2C7.1 2.5 7.4 1.4 7.7 0.4"/>
                    </g>
                  </mask>
                  <path id="Fill-37" sketch:type="MSShapeGroup" class="st20" d="M7.7 0.4c0.1 0 0.3-0.1 0.7-0.1 0.3 0 0.7 0 1.1 0 0.5 0 0.9 0 1.3 0 0.4 0 0.7 0.1 0.8 0.1L7.5 11.1c-0.3 0.1-0.6 0.1-0.9 0.1 -0.3 0-0.6 0-0.9 0 -0.3 0-0.6 0-0.9 0 -0.3 0-0.6-0.1-0.8-0.1l-4-10.7c0.2 0 0.4-0.1 0.8-0.1 0.4 0 0.8 0 1.3 0 0.4 0 0.7 0 1.1 0 0.4 0 0.6 0.1 0.7 0.1l1.9 6.4c0.3-1.1 0.6-2.1 0.9-3.2C7.1 2.5 7.4 1.4 7.7 0.4"/>
                </g>
                <g id="Group-42">
                  <g id="Clip-41"/>
                  <defs>
                    <filter id="Adobe_OpacityMaskFilter_9_" filterUnits="userSpaceOnUse" x="0.1" y="0.2" width="11.5" height="11">
                      <feColorMatrix type="matrix" values="1"/>
                    </filter>
                  </defs>
                  <mask maskUnits="userSpaceOnUse" x="0.1" y="0.2" width="11.5" height="11" id="mask-20">
                    <g class="st21">
                      <path id="path-19" class="st3" d="M7.7 0.4c0.1 0 0.3-0.1 0.7-0.1 0.3 0 0.7 0 1.1 0 0.5 0 0.9 0 1.3 0 0.4 0 0.7 0.1 0.8 0.1L7.5 11.1c-0.3 0.1-0.6 0.1-0.9 0.1 -0.3 0-0.6 0-0.9 0 -0.3 0-0.6 0-0.9 0 -0.3 0-0.6-0.1-0.8-0.1l-4-10.7c0.2 0 0.4-0.1 0.8-0.1 0.4 0 0.8 0 1.3 0 0.4 0 0.7 0 1.1 0 0.4 0 0.6 0.1 0.7 0.1l1.9 6.4c0.3-1.1 0.6-2.1 0.9-3.2C7.1 2.5 7.4 1.4 7.7 0.4"/>
                    </g>
                  </mask>
                  <path id="Fill-40" sketch:type="MSShapeGroup" class="st22" d="M7.7 0.4c0.1 0 0.3-0.1 0.7-0.1 0.3 0 0.7 0 1.1 0 0.5 0 0.9 0 1.3 0 0.4 0 0.7 0.1 0.8 0.1L7.5 11.1c-0.3 0.1-0.6 0.1-0.9 0.1 -0.3 0-0.6 0-0.9 0 -0.3 0-0.6 0-0.9 0 -0.3 0-0.6-0.1-0.8-0.1l-4-10.7c0.2 0 0.4-0.1 0.8-0.1 0.4 0 0.8 0 1.3 0 0.4 0 0.7 0 1.1 0 0.4 0 0.6 0.1 0.7 0.1l1.9 6.4c0.3-1.1 0.6-2.1 0.9-3.2C7.1 2.5 7.4 1.4 7.7 0.4"/>
                </g>
              </g>
              <g id="Group-50" transform="translate(88.463252, 4.276169)">
                <g id="Group-46">
                  <g id="Clip-45"/>
                  <defs>
                    <filter id="Adobe_OpacityMaskFilter_10_" filterUnits="userSpaceOnUse" x="0.1" y="0.1" width="9.2" height="11.2">
                      <feColorMatrix type="matrix" values="1"/>
                    </filter>
                  </defs>
                  <mask maskUnits="userSpaceOnUse" x="0.1" y="0.1" width="9.2" height="11.2" id="mask-22">
                    <g class="st23">
                      <path id="path-21" class="st3" d="M0.1 7.6c0-0.7 0.1-1.2 0.4-1.7 0.3-0.4 0.7-0.8 1.1-1.1 0.5-0.3 1-0.4 1.5-0.6 0.6-0.1 1.1-0.2 1.6-0.2h1.3c0-0.2-0.1-0.5-0.2-0.6C5.8 3.4 5.6 3.2 5.4 3.1 5.2 3.1 5 3 4.8 3 4.5 2.9 4.3 2.9 4 2.9c-0.3 0-0.7 0-1.2 0.1C2.4 3.1 2 3.2 1.5 3.4 1.4 3.1 1.3 2.9 1.2 2.7 1.1 2.5 1 2.3 1 2.1c0-0.2-0.1-0.4-0.1-0.6 0-0.2 0-0.5 0-0.7 0.7-0.2 1.3-0.4 2-0.5 0.7-0.1 1.3-0.2 1.8-0.2 0.7 0 1.4 0.1 2 0.3C7.1 0.6 7.6 0.8 8 1.2 8.4 1.5 8.8 2 9 2.6c0.2 0.6 0.3 1.2 0.3 2v6.1c-0.5 0.2-1.2 0.3-1.9 0.5 -0.7 0.2-1.5 0.2-2.4 0.2 -0.7 0-1.4-0.1-2-0.2 -0.6-0.1-1.1-0.3-1.5-0.6 -0.4-0.3-0.8-0.7-1-1.2C0.2 8.9 0.1 8.3 0.1 7.6L0.1 7.6zM5 8.8c0.1 0 0.3 0 0.5 0 0.2 0 0.4-0.1 0.5-0.1V6.4H4.9C4.4 6.4 4 6.5 3.7 6.7 3.3 6.9 3.2 7.2 3.2 7.5c0 0.3 0.1 0.5 0.2 0.7 0.1 0.2 0.3 0.3 0.5 0.4C4 8.6 4.2 8.7 4.4 8.7 4.7 8.8 4.9 8.8 5 8.8L5 8.8z"/>
                    </g>
                  </mask>
                  <path id="Fill-44" sketch:type="MSShapeGroup" class="st24" d="M0.1 7.6c0-0.7 0.1-1.2 0.4-1.7 0.3-0.4 0.7-0.8 1.1-1.1 0.5-0.3 1-0.4 1.5-0.6 0.6-0.1 1.1-0.2 1.6-0.2h1.3c0-0.2-0.1-0.5-0.2-0.6C5.8 3.4 5.6 3.2 5.4 3.1 5.2 3.1 5 3 4.8 3 4.5 2.9 4.3 2.9 4 2.9c-0.3 0-0.7 0-1.2 0.1C2.4 3.1 2 3.2 1.5 3.4 1.4 3.1 1.3 2.9 1.2 2.7 1.1 2.5 1 2.3 1 2.1c0-0.2-0.1-0.4-0.1-0.6 0-0.2 0-0.5 0-0.7 0.7-0.2 1.3-0.4 2-0.5 0.7-0.1 1.3-0.2 1.8-0.2 0.7 0 1.4 0.1 2 0.3C7.1 0.6 7.6 0.8 8 1.2 8.4 1.5 8.8 2 9 2.6c0.2 0.6 0.3 1.2 0.3 2v6.1c-0.5 0.2-1.2 0.3-1.9 0.5 -0.7 0.2-1.5 0.2-2.4 0.2 -0.7 0-1.4-0.1-2-0.2 -0.6-0.1-1.1-0.3-1.5-0.6 -0.4-0.3-0.8-0.7-1-1.2C0.2 8.9 0.1 8.3 0.1 7.6L0.1 7.6zM5 8.8c0.1 0 0.3 0 0.5 0 0.2 0 0.4-0.1 0.5-0.1V6.4H4.9C4.4 6.4 4 6.5 3.7 6.7 3.3 6.9 3.2 7.2 3.2 7.5c0 0.3 0.1 0.5 0.2 0.7 0.1 0.2 0.3 0.3 0.5 0.4C4 8.6 4.2 8.7 4.4 8.7 4.7 8.8 4.9 8.8 5 8.8L5 8.8z"/>
                </g>
                <g id="Group-49">
                  <g id="Clip-48"/>
                  <defs>
                    <filter id="Adobe_OpacityMaskFilter_11_" filterUnits="userSpaceOnUse" x="0.1" y="0.1" width="9.2" height="11.2">
                      <feColorMatrix type="matrix" values="1"/>
                    </filter>
                  </defs>
                  <mask maskUnits="userSpaceOnUse" x="0.1" y="0.1" width="9.2" height="11.2" id="mask-24">
                    <g class="st25">
                      <path id="path-23" class="st3" d="M0.1 7.6c0-0.7 0.1-1.2 0.4-1.7 0.3-0.4 0.7-0.8 1.1-1.1 0.5-0.3 1-0.4 1.5-0.6 0.6-0.1 1.1-0.2 1.6-0.2h1.3c0-0.2-0.1-0.5-0.2-0.6C5.8 3.4 5.6 3.2 5.4 3.1 5.2 3.1 5 3 4.8 3 4.5 2.9 4.3 2.9 4 2.9c-0.3 0-0.7 0-1.2 0.1C2.4 3.1 2 3.2 1.5 3.4 1.4 3.1 1.3 2.9 1.2 2.7 1.1 2.5 1 2.3 1 2.1c0-0.2-0.1-0.4-0.1-0.6 0-0.2 0-0.5 0-0.7 0.7-0.2 1.3-0.4 2-0.5 0.7-0.1 1.3-0.2 1.8-0.2 0.7 0 1.4 0.1 2 0.3C7.1 0.6 7.6 0.8 8 1.2 8.4 1.5 8.8 2 9 2.6c0.2 0.6 0.3 1.2 0.3 2v6.1c-0.5 0.2-1.2 0.3-1.9 0.5 -0.7 0.2-1.5 0.2-2.4 0.2 -0.7 0-1.4-0.1-2-0.2 -0.6-0.1-1.1-0.3-1.5-0.6 -0.4-0.3-0.8-0.7-1-1.2C0.2 8.9 0.1 8.3 0.1 7.6L0.1 7.6zM5 8.8c0.1 0 0.3 0 0.5 0 0.2 0 0.4-0.1 0.5-0.1V6.4H4.9C4.4 6.4 4 6.5 3.7 6.7 3.3 6.9 3.2 7.2 3.2 7.5c0 0.3 0.1 0.5 0.2 0.7 0.1 0.2 0.3 0.3 0.5 0.4C4 8.6 4.2 8.7 4.4 8.7 4.7 8.8 4.9 8.8 5 8.8L5 8.8z"/>
                    </g>
                  </mask>
                  <path id="Fill-47" sketch:type="MSShapeGroup" class="st26" d="M0.1 7.6c0-0.7 0.1-1.2 0.4-1.7 0.3-0.4 0.7-0.8 1.1-1.1 0.5-0.3 1-0.4 1.5-0.6 0.6-0.1 1.1-0.2 1.6-0.2h1.3c0-0.2-0.1-0.5-0.2-0.6C5.8 3.4 5.6 3.2 5.4 3.1 5.2 3.1 5 3 4.8 3 4.5 2.9 4.3 2.9 4 2.9c-0.3 0-0.7 0-1.2 0.1C2.4 3.1 2 3.2 1.5 3.4 1.4 3.1 1.3 2.9 1.2 2.7 1.1 2.5 1 2.3 1 2.1c0-0.2-0.1-0.4-0.1-0.6 0-0.2 0-0.5 0-0.7 0.7-0.2 1.3-0.4 2-0.5 0.7-0.1 1.3-0.2 1.8-0.2 0.7 0 1.4 0.1 2 0.3C7.1 0.6 7.6 0.8 8 1.2 8.4 1.5 8.8 2 9 2.6c0.2 0.6 0.3 1.2 0.3 2v6.1c-0.5 0.2-1.2 0.3-1.9 0.5 -0.7 0.2-1.5 0.2-2.4 0.2 -0.7 0-1.4-0.1-2-0.2 -0.6-0.1-1.1-0.3-1.5-0.6 -0.4-0.3-0.8-0.7-1-1.2C0.2 8.9 0.1 8.3 0.1 7.6L0.1 7.6zM5 8.8c0.1 0 0.3 0 0.5 0 0.2 0 0.4-0.1 0.5-0.1V6.4H4.9C4.4 6.4 4 6.5 3.7 6.7 3.3 6.9 3.2 7.2 3.2 7.5c0 0.3 0.1 0.5 0.2 0.7 0.1 0.2 0.3 0.3 0.5 0.4C4 8.6 4.2 8.7 4.4 8.7 4.7 8.8 4.9 8.8 5 8.8L5 8.8z"/>
                </g>
              </g>
              <g id="Group-57" transform="translate(99.955457, 4.276169)">
                <g id="Group-53">
                  <g id="Clip-52"/>
                  <defs>
                    <filter id="Adobe_OpacityMaskFilter_12_" filterUnits="userSpaceOnUse" x="0" y="0.2" width="9.5" height="11.1">
                      <feColorMatrix type="matrix" values="1"/>
                    </filter>
                  </defs>
                  <mask maskUnits="userSpaceOnUse" x="0" y="0.2" width="9.5" height="11.1" id="mask-26">
                    <g class="st27">
                      <path id="path-25" class="st3" d="M4.4 0.2c0.6 0 1.2 0.1 1.8 0.2C6.9 0.4 7.4 0.6 7.9 1c0.5 0.3 0.9 0.8 1.2 1.4C9.4 3 9.6 3.9 9.6 4.9v6.2c-0.4 0.1-0.7 0.1-1 0.1 -0.3 0-0.5 0-0.8 0 -0.2 0-0.5 0-0.8 0 -0.3 0-0.6-0.1-1-0.1V5.3c0-0.7-0.1-1.3-0.4-1.6C5.4 3.4 4.9 3.2 4.4 3.2c-0.2 0-0.3 0-0.5 0 -0.2 0-0.3 0.1-0.3 0.1v7.8c-0.4 0.1-0.7 0.1-1 0.1 -0.3 0-0.5 0-0.8 0 -0.2 0-0.5 0-0.8 0 -0.3 0-0.6-0.1-1-0.1V0.9c0.5-0.2 1.1-0.3 1.8-0.5C2.5 0.2 3.4 0.2 4.4 0.2"/>
                    </g>
                  </mask>
                  <path id="Fill-51" sketch:type="MSShapeGroup" class="st28" d="M4.4 0.2c0.6 0 1.2 0.1 1.8 0.2C6.9 0.4 7.4 0.6 7.9 1c0.5 0.3 0.9 0.8 1.2 1.4C9.4 3 9.6 3.9 9.6 4.9v6.2c-0.4 0.1-0.7 0.1-1 0.1 -0.3 0-0.5 0-0.8 0 -0.2 0-0.5 0-0.8 0 -0.3 0-0.6-0.1-1-0.1V5.3c0-0.7-0.1-1.3-0.4-1.6C5.4 3.4 4.9 3.2 4.4 3.2c-0.2 0-0.3 0-0.5 0 -0.2 0-0.3 0.1-0.3 0.1v7.8c-0.4 0.1-0.7 0.1-1 0.1 -0.3 0-0.5 0-0.8 0 -0.2 0-0.5 0-0.8 0 -0.3 0-0.6-0.1-1-0.1V0.9c0.5-0.2 1.1-0.3 1.8-0.5C2.5 0.2 3.4 0.2 4.4 0.2"/>
                </g>
                <g id="Group-56">
                  <g id="Clip-55"/>
                  <defs>
                    <filter id="Adobe_OpacityMaskFilter_13_" filterUnits="userSpaceOnUse" x="0" y="0.2" width="9.5" height="11.1">
                      <feColorMatrix type="matrix" values="1"/>
                    </filter>
                  </defs>
                  <mask maskUnits="userSpaceOnUse" x="0" y="0.2" width="9.5" height="11.1" id="mask-28">
                    <g class="st29">
                      <path id="path-27" class="st3" d="M4.4 0.2c0.6 0 1.2 0.1 1.8 0.2C6.9 0.4 7.4 0.6 7.9 1c0.5 0.3 0.9 0.8 1.2 1.4C9.4 3 9.6 3.9 9.6 4.9v6.2c-0.4 0.1-0.7 0.1-1 0.1 -0.3 0-0.5 0-0.8 0 -0.2 0-0.5 0-0.8 0 -0.3 0-0.6-0.1-1-0.1V5.3c0-0.7-0.1-1.3-0.4-1.6C5.4 3.4 4.9 3.2 4.4 3.2c-0.2 0-0.3 0-0.5 0 -0.2 0-0.3 0.1-0.3 0.1v7.8c-0.4 0.1-0.7 0.1-1 0.1 -0.3 0-0.5 0-0.8 0 -0.2 0-0.5 0-0.8 0 -0.3 0-0.6-0.1-1-0.1V0.9c0.5-0.2 1.1-0.3 1.8-0.5C2.5 0.2 3.4 0.2 4.4 0.2"/>
                    </g>
                  </mask>
                  <path id="Fill-54" sketch:type="MSShapeGroup" class="st30" d="M4.4 0.2c0.6 0 1.2 0.1 1.8 0.2C6.9 0.4 7.4 0.6 7.9 1c0.5 0.3 0.9 0.8 1.2 1.4C9.4 3 9.6 3.9 9.6 4.9v6.2c-0.4 0.1-0.7 0.1-1 0.1 -0.3 0-0.5 0-0.8 0 -0.2 0-0.5 0-0.8 0 -0.3 0-0.6-0.1-1-0.1V5.3c0-0.7-0.1-1.3-0.4-1.6C5.4 3.4 4.9 3.2 4.4 3.2c-0.2 0-0.3 0-0.5 0 -0.2 0-0.3 0.1-0.3 0.1v7.8c-0.4 0.1-0.7 0.1-1 0.1 -0.3 0-0.5 0-0.8 0 -0.2 0-0.5 0-0.8 0 -0.3 0-0.6-0.1-1-0.1V0.9c0.5-0.2 1.1-0.3 1.8-0.5C2.5 0.2 3.4 0.2 4.4 0.2"/>
                </g>
              </g>
              <g id="Group-64" transform="translate(110.913140, 4.276169)">
                <g id="Group-60">
                  <g id="Clip-59"/>
                  <defs>
                    <filter id="Adobe_OpacityMaskFilter_14_" filterUnits="userSpaceOnUse" x="0.2" y="0.1" width="8.6" height="11.2">
                      <feColorMatrix type="matrix" values="1"/>
                    </filter>
                  </defs>
                  <mask maskUnits="userSpaceOnUse" x="0.2" y="0.1" width="8.6" height="11.2" id="mask-30">
                    <g class="st31">
                      <path id="path-29" class="st3" d="M6 4.4c0.4 0.1 0.8 0.2 1.1 0.4C7.5 4.9 7.8 5.2 8 5.4 8.3 5.7 8.4 6 8.6 6.3c0.1 0.4 0.2 0.8 0.2 1.3 0 0.5-0.1 1-0.3 1.5 -0.2 0.5-0.5 0.9-1 1.2 -0.4 0.3-0.9 0.6-1.6 0.8 -0.6 0.2-1.3 0.3-2.1 0.3 -0.7 0-1.3 0-1.8-0.1 -0.6-0.1-1.2-0.3-1.8-0.5 0.1-0.9 0.3-1.9 0.8-2.9 0.4 0.2 0.9 0.4 1.4 0.5 0.5 0.1 1 0.2 1.5 0.2 0.2 0 0.3 0 0.5 0 0.2 0 0.3 0 0.5-0.1 0.1 0 0.3-0.1 0.3-0.2C5.2 8.1 5.3 8 5.3 7.8c0-0.2-0.1-0.3-0.3-0.4C4.8 7.3 4.6 7.3 4.4 7.2L3 6.8C2.2 6.6 1.6 6.2 1.1 5.7c-0.5-0.5-0.7-1.2-0.7-2 0-0.5 0.1-1 0.3-1.5C1 1.8 1.3 1.4 1.7 1.1c0.4-0.3 0.9-0.6 1.4-0.7 0.5-0.2 1.2-0.2 1.8-0.2 0.5 0 1.1 0.1 1.7 0.2 0.6 0.1 1.2 0.3 1.9 0.5 0 0.4-0.1 0.9-0.3 1.4 -0.2 0.5-0.3 1-0.5 1.3C7.3 3.4 6.9 3.2 6.3 3.1 5.8 3 5.3 2.9 4.9 2.9c-0.7 0-1 0.2-1 0.5 0 0.2 0.1 0.3 0.2 0.4C4.3 3.9 4.5 4 4.7 4L6 4.4"/>
                    </g>
                  </mask>
                  <path id="Fill-58" sketch:type="MSShapeGroup" class="st32" d="M6 4.4c0.4 0.1 0.8 0.2 1.1 0.4C7.5 4.9 7.8 5.2 8 5.4 8.3 5.7 8.4 6 8.6 6.3c0.1 0.4 0.2 0.8 0.2 1.3 0 0.5-0.1 1-0.3 1.5 -0.2 0.5-0.5 0.9-1 1.2 -0.4 0.3-0.9 0.6-1.6 0.8 -0.6 0.2-1.3 0.3-2.1 0.3 -0.7 0-1.3 0-1.8-0.1 -0.6-0.1-1.2-0.3-1.8-0.5 0.1-0.9 0.3-1.9 0.8-2.9 0.4 0.2 0.9 0.4 1.4 0.5 0.5 0.1 1 0.2 1.5 0.2 0.2 0 0.3 0 0.5 0 0.2 0 0.3 0 0.5-0.1 0.1 0 0.3-0.1 0.3-0.2C5.2 8.1 5.3 8 5.3 7.8c0-0.2-0.1-0.3-0.3-0.4C4.8 7.3 4.6 7.3 4.4 7.2L3 6.8C2.2 6.6 1.6 6.2 1.1 5.7c-0.5-0.5-0.7-1.2-0.7-2 0-0.5 0.1-1 0.3-1.5C1 1.8 1.3 1.4 1.7 1.1c0.4-0.3 0.9-0.6 1.4-0.7 0.5-0.2 1.2-0.2 1.8-0.2 0.5 0 1.1 0.1 1.7 0.2 0.6 0.1 1.2 0.3 1.9 0.5 0 0.4-0.1 0.9-0.3 1.4 -0.2 0.5-0.3 1-0.5 1.3C7.3 3.4 6.9 3.2 6.3 3.1 5.8 3 5.3 2.9 4.9 2.9c-0.7 0-1 0.2-1 0.5 0 0.2 0.1 0.3 0.2 0.4C4.3 3.9 4.5 4 4.7 4L6 4.4"/>
                </g>
                <g id="Group-63">
                  <g id="Clip-62"/>
                  <defs>
                    <filter id="Adobe_OpacityMaskFilter_15_" filterUnits="userSpaceOnUse" x="0.2" y="0.1" width="8.6" height="11.2">
                      <feColorMatrix type="matrix" values="1"/>
                    </filter>
                  </defs>
                  <mask maskUnits="userSpaceOnUse" x="0.2" y="0.1" width="8.6" height="11.2" id="mask-32">
                    <g class="st33">
                      <path id="path-31" class="st3" d="M6 4.4c0.4 0.1 0.8 0.2 1.1 0.4C7.5 4.9 7.8 5.2 8 5.4 8.3 5.7 8.4 6 8.6 6.3c0.1 0.4 0.2 0.8 0.2 1.3 0 0.5-0.1 1-0.3 1.5 -0.2 0.5-0.5 0.9-1 1.2 -0.4 0.3-0.9 0.6-1.6 0.8 -0.6 0.2-1.3 0.3-2.1 0.3 -0.7 0-1.3 0-1.8-0.1 -0.6-0.1-1.2-0.3-1.8-0.5 0.1-0.9 0.3-1.9 0.8-2.9 0.4 0.2 0.9 0.4 1.4 0.5 0.5 0.1 1 0.2 1.5 0.2 0.2 0 0.3 0 0.5 0 0.2 0 0.3 0 0.5-0.1 0.1 0 0.3-0.1 0.3-0.2C5.2 8.1 5.3 8 5.3 7.8c0-0.2-0.1-0.3-0.3-0.4C4.8 7.3 4.6 7.3 4.4 7.2L3 6.8C2.2 6.6 1.6 6.2 1.1 5.7c-0.5-0.5-0.7-1.2-0.7-2 0-0.5 0.1-1 0.3-1.5C1 1.8 1.3 1.4 1.7 1.1c0.4-0.3 0.9-0.6 1.4-0.7 0.5-0.2 1.2-0.2 1.8-0.2 0.5 0 1.1 0.1 1.7 0.2 0.6 0.1 1.2 0.3 1.9 0.5 0 0.4-0.1 0.9-0.3 1.4 -0.2 0.5-0.3 1-0.5 1.3C7.3 3.4 6.9 3.2 6.3 3.1 5.8 3 5.3 2.9 4.9 2.9c-0.7 0-1 0.2-1 0.5 0 0.2 0.1 0.3 0.2 0.4C4.3 3.9 4.5 4 4.7 4L6 4.4"/>
                    </g>
                  </mask>
                  <path id="Fill-61" sketch:type="MSShapeGroup" class="st34" d="M6 4.4c0.4 0.1 0.8 0.2 1.1 0.4C7.5 4.9 7.8 5.2 8 5.4 8.3 5.7 8.4 6 8.6 6.3c0.1 0.4 0.2 0.8 0.2 1.3 0 0.5-0.1 1-0.3 1.5 -0.2 0.5-0.5 0.9-1 1.2 -0.4 0.3-0.9 0.6-1.6 0.8 -0.6 0.2-1.3 0.3-2.1 0.3 -0.7 0-1.3 0-1.8-0.1 -0.6-0.1-1.2-0.3-1.8-0.5 0.1-0.9 0.3-1.9 0.8-2.9 0.4 0.2 0.9 0.4 1.4 0.5 0.5 0.1 1 0.2 1.5 0.2 0.2 0 0.3 0 0.5 0 0.2 0 0.3 0 0.5-0.1 0.1 0 0.3-0.1 0.3-0.2C5.2 8.1 5.3 8 5.3 7.8c0-0.2-0.1-0.3-0.3-0.4C4.8 7.3 4.6 7.3 4.4 7.2L3 6.8C2.2 6.6 1.6 6.2 1.1 5.7c-0.5-0.5-0.7-1.2-0.7-2 0-0.5 0.1-1 0.3-1.5C1 1.8 1.3 1.4 1.7 1.1c0.4-0.3 0.9-0.6 1.4-0.7 0.5-0.2 1.2-0.2 1.8-0.2 0.5 0 1.1 0.1 1.7 0.2 0.6 0.1 1.2 0.3 1.9 0.5 0 0.4-0.1 0.9-0.3 1.4 -0.2 0.5-0.3 1-0.5 1.3C7.3 3.4 6.9 3.2 6.3 3.1 5.8 3 5.3 2.9 4.9 2.9c-0.7 0-1 0.2-1 0.5 0 0.2 0.1 0.3 0.2 0.4C4.3 3.9 4.5 4 4.7 4L6 4.4"/>
                </g>
              </g>
              <path id="Fill-65" sketch:type="MSShapeGroup" class="st0" d="M29.1 8.4c0-2.8 0.6-6 1.7-7.8H15.2C8.4 0.5 1.9 5 1.9 11.8v3.7c0 4.3 2.8 8 6.4 10.2H1.1c-0.6 0-1 0.6-1 1.2s0.5 1.2 1 1.2h19.5c0.4 2.4 2.9 5.4 6.1 5.4 3.1 0 5.7-3 6.1-5.4h14.7c0.3 0 0.5 0 0.8-0.1C37.5 27.4 29.1 18.8 29.1 8.4M12.4 12.6c-1.7 0-3.3-1.3-3.3-3V9.2c0-1.7 1.6-3.3 3.3-3.3h10.3c1.7 0 2.9 1.6 2.9 3.3v0.4c0 1.7-1.2 3-2.9 3H12.4M26.6 29.6c-1.3 0-2.4-1.1-2.4-2.4 0-1.3 1.1-2.4 2.4-2.4 1.3 0 2.4 1.1 2.4 2.4C29 28.5 27.9 29.6 26.6 29.6"/>
              <path id="Fill-66" sketch:type="MSShapeGroup" class="st1" d="M55.4 25v2.8c-0.3 0.1-0.5 0.1-0.8 0.1 -0.3 0-0.5 0-0.8 0 -0.2 0-0.5 0-0.8 0 -0.3 0-0.5-0.1-0.8-0.1v-9.6h7.1c0.1 0.2 0.1 0.5 0.1 0.7 0 0.2 0 0.4 0 0.6 0 0.2 0 0.4 0 0.6 0 0.2-0.1 0.4-0.1 0.7h-4v1.5h3.2c0.1 0.2 0.1 0.5 0.1 0.7 0 0.2 0 0.4 0 0.6s0 0.4 0 0.6c0 0.2-0.1 0.4-0.1 0.7H55.4"/>
              <path id="Fill-67" sketch:type="MSShapeGroup" class="st1" d="M60.3 23.2c0-0.8 0.1-1.4 0.3-2.1 0.2-0.6 0.5-1.2 0.9-1.6 0.4-0.4 0.9-0.8 1.5-1 0.6-0.2 1.3-0.4 2.1-0.4 0.8 0 1.5 0.1 2.1 0.4 0.6 0.2 1.1 0.6 1.5 1 0.4 0.4 0.7 1 0.9 1.6 0.2 0.6 0.3 1.3 0.3 2.1 0 0.7-0.1 1.4-0.3 2 -0.2 0.6-0.5 1.1-0.9 1.6 -0.4 0.4-0.9 0.8-1.5 1 -0.6 0.2-1.3 0.4-2.1 0.4 -0.8 0-1.5-0.1-2.1-0.4 -0.6-0.2-1.1-0.6-1.5-1 -0.4-0.4-0.7-1-0.9-1.6C60.4 24.6 60.3 23.9 60.3 23.2L60.3 23.2zM66.7 23.2c0-0.8-0.1-1.4-0.4-1.8 -0.3-0.4-0.7-0.6-1.2-0.6 -0.5 0-0.9 0.2-1.2 0.6 -0.3 0.4-0.4 1-0.4 1.8 0 0.8 0.1 1.4 0.4 1.8 0.3 0.4 0.7 0.6 1.2 0.6 0.5 0 1-0.2 1.2-0.6C66.6 24.5 66.7 23.9 66.7 23.2L66.7 23.2z"/>
              <path id="Fill-68" sketch:type="MSShapeGroup" class="st1" d="M71.5 18.3c0.6-0.1 1.2-0.1 1.8-0.2 0.6 0 1.2-0.1 1.8-0.1 1.5 0 2.6 0.3 3.4 0.8 0.7 0.6 1.1 1.4 1.1 2.4 0 0.4 0 0.7-0.1 1 -0.1 0.3-0.2 0.5-0.3 0.7 -0.1 0.2-0.3 0.4-0.4 0.5 -0.1 0.1-0.2 0.2-0.3 0.3l2.1 4.1c-0.2 0-0.5 0.1-0.8 0.1 -0.3 0-0.6 0-0.9 0 -0.3 0-0.7 0-1 0 -0.3 0-0.6-0.1-0.8-0.1L75 23.5l0.3-0.1c0.4-0.2 0.7-0.5 0.9-0.8 0.2-0.3 0.2-0.6 0.2-0.9 0-0.3-0.1-0.6-0.3-0.8 -0.2-0.2-0.5-0.3-0.9-0.3 -0.2 0-0.4 0-0.5 0v7.3C74.3 28 74 28 73.8 28c-0.3 0-0.5 0-0.7 0 -0.2 0-0.4 0-0.7 0 -0.2 0-0.5-0.1-0.9-0.1V18.3"/>
              <path id="Fill-69" sketch:type="MSShapeGroup" class="st0" d="M89.5 21.9c0.4 0.1 0.7 0.2 1 0.4 0.3 0.1 0.6 0.3 0.8 0.5 0.2 0.2 0.4 0.5 0.5 0.8 0.1 0.3 0.2 0.7 0.2 1.2 0 0.5-0.1 0.9-0.3 1.3 -0.2 0.4-0.5 0.8-0.9 1.1 -0.4 0.3-0.8 0.5-1.4 0.7 -0.6 0.2-1.2 0.3-1.9 0.3 -0.6 0-1.1 0-1.7-0.1 -0.5-0.1-1-0.2-1.6-0.4 0.1-0.8 0.3-1.7 0.7-2.6 0.4 0.2 0.8 0.3 1.2 0.4 0.4 0.1 0.9 0.1 1.3 0.1 0.1 0 0.3 0 0.5 0 0.2 0 0.3 0 0.4-0.1 0.1 0 0.2-0.1 0.3-0.2 0.1-0.1 0.1-0.2 0.1-0.3 0-0.2-0.1-0.3-0.2-0.4 -0.2-0.1-0.3-0.2-0.6-0.2L86.8 24c-0.7-0.2-1.2-0.5-1.6-0.9 -0.4-0.4-0.7-1.1-0.7-1.8 0-0.5 0.1-0.9 0.3-1.3 0.2-0.4 0.5-0.7 0.8-1 0.4-0.3 0.8-0.5 1.3-0.6 0.5-0.1 1-0.2 1.6-0.2 0.5 0 1 0 1.5 0.1 0.6 0.1 1.1 0.2 1.7 0.4 0 0.4-0.1 0.8-0.2 1.3 -0.1 0.5-0.3 0.9-0.5 1.2 -0.3-0.1-0.7-0.3-1.2-0.4 -0.5-0.1-0.9-0.2-1.3-0.2 -0.6 0-0.9 0.2-0.9 0.5 0 0.1 0.1 0.2 0.2 0.3 0.1 0.1 0.3 0.1 0.5 0.2L89.5 21.9"/>
              <path id="Fill-70" sketch:type="MSShapeGroup" class="st0" d="M93.1 24.8c0-0.6 0.1-1.1 0.4-1.5 0.3-0.4 0.6-0.7 1-0.9 0.4-0.2 0.9-0.4 1.4-0.5 0.5-0.1 1-0.1 1.4-0.1h1.1c0-0.2-0.1-0.4-0.2-0.6 -0.1-0.1-0.3-0.3-0.4-0.3 -0.2-0.1-0.4-0.1-0.6-0.2 -0.2 0-0.4 0-0.7 0 -0.3 0-0.6 0-1 0.1 -0.4 0.1-0.8 0.2-1.2 0.3 -0.1-0.2-0.2-0.4-0.3-0.6 -0.1-0.2-0.1-0.3-0.2-0.5 0-0.2-0.1-0.4-0.1-0.6 0-0.2 0-0.4 0-0.7 0.6-0.2 1.2-0.3 1.8-0.4 0.6-0.1 1.1-0.1 1.6-0.1 0.6 0 1.2 0.1 1.7 0.2 0.5 0.2 1 0.4 1.3 0.7 0.4 0.3 0.6 0.7 0.8 1.2 0.2 0.5 0.3 1.1 0.3 1.8v5.4c-0.5 0.1-1 0.3-1.7 0.4 -0.7 0.1-1.4 0.2-2.1 0.2 -0.6 0-1.2-0.1-1.8-0.2 -0.5-0.1-1-0.3-1.4-0.6 -0.4-0.3-0.7-0.6-0.9-1C93.3 25.9 93.1 25.4 93.1 24.8L93.1 24.8zM97.5 25.8c0.1 0 0.3 0 0.5 0 0.2 0 0.4 0 0.5-0.1v-2h-1.1c-0.4 0-0.8 0.1-1.1 0.3 -0.3 0.2-0.4 0.4-0.4 0.8 0 0.2 0.1 0.4 0.2 0.6 0.1 0.1 0.3 0.3 0.4 0.3 0.2 0.1 0.3 0.1 0.5 0.1C97.2 25.8 97.4 25.8 97.5 25.8L97.5 25.8z"/>
              <path id="Fill-71" sketch:type="MSShapeGroup" class="st0" d="M106.5 25.3h3.5c0.1 0.2 0.1 0.5 0.1 0.7 0 0.2 0 0.4 0 0.6 0 0.2 0 0.4 0 0.6 0 0.2-0.1 0.4-0.1 0.7h-6.7l0-9.6c0.3-0.1 0.5-0.1 0.8-0.1 0.3 0 0.5 0 0.8 0 0.2 0 0.5 0 0.8 0 0.3 0 0.5 0.1 0.8 0.1L106.5 25.3"/>
              <path id="Fill-72" sketch:type="MSShapeGroup" class="st0" d="M114 24.1c0.1 0.5 0.4 0.9 0.7 1.1 0.3 0.2 0.8 0.3 1.3 0.3 0.4 0 0.8 0 1.2-0.1 0.4-0.1 0.9-0.2 1.3-0.4 0.2 0.3 0.3 0.7 0.5 1.2 0.1 0.4 0.2 0.9 0.2 1.4 -1.1 0.4-2.2 0.6-3.4 0.6 -0.9 0-1.7-0.1-2.3-0.4 -0.6-0.2-1.2-0.6-1.6-1 -0.4-0.4-0.7-1-0.9-1.6 -0.2-0.6-0.3-1.3-0.3-2 0-0.7 0.1-1.4 0.3-2 0.2-0.6 0.5-1.2 0.9-1.6 0.4-0.5 0.9-0.8 1.5-1.1 0.6-0.3 1.3-0.4 2.1-0.4 0.7 0 1.2 0.1 1.8 0.3 0.5 0.2 1 0.5 1.3 0.9 0.4 0.4 0.6 0.9 0.8 1.4 0.2 0.6 0.3 1.2 0.3 1.8 0 0.3 0 0.6 0 0.9 0 0.3-0.1 0.5-0.1 0.7H114L114 24.1zM115.5 20.4c-0.4 0-0.7 0.1-1 0.4 -0.3 0.2-0.5 0.6-0.5 1.2h3c0-0.4-0.2-0.8-0.4-1.1C116.3 20.6 115.9 20.4 115.5 20.4L115.5 20.4z"/>
              <path id="Fill-73" sketch:type="MSShapeGroup" class="st35" d="M36.5 8c0 2.9 1.2 4.4 3.7 4.4 0.4 0 0.9 0 1.3-0.1 0.4-0.1 0.9-0.2 1.4-0.4 0.5 1 0.8 2 0.9 3.1 -0.4 0.2-0.8 0.3-1.1 0.4 -0.3 0.1-0.7 0.2-1 0.2 -0.3 0-0.6 0.1-0.9 0.1 -0.3 0-0.6 0-1 0 -1.2 0-2.2-0.2-3.1-0.6 -0.9-0.4-1.6-0.9-2.2-1.6C33.8 12.8 33.3 12 33 11c-0.3-0.9-0.5-2-0.5-3.1 0-1.1 0.2-2.1 0.5-3.1 0.3-0.9 0.8-1.8 1.4-2.5 0.6-0.7 1.3-1.2 2.2-1.6 0.9-0.4 1.9-0.6 3-0.6 0.7 0 1.3 0 1.9 0.1 0.6 0.1 1.3 0.3 2 0.6 0 0.6-0.1 1.1-0.3 1.7 -0.2 0.5-0.4 1-0.6 1.4 -0.3-0.1-0.5-0.2-0.8-0.3 -0.2-0.1-0.4-0.1-0.7-0.2 -0.2 0-0.4-0.1-0.6-0.1 -0.2 0-0.4 0-0.7 0 -1.1 0-2 0.4-2.6 1.1C36.8 5.3 36.5 6.5 36.5 8"/>
              <path id="Fill-74" sketch:type="MSShapeGroup" class="st35" d="M44.8 11.9c0-0.7 0.1-1.2 0.4-1.7 0.3-0.4 0.7-0.8 1.1-1.1 0.5-0.3 1-0.4 1.5-0.6 0.6-0.1 1.1-0.2 1.6-0.2h1.3c0-0.2-0.1-0.5-0.2-0.6 -0.1-0.2-0.3-0.3-0.5-0.4 -0.2-0.1-0.4-0.2-0.6-0.2 -0.2 0-0.5-0.1-0.7-0.1 -0.3 0-0.7 0-1.2 0.1 -0.4 0.1-0.9 0.2-1.4 0.4 -0.1-0.2-0.2-0.5-0.3-0.6 -0.1-0.2-0.2-0.4-0.2-0.6 0-0.2-0.1-0.4-0.1-0.6 0-0.2 0-0.5 0-0.7 0.7-0.2 1.3-0.4 2-0.5 0.7-0.1 1.3-0.2 1.8-0.2 0.7 0 1.4 0.1 2 0.3 0.6 0.2 1.1 0.4 1.5 0.8 0.4 0.4 0.7 0.8 0.9 1.4s0.3 1.2 0.3 2v6.1c-0.5 0.2-1.2 0.3-1.9 0.5 -0.7 0.2-1.5 0.2-2.4 0.2 -0.7 0-1.4-0.1-2-0.2 -0.6-0.1-1.1-0.3-1.5-0.6 -0.4-0.3-0.8-0.7-1-1.2C44.9 13.2 44.8 12.6 44.8 11.9L44.8 11.9zM49.7 13c0.1 0 0.3 0 0.5 0 0.2 0 0.4-0.1 0.5-0.1v-2.3h-1.2c-0.5 0-0.9 0.1-1.2 0.3 -0.3 0.2-0.5 0.5-0.5 0.9 0 0.3 0.1 0.5 0.2 0.7 0.1 0.2 0.3 0.3 0.5 0.4 0.2 0.1 0.4 0.1 0.6 0.2C49.3 13 49.5 13 49.7 13L49.7 13z"/>
              <path id="Fill-75" sketch:type="MSShapeGroup" class="st35" d="M56.2 4.7c0.7-0.1 1.3-0.2 2-0.2 0.7-0.1 1.4-0.1 2-0.1 1.7 0 2.9 0.3 3.8 0.9C64.8 6 65.3 6.9 65.3 8c0 0.4 0 0.8-0.1 1.1 -0.1 0.3-0.2 0.6-0.4 0.8 -0.1 0.2-0.3 0.4-0.4 0.6 -0.2 0.1-0.3 0.3-0.4 0.3l2.4 4.5c-0.3 0.1-0.6 0.1-0.9 0.1 -0.3 0-0.7 0-1 0 -0.4 0-0.8 0-1.1 0 -0.4 0-0.7-0.1-0.9-0.1l-2.3-4.9 0.3-0.2c0.5-0.3 0.8-0.6 1-0.9 0.2-0.3 0.3-0.6 0.3-1 0-0.4-0.1-0.7-0.3-0.9 -0.2-0.2-0.6-0.3-1-0.3 -0.3 0-0.5 0-0.6 0v8.2c-0.4 0.1-0.7 0.1-1 0.1 -0.3 0-0.5 0-0.8 0 -0.2 0-0.5 0-0.8 0 -0.3 0-0.6-0.1-1-0.1V4.7"/>
              <path id="Fill-76" sketch:type="MSShapeGroup" class="st35" d="M67 11.9c0-0.7 0.1-1.2 0.4-1.7 0.3-0.4 0.7-0.8 1.1-1.1 0.5-0.3 1-0.4 1.5-0.6 0.6-0.1 1.1-0.2 1.6-0.2H73c0-0.2-0.1-0.5-0.2-0.6 -0.1-0.2-0.3-0.3-0.5-0.4 -0.2-0.1-0.4-0.2-0.6-0.2 -0.2 0-0.5-0.1-0.7-0.1 -0.3 0-0.7 0-1.2 0.1 -0.4 0.1-0.9 0.2-1.4 0.4C68.2 7.4 68.1 7.2 68 7c-0.1-0.2-0.2-0.4-0.2-0.6 0-0.2-0.1-0.4-0.1-0.6 0-0.2 0-0.5 0-0.7 0.7-0.2 1.3-0.4 2-0.5 0.7-0.1 1.3-0.2 1.8-0.2 0.7 0 1.4 0.1 2 0.3 0.6 0.2 1.1 0.4 1.5 0.8 0.4 0.4 0.7 0.8 0.9 1.4 0.2 0.6 0.3 1.2 0.3 2v6.1c-0.5 0.2-1.2 0.3-1.9 0.5 -0.7 0.2-1.5 0.2-2.4 0.2 -0.7 0-1.4-0.1-2-0.2 -0.6-0.1-1.1-0.3-1.5-0.6 -0.4-0.3-0.8-0.7-1-1.2C67.1 13.2 67 12.6 67 11.9L67 11.9zM71.9 13c0.1 0 0.3 0 0.5 0 0.2 0 0.4-0.1 0.5-0.1v-2.3h-1.2c-0.5 0-0.9 0.1-1.2 0.3 -0.3 0.2-0.5 0.5-0.5 0.9 0 0.3 0.1 0.5 0.2 0.7 0.1 0.2 0.3 0.3 0.5 0.4 0.2 0.1 0.4 0.1 0.6 0.2C71.5 13 71.7 13 71.9 13L71.9 13z"/>
              <path id="Fill-77" sketch:type="MSShapeGroup" class="st35" d="M84.4 4.6c0.1 0 0.3-0.1 0.7-0.1 0.3 0 0.7 0 1.1 0 0.5 0 0.9 0 1.3 0 0.4 0 0.7 0.1 0.8 0.1l-4.1 10.7c-0.3 0.1-0.6 0.1-0.9 0.1 -0.3 0-0.6 0-0.9 0 -0.3 0-0.6 0-0.9 0 -0.3 0-0.6-0.1-0.8-0.1l-4-10.7c0.2 0 0.4-0.1 0.8-0.1 0.4 0 0.8 0 1.3 0 0.4 0 0.7 0 1.1 0 0.4 0 0.6 0.1 0.7 0.1l1.9 6.4c0.3-1.1 0.6-2.1 0.9-3.2C83.8 6.8 84.1 5.7 84.4 4.6"/>
              <path id="Fill-78" sketch:type="MSShapeGroup" class="st35" d="M88.6 11.9c0-0.7 0.1-1.2 0.4-1.7 0.3-0.4 0.7-0.8 1.1-1.1 0.5-0.3 1-0.4 1.5-0.6 0.6-0.1 1.1-0.2 1.6-0.2h1.3c0-0.2-0.1-0.5-0.2-0.6 -0.1-0.2-0.3-0.3-0.5-0.4 -0.2-0.1-0.4-0.2-0.6-0.2 -0.2 0-0.5-0.1-0.7-0.1 -0.3 0-0.7 0-1.2 0.1 -0.4 0.1-0.9 0.2-1.4 0.4 -0.1-0.2-0.2-0.5-0.3-0.6 -0.1-0.2-0.2-0.4-0.2-0.6 0-0.2-0.1-0.4-0.1-0.6 0-0.2 0-0.5 0-0.7 0.7-0.2 1.3-0.4 2-0.5 0.7-0.1 1.3-0.2 1.8-0.2 0.7 0 1.4 0.1 2 0.3 0.6 0.2 1.1 0.4 1.5 0.8 0.4 0.4 0.7 0.8 0.9 1.4 0.2 0.6 0.3 1.2 0.3 2v6.1c-0.5 0.2-1.2 0.3-1.9 0.5 -0.7 0.2-1.5 0.2-2.4 0.2 -0.7 0-1.4-0.1-2-0.2 -0.6-0.1-1.1-0.3-1.5-0.6 -0.4-0.3-0.8-0.7-1-1.2C88.7 13.2 88.6 12.6 88.6 11.9L88.6 11.9zM93.5 13c0.1 0 0.3 0 0.5 0 0.2 0 0.4-0.1 0.5-0.1v-2.3h-1.2c-0.5 0-0.9 0.1-1.2 0.3 -0.3 0.2-0.5 0.5-0.5 0.9 0 0.3 0.1 0.5 0.2 0.7 0.1 0.2 0.3 0.3 0.5 0.4 0.2 0.1 0.4 0.1 0.6 0.2C93.1 13 93.3 13 93.5 13L93.5 13z"/>
              <path id="Fill-79" sketch:type="MSShapeGroup" class="st35" d="M104.4 4.4c0.6 0 1.2 0.1 1.8 0.2 0.6 0.1 1.2 0.3 1.7 0.7 0.5 0.3 0.9 0.8 1.2 1.4 0.3 0.6 0.5 1.4 0.5 2.5v6.2c-0.4 0.1-0.7 0.1-1 0.1 -0.3 0-0.5 0-0.8 0 -0.2 0-0.5 0-0.8 0 -0.3 0-0.6-0.1-1-0.1V9.5c0-0.7-0.1-1.3-0.4-1.6 -0.3-0.3-0.7-0.5-1.3-0.5 -0.2 0-0.3 0-0.5 0 -0.2 0-0.3 0.1-0.3 0.1v7.8c-0.4 0.1-0.7 0.1-1 0.1 -0.3 0-0.5 0-0.8 0 -0.2 0-0.5 0-0.8 0 -0.3 0-0.6-0.1-1-0.1V5.2c0.5-0.2 1.1-0.3 1.8-0.5C102.5 4.5 103.3 4.4 104.4 4.4"/>
              <path id="Fill-80" sketch:type="MSShapeGroup" class="st35" d="M116.9 8.7c0.4 0.1 0.8 0.2 1.1 0.4 0.3 0.2 0.6 0.4 0.9 0.6 0.2 0.2 0.4 0.6 0.6 0.9 0.1 0.4 0.2 0.8 0.2 1.3 0 0.5-0.1 1-0.3 1.5 -0.2 0.5-0.5 0.9-1 1.2 -0.4 0.3-0.9 0.6-1.6 0.8 -0.6 0.2-1.3 0.3-2.1 0.3 -0.7 0-1.3 0-1.8-0.1 -0.6-0.1-1.2-0.3-1.8-0.5 0.1-0.9 0.3-1.9 0.8-2.9 0.4 0.2 0.9 0.4 1.4 0.5 0.5 0.1 1 0.2 1.5 0.2 0.2 0 0.3 0 0.5 0 0.2 0 0.3 0 0.5-0.1 0.1 0 0.3-0.1 0.3-0.2 0.1-0.1 0.1-0.2 0.1-0.3 0-0.2-0.1-0.3-0.3-0.4 -0.2-0.1-0.4-0.2-0.6-0.2l-1.4-0.4c-0.7-0.2-1.3-0.6-1.8-1.1 -0.5-0.5-0.7-1.2-0.7-2 0-0.5 0.1-1 0.3-1.5 0.2-0.4 0.5-0.8 0.9-1.1 0.4-0.3 0.9-0.6 1.4-0.7 0.5-0.2 1.2-0.2 1.8-0.2 0.5 0 1.1 0.1 1.7 0.2 0.6 0.1 1.2 0.3 1.9 0.5 0 0.4-0.1 0.9-0.3 1.4 -0.2 0.5-0.3 1-0.5 1.3 -0.4-0.2-0.8-0.3-1.4-0.4 -0.5-0.1-1-0.2-1.5-0.2 -0.7 0-1 0.2-1 0.5 0 0.2 0.1 0.3 0.2 0.4 0.2 0.1 0.3 0.2 0.5 0.2L116.9 8.7"/>
              <path id="Fill-81" sketch:type="MSShapeGroup" class="st3" d="M12.4 5.9c-0.3 0-0.6 0-0.9 0.1 0 0 0 0.1 0 0.1 0.1 0 0.2 0 0.3-0.1 0 0 0.1 0 0.1 0C12 6 12.1 6 12.1 6 12.2 6 12.3 5.9 12.4 5.9"/>
              <path id="Fill-82" sketch:type="MSShapeGroup" class="st36" d="M30.8 0.5H15.2c-1.5 0-3.1 0.3-4.5 0.7C10.7 2.9 11 4.5 11.5 6c0.3-0.1 0.6-0.1 0.9-0.1h10.3c1.7 0 2.9 1.6 2.9 3.3v0.4c0 1.7-1.2 3-2.9 3H15c4.7 6.4 13.1 11.8 23.8 15.5h8.5c0.3 0 0.5 0 0.8-0.1 -10.6-0.6-19-9.2-19-19.6C29.1 5.6 29.7 2.4 30.8 0.5"/>
            </g>
            <path id="Shape-Copy" sketch:type="MSShapeGroup" class="st37" d="M115.7 5.2L108.4 1c-0.2-0.1-0.3-0.1-0.5 0 -0.2 0.1-0.3 0.2-0.3 0.4l0 1.9c0 0 0 0 0 0 -0.2 0-0.4 0.1-0.6 0.2 -0.8 0.2-1.5 0.5-2.4 0.9 -0.8 0.3-1.6 0.8-2.3 1.3 -0.5 0.4-1 0.8-1.5 1.3 -1.2 1.3-1.9 3-1.8 4.7 0 0.3 0 0.6 0.1 0.8 0 0.2 0.2 0.4 0.5 0.4 0 0 0 0 0 0 0.2 0 0.5-0.2 0.5-0.4 0.1-0.7 0.4-1.4 0.7-1.9 0.4-0.6 0.9-1.2 1.5-1.6 0.5-0.3 1.1-0.6 1.7-0.8 0.7-0.2 1.5-0.4 2.4-0.4 0.4 0 0.8 0 1.2 0 0 0 0 0 0.1 0l0 1.8c0 0.2 0.1 0.3 0.2 0.4 0.2 0.1 0.3 0.1 0.5 0l7.3-4.1c0.2-0.1 0.3-0.2 0.3-0.4C115.9 5.4 115.8 5.3 115.7 5.2L115.7 5.2z"/>
          </g>
        </g>
      </g>
    </g>
  </g>
</svg>
