<?xml version="1.0" encoding="utf-8"?>
<!-- Generator: Adobe Illustrator 18.0.0, SVG Export Plug-In . SVG Version: 6.00 Build 0)  -->
<!DOCTYPE svg PUBLIC "-//W3C//DTD SVG 1.1//EN" "http://www.w3.org/Graphics/SVG/1.1/DTD/svg11.dtd">
<svg version="1.1" id="Layer_1" xmlns:sketch="http://www.bohemiancoding.com/sketch/ns"
	 xmlns="http://www.w3.org/2000/svg" xmlns:xlink="http://www.w3.org/1999/xlink" x="0px" y="0px" width="120px" height="48px"
	 viewBox="0 0 120 48" style="enable-background:new 0 0 120 48;" xml:space="preserve">
<style type="text/css">
	.st0{fill:#545090;}
	.st1{fill:#FFFFFF;}
	.st2{fill:#4A4A4A;}
</style>
<title>Imported Layers + Shape Copy 5</title>
<desc>Created with Sketch.</desc>
<g id="Search-results-list" sketch:type="MSPage">
	<g id="link-to-afiliate-sites" transform="translate(-687.000000, -142.000000)" sketch:type="MSArtboardGroup">
		<g id="_x31_" transform="translate(24.000000, 33.000000)" sketch:type="MSLayerGroup">
			<g id="Posted-ad--Animals-Copy-6" sketch:type="MSShapeGroup">
				<g id="Imported-Layers-_x2B_-Shape-Copy-5" transform="translate(663.000000, 108.000000)">
					<g id="Imported-Layers" transform="translate(0.000000, 16.000000)">
						<path id="Fill-1" class="st0" d="M18.3,7.4c-0.2-0.3-0.5-0.3-0.7-0.6c-0.2-0.3-0.4-0.5-0.6-0.8c-0.1-0.1-0.2-0.3-0.3-0.4
							c0-0.1,0-0.4,0-0.5c0-0.2-0.1-0.3,0-0.5c0-0.2,0.1-0.3,0.1-0.5c0-0.1-0.1-0.3-0.1-0.4c0.4,0.3,1,0.6,1.3,0.5
							c-0.4-0.8-0.6-2.3-0.9-3.1c-0.2-0.5-0.7-1.2-1.3-1c-0.4,0.1-0.8,0.4-1.2,0.5c-0.1,0-0.1-0.1-0.2-0.1c-0.1,0-0.3-0.1-0.5-0.1
							c-0.1,0-0.4-0.1-0.6-0.1c-0.3,0-1.4,0-1.8,0c-0.2,0-1,0.3-1.2,0.2c-0.4,0-0.8-0.2-1.2-0.2c-0.5,0-0.9,0.8-0.9,1.3
							C8.1,2.4,8.3,3.5,8.1,4.3c0.4,0,0.5-0.3,0.8-0.5c0,0.1,0,0.1,0,0.2C8.7,4.2,8.2,5.3,8.1,5.6C8,5.9,7.7,6.3,7.5,6.5
							C7,7,6.3,7.5,5.9,8.1C5.7,8.4,5.5,8.7,5.3,8.9C5.1,9.2,4.8,9.4,4.7,9.8c-0.2,0.7-0.7,1.4-1,2.1c-0.2,0.3-0.3,0.7-0.4,1
							c-0.1,0.3-0.2,0.7-0.3,1.1c-0.1,0.3-0.1,0.6-0.2,1c-0.1,0.4-0.2,0.7-0.3,1c-0.3,0.7-0.6,1.3-0.8,2c-0.1,0.3-0.2,0.7-0.3,1
							C1.2,19.3,1,19.6,0.8,20c-0.3,0.7-0.6,1.3-0.7,2.1c-0.1,0.7,0,1.5,0.2,2.2c0.1,0.3,0.2,0.6,0.2,0.9c0,0.3,0,0.5-0.1,0.8
							c-0.1,0.5-0.5,1.3,0.2,1.5c0.3,0.1,0.6,0.2,0.9,0.4c0.1,0.1,0.2,0.3,0.3,0.3c0.2,0,0.4,0,0.6,0C2.8,28.1,3.2,28,3.6,28
							c0.3,0,0.6,0,1-0.1c0.2,0,0.3-0.1,0.4,0c0.1,0,0.3,0.1,0.5,0c0.3-0.1,0.6-0.1,0.9,0c0.1,0,0.1,0.1,0.2,0.1c0.1,0,0.1,0,0.2,0
							c0.1,0,0.1,0.1,0.2,0.1c0.4,0,0.2-0.8,0.2-1C7.7,27,8.1,27,8.6,27.1c0.5,0,1,0.1,1.4-0.2c0.2,0.4,0.1,0.9,0.4,1.3
							c0.1,0.2,0.2,0.3,0.4,0.4c0.1,0,0.2,0,0.3,0c0.1,0,0.3-0.1,0.3,0c0,0,0.1,0.1,0.1,0.1c0.1,0.1,0.1,0,0.1,0c0,0,0-0.1,0-0.1
							c0.1,0,0.1,0,0.2,0c0.1,0,0.2,0,0.4,0c0.1,0,0.2,0.1,0.3,0.1c0.1,0,0.2-0.1,0.3-0.1c0.2-0.1,0.3,0,0.5,0c0-0.2,0-0.3,0-0.5
							c0-0.1,0-0.1,0-0.2c-0.1-0.1-0.1-0.2-0.2-0.3c-0.1-0.3-0.1-0.6-0.3-0.9c-0.1-0.1-0.3-0.2-0.4-0.4c-0.1-0.1-0.1-0.3-0.1-0.5
							c0-0.3,0-0.7,0.1-1c0.1-0.3,0.2-0.6,0.2-1c0.1-0.3,0-0.6,0.1-1c0.2-0.6,0.4-1.2,0.6-1.9c0.1-0.3,0.2-0.6,0.3-0.9
							c0-0.1,0.1-0.2,0.1-0.3c0-0.1,0-0.2,0.1-0.4c0.2-0.7,0.3-1.4,0.4-2.2c0-0.2,0.1-0.4,0.1-0.6c0.1-0.2,0.2-0.5,0.2-0.8
							c0-0.3,0.3-0.6,0.3-1c0-0.3,0.1-0.6,0.1-0.9c0-0.2-0.1-0.4-0.1-0.6c-0.1-0.3,0-0.6-0.1-0.9c-0.1-0.4-0.2-0.7-0.4-1
							c-0.1-0.1-0.3-0.2-0.3-0.3c0,0,0-0.1-0.1-0.1c-0.1-0.1,0-0.1,0-0.1c-0.2-0.5-0.4-1-0.5-1.6c0-0.2,0.1-0.3,0-0.5
							c0-0.1-0.1-0.3-0.2-0.4c0-0.3,0.5-0.4,0.7-0.4c0.4,0,0.9,0.3,1.3,0.4c0.4,0.1,0.9,0.4,1.3,0.4c0.3,0,0.5,0,0.7-0.2
							c0.1-0.1,0.2-0.1,0.2-0.2c0.1-0.1,0.2-0.1,0.3-0.1C18.1,8.5,18,8.2,18.1,8C18.1,7.7,18.4,7.6,18.3,7.4"/>
						<path id="Fill-2" class="st0" d="M23.9,32.6L23.9,32.6l-0.2,0l-0.1,0l-0.1,0l-0.1,0l-0.1,0l-0.1,0l-0.2-0.1l0,0l-0.1,0
							l-0.1-0.1l0,0l0,0l-0.1,0l0,0l-0.1,0l-0.1,0L22,32.2l0,0l0,0l-0.1,0l-0.1-0.1l-0.1,0l0,0l-0.1,0l-0.1,0l-0.1,0l-0.1,0l-0.1,0
							l-0.1,0l-0.1,0l-0.1,0l-0.1,0l-0.1,0l0,0h-0.1l-0.1,0l0,0l-0.1,0l0,0h0l-0.1,0l-0.1,0l0,0l-0.1,0l0,0H20l-0.1,0l0,0l0,0h-0.1
							l-0.1,0l-0.1,0l-0.1,0l-0.1,0l-0.1,0l-0.1,0l-0.1-0.1l0,0l-0.1,0l-0.2,0l-0.2,0l-0.1,0l-0.1,0l0,0l0,0l0,0l-0.1,0l-0.3,0
							l-0.1,0l-0.1,0l-0.1,0l-0.1,0l-0.2,0l0,0h-0.1l-0.1,0l-0.2,0l-0.1,0l-0.1,0l-0.1,0l-0.1,0l-0.2,0l-0.1,0l-0.2,0l-0.1,0l-0.1,0
							l-0.1,0l-0.1,0l-0.1,0l-0.1,0l-0.1,0h0l0,0l-0.1,0.1L15,31.2l-0.1,0l-0.1,0l-0.1,0l-0.3,0h-0.1l0,0l0,0l-0.1,0l-0.1,0l-0.1,0
							l0,0l-0.1,0l-0.3,0l-0.2,0l-0.2,0l-0.2,0l-0.2,0l-0.2,0l-0.2,0l-0.2,0l-0.1,0l-0.1,0l-0.1,0l-0.1,0l-0.3,0l-0.1,0h-0.2l-0.1,0
							l-0.1,0l-0.1,0l-0.1,0l-0.2,0l-0.1,0l-0.1,0l-0.1,0l0,0l-0.1,0l-0.1,0l-0.1,0l-0.1-0.1l-0.1,0l-0.1,0l0,0l0,0l-0.1,0l0,0
							l-0.1,0L9.9,31l0,0l0,0l0,0l-0.1,0l-0.1,0l-0.1-0.1l0,0l-0.1,0l-0.1,0l0,0l-0.1-0.1l-0.1-0.1l-0.1-0.1l0,0H9l-0.1,0l-0.1,0
							l0,0l-0.1,0l-0.2-0.1l-0.1-0.1L8.3,30l-0.1-0.1L8,29.8l-0.1-0.1l-0.1-0.2l-0.1-0.2l0-0.1l0-0.1l0-0.1l0-0.1l0-0.1l0-0.1l0-0.1
							l0,0l-0.1-0.1l0,0l0,0l0-0.1l0,0l0,0l0,0l0-0.1l-0.1-0.2L7.2,28l-0.1-0.2l-0.1-0.2L7,27.5l-0.1-0.4l0-0.2l0-0.1l0-0.1l0-0.1
							l0-0.1l0-0.1l0-0.3l0-0.1l0-0.1l0-0.2l0-0.1l0-0.1l0-0.2l0-0.2l0-0.1l0-0.1l0-0.1l0-0.1l0-0.1l0.1-0.1L7,24.1l0-0.1L7.1,24
							l0.1,0l0,0l0.1,0l0,0l0,0l0.1-0.1l0.1-0.1l0.1-0.1l0.1-0.1l0.1-0.1L7.9,23l0.1-0.1L8,22.8l0-0.1l0-0.1l0-0.1l0-0.1l0-0.1
							l0-0.1l0-0.1l0-0.1l0-0.1l0-0.1l0-0.2l0,0l0-0.1l0-0.1l0-0.1l0.1-0.3l0.1-0.1l0.1-0.1l0.1-0.1l0,0l0.1-0.1l0-0.1l0-0.1L9,20
							L9,19.9l0.1-0.1l0.1-0.1l0.1-0.1l0.1-0.1l0.1-0.1l0.1-0.1l0.1-0.1l0.1-0.1l0.1-0.1l0-0.1l0.1,0l0,0l0,0l0,0l0-0.1l0.1-0.1l0,0
							l0-0.1l0.1-0.1l0-0.1l0.1-0.1l0-0.1l0-0.1l0-0.1l0-0.2l0-0.1l0.1-0.2l0.1-0.1l0-0.1l0.1-0.1l0-0.1l0,0l0.1-0.1l0-0.1l0-0.1
							l0-0.1l0.1-0.1l0.1-0.1l0.1-0.1l0.1-0.2l0.1,0l0.1-0.1l0.1,0l0.1,0l0,0l0.1-0.1l0.1,0l0.2,0h0.3l0.2,0l0.1,0l0.2,0l0.1,0
							l0.1,0l0.7,0l0.3,0l0.1,0l0.1,0l0.1,0l0.1,0l0.1,0l0.2,0l0.1,0l0.1,0l0.1,0l0,0h0.1l0.5,0h0.4l0.2,0l0.2,0l0.1,0l0,0h0l0.1,0
							l0.1,0l0.1,0l0.1,0l0.1,0.1l0.1,0l0.1,0l0.1,0l0.1,0l0.1,0l0.1,0l0.1,0l0.1,0.1l0.1,0.1l0.2,0.1l0.1,0.1l0.1,0.2l0.1,0.1
							l0,0.1l0,0.1l0.1,0.1l0,0l0,0l0.1,0l0.1,0l0.1,0l0.1,0l0.2,0.1l0.4,0.1l0.2,0l0.2,0.1l0.2,0l0.2,0.1h0l0.1,0l0.1,0l0,0l0,0
							l0.1,0l0.1,0l0,0.2l0,0.1l-0.1,0.1l-0.1,0.1l-0.1,0.1l-0.1,0.1l-0.1,0.1l-0.1,0l0,0l-0.1,0l0,0l-0.1,0L20,19l-0.1,0.1l0,0
							l-0.1,0.1l-0.1,0l-0.1,0l-0.1,0l0,0l-0.1,0.1l-0.1,0l0,0l0,0l0,0l0,0.2l0,0.1l0,0l0,0l0,0.1l-0.1,0.1l0,0l-0.1,0.1l0,0l0,0.1
							l0,0.1L19,20.3l0,0l0,0.1l0,0.1l0,0.1l0,0.1l0,0.1l0,0v0l0,0.1l0,0l0,0.1L18.6,21l0,0.1l-0.1,0.1l-0.1,0l-0.1,0l-0.1,0l0,0
							l0,0l0,0l0,0.1l0,0.2l0,0.1l0,0.1l0,0.1v0.1l0,0l0.1,0.2l-0.1,0.1L18,22.3l-0.2,0.1l0,0l0,0l0,0.1l0,0.1l0,0.1l0,0.1l0.1,0.1
							l0,0.1l0.1,0.1l0,0.1l0,0.4l-0.4-0.1l0,0.3l-0.4,0l0,0l0,0L17,23.5l-0.1-0.1l-0.1-0.1v-0.1l0-0.1v0l0-0.2v-0.1l-0.1,0
							l-0.1-0.3v-0.2l0-0.1l0,0l0,0l-0.1,0l-0.2-0.1l-0.1-0.1l-0.1-0.1L16,22l-0.1-0.1l0,0l-0.1-0.1l0-0.1l-0.1,0.1l0,0l0,0.1l0,0.1
							L15.6,22l0,0.1l0,0.1l0,0.3l0,0.1l0,0.3l0,0v0.2l0,0.1l-0.1,0.1l0,0l0,0l0,0.1l0,0.2l0,0.1l0,0.1l0,0.1l0,0.1l0,0.2l0,0.1
							l0,0.1l0,0l0,0.2l-0.1,0.1l0,0.1l0,0l0,0l0.1,0l0,0l0.1,0l0.1,0l0.1,0l0.1,0l0.1,0.1l0.1,0.1l0,0l0.1,0.1l0.1,0.1l0,0.1l0,0.1
							l0,0.1l0,0.1l0,0.1l0,0.1l0,0.1l0,0.1l0,0.1l-0.1,0.5l0,0.2l0,0.2l0,0.2l0,0.2l0,0l0,0.1l0,0.1l0,0.1l0,0l0,0l0,0l0,0v0.1
							L15.7,28l0,0.1l0,0.1l-0.1,0.1l-0.1,0.1l-0.1,0.1l-0.1,0.1l-0.1,0.2h0l0,0.1l-0.1,0.1l0,0h0.6l0.2,0l0,0h0l0.5,0l0.1,0l0.3,0
							l0.2,0h0l0.1,0l0.2,0l0.2,0l0,0l0.2,0l0.2,0l0.2,0l0.2,0l0.6,0.1l0.2,0l0.1,0l0.1,0l0.2,0.1l0.1,0l0.1,0l0.1,0l0.1,0l0.1,0
							l0.1,0l0.1,0l0.1,0l0.1,0l0.1,0l0.2,0.1l0.1,0.1l0.1,0.1l0.1,0l0.1,0.1l0.1,0l0.1,0l0.1,0.1l0.1,0l0.1,0l0.1,0l0,0l0,0l0.1,0
							l0.1,0l0.1,0l0.1,0l0.1,0l0.1,0l0.2,0l0.1,0l0.1,0l0.1,0l0.2,0.1l0.5,0.1l0.1,0l0.1,0l0.1,0l0.2,0.1h0.6l0.1,0l0.1,0l0.1,0
							l0.1,0l0.2-0.1l0.1,0l0.1,0l0.1,0l0.1-0.1l0.1,0l0.2-0.1l0.1,0.1l0,0h0l0.1,0l0.1,0l0,0l0,0l0.1,0.1l0,0.1l0,0.1l-0.1,0.1l0,0
							l0,0l0,0l0,0.1l-0.1,0.1l-0.1,0l-0.1,0.1l-0.1,0l-0.1,0l0,0l-0.1,0.1L25.8,32l0,0l-0.1,0.1l-0.1,0.1l-0.1,0.1l0,0l-0.2,0.1
							l-0.2,0.1L25,32.6l-0.4,0.1l-0.2,0l-0.2,0L23.9,32.6"/>
						<path id="Fill-3" class="st1" d="M15.1,16.2L15.1,16.2L15.1,16.2l0.2,0h0.2l0.2,0l0.2,0l0.2,0h0.4l0.2,0l0.2,0l0,0l0.1,0h0.1
							l0.1,0l0.1,0l0.1,0h0.1l0.1,0l0.1,0l0.1,0l0.1,0l0.1,0l0.1,0l0.1,0l0.1,0l0.1,0l0.1,0l0.1,0l0.1,0l0.1,0l0.1,0.1l0.1,0.1
							l0,0.1l0.1,0.1l0,0.1l0.1,0.1l0.1,0.1l0.1,0.1l0,0.1l0,0l0,0l0.1,0l0.1,0l0.1,0l0.1,0l0.1,0l0.2,0.1l0.2,0.1l0.2,0l0.2,0
							l0.2,0l0.2,0.1l0.2,0l0.2,0.1h0l0,0l0,0l0,0l0,0l0,0l0,0l0,0l0,0.1l0,0.1l0,0.1l0,0.1l-0.1,0.1l-0.1,0.1l-0.1,0.1l0,0.1
							l-0.1,0l-0.1,0l-0.1,0l0,0l-0.1,0l-0.1,0l-0.1,0l-0.1,0l-0.1,0l-0.1,0l-0.1,0l-0.1,0l-0.1,0l-0.1,0l-0.1,0l0,0.1l-0.1,0l0,0
							l0,0l0,0l0,0l0,0l0,0l0,0l0,0l0,0l0,0l0,0l0,0l0,0l0,0l0,0.1l0,0.1l0,0.1l0,0.1l0,0.1l0,0l0,0l0,0l0,0l0,0l0,0.1l0,0l0,0.1
							l0,0.1l0,0.1l0,0.1l0,0.1l0,0.1l0,0.1l0,0.1l0,0.1v0l0,0l0,0l0,0l0,0l0,0l0,0l0,0l-0.1,0l-0.1,0l-0.1,0l-0.1,0l-0.1,0L18,21.1
							l0,0.1l0,0.1l0,0.1l0,0.1l0,0.1l0,0.1l0,0.1v0.1l0,0.1l0,0.1l0,0.1l0,0.1l-0.1,0l-0.1,0l-0.1,0l-0.1,0l-0.1,0l0,0l0,0l0,0l0,0
							l0,0l0,0l0,0l0,0l0,0l0,0.1l0,0.1l0,0.1l0.1,0.1l0,0.1l0,0.1l0,0.1l0,0.1l-0.1,0l-0.1-0.1L17.7,23l-0.1-0.1l-0.1-0.1l-0.1-0.1
							l-0.1-0.1l-0.1-0.1l0-0.1l0,0v0.1l0,0l0,0l0,0l0,0l0,0l0,0.1l0,0.1l0,0.1l0,0.1l0,0.1l0,0.1l0,0.1l0,0.1l-0.1,0l0,0l0-0.1
							v-0.1l0-0.1l0-0.1l0-0.1l0-0.1l0-0.1l0-0.1l0-0.1l0-0.1l0,0l0,0l0,0l0,0l0,0.1v0.3l0,0.1V23l0,0.1v0.1l0,0.1l0,0l0,0l0,0v0
							l0-0.1v0l0,0l0,0l0,0l0,0l0,0v0l0-0.1v0l0,0v-0.1l0,0v-0.1l0,0l0,0v-0.1h0l0,0l0,0.1v0.1l0,0.1l0,0l0,0l0,0l0,0l0-0.1v-0.1
							l0-0.1v-0.1l0-0.1l0-0.1v-0.1l-0.1,0l-0.1,0l-0.1,0l-0.1,0L16.3,22l-0.1-0.1l-0.1-0.1l-0.1-0.1l0,0l0,0l0,0l0,0l0-0.1l0-0.1
							l0,0l0,0l-0.1,0l-0.1,0.1l0,0l0,0l0,0l0,0l-0.1,0l0,0.1l0,0l0,0.1L15.4,22l0,0.1l0,0.1l0,0.1l0,0.1l0,0.1l0,0.3l0,0v0.2l0,0
							l0,0.1l0,0.1v0.1l0,0.1l0,0.1l0,0.1l0,0.1l0,0.1l0,0.1l0,0.1l0,0.1l0,0.1l0,0.1l0,0.1l0,0.1l0,0.1l0,0l0,0l0,0l0,0v0.1l0,0
							l0,0l0,0.1l0.1,0.1l0.1,0l0.1,0l0.1,0l0.1,0l0.1,0l0.1,0l0,0l0,0l0,0l0,0l0,0l0,0l0,0l0,0l0,0.1l0,0.1l0,0.1l0,0.1l0,0.1v0.1
							l0,0.1l0,0.1l0,0.2l0,0.2l0,0.2l0,0.2l0,0.2l0,0.2l0,0.2l0,0.2l0,0l0,0l0,0v0l0,0.1l0,0.1l0,0.1l0,0.1l0,0l0,0l0,0v0l-0.1,0.1
							L15.5,28l-0.1,0.1l-0.1,0.1l-0.1,0.1l-0.1,0.1l-0.1,0.1l-0.1,0.1h0l0,0l0,0l0,0l0,0.1l0,0.1l0,0l0,0.1l0,0l0,0.1l0,0l0,0l0,0
							l0,0l0,0.1l0.1,0l0.1,0l0.1,0h0.6l0.1,0l0,0H16l0.2,0l0.2,0l0.2,0h0.1l0.2,0l0.1,0l0.1,0h0l0.1,0h0.2l0.1,0l0.1,0l0.1,0l0,0
							l0.2,0l0.2,0l0.2,0l0.2,0l0.2,0l0.2,0l0.2,0l0.2,0l0.1,0l0.1,0l0.1,0l0.1,0l0.1,0l0.1,0l0.1,0l0.1,0l0.1,0l0.1,0l0.1,0l0.1,0
							l0.1,0l0.1,0l0.1,0l0.1,0l0.1,0l0.1,0.1l0.1,0l0.1,0.1l0.1,0.1l0.1,0.1l0.1,0.1l0.1,0.1l0,0l0,0l0,0l0,0l0.1,0l0.1,0l0.1,0
							l0.1,0l0.1,0l0.1,0l0.1,0l0.1,0l0.1,0l0.1,0l0.1,0l0.1,0l0.1,0l0.1,0l0.1,0l0.1,0l0.1,0l0.1,0l0.1,0l0.1,0l0.1,0l0.1,0l0.1,0
							l0.1,0h0.6l0.1,0l0.1,0l0.1,0l0.1,0l0.1,0l0.1,0l0.1,0l0.1,0l0.1-0.1l0.1,0l0.1-0.1l0.1-0.1l0,0l0.1,0h0l0,0l0,0l0,0l0,0.1
							l0,0.1l0,0.1l0,0.1l0,0l0,0.1l0,0.1l0,0.1l-0.1,0l-0.1,0l-0.1,0l-0.1,0l-0.1,0l-0.1,0.1l-0.1,0l-0.1,0.1l-0.1,0.1l-0.1,0.1
							L25.5,32L25.5,32l-0.1,0l-0.1,0.1l-0.1,0.1l-0.1,0.1l-0.2,0.1l-0.2,0.1l-0.2,0l-0.2,0l-0.2,0l-0.2,0l-0.2,0l-0.2,0l0,0l0,0
							l0,0h0l-0.1,0h-0.1l-0.1,0l-0.1,0l-0.1,0l-0.1,0l-0.1,0l-0.1,0l0,0h0l0,0l0,0l-0.1,0l0,0l0,0l0,0l0,0l0,0l-0.1,0l-0.1,0
							L22.1,32l0,0l-0.1,0l-0.1,0h-0.1l-0.1,0l-0.1,0l-0.1,0l-0.1,0l-0.1,0l-0.1,0l0,0l0,0l-0.1,0l-0.1,0l-0.1,0l-0.1,0l-0.1,0
							l-0.1,0l-0.1,0l-0.1,0l0,0h0l0,0l0,0l-0.1,0l-0.1,0h-0.1l-0.1,0l-0.1,0l-0.1,0l-0.1,0l-0.1,0l-0.1,0H20l-0.1,0l-0.1,0l-0.1,0
							h-0.1l-0.1,0l-0.1,0l-0.1,0l-0.1,0l0,0l0,0l0,0l0,0l-0.1,0l-0.1,0l-0.1,0l-0.1,0l-0.1,0h-0.2l-0.1,0l-0.1,0h-0.1l0,0l0,0l0,0
							h0l0,0l0,0l-0.1,0H18l-0.1,0h-0.1l-0.1,0l-0.1,0l0,0l0,0l0,0l0,0h-0.2l-0.1,0l-0.1,0l-0.1,0l-0.1,0l-0.1,0h-0.1l-0.1,0l-0.1,0
							l-0.1,0L16,31h-0.1l-0.1,0l-0.1,0l-0.1,0l-0.1,0h0l0,0l0,0h0l0,0h0l0,0l0,0l-0.1,0L15,31h-0.1l-0.1,0l-0.1,0l-0.1,0l-0.1,0
							h-0.1l-0.1,0l0,0l0,0l0,0h-0.1l0,0l-0.1,0l0,0l-0.2,0l-0.2,0l-0.2,0l-0.2,0l-0.2,0l-0.2,0l-0.2,0l-0.2,0l-0.1,0l-0.1,0h-0.1
							l-0.1,0h-0.3l-0.1,0h-0.2l-0.1,0l-0.1,0l-0.1,0l-0.1,0l-0.1,0l-0.1,0l-0.1,0l-0.1,0l-0.1,0l-0.1,0l-0.1,0l-0.1,0l-0.1,0
							l-0.1,0l-0.1,0l-0.1,0l-0.1,0l-0.1,0l0,0l0,0l0,0l0,0l0,0l0,0l0,0l0,0l0,0l-0.1,0l-0.1,0l-0.1,0l-0.1,0l0,0l0,0l0,0l-0.1,0
							l0,0l0,0l0,0l0,0l0,0l0,0l0,0l0,0l0,0l0,0l0,0l0,0l0,0l0,0H9l0,0l0,0l-0.1,0l0,0l-0.1,0l-0.1,0L8.6,30L8.5,30l-0.1-0.1
							l-0.1-0.1l-0.1-0.1l-0.1-0.1L8,29.4L8,29.3l0-0.1l0-0.1l0-0.1l0-0.1l0-0.1l0-0.1l0-0.1l0-0.1l0,0l0,0l0,0l0,0l0,0l0,0l0,0l0,0
							l0-0.1l0-0.1l-0.1-0.2l-0.1-0.2l-0.1-0.2l-0.1-0.2l-0.1-0.2l-0.1-0.2L7.1,27l0-0.2l0-0.1l0-0.1l0-0.1l0-0.1l0-0.1l0-0.2v-0.1
							l0-0.1l0-0.1l0-0.1v-0.1l0-0.1v-0.2l0-0.2l0-0.1l0-0.1l0-0.1l0-0.1l0-0.1l0-0.1l0.1-0.1l0-0.1l0,0l0,0l0.1,0l0,0l0,0l0,0l0,0
							l0.1-0.1l0.1-0.1l0.1-0.1l0.1-0.1L8,23.3l0.1-0.2L8.1,23l0.1-0.2l0-0.1l0-0.1l0-0.1l0-0.1l0-0.1l0-0.1l0-0.1l0-0.1l0,0l0,0
							l0,0l0,0l0,0l0,0l0,0l0,0l0-0.1l0-0.1l0-0.1l0-0.1l0-0.1l0.1-0.1l0.1-0.1L9,20.6l0-0.1l0-0.1l0-0.1l0-0.1l0-0.1l0-0.1l0-0.1
							l0-0.1L9.3,20l0.1-0.1l0.1-0.1l0.1-0.1l0.1-0.1l0.1-0.1l0.1-0.1l0.1-0.1l0.2-0.1l0,0l0,0l0,0l0,0l0,0l0,0l0,0l0,0l0-0.1l0,0
							l0,0l0,0l0.1-0.1l0.1-0.1l0.1-0.1l0.1-0.1l0-0.2l0-0.2l0-0.2l0-0.2l0-0.1l0-0.1l0-0.1l0-0.1l0-0.1l0-0.1l0-0.1l0.1-0.1l0-0.1
							l0-0.1l0-0.1l0-0.1l0-0.1l0-0.1l0.1-0.1l0.1-0.1l0,0l0,0l0,0l0.1,0l0,0l0,0l0,0l0,0l0,0l0.1,0l0.1,0l0.1,0l0.1,0h0.3l0.2,0
							l0.1,0l0.1,0h0.2l0.2,0h0.7l0.1,0l0.1,0l0.1,0l0.1,0h0.1l0.1,0l0.1,0l0.1,0l0.1,0H15.1 M15.2,15.8H15l0,0l-0.1,0l-0.1,0
							l-0.1,0l-0.1,0l0,0h-0.2l0,0l-0.1,0l-0.1,0l-0.1,0l-0.1,0h-0.7l0,0l-0.1,0H13l-0.1,0l-0.1,0l-0.1,0l0,0h-0.4l0,0l-0.1,0l0,0
							l0,0l-0.1,0l0,0l0,0l-0.1,0l-0.1,0l0,0l0,0l0,0l0,0l0,0l0,0l0,0l0,0l-0.1,0l-0.1,0.1l0,0l0,0l0,0l0,0l0,0l-0.1,0.1l0,0
							L11,16.6l0,0l0,0.1l0,0.1l0,0.1l0,0l0,0.1l0,0l0,0l0,0l0,0l0,0.1l0,0.1l0,0l0,0l0,0.1l-0.1,0.1l0,0.1l0,0.1l0,0.1l0,0.1l0,0.1
							l0,0.1l0,0.1l0,0.1l0,0.1l-0.1,0.1l0,0.1l0,0l0,0.1l0,0l-0.1,0.1l0,0l-0.2,0l0,0.1l0,0l-0.1,0.1l0,0l0,0l-0.1,0.1l-0.1,0.1
							l0,0l0,0l-0.1,0.1l-0.1,0.1l0,0l-0.1,0.1L9,19.7l0,0l0,0l-0.1,0.1l0,0l0,0l-0.1,0.1l0,0.1l0,0.1l0,0.1l0,0l0,0.1l0,0l0,0.1
							l0,0.1l0,0l0,0l-0.1,0.1l-0.1,0.2l0,0l0,0l-0.1,0.1l0,0l0,0.1l0,0.1l0,0l0,0l0,0.1l0,0.1l0,0l0,0l0,0l-0.1,0.2l0,0.1l0,0.1
							l0,0l0,0l0,0l0,0l0,0.1l0,0l0,0L8,22l0,0.1l0,0l0,0.1l0,0.1l0,0l0,0l0,0.1l0,0.1l0,0l0,0.1l0,0.1L7.7,23l-0.1,0.1l-0.1,0.1
							l-0.1,0.1l-0.1,0.1l-0.1,0.1l-0.1,0.1l0,0l0,0l0,0l0,0l0,0l0,0l0,0l0,0l0,0l-0.1,0.1l-0.1,0.1l0,0.1l0,0l0,0l-0.1,0.2
							l-0.1,0.2l0,0.1l0,0.1l0,0l0,0l0,0.1l0,0.1l0,0l0,0.2l0,0v0.2l0,0l0,0.1v0.1l0,0l0,0.1l0,0.1l0,0l0,0.1V26l0,0l0,0.3l0,0
							l0,0.1l0,0.1l0,0l0,0l0,0.1l0,0l0,0l0,0.1l0,0l0,0l0,0.1l0,0.2l0.1,0.2l0.1,0.2l0.1,0.2L7,27.9l0.1,0.2l0.1,0.2l0,0l0,0
							l0.1,0.1l0,0.1l0,0l0,0l0,0.1l0,0l0,0l0,0.1l0,0l0,0l0,0l0,0.1l0,0.1l0,0l0,0.1l0,0.1l0,0l0,0l0,0.1l0,0.1l0,0.1l0,0l0,0
							l0.1,0.2l0.1,0.2l0,0l0.1,0.1l0,0l0,0L8,30.1l0,0l0,0l0.1,0.1l0,0l0,0l0.1,0.1l0,0l0,0l0.1,0.1l0.1,0.1l0.1,0.1l0.1,0l0,0l0,0
							l0,0l0,0l0,0l0.1,0H9l0,0l0,0l0,0l0,0l0,0.1l0,0l0,0l0,0l0,0l0,0l0,0l0,0l0,0l0,0l0,0l0,0l0,0l0,0l0,0l0,0l0,0l0.1,0l0,0l0,0
							l0,0l0,0l0.1,0.1l0.1,0l0,0l0,0l0,0l0,0l0,0l0,0l0,0l0,0l0,0l0,0l0,0l0,0l0,0l0.1,0l0.1,0l0.1,0l0,0l0,0l0,0l0,0l0.1,0l0.1,0
							l0,0l0,0l0.1,0l0,0l0,0l0,0l0.1,0l0.1,0l0.1,0l0.1,0l0,0l0,0l0.1,0l0.1,0l0,0l0,0l0.1,0l0.1,0l0,0h0.2l0,0l0.1,0h0.3l0,0
							l0.1,0h0.1h0l0.1,0l0.1,0l0.2,0l0.2,0l0,0l0,0l0.2,0l0.2,0l0,0l0,0l0.2,0l0.2,0l0.1,0l0.2,0l0.1,0l0.1-0.1h0l0,0l0,0l0,0l0,0
							l0,0l0.1,0l0,0h0.1l0,0l0.1,0l0.1,0l0.1,0l0,0l0,0l0,0h0l0,0l0,0l0.2,0.1l0.1-0.1l0,0l0.1,0l0.1,0l0,0l0.1,0l0.1,0l0,0l0,0
							l0.1,0l0.1,0l0,0H16l0.1,0l0.1,0l0.1,0l0.1,0l0.1,0l0.1,0h0.1l0.1,0l0.1,0l0.1,0l0.1,0l0,0l0,0l0.1,0l0,0h0l0.1,0.1l0.2,0l0,0
							l0,0l0,0l0,0l0,0l0.1,0l0,0h0.1l0.1,0l0,0h0.3l0.1,0l0,0l0,0l0,0l0,0l0,0h0.1l0.1,0l0.1,0l0,0H19l0,0l0,0l0,0l0.1,0.1l0.1,0
							l0,0l0,0l0,0l0,0l0.1,0l0.1,0l0.1,0l0.1,0l0,0l0,0l0,0h0.1l0,0l0,0l0,0l0.1,0H20l0,0l0.1,0l0,0l0,0l0,0l0,0l0,0l0,0l0.1,0l0,0
							h0l0.1,0l0,0l0,0l0,0l0,0l0,0h0l0,0l0.1,0.1l0,0l0.1,0l0.1,0l0,0l0,0l0.1,0l0.1,0l0.1,0l0,0l0,0l0.1,0l0,0l0,0l0.1,0l0,0l0,0
							l0.1,0l0,0l0,0l0,0l0,0l0.1,0l0.1,0l0.1,0h0.1l0,0l0.6,0.2l0.1,0l0.1,0l0,0l0,0l0,0l0,0l0,0l0.1,0l0,0l0.1,0l0.1,0h0.1l0,0
							l0.1,0l0.1,0l0,0l0,0l0.1,0l0,0l0,0l0.1,0l0.1,0l0,0h0.1l0,0l0.2,0.1l0.1-0.1l0.1,0l0.2,0l0,0l0,0l0.2,0l0.2,0l0,0l0,0l0.2,0
							l0.2,0l0,0l0,0l0.2-0.1l0.2-0.1l0.1,0l0.1,0l0.1-0.1l0.1,0l0,0l0,0l0,0l0,0l0,0l0,0l0,0l0,0l0,0l0.1-0.1l0,0l0.1,0l0,0l0,0
							l0,0l0,0l0,0l0,0l0,0l0,0l0.1,0l0,0l0.1,0l0.1,0l0.1-0.1l0-0.2l0,0l0,0l0,0l0,0l0,0l0-0.1l0,0l0,0l0-0.1l0.1-0.2l-0.1-0.2l0,0
							l0,0l0-0.1l-0.1,0l0,0l-0.1,0h-0.1l-0.2-0.1l-0.3,0.1l-0.1,0.1l-0.1,0l0,0l0,0l-0.1,0l-0.1,0l0,0l0,0l-0.1,0l-0.1,0l-0.1,0
							l-0.1,0l-0.1,0l-0.1,0l-0.1,0h-0.5l0,0l-0.1,0l0,0l-0.1,0l0,0l0,0l-0.1,0l-0.1,0l-0.1,0l-0.1,0l-0.1,0l-0.1,0l-0.1,0l-0.1,0
							l-0.1,0l-0.1,0l-0.1,0l0,0l0,0l-0.1,0l0,0l0,0l-0.1,0l-0.1,0l-0.1,0l-0.1,0l-0.1,0l-0.1,0l-0.1,0l0,0l-0.1,0l0,0l-0.2,0l0,0
							l0,0l0,0l-0.1,0L21.7,30l0,0l0,0L21.5,30l-0.1,0l-0.1-0.1l0,0l0,0l-0.1,0L21,29.8l0,0l0,0l-0.1,0l0,0l0,0l-0.1,0l-0.1,0
							l-0.1,0l0,0l0,0l-0.1,0l-0.1,0l0,0l0,0l-0.1,0l-0.1,0l0,0l0,0l-0.1,0l0,0l0,0l-0.1,0l-0.1,0l-0.1,0l-0.1,0l-0.1,0l-0.1,0
							l-0.1,0l0,0l0,0l-0.1,0l-0.2,0l0,0l0,0l-0.2,0l-0.2,0l-0.2,0l-0.2,0l0,0l0,0l-0.2,0l-0.2,0l0,0l0,0l-0.2,0l0,0l0,0l-0.1,0
							l-0.1,0l-0.1,0l0,0h-0.2l0,0l0,0h0L17,29l0,0l0,0l-0.1,0l-0.2,0l0,0h-0.1l-0.1,0l-0.2,0l-0.1,0l0,0l-0.2,0l-0.1,0l0,0h-0.2
							l0-0.1l0.1-0.1l0.1-0.1l0.1-0.1l0,0l0.1-0.1l0-0.1l0-0.1l0.1-0.2v-0.1l0,0l0,0l0,0l0,0l0,0l0.1-0.2l0,0l0,0l0.1-0.3l0-0.1l0,0
							l0-0.2l0-0.2l0-0.2l0-0.2l0-0.2l0-0.1l0-0.1l0-0.1v-0.1l0,0l0-0.1l0,0l0-0.1l0-0.1l0,0l0,0l0-0.1l0-0.2l-0.1-0.1l0,0l0,0l0,0
							l0,0l0,0l0,0l0,0l0,0l0,0l0,0l0,0l0,0l0,0l0,0l0,0l0,0l-0.1,0l-0.1,0l-0.1,0l-0.1,0l0,0l0,0l0-0.3l0,0l0-0.1l0-0.1l0,0l0,0
							l0-0.1l0-0.1l0-0.1l0,0l0-0.1l0,0l0,0l0-0.1l0-0.1l0-0.1l0,0l0-0.1v0l0,0l0.1-0.2l0-0.1V23l0,0l0,0l0-0.3l0,0l0,0l0-0.1l0-0.1
							l0-0.1l0-0.1l0,0l0-0.1l0,0l0,0l0,0l0.1,0.1l0,0l0,0l0.1,0.1l0.1,0.1l0,0l0,0l0.1,0l0,0l0,0v0.2l0.2,0.5l0,0l0,0l0,0v0.1l0,0
							l0,0v0.1l0.1,0.2l0.1,0.1l0,0l0,0l0.1,0l0.4,0.2l0,0l0,0l0.3,0.1l0-0.1l0.4,0l0-0.3l0.4,0.1L18.4,23l0-0.1l-0.1-0.1l0,0l0,0
							l0-0.1l0,0l0,0l0-0.1l0,0l0,0l0,0l0,0l0.1,0l0.1-0.1l0,0l0.1-0.2l-0.1-0.2l0,0l0,0v0l0,0l0,0l0,0l0-0.1l0-0.1l0,0l0-0.1l0-0.1
							l0,0l0,0l0.1,0l0,0l0,0l0.1,0l0.1-0.1l0-0.1l0,0l0.1,0l0-0.1l0,0l0,0l0.1-0.2v0l0,0l0,0l0,0l0,0l0-0.1l0-0.1l0,0l0,0l0.1-0.1
							l0-0.1l0,0l0,0l0,0l0,0l0,0l0,0l0.1-0.1l0-0.2l0,0l0,0l0,0l0,0l0,0l0,0l0.1-0.2l0,0l0,0l0,0l0.1,0l0.1,0l0,0l0.1,0l0,0l0,0
							l0,0l0,0l0.1,0l0,0l0,0l0,0l0,0l0,0l0,0l0,0l0,0l0,0l0,0l0,0l0.2-0.1l0.1-0.2l0,0l0.1-0.1l0.1-0.1l0.1-0.1l0,0l0.1-0.2l0-0.2
							l0,0l0-0.4l-0.3-0.1l0,0l0,0l0,0l0,0l0,0l0,0l0,0l-0.1,0l-0.1,0l0,0l0,0l0,0l-0.1,0l0,0l0,0l-0.2,0l-0.2-0.1l0,0l0,0l-0.2,0
							l-0.2,0l-0.2,0l-0.2,0l-0.1,0l0,0l0,0l0,0l0,0L18.8,17l0-0.1l0-0.1l0-0.1l-0.1-0.1l-0.1-0.1l0,0l-0.1-0.1l0,0l0,0l-0.1-0.1
							l-0.1,0l-0.1,0l0,0l-0.1,0l0,0l0,0l-0.1,0l-0.1,0l0,0l0,0l-0.1,0l0,0l0,0l-0.1,0l0,0l0,0l-0.1,0l0,0l0,0l-0.1,0l0,0l0,0l0,0
							l-0.1,0l-0.1,0h-0.1l0,0l0,0l0,0l0,0l0,0l0,0h0l-0.1,0l-0.1,0l-0.2,0l-0.2,0l0,0H16l-0.2,0l-0.2,0l-0.2,0l0,0h-0.1l0,0l0,0
							l0,0L15.2,15.8L15.2,15.8L15.2,15.8"/>
						<path id="Fill-4" class="st0" d="M76.5,28.5l0.6-0.4c0.4-0.2,0.7-0.4,1.1-0.5c0.3-0.1,0.5-0.1,0.8-0.2
							c-0.1-0.6-0.1-1.3-0.1-1.9c0-0.7,0-1.6,0-2.7v-0.7c0-1.9,0-3.8-0.1-5.4c-0.1-1.6-0.1-3.5-0.2-5.5c-0.1-2-0.1-3.5-0.1-4.6
							c-0.2,0-0.4,0-0.5,0c-0.3,0-0.7,0-1.3,0.1c-0.5,0.1-0.9,0.1-1.1,0.1c-0.3,0-0.6-0.1-1-0.2l-0.2-0.1l0-0.2
							c0-0.1,0.1-0.3,0.5-0.4c0.2,0,0.4-0.1,0.7-0.1l0,0h0c1,0,2.7-0.1,5.1-0.3c2.4-0.2,4.1-0.3,5-0.3c2,0,3.7,0.2,5.2,0.7
							c1.5,0.5,2.9,1.3,4,2.5l0,0l0,0c0.6,1.1,0.8,2.2,0.8,3.4c0,0.7-0.1,1.4-0.4,2.1c-0.2,0.6-0.6,1.3-1.2,1.8
							c-1,1.3-2.5,2.2-4.4,2.8c-1.8,0.6-3.7,0.9-5.7,0.9c0,0.3-0.1,0.8-0.1,1.3c0,0.7,0,1,0,1.1c0,0.6,0,1.5,0.1,2.8
							c0.1,1.2,0.1,2,0.1,2.6l3.5,0.4l-0.2,0.6l-0.1,0c-0.6,0.1-1.5,0.2-2.6,0.2c-1.1,0-2,0.1-2.8,0.1H76.5L76.5,28.5z M84.2,18
							c1.6,0,2.9-0.5,4-1.4c0.6-0.7,1-1.4,1.4-2.3c0.3-0.9,0.5-1.7,0.5-2.6c0-1.1-0.2-2.2-0.7-3.2c-0.4-0.5-0.9-1-1.3-1.3
							c-0.4-0.3-1-0.6-1.6-0.9c-0.2,0-0.6,0-0.9,0l-0.2,0c-0.3,0-0.4,0-0.5,0c-0.3,0-0.5,0-0.6,0.1l0.5,0.2l-0.6,11L84.2,18L84.2,18
							z"/>
						<path id="Fill-5" class="st1" d="M85.7,5.5c1.9,0,3.7,0.2,5.2,0.7c1.5,0.5,2.8,1.3,3.9,2.4c0.5,1.1,0.8,2.2,0.8,3.3
							c0,0.7-0.1,1.4-0.4,2c-0.2,0.6-0.6,1.2-1.1,1.8c-1,1.2-2.4,2.2-4.3,2.7c-1.8,0.6-3.8,0.9-5.8,0.9c-0.1,0.4-0.1,0.9-0.1,1.5
							c0,0.6,0,1,0,1.1c0,0.6,0,1.6,0.1,2.8c0.1,1.3,0.1,2.2,0.1,2.8l3.4,0.3L87.4,28c-0.6,0.1-1.5,0.2-2.5,0.2
							c-1.1,0-2,0.1-2.8,0.1h-1.6H79h-1.4h-0.4c0.3-0.2,0.7-0.4,1-0.5c0.3-0.1,0.7-0.1,1-0.2c-0.1-0.7-0.1-1.4-0.2-2.1
							c0-0.7,0-1.6,0-2.7v-0.7c0-2,0-3.8-0.1-5.4c-0.1-1.6-0.1-3.5-0.2-5.5c-0.1-2-0.1-3.6-0.1-4.8c-0.3,0-0.5-0.1-0.7-0.1
							c-0.3,0-0.7,0-1.3,0.1c-0.6,0.1-0.9,0.1-1.1,0.1c-0.3,0-0.6-0.1-0.9-0.2c0-0.1,0.1-0.2,0.3-0.2c0.2,0,0.4-0.1,0.6-0.1
							c1,0,2.8-0.1,5.2-0.3C83.1,5.5,84.8,5.5,85.7,5.5L85.7,5.5z M84,18.2c1.7,0,3.2-0.5,4.3-1.5c0.6-0.7,1.1-1.5,1.4-2.4
							c0.3-0.9,0.5-1.8,0.5-2.7c0-1.2-0.3-2.3-0.8-3.3c-0.5-0.6-0.9-1-1.4-1.4c-0.5-0.3-1-0.7-1.7-0.9c-0.2,0-0.5,0-1,0
							c-0.4,0-0.7,0-0.7,0c-0.5,0-0.9,0.1-1.1,0.3l0.8,0.3l-0.5,10.9L84,18.2L84,18.2z M85.7,5c-0.9,0-2.6,0.1-5,0.3
							c-2.4,0.2-4.1,0.3-5.1,0.3h0l0,0c-0.2,0-0.5,0.1-0.7,0.1c-0.5,0.1-0.6,0.4-0.7,0.6l-0.1,0.4l0.4,0.1c0.3,0.1,0.7,0.2,1,0.2
							c0.2,0,0.7,0,1.1-0.1c0.6-0.1,1-0.1,1.3-0.1c0.1,0,0.2,0,0.3,0c0,1.1,0,2.5,0.1,4.4c0.1,2.1,0.1,3.9,0.2,5.5
							c0.1,1.6,0.1,3.5,0.1,5.4v0.7c0,1.1,0,1.9,0,2.7c0,0.6,0.1,1.2,0.1,1.7c-0.2,0-0.4,0.1-0.6,0.1c-0.4,0.1-0.8,0.3-1.2,0.5
							l-1.2,0.8h6.3c0.8,0,1.7,0,2.8-0.1c1.1,0,2-0.1,2.6-0.2l0.3,0l0.4-1l-3.6-0.4c0-0.6,0-1.4-0.1-2.5c-0.1-1.3-0.1-2.2-0.1-2.8
							c0-0.1,0-0.3,0-1.1c0-0.4,0-0.8,0.1-1.1c2,0,3.8-0.3,5.6-0.9c1.9-0.6,3.4-1.6,4.5-2.9c0.5-0.6,1-1.2,1.2-1.9
							c0.3-0.7,0.4-1.4,0.4-2.2c0-1.2-0.3-2.3-0.9-3.5l0-0.1l0,0C94,7.1,92.6,6.2,91,5.7C89.5,5.2,87.7,5,85.7,5L85.7,5z M84.3,17.5
							l0.6-11.1c0.1,0,0.2,0,0.3,0l0.2,0c0.4,0,0.7,0,0.9,0c0.6,0.3,1.1,0.5,1.6,0.8c0.4,0.3,0.9,0.7,1.3,1.3c0.5,1,0.7,2,0.7,3.1
							c0,0.9-0.2,1.7-0.5,2.6C89,15,88.6,15.8,88,16.4c-1,0.8-2.2,1.3-3.7,1.4L84.3,17.5L84.3,17.5z"/>
						<path id="Fill-6" class="st0" d="M94.2,28.5c-0.9,0-1.8-0.1-2.5-0.3c-0.7-0.2-1.5-0.5-2.1-0.9l0,0l0,0c-0.4-0.4-0.7-1-0.9-1.6
							c-0.2-0.6-0.3-1.2-0.3-1.8c0-0.8,0.1-1.6,0.4-2.3c0.2-0.7,0.6-1.3,1.2-1.9c0.6-0.6,1.2-1.1,1.9-1.4l0,0l0,0
							c0.5-0.1,0.9-0.2,1.4-0.3c0.5-0.1,1-0.1,1.5-0.1c1.2,0,2.4,0.2,3.4,0.7c1,0.5,1.7,1.2,2.2,2.2l0,0v0c0,0.2,0,0.3,0,0.5l0,0.6
							c0,0.3,0,0.5-0.1,0.6c-0.1,0.2-0.2,0.3-0.4,0.5l0,0l0,0c-0.3,0-1.4,0.1-3.2,0.2c-1.7,0.1-3,0.3-4,0.6c0,0.2-0.1,0.4-0.1,0.6
							c0,1.1,0.5,1.9,1.4,2.6c0.5,0.1,1.1,0.1,1.6,0.1c0.8,0,1.6-0.1,2.2-0.4c0.6-0.2,1.2-0.6,1.7-1.2l0.1-0.1h0.6l-0.1,0.3
							c-0.2,0.7-0.6,1.2-1.2,1.5c-0.5,0.3-1.3,0.6-2.3,1l0,0l0,0C95.7,28.5,94.9,28.5,94.2,28.5L94.2,28.5z M95,19
							c-0.8,0.3-1.4,0.8-1.8,1.5c-0.4,0.6-0.6,1.3-0.6,2.1c0.3,0,0.8-0.1,1.6-0.2c1-0.1,1.8-0.3,2.4-0.4c0-0.2,0.1-0.4,0.1-0.6
							c0-0.3,0.1-0.5,0.1-0.7c0-0.3-0.1-0.6-0.2-0.8l0,0l0,0c-0.1-0.3-0.2-0.4-0.4-0.6c-0.3-0.1-0.5-0.2-0.9-0.2H95L95,19z"/>
						<path id="Fill-7" class="st1" d="M94.8,18c1.2,0,2.3,0.2,3.3,0.7c0.9,0.5,1.6,1.2,2,2.1c0,0.2,0,0.3,0,0.5c0,0.2,0,0.4,0,0.6
							c0,0.2,0,0.4-0.1,0.5c-0.1,0.1-0.2,0.3-0.3,0.3c-0.3,0-1.4,0.1-3.2,0.2c-1.8,0.1-3.2,0.3-4.1,0.6c-0.1,0.2-0.1,0.5-0.1,0.8
							c0,1.2,0.5,2.1,1.5,2.8c0.6,0.1,1.1,0.1,1.7,0.1c0.9,0,1.6-0.1,2.3-0.4c0.7-0.2,1.3-0.7,1.8-1.2h0.2c-0.2,0.6-0.6,1.1-1.1,1.3
							c-0.5,0.3-1.3,0.6-2.3,1c-0.8,0.1-1.6,0.2-2.3,0.2c-0.9,0-1.7-0.1-2.4-0.3c-0.7-0.2-1.4-0.5-2-0.9c-0.4-0.4-0.7-0.9-0.9-1.5
							c-0.2-0.6-0.3-1.1-0.3-1.7c0-0.8,0.1-1.6,0.4-2.2c0.2-0.7,0.6-1.3,1.2-1.9c0.6-0.6,1.2-1.1,1.8-1.4c0.4-0.1,0.9-0.2,1.4-0.3
							C93.8,18,94.3,18,94.8,18L94.8,18z M92.3,22.9c0.1,0,0.7-0.1,1.8-0.2c1.1-0.1,2-0.3,2.6-0.5c0-0.2,0.1-0.5,0.1-0.8
							c0.1-0.3,0.1-0.5,0.1-0.7c0-0.3-0.1-0.6-0.2-0.9c-0.1-0.3-0.2-0.6-0.5-0.7c-0.3-0.2-0.6-0.2-1-0.2H95
							c-0.8,0.3-1.5,0.9-1.9,1.6C92.6,21.2,92.3,22,92.3,22.9L92.3,22.9z M94.8,17.5c-0.5,0-1,0-1.5,0.1c-0.5,0.1-1,0.2-1.4,0.3l0,0
							l0,0c-0.7,0.4-1.4,0.9-2,1.5c-0.6,0.6-1,1.3-1.3,2c-0.3,0.7-0.4,1.5-0.4,2.4c0,0.6,0.1,1.3,0.3,1.9c0.2,0.6,0.5,1.2,1,1.6l0,0
							l0,0c0.7,0.5,1.4,0.8,2.2,1c0.8,0.2,1.6,0.3,2.5,0.3c0.8,0,1.6-0.1,2.4-0.2l0,0l0,0c1.1-0.4,1.8-0.8,2.3-1.1
							c0.6-0.3,1-0.9,1.3-1.6l0.2-0.6h-1.1l-0.1,0.2c-0.4,0.5-1,0.9-1.6,1.1c-0.6,0.2-1.4,0.3-2.2,0.3c-0.5,0-1,0-1.5-0.1
							c-0.8-0.6-1.2-1.4-1.2-2.4c0-0.2,0-0.3,0-0.4c0.9-0.3,2.2-0.4,3.8-0.5c2.5-0.1,3-0.2,3.2-0.2l0.1,0l0.1,0
							c0.2-0.1,0.4-0.3,0.5-0.6c0.1-0.2,0.1-0.4,0.1-0.7v0l0,0c0-0.2,0-0.4,0-0.6c0-0.2,0-0.3,0-0.5v-0.1l0-0.1
							c-0.5-1.1-1.2-1.9-2.3-2.4C97.3,17.8,96.1,17.5,94.8,17.5L94.8,17.5z M95,19.2h0.1c0.3,0,0.6,0.1,0.8,0.2
							c0.2,0.1,0.3,0.2,0.3,0.4l0,0l0,0c0.1,0.2,0.1,0.5,0.1,0.7c0,0.2,0,0.4-0.1,0.7c0,0.2-0.1,0.3-0.1,0.5
							c-0.6,0.1-1.3,0.3-2.2,0.4c-0.6,0.1-1,0.1-1.3,0.2c0.1-0.6,0.3-1.2,0.6-1.7C93.8,20,94.3,19.5,95,19.2L95,19.2z"/>
						<path id="Fill-8" class="st0" d="M105.2,28.7c-0.7,0-1.3-0.2-1.8-0.5c-0.4-0.3-0.9-0.7-1.6-1.2l0,0l0,0
							c-0.2-0.5-0.4-1.1-0.5-1.7c-0.1-0.6-0.2-1.2-0.2-1.8c0-0.5,0.1-1.4,0.2-2.6c0.1-1,0.1-1.8,0.2-2.2c-0.2,0-0.5-0.1-0.8-0.1
							h-0.5c-0.4,0-0.6,0-0.8,0c-0.2,0-0.4-0.1-0.7-0.2l-0.1-0.1v-0.5l0.1-0.1c0.2-0.1,0.5-0.2,1.7-0.3c1.1-0.1,1.1-0.5,1.1-0.7
							l0.4-3.7l0.2,0c0.3-0.1,0.7-0.2,1.1-0.2c0.4-0.1,0.7-0.1,1.1-0.1c0.5,0,1,0.1,1.4,0.2l0.1,0l0,0.1c0.1,0.3,0.2,0.7,0.2,1
							c0,0.3-0.1,0.8-0.2,1.4c-0.1,0.8-0.1,1-0.1,1.1c0,0.1,0,0.3,0,0.4c0.1,0,0.2,0,0.4,0c0.2,0,0.6,0,1.1,0
							c0.7-0.1,0.8-0.1,0.8-0.1c0.3,0,0.5,0,0.8,0.1l0.2,0l0,0.2c0.1,0.3-0.1,0.5-0.4,0.6c-0.2,0.1-0.4,0.1-0.6,0.2
							c-0.2,0-0.6,0.1-1.3,0.1c-0.5,0-0.9,0.1-1.1,0.4c0,0.5,0,1.2-0.1,2.3c-0.1,1.1-0.1,1.7-0.1,2.1c0,0.8,0.1,1.5,0.2,2.1
							c0.1,0.6,0.3,1.2,0.6,1.8c0,0,0.1,0.1,0.2,0.2c0.2,0.1,0.3,0.1,0.3,0.1c0,0,0.1,0,0.4-0.2c0.2-0.1,0.5-0.4,0.8-0.8
							c0.3-0.4,0.5-0.9,0.6-1.5l0.1-0.3l0.2,0.1c0.4,0.2,0.4,0.5,0.4,0.7c0,0.2-0.1,0.4-0.2,0.7c-0.2,0.3-0.2,0.5-0.2,0.5v0l0,0
							c-0.2,0.5-0.5,0.9-0.9,1.3c-0.4,0.3-0.9,0.6-1.6,1l0,0l0,0C105.7,28.6,105.5,28.7,105.2,28.7"/>
						<path id="Fill-9" class="st1" d="M104.1,12.9c0.5,0,0.9,0.1,1.3,0.2c0.1,0.3,0.2,0.6,0.2,0.9c0,0.3,0,0.8-0.2,1.4
							c-0.1,0.6-0.1,1-0.1,1.1c0,0.2,0,0.4,0.1,0.7c0.1,0,0.3,0,0.5,0c0.2,0,0.6,0,1.1,0c0.5,0,0.7,0,0.8,0c0.3,0,0.5,0,0.7,0.1
							c0,0.2,0,0.3-0.2,0.4c-0.2,0.1-0.4,0.1-0.5,0.1c-0.2,0-0.6,0.1-1.3,0.1c-0.7,0-1.1,0.2-1.3,0.5c0,0.5,0,1.3-0.1,2.3
							c-0.1,1-0.1,1.7-0.1,2.1c0,0.8,0.1,1.5,0.2,2.2c0.1,0.6,0.3,1.3,0.7,1.9c0,0,0.1,0.1,0.3,0.2c0.2,0.1,0.3,0.2,0.4,0.2
							c0.1,0,0.2-0.1,0.5-0.2c0.3-0.1,0.6-0.4,0.8-0.9c0.3-0.4,0.5-0.9,0.6-1.5c0.2,0.1,0.3,0.3,0.3,0.5c0,0.1-0.1,0.3-0.2,0.6
							c-0.1,0.3-0.2,0.5-0.2,0.6c-0.2,0.5-0.4,0.9-0.8,1.2c-0.4,0.3-0.9,0.6-1.5,1c-0.3,0.1-0.6,0.1-0.8,0.1c-0.7,0-1.2-0.1-1.7-0.4
							c-0.4-0.3-1-0.7-1.6-1.2c-0.2-0.5-0.4-1-0.5-1.6c-0.1-0.6-0.2-1.2-0.2-1.8c0-0.5,0.1-1.4,0.2-2.6c0.1-1.2,0.2-2,0.2-2.4
							c-0.3-0.1-0.6-0.1-1-0.1h-0.5c-0.3,0-0.6,0-0.7,0c-0.2,0-0.4-0.1-0.6-0.2v-0.2c0.2-0.1,0.8-0.2,1.6-0.2c0.9,0,1.3-0.3,1.3-0.9
							l0.4-3.5c0.3-0.1,0.7-0.2,1-0.2C103.4,12.9,103.8,12.9,104.1,12.9 M104.1,12.5c-0.3,0-0.7,0-1.1,0.1c-0.4,0.1-0.7,0.1-1.1,0.2
							l-0.3,0.1l-0.4,3.9v0c0,0.1,0,0.4-0.9,0.5c-1.2,0.1-1.6,0.2-1.8,0.3l-0.2,0.1v0.7l0.2,0.1c0.3,0.1,0.5,0.2,0.7,0.2
							c0.2,0,0.4,0,0.8,0h0.5c0.2,0,0.4,0,0.6,0c0,0.4-0.1,1.1-0.2,2c-0.1,1.2-0.2,2.1-0.2,2.6c0,0.6,0.1,1.3,0.2,1.9
							c0.1,0.6,0.3,1.2,0.6,1.7l0,0.1l0.1,0.1c0.6,0.5,1.2,0.9,1.6,1.2c0.5,0.3,1.2,0.5,1.9,0.5c0.3,0,0.6,0,0.9-0.1l0.1,0l0,0
							c0.7-0.4,1.2-0.7,1.6-1c0.5-0.4,0.8-0.8,1-1.4l0-0.1v-0.1c0,0,0-0.1,0.2-0.4c0.2-0.4,0.3-0.6,0.3-0.8c0-0.4-0.2-0.7-0.5-0.9
							l-0.5-0.3l-0.1,0.5c-0.1,0.5-0.3,1-0.6,1.4c-0.3,0.5-0.5,0.6-0.7,0.7c-0.2,0.1-0.3,0.1-0.3,0.2c0,0-0.1,0-0.1-0.1
							c-0.1-0.1-0.1-0.1-0.2-0.1c-0.3-0.6-0.5-1.1-0.6-1.7c-0.1-0.6-0.2-1.3-0.2-2.1c0-0.3,0-1,0.1-2c0.1-1,0.1-1.7,0.1-2.2
							c0.2-0.1,0.5-0.2,0.9-0.2c0.9,0,1.2-0.1,1.4-0.1c0.2,0,0.4-0.1,0.6-0.2c0.4-0.1,0.6-0.5,0.5-0.9l-0.1-0.3l-0.3-0.1
							c-0.3-0.1-0.6-0.1-0.8-0.1c0,0,0,0-0.8,0.1c-0.4,0-0.8,0-1,0c-0.1,0-0.1,0-0.2,0c0-0.1,0-0.2,0-0.2c0,0,0-0.2,0.1-1
							c0.1-0.6,0.2-1.1,0.2-1.4c0-0.4-0.1-0.7-0.2-1.1l-0.1-0.2l-0.2-0.1C105.1,12.6,104.6,12.5,104.1,12.5"/>
						<path id="Fill-10" class="st0" d="M113,28.5c-0.4,0-0.8,0-1-0.1c-0.3,0-0.5-0.1-0.8-0.3c-0.4,0-0.9-0.1-1.3-0.3
							c-0.4-0.2-0.8-0.5-1.1-0.9l0,0l0,0c-0.1-0.2-0.1-0.4-0.1-0.7c0-0.6,0.3-1.1,0.8-1.3c0.5-0.1,0.9-0.2,1.4-0.2
							c0.4,0,0.8,0.1,1.1,0.2c0.3,0.1,0.7,0.3,0.9,0.5l0,0l0,0c0.1,0.3,0.2,0.5,0.2,0.7c0,0.2-0.1,0.5-0.2,0.7l0,0.1l-0.1,0
							c-0.1,0-0.3,0.1-0.6,0.2c-0.1,0-0.2,0.1-0.3,0.1c0.1,0,0.1,0,0.2,0.1c0.3,0.1,0.6,0.1,1,0.1c0.3,0,0.6,0,1-0.1
							c0.4-0.1,0.7-0.1,1-0.2c0.3-0.1,0.6-0.3,0.8-0.6c0.2-0.2,0.3-0.5,0.2-0.7l0,0l0,0c0-0.2,0-0.4-0.2-0.5
							c-0.3-0.2-0.5-0.3-0.8-0.4c-0.1-0.1-0.7-0.3-3-0.7c-1.9-0.4-2.9-1.4-2.9-2.9c0.1-0.8,0.4-1.4,1-1.8c0.5-0.4,1.3-0.8,2.4-1.3
							c1-0.3,1.9-0.4,3-0.4c0.7,0,1.3,0.1,1.8,0.2c0.6,0.1,1.1,0.3,1.6,0.6l0.1,0l0.4,0.7l0,0c0.1,0.4,0,0.8-0.2,1.1
							c-0.2,0.3-0.5,0.5-0.9,0.7l0,0l0,0c-0.4,0.1-0.8,0.2-1.1,0.2c-0.4,0-0.7-0.1-1-0.2c-0.3-0.1-0.6-0.2-0.9-0.4
							c-0.2-0.2-0.5-0.5-0.4-1l0,0l0,0c0.3-0.5,0.5-0.7,0.9-0.8c0.1,0,0.2-0.1,0.3-0.1c-0.1,0-0.2,0-0.3,0c-0.3,0-0.7,0-1.3,0.1
							c-0.5,0.1-0.9,0.1-1.2,0.1c0,0-0.5,0.3-0.5,0.3c-0.3,0.2-0.5,0.3-0.5,0.4c0,0.3,0,0.5,0.2,0.7c0.2,0.2,0.4,0.4,0.6,0.5
							c0.2,0.1,0.9,0.2,3.3,0.7c2.1,0.4,3.1,1.4,3.1,2.9v0l0,0c-0.2,1.1-0.7,1.9-1.6,2.6c-0.9,0.6-1.9,1-3.1,1.3l0,0H113"/>
						<path id="Fill-11" class="st1" d="M115.5,18c0.6,0,1.2,0.1,1.8,0.2c0.6,0.1,1.1,0.3,1.6,0.6l0.4,0.6c0.1,0.3,0,0.6-0.2,0.9
							c-0.2,0.3-0.4,0.5-0.8,0.7c-0.4,0.1-0.7,0.2-1.1,0.2c-0.3,0-0.7,0-1-0.1c-0.3-0.1-0.6-0.2-0.9-0.4c-0.2-0.2-0.3-0.5-0.3-0.8
							c0.2-0.4,0.5-0.6,0.7-0.7c0.3-0.1,0.5-0.1,0.6-0.1h0.9c-0.2-0.1-0.4-0.2-0.7-0.3c-0.3-0.1-0.6-0.1-0.9-0.1
							c-0.3,0-0.7,0-1.3,0.1c-0.6,0.1-1,0.1-1.2,0.1c-0.1,0-0.2,0.1-0.6,0.3c-0.3,0.2-0.5,0.4-0.6,0.6c-0.1,0.3,0,0.6,0.2,0.9
							c0.2,0.3,0.4,0.5,0.7,0.6c0.3,0.1,1.4,0.3,3.4,0.7c2,0.4,3,1.3,3,2.7c-0.2,1-0.7,1.8-1.5,2.4c-0.8,0.6-1.9,1-3.1,1.3h-0.8H113
							c-0.4,0-0.7,0-1-0.1c-0.3,0-0.5-0.1-0.8-0.3c-0.4,0-0.9-0.1-1.3-0.3c-0.4-0.2-0.7-0.5-1-0.8c-0.1-0.2-0.1-0.4-0.1-0.6
							c0-0.5,0.2-0.9,0.7-1c0.4-0.1,0.9-0.2,1.3-0.2c0.4,0,0.7,0.1,1,0.2c0.3,0.1,0.6,0.3,0.9,0.5c0.1,0.2,0.2,0.4,0.2,0.6
							c0,0.2-0.1,0.4-0.2,0.6c-0.1,0-0.4,0.1-0.7,0.3c-0.3,0.1-0.6,0.2-0.8,0.2c0.2,0.2,0.4,0.3,0.7,0.4c0.3,0.1,0.7,0.1,1,0.1
							c0.3,0,0.6,0,1-0.1c0.4-0.1,0.7-0.1,1-0.2c0.3-0.2,0.6-0.4,0.9-0.7c0.2-0.3,0.3-0.6,0.3-0.9c0.1-0.3-0.1-0.6-0.3-0.7
							c-0.3-0.2-0.5-0.3-0.8-0.4c-0.3-0.1-1.3-0.4-3.1-0.8c-1.8-0.4-2.7-1.3-2.7-2.7c0.1-0.7,0.4-1.3,0.9-1.7
							c0.5-0.4,1.3-0.8,2.4-1.3C113.5,18.1,114.5,18,115.5,18L115.5,18z M115.5,17.5c-1,0-2,0.1-3,0.4l0,0l0,0
							c-1.1,0.5-1.9,0.9-2.5,1.3c-0.6,0.4-1,1.1-1.1,2l0,0v0c0,1.2,0.5,2.6,3.1,3.2c2.4,0.5,2.9,0.7,3,0.7c0.2,0.1,0.5,0.3,0.8,0.4
							c0.1,0.1,0.1,0.1,0.1,0.3l0,0.1l0,0.1c0,0.2,0,0.4-0.2,0.5c-0.2,0.2-0.4,0.4-0.7,0.5c-0.3,0.1-0.6,0.2-0.9,0.2
							c-0.3,0.1-0.7,0.1-1,0.1c-0.1,0-0.2,0-0.4,0c0.1,0,0.2,0,0.2-0.1l0.2,0l0.1-0.2c0.1-0.3,0.2-0.5,0.2-0.8
							c0-0.2-0.1-0.5-0.2-0.8l0-0.1l-0.1-0.1c-0.3-0.3-0.7-0.5-1-0.6c-0.4-0.1-0.8-0.2-1.2-0.2c-0.5,0-0.9,0.1-1.4,0.2l0,0l0,0
							c-0.6,0.2-1,0.7-1,1.5c0,0.3,0,0.5,0.1,0.7l0,0.1l0,0.1c0.3,0.4,0.7,0.8,1.2,1c0.4,0.2,0.9,0.3,1.3,0.3
							c0.3,0.1,0.5,0.2,0.8,0.3c0.3,0,0.6,0.1,1.1,0.1h1.7l0,0c1.3-0.3,2.3-0.7,3.2-1.3c0.9-0.7,1.5-1.6,1.7-2.7l0,0v0
							c0-1.1-0.5-2.4-2.8-3c0.1,0,0.1,0,0.2,0c0.4,0,0.8-0.1,1.2-0.2l0,0l0,0c0.4-0.2,0.7-0.5,1-0.8c0.3-0.4,0.3-0.8,0.2-1.3l0-0.1
							l-0.5-0.8l-0.1-0.1c-0.5-0.3-1.1-0.5-1.7-0.6C116.8,17.6,116.2,17.5,115.5,17.5L115.5,17.5z M113.4,19.2c0.3,0,0.6,0,1.1-0.1
							c0.2,0,0.4,0,0.5-0.1c-0.1,0.1-0.3,0.3-0.4,0.5l0,0.1l0,0.1c-0.1,0.7,0.2,1,0.4,1.2l0,0l0,0c0.2,0.1,0.4,0.2,0.7,0.3
							c-2-0.4-2.5-0.6-2.7-0.6c-0.2-0.1-0.3-0.2-0.5-0.4c-0.1-0.2-0.2-0.3-0.1-0.5c0-0.1,0.1-0.2,0.4-0.3
							C113.1,19.4,113.3,19.3,113.4,19.2C113.4,19.2,113.4,19.2,113.4,19.2L113.4,19.2z"/>
						<path id="Fill-12" class="st0" d="M32.7,29.5c-1.9,0-3.7-0.6-5.4-1.7c-1.7-1.1-2.8-2.5-3.3-4c-0.5-1.5-0.8-2.9-0.8-4.2
							c0-1.6,0.3-3.2,0.9-4.8c0.6-1.6,1.4-3.1,2.4-4.5c2.3-2.7,5.3-4.1,8.9-4.2c0,0,0.8,0,0.8,0c0.2,0,0.6,0,1.1,0.1
							c1.1,0.3,1.8,0.6,2.3,0.9c0.5,0.3,0.8,0.7,1.1,1.2c0.6,0.8,0.9,1.7,0.9,2.9c0,0.9-0.2,1.7-0.6,2.5l0,0l0,0
							c-0.3,0.4-0.7,0.7-1,0.9c-0.4,0.3-0.8,0.4-1.3,0.4h0l0,0c-1.1-0.1-2-0.3-2.7-0.6c-0.8-0.3-1.2-0.7-1.4-1.2
							c-0.2-0.5-0.2-0.8-0.2-1c0-0.3,0.1-0.6,0.2-0.9c0.1-0.3,0.2-0.4,0.2-0.6l0,0l0,0c0.2-0.3,0.5-0.5,0.8-0.7
							c0.3-0.1,0.7-0.2,1.1-0.2l0,0c0.3,0,0.6,0,0.9,0.1c0.2,0,0.5,0.1,0.8,0.2c0.3,0.1,0.6,0.3,1,0.8c0.3,0.3,0.5,0.6,0.7,0.8
							c0.1-0.1,0.1-0.3,0.1-0.6c0-0.2,0-0.5-0.1-0.9C40,9.9,40,9.6,40,9.5c-0.4-0.7-0.9-1.2-1.5-1.6c-0.6-0.4-1.3-0.6-2-0.6l-0.3,0
							c-1.4,0-2.6,0.6-3.7,1.8c-1,1.2-2,2.7-2.8,4.5c-0.3,1.1-0.6,2.2-0.8,3.3c-0.2,1.1-0.3,2.2-0.3,3.2c0,2,0.4,3.8,1.1,5.4
							c0.5,0.8,1.1,1.4,1.9,1.7c0.8,0.3,1.7,0.5,2.7,0.5l0.1,0c0.3,0,0.6,0,0.9-0.1c0.3,0,0.8-0.1,1.3-0.2c0.5-0.1,1.2-0.4,1.9-1.1
							c0.8-0.6,1.5-1.5,2.2-2.4l0,0l0.1,0c0.1-0.1,0.2-0.1,0.3-0.1c0.2,0,0.3,0.1,0.4,0.3l0,0.1l0,0.1c-0.6,1.7-1.8,3-3.5,3.9
							C36.5,29,34.7,29.5,32.7,29.5L32.7,29.5"/>
						<path id="Fill-13" class="st1" d="M36.1,6.4c0.2,0,0.6,0,1.1,0.1c1,0.3,1.7,0.6,2.2,0.9c0.4,0.3,0.8,0.7,1.1,1.1
							c0.6,0.8,0.9,1.7,0.9,2.7c0,0.9-0.2,1.7-0.6,2.3c-0.3,0.4-0.7,0.7-1,0.9c-0.3,0.2-0.7,0.3-1.1,0.3c-1.1-0.1-2-0.3-2.7-0.6
							c-0.7-0.3-1.1-0.6-1.3-1.1c-0.2-0.5-0.2-0.8-0.2-0.9c0-0.3,0.1-0.5,0.2-0.8c0.1-0.3,0.2-0.5,0.3-0.6c0.2-0.3,0.4-0.5,0.7-0.6
							c0.3-0.1,0.7-0.2,1.1-0.2h0c0.3,0,0.6,0,0.8,0.1c0.2,0,0.5,0.1,0.7,0.2c0.3,0.1,0.6,0.3,0.9,0.7c0.4,0.4,0.7,0.7,0.9,0.9
							c0.3-0.1,0.4-0.4,0.4-0.9c0-0.2,0-0.5-0.1-0.9c-0.1-0.4-0.1-0.7-0.1-0.8c-0.4-0.7-0.9-1.3-1.6-1.7C38,7.2,37.3,7,36.5,7h0
							l-0.3,0c-1.5,0-2.8,0.6-3.8,1.8c-1.1,1.2-2,2.7-2.8,4.6c-0.3,1.1-0.6,2.2-0.8,3.3c-0.2,1.1-0.3,2.2-0.3,3.3
							c0,2,0.4,3.8,1.2,5.5c0.5,0.8,1.2,1.4,2.1,1.8c0.8,0.4,1.8,0.5,2.8,0.5c0,0,0,0,0.1,0c0.3,0,0.6,0,0.9-0.1
							c0.3,0,0.8-0.1,1.3-0.2c0.6-0.1,1.2-0.5,2-1.1c0.8-0.6,1.5-1.5,2.2-2.5c0.1,0,0.1-0.1,0.2-0.1c0.1,0,0.2,0.1,0.2,0.2
							c-0.6,1.6-1.8,2.9-3.4,3.8c-1.6,0.9-3.4,1.4-5.3,1.4c0,0,0,0-0.1,0c-1.9,0-3.6-0.6-5.3-1.7c-1.6-1.1-2.7-2.4-3.2-3.9
							c-0.5-1.5-0.8-2.8-0.8-4.1c0-1.6,0.3-3.2,0.9-4.7c0.6-1.6,1.4-3.1,2.4-4.4c2.3-2.7,5.2-4.1,8.8-4.1
							C35.6,6.4,35.9,6.4,36.1,6.4L36.1,6.4 M36.1,5.9L36.1,5.9l-0.3,0l-0.5,0c-3.7,0-6.7,1.4-9.1,4.2l0,0l0,0
							c-1,1.4-1.8,2.9-2.4,4.5c-0.6,1.6-0.9,3.3-0.9,4.9c0,1.3,0.3,2.7,0.8,4.3c0.6,1.6,1.7,2.9,3.4,4.1c1.7,1.2,3.5,1.7,5.5,1.7
							h0.1c2,0,3.8-0.5,5.5-1.4c1.7-1,2.9-2.3,3.6-4l0.1-0.2l-0.1-0.2c-0.1-0.2-0.4-0.4-0.6-0.4c-0.1,0-0.3,0-0.4,0.1l-0.1,0.1
							l-0.1,0.1c-0.7,1-1.4,1.8-2.1,2.4c-0.7,0.6-1.3,0.9-1.8,1c-0.5,0.1-1,0.2-1.3,0.2c-0.3,0-0.6,0.1-0.9,0.1l-0.1,0
							c-0.9,0-1.8-0.2-2.6-0.5c-0.8-0.3-1.4-0.9-1.8-1.6c-0.7-1.6-1.1-3.4-1.1-5.3c0-1,0.1-2.1,0.3-3.2c0.2-1.1,0.4-2.2,0.8-3.2
							c0.8-1.8,1.7-3.3,2.8-4.5c1-1.1,2.1-1.7,3.5-1.7l0.3,0h0c0.7,0,1.3,0.2,1.9,0.6c0.6,0.4,1,0.9,1.4,1.5c0,0.1,0,0.3,0.1,0.7
							C40,10.7,40,11,40,11.1c0,0.1,0,0.1,0,0.1c-0.1-0.1-0.3-0.3-0.5-0.5c-0.4-0.5-0.8-0.7-1.1-0.8c-0.3-0.1-0.6-0.1-0.8-0.2
							c-0.3,0-0.6-0.1-0.9-0.1l0,0c-0.5,0-0.9,0.1-1.2,0.2c-0.4,0.1-0.7,0.4-0.9,0.7l0,0.1l0,0.1c0,0.1-0.1,0.3-0.2,0.6
							c-0.2,0.3-0.2,0.6-0.2,1c0,0.2,0.1,0.5,0.3,1.1c0.2,0.6,0.7,1,1.5,1.4c0.7,0.3,1.7,0.5,2.8,0.6l0,0h0c0.5,0,1-0.1,1.4-0.4
							c0.4-0.3,0.7-0.6,1.1-1l0,0l0,0c0.4-0.8,0.7-1.6,0.7-2.6c0-1.2-0.3-2.2-1-3c-0.3-0.5-0.7-0.9-1.2-1.2
							c-0.5-0.3-1.2-0.6-2.3-0.9l0,0l0,0C36.7,6,36.4,5.9,36.1,5.9"/>
						<path id="Fill-14" class="st0" d="M41.8,27.8c0.1-0.3,0.4-0.5,0.9-0.5c0.4,0,0.5-0.1,0.6-0.1c0-0.5-0.1-1-0.1-1.7
							c0-0.7,0-1.4,0-2l0-2.7c-0.1-0.7-0.2-1.5-0.2-2.4c0-0.9-0.1-1.8-0.1-2.8c-0.2,0-0.4-0.1-0.9-0.1c-0.6,0-1,0-1.3-0.1L40,15.2
							l0.6-0.3c0.3-0.1,0.7-0.2,1.2-0.3c0.5-0.1,0.8-0.1,1.1-0.1l0,0l0,0c0.2,0.1,0.5,0.1,0.8,0.1c0.2,0,0.5,0,0.7,0l0.2,0
							c0.2,0,0.4,0,0.6-0.1l0.1,0c0.2,0,0.5,0,0.7,0c0.2,0,0.4,0.1,0.7,0.2l0.1,0.1l0,0.1c-0.2,1.4-0.3,2.8-0.3,4.2
							c0,1.4-0.1,3.1,0,5l0,2.8l1.6,0l0,0.6l-0.2,0c-0.8,0.2-1.7,0.4-2.5,0.4c-0.9,0.1-1.9,0.1-3.2,0.1l-0.3,0L41.8,27.8"/>
						<path id="Fill-15" class="st1" d="M45.2,14.7c0.2,0,0.4,0,0.6,0c0.2,0,0.4,0.1,0.6,0.2c-0.2,1.4-0.3,2.8-0.3,4.2
							c0,1.4-0.1,3.1,0,5l0,3l1.6,0l0,0.2c-0.8,0.2-1.6,0.4-2.5,0.4c-0.9,0.1-1.9,0.1-3.2,0.1c0.1-0.2,0.3-0.3,0.7-0.4
							c0.4,0,0.7-0.1,0.8-0.3c-0.1-0.5-0.1-1.1-0.1-1.8c0-0.7,0-1.3,0-2c0-0.5,0-0.9,0-1.4c0-0.5,0-0.9,0-1.4
							c-0.1-0.7-0.2-1.5-0.2-2.4c0-0.9-0.1-1.9-0.1-3c-0.2-0.1-0.6-0.1-1.1-0.1c-0.6,0-1-0.1-1.3-0.1c0.3-0.1,0.6-0.2,1.1-0.3
							c0.5-0.1,0.8-0.1,1.1-0.1c0.2,0.1,0.5,0.1,0.8,0.1h0c0.2,0,0.5,0,0.7,0C44.7,14.7,44.9,14.7,45.2,14.7
							C45.2,14.7,45.2,14.7,45.2,14.7 M45.2,14.3L45.2,14.3L45.2,14.3l-0.1,0c-0.2,0-0.4,0-0.6,0.1l-0.2,0c-0.2,0-0.5,0-0.7,0
							c-0.3,0-0.5,0-0.7-0.1l-0.1,0l-0.1,0c-0.2,0-0.6,0.1-1.1,0.1c-0.5,0.1-0.9,0.2-1.2,0.3l-1.2,0.6l1.3,0.3
							c0.3,0.1,0.8,0.1,1.4,0.1c0.3,0,0.6,0,0.7,0c0,1,0,1.8,0.1,2.6c0,1,0.1,1.8,0.2,2.5l0,1.3c0,0.2,0,0.4,0,0.7
							c0,0.2,0,0.5,0,0.7c0,0.6,0,1.3,0,2c0,0.6,0.1,1.1,0.1,1.5c-0.1,0-0.2,0-0.4,0.1c-0.6,0-1,0.3-1.1,0.7l-0.1,0.6l0.6,0
							c1.3,0,2.3,0,3.2-0.1c0.9-0.1,1.7-0.2,2.6-0.4l0.3-0.1l0-1l-0.4,0l-1.2,0l0-2.6c0-1.9,0-3.6,0-5c0-1.4,0.1-2.8,0.3-4.1l0-0.3
							l-0.3-0.1c-0.2-0.1-0.5-0.2-0.7-0.3C45.7,14.3,45.5,14.3,45.2,14.3"/>
						<path id="Fill-16" class="st0" d="M47.1,27.5l0.2-0.1c0.3-0.2,0.7-0.3,1.2-0.3c0.4,0,0.6-0.1,0.8-0.1
							c-0.1-0.2-0.1-0.4-0.1-0.7c0-0.3-0.1-0.6-0.1-1c0-0.3,0-0.8,0.1-1.5c0-0.7,0.1-1.2,0.1-1.5c0-0.5,0-0.9-0.1-1.3
							c-0.1-0.4-0.1-0.7-0.3-1c-0.1,0-0.2,0-0.3,0l-0.3,0c-0.3,0-0.5,0-0.7-0.1l-0.1-0.1v-0.5l0.2,0c0.6-0.1,1.2-0.2,2-0.2
							c0.8-0.1,1.5-0.1,2.2-0.1c0.1,0,0.2,0,0.4,0c0.2,0,0.5,0,0.8,0c0.5,0,1,0.1,1.6,0.1l0.6,0.1l-0.5,0.3
							c-0.2,0.1-0.6,0.2-1.1,0.3c-0.3,0-0.5,0-0.7,0.1c-0.3,0.9-0.4,2.2-0.4,3.8c0,1.6-0.1,2.6-0.1,3.3l2.4,0.2l-1.1,0.5l-6.2,0.4
							L47.1,27.5L47.1,27.5z M50.8,18c-0.9,0-1.7-0.2-2.6-0.7l0,0l0,0c-0.1-0.2-0.2-0.4-0.2-0.7c0-0.3,0.1-0.6,0.2-0.9
							c0.2-0.3,0.4-0.6,0.7-0.7c0.3-0.1,0.7-0.3,1.1-0.4l0,0l0.1,0c0.6,0,1.1,0.1,1.6,0.1c0.5,0.1,1,0.3,1.5,0.6l0.1,0l0,0.1
							c0.2,0.3,0.3,0.6,0.4,0.8c0.1,0.2,0.1,0.4,0.1,0.6c0,0.2,0,0.3-0.1,0.4l0,0.1l-0.1,0C52.8,17.7,51.8,18,50.8,18L50.8,18
							L50.8,18z"/>
						<path id="Fill-17" class="st1" d="M50.1,14.7c0.6,0,1.1,0,1.5,0.1c0.5,0.1,0.9,0.3,1.4,0.5c0.2,0.4,0.3,0.6,0.4,0.8
							c0.1,0.1,0.1,0.3,0.1,0.5c0,0.1,0,0.2-0.1,0.4c-0.8,0.6-1.7,0.8-2.6,0.8c0,0,0,0,0,0c-0.8,0-1.7-0.2-2.4-0.6
							c-0.1-0.1-0.1-0.4-0.1-0.6c0-0.3,0-0.6,0.1-0.8c0.1-0.3,0.3-0.5,0.6-0.6C49.2,14.9,49.6,14.8,50.1,14.7
							C50.1,14.7,50.1,14.7,50.1,14.7L50.1,14.7z M52.2,19c0.2,0,0.5,0,0.8,0c0.4,0,1,0.1,1.6,0.1c-0.2,0.1-0.5,0.2-1,0.2
							c-0.5,0-0.8,0.1-0.8,0.1c-0.3,1-0.4,2.3-0.5,4c0,1.7-0.1,2.9-0.1,3.5l1.8,0.2l-0.3,0.2l-6,0.4l-0.2-0.2
							c0.2-0.2,0.6-0.3,1.1-0.3c0.5,0,0.9-0.1,1-0.1c-0.1-0.3-0.1-0.6-0.2-0.9c0-0.3-0.1-0.6-0.1-1c0-0.3,0-0.8,0.1-1.5
							c0-0.7,0.1-1.2,0.1-1.5c0-0.5,0-0.9-0.1-1.3c-0.1-0.4-0.2-0.8-0.3-1.2c-0.1-0.1-0.3-0.1-0.5-0.1h0l-0.3,0
							c-0.2,0-0.4,0-0.6-0.1v-0.1c0.6-0.1,1.2-0.2,2-0.2c0.8-0.1,1.5-0.1,2.2-0.1C51.9,19,52,19,52.2,19L52.2,19z M50.1,14.2
							L50.1,14.2l-0.1,0l-0.1,0c-0.5,0.1-0.8,0.3-1.1,0.4c-0.4,0.2-0.6,0.4-0.8,0.8l0,0l0,0c-0.1,0.3-0.2,0.6-0.2,1
							c0,0.4,0.1,0.6,0.2,0.9l0.1,0.1l0.1,0.1c0.8,0.5,1.7,0.7,2.7,0.7h0c1,0,2-0.3,2.9-0.9l0.1-0.1l0.1-0.1C54,17,54,16.8,54,16.6
							c0-0.2-0.1-0.5-0.2-0.7c-0.1-0.2-0.2-0.4-0.4-0.8L53.4,15L53.3,15c-0.5-0.3-1-0.5-1.5-0.6C51.2,14.3,50.7,14.2,50.1,14.2
							L50.1,14.2z M52.2,18.6c-0.1,0-0.3,0-0.4,0c-0.7,0-1.4,0-2.2,0.1c-0.8,0.1-1.5,0.1-2,0.2L47.2,19v0.8l0.2,0.1
							c0.2,0.1,0.5,0.2,0.8,0.2l0.3,0h0c0.1,0,0.1,0,0.2,0c0.1,0.3,0.2,0.6,0.2,0.9c0.1,0.4,0.1,0.8,0.1,1.3c0,0.3,0,0.8-0.1,1.5
							c0,0.7-0.1,1.2-0.1,1.5c0,0.4,0,0.8,0.1,1.1c0,0.1,0,0.3,0.1,0.4c-0.1,0-0.3,0-0.5,0c-0.6,0-1,0.2-1.3,0.4l-0.4,0.3l0.7,0.7
							l0.2,0l6-0.4l0.1,0l1.9-0.9L54,26.7l-1.4-0.1c0-0.7,0.1-1.7,0.1-3.1c0-1.5,0.2-2.7,0.4-3.6c0.1,0,0.3,0,0.5,0
							c0.6,0,1-0.1,1.2-0.3l1-0.6l-1.2-0.2c-0.6-0.1-1.2-0.1-1.7-0.2C52.7,18.6,52.4,18.6,52.2,18.6L52.2,18.6z"/>
						<path id="Fill-18" class="st0" d="M58.8,27.9c-0.7,0-1.3-0.1-1.9-0.3c-0.6-0.2-1.2-0.5-1.6-0.9c-0.4-0.4-0.7-0.8-0.8-1.3
							c-0.2-0.5-0.3-1-0.3-1.6c0-0.8,0.1-1.6,0.4-2.4l0,0l0,0c0.6-0.8,1.2-1.5,1.9-2.1c0.7-0.5,1.5-0.8,2.4-0.8
							c0.7,0.1,2.6,0.2,2.6,0.2c1.1,0.2,1.8,0.7,2.2,1.5l0,0l0,0c0,0.1,0.1,0.3,0.1,0.4c0,0.6-0.3,1.1-0.9,1.3l0,0l0,0
							c-0.2,0-0.5,0.1-0.7,0.1c-0.3,0-0.5,0.1-0.7,0.1h0c-0.4,0-0.8-0.1-1.1-0.2c-0.3-0.1-0.6-0.4-0.8-0.7l0,0l0,0
							c0-0.1-0.1-0.2-0.1-0.3c0-0.2,0.1-0.5,0.2-0.7c0.1-0.2,0.3-0.4,0.5-0.5l0,0l0,0c0.4-0.1,0.8-0.1,1.2-0.1h0c0.1,0,0.1,0,0.2,0
							c-0.4-0.1-0.6-0.2-0.8-0.2c-0.5,0-0.9,0.1-1.3,0.4c-0.4,0.2-0.8,0.6-1.1,1c-0.3,0.4-0.5,0.8-0.6,1.3c-0.1,0.5-0.2,1-0.2,1.5
							c0,0.6,0.1,1.2,0.2,1.7c0.2,0.4,0.5,0.8,0.9,1c0.5,0.2,1,0.3,1.6,0.3l0,0c0.6,0,1-0.2,1.4-0.5c0.4-0.3,0.9-0.8,1.6-1.5
							l0.4-0.4l0,0.6c0,0.6-0.2,1.1-0.7,1.5c-0.4,0.4-1,0.8-1.7,1.1l0,0l0,0C60.6,27.8,59.8,27.9,58.8,27.9L58.8,27.9"/>
						<path id="Fill-19" class="st1" d="M58.9,18.8c0.8,0.1,1.7,0.2,2.6,0.2c1,0.2,1.7,0.6,2,1.3c0,0.1,0.1,0.2,0.1,0.4
							c0,0.5-0.2,0.9-0.7,1.1c-0.2,0-0.4,0.1-0.7,0.1c-0.3,0-0.5,0.1-0.7,0.1h0c-0.4,0-0.7-0.1-1-0.2c-0.3-0.1-0.5-0.3-0.7-0.6
							c0-0.1,0-0.2,0-0.2c0-0.2,0.1-0.4,0.2-0.5c0.1-0.2,0.3-0.3,0.4-0.4C60.6,20,61,20,61.4,20c0,0,0,0,0,0c0.4,0,0.8,0,1.1,0.1
							c-0.2-0.2-0.4-0.4-0.7-0.5c-0.4-0.1-0.7-0.2-0.9-0.2c-0.5,0-1,0.1-1.4,0.4c-0.4,0.3-0.8,0.6-1.1,1c-0.3,0.4-0.5,0.9-0.7,1.4
							c-0.1,0.5-0.2,1-0.2,1.5c0,0.6,0.1,1.2,0.3,1.8c0.2,0.5,0.6,0.9,1.1,1.1c0.5,0.2,1,0.4,1.7,0.4h0c0.6,0,1.1-0.2,1.6-0.5
							c0.4-0.3,1-0.9,1.6-1.6c0,0.5-0.2,1-0.6,1.3c-0.4,0.4-1,0.7-1.7,1.1c-0.8,0.3-1.7,0.4-2.5,0.4c0,0-0.1,0-0.1,0
							c-0.7,0-1.3-0.1-1.8-0.2c-0.6-0.2-1.1-0.4-1.6-0.8c-0.4-0.4-0.6-0.8-0.8-1.2c-0.2-0.5-0.2-1-0.2-1.5c0-0.8,0.1-1.5,0.4-2.3
							c0.5-0.8,1.1-1.5,1.8-2C57.3,19.1,58.1,18.8,58.9,18.8 M58.9,18.4L58.9,18.4c-1,0-1.8,0.3-2.6,0.9c-0.7,0.5-1.3,1.3-1.9,2.1
							l0,0l0,0c-0.3,0.8-0.5,1.6-0.4,2.4c0,0.6,0.1,1.2,0.3,1.7c0.2,0.5,0.5,1,0.9,1.4l0,0l0,0c0.5,0.4,1.1,0.8,1.7,0.9
							c0.6,0.2,1.3,0.3,2,0.3l0.1,0c0.9,0,1.8-0.1,2.6-0.4l0,0l0,0c0.7-0.4,1.3-0.7,1.7-1.1c0.5-0.5,0.8-1,0.8-1.7l0-1.1l-0.8,0.8
							c-0.6,0.7-1.1,1.2-1.5,1.5c-0.4,0.3-0.8,0.4-1.3,0.4l0,0c-0.5,0-1-0.1-1.5-0.3c-0.4-0.2-0.7-0.5-0.8-0.9
							c-0.2-0.6-0.2-1.1-0.2-1.7c0-0.5,0.1-1,0.2-1.4c0.1-0.4,0.3-0.9,0.6-1.2c0.2-0.2,0.4-0.5,0.6-0.6c-0.1,0.2-0.2,0.4-0.2,0.7
							c0,0.1,0,0.2,0.1,0.4l0,0.1l0,0.1c0.2,0.4,0.6,0.6,0.9,0.8c0.3,0.1,0.7,0.2,1.2,0.2h0c0.2,0,0.4,0,0.8-0.1
							c0.3,0,0.5-0.1,0.7-0.1l0,0l0,0c0.7-0.3,1-0.8,1-1.5c0-0.2,0-0.3-0.1-0.5l0,0l0,0c-0.5-0.8-1.2-1.3-2.3-1.6l0,0l0,0l-0.4,0
							C60.4,18.5,59.7,18.4,58.9,18.4L58.9,18.4"/>
						<path id="Fill-20" class="st0" d="M62.4,28.1l0.1-0.3c0.1-0.2,0.2-0.4,0.5-0.4c0.2-0.1,0.4-0.1,0.5-0.1l0,0l0.1,0
							c0,0,0.1,0,0.1,0c0.1,0,0.3,0,0.5-0.1c0.2-0.1,0.3-0.1,0.4-0.2l0-1.9v-0.2l0-0.2c0-0.6,0-1.1-0.1-1.6c0-0.5,0-1.3,0-2.4
							c0-1.1,0-1.7,0-1.7c0-1.1-0.1-2.1-0.2-3.1c-0.1,0-0.1,0-0.2,0c-0.1,0-0.3,0-0.5,0c-0.1,0-0.5,0-0.5,0l0,0
							c-0.2,0-0.4,0-0.6-0.1l-0.2-0.1l0.1-0.2c0.1-0.2,0.2-0.4,0.7-0.5l0.9-0.2c0.3-0.1,0.7-0.1,1.2-0.2c0.5,0,1.1-0.1,1.7-0.1
							l0.1,0l0.4,0.8l0,0.1c0,1.2,0,2.8-0.1,4.8c0,1.5-0.1,2.5-0.1,3c1.2-1.2,2.4-2.3,3.6-3.5c-0.2,0-0.3,0-0.5,0l-0.3,0
							c-0.3,0-0.6,0-0.8-0.1l-0.5-0.1l0.8-0.5l0.1,0c0.4,0,1,0,1.8-0.1c0.9-0.1,1.4-0.1,1.7-0.1l0.1,0c0.2,0,0.3,0,0.5,0
							c0.2,0,0.5,0.1,0.9,0.2l0.4,0.1l-0.4,0.3c-0.1,0.1-0.5,0.3-1.5,0.3c-0.7,0-1.1,0.2-1.3,0.5l0,0l-1.3,1.4
							c0.3,0.9,0.8,1.8,1.3,2.6c0.6,0.8,1.4,1.7,2.4,2.6c0,0,0.1,0,0.1,0c0.1,0,0.3,0,0.4,0c0.2,0,0.3,0,0.3,0h0
							c0.2,0,0.4,0,0.5,0.1c0.2,0.1,0.3,0.2,0.3,0.5l0.1,0.2l-0.2,0c-0.8,0.1-1.8,0.2-3,0.2c-1.1,0-2.2,0.1-3.1,0.1l-0.2,0l-0.1-0.2
							l-0.3,0.1c-0.4,0.1-1.1,0.1-2.1,0.2c-0.9,0-1.6,0.1-2,0.1l-0.3,0l-0.1,0c-0.1,0-0.4,0.1-0.7,0.1c-0.3,0-0.6,0.1-0.8,0.1
							l-0.6,0H62.4L62.4,28.1z M68.3,26.9c0.2,0,0.4,0,0.5,0.1c0.2,0,0.3,0.1,0.4,0.3l0.2,0.2l-0.1-0.3l0.2-0.1
							c0.2-0.1,0.4-0.1,0.8-0.2c0.2,0,0.3,0,0.4-0.1c-0.9-0.9-1.8-1.9-2.7-2.9c-0.3,0.1-0.5,0.3-0.7,0.6l-0.1,2.4c0,0,0,0,0.1,0
							c0.1,0,0.2,0,0.3,0L68.3,26.9L68.3,26.9z"/>
						<path id="Fill-21" class="st1" d="M67,14.7l0.3,0.6c0,1.2,0,2.8-0.1,4.8c0,2-0.1,3.1-0.1,3.4l0.3-0.1c1.3-1.3,2.7-2.6,4-3.9
							c-0.1,0-0.3-0.1-0.4-0.1c-0.2,0-0.4,0-0.5,0l-0.3,0h0c-0.3,0-0.5,0-0.8-0.1l0.3-0.2c0.4,0,1,0,1.8-0.1
							c0.8-0.1,1.4-0.1,1.6-0.1c0,0,0.1,0,0.1,0c0.2,0,0.3,0,0.5,0c0.2,0,0.5,0.1,0.8,0.1c-0.2,0.1-0.7,0.2-1.4,0.2
							c-0.8,0-1.2,0.2-1.5,0.6l-1.4,1.5c0.3,1,0.8,1.9,1.4,2.8c0.6,0.9,1.5,1.7,2.4,2.7c0,0,0.1,0,0.2,0c0,0,0,0,0,0
							c0.1,0,0.3,0,0.4,0c0.1,0,0.2,0,0.3,0h0c0.2,0,0.3,0,0.4,0.1c0.1,0,0.2,0.2,0.2,0.3c-0.8,0.1-1.8,0.2-3,0.2
							c-1.1,0-2.2,0.1-3.1,0.1l-0.1-0.3c0.1-0.1,0.4-0.1,0.8-0.1c0.4,0,0.6-0.1,0.8-0.2c-1-1.1-2-2.2-3-3.3
							c-0.4,0.2-0.7,0.4-0.9,0.8L67.1,27c0.1,0,0.1,0,0.2,0.1c0.1,0,0.2,0,0.4,0c0,0,0,0,0,0c0.3,0,0.5,0,0.6,0c0.2,0,0.4,0,0.5,0
							c0.1,0,0.2,0.1,0.3,0.2c-0.4,0.1-1.1,0.1-2,0.2c-0.9,0-1.6,0.1-2.1,0.1c0,0,0,0,0,0c0,0,0,0,0,0c-0.1,0-0.1,0-0.2,0
							c-0.1,0-0.1,0-0.1,0h-0.1l0.1,0.1c-0.1,0-0.3,0.1-0.6,0.1c-0.3,0-0.6,0.1-0.8,0.1c-0.1,0-0.2,0-0.3,0c-0.1,0-0.2,0-0.2,0
							c0-0.1,0.2-0.2,0.4-0.3c0.2-0.1,0.4-0.1,0.5-0.1c0,0,0.1,0,0.1,0c0.2,0,0.3,0,0.6-0.1c0.3-0.1,0.4-0.2,0.6-0.2l0-2.1v-0.2
							l0-0.2c0-0.6,0-1.1-0.1-1.6c0-0.5,0-1.3,0-2.4c0-1.1,0-1.7,0-1.7c0-1.1-0.1-2.2-0.2-3.3c-0.1,0-0.3-0.1-0.4-0.1
							c-0.2,0-0.3,0-0.5,0c-0.2,0-0.3,0-0.5,0h0c-0.2,0-0.3,0-0.5-0.1c0.1-0.2,0.2-0.3,0.5-0.4c0.3,0,0.6-0.1,0.9-0.2
							c0.3-0.1,0.7-0.1,1.2-0.2C65.7,14.8,66.3,14.7,67,14.7L67,14.7z M67.3,14.3l-0.3,0c-0.7,0-1.3,0-1.8,0.1
							c-0.5,0-0.9,0.1-1.2,0.2c-0.3,0.1-0.6,0.1-0.9,0.2c-0.6,0.1-0.8,0.5-0.8,0.7l-0.1,0.4l0.4,0.1C62.7,16,63,16,63.2,16h0l0,0
							l0.2,0c0.1,0,0.2,0,0.3,0c0.1,0,0.3,0,0.4,0h0c0.1,0.9,0.2,1.9,0.2,2.9c0,0,0,0.4,0,1.7c0,1.1,0,1.9,0,2.4l0,0l0,0
							c0.1,0.5,0.1,1,0.1,1.6l0,0.2l0,0.2l0,1.7c-0.1,0-0.2,0.1-0.3,0.1C63.9,27,63.8,27,63.7,27c0,0,0,0-0.1,0l-0.1,0l-0.1,0l0,0
							c-0.1,0-0.2,0.1-0.4,0.1c-0.5,0.1-0.6,0.4-0.7,0.6l-0.2,0.6h0.6l0.1,0l0.2,0l0.2,0l0.1,0c0.2,0,0.5,0,0.8-0.1
							c0.3,0,0.5-0.1,0.7-0.1l0.1,0l0.2,0c0.4-0.1,1.1-0.1,2-0.1c1,0,1.7-0.1,2.1-0.2l0.1,0l0,0.2l0.4,0c1,0,2,0,3.1-0.1
							c1.2-0.1,2.2-0.1,3-0.2l0.5-0.1l-0.1-0.5c-0.1-0.3-0.2-0.5-0.4-0.6c-0.2-0.1-0.4-0.1-0.6-0.1l0,0h0c0,0-0.1,0-0.3,0
							c-0.1,0-0.3,0-0.4,0h0h0c-0.9-0.9-1.7-1.7-2.3-2.5c-0.6-0.7-1-1.5-1.3-2.4l1.2-1.3l0-0.1c0.1-0.3,0.5-0.4,1.1-0.4
							c0.9,0,1.4-0.1,1.7-0.3l0.7-0.5l-0.9-0.3c-0.4-0.1-0.7-0.2-0.9-0.2c-0.2,0-0.4,0-0.5,0l-0.1,0c-0.3,0-0.8,0-1.7,0.1
							c-0.8,0.1-1.4,0.1-1.8,0.1l-0.1,0l-1.3,0.8l1,0.2c0.2,0.1,0.5,0.1,0.9,0.1h0l0.3,0c-1,1-2,1.9-2.9,2.8c0-0.5,0-1.3,0.1-2.5
							c0-2,0.1-3.6,0.1-4.8l0-0.1L67.3,14.3L67.3,14.3z M67.7,24.6c0.1-0.1,0.2-0.3,0.4-0.4c0.8,0.9,1.5,1.7,2.3,2.5
							c-0.4,0-0.7,0.1-0.8,0.2l-0.2,0.1c-0.1-0.1-0.3-0.2-0.4-0.2c-0.1,0-0.3-0.1-0.6-0.1l-0.2,0l-0.4,0h0c-0.1,0-0.1,0-0.2,0
							L67.7,24.6L67.7,24.6z"/>
					</g>
					<path id="Shape-Copy-5" class="st2" d="M115.7,5.2L108.4,1c-0.2-0.1-0.3-0.1-0.5,0c-0.2,0.1-0.3,0.2-0.3,0.4l0,1.9c0,0,0,0,0,0
						c-0.2,0-0.4,0.1-0.6,0.2c-0.8,0.2-1.5,0.5-2.4,0.9c-0.8,0.3-1.6,0.8-2.3,1.3c-0.5,0.4-1,0.8-1.5,1.3c-1.2,1.3-1.9,3-1.8,4.7
						c0,0.3,0,0.6,0.1,0.8c0,0.2,0.2,0.4,0.5,0.4c0,0,0,0,0,0c0.2,0,0.5-0.2,0.5-0.4c0.1-0.7,0.4-1.4,0.7-1.9
						c0.4-0.6,0.9-1.2,1.5-1.6c0.5-0.3,1.1-0.6,1.7-0.8c0.7-0.2,1.5-0.4,2.4-0.4c0.4,0,0.8,0,1.2,0c0,0,0,0,0.1,0l0,1.8
						c0,0.2,0.1,0.3,0.2,0.4c0.2,0.1,0.3,0.1,0.5,0l7.3-4.1c0.2-0.1,0.3-0.2,0.3-0.4C115.9,5.4,115.8,5.3,115.7,5.2L115.7,5.2z"/>
				</g>
			</g>
		</g>
	</g>
</g>
</svg>
