<?xml version="1.0" encoding="utf-8"?>
<!-- Generator: Adobe Illustrator 19.1.0, SVG Export Plug-In . SVG Version: 6.00 Build 0)  -->
<!DOCTYPE svg PUBLIC "-//W3C//DTD SVG 1.1//EN" "http://www.w3.org/Graphics/SVG/1.1/DTD/svg11.dtd">
<svg version="1.1" id="Layer_1" xmlns="http://www.w3.org/2000/svg" xmlns:xlink="http://www.w3.org/1999/xlink" x="0px" y="0px"
	 width="119.9px" height="40.3px" viewBox="0 0 119.9 40.3" style="enable-background:new 0 0 119.9 40.3;" xml:space="preserve">
<style type="text/css">
	.st0{enable-background:new    ;}
	.st1{clip-path:url(#SVGID_2_);}
	.st2{clip-path:url(#SVGID_6_);}
	.st3{clip-path:url(#SVGID_10_);}
	.st4{clip-path:url(#SVGID_14_);fill:#4B4A4B;}
</style>
<g>
	<g>
		<g>
			<g class="st0">
				<g>
					<g>
						<defs>
							<path id="SVGID_1_" d="M119.9,35.9c0,2.4-2.1,4.4-4.7,4.4H85.7c-2.6,0-4.7-2-4.7-4.4V19.6c0-2.4,2.1-4.4,4.7-4.4h29.5
								c2.6,0,4.7,2,4.7,4.4V35.9"/>
						</defs>
						<use xlink:href="#SVGID_1_"  style="overflow:visible;fill-rule:evenodd;clip-rule:evenodd;fill:#DA272E;"/>
						<clipPath id="SVGID_2_">
							<use xlink:href="#SVGID_1_"  style="overflow:visible;"/>
						</clipPath>
						<g class="st1">
							<defs>
								<rect id="SVGID_3_" x="0" y="15" width="120" height="26"/>
							</defs>
							<clipPath id="SVGID_4_">
								<use xlink:href="#SVGID_3_"  style="overflow:visible;"/>
							</clipPath>
						</g>
					</g>
					<g>
						<defs>
							<rect id="SVGID_5_" y="37.2" width="66.4" height="1.3"/>
						</defs>
						<use xlink:href="#SVGID_5_"  style="overflow:visible;fill-rule:evenodd;clip-rule:evenodd;fill:#9EC542;"/>
						<clipPath id="SVGID_6_">
							<use xlink:href="#SVGID_5_"  style="overflow:visible;"/>
						</clipPath>
						<g class="st2">
							<defs>
								<rect id="SVGID_7_" x="0" y="15" width="120" height="26"/>
							</defs>
							<clipPath id="SVGID_8_">
								<use xlink:href="#SVGID_7_"  style="overflow:visible;"/>
							</clipPath>
						</g>
					</g>
					<g>
						<defs>
							<polyline id="SVGID_9_" points="0,17.6 10.5,17.6 10.5,21.6 4.9,21.6 4.9,24.3 9.2,24.3 9.2,28.1 4.9,28.1 4.9,35.2 0,35.2 
								0,17.6 							"/>
						</defs>
						<use xlink:href="#SVGID_9_"  style="overflow:visible;fill-rule:evenodd;clip-rule:evenodd;fill:#105E36;"/>
						<clipPath id="SVGID_10_">
							<use xlink:href="#SVGID_9_"  style="overflow:visible;"/>
						</clipPath>
						<g class="st3">
							<defs>
								<rect id="SVGID_11_" x="0" y="15" width="120" height="26"/>
							</defs>
							<use xlink:href="#SVGID_11_"  style="overflow:visible;fill:#105E36;"/>
							<clipPath id="SVGID_12_">
								<use xlink:href="#SVGID_11_"  style="overflow:visible;"/>
							</clipPath>
						</g>
					</g>
				</g>
			</g>
		</g>
	</g>
	<g>
		<g>
			<defs>
				<path id="SVGID_13_" d="M115.7,4.2l-7.3-4.1c-0.2-0.1-0.3-0.1-0.5,0c-0.2,0.1-0.3,0.2-0.3,0.4l0,1.9c0,0,0,0,0,0
					c-0.2,0-0.4,0.1-0.6,0.2c-0.8,0.2-1.5,0.5-2.4,0.9c-0.8,0.3-1.6,0.8-2.3,1.3c-0.5,0.4-1,0.8-1.5,1.3c-1.2,1.3-1.9,3-1.8,4.7
					c0,0.3,0,0.6,0.1,0.8c0,0.2,0.2,0.4,0.5,0.4c0,0,0,0,0,0c0.2,0,0.5-0.2,0.5-0.4c0.1-0.7,0.4-1.4,0.7-1.9
					c0.4-0.6,0.9-1.2,1.5-1.6c0.5-0.3,1.1-0.6,1.7-0.8c0.7-0.2,1.5-0.4,2.4-0.4c0.4,0,0.8,0,1.2,0c0,0,0,0,0.1,0l0,1.8
					c0,0.2,0.1,0.3,0.2,0.4c0.2,0.1,0.3,0.1,0.5,0l7.3-4.1c0.2-0.1,0.3-0.2,0.3-0.4C115.9,4.5,115.8,4.3,115.7,4.2z"/>
			</defs>
			<use xlink:href="#SVGID_13_"  style="overflow:visible;fill-rule:evenodd;clip-rule:evenodd;fill:#575656;"/>
			<clipPath id="SVGID_14_">
				<use xlink:href="#SVGID_13_"  style="overflow:visible;"/>
			</clipPath>
			<rect x="116.9" y="-27.9" class="st4" width="26.9" height="22"/>
		</g>
	</g>
	<g>
		<g>
			<defs>
				<path id="SVGID_15_" d="M20.7,33.2c0,0.7,0.1,1.4,0.4,2h-4.5c-0.2-0.5-0.2-1-0.2-1.4l0,0c-0.6,1.3-1.8,1.8-3.1,1.8
					c-2.5,0-3.6-1.4-3.6-3.9c0-3,1.4-3.8,3.2-4.2l2.2-0.5c1-0.2,1.3-0.5,1.3-1.4c0-0.7-0.4-1-0.9-1c-1,0-1.2,0.8-1.2,1.5h-4.2
					c0-3,1.6-4.5,5.3-4.5c4.3,0,5.2,1.8,5.2,3.8V33.2z M16.4,28.7c-0.3,0.2-0.7,0.3-1.2,0.5c-0.8,0.3-0.9,0.9-0.9,1.7
					c0,0.8,0.3,1.3,1,1.3c0.9,0,1.1-0.9,1.1-1.6V28.7z"/>
			</defs>
			<use xlink:href="#SVGID_15_"  style="overflow:visible;fill-rule:evenodd;clip-rule:evenodd;fill:#105E36;"/>
			<clipPath id="SVGID_16_">
				<use xlink:href="#SVGID_15_"  style="overflow:visible;"/>
			</clipPath>
		</g>
	</g>
	<g>
		<g>
			<defs>
				<path id="SVGID_17_" d="M21.7,21.9h4.6v2h0c0.5-1.3,1.5-2.3,2.8-2.3c0.5,0,0.7,0,0.8,0.1v4.4c-0.2,0-0.4,0-0.6-0.1
					c-0.2,0-0.4,0-0.9,0c-1.6,0-2,0.9-2,2.4v6.9h-4.8V21.9"/>
			</defs>
			<use xlink:href="#SVGID_17_"  style="overflow:visible;fill-rule:evenodd;clip-rule:evenodd;fill:#105E36;"/>
			<clipPath id="SVGID_18_">
				<use xlink:href="#SVGID_17_"  style="overflow:visible;"/>
			</clipPath>
		</g>
	</g>
	<g>
		<g>
			<defs>
				<path id="SVGID_19_" d="M44,26.4c0-1-0.3-1.3-0.9-1.3c-0.6,0-1,0.5-1,1.3v8.8h-4.8v-8.8c0-1-0.3-1.3-0.9-1.3c-0.6,0-1,0.5-1,1.3
					v8.8h-4.8V21.9h4.6v1.5h0c0.7-1.3,1.9-1.9,3.5-1.9c1.3,0,2.5,0.5,3.2,1.9c0.7-1.3,1.9-1.9,3.5-1.9c1.7,0,3.2,0.9,3.2,3.4v10.3
					H44V26.4"/>
			</defs>
			<use xlink:href="#SVGID_19_"  style="overflow:visible;fill-rule:evenodd;clip-rule:evenodd;fill:#105E36;"/>
			<clipPath id="SVGID_20_">
				<use xlink:href="#SVGID_19_"  style="overflow:visible;"/>
			</clipPath>
		</g>
	</g>
	<g>
		<g>
			<defs>
				<path id="SVGID_21_" d="M49.7,17.4h4.8v3.4h-4.8V17.4z M49.7,21.9h4.8v13.3h-4.8V21.9z"/>
			</defs>
			<use xlink:href="#SVGID_21_"  style="overflow:visible;fill-rule:evenodd;clip-rule:evenodd;fill:#105E36;"/>
			<clipPath id="SVGID_22_">
				<use xlink:href="#SVGID_21_"  style="overflow:visible;"/>
			</clipPath>
		</g>
	</g>
	<g>
		<g>
			<defs>
				<path id="SVGID_23_" d="M62,26.4c0-1-0.3-1.3-0.9-1.3c-0.6,0-1,0.5-1,1.3v8.8h-4.8V21.9H60v1.5h0c0.7-1.3,1.9-1.9,3.5-1.9
					c1.7,0,3.2,0.9,3.2,3.4v10.3H62V26.4"/>
			</defs>
			<use xlink:href="#SVGID_23_"  style="overflow:visible;fill-rule:evenodd;clip-rule:evenodd;fill:#105E36;"/>
			<clipPath id="SVGID_24_">
				<use xlink:href="#SVGID_23_"  style="overflow:visible;"/>
			</clipPath>
		</g>
	</g>
	<g>
		<g>
			<defs>
				<path id="SVGID_25_" d="M74.7,21.9h4.5v12.8c0,3.9-2.4,5.1-5.8,5.1c-5,0-5.3-2.3-5.4-3.8h4.3c0,0.3,0.1,0.6,0.2,0.7
					c0.2,0.2,0.4,0.3,0.8,0.3c0.8,0,1.2-0.3,1.2-1.2V33h0c-0.6,1.3-1.7,1.7-3,1.7c-3.1,0-3.8-3.4-3.8-6.5c0-3,0.3-6.7,4.1-6.7
					c1.5,0,2.4,0.7,2.9,2h0V21.9z M73.5,25c-0.9,0-1.1,1-1.1,3.4c0,1.8,0.1,2.8,1.1,2.8c1,0,1.1-1,1.1-2.8C74.5,26,74.4,25,73.5,25z
					"/>
			</defs>
			<use xlink:href="#SVGID_25_"  style="overflow:visible;fill-rule:evenodd;clip-rule:evenodd;fill:#105E36;"/>
			<clipPath id="SVGID_26_">
				<use xlink:href="#SVGID_25_"  style="overflow:visible;"/>
			</clipPath>
		</g>
	</g>
	<g>
		<g>
			<defs>
				<path id="SVGID_27_" d="M93.8,34.6c0,0.8,0.1,1.5,0.4,2.2h-4.4c-0.2-0.5-0.2-1.1-0.2-1.6l0,0c-0.6,1.5-1.7,2-3.1,2
					c-2.5,0-3.6-1.5-3.6-4.4c0-3.3,1.4-4.2,3.1-4.7l2.2-0.6c1-0.2,1.3-0.6,1.3-1.5c0-0.7-0.4-1.2-0.9-1.2c-1,0-1.1,0.9-1.1,1.7h-4.1
					c0-3.4,1.6-5,5.3-5c4.3,0,5.1,2,5.1,4.3V34.6z M89.5,29.5c-0.3,0.2-0.7,0.4-1.2,0.6c-0.8,0.3-0.9,1-0.9,1.9
					c0,0.9,0.3,1.5,0.9,1.5c0.9,0,1.1-1,1.1-1.8V29.5z"/>
			</defs>
			<use xlink:href="#SVGID_27_"  style="overflow:visible;fill-rule:evenodd;clip-rule:evenodd;fill:#FFFFFF;"/>
			<clipPath id="SVGID_28_">
				<use xlink:href="#SVGID_27_"  style="overflow:visible;"/>
			</clipPath>
		</g>
	</g>
	<g>
		<g>
			<defs>
				<path id="SVGID_29_" d="M101.6,17h4.7v19.7h-4.6v-1.7h0c-0.2,0.7-0.7,2.1-2.7,2.1c-4.1,0-4.1-4.6-4.1-8.1c0-4.2,0.5-7.6,3.8-7.6
					c1.3,0,2.5,0.8,2.9,2.1h0V17z M100.6,25.4c-0.9,0-1.1,1.1-1.1,3.9c0,2.8,0.1,3.9,1.1,3.9c0.9,0,1.1-1.1,1.1-3.9
					C101.7,26.5,101.5,25.4,100.6,25.4z"/>
			</defs>
			<use xlink:href="#SVGID_29_"  style="overflow:visible;fill-rule:evenodd;clip-rule:evenodd;fill:#FFFFFF;"/>
			<clipPath id="SVGID_30_">
				<use xlink:href="#SVGID_29_"  style="overflow:visible;"/>
			</clipPath>
		</g>
	</g>
	<g>
		<g>
			<defs>
				<path id="SVGID_31_" d="M111.5,32c0,0.6,0.1,1.1,0.2,1.5c0.2,0.4,0.5,0.6,1,0.6c0.8,0,1-0.9,1-1.2c0-0.7-0.1-0.9-1.8-1.6
					c-3-1.2-4.4-2-4.4-4.8c0-3,1.5-5,5.1-5c5.2,0,5.2,3.3,5.2,4.6h-4c0-0.4,0-0.8-0.2-1.1c-0.2-0.3-0.4-0.4-0.9-0.4
					c-0.5,0-1,0.2-1,1c0,0.7,0.6,1,3.5,2.1c1.3,0.5,2.9,1.2,2.9,4.4c0,3.7-2.5,5-5.4,5c-3.4,0-5.3-1-5.4-5.2H111.5"/>
			</defs>
			<use xlink:href="#SVGID_31_"  style="overflow:visible;fill-rule:evenodd;clip-rule:evenodd;fill:#FFFFFF;"/>
			<clipPath id="SVGID_32_">
				<use xlink:href="#SVGID_31_"  style="overflow:visible;"/>
			</clipPath>
		</g>
	</g>
</g>
</svg>
