<svg xmlns:sketch="http://www.bohemiancoding.com/sketch/ns" xmlns="http://www.w3.org/2000/svg" xmlns:xlink="http://www.w3.org/1999/xlink" version="1.1" id="Layer_1" x="0" y="0" width="120" height="35" viewBox="-339 218 120 35" xml:space="preserve" enable-background="new -339 218 120 35">
  <style type="text/css">
    
	.st0{fill:#812C7C;}
	.st1{fill:#9EC83C;}
	.st2{fill:#4A4A4A;}

  </style>
  <title>
    Horsemart(FullColour) + left-arrow7
  </title>
  <desc>
    Created with Sketch.
  </desc>
  <g id="Search-results-list" sketch:type="MSPage">
    <g id="link-to-afiliate-sites" transform="translate(-683.000000, -1963.000000)" sketch:type="MSArtboardGroup">
      <g id="Horsemart_x28_FullColour_x29_-_x2B_-left-arrow7" transform="translate(683.000000, 1962.000000)" sketch:type="MSLayerGroup">
        <g id="Horsemart_x28_FullColour_x29_" transform="translate(0.000000, 15.000000)" sketch:type="MSShapeGroup">
          <g id="Group-4">
            <path id="Fill-1" class="st0" d="M-339 218.1h4v6.6h0.1c0.7-1.3 2.1-2 3.8-2 2.5 0 3.9 1.4 3.9 4.4v11.5h-4v-10.7c0-1.6-0.5-2.2-1.7-2.2 -1.4 0-2.1 0.8-2.1 2.6v10.3h-4V218.1"/>
            <path id="Fill-3" class="st0" d="M-319 236.3c1.6 0 2.1-1.6 2.1-5.4 0-3.8-0.5-5.4-2.1-5.4 -2 0-2.1 2.3-2.1 5.4C-321.1 234-321 236.3-319 236.3L-319 236.3zM-319 222.7c4.8-0.1 6.1 2.8 6.1 8.1 0 5.3-1.6 8.1-6.1 8.1 -4.8 0.1-6.1-2.8-6.1-8.1C-325.1 225.6-323.6 222.7-319 222.7L-319 222.7z"/>
          </g>
          <path id="Fill-5" class="st0" d="M-310.8 223.1h3.8v2.1h0.1c0.8-1.5 1.9-2.5 3.6-2.5 0.2 0 0.5 0 0.7 0.1v3.8c-0.4 0-0.8-0.1-1.2-0.1 -1.4 0-2.9 0.7-2.9 2.8v9.3h-4V223.1"/>
          <path id="Fill-6" class="st0" d="M-298.2 233.5v0.5c0 1.4 0.7 2.2 2.1 2.2 1.2 0 2-0.6 2-1.8 0-1-0.7-1.5-1.4-1.8l-2.8-1c-2.2-0.8-3.3-2.1-3.3-4.3 0-2.6 1.6-4.7 5.7-4.7 3.6 0 5.3 1.6 5.3 4.4v0.6h-3.6c0-1.6-0.5-2.3-1.8-2.3 -1 0-1.9 0.6-1.9 1.7 0 0.7 0.4 1.4 1.7 1.8l2.4 0.8c2.5 0.8 3.4 2.1 3.4 4.4 0 3.2-2.4 4.9-5.8 4.9 -4.5 0-5.7-2-5.7-4.9v-0.5H-298.2"/>
          <path id="Fill-7" class="st0" d="M-280.9 229.1c-0.1-2.4-0.4-3.7-2-3.7 -1.6 0-2 1.6-2 3.1v0.6H-280.9L-280.9 229.1zM-285 231.5v1.2c0 1.8 0.5 3.6 2 3.6 1.3 0 1.9-1 2.1-2.9h3.6c-0.1 3.6-1.9 5.6-5.6 5.6 -5.8 0-6-4.4-6-8.3 0-4.1 0.8-8 6.2-8 4.6 0 5.7 3.1 5.7 7.8v0.9H-285L-285 231.5z"/>
          <path id="Fill-8" class="st1" d="M-275 223.1h3.8v1.6h0.1c1-1.4 2.2-2 3.9-2 1.8 0 3.1 0.9 3.6 2.5h0.1c0.6-1.6 2-2.5 3.9-2.5 2.6 0 3.9 1.6 3.9 4.6v11.2h-4v-10.8c0-1.3-0.4-2-1.6-2 -1.3 0-2.1 0.9-2.1 2.6v10.2h-4v-10.8c0-1.3-0.4-2-1.6-2 -1.3 0-2.1 0.9-2.1 2.6v10.2h-4V223.1"/>
          <path id="Fill-9" class="st1" d="M-245.9 230.9c-0.5 0.4-1.2 0.7-1.7 0.8 -1.6 0.3-2.2 1.1-2.2 2.5 0 1.2 0.4 2.2 1.5 2.2 1.1 0 2.5-0.7 2.5-2.4V230.9L-245.9 230.9zM-253.2 227.9v-0.4c0-3.6 2.4-4.8 5.4-4.8 4.7 0 5.6 2 5.6 4.7v8.1c0 1.4 0.1 2.1 0.5 3h-3.8c-0.3-0.5-0.4-1.1-0.5-1.6h-0.1c-0.9 1.6-2 2-3.9 2 -2.8 0-3.7-2.4-3.7-4.4 0-2.9 1.2-4.1 3.9-4.8l2.2-0.6c1.2-0.3 1.6-0.8 1.6-1.8 0-1.2-0.5-1.9-1.8-1.9 -1.2 0-1.8 0.8-1.8 2v0.4H-253.2L-253.2 227.9z"/>
          <path id="Fill-10" class="st1" d="M-225.4 218.7h4v4.4h2.3v2.7h-2.3v8.4c0 1.2 0.3 1.7 1.4 1.7 0.3 0 0.6 0 0.9-0.1v2.8c-0.9 0.1-1.7 0.2-2.6 0.2 -3.1 0-3.7-0.9-3.7-4.1v-8.9h-2v-2.7h2V218.7"/>
          <path id="Fill-11" class="st0" d="M-239.7 224.6c0 0 2.7-1.3 4.7-1.9 0.3-0.1 1.3-0.1 1.6 0 0.4 0.1 0.7 0.1 0.7-0.2 0.1-0.3 0-0.9 0.4-1.3 0.4-0.4 1.1-0.8 1.1-0.8s0 0.6 0.1 1 0.1 0.7 0 1.2c-0.1 0.5 0.1 0.8 0.1 0.8s0.6 1 1 1.6c0.4 0.5 0.8 0.8 0.9 1.5 0.1 0.7 0 1.5 0.2 2.1 0.2 0.5 0.6 1.6 1 2.3 0.4 0.8 0.5 1 0.6 1.7 0 0.6-0.1 0.6-0.2 1 -0.2 0.4 0 0.7-0.4 0.9 -0.4 0.2-0.8 0-0.9 0 -0.1 0-0.2 0.2-0.6 0.2 -0.4 0-0.8 0-1-0.4 -0.2-0.3 0.1-0.8-0.2-1 -0.2-0.2-2.2-1.2-2.7-1.9 -0.5-0.7-0.6-1.4-0.8-1.4 -0.2-0.1-1.3 0.8-1.5 1.3 -0.3 0.5-0.9 1.9-1 2.8 0.6 2.9 0.3 4.6 0.3 4.6h-3.4L-239.7 224.6"/>
        </g>
        <g id="left-arrow7" transform="translate(111.500000, 6.500000) scale(-1, 1) translate(-111.500000, -6.500000) translate(103.000000, 0.000000)" sketch:type="MSShapeGroup">
          <path id="Shape" class="st2" d="M339.3 223.2l7.3-4.1c0.2-0.1 0.3-0.1 0.5 0 0.2 0.1 0.3 0.2 0.3 0.4l0 1.9c0 0 0 0 0 0 0.2 0 0.4 0.1 0.6 0.2 0.8 0.2 1.5 0.5 2.4 0.9 0.8 0.3 1.6 0.8 2.3 1.3 0.5 0.4 1 0.8 1.5 1.3 1.2 1.3 1.9 3 1.8 4.7 0 0.3 0 0.6-0.1 0.8 0 0.2-0.2 0.4-0.5 0.4 0 0 0 0 0 0 -0.2 0-0.5-0.2-0.5-0.4 -0.1-0.7-0.4-1.4-0.7-1.9 -0.4-0.6-0.9-1.2-1.5-1.6 -0.5-0.3-1.1-0.6-1.7-0.8 -0.7-0.2-1.5-0.4-2.4-0.4 -0.4 0-0.8 0-1.2 0 0 0 0 0-0.1 0l0 1.8c0 0.2-0.1 0.3-0.2 0.4 -0.2 0.1-0.3 0.1-0.5 0l-7.3-4.1c-0.2-0.1-0.3-0.2-0.3-0.4C339.1 223.4 339.2 223.3 339.3 223.2L339.3 223.2z"/>
        </g>
      </g>
    </g>
  </g>
</svg>
