<?xml version="1.0" encoding="utf-8"?>
<!-- Generator: Adobe Illustrator 20.0.0, SVG Export Plug-In . SVG Version: 6.00 Build 0)  -->
<svg version="1.1" id="Layer_1" xmlns:sketch="http://www.bohemiancoding.com/sketch/ns"
	 xmlns="http://www.w3.org/2000/svg" xmlns:xlink="http://www.w3.org/1999/xlink" x="0px" y="0px" width="120px" height="47px"
	 viewBox="0 0 120 47" style="enable-background:new 0 0 120 47;" xml:space="preserve">
<style type="text/css">
	.st0{fill:#FFFFFF;}
	.st1{fill:#8D6644;}
	.st2{fill:#C1C1C1;}
	.st3{fill:none;}
	.st4{fill:#2695BC;}
	.st5{fill:#9E7D60;}
	.st6{fill:#4A4A4A;}
	.st7{fill:#10A5E0;}
	.st8{fill:#F79F11;}
	.st9{fill:#056F31;}
	.st10{fill:#D7D7D8;}
	.st11{fill:#CDCDCC;}
	.st12{fill:#F3F3F3;}
	.st13{fill:#E1E0E0;}
	.st14{fill:#83B527;}
	.st15{fill:#31B9E8;}
	.st16{fill:#5E5E61;}
	.st17{fill:#1692C5;}
	.st18{fill:#2D2D2D;}
	.st19{fill:#84838C;}
	.st20{fill:#364B99;}
	.st21{fill:#E9EDF1;}
	.st22{fill:#E40076;}
	.st23{fill:#103151;}
	.st24{fill:#A2C654;}
	.st25{fill:#233978;}
	.st26{fill:#EC6F1D;}
	.st27{fill:#78428E;}
	.st28{fill:#43224E;}
	.st29{fill:#1DC3EF;}
	.st30{fill:#EF45B2;}
	.st31{fill:#2293D1;}
	.st32{fill:#0B4B84;}
	.st33{fill:#31B1DD;}
	.st34{fill:#EACB49;}
	.st35{opacity:0.2;fill:#FFFFFF;enable-background:new    ;}
	.st36{fill:#52BCCE;}
	.st37{fill:#BC2359;}
	.st38{fill:#197EC1;}
	.st39{fill:url(#SVGID_1_);}
	.st40{fill:url(#SVGID_4_);}
	.st41{fill:#83C1E9;}
	.st42{fill:#22B573;}
	.st43{fill:#074425;}
	.st44{fill:#F94B4B;}
</style>
<g id="Search-results-list_1_" sketch:type="MSPage">
	<g id="link-to-afiliate-sites_1_" transform="translate(-687.000000, -2402.000000)" sketch:type="MSArtboardGroup">
		<g id="_x31__1_" transform="translate(24.000000, 33.000000)" sketch:type="MSLayerGroup">
			<g id="Posted-ad--Motors-2_1_" transform="translate(0.000000, 2260.000000)">
				<g id="Imported-Layers-_x2B_-Shape-Copy_1_" transform="translate(663.000000, 108.000000)">
					<path id="Shape-Copy_15_" sketch:type="MSShapeGroup" class="st6" d="M115.7,5.2L108.4,1c-0.2-0.1-0.3-0.1-0.5,0
						s-0.3,0.2-0.3,0.4v1.9l0,0c-0.2,0-0.4,0.1-0.6,0.2c-0.8,0.2-1.5,0.5-2.4,0.9c-0.8,0.3-1.6,0.8-2.3,1.3c-0.5,0.4-1,0.8-1.5,1.3
						c-1.2,1.3-1.9,3-1.8,4.7c0,0.3,0,0.6,0.1,0.8c0,0.2,0.2,0.4,0.5,0.4l0,0c0.2,0,0.5-0.2,0.5-0.4c0.1-0.7,0.4-1.4,0.7-1.9
						c0.4-0.6,0.9-1.2,1.5-1.6c0.5-0.3,1.1-0.6,1.7-0.8c0.7-0.2,1.5-0.4,2.4-0.4c0.4,0,0.8,0,1.2,0c0,0,0,0,0.1,0v1.8
						c0,0.2,0.1,0.3,0.2,0.4c0.2,0.1,0.3,0.1,0.5,0l7.3-4.1c0.2-0.1,0.3-0.2,0.3-0.4C115.9,5.4,115.8,5.3,115.7,5.2L115.7,5.2z"/>
				</g>
			</g>
		</g>
	</g>
</g>
<g id="Page-1" sketch:type="MSPage">
	<g id="TI---Home_8" transform="translate(-462.000000, -48.000000)" sketch:type="MSArtboardGroup">
		<g id="Footer" transform="translate(-15.000000, -251.000000)" sketch:type="MSLayerGroup">
			<g id="Navigation-Menu-3" sketch:type="MSShapeGroup">
				<g id="TI-Logo6" transform="translate(477.000000, 299.000000)">
					<path id="Fill-1_1_" class="st44" d="M18.4,26.5c-2.2-0.1-4.4-0.2-6.6-0.3c0,6.1,0,12.1,0,18.2h-5c0-6.2,0-12.3,0-18.5
						c-2.2-0.1-4.4-0.3-6.6-0.5v-4.8c6.1,0.6,12.2,1,18.2,1.4C18.4,23.5,18.4,25,18.4,26.5"/>
					<path id="Fill-2_1_" class="st44" d="M18.4,44.3c0-7.5,0-14.9,0-22.4c3.3,0.2,6.5,0.3,9.8,0.5c1,0,2,0.3,2.8,0.7
						c0.9,0.5,1.6,1,2.3,1.7c0.6,0.7,1.1,1.5,1.5,2.4c0.4,0.9,0.5,1.8,0.5,2.7c0,0.7-0.1,1.3-0.2,1.9c-0.2,0.6-0.4,1.2-0.7,1.7
						c-0.3,0.5-0.7,1-1.1,1.5c-0.4,0.4-0.9,0.8-1.5,1.1c1.7,2.7,3.3,5.4,5,8.1h-5.7c-1.5-2.3-2.9-4.7-4.4-7.1c-1.1,0-2.2,0-3.3,0
						c0,2.4,0,4.8,0,7.1H18.4L18.4,44.3z M23.4,32.8c1.5,0,3.1,0.1,4.6,0.1c0.6,0,1.1-0.3,1.5-0.8c0.4-0.6,0.6-1.3,0.6-2.2
						c0-0.9-0.2-1.6-0.7-2.2c-0.5-0.5-1-0.8-1.6-0.8c-1.5,0-3-0.1-4.4-0.2C23.4,28.7,23.4,30.8,23.4,32.8L23.4,32.8z"/>
					<path id="Fill-3_1_" class="st44" d="M34.4,44.3c2.8-7.3,5.6-14.4,8.3-21.5c1.4,0,2.7,0,4.1,0c2.8,7.2,5.6,14.4,8.4,21.5h-5.3
						c-0.6-1.6-1.1-3.2-1.7-4.8c-2.3,0-4.5,0-6.8,0c-0.5,1.6-1.1,3.2-1.6,4.8H34.4L34.4,44.3z M44.8,28.1c-0.9,2.7-1.7,5.3-2.6,8
						c1.7,0,3.4,0,5.1,0C46.5,33.4,45.6,30.8,44.8,28.1L44.8,28.1z"/>
					<path id="Fill-4_1_" class="st44" d="M55.1,44.3c0-7.2,0-14.4,0-21.6c2.7,0,5.4-0.1,8.1-0.2c1.8-0.1,3.4,0.2,4.7,0.7
						c1.3,0.5,2.5,1.3,3.4,2.2c0.9,1,1.6,2.1,2.1,3.4c0.5,1.3,0.7,2.8,0.7,4.3c0,1.7-0.3,3.2-0.8,4.6c-0.5,1.4-1.2,2.6-2.2,3.5
						c-1,1-2.1,1.7-3.4,2.3c-1.3,0.5-2.8,0.8-4.5,0.8H55.1L55.1,44.3z M68.9,33.3c0-1-0.1-1.9-0.4-2.6c-0.3-0.8-0.6-1.5-1.1-2
						c-0.5-0.6-1.1-1-1.8-1.3c-0.7-0.3-1.5-0.4-2.4-0.4c-1,0-2.1,0.1-3.1,0.1v12.9c1,0,2.1,0,3.1,0c0.9,0,1.7-0.2,2.5-0.5
						c0.7-0.3,1.3-0.8,1.8-1.4c0.5-0.6,0.8-1.3,1.1-2.1C68.8,35.1,68.9,34.2,68.9,33.3L68.9,33.3z"/>
					<path id="Fill-5_1_" class="st44" d="M90.2,39.6c0,1.6,0,3.2,0,4.8H74.9c0-7.5,0-14.9,0-22.4c5-0.3,10-0.7,15-1.2
						c0,1.6,0,3.2,0,4.8c-3.3,0.3-6.7,0.5-10,0.7c0,1.5,0,2.9,0,4.4c2.9-0.1,5.7-0.3,8.6-0.4c0,1.5,0,2.9,0,4.4
						c-2.9,0.1-5.7,0.2-8.6,0.3c0,1.6,0,3.2,0,4.8C83.3,39.7,86.7,39.6,90.2,39.6"/>
					<path id="Fill-6_1_" class="st44" d="M89.5,34.6c0-1.6,0-3.1,0-4.7c1.9-0.1,3.8-0.2,5.8-0.4c0,1.6,0,3.2,0,4.8
						C93.4,34.5,91.5,34.6,89.5,34.6"/>
					<path id="Fill-7_1_" class="st44" d="M96.5,44.3c0-8.1,0-16.2,0-24.3c1.7-0.2,3.3-0.4,5-0.6c0,8.3,0,16.6,0,24.9H96.5"/>
					<path id="Fill-8_1_" class="st44" d="M119.7,22.2c-2.2,0.3-4.4,0.6-6.6,0.9c0,7.1,0,14.1,0,21.2h-5c0-6.9,0-13.7,0-20.6
						c-2.2,0.3-4.4,0.5-6.6,0.7c0-1.7,0-3.4,0-5.1c6.1-0.8,12.2-1.7,18.2-2.8V22.2"/>
				</g>
			</g>
		</g>
	</g>
</g>
</svg>
