<?xml version="1.0" encoding="UTF-8"?>
<svg width="112px" height="112px" viewBox="0 0 112 112" version="1.1" xmlns="http://www.w3.org/2000/svg" xmlns:xlink="http://www.w3.org/1999/xlink" style="background: #FFFFFF;">
    <!-- Generator: Sketch 63.1 (92452) - https://sketch.com -->
    <title>Category buttons / Home&amp;PAA / Selected / Ic-btn-Adult-ON</title>
    <desc>Created with Sketch.</desc>
    <defs>
        <linearGradient x1="0%" y1="0%" x2="100%" y2="100%" id="linearGradient-1">
            <stop stop-color="#A8DC28" offset="0%"></stop>
            <stop stop-color="#79D378" offset="100%"></stop>
        </linearGradient>
    </defs>
    <g id="Category-buttons-/-Home&amp;PAA-/-Selected-/-Ic-btn-Adult-ON" stroke="none" stroke-width="1" fill="none" fill-rule="evenodd">
        <rect fill="#FFFFFF" x="0" y="0" width="112" height="112"></rect>
        <g id="Badge-/-z.Base-/-1">
            <g id="Badge-/-z.Base-/-Large">
                <g id="Badge-/-z.Base-/-Shapes-/-Large" stroke="#91D851" stroke-width="3">
                    <rect id="Rectangle" x="1.5" y="1.5" width="109" height="109" rx="4"></rect>
                </g>
                <text id="Category-name" font-family="Poppins-SemiBold, Poppins" font-size="14" font-weight="500" fill="#82C148">
                    <tspan x="37.072" y="81">Adult</tspan>
                </text>
                <g id="Icon-/-Category-/-Main-/-Adult" transform="translate(36.000000, 20.000000)" fill="url(#linearGradient-1)" fill-rule="evenodd" stroke-width="1">
                    <g id="adult-icon">
                        <path d="M20,0 C31.0243902,0 40,8.97560976 40,20 C40,23.1219512 39.3170732,26.0487805 38.0487805,28.6829268 C34.8292683,35.4146341 27.902439,40 20,40 C17.6585366,40 15.3170732,39.7073171 13.1707317,38.8292683 C5.46341463,35.902439 0,28.5853659 0,20 C0,8.97560976 8.97560976,0 20,0 Z M20,2 C10.0780488,2 2,10.0780488 2,20 C2,27.7268293 6.91707317,34.3121951 13.8536585,36.9463415 C15.7853659,37.7365854 17.8926829,38 20,38 C27.1121951,38 33.3463415,33.8731707 36.2439024,27.8146341 C37.3853659,25.4439024 38,22.8097561 38,20 C38,10.0780488 29.9219512,2 20,2 Z M19.8807588,14.4 C22.3089431,14.4 23.1761518,15.700813 23.1761518,17.001626 C23.1761518,18.1289973 22.395664,19.0829268 21.5284553,19.7766938 C22.8292683,20.5571816 23.6097561,21.5111111 23.6097561,22.8119241 C23.6097561,24.4596206 22.395664,26.0205962 19.7073171,26.0205962 C16.8455285,26.0205962 15.9783198,24.4596206 15.9783198,23.0720867 C15.8915989,21.4243902 17.1924119,20.3837398 18.0596206,19.8634146 C17.2791328,19.3430894 16.3252033,18.5626016 16.3252033,17.2617886 C16.3252033,15.6140921 17.7127371,14.4 19.8807588,14.4 Z M12.8563686,14.5734417 L12.8563686,24.199458 L14.6775068,24.2861789 L14.6775068,25.7604336 L8.60704607,25.7604336 L8.60704607,24.3728997 L10.2547425,24.2861789 C10.601626,24.2861789 10.7750678,24.1127371 10.7750678,23.6791328 L10.7750678,16.8281843 L8.7804878,17.8688347 L8,16.5680217 L11.1219512,14.5734417 L12.8563686,14.5734417 Z M19.4471545,20.6439024 C18.6666667,21.1642276 17.9728997,21.7712737 17.9728997,22.8119241 C17.9728997,23.5924119 18.4932249,24.2861789 19.7073171,24.2861789 C20.7479675,24.2861789 21.4417344,23.6791328 21.4417344,22.7252033 C21.3550136,21.7712737 20.4878049,21.2509485 19.4471545,20.6439024 Z M29.8536585,16.6547425 L29.8536585,19.4298103 L32.5420054,19.4298103 L32.5420054,21.1642276 L29.8536585,21.1642276 L29.8536585,23.9392954 L28.1192412,23.9392954 L28.1192412,21.1642276 L25.4308943,21.1642276 L25.4308943,19.4298103 L28.1192412,19.4298103 L28.1192412,16.6547425 L29.8536585,16.6547425 Z M18.3197832,17.1750678 C18.3197832,17.9555556 19.0135501,18.5626016 19.9674797,19.0829268 C20.5745257,18.6493225 21.2682927,17.9555556 21.2682927,17.1750678 C21.2682927,16.3945799 20.6612466,15.9609756 19.7940379,15.9609756 C18.9268293,15.8742547 18.3197832,16.3945799 18.3197832,17.1750678 Z" id="Combined-Shape"></path>
                    </g>
                </g>
            </g>
        </g>
        <g id="Icon-/-Check-/-Checkbox" transform="translate(80.000000, 8.000000)" fill="#91D851">
            <path d="M10.9709463,13.366529 L16.3112027,6.57437624 C16.8225102,5.92405564 17.7675383,5.80875183 18.4219821,6.31683796 C19.0764259,6.8249241 19.1924607,7.76399831 18.6811532,8.41431891 C14.2260171,13.9508613 11.8927875,16.7447414 11.6814646,16.7959592 C11.0876228,17.1417187 10.3115238,17.0459069 9.82251261,16.5248105 L6.403984,12.8819836 C5.83758363,12.2784203 5.87081232,11.3328702 6.47820235,10.7700383 C7.08559238,10.2072064 8.0371375,10.2402257 8.60353787,10.843789 L10.9709463,13.366529 Z" id="Path"></path>
        </g>
    </g>
</svg>