<?xml version="1.0" encoding="UTF-8"?>
<svg width="112px" height="112px" viewBox="0 0 112 112" version="1.1" xmlns="http://www.w3.org/2000/svg" xmlns:xlink="http://www.w3.org/1999/xlink" style="background: #131415;">
    <!-- Generator: Sketch 64 (93537) - https://sketch.com -->
    <title>Category buttons / Home&amp;PAA / Normal / Ic-btn-gay-male-escort -Hover</title>
    <desc>Created with Sketch.</desc>
    <defs>
        <linearGradient x1="24.2574965%" y1="0%" x2="75.7425035%" y2="100%" id="linearGradient-1">
            <stop stop-color="#A75BD8" offset="0%"></stop>
            <stop stop-color="#C60A84" offset="100%"></stop>
        </linearGradient>
    </defs>
    <g id="Category-buttons-/-Home&amp;PAA-/-Normal-/-Ic-btn-gay-male-escort--Hover" stroke="none" stroke-width="1" fill="none" fill-rule="evenodd">
        <rect fill="#131415" x="0" y="0" width="112" height="112"></rect>
        <g id="Badge-/-z.Base-/-1">
            <g id="Badge-/-z.Base-/-Large">
                <g id="Badge-/-z.Base-/-Shapes-/-Large" fill="#FFFFFF" fill-rule="evenodd" stroke="#CBD5D9" stroke-width="1">
                    <rect id="Rectangle" x="0.5" y="0.5" width="111" height="111" rx="4"></rect>
                </g>
                <text id="Category-name" font-family="Poppins-SemiBold, Poppins" font-size="14" font-weight="500" fill="#9C1F9F">
                    <tspan x="21.63" y="81">Gay male </tspan>
                    <tspan x="29.827" y="101">escorts</tspan>
                </text>
                <g id="Icon-/-32-/-Categories-/-Adult-/-Gay-Male-Escort" transform="translate(36.000000, 20.000000)" fill="url(#linearGradient-1)" fill-rule="evenodd">
                    <path d="M29.8125,2.5 L29.8125,11.0625 C29.8125,11.6493025 29.3368025,12.125 28.75,12.125 C28.2083361,12.125 27.7613417,11.719672 27.6957784,11.1957777 L27.6875,11.0625 L27.686,6.079 L23.0344462,10.5363285 C24.0680317,11.8037247 24.7535502,13.3661915 24.9452258,15.0779529 C29.124136,15.6461437 32.3444948,19.2282443 32.3444948,23.5625 C32.3444948,28.2914382 28.510933,32.125 23.7819948,32.125 C21.8810455,32.125 20.0957447,31.4997164 18.6511023,30.4185448 L13.867,35 L18.75,35 C19.2916639,35 19.7386583,35.405328 19.8042216,35.9292223 L19.8125,36.0625 C19.8125,36.6041639 19.407172,37.0511583 18.8832777,37.1167216 L18.75,37.125 L10.1875,37.125 L10.1875,28.5625 C10.1875,27.9756975 10.6631975,27.5 11.25,27.5 C11.7916639,27.5 12.2386583,27.905328 12.3042216,28.4292223 L12.3125,28.5625 L12.313,33.545 L17.1188461,28.9422431 C16.6107314,28.3133493 16.1875681,27.6073893 15.8691757,26.8392839 C15.6444758,26.2972072 15.9017607,25.6756119 16.4438374,25.4509121 C16.9859142,25.2262122 17.6075094,25.4834971 17.8322093,26.0255738 C18.8212701,28.411632 21.1546081,30 23.7819948,30 C27.3373279,30 30.2194948,27.1178331 30.2194948,23.5625 C30.2194948,20.3964395 27.933912,17.7642055 24.9227034,17.2257549 C24.3536576,21.5090663 20.687608,24.8125 16.25,24.8125 C11.4175084,24.8125 7.5,20.8949916 7.5,16.0625 C7.5,11.2300084 11.4175084,7.3125 16.25,7.3125 C18.2200944,7.3125 20.0381182,7.96359114 21.5006325,9.06233432 L26.131,4.625 L21.25,4.625 C20.7083361,4.625 20.2613417,4.21967199 20.1957784,3.69577774 L20.1875,3.5625 C20.1875,3.02083611 20.592828,2.57384165 21.1167223,2.50827838 L21.25,2.5 L29.8125,2.5 Z M16.25,9.4375 C12.5911135,9.4375 9.625,12.4036135 9.625,16.0625 C9.625,19.7213865 12.5911135,22.6875 16.25,22.6875 C19.5196432,22.6875 22.2360717,20.3189059 22.7770315,17.2039716 L22.5411947,17.2450675 C20.2852539,17.686955 18.4114278,19.3126671 17.6738142,21.5234456 C17.4880952,22.0800834 16.886296,22.3807725 16.3296582,22.1950534 C15.7730204,22.0093344 15.4723313,21.4075353 15.6580503,20.8508974 C16.711259,17.6942161 19.5041103,15.4350943 22.7981187,15.0562734 C22.3148434,11.8753803 19.5671204,9.4375 16.25,9.4375 Z" id="Combined-Shape"></path>
                </g>
            </g>
        </g>
    </g>
</svg>