<?xml version="1.0" encoding="UTF-8"?>
<svg width="112px" height="112px" viewBox="0 0 112 112" version="1.1" xmlns="http://www.w3.org/2000/svg" xmlns:xlink="http://www.w3.org/1999/xlink" style="background: #FFFFFF;">
    <!-- Generator: Sketch 64 (93537) - https://sketch.com -->
    <title>Category buttons / Home&amp;PAA / Selected / Ic-btn-escorts -ON</title>
    <desc>Created with Sketch.</desc>
    <defs>
        <linearGradient x1="24.0566062%" y1="0%" x2="75.9433938%" y2="100%" id="linearGradient-1">
            <stop stop-color="#A75BD8" offset="0%"></stop>
            <stop stop-color="#C60A84" offset="100%"></stop>
        </linearGradient>
    </defs>
    <g id="Category-buttons-/-Home&amp;PAA-/-Selected-/-Ic-btn-escorts--ON" stroke="none" stroke-width="1" fill="none" fill-rule="evenodd">
        <rect fill="#FFFFFF" x="0" y="0" width="112" height="112"></rect>
        <g id="Badge-/-z.Base-/-1">
            <g id="Badge-/-z.Base-/-Large">
                <g id="Badge-/-z.Base-/-Shapes-/-Large" stroke="#9C1F9F" stroke-width="3">
                    <rect id="Rectangle" x="1.5" y="1.5" width="109" height="109" rx="4"></rect>
                </g>
                <text id="Category-name" font-family="Poppins-SemiBold, Poppins" font-size="14" font-weight="500" fill="#9C1F9F">
                    <tspan x="34.237" y="81">Escort   </tspan>
                    <tspan x="26.551" y="101">services</tspan>
                </text>
                <g id="Icon-/-32-/-Categories-/-Adult-/-Escort-services" transform="translate(36.000000, 20.000000)" fill="url(#linearGradient-1)" fill-rule="evenodd">
                    <path d="M31.1826258,2.75 C31.7349105,2.75 32.1826258,3.19771525 32.1826258,3.75 C32.1826258,6.39823753 30.5072352,8.65727809 28.1391337,9.58730838 L28.1744123,9.35125533 C27.6066985,12.9733488 28.1594448,15.9291833 30.315399,18.5727482 L30.5713053,18.8764093 C32.1983837,20.745474 33.2284378,23.0446848 33.4440406,25.4275763 C33.4570102,25.5709197 33.4388754,25.7111016 33.3945995,25.8406749 C33.4502909,25.9570691 33.4832966,26.0874053 33.4885414,26.2262814 C33.5850671,28.7821578 33.1144109,31.2807061 32.1358127,34.3631602 L31.8120976,35.348213 L30.9689895,37.8136439 C30.7957688,38.3380607 30.2302218,38.6227614 29.7058049,38.4495407 C29.1813881,38.2763199 28.8966874,37.7107729 29.0699081,37.1863561 L30.0344775,34.3596707 C30.8853632,31.7866969 31.3751598,29.6839134 31.47956,27.6788479 L31.48375,27.5525 L31.126568,27.6614751 C28.9902646,28.3349201 26.2695313,29.5379558 23.9742873,30.8698556 L23.5212109,31.1378351 C22.9984255,31.4530954 22.6225032,31.7265885 22.3553396,31.9814236 C21.7687329,32.5409608 21.6454884,32.9312841 21.6342013,34.6651626 L21.6350796,37.5 C21.6350796,38.0522847 21.1873643,38.5 20.6350796,38.5 L20.6250635,38.4999395 C20.6213642,38.4999798 20.61766,38.5 20.6139511,38.5 C20.1041498,38.5 19.6834492,38.1185148 19.6217425,37.6254379 L19.6139511,37.5 L19.6183297,34.2264148 C19.6028085,32.8559108 19.4733232,32.5080765 18.9612307,32.0160158 C18.723437,31.7875241 18.3932836,31.5435794 17.9428276,31.2684302 C15.4887141,29.768175 12.4220733,28.3824217 10.0767785,27.6472363 L9.765,27.5525 L9.77026203,27.6792669 C9.86628198,29.5303085 10.2909414,31.4646149 11.0250507,33.7752933 L11.3747109,34.8344821 C11.6412944,35.61747 12.0798819,36.88591 12.1791226,37.1863561 C12.3523433,37.7107729 12.0676426,38.2763199 11.5432258,38.4495407 C11.0188089,38.6227614 10.4532619,38.3380607 10.2800412,37.8136439 L9.31615061,34.9889215 C8.20014699,31.6142173 7.65792589,28.9527982 7.76161111,26.2260233 C7.76689056,26.0871813 7.79991636,25.9568804 7.85482287,25.8397153 C7.8112706,25.7111288 7.79313201,25.5709251 7.80610214,25.4275763 C8.00897723,23.1853545 8.93302275,21.0168848 10.3969227,19.2107818 L10.6776861,18.8764544 C12.99941,16.2091111 13.6038181,13.237627 13.0180814,9.54919806 C10.6983147,8.59740458 9.06640495,6.36310839 9.06640495,3.75 C9.06640495,3.19771525 9.5141202,2.75 10.0664049,2.75 L10.0664049,2.75 Z M24.8883701,28.1005866 L24.401253,28.1499338 C21.7101267,28.4013022 19.0119814,28.3836904 16.3612305,28.1063495 C17.271489,28.5656639 18.1601967,29.0572008 18.9856804,29.5618377 C19.5504402,29.9068063 19.993178,30.2339376 20.3469564,30.5738771 C20.4537083,30.676453 20.5518243,30.7764148 20.6419652,30.875495 C20.7417793,30.7636218 20.8529557,30.6505412 20.9749117,30.5342129 C21.3611501,30.1657978 21.8501592,29.8100312 22.488367,29.4251665 C23.2474757,28.9673613 24.0584864,28.5213881 24.8883701,28.1005866 Z M20.625,7.60375 L20.3856672,7.88875341 C19.2476047,9.15747203 17.6076407,9.95751723 15.8107606,10.0350054 L15.8107606,10.0350054 L15.523106,10.0411993 C15.3818697,10.0411993 15.2416756,10.0367758 15.1026633,10.0280623 C15.5484902,13.7704717 14.8242257,16.9827764 12.4597719,19.865918 L12.1864659,20.1893076 C11.1001462,21.4381532 10.3362338,22.9084858 9.98377281,24.4452207 L9.90875,24.80875 L10.4341991,24.9597307 C16.9041666,26.7499731 24.0185663,26.8112965 30.7590966,24.9715875 L31.34,24.80625 L31.2663284,24.445077 C30.9431559,23.0362909 30.2741168,21.6835235 29.3276482,20.5061261 L29.0626934,20.1894554 C26.4808912,17.2225604 25.6520126,13.902729 26.0673001,10.0322046 L25.958192,10.0372385 L25.958192,10.0372385 L25.7270368,10.0411993 C23.7043174,10.0411993 21.8550064,9.12529948 20.6570068,7.64558487 L20.6570068,7.64558487 L20.625,7.60375 Z M20.625,19.375 C21.3153559,19.375 21.875,19.9346441 21.875,20.625 C21.875,21.3153559 21.3153559,21.875 20.625,21.875 C19.9346441,21.875 19.375,21.3153559 19.375,20.625 C19.375,19.9346441 19.9346441,19.375 20.625,19.375 Z M30.05875,4.75 L21.11375,4.75 C21.2673932,4.83588381 21.3994061,4.96144344 21.493329,5.12885627 L21.493329,5.12885627 L21.5563317,5.26226337 C22.2037576,6.91703136 23.8529194,8.04119931 25.7270368,8.04119931 C27.7837291,8.04119931 29.5067599,6.70254068 30.0239732,4.88853706 L30.0239732,4.88853706 L30.05875,4.75 Z M20.13625,4.75 L11.19,4.75 L11.225121,4.88844303 C11.7218382,6.62979623 13.330224,7.93333147 15.2779311,8.03482813 L15.2779311,8.03482813 L15.523106,8.04119931 C17.3965329,8.04119931 19.0465422,6.9166301 19.693811,5.26226337 C19.7859205,5.02683907 19.944985,4.85681042 20.13625,4.75 L20.13625,4.75 Z" id="Combined-Shape"></path>
                </g>
            </g>
        </g>
        <g id="Icon-/-Check-/-Checkbox" transform="translate(80.000000, 8.000000)" fill="#9C1F9F">
            <path d="M10.9709463,13.366529 L16.3112027,6.57437624 C16.8225102,5.92405564 17.7675383,5.80875183 18.4219821,6.31683796 C19.0764259,6.8249241 19.1924607,7.76399831 18.6811532,8.41431891 C14.2260171,13.9508613 11.8927875,16.7447414 11.6814646,16.7959592 C11.0876228,17.1417187 10.3115238,17.0459069 9.82251261,16.5248105 L6.403984,12.8819836 C5.83758363,12.2784203 5.87081232,11.3328702 6.47820235,10.7700383 C7.08559238,10.2072064 8.0371375,10.2402257 8.60353787,10.843789 L10.9709463,13.366529 Z" id="Path"></path>
        </g>
    </g>
</svg>