<?xml version="1.0" encoding="UTF-8"?>
<svg width="112px" height="112px" viewBox="0 0 112 112" version="1.1" xmlns="http://www.w3.org/2000/svg" xmlns:xlink="http://www.w3.org/1999/xlink" style="background: #131415;">
    <!-- Generator: Sketch 63.1 (92452) - https://sketch.com -->
    <title>Category buttons / Home&amp;PAA / Normal / Ic-btn-fetish-and-roleplay -Hover</title>
    <desc>Created with Sketch.</desc>
    <defs>
        <linearGradient x1="0%" y1="31.2174818%" x2="100%" y2="68.7825182%" id="linearGradient-1">
            <stop stop-color="#A75BD8" offset="0%"></stop>
            <stop stop-color="#C60A84" offset="100%"></stop>
        </linearGradient>
    </defs>
    <g id="Category-buttons-/-Home&amp;PAA-/-Normal-/-Ic-btn-fetish-and-roleplay--Hover" stroke="none" stroke-width="1" fill="none" fill-rule="evenodd">
        <rect fill="#131415" x="0" y="0" width="112" height="112"></rect>
        <g id="Badge-/-z.Base-/-1">
            <g id="Badge-/-z.Base-/-Large">
                <g id="Badge-/-z.Base-/-Shapes-/-Large" fill="#FFFFFF" fill-rule="evenodd" stroke="#CBD5D9" stroke-width="1">
                    <rect id="Rectangle" x="0.5" y="0.5" width="111" height="111" rx="4"></rect>
                </g>
                <text id="Category-name" font-family="Poppins-SemiBold, Poppins" font-size="14" font-weight="500" fill="#9C1F9F">
                    <tspan x="19.187" y="81">Fetish and      </tspan>
                    <tspan x="25.263" y="101">role play</tspan>
                </text>
                <g id="Icon-/-32-/-Categories-/-Adult-/-Fetish-and-Roleplay" transform="translate(36.000000, 20.000000)" fill="url(#linearGradient-1)" fill-rule="evenodd" stroke-width="1">
                    <g id="Group" transform="translate(0.625000, 8.750000)">
                        <path d="M37.9587389,0.770833333 L38.660911,1.82342946 C38.7221041,1.91870274 38.7434471,1.95717636 38.7487031,1.97573635 L38.75,1.98649889 L38.7065649,2.10936035 L38.6683675,2.25437347 C38.3990777,3.34554708 35.3910458,7.48132394 32.5818429,10.5009667 L32.3661921,10.7309753 L32.085761,11.0251311 C28.0685794,15.2015534 24.708565,17.0691194 22.4182247,15.2079793 L22.2820911,15.0918251 L20.589468,13.5881011 L19.433992,12.5891553 L19.375,12.5698333 L19.3161277,12.5891553 L18.1606518,13.5881011 L16.4680286,15.0918251 C14.4483104,16.8989729 11.5580026,15.6716818 8.09651706,12.4405286 L8.09631735,22.2736037 C8.09631735,23.4526588 7.21913955,24.419634 6.1034708,24.5133838 L5.92542377,24.5208333 L4.68491316,24.5208333 C3.54590931,24.5208333 2.61178132,23.6128109 2.52121603,22.4579114 L2.51401958,22.2736037 L2.51430155,6.11430981 C1.20226308,4.3691485 0.229544513,2.85323421 0.0817521892,2.25437347 L0.0447953114,2.10936035 L0.00011972397,1.98649889 C-0.00150831353,1.97286318 0.0127173317,1.94252106 0.0892087717,1.82342946 L0.791380832,0.770833333 L1.62686842,1.12849174 L1.70235765,1.24281894 L1.77164338,1.39132019 C1.83550619,1.5166364 1.94252515,1.66320378 2.09757906,1.80907237 L2.22295228,1.91799983 C3.02388361,2.56163058 4.35117797,2.76326567 6.41034854,2.17644618 L6.74159277,2.07718771 C10.88876,0.775315529 15.119924,1.49539406 19.3755303,4.19834217 C23.505702,1.57478302 27.6127914,0.819478024 31.6424127,1.96757111 L32.008527,2.07718771 L32.3397712,2.17644618 C34.3053431,2.73659206 35.6040609,2.578332 36.4146677,2.00299548 L36.5271674,1.91799983 L36.6525407,1.80907237 C36.7688311,1.69967093 36.8581019,1.58987642 36.9224112,1.48894897 L36.9784763,1.39132019 L37.0477621,1.24281894 L37.1232513,1.12849174 L37.9587389,0.770833333 Z M4.37450323,8.45968696 L4.3747855,22.2736037 C4.3747855,22.4255764 4.47679693,22.5528853 4.61380373,22.5861578 L4.68491316,22.5946365 L5.92542377,22.5946365 C6.07223415,22.5946365 6.19521848,22.489038 6.22736074,22.3472136 L6.23555143,22.2736037 L6.23555143,10.7164226 L6.369,10.7158333 L6.1682768,10.5009667 C5.56991034,9.85777607 4.96252302,9.16394652 4.37450323,8.45968696 Z M20.1719172,5.95301218 C19.9241661,6.11379868 19.631454,6.13894606 19.3748864,6.04770601 C19.1191238,6.13898533 18.8261474,6.11392447 18.5782026,5.95301218 C14.8335381,3.52278426 11.2177282,2.81867743 7.67494041,3.8040532 L7.28159499,3.92049014 C5.94531827,4.33997202 4.77881186,4.49705094 3.77723495,4.42775549 L3.59141516,4.41052352 L3.68015609,4.53033324 C4.7490906,5.96537317 6.15092603,7.70054266 7.48028571,9.1342228 L7.71404373,9.38397308 L8.29300732,9.98377197 C11.5361539,13.2705919 14.123537,14.6435464 15.2512127,13.6345558 L16.5355985,12.4909386 C16.9127342,12.1572275 17.2389572,11.8709444 17.5145083,11.6318896 L18.3211262,10.9476964 C18.4987107,10.8033832 18.6195674,10.7141922 18.7170036,10.6581983 L18.7498274,10.62249 C18.8050632,10.5734671 18.8904111,10.5715757 19.3739006,10.589301 C19.8112372,10.5733507 19.9240361,10.5733138 19.9824607,10.6091781 L20.0002923,10.62249 L20.0331161,10.6581983 C20.1110651,10.7029935 20.2040032,10.7690347 20.3289837,10.8675478 L20.4289935,10.9476964 L21.2356114,11.6318896 C21.4560523,11.8231335 21.7089232,12.0446034 21.9943474,12.2964017 L22.2145212,12.4909386 L23.498907,13.6345558 C24.5983908,14.6183216 27.0855089,13.3377509 30.2151185,10.2266877 L30.4571124,9.98377197 L31.036076,9.38397308 L31.269834,9.1342228 C32.4514871,7.85984045 33.6904049,6.3472443 34.7018785,5.01897052 L35.0699636,4.53033324 L35.1587046,4.41052352 L34.9728848,4.42775549 C34.0623603,4.49075135 33.0155305,4.36666096 31.8287583,4.0284155 L31.4685247,3.92049014 L31.0751793,3.8040532 C27.5323916,2.81867743 23.9165816,3.52278426 20.1719172,5.95301218 Z M11.7471192,5.17458161 C12.5088327,5.17458161 13.2279287,5.29015342 13.884599,5.51819027 C16.1259215,6.29798932 17.5761185,8.4081069 17.9668793,9.03567426 C18.026904,9.13322681 18.04131,9.25376945 18.0064956,9.36312773 C17.9704808,9.472486 17.8894474,9.55885418 17.7844042,9.59862082 C17.3114095,9.77881343 16.0550924,10.1976059 14.6114982,10.1976059 C13.8491844,10.1976059 13.1312889,10.0826555 12.4764193,9.85586131 C10.2368975,9.07606226 8.78429961,6.96470197 8.39293851,6.3358919 C8.33231356,6.2389607 8.31730738,6.11841806 8.35272196,6.00905979 C8.38753629,5.89970152 8.47037039,5.81271198 8.57481338,5.77294534 C9.05020906,5.59275273 10.3089272,5.17458161 11.7471192,5.17458161 Z M26.9099605,5.17458161 C28.3487527,5.17458161 29.608071,5.59275273 30.0822662,5.77294534 C30.1873095,5.81271198 30.2695433,5.89970152 30.3037574,6.00968114 C30.3397722,6.11903942 30.3253663,6.23958206 30.2653416,6.33651325 C29.7605338,7.14303052 28.3547552,9.0996737 26.182461,9.85586131 C25.5275914,10.0826555 24.8090957,10.1976059 24.0455814,10.1976059 C22.601387,10.1976059 21.3456701,9.77881343 20.8726754,9.59862082 C20.7676322,9.55885418 20.6865988,9.472486 20.6511842,9.36312773 C20.6163699,9.25376945 20.6307758,9.13322681 20.6908005,9.03567426 C21.0821616,8.4081069 22.5311581,6.29798932 24.7748816,5.51819027 C25.4291509,5.29015342 26.1476467,5.17458161 26.9099605,5.17458161 Z" id="Combined-Shape"></path>
                    </g>
                </g>
            </g>
        </g>
    </g>
</svg>