<?xml version="1.0" encoding="UTF-8"?>
<svg width="112px" height="112px" viewBox="0 0 112 112" version="1.1" xmlns="http://www.w3.org/2000/svg" xmlns:xlink="http://www.w3.org/1999/xlink" style="background: #131415;">
    <!-- Generator: Sketch 63.1 (92452) - https://sketch.com -->
    <title>Category buttons / Home&amp;PAA / Normal / Ic-btn-Jobs</title>
    <desc>Created with Sketch.</desc>
    <defs>
        <linearGradient x1="0.0131165757%" y1="0%" x2="252.906579%" y2="253.935268%" id="linearGradient-1">
            <stop stop-color="#A8DC28" offset="0%"></stop>
            <stop stop-color="#31C5F2" offset="100%"></stop>
        </linearGradient>
    </defs>
    <g id="Category-buttons-/-Home&amp;PAA-/-Normal-/-Ic-btn-Jobs" stroke="none" stroke-width="1" fill="none" fill-rule="evenodd">
        <rect fill="#131415" x="0" y="0" width="112" height="112"></rect>
        <g id="Badge-/-z.Base-/-1">
            <g id="Badge-/-z.Base-/-Large">
                <g id="Badge-/-z.Base-/-Shapes-/-Large" fill="#FFFFFF" fill-rule="evenodd" stroke="#CBD5D9" stroke-width="1">
                    <rect id="Rectangle" x="0.5" y="0.5" width="111" height="111" rx="4"></rect>
                </g>
                <text id="Category-name" font-family="Poppins-SemiBold, Poppins" font-size="14" font-weight="500" fill="#313133">
                    <tspan x="39.333" y="81">Jobs</tspan>
                </text>
                <g id="Icon-/-32-/-Categories-/-Jobs" transform="translate(36.000000, 20.000000)" fill="url(#linearGradient-1)" fill-rule="evenodd">
                    <path d="M23.7087173,1.25 C32.0000051,1.25 38.745081,7.99507576 38.745081,16.2859848 C38.7454597,20.3026515 37.1814445,24.0791667 34.3416718,26.919697 C31.5011415,29.7598485 27.7250051,31.3238636 23.7087173,31.3238636 C20.780687,31.3238636 18.0477324,30.4795455 15.734096,29.0257576 L15.734096,29.0257576 L7.20341423,38.0075758 C6.73485362,38.4814394 6.12727786,38.75 5.53068695,38.75 C5.02121726,38.75 4.55265665,38.5583333 4.21098998,38.2098485 L4.21098998,38.2098485 L1.77765665,35.7768939 C1.43636877,35.4356061 1.24886877,34.969697 1.25,34.4651515 C1.25,33.8712121 1.51174756,33.2685606 1.96818695,32.8125 L1.96818695,32.8125 L11.0310657,24.3560606 C9.54091423,22.0223485 8.67273241,19.2545455 8.67273241,16.2859848 C8.67273241,7.99507576 15.4178082,1.25 23.7087173,1.25 Z M12.4034142,26.1840909 L3.60682332,34.3920455 L5.60530817,36.3901515 L13.8935657,27.6632576 C13.3628839,27.2049242 12.8651567,26.7109848 12.4034142,26.1840909 L12.4034142,26.1840909 Z M23.7087173,3.52272727 C16.6708385,3.52272727 10.9454597,9.24810606 10.9454597,16.2859848 C10.9454597,23.3246212 16.6708385,29.0511364 23.7087173,29.0511364 C27.1185657,29.0511364 30.3238688,27.7234848 32.7344748,25.3128788 C35.1447021,22.9018939 36.4723536,19.6958333 36.4723536,16.2859848 C36.4723536,9.24810606 30.746596,3.52272727 23.7087173,3.52272727 Z M19.5109521,17.8519318 C20.1374673,17.8519318 20.6473157,18.3617803 20.6473157,18.9882955 L20.6473157,18.9882955 L20.6473157,23.3064773 C20.6473157,23.9329924 20.1374673,24.4428409 19.5109521,24.4428409 C18.884437,24.4428409 18.3745885,23.9329924 18.3745885,23.3064773 L18.3745885,23.3064773 L18.3745885,18.9882955 C18.3745885,18.3617803 18.884437,17.8519318 19.5109521,17.8519318 Z M27.907543,17.8519318 C28.5340582,17.8519318 29.0439067,18.3617803 29.0439067,18.9882955 L29.0439067,18.9882955 L29.0439067,23.3064773 C29.0439067,23.9329924 28.5340582,24.4428409 27.907543,24.4428409 C27.2810279,24.4428409 26.7711794,23.9329924 26.7711794,23.3064773 L26.7711794,23.3064773 L26.7711794,18.9882955 C26.7711794,18.3617803 27.2810279,17.8519318 27.907543,17.8519318 Z M23.7092854,5.49549242 C26.5581491,5.49549242 28.8759521,7.81329545 28.8759521,10.6625379 C28.8759521,11.6114015 28.6145885,12.4981439 28.1664824,13.2632955 C32.215346,14.976553 32.7490582,18.4356439 32.7490582,21.290947 L32.7490582,21.290947 L32.7490582,23.3064773 C32.7490582,23.9329924 32.2392097,24.4428409 31.6126945,24.4428409 C30.9858006,24.4428409 30.4763309,23.9329924 30.4763309,23.3064773 L30.4763309,23.3064773 L30.4763309,21.290947 C30.4763309,18.276553 29.7770885,16.0606439 26.4229218,15.0511742 C25.6327703,15.5417045 24.7051188,15.8299621 23.7092854,15.8299621 C22.7130733,15.8299621 21.785043,15.5417045 20.9952703,15.0511742 C17.6407248,16.0606439 16.9414824,18.276553 16.9414824,21.290947 L16.9414824,21.290947 L16.9414824,23.3064773 C16.9414824,23.9329924 16.4316339,24.4428409 15.8051188,24.4428409 C15.1786036,24.4428409 14.6687551,23.9329924 14.6687551,23.3064773 L14.6687551,23.3064773 L14.6687551,21.290947 C14.6687551,18.4356439 15.2024673,14.9769318 19.2517097,13.2632955 C18.8036036,12.4985227 18.54224,11.6114015 18.54224,10.6625379 C18.54224,7.81329545 20.860043,5.49549242 23.7092854,5.49549242 Z M23.7092854,7.7682197 C22.1130733,7.7682197 20.8149673,9.06670455 20.8149673,10.6625379 C20.8149673,12.2583712 22.1130733,13.5572348 23.7092854,13.5572348 C25.3051188,13.5572348 26.6032248,12.2583712 26.6032248,10.6625379 C26.6032248,9.06670455 25.3051188,7.7682197 23.7092854,7.7682197 Z" id="Combined-Shape"></path>
                </g>
            </g>
        </g>
    </g>
</svg>