<?xml version="1.0" encoding="UTF-8"?>
<svg width="112px" height="112px" viewBox="0 0 112 112" version="1.1" xmlns="http://www.w3.org/2000/svg" xmlns:xlink="http://www.w3.org/1999/xlink">
    <!-- Generator: Sketch 63.1 (92452) - https://sketch.com -->
    <title>Category buttons / Home&amp;PAA / Hover / Ic-btn-For Sale-Hover</title>
    <desc>Created with Sketch.</desc>
    <defs>
        <linearGradient x1="0%" y1="6.53774095%" x2="252.959821%" y2="227.269749%" id="linearGradient-1">
            <stop stop-color="#A8DC28" offset="0%"></stop>
            <stop stop-color="#31C5F2" offset="100%"></stop>
        </linearGradient>
    </defs>
    <g id="Category-buttons-/-Home&amp;PAA-/-Hover-/-Ic-btn-For-Sale-Hover" stroke="none" stroke-width="1" fill="none" fill-rule="evenodd">
        <g id="Badge-/-z.Base-/-1">
            <g id="Badge-/-z.Base-/-Large">
                <g id="Badge-/-z.Base-/-Shapes-/-Large" fill="#FFFFFF" fill-rule="evenodd" stroke="#CBD5D9" stroke-width="1">
                    <rect id="Rectangle" x="0.5" y="0.5" width="111" height="111" rx="4"></rect>
                </g>
                <text id="Category-name" font-family="Poppins-SemiBold, Poppins" font-size="14" font-weight="500" fill="#82C148">
                    <tspan x="28.609" y="81">For sale</tspan>
                </text>
                <g id="Icon-/-32-/-Categories-/-For-Sale" transform="translate(36.000000, 20.000000)" fill="url(#linearGradient-1)" fill-rule="evenodd">
                    <path d="M32.9574766,14.6727103 C35.9939252,14.6727103 38.4643692,17.1431542 38.4643692,20.1796028 C38.4643692,21.2842757 38.138785,22.3493458 37.5233645,23.2598598 C37.4771028,23.3278505 37.4234813,23.3895327 37.3642523,23.445257 C37.0723131,23.8283178 36.810514,24.1535514 36.5757009,24.4440888 C35.476986,25.8056542 35.1450935,26.2167523 35.1450935,28.5778505 L35.1450935,28.5778505 L35.1450935,29.7221262 C35.1450935,30.8961916 34.6877336,32.0008645 33.8571262,32.831472 C33.0254673,33.6620794 31.9211449,34.1194393 30.7477804,34.1194393 L30.7477804,34.1194393 L28.9936916,34.1194393 L28.9936916,36.1286682 C28.9936916,36.7174533 28.5146028,37.1961916 27.9254673,37.1961916 C27.3370327,37.1961916 26.8582944,36.7174533 26.8582944,36.1286682 L26.8582944,36.1286682 L26.8582944,34.1194393 L12.8557243,34.1194393 L12.8557243,36.1286682 C12.8557243,36.7174533 12.376986,37.1961916 11.7882009,37.1961916 C11.1997664,37.1961916 10.721028,36.7174533 10.721028,36.1286682 L10.721028,36.1286682 L10.721028,34.1194393 L8.96623832,34.1194393 C7.79252336,34.1194393 6.6885514,33.6620794 5.85759346,32.8318224 C5.02628505,32.001215 4.56892523,30.8965421 4.56892523,29.7221262 L4.56892523,29.7221262 L4.56892523,28.5778505 C4.56892523,26.2167523 4.23738318,25.8056542 3.13831776,24.4444393 C2.90245327,24.1517991 2.63820093,23.8244626 2.34521028,23.4382477 C2.28563084,23.3839252 2.23376168,23.3232944 2.19030374,23.2581075 C1.57558411,22.3496963 1.25,21.2846262 1.25,20.1796028 C1.25,17.1431542 3.72009346,14.6727103 6.75654206,14.6727103 C9.79299065,14.6727103 12.2634346,17.1431542 12.2634346,20.1796028 L12.2634346,20.1796028 L12.2635107,23.2665758 C12.265948,24.1924877 12.3463785,24.7009813 15.0005841,24.7009813 L15.0005841,24.7009813 L24.713785,24.7009813 C27.4505841,24.7009813 27.4505841,24.1602103 27.4505841,23.1785514 L27.4505841,20.1796028 C27.4505841,17.1431542 29.921028,14.6727103 32.9574766,14.6727103 Z M32.9574766,16.8081075 C31.0985981,16.8081075 29.5859813,18.3207243 29.5859813,20.1796028 L29.5859813,20.1796028 L29.5859813,23.1785514 C29.5859813,26.6731386 26.6918387,26.8284536 24.949081,26.8353565 L14.7652882,26.8353565 C13.0225305,26.8284536 10.1283879,26.6731386 10.1283879,23.1785514 L10.1283879,23.1785514 L10.1283879,20.1796028 C10.1283879,18.3207243 8.61577103,16.8081075 6.75654206,16.8081075 C4.89731308,16.8081075 3.38504673,18.3207243 3.38504673,20.1796028 C3.38504673,20.7988785 3.55327103,21.4020327 3.87184579,21.9263318 C3.8963785,21.9526168 3.91985981,21.9803037 3.94193925,22.0090421 C4.25946262,22.4338084 4.54684579,22.7891822 4.79988318,23.1032009 C6.0864486,24.6974766 6.70502336,25.5957243 6.70502336,28.5778505 L6.70502336,28.5778505 L6.70502336,29.7221262 C6.70502336,30.3263318 6.93983645,30.8944393 7.36705607,31.3216589 C7.7942757,31.7488785 8.36273364,31.9840421 8.96623832,31.9840421 L8.96623832,31.9840421 L30.7477804,31.9840421 C31.3509346,31.9840421 31.9190421,31.748528 32.348014,31.3206075 C32.7748832,30.8940888 33.0100467,30.3263318 33.0100467,29.7221262 L33.0100467,29.7221262 L33.0100467,28.5778505 C33.0100467,25.5953738 33.6279206,24.6971262 34.913785,23.1032009 C35.1528037,22.8074065 35.45,22.4401168 35.7703271,22.0118458 C35.7941589,21.9803037 35.8183411,21.951215 35.8439252,21.924229 C36.1614486,21.4002804 36.328972,20.7978271 36.328972,20.1796028 C36.328972,18.3207243 34.8167056,16.8081075 32.9574766,16.8081075 Z M17.2570327,14.8065888 C17.9579673,14.8065888 18.5281776,15.3767991 18.5281776,16.0777336 C18.5281776,16.7786682 17.9579673,17.3488785 17.2570327,17.3488785 C16.5560981,17.3488785 15.9858879,16.7786682 15.9858879,16.0777336 C15.9858879,15.3767991 16.5560981,14.8065888 17.2570327,14.8065888 Z M22.4568808,14.8066238 C23.1581659,14.8066238 23.7287266,15.3768341 23.7287266,16.0777687 C23.7287266,16.7787033 23.1581659,17.3489136 22.4568808,17.3489136 C21.7562967,17.3489136 21.1860864,16.7787033 21.1860864,16.0777687 C21.1860864,15.3768341 21.7562967,14.8066238 22.4568808,14.8066238 Z M21.7428738,2.5 C30.1411215,2.5 33.1211449,7.26880841 33.1211449,11.3524533 L33.1211449,11.3524533 L33.1211449,13.5064252 L32.7794393,13.5151869 C32.3220794,13.5271028 31.8633178,13.5866822 31.4171729,13.6925234 L31.4171729,13.6925234 L30.9853972,13.7952103 L30.9853972,11.3524533 C30.9853972,8.10537383 28.5577103,4.6353972 21.7428738,4.6353972 L21.7428738,4.6353972 L18.3405374,4.6353972 C11.5257009,4.6353972 9.09766355,8.10537383 9.09766355,11.3524533 L9.09766355,11.3524533 L9.09766355,13.916472 L8.64766355,13.7829439 C8.21378505,13.6543224 7.75537383,13.5702103 7.2853972,13.5330607 L7.2853972,13.5330607 L6.96226636,13.5074766 L6.96226636,11.3524533 C6.96226636,7.26880841 9.94228972,2.5 18.3405374,2.5 L18.3405374,2.5 Z M14.7466005,9.66667056 C15.447535,9.66667056 16.0177453,10.2368808 16.0177453,10.9378154 C16.0177453,11.63875 15.447535,12.2089603 14.7466005,12.2089603 C14.0456659,12.2089603 13.4754556,11.63875 13.4754556,10.9378154 C13.4754556,10.2368808 14.0456659,9.66667056 14.7466005,9.66667056 Z M24.9673131,9.66663551 C25.6682477,9.66663551 26.2388084,10.2368458 26.2388084,10.9377804 C26.2388084,11.638715 25.6682477,12.2089252 24.9673131,12.2089252 C24.266729,12.2089252 23.6965187,11.638715 23.6965187,10.9377804 C23.6965187,10.2368458 24.266729,9.66663551 24.9673131,9.66663551 Z M19.8571495,9.66667056 C20.5580841,9.66667056 21.1282944,10.2368808 21.1282944,10.9378154 C21.1282944,11.63875 20.5580841,12.2089603 19.8571495,12.2089603 C19.156215,12.2089603 18.5860047,11.63875 18.5860047,10.9378154 C18.5860047,10.2368808 19.156215,9.66667056 19.8571495,9.66667056 Z" id="Combined-Shape"></path>
                </g>
            </g>
        </g>
    </g>
</svg>