<?xml version="1.0" encoding="UTF-8"?>
<svg width="112px" height="112px" viewBox="0 0 112 112" version="1.1" xmlns="http://www.w3.org/2000/svg" xmlns:xlink="http://www.w3.org/1999/xlink">
    <!-- Generator: Sketch 63.1 (92452) - https://sketch.com -->
    <title>Category buttons / Home&amp;PAA / Hover / Ic-btn-Animals-Hover </title>
    <desc>Created with Sketch.</desc>
    <defs>
        <linearGradient x1="0%" y1="27.1186901%" x2="100%" y2="72.8813099%" id="linearGradient-1">
            <stop stop-color="#A8DC28" offset="0%"></stop>
            <stop stop-color="#79D378" offset="100%"></stop>
        </linearGradient>
    </defs>
    <g id="Category-buttons-/-Home&amp;PAA-/-Hover-/-Ic-btn-Animals-Hover-" stroke="none" stroke-width="1" fill="none" fill-rule="evenodd">
        <g id="Badge-/-z.Base-/-1">
            <g id="Badge-/-z.Base-/-Large">
                <g id="Badge-/-z.Base-/-Shapes-/-Large" fill="#FFFFFF" fill-rule="evenodd" stroke="#CBD5D9" stroke-width="1">
                    <rect id="Rectangle" x="0.5" y="0.5" width="111" height="111" rx="4"></rect>
                </g>
                <text id="Category-name" font-family="Poppins-SemiBold, Poppins" font-size="14" font-weight="500" fill="#82C148">
                    <tspan x="26.81" y="81">Animals</tspan>
                </text>
                <g id="Icon-/-32-/-Categories-/-Animals" transform="translate(36.000000, 20.000000)" fill="url(#linearGradient-1)" fill-rule="evenodd">
                    <path d="M19.0948384,24.7129099 L17.8942562,23.0800169 C17.559051,22.6241095 17.9194929,22.0134391 18.5237927,22.0134391 L21.8864979,22.0134391 C22.4907978,22.0134391 22.8512396,22.6241095 22.5160344,23.0800169 L21.2901485,24.7473251 L21.2901485,29.0887644 C21.2901485,29.1564192 21.2840277,29.2226444 21.2723097,29.2869165 C22.0939311,30.1626996 23.2410707,30.6727178 24.4738039,30.6727178 C26.8986765,30.6727178 28.8644241,28.7069702 28.8644241,26.2820976 C28.8644241,25.4354961 28.6251225,24.6274564 28.183963,23.9328558 C28.0964476,23.8228976 28.0143402,23.7091773 27.938103,23.5917823 C27.924088,23.5702011 27.9109283,23.5483111 27.8986153,23.5261521 C27.6858157,23.194222 27.6663702,22.7703985 27.853993,22.4180555 C28.5143299,21.1779873 28.8644241,19.7927457 28.8644241,18.3545889 C28.8644241,14.9564275 26.9070129,12.0154439 24.0581925,10.5976403 C24.0049446,10.5767743 23.9531918,10.5517082 23.9034795,10.5225579 C22.7819481,9.99203122 21.5281982,9.69531011 20.2051453,9.69531011 C15.4227577,9.69531011 11.5458665,13.5722013 11.5458665,18.3545889 C11.5458665,19.7927457 11.8959607,21.1779873 12.5562976,22.4180555 C12.7589734,22.7986671 12.7200218,23.2626892 12.4567296,23.6041858 C11.8690792,24.3663833 11.5458665,25.2981987 11.5458665,26.2820976 C11.5458665,28.7069702 13.5116142,30.6727178 15.9364868,30.6727178 C17.1587475,30.6727178 18.2968628,30.1713283 19.1169708,29.3091573 C19.1024583,29.2379576 19.0948384,29.1642509 19.0948384,29.0887644 L19.0948384,24.7129099 L19.0948384,24.7129099 Z M9.38546357,25.6010028 C7.53375624,26.3134685 5.2942444,26.2637433 3.73347723,25.2501692 C1.25844987,23.6428676 0.479236636,19.5959461 2.1009596,17.0987117 C3.89655283,14.3241975 5.47356845,12.2351909 6.84477579,10.8245315 C9.16075166,8.44192093 13.3582441,7.17525237 15.8118775,8.425828 C17.1550069,7.830643 18.6414632,7.5 20.2051453,7.5 C21.7044046,7.5 23.1326704,7.80395963 24.4316795,8.35361588 C26.9114503,7.29973512 30.9141941,8.56035751 33.1552242,10.865866 C34.5264315,12.2765254 36.1034472,14.365532 37.8990404,17.1400462 C39.5207634,19.6372806 38.7415501,23.6842021 36.2665228,25.2915037 C34.8240074,26.2282841 32.8017014,26.3417353 31.0416357,25.7910641 C31.0536588,25.9536795 31.0597342,26.1174449 31.0597342,26.2820976 C31.0597342,29.9194065 28.1111128,32.868028 24.4738039,32.868028 C22.8797938,32.868028 21.3779824,32.2973012 20.2051453,31.2979292 C19.0323082,32.2973012 17.5304968,32.868028 15.9364868,32.868028 C12.2991779,32.868028 9.35055643,29.9194065 9.35055643,26.2820976 C9.35055643,26.0531144 9.36230664,25.8258474 9.38546357,25.6010028 L9.38546357,25.6010028 Z M10.151874,22.4546769 C9.62604358,21.1667063 9.35055643,19.7797446 9.35055643,18.3545889 C9.35055643,15.0744644 10.8054896,12.1341578 13.1052101,10.1438149 C11.5543233,10.2847404 9.61566094,11.1235401 8.41895094,12.3546815 C7.16444578,13.645281 5.66796835,15.6276021 3.94315365,18.2929447 C2.97073365,19.7903428 3.48713063,22.4725827 4.92912881,23.4090272 C6.38165863,24.3523111 9.14620639,23.83103 10.151874,22.4546769 L10.151874,22.4546769 Z M27.4369246,10.2597899 C29.6602679,12.2474671 31.0597342,15.1375966 31.0597342,18.3545889 C31.0597342,19.9076302 30.7325874,21.4153153 30.1108319,22.7989678 C31.2724795,23.9440694 33.7303837,24.3208844 35.0708712,23.4503617 C36.5128694,22.5139171 37.0292663,19.8316773 36.0568464,18.3342792 C34.3320316,15.6689365 32.8355542,13.6866155 31.5810491,12.396016 C30.5203433,11.3047918 28.8767455,10.5217988 27.4369246,10.2597899 L27.4369246,10.2597899 Z M24.0080482,18.3545889 C22.9976846,18.3545889 22.1786231,17.5355274 22.1786231,16.5251638 C22.1786231,15.5148002 22.9976846,14.6957387 24.0080482,14.6957387 C25.0184117,14.6957387 25.8374732,15.5148002 25.8374732,16.5251638 C25.8374732,17.5355274 25.0184117,18.3545889 24.0080482,18.3545889 Z M17.0318405,18.3545889 C16.0214769,18.3545889 15.2024154,17.5355274 15.2024154,16.5251638 C15.2024154,15.5148002 16.0214769,14.6957387 17.0318405,14.6957387 C18.042204,14.6957387 18.8612656,15.5148002 18.8612656,16.5251638 C18.8612656,17.5355274 18.042204,18.3545889 17.0318405,18.3545889 Z" id="Shape"></path>
                </g>
            </g>
        </g>
    </g>
</svg>