<?xml version="1.0" encoding="UTF-8"?>
<svg width="112px" height="112px" viewBox="0 0 112 112" version="1.1" xmlns="http://www.w3.org/2000/svg" xmlns:xlink="http://www.w3.org/1999/xlink">
    <!-- Generator: Sketch 63.1 (92452) - https://sketch.com -->
    <title>Category buttons / Home&amp;PAA / Hover / Ic-btn-Motors-Hover </title>
    <desc>Created with Sketch.</desc>
    <defs>
        <linearGradient x1="0%" y1="20.5042825%" x2="100%" y2="79.4957175%" id="linearGradient-1">
            <stop stop-color="#A8DC28" offset="0%"></stop>
            <stop stop-color="#79D378" offset="100%"></stop>
        </linearGradient>
    </defs>
    <g id="Category-buttons-/-Home&amp;PAA-/-Hover-/-Ic-btn-Motors-Hover-" stroke="none" stroke-width="1" fill="none" fill-rule="evenodd">
        <g id="Badge-/-z.Base-/-1">
            <g id="Badge-/-z.Base-/-Large">
                <g id="Badge-/-z.Base-/-Shapes-/-Large" fill="#FFFFFF" fill-rule="evenodd" stroke="#CBD5D9" stroke-width="1">
                    <rect id="Rectangle" x="0.5" y="0.5" width="111" height="111" rx="4"></rect>
                </g>
                <text id="Category-name" font-family="Poppins-SemiBold, Poppins" font-size="14" font-weight="500" fill="#82C148">
                    <tspan x="31.346" y="81">Motors</tspan>
                </text>
                <g id="Icon-/-32-/-Categories-/-Motors" transform="translate(36.000000, 20.000000)" fill="url(#linearGradient-1)" fill-rule="evenodd">
                    <path d="M10.2477211,18.2823495 C10.1359659,18.3162958 10.011761,18.3349703 9.87510648,18.3349703 C9.38272494,18.3349703 8.31228623,18.7811045 7.15325582,19.4864339 C6.14904771,20.097546 5.2223351,20.8285106 5.09107649,21.0364376 C4.84424383,21.4274456 4.77138492,22.0380976 4.76445861,23.8265999 C4.7726523,25.0504785 4.87145049,25.5241777 5.1318098,26.0110073 C5.35378582,26.4260663 5.67280007,26.7450806 6.08785915,26.9670566 C6.59710579,27.2394047 7.091985,27.3349703 8.44618088,27.3349703 L19.8557177,27.3349703 L31.2652545,27.3349703 C32.6194503,27.3349703 33.1143296,27.2394047 33.6235762,26.9670566 C34.0386353,26.7450806 34.3576495,26.4260663 34.5796256,26.0110073 C34.8399849,25.5241777 34.9387831,25.0504785 34.9469767,23.8265999 C34.9400504,22.0380976 34.8671915,21.4274456 34.6203589,21.0364376 C34.3101489,20.5450335 30.538076,18.6946631 28.9959045,18.3804525 C28.6971245,18.4587929 28.3882058,18.4989818 28.0765084,18.4989818 L11.4850005,18.4989818 C11.050479,18.4989818 10.6338134,18.4225322 10.2477211,18.2823495 L10.2477211,18.2823495 Z M8.06716445,16.0849703 C7.93298275,15.7062801 7.85995556,15.2986601 7.85995556,14.8739818 C7.85995556,14.2603402 8.01573157,13.6567416 8.31268866,13.1197383 C10.2834258,9.55594973 11.8235476,7.5561846 13.2055307,7.00084927 C14.7121052,6.39544822 16.476248,6.25334643 19.75,6.25334643 C19.9418575,6.25334643 20.0974575,6.25279812 20.4412778,6.25117662 C23.5678825,6.23643117 24.8664572,6.3529398 26.3391373,7.01992871 C27.5699102,7.57735585 29.0932655,9.52067578 31.1854289,13.0097787 C31.7641326,13.9748772 31.8414931,15.1009557 31.4933596,16.0849703 L33.9353188,16.0849703 C34.677191,15.7672581 34.9475392,15.4253894 34.9475392,15.0033459 C34.9475392,14.8972416 34.9492224,14.8208513 34.9548837,14.6206714 C34.958505,14.4914422 34.9597846,14.4386892 34.9606926,14.370759 C34.961729,14.2932247 34.9613818,14.2245643 34.9597868,14.1644675 C34.8537681,14.1716268 34.694546,14.1866168 34.439559,14.2118099 C34.0170466,14.2535547 33.6818373,14.2740979 33.2776648,14.2740979 C32.6563445,14.2740979 32.1526648,13.7704182 32.1526648,13.1490979 C32.1526648,12.5277775 32.6563445,12.0240979 33.2776648,12.0240979 C33.5972186,12.0240979 33.8632638,12.0077934 34.2183327,11.9727121 C35.1413833,11.8815133 35.2782419,11.8759073 35.7311312,11.9853133 C35.8604445,12.016552 35.9872746,12.0579314 36.1126715,12.1099445 C37.0485603,12.4981397 37.2263997,13.2107132 37.2104916,14.4008315 C37.2093889,14.4833269 37.2078062,14.5485771 37.2039844,14.6842787 C37.1989667,14.8616996 37.1975392,14.9264886 37.1975392,15.0033459 C37.1975392,16.5070482 36.2333547,17.6160855 34.5577155,18.2600844 C34.5371401,18.2679921 34.5163604,18.2752844 34.4954041,18.2819561 C35.4810786,18.8486287 36.2583767,19.4162243 36.5229719,19.83537 C37.0704042,20.7025583 37.1285697,22.1530434 37.1959454,23.5842528 C37.1970693,23.7576579 37.1975392,23.9401653 37.1975392,24.1325777 C37.1975392,24.1890157 37.194354,24.2433303 37.1882232,24.2955213 C37.1477483,25.5759229 36.9705847,26.3113062 36.5637052,27.0721047 C36.1320297,27.8792678 35.4918368,28.5194607 34.6846736,28.9511363 C34.3068091,29.1532205 33.935214,29.2986384 33.5,29.3987877 L33.5,30.5354241 C33.5,31.8471003 32.4366763,32.9104241 31.125,32.9104241 L28.625,32.9104241 C27.3133237,32.9104241 26.25,31.8471003 26.25,30.5354241 L26.25,29.5849703 L13.5,29.5849703 L13.5,30.5354241 C13.5,31.8471003 12.4366763,32.9104241 11.125,32.9104241 L8.625,32.9104241 C7.31332372,32.9104241 6.25,31.8471003 6.25,30.5354241 L6.25,29.4075064 C5.7980725,29.3071427 5.4157389,29.1591636 5.02676172,28.9511363 C4.21959858,28.5194607 3.57940567,27.8792678 3.1477301,27.0721047 C2.74085064,26.3113062 2.56368703,25.5759229 2.5232122,24.2955213 C2.51708138,24.2433303 2.51389613,24.1890157 2.51389613,24.1325777 L2.51389613,23.6526855 C2.51389613,23.6295167 2.51443292,23.6067058 2.51548992,23.5842528 C2.52924971,21.4611804 2.64103113,20.7025583 3.18846341,19.83537 C3.47967488,19.3740614 4.15650923,18.777332 4.99329408,18.1961071 C3.41668893,17.5438961 2.51389613,16.458389 2.51389613,15.0033459 C2.51389613,14.9264886 2.51246862,14.8616996 2.50745094,14.6842787 C2.50362915,14.5485771 2.50204641,14.4833269 2.50094371,14.4008315 C2.48503566,13.2107132 2.66287503,12.4981397 3.59876387,12.1099445 C3.84776508,12.0066618 4.07447668,11.940246 4.31157743,11.9042341 C4.61033953,11.8588567 4.66674747,11.8597262 5.36726836,11.8919306 C5.63730604,11.9043448 5.85773358,11.9104241 6.12510648,11.9104241 C6.74642682,11.9104241 7.25010648,12.4141037 7.25010648,13.0354241 C7.25010648,13.6567444 6.74642682,14.1604241 6.12510648,14.1604241 C5.81924818,14.1604241 5.56581287,14.1534345 5.26394029,14.1395568 C4.96071468,14.1256168 4.82881406,14.1200344 4.75308781,14.1207146 C4.75031599,14.1905657 4.74944551,14.2737109 4.75074273,14.370759 C4.75165074,14.4386892 4.75293035,14.4914422 4.75655167,14.6206714 C4.762213,14.8208513 4.76389613,14.8972416 4.76389613,15.0033459 C4.76389613,15.4253894 5.03424432,15.7672581 5.77611653,16.0849703 L8.06716445,16.0849703 L8.06716445,16.0849703 Z M28.7277641,16.0849703 C28.7465997,16.0748406 28.7652237,16.0642581 28.7836194,16.0532275 C29.4349009,15.662701 29.6462837,14.8181501 29.2557547,14.1668689 C27.4235758,11.1113423 26.0498693,9.35892686 25.4108627,9.06951552 C24.3480603,8.58816363 23.2321058,8.48803975 20.451889,8.5011516 C20.104551,8.50278968 19.9465582,8.50334643 19.75,8.50334643 C16.7927761,8.50334643 15.1770068,8.63349673 14.0444693,9.08859497 C13.3344878,9.37389351 11.9894005,11.120417 10.2816838,14.2085717 C10.1690437,14.4122648 10.1099556,14.6412186 10.1099556,14.8739818 C10.1099556,15.6333857 10.7255694,16.2489818 11.4849803,16.2489818 L28.0042719,16.2489818 C28.170222,16.1464091 28.3771314,16.0849703 28.625,16.0849703 L28.7277641,16.0849703 L28.7277641,16.0849703 Z M28.5,29.5849703 L28.5,30.5354241 C28.5,30.6044597 28.5559644,30.6604241 28.625,30.6604241 L31.125,30.6604241 C31.1940356,30.6604241 31.25,30.6044597 31.25,30.5354241 L31.25,29.5849703 L28.5,29.5849703 L28.5,29.5849703 Z M8.5,29.5849703 L8.5,30.5354241 C8.5,30.6044597 8.55596441,30.6604241 8.625,30.6604241 L11.125,30.6604241 C11.1940356,30.6604241 11.25,30.6044597 11.25,30.5354241 L11.25,29.5849703 L8.5,29.5849703 Z M14.75,22.7854241 C14.1286797,22.7854241 13.625,22.2817444 13.625,21.6604241 C13.625,21.0391037 14.1286797,20.5354241 14.75,20.5354241 L24.75,20.5354241 C25.3713203,20.5354241 25.875,21.0391037 25.875,21.6604241 C25.875,22.2817444 25.3713203,22.7854241 24.75,22.7854241 L14.75,22.7854241 Z M9.875,23.0354241 C9.18464406,23.0354241 8.625,22.47578 8.625,21.7854241 C8.625,21.0950681 9.18464406,20.5354241 9.875,20.5354241 C10.5653559,20.5354241 11.125,21.0950681 11.125,21.7854241 C11.125,22.47578 10.5653559,23.0354241 9.875,23.0354241 Z M29.875,23.0354241 C29.1846441,23.0354241 28.625,22.47578 28.625,21.7854241 C28.625,21.0950681 29.1846441,20.5354241 29.875,20.5354241 C30.5653559,20.5354241 31.125,21.0950681 31.125,21.7854241 C31.125,22.47578 30.5653559,23.0354241 29.875,23.0354241 Z" id="Shape"></path>
                </g>
            </g>
        </g>
    </g>
</svg>