<?xml version="1.0" encoding="UTF-8"?>
<svg width="112px" height="112px" viewBox="0 0 112 112" version="1.1" xmlns="http://www.w3.org/2000/svg" xmlns:xlink="http://www.w3.org/1999/xlink" style="background: #FFFFFF;">
    <!-- Generator: Sketch 63.1 (92452) - https://sketch.com -->
    <title>Category buttons / Home&amp;PAA / Selected / Ic-btn-Community-ON</title>
    <desc>Created with Sketch.</desc>
    <defs>
        <linearGradient x1="0%" y1="2.30497989%" x2="100%" y2="97.6950201%" id="linearGradient-1">
            <stop stop-color="#A8DC28" offset="0%"></stop>
            <stop stop-color="#79D378" offset="100%"></stop>
        </linearGradient>
    </defs>
    <g id="Category-buttons-/-Home&amp;PAA-/-Selected-/-Ic-btn-Community-ON" stroke="none" stroke-width="1" fill="none" fill-rule="evenodd">
        <rect fill="#FFFFFF" x="0" y="0" width="112" height="112"></rect>
        <g id="Badge-/-z.Base-/-1">
            <g id="Badge-/-z.Base-/-Large">
                <g id="Badge-/-z.Base-/-Shapes-/-Large" stroke="#91D851" stroke-width="3">
                    <rect id="Rectangle" x="1.5" y="1.5" width="109" height="109" rx="4"></rect>
                </g>
                <text id="Category-name" font-family="Poppins-SemiBold, Poppins" font-size="14" font-weight="500" fill="#82C148">
                    <tspan x="13.384" y="81">Community</tspan>
                </text>
                <g id="Icon-/-32-/-Categories-/-Whatson" transform="translate(36.000000, 20.000000)" fill="url(#linearGradient-1)" fill-rule="evenodd">
                    <path d="M8.45128874,13.8624354 L8.36234199,13.8402585 C5.38262612,13.0973319 3.58159155,10.0899711 4.32669046,7.10154261 L4.46014101,6.56630168 C5.20523992,3.57787319 8.20732944,1.7680657 11.1425719,2.49990385 C13.7553901,3.00922412 16.0234813,4.52224591 17.5243536,6.83887783 C19.1252834,9.32258536 19.625449,12.4319885 18.891471,15.3758136 L18.8581083,15.5096239 C18.7357787,16.0002614 18.2465513,16.2572925 17.8018176,16.146408 C17.3126105,16.0244349 17.0569114,15.5342966 17.1681202,15.0882625 L17.2014829,14.9544523 C17.8131312,12.5012647 17.3685294,9.92685285 16.0455405,7.84407685 C14.822609,5.92837646 12.9658889,4.66004947 10.8422778,4.27270223 L10.7978044,4.26161377 C8.79650269,3.76263321 6.73951542,5.00268649 6.23907586,7.00983996 L6.10562531,7.54508088 C5.60518574,9.55223435 6.83922795,11.6128334 8.84052965,12.111814 L8.88500303,12.1229024 C8.88500303,12.1229024 10.3859768,12.5445134 11.4867409,11.9188177 C12.0426834,11.5836682 12.4096217,11.0592661 12.6097975,10.2564048 C12.7321272,9.76576724 13.2213546,9.50873607 13.6660883,9.61962064 C14.1552954,9.74159366 14.4109944,10.231732 14.2997856,10.6777661 C13.9772801,11.971265 13.3212396,12.8973473 12.3316639,13.4560131 C10.7861458,14.3498284 8.94049582,13.9844085 8.45128874,13.8624354 Z M6.82750848,22.8380606 C6.69408836,22.8047953 6.56066825,22.7715299 6.43836902,22.6936611 C5.61561672,22.3937736 4.9707782,21.7592357 4.60391093,20.9571231 L4.48162185,20.6897522 C4.11475458,19.8876396 4.10368443,18.9847325 4.40392788,18.1594446 C4.70417132,17.3341567 5.28236573,16.7202983 6.08291685,16.3513842 C7.12808673,15.7592035 8.61797003,15.6569116 10.1522963,16.1342144 C11.9089894,16.6669595 13.3209758,17.8244019 13.9546528,19.2615516 L13.9880053,19.3172434 C14.2103519,19.7516899 13.9768337,20.3093573 13.5543215,20.4882701 C13.1206883,20.7117864 12.5647763,20.4784296 12.3869031,20.0550716 L12.3535506,19.9993797 C11.9310992,19.0412799 10.9082421,18.2177391 9.64075611,17.8069671 C8.58451608,17.4962407 7.58385001,17.5310036 6.98343414,17.8550646 L6.87224563,17.9220945 C6.50532764,18.0674924 6.23846712,18.3799658 6.09390584,18.7703081 C5.94934455,19.1606503 5.94932426,19.5396545 6.13831833,19.9184091 L6.26060742,20.18578 C6.40512813,20.5534462 6.71643158,20.8205675 7.10557104,20.964967 C7.4947105,21.1093665 7.87273923,21.1088673 8.2507781,20.9188661 L8.36196661,20.8518362 C8.41756086,20.8183212 8.89566735,20.6058935 8.87347632,19.7475898 C8.851265,19.2682903 9.28490827,18.855272 9.76300462,18.8323463 C10.241101,18.8094207 10.6524619,19.2436176 10.6746732,19.722917 C10.663461,21.4730393 9.60716013,22.2993255 8.94003927,22.5120029 C8.26178738,22.9587857 7.53908242,23.0154759 6.82750848,22.8380606 Z M1.69600337,4.67897035 C1.07337617,4.52373196 0.673146264,3.85542955 0.828838573,3.23098181 C0.984530883,2.60653406 1.65166189,2.20435462 2.27428909,2.35959302 C2.90803716,2.470228 3.30826707,3.13853041 3.14145388,3.80758156 C2.98576157,4.43202931 2.31863056,4.83420875 1.69600337,4.67897035 Z M10.3188153,8.98101676 C9.69618807,8.82577836 9.29595817,8.15747596 9.45165047,7.53302821 C9.60734278,6.90858047 10.2744738,6.50640103 10.897101,6.66163942 C11.5197282,6.81687782 11.9199581,7.48518022 11.7642658,8.10962797 C11.6085735,8.73407571 10.9414425,9.13625515 10.3188153,8.98101676 Z M5.75983305,28.4465027 C5.13720586,28.2912643 4.73697595,27.6229619 4.89266826,26.9985142 C5.04836057,26.3740664 5.71549157,25.971887 6.33811877,26.1271254 C6.96074597,26.2823638 7.36097587,26.9506662 7.20528356,27.5751139 C7.04959126,28.1995617 6.38246025,28.6017411 5.75983305,28.4465027 Z M21.6963274,9.67633134 C21.0737002,9.52109294 20.6734703,8.85279054 20.8291626,8.22834279 C20.9848549,7.60389505 21.6519859,7.2017156 22.2746131,7.356954 C22.8972403,7.5121924 23.2974702,8.1804948 23.1417779,8.80494255 C22.9860856,9.42939029 22.3189546,9.83156973 21.6963274,9.67633134 Z M1.70915424,15.9004535 C1.06686513,15.7403129 0.688034203,15.1098323 0.848174864,14.4675432 C1.00831552,13.8252541 1.63879606,13.4464232 2.28108517,13.6065639 C2.92337428,13.7667045 3.3022052,14.3971851 3.14206454,15.0394742 C2.98192388,15.6817633 2.35144334,16.0605942 1.70915424,15.9004535 Z M37.4915479,37.021374 C37.6471895,37.3444367 37.6026958,37.7123525 37.3024828,37.9691341 C37.1023374,38.2034892 36.7465403,38.3042836 36.4352267,38.2266644 L36.34628,38.2044875 L23.6158662,33.3722734 L21.9370092,32.7168065 L18.1012088,31.2392963 L16.6780711,30.6949636 L10.7186799,28.451102 C10.4518397,28.3845713 10.229483,28.1396269 10.1627881,27.8387411 C10.0849724,27.5824586 10.1628186,27.2702348 10.3629639,27.0358797 L24.4953795,11.8459046 C24.6955249,11.6115495 24.9957278,11.5442701 25.2736889,11.5661974 C25.5961234,11.5992132 25.829601,11.7995541 25.95189,12.066925 L28.77566,18.1718518 L29.2648163,19.2413353 L31.1325052,23.3075904 L31.8995922,24.9675075 L37.4915479,37.021374 Z M16.9338919,28.9110768 C17.5788623,27.0820874 19.2800626,25.7533264 21.3703415,25.7059776 C22.9380506,25.670466 24.2056279,24.3757192 24.2613034,22.8261875 L24.2613135,22.6366854 C24.2947674,20.7973562 25.3955823,19.2241501 26.9966845,18.4863219 L24.8955283,14.0302238 L12.6200053,27.2669902 L16.9338919,28.9110768 Z M18.5682756,29.5554552 L23.1823549,31.3217644 C23.9495636,30.7076564 24.9391291,30.3384927 25.9842686,30.3148183 C27.5519777,30.2793067 28.819555,28.9845599 28.8752305,27.4350281 L28.8752406,27.245526 C28.9308856,26.2645006 29.2533708,25.3500059 29.7648602,24.6247637 L27.6748248,20.1240622 C26.6630176,20.5824326 25.9847353,21.5977218 25.940201,22.7236459 L25.9401909,22.913148 C25.8399914,25.3991018 23.816316,27.4528553 21.303535,27.4896149 C20.013787,27.5470538 18.9463652,28.4179434 18.5682756,29.5554552 Z M25.4282449,32.1659846 L34.9565962,35.8208257 L30.7431729,26.7637307 C30.6986894,26.9421444 30.6542059,27.120558 30.6541957,27.3100601 L30.6541856,27.4995622 C30.5539861,29.985516 28.5303107,32.0392695 26.0175297,32.0760291 C25.8285154,32.0762786 25.6283801,32.1211316 25.4282449,32.1659846 Z" id="Shape"></path>
                </g>
            </g>
        </g>
        <g id="Icon-/-Check-/-Checkbox" transform="translate(80.000000, 8.000000)" fill="#91D851">
            <path d="M10.9709463,13.366529 L16.3112027,6.57437624 C16.8225102,5.92405564 17.7675383,5.80875183 18.4219821,6.31683796 C19.0764259,6.8249241 19.1924607,7.76399831 18.6811532,8.41431891 C14.2260171,13.9508613 11.8927875,16.7447414 11.6814646,16.7959592 C11.0876228,17.1417187 10.3115238,17.0459069 9.82251261,16.5248105 L6.403984,12.8819836 C5.83758363,12.2784203 5.87081232,11.3328702 6.47820235,10.7700383 C7.08559238,10.2072064 8.0371375,10.2402257 8.60353787,10.843789 L10.9709463,13.366529 Z" id="Path"></path>
        </g>
    </g>
</svg>