<?xml version="1.0" encoding="UTF-8"?>
<svg width="112px" height="112px" viewBox="0 0 112 112" version="1.1" xmlns="http://www.w3.org/2000/svg" xmlns:xlink="http://www.w3.org/1999/xlink">
    <!-- Generator: Sketch 63.1 (92452) - https://sketch.com -->
    <title>Category buttons / Home&amp;PAA / Hover / Ic-btn-Property-Hover </title>
    <desc>Created with Sketch.</desc>
    <defs>
        <linearGradient x1="0%" y1="13.2926005%" x2="100%" y2="86.7073995%" id="linearGradient-1">
            <stop stop-color="#A8DC28" offset="0%"></stop>
            <stop stop-color="#79D378" offset="100%"></stop>
        </linearGradient>
    </defs>
    <g id="Category-buttons-/-Home&amp;PAA-/-Hover-/-Ic-btn-Property-Hover-" stroke="none" stroke-width="1" fill="none" fill-rule="evenodd">
        <g id="Badge-/-z.Base-/-1">
            <g id="Badge-/-z.Base-/-Large">
                <g id="Badge-/-z.Base-/-Shapes-/-Large" fill="#FFFFFF" fill-rule="evenodd" stroke="#CBD5D9" stroke-width="1">
                    <rect id="Rectangle" x="0.5" y="0.5" width="111" height="111" rx="4"></rect>
                </g>
                <text id="Category-name" font-family="Poppins-SemiBold, Poppins" font-size="14" font-weight="500" fill="#82C148">
                    <tspan x="25.396" y="81">Property</tspan>
                </text>
                <g id="Icon-/-32-/-Categories-/-Property" transform="translate(36.000000, 20.000000)" fill="url(#linearGradient-1)" fill-rule="evenodd">
                    <path d="M33.1411916,17.2407892 C33.6779084,17.2407892 34.1140921,17.6772972 34.1140921,18.2136897 L34.1140921,18.2136897 L34.1140921,33.9351127 L35.8909326,33.9351127 C36.4273251,33.9351127 36.8638331,34.3716207 36.8638331,34.9080132 C36.8638331,35.4444056 36.4273251,35.8809137 35.8909326,35.8809137 L35.8909326,35.8809137 L4.10951725,35.8809137 C3.57312479,35.8809137 3.13661678,35.4444056 3.13661678,34.9080132 C3.13661678,34.3716207 3.57312479,33.9351127 4.10951725,33.9351127 L4.10951725,33.9351127 L5.88635781,33.9351127 L5.88635781,18.2136897 C5.88635781,17.6772972 6.32254152,17.2407892 6.85925828,17.2407892 C7.39565074,17.2407892 7.83215875,17.6772972 7.83215875,18.2136897 L7.83215875,18.2136897 L7.83215875,33.9351127 L32.1682911,33.9351127 L32.1682911,18.2136897 C32.1682911,17.6772972 32.6047991,17.2407892 33.1411916,17.2407892 Z M23.9232839,17.0715046 C25.2052425,17.0715046 27.8525046,18.0959687 27.8525046,21.2627598 C27.8525046,24.8443307 23.4494814,28.8406815 20.4056001,30.2341993 C20.2771773,30.2928976 20.1412955,30.322409 20.0005492,30.322409 C19.8594787,30.322409 19.7235969,30.2928976 19.5954983,30.2341993 C16.5516171,28.8406815 12.1479452,24.8436821 12.1479452,21.2627598 C12.1479452,18.0959687 14.795856,17.0715046 16.0781388,17.0715046 C17.2576185,17.0715046 18.9235484,17.6250849 20.0005492,18.6868436 C21.0775501,17.6250849 22.74348,17.0715046 23.9232839,17.0715046 Z M23.9232839,19.0173055 C22.5557102,19.0173055 20.9734497,20.0719296 20.9734497,20.7600945 C20.9734497,21.296487 20.5369417,21.732995 20.0005492,21.732995 C19.4641568,21.732995 19.0276488,21.296487 19.0276488,20.7600945 C19.0276488,20.0719296 17.4457126,19.0173055 16.0781388,19.0173055 C15.5631502,19.0173055 14.0937462,19.4298153 14.0937462,21.2627598 C14.0937462,23.8286226 17.5348951,26.9840631 20.0005492,28.2669946 C22.4662033,26.9840631 25.9067037,23.8289469 25.9067037,21.2627598 C25.9067037,19.4298153 24.4379483,19.0173055 23.9232839,19.0173055 Z M19.4122363,3.9471745 C19.7585889,3.68416707 20.2417961,3.68449137 20.588473,3.9468502 L20.588473,3.9468502 L38.365959,17.4383853 C38.792738,17.7626855 38.8767317,18.3743156 38.5527559,18.8017432 C38.2365632,19.2171717 37.6061237,19.3040841 37.1897223,18.9885401 L37.1897223,18.9885401 L20.0001925,5.94356626 L2.810987,18.9885401 C2.64040511,19.1182601 2.43609601,19.1866875 2.22530091,19.1866875 C2.18054749,19.1866875 2.13579407,19.1837688 2.09136495,19.1776071 C1.83387062,19.1422583 1.60523901,19.008971 1.44795344,18.8017432 C1.29099216,18.5945154 1.22386203,18.3386426 1.25921075,18.0811482 C1.29455946,17.8236539 1.42849543,17.5950223 1.63572323,17.438061 L1.63572323,17.438061 Z" id="Combined-Shape"></path>
                </g>
            </g>
        </g>
    </g>
</svg>