<?xml version="1.0" encoding="UTF-8"?>
<svg width="112px" height="112px" viewBox="0 0 112 112" version="1.1" xmlns="http://www.w3.org/2000/svg" xmlns:xlink="http://www.w3.org/1999/xlink" style="background: #131415;">
    <!-- Generator: Sketch 63.1 (92452) - https://sketch.com -->
    <title>Category buttons / Home&amp;PAA / Normal / Ic-btn-Services</title>
    <desc>Created with Sketch.</desc>
    <defs>
        <linearGradient x1="8.91446979%" y1="0%" x2="216.774237%" y2="253.935268%" id="linearGradient-1">
            <stop stop-color="#A8DC28" offset="0%"></stop>
            <stop stop-color="#31C5F2" offset="100%"></stop>
        </linearGradient>
    </defs>
    <g id="Category-buttons-/-Home&amp;PAA-/-Normal-/-Ic-btn-Services" stroke="none" stroke-width="1" fill="none" fill-rule="evenodd">
        <rect fill="#131415" x="0" y="0" width="112" height="112"></rect>
        <g id="Badge-/-z.Base-/-1">
            <g id="Badge-/-z.Base-/-Large">
                <g id="Badge-/-z.Base-/-Shapes-/-Large" fill="#FFFFFF" fill-rule="evenodd" stroke="#CBD5D9" stroke-width="1">
                    <rect id="Rectangle" x="0.5" y="0.5" width="111" height="111" rx="4"></rect>
                </g>
                <text id="Category-name" font-family="Poppins-SemiBold, Poppins" font-size="14" font-weight="500" fill="#313133">
                    <tspan x="26.026" y="81">Services</tspan>
                </text>
                <g id="Icon-/-32-/-Categories-/-Services" transform="translate(36.000000, 20.000000)" fill="url(#linearGradient-1)" fill-rule="evenodd">
                    <path d="M35.0120266,5.94156725 L35.4881644,6.06846157 C36.8154411,6.42187173 37.7430954,7.6241481 37.7430954,8.99195528 L37.7430954,8.99195528 L37.7430954,13.6215148 C37.7430954,15.2590197 36.5760464,16.6779634 34.968087,16.9957674 L34.968087,16.9957674 L19.8960717,19.9810037 L19.8854656,22.9658613 L21.2203181,22.9658613 C21.8468351,22.9658613 22.3566852,23.4753325 22.3566852,24.1014708 L22.3566852,24.1014708 L22.3566852,35.5814298 C22.3566852,37.3287836 20.9343324,38.75 19.1858422,38.75 L19.1858422,38.75 L18.3074305,38.75 C16.5593191,38.75 15.1369663,37.3287836 15.1369663,35.5814298 L15.1369663,35.5814298 L15.1369663,24.1014708 C15.1369663,23.4753325 15.6468164,22.9658613 16.2733334,22.9658613 L16.2733334,22.9658613 L17.6100799,22.9658613 L17.6100799,19.9965341 C17.6100799,18.9078944 18.385461,17.964331 19.4536461,17.7525879 L19.4536461,17.7525879 L34.5290705,14.7677304 C35.0745267,14.6597755 35.4703613,14.1775771 35.4703613,13.6215148 L35.4703613,13.6215148 L35.4703613,8.99195528 C35.4703613,8.75672729 35.3582397,8.53740845 35.1627846,8.3904383 L35.1627846,8.3904383 L35.0120266,8.2768016 L35.0120266,5.94156725 Z M20.083951,25.2370803 L17.4097005,25.2370803 L17.4097005,35.5814298 C17.4097005,36.0761283 17.8123532,36.4784022 18.3074305,36.4784022 L18.3074305,36.4784022 L19.1858422,36.4784022 C19.6809195,36.4784022 20.083951,36.0761283 20.083951,35.5814298 L20.083951,35.5814298 L20.083951,25.2370803 Z M30.8489458,1.25 C32.5197842,1.25 33.879258,2.60833745 33.879258,4.27803948 L33.879258,4.27803948 L33.879258,9.92199598 C33.879258,11.591698 32.5197842,12.9500355 30.8489458,12.9500355 L30.8489458,12.9500355 L6.77690311,12.9500355 C5.10795866,12.9500355 3.75,11.591698 3.75,9.92199598 L3.75,9.92199598 L3.75,4.27803948 C3.75,2.60833745 5.10795866,1.25 6.77690311,1.25 L6.77690311,1.25 Z M30.8489458,3.52159779 L6.77690311,3.52159779 C6.36137155,3.52159779 6.02311295,3.86099276 6.02311295,4.27803948 L6.02311295,4.27803948 L6.02311295,9.92199598 C6.02311295,10.3394215 6.36137155,10.6788165 6.77690311,10.6788165 L6.77690311,10.6788165 L30.8489458,10.6788165 C31.2667501,10.6788165 31.6065238,10.3394215 31.6065238,9.92199598 L31.6065238,9.92199598 L31.6065238,4.27803948 C31.6065238,3.86099276 31.2667501,3.52159779 30.8489458,3.52159779 L30.8489458,3.52159779 Z" id="Combined-Shape"></path>
                </g>
            </g>
        </g>
    </g>
</svg>