<?xml version="1.0" encoding="UTF-8"?>
<svg width="112px" height="112px" viewBox="0 0 112 112" version="1.1" xmlns="http://www.w3.org/2000/svg" xmlns:xlink="http://www.w3.org/1999/xlink" style="background: #FFFFFF;">
    <!-- Generator: Sketch 63.1 (92452) - https://sketch.com -->
    <title>Motor Buttons / Motors / Selected / Ic-btn-Saloons-ON</title>
    <desc>Created with Sketch.</desc>
    <defs>
        <linearGradient x1="0%" y1="45.3377601%" x2="100%" y2="54.6622399%" id="linearGradient-1">
            <stop stop-color="#A8DC28" offset="0%"></stop>
            <stop stop-color="#79D378" offset="100%"></stop>
        </linearGradient>
    </defs>
    <g id="Motor-Buttons-/-Motors-/-Selected-/-Ic-btn-Saloons-ON" stroke="none" stroke-width="1" fill="none" fill-rule="evenodd">
        <rect fill="#FFFFFF" x="0" y="0" width="112" height="112"></rect>
        <g id="Badge-/-z.Base-/-Large">
            <g id="Badge-/-z.Base-/-Shapes-/-Large" stroke="#91D851" stroke-width="3">
                <rect id="Rectangle" x="1.5" y="1.5" width="109" height="109" rx="4"></rect>
            </g>
            <text id="Category-name" font-family="Poppins-SemiBold, Poppins" font-size="14" font-weight="500" fill="#82C148">
                <tspan x="27.867" y="81">Saloons</tspan>
            </text>
            <g id="Icon-/-Category-/-Motors-/-Saloons" transform="translate(32.000000, 21.000000)" fill="url(#linearGradient-1)" fill-rule="evenodd" stroke-width="1">
                <g id="Group-9" transform="translate(0.000000, 16.800000)">
                    <path d="M39.7387603,7.91482373 C41.6007173,7.91482373 43.1100604,9.50179008 43.1100604,11.4595049 C43.1100604,13.4172196 41.6007173,15.004186 39.7387603,15.004186 C37.8768033,15.004186 36.3674603,13.4172196 36.3674603,11.4595049 C36.3674603,9.50179008 37.8768033,7.91482373 39.7387603,7.91482373 Z M12.0827727,7.90473858 C13.9447297,7.90473858 15.4540727,9.49194509 15.4540727,11.4496599 C15.4540727,13.4073746 13.9447297,14.994341 12.0827727,14.994341 C10.2208157,14.994341 8.71147268,13.4073746 8.71147268,11.4496599 C8.71147268,9.49194509 10.2208157,7.90473858 12.0827727,7.90473858 Z M39.7387603,9.35387493 C38.6327309,9.35387493 37.7361232,10.2965939 37.7361232,11.4595049 C37.7361232,12.6221757 38.6327309,13.5648947 39.7387603,13.5648947 C40.8447897,13.5648947 41.7411691,12.6221757 41.7411691,11.4595049 C41.7411691,10.2965939 40.8447897,9.35387493 39.7387603,9.35387493 Z M12.0827727,9.34402993 C10.9767433,9.34402993 10.0801355,10.2867489 10.0801355,11.4496599 C10.0801355,12.6123307 10.9767433,13.5550497 12.0827727,13.5550497 C13.1885737,13.5550497 14.0851815,12.6123307 14.0851815,11.4496599 C14.0851815,10.2867489 13.1885737,9.34402993 12.0827727,9.34402993 Z M18.4832641,0.425177997 L23.1572261,0.479445572 C24.8227789,0.520746558 26.7505084,0.614154021 28.3059836,0.867482743 C28.5699873,0.910464587 28.8218871,1.01299668 29.0491221,1.15923099 L29.0491221,1.15923099 L34.6977967,4.79563876 L45.8126728,5.650233 C48.0697218,6.08989643 47.3469089,7.7685894 47.7990952,8.70770661 C48.0283856,9.18338831 47.8767433,9.83844118 47.7472536,10.3532627 C47.4101693,11.6945843 46.0979155,12.0799802 46.0090769,12.0799802 L46.0090769,12.0799802 L43.9096079,12.0799802 C43.9372415,11.8765968 43.9566536,11.6705721 43.9566536,11.4595049 C43.9566536,9.03067068 42.0631806,7.06191031 39.7277982,7.06191031 C37.3921875,7.06191031 35.4989429,9.03067068 35.4989429,11.4595049 C35.4989429,11.6705721 35.5181266,11.8765968 35.5459886,12.0799802 L35.5459886,12.0799802 L16.1791694,12.0799802 C16.206803,11.8765968 16.2259867,11.6705721 16.2259867,11.4595049 C16.2259867,9.03067068 14.3327421,7.06191031 11.9973597,7.06191031 C9.74076746,7.06191031 7.90233329,8.90148507 7.78038,11.2167415 L7.78038,11.2167415 L2.16482005,11.2167415 C-0.0143524679,11.2167415 0.245083707,9.5978389 0.245083707,9.5978389 C0.245083707,9.55989965 0.0916144205,9.20668016 0.235491877,8.72955769 C0.414996132,8.1342952 1.08733777,7.90473858 1.08733777,7.90473858 C1.21911125,7.44298395 1.31274579,5.91508756 1.31274579,5.8192789 C1.31274579,4.52430089 2.94427046,4.79563876 2.94427046,4.79563876 L2.94427046,4.79563876 L8.92454833,4.74161131 L12.5762952,1.39623142 C12.9081269,1.09391781 14.4391657,0.726531121 14.8783345,0.684990018 L14.8783345,0.684990018 L18.4832641,0.425177997 Z M16.5107727,6.24933745 L15.0765657,6.24933745 L15.0765657,6.78168795 L16.5107727,6.78168795 L16.5107727,6.24933745 Z M24.9732793,6.24933745 L23.5390723,6.24933745 L23.5390723,6.78168795 L24.9732793,6.78168795 L24.9732793,6.24933745 Z M21.6583883,1.39623142 L17.1684982,1.39623142 C16.005603,1.39623142 14.9132762,1.92281899 14.230886,2.81223093 L14.230886,2.81223093 L12.4607365,5.11932323 L22.1155989,5.11932323 L21.6583883,1.39623142 Z M22.6799183,1.39623142 L23.1419248,5.11932323 L33.097788,5.11932323 L28.4790933,1.8279708 C28.4790933,1.8279708 28.3249389,1.53117999 22.6799183,1.39623142 L22.6799183,1.39623142 Z" id="Combined-Shape"></path>
                </g>
            </g>
        </g>
        <g id="Icon-/-Check-/-Checkbox" transform="translate(80.000000, 8.000000)" fill="#91D851">
            <path d="M10.9709463,13.366529 L16.3112027,6.57437624 C16.8225102,5.92405564 17.7675383,5.80875183 18.4219821,6.31683796 C19.0764259,6.8249241 19.1924607,7.76399831 18.6811532,8.41431891 C14.2260171,13.9508613 11.8927875,16.7447414 11.6814646,16.7959592 C11.0876228,17.1417187 10.3115238,17.0459069 9.82251261,16.5248105 L6.403984,12.8819836 C5.83758363,12.2784203 5.87081232,11.3328702 6.47820235,10.7700383 C7.08559238,10.2072064 8.0371375,10.2402257 8.60353787,10.843789 L10.9709463,13.366529 Z" id="Path"></path>
        </g>
    </g>
</svg>