<?xml version="1.0" encoding="UTF-8"?>
<svg width="112px" height="112px" viewBox="0 0 112 112" version="1.1" xmlns="http://www.w3.org/2000/svg" xmlns:xlink="http://www.w3.org/1999/xlink">
    <!-- Generator: Sketch 63.1 (92452) - https://sketch.com -->
    <title>Motor Buttons / Motors / Hover / Ic-btn-Coupes-Hover</title>
    <desc>Created with Sketch.</desc>
    <defs>
        <linearGradient x1="0%" y1="43.9902801%" x2="100%" y2="56.0097199%" id="linearGradient-1">
            <stop stop-color="#A8DC28" offset="0%"></stop>
            <stop stop-color="#79D378" offset="100%"></stop>
        </linearGradient>
    </defs>
    <g id="Motor-Buttons-/-Motors-/-Hover-/-Ic-btn-Coupes-Hover" stroke="none" stroke-width="1" fill="none" fill-rule="evenodd">
        <g id="Badge-/-z.Base-/-Large">
            <g id="Badge-/-z.Base-/-Shapes-/-Large" fill="#FFFFFF" fill-rule="evenodd" stroke="#CBD5D9" stroke-width="1">
                <rect id="Rectangle" x="0.5" y="0.5" width="111" height="111" rx="4"></rect>
            </g>
            <text id="Category-name" font-family="Poppins-SemiBold, Poppins" font-size="14" font-weight="500" fill="#82C148">
                <tspan x="28.735" y="81">Coupes</tspan>
            </text>
            <g id="Icon-/-Category-/-Motors-/-Coupe" transform="translate(32.000000, 21.000000)" fill="url(#linearGradient-1)" fill-rule="evenodd" stroke-width="1">
                <g id="Group-6" transform="translate(0.000000, 15.600000)">
                    <path d="M10.1601275,9.57235471 C12.065492,9.57235471 13.6100516,11.2758179 13.6100516,13.3772057 C13.6100516,15.4785933 12.065492,17.1823111 10.1601275,17.1823111 C8.25453213,17.1823111 6.70997258,15.4785933 6.70997258,13.3772057 C6.70997258,11.2758179 8.25453213,9.57235471 10.1601275,9.57235471 Z M40.9485934,9.57235471 C42.8539579,9.57235471 44.3985175,11.2758179 44.3985175,13.3772057 C44.3985175,15.4785933 42.8539579,17.1823111 40.9485934,17.1823111 C39.0432289,17.1823111 37.4984385,15.4785933 37.4984385,13.3772057 C37.4984385,11.2758179 39.0432289,9.57235471 40.9485934,9.57235471 Z M10.1601275,10.6421428 C8.79031488,10.6421428 7.68019881,11.8667218 7.68019881,13.3772057 C7.68019881,14.8876894 8.79031488,16.1122684 10.1601275,16.1122684 C11.5297093,16.1122684 12.6400562,14.8876894 12.6400562,13.3772057 C12.6400562,11.8667218 11.5297093,10.6421428 10.1601275,10.6421428 Z M40.9485934,10.6421428 C39.5787808,10.6421428 38.4686647,11.8667218 38.4686647,13.3772057 C38.4686647,14.8876894 39.5787808,16.1122684 40.9485934,16.1122684 C42.3181752,16.1122684 43.4285221,14.8876894 43.4285221,13.3772057 C43.4285221,11.8667218 42.3181752,10.6421428 40.9485934,10.6421428 Z M10.821488,2.43466319 C10.821488,2.43466319 16.5539714,0.197578885 22.6394112,0.586592748 C22.6394112,0.586592748 27.1373551,0.594230455 33.7518833,4.67556635 C33.7518833,4.67556635 34.8827751,5.33801011 38.9605877,6.23747735 L38.9605877,6.23747735 L46.0400304,7.48395111 C46.1799203,7.50864638 46.3054979,7.59291574 46.3897551,7.71842874 L46.3897551,7.71842874 L48.0832072,10.2454913 C48.0832072,10.2454913 48.3477514,11.2954213 48.0832072,12.0454442 L48.0832072,12.0454442 L47.8325135,13.1684416 C47.8502883,13.1468015 47.8613687,13.134072 47.8613687,13.134072 C47.8613687,13.134072 48.4135412,13.3772057 48.5668199,13.8148462 C48.5668199,13.8148462 48.8334416,14.9518462 47.5982095,14.9795965 L47.5982095,14.9795965 L47.5982095,14.9821424 L44.778944,14.9821424 C44.9511517,14.4826364 45.0494901,13.9431597 45.0494901,13.3772057 C45.0494901,10.8465788 43.1649013,8.80120094 40.859027,8.85542864 C38.8317782,8.903037 37.1069316,10.6434158 36.8742435,12.8649701 C36.7955266,13.6185572 36.8947883,14.3342103 37.1182428,14.9821424 L37.1182428,14.9821424 L34.514814,14.9821424 C25.2393774,14.3561051 18.3222162,14.3265726 14.0978194,14.6040759 C14.2296298,14.1791648 14.2573308,13.9253384 14.2607934,13.4820968 C14.2767214,11.295676 12.9230677,9.35493467 10.9763825,8.94122557 C8.35333222,8.383673 6.05899997,10.5848601 6.05899997,13.3772057 C6.05899997,13.5762952 6.07469719,13.7708021 6.09731964,13.9630177 C4.82515292,13.9693825 2.70856852,13.5600014 0.591060764,11.2860016 C0.591060764,11.2860016 0.591060764,4.86650901 2.79582656,4.86650901 L2.79582656,4.86650901 L5.08900459,4.67174749 C5.08900459,4.67174749 5.26536739,4.86650901 10.821488,2.43466319 Z M21.8926394,8.63571732 L19.9888908,8.63571732 L19.9888908,9.37657487 L21.8926394,9.37657487 L21.8926394,8.63571732 Z M19.5526006,1.21899487 C14.2169335,1.36487506 10.7773973,4.62312076 10.7773973,4.62312076 C9.67512982,5.79041694 10.3364903,5.88767041 10.3364903,5.88767041 L19.5526006,5.88767041 Z M20.6872491,1.21518005 L20.3023734,1.21899487 L20.3023734,5.88767041 L31.7673402,5.88767041 C31.7673402,5.88767041 32.5171129,5.79041694 32.1202966,5.15826941 C32.1202966,5.15826941 27.5341714,1.07311467 20.3023734,1.21899487 Z" id="Combined-Shape"></path>
                </g>
            </g>
        </g>
    </g>
</svg>