<?xml version="1.0" encoding="UTF-8"?>
<svg width="112px" height="112px" viewBox="0 0 112 112" version="1.1" xmlns="http://www.w3.org/2000/svg" xmlns:xlink="http://www.w3.org/1999/xlink" style="background: #FFFFFF;">
    <!-- Generator: Sketch 63.1 (92452) - https://sketch.com -->
    <title>Motor Buttons / Motors / Selecetd / MPVs-ON</title>
    <desc>Created with Sketch.</desc>
    <defs>
        <linearGradient x1="0%" y1="40.7551362%" x2="100%" y2="59.2448638%" id="linearGradient-1">
            <stop stop-color="#A8DC28" offset="0%"></stop>
            <stop stop-color="#79D378" offset="100%"></stop>
        </linearGradient>
    </defs>
    <g id="Motor-Buttons-/-Motors-/-Selecetd-/-MPVs-ON" stroke="none" stroke-width="1" fill="none" fill-rule="evenodd">
        <rect fill="#FFFFFF" x="0" y="0" width="112" height="112"></rect>
        <g id="Badge-/-z.Base-/-Large">
            <g id="Badge-/-z.Base-/-Shapes-/-Large" stroke="#91D851" stroke-width="3">
                <rect id="Rectangle" x="1.5" y="1.5" width="109" height="109" rx="4"></rect>
            </g>
            <text id="Category-name" font-family="Poppins-SemiBold, Poppins" font-size="14" font-weight="500" fill="#82C148">
                <tspan x="36.848" y="81">MPVs</tspan>
            </text>
            <g id="Icon-/-Category-/-Motors-/-MPVs" transform="translate(32.000000, 21.000000)" fill="url(#linearGradient-1)" fill-rule="evenodd" stroke-width="1">
                <g id="Group-8" transform="translate(0.000000, 13.200000)">
                    <path d="M37.2520959,12.5350013 C39.3770708,12.5350013 41.0994905,14.3691358 41.0994905,16.631615 C41.0994905,18.8938351 39.3770708,20.7279695 37.2520959,20.7279695 C35.1271211,20.7279695 33.404458,18.8938351 33.404458,16.631615 C33.404458,14.3691358 35.1271211,12.5350013 37.2520959,12.5350013 Z M6.98939746,12.5350013 C9.11412887,12.5350013 10.8367921,14.3691358 10.8367921,16.631615 C10.8367921,18.8938351 9.11412887,20.7279695 6.98939746,20.7279695 C4.86442261,20.7279695 3.14175947,18.8938351 3.14175947,16.631615 C3.14175947,14.3691358 4.86442261,12.5350013 6.98939746,12.5350013 Z M37.2520959,13.8754898 C35.8224656,13.8754898 34.663477,15.1094752 34.663477,16.631615 C34.663477,18.1537548 35.8224656,19.3877402 37.2520959,19.3877402 C38.6817262,19.3877402 39.8407149,18.1537548 39.8407149,16.631615 C39.8407149,15.1094752 38.6817262,13.8754898 37.2520959,13.8754898 Z M6.98939746,13.8754898 C5.55952376,13.8754898 4.40077846,15.1094752 4.40077846,16.631615 C4.40077846,18.1537548 5.55952376,19.3877402 6.98939746,19.3877402 C8.41902776,19.3877402 9.57777306,18.1537548 9.57777306,16.631615 C9.57777306,15.1094752 8.41902776,13.8754898 6.98939746,13.8754898 Z M5.06155733,1.47370392 C10.8341028,-0.208838464 19.0640811,0.445210045 23.7516274,0.52346783 C24.7144485,0.539533998 25.6332173,0.850751217 26.5782715,1.048987 C28.7589784,1.50609538 33.6916109,4.48222341 33.6916109,4.48222341 C36.859964,6.27100983 40.1699656,8.17588722 40.1699656,8.17588722 C43.7394129,9.30699727 45.6923138,10.3585539 46.7461599,11.1108133 C47.4850692,11.6381464 47.9307025,12.5191943 47.9307025,13.4663208 L47.9307025,13.4663208 L47.9307025,15.6863024 C47.9307025,16.8176716 46.5840672,17.6380826 46.5840672,17.6380826 L46.5840672,17.6380826 L41.8256965,18.0669457 C41.9515253,17.6116513 42.0204025,17.1301845 42.0204025,16.631615 C42.0204025,13.6580783 39.6194344,11.2818402 36.7694257,11.5801009 C34.6386121,11.8029542 32.8833378,13.5614222 32.5452795,15.8122405 C32.4262655,16.6044061 32.4846773,17.3665126 32.6784097,18.0669457 L32.6784097,18.0669457 L11.5630333,18.0669457 C11.7565224,17.3665126 11.8149341,16.6044061 11.6959201,15.8122405 C11.3581053,13.5614222 9.60258748,11.8029542 7.4720173,11.5801009 C4.6217652,11.2818402 2.2210405,13.6580783 2.2210405,16.631615 C2.2210405,16.7806157 2.22834198,16.9278026 2.24002434,17.0736938 C0.832786893,16.5336632 0.501056582,14.9094255 0.501056582,14.9094255 L0.501056582,14.9094255 L0.501056582,10.7301488 L0.681889756,8.77992333 C0.733730225,8.22175353 0.899473688,7.68224125 1.16768117,7.19947882 L1.16768117,7.19947882 L3.74826551,2.553765 C4.04032448,2.02824584 4.50834897,1.63488386 5.06155733,1.47370392 Z M14.2728537,11.9143808 L12.5217169,11.9143808 L12.5217169,12.5723163 L14.2728537,12.5723163 L14.2728537,11.9143808 Z M23.7647701,11.9143808 L22.0136332,11.9143808 L22.0136332,12.5723163 L23.7647701,12.5723163 L23.7647701,11.9143808 Z M10.3612107,1.82119958 C6.57247573,2.02772757 5.44585825,3.63693567 5.44585825,3.63693567 C2.73749811,7.48167329 5.74692237,8.17588722 5.74692237,8.17588722 L5.74692237,8.17588722 L9.10730417,8.17588722 Z M20.5930098,1.82119958 L11.41457,1.82119958 L10.3612107,8.17588722 L20.5930098,8.17588722 L20.5930098,1.82119958 Z M21.897053,1.82119958 L21.897053,8.17588722 L31.0757361,8.17588722 L31.0757361,4.75819871 C31.0757361,4.75819871 28.4676496,1.82119958 21.897053,1.82119958 L21.897053,1.82119958 Z M32.480053,5.7729586 L32.480053,8.17588722 L35.23855,8.17588722 C35.23855,8.17588722 35.790298,8.06912492 35.23855,7.64207582 L35.23855,7.64207582 L32.480053,5.7729586 Z" id="Combined-Shape"></path>
                </g>
            </g>
        </g>
        <g id="Icon-/-Check-/-Checkbox" transform="translate(80.000000, 8.000000)" fill="#91D851">
            <path d="M10.9709463,13.366529 L16.3112027,6.57437624 C16.8225102,5.92405564 17.7675383,5.80875183 18.4219821,6.31683796 C19.0764259,6.8249241 19.1924607,7.76399831 18.6811532,8.41431891 C14.2260171,13.9508613 11.8927875,16.7447414 11.6814646,16.7959592 C11.0876228,17.1417187 10.3115238,17.0459069 9.82251261,16.5248105 L6.403984,12.8819836 C5.83758363,12.2784203 5.87081232,11.3328702 6.47820235,10.7700383 C7.08559238,10.2072064 8.0371375,10.2402257 8.60353787,10.843789 L10.9709463,13.366529 Z" id="Path"></path>
        </g>
    </g>
</svg>