<?xml version="1.0" encoding="UTF-8"?>
<svg width="112px" height="112px" viewBox="0 0 112 112" version="1.1" xmlns="http://www.w3.org/2000/svg" xmlns:xlink="http://www.w3.org/1999/xlink">
    <!-- Generator: Sketch 63.1 (92452) - https://sketch.com -->
    <title>Motor Buttons / Motors / Hover / Ic-btn-4x4-Hover</title>
    <desc>Created with Sketch.</desc>
    <defs>
        <linearGradient x1="0%" y1="42.1198663%" x2="100%" y2="57.8801337%" id="linearGradient-1">
            <stop stop-color="#A8DC28" offset="0%"></stop>
            <stop stop-color="#79D378" offset="100%"></stop>
        </linearGradient>
    </defs>
    <g id="Motor-Buttons-/-Motors-/-Hover-/-Ic-btn-4x4-Hover" stroke="none" stroke-width="1" fill="none" fill-rule="evenodd">
        <g id="Motor-Buttons-/-z.Base-/-Motors-/-Hover">
            <g id="Badge-/-z.Base-/-Large">
                <g id="Badge-/-z.Base-/-Shapes-/-Large" fill="#FFFFFF" fill-rule="evenodd" stroke="#CBD5D9" stroke-width="1">
                    <rect id="Rectangle" x="0.5" y="0.5" width="111" height="111" rx="4"></rect>
                </g>
                <text id="Category-name" font-family="Poppins-SemiBold, Poppins" font-size="14" font-weight="500" fill="#82C148">
                    <tspan x="42.903" y="81">4x4</tspan>
                </text>
                <g id="Icon-/-Category-/-Motors-/-4x4" transform="translate(32.000000, 21.000000)" fill="url(#linearGradient-1)" fill-rule="evenodd" stroke-width="1">
                    <g id="Group" transform="translate(0.000000, 14.400000)">
                        <path d="M9.44128183,10.229804 C11.8120732,10.229804 13.7338072,12.1995822 13.7338072,14.6290129 C13.7338072,17.0587263 11.8120732,19.0282218 9.44128183,19.0282218 C7.07076625,19.0282218 5.14875639,17.0587263 5.14875639,14.6290129 C5.14875639,12.1995822 7.07076625,10.229804 9.44128183,10.229804 Z M38.9102605,10.229804 C41.2810519,10.229804 43.2027859,12.1995822 43.2027859,14.6290129 C43.2027859,17.0587263 41.2810519,19.0282218 38.9102605,19.0282218 C36.5397449,19.0282218 34.617735,17.0587263 34.617735,14.6290129 C34.617735,12.1995822 36.5397449,10.229804 38.9102605,10.229804 Z M9.44128183,12.3211385 C8.19754724,12.3211385 7.18937476,13.3546501 7.18937476,14.6290129 C7.18937476,15.9036584 8.19754724,16.9368873 9.44128183,16.9368873 C10.6850164,16.9368873 11.6931888,15.9036584 11.6931888,14.6290129 C11.6931888,13.3546501 10.6850164,12.3211385 9.44128183,12.3211385 Z M38.9102605,12.3211385 C37.6668018,12.3211385 36.6586292,13.3546501 36.6586292,14.6290129 C36.6586292,15.9036584 37.6668018,16.9368873 38.9102605,16.9368873 C40.153995,16.9368873 41.1621675,15.9036584 41.1621675,14.6290129 C41.1621675,13.3546501 40.153995,12.3211385 38.9102605,12.3211385 Z M28.5271915,1.48040501 L28.5356,1.48820685 L35.3754505,6.38212173 C35.7133469,6.39258125 46.3759778,7.95811386 46.6576041,8.11444097 C47.9802801,8.85052011 47.9350083,10.4247872 47.9295693,10.5447958 L47.9291979,12.8825592 C47.9291979,13.0513247 47.9098895,13.2022806 47.8820302,13.3453214 C47.680867,14.8136561 46.5697549,14.9657045 46.4775114,14.9758261 L46.4714163,14.9764379 L45.5975748,14.9707841 L45.5208914,14.9706407 C45.2627303,14.9719462 44.4344059,14.9809554 44.2981446,14.9824479 L44.2790893,14.9826571 L44.2790893,14.54251 C44.2790893,13.9036325 44.1971667,13.2661685 44.0355281,12.649058 C44.0225639,12.59987 44.0112547,12.5566186 44.002428,12.5215651 C42.5385352,9.12744195 39.3844094,9.10178006 39.1069343,9.10620344 L39.0873458,9.10668001 C37.4268263,9.10668001 36.2779786,9.61184551 35.4852323,10.2552461 C34.8610205,10.802815 34.3570721,11.488619 34.0169691,12.2668622 C33.8727999,12.6264428 33.8160258,12.8857351 33.8051892,12.9389163 L33.8031979,12.9489912 L33.5279158,14.9512785 L14.8090073,14.9826571 L14.6956397,13.9330322 C14.5494477,12.5800818 13.9528192,11.2972383 12.9424401,10.4138347 C11.4719416,9.12734555 9.77836317,9.10331328 9.5517602,9.10611734 L9.52623863,9.10668001 C8.76521316,9.10668001 8.1147971,9.21523265 7.55319953,9.39191335 C5.4797569,10.1393435 3.992737,12.2131512 3.992737,14.5526869 C3.992737,14.7398271 4.00524146,14.923952 4.02583704,15.105564 L4.06224708,15.3761604 L1.97777118,15.1565109 C-0.228080262,14.7980345 -0.00242643717,12.5532954 0.0138310786,12.4133492 L0.0146620565,12.4065107 L0.852369256,6.90594477 L3.94115607,1.19618893 C4.49283512,0.175940153 6.48720872,0.0254268552 6.65244874,0.0146553456 L6.66335972,0.0139828547 L8.32746494,0.0139828547 L8.33022327,3.4120276e-13 L16.0350886,0.0168097347 C26.4504841,-0.176413966 28.3887915,1.35739142 28.5271915,1.48040501 Z M24.6819261,9.06116705 L22.6973021,9.06116705 L22.6973021,9.77919751 L24.6819261,9.77919751 L24.6819261,9.06116705 Z M20.2901005,1.18516404 L13.6847088,1.18516404 L10.7443206,5.06874785 L10.0205328,6.13561677 L11.673053,6.20713716 L11.8261408,6.21745533 L11.8261408,6.21745533 L11.993296,6.22098893 L20.6735095,6.22098893 L20.2901005,1.18516404 Z M21.5776926,1.18516404 L22.0102,6.22098893 L33.0954084,6.22098893 L28.5689759,2.84907252 C28.1243318,2.46461524 27.6143152,2.16609549 27.0607167,1.9829129 C26.0318567,1.64255514 24.1683236,1.18516404 21.5776926,1.18516404 Z M10.6975311,1.1850384 L6.20768228,1.18516404 C5.24557405,1.18516404 4.94537527,2.09264914 4.91338686,2.19941209 L4.91043601,2.20962964 L3.33790756,6.13561677 L8.48744855,6.13561677 L11.5144486,2.10927495 L12.3400191,1.18516404 L10.758664,1.18516404 C10.730345,1.18478712 10.7087687,1.18491276 10.6975311,1.1850384 Z" id="Combined-Shape"></path>
                    </g>
                </g>
            </g>
        </g>
    </g>
</svg>