<?xml version="1.0" encoding="UTF-8"?>
<svg width="79px" height="79px" viewBox="0 0 79 79" version="1.1" xmlns="http://www.w3.org/2000/svg" xmlns:xlink="http://www.w3.org/1999/xlink">
    <!-- Generator: Sketch 54.1 (76490) - https://sketchapp.com -->
    <title>independent</title>
    <desc>Created with Sketch.</desc>
    <g id="Page-1" stroke="none" stroke-width="1" fill="none" fill-rule="evenodd">
        <g id="icons2" transform="translate(-746.000000, -107.000000)">
            <g id="Details-2" transform="translate(183.000000, -222.000000)">
                <g id="details-copy-5" transform="translate(20.000000, 257.000000)">
                    <g id="independent" transform="translate(544.000000, 73.000000)">
                        <path d="M76.8004,38.4 C76.8004,17.2 59.6004,-1.42108547e-14 38.4004,-1.42108547e-14 C17.1994,-1.42108547e-14 0.0004,17.2 0.0004,38.4 C0.0004,59.6 17.1994,76.8 38.4004,76.8 C59.4994,76.8 76.8004,59.6 76.8004,38.4" id="Fill-1" fill="#313133"></path>
                        <path d="M38.4,76.7999 C59.6,76.7999 76.8,59.5999 76.8,38.3999 C76.8,17.1999 59.6,-0.0001 38.4,-0.0001 C17.2,-0.0001 0,17.1999 0,38.3999 C0,59.5999 17.2,76.7999 38.4,76.7999 Z" id="Stroke-3" stroke="#9C1F9F" stroke-width="2"></path>
                        <path d="M68.9996,53.1998 C71.1996,48.6998 72.3996,43.6998 72.3996,38.3998 C72.3996,19.5998 57.1006,4.3998 38.3996,4.3998 C19.6996,4.3998 4.3996,19.6998 4.3996,38.3998 C4.3996,52.9998 13.6996,65.4998 26.6996,70.2998 C30.3996,71.5998 34.2996,72.3998 38.3996,72.3998 C51.8006,72.3998 63.4996,64.5998 68.9996,53.1998 Z" id="Stroke-5" stroke="#9C1F9F" stroke-width="1.5" stroke-linecap="round" stroke-linejoin="round" stroke-dasharray="1,4"></path>
                        <path d="M31.2999,31.7999 L31.2999,31.7999 L31.2999,34.8999 L31.2999,41.7999 C31.2999,42.8999 32.1999,43.6999 33.1999,43.6999 L33.8999,43.6999 L33.8999,52.6999 C33.8999,53.7999 34.7999,54.5999 35.7999,54.5999 L40.8999,54.5999 C41.9999,54.5999 42.7999,53.6999 42.7999,52.6999 L42.7999,43.5999 L43.4999,43.5999 C44.5999,43.5999 45.3999,42.6999 45.3999,41.6999 L45.3999,34.7999 L45.3999,31.6999 C45.3999,30.5999 44.4999,29.7999 43.4999,29.7999 L33.1999,29.7999 C32.0999,29.8999 31.2999,30.7999 31.2999,31.7999" id="Fill-7" fill="#9C1F9F"></path>
                        <path d="M38.4,19.5001 C40.83,19.5001 42.8,21.4701 42.8,23.9001 C42.8,26.3301 40.83,28.3001 38.4,28.3001 C35.97,28.3001 34,26.3301 34,23.9001 C34,21.4701 35.97,19.5001 38.4,19.5001" id="Fill-9" fill="#9C1F9F"></path>
                    </g>
                </g>
            </g>
        </g>
    </g>
</svg>