<svg xmlns="http://www.w3.org/2000/svg" version="1.1" x="0" y="0" width="19" height="26" viewBox="0 0 19 26" xml:space="preserve"><style type="text/css">
	.st0{fill:#A8A8A8;}
</style><title>Attachment-icon</title><desc>Created with Sketch.</desc><g transform="translate(-807.000000, -959.000000)"><g transform="translate(505.000000, 470.000000)"><g transform="translate(26.000000, 455.000000)"><path class="st0" d="M294.4 50.5l-7.1-15.3c-0.2-0.4-0.6-0.5-1-0.4 -0.4 0.2-0.5 0.6-0.4 1l7.1 15.3c1.1 2.3 0.1 5-2.2 6.1 -2.3 1.1-5 0.1-6.1-2.2L278 40.6c-0.7-1.5 0-3.4 1.5-4.1 1.5-0.7 3.4 0 4.1 1.5l5.8 12.5c0.4 0.8 0 1.7-0.7 2.1 -0.8 0.4-1.7 0-2.1-0.7l-5.1-10.9c-0.2-0.4-0.6-0.5-1-0.4 -0.4 0.2-0.5 0.6-0.4 1l5.1 10.9c0.7 1.5 2.6 2.2 4.1 1.5 1.5-0.7 2.2-2.6 1.5-4.1L285 37.3c-1.1-2.3-3.8-3.3-6.2-2.2 -2.3 1.1-3.3 3.8-2.2 6.2l6.7 14.4c1.4 3 5.1 4.4 8.1 2.9C294.5 57.1 295.8 53.5 294.4 50.5"/></g></g></g></svg>