<?xml version="1.0" encoding="UTF-8" standalone="no"?>
<svg width="17px" height="14px" viewBox="0 0 17 14" version="1.1" xmlns="http://www.w3.org/2000/svg" xmlns:xlink="http://www.w3.org/1999/xlink">
    <!-- Generator: Sketch 39.1 (31720) - http://www.bohemiancoding.com/sketch -->
    <title>Basket link</title>
    <desc>Created with Sketch.</desc>
    <defs></defs>
    <g id="Page-1" stroke="none" stroke-width="1" fill="none" fill-rule="evenodd">
        <g id="Desktop-DIG-20261_Basket-link" transform="translate(-1166.000000, -126.000000)">
            <g id="User-logged-in" transform="translate(715.000000, 121.000000)">
                <g id="Basket-link" transform="translate(451.000000, 5.000000)">
                    <path d="M4.12430769,5.11101538 L6.66584615,0.827938462" id="Stroke-1" stroke="#EFEFEF" stroke-width="1.346" stroke-linecap="round" stroke-linejoin="round"></path>
                    <path d="M12.3689846,5.11101538 L9.82744615,0.827938462" id="Stroke-3" stroke="#EFEFEF" stroke-width="1.346" stroke-linecap="round" stroke-linejoin="round"></path>
                    <path d="M0.955815385,5.63335385 L15.5798154,5.63335385" id="Stroke-5" stroke="#EFEFEF" stroke-width="1.553" stroke-linecap="round" stroke-linejoin="round"></path>
                    <path d="M11.9932308,12.2836923 L10.6,12.2836923 L10.6,7.02584615 L12.968,7.02584615 L11.9932308,12.2836923 Z M7.31507692,12.3181538 L9.43938462,12.3181538 L9.43938462,7.02584615 L7.31507692,7.02584615 L7.31507692,12.3181538 Z M6.00430769,12.2836923 L4.61107692,12.2836923 L3.63630769,7.02584615 L6.00430769,7.02584615 L6.00430769,12.2836923 Z M1.02584615,6.39938462 L2.56676923,12.7784615 C2.68369231,13.2646154 3.11815385,13.6067692 3.61784615,13.6067692 L12.8252308,13.6067692 C13.3581538,13.6067692 13.8221538,13.2412308 13.9452308,12.7218462 L15.4750769,6.32923077 L1.02584615,6.39938462 Z" id="Fill-7" fill="#EFEFEF"></path>
                </g>
            </g>
        </g>
    </g>
</svg>