<svg xmlns:sketch="http://www.bohemiancoding.com/sketch/ns" xmlns="http://www.w3.org/2000/svg" xmlns:xlink="http://www.w3.org/1999/xlink" version="1.1" id="Layer_1" x="0px" y="0px" width="19px" height="20px" viewBox="0 0 19 20" xml:space="preserve" enable-background="new 0 0 19 20">
  <style type="text/css">
    
	.st0{fill:#A8A8A8;}

  </style>
  <title>
    Engine
  </title>
  <desc>
    Created with Sketch.
  </desc>
  <g id="Search-results-list" sketch:type="MSPage">
    <g id="Other-category-listing" transform="translate(-420.000000, -1680.000000)" sketch:type="MSArtboardGroup">
      <g id="_x31_" transform="translate(19.000000, 21.000000)" sketch:type="MSLayerGroup">
        <g id="Posted-ad--Motors-2" transform="translate(5.000000, 1580.000000)" sketch:type="MSShapeGroup">
          <g id="Engine-size" transform="translate(396.000000, 79.000000)">
            <g id="engine" transform="translate(0.142857, 0.844156)">
              <g id="Engine">
                <path id="Fill-1" class="st0" d="M1.9 3.8L0.3 4.1V5l1.6 0.3C2 5.6 2.1 5.8 2.3 6L1.4 7.4 2 7.9 3.4 7c0.2 0.1 0.5 0.2 0.8 0.3l0.3 1.6h0.8l0.3-1.6C5.9 7.2 6.1 7.1 6.4 7l1.4 0.9 0.6-0.6L7.4 5.9c0.1-0.2 0.2-0.5 0.3-0.7l1.6-0.3V4L7.6 3.7C7.5 3.4 7.4 3.2 7.3 2.9l0.9-1.3L7.6 1 6.2 1.9C6 1.8 5.7 1.7 5.5 1.6L5.1 0H4.3L4 1.7C3.7 1.7 3.5 1.9 3.2 2L1.9 1.1 1.3 1.7l0.9 1.4C2.1 3.3 2 3.6 1.9 3.8L1.9 3.8zM3.5 4.5c0-0.7 0.6-1.3 1.3-1.3s1.3 0.6 1.3 1.3S5.5 5.7 4.8 5.7 3.5 5.2 3.5 4.5L3.5 4.5z"/>
                <path id="Fill-2" class="st0" d="M11.4 12.7l1.1-1.5c0.3 0 0.6 0 0.9 0l1 1.6 0.9-0.3 -0.3-1.8c0.2-0.2 0.5-0.4 0.7-0.6l1.8 0.4 0.4-0.9 -1.5-1.1c0-0.3 0-0.6 0-0.9l1.6-1 -0.3-0.9 -1.9 0.3c-0.2-0.2-0.4-0.5-0.6-0.7l0.4-1.8 -0.9-0.4 -1.1 1.5c-0.3 0-0.6 0-0.9 0l-1-1.6 -0.9 0.3L11 5.2c-0.2 0.2-0.5 0.4-0.7 0.6L8.6 5.4 8.2 6.3l1.5 1.1c0 0.3 0 0.6 0 0.9l-1.6 1 0.3 0.9 1.9-0.3c0.2 0.2 0.4 0.5 0.6 0.7l-0.4 1.8L11.4 12.7 11.4 12.7zM11.7 7.3c0.3-0.7 1.2-1 1.9-0.7 0.7 0.3 1 1.2 0.7 1.9 -0.3 0.7-1.2 1-1.9 0.7C11.7 8.9 11.4 8 11.7 7.3L11.7 7.3z"/>
                <path id="Fill-3" class="st0" d="M3.6 18.5l1-1.6c0.3 0 0.6 0 0.9 0l1.1 1.5L7.5 18l-0.4-1.8c0.2-0.2 0.4-0.4 0.6-0.7l1.8 0.3 0.4-0.9 -1.6-1c0-0.3 0-0.6 0-0.9l1.5-1 -0.4-0.9 -1.9 0.4c-0.2-0.2-0.4-0.4-0.7-0.6l0.3-1.8L6.4 8.7l-1 1.6c-0.3 0-0.6 0-0.9 0L3.3 8.8 2.5 9.2 2.8 11c-0.2 0.2-0.4 0.4-0.6 0.7l-1.8-0.3 -0.4 0.9 1.6 1c0 0.3 0 0.6 0 0.9l-1.5 1 0.4 0.9 1.9-0.4c0.2 0.2 0.4 0.4 0.7 0.6l-0.3 1.8L3.6 18.5 3.6 18.5zM3.6 13.1c0.3-0.7 1.1-1.1 1.9-0.8s1.1 1.1 0.8 1.9c-0.3 0.7-1.1 1.1-1.9 0.8C3.7 14.6 3.4 13.8 3.6 13.1L3.6 13.1z"/>
              </g>
            </g>
          </g>
        </g>
      </g>
    </g>
  </g>
</svg>
