<?xml version="1.0" encoding="utf-8"?>
<!-- Generator: Adobe Illustrator 19.1.0, SVG Export Plug-In . SVG Version: 6.00 Build 0)  -->
<!DOCTYPE svg PUBLIC "-//W3C//DTD SVG 1.1//EN" "http://www.w3.org/Graphics/SVG/1.1/DTD/svg11.dtd">
<svg version="1.1" id="Layer_1" xmlns:sketch="http://www.bohemiancoding.com/sketch/ns"
	 xmlns="http://www.w3.org/2000/svg" xmlns:xlink="http://www.w3.org/1999/xlink" x="0px" y="0px" width="18px" height="18px"
	 viewBox="-288 411.9 18 18" style="enable-background:new -288 411.9 18 18;" xml:space="preserve">
<style type="text/css">
	.st0{fill:#A8A8A8;}
</style>
<title>Fuel type</title>
<desc>Created with Sketch.</desc>
<g id="Search-results-list" sketch:type="MSPage">
	<g id="Other-category-listing" transform="translate(-496.000000, -1680.000000)" sketch:type="MSArtboardGroup">
		<g id="_x31_" transform="translate(19.000000, 21.000000)" sketch:type="MSLayerGroup">
			<g id="Posted-ad--Motors-2" transform="translate(5.000000, 1580.000000)" sketch:type="MSShapeGroup">
				<g id="Fuel-type" transform="translate(472.000000, 79.000000)">
					<path id="Imported-Layers" class="st0" d="M-271.6,415.5l-2.4-1.7c-0.4-0.3-1.1-0.5-1.6-0.5h-7.4c-0.1,0-0.2,0-0.3,0.1
						l-1.4-1.4h-3.1v1.8h2.3l1.6,1.6V429c0,0.5,0.4,0.9,0.9,0.9h11.2c0.5,0,0.9-0.4,0.9-0.9v-12
						C-270.8,416.5-271.2,415.8-271.6,415.5L-271.6,415.5z M-281.4,420.1c0.1-0.1,0.2-0.1,0.3,0l1.2,1.2c0.1,0.1,0.1,0.2,0,0.2
						c0,0-0.1,0.1-0.1,0.1c0,0-0.1,0-0.1-0.1l-1.2-1.2C-281.4,420.2-281.4,420.1-281.4,420.1L-281.4,420.1z M-279.9,426.6l-1.2,1.2
						c0,0-0.1,0.1-0.1,0.1c0,0-0.1,0-0.1-0.1c-0.1-0.1-0.1-0.2,0-0.2l1.2-1.2c0.1-0.1,0.2-0.1,0.3,0
						C-279.8,426.4-279.8,426.5-279.9,426.6L-279.9,426.6z M-275.4,426.4h-4c-0.3,0-0.5-0.2-0.5-0.5V422c0-0.3,0.2-0.5,0.5-0.5h4
						c0.3,0,0.5,0.2,0.5,0.5v3.9C-274.9,426.2-275.1,426.4-275.4,426.4L-275.4,426.4z M-273.4,427.8c0,0-0.1,0.1-0.1,0.1
						c0,0-0.1,0-0.1-0.1l-1.2-1.2c-0.1-0.1-0.1-0.2,0-0.2c0.1-0.1,0.2-0.1,0.3,0l1.2,1.2C-273.3,427.6-273.3,427.7-273.4,427.8
						L-273.4,427.8z M-273.4,420.3l-1.2,1.2c0,0-0.1,0.1-0.1,0.1c0,0-0.1,0-0.1-0.1c-0.1-0.1-0.1-0.2,0-0.2l1.2-1.2
						c0.1-0.1,0.2-0.1,0.3,0C-273.3,420.1-273.3,420.2-273.4,420.3L-273.4,420.3z M-272.9,416.9h-5.7c-0.2,0-0.4-0.2-0.4-0.4v-1.4
						c0-0.2,0.2-0.4,0.4-0.4h2.4c0.2,0,0.5,0.1,0.7,0.2l2.7,1.7C-272.7,416.8-272.7,416.9-272.9,416.9L-272.9,416.9z M-275.4,421.8
						h-4c-0.1,0-0.2,0.1-0.2,0.2v3.9c0,0.1,0.1,0.2,0.2,0.2h4c0.1,0,0.2-0.1,0.2-0.2V422C-275.2,421.9-275.3,421.8-275.4,421.8
						L-275.4,421.8z"/>
				</g>
			</g>
		</g>
	</g>
</g>
</svg>
