<svg xmlns:sketch="http://www.bohemiancoding.com/sketch/ns" xmlns="http://www.w3.org/2000/svg" xmlns:xlink="http://www.w3.org/1999/xlink" version="1.1" id="Layer_1" x="0" y="0" width="81" height="81" viewBox="-359 195 81 81" xml:space="preserve" enable-background="new -359 195 81 81">
  <style type="text/css">
    
	.st0{fill:#313133;}
	.st1{fill:none;stroke:#B0D253;stroke-width:2;}
	.st2{fill:none;stroke:#B0D253;stroke-width:1.5;stroke-linecap:round;stroke-linejoin:round;stroke-dasharray:1,4;}
	.st3{fill:#EFEFEF;}
	.st4{fill:#A8DC28;stroke:#FFFFFF;}
	.st5{fill:none;stroke:#FFFFFF;stroke-width:3;}
	.st6{fill:#A8DC28;}

  </style>
  <title>
    ISOfix icon
  </title>
  <desc>
    Created with Sketch.
  </desc>
  <g id="Group">
    <path id="Fill-1" class="st0" d="M-280.1 235.6c0-21.2-17.2-38.4-38.4-38.4 -21.2 0-38.4 17.2-38.4 38.4 0 21.2 17.2 38.4 38.4 38.4C-297.4 274-280.1 256.8-280.1 235.6z"/>
    <path id="Stroke-3" class="st1" d="M-318.5 274c21.2 0 38.4-17.2 38.4-38.4 0-21.2-17.2-38.4-38.4-38.4 -21.2 0-38.4 17.2-38.4 38.4C-356.9 256.8-339.7 274-318.5 274L-318.5 274z"/>
    <path id="Stroke-6" class="st2" d="M-287.9 250.4c2.2-4.5 3.4-9.5 3.4-14.8 0-18.8-15.3-34-34-34s-34 15.3-34 34c0 14.6 9.3 27.1 22.3 31.9 3.7 1.3 7.6 2.1 11.7 2.1C-305.1 269.6-293.4 261.8-287.9 250.4z"/>
    <path id="Stroke-15" class="st2" d="M-357 197"/>
  </g>
  <path id="Triangle-17" class="st3" d="M-336 237v-3l-7 5.5 7 5.5v-3h3v-5H-336z"/>
  <path id="Triangle-18" class="st3" d="M-318.5 258.5h-3l5.5 7 5.5-7h-3v-3h-5V258.5z"/>
  <g id="Features-Check-ON-5" transform="translate(50.734783, 1.000000)">
    <circle id="Oval-7" class="st4" cx="-344.5" cy="209.5" r="12.5"/>
    <path id="Path-58" class="st5" d="M-349.6 209l4 4 6.6-8"/>
  </g>
  <path class="st6" d="M-301.6 244h-4.6c-1.4 0.1-3.1 0.1-4.9 0.2 -1.4 0-2.6 0.1-3.6 0.1 -0.6 0-1.1 0-1.6 0 -1.9-0.1-5.7-0.2-6.3-3.6 -0.8-5.2-2.9-10.7-4.4-14.3 -2.7-1-4.6-3.4-4.6-6.2 0-2.5 1.5-4.6 3.6-5.8 -0.1-0.4-0.2-0.6-0.2-0.6 -0.6-2.4-3.2-3.9-5.9-3.3 -2.6 0.6-4.2 3-3.6 5.4 0.1 0.4 2.3 8.7 5.5 17.3 5.3 14.1 9.8 19.9 15.7 19.9h14.9c2.7 0 4.9-2 4.9-4.5C-296.8 246-299 244-301.6 244z"/>
  <path class="st3" d="M-304.3 236.4c-3.7 0.2-7.9 0.4-10.6 0.4h-0.1c-0.3-1.3-0.6-2.6-1-3.9 1.3 0.2 2.3 0.4 2.5 0.4 1.7 0 3.1-1.3 3.1-2.9 0-1.4-1.1-2.6-2.6-2.8 -2.2-0.4-3.9-0.6-5.1-0.9 -0.3-0.7-0.5-1.3-0.8-1.9 1.3-1.2 2.1-2.8 2.1-4.7 0-3.7-3.3-6.7-7.4-6.7 -1.4 0-2.7 0.3-3.8 0.9 -2.2 1.2-3.6 3.3-3.6 5.8 0 2.8 1.9 5.2 4.6 6.2 1.6 3.6 3.6 9.1 4.4 14.3 0.5 3.4 4.4 3.5 6.3 3.6 0.5 0 1 0 1.6 0 1 0 2.2 0 3.6-0.1 1.8 0 3.5-0.1 4.9-0.2 1.4-0.1 2.4-0.1 2.4-0.1 2.3-0.1 4-1.9 3.8-4C-300.1 237.9-302.1 236.3-304.3 236.4z"/>
</svg>
