<?xml version="1.0" encoding="UTF-8"?>
<svg width="43px" height="42px" viewBox="0 0 43 42" version="1.1" xmlns="http://www.w3.org/2000/svg" xmlns:xlink="http://www.w3.org/1999/xlink">
    <!-- Generator: Sketch 48.1 (47250) - http://www.bohemiancoding.com/sketch -->
    <title>newsletter-white</title>
    <desc>Created with Sketch.</desc>
    <defs></defs>
    <g id="1-Newsletter-preference-Mobile" stroke="none" stroke-width="1" fill="none" fill-rule="evenodd" transform="translate(-8.000000, -4172.000000)">
        <g id="Footer-mobile" transform="translate(-29.000000, 4060.000000)">
            <g id="Newsletter-" transform="translate(38.000000, 113.000000)">
                <g id="newsletter-white">
                    <circle id="Oval-35" stroke="#FFFFFF" stroke-width="2" cx="20.6842336" cy="20" r="20"></circle>
                    <path d="M20.6881684,21.0971917 L20.6921728,21.0971917 C20.8606056,21.0971917 21.0265358,21.0437405 21.1601809,20.946206 L21.1968457,20.9205825 C21.2048544,20.9139699 21.2122374,20.9096994 21.2221232,20.9030868 L21.645583,20.5154282 L31.7740805,11.3143899 C31.7548096,11.282705 31.7176442,11.2614898 31.6789772,11.2614898 L9.63904627,11.2614898 C9.6122672,11.2614898 9.58711489,11.2718219 9.56584179,11.2909706 L20.163724,20.905291 C20.2974942,21.0269337 20.4872002,21.0971917 20.6881684,21.0971917 L20.6881684,21.0971917 Z M9.52116828,12.5645684 L9.52116828,26.2045325 L17.1127863,19.452742 L9.52116828,12.5645684 L9.52116828,12.5645684 Z M24.215123,19.4995807 L31.7973558,26.2089408 L31.7973558,12.6093407 L24.215123,19.4995807 L24.215123,19.4995807 Z M21.8046307,21.6892873 C21.5009259,21.9619157 21.1062474,22.1130392 20.6901706,22.1130392 C20.2742189,22.1130392 19.8794153,21.9641199 19.5778378,21.6914914 L17.8384492,20.1130291 L9.52116828,27.5081622 L9.52116828,27.5317192 C9.52116828,27.6019772 9.57522698,27.6614898 9.64104845,27.6614898 L31.6809794,27.6614898 C31.7427965,27.6614898 31.7973558,27.6019772 31.7973558,27.5317192 L31.7973558,27.5103663 L23.487583,20.1600055 L21.8046307,21.6892873 L21.8046307,21.6892873 Z" id="Fill-11" fill="#FFFFFF"></path>
                </g>
            </g>
        </g>
    </g>
</svg>