<svg xmlns="http://www.w3.org/2000/svg" version="1.1" x="0" y="0" width="29" height="40" viewBox="-1403 451.9 29 40" xml:space="preserve"><style type="text/css">
	.st0{fill:#0A3D9F;}
	.st1{fill:#FFFFFF;}
	.st2{fill:#FAFDD4;}
	.st3{enable-background:new    ;}
</style><title>Plate icon</title><desc>Created with Sketch.</desc><g transform="translate(-570.000000, -707.000000)"><g transform="translate(458.000000, 297.000000)"><g transform="translate(44.000000, 267.000000)"><g transform="translate(68.000000, 143.000000)"><path class="st0" d="M-1399 451.9h21c2.2 0 4 1.8 4 4v32c0 2.2-1.8 4-4 4h-21c-2.2 0-4-1.8-4-4v-32C-1403 453.7-1401.2 451.9-1399 451.9z"/><g transform="translate(5.000000, 4.000000)"><path class="st1" d="M-1384.6 462.6l-0.8-0.6 -0.8 0.6 0.3-0.9 -0.8-0.6h1l0.3-1 0.3 1h1l-0.8 0.6L-1384.6 462.6M-1384.6 462.6L-1384.6 462.6 -1384.6 462.6M-1385.7 461.1l0.3-1 0.3 1h1l-0.8 0.6 0.3 1 -0.8-0.6 -0.8 0.6 0.3-0.9 -0.8-0.6L-1385.7 461.1M-1385.4 460l-0.3 1h-1.1l0.9 0.6 -0.3 1 0.9-0.6 0.9 0.6 -0.3-1 0.7-0.5h-1.1L-1385.4 460M-1385.7 461.1l0.3-0.9 0.3 0.9h1l-0.8 0.5 0.3 0.9 -0.8-0.6 -0.8 0.6 0.3-0.9 -0.8-0.6L-1385.7 461.1M-1385.4 460.1l-0.3 1h-1l0.8 0.6 -0.3 0.9 0.8-0.6 0.8 0.6 -0.3-1 0.8-0.6h-1L-1385.4 460.1M-1385.7 458.6l-0.8-0.6 -0.8 0.6 0.3-1 -0.8-0.6h1l0.3-1 0.3 1h1l-0.8 0.6L-1385.7 458.6M-1385.7 458.6L-1385.7 458.6 -1385.7 458.6M-1386.8 457l0.3-1 0.3 1h1l-0.8 0.6 0.3 1 -0.8-0.6 -0.8 0.6 0.3-1 -0.8-0.6H-1386.8M-1386.5 456l-0.3 1h-1.1l0.9 0.6 -0.3 1 0.9-0.6 0.9 0.6 -0.3-1 0.9-0.6h-1.1L-1386.5 456M-1386.8 457.1l0.3-0.9 0.3 0.9h1l-0.8 0.5 0.3 0.9 -0.8-0.6 -0.8 0.6 0.3-0.9 -0.8-0.6L-1386.8 457.1M-1386.5 456.1l-0.3 1h-1l0.8 0.5 -0.3 0.9 0.8-0.6 0.8 0.6 -0.3-1 0.8-0.6h-1L-1386.5 456.1M-1388.6 455.7l-0.8-0.6 -0.8 0.6 0.3-0.9 -0.8-0.6h1l0.3-1 0.3 1h1l-0.8 0.6L-1388.6 455.7M-1388.6 455.7L-1388.6 455.7 -1388.6 455.7M-1389.7 454.1l0.3-1 0.3 1h1l-0.8 0.6 0.3 1 -0.8-0.6 -0.8 0.6 0.3-0.9 -0.8-0.6L-1389.7 454.1M-1389.4 453.1l-0.3 1h-1.1l0.9 0.6 -0.3 1 0.9-0.6 0.9 0.6 -0.3-1 0.7-0.6h-1.1L-1389.4 453.1M-1389.7 454.1l0.3-0.9 0.3 0.9h1l-0.8 0.5 0.3 0.9 -0.8-0.6 -0.8 0.6 0.3-0.9 -0.8-0.6L-1389.7 454.1M-1389.4 453.1l-0.3 1h-1l0.8 0.6 -0.3 0.9 0.8-0.6 0.8 0.6 -0.3-1 0.8-0.6h-1L-1389.4 453.1M-1392.6 454.5l-0.8-0.6 -0.9 0.6 0.3-0.9 -0.8-0.6h1l0.3-1 0.3 1h1l-0.8 0.5L-1392.6 454.5M-1392.6 454.5L-1392.6 454.5 -1392.6 454.5M-1393.8 453l0.3-1 0.3 1h1l-0.8 0.5 0.3 1 -0.7-0.6 -0.9 0.6 0.3-0.9 -0.8-0.6H-1393.8M-1393.5 451.9l-0.3 1h-1.1l0.9 0.7 -0.3 1 0.9-0.6 0.9 0.6 -0.3-1 0.7-0.7h-1L-1393.5 451.9M-1393.8 453l0.3-0.9 0.3 0.9h1l-0.8 0.5 0.3 0.9 -0.7-0.5 -0.8 0.6 0.3-0.9 -0.8-0.6H-1393.8M-1393.5 452l-0.3 1h-1l0.8 0.6 -0.3 0.9 0.9-0.6 0.8 0.6 -0.3-1 0.8-0.6h-1L-1393.5 452M-1396.7 455.6l-0.8-0.6 -0.8 0.6 0.3-0.9 -0.8-0.6h1l0.3-1 0.3 1h1l-0.8 0.5L-1396.7 455.6M-1396.7 455.6L-1396.7 455.6 -1396.7 455.6M-1397.8 454.1l0.3-1 0.3 1h1l-0.8 0.5 0.3 1 -0.8-0.6 -0.8 0.6 0.3-0.9 -0.8-0.6H-1397.8M-1397.5 453l-0.3 1h-1.1l0.9 0.7 -0.3 1 0.9-0.6 0.9 0.6 -0.3-1 0.9-0.6h-1.1L-1397.5 453M-1397.8 454.1l0.3-0.9 0.3 0.9h1l-0.8 0.5 0.3 0.9 -0.8-0.5 -0.8 0.5 0.3-0.8 -0.7-0.6H-1397.8M-1397.5 453.1l-0.3 1h-1l0.8 0.6 -0.3 0.9 0.8-0.6 0.8 0.6 -0.3-1 0.8-0.6h-1L-1397.5 453.1M-1399.7 458.5l-0.8-0.6 -0.8 0.6 0.3-0.9 -0.8-0.6h1l0.3-1 0.3 1h1l-0.8 0.6L-1399.7 458.5M-1399.7 458.5L-1399.7 458.5 -1399.7 458.5M-1400.8 457l0.3-1 0.3 1h1l-0.8 0.6 0.3 1 -0.8-0.7 -0.8 0.6 0.3-0.9 -0.8-0.6H-1400.8M-1400.5 455.9l-0.3 1h-1.1l0.9 0.7 -0.3 1 0.9-0.6 0.9 0.6 -0.5-1 0.9-0.6 -1.1-0.1L-1400.5 455.9M-1400.8 457l0.3-0.9 0.3 0.9h1l-0.8 0.5 0.3 0.9 -0.8-0.5 -0.8 0.6 0.3-0.9 -0.7-0.6H-1400.8M-1400.5 456l-0.3 1h-1l0.8 0.6 -0.3 0.9 0.8-0.6 0.8 0.6 -0.3-0.9 0.8-0.6h-1L-1400.5 456M-1400.8 462.6l-0.8-0.6 -0.8 0.6 0.3-0.9 -0.8-0.7h1l0.3-1 0.3 1h1l-0.8 0.6L-1400.8 462.6M-1400.8 462.6L-1400.8 462.6 -1400.8 462.6M-1401.9 461l0.3-1 0.3 1h1l-0.8 0.6 0.3 1 -0.8-0.6 -0.8 0.6 0.3-0.9 -0.8-0.7H-1401.9M-1401.6 460l-0.3 1h-1.1l0.9 0.6 -0.3 1 0.9-0.6 0.9 0.6 -0.3-1 0.9-0.6h-1.1L-1401.6 460M-1401.9 461.1l0.3-0.9 0.3 0.9h1l-0.8 0.5 0.3 0.9 -0.8-0.6 -0.8 0.6 0.3-0.9 -0.7-0.5H-1401.9M-1401.6 460.1l-0.3 1h-1l0.8 0.6 -0.3 0.9 0.8-0.6 0.8 0.6 -0.3-1 0.8-0.6h-1L-1401.6 460.1M-1399.7 466.7l-0.8-0.6 -0.8 0.6 0.3-0.9 -0.8-0.6h1l0.3-1 0.3 1h1l-0.8 0.5L-1399.7 466.7M-1399.7 466.7L-1399.7 466.7 -1399.7 466.7M-1400.8 465.2l0.3-1 0.3 1h1l-0.8 0.5 0.3 1 -0.8-0.6 -0.8 0.6 0.3-0.9 -0.8-0.6H-1400.8M-1400.5 464.1l-0.3 1h-1.1l0.9 0.7 -0.3 1 0.9-0.6 0.9 0.6 -0.3-1 0.9-0.6h-1.1L-1400.5 464.1M-1400.8 465.2l0.3-0.9 0.3 0.9h1l-0.8 0.5 0.3 0.9 -0.8-0.6 -0.8 0.6 0.3-0.8 -0.8-0.6H-1400.8M-1400.5 464.2l-0.3 1h-1l0.8 0.6 -0.3 0.9 0.8-0.6 0.8 0.6 -0.3-1 0.8-0.6h-1L-1400.5 464.2M-1396.7 469.7l-0.8-0.6 -0.8 0.6 0.3-0.9 -0.8-0.6h1l0.3-1 0.3 1h1l-0.8 0.6L-1396.7 469.7M-1396.7 469.7L-1396.7 469.7 -1396.7 469.7M-1397.9 468.2l0.3-1 0.3 1h1l-0.8 0.6 0.3 1 -0.8-0.6 -0.8 0.6 0.3-0.9 -0.8-0.6L-1397.9 468.2M-1397.6 467.1l-0.3 1h-1.1l0.9 0.6 -0.3 1 0.9-0.6 0.9 0.6 -0.3-1 0.9-0.6h-1.1L-1397.6 467.1M-1397.9 468.2l0.3-0.9 0.3 0.9h1l-0.8 0.5 0.3 0.9 -0.8-0.6 -0.8 0.6 0.4-0.8 -0.8-0.6H-1397.9M-1397.6 467.2l-0.3 1h-1l0.8 0.6 -0.3 0.9 0.8-0.6 0.8 0.6 -0.3-1 0.8-0.6h-1L-1397.6 467.2M-1392.7 470.8l-0.8-0.6 -0.8 0.6 0.3-0.9 -0.8-0.6h1l0.3-1 0.3 1h1l-0.8 0.5L-1392.7 470.8M-1392.7 470.8L-1392.7 470.8 -1392.7 470.8M-1393.8 469.3l0.3-1 0.3 1h1l-0.8 0.5 0.3 1 -0.8-0.6 -0.8 0.6 0.3-0.9 -0.8-0.6H-1393.8M-1393.5 468.2l-0.3 1h-1.1l0.9 0.7 -0.3 1 0.9-0.6 0.9 0.6 -0.5-1 0.9-0.6h-1.1L-1393.5 468.2M-1393.8 469.3l0.3-0.9 0.3 0.9h1l-0.8 0.5 0.3 0.9 -0.8-0.6 -0.8 0.6 0.3-0.8 -0.8-0.6H-1393.8M-1393.5 468.3l-0.3 1h-1l0.8 0.6 -0.3 0.9 0.8-0.6 0.8 0.6 -0.3-1 0.8-0.6h-1L-1393.5 468.3M-1388.6 469.7l-0.8-0.6 -0.8 0.6 0.3-0.9 -0.8-0.6h1l0.3-1 0.3 1h1l-0.8 0.6L-1388.6 469.7M-1388.6 469.7L-1388.6 469.7 -1388.6 469.7M-1389.8 468.2l0.3-1 0.3 1h1l-0.8 0.6 0.3 1 -0.8-0.6 -0.8 0.6 0.3-0.9 -0.8-0.6L-1389.8 468.2M-1389.4 467.1l-0.3 1h-1.1l0.9 0.6 -0.3 1 0.9-0.6 0.9 0.6 -0.3-1 0.9-0.6h-1.1L-1389.4 467.1M-1389.7 468.2l0.3-0.9 0.3 0.9h1l-0.9 0.5 0.3 0.9 -0.8-0.6 -0.8 0.6 0.3-0.9 -0.8-0.6L-1389.7 468.2M-1389.4 467.2l-0.3 1h-1l0.8 0.6 -0.3 0.9 0.8-0.6 0.8 0.6 -0.3-1 0.8-0.6h-1L-1389.4 467.2M-1385.6 466.7l-0.8-0.6 -0.8 0.6 0.3-0.9 -0.8-0.6h1l0.3-1 0.3 1h1l-0.8 0.6L-1385.6 466.7M-1385.6 466.7L-1385.6 466.7 -1385.6 466.7M-1386.7 465.2l0.3-1 0.3 1h1l-0.8 0.6 0.3 1 -0.8-0.6 -0.8 0.6 0.3-0.9 -0.8-0.6L-1386.7 465.2M-1386.4 464.1l-0.3 1h-1.1l0.9 0.6 -0.3 1 0.9-0.6 0.9 0.6 -0.3-1 0.9-0.6h-1.1L-1386.4 464.1M-1386.7 465.2l0.3-0.9 0.3 0.9h1l-0.8 0.5 0.3 0.9 -0.8-0.6 -0.8 0.6 0.3-0.9 -0.8-0.6L-1386.7 465.2M-1386.4 464.2l-0.3 1h-1l0.8 0.6 -0.3 0.9 0.8-0.6 0.8 0.6 -0.3-1 0.8-0.6h-1L-1386.4 464.2"/></g><g class="st3"><path class="st1" d="M-1390.9 487.8c-0.5 0.2-1 0.3-1.5 0.3 -0.6 0-1.2-0.1-1.7-0.4 -0.5-0.2-0.9-0.6-1.3-1 -0.4-0.3-0.6-0.8-0.8-1.3 -0.2-0.5-0.3-1.1-0.3-1.6 0-0.6 0.1-1.2 0.3-1.8 0.2-0.6 0.4-1.1 0.8-1.5 0.3-0.4 0.8-0.8 1.3-1 0.5-0.3 1.1-0.4 1.8-0.4 0.5 0 0.9 0.1 1.3 0.2s0.8 0.3 1.1 0.5c0.3 0.2 0.6 0.5 0.8 0.9 0.2 0.4 0.4 0.8 0.4 1.3h-1.1c-0.1-0.3-0.2-0.6-0.3-0.8 -0.2-0.2-0.3-0.4-0.6-0.6 -0.2-0.2-0.5-0.3-0.8-0.3 -0.3-0.1-0.6-0.1-0.9-0.1 -0.5 0-1 0.1-1.3 0.3 -0.4 0.2-0.7 0.5-0.9 0.8 -0.2 0.3-0.4 0.7-0.5 1.2 -0.1 0.4-0.2 0.9-0.2 1.3s0.1 0.9 0.2 1.3c0.1 0.4 0.3 0.8 0.6 1.1 0.2 0.2 0.5 0.5 0.8 0.7 0.4 0.2 0.8 0.3 1.3 0.3 0.4 0 0.8-0.1 1.2-0.2 0.3-0.1 0.6-0.3 0.9-0.6 0.3-0.3 0.4-0.5 0.5-0.9 0.1-0.4 0.2-0.7 0.2-1.1h-2.7v-1h3.8v4.5h-0.7l-0.3-1.1C-1390 487.3-1390.4 487.6-1390.9 487.8zM-1383.8 479.3c0.2 0 0.4 0 0.6 0 0.2 0 0.4 0 0.6 0 0.2 0 0.4 0.1 0.6 0.1s0.3 0.1 0.5 0.2c0.3 0.2 0.5 0.4 0.7 0.7 0.2 0.3 0.3 0.7 0.3 1.1 0 0.5-0.1 0.8-0.3 1.2 -0.2 0.3-0.5 0.6-0.9 0.7l0 0c0.5 0.1 0.9 0.4 1.2 0.7 0.3 0.4 0.4 0.8 0.4 1.3 0 0.3-0.1 0.6-0.2 0.9 -0.1 0.3-0.3 0.6-0.5 0.8 -0.2 0.2-0.5 0.4-0.8 0.6 -0.4 0.2-0.8 0.3-1.2 0.3h-4.2v-8.6H-1383.8zM-1383.5 483c0.6 0 1.1-0.1 1.4-0.3 0.3-0.2 0.4-0.6 0.4-1 0-0.3 0-0.5-0.1-0.7 -0.1-0.2-0.2-0.3-0.4-0.4 -0.2-0.1-0.4-0.2-0.6-0.2 -0.2 0-0.5 0-0.7 0h-2.3v2.7h2.3V483zM-1383 486.9c0.5 0 0.9-0.1 1.2-0.4 0.3-0.3 0.4-0.6 0.4-1.1 0-0.3-0.1-0.5-0.2-0.7 -0.1-0.2-0.2-0.3-0.4-0.4s-0.4-0.2-0.6-0.2c-0.2 0-0.5-0.1-0.7-0.1h-2.6v3h2.9V486.9z"/></g></g></g></g></g></svg>