<svg xmlns="http://www.w3.org/2000/svg" version="1.1" x="0" y="0" width="15.3" height="15.3" viewBox="-4226.7 1392.2 15.3 15.3" xml:space="preserve"><style type="text/css">
	.st0{fill:#FFFFFF;}
</style><title>SEARCH ICON</title><desc>Created with Sketch Beta.</desc><path class="st0" d="M-4211.4 1406l-3.6-3.6c0.8-1.1 1.3-2.4 1.3-3.8 0-1.7-0.7-3.4-1.9-4.6 -2.5-2.5-6.7-2.5-9.2 0 -1.2 1.2-1.9 2.9-1.9 4.6s0.7 3.4 1.9 4.6c1.3 1.3 2.9 1.9 4.6 1.9 1.3 0 2.7-0.4 3.8-1.3l3.6 3.6L-4211.4 1406zM-4223.5 1401.7c-0.9-0.9-1.3-2-1.3-3.2 0-1.2 0.5-2.3 1.3-3.2 0.9-0.9 2-1.3 3.2-1.3 1.2 0 2.3 0.4 3.2 1.3 0.9 0.8 1.3 2 1.3 3.2 0 1.2-0.5 2.3-1.3 3.2C-4218.8 1403.5-4221.7 1403.5-4223.5 1401.7z"/></svg>