<svg xmlns:sketch="http://www.bohemiancoding.com/sketch/ns" xmlns="http://www.w3.org/2000/svg" xmlns:xlink="http://www.w3.org/1999/xlink" version="1.1" id="Layer_1" x="0px" y="0px" width="110px" height="110px" viewBox="0 0 110 110" xml:space="preserve" enable-background="new 0 0 110 110">
  <style type="text/css">
    
	.st0{fill:#D8D8D8;}
	.st1{filter:url(#Adobe_OpacityMaskFilter);}
	.st2{fill:#FFFFFF;}
	.st3{mask:url(#mask-2);}
	.st4{fill:#EFEFEF;}
	.st5{fill:#999999;}

  </style>
  <title>
    Avatar pic
  </title>
  <desc>
    Created with Sketch.
  </desc>
  <g id="Foundations" sketch:type="MSPage">
    <g id="seller-info" transform="translate(-662.000000, -350.000000)" sketch:type="MSArtboardGroup">
      <g id="Avatar-pic" transform="translate(662.000000, 350.000000)" sketch:type="MSLayerGroup">
        <g id="Avatar">
          <g id="Mask" sketch:type="MSShapeGroup">
            <rect id="path-1_1_" class="st0" width="110" height="110"/>
          </g>
          <defs>
            <filter id="Adobe_OpacityMaskFilter" filterUnits="userSpaceOnUse" x="16.7" y="16.5" width="77.1" height="98.5">
              <feColorMatrix type="matrix" values="1 0 0 0 0  0 1 0 0 0  0 0 1 0 0  0 0 0 1 0"/>
            </filter>
          </defs>
          <mask maskUnits="userSpaceOnUse" x="16.7" y="16.5" width="77.1" height="98.5" id="mask-2">
            <g class="st1">
              <rect id="path-1" class="st2" width="110" height="110"/>
            </g>
          </mask>
          <g sketch:type="MSShapeGroup" class="st3">
            <g transform="translate(16.634770, 16.507401)">
              <path id="Fill-1" class="st4" d="M53.6 51.6c-0.3-0.1-0.5-0.2-0.5-0.2s-9.6-4.8-4.8-9.5c1.9-1.9 3.1-5.4 3.8-9.2 1.1 0 2.6-2.4 3.4-5.6 0.9-3.4 0.6-6.4-0.5-6.7l-0.3 0c-0.5 5.7-2.6 12-2.8 7 -0.3-7.4-3.1-12.8-5.4-13.5 -2.3-0.7-4.1 1.5-7.6 1.5 -3.4 0-5.3-2.2-7.5-1.5 -2.3 0.7-5.1 6.2-5.4 13.5 -0.2 5-2.5-1.3-3.2-7l-0.4 0c-1.2 0.3-1.4 3.3-0.5 6.7 0.8 3.2 2.3 5.6 3.4 5.6 0.7 3.8 1.8 7.3 3.8 9.2 4.8 4.8-4.8 9.5-4.8 9.5s-0.2 0.1-0.5 0.2c4.3 3.4 9.4 5.3 15 5.3C44.2 57 49.3 55 53.6 51.6"/>
              <path id="Fill-2" class="st5" d="M48.3 0c0 0-16.1 0.4-19.6 6.1 -2 3.3-3 4.4-5.5 7.9 -0.8 1.1-0.8 3.7-0.5 6.5 0 0 0 0 0 0 0 0 0 0 0 0.1 0 0.1 0 0.1 0 0.2 0 0 0 0 0 0 0 0 0 0 0 0 0 0 0 0.1 0 0.1 0 0 0 0 0 0 0 0 0 0 0 0 0 0 0 0 0 0 0.4 3.1 1.3 6.4 2.1 7.7 0 0 0 0 0 0 0 0 0 0 0 0 0 0 0 0 0 0 0 0 0 0 0 0.1 0.2 0.3 0.3 0.4 0.4 0.5 0 0 0 0 0 0 0 0 0 0 0 0 0 0 0 0 0 0 0 0 0 0 0 0 0 0 0 0 0 0 0 0 0 0 0 0 0 0 0 0 0 0h0c0.3 0 0.5-0.5 0.5-1.8 0 0 0 0 0 0 0 0 0 0 0 0 0.3-7.4 3.1-12.8 5.4-13.5 0.3-0.1 0.6-0.1 0.9-0.1h0 0c0.8 0 1.5 0.3 2.4 0.6 1.2 0.5 2.5 1.1 4.3 1.1 1.7 0 3-0.6 4.2-1 0.8-0.3 1.6-0.6 2.4-0.6h0 0c0.3 0 0.6 0 0.9 0.1 2.3 0.7 5.1 6.2 5.4 13.5 0 0 0 0 0 0 0 0 0 0 0 0v0c0 0 0 0 0 0 0.1 1.2 0.2 1.7 0.5 1.7h0c0 0 0 0 0 0 0 0 0 0 0 0 0.1 0 0.2-0.1 0.2-0.2 0 0 0 0 0 0 0 0 0 0 0 0h0c0 0 0 0 0 0 0 0 0 0 0 0v0c0.7-1 1.6-4.7 2-8.2v0c0 0 0 0 0-0.1 0 0 0 0 0 0 0 0 0 0 0 0 0 0 0 0 0 0 0 0 0-0.1 0-0.1 0 0 0 0 0-0.1 0 0 0 0 0-0.1 0.3-2.7 0.2-5.3-0.6-6.5 -2.5-3.5-2.7-6.5-6.5-7.9C43.7 4.8 48.3 0 48.3 0"/>
              <path id="Fill-3" class="st5" d="M55.3 53.8c-4.9 4.5-10.7 6.9-16.7 6.9 -6 0-11.7-2.4-16.7-6.9l-1.1-1c-4.7 2.3-13 6.6-15.9 9.5 -4.2 4.2-4.8 36.2-4.8 36.2h77.1c0 0-0.6-32-4.8-36.2 -3-2.9-11.2-7.2-15.9-9.5L55.3 53.8z"/>
            </g>
          </g>
        </g>
      </g>
    </g>
  </g>
</svg>
