<?xml version="1.0" encoding="UTF-8"?>
<svg width="177px" height="35px" viewBox="0 0 177 35" version="1.1" xmlns="http://www.w3.org/2000/svg" xmlns:xlink="http://www.w3.org/1999/xlink">
    <title>Logo / FAD / Fad-logo / DarkBG</title>
    <defs>
        <linearGradient x1="0%" y1="46.5888839%" x2="252.959821%" y2="63.9129374%" id="linearGradient-1">
            <stop stop-color="#A8DC28" offset="0%"></stop>
            <stop stop-color="#31C5F2" offset="100%"></stop>
        </linearGradient>
    </defs>
    <g id="Logo-/-FAD-/-Fad-logo-/-DarkBG" stroke="none" stroke-width="1" fill="none" fill-rule="evenodd">
        <g id="Logo">
            <path d="M154.4,24.6 L148.4,8 L141.9,8 L141.9,10.3 L143.599,10.5 L138.7,23.9 C138.5,24.4 138.4,24.6 137.9,24.7 L137,24.8 L137,27.2 L144,27.2 L144,24.7 L142.099,24.8 L142.9,22.4 L149.9,22.4 L150.5,24 C150.7,24.6 150.599,24.7 150,24.7 L149,24.7 L149,27.1 L156.599,27.1 L156.599,24.6 L154.4,24.6 Z M143.5,19.6 L146.299,11.2 L146.4,11.2 L149.099,19.6 L143.5,19.6 Z" id="Fill-1" fill="#FFFFFF"></path>
            <path d="M166.1,8 L158,8 L158,10.4 L159.701,10.5 L159.701,23.9 C159.701,24.5 159.401,24.6 158.901,24.7 L158,24.8 L158,27.2 L166.201,27.2 C171,27.2 175.3,24.5 175.3,17 C175.401,10.9 171.8,8 166.1,8 M166.3,24.6 L163.5,24.6 L163.5,10.8 L165.901,10.8 C169.1,10.8 171.701,12.3 171.701,17.5 C171.701,22.2 169.701,24.6 166.3,24.6" id="Fill-3" fill="#FFFFFF"></path>
            <path d="M115.468961,0 C120.029873,0 123.487438,4.07680398 124.289306,4.97169034 L124.289306,4.97169034 L133.009818,14.7159091 C134.312854,16.1079545 134.312854,18.1960227 133.110052,19.6875 L133.110052,19.6875 L124.289306,30.8239631 C123.587672,31.9177131 120.137056,35 115.468961,35 L115.468961,35 L8,35 C3.581722,35 5.41083001e-16,31.418278 0,27 L0,27 L0,8 C-5.41083001e-16,3.581722 3.581722,8.11624501e-16 8,0 L8,0 Z M36.4,8 L28.2,8 L28.2,10.5 L29.9,10.6 L29.9,24.1 C29.9,24.7 29.5,24.8 29,24.9 L29,24.9 L28,25 L28.2,25 L28.2,27.5 L35.7,27.5 L35.7,25 L33.7,24.9 L33.7,19.8 L36.4,19.8 C37.5,19.8 37.9,20.2 38.3,21.1 L38.3,21.1 L39.7,24 C39.9,24.6 39.8,24.8 39.1,24.9 L39.1,24.9 L38.2,25 L38.2,27.4 L45.6,27.4 L45.6,24.9 L43.9,24.8 L41.7,20.2 C41.3,19.2 40.8,18.7 40,18.4 C41.6,17.8 43.6,16.2 43.6,13.3 C43.6,9.4 40.8,8 36.4,8 L36.4,8 Z M24.7,8 L10.2,8 L10.2,10.5 L11.9,10.6 L11.9,24.1 C11.9,24.7 11.5,24.8 11,24.9 L11,24.9 L10,25 L10,27.4 L18.2,27.4 L18.2,24.9 L15.5,24.8 L15.5,19.1 L22.9,19.1 L22.9,16.1 L15.5,16.1 L15.5,11 L20.7,11 C21.5,11 21.6,11.3 21.6,11.9 L21.6,11.9 L21.6,13 L24.7,12.8 L24.7,8 Z M56.5,8 L49.3,8 L49.3,10.5 L51,10.6 L50.9,10.6 L50.9,23.9 C50.9,24.7 50.6,24.8 50,24.9 L50,24.9 L49,25 L49,27.4 L56.3,27.4 L56.3,24.9 L54.6,24.8 L54.6,11.4 C54.6,10.7 55,10.6 55.5,10.5 L55.5,10.5 L56.5,10.4 L56.5,8 Z M91.6,8 L84.7,8 L84.7,10.4 L86.6,10.6 L81.9,24.1 C81.7,24.6 81.5,24.8 81,24.9 L81,24.9 L80,25 L80,27.4 L86.9,27.4 L86.9,24.9 L85.1,24.8 L86,22.2 L93,22.2 L93.6,24 C93.8,24.7 93.5,24.8 92.9,24.9 L92.9,24.9 L91.8,25 L91.8,27.4 L99.5,27.4 L99.5,24.9 L97.7,24.8 L91.6,8 Z M106.3,8 L99,8 L99,10.5 L100.399,10.6 L105.5,20 L105.6,20 L105.6,24.1 C105.6,24.7 105.3,24.9 104.7,24.9 L104.7,24.9 L103.1,25 L103.1,27.4 L111.6,27.4 L111.6,24.9 L109.3,24.8 L109.3,20 L114,11.4 C114.3,10.8 114.5,10.6 115,10.5 L115,10.5 L115.899,10.4 L115.899,8 L109.399,8 L109.399,10.6 L110.899,10.7 L107.6,16.7 L107.5,16.7 L104.899,11.6 C104.6,11 104.7,10.6 105.399,10.5 L105.399,10.5 L106.3,10.4 L106.3,8 Z M69.4,8 L61.2,8 L61.2,10.5 L62.9,10.6 L62.9,24.1 C62.9,24.7 62.5,24.8 62,24.9 L62,24.9 L61,25 L61.1,25 L61.1,27.3 L69.6,27.3 C74.4,27.3 78.8,24.6 78.8,17 C78.8,10.9 75.1,8 69.4,8 L69.4,8 Z M69.2,10.8 C72.5,10.8 75.1,12.3 75.1,17.5 C75.1,22.1 73,24.5 69.6,24.5 L69.6,24.5 L66.5,24.5 L66.5,10.8 Z M126.660268,15.0000546 L126.5,15.0065712 C125.101,15.0065712 124,16.1508987 124,17.5032856 C124,18.8556726 125.101,20 126.5,20 C127.901,20 129,18.8556726 129,17.5032856 C129,16.0468689 127.901,14.9025415 126.5,15.0065712 Z M89.5,11.3 L92.3,19.6 L86.7,19.6 L89.5,11.3 Z M35.7,10.9 C38.2,10.9 39.8,11.2 39.8,13.8 C39.8,15.9 38.7,17 36.1,17 L36.1,17 L33.5,17 L33.5,10.9 Z" id="Combined-Shape" fill="url(#linearGradient-1)"></path>
        </g>
    </g>
</svg>