<?xml version="1.0" encoding="UTF-8"?>
<svg width="24px" height="24px" viewBox="0 0 24 24" version="1.1" xmlns="http://www.w3.org/2000/svg" xmlns:xlink="http://www.w3.org/1999/xlink">
    <title>Icons / Dashboard / Dropdown / Account</title>
    <g id="Icons-/-Dashboard-/-Dropdown-/-Account" stroke="none" stroke-width="1" fill="none" fill-rule="evenodd">
        <path d="M14.034375,1.5 L14.034375,3.403125 C14.9409313,3.63150358 15.805018,4.00372555 16.59375,4.505625 L16.59375,4.505625 L17.985,3.140625 L20.859375,6.028125 L19.494375,7.3734375 C19.9908216,8.1736763 20.3542841,9.04908914 20.570625,9.965625 L20.570625,9.965625 L22.5,9.965625 L22.5,14.034375 L20.544375,14.034375 C20.3269382,14.9505562 19.9635467,15.8257978 19.468125,16.6265625 L19.468125,16.6265625 L20.833125,17.9915625 L17.95875,20.8659375 L16.59375,19.494375 C15.811454,19.9845404 14.9564997,20.3477852 14.060625,20.570625 L14.060625,20.570625 L14.060625,22.5 L9.991875,22.5 L9.991875,20.570625 C9.07779246,20.3530662 8.20473084,19.9896598 7.40625,19.494375 L7.40625,19.494375 L6.0084375,20.8659375 L3.140625,17.9915625 L4.505625,16.6265625 C4.01020328,15.8257978 3.64681183,14.9505562 3.429375,14.034375 L3.429375,14.034375 L1.5,14.034375 L1.5,9.965625 L3.429375,9.965625 C3.64638631,9.05136473 4.00982826,8.1782176 4.505625,7.38 L4.505625,7.38 L3.140625,6.028125 L6.0084375,3.140625 L7.40625,4.505625 C8.19498196,4.00372555 9.05906867,3.63150358 9.965625,3.403125 L9.965625,3.403125 L9.965625,1.5 L14.034375,1.5 Z M12.721875,2.8125 L11.278125,2.8125 L11.278125,3.403125 C11.2947454,4.02480572 10.8727825,4.57280947 10.2675,4.715625 C9.48892552,4.89803522 8.74452793,5.20376994 8.0625,5.62125 C7.86627884,5.74654747 7.63903875,5.8147195 7.40625,5.818125 C7.04832799,5.82724472 6.70221594,5.68974815 6.448125,5.4375 L6.448125,5.4375 L6.0084375,4.9978125 L4.99125,6.028125 L5.4375,6.4546875 C5.86116792,6.88461493 5.93699121,7.54806867 5.62125,8.0625 C5.20045859,8.74359666 4.89243015,9.4881834 4.7090625,10.2675 C4.56888503,10.8606323 4.0388456,11.2792275 3.429375,11.278125 L3.429375,11.278125 L2.8125,11.278125 L2.8125,12.721875 L3.429375,12.721875 C4.04129471,12.7177115 4.57489437,13.1369683 4.715625,13.7325 C4.89777708,14.5101498 5.20590788,15.2527672 5.6278125,15.9309375 C5.9488594,16.4498034 5.86999834,17.1214821 5.4375,17.551875 L5.4375,17.551875 L4.99125,17.9915625 L6.04125,19.00875 L6.4809375,18.5690625 C6.72594863,18.322583 7.05871519,18.1833403 7.40625,18.181875 C7.63857257,18.1882401 7.86503889,18.25618 8.0625,18.37875 C8.74302118,18.8021461 9.48768017,19.1124207 10.2675,19.2975 C10.8582481,19.4371118 11.2761875,19.9636069 11.278125,20.570625 L11.278125,20.570625 L11.278125,21.1875 L12.7284375,21.1875 L12.7284375,20.570625 C12.730375,19.9636069 13.1483144,19.4371118 13.7390625,19.2975 C14.5170038,19.112971 15.2595889,18.8026369 15.9375,18.37875 C16.4533905,18.064707 17.116996,18.1432562 17.5453125,18.5690625 L17.5453125,18.5690625 L17.9784375,19.00875 L19.0021875,17.9915625 L18.5625,17.551875 C18.1321362,17.1198543 18.056012,16.4483301 18.37875,15.9309375 C18.8006546,15.2527672 19.1087854,14.5101498 19.2909375,13.7325 C19.431115,13.1393677 19.9611544,12.7207725 20.570625,12.721875 L20.570625,12.721875 L21.1875,12.721875 L21.1875,11.278125 L20.570625,11.278125 C19.9606439,11.2830031 19.4277056,10.866985 19.284375,10.2740625 C19.1022229,9.49641275 18.7940921,8.75379534 18.3721875,8.075625 C18.0511406,7.55675914 18.1300017,6.88508044 18.5625,6.4546875 L18.5625,6.4546875 L19.00875,6.028125 L17.9915625,4.9978125 L17.5584375,5.4375 C17.310744,5.6831823 16.9754289,5.820142 16.6265625,5.818125 C16.3826098,5.82095806 16.1431329,5.7525361 15.9375,5.62125 C15.253757,5.20251493 14.5069936,4.89671867 13.7259375,4.715625 C13.1232699,4.57017326 12.7045713,4.02285483 12.721875,3.403125 L12.721875,3.403125 L12.721875,2.8125 Z M12,6.25125 C15.1745152,6.25485739 17.7480833,8.82549099 17.7553163,12 C17.7579675,14.328402 16.3574151,16.429011 14.2070138,17.3218921 C12.0566124,18.2147732 9.58007426,17.7239943 7.93270542,16.0785039 C6.28533659,14.4330134 5.79173249,11.9570369 6.68215962,9.80561818 C7.57258676,7.65419951 9.67159652,6.25125 12,6.25125 Z M12,7.5571875 C9.54630241,7.5571875 7.5571875,9.54630241 7.5571875,12 C7.5571875,14.4536976 9.54630241,16.4428125 12,16.4428125 C14.452199,16.4391983 16.4391983,14.452199 16.4428125,12 C16.4428125,9.54630241 14.4536976,7.5571875 12,7.5571875 Z" id="Combined-Shape" fill="#91D851"></path>
    </g>
</svg>