<?xml version="1.0" encoding="UTF-8"?>
<svg width="24px" height="24px" viewBox="0 0 24 24" version="1.1" xmlns="http://www.w3.org/2000/svg" xmlns:xlink="http://www.w3.org/1999/xlink">
    <title>Icons / Dashboard / Dropdown / DBHome</title>
    <g id="Icons-/-Dashboard-/-Dropdown-/-DBHome" stroke="none" stroke-width="1" fill="none" fill-rule="evenodd">
        <path d="M12.0503386,1.50011718 C12.1968699,1.49735318 12.3401556,1.54355553 12.457375,1.6314936 L12.457375,1.6314936 L22.2590742,9.33577867 C22.5304425,9.55761287 22.579578,9.95342583 22.3706809,10.2348307 C22.2467367,10.3957721 22.0552255,10.490277 21.8520378,10.4907652 C21.7039525,10.4899066 21.5605073,10.4390274 21.4450014,10.3463919 L21.4450014,10.3463919 L20.210762,9.37515321 L20.210762,20.6625214 C20.2754004,21.5974781 19.5818015,22.4131437 18.6482674,22.5 L18.6482674,22.5 L5.3604983,22.5 C4.42696419,22.4131437 3.73336523,21.5974781 3.79800371,20.6625214 L3.79800371,20.6625214 L3.79800371,9.37515321 L2.56376429,10.3660791 C2.37964368,10.5114399 2.13192852,10.5475717 1.91393071,10.460864 C1.6959329,10.3741563 1.5407715,10.1777822 1.5068943,9.94571376 C1.47301711,9.71364535 1.56557087,9.48113941 1.74969148,9.33577867 L1.74969148,9.33577867 L11.5513907,1.63805602 C11.6677599,1.5477734 11.8111234,1.4992346 11.9584271,1.50011718 L11.9584271,1.50011718 Z M18.8977413,10.0642077 L5.11102437,10.0642077 L5.11102437,20.6625214 C5.11102437,21.0234547 5.31454257,21.1940777 5.3604983,21.1940777 L5.3604983,21.1940777 L18.6482674,21.1940777 C18.6942231,21.1940777 18.8977413,21.0234547 18.8977413,20.6625214 L18.8977413,20.6625214 L18.8977413,10.0642077 Z M12.0043828,13.7260399 C12.3829082,13.1266844 13.1177387,12.8572638 13.794189,13.0698197 C14.4706394,13.2823756 14.9190881,13.9236091 14.8864632,14.6316543 C14.8864632,16.4494456 12.0043828,18.2606745 12.0043828,18.2606745 C12.0043828,18.2606745 9.12230249,16.4494456 9.12230249,14.6250919 C9.09293786,13.9183252 9.54244463,13.2800701 10.2179787,13.0693403 C10.8935127,12.8586105 11.6263942,13.1280249 12.0043828,13.7260399 Z M12.0043828,2.9505407 L4.61864162,8.75172298 L19.3901241,8.75172298 L12.0043828,2.9505407 Z" id="Combined-Shape" fill="#91D851"></path>
    </g>
</svg>