<?xml version="1.0" encoding="UTF-8"?>
<svg width="24px" height="24px" viewBox="0 0 24 24" version="1.1" xmlns="http://www.w3.org/2000/svg" xmlns:xlink="http://www.w3.org/1999/xlink">
    <title>Icons / Dashboard / Dropdown / Edit profile</title>
    <g id="Icons-/-Dashboard-/-Dropdown-/-Edit-profile" stroke="none" stroke-width="1" fill="none" fill-rule="evenodd">
        <path d="M12,1.5 C14.7847731,1.5 17.4554892,2.60624682 19.4246212,4.5753788 C21.3937532,6.54451077 22.5,9.21522686 22.5,12 C22.5,17.7989899 17.7989899,22.5 12,22.5 C6.20101013,22.5 1.5,17.7989899 1.5,12 C1.5,6.20101013 6.20101013,1.5 12,1.5 Z M12,2.8125 C6.92588386,2.8125 2.8125,6.92588386 2.8125,12 C2.8125,17.0741161 6.92588386,21.1875 12,21.1875 C14.4366765,21.1875 16.7735531,20.219534 18.4965436,18.4965436 C20.219534,16.7735531 21.1875,14.4366765 21.1875,12 C21.1875,6.92588386 17.0741161,2.8125 12,2.8125 Z M12,12.0853125 C14.3953125,12.0853125 17.1909375,12.65625 17.1909375,14.17875 C17.1909375,16.80375 14.454375,18.7725 12,18.7725 C9.545625,18.7725 6.8090625,16.80375 6.8090625,14.17875 C6.8090625,12.6365625 9.6046875,12.0853125 12,12.0853125 Z M15.9375,6.855 C16.792851,6.855 17.48625,7.54839899 17.48625,8.40375 C17.48625,9.25910101 16.792851,9.9525 15.9375,9.9525 C15.082149,9.9525 14.38875,9.25910101 14.38875,8.40375 C14.38875,7.54839899 15.082149,6.855 15.9375,6.855 Z M8.049375,6.8615625 C8.90110164,6.8615625 9.5915625,7.55202336 9.5915625,8.40375 C9.5915625,9.25547664 8.90110164,9.9459375 8.049375,9.9459375 C7.19764836,9.9459375 6.5071875,9.25547664 6.5071875,8.40375 C6.5071875,7.55202336 7.19764836,6.8615625 8.049375,6.8615625 Z" id="Combined-Shape" fill="#91D851"></path>
    </g>
</svg>