<?xml version="1.0" encoding="UTF-8"?>
<svg width="24px" height="24px" viewBox="0 0 24 24" version="1.1" xmlns="http://www.w3.org/2000/svg" xmlns:xlink="http://www.w3.org/1999/xlink">
    <title>Icons / Dashboard / Dropdown / MMA</title>
    <g id="Icons-/-Dashboard-/-Dropdown-/-MMA" stroke="none" stroke-width="1" fill="none" fill-rule="evenodd">
        <path d="M13.0142488,1.5 C13.1870236,1.50416212 13.3508003,1.57991402 13.4682719,1.71 L13.4682719,1.71 L18.5840248,7.2290625 C18.6982856,7.35071648 18.7624205,7.51291061 18.7631695,7.681875 L18.7631695,7.681875 L18.7631695,12 C18.7631695,12.3624369 18.4767761,12.65625 18.123607,12.65625 C17.770438,12.65625 17.4841379,12.3624369 17.4841379,12 L17.4841379,12 L17.4841379,8.5875 L12.9119338,8.5875 C12.5587647,8.5875 12.2724647,8.29368687 12.2724647,7.93125 L12.2724647,7.93125 L12.2724647,2.8125 L5.01449028,2.8125 C4.81263018,2.81934611 4.62170233,2.90826471 4.48376616,3.05966796 C4.34582998,3.21107121 4.27220168,3.41253808 4.2791008,3.6196875 L4.2791008,3.6196875 L4.2791008,20.3803125 C4.27220168,20.5874619 4.34582998,20.7889288 4.48376616,20.940332 C4.62170233,21.0917353 4.81263018,21.1806539 5.01449028,21.1875 L5.01449028,21.1875 L16.7423538,21.1875 C17.1636915,21.1732202 17.4949068,20.8128015 17.4841379,20.3803125 L17.4841379,20.3803125 L17.4841379,19.363125 C17.4841379,19.0006881 17.770438,18.706875 18.123607,18.706875 C18.4767761,18.706875 18.7631695,19.0006881 18.7631695,19.363125 L18.7631695,19.363125 L18.7631695,20.3803125 C18.7737362,21.5375968 17.8700082,22.485585 16.7423538,22.5 L16.7423538,22.5 L5.01449028,22.5 C4.47345987,22.4930815 3.9572717,22.2658605 3.57950287,21.8683324 C3.20173405,21.4708043 2.99333597,20.9355395 3.00016258,20.3803125 L3.00016258,20.3803125 L3.00016258,3.6196875 C2.99333597,3.06446052 3.20173405,2.5291957 3.57950287,2.1316676 C3.9572717,1.7341395 4.47345987,1.50691845 5.01449028,1.5 L5.01449028,1.5 Z M18.6032089,12.8859375 C19.161088,12.3316799 20.046868,12.3316799 20.6047472,12.8859375 C21.1317509,13.4536917 21.1317509,14.3459958 20.6047472,14.91375 L20.6047472,14.91375 L16.2307785,19.4615625 C15.9646341,19.7301545 15.6064785,19.8809461 15.2332067,19.8815625 L15.2332067,19.8815625 L15.0878768,19.8709142 C14.9915601,19.8585654 14.8966518,19.8357662 14.8047624,19.8028125 L14.8047624,19.8028125 L14.107741,20.53125 C13.9913715,20.6637646 13.82745,20.7419529 13.653718,20.7478125 C13.3967219,20.7467221 13.1653318,20.5878474 13.0662882,20.3444777 C12.9672447,20.101108 13.0197939,19.820535 13.1996949,19.6321875 L13.1996949,19.6321875 L13.8967162,18.9103125 C13.8484661,18.7643576 13.8225793,18.6116025 13.8199799,18.4575 C13.8195903,18.0722989 13.9665487,17.7023311 14.2292402,17.4271875 L14.2292402,17.4271875 Z M19.6263594,13.5159375 C19.5234914,13.5184384 19.425316,13.5606135 19.3513877,13.6340625 L19.3513877,13.6340625 L14.977419,18.181875 C14.903779,18.2590056 14.8624664,18.3626422 14.8623146,18.470625 C14.8592289,18.5077451 14.8592289,18.5450674 14.8623146,18.5821875 C14.9213839,18.606916 14.9755603,18.6424988 15.0221818,18.6871875 C15.0676803,18.7347692 15.1044991,18.7903354 15.1308916,18.85125 C15.1649016,18.8549445 15.1991966,18.8549445 15.2332067,18.85125 L15.2332067,18.85125 L15.3077187,18.8452315 C15.3808564,18.831473 15.4487898,18.7949437 15.5017837,18.7396875 L15.5017837,18.7396875 L19.8757524,14.1984375 L19.862963,14.205 C20.0177253,14.0526732 20.0316748,13.8035818 19.8949365,13.6340625 L19.8949365,13.6340625 L19.8373177,13.5845154 C19.7755382,13.5412067 19.702262,13.517047 19.6263594,13.5159375 Z M10.3156892,17.1121875 C10.5982244,17.1121875 10.8272645,17.347238 10.8272645,17.6371875 C10.8272645,17.927137 10.5982244,18.1621875 10.3156892,18.1621875 L10.3156892,18.1621875 L6.28063911,18.1621875 C5.99810388,18.1621875 5.76906383,17.927137 5.76906383,17.6371875 C5.76906383,17.347238 5.99810388,17.1121875 6.28063911,17.1121875 L6.28063911,17.1121875 Z M15.06055,13.8309375 C15.1962282,13.8309375 15.3263494,13.8862498 15.4222883,13.9847064 C15.5182273,14.083163 15.5721253,14.2166988 15.5721253,14.3559375 C15.5721253,14.645887 15.3430852,14.8809375 15.06055,14.8809375 L15.06055,14.8809375 L6.28063911,14.8809375 C5.99810388,14.8809375 5.76906383,14.645887 5.76906383,14.3559375 C5.76906383,14.065988 5.99810388,13.8309375 6.28063911,13.8309375 L6.28063911,13.8309375 Z M15.06055,10.5496875 C15.3430852,10.5496875 15.5721253,10.784738 15.5721253,11.0746875 C15.5721253,11.364637 15.3430852,11.5996875 15.06055,11.5996875 L15.06055,11.5996875 L6.28063911,11.5996875 C5.99810388,11.5996875 5.76906383,11.364637 5.76906383,11.0746875 C5.76906383,10.784738 5.99810388,10.5496875 6.28063911,10.5496875 L6.28063911,10.5496875 Z M13.5514029,3.6984375 L13.5514029,7.2815625 L16.8702476,7.2815625 L13.5514029,3.6984375 Z" id="Combined-Shape" fill="#91D851"></path>
    </g>
</svg>