<?xml version="1.0" encoding="UTF-8"?>
<svg width="24px" height="24px" viewBox="0 0 24 24" version="1.1" xmlns="http://www.w3.org/2000/svg" xmlns:xlink="http://www.w3.org/1999/xlink">
    <title>Icons / Dashboard / Dropdown / Orders</title>
    <g id="Icons-/-Dashboard-/-Dropdown-/-Orders" stroke="none" stroke-width="1" fill="none" fill-rule="evenodd">
        <path d="M22.4544949,11.7909101 L22.4544949,3.95003894 C22.4544949,2.6236249 21.5658628,1.54550512 20.4942771,1.54550512 L12.2090899,1.54550512 C12.0762989,1.48483163 11.9237011,1.48483163 11.7909101,1.54550512 L3.5383932,1.54550512 C2.43413718,1.54550512 1.54550512,2.6236249 1.54550512,3.95003894 L1.54550512,11.7909101 C1.48483163,11.9237011 1.48483163,12.0762989 1.54550512,12.2090899 L1.54550512,20.0499611 C1.54550512,21.3763751 2.43413718,22.4544949 3.5383932,22.4544949 L11.7909101,22.4544949 C11.9237011,22.5151684 12.0762989,22.5151684 12.2090899,22.4544949 L20.4942771,22.4544949 C21.5658628,22.4544949 22.4544949,21.3763751 22.4544949,20.0499611 L22.4544949,12.2090899 C22.5151684,12.0762989 22.5151684,11.9237011 22.4544949,11.7909101 Z M21.147683,3.95003894 L21.147683,11.4772753 L15.7570841,11.4772753 C15.9669511,11.1280361 16.0776423,10.7281924 16.077253,10.3207468 C16.0733527,9.4771865 15.6168043,8.70068308 14.88157,8.28711376 C14.1463356,7.87354444 13.2456562,7.88660719 12.5227247,8.32132461 L12.5227247,2.85231698 L20.4942771,2.85231698 C20.7883098,2.85231698 21.147683,3.32276925 21.147683,3.95003894 Z M12.6534059,10.3207468 C12.6428407,9.89423739 12.8909224,9.50358254 13.2814414,9.33177789 C13.6719603,9.15997323 14.1275732,9.2410451 14.4348558,9.53701676 C14.7421385,9.83298842 14.8402329,10.2852419 14.6831883,10.6819268 C14.5261437,11.0786116 14.1450632,11.3411634 13.7184576,11.3465941 L12.6534059,11.3465941 L12.6534059,10.3207468 Z M11.3465941,11.3465941 L10.3076786,11.3465941 C9.74287591,11.3393985 9.2901544,10.8769739 9.29493621,10.3121455 C9.29971802,9.74731721 9.76020382,9.29262369 10.3250474,9.2949825 C10.889891,9.29735971 11.3465482,9.7558982 11.3465941,10.3207468 L11.3465941,11.3465941 Z M2.85231698,3.95003894 C2.85231698,3.29663301 3.21169024,2.85231698 3.50572291,2.85231698 L11.4772753,2.85231698 L11.4772753,8.30825649 C11.1216217,8.1022702 10.7186589,7.99196196 10.3076786,7.98808759 C9.68555018,7.98461204 9.08752285,8.22842339 8.6451608,8.66588393 C8.20279875,9.10334446 7.95233947,9.69861819 7.94888323,10.3207468 C7.95169469,10.7277527 8.06215633,11.1267672 8.26905214,11.4772753 L2.85231698,11.4772753 L2.85231698,3.95003894 Z M3.5383932,21.147683 C3.21169024,21.147683 2.88498727,20.6772308 2.88498727,20.0499611 L2.88498727,12.5227247 L9.56279588,12.5227247 C9.80238771,12.6062867 10.0539506,12.6504206 10.3076786,12.6534059 L10.4187576,12.6534059 L8.07956442,14.972997 C7.89193147,15.1590929 7.83487024,15.4398895 7.93498665,15.6844596 C8.03510307,15.9290297 8.27268241,16.0892131 8.53694857,16.0903211 C8.70744022,16.0913453 8.87157959,16.0256896 8.99433272,15.9073675 L11.4968774,13.4440271 L11.4968774,21.147683 L3.5383932,21.147683 Z M21.1803533,20.0499611 C21.1803533,20.703367 20.8209801,21.147683 20.4942771,21.147683 L12.5227247,21.147683 L12.5227247,13.4570952 L15.0122013,15.9204356 C15.1349545,16.0387577 15.2990938,16.1044134 15.4695855,16.1033892 C15.7338516,16.1022812 15.971431,15.9420978 16.0715474,15.6975277 C16.1716638,15.4529576 16.1146026,15.1721611 15.9269696,14.9860651 L13.5681742,12.6534059 L13.7184576,12.6534059 C13.9721857,12.6504206 14.2237485,12.6062867 14.4633404,12.5227247 L21.147683,12.5227247 L21.147683,20.0499611 L21.1803533,20.0499611 Z" id="Shape" fill="#91D851"></path>
    </g>
</svg>