<?xml version="1.0" encoding="UTF-8"?>
<svg width="24px" height="24px" viewBox="0 0 24 24" version="1.1" xmlns="http://www.w3.org/2000/svg" xmlns:xlink="http://www.w3.org/1999/xlink">
    <title>Icons / Dashboard / Dropdown / Purchases</title>
    <g id="Icons-/-Dashboard-/-Dropdown-/-Purchases" stroke="none" stroke-width="1" fill="none" fill-rule="evenodd">
        <path d="M9.80343264,1.50065604 C11.4733581,1.46902646 12.9423351,2.58416751 13.3397021,4.18513593 L13.3397021,4.18513593 L16.0112047,4.18514183 C17.1412196,4.2245213 18.0645165,5.11991586 18.1068653,6.25218545 L18.1068653,6.25218545 L18.1068653,9.9232117 C18.1068653,10.293861 17.8023957,10.5943317 17.4268135,10.5943317 C17.0512312,10.5943317 16.7467617,10.293861 16.7467617,9.9232117 L16.7467617,9.9232117 L16.7467617,6.25218545 C16.7002184,5.81102605 16.3035965,5.48833465 15.8558938,5.52737588 L15.8558938,5.52737588 L3.7509715,5.52737588 C3.30326883,5.48833465 2.90664686,5.81102605 2.86010363,6.25218545 L2.86010363,6.25218545 L2.86010363,20.4329505 C2.91007471,20.8722857 3.30442965,21.1931327 3.7509715,21.1577601 L3.7509715,21.1577601 L6.63439119,21.1577601 C7.00997344,21.1577601 7.31444301,21.4582307 7.31444301,21.82888 C7.31444301,22.1995294 7.00997344,22.5 6.63439119,22.5 L6.63439119,22.5 L3.7509715,22.5 C2.55281351,22.5378006 1.54793622,21.6150296 1.5,20.4329505 L1.5,20.4329505 L1.5,6.25218545 C1.54793622,5.07010629 2.55281351,4.14733533 3.7509715,4.18513593 L6.26716321,4.18513593 C6.66453019,2.58416751 8.13350719,1.46902646 9.80343264,1.50065604 Z M15.0602332,9.9903237 C16.8422777,9.94771018 18.3767977,11.2231168 18.6373057,12.9633852 L18.6373057,12.9633852 L21.357513,12.9633852 C21.9884911,12.9633852 22.5,13.4681759 22.5,14.0908667 L22.5,14.0908667 L22.5,21.1778937 C22.5,21.8005845 21.9884911,22.3053752 21.357513,22.3053752 L21.357513,22.3053752 L8.74255181,22.3053752 C8.43602614,22.3107779 8.14016126,22.1943793 7.92147046,21.9823471 C7.70277966,21.7703149 7.57966248,21.4804416 7.57966248,21.1778937 L7.57966248,21.1778937 L7.57966248,14.0908667 C7.5793085,13.782301 7.70711645,13.4870749 7.93328993,13.2740176 C8.1594634,13.0609603 8.4642365,12.9486914 8.7765544,12.9633852 L8.7765544,12.9633852 L11.4967617,12.9633852 C11.7538224,11.2267453 13.282238,9.95156366 15.0602332,9.9903237 Z M21.1398964,14.3056251 L8.93976684,14.3056251 L8.93976684,20.9631353 L21.1806995,20.9631353 L21.1398964,14.3056251 Z M15.0602332,11.3325636 C14.0229285,11.2887564 13.0970418,11.9698467 12.8432642,12.9633852 L12.8432642,12.9633852 L17.2704016,12.9633852 C17.012576,11.9754103 16.0934016,11.2971771 15.0602332,11.3325636 Z M9.80343264,2.84289598 C8.88871687,2.82283274 8.05379225,3.35441899 7.69527202,4.18513593 L7.69527202,4.18513593 L11.9183938,4.18513593 C11.5574439,3.35336049 10.7200688,2.82192832 9.80343264,2.84289598 Z" id="Combined-Shape" fill="#91D851"></path>
    </g>
</svg>