<?xml version="1.0" encoding="UTF-8"?>
<svg width="28px" height="28px" viewBox="0 0 28 28" version="1.1" xmlns="http://www.w3.org/2000/svg" xmlns:xlink="http://www.w3.org/1999/xlink"><!-- Generator: Sketch 43.2 (39069) - http://www.bohemiancoding.com/sketch --><title>adult-menu</title><desc>Created with Sketch.</desc><defs/><g id="Foundations" stroke="none" stroke-width="1" fill="none" fill-rule="evenodd"><g id="Header-mobile" transform="translate(-58.000000, -655.000000)" fill-rule="nonzero"><g id="Navigation-Menu-+-cross-close-+-Menu-panel-1" transform="translate(43.000000, 252.000000)"><g id="Menu-panel-1" transform="translate(0.000000, 60.000000)"><g id="Community-+-community-icon-Copy" transform="translate(15.000000, 341.000000)"><g id="adult-menu" transform="translate(0.000000, 2.000000)"><path d="M14,27.2461538 C6.67692308,27.2461538 0.753846154,21.3230769 0.753846154,14.1076923 C0.753846154,6.89230769 6.67692308,0.969230769 14,0.969230769 C21.3230769,0.969230769 27.1384615,6.78461538 27.1384615,14 C27.1384615,21.2153846 21.2153846,27.2461538 14,27.2461538 Z M14,2.04615385 C7.43076923,2.04615385 2.04615385,7.43076923 2.04615385,14 C2.04615385,20.5692308 7.43076923,25.9538462 14,25.9538462 C20.5692308,25.9538462 25.8461538,20.5692308 25.8461538,14 C25.8461538,7.43076923 20.5692308,2.04615385 14,2.04615385 Z" id="Shape" fill="#9C1F9F"/><path d="M8.72307692,11.7384615 L7.53846154,12.3846154 L7.10769231,11.5230769 L9.04615385,10.2307692 L10.1230769,10.2307692 L10.1230769,16.1538462 L11.2,16.2615385 L11.2,17.1230769 L7.43076923,17.1230769 L7.43076923,16.2615385 L8.4,16.1538462 C8.61538462,16.1538462 8.72307692,16.0461538 8.72307692,15.7230769 L8.72307692,11.7384615 L8.72307692,11.7384615 Z M13.2461538,13.6769231 C12.7076923,13.3538462 12.1692308,12.8153846 12.1692308,12.0615385 C12.1692308,11.0923077 13.0307692,10.3384615 14.3230769,10.3384615 C15.8307692,10.3384615 16.3692308,11.2 16.3692308,11.9538462 C16.3692308,12.6 15.8307692,13.2461538 15.4,13.6769231 C16.2615385,14.2153846 16.6923077,14.7538462 16.6923077,15.5076923 C16.6923077,16.4769231 15.9384615,17.4461538 14.3230769,17.4461538 C12.6,17.4461538 11.9538462,16.4769231 11.9538462,15.6153846 C11.8461538,14.5384615 12.7076923,14 13.2461538,13.6769231 Z M14.1076923,14.1076923 C13.5692308,14.4307692 13.2461538,14.7538462 13.2461538,15.4 C13.2461538,15.9384615 13.5692308,16.2615385 14.3230769,16.2615385 C14.9692308,16.2615385 15.4,15.8307692 15.4,15.2923077 C15.2923077,14.7538462 14.7538462,14.4307692 14.1076923,14.1076923 Z M13.3538462,11.9538462 C13.3538462,12.4923077 13.7846154,12.8153846 14.3230769,13.1384615 C14.7538462,12.9230769 15.1846154,12.4923077 15.1846154,11.9538462 C15.1846154,11.4153846 14.7538462,11.2 14.3230769,11.2 C13.7846154,11.0923077 13.3538462,11.5230769 13.3538462,11.9538462 Z M19.3846154,11.6307692 L20.4615385,11.6307692 L20.4615385,13.3538462 L22.0769231,13.3538462 L22.0769231,14.4307692 L20.4615385,14.4307692 L20.4615385,16.1538462 L19.3846154,16.1538462 L19.3846154,14.4307692 L17.7692308,14.4307692 L17.7692308,13.3538462 L19.3846154,13.3538462 L19.3846154,11.6307692 Z" id="Shape_3_" fill="#9C1F9F"/></g></g></g></g></g></g></svg>