<svg id="Layer_1" data-name="Layer 1" xmlns="http://www.w3.org/2000/svg" viewBox="0 0 1332 198.07"><defs><style>.cls-1{fill:#313133;}.cls-2{fill:#d3223c;}.cls-3{fill:#f4f4f4;opacity:0.1;isolation:isolate;}.cls-4{fill:#e3e3e3;}.cls-5{fill:#c42342;}.cls-6{fill:#ec992f;}.cls-7{fill:#e62eeb;}</style></defs><rect class="cls-1" x="402.9" y="2" width="499" height="168.6"/><polyline class="cls-2" points="1328.3 2.2 1328.3 187.1 1162.7 187.5 1162.7 174.2"/><rect class="cls-2" x="1162.7" y="2" width="169.3" height="180.7"/><polygon class="cls-3" points="1288.6 2 1295.3 2 1295.3 118.1 1295.3 194.4 1288.6 194.4 1288.6 2"/><polygon class="cls-3" points="1258.6 2 1269.2 2 1269.2 118.1 1269.2 194.4 1258.6 194.4 1258.6 2"/><polygon class="cls-3" points="1239.2 2 1243.2 2 1243.2 118.1 1243.2 194.4 1239.2 194.4 1239.2 2"/><polygon class="cls-3" points="1206.3 2 1210.3 2 1210.3 118.1 1210.3 194.4 1206.3 194.4 1206.3 2"/><polygon class="cls-3" points="1327.6 127.4 1331.7 194.4 1323.6 194.4 1327.6 127.4"/><polyline class="cls-2" points="1169.5 2.2 1169.5 187.1 1003.9 187.5 1003.9 174.2"/><rect class="cls-2" x="1003.9" y="2" width="169.3" height="180.7"/><polygon class="cls-3" points="1129.8 2 1136.5 2 1136.5 118.1 1136.5 194.4 1129.8 194.4 1129.8 2"/><polygon class="cls-3" points="1099.8 2 1110.4 2 1110.4 118.1 1110.4 194.4 1099.8 194.4 1099.8 2"/><polygon class="cls-3" points="1080.3 2 1084.3 2 1084.3 118.1 1084.3 194.4 1080.3 194.4 1080.3 2"/><polygon class="cls-3" points="1047.5 2 1051.5 2 1051.5 118.1 1051.5 194.4 1047.5 194.4 1047.5 2"/><polygon class="cls-3" points="1168.8 127.4 1172.9 194.4 1164.8 194.4 1168.8 127.4"/><path class="cls-4" d="M1174.2,185v-1.8H1049.5l-37.4,1.9L848,176.4v10.8H819.9c-1.2,14.8,16.7,6.6,16.7,6.6a16.58,16.58,0,0,1,11.4,0v.5c9.1,2,9.6-3.3,11.8-4.8s3.9,1,3.9,1c4.1,5.9,11.3,2.5,11.3,2.5a8.34,8.34,0,0,1,8.9-2.5,14,14,0,0,0,14.8,0c2.4-2.4,8.3-1,8.3-1,12.8,4.4,20.3,0,20.3,0,3.1-2.6,4.4,1,4.4,1a19,19,0,0,0,14.4,2.9c9.6-.2,7.6-2.9,7.6-2.9a3.94,3.94,0,0,1,.7-3.7c2.6-3.5,10.9,4.6,10.9,4.6,7.4,4.4,12.9-1.8,12.9-1.8,3.3-3.9,5.2,1.4,5.2,1.4,8.9,9.3,18.3,0,18.3,0a4.45,4.45,0,0,1,5.7-1.4l3.6-1.5,3.8,1.6a4.45,4.45,0,0,1,5.7,1.4s9.4,9.3,18.3,0c0,0,1.9-5.3,5.2-1.4,0,0,5.5,6.2,12.9,1.8,0,0,8.3-8.1,10.9-4.6a3.94,3.94,0,0,1,.7,3.7s-2,2.7,7.6,2.9a19,19,0,0,0,14.4-2.9s1.3-3.6,4.4-1c0,0,7.5,4.4,20.3,0,0,0,5.9-1.4,8.3,1a14,14,0,0,0,14.8,0,8.34,8.34,0,0,1,8.9,2.5s7.2,3.4,11.3-2.5c0,0,1.7-2.5,3.9-1s2.7,6.8,11.8,4.8v-4.9a4.33,4.33,0,0,1,5.1,1.6s9.4,9.3,18.3,0c0,0,1.9-5.3,5.2-1.4,0,0,5.5,6.2,12.9,1.8,0,0,8.3-8.1,10.9-4.6a3.94,3.94,0,0,1,.7,3.7s-2,2.7,7.6,2.9a19,19,0,0,0,14.4-2.9s1.3-3.6,4.4-1c0,0,7.5,4.4,20.3,0,0,0,5.9-1.4,8.3,1a14,14,0,0,0,14.8,0,8.34,8.34,0,0,1,8.9,2.5s7.2,3.4,11.3-2.5c0,0,1.7-2.5,3.9-1s2.7,6.8,11.8,4.8V183.2H1208.3Z" transform="translate(-1 2)"/><path class="cls-2" d="M1174.1,184.4V173.7l-161.5,10.9L848.2,173.5v17.9c9,2,9.6-3.3,11.8-4.8s3.9,1,3.9,1c4.1,5.9,11.3,2.5,11.3,2.5a8.34,8.34,0,0,1,8.9-2.5,13.94,13.94,0,0,0,14.8,0c2.4-2.4,8.3-1,8.3-1,12.7,4.4,20.3,0,20.3,0,3.1-2.5,4.4,1,4.4,1,6.6,4.8,14.4,2.9,14.4,2.9,9.6-.2,7.6-2.9,7.6-2.9a4.07,4.07,0,0,1,.7-3.7c2.6-3.5,10.9,4.6,10.9,4.6,7.4,4.4,12.9-1.8,12.9-1.8,3.4-3.9,5.2,1.4,5.2,1.4,8.9,9.3,18.3,0,18.3,0a4.45,4.45,0,0,1,5.7-1.4l3-.6,4.1.8a4.45,4.45,0,0,1,5.7,1.4s9.4,9.3,18.3,0c0,0,1.8-5.3,5.2-1.4,0,0,5.5,6.2,12.9,1.8,0,0,8.3-8.1,10.9-4.6a4.07,4.07,0,0,1,.7,3.7s-2,2.7,7.6,2.9c0,0,7.8,1.9,14.4-2.9,0,0,1.3-3.5,4.4-1,0,0,7.6,4.4,20.3,0,0,0,5.9-1.4,8.3,1a13.94,13.94,0,0,0,14.8,0,8.34,8.34,0,0,1,8.9,2.5s7.2,3.4,11.3-2.5c0,0,1.7-2.4,3.9-1s2.8,6.8,11.8,4.8v-4.9a4.33,4.33,0,0,1,5.1,1.6s9.4,9.3,18.3,0c0,0,1.8-5.3,5.2-1.4,0,0,5.5,6.2,12.9,1.8,0,0,8.3-8.1,10.9-4.6a4.07,4.07,0,0,1,.7,3.7s-2,2.7,7.6,2.9c0,0,7.8,1.9,14.4-2.9,0,0,1.3-3.5,4.4-1,0,0,7.6,4.4,20.3,0,0,0,5.9-1.4,8.3,1a13.94,13.94,0,0,0,14.8,0,8.34,8.34,0,0,1,8.9,2.5s7.2,3.4,11.3-2.5c0,0,1.7-2.4,3.9-1s2.8,6.8,11.8,4.8V173.7Z" transform="translate(-1 2)"/><path class="cls-2" d="M848,191.5a16.58,16.58,0,0,0-11.4,0s-17.9,8.3-16.7-6.6h28.5Z" transform="translate(-1 2)"/><polyline class="cls-2" points="850.8 2 850.8 186.9 1016.4 187.3 1016.4 174"/><rect class="cls-2" x="847.1" y="1.8" width="169.3" height="180.7"/><polygon class="cls-3" points="890.5 1.8 883.8 1.8 883.8 117.9 883.8 194.3 890.5 194.3 890.5 1.8"/><polygon class="cls-3" points="920.5 1.8 909.8 1.8 909.8 117.9 909.8 194.3 920.5 194.3 920.5 1.8"/><polygon class="cls-3" points="939.9 1.8 935.9 1.8 935.9 117.9 935.9 194.3 939.9 194.3 939.9 1.8"/><polygon class="cls-3" points="972.8 1.8 968.8 1.8 968.8 117.9 968.8 194.3 972.8 194.3 972.8 1.8"/><rect class="cls-5" x="1172.1" y="2" width="6.1" height="186.6"/><rect class="cls-5" x="1195.3" y="2" width="6.1" height="186.6"/><rect class="cls-5" x="1219.1" y="2" width="6.1" height="183.5"/><rect class="cls-5" x="1247.3" y="2" width="6.1" height="186.6"/><rect class="cls-5" x="1275.5" y="2" width="6.1" height="186.6"/><polygon class="cls-5" points="1299.3 188.6 1305.4 188.6 1305.4 114.6 1305.4 2 1299.3 2 1299.3 188.6"/><rect class="cls-5" x="1314.1" y="2" width="6.1" height="186.6"/><rect class="cls-5" x="1013.3" y="2" width="6.1" height="186.4"/><rect class="cls-5" x="1036.5" y="2" width="6.1" height="186.5"/><rect class="cls-5" x="1060.3" y="2" width="6.1" height="183.2"/><rect class="cls-5" x="1088.5" y="2" width="6.1" height="186.5"/><rect class="cls-5" x="1116.7" y="2" width="6.1" height="186.2"/><polygon class="cls-5" points="1140.5 188.6 1146.6 188.6 1146.6 114.6 1146.6 2 1140.5 2 1140.5 188.6"/><rect class="cls-5" x="1155.3" y="2" width="6.1" height="186.6"/><rect class="cls-5" x="1004.1" y="1.9" width="6.1" height="186.4"/><rect class="cls-5" x="980.9" y="1.9" width="2.9" height="186.4"/><rect class="cls-5" x="957.1" y="3.6" width="6.1" height="183.3"/><polygon class="cls-5" points="928.9 188.2 935 191.4 935 1.9 928.9 1.9 928.9 188.2"/><rect class="cls-5" x="900.7" y="1.9" width="6.1" height="186.4"/><polygon class="cls-5" points="876.9 114.3 876.9 188.2 883 188.2 883 1.8 876.9 1.8 876.9 114.3"/><polygon class="cls-5" points="862.1 188.2 865.1 191.8 868.2 1.9 862.1 1.9 862.1 188.2"/><path class="cls-2" d="M800.3,0S819,110.3,842.1,117.7v5.6s-22.2,25.1-22.2,61.7h34.2V0Z" transform="translate(-1 2)"/><path class="cls-3" d="M843.3,125.7c-2.5,5.3-4.9,10.7-7.1,16.2s-4.4,11.1-6.3,16.8-3.7,11.5-5.2,17.5c-.7,3-1.4,6.1-2,9.2a95.2,95.2,0,0,0-1.2,9.7H833a107.46,107.46,0,0,1,.1-17c.5-5.8,1.3-11.7,2.2-17.5s2.2-11.7,3.5-17.5S841.6,131.4,843.3,125.7Z" transform="translate(-1 2)"/><rect class="cls-6" x="841" y="119.7" width="12" height="6.2"/><path class="cls-3" d="M802.7-1.7c.4,2.7,1.5,7.6,2,10.2l1.5,7.8c1,5.2,2.1,10.4,3.2,15.6,2.3,10.4,4.8,20.7,7.7,30.9,1.5,5.1,3.1,10.2,4.8,15.2s3.6,10,5.8,14.9a95.83,95.83,0,0,0,7.6,14.1,43.1,43.1,0,0,0,5.1,6.2,24.24,24.24,0,0,0,3.1,2.5,14.88,14.88,0,0,0,3.6,1.7,13.85,13.85,0,0,1-3.3-2,23.67,23.67,0,0,1-2.8-2.7,45.48,45.48,0,0,1-4.4-6.4,91.49,91.49,0,0,1-6.1-14.4c-1.7-4.9-3.1-10-4.3-15s-2.3-10.2-3.3-15.3c-2-10.3-3.5-20.6-4.8-31-.6-5.2-1.2-10.4-1.7-15.6-.3-2.6-.5-5.2-.7-7.8l-.6-7.8Z" transform="translate(-1 2)"/><path class="cls-3" d="M819.9-.1c0,1.3.1,2.6.2,3.9l.2,3.8c.2,2.6.3,5.1.5,7.7q.6,7.65,1.5,15.3c1.2,10.1,2.7,20.2,4.6,30.3a234.06,234.06,0,0,0,7.7,29.6,123.74,123.74,0,0,0,5.7,14.2,75.49,75.49,0,0,0,7.8,13.1,76.66,76.66,0,0,1-6.4-13.6,140.47,140.47,0,0,1-4.3-14.4,230.94,230.94,0,0,1-4.8-29.6c-1-10-1.5-20-1.7-30q-.15-7.5,0-15c0-2.5.1-5,.2-7.5l.1-3.7c.1-1.2.1-2.5.2-3.7Z" transform="translate(-1 2)"/><path class="cls-3" d="M850.9,117.4c-.9-4.9-1.6-9.8-2.3-14.7s-1.3-9.8-1.8-14.8c-1.1-9.9-1.8-19.7-2.2-29.6a261.88,261.88,0,0,1,.4-29.4c.3-4.9.9-9.7,1.6-14.4A107.57,107.57,0,0,1,849.7.6L838.4-2a119.2,119.2,0,0,0-1.9,15.5c-.3,5.1-.4,10.2-.2,15.3a300.34,300.34,0,0,0,2.5,30.1c1.3,9.9,3.1,19.8,5.1,29.5,1,4.9,2.1,9.7,3.3,14.6S849.6,112.6,850.9,117.4Z" transform="translate(-1 2)"/><path class="cls-3" d="M848.1,125.2c-1.6,5.3-3,10.7-4.4,16.1s-2.7,10.9-3.8,16.4-2.1,11.1-2.8,16.8c-.3,2.9-.6,5.8-.7,8.8,0,1.5-.1,3,0,4.6a21.59,21.59,0,0,0,.3,3.5h10.9a32.31,32.31,0,0,1-1.5-4.7c-.2-1.2-.4-2.5-.6-3.7-.3-2.6-.5-5.3-.6-8-.2-5.4-.1-11,.2-16.5s.7-11.1,1.2-16.7S847.3,130.8,848.1,125.2Z" transform="translate(-1 2)"/><polygon class="cls-3" points="851.4 127.2 847.4 194.3 855.5 194.3 851.4 127.2"/><polyline class="cls-2" points="169.3 174.2 169.3 187.5 3.7 187.1 3.7 2.2"/><rect class="cls-2" y="2" width="169.3" height="180.7"/><polygon class="cls-3" points="43.4 194.4 36.7 194.4 36.7 118.1 36.7 2 43.4 2 43.4 194.4"/><polygon class="cls-3" points="73.4 194.4 62.8 194.4 62.8 118.1 62.8 2 73.4 2 73.4 194.4"/><polygon class="cls-3" points="92.8 194.4 88.8 194.4 88.8 118.1 88.8 2 92.8 2 92.8 194.4"/><polygon class="cls-3" points="125.7 194.4 121.7 194.4 121.7 118.1 121.7 2 125.7 2 125.7 194.4"/><polygon class="cls-3" points="8.4 194.4 0.3 194.4 4.4 127.4 8.4 194.4"/><polyline class="cls-2" points="328.1 174.2 328.1 187.5 162.5 187.1 162.5 2.2"/><rect class="cls-2" x="158.8" y="2" width="169.3" height="180.7"/><polygon class="cls-3" points="202.2 194.4 195.5 194.4 195.5 118.1 195.5 2 202.2 2 202.2 194.4"/><polygon class="cls-3" points="232.2 194.4 221.6 194.4 221.6 118.1 221.6 2 232.2 2 232.2 194.4"/><polygon class="cls-3" points="251.7 194.4 247.7 194.4 247.7 118.1 247.7 2 251.7 2 251.7 194.4"/><polygon class="cls-3" points="284.5 194.4 280.5 194.4 280.5 118.1 280.5 2 284.5 2 284.5 194.4"/><polygon class="cls-3" points="167.2 194.4 159.1 194.4 163.2 127.4 167.2 194.4"/><path class="cls-4" d="M159.8,185v-1.8H284.5l37.4,1.9L486,176.4v10.8h28.1c1.2,14.8-16.7,6.6-16.7,6.6a16.58,16.58,0,0,0-11.4,0v.5c-9.1,2-9.6-3.3-11.8-4.8s-3.9,1-3.9,1c-4.1,5.9-11.3,2.5-11.3,2.5a8.34,8.34,0,0,0-8.9-2.5,14,14,0,0,1-14.8,0c-2.4-2.4-8.3-1-8.3-1-12.8,4.4-20.3,0-20.3,0-3.1-2.6-4.4,1-4.4,1a19,19,0,0,1-14.4,2.9c-9.6-.2-7.6-2.9-7.6-2.9a3.94,3.94,0,0,0-.7-3.7c-2.6-3.5-10.9,4.6-10.9,4.6-7.4,4.4-12.9-1.8-12.9-1.8-3.3-3.9-5.2,1.4-5.2,1.4-8.9,9.3-18.3,0-18.3,0a4.45,4.45,0,0,0-5.7-1.4l-3.6-1.5-3.8,1.6a4.45,4.45,0,0,0-5.7,1.4s-9.4,9.3-18.3,0c0,0-1.9-5.3-5.2-1.4,0,0-5.5,6.2-12.9,1.8,0,0-8.3-8.1-10.9-4.6a3.94,3.94,0,0,0-.7,3.7s2,2.7-7.6,2.9a19,19,0,0,1-14.4-2.9s-1.3-3.6-4.4-1c0,0-7.5,4.4-20.3,0,0,0-5.9-1.4-8.3,1a14,14,0,0,1-14.8,0,8.34,8.34,0,0,0-8.9,2.5s-7.2,3.4-11.3-2.5c0,0-1.7-2.5-3.9-1s-2.7,6.8-11.8,4.8v-4.9a4.33,4.33,0,0,0-5.1,1.6s-9.4,9.3-18.3,0c0,0-1.9-5.3-5.2-1.4,0,0-5.5,6.2-12.9,1.8,0,0-8.3-8.1-10.9-4.6a3.94,3.94,0,0,0-.7,3.7s2,2.7-7.6,2.9a19,19,0,0,1-14.4-2.9s-1.3-3.6-4.4-1c0,0-7.5,4.4-20.3,0,0,0-5.9-1.4-8.3,1a14,14,0,0,1-14.8,0,8.34,8.34,0,0,0-8.9,2.5s-7.2,3.4-11.3-2.5c0,0-1.7-2.5-3.9-1s-2.7,6.8-11.8,4.8V183.2H125.7Z" transform="translate(-1 2)"/><path class="cls-2" d="M159.9,184.4V173.7l161.5,10.9,164.4-11.1v17.9c-9,2-9.6-3.3-11.8-4.8s-3.9,1-3.9,1c-4.1,5.9-11.3,2.5-11.3,2.5a8.34,8.34,0,0,0-8.9-2.5,13.94,13.94,0,0,1-14.8,0c-2.4-2.4-8.3-1-8.3-1-12.7,4.4-20.3,0-20.3,0-3.1-2.5-4.4,1-4.4,1-6.6,4.8-14.4,2.9-14.4,2.9-9.6-.2-7.6-2.9-7.6-2.9a4.07,4.07,0,0,0-.7-3.7c-2.6-3.5-10.9,4.6-10.9,4.6-7.4,4.4-12.9-1.8-12.9-1.8-3.4-3.9-5.2,1.4-5.2,1.4-8.9,9.3-18.3,0-18.3,0a4.45,4.45,0,0,0-5.7-1.4l-3-.6-4.1.8a4.45,4.45,0,0,0-5.7,1.4s-9.4,9.3-18.3,0c0,0-1.8-5.3-5.2-1.4,0,0-5.5,6.2-12.9,1.8,0,0-8.3-8.1-10.9-4.6a4.07,4.07,0,0,0-.7,3.7s2,2.7-7.6,2.9c0,0-7.8,1.9-14.4-2.9,0,0-1.3-3.5-4.4-1,0,0-7.6,4.4-20.3,0,0,0-5.9-1.4-8.3,1a13.94,13.94,0,0,1-14.8,0,8.34,8.34,0,0,0-8.9,2.5s-7.2,3.4-11.3-2.5c0,0-1.7-2.4-3.9-1s-2.8,6.8-11.8,4.8v-4.9a4.33,4.33,0,0,0-5.1,1.6s-9.4,9.3-18.3,0c0,0-1.8-5.3-5.2-1.4,0,0-5.5,6.2-12.9,1.8,0,0-8.3-8.1-10.9-4.6a4.07,4.07,0,0,0-.7,3.7s2,2.7-7.6,2.9c0,0-7.8,1.9-14.4-2.9,0,0-1.3-3.5-4.4-1,0,0-7.6,4.4-20.3,0,0,0-5.9-1.4-8.3,1a13.94,13.94,0,0,1-14.8,0,8.34,8.34,0,0,0-8.9,2.5s-7.2,3.4-11.3-2.5c0,0-1.7-2.4-3.9-1s-2.8,6.8-11.8,4.8V173.7Z" transform="translate(-1 2)"/><path class="cls-2" d="M485.6,184.9h28.5c1.2,14.9-16.7,6.6-16.7,6.6a16.58,16.58,0,0,0-11.4,0Z" transform="translate(-1 2)"/><polyline class="cls-2" points="315.6 174 315.6 187.3 481.2 186.9 481.2 2"/><rect class="cls-2" x="315.6" y="1.8" width="169.3" height="180.7"/><polygon class="cls-3" points="441.5 194.3 448.2 194.3 448.2 117.9 448.2 1.8 441.5 1.8 441.5 194.3"/><polygon class="cls-3" points="411.5 194.3 422.2 194.3 422.2 117.9 422.2 1.8 411.5 1.8 411.5 194.3"/><polygon class="cls-3" points="392.1 194.3 396.1 194.3 396.1 117.9 396.1 1.8 392.1 1.8 392.1 194.3"/><polygon class="cls-3" points="359.2 194.3 363.2 194.3 363.2 117.9 363.2 1.8 359.2 1.8 359.2 194.3"/><rect class="cls-5" x="153.8" y="2" width="6.1" height="186.6"/><rect class="cls-5" x="130.6" y="2" width="6.1" height="186.6"/><rect class="cls-5" x="106.8" y="2" width="6.1" height="183.5"/><rect class="cls-5" x="78.6" y="2" width="6.1" height="186.6"/><rect class="cls-5" x="50.4" y="2" width="6.1" height="186.6"/><polygon class="cls-5" points="32.7 188.6 26.6 188.6 26.6 114.6 26.6 2 32.7 2 32.7 188.6"/><rect class="cls-5" x="11.8" y="2" width="6.1" height="186.6"/><rect class="cls-5" x="312.6" y="2" width="6.1" height="186.4"/><rect class="cls-5" x="289.4" y="2" width="6.1" height="186.5"/><rect class="cls-5" x="265.6" y="2" width="6.1" height="183.2"/><rect class="cls-5" x="237.4" y="2" width="6.1" height="186.5"/><rect class="cls-5" x="209.2" y="2" width="6.1" height="186.2"/><polygon class="cls-5" points="191.5 188.6 185.4 188.6 185.4 114.6 185.4 2 191.5 2 191.5 188.6"/><rect class="cls-5" x="170.6" y="2" width="6.1" height="186.6"/><rect class="cls-5" x="321.8" y="1.9" width="6.1" height="186.4"/><rect class="cls-5" x="348.2" y="1.9" width="2.9" height="186.4"/><rect class="cls-5" x="368.8" y="3.6" width="6.1" height="183.3"/><polygon class="cls-5" points="403.1 188.2 397 191.4 397 1.9 403.1 1.9 403.1 188.2"/><rect class="cls-5" x="425.2" y="1.9" width="6.1" height="186.4"/><polygon class="cls-5" points="455.1 114.3 455.1 188.2 449 188.2 449 1.8 455.1 1.8 455.1 114.3"/><polygon class="cls-5" points="469.9 188.2 466.9 191.8 463.8 1.9 469.9 1.9 469.9 188.2"/><path class="cls-2" d="M479.9,0V185h34.2c0-36.6-22.2-61.7-22.2-61.7v-5.6C515,110.3,533.7,0,533.7,0Z" transform="translate(-1 2)"/><path class="cls-3" d="M495.2,143.1c1.3,5.8,2.5,11.6,3.5,17.5s1.7,11.7,2.2,17.5a107.46,107.46,0,0,1,.1,17h11.5a95.2,95.2,0,0,0-1.2-9.7c-.6-3.1-1.3-6.2-2-9.2-1.5-6-3.3-11.8-5.2-17.5s-4.1-11.3-6.3-16.8-4.6-10.9-7.1-16.2C492.4,131.4,493.8,137.2,495.2,143.1Z" transform="translate(-1 2)"/><rect class="cls-6" x="479" y="119.7" width="12" height="6.2"/><path class="cls-3" d="M518.9-.6l-.6,7.8c-.2,2.6-.4,5.2-.7,7.8-.5,5.2-1.1,10.4-1.7,15.6-1.3,10.4-2.8,20.7-4.8,31-1,5.1-2,10.2-3.3,15.3s-2.6,10.1-4.3,15a91.49,91.49,0,0,1-6.1,14.4,45.48,45.48,0,0,1-4.4,6.4,23.67,23.67,0,0,1-2.8,2.7,13.85,13.85,0,0,1-3.3,2,14.88,14.88,0,0,0,3.6-1.7,24.24,24.24,0,0,0,3.1-2.5,43.1,43.1,0,0,0,5.1-6.2,95.83,95.83,0,0,0,7.6-14.1c2.2-4.9,4.1-9.9,5.8-14.9s3.3-10.1,4.8-15.2c2.9-10.2,5.4-20.5,7.7-30.9,1.1-5.2,2.2-10.4,3.2-15.6l1.5-7.8c.5-2.6,1.6-7.5,2-10.2Z" transform="translate(-1 2)"/><path class="cls-3" d="M502.6.3c.1,1.2.1,2.5.2,3.7l.1,3.7c.1,2.5.2,5,.2,7.5q.15,7.5,0,15c-.2,10-.7,20-1.7,30a230.94,230.94,0,0,1-4.8,29.6,140.47,140.47,0,0,1-4.3,14.4,76.66,76.66,0,0,1-6.4,13.6,75.49,75.49,0,0,0,7.8-13.1,123.74,123.74,0,0,0,5.7-14.2,234.06,234.06,0,0,0,7.7-29.6c1.9-10.1,3.4-20.2,4.6-30.3q.9-7.65,1.5-15.3c.2-2.6.3-5.1.5-7.7l.2-3.8c.1-1.3.2-2.6.2-3.9Z" transform="translate(-1 2)"/><path class="cls-3" d="M486.8,103c1.2-4.9,2.3-9.7,3.3-14.6,2-9.7,3.8-19.6,5.1-29.5a300.34,300.34,0,0,0,2.5-30.1c.2-5.1.1-10.2-.2-15.3A119.2,119.2,0,0,0,495.6-2L484.3.6a107.57,107.57,0,0,1,3.1,13.9c.7,4.7,1.3,9.5,1.6,14.4a261.88,261.88,0,0,1,.4,29.4c-.4,9.9-1.1,19.7-2.2,29.6-.5,5-1.1,9.9-1.8,14.8s-1.4,9.8-2.3,14.7C484.4,112.6,485.7,107.8,486.8,103Z" transform="translate(-1 2)"/><path class="cls-3" d="M487.7,141.8c.5,5.6.9,11.2,1.2,16.7s.4,11.1.2,16.5c-.1,2.7-.3,5.4-.6,8-.2,1.2-.4,2.5-.6,3.7a32.31,32.31,0,0,1-1.5,4.7h10.9a21.59,21.59,0,0,0,.3-3.5c.1-1.6,0-3.1,0-4.6-.1-3-.4-5.9-.7-8.8-.7-5.7-1.7-11.3-2.8-16.8s-2.4-11-3.8-16.4-2.8-10.8-4.4-16.1C486.7,130.8,487.3,136.3,487.7,141.8Z" transform="translate(-1 2)"/><polygon class="cls-3" points="476.5 194.3 484.6 194.3 480.6 127.2 476.5 194.3"/><path class="cls-7" d="M667,137.8a51.1,51.1,0,1,1,51.1-51.1A51.13,51.13,0,0,1,667,137.8Z" transform="translate(-1 2)"/><path class="cls-1" d="M667,130.6a44,44,0,1,1,44-44,44.06,44.06,0,0,1-44,44Z" transform="translate(-1 2)"/><path class="cls-7" d="M639,76.8h4.6V84h6.9v4.4h-6.9v7.2H639V88.4h-6.9V84H639Z" transform="translate(-1 2)"/><path class="cls-7" d="M662.6,77.3,657.3,80l-2-3.5,8.2-5.1h4.4V96.3l4.7.2v3.8H657V96.6l4.3-.3c.9,0,1.3-.4,1.3-1.5V77.3Z" transform="translate(-1 2)"/><path class="cls-7" d="M681.4,85.1c-2.1-1.3-4.5-3.3-4.5-6.7,0-4.2,3.6-7.5,9.1-7.5,6.2,0,8.6,3.4,8.6,6.7,0,3-2,5.3-4.3,7.2,3.3,1.9,5.5,4.5,5.5,7.8,0,4.4-3.1,8.3-10.2,8.3-7.5,0-9.7-4.1-9.7-7.6C675.9,89.1,679.1,86.4,681.4,85.1Zm3.6,2.1c-2.1,1.4-3.9,3-3.9,5.7,0,2,1.4,3.9,4.4,3.9,2.8,0,4.5-1.5,4.5-4C690,90.1,687.8,88.7,685,87.2Zm-3-9.1c0,2.1,1.9,3.6,4.3,4.9,1.6-1.1,3.3-3,3.3-5s-1.6-3.2-3.8-3.2A3.41,3.41,0,0,0,682,78.1Z" transform="translate(-1 2)"/></svg>