<?xml version="1.0" encoding="UTF-8"?>
<svg width="112px" height="112px" viewBox="0 0 112 112" version="1.1" xmlns="http://www.w3.org/2000/svg" xmlns:xlink="http://www.w3.org/1999/xlink" style="background: #131415;">
    <!-- Generator: Sketch 63.1 (92452) - https://sketch.com -->
    <title>Category buttons / Home&amp;PAA / Normal / Ic-btn-industry-jobs</title>
    <desc>Created with Sketch.</desc>
    <defs>
        <linearGradient x1="0%" y1="16.5289256%" x2="100%" y2="83.4710744%" id="linearGradient-1">
            <stop stop-color="#A75BD8" offset="0%"></stop>
            <stop stop-color="#C60A84" offset="100%"></stop>
        </linearGradient>
    </defs>
    <g id="Category-buttons-/-Home&amp;PAA-/-Normal-/-Ic-btn-industry-jobs" stroke="none" stroke-width="1" fill="none" fill-rule="evenodd">
        <rect fill="#131415" x="0" y="0" width="112" height="112"></rect>
        <g id="Badge-/-z.Base-/-1">
            <g id="Badge-/-z.Base-/-Large">
                <g id="Badge-/-z.Base-/-Shapes-/-Large" fill="#FFFFFF" fill-rule="evenodd" stroke="#CBD5D9" stroke-width="1">
                    <rect id="Rectangle" x="0.5" y="0.5" width="111" height="111" rx="4"></rect>
                </g>
                <text id="Category-name" font-family="Poppins-SemiBold, Poppins" font-size="14" font-weight="500" fill="#313133">
                    <tspan x="8.218" y="81">Industry Jobs</tspan>
                </text>
                <g id="Icon-/-32-/-Categories-/-Adult-/-Industry-Jobs" transform="translate(36.000000, 20.000000)" fill="url(#linearGradient-1)" fill-rule="evenodd">
                    <path d="M23.75,6.25 C25.0088237,6.25 26.0416667,7.25106316 26.0416667,8.5 L26.0416667,8.5 L26.041,10.187 L34.5833333,10.1875 C35.7897061,10.1875 36.7885374,11.1068792 36.869679,12.2827284 L36.875,12.4375 L36.875,32.125 C36.875,33.3739368 35.8421571,34.375 34.5833333,34.375 L34.5833333,34.375 L4.79166667,34.375 C3.53284294,34.375 2.5,33.3739368 2.5,32.125 L2.5,32.125 L2.5,12.4375 C2.5,11.1885632 3.53284294,10.1875 4.79166667,10.1875 L4.79166667,10.1875 L13.333,10.187 L13.3333333,8.5 C13.3333333,7.30310219 14.2818992,6.33385227 15.4688824,6.25515939 L15.625,6.25 Z M30.1045923,22.5031969 L30.1041667,24.25 C30.1041667,25.4989368 29.0713237,26.5 27.8125,26.5 C26.5536763,26.5 25.5208333,25.4989368 25.5208333,24.25 L25.5208333,24.25 L25.52,22.562 L13.854,22.562 L13.8541667,24.25 C13.8541667,25.4468978 12.9056008,26.4161477 11.7186176,26.4948406 L11.5625,26.5 C10.3036763,26.5 9.27083333,25.4989368 9.27083333,24.25 L9.27083333,24.25 L9.27035886,22.5031908 C7.45620443,22.276775 5.66040566,21.4183662 4.37461772,20.2092347 L4.375,32.125 C4.375,32.3250632 4.55549039,32.5 4.79166667,32.5 L4.79166667,32.5 L34.5833333,32.5 C34.8195096,32.5 35,32.3250632 35,32.125 L35,32.125 L35.0013868,20.2082899 C33.7155182,21.4179299 31.9192358,22.2767314 30.1045923,22.5031969 Z M28.22875,22.56125 L27.395,22.56125 L27.3958333,24.25 C27.3958333,24.4214827 27.5284385,24.5745053 27.7150548,24.6147263 L27.7150548,24.6147263 L27.8125,24.625 C28.0486763,24.625 28.2291667,24.4500632 28.2291667,24.25 L28.2291667,24.25 L28.22875,22.56125 Z M11.97875,22.56125 L11.145,22.56125 L11.1458333,24.25 C11.1458333,24.4214827 11.2784385,24.5745053 11.4650548,24.6147263 L11.4650548,24.6147263 L11.5625,24.625 C11.7986763,24.625 11.9791667,24.4500632 11.9791667,24.25 L11.9791667,24.25 L11.97875,22.56125 Z M34.5833333,12.0625 L4.79166667,12.0625 C4.55549039,12.0625 4.375,12.2374368 4.375,12.4375 L4.375,12.4375 L4.375,16.375 C4.375,18.4277087 7.2408039,20.554503 9.9544654,20.6815147 L10.2083333,20.6875 L29.1666667,20.6875 C31.8678721,20.6875 34.8155307,18.622909 34.9916962,16.5675952 L35,16.375 L35,16.375 L35,12.4375 C35,12.2624447 34.861812,12.1066268 34.6690454,12.0704076 L34.5833333,12.0625 Z M23.75,8.125 L15.625,8.125 C15.3888237,8.125 15.2083333,8.29993684 15.2083333,8.5 L15.2083333,8.5 L15.2075,9.53125 L24.16625,9.53125 L24.1666667,8.5 C24.1666667,8.32851729 24.0340615,8.17549474 23.8474452,8.13527365 L23.8474452,8.13527365 L23.75,8.125 Z" id="Combined-Shape"></path>
                </g>
            </g>
        </g>
    </g>
</svg>