<?xml version="1.0" encoding="UTF-8"?>
<svg width="112px" height="112px" viewBox="0 0 112 112" version="1.1" xmlns="http://www.w3.org/2000/svg" xmlns:xlink="http://www.w3.org/1999/xlink" style="background: #FFFFFF;">
    <!-- Generator: Sketch 63.1 (92452) - https://sketch.com -->
    <title>Category buttons / Home&amp;PAA / Normal / Ic-btn-contacts -ON</title>
    <desc>Created with Sketch.</desc>
    <defs>
        <linearGradient x1="0%" y1="6.8877551%" x2="100%" y2="93.1122449%" id="linearGradient-1">
            <stop stop-color="#A75BD8" offset="0%"></stop>
            <stop stop-color="#C60A84" offset="100%"></stop>
        </linearGradient>
    </defs>
    <g id="Category-buttons-/-Home&amp;PAA-/-Normal-/-Ic-btn-contacts--ON" stroke="none" stroke-width="1" fill="none" fill-rule="evenodd">
        <rect fill="#FFFFFF" x="0" y="0" width="112" height="112"></rect>
        <g id="Badge-/-z.Base-/-1">
            <g id="Badge-/-z.Base-/-Large">
                <g id="Badge-/-z.Base-/-Shapes-/-Large" stroke="#9C1F9F" stroke-width="3">
                    <rect id="Rectangle" x="1.5" y="1.5" width="109" height="109" rx="4"></rect>
                </g>
                <text id="Category-name" font-family="Poppins-SemiBold, Poppins" font-size="14" font-weight="500" fill="#9C1F9F">
                    <tspan x="23.163" y="81">Contacts</tspan>
                </text>
                <g id="Icon-/-32-/-Categories-/-Adult-/-Contacts" transform="translate(36.000000, 20.000000)" fill="url(#linearGradient-1)" fill-rule="evenodd">
                    <path d="M34.2592593,18.1237132 C36.0490709,18.1237132 37.5,19.4107794 37.5,20.9984559 L37.5,20.9984559 L37.5,29.6226838 C37.5,31.2103604 36.0490709,32.4974265 34.2592593,32.4974265 L34.2592593,32.4974265 L27.1296296,32.4974265 L24.3337396,36.315271 C24.2198037,36.4708527 24.0385185,36.5627919 23.845679,36.5627919 C23.5115808,36.5627919 23.2407407,36.2919518 23.2407407,35.9578537 L23.2407407,35.9578537 L23.2407407,32.4974265 L21.2962963,32.4974265 C19.5064846,32.4974265 18.0555556,31.2103604 18.0555556,29.6226838 L18.0555556,29.6226838 L18.0555556,20.9984559 C18.0555556,19.4107794 19.5064846,18.1237132 21.2962963,18.1237132 L21.2962963,18.1237132 Z M34.2592593,20.3932469 L21.2962963,20.3932469 C20.8488434,20.3932469 20.4861111,20.7077556 20.4861111,21.0957216 L20.4861111,21.0957216 L20.4861111,29.5254181 C20.4861111,29.9133842 20.8488434,30.2278928 21.2962963,30.2278928 L21.2962963,30.2278928 L34.2592593,30.2278928 C34.7067122,30.2278928 35.0694444,29.9133842 35.0694444,29.5254181 L35.0694444,29.5254181 L35.0694444,21.0957216 C35.0694444,20.7077556 34.7067122,20.3932469 34.2592593,20.3932469 L34.2592593,20.3932469 Z M17.6234568,3.75 C19.2939477,3.75 20.6481481,4.92006011 20.6481481,6.36340241 L20.6481481,14.2036096 C20.6481481,15.6469519 19.2939477,16.817012 17.6234568,16.817012 L16.759,16.817 L16.7592593,19.2350136 C16.7592593,19.5213835 16.5271106,19.7535322 16.2407407,19.7535322 C16.0754497,19.7535322 15.9200624,19.6747271 15.8224031,19.5413714 L13.827,16.817 L5.52469136,16.817012 C3.85420045,16.817012 2.5,15.6469519 2.5,14.2036096 L2.5,6.36340241 C2.5,4.92006011 3.85420045,3.75 5.52469136,3.75 L17.6234568,3.75 Z M17.6234568,5.81321243 L5.52469136,5.81321243 C5.10706863,5.81321243 4.76851852,6.09912937 4.76851852,6.4518258 L4.76851852,14.1151862 C4.76851852,14.4678827 5.10706863,14.7537996 5.52469136,14.7537996 L17.6234568,14.7537996 C18.0410795,14.7537996 18.3796296,14.4678827 18.3796296,14.1151862 L18.3796296,6.4518258 C18.3796296,6.09912937 18.0410795,5.81321243 17.6234568,5.81321243 Z" id="Combined-Shape"></path>
                </g>
            </g>
        </g>
        <g id="Icon-/-Check-/-Checkbox" transform="translate(80.000000, 8.000000)" fill="#9C1F9F">
            <path d="M10.9709463,13.366529 L16.3112027,6.57437624 C16.8225102,5.92405564 17.7675383,5.80875183 18.4219821,6.31683796 C19.0764259,6.8249241 19.1924607,7.76399831 18.6811532,8.41431891 C14.2260171,13.9508613 11.8927875,16.7447414 11.6814646,16.7959592 C11.0876228,17.1417187 10.3115238,17.0459069 9.82251261,16.5248105 L6.403984,12.8819836 C5.83758363,12.2784203 5.87081232,11.3328702 6.47820235,10.7700383 C7.08559238,10.2072064 8.0371375,10.2402257 8.60353787,10.843789 L10.9709463,13.366529 Z" id="Path"></path>
        </g>
    </g>
</svg>