<?xml version="1.0" encoding="UTF-8"?>
<svg width="112px" height="112px" viewBox="0 0 112 112" version="1.1" xmlns="http://www.w3.org/2000/svg" xmlns:xlink="http://www.w3.org/1999/xlink" style="background: #FFFFFF;">
    <!-- Generator: Sketch 63.1 (92452) - https://sketch.com -->
    <title>Category buttons / Home&amp;PAA / Normal / Ic-btn-massage -ON</title>
    <desc>Created with Sketch.</desc>
    <defs>
        <linearGradient x1="0%" y1="6.57133602%" x2="100%" y2="93.428664%" id="linearGradient-1">
            <stop stop-color="#A75BD8" offset="0%"></stop>
            <stop stop-color="#C60A84" offset="100%"></stop>
        </linearGradient>
    </defs>
    <g id="Category-buttons-/-Home&amp;PAA-/-Normal-/-Ic-btn-massage--ON" stroke="none" stroke-width="1" fill="none" fill-rule="evenodd">
        <rect fill="#FFFFFF" x="0" y="0" width="112" height="112"></rect>
        <g id="Badge-/-z.Base-/-1">
            <g id="Badge-/-z.Base-/-Large">
                <g id="Badge-/-z.Base-/-Shapes-/-Large" stroke="#9C1F9F" stroke-width="3">
                    <rect id="Rectangle" x="1.5" y="1.5" width="109" height="109" rx="4"></rect>
                </g>
                <text id="Category-name" font-family="Poppins-SemiBold, Poppins" font-size="14" font-weight="500" fill="#9C1F9F">
                    <tspan x="23.66" y="81">Massage</tspan>
                </text>
                <g id="Icon-/-32-/-Categories-/-Adult-/-Massage" transform="translate(36.000000, 20.000000)" fill="url(#linearGradient-1)" fill-rule="evenodd">
                    <path d="M15.2583883,2.875 C17.9524094,2.875 20.1382636,5.04472394 20.1382636,7.72532189 C20.1382636,9.78082429 18.853039,11.5364059 17.0389091,12.2434963 L18.128047,12.2414163 C19.1630957,12.2414163 20.4804696,13.0003875 20.9553651,13.9377868 L21.0342606,14.1154984 L23.7555427,21.24364 C24.0813901,22.0986074 23.8836689,23.0258073 23.3229736,23.6744073 L23.6596826,23.6469724 C25.1439401,23.5309942 26.4746026,24.5103356 26.9610687,25.9200357 L26.99875,26.045 L27.9330133,28.2296751 C27.8984329,27.996546 27.8805205,27.7579946 27.8805205,27.5152514 C27.8805205,24.8346534 30.0663746,22.6649295 32.7603958,22.6649295 C35.4545412,22.6649295 37.6412747,24.8347751 37.6412747,27.5152514 C37.6412747,29.932327 35.8632505,31.9348467 33.5386215,32.3052119 L35.9532549,32.3043378 C37.1592716,32.3043378 38.1653986,33.1890291 38.3461029,34.3422769 L38.3676845,34.5265106 L38.375,34.7146689 C38.375,35.9802358 37.3872101,37.0214404 36.1418927,37.117733 L35.9532549,37.125 L28.273731,37.125 C27.0342624,37.125 26.295899,36.5573321 25.8246309,35.5895764 L25.7338692,35.3907404 L24.25875,31.94375 L4.06882707,31.9441294 C2.84982106,31.9441294 1.83204272,31.0470085 1.6529503,29.8796289 L1.63173517,29.6931513 L1.625,29.5118792 L1.625,27.2522226 C1.625,26.208947 2.41253475,25.3931474 3.42704393,25.2326261 L3.608317,25.2111881 L6.59625,24.9775 L8.76969302,14.5288975 C9.02755209,13.2852683 9.84121356,12.3503397 11.0171756,12.2502971 L11.2284198,12.2414163 L13.477131,12.242935 C11.6629769,11.5355148 10.3775093,9.78044335 10.3775093,7.72532189 C10.3775093,5.04484558 12.5642429,2.875 15.2583883,2.875 Z M23.7958987,25.3916629 L3.74515228,26.95583 C3.54747656,26.9714174 3.41672489,27.0722911 3.38340147,27.1914371 L3.375,27.2522226 L3.375,29.5118792 C3.375,29.8464091 3.62852764,30.1314078 3.95685823,30.1850623 L4.06882707,30.1941294 L24.8359621,30.1941294 C25.1423661,30.1941294 25.4229502,30.353973 25.5806158,30.6096006 L25.640378,30.7248328 L27.3427081,34.7021642 C27.5373641,35.1569854 27.7147668,35.3381254 28.1272017,35.3698052 L28.273731,35.375 L35.9532549,35.375 C36.3221791,35.375 36.625,35.0742792 36.625,34.7146689 C36.625,34.3905118 36.3800658,34.1149693 36.0618176,34.0631024 L35.9532549,34.0543378 L29.0997993,34.0543378 C28.7933574,34.0543378 28.5127452,33.8944551 28.3550912,33.6387784 L28.2953364,33.5235247 L25.3774988,26.7037055 L25.3391766,26.5947602 C25.1456453,25.9014077 24.5680708,25.4124603 23.9412672,25.3887557 L23.7958987,25.3916629 Z M28.8920069,30.4734758 L29.67625,32.30375 L31.9821519,32.305233 C30.8250464,32.120937 29.8036034,31.532348 29.0694675,30.6894198 L28.8920069,30.4734758 Z M32.7603958,24.4149295 C31.0299833,24.4149295 29.6305205,25.8040651 29.6305205,27.5152514 C29.6305205,29.2273141 31.0298618,30.6165696 32.7603958,30.6165696 C34.4908082,30.6165696 35.8912747,29.2264376 35.8912747,27.5152514 C35.8912747,25.8043235 34.491067,24.4149295 32.7603958,24.4149295 Z M18.128047,13.9914163 L11.2284198,13.9914163 C10.9232887,13.9914163 10.6618876,14.2415134 10.5243057,14.7176503 L10.4831408,14.8847015 L8.5325,24.26 L15.55,23.77625 L17.4740634,17.8201254 C17.6981169,17.1264234 18.5822429,17.0224799 18.9894736,17.5378952 L19.0642243,17.6492451 L19.1242365,17.7771639 L20.8614485,22.3307165 C20.9911629,22.6699341 21.3849426,22.845902 21.7309665,22.7157996 C22.0357663,22.6013416 22.2074976,22.285116 22.1520729,21.9805732 L22.120457,21.8673342 L19.3992578,14.7394101 C19.29623,14.469299 18.6699837,14.0721223 18.2478398,14.0021407 L18.128047,13.9914163 Z M18.375,20.7225 L17.26875,24.145 L19.9277365,23.9389241 C19.6687749,23.7219496 19.4525448,23.448521 19.3006141,23.1281835 L19.2266382,22.9551322 L18.375,20.7225 Z M15.2583883,4.625 C13.5277171,4.625 12.1275093,6.01439406 12.1275093,7.72532189 C12.1275093,9.43619501 13.5277483,10.8258606 15.2583883,10.8266401 C16.9885421,10.8266401 18.3882636,9.43676656 18.3882636,7.72532189 C18.3882636,6.01413566 16.9888008,4.625 15.2583883,4.625 Z" id="Stroke-147"></path>
                </g>
            </g>
        </g>
        <g id="Icon-/-Check-/-Checkbox" transform="translate(80.000000, 8.000000)" fill="#9C1F9F">
            <path d="M10.9709463,13.366529 L16.3112027,6.57437624 C16.8225102,5.92405564 17.7675383,5.80875183 18.4219821,6.31683796 C19.0764259,6.8249241 19.1924607,7.76399831 18.6811532,8.41431891 C14.2260171,13.9508613 11.8927875,16.7447414 11.6814646,16.7959592 C11.0876228,17.1417187 10.3115238,17.0459069 9.82251261,16.5248105 L6.403984,12.8819836 C5.83758363,12.2784203 5.87081232,11.3328702 6.47820235,10.7700383 C7.08559238,10.2072064 8.0371375,10.2402257 8.60353787,10.843789 L10.9709463,13.366529 Z" id="Path"></path>
        </g>
    </g>
</svg>