<?xml version="1.0" encoding="UTF-8"?>
<svg width="40px" height="40px" viewBox="0 0 40 40" version="1.1" xmlns="http://www.w3.org/2000/svg" xmlns:xlink="http://www.w3.org/1999/xlink">
    <!-- Generator: Sketch 63.1 (92452) - https://sketch.com -->
    <title>Icon / Extra / Info Bathroom</title>
    <desc>Created with Sketch.</desc>
    <g id="Icon-/-Extra-/-Info-Bathroom" stroke="none" stroke-width="1" fill="none" fill-rule="evenodd">
        <g id="Imported-Layers" transform="translate(2.000000, 3.000000)" fill="#91D851">
            <path d="M34.7205576,15.3369565 C34.7205576,15.3369565 32.8918258,15.6428389 31.7488684,15.7957801 C29.5391509,16.6369565 29.0057708,18.3957801 26.5674617,18.3957801 C23.2147868,18.4722506 11.7852132,18.4722506 8.43253827,18.3957801 C5.99422923,18.3193095 5.46084913,16.6369565 3.25113157,15.7957801 C2.1081742,15.6428389 0.279442427,15.3369565 0.279442427,15.3369565 C0.20324527,15.5663683 -0.558726304,16.5604859 0.812822529,16.8663683 C1.65099126,17.0193095 1.27000547,20.5369565 1.27000547,20.9957801 C1.27000547,25.3546036 4.16549745,28.3369565 8.43253827,28.3369565 L26.5674617,28.3369565 C30.8345025,28.3369565 33.7299945,25.3546036 33.7299945,20.9957801 C33.7299945,20.5369565 33.3490087,17.0193095 34.1871775,16.8663683 C35.5587263,16.5604859 34.7967547,15.5663683 34.7205576,15.3369565 L34.7205576,15.3369565 Z M22.833801,20.9957801 L12.2423961,20.9957801 C11.9376075,20.9957801 11.7852132,20.7663683 11.7852132,20.4604859 C11.7852132,20.1546036 12.0138047,19.9251918 12.2423961,19.9251918 L22.833801,19.9251918 C23.1385896,19.9251918 23.290984,20.1546036 23.290984,20.4604859 C23.290984,20.7663683 23.1385896,20.9957801 22.833801,20.9957801 L22.833801,20.9957801 Z" id="Fill-1_1_"></path>
            <path d="M12,29.8369565 C12,30.0869565 11.7954545,30.3369565 11.4545455,30.3369565 L9.54545455,30.3369565 C9.27272727,30.3369565 9,30.0869565 9,29.8369565 C9,29.5869565 9.20454545,29.3369565 9.54545455,29.3369565 L11.4545455,29.3369565 C11.7954545,29.3994565 12,29.5869565 12,29.8369565" id="Fill-2"></path>
            <path d="M28,29.8369565 C28,30.0869565 27.7954545,30.3369565 27.4545455,30.3369565 L25.5454545,30.3369565 C25.2727273,30.3369565 25,30.0869565 25,29.8369565 C25,29.5869565 25.2045455,29.3369565 25.5454545,29.3369565 L27.4545455,29.3369565 C27.7954545,29.3994565 28,29.5869565 28,29.8369565" id="Fill-3"></path>
            <path d="M28.9186047,3.4673913 C28.755814,1.74565217 27.2906977,0.336956522 25.5,0.336956522 C23.5465116,0.336956522 22,1.82391304 22,3.70217391 L23.627907,3.70217391 C23.627907,2.68478261 24.4418605,1.82391304 25.5,1.82391304 C26.5581395,1.82391304 27.372093,2.68478261 27.372093,3.70217391 L27.372093,18.3369565 L29,18.3369565 L28.9186047,3.4673913 L28.9186047,3.4673913" id="Fill-4"></path>
            <path d="M26,7.49769315 C26,9.23609829 24.65,7.7347484 23,7.7347484 C21.35,7.7347484 20,9.23609829 20,7.49769315 C20,5.759288 21.35,4.33695652 23,4.33695652 C24.65,4.33695652 26,5.759288 26,7.49769315" id="Fill-5"></path>
            <polygon id="Fill-6" points="24 9 25 9 25 11 24 11"></polygon>
            <polygon id="Fill-7" points="24 12.3369565 25 12.3369565 25 14.3369565 24 14.3369565"></polygon>
            <polygon id="Fill-8" points="24 15.3369565 25 15.3369565 25 17.3369565 24 17.3369565"></polygon>
            <polyline id="Fill-9" points="22.5625 11 22 10.8 22.4375 9 23 9.2 22.5625 11"></polyline>
            <polyline id="Fill-10" points="21.5625 14 21 13.8 21.4375 12 22 12.2 21.5625 14"></polyline>
            <polyline id="Fill-11" points="20.5625 17.3369565 20 17.1369565 20.4375 15.3369565 21 15.5369565 20.5625 17.3369565"></polyline>
            <polyline id="Fill-12" points="20.7272727 10.3369565 20 9.99212894 21.2727273 8.33695652 22 8.68178411 20.7272727 10.3369565"></polyline>
            <polyline id="Fill-13" points="18.7272727 13.3369565 18 12.9921289 19.2727273 11.3369565 20 11.6817841 18.7272727 13.3369565"></polyline>
            <polyline id="Fill-14" points="16.7272727 16.3369565 16 15.9921289 17.2727273 14.3369565 18 14.6817841 16.7272727 16.3369565"></polyline>
        </g>
    </g>
</svg>