<?xml version="1.0" encoding="UTF-8"?>
<svg width="40px" height="41px" viewBox="0 0 40 41" version="1.1" xmlns="http://www.w3.org/2000/svg" xmlns:xlink="http://www.w3.org/1999/xlink">
    <title>Social / No Border / Facebook</title>
    <g id="Social-/-No-Border-/-Facebook" stroke="none" stroke-width="1" fill="none" fill-rule="evenodd">
        <g id="facebook" fill="#446FAF" fill-rule="nonzero">
            <path d="M20,0.171428571 C31.04625,0.171428571 40,9.12642857 40,20.1714286 C40,31.2189286 31.04625,40.1714286 20,40.1714286 C8.955,40.1714286 0,31.2189286 0,20.1714286 C0,9.12642857 8.955,0.171428571 20,0.171428571 Z M20.9705487,10.1714286 C17.6651425,10.1714286 16.9135288,12.7276786 16.9135288,14.3639286 L16.9135288,14.3639286 L16.9135288,16.6489286 L15,16.6489286 L15,20.1789286 L16.9135288,20.1789286 L16.9135288,30.1714286 L20.9342388,30.1714286 L20.9342388,20.1789286 L23.6477945,20.1789286 L24,16.6489286 L20.9342388,16.6489286 L20.9342388,14.5739286 C20.9342388,13.7926786 21.4353147,13.6114286 21.7875202,13.6114286 L21.7875202,13.6114286 L23.9491662,13.6114286 L23.9491662,10.1839286 Z" id="Combined-Shape"></path>
        </g>
    </g>
</svg>