<svg xmlns:sketch="http://www.bohemiancoding.com/sketch/ns" xmlns="http://www.w3.org/2000/svg" xmlns:xlink="http://www.w3.org/1999/xlink" version="1.1" id="Layer_1" x="0" y="0" width="137" height="41" viewBox="0 0 137 41" xml:space="preserve" enable-background="new 0 0 137 41">
  <style type="text/css">
    
	.st0{fill:#35578C;stroke:#2B4A7A;}
	.st1{enable-background:new    ;}
	.st2{fill:#FFFFFF;}
	.st3{fill:none;stroke:#4772B5;stroke-linecap:square;}
	.st4{fill:none;stroke:#243E67;stroke-linecap:square;}

  </style>
  <title>
    facebook sign in
  </title>
  <desc>
    Created with Sketch Beta.
  </desc>
  <g id="PAA" sketch:type="MSPage">
    <g id="Desktop-HD-For-sale-2" transform="translate(-570.000000, -741.000000)" sketch:type="MSArtboardGroup">
      <g id="Phase-1" transform="translate(-2.000000, -127.000000)" sketch:type="MSLayerGroup">
        <g id="_x33_.2-I_x27_m-new-to-fad" transform="translate(456.000000, 448.000000)">
          <g id="facebook-sign-in-" transform="translate(116.000000, 420.000000)">
            <path id="Button-Background" sketch:type="MSShapeGroup" class="st0" d="M2 0h133c1.1 0 2 0.9 2 2v36c0 1.1-0.9 2-2 2H2c-1.1 0-2-0.9-2-2V2C0 0.9 0.9 0 2 0z"/>
            <g class="st1">
              <path class="st2" d="M52.3 22.4h0.5c0.3 0 0.5-0.1 0.5-0.4v-7.4h-0.9V13h7.7v2.7l-1.6 0.1v-0.6c0-0.3 0-0.5-0.5-0.5h-2.8v2.8h3.9v1.6h-3.9v3.1h1.4v1.4h-4.4L52.3 22.4 52.3 22.4z"/>
              <path class="st2" d="M68.2 21.9c0 0.4 0.1 0.4 0.4 0.5h0.5v1.3h-2.5v-0.9l0 0c-0.5 0.7-1.3 1.2-2.2 1.2 -2.3 0-3.2-1.6-3.2-3.9 0-2.8 1.3-4.6 4.2-4.6 0.5 0 1.7 0.1 2.8 0.6C68.2 16.1 68.2 21.9 68.2 21.9zM66.3 17c-0.2-0.1-0.7-0.2-1.2-0.2 -1.5 0-2 1.4-2 3.2 0 1.3 0.3 2.6 1.7 2.6 1 0 1.6-0.7 1.6-1.4L66.3 17 66.3 17z"/>
              <path class="st2" d="M75.9 21.7l0.7 1.2c-0.6 0.5-1.6 0.9-2.8 0.9 -2.4 0-3.7-1.5-3.7-4.1 0-3.2 2-4.4 3.8-4.4 1 0 1.7 0.2 2.5 0.7v2.1l-1.5 0.1v-0.8c0-0.3 0-0.4-0.3-0.5 -0.2-0.1-0.4-0.1-0.6-0.1 -1.3 0-1.9 1-1.9 2.7s0.6 2.9 2.1 2.9C74.7 22.4 75.3 22.2 75.9 21.7z"/>
              <path class="st2" d="M84.3 17.6c0 2.5-2.7 2.9-4.6 2.9 0.1 1 0.6 1.9 2 1.9 0.9 0 1.6-0.4 2-0.7l0.6 1.3c-0.3 0.2-1.3 0.9-2.8 0.9 -2.7 0-3.8-1.7-3.8-4 0-2.4 1.3-4.4 4-4.4C83.2 15.4 84.3 16.2 84.3 17.6zM81.5 16.7c-1.3 0-1.9 1.2-1.9 2.4 1.2 0 2.9-0.3 2.9-1.5C82.5 17 82.1 16.7 81.5 16.7z"/>
              <path class="st2" d="M86.1 14c0-0.3-0.1-0.4-0.4-0.4h-0.6v-1.3h2.8v3.8c0.4-0.4 1.2-0.7 1.9-0.7 2 0 3.3 1.4 3.3 3.9 0 3.1-1.3 4.6-3.9 4.6 -1.1 0-2.5-0.3-3.2-0.7L86.1 14 86.1 14zM87.9 22.2c0.3 0.2 0.9 0.3 1.4 0.3 1.1 0 1.8-0.8 1.8-3 0-1.2-0.3-2.7-1.8-2.7 -0.7 0-1.4 0.5-1.4 1.2V22.2z"/>
              <path class="st2" d="M98.1 15.4c1.2 0 3.6 0.4 3.6 4 0 3.1-1.7 4.5-3.8 4.5 -2.1 0-3.6-1.4-3.6-4.3C94.3 16.3 96.4 15.4 98.1 15.4zM99.7 19.7c0-1.8-0.4-2.9-1.7-2.9 -1.3 0-1.8 1.1-1.8 2.6s0.2 3.1 1.7 3.1C99.2 22.5 99.7 21.4 99.7 19.7z"/>
              <path class="st2" d="M106.5 15.4c1.2 0 3.6 0.4 3.6 4 0 3.1-1.7 4.5-3.8 4.5 -2.1 0-3.6-1.4-3.6-4.3C102.7 16.3 104.9 15.4 106.5 15.4zM108.1 19.7c0-1.8-0.4-2.9-1.7-2.9 -1.3 0-1.8 1.1-1.8 2.6s0.2 3.1 1.7 3.1C107.6 22.5 108.1 21.4 108.1 19.7z"/>
              <path class="st2" d="M112.2 14.1c0-0.4-0.1-0.4-0.4-0.5h-0.6v-1.3h2.8v6.9c1.1-0.1 2.1-0.7 2.4-1.8 0.1-0.4 0-0.5-0.3-0.5h-0.6v-1.2h3.3V17H118c-0.1 1.1-0.6 1.9-1.4 2.6l1.6 2.8h1v1.3H117l-1.8-3.3c-0.3 0.1-0.7 0.2-1.1 0.2v1.8l0 0h0.9v1.3h-3.8v-1.2h0.5c0.3 0 0.5-0.1 0.5-0.5V14.1z"/>
            </g>
            <path id="Line" sketch:type="MSShapeGroup" class="st3" d="M40.9 0.7v38.9"/>
            <path id="Line-2" sketch:type="MSShapeGroup" class="st4" d="M41.5 0.7v38.9"/>
            <path id="Path-2" sketch:type="MSShapeGroup" class="st2" d="M22.9 20.8v11.4h-5.1V20.8h-2.4v-4h2.4v-2.6c0-1.9 1-4.8 5.1-4.8h3.8v3.9H24c-0.4 0-1.1 0.2-1.1 1.1v2.4h3.9l-0.4 4H22.9z"/>
          </g>
        </g>
      </g>
    </g>
  </g>
</svg>
