<?xml version="1.0" encoding="UTF-8"?>
<svg width="41px" height="41px" viewBox="0 0 41 41" version="1.1" xmlns="http://www.w3.org/2000/svg" xmlns:xlink="http://www.w3.org/1999/xlink">
    <title>Social / No Border / Instagram</title>
    <g id="Social-/-No-Border-/-Instagram" stroke="none" stroke-width="1" fill="none" fill-rule="evenodd">
        <path d="M20.3,0 C31.5,0 40.6,9.2 40.6,20.5 C40.6,31.8 31.5,41 20.3,41 C9.1,41 9.41469125e-13,31.8 9.41469125e-13,20.5 C9.41469125e-13,9.2 9.1,0 20.3,0 Z M25.93815,9 L15.7389,9 C12.02295,9 9,12.0231 9,15.73875 L9,15.73875 L9,25.9383 C9,29.65425 12.02295,32.67705 15.7389,32.67705 L15.7389,32.67705 L25.93815,32.67705 C29.65395,32.67705 32.6772,29.65425 32.6772,25.9383 L32.6772,25.9383 L32.6772,15.73875 C32.6772,12.0231 29.65395,9 25.93815,9 L25.93815,9 Z M25.93815,11.0295 C28.5351,11.0295 30.6477,13.1421 30.6477,15.73875 L30.6477,15.73875 L30.6477,25.9383 C30.6477,28.5351 28.5351,30.6477 25.93815,30.6477 L25.93815,30.6477 L15.7389,30.6477 C13.1421,30.6477 11.0295,28.5351 11.0295,25.9383 L11.0295,25.9383 L11.0295,15.73875 C11.0295,13.1421 13.1421,11.0295 15.7389,11.0295 L15.7389,11.0295 Z M20.8386,14.77605 C17.49585,14.77605 14.7762,17.4957 14.7762,20.83845 C14.7762,24.1815 17.49585,26.90085 20.8386,26.90085 C24.18135,26.90085 26.901,24.1815 26.901,20.83845 C26.901,17.4957 24.18135,14.77605 20.8386,14.77605 Z M20.8386,16.8057 C23.0625,16.8057 24.8715,18.6147 24.8715,20.83845 C24.8715,23.06235 23.0625,24.8715 20.8386,24.8715 C18.61485,24.8715 16.8057,23.06235 16.8057,20.83845 C16.8057,18.6147 18.61485,16.8057 20.8386,16.8057 Z M27.1611,12.97215 C26.3565,12.97215 25.70415,13.6245 25.70415,14.42925 C25.70415,15.234 26.3565,15.8862 27.1611,15.8862 C27.96585,15.8862 28.6182,15.234 28.6182,14.42925 C28.6182,13.6245 27.96585,12.97215 27.1611,12.97215 Z" id="Combined-Shape" fill="#F20080" fill-rule="nonzero"></path>
    </g>
</svg>