<?xml version="1.0" encoding="UTF-8"?>
<svg width="40px" height="40px" viewBox="0 0 40 40" version="1.1" xmlns="http://www.w3.org/2000/svg" xmlns:xlink="http://www.w3.org/1999/xlink">
    <title>Social / No Border / Twitter</title>
    <g id="Social-/-No-Border-/-Twitter" stroke="none" stroke-width="1" fill="none" fill-rule="evenodd">
        <g id="Twitter" fill="#00BBE5" fill-rule="nonzero">
            <path d="M20,-4.17443857e-12 C31.045,-4.17443857e-12 40,8.955 40,20 C40,31.0475 31.045,40 20,40 C8.955,40 8.52651283e-13,31.0475 8.52651283e-13,20 C8.52651283e-13,8.955 8.955,-4.17443857e-12 20,-4.17443857e-12 Z M23.8475,12 C21.58125,12 19.74375,13.8077219 19.74375,16.0387632 C19.74375,16.3550223 19.78,16.6626673 19.85,16.959237 C16.44,16.7906476 13.415,15.1822796 11.3925,12.7383479 C11.04,13.3339486 10.8375,14.0292262 10.8375,14.7688048 C10.8375,16.1704353 11.56125,17.4083987 12.6625,18.1319797 C11.99,18.1098292 11.3575,17.9301646 10.80375,17.6274419 L10.80375,17.6274419 L10.80375,17.6778957 C10.80375,19.6332872 12.21875,21.2662667 14.09375,21.6379018 C13.75125,21.7301953 13.38875,21.7806491 13.01375,21.7806491 C12.74875,21.7806491 12.4925,21.7535763 12.2425,21.7080449 C12.76375,23.3114905 14.28,24.4793108 16.07375,24.5125365 C14.67,25.5966774 12.9025,26.2415013 10.97875,26.2415013 C10.64875,26.2415013 10.3225,26.221812 9.99999997,26.1861252 C11.81625,27.3317951 13.9725,28 16.29,28 C23.8375,28 27.965,21.8446393 27.965,16.5063836 C27.965,16.3316413 27.96125,16.1581295 27.9525,15.9858483 C28.755,15.4160898 29.45125,14.703584 30,13.8938625 C29.265,14.2138132 28.47375,14.4328565 27.64375,14.5288417 C28.49125,14.0292262 29.14125,13.2379634 29.44875,12.2941086 C28.655,12.7580372 27.77625,13.0939855 26.8425,13.2736502 C26.09375,12.4910014 25.0275,12 23.8475,12 Z" id="Combined-Shape"></path>
        </g>
    </g>
</svg>