<?xml version="1.0" encoding="utf-8"?>
<!-- Generator: Adobe Illustrator 23.1.1, SVG Export Plug-In . SVG Version: 6.00 Build 0)  -->
<!DOCTYPE svg PUBLIC "-//W3C//DTD SVG 1.1//EN" "http://www.w3.org/Graphics/SVG/1.1/DTD/svg11.dtd" [
	<!ENTITY st0 "fill-rule:evenodd;clip-rule:evenodd;fill:#FFFFFF;">
	<!ENTITY st1 "fill-rule:evenodd;clip-rule:evenodd;fill:url(#SVGID_1_);">
]>
<svg version="1.1" id="Layer_1" xmlns="http://www.w3.org/2000/svg" xmlns:xlink="http://www.w3.org/1999/xlink" x="0px" y="0px"
	 width="88px" height="36px" viewBox="0 0 88 36" style="enable-background:new 0 0 88 36;" xml:space="preserve">
<g>
	<path style="&st0;" d="M54.7,20.1l2.8-8.8h0.1l2.8,8.8H54.7L54.7,20.1z M66,25.4L59.8,8h-6.7v2.4l1.8,0.2l-5,14
		c-0.2,0.6-0.3,0.8-0.9,0.8l-1,0.1V28h7.2v-2.6l-2,0.1L54,23h7.2l0.6,1.7c0.2,0.7,0.1,0.7-0.6,0.8l-1,0V28H68v-2.6L66,25.4L66,25.4
		L66,25.4z M78.5,25.4h-2.8V10.9h2.4c3.3,0,6,1.6,6,7C84.1,22.8,82,25.4,78.5,25.4 M78.3,8H70v2.5l1.8,0.1v14c0,0.6-0.3,0.8-0.8,0.8
		l-1,0.1V28h8.5c4.9,0,9.4-2.8,9.4-10.7C87.9,11,84.2,8,78.3,8"/>
	
		<linearGradient id="SVGID_1_" gradientUnits="userSpaceOnUse" x1="-247.5653" y1="427.4461" x2="-245.0357" y2="425.91" gradientTransform="matrix(46.2857 0 0 -36 11457.2852 15397.0312)">
		<stop  offset="0" style="stop-color:#A8DC28"/>
		<stop  offset="1" style="stop-color:#31C5F2"/>
	</linearGradient>
	<path style="&st1;" d="M27.2,0c4.7,0,8.2,4.2,9.1,5.1l0,0l9,10c1.3,1.4,1.3,3.6,0.1,5.1l0,0l-9.1,11.5C35.6,32.8,32,36,27.2,36l0,0
		H8c-4.4,0-8-3.6-8-8l0,0V8c0-4.4,3.6-8,8-8l0,0H27.2z M25.2,8H10.2v2.6l1.8,0.1v13.9c0,0.6-0.4,0.7-0.9,0.8l0,0l-1,0.1V28h8.5v-2.6
		l-2.8-0.1v-5.9h7.6v-3.1h-7.6v-5.3H21c0.8,0,0.9,0.3,0.9,0.9l0,0v1.1l3.2-0.2V8z M38.7,15.4l-0.2,0c-1.4,0-2.6,1.2-2.6,2.6
		c0,1.4,1.1,2.6,2.6,2.6c1.4,0,2.6-1.2,2.6-2.6c0-1.5-1.1-2.7-2.6-2.6L38.7,15.4z"/>
</g>
</svg>
