<?xml version="1.0" encoding="utf-8"?>
<!-- Generator: Adobe Illustrator 23.1.1, SVG Export Plug-In . SVG Version: 6.00 Build 0)  -->
<!DOCTYPE svg PUBLIC "-//W3C//DTD SVG 1.1//EN" "http://www.w3.org/Graphics/SVG/1.1/DTD/svg11.dtd" [
	<!ENTITY st0 "fill-rule:evenodd;clip-rule:evenodd;fill:#767676;">
]>
<svg version="1.1" id="Layer_1" xmlns="http://www.w3.org/2000/svg" xmlns:xlink="http://www.w3.org/1999/xlink" x="0px" y="0px"
	 width="88px" height="36px" viewBox="0 0 88 36" style="enable-background:new 0 0 88 36;" xml:space="preserve">
<path style="&st0;" d="M8,0h19.2c4.6,0,8.1,4,9,5l0.1,0.1l9,10c1.3,1.4,1.3,3.4,0.2,4.9l-0.1,0.2l-9.1,11.5
	c-0.7,1.1-4.1,4.1-8.7,4.3l-0.3,0H8c-4.3,0-7.9-3.4-8-7.8L0,28V8c0-4.3,3.4-7.9,7.8-8L8,0h19.2H8z M59.8,8L66,25.4h0l2,0V28h-7.8
	v-2.5l1,0c0.6-0.1,0.8-0.1,0.6-0.7l0-0.1L61.2,23H54l-0.8,2.5l2-0.1V28H48v-2.5l1-0.1c0.5-0.1,0.6-0.2,0.8-0.7l0-0.1l5-14l-1.8-0.2
	V8H59.8z M70,8h8.3c5.8,0,9.6,3,9.6,9.3c0,7.8-4.3,10.6-9.2,10.7l-0.2,0H70v-2.5l1-0.1c0.5-0.1,0.8-0.2,0.8-0.7l0-0.1v-14L70,10.5V8
	h8.3H70z M25.2,8H10.2v2.6l1.8,0.1v13.9c0,0.6-0.4,0.7-0.8,0.8l-0.1,0l-1,0.1V28h8.5v-2.6l-2.8-0.1v-5.9h7.6v-3.1h-7.6v-5.3H21
	c0.8,0,0.9,0.3,0.9,0.8l0,0.1v1.1l3.2-0.2V8z M78.1,10.9h-2.4v14.4h2.8c3.4,0,5.6-2.6,5.6-7.4C84.1,12.5,81.4,10.9,78.1,10.9z
	 M38.6,15.4L38.6,15.4c-1.4,0-2.6,1.2-2.6,2.6c0,1.4,1.1,2.6,2.6,2.6c1.4,0,2.6-1.2,2.6-2.6c0-1.4-1-2.5-2.3-2.6l-0.2,0L38.6,15.4z
	 M57.7,11.2L57.7,11.2l-2.9,8.8h5.7L57.7,11.2z"/>
</svg>
