<?xml version="1.0" encoding="UTF-8"?>
<svg width="32px" height="32px" viewBox="0 0 32 32" version="1.1" xmlns="http://www.w3.org/2000/svg" xmlns:xlink="http://www.w3.org/1999/xlink">
    <title>Icon / 32 / Categories / All-Categories</title>
    <defs>
        <linearGradient x1="0%" y1="0%" x2="100%" y2="100%" id="linearGradient-1">
            <stop stop-color="#A8DC28" offset="0%"></stop>
            <stop stop-color="#79D378" offset="100%"></stop>
        </linearGradient>
    </defs>
    <g id="Icon-/-32-/-Categories-/-All-Categories" stroke="none" stroke-width="1" fill="none" fill-rule="evenodd">
        <path d="M5,1.1 L11,1.1 C13.1539105,1.1 14.9,2.84608948 14.9,5 L14.9,11 C14.9,13.1539105 13.1539105,14.9 11,14.9 L5,14.9 C2.84608948,14.9 1.1,13.1539105 1.1,11 L1.1,5 C1.1,2.84608948 2.84608948,1.1 5,1.1 Z M5,2.9 C3.84020203,2.9 2.9,3.84020203 2.9,5 L2.9,11 C2.9,12.159798 3.84020203,13.1 5,13.1 L11,13.1 C12.159798,13.1 13.1,12.159798 13.1,11 L13.1,5 C13.1,3.84020203 12.159798,2.9 11,2.9 L5,2.9 Z M5,17.1 L11,17.1 C13.1539105,17.1 14.9,18.8460895 14.9,21 L14.9,27 C14.9,29.1539105 13.1539105,30.9 11,30.9 L5,30.9 C2.84608948,30.9 1.1,29.1539105 1.1,27 L1.1,21 C1.1,18.8460895 2.84608948,17.1 5,17.1 Z M5,18.9 C3.84020203,18.9 2.9,19.840202 2.9,21 L2.9,27 C2.9,28.159798 3.84020203,29.1 5,29.1 L11,29.1 C12.159798,29.1 13.1,28.159798 13.1,27 L13.1,21 C13.1,19.840202 12.159798,18.9 11,18.9 L5,18.9 Z M21,1.1 L27,1.1 C29.1539105,1.1 30.9,2.84608948 30.9,5 L30.9,11 C30.9,13.1539105 29.1539105,14.9 27,14.9 L21,14.9 C18.8460895,14.9 17.1,13.1539105 17.1,11 L17.1,5 C17.1,2.84608948 18.8460895,1.1 21,1.1 Z M21,2.9 C19.840202,2.9 18.9,3.84020203 18.9,5 L18.9,11 C18.9,12.159798 19.840202,13.1 21,13.1 L27,13.1 C28.159798,13.1 29.1,12.159798 29.1,11 L29.1,5 C29.1,3.84020203 28.159798,2.9 27,2.9 L21,2.9 Z M21,17.1 L27,17.1 C29.1539105,17.1 30.9,18.8460895 30.9,21 L30.9,27 C30.9,29.1539105 29.1539105,30.9 27,30.9 L21,30.9 C18.8460895,30.9 17.1,29.1539105 17.1,27 L17.1,21 C17.1,18.8460895 18.8460895,17.1 21,17.1 Z M21,18.9 C19.840202,18.9 18.9,19.840202 18.9,21 L18.9,27 C18.9,28.159798 19.840202,29.1 21,29.1 L27,29.1 C28.159798,29.1 29.1,28.159798 29.1,27 L29.1,21 C29.1,19.840202 28.159798,18.9 27,18.9 L21,18.9 Z" id="Shape" fill="url(#linearGradient-1)"></path>
    </g>
</svg>