<?xml version="1.0" encoding="UTF-8"?>
<svg width="32px" height="32px" viewBox="0 0 32 32" version="1.1" xmlns="http://www.w3.org/2000/svg" xmlns:xlink="http://www.w3.org/1999/xlink">
    <title>Icon / 32 / Categories / Appliances</title>
    <defs>
        <linearGradient x1="12.9869734%" y1="0%" x2="87.0130266%" y2="100%" id="linearGradient-1">
            <stop stop-color="#A8DC28" offset="0%"></stop>
            <stop stop-color="#79D378" offset="100%"></stop>
        </linearGradient>
    </defs>
    <g id="Icon-/-32-/-Categories-/-Appliances" stroke="none" stroke-width="1" fill="none" fill-rule="evenodd">
        <path d="M25.7383,2 C27.3433,2 28.6503,3.307 28.6503,4.912 L28.6503,4.912 L28.6503,27.738 C28.6503,29.344 27.3433,30.65 25.7383,30.65 L25.7383,30.65 L6.9123,30.65 C5.3063,30.65 4.0003,29.344 4.0003,27.738 L4.0003,27.738 L4.0003,4.912 C4.0003,3.307 5.3063,2 6.9123,2 L6.9123,2 Z M27.0003,8.65 L5.6503,8.65 L5.6503,27.738 C5.6503,28.434 6.2163,29 6.9123,29 L6.9123,29 L25.7383,29 C26.4343,29 27.0003,28.434 27.0003,27.738 L27.0003,27.738 L27.0003,8.65 Z M16.3256,10.0003 C20.6406,10.0003 24.1506,13.5103 24.1506,17.8253 C24.1506,22.1403 20.6406,25.6503 16.3256,25.6503 C12.0106,25.6503 8.4996,22.1403 8.4996,17.8253 C8.4996,13.5103 12.0106,10.0003 16.3256,10.0003 Z M17.1706,19.2513 C15.2116,17.4273 13.6566,15.9903 10.1806,18.4123 C10.4766,21.5433 13.1186,24.0003 16.3256,24.0003 C18.2736,24.0003 20.0116,23.0903 21.1446,21.6753 C19.5136,21.4253 18.2846,20.2873 17.1706,19.2513 Z M16.3256,11.6503 C13.4156,11.6503 10.9766,13.6753 10.3266,16.3873 C14.2126,14.2653 16.4596,16.3353 18.2946,18.0433 C19.5286,19.1923 20.6096,20.1803 22.0786,20.0503 C22.3466,19.3593 22.4996,18.6103 22.4996,17.8253 C22.4996,14.4203 19.7296,11.6503 16.3256,11.6503 Z M25.7383,3.65 L6.9123,3.65 C6.2163,3.65 5.6503,4.216 5.6503,4.912 L5.6503,4.912 L5.6503,7 L27.0003,7 L27.0003,4.912 C27.0003,4.216 26.4343,3.65 25.7383,3.65 L25.7383,3.65 Z M24.572268,4.5378192 C25.014268,4.5378192 25.372268,4.8958192 25.372268,5.3378192 C25.372268,5.7798192 25.014268,6.1378192 24.572268,6.1378192 C24.130268,6.1378192 23.772268,5.7798192 23.772268,5.3378192 C23.772268,4.8958192 24.130268,4.5378192 24.572268,4.5378192 Z M21.572268,4.5378192 C22.014268,4.5378192 22.372268,4.8958192 22.372268,5.3378192 C22.372268,5.7798192 22.014268,6.1378192 21.572268,6.1378192 C21.130268,6.1378192 20.772268,5.7798192 20.772268,5.3378192 C20.772268,4.8958192 21.130268,4.5378192 21.572268,4.5378192 Z" id="Combined-Shape" fill="url(#linearGradient-1)"></path>
    </g>
</svg>