<?xml version="1.0" encoding="UTF-8"?>
<svg width="32px" height="32px" viewBox="0 0 32 32" version="1.1" xmlns="http://www.w3.org/2000/svg" xmlns:xlink="http://www.w3.org/1999/xlink">
    <title>Icon / 32 / Categories / Baby &amp; Kids</title>
    <defs>
        <linearGradient x1="0%" y1="0%" x2="100%" y2="100%" id="linearGradient-1">
            <stop stop-color="#A8DC28" offset="0%"></stop>
            <stop stop-color="#79D378" offset="100%"></stop>
        </linearGradient>
    </defs>
    <g id="Icon-/-32-/-Categories-/-Baby-&amp;-Kids" stroke="none" stroke-width="1" fill="none" fill-rule="evenodd">
        <path d="M12.1178808,23.2983591 C13.9829932,23.2983591 15.5014833,24.8352698 15.5014833,26.7230077 C15.5014833,28.6117066 13.9829932,30.1476562 12.1178808,30.1476562 C10.2518188,30.1476562 8.73427826,28.6117066 8.73427826,26.7230077 C8.73427826,24.8352698 10.2518188,23.2983591 12.1178808,23.2983591 Z M21.9890165,23.2983591 C23.8550785,23.2983591 25.372619,24.8352698 25.372619,26.7230077 C25.372619,28.6117066 23.8550785,30.1476562 21.9890165,30.1476562 C20.1229545,30.1476562 18.605414,28.6117066 18.605414,26.7230077 C18.605414,24.8352698 20.1229545,23.2983591 21.9890165,23.2983591 Z M12.1178808,24.836231 C11.08941,24.836231 10.2537181,25.6830217 10.2537181,26.7230077 C10.2537181,27.7639547 11.08941,28.6107455 12.1178808,28.6107455 C13.145402,28.6107455 13.9820435,27.7639547 13.9820435,26.7230077 C13.9820435,25.6830217 13.145402,24.836231 12.1178808,24.836231 Z M21.9890165,24.836231 C20.9605457,24.836231 20.1248538,25.6830217 20.1248538,26.7230077 C20.1248538,27.7639547 20.9605457,28.6107455 21.9890165,28.6107455 C23.0174873,28.6107455 23.8531792,27.7639547 23.8531792,26.7230077 C23.8531792,25.6830217 23.0174873,24.836231 21.9890165,24.836231 Z M20.6524935,2.14765625 L20.7607536,2.15053976 L20.7607536,2.15053976 L20.8661647,2.16784082 L20.8671144,2.16880199 C20.9506835,2.18898656 21.0314038,2.22358868 21.1054765,2.27356952 L21.1064261,2.27356952 L21.1064261,2.27453069 C21.1615058,2.31105514 21.2108876,2.35430779 21.2555212,2.40428863 C21.2982554,2.4533083 21.3333925,2.50617265 21.3628316,2.56288168 C22.0684215,3.92678186 25.3048283,5.98176325 27.3418273,6.35950305 C27.3636692,6.36334773 27.3845615,6.36815358 27.4054538,6.3739206 C27.5498006,6.4123674 27.6732551,6.49118334 27.7691697,6.59498969 C27.8100047,6.64016468 27.8460913,6.69014552 27.8745808,6.74300987 C27.9486535,6.87757366 27.9837906,7.03520554 27.9666969,7.19764326 L27.9666969,7.19860443 L27.9611177,7.23897357 L27.9611177,7.23897357 L27.9534018,7.27934271 C27.9505528,7.29279909 27.9477039,7.30625547 27.9439053,7.31971185 C27.6048803,8.64228172 28.3778953,12.155358 29.3256459,13.5932682 C29.4225893,13.7402471 29.4628175,13.9089191 29.4514827,14.0727241 L29.4539063,14.1249824 L29.4539063,14.1249824 C29.4539063,18.703035 25.8984171,22.4275686 21.5271787,22.4275686 L12.7058809,22.4275686 C8.33464251,22.4275686 4.7782037,18.703035 4.7782037,14.1249824 L4.77971092,14.0849214 C4.77836537,14.0662071 4.77768084,14.0473064 4.77768084,14.0282432 C4.77768084,12.5970612 3.62765483,11.4330843 2.21362616,11.4330843 C1.79388091,11.4330843 1.45390625,11.0889855 1.45390625,10.6641483 C1.45390625,10.2393112 1.79388091,9.89521237 2.21362616,9.89521237 C4.23907963,9.89521237 5.9248764,11.3955424 6.24310413,13.3558208 L16.6299063,13.3556562 L11.1370017,3.90563612 C10.9765108,3.62978034 11.0021514,3.28087564 11.2015779,3.03193262 C11.4010043,2.7829896 11.7314825,2.68495026 12.0325215,2.78683428 C13.7219486,3.3558469 18.7683881,3.28472032 20.2650363,2.27645303 L20.3147742,2.24545529 L20.3147742,2.24545529 L20.3685482,2.21782166 L20.3694978,2.21686049 L20.3712784,2.21674034 C20.3713971,2.21589932 20.3723468,2.21589932 20.3723468,2.21589932 C20.3723468,2.21589932 20.3732964,2.21493815 20.3742461,2.21493815 C20.4625635,2.17456901 20.5575285,2.1524621 20.6524935,2.14765625 Z M27.8936315,14.8939184 L6.33847846,14.8939184 C6.70124471,18.2628191 9.41819303,20.8896967 12.7058809,20.8896967 L21.5271787,20.8896967 C24.8139169,20.8896967 27.5308652,18.2628191 27.8936315,14.8939184 Z M26.3589396,8.64228172 L19.5849063,13.3556562 L27.4904335,13.3580246 C26.9061082,12.0070377 26.4459504,10.1621592 26.3589396,8.64228172 Z M21.0238066,4.56307638 L19.0133978,11.8871915 L25.4805135,7.38795492 C23.924987,6.76223327 22.1728829,5.68764524 21.0238066,4.56307638 Z M19.5423528,4.21417168 C17.6971831,4.71301889 15.1388263,4.77453377 13.2898579,4.57653276 L17.4692671,11.7680065 L19.5423528,4.21417168 Z" id="Combined-Shape" fill="url(#linearGradient-1)"></path>
    </g>
</svg>