<?xml version="1.0" encoding="UTF-8"?>
<svg width="32px" height="32px" viewBox="0 0 32 32" version="1.1" xmlns="http://www.w3.org/2000/svg" xmlns:xlink="http://www.w3.org/1999/xlink">
    <title>Icon / 32 / Categories / Bicycles</title>
    <defs>
        <linearGradient x1="0%" y1="25.5642657%" x2="100%" y2="74.4357343%" id="linearGradient-1">
            <stop stop-color="#A8DC28" offset="0%"></stop>
            <stop stop-color="#79D378" offset="100%"></stop>
        </linearGradient>
    </defs>
    <g id="Icon-/-32-/-Categories-/-Bicycles" stroke="none" stroke-width="1" fill="none" fill-rule="evenodd">
        <path d="M25.331,5.675 C26.6606349,5.675 27.738,6.75236508 27.738,8.082 C27.738,9.41163492 26.6606349,10.489 25.331,10.489 C24.8753651,10.489 24.506,10.1196349 24.506,9.664 C24.506,9.24341392 24.8207253,8.89633587 25.2275138,8.84542792 L25.331,8.839 C25.7493651,8.839 26.088,8.50036508 26.088,8.082 C26.088,7.69849868 25.8034526,7.38199283 25.4337804,7.33190506 L25.331,7.325 L21.431,7.325 L23.7413108,13.9545624 C24.0646128,13.8928931 24.3963908,13.8551385 24.7347332,13.8432094 L24.9682,13.8391 C28.5639808,13.8391 31.4792,16.7536109 31.4792,20.3491 C31.4792,23.9447349 28.5638349,26.8601 24.9682,26.8601 C21.373388,26.8601 18.4582,23.9445578 18.4582,20.3491 C18.4582,17.7542226 19.9766669,15.5138873 22.1732844,14.4680111 L21.135,11.489 L13.78,11.488 L17.8881457,20.2283867 C18.0819537,20.6407477 17.9047815,21.1321448 17.4924205,21.3259529 C17.3578572,21.3891971 17.2148776,21.4129366 17.0765691,21.4018901 L14.1106762,21.4057477 C13.6057768,24.4989598 10.9208621,26.8601 7.685,26.8601 C4.090188,26.8601 1.175,23.9445578 1.175,20.3491 C1.175,16.753788 4.09004214,13.8391 7.685,13.8391 C8.3034772,13.8391 8.90182047,13.9253237 9.46865872,14.0864057 L11.242302,10.312978 L11.289,10.229 L11.289,8.489 L9.3271,8.489 C8.87146508,8.489 8.5021,8.11963492 8.5021,7.664 C8.5021,7.24341392 8.81682528,6.89633587 9.22361375,6.84542792 L9.3271,6.839 L14.7341,6.839 C15.1897349,6.839 15.5591,7.20836508 15.5591,7.664 C15.5591,8.08458608 15.2443747,8.43166413 14.8375862,8.48257208 L14.7341,8.489 L12.939,8.489 L12.939,9.839 L20.56,9.839 L19.5484439,6.93547129 C19.5080783,6.81963185 19.4950529,6.70088747 19.5059685,6.58627308 C19.5036237,6.55817229 19.5021,6.52926408 19.5021,6.5 C19.5021,6.07941392 19.8168253,5.73233587 20.2236138,5.68142792 L20.3271,5.675 L25.331,5.675 L25.331,5.675 Z M7.685,15.4891 C5.0012671,15.4891 2.825,17.6651027 2.825,20.3491 C2.825,23.0333329 5.00150272,25.2101 7.685,25.2101 C10.0055356,25.2101 11.9466458,23.583507 12.4302,21.408452 L7.32462514,21.4084023 C6.86899022,21.4084023 6.49962514,21.0390373 6.49962514,20.5834023 C6.49962514,20.4985473 6.51243598,20.4166843 6.53622907,20.3396421 C6.53804286,20.3380702 6.53885743,20.3354334 6.53968595,20.3327985 L6.54201619,20.3216433 C6.55091685,20.2950203 6.56113799,20.2690019 6.57260185,20.243666 L6.58050199,20.2282852 L8.75351026,15.6068897 C8.40968601,15.5297845 8.05209418,15.4891 7.685,15.4891 Z M24.9682,15.4891 C24.7388004,15.4891 24.5131085,15.5049989 24.2921666,15.5357549 L25.9205561,20.2075287 C26.0704855,20.6377895 25.8432321,21.1081266 25.4129713,21.2580561 C25.0158075,21.3964525 24.5844958,21.2134623 24.4025667,20.8460793 L24.3624439,20.7504713 L22.7206909,16.0389871 C21.1680943,16.8503375 20.1082,18.476016 20.1082,20.3491 C20.1082,23.0333329 22.2847027,25.2101 24.9682,25.2101 C27.6525651,25.2101 29.8292,23.0334651 29.8292,20.3491 C29.8292,17.6649705 27.6528007,15.4891 24.9682,15.4891 Z M10.2795434,16.2385349 L8.624,19.758 L12.5104053,19.7579715 C12.3306957,18.2762295 11.4840402,17.0000853 10.2795434,16.2385349 Z M12.234,12.079 L10.9855387,14.7363252 C12.7467642,15.7739161 13.9768619,17.616587 14.16955,19.7583111 L15.843,19.758 L12.234,12.079 Z" id="Combined-Shape" fill="url(#linearGradient-1)"></path>
    </g>
</svg>