<?xml version="1.0" encoding="UTF-8"?>
<svg width="32px" height="32px" viewBox="0 0 32 32" version="1.1" xmlns="http://www.w3.org/2000/svg" xmlns:xlink="http://www.w3.org/1999/xlink">
    <title>Icon / 32 / Categories / DIY Tools &amp; Supplies</title>
    <defs>
        <linearGradient x1="1.23722925%" y1="0%" x2="98.7627708%" y2="100%" id="linearGradient-1">
            <stop stop-color="#A8DC28" offset="0%"></stop>
            <stop stop-color="#79D378" offset="100%"></stop>
        </linearGradient>
    </defs>
    <g id="Icon-/-32-/-Categories-/-DIY-Tools-&amp;-Supplies" stroke="none" stroke-width="1" fill="none" fill-rule="evenodd">
        <path d="M18.4920882,1.80172994 C18.7654602,1.52833025 19.208713,1.52832951 19.482086,1.80172827 L19.482086,1.80172827 L30.088086,12.4087283 C30.361431,12.6820991 30.3614205,13.1252965 30.0880626,13.3986544 L30.0880626,13.3986544 L20.1890626,23.2976544 C20.1812073,23.3055098 20.1732116,23.3131395 20.1650838,23.3205434 L20.225313,23.2582806 C20.1942865,23.2944855 20.1603647,23.3267429 20.124183,23.3550038 C20.1093828,23.3666049 20.0943501,23.3773934 20.0790067,23.3875148 C20.0633822,23.3977761 20.0473135,23.4074598 20.0309456,23.4164491 C20.0145634,23.4255069 19.9978441,23.4338275 19.9808838,23.4414386 C19.964919,23.4485495 19.9484799,23.4551892 19.9318478,23.4611855 C19.914596,23.4674547 19.8971857,23.4729598 19.8796247,23.4777687 C19.8611311,23.4827999 19.8427357,23.4870474 19.824215,23.4905475 C19.8104945,23.4931358 19.7964191,23.4953492 19.7822998,23.4971326 C19.7576034,23.5003149 19.7325278,23.5021565 19.7074113,23.5026542 C19.6984416,23.50272 19.6897342,23.50272 19.6810293,23.5025586 C19.6554791,23.5022402 19.6296775,23.5003736 19.6040016,23.4970775 C19.591447,23.495271 19.5790488,23.4933308 19.5666999,23.4910569 C19.5469503,23.4876485 19.5269273,23.4830696 19.5070823,23.4775932 C19.4896761,23.4725433 19.47293,23.4672207 19.456364,23.4612534 C19.43917,23.4553148 19.4214453,23.4481207 19.4039634,23.4401615 C19.3884332,23.4328486 19.3737153,23.4254959 19.3592177,23.4175927 C19.340373,23.4075616 19.32127,23.3959647 19.3026097,23.3833581 C19.265931,23.3583119 19.2313417,23.329883 19.1991132,23.2976544 L19.2684538,23.358763 C19.2582384,23.3509339 19.2481785,23.3427815 19.238287,23.3343048 L19.0945526,23.2188528 C19.0506207,23.1849439 18.9989549,23.1459604 18.9400756,23.1027569 C18.6904099,22.9195615 18.411243,22.735849 18.1112796,22.5649013 C17.2651918,22.0827199 16.4307808,21.8014159 15.6941605,21.8109104 C14.7264373,21.8233836 13.9516889,22.3352009 13.367358,23.5615782 L13.2662169,23.7854591 C11.1348387,28.7600443 8.18975379,30.5150919 3.14160387,29.9271822 L3.12691393,29.9289954 L3.12691393,29.9289954 C2.74345393,29.9781632 2.39273986,29.7071657 2.34357215,29.3237057 C1.67881517,24.1392531 3.41158467,21.1398094 8.4572385,18.9772378 C9.86803504,18.372855 10.3977723,17.5175642 10.3224791,16.3859247 C10.2726582,15.6371286 9.95601173,14.795632 9.4545379,13.9392574 C9.25625445,13.6006457 9.04313464,13.2839153 8.830461,12.9992606 L8.63988835,12.7527218 C8.60626247,12.7109835 8.5789425,12.6782503 8.55890883,12.6551349 L8.53907097,12.6310443 C8.52681939,12.6155984 8.51531343,12.599755 8.50455309,12.5835623 L8.55890883,12.6551349 C8.52617215,12.6173623 8.49819591,12.5770832 8.4749278,12.5350299 C8.46631252,12.519129 8.45840112,12.5033903 8.45112043,12.4874343 C8.44302413,12.4701819 8.4356477,12.4520834 8.42906533,12.4337802 C8.42391614,12.4187899 8.41917975,12.4040408 8.41494432,12.3891791 C8.40908665,12.3695183 8.40430601,12.3494209 8.40042753,12.3291991 C8.3975947,12.313132 8.39508881,12.2970498 8.39314399,12.2809129 C8.3904534,12.2606481 8.38887876,12.2398883 8.3882251,12.2191172 C8.38801634,12.2054614 8.38797637,12.1921193 8.38831524,12.1787849 C8.38869294,12.1561522 8.39038139,12.1334231 8.39316782,12.1108187 C8.39495979,12.0975809 8.39703844,12.0839223 8.39952154,12.070323 C8.40353869,12.0475199 8.40878162,12.0251329 8.41512655,12.0030139 C8.41849414,11.9917886 8.42206704,11.9804217 8.42593666,11.969134 C8.43387973,11.9455156 8.44320147,11.9224013 8.45378751,11.8997607 C8.45921127,11.8885511 8.46491656,11.8771709 8.47095149,11.865921 C8.48144193,11.8459578 8.49314683,11.8264486 8.50586863,11.8074498 C8.53091594,11.7704031 8.55999921,11.7348222 8.59308815,11.7017299 L8.53100824,11.7723192 C8.54483177,11.7542174 8.55964385,11.7366629 8.57543893,11.7197336 L8.59308815,11.7017299 L11.416627,8.87823493 C11.41818,8.8766527 11.4197421,8.87507602 11.4213132,8.87350494 Z M11.7193905,16.2929816 C11.8297046,17.9509758 11.0311189,19.3137817 9.2379764,20.160888 L9.00864741,20.2640744 C4.72596174,22.0996371 3.27108265,24.3806955 3.6683453,28.574953 L3.6968561,28.5779599 C7.77962124,28.9577017 10.0456547,27.5729607 11.8566019,23.514877 L11.9793864,23.2340362 C12.7868018,21.3500668 14.0824254,20.4315681 15.676117,20.4110266 C15.9022266,20.4081122 16.1297095,20.423062 16.3581195,20.4544806 L11.6526524,15.7488728 C11.6849277,15.9311185 11.7073862,16.1125598 11.7193905,16.2929816 Z M6.5767879,24.5830797 C7.0197879,24.5830797 7.3767879,24.9420797 7.3767879,25.3830797 C7.3767879,25.8250797 7.0197879,26.1830797 6.5767879,26.1830797 C6.1357879,26.1830797 5.7767879,25.8250797 5.7767879,25.3830797 C5.7767879,24.9420797 6.1357879,24.5830797 6.5767879,24.5830797 Z M11.9156823,10.3576797 L10.0770879,12.1958797 L19.6940879,21.8128797 L21.5316823,19.9736797 L11.9156823,10.3576797 Z M18.9870879,3.28587969 L14.0300465,8.244647 C15.850679,8.04548525 16.5706901,8.53812662 16.8819247,9.7988859 L16.9855176,10.2589359 C17.0104946,10.361807 17.0301556,10.4260408 17.0590371,10.5064966 C17.1293655,10.7024115 17.2218126,10.8561548 17.3597877,10.99413 C17.6408556,11.2749994 18.0429206,11.2725739 19.0601426,10.958156 L19.9329119,10.6767906 C21.4714203,10.2010226 22.2294714,10.2068137 23.0169626,10.9943049 C23.8483093,11.8256515 23.8004077,12.1244738 23.0369038,14.3173765 C22.5040747,15.847745 22.3920801,17.0789646 22.9090827,18.5945094 L28.6030879,12.9028797 L18.9870879,3.28587969 Z M13.2973052,9.75829729 L21.2500899,17.7132283 C21.0645718,16.5080911 21.2178515,15.3803484 21.6210243,14.1357715 L21.9481153,13.1776778 C22.2316837,12.3294745 22.2255041,12.1940157 22.0566415,12.0146798 L22.0270132,11.9842544 C21.746267,11.7035083 21.3446451,11.7059885 20.3267605,12.0206694 L19.4540602,12.3020116 C17.9166642,12.7773521 17.1578215,12.7715061 16.3700132,11.9842544 C16.0770735,11.6913148 15.8781001,11.3604134 15.7413646,10.9795072 L15.667041,10.7515835 C15.6527019,10.7013802 15.6389874,10.6485183 15.6242438,10.5870855 L15.5117762,10.0915876 C15.3527747,9.49801946 15.0355851,9.37375533 13.2973052,9.75829729 Z" id="Combined-Shape" fill="url(#linearGradient-1)"></path>
    </g>
</svg>