<?xml version="1.0" encoding="UTF-8"?>
<svg width="32px" height="32px" viewBox="0 0 32 32" version="1.1" xmlns="http://www.w3.org/2000/svg" xmlns:xlink="http://www.w3.org/1999/xlink">
    <title>Icon / 32 / Categories / Electronics and computers</title>
    <defs>
        <linearGradient x1="0%" y1="25.091169%" x2="100%" y2="74.908831%" id="linearGradient-1">
            <stop stop-color="#A8DC28" offset="0%"></stop>
            <stop stop-color="#79D378" offset="100%"></stop>
        </linearGradient>
    </defs>
    <g id="Icon-/-32-/-Categories-/-Electronics-and-computers" stroke="none" stroke-width="1" fill="none" fill-rule="evenodd">
        <path d="M26.6017,5.2 C27.6950503,5.2 28.5997,6.05241709 28.5997,7.12847059 L28.5997,7.12847059 L28.5992677,21.642 L31.4451573,25.5273639 C31.8106417,26.0264891 31.4942977,26.7179822 30.9062164,26.7932743 L30.7997,26.8 L1.7997,26.8 C1.14467852,26.8 0.767259211,26.0558494 1.15424271,25.5273639 L1.15424271,25.5273639 L3.99926771,21.64 L3.9997,7.12847059 C3.9997,6.10129073 4.82489027,5.27795108 5.8508378,5.20522429 L5.9987,5.2 Z M27.465,22.8 L5.134,22.8 L3.376,25.2 L29.223,25.2 L27.465,22.8 Z M17.2997,23.2 C17.7415278,23.2 18.0997,23.5581722 18.0997,24 C18.0997,24.407841 17.7945119,24.7444016 17.4000503,24.7937669 L17.2997,24.8 L15.2997,24.8 C14.8578722,24.8 14.4997,24.4418278 14.4997,24 C14.4997,23.592159 14.8048881,23.2555984 15.1993497,23.2062331 L15.2997,23.2 L17.2997,23.2 Z M26.6017,6.8 L5.9987,6.8 C5.768049,6.8 5.5997,6.95844612 5.5997,7.12847059 L5.5997,7.12847059 L5.599,21.2 L26.999,21.2 L26.9997,7.12847059 C26.9997,6.97935005 26.8712805,6.83970516 26.6849138,6.80712395 L26.6849138,6.80712395 L26.6017,6.8 Z M17.3738621,10.1192723 C17.6653568,10.3156156 17.7619795,10.692984 17.614871,11.0008784 L17.5633777,11.0909121 L14.2803777,15.9649121 C14.0644001,16.2855563 13.6293821,16.3704053 13.3087379,16.1544277 C13.0172432,15.9580844 12.9206205,15.580716 13.067729,15.2728216 L13.1192223,15.1827879 L16.4022223,10.3087879 C16.6181999,9.98814372 17.0532179,9.90329469 17.3738621,10.1192723 Z M18.2154529,13.4272595 C18.5030128,13.6293219 18.5921631,14.008525 18.439002,14.3134539 L18.3857405,14.4024529 L17.5727405,15.5594529 C17.3504719,15.8757687 16.9138629,15.9520091 16.5975471,15.7297405 C16.3099872,15.5276781 16.2208369,15.148475 16.373998,14.8435461 L16.4272595,14.7545471 L17.2402595,13.5975471 C17.4625281,13.2812313 17.8991371,13.2049909 18.2154529,13.4272595 Z" id="Combined-Shape" fill="url(#linearGradient-1)"></path>
    </g>
</svg>