<?xml version="1.0" encoding="UTF-8"?>
<svg width="32px" height="32px" viewBox="0 0 32 32" version="1.1" xmlns="http://www.w3.org/2000/svg" xmlns:xlink="http://www.w3.org/1999/xlink">
    <title>Icon / 32 / Categories / Fashion &amp; Accessories</title>
    <defs>
        <linearGradient x1="0%" y1="3.52668602%" x2="100%" y2="96.473314%" id="linearGradient-1">
            <stop stop-color="#A8DC28" offset="0%"></stop>
            <stop stop-color="#79D378" offset="100%"></stop>
        </linearGradient>
    </defs>
    <g id="Icon-/-32-/-Categories-/-Fashion-&amp;-Accessories" stroke="none" stroke-width="1" fill="none" fill-rule="evenodd">
        <path d="M8.51559951,11.951178 C10.2292223,15.3784236 10.0247756,22.4263392 8.78474121,26.8253783 C13.2198032,28.4033783 18.3809321,28.4033121 22.8157539,26.8256605 C21.5753093,22.425283 21.3710216,15.3781668 23.084516,11.951178 C23.2821074,11.5559952 23.7626458,11.3958157 24.1578286,11.5934071 C24.5530114,11.7909985 24.7131909,12.2715369 24.5155995,12.6667197 C22.9284827,15.8409533 23.2446552,23.1129189 24.5590044,27.0559667 L24.568,27.091 L24.5763748,27.1153396 C24.5783854,27.1233584 24.5802661,27.1313866 24.5820183,27.1394217 L24.5590044,27.0559667 C24.5727544,27.0972168 24.5829574,27.1387953 24.5897787,27.1803711 C24.5933177,27.2017081 24.5958913,27.2227842 24.5976167,27.2438326 C24.5989332,27.2600897 24.5997728,27.2764574 24.6001077,27.2927779 C24.6005343,27.3136382 24.6001225,27.3346288 24.5988914,27.3555102 C24.5981722,27.368202 24.5971202,27.3809066 24.5957675,27.3935555 C24.5937902,27.411676 24.5912275,27.4297139 24.5880596,27.4476161 C24.5844895,27.4680295 24.5801249,27.4881127 24.5750059,27.5079677 C24.5716201,27.5209494 24.5679148,27.5339648 24.5638858,27.5468723 C24.5586374,27.5637868 24.5527999,27.5805057 24.5464217,27.5970044 C24.5393233,27.6153531 24.5314412,27.6337188 24.5228848,27.6517706 C24.5174598,27.6631887 24.5119072,27.6742191 24.5061032,27.6851171 C24.4971648,27.7019578 24.4875031,27.7186511 24.477241,27.734992 C24.4675979,27.750281 24.4574006,27.7653557 24.4466904,27.7800817 C24.4373479,27.7930058 24.4275133,27.8057141 24.4172852,27.818135 C24.4055022,27.8323729 24.393313,27.8461777 24.3806327,27.859571 C24.3698091,27.8710578 24.3583937,27.882411 24.3466091,27.8934362 C24.3354283,27.9038713 24.3240666,27.9139138 24.3123948,27.9236471 C24.2953526,27.9378516 24.2775448,27.9514691 24.2590793,27.9643774 C24.2483139,27.9719537 24.2370403,27.9794295 24.2255421,27.9866357 C24.2083218,27.9973542 24.1909249,28.0073558 24.173047,28.0167492 C24.1584147,28.0245135 24.1430466,28.0319853 24.127358,28.0389964 C24.1172744,28.043454 24.1072864,28.0476838 24.0971703,28.0517302 C18.9064415,30.1280217 12.693674,30.1280217 7.50294521,28.0517302 L7.471,28.036 L7.44640041,28.026639 C7.43975997,28.0233772 7.43318087,28.0200311 7.42666399,28.0166026 L7.50294521,28.0517302 C7.45865936,28.0340159 7.41682898,28.012788 7.37764647,27.9884954 C7.36354266,27.9797978 7.34991264,27.970738 7.33662075,27.9613025 C7.32153645,27.9505629 7.3070988,27.9395465 7.29310634,27.9280961 C7.27944206,27.9169216 7.26579691,27.9049523 7.25260807,27.8925651 C7.24096482,27.8816574 7.22994022,27.8706709 7.21926896,27.8593972 C7.20738674,27.8467947 7.19573748,27.833644 7.18454841,27.8201457 C7.17162906,27.804632 7.15934122,27.7886071 7.14769193,27.7721684 C7.14072515,27.7622588 7.13414921,27.7525265 7.12779224,27.7426594 C7.11544557,27.72358 7.1036998,27.7034982 7.09285079,27.6829599 C7.08751959,27.6728485 7.08232674,27.662496 7.07735921,27.6520356 C7.06867426,27.6337188 7.06079216,27.6153531 7.05360211,27.5967151 C7.04768877,27.581471 7.04216299,27.5657424 7.03712811,27.549842 C7.03144207,27.5317648 7.02634364,27.5134186 7.02189996,27.4948926 C7.01897499,27.482885 7.016375,27.4708284 7.01405318,27.4587023 C7.00979044,27.436215 7.00643492,27.4134606 7.00406601,27.3905416 C7.00282913,27.3788759 7.00188373,27.3671832 7.0011972,27.3554519 C6.99999299,27.3346288 6.99958121,27.3136382 7.00000843,27.2925845 C7.00034269,27.2764574 7.00118231,27.2600897 7.00253686,27.2436953 C7.00422424,27.2227842 7.00679776,27.2017081 7.01023881,27.1806498 C7.01247187,27.1673581 7.01493818,27.1543448 7.01774085,27.1413415 C7.02198859,27.1213399 7.02711894,27.1012913 7.03306994,27.0813243 C7.03555238,27.0731161 7.03825524,27.0645343 7.04111112,27.0559667 C8.35546036,23.1129189 8.67163278,15.8409533 7.084516,12.6667197 C6.8869246,12.2715369 7.04710408,11.7909985 7.44228688,11.5934071 C7.83746968,11.3958157 8.31800811,11.5559952 8.51559951,11.951178 Z M20.2642623,3 C20.3042675,3 20.343489,3.00335592 20.3816604,3.0098016 L20.3000578,3.00894886 C20.9615573,3.00894886 22.2217544,3.42901457 24.2116544,4.62295452 C25.3376509,5.29855244 26.4403227,6.74777825 27.5558815,8.76930597 C28.0699388,9.70084009 28.5520549,10.6949968 28.9896342,11.6886894 L29.2067011,12.1905381 L29.5467342,13.0217656 C29.6608958,13.3185855 29.5875417,13.6507057 29.3688131,13.8716094 L29.2800578,13.9489489 L25.2800578,16.9489489 C24.9265955,17.2140455 24.4251544,17.1424111 24.1600578,16.7889489 C23.9170525,16.4649418 23.9569949,16.0165914 24.2375954,15.7399245 L24.3200578,15.6689489 L27.8270578,13.0379489 L27.6325682,12.5792497 L27.5253227,12.3335089 C27.1056267,11.380427 26.6436548,10.4278091 26.1550255,9.54235357 C25.1685871,7.75480757 24.2000828,6.48191618 23.3884612,5.9949432 C22.6277357,5.53850791 21.976878,5.20400009 21.4304837,4.97283638 L21.2860578,4.91394886 L21.2924604,4.99135385 C21.4901721,8.29385945 19.1876654,10.5109476 16.0129778,10.605782 L15.8000578,10.6089489 C12.5160185,10.6089489 10.1055499,8.36724846 10.3076551,4.99135385 L10.3130578,4.91394886 L10.1696318,4.97283638 C9.69153682,5.17510463 9.13346203,5.45649571 8.49178692,5.82945902 L8.21165436,5.9949432 C7.40003274,6.48191618 6.43152842,7.75480757 5.44508999,9.54235357 C4.95646071,10.4278091 4.49448882,11.380427 4.07479278,12.3335089 L3.77205775,13.0379489 L7.28005775,15.6689489 C7.60406481,15.9119542 7.69125822,16.3535544 7.49934847,16.6977228 L7.44005775,16.7889489 C7.19705246,17.1129559 6.75545223,17.2001493 6.4112838,17.0082396 L6.32005775,16.9489489 L2.32005775,13.9489489 C2.03384229,13.7342873 1.92494956,13.355688 2.05338127,13.0217656 L2.20216646,12.649506 C2.32077506,12.3591577 2.4574474,12.0362121 2.61048136,11.6886894 C3.04806063,10.6949968 3.53017674,9.70084009 4.04423403,8.76930597 C5.15979281,6.74777825 6.26246462,5.29855244 7.38846115,4.62295452 C9.20189491,3.53489427 10.4093087,3.08953848 11.1098542,3.01910619 C11.128558,3.01283985 11.1487762,3.00917127 11.1692764,3.00639017 L11.2642623,3 L20.2642623,3 Z M19.6104326,4.40070426 L11.9896829,4.40070426 C11.4684449,7.2304209 13.1949693,9.00894886 15.8000578,9.00894886 C18.4051462,9.00894886 20.1316706,7.2304209 19.6104326,4.40070426 Z" id="Combined-Shape" fill="url(#linearGradient-1)"></path>
    </g>
</svg>