<?xml version="1.0" encoding="UTF-8"?>
<svg width="32px" height="32px" viewBox="0 0 32 32" version="1.1" xmlns="http://www.w3.org/2000/svg" xmlns:xlink="http://www.w3.org/1999/xlink">
    <title>Icon / 32 / Categories / Films Books Music</title>
    <defs>
        <linearGradient x1="0%" y1="0%" x2="100%" y2="100%" id="linearGradient-1">
            <stop stop-color="#A8DC28" offset="0%"></stop>
            <stop stop-color="#79D378" offset="100%"></stop>
        </linearGradient>
    </defs>
    <g id="Icon-/-32-/-Categories-/-Films-Books-Music" stroke="none" stroke-width="1" fill="none" fill-rule="evenodd">
        <path d="M15.8,2 C23.4218278,2 29.6,8.1781722 29.6,15.8 C29.6,23.4218278 23.4218278,29.6 15.8,29.6 C8.1781722,29.6 2,23.4218278 2,15.8 C2,8.1781722 8.1781722,2 15.8,2 Z M15.8,3.6 C9.0618278,3.6 3.6,9.0618278 3.6,15.8 C3.6,22.5381722 9.0618278,28 15.8,28 C22.5381722,28 28,22.5381722 28,15.8 C28,9.0618278 22.5381722,3.6 15.8,3.6 Z M15.8,10.5 C18.7268278,10.5 21.1,12.8731722 21.1,15.8 C21.1,18.7268278 18.7268278,21.1 15.8,21.1 C12.8731722,21.1 10.5,18.7268278 10.5,15.8 C10.5,12.8731722 12.8731722,10.5 15.8,10.5 Z M15.8,12.1 C13.7568278,12.1 12.1,13.7568278 12.1,15.8 C12.1,17.8431722 13.7568278,19.5 15.8,19.5 C17.8431722,19.5 19.5,17.8431722 19.5,15.8 C19.5,13.7568278 17.8431722,12.1 15.8,12.1 Z M15.7998,15 C16.2418,15 16.5998,15.358 16.5998,15.8 C16.5998,16.242 16.2418,16.6 15.7998,16.6 C15.3578,16.6 14.9998,16.242 14.9998,15.8 C14.9998,15.358 15.3578,15 15.7998,15 Z M12.1190974,5.9682152 C12.2810741,6.31924593 12.1278155,6.73512065 11.7767848,6.89709738 C8.33213615,8.48656761 6.0795,11.9385676 6.0795,15.8005 C6.0795,16.1870993 5.76609932,16.5005 5.3795,16.5005 C4.99290068,16.5005 4.6795,16.1870993 4.6795,15.8005 C4.6795,11.3874994 7.25406478,7.44216737 11.1902152,5.62590262 C11.5412459,5.4639259 11.9571207,5.61718446 12.1190974,5.9682152 Z M11.3839363,9.74821316 C11.6388084,10.0389007 11.6097743,10.4811642 11.3190868,10.7360363 C10.3583113,11.5784355 9.64983444,12.6752436 9.2833072,13.9020793 C9.17264077,14.2725006 8.78264207,14.4830736 8.41222071,14.3724072 C8.04179936,14.2617408 7.83122638,13.8717421 7.9418928,13.5013207 C8.38421209,12.0207948 9.23835876,10.6984721 10.3961132,9.6833637 C10.6868007,9.42849156 11.1290642,9.45752565 11.3839363,9.74821316 Z" id="Combined-Shape" fill="url(#linearGradient-1)"></path>
    </g>
</svg>