<?xml version="1.0" encoding="UTF-8"?>
<svg width="32px" height="32px" viewBox="0 0 32 32" version="1.1" xmlns="http://www.w3.org/2000/svg" xmlns:xlink="http://www.w3.org/1999/xlink">
    <title>Icon / 32 / Categories / Free to collector</title>
    <defs>
        <linearGradient x1="1.74247712%" y1="0%" x2="98.2575229%" y2="100%" id="linearGradient-1">
            <stop stop-color="#A8DC28" offset="0%"></stop>
            <stop stop-color="#79D378" offset="100%"></stop>
        </linearGradient>
    </defs>
    <g id="Icon-/-32-/-Categories-/-Free-to-collector" stroke="none" stroke-width="1" fill="none" fill-rule="evenodd">
        <path d="M19.4673299,14.5340537 L19.6117509,14.5411691 C20.0602293,14.5885783 20.4552047,14.8681982 20.6484535,15.2833268 L20.6484535,15.2833268 L22.377,19.011 L26.4568061,19.5079186 C27.1212195,19.5891246 27.6056371,20.1611871 27.593155,20.8083123 L27.593155,20.8083123 L27.5839393,20.9386149 C27.5496729,21.2496492 27.4031458,21.5344094 27.1764031,21.7429011 L27.1764031,21.7429011 L24.163,24.533 L24.9499969,28.5630775 C25.0779587,29.2201122 24.6831673,29.857875 24.0593694,30.0468006 L24.0593694,30.0468006 L23.9316434,30.0784739 C23.8358284,30.0976369 23.7426388,30.1043898 23.6893501,30.1017931 L23.6893501,30.1017931 L23.5524221,30.0976569 C23.3707493,30.0824167 23.1936283,30.0284798 23.0325834,29.9382934 L23.0325834,29.9382934 L19.472,27.936 L15.8725116,29.9298577 C15.286307,30.2525166 14.556893,30.0729121 14.1862866,29.5352081 L14.1862866,29.5352081 L14.1170982,29.4229354 C13.9699849,29.157606 13.9204721,28.8481513 13.9789833,28.5476378 L13.9789833,28.5476378 L14.776,24.519 L11.7739404,21.7218267 C11.2852101,21.2673076 11.2272232,20.524258 11.6173073,20.0017817 L11.6173073,20.0017817 L11.7077613,19.8933841 C11.9164303,19.6688669 12.1986864,19.5270538 12.5026354,19.4906838 L12.5026354,19.4906838 L16.578,19.002 L18.3083736,15.2806248 C18.499425,14.8698642 18.8896392,14.5932695 19.3329048,14.5424385 L19.3329048,14.5424385 L19.4673299,14.5340537 Z M17.878049,2.53923009 L26.736704,2.57932025 C28.0972929,2.58489072 29.2073581,3.64530006 29.2939864,4.98363088 L29.2994286,5.15231354 L29.2994286,13.9653135 C29.2994286,14.58011 29.0797253,15.1717365 28.6881302,15.6315186 L28.5512977,15.779747 L25.9865012,18.4015559 C25.6775346,18.7173904 25.1710332,18.722958 24.8551987,18.4139914 C24.5680764,18.1331127 24.537373,17.6889821 24.7662947,17.3732612 L24.8427631,17.2826889 L27.4137432,14.6546281 C27.5663176,14.5020537 27.662994,14.3047039 27.6909813,14.0934717 L27.6994286,13.9653135 L27.6994286,5.15231354 C27.6994286,4.65479573 27.32594,4.24416209 26.843063,4.1862799 L26.7298083,4.17930535 L17.871201,4.13921539 C17.6547235,4.13834199 17.4452669,4.20953682 17.2752068,4.33922916 L17.1781573,4.42395569 L16.1306156,5.47126799 C18.2215193,5.7422166 19.9515779,6.32406855 20.970555,7.14170518 C21.8942254,6.83716671 22.9509073,7.04438 23.6963736,7.76913897 C24.7668083,8.80717632 24.7918766,10.518087 23.7519394,11.5863474 C22.7136639,12.6570268 21.0042504,12.6816618 19.9334639,11.6419319 C18.9106455,10.6475251 18.8433298,9.0414998 19.7491713,7.96699008 C18.7727135,7.39411939 16.9922292,6.91244306 14.8470258,6.75469064 L4.10670608,17.4974067 C3.75498001,17.8486259 3.72792416,18.4003811 4.02588454,18.7827978 L4.10714601,18.8746601 L12.961146,27.7296601 C13.2735478,28.0420971 13.2735192,28.5486291 12.9610821,28.8610309 C12.6770484,29.1450325 12.2326057,29.1708272 11.9194332,28.9384315 L11.8297113,28.860967 L2.97615122,20.0064067 C2.01296881,19.0446121 1.97109131,17.5113052 2.8501238,16.5002086 L2.97569995,16.3656714 L7.40919159,11.930803 C5.49714693,11.3034668 4.31436737,10.3433047 4.29992299,9.10350439 C4.27452574,6.87049972 8.2326029,5.35778234 13.088968,5.30155188 C13.4067817,5.29787119 13.7208961,5.3005198 14.0304413,5.30931111 L16.0475894,3.29178318 C16.4848343,2.85584348 17.0619195,2.59278477 17.6731761,2.54655065 L17.878049,2.53923009 Z M19.477,16.561 L17.8411993,20.0812393 C17.724412,20.3324722 17.4859515,20.5053953 17.2108656,20.5383349 L17.2108656,20.5383349 L13.347,21.001 L16.1931289,23.652721 C16.3668049,23.8145543 16.4581462,24.0435158 16.4468267,24.2767178 L16.4468267,24.2767178 L16.4325178,24.393381 L15.677,28.209 L19.0881899,26.3201546 C19.2962732,26.2049237 19.5428015,26.1891769 19.7613075,26.2726952 L19.7613075,26.2726952 L19.8679176,26.3227254 L23.254,28.227 L22.5085379,24.4021144 C22.4631035,24.1691 22.5237475,23.9301513 22.6699575,23.7481069 L22.6699575,23.7481069 L22.7500979,23.6621177 L25.606,21.016 L21.7431181,20.5461518 C21.5027593,20.5169046 21.2905604,20.3807864 21.1632477,20.1790484 L21.1632477,20.1790484 L21.1140475,20.088692 L19.477,16.561 Z M21.8898323,8.40765406 L21.9096187,8.48175368 C21.9427806,8.61748844 21.9605904,8.75670376 21.9622412,8.89922659 C21.9701845,9.57976961 21.6170593,10.1867543 20.9875511,10.7046189 C21.5030205,11.1363524 22.2714222,11.1020387 22.7478389,10.6107551 C23.2485315,10.096425 23.2364714,9.27332331 22.7204639,8.77293186 C22.487347,8.54629047 22.1909102,8.42482384 21.8898323,8.40765406 Z M5.69995323,9.08741358 C5.70588412,9.60047167 6.64040072,10.2779472 8.3241687,10.7449712 C8.39232561,10.7638758 8.45531771,10.7922342 8.5121207,10.8282356 L12.6265027,6.71249149 C8.72919519,6.84713719 5.6880976,8.05004134 5.69995323,9.08741358 Z" id="Combined-Shape" fill="url(#linearGradient-1)"></path>
    </g>
</svg>