<?xml version="1.0" encoding="UTF-8"?>
<svg width="32px" height="32px" viewBox="0 0 32 32" version="1.1" xmlns="http://www.w3.org/2000/svg" xmlns:xlink="http://www.w3.org/1999/xlink">
    <title>Icon / 32 / Categories / Health &amp; Wellbeing</title>
    <defs>
        <linearGradient x1="0%" y1="12.3122997%" x2="100%" y2="87.6877003%" id="linearGradient-1">
            <stop stop-color="#A8DC28" offset="0%"></stop>
            <stop stop-color="#79D378" offset="100%"></stop>
        </linearGradient>
    </defs>
    <g id="Icon-/-32-/-Categories-/-Health-&amp;-Wellbeing" stroke="none" stroke-width="1" fill="none" fill-rule="evenodd">
        <path d="M16.209289,6.46623958 C18.257289,4.13323958 21.338289,3.20823958 24.356289,4.12223958 C27.820289,5.17123958 30.058289,8.20123958 30.058289,11.8412396 C30.058289,20.2202396 17.202289,28.2282396 16.654289,28.5652396 C16.645289,28.5712396 16.636289,28.5722396 16.627289,28.5772396 L16.627289,28.5772396 L16.587289,28.5952396 C16.466289,28.6552396 16.337289,28.6912396 16.210289,28.6912396 L16.210289,28.6912396 C16.080289,28.6912396 15.951289,28.6552396 15.830289,28.5952396 L15.830289,28.5952396 L15.790289,28.5772396 C15.781289,28.5722396 15.772289,28.5712396 15.763289,28.5652396 C15.398289,28.3412396 9.57928899,24.7132396 5.72928899,19.8412396 L5.72928899,19.8412396 L7.94228899,19.8412396 C10.987289,23.2712396 14.911289,25.9772396 16.209289,26.8302396 C18.435289,25.3682396 28.359289,18.4732396 28.359289,11.8412396 C28.359289,8.96723958 26.594289,6.57623958 23.864289,5.74923958 C21.758289,5.11323958 18.829289,5.44923958 16.919289,8.30923958 C16.919289,8.30923958 16.918289,8.30923958 16.918289,8.31023958 C16.918289,8.31123958 16.917289,8.31223958 16.916289,8.31323958 C16.880289,8.36523958 16.832289,8.39823958 16.788289,8.44023958 C16.752289,8.47623958 16.724289,8.51923958 16.680289,8.54823958 C16.680289,8.54823958 16.679289,8.54823958 16.679289,8.54923958 C16.585289,8.61123958 16.480289,8.65423958 16.371289,8.67523958 C16.316289,8.68523958 16.263289,8.67523958 16.209289,8.67523958 C16.154289,8.67523958 16.101289,8.68523958 16.046289,8.67523958 C15.937289,8.65423958 15.833289,8.61123958 15.738289,8.54923958 C15.738289,8.54823958 15.737289,8.54823958 15.737289,8.54823958 L15.680664,8.49686458 L15.680664,8.49686458 L15.629289,8.44023958 C15.585289,8.39823958 15.537289,8.36523958 15.502289,8.31323958 C15.501289,8.31223958 15.500289,8.31123958 15.500289,8.31023958 C15.500289,8.30923958 15.499289,8.30923958 15.499289,8.30923958 L15.3281569,8.06339733 C13.4175918,5.43031571 10.5963772,5.13194547 8.55328899,5.74923958 C5.82328899,6.57623958 4.05828899,8.96723958 4.05828899,11.8412396 C4.05828899,12.5072396 4.16228899,13.1762396 4.34428899,13.8412396 L4.34428899,13.8412396 L2.60128899,13.8412396 C2.44928899,13.1792396 2.35928899,12.5122396 2.35928899,11.8412396 C2.35928899,8.20123958 4.59728899,5.17123958 8.06128899,4.12223958 C11.074289,3.21023958 14.158289,4.13423958 16.209289,6.46623958 Z M12.281789,9.99453958 C12.628789,10.0245396 12.922789,10.2635396 13.022789,10.5975396 L15.406789,18.5445396 L16.447789,16.4615396 C16.592789,16.1735396 16.886789,15.9915396 17.208789,15.9915396 L22.208789,15.9915396 C22.678789,15.9915396 23.058789,16.3725396 23.058789,16.8415396 C23.058789,17.3105396 22.678789,17.6915396 22.208789,17.6915396 L17.733789,17.6915396 L15.969789,21.2215396 C15.823789,21.5115396 15.528789,21.6915396 15.208789,21.6915396 C15.184789,21.6915396 15.159789,21.6905396 15.135789,21.6885396 C14.788789,21.6585396 14.494789,21.4195396 14.394789,21.0855396 L12.010789,13.1385396 L9.96978899,17.2215396 C9.82478899,17.5095396 9.53078899,17.6915396 9.20878899,17.6915396 L2.20878899,17.6915396 C1.73878899,17.6915396 1.35878899,17.3105396 1.35878899,16.8415396 C1.35878899,16.3725396 1.73878899,15.9915396 2.20878899,15.9915396 L8.68378899,15.9915396 L11.447789,10.4615396 C11.604789,10.1495396 11.937789,9.95853958 12.281789,9.99453958 Z" id="Combined-Shape" fill="url(#linearGradient-1)"></path>
    </g>
</svg>