<?xml version="1.0" encoding="UTF-8"?>
<svg width="32px" height="32px" viewBox="0 0 32 32" version="1.1" xmlns="http://www.w3.org/2000/svg" xmlns:xlink="http://www.w3.org/1999/xlink">
    <title>Icon / 32 / Categories / Hobbies and Leisure</title>
    <defs>
        <linearGradient x1="0.813679691%" y1="0%" x2="99.1863203%" y2="100%" id="linearGradient-1">
            <stop stop-color="#A8DC28" offset="0%"></stop>
            <stop stop-color="#79D378" offset="100%"></stop>
        </linearGradient>
    </defs>
    <g id="Icon-/-32-/-Categories-/-Hobbies-and-Leisure" stroke="none" stroke-width="1" fill="none" fill-rule="evenodd">
        <path d="M27.8163437,2.6467648 L29.3173437,4.1487648 L25.8843437,11.0167648 L24.2363437,11.0167648 L19.6833437,15.5707648 C20.7323437,19.6087648 18.3293437,27.0147648 14.0463437,29.7807648 C13.2423437,30.3007648 12.0433437,30.8487648 10.5623437,30.8487648 C8.89434375,30.8487648 6.86934375,30.1517648 4.64934375,27.9347648 L4.64934375,27.9347648 L4.40467336,27.6852933 C0.0223459821,23.1276688 1.28648661,19.4570327 2.44934375,17.6567648 C5.18934375,13.4127648 12.5863437,11.0607648 16.4653437,12.2087648 L16.4653437,12.2087648 L20.9463437,7.7267648 L20.9463437,6.0807648 L27.8163437,2.6467648 Z M15.2263437,13.4477648 C11.7343437,12.9567648 5.89734375,15.0467648 3.69234375,18.4587648 C2.02034375,21.0477648 2.69234375,23.8817648 5.69234375,26.8837648 L5.69234375,26.8837648 L5.91779772,27.1042804 C8.47029885,29.5458301 10.9323152,30.0279362 13.2433437,28.5377648 C16.5973437,26.3707648 18.7923437,20.4537648 18.4183437,16.8367648 L18.4183437,16.8367648 L14.5943044,20.6589714 L14.6023437,20.7457648 C14.6023437,21.5735148 14.3074062,22.3567301 13.765287,22.9737104 L13.6113437,23.1377648 C12.9723437,23.7777648 12.1233437,24.1297648 11.2193437,24.1297648 C10.3153437,24.1297648 9.46534375,23.7777648 8.82634375,23.1387648 C8.18634375,22.4987648 7.83534375,21.6497648 7.83534375,20.7457648 C7.83534375,19.8417648 8.18634375,18.9917648 8.82634375,18.3517648 C9.49234375,17.6867648 10.4153437,17.3757648 11.3283437,17.4037648 L11.2703044,17.4029714 Z M5.46214375,23.2121648 C5.75114375,22.9231648 6.22014375,22.9231648 6.50914375,23.2121648 L6.50914375,23.2121648 L8.75214375,25.4561648 C9.04114375,25.7451648 9.04114375,26.2141648 8.75214375,26.5031648 C8.60714375,26.6471648 8.41714375,26.7201648 8.22914375,26.7201648 C8.03914375,26.7201648 7.84914375,26.6471648 7.70414375,26.5031648 L7.70414375,26.5031648 L5.46214375,24.2601648 C5.17214375,23.9701648 5.17214375,23.5011648 5.46214375,23.2121648 Z M11.2193437,18.8417648 C10.7113437,18.8417648 10.2323437,19.0397648 9.87334375,19.3987648 C9.51434375,19.7587648 9.31534375,20.2367648 9.31534375,20.7457648 C9.31534375,21.2537648 9.51434375,21.7317648 9.87334375,22.0907648 C10.5933437,22.8117648 11.8473437,22.8097648 12.5643437,22.0917648 L12.5643437,22.0917648 C12.9243437,21.7317648 13.1223437,21.2537648 13.1223437,20.7457648 C13.1223437,20.2367648 12.9243437,19.7587648 12.5643437,19.3997648 C12.2053437,19.0397648 11.7273437,18.8417648 11.2193437,18.8417648 Z M21.6863437,9.0797648 L12.9213437,17.8467648 C13.1693437,17.9857648 13.4053437,18.1467648 13.6113437,18.3527648 C13.8173437,18.5587648 13.9803437,18.7907648 14.1253437,19.0357648 L14.1253437,19.0357648 L22.8833437,10.2767648 L21.6863437,9.0797648 Z M28.0998438,8.6295648 C28.4308438,8.2985648 28.9658438,8.2985648 29.2958438,8.6295648 C29.6268438,8.9595648 29.6268438,9.4955648 29.2958438,9.8255648 C28.9658438,10.1565648 28.4308438,10.1565648 28.0998438,9.8255648 C27.7698438,9.4955648 27.7698438,8.9595648 28.0998438,8.6295648 Z M27.5093437,4.4547648 L22.4283437,6.9957648 L22.4283437,7.7267648 L24.2363437,9.5367648 L24.9693437,9.5367648 L27.5093437,4.4547648 Z M29.5959437,5.6386648 C29.9259437,5.3086648 30.4609437,5.3086648 30.7919437,5.6386648 C31.1219437,5.9686648 31.1219437,6.5046648 30.7919437,6.8346648 C30.4609437,7.1656648 29.9259437,7.1656648 29.5959437,6.8346648 C29.2649437,6.5046648 29.2649437,5.9686648 29.5959437,5.6386648 Z M22.3209437,2.4972648 C22.7339437,2.2792648 23.2449437,2.4372648 23.4639437,2.8492648 C23.6829437,3.2632648 23.5249437,3.7742648 23.1129437,3.9932648 C22.6989437,4.2122648 22.1869437,4.0542648 21.9689437,3.6412648 C21.7499437,3.2282648 21.9069437,2.7162648 22.3209437,2.4972648 Z M25.3122438,1.0021648 C25.7252438,0.784164798 26.2362438,0.941164798 26.4552438,1.3541648 C26.6732438,1.7671648 26.5162438,2.2791648 26.1032438,2.4981648 C25.6892438,2.7161648 25.1782438,2.5591648 24.9592438,2.1461648 C24.7412438,1.7331648 24.8982438,1.2211648 25.3122438,1.0021648 Z" id="Combined-Shape" fill="url(#linearGradient-1)"></path>
    </g>
</svg>