<?xml version="1.0" encoding="UTF-8"?>
<svg width="32px" height="32px" viewBox="0 0 32 32" version="1.1" xmlns="http://www.w3.org/2000/svg" xmlns:xlink="http://www.w3.org/1999/xlink">
    <title>Icon / 32 / Categories / Phones and accessories</title>
    <defs>
        <linearGradient x1="34.0234761%" y1="0%" x2="65.9765239%" y2="100%" id="linearGradient-1">
            <stop stop-color="#A8DC28" offset="0%"></stop>
            <stop stop-color="#79D378" offset="100%"></stop>
        </linearGradient>
    </defs>
    <g id="Icon-/-32-/-Categories-/-Phones-and-accessories" stroke="none" stroke-width="1" fill="none" fill-rule="evenodd">
        <path d="M16.52877,25.69737 C16.52877,25.29957 16.20747,24.97737 15.80877,24.97737 C15.41187,24.97737 15.08877,25.29957 15.08877,25.69737 C15.08877,26.09427 15.41187,26.41737 15.80877,26.41737 C16.20747,26.41737 16.52877,26.09427 16.52877,25.69737" id="Fill-1" fill="#84D565"></path>
        <path d="M21.105,2.28 C22.3385396,2.28 23.3388,3.2798496 23.3388,4.5129 L23.3388,4.5129 L23.3388,26.6862 C23.3388,27.919945 22.338745,28.92 21.105,28.92 L21.105,28.92 L10.5129,28.92 C9.27919417,28.92 8.28,27.9199845 8.28,26.6862 L8.28,26.6862 L8.28,4.5129 C8.28,3.27981029 9.27939952,2.28 10.5129,2.28 L10.5129,2.28 Z M21.898,24.329 L9.72,24.329 L9.72,26.6862 C9.72,27.0912085 10.0222715,27.424883 10.4133923,27.473821 L10.5129,27.48 L21.105,27.48 C21.543455,27.48 21.8988,27.124655 21.8988,26.6862 L21.8988,26.6862 L21.898,24.329 Z M21.898,6.329 L9.72,6.329 L9.72,23.069 L21.898,23.069 L21.898,6.329 Z M14.9442844,7.2339369 C15.2040062,7.40887877 15.2918333,7.74350104 15.1650986,8.01905073 L15.1148484,8.10841269 L12.1601484,12.4950127 C11.9657686,12.7835925 11.5742524,12.8599566 11.2856726,12.6655767 C11.0259508,12.4906349 10.9381237,12.1560126 11.0648584,11.8804629 L11.1151086,11.791101 L14.0698086,7.40450095 C14.2641884,7.11592117 14.6557046,7.03955704 14.9442844,7.2339369 Z M12.1534661,6.97288039 C12.409682,7.15291795 12.4908827,7.48920964 12.3587303,7.76220242 L12.3067249,7.85055443 L11.5750249,8.89185443 C11.3749832,9.17653868 10.9820351,9.245155 10.6973509,9.04511325 C10.4411351,8.86507569 10.3599343,8.528784 10.4920867,8.25579122 L10.5440921,8.16743921 L11.2757921,7.12613921 C11.4758338,6.84145495 11.8687819,6.77283864 12.1534661,6.97288039 Z M21.105,3.72 L10.5129,3.72 C10.0748221,3.72 9.72,4.07496789 9.72,4.5129 L9.72,4.5129 L9.72,5.069 L21.898,5.069 L21.8988,4.5129 C21.8988,4.10893577 21.5959586,3.77514456 21.2045683,3.72618238 L21.105,3.72 Z" id="Combined-Shape" fill="url(#linearGradient-1)"></path>
    </g>
</svg>