<?xml version="1.0" encoding="UTF-8"?>
<svg width="32px" height="32px" viewBox="0 0 32 32" version="1.1" xmlns="http://www.w3.org/2000/svg" xmlns:xlink="http://www.w3.org/1999/xlink">
    <title>Icon / 32 / Categories / Sports Equipments</title>
    <defs>
        <linearGradient x1="0%" y1="0%" x2="100%" y2="100%" id="linearGradient-1">
            <stop stop-color="#A8DC28" offset="0%"></stop>
            <stop stop-color="#79D378" offset="100%"></stop>
        </linearGradient>
    </defs>
    <g id="Icon-/-32-/-Categories-/-Sports-Equipments" stroke="none" stroke-width="1" fill="none" fill-rule="evenodd">
        <path d="M16.7707576,3.84776708 C17.9011095,2.71741097 19.7328597,2.71741097 20.8632116,3.84776708 L20.8632116,3.84776708 L21.859,4.843 L22.5031382,4.19827289 C23.303654,3.39624369 24.5785591,3.35614223 25.4274379,4.07752948 L25.5577997,4.19776083 L28.8027557,7.44272914 C29.6463964,8.286373 29.6463964,9.65324677 28.8027557,10.4968906 L28.8027557,10.4968906 L28.157,11.141 L29.1522361,12.1368231 C30.2373739,13.221965 30.2807794,14.9535181 29.2824527,16.0903728 L29.1522361,16.2292925 L27.8139094,17.5676244 C26.6835575,18.6979805 24.8518073,18.6979805 23.7214555,17.5676244 L23.7214555,17.5676244 L21.206,15.052 L15.052,21.206 L17.5675691,23.7214317 C18.6527069,24.8065735 18.6961124,26.5381266 17.6977856,27.6749814 L17.5675691,27.8139011 L16.2292424,29.1522329 C15.0988905,30.282589 13.2671403,30.282589 12.1367884,29.1522329 L12.1367884,29.1522329 L11.141,28.157 L10.4967598,28.802956 C9.69530117,29.6044176 8.42162934,29.6444907 7.5729494,28.9231752 L7.44260989,28.802956 L4.19765389,25.5579876 C3.35392788,24.7142584 3.35392788,23.3459659 4.19765389,22.5038262 L4.19765389,22.5038262 L4.842,21.858 L3.84776387,20.8631769 C2.76262612,19.778035 2.71922061,18.0464819 3.71754734,16.9096272 L3.84776387,16.7707075 L5.18642574,15.4320407 C6.31670074,14.3031551 8.14793443,14.3031551 9.27820943,15.4320407 L9.27820943,15.4320407 L11.794,17.948 L17.948,11.794 L15.432096,9.27823324 C14.3483699,8.19316512 14.3050209,6.46209103 15.3023452,5.32504595 L15.4324309,5.18609892 Z M8.19279709,16.5187972 C7.66219528,15.9888476 6.80243989,15.9888476 6.27217318,16.5184623 L6.27217318,16.5184623 L4.93384642,17.8567941 C4.40332142,18.3873212 4.40332142,19.2465632 4.93384642,19.7770902 L4.93384642,19.7770902 L6.818,21.662 L6.82827289,21.6717324 L11.3302701,26.173743 C11.3331565,26.1766294 11.336026,26.1795262 11.3388787,26.1824334 L13.222871,28.0661462 C13.753396,28.5966733 14.6126348,28.5966733 15.1431598,28.0661462 L15.1431598,28.0661462 L16.4814866,26.7278144 C17.0120116,26.1972874 17.0120116,25.3380453 16.4814866,24.8075183 L16.4814866,24.8075183 L13.4295037,21.7558556 C13.4272902,21.753694 13.4250865,21.7515163 13.4228928,21.7493226 L13.416,21.742 L11.2582947,19.5852265 C11.255732,19.5827331 11.2531824,19.5802183 11.2506461,19.577682 L11.244,19.57 Z M5.92880575,22.9442675 L5.28322437,23.5904244 C5.04000795,23.8331837 5.04000795,24.2281716 5.28373644,24.471901 L5.28373644,24.471901 L8.52869244,27.7168693 C8.77250627,27.960684 9.16686342,27.960684 9.41067725,27.7168693 L9.41067725,27.7168693 L10.055,27.071 L5.92880575,22.9442675 Z M19.034,12.88 L12.88,19.034 L13.966,20.12 L20.12,13.966 L19.034,12.88 Z M19.777129,4.93385375 C19.246604,4.40332674 18.3873652,4.40332674 17.8568402,4.93385375 L17.8568402,4.93385375 L16.5188483,6.27185048 C15.9889008,6.80245431 15.9889008,7.66221296 16.5185134,8.19248168 L16.5185134,8.19248168 L21.7427681,13.4161191 C21.7450076,13.4183055 21.747237,13.4205083 21.7494562,13.4227275 L21.755,13.429 L24.807538,16.4815377 C25.3026947,16.9766962 26.0841976,17.0097068 26.6175338,16.5805694 L26.7278268,16.4815377 L28.0661536,15.1432059 C28.5966786,14.6126788 28.5966786,13.7534368 28.0661536,13.2229098 L28.0661536,13.2229098 L26.182,11.338 L26.1735527,11.3304041 L21.6715592,6.82838981 C21.6683332,6.82518065 21.6651282,6.82195847 21.661944,6.81872342 Z M24.4717171,5.28384749 C24.2279887,5.04011808 23.8330023,5.04011808 23.5897323,5.28384749 L23.5897323,5.28384749 L22.9440894,5.92891925 L27.071,10.055 L27.7166732,9.41080396 C27.9093162,9.2181602 27.9497474,8.93153264 27.8379669,8.69943889 L27.7889143,8.61525008 L27.7166732,8.52881581 Z" id="Combined-Shape" fill="url(#linearGradient-1)"></path>
    </g>
</svg>