<?xml version="1.0" encoding="UTF-8"?>
<svg width="32px" height="32px" viewBox="0 0 32 32" version="1.1" xmlns="http://www.w3.org/2000/svg" xmlns:xlink="http://www.w3.org/1999/xlink">
    <title>Icon / 32 / Categories / Televisions</title>
    <defs>
        <linearGradient x1="0%" y1="0.867849271%" x2="100%" y2="99.1321507%" id="linearGradient-1">
            <stop stop-color="#A8DC28" offset="0%"></stop>
            <stop stop-color="#79D378" offset="100%"></stop>
        </linearGradient>
    </defs>
    <g id="Icon-/-32-/-Categories-/-Televisions" stroke="none" stroke-width="1" fill="none" fill-rule="evenodd">
        <path d="M20.584,2.4437 C20.782,2.0477 21.262,1.8867 21.658,2.0847 C22.053,2.2827 22.213,2.7637 22.015,3.1577 L22.015,3.1577 L20.219,6.7507 L27.298,6.7507 C29.119,6.7507 30.6,8.2327 30.6,10.0527 L30.6,10.0527 L30.6,25.0487 C30.6,26.8687 29.119,28.3507 27.298,28.3507 L27.298,28.3507 L24.6,28.3507 L24.6,29.5507 C24.6,29.9917 24.242,30.3507 23.8,30.3507 C23.358,30.3507 23,29.9917 23,29.5507 L23,29.5507 L23,28.3507 L9.6,28.3507 L9.6,29.5507 C9.6,29.9917 9.242,30.3507 8.8,30.3507 C8.358,30.3507 8,29.9917 8,29.5507 L8,29.5507 L8,28.3507 L5.302,28.3507 C3.481,28.3507 2,26.8687 2,25.0487 L2,25.0487 L2,10.0527 C2,8.2327 3.481,6.7507 5.302,6.7507 L5.302,6.7507 L12.381,6.7507 L10.584,3.1577 C10.387,2.7637 10.547,2.2827 10.942,2.0847 C11.338,1.8867 11.818,2.0487 12.015,2.4437 L12.015,2.4437 L14.015,6.4437 C14.065,6.5417 14.092,6.6467 14.098,6.7507 L14.098,6.7507 L18.501,6.7507 C18.508,6.6467 18.535,6.5417 18.584,6.4437 L18.584,6.4437 Z M27.298,8.3507 L5.302,8.3507 C4.363,8.3507 3.6,9.1137 3.6,10.0527 L3.6,10.0527 L3.6,25.0487 C3.6,25.9867 4.363,26.7507 5.302,26.7507 L5.302,26.7507 L27.298,26.7507 C28.236,26.7507 29,25.9867 29,25.0487 L29,25.0487 L29,10.0527 C29,9.1137 28.236,8.3507 27.298,8.3507 L27.298,8.3507 Z M23.194,9.7505 C23.969,9.7505 24.6,10.3805 24.6,11.1565 L24.6,11.1565 L24.6,23.9455 C24.6,24.7205 23.969,25.3505 23.194,25.3505 L23.194,25.3505 L6.405,25.3505 C5.63,25.3505 5,24.7205 5,23.9455 L5,23.9455 L5,11.1565 C5,10.3805 5.63,9.7505 6.405,9.7505 L6.405,9.7505 Z M23,11.3505 L6.6,11.3505 L6.6,23.7505 L23,23.7505 L23,11.3505 Z M27.0352,18.9706 C27.4772,18.9706 27.8352,19.3276 27.8352,19.7706 C27.8352,20.2116 27.4772,20.5706 27.0352,20.5706 C26.5932,20.5706 26.2352,20.2116 26.2352,19.7706 C26.2352,19.3276 26.5932,18.9706 27.0352,18.9706 Z M27.0352,14.9706 C27.4772,14.9706 27.8352,15.3276 27.8352,15.7706 C27.8352,16.2116 27.4772,16.5706 27.0352,16.5706 C26.5932,16.5706 26.2352,16.2116 26.2352,15.7706 C26.2352,15.3276 26.5932,14.9706 27.0352,14.9706 Z M27.0352,10.9706 C27.4772,10.9706 27.8352,11.3276 27.8352,11.7706 C27.8352,12.2116 27.4772,12.5706 27.0352,12.5706 C26.5932,12.5706 26.2352,12.2116 26.2352,11.7706 C26.2352,11.3276 26.5932,10.9706 27.0352,10.9706 Z" id="Combined-Shape" fill="url(#linearGradient-1)"></path>
    </g>
</svg>