<?xml version="1.0" encoding="UTF-8"?>
<svg width="32px" height="32px" viewBox="0 0 32 32" version="1.1" xmlns="http://www.w3.org/2000/svg" xmlns:xlink="http://www.w3.org/1999/xlink">
    <title>Icon / 32 / Categories / Videogamens</title>
    <defs>
        <linearGradient x1="0%" y1="23.461042%" x2="100%" y2="76.538958%" id="linearGradient-1">
            <stop stop-color="#A8DC28" offset="0%"></stop>
            <stop stop-color="#79D378" offset="100%"></stop>
        </linearGradient>
    </defs>
    <g id="Icon-/-32-/-Categories-/-Videogamens" stroke="none" stroke-width="1" fill="none" fill-rule="evenodd">
        <path d="M21.6402,6.1188 C24.9012,5.2598 28.6562,9.1458 30.1902,14.9668 C31.7242,20.7868 30.3722,26.0198 27.1132,26.8798 C26.8112,26.9588 26.5052,26.9978 26.1952,26.9978 C24.1992,26.9978 22.0652,25.3888 20.4212,22.5838 C19.5382,21.9208 18.1082,21.5178 16.5582,21.4998 C16.5562,21.4998 16.5542,21.4988 16.5522,21.4988 C16.5492,21.4988 16.5462,21.5008 16.5432,21.5008 C14.9152,21.4758 13.3362,21.8828 12.4002,22.5838 C10.7572,25.3898 8.6222,26.9978 6.6272,26.9978 C6.3172,26.9978 6.0102,26.9588 5.7092,26.8798 C2.4492,26.0198 1.0972,20.7868 2.6312,14.9668 C4.1662,9.1458 7.9242,5.2608 11.1822,6.1188 C12.0572,6.3498 12.5282,6.6038 13.5612,7.6348 L13.5612,7.6348 C15.3412,9.2838 17.4212,9.2808 19.2692,7.6258 C20.2872,6.6058 20.7582,6.3518 21.6402,6.1188 Z M28.6432,15.3748 C27.3802,10.5878 24.3722,7.0578 22.0472,7.6658 C21.5122,7.8078 21.2902,7.8658 20.3692,8.7868 C17.8742,11.0248 14.8622,11.0198 12.4742,8.8088 C12.4702,8.8048 12.4692,8.7998 12.4652,8.7958 C12.4612,8.7918 12.4552,8.7908 12.4522,8.7868 C11.5312,7.8658 11.3092,7.8078 10.7742,7.6658 C8.4672,7.0588 5.4412,10.5868 4.1782,15.3748 C2.9162,20.1618 3.8042,24.7228 6.1172,25.3328 C7.6282,25.7318 9.5832,24.2858 11.0912,21.6518 C11.1392,21.5668 11.2032,21.4918 11.2782,21.4308 C12.4952,20.4358 14.4782,19.8778 16.5612,19.9008 C16.5632,19.9008 16.5652,19.8998 16.5672,19.8998 L16.5672,19.8998 L16.5772,19.8998 C18.5732,19.9228 20.3832,20.4808 21.5432,21.4308 C21.6192,21.4918 21.6832,21.5668 21.7312,21.6518 C23.2382,24.2858 25.1892,25.7308 26.7052,25.3328 C29.0172,24.7228 29.9052,20.1618 28.6432,15.3748 Z M10.4834163,10.6702275 C10.9254163,10.6702275 11.2834163,11.0282275 11.2834163,11.4702275 L11.2834163,11.4702275 L11.2834163,13.1702275 L12.9834163,13.1702275 C13.4254163,13.1702275 13.7834163,13.5282275 13.7834163,13.9702275 C13.7834163,14.4112275 13.4254163,14.7702275 12.9834163,14.7702275 L12.9834163,14.7702275 L11.2834163,14.7702275 L11.2834163,16.4702275 C11.2834163,16.9112275 10.9254163,17.2702275 10.4834163,17.2702275 C10.0414163,17.2702275 9.68341625,16.9112275 9.68341625,16.4702275 L9.68341625,16.4702275 L9.68341625,14.7702275 L7.98341625,14.7702275 C7.54141625,14.7702275 7.18341625,14.4112275 7.18341625,13.9702275 C7.18341625,13.5282275 7.54141625,13.1702275 7.98341625,13.1702275 L7.98341625,13.1702275 L9.68341625,13.1702275 L9.68341625,11.4702275 C9.68341625,11.0282275 10.0414163,10.6702275 10.4834163,10.6702275 Z M22.4465046,15.0992427 C22.8885046,15.0992427 23.2465046,15.4562427 23.2465046,15.8992427 C23.2465046,16.3402427 22.8885046,16.6992427 22.4465046,16.6992427 C22.0045046,16.6992427 21.6465046,16.3402427 21.6465046,15.8992427 C21.6465046,15.4562427 22.0045046,15.0992427 22.4465046,15.0992427 Z M20.4465046,13.0992427 C20.8885046,13.0992427 21.2465046,13.4562427 21.2465046,13.8992427 C21.2465046,14.3402427 20.8885046,14.6992427 20.4465046,14.6992427 C20.0045046,14.6992427 19.6465046,14.3402427 19.6465046,13.8992427 C19.6465046,13.4562427 20.0045046,13.0992427 20.4465046,13.0992427 Z M24.4465046,13.0992427 C24.8885046,13.0992427 25.2465046,13.4562427 25.2465046,13.8992427 C25.2465046,14.3402427 24.8885046,14.6992427 24.4465046,14.6992427 C24.0045046,14.6992427 23.6465046,14.3402427 23.6465046,13.8992427 C23.6465046,13.4562427 24.0045046,13.0992427 24.4465046,13.0992427 Z M22.4465046,11.0992427 C22.8885046,11.0992427 23.2465046,11.4562427 23.2465046,11.8992427 C23.2465046,12.3402427 22.8885046,12.6992427 22.4465046,12.6992427 C22.0045046,12.6992427 21.6465046,12.3402427 21.6465046,11.8992427 C21.6465046,11.4562427 22.0045046,11.0992427 22.4465046,11.0992427 Z" id="Combined-Shape" fill="url(#linearGradient-1)"></path>
    </g>
</svg>