<?xml version="1.0" encoding="UTF-8"?>
<svg width="32px" height="32px" viewBox="0 0 32 32" version="1.1" xmlns="http://www.w3.org/2000/svg" xmlns:xlink="http://www.w3.org/1999/xlink">
    <title>Icon / 32 / Categories / Whatson</title>
    <defs>
        <linearGradient x1="0%" y1="0.711734694%" x2="100%" y2="99.2882653%" id="linearGradient-1">
            <stop stop-color="#A8DC28" offset="0%"></stop>
            <stop stop-color="#79D378" offset="100%"></stop>
        </linearGradient>
    </defs>
    <g id="Icon-/-32-/-Categories-/-Whatson" stroke="none" stroke-width="1" fill="none" fill-rule="evenodd">
        <path d="M10.3,2 L10.3,5.8 L15.699,5.8 L15.7,2 L17.3,2 L17.299,5.8 L22.7,5.8 L22.7,2 L24.3,2 L24.3,5.8 L26,5.8 C28.209139,5.8 30,7.590861 30,9.8 L30,25.8 C30,28.009139 28.209139,29.8 26,29.8 L6,29.8 C3.790861,29.8 2,28.009139 2,25.8 L2,9.8 C2,7.590861 3.790861,5.8 6,5.8 L8.699,5.8 L8.7,2 L10.3,2 Z M8.699,7.6 L6,7.6 C4.78497355,7.6 3.8,8.58497355 3.8,9.8 L3.8,25.8 C3.8,27.0150264 4.78497355,28 6,28 L26,28 C27.2150264,28 28.2,27.0150264 28.2,25.8 L28.2,9.8 C28.2,8.58497355 27.2150264,7.6 26,7.6 L24.3,7.6 L24.3,9.9 L22.7,9.9 L22.7,7.6 L17.299,7.6 L17.3,9.9 L15.7,9.9 L15.699,7.6 L10.3,7.6 L10.3,9.9 L8.7,9.9 L8.699,7.6 Z M17.508,13.8 L17.508,22.634 C18.446,22.704 18.964,22.76 19.048,22.774 C19.23,22.816 19.328,22.928 19.328,23.124 L19.328,23.936 L13.728,23.936 L13.728,23.124 C13.728,22.928 13.826,22.816 14.008,22.774 C14.106,22.76 14.694,22.704 15.772,22.62 L15.772,16.74 C15.772,16.516 15.786,16.264 15.8,16.012 L14.344,17.23 C14.288,17.286 14.218,17.328 14.162,17.342 C14.106,17.356 14.022,17.37 13.966,17.37 C13.868,17.37 13.784,17.356 13.714,17.314 C13.63,17.272 13.588,17.23 13.546,17.174 L13,16.432 L16.08,13.8 L17.508,13.8 Z" id="Combined-Shape" fill="url(#linearGradient-1)"></path>
    </g>
</svg>