<svg xmlns="http://www.w3.org/2000/svg" width="24" height="24" viewBox="0 0 24 24">
  <defs>
    <linearGradient id="adult-green-a" x1="0%" x2="252.96%" y1="0%" y2="253.935%">
      <stop offset="0%" stop-color="#A8DC28"/>
      <stop offset="100%" stop-color="#31C5F2"/>
    </linearGradient>
  </defs>
  <path fill="url(#adult-green-a)" fill-rule="evenodd" d="M12,0 C18.6146341,0 24,5.38536585 24,12 C24,13.8731707 23.5902439,15.6292683 22.8292683,17.2097561 C20.897561,21.2487805 16.7414634,24 12,24 C10.595122,24 9.1902439,23.8243902 7.90243902,23.297561 C3.27804878,21.5414634 0,17.1512195 0,12 C0,5.38536585 5.38536585,0 12,0 Z M12,1.2 C6.04682927,1.2 1.2,6.04682927 1.2,12 C1.2,16.6360976 4.1502439,20.5873171 8.31219512,22.1678049 C9.47121951,22.6419512 10.7356098,22.8 12,22.8 C16.2673171,22.8 20.0078049,20.3239024 21.7463415,16.6887805 C22.4312195,15.2663415 22.8,13.6858537 22.8,12 C22.8,6.04682927 17.9531707,1.2 12,1.2 Z M11.9284553,8.64 C13.3853659,8.64 13.9056911,9.4204878 13.9056911,10.2009756 C13.9056911,10.8773984 13.4373984,11.4497561 12.9170732,11.8660163 C13.697561,12.3343089 14.1658537,12.9066667 14.1658537,13.6871545 C14.1658537,14.6757724 13.4373984,15.6123577 11.8243902,15.6123577 C10.1073171,15.6123577 9.58699187,14.6757724 9.58699187,13.843252 C9.53495935,12.8546341 10.3154472,12.2302439 10.8357724,11.9180488 C10.3674797,11.6058537 9.79512195,11.137561 9.79512195,10.3570732 C9.79512195,9.36845528 10.6276423,8.64 11.9284553,8.64 Z M7.71382114,8.74406504 L7.71382114,14.5196748 L8.80650407,14.5717073 L8.80650407,15.4562602 L5.16422764,15.4562602 L5.16422764,14.6237398 L6.15284553,14.5717073 C6.36097561,14.5717073 6.46504065,14.4676423 6.46504065,14.2074797 L6.46504065,10.0969106 L5.26829268,10.7213008 L4.8,9.94081301 L6.67317073,8.74406504 L7.71382114,8.74406504 Z M11.6682927,12.3863415 C11.2,12.6985366 10.7837398,13.0627642 10.7837398,13.6871545 C10.7837398,14.1554472 11.095935,14.5717073 11.8243902,14.5717073 C12.4487805,14.5717073 12.8650407,14.2074797 12.8650407,13.635122 C12.8130081,13.0627642 12.2926829,12.7505691 11.6682927,12.3863415 Z M17.9121951,9.99284553 L17.9121951,11.6578862 L19.5252033,11.6578862 L19.5252033,12.6985366 L17.9121951,12.6985366 L17.9121951,14.3635772 L16.8715447,14.3635772 L16.8715447,12.6985366 L15.2585366,12.6985366 L15.2585366,11.6578862 L16.8715447,11.6578862 L16.8715447,9.99284553 L17.9121951,9.99284553 Z M10.9918699,10.3050407 C10.9918699,10.7733333 11.4081301,11.137561 11.9804878,11.4497561 C12.3447154,11.1895935 12.7609756,10.7733333 12.7609756,10.3050407 C12.7609756,9.83674797 12.396748,9.57658537 11.8764228,9.57658537 C11.3560976,9.52455285 10.9918699,9.83674797 10.9918699,10.3050407 Z"/>
</svg>
