<?xml version="1.0" encoding="UTF-8"?>
<svg width="32px" height="32px" viewBox="0 0 32 32" version="1.1" xmlns="http://www.w3.org/2000/svg" xmlns:xlink="http://www.w3.org/1999/xlink">
    <title>Icon / 32 / Categories / Animals</title>
    <defs>
        <linearGradient x1="0%" y1="27.1186901%" x2="100%" y2="72.8813099%" id="linearGradient-1">
            <stop stop-color="#A8DC28" offset="0%"></stop>
            <stop stop-color="#79D378" offset="100%"></stop>
        </linearGradient>
    </defs>
    <g id="Icon-/-32-/-Categories-/-Animals" stroke="none" stroke-width="1" fill="none" fill-rule="evenodd">
        <path d="M15.2758707,19.7703279 L14.315405,18.4640135 C14.0472408,18.0992876 14.3355943,17.6107513 14.8190342,17.6107513 L17.5091983,17.6107513 C17.9926382,17.6107513 18.2809917,18.0992876 18.0128275,18.4640135 L17.0321188,19.7978601 L17.0321188,23.2710116 C17.0321188,23.3251354 17.0272222,23.3781155 17.0178478,23.4295332 C17.6751448,24.1301597 18.5928566,24.5381743 19.5790431,24.5381743 C21.5189412,24.5381743 23.0915393,22.9655762 23.0915393,21.0256781 C23.0915393,20.3483969 22.900098,19.7019651 22.5471704,19.1462846 C22.4771581,19.058318 22.4114721,18.9673418 22.3504824,18.8734259 C22.3392704,18.8561609 22.3287426,18.8386489 22.3188922,18.8209217 C22.1486526,18.5553776 22.1330962,18.2163188 22.2831944,17.9344444 C22.8114639,16.9423898 23.0915393,15.8341966 23.0915393,14.6836711 C23.0915393,11.965142 21.5256103,9.61235513 19.246554,8.47811226 C19.2039557,8.46141948 19.1625535,8.44136659 19.1227836,8.41804635 C18.2255584,7.99362497 17.2225585,7.75624809 16.1641163,7.75624809 C12.3382062,7.75624809 9.23669324,10.857761 9.23669324,14.6836711 C9.23669324,15.8341966 9.5167686,16.9423898 10.0450381,17.9344444 C10.2071787,18.2389337 10.1760174,18.6101513 9.96538371,18.8833486 C9.49526338,19.4931067 9.23669324,20.238559 9.23669324,21.0256781 C9.23669324,22.9655762 10.8092913,24.5381743 12.7491894,24.5381743 C13.726998,24.5381743 14.6374902,24.1370626 15.2935766,23.4473259 C15.2819666,23.390366 15.2758707,23.3314007 15.2758707,23.2710116 L15.2758707,19.7703279 L15.2758707,19.7703279 Z M7.50837086,20.4808023 C6.02700499,21.0507748 4.23539552,21.0109946 2.98678178,20.2001354 C1.0067599,18.9142941 0.383389309,15.6767569 1.68076768,13.6789694 C3.11724227,11.459358 4.37885476,9.78815273 5.47582063,8.65962521 C7.32860133,6.75353674 10.6865952,5.7402019 12.649502,6.7406624 C13.7240055,6.2645144 14.9131706,6 16.1641163,6 C17.3635237,6 18.5061363,6.24316771 19.5453436,6.68289271 C21.5291602,5.8397881 24.7313553,6.848286 26.5241794,8.69269278 C27.6211452,9.8212203 28.8827577,11.4924256 30.3192323,13.7120369 C31.6166107,15.7098244 30.9932401,18.9473617 29.0132182,20.2332029 C27.8592059,20.9826273 26.2413612,21.0733882 24.8333085,20.6328513 C24.842927,20.7629436 24.8477874,20.8939559 24.8477874,21.0256781 C24.8477874,23.9355252 22.4888902,26.2944224 19.5790431,26.2944224 C18.3038351,26.2944224 17.102386,25.8378409 16.1641163,25.0383434 C15.2258466,25.8378409 14.0243975,26.2944224 12.7491894,26.2944224 C9.83934231,26.2944224 7.48044515,23.9355252 7.48044515,21.0256781 C7.48044515,20.8424916 7.48984531,20.6606779 7.50837086,20.4808023 L7.50837086,20.4808023 Z M8.12149921,17.9637415 C7.70083486,16.933365 7.48044515,15.8237957 7.48044515,14.6836711 C7.48044515,12.0595715 8.64439171,9.70732624 10.4841681,8.11505194 C9.24345866,8.22779229 7.69252875,8.89883206 6.73516075,9.88374523 C5.73155662,10.9162248 4.53437468,12.5020817 3.15452292,14.6343558 C2.37658692,15.8322742 2.7897045,17.9780661 3.94330305,18.7272218 C5.10532691,19.4818489 7.31696511,19.064824 8.12149921,17.9637415 L8.12149921,17.9637415 Z M21.9495397,8.20783194 C23.7282143,9.79797368 24.8477874,12.1100772 24.8477874,14.6836711 C24.8477874,15.9261042 24.5860699,17.1322523 24.0886655,18.2391743 C25.0179836,19.1552555 26.984307,19.4567075 28.056697,18.7602893 C29.2102955,18.0111337 29.6234131,15.8653418 28.8454771,14.6674233 C27.4656253,12.5351492 26.2684434,10.9492924 25.2648392,9.9168128 C24.4162746,9.04383346 23.1013964,8.41743907 21.9495397,8.20783194 L21.9495397,8.20783194 Z M19.2064385,14.6836711 C18.3981477,14.6836711 17.7428985,14.0284219 17.7428985,13.220131 C17.7428985,12.4118402 18.3981477,11.756591 19.2064385,11.756591 C20.0147294,11.756591 20.6699786,12.4118402 20.6699786,13.220131 C20.6699786,14.0284219 20.0147294,14.6836711 19.2064385,14.6836711 Z M13.6254724,14.6836711 C12.8171815,14.6836711 12.1619323,14.0284219 12.1619323,13.220131 C12.1619323,12.4118402 12.8171815,11.756591 13.6254724,11.756591 C14.4337632,11.756591 15.0890124,12.4118402 15.0890124,13.220131 C15.0890124,14.0284219 14.4337632,14.6836711 13.6254724,14.6836711 Z" id="Shape" fill="url(#linearGradient-1)"></path>
    </g>
</svg>