<?xml version="1.0" encoding="UTF-8"?>
<svg width="32px" height="32px" viewBox="0 0 32 32" version="1.1" xmlns="http://www.w3.org/2000/svg" xmlns:xlink="http://www.w3.org/1999/xlink">
    <title>Icon / 32 / Categories / Antiques &amp; Collectables</title>
    <defs>
        <linearGradient x1="10.4332136%" y1="0%" x2="89.5667864%" y2="100%" id="linearGradient-1">
            <stop stop-color="#A8DC28" offset="0%"></stop>
            <stop stop-color="#79D378" offset="100%"></stop>
        </linearGradient>
    </defs>
    <g id="Icon-/-32-/-Categories-/-Antiques-&amp;-Collectables" stroke="none" stroke-width="1" fill="none" fill-rule="evenodd">
        <path d="M15.7453069,1.50325521 C21.0854795,1.50325521 25.5071863,5.61957791 25.9269272,10.923045 L25.9453069,11.2032552 L25.9455719,26.383149 C27.6158629,26.6627013 28.8889136,28.1157698 28.8889136,29.8655939 L28.8889136,29.8655939 L28.8889136,30.5655939 L3.0359136,30.5655939 L3.0359136,29.8655939 C3.0359136,28.2709793 4.09306078,26.9230199 5.54496455,26.484739 L5.54530694,10.5032552 L5.628,10.503 L5.64820172,10.3375355 C6.30577917,5.42288098 10.4421558,1.64286663 15.465345,1.50703624 L15.7453069,1.50325521 Z M25.3589136,27.7345939 L6.5669136,27.7345939 C5.64576978,27.7345939 4.86122914,28.3190284 4.56365683,29.1371976 L4.56365683,29.1371976 L4.554,29.165 L27.37,29.165 L27.3611936,29.1372441 C27.0802132,28.3645522 26.36501,27.8002601 25.5110017,27.7399458 L25.5110017,27.7399458 L25.3589136,27.7345939 Z M15.7453069,2.90325521 C11.1488927,2.90325521 7.35593889,6.44136353 6.98658566,10.9817347 L6.96935286,11.2397902 L6.945,11.694 L6.9449136,26.3342552 L24.5449136,26.3342552 L24.546261,11.2397902 C24.3028053,6.58160774 20.4338366,2.90325521 15.7453069,2.90325521 Z M15.8333642,4.23732465 C19.5329636,4.23732465 22.5333642,7.23772533 22.5333642,10.9373247 C22.5333642,14.455982 19.8192769,17.3421617 16.3709035,17.6160626 L16.3703944,19.5450563 C17.5208441,19.8542885 18.3682943,20.9050125 18.3682943,22.1527778 C18.3682943,23.414408 17.501906,24.4745937 16.3319321,24.7705323 L16.3319597,25.0302234 C16.3319597,25.4168227 16.018559,25.7302234 15.6319597,25.7302234 C15.277577,25.7302234 14.9847015,25.4668797 14.9383499,25.1252092 L14.9319597,25.0302234 L14.9319429,24.7510488 C13.7989637,24.4303376 12.9682943,23.3881275 12.9682943,22.1527778 C12.9682943,20.9035518 13.8177297,19.8518288 14.9702356,19.5439733 L14.9700645,17.5821901 C11.6780559,17.1584871 9.13336424,14.3444071 9.13336424,10.9373247 C9.13336424,7.23772533 12.1337649,4.23732465 15.8333642,4.23732465 Z M15.6682943,20.8527778 C14.9508936,20.8527778 14.3682943,21.4353771 14.3682943,22.1527778 C14.3682943,22.8701785 14.9508936,23.4527778 15.6682943,23.4527778 C16.3856949,23.4527778 16.9682943,22.8701785 16.9682943,22.1527778 C16.9682943,21.4353771 16.3856949,20.8527778 15.6682943,20.8527778 Z M15.8333642,5.63732465 C12.9069636,5.63732465 10.5333642,8.01092398 10.5333642,10.9373247 C10.5333642,13.8637253 12.9069636,16.2373247 15.8333642,16.2373247 C18.7597649,16.2373247 21.1333642,13.8637253 21.1333642,10.9373247 C21.1333642,8.01092398 18.7597649,5.63732465 15.8333642,5.63732465 Z M15.8391927,7.67543403 C16.1935754,7.67543403 16.4864509,7.93877765 16.5328025,8.28044817 L16.5391927,8.37543403 L16.539,10.862 L17.7883844,12.0140694 C18.04405,12.2500714 18.083963,12.6323894 17.8982273,12.913582 L17.8279445,13.0032281 C17.5919425,13.2588937 17.2096245,13.2988067 16.9284318,13.1130711 L16.8387858,13.0427882 L15.1391927,11.4739133 L15.1391927,8.37543403 C15.1391927,7.9888347 15.4525934,7.67543403 15.8391927,7.67543403 Z" id="Combined-Shape" fill="url(#linearGradient-1)"></path>
    </g>
</svg>