<?xml version="1.0" encoding="UTF-8"?>
<svg width="32px" height="32px" viewBox="0 0 32 32" version="1.1" xmlns="http://www.w3.org/2000/svg" xmlns:xlink="http://www.w3.org/1999/xlink">
    <title>Icon / 32 / Categories / For-Sale</title>
    <defs>
        <linearGradient x1="0%" y1="6.53774095%" x2="252.959821%" y2="227.269749%" id="linearGradient-1">
            <stop stop-color="#A8DC28" offset="0%"></stop>
            <stop stop-color="#31C5F2" offset="100%"></stop>
        </linearGradient>
    </defs>
    <g id="Icon-/-32-/-Categories-/-For-Sale" stroke="none" stroke-width="1" fill="none" fill-rule="evenodd">
        <path d="M26.3659813,11.7381682 C28.7951402,11.7381682 30.7714953,13.7145234 30.7714953,16.1436822 C30.7714953,17.0274206 30.511028,17.8794766 30.0186916,18.6078879 C29.9816822,18.6622804 29.938785,18.7116262 29.8914019,18.7562056 C29.6578505,19.0626542 29.4484112,19.3228411 29.2605607,19.555271 L29.1444707,19.6993103 C28.3579997,20.6776446 28.1160748,21.05926 28.1160748,22.8622804 L28.1160748,22.8622804 L28.1160748,23.7777009 C28.1160748,24.7169533 27.7501869,25.6006916 27.0857009,26.2651776 C26.4203738,26.9296636 25.5369159,27.2955514 24.5982243,27.2955514 L24.5982243,27.2955514 L23.1949533,27.2955514 L23.1949533,28.9029346 C23.1949533,29.3739626 22.8116822,29.7569533 22.3403738,29.7569533 C21.8696262,29.7569533 21.4866355,29.3739626 21.4866355,28.9029346 L21.4866355,28.9029346 L21.4866355,27.2955514 L10.2845794,27.2955514 L10.2845794,28.9029346 C10.2845794,29.3739626 9.90158879,29.7569533 9.43056075,29.7569533 C8.95981308,29.7569533 8.57682243,29.3739626 8.57682243,28.9029346 L8.57682243,28.9029346 L8.57682243,27.2955514 L7.17299065,27.2955514 C6.23401869,27.2955514 5.35084112,26.9296636 4.68607477,26.2654579 C4.02102804,25.600972 3.65514019,24.7172336 3.65514019,23.7777009 L3.65514019,23.7777009 L3.65514019,22.8622804 C3.65514019,20.9734019 3.38990654,20.6445234 2.51065421,19.5555514 C2.32196262,19.3214393 2.11056075,19.0595701 1.87616822,18.7505981 C1.82850467,18.7071402 1.78700935,18.6586355 1.75224299,18.606486 C1.26046729,17.879757 1,17.0277009 1,16.1436822 C1,13.7145234 2.97607477,11.7381682 5.40523364,11.7381682 C7.83439252,11.7381682 9.81074766,13.7145234 9.81074766,16.1436822 L9.81074766,16.1436822 L9.81083745,18.6228204 C9.81335137,19.3574895 9.88625524,19.760785 12.0004673,19.760785 L12.0004673,19.760785 L19.771028,19.760785 C21.9604673,19.760785 21.9604673,19.3281682 21.9604673,18.5428411 L21.9604673,16.1436822 C21.9604673,13.7145234 23.9368224,11.7381682 26.3659813,11.7381682 Z M26.3659813,13.446486 C24.8788785,13.446486 23.668785,14.6565794 23.668785,16.1436822 L23.668785,16.1436822 L23.668785,18.5428411 C23.668785,21.3145578 21.3929759,21.4604376 19.995302,21.4681155 L11.7761933,21.4681155 C10.3785194,21.4604376 8.10271028,21.3145578 8.10271028,18.5428411 L8.10271028,18.5428411 L8.10271028,16.1436822 C8.10271028,14.6565794 6.89261682,13.446486 5.40523364,13.446486 C3.91785047,13.446486 2.70803738,14.6565794 2.70803738,16.1436822 C2.70803738,16.6391028 2.84261682,17.1216262 3.09747664,17.5410654 C3.1171028,17.5620935 3.13588785,17.584243 3.1535514,17.6072336 C3.40757009,17.9470467 3.63747664,18.2313458 3.83990654,18.4825607 C4.86915888,19.7579813 5.36401869,20.4765794 5.36401869,22.8622804 L5.36401869,22.8622804 L5.36401869,23.7777009 C5.36401869,24.2610654 5.55186916,24.7155514 5.89364486,25.0573271 C6.23542056,25.3991028 6.69018692,25.5872336 7.17299065,25.5872336 L7.17299065,25.5872336 L24.5982243,25.5872336 C25.0807477,25.5872336 25.5352336,25.3988224 25.8784112,25.056486 C26.2199065,24.715271 26.4080374,24.2610654 26.4080374,23.7777009 L26.4080374,23.7777009 L26.4080374,22.8622804 C26.4080374,20.4762991 26.9023364,19.7577009 27.931028,18.4825607 C28.122243,18.2459252 28.36,17.9520935 28.6162617,17.6094766 C28.6353271,17.584243 28.6546729,17.560972 28.6751402,17.5393832 C28.9291589,17.1202243 29.0631776,16.6382617 29.0631776,16.1436822 C29.0631776,14.6565794 27.8533645,13.446486 26.3659813,13.446486 Z M13.8056262,11.845271 C14.3663738,11.845271 14.8225421,12.3014393 14.8225421,12.8621869 C14.8225421,13.4229346 14.3663738,13.8791028 13.8056262,13.8791028 C13.2448785,13.8791028 12.7887103,13.4229346 12.7887103,12.8621869 C12.7887103,12.3014393 13.2448785,11.845271 13.8056262,11.845271 Z M17.9655047,11.8452991 C18.5265327,11.8452991 18.9829813,12.3014673 18.9829813,12.862215 C18.9829813,13.4229626 18.5265327,13.8791308 17.9655047,13.8791308 C17.4050374,13.8791308 16.9488692,13.4229626 16.9488692,12.862215 C16.9488692,12.3014673 17.4050374,11.8452991 17.9655047,11.8452991 Z M17.3942991,2 C24.1128972,2 26.4969159,5.81504673 26.4969159,9.08196262 L26.4969159,9.08196262 L26.4969159,10.8051402 L26.2235514,10.8121495 C25.8576636,10.8216822 25.4906542,10.8693458 25.1337383,10.9540187 L25.1337383,10.9540187 L24.7883178,11.0361682 L24.7883178,9.08196262 C24.7883178,6.48429907 22.8461682,3.70831776 17.3942991,3.70831776 L17.3942991,3.70831776 L14.6724299,3.70831776 C9.22056075,3.70831776 7.27813084,6.48429907 7.27813084,9.08196262 L7.27813084,9.08196262 L7.27813084,11.1331776 L6.91813084,11.0263551 C6.57102804,10.9234579 6.20429907,10.8561682 5.82831776,10.8264486 L5.82831776,10.8264486 L5.56981308,10.8059813 L5.56981308,9.08196262 C5.56981308,5.81504673 7.95383178,2 14.6724299,2 L14.6724299,2 Z M11.7972804,7.73333645 C12.358028,7.73333645 12.8141963,8.18950467 12.8141963,8.75025234 C12.8141963,9.311 12.358028,9.76716822 11.7972804,9.76716822 C11.2365327,9.76716822 10.7803645,9.311 10.7803645,8.75025234 C10.7803645,8.18950467 11.2365327,7.73333645 11.7972804,7.73333645 Z M19.9738505,7.73330841 C20.5345981,7.73330841 20.9910467,8.18947664 20.9910467,8.7502243 C20.9910467,9.31097196 20.5345981,9.76714019 19.9738505,9.76714019 C19.4133832,9.76714019 18.957215,9.31097196 18.957215,8.7502243 C18.957215,8.18947664 19.4133832,7.73330841 19.9738505,7.73330841 Z M15.8857196,7.73333645 C16.4464673,7.73333645 16.9026355,8.18950467 16.9026355,8.75025234 C16.9026355,9.311 16.4464673,9.76716822 15.8857196,9.76716822 C15.324972,9.76716822 14.8688037,9.311 14.8688037,8.75025234 C14.8688037,8.18950467 15.324972,7.73333645 15.8857196,7.73333645 Z" id="Combined-Shape" fill="url(#linearGradient-1)"></path>
    </g>
</svg>