<?xml version="1.0" encoding="UTF-8"?>
<svg width="32px" height="32px" viewBox="0 0 32 32" version="1.1" xmlns="http://www.w3.org/2000/svg" xmlns:xlink="http://www.w3.org/1999/xlink">
    <title>Icon / 32 / Categories / Jobs</title>
    <defs>
        <linearGradient x1="0.0131028236%" y1="0%" x2="252.906634%" y2="253.935268%" id="linearGradient-1">
            <stop stop-color="#A8DC28" offset="0%"></stop>
            <stop stop-color="#31C5F2" offset="100%"></stop>
        </linearGradient>
    </defs>
    <g id="Icon-/-32-/-Categories-/-Jobs" stroke="none" stroke-width="1" fill="none" fill-rule="evenodd">
        <path d="M18.9669738,1 C25.6000041,1 30.9960648,6.39606061 30.9960648,13.0287879 C30.9963677,16.2421212 29.7451556,19.2633333 27.4733374,21.5357576 C25.2009132,23.8078788 22.1800041,25.0590909 18.9669738,25.0590909 C16.6245496,25.0590909 14.4381859,24.3836364 12.5872768,23.2206061 L12.5872768,23.2206061 L5.76273138,30.4060606 C5.3878829,30.7851515 4.90182229,31 4.42454956,31 C4.01697381,31 3.64212532,30.8466667 3.36879199,30.5678788 L3.36879199,30.5678788 L1.42212532,28.6215152 C1.14909502,28.3484848 0.999095017,27.9757576 1,27.5721212 C1,27.0969697 1.20939805,26.6148485 1.57454956,26.25 L1.57454956,26.25 L8.82485259,19.4848485 C7.63273138,17.6178788 6.93818593,15.4036364 6.93818593,13.0287879 C6.93818593,6.39606061 12.3342465,1 18.9669738,1 Z M9.92273138,20.9472727 L2.88545865,27.5136364 L4.48424653,29.1121212 L11.1148526,22.1306061 C10.6903071,21.7639394 10.2921253,21.3687879 9.92273138,20.9472727 L9.92273138,20.9472727 Z M18.9669738,2.81818182 C13.3366708,2.81818182 8.75636774,7.39848485 8.75636774,13.0287879 C8.75636774,18.659697 13.3366708,23.2409091 18.9669738,23.2409091 C21.6948526,23.2409091 24.259095,22.1787879 26.1875799,20.250303 C28.1157617,18.3215152 29.1778829,15.7566667 29.1778829,13.0287879 C29.1778829,7.39848485 24.5972768,2.81818182 18.9669738,2.81818182 Z M15.6087617,14.2815455 C16.1099738,14.2815455 16.5178526,14.6894242 16.5178526,15.1906364 L16.5178526,15.1906364 L16.5178526,18.6451818 C16.5178526,19.1463939 16.1099738,19.5542727 15.6087617,19.5542727 C15.1075496,19.5542727 14.6996708,19.1463939 14.6996708,18.6451818 L14.6996708,18.6451818 L14.6996708,15.1906364 C14.6996708,14.6894242 15.1075496,14.2815455 15.6087617,14.2815455 Z M22.3260344,14.2815455 C22.8272465,14.2815455 23.2351253,14.6894242 23.2351253,15.1906364 L23.2351253,15.1906364 L23.2351253,18.6451818 C23.2351253,19.1463939 22.8272465,19.5542727 22.3260344,19.5542727 C21.8248223,19.5542727 21.4169435,19.1463939 21.4169435,18.6451818 L21.4169435,18.6451818 L21.4169435,15.1906364 C21.4169435,14.6894242 21.8248223,14.2815455 22.3260344,14.2815455 Z M18.9674284,4.39639394 C21.2465193,4.39639394 23.1007617,6.25063636 23.1007617,8.5300303 C23.1007617,9.28912121 22.8916708,9.99851515 22.5331859,10.6106364 C25.7722768,11.9812424 26.1992465,14.7485152 26.1992465,17.0327576 L26.1992465,17.0327576 L26.1992465,18.6451818 C26.1992465,19.1463939 25.7913677,19.5542727 25.2901556,19.5542727 C24.7886405,19.5542727 24.3810647,19.1463939 24.3810647,18.6451818 L24.3810647,18.6451818 L24.3810647,17.0327576 C24.3810647,14.6212424 23.8216708,12.8485152 21.1383374,12.0409394 C20.5062162,12.4333636 19.764095,12.6639697 18.9674284,12.6639697 C18.1704587,12.6639697 17.4280344,12.4333636 16.7962162,12.0409394 C14.1125799,12.8485152 13.5531859,14.6212424 13.5531859,17.0327576 L13.5531859,17.0327576 L13.5531859,18.6451818 C13.5531859,19.1463939 13.1453071,19.5542727 12.644095,19.5542727 C12.1428829,19.5542727 11.7350041,19.1463939 11.7350041,18.6451818 L11.7350041,18.6451818 L11.7350041,17.0327576 C11.7350041,14.7485152 12.1619738,11.9815455 15.4013677,10.6106364 C15.0428829,9.99881818 14.833792,9.28912121 14.833792,8.5300303 C14.833792,6.25063636 16.6880344,4.39639394 18.9674284,4.39639394 Z M18.9674284,6.21457576 C17.6904587,6.21457576 16.6519738,7.25336364 16.6519738,8.5300303 C16.6519738,9.80669697 17.6904587,10.8457879 18.9674284,10.8457879 C20.244095,10.8457879 21.2825799,9.80669697 21.2825799,8.5300303 C21.2825799,7.25336364 20.244095,6.21457576 18.9674284,6.21457576 Z" id="Combined-Shape" fill="url(#linearGradient-1)"></path>
    </g>
</svg>