<?xml version="1.0" encoding="UTF-8"?>
<svg width="32px" height="32px" viewBox="0 0 32 32" version="1.1" xmlns="http://www.w3.org/2000/svg" xmlns:xlink="http://www.w3.org/1999/xlink">
    <title>Icon / 32 / Categories / Motors</title>
    <defs>
        <linearGradient x1="0%" y1="20.5042825%" x2="100%" y2="79.4957175%" id="linearGradient-1">
            <stop stop-color="#A8DC28" offset="0%"></stop>
            <stop stop-color="#79D378" offset="100%"></stop>
        </linearGradient>
    </defs>
    <g id="Icon-/-32-/-Categories-/-Motors" stroke="none" stroke-width="1" fill="none" fill-rule="evenodd">
        <path d="M8.19817688,14.6258796 C8.10877269,14.6530367 8.00940879,14.6679762 7.90008518,14.6679762 C7.50617995,14.6679762 6.64982899,15.0248836 5.72260466,15.5891471 C4.91923817,16.0780368 4.17786808,16.6628085 4.07286119,16.8291501 C3.87539506,17.1419565 3.81710794,17.630478 3.81156689,19.0612799 C3.81812184,20.0403828 3.89716039,20.4193421 4.10544784,20.8088058 C4.28302866,21.1408531 4.53824006,21.3960645 4.87028732,21.5736453 C5.27768463,21.7915238 5.673588,21.8679762 6.7569447,21.8679762 L15.8845741,21.8679762 L25.0122036,21.8679762 C26.0955603,21.8679762 26.4914636,21.7915238 26.898861,21.5736453 C27.2309082,21.3960645 27.4861196,21.1408531 27.6637004,20.8088058 C27.8719879,20.4193421 27.9510264,20.0403828 27.9575814,19.0612799 C27.9520403,17.630478 27.8937532,17.1419565 27.6962871,16.8291501 C27.4481191,16.4360268 24.4304608,14.9557305 23.1967236,14.704362 C22.9576996,14.7670343 22.7105646,14.7991854 22.4612067,14.7991854 L9.18800038,14.7991854 C8.8403832,14.7991854 8.50705069,14.7380257 8.19817688,14.6258796 L8.19817688,14.6258796 Z M6.45373156,12.8679762 C6.3463862,12.5650241 6.28796444,12.238928 6.28796444,11.8991854 C6.28796444,11.4082721 6.41258526,10.9253933 6.65015093,10.4957907 C8.22674061,7.64475978 9.45883805,6.04494768 10.5644246,5.60067941 C11.7696842,5.11635857 13.1809984,5.00267714 15.8,5.00267714 C15.953486,5.00267714 16.077966,5.00223849 16.3530223,5.00094129 C18.854306,4.98914493 19.8931658,5.08235184 21.0713099,5.61594297 C22.0559282,6.06188468 23.2746124,7.61654063 24.9483431,10.4078229 C25.4113061,11.1799018 25.4731945,12.0807646 25.1946877,12.8679762 L27.1482551,12.8679762 C27.7417528,12.6138065 27.9580314,12.3403115 27.9580314,12.0026767 C27.9580314,11.9177933 27.9593779,11.856681 27.9639069,11.6965371 C27.966804,11.5931537 27.9678277,11.5509514 27.9685541,11.4966072 C27.9693832,11.4345797 27.9691054,11.3796514 27.9678294,11.331574 C27.8830145,11.3373014 27.7556368,11.3492934 27.5516472,11.3694479 C27.2136372,11.4028438 26.9454699,11.4192783 26.6221318,11.4192783 C26.1250756,11.4192783 25.7221318,11.0163346 25.7221318,10.5192783 C25.7221318,10.022222 26.1250756,9.61927831 26.6221318,9.61927831 C26.8777749,9.61927831 27.090611,9.60623474 27.3746661,9.57816966 C28.1131066,9.5052106 28.2225935,9.50072584 28.5849049,9.58825067 C28.6883556,9.6132416 28.7898197,9.64634513 28.8901372,9.6879556 C29.6388483,9.9985118 29.7811197,10.5685706 29.7683933,11.5206652 C29.7675112,11.5866615 29.766245,11.6388617 29.7631875,11.747423 C29.7591734,11.8893597 29.7580314,11.9411909 29.7580314,12.0026767 C29.7580314,13.2056386 28.9866838,14.0928684 27.6461724,14.6080675 C27.6297121,14.6143937 27.6130883,14.6202275 27.5963233,14.6255649 C28.3848629,15.0789029 29.0067014,15.5329794 29.2183776,15.868296 C29.6563234,16.5620466 29.7028557,17.7224347 29.7567563,18.8674022 C29.7576554,19.0061263 29.7580314,19.1521323 29.7580314,19.3060622 C29.7580314,19.3512126 29.7554832,19.3946642 29.7505785,19.4364171 C29.7181987,20.4607384 29.5764678,21.049045 29.2509642,21.6576838 C28.9056237,22.3034143 28.3934694,22.8155686 27.7477389,23.160909 C27.4454473,23.3225764 27.1481712,23.4389107 26.8,23.5190302 L26.8,24.4283392 C26.8,25.4776803 25.949341,26.3283392 24.9,26.3283392 L22.9,26.3283392 C21.850659,26.3283392 21,25.4776803 21,24.4283392 L21,23.6679762 L10.8,23.6679762 L10.8,24.4283392 C10.8,25.4776803 9.94934102,26.3283392 8.9,26.3283392 L6.9,26.3283392 C5.85065898,26.3283392 5,25.4776803 5,24.4283392 L5,23.5260052 C4.638458,23.4457141 4.33259112,23.3273309 4.02140938,23.160909 C3.37567886,22.8155686 2.86352454,22.3034143 2.51818408,21.6576838 C2.19268051,21.049045 2.05094962,20.4607384 2.01856976,19.4364171 C2.01366511,19.3946642 2.0111169,19.3512126 2.0111169,19.3060622 L2.0111169,18.9221484 C2.0111169,18.9036134 2.01154634,18.8853647 2.01239194,18.8674022 C2.02339977,17.1689444 2.1128249,16.5620466 2.55077073,15.868296 C2.7837399,15.4992492 3.32520738,15.0218656 3.99463527,14.5568857 C2.73335115,14.0351169 2.0111169,13.1667112 2.0111169,12.0026767 C2.0111169,11.9411909 2.00997489,11.8893597 2.00596075,11.747423 C2.00290332,11.6388617 2.00163713,11.5866615 2.00075497,11.5206652 C1.98802853,10.5685706 2.13030002,9.9985118 2.8790111,9.6879556 C3.07821207,9.60532947 3.25958134,9.55219682 3.44926194,9.52338727 C3.68827163,9.48708539 3.73339798,9.48778096 4.29381469,9.51354449 C4.50984483,9.52347585 4.68618686,9.52833925 4.90008518,9.52833925 C5.39714145,9.52833925 5.80008518,9.93128297 5.80008518,10.4283392 C5.80008518,10.9253955 5.39714145,11.3283392 4.90008518,11.3283392 C4.65539854,11.3283392 4.4526503,11.3227476 4.21115223,11.3116454 C3.96857174,11.3004935 3.86305125,11.2960275 3.80247024,11.2965716 C3.80025279,11.3524526 3.79955641,11.4189687 3.80059419,11.4966072 C3.80132059,11.5509514 3.80234428,11.5931537 3.80524134,11.6965371 C3.8097704,11.856681 3.8111169,11.9177933 3.8111169,12.0026767 C3.8111169,12.3403115 4.02739546,12.6138065 4.62089323,12.8679762 L6.45373156,12.8679762 L6.45373156,12.8679762 Z M22.9822112,12.8679762 C22.9972797,12.8598725 23.0121789,12.8514065 23.0268955,12.842582 C23.5479207,12.5301608 23.7170269,11.8545201 23.4046038,11.3334951 C21.9388606,8.88907382 20.8398954,7.48714149 20.3286901,7.25561242 C19.4784483,6.87053091 18.5856846,6.7904318 16.3615112,6.80092128 C16.0836408,6.80223175 15.9572466,6.80267714 15.8,6.80267714 C13.4342209,6.80267714 12.1416054,6.90679738 11.2355754,7.27087598 C10.6675903,7.49911481 9.59152037,8.89633356 8.22534706,11.3668573 C8.13523494,11.5298119 8.08796444,11.7129749 8.08796444,11.8991854 C8.08796444,12.5067086 8.58045555,12.9991854 9.18798425,12.9991854 L22.4034175,12.9991854 C22.5361776,12.9171273 22.7017051,12.8679762 22.9,12.8679762 L22.9822112,12.8679762 L22.9822112,12.8679762 Z M22.8,23.6679762 L22.8,24.4283392 C22.8,24.4835677 22.8447715,24.5283392 22.9,24.5283392 L24.9,24.5283392 C24.9552285,24.5283392 25,24.4835677 25,24.4283392 L25,23.6679762 L22.8,23.6679762 L22.8,23.6679762 Z M6.8,23.6679762 L6.8,24.4283392 C6.8,24.4835677 6.84477153,24.5283392 6.9,24.5283392 L8.9,24.5283392 C8.95522847,24.5283392 9,24.4835677 9,24.4283392 L9,23.6679762 L6.8,23.6679762 Z M11.8,18.2283392 C11.3029437,18.2283392 10.9,17.8253955 10.9,17.3283392 C10.9,16.831283 11.3029437,16.4283392 11.8,16.4283392 L19.8,16.4283392 C20.2970563,16.4283392 20.7,16.831283 20.7,17.3283392 C20.7,17.8253955 20.2970563,18.2283392 19.8,18.2283392 L11.8,18.2283392 Z M7.9,18.4283392 C7.34771525,18.4283392 6.9,17.980624 6.9,17.4283392 C6.9,16.8760545 7.34771525,16.4283392 7.9,16.4283392 C8.45228475,16.4283392 8.9,16.8760545 8.9,17.4283392 C8.9,17.980624 8.45228475,18.4283392 7.9,18.4283392 Z M23.9,18.4283392 C23.3477153,18.4283392 22.9,17.980624 22.9,17.4283392 C22.9,16.8760545 23.3477153,16.4283392 23.9,16.4283392 C24.4522847,16.4283392 24.9,16.8760545 24.9,17.4283392 C24.9,17.980624 24.4522847,18.4283392 23.9,18.4283392 Z" id="Shape" fill="url(#linearGradient-1)"></path>
    </g>
</svg>