<?xml version="1.0" encoding="UTF-8"?>
<svg width="32px" height="32px" viewBox="0 0 32 32" version="1.1" xmlns="http://www.w3.org/2000/svg" xmlns:xlink="http://www.w3.org/1999/xlink">
    <title>Icon / 32 / Categories / Property</title>
    <defs>
        <linearGradient x1="0%" y1="13.2926005%" x2="252.959821%" y2="199.718667%" id="linearGradient-1">
            <stop stop-color="#A8DC28" offset="0%"></stop>
            <stop stop-color="#31C5F2" offset="100%"></stop>
        </linearGradient>
    </defs>
    <g id="Icon-/-32-/-Categories-/-Property" stroke="none" stroke-width="1" fill="none" fill-rule="evenodd">
        <path d="M26.5129533,13.7926314 C26.9423267,13.7926314 27.2912737,14.1418378 27.2912737,14.5709518 L27.2912737,14.5709518 L27.2912737,27.1480902 L28.7127461,27.1480902 C29.1418601,27.1480902 29.4910665,27.4972966 29.4910665,27.9264105 C29.4910665,28.3555245 29.1418601,28.7047309 28.7127461,28.7047309 L28.7127461,28.7047309 L3.2876138,28.7047309 C2.85849984,28.7047309 2.50929343,28.3555245 2.50929343,27.9264105 C2.50929343,27.4972966 2.85849984,27.1480902 3.2876138,27.1480902 L3.2876138,27.1480902 L4.70908625,27.1480902 L4.70908625,14.5709518 C4.70908625,14.1418378 5.05803322,13.7926314 5.48740663,13.7926314 C5.91652059,13.7926314 6.265727,14.1418378 6.265727,14.5709518 L6.265727,14.5709518 L6.265727,27.1480902 L25.7346329,27.1480902 L25.7346329,14.5709518 C25.7346329,14.1418378 26.0838393,13.7926314 26.5129533,13.7926314 Z M19.1386271,13.6572036 C20.164194,13.6572036 22.2820037,14.476775 22.2820037,17.0102078 C22.2820037,19.8754646 18.7595851,23.0725452 16.3244801,24.1873595 C16.2217418,24.2343181 16.1130364,24.2579272 16.0004394,24.2579272 C15.8875829,24.2579272 15.7788775,24.2343181 15.6763987,24.1873595 C13.2412937,23.0725452 9.71835619,19.8749457 9.71835619,17.0102078 C9.71835619,14.476775 11.8366848,13.6572036 12.8625111,13.6572036 C13.8060948,13.6572036 15.1388387,14.1000679 16.0004394,14.9494749 C16.86204,14.1000679 18.194784,13.6572036 19.1386271,13.6572036 Z M19.1386271,15.2138444 C18.0445681,15.2138444 16.7787598,16.0575437 16.7787598,16.6080756 C16.7787598,17.0371896 16.4295534,17.386396 16.0004394,17.386396 C15.5713254,17.386396 15.222119,17.0371896 15.222119,16.6080756 C15.222119,16.0575437 13.9565701,15.2138444 12.8625111,15.2138444 C12.4505202,15.2138444 11.2749969,15.5438522 11.2749969,17.0102078 C11.2749969,19.0628981 14.0279161,21.5872505 16.0004394,22.6135957 C17.9729627,21.5872505 20.725363,19.0631575 20.725363,17.0102078 C20.725363,15.5438522 19.5503586,15.2138444 19.1386271,15.2138444 Z M15.5297891,3.1577396 C15.8068711,2.94733365 16.1934369,2.94759309 16.4707784,3.15748016 L16.4707784,3.15748016 L30.6927672,13.9507083 C31.0341904,14.2101484 31.1013854,14.6994525 30.8422047,15.0413945 C30.5892506,15.3737373 30.084899,15.4432673 29.7517779,15.1908321 L29.7517779,15.1908321 L16.000154,4.75485301 L2.2487896,15.1908321 C2.11232409,15.2946081 1.94887681,15.34935 1.78024073,15.34935 C1.74443799,15.34935 1.70863526,15.347015 1.67309196,15.3420856 C1.4670965,15.3138067 1.28419121,15.2071768 1.15836275,15.0413945 C1.03279373,14.8756123 0.979089623,14.670914 1.0073686,14.4649186 C1.03564757,14.2589231 1.14279634,14.0760178 1.30857858,13.9504488 L1.30857858,13.9504488 Z" id="Combined-Shape" fill="url(#linearGradient-1)"></path>
    </g>
</svg>