<?xml version="1.0" encoding="UTF-8"?>
<svg width="32px" height="32px" viewBox="0 0 32 32" version="1.1" xmlns="http://www.w3.org/2000/svg" xmlns:xlink="http://www.w3.org/1999/xlink">
    <title>Icon / 32 / Categories / Services / W</title>
    <g id="Icon-/-32-/-Categories-/-Services-/-W" stroke="none" stroke-width="1" fill="none" fill-rule="evenodd">
        <path d="M28.0096212,4.7532538 L28.3905315,4.85476926 C29.4523529,5.13749739 30.1944763,6.09931848 30.1944763,7.19356422 L30.1944763,7.19356422 L30.1944763,10.8972118 C30.1944763,12.2072158 29.2608372,13.3423707 27.9744696,13.5966139 L27.9744696,13.5966139 L15.9168573,15.984803 L15.9083724,18.372689 L16.9762545,18.372689 C17.4774681,18.372689 17.8853481,18.780266 17.8853481,19.2811766 L17.8853481,19.2811766 L17.8853481,28.4651438 C17.8853481,29.8630269 16.7474659,31 15.3486738,31 L15.3486738,31 L14.6459444,31 C13.2474553,31 12.1095731,29.8630269 12.1095731,28.4651438 L12.1095731,28.4651438 L12.1095731,19.2811766 C12.1095731,18.780266 12.5174531,18.372689 13.0186667,18.372689 L13.0186667,18.372689 L14.0880639,18.372689 L14.0880639,15.9972273 C14.0880639,15.1263155 14.7083688,14.3714648 15.5629169,14.2020703 L15.5629169,14.2020703 L27.6232564,11.8141843 C28.0596214,11.7278204 28.376289,11.3420616 28.376289,10.8972118 L28.376289,10.8972118 L28.376289,7.19356422 C28.376289,7.00538183 28.2865918,6.82992676 28.1302277,6.71235064 L28.1302277,6.71235064 L28.0096212,6.62144128 L28.0096212,4.7532538 Z M16.0671608,20.1896642 L13.9277604,20.1896642 L13.9277604,28.4651438 C13.9277604,28.8609026 14.2498826,29.1827218 14.6459444,29.1827218 L14.6459444,29.1827218 L15.3486738,29.1827218 C15.7447356,29.1827218 16.0671608,28.8609026 16.0671608,28.4651438 L16.0671608,28.4651438 L16.0671608,20.1896642 Z M24.6791566,1 C26.0158273,1 27.1034064,2.08666996 27.1034064,3.42243158 L27.1034064,3.42243158 L27.1034064,7.93759678 C27.1034064,9.2733584 26.0158273,10.3600284 24.6791566,10.3600284 L24.6791566,10.3600284 L5.42152249,10.3600284 C4.08636693,10.3600284 3,9.2733584 3,7.93759678 L3,7.93759678 L3,3.42243158 C3,2.08666996 4.08636693,1 5.42152249,1 L5.42152249,1 Z M24.6791566,2.81727823 L5.42152249,2.81727823 C5.08909724,2.81727823 4.81849036,3.08879421 4.81849036,3.42243158 L4.81849036,3.42243158 L4.81849036,7.93759678 C4.81849036,8.27153719 5.08909724,8.54305316 5.42152249,8.54305316 L5.42152249,8.54305316 L24.6791566,8.54305316 C25.0134,8.54305316 25.285219,8.27153719 25.285219,7.93759678 L25.285219,7.93759678 L25.285219,3.42243158 C25.285219,3.08879421 25.0134,2.81727823 24.6791566,2.81727823 L24.6791566,2.81727823 Z" id="Combined-Shape" fill="#FFFFFF"></path>
    </g>
</svg>