<?xml version="1.0" encoding="UTF-8"?>
<svg width="32px" height="32px" viewBox="0 0 32 32" version="1.1" xmlns="http://www.w3.org/2000/svg" xmlns:xlink="http://www.w3.org/1999/xlink">
    <title>Icon / 32 / Categories / Whatson</title>
    <defs>
        <linearGradient x1="0%" y1="2.30497989%" x2="100%" y2="97.6950201%" id="linearGradient-1">
            <stop stop-color="#A8DC28" offset="0%"></stop>
            <stop stop-color="#79D378" offset="100%"></stop>
        </linearGradient>
    </defs>
    <g id="Icon-/-32-/-Categories-/-Whatson" stroke="none" stroke-width="1" fill="none" fill-rule="evenodd">
        <path d="M6.76103099,11.0899484 L6.6898736,11.0722068 C4.3061009,10.4778655 2.86527324,8.07197688 3.46135237,5.68123409 L3.56811281,5.25304135 C4.16419193,2.86229855 6.56586355,1.41445256 8.91405756,1.99992308 C11.0043121,2.40737929 12.8187851,3.61779673 14.0194829,5.47110226 C15.3002267,7.45806829 15.7003592,9.94559083 15.1131768,12.3006509 L15.0864867,12.4076991 C14.9886229,12.8002091 14.597241,13.005834 14.2414541,12.9171264 C13.8500884,12.819548 13.6455291,12.4274373 13.7344962,12.07061 L13.7611863,11.9635618 C14.250505,10.0010118 13.8948235,7.94148228 12.8364324,6.27526148 C11.8580872,4.74270116 10.3727111,3.72803957 8.67382221,3.41816178 L8.63824352,3.40929102 C7.03720215,3.01010657 5.39161234,4.00214919 4.99126069,5.60787197 L4.88450025,6.0360647 C4.4841486,7.64178748 5.47138236,9.29026674 7.07242372,9.68945119 L7.10800242,9.69832196 C7.10800242,9.69832196 8.30878141,10.0356107 9.18939272,9.53505418 C9.63414672,9.26693455 9.92769735,8.84741291 10.087838,8.2051238 C10.1857017,7.81261379 10.5770836,7.60698886 10.9328706,7.69569651 C11.3242363,7.79327493 11.5287955,8.18538561 11.4398285,8.54221289 C11.1818241,9.57701201 10.6569916,10.3178779 9.86533115,10.7648105 C8.62891664,11.4798627 7.15239666,11.1875268 6.76103099,11.0899484 Z M5.46200678,18.2704485 C5.35527069,18.2438362 5.2485346,18.2172239 5.15069521,18.1549289 C4.49249338,17.9150189 3.97662256,17.4073886 3.68312875,16.7656985 L3.58529748,16.5518018 C3.29180366,15.9101117 3.28294754,15.187786 3.5231423,14.5275557 C3.76333706,13.8673254 4.22589259,13.3762386 4.86633348,13.0811074 C5.70246938,12.6073628 6.89437603,12.5255293 8.12183701,12.9073715 C9.52719149,13.3335676 10.6567806,14.2595215 11.1637223,15.4092413 L11.1904043,15.4537947 C11.3682815,15.8013519 11.181467,16.2474859 10.8434572,16.3906161 C10.4965507,16.5694291 10.051821,16.3827437 9.90952247,16.0440573 L9.88284047,15.9995038 C9.54487938,15.2330239 8.7265937,14.5741913 7.71260489,14.2455736 C6.86761287,13.9969925 6.06708001,14.0248028 5.58674731,14.2840517 L5.49779651,14.3376756 C5.20426211,14.4539939 4.9907737,14.7039727 4.87512467,15.0162465 C4.75947564,15.3285203 4.75945941,15.6317236 4.91065467,15.9347273 L5.00848594,16.148624 C5.1241025,16.4427569 5.37314526,16.656454 5.68445683,16.7719736 C5.9957684,16.8874932 6.29819138,16.8870939 6.60062248,16.7350929 L6.68957328,16.6814689 C6.73404868,16.654657 7.11653388,16.4847148 7.09878106,15.7980718 C7.081012,15.4146322 7.42792662,15.0842176 7.8104037,15.0658771 C8.19288078,15.0475365 8.52196952,15.3948941 8.53973858,15.7783336 C8.53076882,17.1784315 7.6857281,17.8394604 7.15203141,18.0096023 C6.60942991,18.3670286 6.03126593,18.4123808 5.46200678,18.2704485 Z M1.35680269,3.74317628 C0.858700935,3.61898557 0.538517012,3.08434364 0.663070859,2.58478545 C0.787624706,2.08522725 1.32132951,1.7634837 1.81943127,1.88767441 C2.32642973,1.9761824 2.64661365,2.51082433 2.5131631,3.04606525 C2.38860925,3.54562345 1.85490445,3.867367 1.35680269,3.74317628 Z M8.25505221,7.18481341 C7.75695046,7.06062269 7.43676653,6.52598077 7.56132038,6.02642257 C7.68587423,5.52686437 8.21957903,5.20512082 8.71768079,5.32931154 C9.21578255,5.45350225 9.53596647,5.98814418 9.41141262,6.48770237 C9.28685878,6.98726057 8.75315397,7.30900412 8.25505221,7.18481341 Z M4.60786644,22.7572022 C4.10976468,22.6330115 3.78958076,22.0983695 3.91413461,21.5988113 C4.03868846,21.0992531 4.57239326,20.7775096 5.07049502,20.9017003 C5.56859678,21.025891 5.8887807,21.5605329 5.76422685,22.0600911 C5.639673,22.5596493 5.1059682,22.8813929 4.60786644,22.7572022 Z M17.3570619,7.74106507 C16.8589602,7.61687435 16.5387762,7.08223243 16.6633301,6.58267423 C16.7878839,6.08311604 17.3215887,5.76137248 17.8196905,5.8855632 C18.3177923,6.00975392 18.6379762,6.54439584 18.5134223,7.04395404 C18.3888685,7.54351223 17.8551637,7.86525579 17.3570619,7.74106507 Z M1.36732339,12.7203628 C0.853492101,12.5922503 0.550427362,12.0878659 0.678539891,11.5740346 C0.80665242,11.0602033 1.31103685,10.7571386 1.82486813,10.8852511 C2.33869942,11.0133636 2.64176416,11.517748 2.51365163,12.0315793 C2.3855391,12.5454106 1.88115468,12.8484754 1.36732339,12.7203628 Z M29.9932383,29.6170992 C30.1177516,29.8755494 30.0821567,30.169882 29.8419863,30.3753073 C29.6818699,30.5627913 29.3972323,30.6434269 29.1481814,30.5813315 L29.077024,30.56359 L18.892693,26.6978187 L17.5496073,26.1734452 L14.480967,24.9914371 L13.3424568,24.5559709 L8.57494391,22.7608816 C8.36147173,22.707657 8.18358636,22.5117015 8.13023049,22.2709928 C8.06797792,22.0659669 8.13025484,21.8161878 8.29037115,21.6287037 L19.5963036,9.47672371 C19.7564199,9.28923963 19.9965822,9.23541604 20.2189511,9.25295791 C20.4768987,9.27937054 20.6636808,9.43964331 20.761512,9.65354002 L23.020528,14.5374815 L23.4118531,15.3930683 L24.9060041,18.6460723 L25.5196737,19.974006 L29.9932383,29.6170992 Z M13.5471135,23.1288614 C14.0630898,21.6656699 15.4240501,20.6026612 17.0962732,20.5647821 C18.3504405,20.5363728 19.3645023,19.5005754 19.4090427,18.26095 L19.4090508,18.1093483 C19.435814,16.637885 20.3164658,15.3793201 21.5973476,14.7890576 L19.9164226,11.2241791 L10.0960042,21.8135921 L13.5471135,23.1288614 Z M14.8546205,23.6443642 L18.5458839,25.0574115 C19.1596509,24.5661251 19.9513033,24.2707942 20.7874148,24.2518546 C22.0415822,24.2234454 23.055644,23.1876479 23.1001844,21.9480225 L23.1001925,21.7964208 C23.1447085,21.0116005 23.4026966,20.2800047 23.8118882,19.699811 L22.1398599,16.0992497 C21.3304141,16.4659461 20.7877882,17.2781774 20.7521608,18.1789167 L20.7521527,18.3305184 C20.6719931,20.3192814 19.0530528,21.9622843 17.042828,21.9916919 C16.0110296,22.0376431 15.1570921,22.7343548 14.8546205,23.6443642 Z M20.3425959,25.7327877 L27.965277,28.6566605 L24.5945383,21.4109846 C24.5589515,21.5537155 24.5233647,21.6964464 24.5233566,21.8480481 L24.5233485,21.9996498 C24.4431889,23.9884128 22.8242486,25.6314156 20.8140238,25.6608232 C20.6628123,25.6610229 20.5027041,25.6969053 20.3425959,25.7327877 Z" id="Shape" fill="url(#linearGradient-1)"></path>
    </g>
</svg>