<?xml version="1.0" encoding="UTF-8"?>
<svg width="112px" height="112px" viewBox="0 0 112 112" version="1.1" xmlns="http://www.w3.org/2000/svg" xmlns:xlink="http://www.w3.org/1999/xlink">
    <!-- Generator: Sketch 63.1 (92452) - https://sketch.com -->
    <title>Badge / Jobs / Selected / Contract</title>
    <desc>Created with Sketch.</desc>
    <defs>
        <linearGradient x1="0%" y1="0%" x2="252.959821%" y2="253.935268%" id="linearGradient-1">
            <stop stop-color="#A8DC28" offset="0%"></stop>
            <stop stop-color="#31C5F2" offset="100%"></stop>
        </linearGradient>
    </defs>
    <g id="Badge-/-Jobs-/-Selected-/-Contract" stroke="none" stroke-width="1" fill="none" fill-rule="evenodd">
        <g id="Badge-/-Properties-/-Selected">
            <g id="Badge-/-z.Base-/-Large">
                <g id="Badge-/-z.Base-/-Shapes-/-Large" fill="#FFFFFF" fill-rule="evenodd" stroke="#CBD5D9" stroke-width="1">
                    <rect id="Rectangle" x="0.5" y="0.5" width="111" height="111" rx="4"></rect>
                </g>
                <text id="Category-name" font-family="Poppins-SemiBold, Poppins" font-size="14" font-weight="500" fill="#82C148">
                    <tspan x="24.311" y="81">Contract</tspan>
                </text>
                <g id="Icon-/-Category-/-Jobs-/-Contract" transform="translate(32.000000, 21.000000)" fill="url(#linearGradient-1)" fill-rule="evenodd">
                    <path d="M35.3367412,2.4 C36.371885,2.4 37.2,3.22962963 37.2,4.26666667 L37.2,4.26666667 L37.2,7.06666667 L33.3699681,13.7037037 L33.3699681,6.13333333 L8.52651757,6.13333333 L8.52651757,40.562963 L33.3699681,40.562963 L33.3699681,35.7925926 L35.3367412,34.4444444 C35.7507987,34.237037 36.0613419,33.9259259 36.2683706,33.5111111 L36.2683706,33.5111111 L37.2,31.9555556 L37.2,42.5333333 C37.2,43.5703704 36.371885,44.4 35.3367412,44.4 L35.3367412,44.4 L6.66325879,44.4 C5.62811502,44.4 4.8,43.5703704 4.8,42.5333333 L4.8,42.5333333 L4.8,4.26666667 C4.8,3.22962963 5.62811502,2.4 6.66325879,2.4 L6.66325879,2.4 Z M17.4607804,31.2 C17.6651163,31.2 17.97162,31.2987661 18.0737879,31.4962983 C18.3802917,32.2864273 18.0737879,33.1753223 17.5629484,33.9654513 C17.6651163,33.9654513 17.8694521,34.0642174 17.97162,34.2617496 C17.97162,34.3605157 18.0737879,34.3605157 18.0737879,34.4592818 C18.5846275,34.3605157 18.9932992,34.4592818 19.2998029,35.0518785 C19.4019708,35.2494108 19.4019708,35.3481769 19.4019708,35.446943 C21.2409933,35.2494108 22.6713441,35.6444752 24.5103666,35.6444752 C25.4298778,35.6444752 25.4298778,37.0272009 24.5103666,37.0272009 C22.9778479,37.0272009 21.0366575,36.2370719 19.6063067,36.9284347 C19.4019708,37.0272009 19.0954671,37.2247331 18.7889633,37.125967 C18.4824596,37.0272009 18.0737879,36.9284347 17.97162,36.5333703 C17.97162,36.3358381 17.97162,36.1383058 17.8694521,36.2370719 C17.7672842,36.4346042 17.6651163,36.5333703 17.5629484,36.7309025 C17.0521088,37.3234992 15.9282617,37.0272009 16.2347655,36.2370719 C16.2347655,36.1383058 16.3369334,36.1383058 16.3369334,36.0395397 L16.3369334,36.0395397 L16.3528971,35.9654651 C16.3816318,35.8913905 16.4391013,35.8173159 16.4391013,35.7432414 C16.3369334,35.8420075 16.1325976,35.9407736 16.0304296,36.1383058 C15.5195901,36.8296686 14.2935751,36.2370719 14.8044147,35.446943 C15.2130863,34.9531124 15.5195901,34.4592818 15.8260938,33.9654513 C14.4979109,35.2494108 13.2718959,36.6321364 12.1480489,38.1136281 C11.6372093,38.804991 10.4111943,38.1136281 10.9220339,37.4222653 C12.2502168,35.7432414 13.5783997,34.1629835 15.1109184,32.6814917 C15.7239259,32.088895 16.5412692,31.2 17.4607804,31.2 Z M39.5612903,7.28937722 C39.771871,7.28937722 41.3512258,6.77456444 43.7729032,8.21604023 C46.299871,9.55455347 46.7210323,11.0989918 46.7210323,11.3049169 C46.8263226,11.6138046 46.8263226,11.8197297 46.7210323,12.0256548 L46.7210323,12.0256548 L34.6126452,32.6181662 C34.5073548,32.7211288 34.4020645,32.8240913 34.2967742,32.9270539 L34.2967742,32.9270539 L27.9793548,37.0455562 C27.6634839,37.2514813 27.2423226,37.2514813 26.9264516,37.0455562 C26.6105806,36.8396311 26.4,36.4277808 26.4,36.1188932 L26.4,36.1188932 L26.8211613,28.7055891 C26.8211613,28.6026265 26.8211613,28.3967014 26.9264516,28.2937388 L26.9264516,28.2937388 L39.0348387,7.70122745 C39.140129,7.49530233 39.3507097,7.39233978 39.5612903,7.28937722 Z M28.1899355,30.2500274 L28.0846452,32.5152037 C28.4005161,32.6181662 28.8216774,32.8240913 29.2428387,33.0300164 C29.5587097,33.2359416 29.979871,33.5448292 30.2957419,33.7507543 L30.2957419,33.7507543 L32.1909677,32.5152037 C31.8750968,32.1033534 31.3486452,31.5885406 30.4010323,31.0737279 C29.4534194,30.5589151 28.7163871,30.35299 28.1899355,30.2500274 L28.1899355,30.2500274 Z M20.9485714,24 C21.9771429,24 22.8,24.8 22.8,25.8 C22.8,26.8 21.9771429,27.6 20.9485714,27.6 L20.9485714,27.6 L13.8514286,27.6 C12.8228571,27.6 12,26.8 12,25.8 C12,24.8 12.8228571,24 13.8514286,24 L13.8514286,24 Z M28.1485714,16.8 C29.1771429,16.8 30,17.6 30,18.6 C30,19.6 29.0742857,20.4 28.0457143,20.4 L28.0457143,20.4 L13.8514286,20.4 C12.8228571,20.4 12,19.6 12,18.6 C12,17.6 12.8228571,16.8 13.8514286,16.8 L13.8514286,16.8 Z M28.1308701,9.6 C29.1649002,9.6 30.0955273,10.4 29.9921243,11.4 C29.9921243,12.4 29.1649002,13.2 28.1308701,13.2 L28.1308701,13.2 L13.8612542,13.2 C12.8272241,13.2 12,12.4 12,11.4 C12,10.4 12.8272241,9.6 13.8612542,9.6 L13.8612542,9.6 Z" id="Combined-Shape"></path>
                </g>
            </g>
            <g id="Badge-/-z.Base-/-Shapes-/-Large" stroke="#91D851" stroke-width="3">
                <rect id="Rectangle" x="1.5" y="1.5" width="109" height="109" rx="4"></rect>
            </g>
            <g id="Icon-/-Check-/-Checkbox" transform="translate(80.000000, 8.000000)" fill="#91D851" fill-rule="evenodd">
                <path d="M10.9709463,13.366529 L16.3112027,6.57437624 C16.8225102,5.92405564 17.7675383,5.80875183 18.4219821,6.31683796 C19.0764259,6.8249241 19.1924607,7.76399831 18.6811532,8.41431891 C14.2260171,13.9508613 11.8927875,16.7447414 11.6814646,16.7959592 C11.0876228,17.1417187 10.3115238,17.0459069 9.82251261,16.5248105 L6.403984,12.8819836 C5.83758363,12.2784203 5.87081232,11.3328702 6.47820235,10.7700383 C7.08559238,10.2072064 8.0371375,10.2402257 8.60353787,10.843789 L10.9709463,13.366529 Z" id="Path"></path>
            </g>
        </g>
    </g>
</svg>