<?xml version="1.0" encoding="UTF-8"?>
<svg width="112px" height="112px" viewBox="0 0 112 112" version="1.1" xmlns="http://www.w3.org/2000/svg" xmlns:xlink="http://www.w3.org/1999/xlink">
    <!-- Generator: Sketch 63.1 (92452) - https://sketch.com -->
    <title>Badge / Jobs / Hover / Full Time</title>
    <desc>Created with Sketch.</desc>
    <g id="Badge-/-Jobs-/-Hover-/-Full-Time" stroke="none" stroke-width="1" fill="none" fill-rule="evenodd">
        <g id="Category-buttons-/-Home&amp;PAA-/-Hover-/-Ic-btn-Adult-Hover-">
            <g id="Badge-/-z.Base-/-1">
                <g id="Badge-/-z.Base-/-Large">
                    <g id="Badge-/-z.Base-/-Shapes-/-Large" fill="#FFFFFF" fill-rule="evenodd" stroke="#CBD5D9" stroke-width="1">
                        <rect id="Rectangle" x="0.5" y="0.5" width="111" height="111" rx="4"></rect>
                    </g>
                    <text id="Category-name" font-family="Poppins-SemiBold, Poppins" font-size="14" font-weight="500" fill="#82C148">
                        <tspan x="24.465" y="81">Full Time</tspan>
                    </text>
                    <g id="Icon-/-Category-/-Jobs-/-Full-Time" transform="translate(32.000000, 21.000000)" fill="#91D851" fill-rule="evenodd">
                        <path d="M24,2.09514 C36.0814239,2.09514 45.90486,11.8831125 45.90486,24 C45.90486,36.102274 36.0965706,45.8043364 24,45.8043364 C11.9185761,45.8043364 2.09514,36.016364 2.09514,23.8994764 C2.09514,18.4724761 4.03228297,13.4276939 7.46964137,9.51536441 L4.8,9.5151512 C3.36848621,9.5151512 2.19672156,8.40303296 2.10155977,6.9956502 L2.09532,6.8104712 C2.09532,5.37895742 3.20743825,4.20719276 4.614821,4.11203098 L4.8,4.1057912 L14.4,4.1057912 C15.8315138,4.1057912 17.0032784,5.21790945 17.0984402,6.62529221 L17.10468,6.8104712 L17.10468,14.852356 C17.10468,16.3461095 15.8937535,17.557036 14.4,17.557036 C12.9684862,17.557036 11.7967216,16.4449178 11.7015598,15.037535 L11.69532,14.852356 L11.6955066,12.9044542 C9.01381751,15.8664117 7.50486,19.7182565 7.50486,23.8994764 C7.50486,33.0242696 14.901911,40.3946164 24,40.3946164 C33.1219719,40.3946164 40.49514,33.1013021 40.49514,24 C40.49514,14.8752068 33.098089,7.50486 24,7.50486 C22.5061471,7.50486 21.29514,6.29385293 21.29514,4.8 C21.29514,3.30614707 22.5061471,2.09514 24,2.09514 Z M19.3058824,18.3706806 C21.5294118,18.3706806 22.6941176,19.5769634 22.6941176,21.3863874 C22.6941176,22.4921466 22.1647059,23.4973822 21.2117647,24.6031414 L18.3529412,27.8198953 L22.8,27.8198953 L22.8,29.5287958 L15.7058824,29.5287958 L15.6,28.121466 L19.0941176,23.8994764 C19.9411765,22.8942408 20.3647059,22.4921466 20.3647059,21.486911 C20.3647059,20.4816754 19.7294118,20.0795812 18.8823529,20.0795812 C18.3529412,20.0795812 18.0352941,20.1801047 17.8235294,20.1801047 C17.5058824,20.2806283 17.5058824,20.4816754 17.5058824,20.7832461 L17.5058824,21.9895288 L15.7058824,21.8890052 L15.7058824,19.1748691 C16.6588235,18.7727749 17.9294118,18.3706806 19.3058824,18.3706806 Z M26.9538462,18.1696335 L28.4307692,18.973822 L25.9384615,24.7036649 L28.1538462,24.7036649 L28.1538462,23.7989529 L28.8,21.5874346 L29.8153846,21.5874346 L29.8153846,21.5874346 L29.8153846,24.7036649 L31.2,24.7036649 L31.2,26.3120419 L29.8153846,26.3120419 L29.8153846,27.8198953 L31.1076923,27.9204188 L31.1076923,29.3277487 L26.5846154,29.3277487 L26.5846154,27.9204188 L27.5076923,27.8198953 C27.7846154,27.8198953 27.9692308,27.7193717 27.9692308,27.3172775 L27.9692308,26.2115183 L24,26.2115183 L24,24.8041885 L26.9538462,18.1696335 Z" id="Combined-Shape"></path>
                    </g>
                </g>
            </g>
        </g>
    </g>
</svg>