<?xml version="1.0" encoding="UTF-8"?>
<svg width="112px" height="112px" viewBox="0 0 112 112" version="1.1" xmlns="http://www.w3.org/2000/svg" xmlns:xlink="http://www.w3.org/1999/xlink">
    <!-- Generator: Sketch 63.1 (92452) - https://sketch.com -->
    <title>Badge / Jobs / Selected / Home Working</title>
    <desc>Created with Sketch.</desc>
    <g id="Badge-/-Jobs-/-Selected-/-Home-Working" stroke="none" stroke-width="1" fill="none" fill-rule="evenodd">
        <g id="Badge-/-Properties-/-Selected">
            <g id="Badge-/-z.Base-/-Large">
                <g id="Badge-/-z.Base-/-Shapes-/-Large" fill="#FFFFFF" fill-rule="evenodd" stroke="#CBD5D9" stroke-width="1">
                    <rect id="Rectangle" x="0.5" y="0.5" width="111" height="111" rx="4"></rect>
                </g>
                <text id="Category-name" font-family="Poppins-SemiBold, Poppins" font-size="14" font-weight="500" fill="#82C148">
                    <tspan x="3.325" y="81">Home Working</tspan>
                </text>
                <g id="Icon-/-Category-/-Jobs-/-Home-working" transform="translate(32.000000, 21.000000)" fill="#91D851" fill-rule="evenodd">
                    <path d="M23.9493404,12.6 L41.0279683,26.4613861 C41.1261214,26.4613861 41.1261214,26.560396 41.2242744,26.560396 L41.2242744,26.560396 L41.2242744,40.619802 C41.2242744,41.1148515 41.0279683,41.5108911 40.6353562,41.9069307 C40.2427441,42.3029703 39.7519789,42.5009901 39.2612137,42.5009901 L39.2612137,42.5009901 L28.3662269,42.5009901 L28.3662269,42.5009901 L28.3662269,31.3128713 C28.3662269,30.1247525 27.3846966,29.1346535 26.2068602,29.1346535 L26.2068602,29.1346535 L21.8881266,29.1346535 C20.7102902,29.1346535 19.7287599,30.1247525 19.7287599,31.3128713 L19.7287599,31.3128713 L19.7287599,42.6 L8.83377309,42.6 C8.24485488,42.6 7.85224274,42.4019802 7.45963061,42.0059406 C7.06701847,41.7089109 6.8707124,41.2138614 6.8707124,40.7188119 L6.8707124,40.7188119 L6.8707124,26.4613861 L23.9493404,12.6 Z M40.144591,5.4 C40.4390501,5.4 40.6353562,5.5027027 40.8316623,5.70810811 C41.0279683,5.91351351 41.1261214,6.11891892 41.1261214,6.42702703 L41.1261214,6.42702703 L41.1261214,18.7513514 L47.6042216,24.2972973 C47.8005277,24.4 47.8986807,24.7081081 47.8986807,24.9135135 C47.8986807,25.2216216 47.8986807,25.427027 47.7023747,25.6324324 L47.7023747,25.6324324 L45.837467,27.8918919 C45.739314,28.0972973 45.5430079,28.2 45.2485488,28.2 L45.2485488,28.2 L45.1503958,28.2 C44.9540897,28.2 44.7577836,28.0972973 44.5614776,27.9945946 L44.5614776,27.9945946 L23.9493404,10.5351351 L3.33720317,27.9945946 C3.1408971,28.2 2.84643799,28.2 2.65013193,28.2 C2.45382586,28.2 2.25751979,28.0972973 2.06121372,27.8918919 L2.06121372,27.8918919 L0.196306069,25.6324324 C0.0981530343,25.427027 -2.09610107e-12,25.2216216 -2.09610107e-12,24.9135135 C-2.09610107e-12,24.7081081 0.0981530343,24.5027027 0.294459103,24.2972973 L0.294459103,24.2972973 L21.6918206,6.22162162 C22.2807388,5.70810811 23.0659631,5.4 23.9493404,5.4 C24.8327177,5.4 25.617942,5.70810811 26.2068602,6.22162162 L26.2068602,6.22162162 L33.4701847,12.3837838 L33.4701847,6.42702703 C33.4701847,6.11891892 33.5683377,5.91351351 33.7646438,5.70810811 C33.9609499,5.5027027 34.1572559,5.4 34.451715,5.4 L34.451715,5.4 Z" id="Combined-Shape"></path>
                </g>
            </g>
            <g id="Badge-/-z.Base-/-Shapes-/-Large" stroke="#91D851" stroke-width="3">
                <rect id="Rectangle" x="1.5" y="1.5" width="109" height="109" rx="4"></rect>
            </g>
            <g id="Icon-/-Check-/-Checkbox" transform="translate(80.000000, 8.000000)" fill="#91D851" fill-rule="evenodd">
                <path d="M10.9709463,13.366529 L16.3112027,6.57437624 C16.8225102,5.92405564 17.7675383,5.80875183 18.4219821,6.31683796 C19.0764259,6.8249241 19.1924607,7.76399831 18.6811532,8.41431891 C14.2260171,13.9508613 11.8927875,16.7447414 11.6814646,16.7959592 C11.0876228,17.1417187 10.3115238,17.0459069 9.82251261,16.5248105 L6.403984,12.8819836 C5.83758363,12.2784203 5.87081232,11.3328702 6.47820235,10.7700383 C7.08559238,10.2072064 8.0371375,10.2402257 8.60353787,10.843789 L10.9709463,13.366529 Z" id="Path"></path>
            </g>
        </g>
    </g>
</svg>