<?xml version="1.0" encoding="UTF-8"?>
<svg width="112px" height="112px" viewBox="0 0 112 112" version="1.1" xmlns="http://www.w3.org/2000/svg" xmlns:xlink="http://www.w3.org/1999/xlink">
    <!-- Generator: Sketch 63.1 (92452) - https://sketch.com -->
    <title>Badge / Jobs / Normal / Wanted</title>
    <desc>Created with Sketch.</desc>
    <defs>
        <linearGradient x1="9.15310651%" y1="0%" x2="215.805564%" y2="253.935268%" id="linearGradient-1">
            <stop stop-color="#A8DC28" offset="0%"></stop>
            <stop stop-color="#31C5F2" offset="100%"></stop>
        </linearGradient>
    </defs>
    <g id="Badge-/-Jobs-/-Normal-/-Wanted" stroke="none" stroke-width="1" fill="none" fill-rule="evenodd">
        <g id="Badge-/-z.Base-/-Large">
            <g id="Badge-/-z.Base-/-Shapes-/-Large" fill="#FFFFFF" fill-rule="evenodd" stroke="#CBD5D9" stroke-width="1">
                <rect id="Rectangle" x="0.5" y="0.5" width="111" height="111" rx="4"></rect>
            </g>
            <text id="Category-name" font-family="Poppins-SemiBold, Poppins" font-size="14" font-weight="500" fill="#313133">
                <tspan x="27.678" y="81">Wanted </tspan>
            </text>
            <g id="Icon-/-Category-/-Jobs-/-Wanted" transform="translate(32.000000, 21.000000)" fill="url(#linearGradient-1)" fill-rule="evenodd">
                <path d="M16.5253846,30 C17.1830769,30 17.7311538,30.4280255 17.9503846,30.9630573 L17.9503846,30.9630573 L18.013864,31.1223526 C19.0363572,33.7021696 21.3484615,40.1656051 21.3484615,40.1656051 L21.3484615,40.1656051 L26.8292308,40.1656051 C26.8292308,40.1656051 28.4734615,33.5312102 29.46,31.0700637 L29.46,31.0700637 L29.5163294,30.9486404 C29.7641989,30.4717145 30.2778994,30.1070064 30.885,30.1070064 C31.1042308,30.1070064 31.3234615,30.1070064 31.4330769,30.2140127 L31.4330769,30.2140127 L31.4534209,30.223481 C31.8886587,30.4212512 37.5424568,32.8214741 41.4080769,34.7082803 C43.2715385,35.6713376 44.2580769,36.7414013 44.3676923,37.7044586 L44.3676923,37.7044586 L44.3676923,46.8 L3.15230769,46.8 L3.15230769,46.8 L3.15230769,37.7044586 C3.15230769,36.6343949 4.24846154,35.4573248 6.00230769,34.6012739 C9.94846154,32.6751592 15.6484615,30.2140127 15.9773077,30.1070064 L15.9773077,30.1070064 L16.0974462,30.0547873 C16.2447692,30 16.35,30 16.5253846,30 Z M26.2811538,30 C26.7196154,30 27.0484615,30.4048193 26.8292308,30.8096386 L26.8292308,30.8096386 L25.8426923,32.8337349 L25.7330769,32.9349398 L25.7330769,38.4 L22.0061538,38.4 L22.0061538,33.0361446 C21.8965385,32.9349398 21.7869231,32.8337349 21.7869231,32.7325301 L21.7869231,32.7325301 L20.91,30.7084337 C20.6907692,30.4048193 21.0196154,30 21.4580769,30 L21.4580769,30 Z M24.1090909,1.2 C33.0545455,1.2 34.6909091,7.65483871 34.4727273,10.2145161 C34.2545455,12.2177419 33.8181818,14.8887097 33.8181818,14.8887097 C33.8181818,14.8887097 34.8,15.333871 34.8,17.1145161 C34.4727273,21.566129 32.7272727,19.5629032 32.4,21.566129 C31.7454545,24.9048387 28.9090909,27.2419355 27.1636364,28.0209677 C26.1818182,28.5774194 25.0909091,28.8 24,28.8 L24,28.8 L23.6365133,28.7586287 C22.6680135,28.6364994 21.7090909,28.4166667 20.8363636,28.0209677 C18.9818182,27.1306452 16.1454545,24.7935484 15.6,21.566129 C15.2727273,19.6741935 13.5272727,21.566129 13.2,17.1145161 C13.2,15.333871 14.1818182,14.8887097 14.1818182,14.8887097 C14.1818182,14.8887097 13.7454545,12.2177419 13.5272727,10.2145161 C13.2,7.76612903 14.9454545,1.2 23.8909091,1.2 L23.8909091,1.2 Z M28.7114958,9.04 C26.4983932,11.4933333 22.4937315,14.2666667 15.7490381,13.9466667 C15.6436522,14.5866667 15.5382664,15.2266667 15.6436522,15.9733333 C16.2759673,21.4133333 19.648314,26.96 24.2852907,26.96 C28.8168816,26.96 32.2946142,21.2 32.4,15.9733333 L32.4,15.9733333 L32.4,15.76 C32.4,15.76 29.6599683,12.4533333 28.7114958,9.04 Z" id="Combined-Shape"></path>
            </g>
        </g>
    </g>
</svg>