<?xml version="1.0" encoding="UTF-8"?>
<svg width="24px" height="24px" viewBox="0 0 24 24" version="1.1" xmlns="http://www.w3.org/2000/svg" xmlns:xlink="http://www.w3.org/1999/xlink">
    <!-- Generator: Sketch 64 (93537) - https://sketch.com -->
    <title>Icon / Arrow / 4 / Back</title>
    <desc>Created with Sketch.</desc>
    <g id="Icon-/-Arrow-/-4-/-Back" stroke="none" stroke-width="1" fill="none" fill-rule="evenodd">
        <path d="M12.0447014,3.3679582 C12.6699233,3.91145529 12.7361743,4.85888923 12.1926772,5.48411111 L6.56459574,11.9584783 L12.4078363,18.6803576 C12.9513334,19.3055795 12.8850823,20.2530134 12.2598605,20.7965105 C11.6346386,21.3400076 10.6872046,21.2737565 10.1437075,20.6485347 C5.79158683,15.726683 3.58232899,13.236899 3.51593403,13.1791827 C2.89071214,12.6356856 2.8244611,11.6882517 3.3679582,11.0630298 L9.92854849,3.51593403 C10.4720456,2.89071214 11.4194795,2.8244611 12.0447014,3.3679582 Z M21.0447014,3.3679582 C21.6699233,3.91145529 21.7361743,4.85888923 21.1926772,5.48411111 L15.5645957,11.9584783 L21.4078363,18.6803576 C21.9513334,19.3055795 21.8850823,20.2530134 21.2598605,20.7965105 C20.6346386,21.3400076 19.6872046,21.2737565 19.1437075,20.6485347 C14.7915868,15.726683 12.582329,13.236899 12.515934,13.1791827 C11.8907121,12.6356856 11.8244611,11.6882517 12.3679582,11.0630298 L18.9285485,3.51593403 C19.4720456,2.89071214 20.4194795,2.8244611 21.0447014,3.3679582 Z" id="Combined-Shape" fill="#212527"></path>
    </g>
</svg>