<?xml version="1.0" encoding="UTF-8"?>
<svg width="24px" height="24px" viewBox="0 0 24 24" version="1.1" xmlns="http://www.w3.org/2000/svg" xmlns:xlink="http://www.w3.org/1999/xlink">
    <title>Icon / Basket / Normal</title>
    <g id="Icon-/-Basket-/-Normal" stroke="none" stroke-width="1" fill="none" fill-rule="evenodd">
        <path d="M14.3885259,4.02638355 C14.5709902,3.95359456 14.7785137,4.03627654 14.8609293,4.21459961 L14.8609293,4.21459961 L16.7087554,8.83416482 L19.0647337,8.83416482 C19.9908105,8.82228141 20.7664622,9.53261022 20.8358871,10.4561576 C20.905312,11.3797049 20.244571,12.1980103 19.327125,12.3247083 L19.327125,12.3247083 L18.1740815,17.5706866 C17.9459167,18.5846078 17.0476948,19.3065575 16.0084293,19.3113387 L16.0084293,19.3113387 L8.81669022,19.3113387 C7.7775647,19.3055026 6.88015487,18.5828233 6.65288587,17.5688387 L6.65288587,17.5688387 L5.49984239,12.3228605 C4.58912789,12.1896424 3.93638956,11.3749912 4.00493664,10.4571408 C4.07348373,9.53929047 4.83998624,8.83063131 5.76038587,8.83416482 L5.76038587,8.83416482 L8.11636413,8.83416482 L9.96419022,4.21459961 C10.0466059,4.03627654 10.2541294,3.95359456 10.4365937,4.02638355 C10.619058,4.09917254 10.7126889,4.30199159 10.6497337,4.48807787 L10.6497337,4.48807787 L8.91277717,8.84155613 L15.9123424,8.84155613 L14.1753859,4.48807787 C14.1124307,4.30199159 14.2060616,4.09917254 14.3885259,4.02638355 Z M18.5639728,12.3468822 L6.26484239,12.3468822 L7.37353804,17.4117735 C7.5226947,18.0893016 8.12293817,18.5719557 8.81669022,18.5722083 L8.81669022,18.5722083 L16.0084293,18.5722083 C16.7021814,18.5719557 17.3024249,18.0893016 17.4515815,17.4117735 L17.4515815,17.4117735 L18.5639728,12.3468822 Z M12.4125598,13.36873 C12.616665,13.36873 12.782125,13.53419 12.782125,13.7382953 L12.782125,13.7382953 L12.782125,17.4801431 C12.782125,17.6842483 12.616665,17.8497083 12.4125598,17.8497083 C12.2084545,17.8497083 12.0429946,17.6842483 12.0429946,17.4801431 L12.0429946,17.4801431 L12.0429946,13.7382953 C12.0429946,13.53419 12.2084545,13.36873 12.4125598,13.36873 Z M14.6299511,13.36873 C14.8340563,13.36873 14.9995163,13.53419 14.9995163,13.7382953 L14.9995163,13.7382953 L14.9995163,17.4801431 C14.9995163,17.6842483 14.8340563,17.8497083 14.6299511,17.8497083 C14.4258459,17.8497083 14.2603859,17.6842483 14.2603859,17.4801431 L14.2603859,17.4801431 L14.2603859,13.7382953 C14.2603859,13.53419 14.4258459,13.36873 14.6299511,13.36873 Z M10.1951685,13.36873 C10.3992737,13.36873 10.5647337,13.53419 10.5647337,13.7382953 L10.5647337,13.7382953 L10.5647337,17.4801431 C10.5647337,17.6842483 10.3992737,17.8497083 10.1951685,17.8497083 C9.99106324,17.8497083 9.82560326,17.6842483 9.82560326,17.4801431 L9.82560326,17.4801431 L9.82560326,13.7382953 C9.82560326,13.53419 9.99106324,13.36873 10.1951685,13.36873 Z M19.0647337,9.57329526 L5.76038587,9.57329526 C5.19909648,9.57329526 4.74408152,10.0283102 4.74408152,10.5895996 C4.74408152,11.150889 5.19909648,11.605904 5.76038587,11.605904 L5.76038587,11.605904 L19.0647337,11.605904 C19.6260231,11.605904 20.081038,11.150889 20.081038,10.5895996 C20.081038,10.0283102 19.6260231,9.57329526 19.0647337,9.57329526 L19.0647337,9.57329526 Z" id="Combined-Shape" stroke="#91D851" stroke-width="0.2" fill="#91D851"></path>
    </g>
</svg>