<?xml version="1.0" encoding="UTF-8"?>
<svg width="24px" height="24px" viewBox="0 0 24 24" version="1.1" xmlns="http://www.w3.org/2000/svg" xmlns:xlink="http://www.w3.org/1999/xlink">
    <title>Mobile / Search / Normal / Green</title>
    <g id="Mobile-/-Search-/-Normal-/-Green" stroke="none" stroke-width="1" fill="none" fill-rule="evenodd">
        <path d="M10.7867966,2 C15.6396103,2 19.5735931,5.93398282 19.5735931,10.7867966 C19.5735931,12.6744396 18.978363,14.4230591 17.9653575,15.8552003 L21.5627628,19.4519558 L19.4414425,21.5732761 L15.8422417,17.9745061 C14.4125167,18.9819458 12.6687499,19.5735931 10.7867966,19.5735931 C5.93398282,19.5735931 2,15.6396103 2,10.7867966 C2,5.93398282 5.93398282,2 10.7867966,2 Z M10.75,5 C7.57436269,5 5,7.57436269 5,10.75 C5,13.9256373 7.57436269,16.5 10.75,16.5 C13.9256373,16.5 16.5,13.9256373 16.5,10.75 C16.5,7.57436269 13.9256373,5 10.75,5 Z" id="Combined-Shape" fill="#91D851"></path>
    </g>
</svg>