<?xml version="1.0" encoding="UTF-8"?>
<svg width="24px" height="24px" viewBox="0 0 24 24" version="1.1" xmlns="http://www.w3.org/2000/svg" xmlns:xlink="http://www.w3.org/1999/xlink">
    <title>Icon / 24 / Categories / Property / G</title>
    <g id="Icon-/-24-/-Categories-/-Property-/-G" stroke="none" stroke-width="1" fill="none" fill-rule="evenodd">
        <path d="M19.884715,10.3444735 C20.206745,10.3444735 20.4684552,10.6063783 20.4684552,10.9282138 L20.4684552,10.9282138 L20.4684552,20.3610676 L21.5345596,20.3610676 C21.8563951,20.3610676 22.1182999,20.6229724 22.1182999,20.9448079 C22.1182999,21.2666434 21.8563951,21.5285482 21.5345596,21.5285482 L21.5345596,21.5285482 L2.46571035,21.5285482 C2.14387488,21.5285482 1.88197007,21.2666434 1.88197007,20.9448079 C1.88197007,20.6229724 2.14387488,20.3610676 2.46571035,20.3610676 L2.46571035,20.3610676 L3.53181469,20.3610676 L3.53181469,10.9282138 C3.53181469,10.6063783 3.79352491,10.3444735 4.11555497,10.3444735 C4.43739045,10.3444735 4.69929525,10.6063783 4.69929525,10.9282138 L4.69929525,10.9282138 L4.69929525,20.3610676 L19.3009747,20.3610676 L19.3009747,10.9282138 C19.3009747,10.6063783 19.5628795,10.3444735 19.884715,10.3444735 Z M14.3539704,10.2429027 C15.1231455,10.2429027 16.7115028,10.8575812 16.7115028,12.7576559 C16.7115028,14.9065984 14.0696888,17.3044089 12.2433601,18.1405196 C12.1663064,18.1757386 12.0847773,18.1934454 12.0003295,18.1934454 C11.9156872,18.1934454 11.8341581,18.1757386 11.757299,18.1405196 C9.93097024,17.3044089 7.28876715,14.9062093 7.28876715,12.7576559 C7.28876715,10.8575812 8.87751361,10.2429027 9.64688331,10.2429027 C10.3545711,10.2429027 11.3541291,10.575051 12.0003295,11.2121062 C12.64653,10.575051 13.646088,10.2429027 14.3539704,10.2429027 Z M14.3539704,11.4103833 C13.5334261,11.4103833 12.5840698,12.0431578 12.5840698,12.4560567 C12.5840698,12.7778922 12.322165,13.039797 12.0003295,13.039797 C11.6784941,13.039797 11.4165893,12.7778922 11.4165893,12.4560567 C11.4165893,12.0431578 10.4674276,11.4103833 9.64688331,11.4103833 C9.33789012,11.4103833 8.45624771,11.6578892 8.45624771,12.7576559 C8.45624771,14.2971736 10.5209371,16.1904379 12.0003295,16.9601967 C13.479722,16.1904379 15.5440222,14.2973682 15.5440222,12.7576559 C15.5440222,11.6578892 14.662769,11.4103833 14.3539704,11.4103833 Z M11.6473418,2.3683047 C11.8551533,2.21050024 12.1450777,2.21069482 12.3530838,2.36811012 L12.3530838,2.36811012 L23.0195754,10.4630312 C23.2756428,10.6576113 23.326039,11.0245893 23.1316535,11.2810459 C22.9419379,11.530303 22.5636742,11.5824505 22.3138334,11.393124 L22.3138334,11.393124 L12.0001155,3.56613976 L1.6865922,11.393124 C1.58424307,11.4709561 1.46165761,11.5120125 1.33518055,11.5120125 C1.30832849,11.5120125 1.28147644,11.5102613 1.25481897,11.5065642 C1.10032237,11.485355 0.963143408,11.4053826 0.868772062,11.2810459 C0.774595296,11.1567092 0.734317217,11.0031855 0.755526447,10.8486889 C0.776735677,10.6941923 0.857097256,10.5570134 0.981433936,10.4628366 L0.981433936,10.4628366 Z" id="Combined-Shape" fill="#212527"></path>
    </g>
</svg>