<?xml version="1.0" encoding="UTF-8"?>
<svg width="32px" height="32px" viewBox="0 0 32 32" version="1.1" xmlns="http://www.w3.org/2000/svg" xmlns:xlink="http://www.w3.org/1999/xlink">
    <!-- Generator: Sketch 64 (93537) - https://sketch.com -->
    <title>Icon / 32 / Other / Location2</title>
    <desc>Created with Sketch.</desc>
    <defs>
        <linearGradient x1="26.08545%" y1="0%" x2="147.073856%" y2="253.935268%" id="linearGradient-1">
            <stop stop-color="#A8DC28" offset="0%"></stop>
            <stop stop-color="#31C5F2" offset="100%"></stop>
        </linearGradient>
    </defs>
    <g id="Icon-/-32-/-Other-/-Location2" stroke="none" stroke-width="1" fill="none" fill-rule="evenodd">
        <path d="M16.3736364,1 C22.0936364,1 26.7475758,5.65393939 26.7475758,11.3739394 C26.7475758,13.070303 26.3269697,14.7548485 25.5312121,16.2448485 C25.5236364,16.2621212 25.5060606,16.2963636 25.489697,16.3233333 C25.4072727,16.4757576 25.3136364,16.6357576 25.2169697,16.7945455 L25.2169697,16.7945455 L18.0663636,29.1818182 L20.68,29.1818182 C21.1815152,29.1818182 21.5890909,29.589697 21.5890909,30.0909091 C21.5890909,30.5921212 21.1815152,31 20.68,31 L20.68,31 L12.0672727,31 C11.5660606,31 11.1581818,30.5921212 11.1581818,30.0909091 C11.1581818,29.589697 11.5660606,29.1818182 12.0672727,29.1818182 L12.0672727,29.1818182 L14.6845455,29.1818182 L7.52121212,16.7784848 C7.43484848,16.6375758 7.34060606,16.4757576 7.25060606,16.310303 C7.23575758,16.2863636 7.21606061,16.2481818 7.2,16.2118182 C6.41848485,14.7448485 6,13.0648485 6,11.3739394 C6,5.65393939 10.6536364,1 16.3736364,1 Z M16.3736364,2.81818182 C11.6566667,2.81818182 7.81878788,6.65606061 7.81878788,11.3739394 C7.81878788,12.7784848 8.16787879,14.1721212 8.82818182,15.4030303 C8.83545455,15.4169697 8.84151515,15.4284848 8.84636364,15.44 C8.92212121,15.5784848 9.00121212,15.7145455 9.08393939,15.8490909 L9.08393939,15.8490909 L16.3754545,28.4742424 L23.6521212,15.8693939 C23.7415152,15.7215152 23.82,15.5875758 23.8945455,15.4515152 L23.8945455,15.4515152 L23.9212121,15.4006061 C24.58,14.1718182 24.9293939,12.7784848 24.9293939,11.3739394 C24.9293939,6.65606061 21.0915152,2.81818182 16.3736364,2.81818182 Z M16.3737879,5.59578788 C19.0904545,5.59578788 21.3007576,7.80578788 21.3007576,10.5221515 C21.3007576,13.237303 19.0904545,15.4463939 16.3737879,15.4463939 C13.6568182,15.4463939 11.4465152,13.237303 11.4465152,10.5221515 C11.4465152,7.80578788 13.6568182,5.59578788 16.3737879,5.59578788 Z M16.3737879,7.4139697 C14.6595455,7.4139697 13.264697,8.80851515 13.264697,10.5221515 C13.264697,12.2348788 14.6595455,13.6282121 16.3737879,13.6282121 C18.0877273,13.6282121 19.4825758,12.2348788 19.4825758,10.5221515 C19.4825758,8.80851515 18.0877273,7.4139697 16.3737879,7.4139697 Z" id="Combined-Shape" fill="url(#linearGradient-1)"></path>
    </g>
</svg>