<svg xmlns="http://www.w3.org/2000/svg" width="24" height="24" viewBox="0 0 24 24">
  <path fill="#212527" fill-rule="evenodd" d="M11.534,13.074 L9.42,13.074 C9.27066592,13.074 9.16333366,13.0180006 9.098,12.906 C9.03266634,12.7939994 9,12.6166679 9,12.374 L9,12.276 C9,12.0333321 9.03266634,11.8560006 9.098,11.744 C9.16333366,11.6319994 9.27066592,11.576 9.42,11.576 L11.534,11.576 L13.13,11.576 L15.272,11.576 C15.4213341,11.576 15.5286663,11.6319994 15.594,11.744 C15.6593337,11.8560006 15.692,12.0333321 15.692,12.276 L15.692,12.374 C15.692,12.6166679 15.6593337,12.7939994 15.594,12.906 C15.5286663,13.0180006 15.4213341,13.074 15.272,13.074 L13.13,13.074 L11.534,13.074 Z"/>
</svg>
