<svg xmlns="http://www.w3.org/2000/svg" width="24" height="24" viewBox="0 0 24 24">
  <path fill="#212527" fill-rule="evenodd" d="M12.234,15.622 C11.9913321,15.622 11.8140006,15.5893337 11.702,15.524 C11.5899994,15.4586663 11.534,15.3513341 11.534,15.202 L11.534,13.074 L9.42,13.074 C9.27066592,13.074 9.16333366,13.0180006 9.098,12.906 C9.03266634,12.7939994 9,12.6166679 9,12.374 L9,12.276 C9,12.0333321 9.03266634,11.8560006 9.098,11.744 C9.16333366,11.6319994 9.27066592,11.576 9.42,11.576 L11.534,11.576 L11.534,9.42 C11.534,9.27066592 11.5899994,9.16333366 11.702,9.098 C11.8140006,9.03266634 11.9913321,9 12.234,9 L12.43,9 C12.6726679,9 12.8499994,9.03266634 12.962,9.098 C13.0740006,9.16333366 13.13,9.27066592 13.13,9.42 L13.13,11.576 L15.272,11.576 C15.4213341,11.576 15.5286663,11.6319994 15.594,11.744 C15.6593337,11.8560006 15.692,12.0333321 15.692,12.276 L15.692,12.374 C15.692,12.6166679 15.6593337,12.7939994 15.594,12.906 C15.5286663,13.0180006 15.4213341,13.074 15.272,13.074 L13.13,13.074 L13.13,15.202 C13.13,15.3513341 13.0740006,15.4586663 12.962,15.524 C12.8499994,15.5893337 12.6726679,15.622 12.43,15.622 L12.234,15.622 Z"/>
</svg>
