<?xml version="1.0" encoding="UTF-8"?>
<svg width="112px" height="112px" viewBox="0 0 112 112" version="1.1" xmlns="http://www.w3.org/2000/svg" xmlns:xlink="http://www.w3.org/1999/xlink">
    <!-- Generator: Sketch 63.1 (92452) - https://sketch.com -->
    <title>Badge / Properties / Selected / Land</title>
    <desc>Created with Sketch.</desc>
    <defs>
        <linearGradient x1="5.12465374%" y1="0%" x2="232.157845%" y2="253.935268%" id="linearGradient-1">
            <stop stop-color="#A8DC28" offset="0%"></stop>
            <stop stop-color="#31C5F2" offset="100%"></stop>
        </linearGradient>
    </defs>
    <g id="Badge-/-Properties-/-Selected-/-Land" stroke="none" stroke-width="1" fill="none" fill-rule="evenodd">
        <g id="Badge-/-Properties-/-Selected">
            <g id="Badge-/-z.Base-/-Large">
                <g id="Badge-/-z.Base-/-Shapes-/-Large" fill="#FFFFFF" fill-rule="evenodd" stroke="#CBD5D9" stroke-width="1">
                    <rect id="Rectangle" x="0.5" y="0.5" width="111" height="111" rx="4"></rect>
                </g>
                <text id="Category-name" font-family="Poppins-SemiBold, Poppins" font-size="14" font-weight="500" fill="#82C148">
                    <tspan x="38.668" y="81">Land</tspan>
                </text>
                <g id="Icon-/-Category-/-Properties-/-Land" transform="translate(32.000000, 21.000000)" fill="url(#linearGradient-1)" fill-rule="evenodd">
                    <path d="M13.651773,35.571602 L11.0287603,42 L10.108,39.729 L3.10246787,46.8 L2.4,46.0911098 L9.369,39.058 L7.2,38.1856877 L13.651773,35.571602 Z M35.548227,35.571602 L42,38.1856877 L39.2726906,39.2820111 L39.15,39.583 L45.6,46.0911098 L44.8975321,46.8 L38.743,40.589 L38.1712397,42 L35.548227,35.571602 Z M33.8404907,14.4239203 L33.8404907,33.0575351 L15.1362949,33.0575351 L15.1362949,14.4239203 L33.8404907,14.4239203 Z M44.8975321,1.2 L45.6,1.90889018 L39.15,8.416 L39.2726906,8.71701778 L42,9.8143123 L35.548227,12.427427 L38.1712397,6 L38.742,7.41 L44.8975321,1.2 Z M3.10246787,1.2 L10.108,8.27 L11.0287603,6 L13.651773,12.427427 L7.2,9.8143123 L9.369,8.941 L2.4,1.90889018 L3.10246787,1.2 Z" id="Combined-Shape"></path>
                </g>
            </g>
            <g id="Badge-/-z.Base-/-Shapes-/-Large" stroke="#91D851" stroke-width="3">
                <rect id="Rectangle" x="1.5" y="1.5" width="109" height="109" rx="4"></rect>
            </g>
            <g id="Icon-/-Check-/-Checkbox" transform="translate(80.000000, 8.000000)" fill="#91D851" fill-rule="evenodd">
                <path d="M10.9709463,13.366529 L16.3112027,6.57437624 C16.8225102,5.92405564 17.7675383,5.80875183 18.4219821,6.31683796 C19.0764259,6.8249241 19.1924607,7.76399831 18.6811532,8.41431891 C14.2260171,13.9508613 11.8927875,16.7447414 11.6814646,16.7959592 C11.0876228,17.1417187 10.3115238,17.0459069 9.82251261,16.5248105 L6.403984,12.8819836 C5.83758363,12.2784203 5.87081232,11.3328702 6.47820235,10.7700383 C7.08559238,10.2072064 8.0371375,10.2402257 8.60353787,10.843789 L10.9709463,13.366529 Z" id="Path"></path>
            </g>
        </g>
    </g>
</svg>