<?xml version="1.0" encoding="UTF-8"?>
<svg width="112px" height="112px" viewBox="0 0 112 112" version="1.1" xmlns="http://www.w3.org/2000/svg" xmlns:xlink="http://www.w3.org/1999/xlink">
    <!-- Generator: Sketch 63.1 (92452) - https://sketch.com -->
    <title>Badge / Properties / Selected / Mobile Homes</title>
    <desc>Created with Sketch.</desc>
    <defs>
        <linearGradient x1="0%" y1="15.2777778%" x2="252.959821%" y2="191.621714%" id="linearGradient-1">
            <stop stop-color="#A8DC28" offset="0%"></stop>
            <stop stop-color="#31C5F2" offset="100%"></stop>
        </linearGradient>
    </defs>
    <g id="Badge-/-Properties-/-Selected-/-Mobile-Homes" stroke="none" stroke-width="1" fill="none" fill-rule="evenodd">
        <g id="Badge-/-Properties-/-Selected">
            <g id="Badge-/-z.Base-/-Large">
                <g id="Badge-/-z.Base-/-Shapes-/-Large" fill="#FFFFFF" fill-rule="evenodd" stroke="#CBD5D9" stroke-width="1">
                    <rect id="Rectangle" x="0.5" y="0.5" width="111" height="111" rx="4"></rect>
                </g>
                <text id="Category-name" font-family="Poppins-SemiBold, Poppins" font-size="14" font-weight="500" fill="#82C148">
                    <tspan x="5.663" y="81">Mobile Homes</tspan>
                </text>
                <g id="Icon-/-Category-/-Properties-/-Mobile-Homes" transform="translate(32.000000, 21.000000)" fill="url(#linearGradient-1)" fill-rule="evenodd">
                    <path d="M9.59992397,33.6 C11.5882072,33.6 13.2,35.4803852 13.2,37.8 C13.2,40.1194374 11.5882072,42 9.59992397,42 C7.61179278,42 6,40.1194374 6,37.8 C6,35.4803852 7.61179278,33.6 9.59992397,33.6 Z M39.5999239,33.6 C41.5882072,33.6 43.2,35.4803852 43.2,37.8 C43.2,40.1194374 41.5882072,42 39.5999239,42 C37.6117928,42 36,40.1194374 36,37.8 C36,35.4803852 37.6117928,33.6 39.5999239,33.6 Z M9.59992397,35.472225 C8.4979747,35.472225 7.60464616,36.5142423 7.60464616,37.8 C7.60464616,39.0855803 8.4979747,40.1279524 9.59992397,40.1279524 C10.7020253,40.1279524 11.5953538,39.0855803 11.5953538,37.8 C11.5953538,36.5142423 10.7020253,35.472225 9.59992397,35.472225 Z M39.5999239,35.472225 C38.4979747,35.472225 37.6046461,36.5142423 37.6046461,37.8 C37.6046461,39.0855803 38.4979747,40.1279524 39.5999239,40.1279524 C40.7020253,40.1279524 41.5953538,39.0855803 41.5953538,37.8 C41.5953538,36.5142423 40.7020253,35.472225 39.5999239,35.472225 Z M24,6 L45.6,12.6857143 L45.6,36 L43.8161142,36 C43.0534286,34.2733714 41.3271428,33.0675429 39.3181714,33.0675429 C37.3093714,33.0675429 35.5829142,34.2733714 34.8203999,36 L34.8203999,36 L13.6446857,36 C12.882,34.2733714 11.1557143,33.0675429 9.14674286,33.0675429 C7.13794285,33.0675429 5.41148572,34.2733714 4.64897143,36 L4.64897143,36 L2.4,36 L2.4,13.0285714 L24,6 Z M39.7714285,17.6571429 L32.9297143,17.6571429 L32.9297143,31.1598857 L39.7714285,31.1598857 L39.7714285,17.6571429 Z M13.2,17.6571429 L8.22857143,17.6571429 L8.22857143,24.1714286 L13.2,24.1714286 L13.2,17.6571429 Z M25.8857143,17.6571429 L20.9142857,17.6571429 L20.9142857,24.1714286 L25.8857143,24.1714286 L25.8857143,17.6571429 Z" id="Combined-Shape"></path>
                </g>
            </g>
            <g id="Badge-/-z.Base-/-Shapes-/-Large" stroke="#91D851" stroke-width="3">
                <rect id="Rectangle" x="1.5" y="1.5" width="109" height="109" rx="4"></rect>
            </g>
            <g id="Icon-/-Check-/-Checkbox" transform="translate(80.000000, 8.000000)" fill="#91D851" fill-rule="evenodd">
                <path d="M10.9709463,13.366529 L16.3112027,6.57437624 C16.8225102,5.92405564 17.7675383,5.80875183 18.4219821,6.31683796 C19.0764259,6.8249241 19.1924607,7.76399831 18.6811532,8.41431891 C14.2260171,13.9508613 11.8927875,16.7447414 11.6814646,16.7959592 C11.0876228,17.1417187 10.3115238,17.0459069 9.82251261,16.5248105 L6.403984,12.8819836 C5.83758363,12.2784203 5.87081232,11.3328702 6.47820235,10.7700383 C7.08559238,10.2072064 8.0371375,10.2402257 8.60353787,10.843789 L10.9709463,13.366529 Z" id="Path"></path>
            </g>
        </g>
    </g>
</svg>