<?xml version="1.0" encoding="UTF-8"?>
<svg width="112px" height="112px" viewBox="0 0 112 112" version="1.1" xmlns="http://www.w3.org/2000/svg" xmlns:xlink="http://www.w3.org/1999/xlink">
    <!-- Generator: Sketch 63.1 (92452) - https://sketch.com -->
    <title>Badge / Properties / Hover / Rooms</title>
    <desc>Created with Sketch.</desc>
    <defs>
        <linearGradient x1="32.3730469%" y1="0%" x2="121.551265%" y2="253.935268%" id="linearGradient-1">
            <stop stop-color="#A8DC28" offset="0%"></stop>
            <stop stop-color="#31C5F2" offset="100%"></stop>
        </linearGradient>
    </defs>
    <g id="Badge-/-Properties-/-Hover-/-Rooms" stroke="none" stroke-width="1" fill="none" fill-rule="evenodd">
        <g id="Badge-/-Properties-/-Hover">
            <g id="Badge-/-z.Base-/-Large">
                <g id="Badge-/-z.Base-/-Shapes-/-Large" fill="#FFFFFF" fill-rule="evenodd" stroke="#CBD5D9" stroke-width="1">
                    <rect id="Rectangle" x="0.5" y="0.5" width="111" height="111" rx="4"></rect>
                </g>
                <text id="Category-name" font-family="Poppins-SemiBold, Poppins" font-size="14" font-weight="500" fill="#82C148">
                    <tspan x="31.43" y="81">Rooms</tspan>
                </text>
                <g id="Icon-/-Category-/-Properties-/-Rooms" transform="translate(32.000000, 21.000000)" fill="url(#linearGradient-1)" fill-rule="evenodd">
                    <path d="M13.2,43.2 L36,43.2 L36,4.8 L13.2,4.8 L13.2,43.2 Z M16.8,28.8 C16.1371052,28.8 15.6,28.2628948 15.6,27.6000001 C15.6,26.9371052 16.1371052,26.4 16.8,26.4 C17.4628948,26.4 18,26.9371052 18,27.6000001 C18,28.2628948 17.4628948,28.8 16.8,28.8 L16.8,28.8 Z M16.8,8.4 L32.4,8.4 L32.4,24 L16.8,24 L16.8,8.4 Z" id="Imported-Layers"></path>
                </g>
            </g>
        </g>
    </g>
</svg>