<?xml version="1.0" encoding="UTF-8"?>
<svg width="157px" height="158px" viewBox="0 0 157 158" version="1.1" xmlns="http://www.w3.org/2000/svg" xmlns:xlink="http://www.w3.org/1999/xlink">
    <!-- Generator: Sketch 63.1 (92452) - https://sketch.com -->
    <title>Animals Button / Animals / Hover / Ic-btn-Birds-Hover</title>
    <desc>Created with Sketch.</desc>
    <defs>
        <linearGradient x1="0%" y1="24.08%" x2="100%" y2="75.92%" id="linearGradient-1">
            <stop stop-color="#A8DC28" offset="0%"></stop>
            <stop stop-color="#79D378" offset="100%"></stop>
        </linearGradient>
    </defs>
    <g id="Animals-Button-/-Animals-/-Hover-/-Ic-btn-Birds-Hover" stroke="none" stroke-width="1" fill="none" fill-rule="evenodd">
        <g id="Animals-Button-/-z.Base-/-Animals-/-Hover">
            <g id="Badge-/-z.Base-/-Large">
                <g id="Badge-/-z.Base-/-Shapes-/-Large" fill="#FFFFFF" fill-rule="evenodd" stroke="#CBD5D9" stroke-width="1">
                    <rect id="Rectangle" x="0.5" y="0.5" width="156" height="157" rx="4"></rect>
                </g>
                <text id="Category-name" font-family="Poppins-SemiBold, Poppins" font-size="14" font-weight="500" fill="#82C148">
                    <tspan x="60.755" y="108.107143">Birds</tspan>
                </text>
                <g id="Icon-/-Category-/-Animals-/-Birds" transform="translate(58.500000, 36.428571)" fill="url(#linearGradient-1)" fill-rule="evenodd">
                    <path d="M24.1048035,24.8449506 C32.9257642,26.1798939 37.6419214,19.4161808 38.7772926,17.3692677 C38.8646288,17.2802714 38.8646288,17.1912752 38.7772926,17.102279 C38.6899564,17.0132828 38.6026201,17.0132828 38.5152839,17.0132828 C37.2925764,17.2802714 35.8951965,17.0132828 35.8951965,17.0132828 C39.4759825,14.2543998 40,8.91462635 40,6.60072452 C40,6.42273207 39.9126638,6.15574339 39.7379913,6.06674717 C39.5633188,5.97775094 39.30131,5.97775094 39.1266376,6.06674717 C35.9825328,7.84667166 28.9956332,9.53759992 20,13.1864451 C15.6331878,14.9663696 13.7117904,17.903245 12.9257642,20.4841355 C11.7030568,20.662128 10.4803494,19.6831695 9.51965064,19.1491921 C8.82096073,18.7042111 8.0349345,18.0812375 7.16157202,17.903245 C4.27947599,17.3692677 2.27074236,18.5262186 0.0873362448,21.6410865 C0,21.8190789 0,21.9970714 0,22.0860676 C0.0873362448,22.26406 0.174672489,22.3530562 0.349344978,22.3530562 C7.33624452,23.7769959 7.16157202,26.7138713 8.90829697,29.1167693 C15.371179,36.5924522 30.1310044,35.7914862 37.6419214,31.8756523 C37.8165939,31.7866561 37.9039301,31.5196674 37.9039301,31.3416749 C37.9039301,31.1636824 37.7292576,30.98569 37.4672489,30.98569 C32.4017467,30.3627164 27.6855895,29.2057655 24.1048035,24.8449506 L24.1048035,24.8449506 Z M5.15283843,20.1281506 C5.15283843,20.4841355 4.80349345,20.7511242 4.45414847,20.662128 C4.1048035,20.662128 3.84279476,20.3061431 3.930131,19.9501582 C3.930131,19.5941733 4.27947599,19.3271846 4.62882096,19.4161808 C4.97816594,19.5051771 5.24017467,19.7721658 5.15283843,20.1281506 L5.15283843,20.1281506 Z" id="Shape"></path>
                </g>
            </g>
        </g>
    </g>
</svg>