<?xml version="1.0" encoding="UTF-8"?>
<svg width="157px" height="158px" viewBox="0 0 157 158" version="1.1" xmlns="http://www.w3.org/2000/svg" xmlns:xlink="http://www.w3.org/1999/xlink">
    <!-- Generator: Sketch 63.1 (92452) - https://sketch.com -->
    <title>Animals Button / Animals / Normal / Ic-btn-Cats</title>
    <desc>Created with Sketch.</desc>
    <defs>
        <linearGradient x1="36.48%" y1="0%" x2="63.52%" y2="100%" id="linearGradient-1">
            <stop stop-color="#A8DC28" offset="0%"></stop>
            <stop stop-color="#79D378" offset="100%"></stop>
        </linearGradient>
    </defs>
    <g id="Animals-Button-/-Animals-/-Normal-/-Ic-btn-Cats" stroke="none" stroke-width="1" fill="none" fill-rule="evenodd">
        <g id="Animals-Button-/-z.Base-/-Animals-/-Normal">
            <g id="Badge-/-z.Base-/-Large">
                <g id="Badge-/-z.Base-/-Shapes-/-Large" fill="#FFFFFF" fill-rule="evenodd" stroke="#CBD5D9" stroke-width="1">
                    <rect id="Rectangle" x="0.5" y="0.5" width="156" height="157" rx="4"></rect>
                </g>
                <text id="Category-name" font-family="Poppins-SemiBold, Poppins" font-size="14" font-weight="500" fill="#313133">
                    <tspan x="29.234" y="108.107143">Cats &amp; Kittens</tspan>
                </text>
                <g id="Icon-/-Category-/-Animals-/-Cats-and-Kittens" transform="translate(58.500000, 36.428571)" fill="url(#linearGradient-1)" fill-rule="evenodd">
                    <path d="M30.2337508,5.79744944 C30.2337508,5.79744944 31.1964942,4.59203916 30.6112972,4.05630126 C30.5735426,3.19529391 30.4414014,2.7552235 30.1016096,2.54475503 C30.0449776,2.20035209 29.9317137,2.02815063 29.6107993,1.98988363 C29.3087621,1.95161664 28.8179518,2.1620851 28.2893869,1.89421615 C27.7608219,1.62634721 26.0052311,0.784473354 24.230763,1.6072137 L23.3246516,0 L23.3246516,2.35342007 C23.3246516,2.35342007 22.7960866,2.77435699 22.6639454,2.77435699 C22.5318041,2.77435699 21.7200794,2.04728413 21.2670237,2.06641762 C20.7950907,2.08555112 21.3047783,4.85990811 21.4180422,5.28084504 C21.5313062,5.68264846 21.7955886,10.867826 19.6624515,11.5374984 C17.5293142,12.1880373 12.149278,10.1216196 10.563583,17.6028168 C9.16666134,24.701344 10.7901109,26.7677616 10.9222521,27.322633 C10.6957243,27.8392374 9.84624487,30.7666624 13.2252852,35.5883035 C15.8303554,39.2810683 19.6058195,41.079617 25.0802424,39.3193353 C28.8557065,38.0947915 28.5725466,33.0244149 25.9108445,32.794813 C23.1925103,32.9670145 24.2685176,35.8944395 24.7215733,36.0666409 C25.174629,36.2388424 17.4915596,38.496595 14.5278203,31.1684658 C21.3991649,32.1442741 25.061365,28.6619778 25.2123836,28.1071063 C25.7598259,29.2551162 26.8358332,28.9872472 26.9868518,28.6045773 C27.3455208,28.7385117 28.0251044,28.4706428 27.8929631,27.8201039 C28.3082642,27.4948345 28.4404054,26.7103611 27.2133796,26.2511572 C26.2695136,23.7064022 27.4776621,22.3670574 28.3460188,21.3721156 C29.2143756,20.3963073 30.9888437,16.7992099 29.9317137,11.1548285 C29.006725,6.12271887 30.2337508,5.79744944 30.2337508,5.79744944 L30.2337508,5.79744944 Z" id="Shape"></path>
                </g>
            </g>
        </g>
    </g>
</svg>