<?xml version="1.0" encoding="UTF-8"?>
<svg width="157px" height="158px" viewBox="0 0 157 158" version="1.1" xmlns="http://www.w3.org/2000/svg" xmlns:xlink="http://www.w3.org/1999/xlink">
    <!-- Generator: Sketch 63.1 (92452) - https://sketch.com -->
    <title>Animals Button / Animals / Normal / Ic-btn-Cats</title>
    <desc>Created with Sketch.</desc>
    <defs>
        <linearGradient x1="0%" y1="7.68%" x2="100%" y2="92.32%" id="linearGradient-1">
            <stop stop-color="#A8DC28" offset="0%"></stop>
            <stop stop-color="#79D378" offset="100%"></stop>
        </linearGradient>
    </defs>
    <g id="Animals-Button-/-Animals-/-Normal-/-Ic-btn-Cats" stroke="none" stroke-width="1" fill="none" fill-rule="evenodd">
        <g id="Animals-Button-/-z.Base-/-Animals-/-Normal">
            <g id="Badge-/-z.Base-/-Large">
                <g id="Badge-/-z.Base-/-Shapes-/-Large" fill="#FFFFFF" fill-rule="evenodd" stroke="#CBD5D9" stroke-width="1">
                    <rect id="Rectangle" x="0.5" y="0.5" width="156" height="157" rx="4"></rect>
                </g>
                <text id="Category-name" font-family="Poppins-SemiBold, Poppins" font-size="14" font-weight="500" fill="#313133">
                    <tspan x="24.243" y="108.107143">Dogs &amp; Puppies</tspan>
                </text>
                <g id="Icon-/-Category-/-Animals-/-Dogs-and-puppies" transform="translate(58.500000, 36.428571)" fill="url(#linearGradient-1)" fill-rule="evenodd">
                    <path d="M30.9591168,2 C33.2905777,2.12259125 35.2293714,3.98597831 35.8183721,4.37827032 C36.5832548,4.88770509 36.538186,5.61583659 36.5308176,5.69516776 L36.5300812,5.70225586 L39.4996261,7.2714239 C39.8677514,7.44305166 40.0886266,7.93341667 39.9659182,8.32570869 C38.8370003,11.8563368 35.2784548,11.9053733 33.7323281,11.7337455 C33.375358,11.6891669 32.9778232,11.8877445 32.7978631,12.2189527 L32.7506604,12.3221835 L31.9162428,14.6023809 L31.8180761,14.8720816 C31.6848946,14.8055545 31.4914848,15.8722462 31.287781,17.0494765 L30.273,33.472 L30.5419078,33.9227624 C31.2536169,34.3640909 32.3334513,35.3938575 32.3334513,35.3938575 C32.8476582,36.2111325 31.7368823,36.5391544 31.6299281,36.5685414 L31.6217422,36.5707335 L31.5726588,36.5707335 C27.9650299,37.2082081 28.2595303,35.933259 28.2595303,35.933259 C28.2349886,35.2712662 28.038655,35.1977115 27.7441547,34.7318647 C27.4764272,34.3083676 27.4318059,34.1077638 27.4259055,34.0747903 L27.4251127,34.069872 L27.469,34.042 L27.1551541,28.7494115 C26.8919444,25.8090603 26.6287348,27.0873959 26.6157388,27.1531504 L26.6152368,27.1557252 L25.45,34.37 L25.7808193,35.6880765 C26.3452782,36.3500693 27.1060707,37.6740548 27.1060707,37.6740548 C27.3871846,38.6102062 26.1924504,38.6080785 26.0832574,38.6059509 L26.0016945,38.6057483 C22.2468154,38.1889381 22.9094412,37.012062 22.9094412,37.012062 C23.0435266,36.4315803 22.9334167,36.2577018 22.7829445,35.8239743 C22.5291329,35.2337433 22.5389028,34.8111016 22.5410649,34.7613102 L22.5413158,34.756383 L23.4002751,26.6163237 C23.4002751,25.3585375 22.3814267,24.8973492 22.2795418,24.8543748 L22.2713572,24.8510097 L14.9333909,23.5270241 C11.9294877,22.7648568 10.84781,24.8254306 10.788452,24.9437999 L10.7858447,24.9490827 L8.72434256,30.4411708 C8.47239718,31.9199359 8.73572602,33.8630141 8.95682438,35.0657914 L9.2642598,35.7861495 C9.87780213,36.3010327 10.8103864,37.4288723 10.8103864,37.4288723 C11.2077281,38.269498 10.0913872,38.4651992 9.98416801,38.4819313 L9.97596889,38.4831571 L9.92688547,38.4831571 C6.34379829,38.679303 6.78554877,37.4779088 6.78554877,37.4779088 C6.83463216,36.8404342 6.66284031,36.7423612 6.41742338,36.2519963 C6.34839986,36.0987572 6.3344993,35.964673 6.34801041,35.8527367 L6.07383967,34.854456 C5.14971798,33.6708163 5.27800012,31.0700741 5.28794601,30.89212 L5.28850549,30.8824993 L5.46029734,26.1995134 L3.42333681,33.0891419 L3.423,35.401 L3.64421205,36.166081 C4.28229607,36.5583731 5.31304718,37.4410301 5.31304718,37.4410301 C5.85296443,38.1765776 4.72404655,38.5198331 4.72404655,38.5198331 C4.69950485,38.5443514 4.69950485,38.5443514 4.67496316,38.5443514 C1.43545966,39.3044172 1.63179321,38.1275411 1.63179321,38.1275411 C1.55816813,37.5391031 1.38637627,37.4900666 1.09187596,37.0732563 C0.797375638,36.6564461 0.772833951,36.4848183 0.772833951,36.4848183 C0.720796515,36.2056878 0.720549979,35.9598684 0.772094345,35.74736 L0.797375638,30.5392439 C1.60725152,28.3326012 1.2882095,25.4149294 1.2882095,25.4149294 C-0.282458857,20.1189873 1.38637627,17.8142717 1.38637627,17.8142717 C1.92629353,16.661914 1.6563349,13.9158698 1.6563349,13.9158698 C1.23157483,12.9021345 0.716054052,10.482952 0.677026951,10.2983607 L0.674667172,10.2871687 L0.0611248472,6.9281684 C-0.208833777,5.50610985 0.502875324,5.33448209 0.502875324,5.33448209 C1.28243499,5.33448209 1.58432329,6.23164646 1.64456608,6.44274396 L1.6563349,6.48683988 L1.92629353,7.71275242 L2.26987723,9.64969424 C3.56357506,13.0962598 5.27823805,13.0147685 5.35915528,13.0089342 L5.36213057,13.0086946 L18.2710612,13.2783953 C19.8151783,13.0987302 21.0114308,12.7280788 21.9370278,12.2744306 C23.1227778,11.5528927 24.6413576,10.3655761 25.0445688,8.84059195 C25.1672772,8.32570869 25.2899857,7.85986192 25.4372359,7.44305166 C26.3943619,9.13481096 27.744155,9.84584023 28.8976146,10.1400592 C29.7074905,10.3362053 30.3946579,10.3362053 30.7873249,10.311687 C31.2045337,10.2871687 31.6217425,9.96843145 31.744451,9.57613948 C32.5297852,7.09979615 31.4744924,3.49561329 30.9591168,2 Z M30.1983243,2.0490365 C30.6400748,3.29946729 31.8180761,7.00172314 31.0572836,9.37999349 C31.0327419,9.47806648 30.86095,9.60065771 30.7627833,9.60065771 C29.6093237,9.67421247 27.106071,9.47806648 25.8053613,6.48683988 C26.9642745,3.40707516 28.1012972,2.84232299 28.2240562,2.78907819 L28.2349888,2.78458402 C28.8976146,2.34325551 29.5356986,2.12259125 30.1983243,2.0490365 Z M34.0268284,6.36424863 C33.9532033,6.58491289 34.1004535,6.83009539 34.3213288,6.87913189 C34.542204,6.95268665 34.787621,6.80557714 34.8367044,6.58491289 C34.9103294,6.36424863 34.7630793,6.11906612 34.542204,6.07002962 C34.3213288,5.99647487 34.1004535,6.14358437 34.0268284,6.36424863 Z" id="Combined-Shape"></path>
                </g>
            </g>
        </g>
    </g>
</svg>