<?xml version="1.0" encoding="UTF-8"?>
<svg width="157px" height="158px" viewBox="0 0 157 158" version="1.1" xmlns="http://www.w3.org/2000/svg" xmlns:xlink="http://www.w3.org/1999/xlink">
    <!-- Generator: Sketch 63.1 (92452) - https://sketch.com -->
    <title>Animals Button / Animals / Normal / Ic-btn-Pet-accessories</title>
    <desc>Created with Sketch.</desc>
    <defs>
        <linearGradient x1="0%" y1="18%" x2="100%" y2="82%" id="linearGradient-1">
            <stop stop-color="#A8DC28" offset="0%"></stop>
            <stop stop-color="#79D378" offset="100%"></stop>
        </linearGradient>
    </defs>
    <g id="Animals-Button-/-Animals-/-Normal-/-Ic-btn-Pet-accessories" stroke="none" stroke-width="1" fill="none" fill-rule="evenodd">
        <g id="Animals-Button-/-z.Base-/-Animals-/-Normal">
            <g id="Badge-/-z.Base-/-Large">
                <g id="Badge-/-z.Base-/-Shapes-/-Large" fill="#FFFFFF" fill-rule="evenodd" stroke="#CBD5D9" stroke-width="1">
                    <rect id="Rectangle" x="0.5" y="0.5" width="156" height="157" rx="4"></rect>
                </g>
                <text id="Category-name" font-family="Poppins-SemiBold, Poppins" font-size="14" font-weight="500" fill="#313133">
                    <tspan x="22.752" y="108.107143">Pet Accessories</tspan>
                </text>
                <g id="Icon-/-Category-/-Animals-/-Pet-accessories" transform="translate(58.500000, 36.428571)" fill="url(#linearGradient-1)" fill-rule="evenodd">
                    <path d="M20,4 C31.0077519,4 39.9224806,7.47954795 40,11.6708216 L40,11.6708216 L40,17.2064661 C40,20.9938142 32.6574538,24.2000085 23.1201466,24.7828136 C22.8727008,26.0843115 21.8581116,27.0884069 20.6206045,27.3443165 L20.6209666,28.3188163 C21.7531836,28.522839 22.6987443,29.4153774 23.0410041,30.5713956 L23.3333334,30.5710934 C23.7984496,30.5710934 24.1085271,30.1756902 24.1085271,29.7802871 C24.1085271,29.5430451 24.1085271,29.3058032 24.1860465,29.0685613 C24.4186047,28.1986743 25.1937985,27.5660293 25.9689922,27.3287874 C27.4418605,27.0124648 28.7596899,28.1986743 28.7596899,29.7012064 C28.7596899,30.2547709 28.6046512,30.8083353 28.2945737,31.2037385 C28.1395349,31.4409804 28.1395349,31.8363836 28.2945737,32.0736255 C28.6046512,32.5481093 28.7596899,33.0225931 28.7596899,33.5761576 C28.7596899,35.0786896 27.4418605,36.2648992 25.9689922,35.9485766 C25.1162791,35.7113347 24.4186047,35.0786896 24.1860465,34.2088026 C24.1085271,33.9715607 24.1085271,33.7343188 24.1085271,33.4970769 C24.1085271,33.0225931 23.7209302,32.7062706 23.3333334,32.7062706 L23.3333334,32.7062706 L16.5116279,32.7062706 C16.0465116,32.7062706 15.7364341,33.0225931 15.7364341,33.4970769 L15.7364341,33.4970769 L15.7317777,33.6513343 C15.6452728,35.0796299 14.365143,36.1749108 12.868217,35.869496 C12.0155039,35.6322541 11.2403101,34.9205284 11.0852713,33.9715607 C10.9302326,33.3389156 11.0852713,32.6271899 11.4728683,32.1527061 C11.7054263,31.8363836 11.7054263,31.4409804 11.4728683,31.1246579 C11.0852713,30.650174 10.9302326,30.017529 11.0852713,29.3058032 C11.2403101,28.3568356 11.9379845,27.5660293 12.868217,27.407868 C14.4186047,27.0915455 15.7364341,28.277755 15.7364341,29.7802871 L15.7364341,29.7802871 L15.7428043,29.8789091 C15.7891903,30.2388449 16.0852713,30.5710934 16.5116279,30.5710934 L16.5116279,30.5710934 L16.9545846,30.5714337 C17.2862938,29.4257934 18.2088557,28.5642948 19.3791356,28.3369829 L19.3791356,27.34864 C18.0995177,27.1000907 17.1160683,26.093316 16.8773633,24.7859263 C7.28746233,24.2173336 -6.82121026e-13,21.0674501 -6.82121026e-13,17.2064661 L-6.82121026e-13,17.2064661 L-6.82121026e-13,11.6708216 C-6.82121026e-13,7.47954795 8.99224807,4 20,4 Z M20.5875195,29.7232903 L20.5572543,29.7954377 C20.4510218,30.0083791 20.2255109,30.1756902 20,30.1756902 C19.7497379,30.1756902 19.4994758,29.9696368 19.4122351,29.7238347 C18.9872167,29.8732939 18.6257868,30.1796105 18.3979328,30.5710934 L21.6020672,30.5710934 C21.3742132,30.1796105 21.0127833,29.8732939 20.5875195,29.7232903 Z M21.7310936,24.8476653 L21.6556566,24.8508855 C21.1095419,24.8683672 20.5573545,24.8772877 20,24.8772877 C19.4172116,24.8772877 18.8404224,24.867889 18.2706124,24.8494593 C18.4682738,25.3553159 18.8773473,25.7621641 19.3793826,25.9502949 L19.379845,25.9053359 C19.379845,25.5099327 19.6899225,25.2726908 20,25.2726908 C20.3100775,25.2726908 20.620155,25.5890134 20.620155,25.9053359 L20.6206174,25.9502949 C21.1233037,25.7619202 21.5327869,25.3542605 21.7310936,24.8476653 Z M25.8914729,18.3926756 C21.9379845,19.0253207 18.0620155,19.0253207 14.1085271,18.3926756 C12.868217,18.3926756 11.8604651,19.4207239 11.8604651,20.686014 C11.8604651,21.9513042 12.868217,22.9793525 14.1085271,22.9793525 C17.9844961,23.6910781 21.8604651,23.6910781 25.8914729,22.9793525 C27.131783,22.9793525 28.1395349,21.9513042 28.1395349,20.686014 C28.1395349,19.4207239 27.131783,18.3926756 25.8914729,18.3926756 Z M20,6.45149969 C8.29457367,6.45149969 2.3255814,10.1682895 2.3255814,11.7499022 C2.3255814,13.3315149 8.37209305,17.0483048 20,17.0483048 C31.627907,17.0483048 37.6744186,13.3315149 37.6744186,11.7499022 C37.6744186,10.1682895 31.627907,6.45149969 20,6.45149969 Z" id="Combined-Shape"></path>
                </g>
            </g>
        </g>
    </g>
</svg>