<?xml version="1.0" encoding="UTF-8"?>
<svg width="157px" height="158px" viewBox="0 0 157 158" version="1.1" xmlns="http://www.w3.org/2000/svg" xmlns:xlink="http://www.w3.org/1999/xlink">
    <!-- Generator: Sketch 63.1 (92452) - https://sketch.com -->
    <title>Animals Button / Animals / Normal / Ic-btn-Reptiles</title>
    <desc>Created with Sketch.</desc>
    <defs>
        <linearGradient x1="0%" y1="28.6242604%" x2="100%" y2="71.3757396%" id="linearGradient-1">
            <stop stop-color="#A8DC28" offset="0%"></stop>
            <stop stop-color="#79D378" offset="100%"></stop>
        </linearGradient>
    </defs>
    <g id="Animals-Button-/-Animals-/-Normal-/-Ic-btn-Reptiles" stroke="none" stroke-width="1" fill="none" fill-rule="evenodd">
        <g id="Animals-Button-/-z.Base-/-Animals-/-Normal">
            <g id="Badge-/-z.Base-/-Large">
                <g id="Badge-/-z.Base-/-Shapes-/-Large" fill="#FFFFFF" fill-rule="evenodd" stroke="#CBD5D9" stroke-width="1">
                    <rect id="Rectangle" x="0.5" y="0.5" width="156" height="157" rx="4"></rect>
                </g>
                <text id="Category-name" font-family="Poppins-SemiBold, Poppins" font-size="14" font-weight="500" fill="#313133">
                    <tspan x="44.081" y="108.107143">Reptiles &amp; </tspan>
                    <tspan x="35.198" y="128.107143">Amphibians</tspan>
                </text>
                <g id="Icon-/-Category-/-Animals-/-Reptiles-and-amphibians" transform="translate(58.500000, 36.428571)" fill="url(#linearGradient-1)" fill-rule="evenodd">
                    <path d="M39.2470032,26.4040909 C38.4174127,25.0757106 37.1870879,24.2133065 35.8794283,23.4274061 C35.1131117,22.9683846 34.3186734,22.5510922 33.5312655,22.1129354 C33.475022,22.0851158 33.4187787,22.0503415 33.3133222,21.9877477 C33.6859349,21.9390636 34.0023041,21.8764697 34.3257038,21.8556051 C35.1201422,21.7999661 35.9145805,21.7165077 36.6808971,21.5078616 C37.0113272,21.4174482 37.2925443,21.271396 37.4612745,20.9584267 C39.0782729,18.3155757 37.1800574,18.1764782 37.1800574,18.1764782 C36.8918099,18.1277941 36.6035624,18.1208392 36.3082844,18.0999746 C36.1184628,18.0860649 35.9356717,18.0860649 35.7458502,18.07911 C35.5068156,18.0721551 35.2959028,18.0095613 35.0920204,17.8774187 C34.9654727,17.7939603 34.7756512,17.7522311 34.6209818,17.7522311 C34.1710344,17.7661408 33.721087,17.8217797 33.2711397,17.6965921 C33.1727137,17.6687726 33.046166,17.6826824 32.94774,17.7174567 C32.5680969,17.863509 32.174393,17.8217797 31.780689,17.8148249 C31.4080763,17.8148249 31.0214028,17.8148249 30.6698814,17.9052382 C30.0933864,18.0582454 29.643439,18.4268536 29.2989481,18.9206494 C29.2637959,18.9693335 29.2286438,19.0319274 29.1794308,19.0597469 C28.6451182,19.4005356 28.3006273,19.8943314 28.0405015,20.457676 C27.8014669,20.9723365 27.9069234,21.4383129 28.2443839,21.8416954 C28.6380878,22.3076717 29.0458526,22.7736481 29.5168913,23.1561661 C30.2550862,23.7473301 31.0424941,24.2828552 31.8228716,24.8114254 C32.701675,25.4095444 33.6156306,25.9589792 34.4944341,26.5570981 C35.0709292,26.9535258 35.5911808,27.426457 36.0692498,28.0315309 C35.809124,28.1358539 35.5700895,28.2471319 35.3240245,28.3166806 C34.986564,28.4070939 34.6420731,28.4627329 34.2975821,28.5253267 C34.0726084,28.560101 33.8476348,28.5879206 33.622661,28.5948755 C33.1445919,28.6087852 32.6594925,28.6435595 32.1884538,28.61574 C31.63305,28.5809657 31.0846767,28.4696878 30.5363033,28.4279585 C29.5871955,28.3584098 28.7154225,27.9828468 27.8366191,27.6768324 C27.506189,27.5655545 27.2179414,27.3360437 26.9367243,27.1204427 C26.8382983,27.050894 26.7961158,26.8770222 26.7750245,26.7448796 C26.5289595,25.2565372 25.9313731,23.914247 25.0314785,22.7040994 C24.6166832,22.1477097 24.0823707,21.7095528 23.5199365,21.3061703 C22.4302202,20.5272247 21.2139562,19.9986545 19.9484792,19.5604976 C18.5423937,19.0806115 17.101156,18.7676423 15.6388271,18.5242218 C14.4506848,18.3294854 13.2484817,18.239072 12.0884611,17.9121931 C11.3572966,17.7035469 10.6331625,17.4740362 9.90902851,17.1402023 C10.0355762,17.0567439 10.1340022,16.9871952 10.2464891,16.9246013 C10.9143797,16.5490383 11.6033616,16.2012948 12.2571914,15.8048671 C12.6930779,15.540582 13.072721,15.1997933 13.3679989,14.7755461 C13.7687333,14.1982918 13.747642,13.6071278 13.4664249,13.0090088 C13.1781774,12.403935 12.6930779,11.9796879 12.0814307,11.6875833 C11.0057753,11.1798777 9.84575468,11.05469 8.67870365,10.999051 C7.11794876,10.9295023 5.55719379,10.9295023 4.00346928,10.9086377 C2.94890512,10.8947279 1.99276696,10.5748039 1.14911564,9.94886543 C0.579651002,9.53157316 0.340616462,8.78740193 0.551529292,8.0919148 C0.642924854,7.77894559 0.776502977,7.47988612 0.896020246,7.17387178 C0.917111528,7.11823281 0.945233239,7.06259384 0.952263666,7 C0.3757686,7.64680303 -0.116361337,8.32142555 0.0242472165,9.25337831 C0.0945514934,9.73326442 0.305464323,10.1436018 0.642924854,10.4913454 C1.35299804,11.2216069 2.2036798,11.7501771 3.20200052,11.972733 C4.00346928,12.1535596 4.83305974,12.243973 5.65561978,12.3274314 C6.86485332,12.4456642 8.08111734,12.5499873 9.2622292,12.8420919 C9.73326785,12.9533698 10.1832152,13.1272416 10.6472234,13.2802488 C10.7315885,13.3080683 10.8089233,13.3497975 10.935471,13.4123914 C10.837045,13.4541206 10.7808015,13.488895 10.7175277,13.5097595 C9.97933278,13.808819 9.2130162,14.0661492 8.49591255,14.4278026 C7.52571352,14.9215984 6.64691011,15.5684015 6.35163211,16.6811809 C6.00714116,17.974787 6.12665843,18.8163264 7.27261814,19.7760986 C8.26390845,20.6037283 9.4450203,21.0697046 10.6683147,21.4522226 C11.8775483,21.8277857 13.1078731,22.078161 14.3663197,22.2381231 C15.5404011,22.3841753 16.6793304,22.6623702 17.8041988,23.0101138 C18.661911,23.2743989 19.4985318,23.594323 20.2648485,24.0881188 C20.7358871,24.3871783 21.2069258,24.6792829 21.4740821,25.1869885 C21.76936,25.7364233 21.9873033,26.3206325 22.0927596,26.9396161 C22.1700944,27.3916827 22.2263378,27.8507042 22.3247638,28.3027708 C22.5567679,29.3320918 23.1895064,30.1040825 23.9980055,30.7508856 C24.9400829,31.5089665 26.0368296,31.9749429 27.1757589,32.3644157 C28.67324,32.8790761 30.2199341,33.1155418 31.7877194,33.1503161 C33.6156306,33.1850905 35.4224505,32.9694895 37.1167836,32.2114085 C38.1361956,31.752387 39.014999,31.1334035 39.605555,30.1805861 C39.7461635,29.9510753 39.85162,29.6867902 39.9148938,29.4225051 C40.1679892,28.3097257 39.8305287,27.3429986 39.2470032,26.4040909 L39.2470032,26.4040909 Z M34.6983165,18.6424546 C34.8529859,18.6424546 34.9725032,18.7676423 34.9725032,18.9136945 C34.9725032,19.0667017 34.8459554,19.1849345 34.6983165,19.1849345 C34.5436471,19.1849345 34.4241298,19.0597469 34.4241298,18.9136945 C34.4241298,18.7676423 34.5436471,18.6424546 34.6983165,18.6424546 L34.6983165,18.6424546 Z" id="Shape"></path>
                </g>
            </g>
        </g>
    </g>
</svg>