<?xml version="1.0" encoding="UTF-8"?>
<svg width="112px" height="112px" viewBox="0 0 112 112" version="1.1" xmlns="http://www.w3.org/2000/svg" xmlns:xlink="http://www.w3.org/1999/xlink">
    <!-- Generator: Sketch 63.1 (92452) - https://sketch.com -->
    <title>Badge / Properties / Normal / Commercial</title>
    <desc>Created with Sketch.</desc>
    <defs>
        <linearGradient x1="0%" y1="0%" x2="252.959821%" y2="253.935268%" id="linearGradient-1">
            <stop stop-color="#A8DC28" offset="0%"></stop>
            <stop stop-color="#31C5F2" offset="100%"></stop>
        </linearGradient>
    </defs>
    <g id="Badge-/-Properties-/-Normal-/-Commercial" stroke="none" stroke-width="1" fill="none" fill-rule="evenodd">
        <g id="Badge-/-z.Base-/-Large">
            <g id="Badge-/-z.Base-/-Shapes-/-Large" fill="#FFFFFF" fill-rule="evenodd" stroke="#CBD5D9" stroke-width="1">
                <rect id="Rectangle" x="0.5" y="0.5" width="111" height="111" rx="4"></rect>
            </g>
            <text id="Category-name" font-family="Poppins-SemiBold, Poppins" font-size="14" font-weight="500" fill="#313133">
                <tspan x="11.487" y="81">Commercial</tspan>
            </text>
            <g id="Icon-/-Category-/-Properties-/-Commercial" transform="translate(32.000000, 21.000000)" fill="url(#linearGradient-1)" fill-rule="evenodd">
                <path d="M4.8,20.4 C4.8,22.633575 6.33284997,24.49455 8.39999997,25.03125 L8.39999997,40.8 L6.00000006,40.8 C5.33902501,40.8 4.8,41.3367 4.8,42 C4.8,42.6633 5.33910005,43.2 6.00000006,43.2 L41.9999999,43.2 C42.6656249,43.2 43.2,42.6633 43.2,42 C43.2,41.3367 42.6656249,40.8 41.9999999,40.8 L39.6,40.8 L39.6,25.03125 C41.66715,24.49455 43.2,22.633575 43.2,20.4 L43.2,19.2 L4.8,19.2 L4.8,20.4 L4.8,20.4 Z M28.8,25.2 C31.453125,25.2 33.5999999,23.0507999 33.5999999,20.4 C33.5999999,22.633575 35.13285,24.49455 37.2,25.03125 L37.2,40.8 L19.2,40.8 L19.2,25.2 C21.853125,25.2 24,23.0507999 24,20.4 C24,23.0507999 26.1516,25.2 28.8,25.2 L28.8,25.2 Z M18,25.03125 L18,40.8 L10.8,40.8 L10.8,25.03125 C12.867225,24.49455 14.4000001,22.633575 14.4000001,20.4 C14.4000001,22.633575 15.93285,24.49455 18,25.03125 L18,25.03125 Z M38.4,8.4 L9.60000003,8.4 L4.8,18 L43.2,18 L38.4,8.4 L38.4,8.4 Z M15.5378255,11.6658985 L13.1378467,16.4670688 C13.0299977,16.6780952 12.8190996,16.8 12.5987516,16.8 C12.5096523,16.8 12.4183032,16.7812453 12.3315289,16.7366846 C12.0361816,16.5889736 11.9143076,16.2279856 12.0643063,15.9325635 L14.464285,11.1313932 C14.6142837,10.8359712 14.9728555,10.7164671 15.2682029,10.8617775 C15.5659502,11.0094885 15.6830992,11.3704765 15.5378255,11.6658985 L15.5378255,11.6658985 Z M19.1378255,11.6658985 L16.7378468,16.4670688 C16.6299977,16.6780952 16.4190996,16.8 16.1987515,16.8 C16.1096524,16.8 16.0183031,16.7812453 15.9315289,16.7366846 C15.6361816,16.5889736 15.5143077,16.2279856 15.6643063,15.9325635 L18.064285,11.1313932 C18.2142836,10.8359712 18.5752555,10.7164671 18.8682028,10.8617775 C19.1659502,11.0094885 19.2830992,11.3704765 19.1378255,11.6658985 L19.1378255,11.6658985 Z M25.2,16.2 C25.2,16.53285 24.93285,16.8 24.6,16.8 C24.26955,16.8 24,16.532775 24,16.2 L24,11.4 C24,11.0671499 24.26955,10.8 24.6,10.8 C24.93285,10.8 25.2,11.067225 25.2,11.4 L25.2,16.2 L25.2,16.2 Z M32.1075717,16.7249968 C32.0193376,16.776599 31.9267271,16.8 31.8340461,16.8 C31.6355547,16.8 31.4414398,16.6874953 31.3399353,16.4882868 L28.8693816,11.6880835 C28.7193838,11.3974461 28.8208176,11.0318056 29.0944138,10.8747489 C29.3635629,10.7153672 29.7120522,10.8184966 29.8620501,11.111459 L32.3326037,15.9116623 C32.4781547,16.2022996 32.3810972,16.5679401 32.1075717,16.7249968 L32.1075717,16.7249968 Z M35.6659589,16.7367 C35.5816557,16.78125 35.4925522,16.8 35.3987987,16.8 C35.1784403,16.8 34.9675322,16.678125 34.8644032,16.4671502 L32.4643112,11.6671538 C32.3143054,11.3718041 32.4361851,11.0109044 32.7314715,10.8632295 C33.0221076,10.7155546 33.3877466,10.8351045 33.5377523,11.1327793 L35.9378443,15.9327757 C36.0832,16.2281254 35.9659704,16.5891002 35.6659589,16.7367 L35.6659589,16.7367 Z M14.9999999,33.782775 L14.9999999,31.01715 C14.6483999,30.8062499 14.4,30.4405499 14.4,30 C14.4,29.3367 14.9391,28.8 15.6,28.8 C16.265625,28.8 16.8,29.3367 16.8,30 C16.8,30.440625 16.553925,30.8062499 16.2000001,31.01715 L16.2000001,33.782775 C16.553925,33.99375 16.8,34.3593749 16.8,34.8 C16.8,35.4632999 16.265625,36 15.6,36 C14.9390249,36 14.4,35.4632999 14.4,34.8 C14.4,34.3592999 14.648475,33.9936749 14.9999999,33.782775 L14.9999999,33.782775 Z M9.6,6 C9.6,5.33669999 10.1390999,4.8 10.8,4.8 L37.2,4.8 C37.865625,4.8 38.4,5.33669999 38.4,6 C38.4,6.66330001 37.865625,7.2 37.2,7.2 L10.8,7.2 C10.1390999,7.2 9.6,6.66330001 9.6,6 L9.6,6 Z M26.159966,32.4 L25.2,31.439966 L29.0400339,27.6 L30,28.5600339 L26.159966,32.4 L26.159966,32.4 Z M26.1332966,36 L25.2,35.06663 L32.6667034,27.6 L33.6,28.53337 L26.1332966,36 L26.1332966,36 Z M32.6400339,31.2 L33.6,32.1600339 L29.759966,36 L28.8,35.039966 L32.6400339,31.2 L32.6400339,31.2 Z" id="Imported-Layers"></path>
            </g>
        </g>
    </g>
</svg>