<?xml version="1.0" encoding="UTF-8"?>
<svg width="112px" height="112px" viewBox="0 0 112 112" version="1.1" xmlns="http://www.w3.org/2000/svg" xmlns:xlink="http://www.w3.org/1999/xlink">
    <!-- Generator: Sketch 63.1 (92452) - https://sketch.com -->
    <title>Badge / Properties / Selected / Flats</title>
    <desc>Created with Sketch.</desc>
    <defs>
        <linearGradient x1="0%" y1="13.6245675%" x2="252.959821%" y2="198.364672%" id="linearGradient-1">
            <stop stop-color="#A8DC28" offset="0%"></stop>
            <stop stop-color="#31C5F2" offset="100%"></stop>
        </linearGradient>
    </defs>
    <g id="Badge-/-Properties-/-Selected-/-Flats" stroke="none" stroke-width="1" fill="none" fill-rule="evenodd">
        <g id="Badge-/-Properties-/-Selected">
            <g id="Badge-/-z.Base-/-Large">
                <g id="Badge-/-z.Base-/-Shapes-/-Large" fill="#FFFFFF" fill-rule="evenodd" stroke="#CBD5D9" stroke-width="1">
                    <rect id="Rectangle" x="0.5" y="0.5" width="111" height="111" rx="4"></rect>
                </g>
                <text id="Category-name" font-family="Poppins-SemiBold, Poppins" font-size="14" font-weight="500" fill="#82C148">
                    <tspan x="39.067" y="81">Flats</tspan>
                </text>
                <g id="Icon-/-Category-/-Properties-/-Flats" transform="translate(32.000000, 21.000000)" fill="url(#linearGradient-1)" fill-rule="evenodd">
                    <path d="M43.8155665,38.3451355 L43.3084451,38.3451355 C43.0308615,38.3451355 43.0308615,38.0063728 43.0308615,38.0063728 L43.0308615,14.3097938 C43.0308615,13.713249 42.5573243,13.2251734 41.9788537,13.2251734 L33.8403749,13.2251734 C33.5481924,13.2251734 33.5636823,12.9395499 33.5636823,12.9395499 L33.5636823,8.37133966 C33.5636823,8.32618539 33.5883564,8.27537803 33.7337965,8.27537803 C34.0552453,8.27537803 34.3182301,8.00424067 34.3182301,7.67282681 L34.3182301,6.60255122 C34.3182301,6.27113746 34.0552453,6 33.7337965,6 L14.836655,6 C14.5152064,6 14.252153,6.27113746 14.252153,6.60255122 L14.252153,7.67282681 C14.252153,8.00424067 14.5152064,8.27537803 14.836655,8.27537803 C15.0064951,8.27537803 15.0068378,8.43232259 15.0068378,8.45048327 L15.0068378,12.83419 C15.0068378,12.83419 15.0356928,13.225244 14.7873068,13.225244 L5.99798016,13.225244 C5.41937248,13.225244 4.94597236,13.7133197 4.94597236,14.3098645 L4.94597236,38.0818418 C4.94597236,38.3077543 4.82719401,38.3452769 4.58737541,38.3452769 L4.18443355,38.3452769 C3.86298487,38.3452769 3.6,38.6164143 3.6,38.9478281 L3.6,40.1974488 C3.6,40.5288625 3.86298487,40.8 4.18443355,40.8 L43.8155665,40.8 C44.1370152,40.8 44.4,40.5288625 44.4,40.1974488 L44.4,38.9478281 C44.4,38.616273 44.1370152,38.3451355 43.8155665,38.3451355 L43.8155665,38.3451355 Z M26.9062944,19.2 L30.6937798,19.2 C30.9723086,19.2 31.2,19.4278329 31.2,19.7062788 L31.2,23.4937213 C31.2,23.7721671 30.9723086,24 30.6937798,24 L26.9062944,24 C26.6276915,24 26.4,23.7721671 26.4,23.4937213 L26.4,19.7062788 C26.4,19.4278329 26.6276915,19.2 26.9062944,19.2 L26.9062944,19.2 Z M26.4,16.2937955 L26.4,12.5062787 C26.4,12.2278329 26.6276915,12 26.9062944,12 L30.6937798,12 C30.9723086,12 31.2,12.2278329 31.2,12.5062787 L31.2,16.2937955 C31.2,16.5722414 30.9723086,16.8 30.6937798,16.8 L26.9062944,16.8 C26.6276915,16.8 26.4,16.5722414 26.4,16.2937955 L26.4,16.2937955 Z M26.9062944,25.2 L30.6937798,25.2 C30.9723086,25.2 31.2,25.4278329 31.2,25.7062787 L31.2,29.4937212 C31.2,29.7721671 30.9723086,30 30.6937798,30 L26.9062944,30 C26.6276915,30 26.4,29.7721671 26.4,29.4937212 L26.4,25.7062787 C26.4,25.427907 26.6276915,25.2 26.9062944,25.2 L26.9062944,25.2 Z M27.1582846,32.4 C27.401092,32.4 27.6,32.5987784 27.6,32.8417154 L27.6,37.9582846 C27.6,38.2012216 27.401092,38.4 27.1582846,38.4 L22.0417154,38.4 C21.798908,38.4 21.6,38.2012216 21.6,37.9582846 L21.6,32.8417154 C21.6,32.5987784 21.798908,32.4 22.0417154,32.4 L27.1582846,32.4 L27.1582846,32.4 Z M22.8,16.2937955 C22.8,16.5722414 22.5721672,16.8 22.2937213,16.8 L18.5062787,16.8 C18.2278328,16.8 18,16.5722414 18,16.2937955 L18,12.5062787 C18,12.2278329 18.2278328,12 18.5062787,12 L22.2937213,12 C22.5721672,12 22.8,12.2278329 22.8,12.5062787 L22.8,16.2937955 L22.8,16.2937955 Z M18.5062787,19.2 L22.2937213,19.2 C22.5721672,19.2 22.8,19.4278329 22.8,19.7062788 L22.8,23.4937213 C22.8,23.7721671 22.5721672,24 22.2937213,24 L18.5062787,24 C18.2278328,24 18,23.7721671 18,23.4937213 L18,19.7062788 C18,19.4278329 18.2278328,19.2 18.5062787,19.2 L18.5062787,19.2 Z M18.5062787,25.2 L22.2937213,25.2 C22.5721672,25.2 22.8,25.4278329 22.8,25.7062787 L22.8,29.4937212 C22.8,29.7721671 22.5721672,30 22.2937213,30 L18.5062787,30 C18.2278328,30 18,29.7721671 18,29.4937212 L18,25.7062787 C18,25.427907 18.2278328,25.2 18.5062787,25.2 L18.5062787,25.2 Z M34.8,18.5062709 C34.8,18.2278293 35.0279742,18 35.3062631,18 L39.0937369,18 C39.3721001,18 39.6,18.2278293 39.6,18.5062709 L39.6,22.2937292 C39.6,22.5721707 39.3721001,22.8 39.0937369,22.8 L35.3062631,22.8 C35.0279742,22.8 34.8,22.5721707 34.8,22.2937292 L34.8,18.5062709 L34.8,18.5062709 Z M34.8,25.7062787 C34.8,25.4278328 35.0279742,25.2 35.3062631,25.2 L39.0937369,25.2 C39.3721001,25.2 39.6,25.4278328 39.6,25.7062787 L39.6,29.4937956 C39.6,29.7721671 39.3721001,30 39.0937369,30 L35.3062631,30 C35.0279742,30 34.8,29.7721671 34.8,29.4937956 L34.8,25.7062787 L34.8,25.7062787 Z M34.8,31.7062788 C34.8,31.4278329 35.0279742,31.2 35.3062631,31.2 L39.0937369,31.2 C39.3721001,31.2 39.6,31.4278329 39.6,31.7062788 L39.6,35.4937955 C39.6,35.7722414 39.3721001,36 39.0937369,36 L35.3062631,36 C35.0279742,36 34.8,35.7722414 34.8,35.4937955 L34.8,31.7062788 L34.8,31.7062788 Z M8.4,18.5062709 C8.4,18.2278293 8.62783291,18 8.9062787,18 L12.6937955,18 C12.9721671,18 13.2,18.2278293 13.2,18.5062709 L13.2,22.2937292 C13.2,22.5721707 12.9721671,22.8 12.6937955,22.8 L8.9062787,22.8 C8.62783291,22.8 8.4,22.5721707 8.4,22.2937292 L8.4,18.5062709 L8.4,18.5062709 Z M8.4,25.7062787 C8.4,25.4278328 8.62783291,25.2 8.9062787,25.2 L12.6937955,25.2 C12.9721671,25.2 13.2,25.4278328 13.2,25.7062787 L13.2,29.4937956 C13.2,29.7721671 12.9721671,30 12.6937955,30 L8.9062787,30 C8.62783291,30 8.4,29.7721671 8.4,29.4937956 L8.4,25.7062787 L8.4,25.7062787 Z M8.4,31.7062788 C8.4,31.4278329 8.62783291,31.2 8.9062787,31.2 L12.6937955,31.2 C12.9721671,31.2 13.2,31.4278329 13.2,31.7062788 L13.2,35.4937955 C13.2,35.7722414 12.9721671,36 12.6937955,36 L8.9062787,36 C8.62783291,36 8.4,35.7722414 8.4,35.4937955 L8.4,31.7062788 L8.4,31.7062788 Z" id="Imported-Layers"></path>
                </g>
            </g>
            <g id="Badge-/-z.Base-/-Shapes-/-Large" stroke="#91D851" stroke-width="3">
                <rect id="Rectangle" x="1.5" y="1.5" width="109" height="109" rx="4"></rect>
            </g>
            <g id="Icon-/-Check-/-Checkbox" transform="translate(80.000000, 8.000000)" fill="#91D851" fill-rule="evenodd">
                <path d="M10.9709463,13.366529 L16.3112027,6.57437624 C16.8225102,5.92405564 17.7675383,5.80875183 18.4219821,6.31683796 C19.0764259,6.8249241 19.1924607,7.76399831 18.6811532,8.41431891 C14.2260171,13.9508613 11.8927875,16.7447414 11.6814646,16.7959592 C11.0876228,17.1417187 10.3115238,17.0459069 9.82251261,16.5248105 L6.403984,12.8819836 C5.83758363,12.2784203 5.87081232,11.3328702 6.47820235,10.7700383 C7.08559238,10.2072064 8.0371375,10.2402257 8.60353787,10.843789 L10.9709463,13.366529 Z" id="Path"></path>
            </g>
        </g>
    </g>
</svg>