<?xml version="1.0" encoding="UTF-8"?>
<svg width="112px" height="112px" viewBox="0 0 112 112" version="1.1" xmlns="http://www.w3.org/2000/svg" xmlns:xlink="http://www.w3.org/1999/xlink">
    <!-- Generator: Sketch 63.1 (92452) - https://sketch.com -->
    <title>Badge / Properties / Selected / Overseas</title>
    <desc>Created with Sketch.</desc>
    <defs>
        <linearGradient x1="0%" y1="0%" x2="252.959821%" y2="253.935268%" id="linearGradient-1">
            <stop stop-color="#A8DC28" offset="0%"></stop>
            <stop stop-color="#31C5F2" offset="100%"></stop>
        </linearGradient>
    </defs>
    <g id="Badge-/-Properties-/-Selected-/-Overseas" stroke="none" stroke-width="1" fill="none" fill-rule="evenodd">
        <g id="Badge-/-Properties-/-Selected">
            <g id="Badge-/-z.Base-/-Large">
                <g id="Badge-/-z.Base-/-Shapes-/-Large" fill="#FFFFFF" fill-rule="evenodd" stroke="#CBD5D9" stroke-width="1">
                    <rect id="Rectangle" x="0.5" y="0.5" width="111" height="111" rx="4"></rect>
                </g>
                <text id="Category-name" font-family="Poppins-SemiBold, Poppins" font-size="14" font-weight="500" fill="#82C148">
                    <tspan x="22.47" y="81">Overseas</tspan>
                </text>
                <g id="Icon-/-Category-/-Properties-/-Overseas" transform="translate(32.000000, 21.000000)" fill="url(#linearGradient-1)" fill-rule="evenodd">
                    <path d="M44.3649081,22.7292558 C44.3297477,22.1115154 44.2599752,21.4935693 44.1433906,20.8175708 C43.8403805,18.8009528 43.2107143,16.8075696 42.2663862,14.9307708 C38.8160045,7.94810333 31.810171,3.6 24.0000343,3.6 C19.1740096,3.6 14.4994559,5.31360785 10.8273511,8.42602463 C9.52189193,9.5216863 8.37941818,10.7575785 7.41192411,12.1095754 C5.90811363,14.1961716 4.81245187,16.5626118 4.19450578,19.103963 C3.79807727,20.6891976 3.6,22.3330329 3.6,24.0000343 C3.6,25.8185065 3.83296351,27.5786521 4.28799275,29.2573738 C4.82417207,31.2739231 5.66343001,33.162442 6.75902323,34.88777 C8.50751723,37.6503646 10.9090493,39.9701983 13.7416906,41.6256853 C16.7609631,43.3858995 20.269877,44.4 24.0000343,44.4 C24.9327106,44.4 25.8419468,44.341742 26.7394628,44.2133688 C30.1434437,43.7704023 33.2790951,42.4881093 35.9253108,40.5881444 C40.8679885,37.0443443 44.1435963,31.3208037 44.3883484,24.7577311 C44.4,24.5247676 44.4,24.2681582 44.4,24.0000343 C44.4,23.5687194 44.3880743,23.1488505 44.3649081,22.7292558 L44.3649081,22.7292558 Z M39.6241575,19.2784114 C39.7112626,19.1423175 40.0072971,19.1878596 40.2774204,19.3802823 C40.3472172,19.4369438 40.4079501,19.4483293 40.4602336,19.4483293 C40.590917,20.0597538 40.7041383,20.6939493 40.773935,21.3395304 C40.7912433,21.4300822 40.7912433,21.5094482 40.8,21.6 C40.7041383,21.2942545 40.5563002,20.9996948 40.3993471,20.7845011 L39.9724756,20.218286 C39.6938007,19.84456 39.5368475,19.4255581 39.6241575,19.2784114 L39.6241575,19.2784114 Z M39.1851901,31.1999808 C37.8771459,33.9299265 35.8751874,36.2504472 33.3842923,37.9224554 C32.6789422,38.4116653 31.9509878,38.8325264 31.1776239,39.1964745 C30.6429434,39.4466639 30.1083299,39.6628124 29.5622136,39.8560888 C28.811454,40.1177142 28.0380234,40.3338627 27.2417876,40.4817292 C26.9801653,40.5385753 26.7185431,40.5840521 26.4569209,40.6180928 C25.6494498,40.7433546 24.8303422,40.8 24.0000661,40.8 C20.4626821,40.8 17.1752837,39.7080886 14.4682427,37.8313011 C12.2956145,36.3298979 10.4871977,34.3165462 9.21319376,31.984857 C8.83774707,31.2909345 8.50784358,30.5744074 8.24648884,29.823572 C7.56401068,28.0036973 7.2,26.0471917 7.2,23.9997325 C7.2,23.0897283 7.30238842,22.2025294 7.43881723,21.3266997 C7.46162216,21.4176533 7.47285752,21.5202437 7.49566246,21.5997611 L8.10985949,23.5333947 C8.26889259,24.0337732 8.82637805,24.5118146 9.34955559,24.5912653 L12.2158974,25.0349985 C12.7050346,25.1033475 13.2168431,25.5242085 13.410184,25.9905463 C13.4329891,26.024587 13.4442244,26.0702645 13.4556604,26.1043053 L13.7172157,26.9801349 C13.8765164,27.4805135 13.6603704,28.1515638 13.228279,28.4588666 L12.6253174,28.9025999 C12.2044614,29.2096351 11.7495651,29.8807523 11.6243716,30.3927676 L11.3287091,31.5870687 L11.1808443,32.1786016 C11.0556509,32.6904162 11.3287091,33.3159898 11.783806,33.566179 C12.2501383,33.8163683 13.0578099,34.0894297 13.5696184,34.1803164 C14.1042989,34.2712701 14.7296643,34.6580904 14.9800512,35.0221054 C15.0029231,35.0561462 15.0369634,35.1018236 15.0595678,35.1473004 C15.309754,35.5341207 15.6508929,36.1254529 15.8558036,36.55775 L16.7542272,38.3321478 C16.981809,38.8099217 17.5730673,39.1967421 18.0622714,39.1967421 C18.5397721,39.1967421 18.8697425,38.764445 18.7902259,38.2411942 L18.3695705,35.5567254 C18.2898533,35.0335415 18.4490871,34.2372293 18.7221453,33.7823276 L19.1884775,33.0088875 C19.4729048,32.5539858 19.6659783,31.7577405 19.6433739,31.2230537 L19.5752932,29.9719066 C19.5412529,29.4486559 19.1203969,28.8458876 18.6311928,28.6409745 L16.8568162,27.9015752 C16.3678795,27.6968627 15.8331992,27.1167659 15.6736979,26.6163874 L15.2302375,25.2514145 C15.1279159,24.9328763 15.0255275,24.4665384 14.9800512,24.0456774 C14.934575,23.8067235 14.9117699,23.5679035 14.9117699,23.3860631 C14.900334,22.8173356 15.1847612,22.0553317 15.537336,21.6685114 L15.7646504,21.4183221 C15.9125152,21.2476503 16.0831848,21.1681328 16.2309826,21.1566967 C16.4356927,21.1453275 16.6177984,21.2819585 16.7201868,21.5433164 C16.9022924,21.9982182 17.22076,22.2941518 17.4367053,22.1917621 C17.6640198,22.0893724 17.9485138,21.6004299 18.0737073,21.1224554 C18.1989008,20.6332454 18.676669,20.0191079 19.1313647,19.7574826 L19.2565582,19.6892004 C19.7114545,19.4275751 20.1892227,18.7905655 20.3255846,18.2787508 L21.1330556,15.2871798 C21.2694844,14.7753651 21.0533384,14.0700735 20.6555549,13.7289305 L20.1435458,13.2966334 C19.7454948,12.9554905 19.1196613,12.3639577 18.744549,11.9885734 L18.6081202,11.8521431 C18.5852484,11.8292709 18.562644,11.8066662 18.528403,11.7838609 C18.141788,11.4424506 17.4593097,11.1696566 16.9701056,11.1696566 L14.0818951,11.1696566 C13.8545139,11.1696566 13.5131744,11.1582206 13.1603991,11.1696566 C14.2637333,10.2369809 15.480892,9.45217174 16.7887355,8.82653131 C19.0065725,7.7800967 21.4408229,7.2 24.0000661,7.2 C29.6188582,7.2 34.6011835,9.97535555 37.6379274,14.2181405 L33.9867859,13.7289305 C33.6796873,13.6834538 33.3043076,13.7629712 32.9744041,13.9224744 C32.7468222,14.0247973 32.5534813,14.1612276 32.4171193,14.3318994 L30.8474528,16.2314922 L29.152526,18.2789514 C28.7657103,18.7452893 28.4586787,19.5074939 28.4246384,20.0307447 L28.3336858,21.3728453 C28.2996455,21.896096 28.5838722,22.0325264 28.9706879,21.6799474 L29.5165367,21.1681328 C29.9030849,20.8156207 30.6539113,20.5196871 31.1773563,20.5196871 L31.5639714,20.5196871 C32.0985849,20.5196871 32.6332653,20.9405482 32.7582582,21.4523628 L32.8720156,21.8958954 C32.9970085,22.40771 32.9515322,23.1130017 32.7808626,23.4770167 C32.5989575,23.8295288 32.0303037,24.0911542 31.4956233,24.0342414 L30.0964258,23.9090464 C29.5731814,23.8521335 28.8566628,24.1251949 28.4924515,24.5232507 L28.0261193,25.0349985 C27.946402,25.1259521 27.8668854,25.2397778 27.7988049,25.3649728 C27.5712229,25.7629618 27.4460294,26.2976485 27.5031423,26.6956375 L27.6964164,28.0151335 C27.7078523,28.1403284 27.7533286,28.2767588 27.8102408,28.4133899 C27.9694746,28.845687 28.2765731,29.3005887 28.5950406,29.5393419 L29.2547138,30.0171159 C29.6755698,30.3356542 30.0169093,31.0181405 30.0169093,31.5527605 L29.971433,34.6352852 C29.9599971,35.0901869 30.2216193,35.6134376 30.5629588,35.8749961 C30.619871,35.9204729 30.6767831,35.9547811 30.7334279,35.9888219 C31.1657198,36.2049705 31.8027217,36.057104 32.1552296,35.6588476 L32.7922985,34.9535558 C33.1450739,34.5552994 33.5885342,33.8276038 33.7818083,33.3383938 C33.7818083,33.3383938 34.1912284,32.269087 34.1912284,32.0531391 C34.1912284,31.8484266 34.5440706,31.6777548 34.5440706,31.6777548 C35.0215713,31.4616062 35.5676208,30.9838323 35.7497264,30.6198841 C35.8861552,30.3353866 36.0794293,29.9259616 36.2160587,29.5848188 C36.2615349,29.4939321 36.2958428,29.4029785 36.3184472,29.3232603 C36.4433731,28.9821174 36.887101,28.4246253 37.3077564,28.1060871 C37.7969605,27.7192667 38.3541784,27.0822571 38.6386725,26.6273553 L39.0140523,26.001715 C39.0938363,25.87652 39.1278767,25.7515256 39.1392457,25.6603714 C39.1392457,25.6148946 39.1278767,25.5694846 39.1164407,25.5125718 C39.0480926,25.3647053 38.8662545,25.3078594 38.5705919,25.3647053 C37.9904353,25.4896997 37.2056355,25.3304639 36.7733435,25.0233618 L36.3639235,24.7389312 C35.9316314,24.4432651 35.6474049,24.022404 35.7269215,23.8176915 C35.8178071,23.6129121 36.2727703,23.658389 36.7276666,23.9200144 L37.069006,24.1132907 C37.5239023,24.3749161 38.331574,24.557024 38.8548186,24.5227826 L39.2868429,24.4884744 C39.8100875,24.4429975 40.3675728,24.181439 40.5154375,23.8969415 C40.6291951,23.680793 40.7201476,23.3736908 40.7656238,23.1349376 C40.7884288,23.4194351 40.8,23.7036652 40.8,23.9995318 C40.8005336,24.2047125 40.8005336,24.409425 40.7891644,24.6255736 C40.7093804,26.9800681 40.1407266,29.1981991 39.1851901,31.1999808 Z" id="Fill-1"></path>
                </g>
            </g>
            <g id="Badge-/-z.Base-/-Shapes-/-Large" stroke="#91D851" stroke-width="3">
                <rect id="Rectangle" x="1.5" y="1.5" width="109" height="109" rx="4"></rect>
            </g>
            <g id="Icon-/-Check-/-Checkbox" transform="translate(80.000000, 8.000000)" fill="#91D851" fill-rule="evenodd">
                <path d="M10.9709463,13.366529 L16.3112027,6.57437624 C16.8225102,5.92405564 17.7675383,5.80875183 18.4219821,6.31683796 C19.0764259,6.8249241 19.1924607,7.76399831 18.6811532,8.41431891 C14.2260171,13.9508613 11.8927875,16.7447414 11.6814646,16.7959592 C11.0876228,17.1417187 10.3115238,17.0459069 9.82251261,16.5248105 L6.403984,12.8819836 C5.83758363,12.2784203 5.87081232,11.3328702 6.47820235,10.7700383 C7.08559238,10.2072064 8.0371375,10.2402257 8.60353787,10.843789 L10.9709463,13.366529 Z" id="Path"></path>
            </g>
        </g>
    </g>
</svg>