<?xml version="1.0" encoding="UTF-8"?>
<svg width="112px" height="112px" viewBox="0 0 112 112" version="1.1" xmlns="http://www.w3.org/2000/svg" xmlns:xlink="http://www.w3.org/1999/xlink">
    <!-- Generator: Sketch 63.1 (92452) - https://sketch.com -->
    <title>Badge / Properties / Selected / Parking</title>
    <desc>Created with Sketch.</desc>
    <defs>
        <linearGradient x1="22.967128%" y1="0%" x2="159.731737%" y2="253.935268%" id="linearGradient-1">
            <stop stop-color="#A8DC28" offset="0%"></stop>
            <stop stop-color="#31C5F2" offset="100%"></stop>
        </linearGradient>
    </defs>
    <g id="Badge-/-Properties-/-Selected-/-Parking" stroke="none" stroke-width="1" fill="none" fill-rule="evenodd">
        <g id="Badge-/-Properties-/-Selected">
            <g id="Badge-/-z.Base-/-Large">
                <g id="Badge-/-z.Base-/-Shapes-/-Large" fill="#FFFFFF" fill-rule="evenodd" stroke="#CBD5D9" stroke-width="1">
                    <rect id="Rectangle" x="0.5" y="0.5" width="111" height="111" rx="4"></rect>
                </g>
                <text id="Category-name" font-family="Poppins-SemiBold, Poppins" font-size="14" font-weight="500" fill="#82C148">
                    <tspan x="28.763" y="81">Parking</tspan>
                </text>
                <g id="Icon-/-Category-/-Properties-/-Parking" transform="translate(32.000000, 21.000000)" fill="url(#linearGradient-1)" fill-rule="evenodd">
                    <path d="M34.0997295,3.6 C37.0624385,3.6 39.4777726,5.90356332 39.5955054,8.78934594 L39.6,9.0068444 L39.6,28.5119092 C39.6,31.4248621 37.2552111,33.799473 34.3225562,33.9135748 L34.1015323,33.9178671 L26.3874527,33.9178671 L26.3874527,39.8025422 C28.109104,40.3282445 29.4341446,41.5675901 30.1056787,43.1562218 C30.2228592,43.4319275 30.196719,43.7492993 30.0281593,43.9966365 C29.8790923,44.2146079 29.6451398,44.3599545 29.3854802,44.3928854 L29.2727961,44.4 L19.8848386,44.4 C19.5810709,44.4 19.2953308,44.2457466 19.1258698,43.9966365 C18.9573103,43.7484127 18.9230575,43.4283815 19.040238,43.1526758 C19.6772822,41.6476563 20.946157,40.4593061 22.4889429,39.890643 L22.7485488,39.8016557 L22.7485488,33.9169807 L15.0975663,33.9169807 C12.1357367,33.9169807 9.72042406,31.6125735 9.60436588,28.7275729 L9.6,28.5101362 L9.6,9.0068444 C9.6,6.09302666 11.9447888,3.71839461 14.8766067,3.60429229 L15.0975663,3.6 L34.0997295,3.6 Z M33.3380567,5.92266476 L15.8096629,5.92266476 C13.6964711,5.92266476 11.9470299,7.5391862 11.8397534,9.59067296 L11.8345412,9.79052213 L11.8345412,27.6954305 C11.8345412,29.7720324 13.5179452,31.4850626 15.6063389,31.5900991 L15.8096629,31.5952024 L33.3380567,31.5952024 C35.4521216,31.5952024 37.1889012,29.947066 37.2953854,27.8952152 L37.3005589,27.6954305 L37.3005589,9.79052213 C37.3005589,7.64516003 35.5203173,5.92266476 33.3380567,5.92266476 Z M33.3389581,7.68062056 C34.4658499,7.68062056 35.3684206,8.55012081 35.4447748,9.64052266 L35.450009,9.79052213 L35.450009,27.6954305 C35.450009,28.8037263 34.5964336,29.694647 33.4903893,29.7700232 L33.3380567,29.7751906 L15.8096629,29.7751906 C14.6819087,29.7751906 13.7685793,28.9340789 13.6912913,27.8453698 L13.6859924,27.6954305 L13.6859924,9.79140863 C13.6859924,8.68226492 14.5494643,7.76372992 15.6571581,7.68595399 L15.8096629,7.68062056 L33.3389581,7.68062056 Z M24.1754462,11.0972427 C22.2816898,11.0972427 20.9022455,11.2092192 19.8956708,11.3632576 L19.6856319,11.3968842 L19.6856319,25.6325141 L22.9414458,25.6325141 L22.9414458,20.476553 C23.2596359,20.5191057 23.6562466,20.5403819 24.0916171,20.5403819 C26.053939,20.5403819 27.7476474,20.0696434 28.8833965,19.0200117 C29.7550387,18.2061925 30.2372814,17.0085131 30.2363813,15.5954109 C30.2363813,14.1805358 29.6054083,12.9810834 28.6661619,12.253256 C27.6854516,11.4828759 26.2261042,11.0972427 24.1754462,11.0972427 Z M24.0553594,13.2 C25.5516956,13.2 26.4008135,14.0499109 26.4,15.4740345 C26.4,17.0578729 25.415739,18 23.8192671,18 C23.3853459,18 23.0881953,17.9771837 22.8,17.9087344 L22.8,17.9087344 L22.8,13.3378491 C23.0303934,13.2693999 23.4455901,13.2 24.0553594,13.2 Z" id="Combined-Shape"></path>
                </g>
            </g>
            <g id="Badge-/-z.Base-/-Shapes-/-Large" stroke="#91D851" stroke-width="3">
                <rect id="Rectangle" x="1.5" y="1.5" width="109" height="109" rx="4"></rect>
            </g>
            <g id="Icon-/-Check-/-Checkbox" transform="translate(80.000000, 8.000000)" fill="#91D851" fill-rule="evenodd">
                <path d="M10.9709463,13.366529 L16.3112027,6.57437624 C16.8225102,5.92405564 17.7675383,5.80875183 18.4219821,6.31683796 C19.0764259,6.8249241 19.1924607,7.76399831 18.6811532,8.41431891 C14.2260171,13.9508613 11.8927875,16.7447414 11.6814646,16.7959592 C11.0876228,17.1417187 10.3115238,17.0459069 9.82251261,16.5248105 L6.403984,12.8819836 C5.83758363,12.2784203 5.87081232,11.3328702 6.47820235,10.7700383 C7.08559238,10.2072064 8.0371375,10.2402257 8.60353787,10.843789 L10.9709463,13.366529 Z" id="Path"></path>
            </g>
        </g>
    </g>
</svg>