<?xml version="1.0" encoding="UTF-8"?>
<svg width="67px" height="67px" viewBox="0 0 67 67" version="1.1" xmlns="http://www.w3.org/2000/svg" xmlns:xlink="http://www.w3.org/1999/xlink">
    <!-- Generator: Sketch 63.1 (92452) - https://sketch.com -->
    <title>Ribbon / Featured</title>
    <desc>Created with Sketch.</desc>
    <defs>
        <linearGradient x1="1.43489471%" y1="1.30384291%" x2="99.8654393%" y2="100%" id="linearGradient-1">
            <stop stop-color="#EE316F" offset="0%"></stop>
            <stop stop-color="#FE8A7A" offset="100%"></stop>
        </linearGradient>
    </defs>
    <g id="Ribbon-/-Featured" stroke="none" stroke-width="1" fill="none" fill-rule="evenodd">
        <g id="Ribbon-featured-ad">
            <polygon id="Rectangle-150" fill="url(#linearGradient-1)" points="26.0993601 0.495629883 66.3681832 0.495629883 66.3681832 0.584637462 0.354956055 66.5978646 0.354956055 26.240034"></polygon>
            <path d="M3.51036261,22.9212013 L3.51036261,24.2652013 L-0.0536373866,24.2652013 L-0.0536373866,26.5332013 L2.80236261,26.5332013 L2.80236261,27.8292013 L-0.0536373866,27.8292013 L-0.0536373866,31.3932013 L-1.74563739,31.3932013 L-1.74563739,22.9212013 L3.51036261,22.9212013 Z M6.72945939,24.2652013 L6.72945939,26.4612013 L9.72945939,26.4612013 L9.72945939,27.7572013 L6.72945939,27.7572013 L6.72945939,30.0372013 L10.0894594,30.0372013 L10.0894594,31.3932013 L5.03745939,31.3932013 L5.03745939,22.9212013 L10.0894594,22.9212013 L10.0894594,24.2652013 L6.72945939,24.2652013 Z M16.8845562,29.6892013 L13.4885562,29.6892013 L12.8885562,31.3932013 L11.1005562,31.3932013 L14.2205562,23.0172013 L16.1525562,23.0172013 L19.2605562,31.3932013 L17.4725562,31.3932013 L16.8845562,29.6892013 Z M16.4285562,28.4052013 L15.1805562,24.8292013 L13.9325562,28.4052013 L16.4285562,28.4052013 Z M26.3196529,22.9212013 L26.3196529,24.2652013 L23.9796529,24.2652013 L23.9796529,31.3932013 L22.2876529,31.3932013 L22.2876529,24.2652013 L19.9596529,24.2652013 L19.9596529,22.9212013 L26.3196529,22.9212013 Z M29.2747497,22.9212013 L29.2747497,27.8892013 C29.2747497,28.5532046 29.4207483,29.0511997 29.7127497,29.3832013 C30.0047512,29.715203 30.426747,29.8812013 30.9787497,29.8812013 C31.5227524,29.8812013 31.9407483,29.715203 32.2327497,29.3832013 C32.5247512,29.0511997 32.6707497,28.5532046 32.6707497,27.8892013 L32.6707497,22.9212013 L34.3507497,22.9212013 L34.3507497,27.8892013 C34.3507497,28.6732052 34.2047512,29.3351986 33.9127497,29.8752013 C33.6207483,30.415204 33.2167523,30.8172 32.7007497,31.0812013 C32.1847471,31.3452026 31.598753,31.4772013 30.9427497,31.4772013 C29.9267446,31.4772013 29.1147528,31.1732044 28.5067497,30.5652013 C27.8987467,29.9571983 27.5947497,29.0652072 27.5947497,27.8892013 L27.5947497,22.9212013 L29.2747497,22.9212013 Z M40.6418465,31.3932013 L38.6618465,28.0932013 L37.9178465,28.0932013 L37.9178465,31.3932013 L36.2258465,31.3932013 L36.2258465,22.9212013 L39.4538465,22.9212013 C40.4378514,22.9212013 41.1878439,23.1611989 41.7038465,23.6412013 C42.2198491,24.1212037 42.4778465,24.7531974 42.4778465,25.5372013 C42.4778465,26.1772045 42.2998483,26.7131992 41.9438465,27.1452013 C41.5878447,27.5772035 41.0738498,27.8652006 40.4018465,28.0092013 L42.5138465,31.3932013 L40.6418465,31.3932013 Z M37.9178465,26.9292013 L39.3098465,26.9292013 C40.2778513,26.9292013 40.7618465,26.5012056 40.7618465,25.6452013 C40.7618465,25.2371993 40.6438477,24.9192025 40.4078465,24.6912013 C40.1718453,24.4632002 39.805849,24.3492013 39.3098465,24.3492013 L37.9178465,24.3492013 L37.9178465,26.9292013 Z M49.0569433,22.9212013 L49.0569433,24.2652013 L45.6969433,24.2652013 L45.6969433,26.4612013 L48.6969433,26.4612013 L48.6969433,27.7572013 L45.6969433,27.7572013 L45.6969433,30.0372013 L49.0569433,30.0372013 L49.0569433,31.3932013 L44.0049433,31.3932013 L44.0049433,22.9212013 L49.0569433,22.9212013 Z M53.70404,22.9212013 C54.6240446,22.9212013 55.4180367,23.0951996 56.08604,23.4432013 C56.7540434,23.7912031 57.2640383,24.2831981 57.61604,24.9192013 C57.9680418,25.5552045 58.14404,26.2971971 58.14404,27.1452013 C58.14404,27.9852055 57.9680418,28.7251981 57.61604,29.3652013 C57.2640383,30.0052045 56.7540434,30.5031995 56.08604,30.8592013 C55.4180367,31.2152031 54.6240446,31.3932013 53.70404,31.3932013 L50.69204,31.3932013 L50.69204,22.9212013 L53.70404,22.9212013 Z M53.56004,24.3972013 L52.38404,24.3972013 L52.38404,29.8812013 L53.56004,29.8812013 C54.4720446,29.8812013 55.1780375,29.6412037 55.67804,29.1612013 C56.1780425,28.6811989 56.42804,28.0092056 56.42804,27.1452013 C56.42804,26.273197 56.1780425,25.5972037 55.67804,25.1172013 C55.1780375,24.6371989 54.4720446,24.3972013 53.56004,24.3972013 L53.56004,24.3972013 Z" id="FEATURED" fill="#FFFFFF" fill-rule="nonzero" transform="translate(28.199201, 27.199201) rotate(-45.000000) translate(-28.199201, -27.199201) "></path>
            <polygon id="Rectangle-154" fill="#4A4A4A" points="66.6814207 0.495629883 66.6814207 4.08536585 63.0991295 4.08536585"></polygon>
            <polygon id="Rectangle-155" fill="#4A4A4A" points="0.354956055 66.5213288 3.95417076 66.5213288 3.95417076 62.9146341"></polygon>
            <g id="stars" transform="translate(17.089200, 19.250337) rotate(-45.000000) translate(-17.089200, -19.250337) translate(-1.410800, 15.250337)" fill="#FFFFFF">
                <polygon id="Star-1" points="3.76020408 6.7 1.99205008 7.73520693 2.32973744 5.54260347 0.899270806 3.98979307 2.87612708 3.66989653 3.76020408 1.675 4.64428108 3.66989653 6.62113736 3.98979307 5.19067072 5.54260347 5.52835809 7.73520693"></polygon>
                <polygon id="Star-2" points="10.9045918 6.490625 8.91541858 7.6552328 9.29531687 5.1885539 7.6860419 3.4416422 9.91000521 3.0817586 10.9045918 0.8375 11.8991785 3.0817586 14.1231418 3.4416422 12.5138668 5.1885539 12.8937651 7.6552328"></polygon>
                <polygon id="Star-4" points="19.5530612 6.28125 17.3428687 7.57525866 17.7649779 4.83450433 15.9768946 2.89349134 18.447965 2.49362067 19.5530612 1.59655487e-13 20.6581575 2.49362067 23.1292278 2.89349134 21.3411445 4.83450433 21.7632537 7.57525866"></polygon>
                <polygon id="Star-3" points="27.4494898 6.490625 25.4603165 7.6552328 25.8402148 5.1885539 24.2309399 3.4416422 26.4549032 3.0817586 27.4494898 0.8375 28.4440764 3.0817586 30.6680397 3.4416422 29.0587648 5.1885539 29.4386631 7.6552328"></polygon>
                <polygon id="Star-5" points="33.8418367 6.7 32.0736827 7.73520693 32.4113701 5.54260347 30.9809035 3.98979307 32.9577597 3.66989653 33.8418367 1.675 34.7259137 3.66989653 36.70277 3.98979307 35.2723034 5.54260347 35.6099907 7.73520693"></polygon>
            </g>
        </g>
    </g>
</svg>