<svg xmlns:sketch="http://www.bohemiancoding.com/sketch/ns" xmlns="http://www.w3.org/2000/svg" xmlns:xlink="http://www.w3.org/1999/xlink" version="1.1" id="Layer_1" x="0" y="0" width="201" height="164" viewBox="-1317 389.9 201 164" xml:space="preserve" enable-background="new -1317 389.9 201 164">
  <style type="text/css">
    
	.st0{fill:#FFFFFF;}

  </style>
  <title>
    Self-Service_Title
  </title>
  <desc>
    Created with Sketch.
  </desc>
  <g id="PAA" sketch:type="MSPage">
    <g id="Desktop-HD-Motors-PAA-10" transform="translate(-205.000000, -1146.000000)" sketch:type="MSArtboardGroup">
      <g id="DPAA-banner-Copy" transform="translate(171.000000, 1119.000000)" sketch:type="MSLayerGroup">
        <g id="Self-Service_Title" transform="translate(10.000000, 27.000000)" sketch:type="MSShapeGroup">
          <path id="_x2E_..................." class="st0" d="M-1292.1 508.6c0 0.7 0.4 1.2 1.3 1.2 0.8 0 1.2-0.5 1.2-1.2 0-0.7-0.5-1.2-1.3-1.2C-1291.6 507.4-1292.1 507.9-1292.1 508.6L-1292.1 508.6zM-1286.1 508.6c0 0.7 0.4 1.2 1.3 1.2 0.8 0 1.2-0.5 1.2-1.2 0-0.7-0.5-1.2-1.3-1.2C-1285.7 507.4-1286.1 507.9-1286.1 508.6L-1286.1 508.6zM-1280.2 508.6c0 0.7 0.4 1.2 1.3 1.2 0.8 0 1.2-0.5 1.2-1.2 0-0.7-0.5-1.2-1.3-1.2C-1279.8 507.4-1280.2 507.9-1280.2 508.6L-1280.2 508.6zM-1274.3 508.6c0 0.7 0.4 1.2 1.3 1.2 0.8 0 1.2-0.5 1.2-1.2 0-0.7-0.5-1.2-1.3-1.2C-1273.8 507.4-1274.3 507.9-1274.3 508.6L-1274.3 508.6zM-1268.4 508.6c0 0.7 0.4 1.2 1.3 1.2 0.8 0 1.2-0.5 1.2-1.2 0-0.7-0.5-1.2-1.3-1.2C-1267.9 507.4-1268.4 507.9-1268.4 508.6L-1268.4 508.6zM-1262.4 508.6c0 0.7 0.4 1.2 1.3 1.2 0.8 0 1.2-0.5 1.2-1.2 0-0.7-0.5-1.2-1.3-1.2C-1262 507.4-1262.4 507.9-1262.4 508.6L-1262.4 508.6zM-1256.5 508.6c0 0.7 0.4 1.2 1.3 1.2 0.8 0 1.2-0.5 1.2-1.2 0-0.7-0.5-1.2-1.3-1.2C-1256.1 507.4-1256.5 507.9-1256.5 508.6L-1256.5 508.6zM-1250.6 508.6c0 0.7 0.4 1.2 1.3 1.2 0.8 0 1.2-0.5 1.2-1.2 0-0.7-0.5-1.2-1.3-1.2C-1250.1 507.4-1250.6 507.9-1250.6 508.6L-1250.6 508.6zM-1244.7 508.6c0 0.7 0.4 1.2 1.3 1.2 0.8 0 1.2-0.5 1.2-1.2 0-0.7-0.5-1.2-1.3-1.2C-1244.2 507.4-1244.7 507.9-1244.7 508.6L-1244.7 508.6zM-1238.7 508.6c0 0.7 0.4 1.2 1.3 1.2 0.8 0 1.2-0.5 1.2-1.2 0-0.7-0.5-1.2-1.3-1.2C-1238.3 507.4-1238.7 507.9-1238.7 508.6L-1238.7 508.6zM-1232.8 508.6c0 0.7 0.4 1.2 1.3 1.2 0.8 0 1.2-0.5 1.2-1.2 0-0.7-0.5-1.2-1.3-1.2C-1232.4 507.4-1232.8 507.9-1232.8 508.6L-1232.8 508.6zM-1226.9 508.6c0 0.7 0.4 1.2 1.3 1.2 0.8 0 1.2-0.5 1.2-1.2 0-0.7-0.5-1.2-1.3-1.2C-1226.4 507.4-1226.9 507.9-1226.9 508.6L-1226.9 508.6zM-1221 508.6c0 0.7 0.4 1.2 1.3 1.2 0.8 0 1.2-0.5 1.2-1.2 0-0.7-0.5-1.2-1.3-1.2C-1220.5 507.4-1221 507.9-1221 508.6L-1221 508.6zM-1215.1 508.6c0 0.7 0.4 1.2 1.3 1.2 0.8 0 1.2-0.5 1.2-1.2 0-0.7-0.5-1.2-1.3-1.2C-1214.6 507.4-1215.1 507.9-1215.1 508.6L-1215.1 508.6zM-1209.1 508.6c0 0.7 0.4 1.2 1.3 1.2 0.8 0 1.2-0.5 1.2-1.2 0-0.7-0.5-1.2-1.3-1.2C-1208.7 507.4-1209.1 507.9-1209.1 508.6L-1209.1 508.6zM-1203.2 508.6c0 0.7 0.4 1.2 1.3 1.2 0.8 0 1.2-0.5 1.2-1.2 0-0.7-0.5-1.2-1.3-1.2C-1202.7 507.4-1203.2 507.9-1203.2 508.6L-1203.2 508.6zM-1197.3 508.6c0 0.7 0.4 1.2 1.3 1.2 0.8 0 1.2-0.5 1.2-1.2 0-0.7-0.5-1.2-1.3-1.2C-1196.8 507.4-1197.3 507.9-1197.3 508.6L-1197.3 508.6zM-1191.4 508.6c0 0.7 0.4 1.2 1.3 1.2 0.8 0 1.2-0.5 1.2-1.2 0-0.7-0.5-1.2-1.3-1.2C-1190.9 507.4-1191.4 507.9-1191.4 508.6L-1191.4 508.6zM-1185.4 508.6c0 0.7 0.4 1.2 1.3 1.2 0.8 0 1.2-0.5 1.2-1.2 0-0.7-0.5-1.2-1.3-1.2C-1185 507.4-1185.4 507.9-1185.4 508.6L-1185.4 508.6zM-1179.5 508.6c0 0.7 0.4 1.2 1.3 1.2 0.8 0 1.2-0.5 1.2-1.2 0-0.7-0.5-1.2-1.3-1.2C-1179.1 507.4-1179.5 507.9-1179.5 508.6L-1179.5 508.6zM-1175.7 508.6c0 0.7 0.4 1.2 1.3 1.2 0.8 0 1.2-0.5 1.2-1.2 0-0.7-0.5-1.2-1.3-1.2C-1175.2 507.4-1175.7 507.9-1175.7 508.6L-1175.7 508.6zM-1169.8 508.6c0 0.7 0.4 1.2 1.3 1.2 0.8 0 1.2-0.5 1.2-1.2 0-0.7-0.5-1.2-1.3-1.2C-1169.3 507.4-1169.8 507.9-1169.8 508.6L-1169.8 508.6zM-1163.8 508.6c0 0.7 0.4 1.2 1.3 1.2 0.8 0 1.2-0.5 1.2-1.2 0-0.7-0.5-1.2-1.3-1.2C-1163.4 507.4-1163.8 507.9-1163.8 508.6L-1163.8 508.6zM-1157.9 508.6c0 0.7 0.4 1.2 1.3 1.2 0.8 0 1.2-0.5 1.2-1.2 0-0.7-0.5-1.2-1.3-1.2C-1157.5 507.4-1157.9 507.9-1157.9 508.6L-1157.9 508.6zM-1152 508.6c0 0.7 0.4 1.2 1.3 1.2 0.8 0 1.2-0.5 1.2-1.2 0-0.7-0.5-1.2-1.3-1.2C-1151.5 507.4-1152 507.9-1152 508.6L-1152 508.6zM-1146.1 508.6c0 0.7 0.4 1.2 1.3 1.2 0.8 0 1.2-0.5 1.2-1.2 0-0.7-0.5-1.2-1.3-1.2C-1145.6 507.4-1146.1 507.9-1146.1 508.6L-1146.1 508.6zM-1140.1 508.6c0 0.7 0.4 1.2 1.3 1.2 0.8 0 1.2-0.5 1.2-1.2 0-0.7-0.5-1.2-1.3-1.2C-1139.7 507.4-1140.1 507.9-1140.1 508.6L-1140.1 508.6zM-1134.2 508.6c0 0.7 0.4 1.2 1.3 1.2 0.8 0 1.2-0.5 1.2-1.2 0-0.7-0.5-1.2-1.3-1.2C-1133.8 507.4-1134.2 507.9-1134.2 508.6L-1134.2 508.6zM-1128.3 508.6c0 0.7 0.4 1.2 1.3 1.2 0.8 0 1.2-0.5 1.2-1.2 0-0.7-0.5-1.2-1.3-1.2C-1127.8 507.4-1128.3 507.9-1128.3 508.6L-1128.3 508.6zM-1122.4 508.6c0 0.7 0.4 1.2 1.3 1.2 0.8 0 1.2-0.5 1.2-1.2 0-0.7-0.5-1.2-1.3-1.2C-1121.9 507.4-1122.4 507.9-1122.4 508.6L-1122.4 508.6zM-1116.5 508.6c0 0.7 0.4 1.2 1.3 1.2 0.8 0 1.2-0.5 1.2-1.2 0-0.7-0.5-1.2-1.3-1.2C-1116 507.4-1116.5 507.9-1116.5 508.6L-1116.5 508.6zM-1110.5 508.6c0 0.7 0.4 1.2 1.3 1.2 0.8 0 1.2-0.5 1.2-1.2 0-0.7-0.5-1.2-1.3-1.2C-1110.1 507.4-1110.5 507.9-1110.5 508.6L-1110.5 508.6zM-1104.6 508.6c0 0.7 0.4 1.2 1.3 1.2 0.8 0 1.2-0.5 1.2-1.2 0-0.7-0.5-1.2-1.3-1.2C-1104.1 507.4-1104.6 507.9-1104.6 508.6L-1104.6 508.6zM-1098.7 508.6c0 0.7 0.4 1.2 1.3 1.2 0.8 0 1.2-0.5 1.2-1.2 0-0.7-0.5-1.2-1.3-1.2C-1098.2 507.4-1098.7 507.9-1098.7 508.6L-1098.7 508.6z"/>
          <path id="_x2E_...................-copy-2" class="st0" d="M-1292.1 552.7c0 0.7 0.4 1.2 1.3 1.2 0.8 0 1.2-0.5 1.2-1.2 0-0.7-0.5-1.2-1.3-1.2C-1291.6 551.5-1292.1 552-1292.1 552.7L-1292.1 552.7zM-1286.1 552.7c0 0.7 0.4 1.2 1.3 1.2 0.8 0 1.2-0.5 1.2-1.2 0-0.7-0.5-1.2-1.3-1.2C-1285.7 551.5-1286.1 552-1286.1 552.7L-1286.1 552.7zM-1280.2 552.7c0 0.7 0.4 1.2 1.3 1.2 0.8 0 1.2-0.5 1.2-1.2 0-0.7-0.5-1.2-1.3-1.2C-1279.8 551.5-1280.2 552-1280.2 552.7L-1280.2 552.7zM-1274.3 552.7c0 0.7 0.4 1.2 1.3 1.2 0.8 0 1.2-0.5 1.2-1.2 0-0.7-0.5-1.2-1.3-1.2C-1273.8 551.5-1274.3 552-1274.3 552.7L-1274.3 552.7zM-1268.4 552.7c0 0.7 0.4 1.2 1.3 1.2 0.8 0 1.2-0.5 1.2-1.2 0-0.7-0.5-1.2-1.3-1.2C-1267.9 551.5-1268.4 552-1268.4 552.7L-1268.4 552.7zM-1262.4 552.7c0 0.7 0.4 1.2 1.3 1.2 0.8 0 1.2-0.5 1.2-1.2 0-0.7-0.5-1.2-1.3-1.2C-1262 551.5-1262.4 552-1262.4 552.7L-1262.4 552.7zM-1256.5 552.7c0 0.7 0.4 1.2 1.3 1.2 0.8 0 1.2-0.5 1.2-1.2 0-0.7-0.5-1.2-1.3-1.2C-1256.1 551.5-1256.5 552-1256.5 552.7L-1256.5 552.7zM-1250.6 552.7c0 0.7 0.4 1.2 1.3 1.2 0.8 0 1.2-0.5 1.2-1.2 0-0.7-0.5-1.2-1.3-1.2C-1250.1 551.5-1250.6 552-1250.6 552.7L-1250.6 552.7zM-1244.7 552.7c0 0.7 0.4 1.2 1.3 1.2 0.8 0 1.2-0.5 1.2-1.2 0-0.7-0.5-1.2-1.3-1.2C-1244.2 551.5-1244.7 552-1244.7 552.7L-1244.7 552.7zM-1238.7 552.7c0 0.7 0.4 1.2 1.3 1.2 0.8 0 1.2-0.5 1.2-1.2 0-0.7-0.5-1.2-1.3-1.2C-1238.3 551.5-1238.7 552-1238.7 552.7L-1238.7 552.7zM-1232.8 552.7c0 0.7 0.4 1.2 1.3 1.2 0.8 0 1.2-0.5 1.2-1.2 0-0.7-0.5-1.2-1.3-1.2C-1232.4 551.5-1232.8 552-1232.8 552.7L-1232.8 552.7zM-1226.9 552.7c0 0.7 0.4 1.2 1.3 1.2 0.8 0 1.2-0.5 1.2-1.2 0-0.7-0.5-1.2-1.3-1.2C-1226.4 551.5-1226.9 552-1226.9 552.7L-1226.9 552.7zM-1221 552.7c0 0.7 0.4 1.2 1.3 1.2 0.8 0 1.2-0.5 1.2-1.2 0-0.7-0.5-1.2-1.3-1.2C-1220.5 551.5-1221 552-1221 552.7L-1221 552.7zM-1215.1 552.7c0 0.7 0.4 1.2 1.3 1.2 0.8 0 1.2-0.5 1.2-1.2 0-0.7-0.5-1.2-1.3-1.2C-1214.6 551.5-1215.1 552-1215.1 552.7L-1215.1 552.7zM-1209.1 552.7c0 0.7 0.4 1.2 1.3 1.2 0.8 0 1.2-0.5 1.2-1.2 0-0.7-0.5-1.2-1.3-1.2C-1208.7 551.5-1209.1 552-1209.1 552.7L-1209.1 552.7zM-1203.2 552.7c0 0.7 0.4 1.2 1.3 1.2 0.8 0 1.2-0.5 1.2-1.2 0-0.7-0.5-1.2-1.3-1.2C-1202.7 551.5-1203.2 552-1203.2 552.7L-1203.2 552.7zM-1197.3 552.7c0 0.7 0.4 1.2 1.3 1.2 0.8 0 1.2-0.5 1.2-1.2 0-0.7-0.5-1.2-1.3-1.2C-1196.8 551.5-1197.3 552-1197.3 552.7L-1197.3 552.7zM-1191.4 552.7c0 0.7 0.4 1.2 1.3 1.2 0.8 0 1.2-0.5 1.2-1.2 0-0.7-0.5-1.2-1.3-1.2C-1190.9 551.5-1191.4 552-1191.4 552.7L-1191.4 552.7zM-1185.4 552.7c0 0.7 0.4 1.2 1.3 1.2 0.8 0 1.2-0.5 1.2-1.2 0-0.7-0.5-1.2-1.3-1.2C-1185 551.5-1185.4 552-1185.4 552.7L-1185.4 552.7zM-1179.5 552.7c0 0.7 0.4 1.2 1.3 1.2 0.8 0 1.2-0.5 1.2-1.2 0-0.7-0.5-1.2-1.3-1.2C-1179.1 551.5-1179.5 552-1179.5 552.7L-1179.5 552.7zM-1175.7 552.7c0 0.7 0.4 1.2 1.3 1.2 0.8 0 1.2-0.5 1.2-1.2 0-0.7-0.5-1.2-1.3-1.2C-1175.2 551.5-1175.7 552-1175.7 552.7L-1175.7 552.7zM-1169.8 552.7c0 0.7 0.4 1.2 1.3 1.2 0.8 0 1.2-0.5 1.2-1.2 0-0.7-0.5-1.2-1.3-1.2C-1169.3 551.5-1169.8 552-1169.8 552.7L-1169.8 552.7zM-1163.8 552.7c0 0.7 0.4 1.2 1.3 1.2 0.8 0 1.2-0.5 1.2-1.2 0-0.7-0.5-1.2-1.3-1.2C-1163.4 551.5-1163.8 552-1163.8 552.7L-1163.8 552.7zM-1157.9 552.7c0 0.7 0.4 1.2 1.3 1.2 0.8 0 1.2-0.5 1.2-1.2 0-0.7-0.5-1.2-1.3-1.2C-1157.5 551.5-1157.9 552-1157.9 552.7L-1157.9 552.7zM-1152 552.7c0 0.7 0.4 1.2 1.3 1.2 0.8 0 1.2-0.5 1.2-1.2 0-0.7-0.5-1.2-1.3-1.2C-1151.5 551.5-1152 552-1152 552.7L-1152 552.7zM-1146.1 552.7c0 0.7 0.4 1.2 1.3 1.2 0.8 0 1.2-0.5 1.2-1.2 0-0.7-0.5-1.2-1.3-1.2C-1145.6 551.5-1146.1 552-1146.1 552.7L-1146.1 552.7zM-1140.1 552.7c0 0.7 0.4 1.2 1.3 1.2 0.8 0 1.2-0.5 1.2-1.2 0-0.7-0.5-1.2-1.3-1.2C-1139.7 551.5-1140.1 552-1140.1 552.7L-1140.1 552.7zM-1134.2 552.7c0 0.7 0.4 1.2 1.3 1.2 0.8 0 1.2-0.5 1.2-1.2 0-0.7-0.5-1.2-1.3-1.2C-1133.8 551.5-1134.2 552-1134.2 552.7L-1134.2 552.7zM-1128.3 552.7c0 0.7 0.4 1.2 1.3 1.2 0.8 0 1.2-0.5 1.2-1.2 0-0.7-0.5-1.2-1.3-1.2C-1127.8 551.5-1128.3 552-1128.3 552.7L-1128.3 552.7zM-1122.4 552.7c0 0.7 0.4 1.2 1.3 1.2 0.8 0 1.2-0.5 1.2-1.2 0-0.7-0.5-1.2-1.3-1.2C-1121.9 551.5-1122.4 552-1122.4 552.7L-1122.4 552.7zM-1116.5 552.7c0 0.7 0.4 1.2 1.3 1.2 0.8 0 1.2-0.5 1.2-1.2 0-0.7-0.5-1.2-1.3-1.2C-1116 551.5-1116.5 552-1116.5 552.7L-1116.5 552.7zM-1110.5 552.7c0 0.7 0.4 1.2 1.3 1.2 0.8 0 1.2-0.5 1.2-1.2 0-0.7-0.5-1.2-1.3-1.2C-1110.1 551.5-1110.5 552-1110.5 552.7L-1110.5 552.7zM-1104.6 552.7c0 0.7 0.4 1.2 1.3 1.2 0.8 0 1.2-0.5 1.2-1.2 0-0.7-0.5-1.2-1.3-1.2C-1104.1 551.5-1104.6 552-1104.6 552.7L-1104.6 552.7zM-1098.7 552.7c0 0.7 0.4 1.2 1.3 1.2 0.8 0 1.2-0.5 1.2-1.2 0-0.7-0.5-1.2-1.3-1.2C-1098.2 551.5-1098.7 552-1098.7 552.7L-1098.7 552.7z"/>
          <path id="_x2E_...................-copy" class="st0" d="M-1292.1 446.4c0 0.7 0.4 1.2 1.3 1.2 0.8 0 1.2-0.5 1.2-1.2 0-0.7-0.5-1.2-1.3-1.2C-1291.6 445.2-1292.1 445.7-1292.1 446.4L-1292.1 446.4zM-1286.1 446.4c0 0.7 0.4 1.2 1.3 1.2 0.8 0 1.2-0.5 1.2-1.2 0-0.7-0.5-1.2-1.3-1.2C-1285.7 445.2-1286.1 445.7-1286.1 446.4L-1286.1 446.4zM-1280.2 446.4c0 0.7 0.4 1.2 1.3 1.2 0.8 0 1.2-0.5 1.2-1.2 0-0.7-0.5-1.2-1.3-1.2C-1279.8 445.2-1280.2 445.7-1280.2 446.4L-1280.2 446.4zM-1274.3 446.4c0 0.7 0.4 1.2 1.3 1.2 0.8 0 1.2-0.5 1.2-1.2 0-0.7-0.5-1.2-1.3-1.2C-1273.8 445.2-1274.3 445.7-1274.3 446.4L-1274.3 446.4zM-1268.4 446.4c0 0.7 0.4 1.2 1.3 1.2 0.8 0 1.2-0.5 1.2-1.2 0-0.7-0.5-1.2-1.3-1.2C-1267.9 445.2-1268.4 445.7-1268.4 446.4L-1268.4 446.4zM-1262.4 446.4c0 0.7 0.4 1.2 1.3 1.2 0.8 0 1.2-0.5 1.2-1.2 0-0.7-0.5-1.2-1.3-1.2C-1262 445.2-1262.4 445.7-1262.4 446.4L-1262.4 446.4zM-1256.5 446.4c0 0.7 0.4 1.2 1.3 1.2 0.8 0 1.2-0.5 1.2-1.2 0-0.7-0.5-1.2-1.3-1.2C-1256.1 445.2-1256.5 445.7-1256.5 446.4L-1256.5 446.4zM-1250.6 446.4c0 0.7 0.4 1.2 1.3 1.2 0.8 0 1.2-0.5 1.2-1.2 0-0.7-0.5-1.2-1.3-1.2C-1250.1 445.2-1250.6 445.7-1250.6 446.4L-1250.6 446.4zM-1244.7 446.4c0 0.7 0.4 1.2 1.3 1.2 0.8 0 1.2-0.5 1.2-1.2 0-0.7-0.5-1.2-1.3-1.2C-1244.2 445.2-1244.7 445.7-1244.7 446.4L-1244.7 446.4zM-1238.7 446.4c0 0.7 0.4 1.2 1.3 1.2 0.8 0 1.2-0.5 1.2-1.2 0-0.7-0.5-1.2-1.3-1.2C-1238.3 445.2-1238.7 445.7-1238.7 446.4L-1238.7 446.4zM-1232.8 446.4c0 0.7 0.4 1.2 1.3 1.2 0.8 0 1.2-0.5 1.2-1.2 0-0.7-0.5-1.2-1.3-1.2C-1232.4 445.2-1232.8 445.7-1232.8 446.4L-1232.8 446.4zM-1226.9 446.4c0 0.7 0.4 1.2 1.3 1.2 0.8 0 1.2-0.5 1.2-1.2 0-0.7-0.5-1.2-1.3-1.2C-1226.4 445.2-1226.9 445.7-1226.9 446.4L-1226.9 446.4zM-1221 446.4c0 0.7 0.4 1.2 1.3 1.2 0.8 0 1.2-0.5 1.2-1.2 0-0.7-0.5-1.2-1.3-1.2C-1220.5 445.2-1221 445.7-1221 446.4L-1221 446.4zM-1215.1 446.4c0 0.7 0.4 1.2 1.3 1.2 0.8 0 1.2-0.5 1.2-1.2 0-0.7-0.5-1.2-1.3-1.2C-1214.6 445.2-1215.1 445.7-1215.1 446.4L-1215.1 446.4zM-1209.1 446.4c0 0.7 0.4 1.2 1.3 1.2 0.8 0 1.2-0.5 1.2-1.2 0-0.7-0.5-1.2-1.3-1.2C-1208.7 445.2-1209.1 445.7-1209.1 446.4L-1209.1 446.4zM-1203.2 446.4c0 0.7 0.4 1.2 1.3 1.2 0.8 0 1.2-0.5 1.2-1.2 0-0.7-0.5-1.2-1.3-1.2C-1202.7 445.2-1203.2 445.7-1203.2 446.4L-1203.2 446.4zM-1197.3 446.4c0 0.7 0.4 1.2 1.3 1.2 0.8 0 1.2-0.5 1.2-1.2 0-0.7-0.5-1.2-1.3-1.2C-1196.8 445.2-1197.3 445.7-1197.3 446.4L-1197.3 446.4zM-1191.4 446.4c0 0.7 0.4 1.2 1.3 1.2 0.8 0 1.2-0.5 1.2-1.2 0-0.7-0.5-1.2-1.3-1.2C-1190.9 445.2-1191.4 445.7-1191.4 446.4L-1191.4 446.4zM-1185.4 446.4c0 0.7 0.4 1.2 1.3 1.2 0.8 0 1.2-0.5 1.2-1.2 0-0.7-0.5-1.2-1.3-1.2C-1185 445.2-1185.4 445.7-1185.4 446.4L-1185.4 446.4zM-1179.5 446.4c0 0.7 0.4 1.2 1.3 1.2 0.8 0 1.2-0.5 1.2-1.2 0-0.7-0.5-1.2-1.3-1.2C-1179.1 445.2-1179.5 445.7-1179.5 446.4L-1179.5 446.4zM-1175.7 446.4c0 0.7 0.4 1.2 1.3 1.2 0.8 0 1.2-0.5 1.2-1.2 0-0.7-0.5-1.2-1.3-1.2C-1175.2 445.2-1175.7 445.7-1175.7 446.4L-1175.7 446.4zM-1169.8 446.4c0 0.7 0.4 1.2 1.3 1.2 0.8 0 1.2-0.5 1.2-1.2 0-0.7-0.5-1.2-1.3-1.2C-1169.3 445.2-1169.8 445.7-1169.8 446.4L-1169.8 446.4zM-1163.8 446.4c0 0.7 0.4 1.2 1.3 1.2 0.8 0 1.2-0.5 1.2-1.2 0-0.7-0.5-1.2-1.3-1.2C-1163.4 445.2-1163.8 445.7-1163.8 446.4L-1163.8 446.4zM-1157.9 446.4c0 0.7 0.4 1.2 1.3 1.2 0.8 0 1.2-0.5 1.2-1.2 0-0.7-0.5-1.2-1.3-1.2C-1157.5 445.2-1157.9 445.7-1157.9 446.4L-1157.9 446.4zM-1152 446.4c0 0.7 0.4 1.2 1.3 1.2 0.8 0 1.2-0.5 1.2-1.2 0-0.7-0.5-1.2-1.3-1.2C-1151.5 445.2-1152 445.7-1152 446.4L-1152 446.4zM-1146.1 446.4c0 0.7 0.4 1.2 1.3 1.2 0.8 0 1.2-0.5 1.2-1.2 0-0.7-0.5-1.2-1.3-1.2C-1145.6 445.2-1146.1 445.7-1146.1 446.4L-1146.1 446.4zM-1140.1 446.4c0 0.7 0.4 1.2 1.3 1.2 0.8 0 1.2-0.5 1.2-1.2 0-0.7-0.5-1.2-1.3-1.2C-1139.7 445.2-1140.1 445.7-1140.1 446.4L-1140.1 446.4zM-1134.2 446.4c0 0.7 0.4 1.2 1.3 1.2 0.8 0 1.2-0.5 1.2-1.2 0-0.7-0.5-1.2-1.3-1.2C-1133.8 445.2-1134.2 445.7-1134.2 446.4L-1134.2 446.4zM-1128.3 446.4c0 0.7 0.4 1.2 1.3 1.2 0.8 0 1.2-0.5 1.2-1.2 0-0.7-0.5-1.2-1.3-1.2C-1127.8 445.2-1128.3 445.7-1128.3 446.4L-1128.3 446.4zM-1122.4 446.4c0 0.7 0.4 1.2 1.3 1.2 0.8 0 1.2-0.5 1.2-1.2 0-0.7-0.5-1.2-1.3-1.2C-1121.9 445.2-1122.4 445.7-1122.4 446.4L-1122.4 446.4zM-1116.5 446.4c0 0.7 0.4 1.2 1.3 1.2 0.8 0 1.2-0.5 1.2-1.2 0-0.7-0.5-1.2-1.3-1.2C-1116 445.2-1116.5 445.7-1116.5 446.4L-1116.5 446.4zM-1110.5 446.4c0 0.7 0.4 1.2 1.3 1.2 0.8 0 1.2-0.5 1.2-1.2 0-0.7-0.5-1.2-1.3-1.2C-1110.1 445.2-1110.5 445.7-1110.5 446.4L-1110.5 446.4zM-1104.6 446.4c0 0.7 0.4 1.2 1.3 1.2 0.8 0 1.2-0.5 1.2-1.2 0-0.7-0.5-1.2-1.3-1.2C-1104.1 445.2-1104.6 445.7-1104.6 446.4L-1104.6 446.4zM-1098.7 446.4c0 0.7 0.4 1.2 1.3 1.2 0.8 0 1.2-0.5 1.2-1.2 0-0.7-0.5-1.2-1.3-1.2C-1098.2 445.2-1098.7 445.7-1098.7 446.4L-1098.7 446.4z"/>
          <g id="Group" transform="translate(24.734982, 0.000000)">
            <path id="Path" class="st0" d="M-1298.2 403.9c0 0.3 0.1 0.6 0.3 0.8 0.2 0.2 0.5 0.3 0.8 0.3 0.3 0 0.6-0.1 1-0.2 0.4-0.1 0.8-0.3 1.1-0.5 0.4-0.2 0.7-0.4 1.1-0.7 0.3-0.2 0.6-0.5 0.8-0.7 0.4-0.4 0.7-0.8 1-1.3 0.2-0.5 0.4-1 0.4-1.6 0-0.6-0.2-1-0.5-1.3s-0.8-0.6-1.3-0.8c-0.5-0.2-1-0.3-1.6-0.4 -0.5-0.1-1-0.1-1.4-0.1 -0.9 0-1.8 0-3 0.1 -1.1 0.1-2.2 0.2-3.4 0.5 -1.1 0.2-2.3 0.5-3.4 0.9 -1.1 0.4-2.1 0.9-3 1.5 -0.9 0.6-1.6 1.4-2.1 2.2s-0.8 1.9-0.8 3c0 1.3 0.3 2.5 1 3.7 0.7 1.1 1.5 2.2 2.4 3.2s2 1.9 3.2 2.8c1.2 0.9 2.2 1.7 3.2 2.5 1 0.8 1.8 1.6 2.4 2.4s1 1.6 1 2.4c0 0.7-0.2 1.4-0.7 1.9 -0.5 0.5-1.1 1-1.8 1.4 -0.7 0.4-1.6 0.7-2.5 1 -0.9 0.2-1.9 0.5-2.8 0.6 -0.9 0.2-1.8 0.3-2.6 0.3 -0.8 0.1-1.5 0.1-2 0.1 -0.7 0-1.5-0.1-2.2-0.3s-1.4-0.3-2.2-0.3c-0.4 0-0.7 0-1 0.1s-0.4 0.4-0.4 0.9c0 0.3 0.1 0.5 0.4 0.7 0.3 0.2 0.6 0.3 1 0.4s0.7 0.1 1.1 0.2c0.4 0 0.6 0.1 0.8 0.1 0.8 0.1 1.6 0.1 2.3 0.1 0.9 0 1.8 0 2.9-0.1 1.1-0.1 2.2-0.2 3.4-0.5 1.2-0.2 2.3-0.5 3.4-0.9 1.1-0.4 2.1-0.9 3-1.5 0.9-0.6 1.6-1.3 2.1-2.2 0.5-0.9 0.8-1.8 0.8-2.9 0-1.1-0.3-2.2-0.9-3.2 -0.6-1-1.4-2-2.3-2.9 -0.9-0.9-1.9-1.8-3-2.7s-2.1-1.7-3-2.6c-0.9-0.9-1.7-1.7-2.3-2.6s-0.9-1.7-0.9-2.6c0-0.8 0.3-1.6 0.8-2.3s1.2-1.3 1.9-1.8c0.8-0.5 1.6-1 2.4-1.3 0.9-0.3 1.6-0.6 2.3-0.7 0.5-0.1 1-0.1 1.5-0.2s1 0 1.5 0c0.1 0 0.3 0 0.6 0 0.2 0 0.5 0 0.7 0.1s0.4 0.1 0.6 0.2c0.2 0.1 0.3 0.3 0.3 0.5 0 0.4-0.2 0.7-0.5 1 -0.3 0.3-0.6 0.7-1 1 -0.4 0.3-0.7 0.7-1 1C-1298.1 403.2-1298.2 403.5-1298.2 403.9L-1298.2 403.9z"/>
            <path id="Path_1_" class="st0" d="M-1287.1 429.4c1.2 0 2.4-0.2 3.5-0.6 1.1-0.4 2.2-1 3.1-1.6s1.9-1.5 2.7-2.4c0.8-0.9 1.5-1.9 2.1-2.9 0.1-0.2 0.2-0.4 0.3-0.6s0.1-0.4 0.1-0.7c0-0.1-0.1-0.3-0.2-0.4 -0.1-0.1-0.3-0.1-0.4-0.1 -0.3 0-0.6 0.1-0.8 0.4 -0.2 0.3-0.4 0.5-0.5 0.7 -0.4 0.7-1 1.5-1.5 2.2 -0.6 0.7-1.2 1.4-1.9 2s-1.5 1-2.3 1.4c-0.8 0.4-1.7 0.5-2.6 0.5 -1 0-1.8-0.3-2.2-0.9 -0.4-0.6-0.7-1.4-0.7-2.4 0-0.6 0.1-1.2 0.2-1.8 0.7-0.2 1.4-0.7 2.2-1.3s1.5-1.4 2.2-2.2c0.7-0.8 1.3-1.7 1.7-2.6 0.5-0.9 0.7-1.7 0.7-2.4 0-0.8-0.2-1.4-0.6-1.9s-1-0.7-1.8-0.7c-1.2 0-2.3 0.5-3.2 1.4 -1 0.9-1.8 2-2.5 3.3 -0.7 1.3-1.2 2.7-1.6 4.1 -0.4 1.4-0.6 2.6-0.6 3.6 0 0.8 0.1 1.5 0.3 2.3s0.5 1.3 0.9 1.9 0.9 1 1.5 1.3C-1288.8 429.2-1288 429.4-1287.1 429.4zM-1284.3 413.1c0.3 0 0.5 0.1 0.6 0.3s0.2 0.4 0.2 0.7c0 0.6-0.2 1.2-0.5 1.8 -0.3 0.6-0.7 1.2-1.2 1.8 -0.5 0.6-1 1.1-1.5 1.6 -0.6 0.5-1.1 0.9-1.5 1.2 0.1-0.4 0.2-1 0.5-1.8 0.3-0.8 0.6-1.7 1-2.5 0.4-0.8 0.8-1.6 1.2-2.2C-1285.1 413.4-1284.7 413.1-1284.3 413.1z"/>
            <path id="Path_2_" class="st0" d="M-1272.2 430.5c0.9 0 1.8-0.3 2.7-0.9s1.8-1.3 2.6-2.1c0.8-0.8 1.6-1.7 2.2-2.6 0.7-0.9 1.2-1.8 1.7-2.5 0.1-0.2 0.3-0.5 0.4-0.7 0.1-0.3 0.2-0.5 0.2-0.8 0-0.2 0-0.4-0.1-0.5 -0.1-0.2-0.2-0.2-0.5-0.2s-0.4 0.1-0.6 0.2 -0.3 0.3-0.4 0.4c-0.2 0.3-0.4 0.6-0.6 0.9s-0.4 0.6-0.6 0.9c-0.3 0.4-0.7 0.9-1.2 1.5 -0.5 0.6-1 1.2-1.6 1.8s-1.2 1.1-1.8 1.5c-0.6 0.4-1.2 0.6-1.7 0.6 -0.6 0-1.1-0.3-1.5-0.8 -0.4-0.6-0.6-1.2-0.8-2 -0.2-0.8-0.3-1.5-0.4-2.3 -0.1-0.8-0.1-1.4-0.1-1.8 0-0.3 0-0.6 0-1 0-0.4 0.1-0.7 0.2-0.9 0.1-0.2 0.2-0.4 0.3-0.7 0.2-0.2 0.3-0.4 0.4-0.6 0.4-0.6 0.7-1.2 1.1-1.7 0.4-0.5 0.7-1.1 1-1.7 0.7-1.2 1.3-2.6 2-4.1s1.2-3.1 1.8-4.7 1-3.2 1.3-4.8 0.5-3.1 0.5-4.5c0-0.4 0-0.9-0.1-1.3 -0.1-0.5-0.2-0.9-0.4-1.3 -0.2-0.4-0.5-0.7-0.8-1 -0.3-0.2-0.8-0.4-1.3-0.4 -0.6 0-1.3 0.2-1.9 0.7 -0.6 0.5-1.2 1-1.8 1.7 -0.5 0.7-1 1.4-1.4 2.1 -0.4 0.7-0.7 1.4-1 1.9 -1.2 2.8-2.1 5.8-2.6 8.8 -0.5 3-0.7 6-0.7 9.1 0 0.6 0 1.3 0.1 2.2 0 0.9 0.1 1.9 0.2 2.9 0.1 1 0.3 2.1 0.5 3.1 0.2 1 0.6 2 1 2.8 0.4 0.8 0.9 1.5 1.5 2S-1273 430.5-1272.2 430.5zM-1268 394.4c0.2 0 0.3 0.1 0.4 0.2 0.1 0.1 0.2 0.3 0.2 0.5 0 0.2 0.1 0.4 0.1 0.6v0.4c0 1.4-0.2 3-0.7 4.7 -0.4 1.7-1 3.4-1.7 5.1s-1.4 3.4-2.2 5 -1.6 3-2.3 4.2c0-0.2 0-0.4 0-0.6v-0.7c0-2.1 0.3-4.3 0.8-6.6 0.5-2.3 1.1-4.5 1.7-6.5 0.1-0.4 0.3-0.9 0.5-1.6 0.2-0.7 0.5-1.4 0.8-2.1 0.3-0.7 0.7-1.3 1.1-1.8C-1268.9 394.6-1268.5 394.4-1268 394.4z"/>
            <path id="Path_3_" class="st0" d="M-1256.2 418.7c0.4 0 0.8 0 1.3 0 0.5 0 1 0 1.4-0.1 0.4-0.1 0.8-0.3 1.1-0.5 0.3-0.3 0.5-0.7 0.5-1.2 0-0.2-0.1-0.4-0.2-0.4 -0.2-0.1-0.3-0.1-0.5-0.1 -0.2 0-0.5 0-0.7 0.1 -0.2 0-0.4 0.1-0.7 0.2 -0.4 0.1-0.7 0.1-1.1 0.1 -0.4 0-0.7 0-1.1 0 -0.3 0-0.6 0-1 0 -0.4 0-0.8 0-1.2-0.1 -0.4 0-0.8-0.1-1.2-0.1 -0.4-0.1-0.7-0.1-0.9-0.2 0.5-3.1 1.2-6.1 2.2-9s2-5.8 3.3-8.7c0.4-0.9 0.8-1.7 1.2-2.5 0.4-0.8 0.8-1.7 1.2-2.5 0.1-0.2 0.2-0.5 0.3-0.7 0.1-0.2 0.1-0.5 0.1-0.8 0-0.4-0.1-0.7-0.2-0.9 -0.2-0.3-0.4-0.4-0.9-0.4 -0.3 0-0.6 0-0.9 0.1 -0.3 0.1-0.6 0.2-1 0.4 -0.3 0.1-0.6 0.3-0.9 0.5 -0.3 0.2-0.5 0.4-0.7 0.5 -0.2 0.3-0.4 0.6-0.6 0.9 -0.1 0.3-0.3 0.6-0.4 1 -2.2 5.7-3.9 11.5-5 17.3 -1.1 5.8-1.7 11.8-1.7 17.9 0 0.4 0 1 0 1.7s0.1 1.5 0.1 2.3 0.2 1.6 0.3 2.5c0.1 0.8 0.4 1.6 0.6 2.3s0.6 1.2 1.1 1.7c0.4 0.4 0.9 0.6 1.6 0.6 1.4 0 2.6-0.4 3.5-1.3s1.7-2 2.2-3.2c0.6-1.3 0.9-2.6 1.2-4 0.2-1.4 0.3-2.7 0.3-3.8 0-0.7 0-1.5-0.1-2.3 -0.1-0.9-0.2-1.7-0.4-2.6s-0.5-1.7-0.8-2.4C-1255.2 419.9-1255.6 419.2-1256.2 418.7zM-1261.1 419.6c0.9 0.4 1.6 1 2.1 1.7 0.6 0.7 1 1.5 1.4 2.3 0.4 0.9 0.6 1.7 0.8 2.7 0.2 0.9 0.2 1.8 0.2 2.7v0.1c0 0.6 0 1.2-0.1 1.7 0 0.6-0.1 1.2-0.2 1.7 -0.1 0.4-0.2 0.9-0.4 1.6 -0.2 0.7-0.4 1.3-0.7 2s-0.6 1.2-1.1 1.7c-0.4 0.5-0.9 0.7-1.4 0.7 -0.4 0-0.7-0.3-1-0.9 -0.2-0.6-0.4-1.2-0.6-2 -0.1-0.8-0.2-1.5-0.2-2.2 0-0.7 0-1.2 0-1.6 0-2.1 0.1-4.1 0.4-6.2S-1261.5 421.7-1261.1 419.6z"/>
            <path id="Path_4_" class="st0" d="M-1219.9 403.9c0 0.3 0.1 0.6 0.3 0.8 0.2 0.2 0.5 0.3 0.8 0.3 0.3 0 0.6-0.1 1-0.2 0.4-0.1 0.8-0.3 1.1-0.5 0.4-0.2 0.7-0.4 1.1-0.7 0.3-0.2 0.6-0.5 0.8-0.7 0.4-0.4 0.7-0.8 1-1.3 0.2-0.5 0.4-1 0.4-1.6 0-0.6-0.2-1-0.5-1.3s-0.8-0.6-1.3-0.8c-0.5-0.2-1-0.3-1.6-0.4 -0.5-0.1-1-0.1-1.4-0.1 -0.9 0-1.8 0-3 0.1 -1.1 0.1-2.2 0.2-3.4 0.5 -1.1 0.2-2.3 0.5-3.4 0.9 -1.1 0.4-2.1 0.9-3 1.5 -0.9 0.6-1.6 1.4-2.1 2.2s-0.8 1.9-0.8 3c0 1.3 0.3 2.5 1 3.7 0.7 1.1 1.5 2.2 2.4 3.2s2 1.9 3.2 2.8c1.2 0.9 2.2 1.7 3.2 2.5 1 0.8 1.8 1.6 2.4 2.4s1 1.6 1 2.4c0 0.7-0.2 1.4-0.7 1.9 -0.5 0.5-1.1 1-1.8 1.4 -0.7 0.4-1.6 0.7-2.5 1 -0.9 0.2-1.9 0.5-2.8 0.6 -0.9 0.2-1.8 0.3-2.6 0.3 -0.8 0.1-1.5 0.1-2 0.1 -0.7 0-1.5-0.1-2.2-0.3s-1.4-0.3-2.2-0.3c-0.4 0-0.7 0-1 0.1s-0.4 0.4-0.4 0.9c0 0.3 0.1 0.5 0.4 0.7 0.3 0.2 0.6 0.3 1 0.4s0.7 0.1 1.1 0.2c0.4 0 0.6 0.1 0.8 0.1 0.8 0.1 1.6 0.1 2.3 0.1 0.9 0 1.8 0 2.9-0.1 1.1-0.1 2.2-0.2 3.4-0.5 1.2-0.2 2.3-0.5 3.4-0.9 1.1-0.4 2.1-0.9 3-1.5 0.9-0.6 1.6-1.3 2.1-2.2 0.5-0.9 0.8-1.8 0.8-2.9 0-1.1-0.3-2.2-0.9-3.2 -0.6-1-1.4-2-2.3-2.9 -0.9-0.9-1.9-1.8-3-2.7s-2.1-1.7-3-2.6c-0.9-0.9-1.7-1.7-2.3-2.6s-0.9-1.7-0.9-2.6c0-0.8 0.3-1.6 0.8-2.3s1.2-1.3 1.9-1.8c0.8-0.5 1.6-1 2.4-1.3 0.9-0.3 1.6-0.6 2.3-0.7 0.5-0.1 1-0.1 1.5-0.2s1 0 1.5 0c0.1 0 0.3 0 0.6 0 0.2 0 0.5 0 0.7 0.1s0.4 0.1 0.6 0.2c0.2 0.1 0.3 0.3 0.3 0.5 0 0.4-0.2 0.7-0.5 1 -0.3 0.3-0.6 0.7-1 1 -0.4 0.3-0.7 0.7-1 1C-1219.8 403.2-1219.9 403.5-1219.9 403.9L-1219.9 403.9z"/>
            <path id="Path_5_" class="st0" d="M-1208.8 429.4c1.2 0 2.4-0.2 3.5-0.6 1.1-0.4 2.2-1 3.1-1.6s1.9-1.5 2.7-2.4c0.8-0.9 1.5-1.9 2.1-2.9 0.1-0.2 0.2-0.4 0.3-0.6s0.1-0.4 0.1-0.7c0-0.1-0.1-0.3-0.2-0.4 -0.1-0.1-0.3-0.1-0.4-0.1 -0.3 0-0.6 0.1-0.8 0.4 -0.2 0.3-0.4 0.5-0.5 0.7 -0.4 0.7-1 1.5-1.5 2.2 -0.6 0.7-1.2 1.4-1.9 2s-1.5 1-2.3 1.4c-0.8 0.4-1.7 0.5-2.6 0.5 -1 0-1.8-0.3-2.2-0.9 -0.4-0.6-0.7-1.4-0.7-2.4 0-0.6 0.1-1.2 0.2-1.8 0.7-0.2 1.4-0.7 2.2-1.3s1.5-1.4 2.2-2.2c0.7-0.8 1.3-1.7 1.7-2.6 0.5-0.9 0.7-1.7 0.7-2.4 0-0.8-0.2-1.4-0.6-1.9s-1-0.7-1.8-0.7c-1.2 0-2.3 0.5-3.2 1.4 -1 0.9-1.8 2-2.5 3.3 -0.7 1.3-1.2 2.7-1.6 4.1 -0.4 1.4-0.6 2.6-0.6 3.6 0 0.8 0.1 1.5 0.3 2.3s0.5 1.3 0.9 1.9 0.9 1 1.5 1.3C-1210.4 429.2-1209.7 429.4-1208.8 429.4zM-1205.9 413.1c0.3 0 0.5 0.1 0.6 0.3s0.2 0.4 0.2 0.7c0 0.6-0.2 1.2-0.5 1.8 -0.3 0.6-0.7 1.2-1.2 1.8 -0.5 0.6-1 1.1-1.5 1.6 -0.6 0.5-1.1 0.9-1.5 1.2 0.1-0.4 0.2-1 0.5-1.8 0.3-0.8 0.6-1.7 1-2.5 0.4-0.8 0.8-1.6 1.2-2.2C-1206.8 413.4-1206.4 413.1-1205.9 413.1z"/>
            <path id="Path_6_" class="st0" d="M-1192.5 419.4c0 0.8 0 1.6-0.1 2.4s-0.1 1.6-0.1 2.4c0 0.5 0 1.1 0.1 1.8 0 0.7 0.2 1.4 0.4 2 0.2 0.6 0.5 1.2 0.9 1.6 0.4 0.5 1 0.7 1.7 0.7 0.7 0 1.5-0.3 2.4-0.9s1.7-1.3 2.5-2c0.8-0.8 1.6-1.6 2.2-2.5 0.7-0.9 1.2-1.6 1.6-2.1 0.1-0.1 0.2-0.3 0.2-0.4 0.1-0.1 0.1-0.3 0.1-0.5 0-0.2 0-0.4-0.1-0.6 -0.1-0.2-0.2-0.3-0.5-0.3s-0.5 0.1-0.7 0.4c-0.2 0.2-0.4 0.5-0.5 0.7 -0.3 0.4-0.7 1-1.2 1.6 -0.6 0.7-1.2 1.4-1.8 2 -0.6 0.7-1.3 1.3-2 1.8s-1.2 0.7-1.7 0.7c-0.4 0-0.7-0.2-0.7-0.6 -0.1-0.4-0.1-0.7-0.1-1 0-1.1 0.1-2.1 0.3-3.1s0.4-2.1 0.6-3.1c0.1-0.6 0.2-1.2 0.2-1.7 0-1-0.2-1.7-0.6-2.3 -0.4-0.6-0.9-1.1-1.5-1.5 -0.6-0.4-1.2-0.8-1.7-1.1 -0.6-0.3-1.1-0.8-1.4-1.3 0.1-0.7 0.1-1.4 0.1-2.1 0-0.2 0-0.5 0-0.9s-0.1-0.8-0.2-1.1c-0.1-0.4-0.3-0.7-0.4-1 -0.2-0.3-0.4-0.4-0.7-0.4 -0.4 0-0.8 0.2-1.1 0.6 -0.3 0.4-0.6 0.8-0.8 1.4 -0.2 0.5-0.4 1.1-0.5 1.6 -0.1 0.6-0.2 1-0.2 1.4 0 0.7 0.1 1.3 0.3 2 0.2 0.6 0.5 1.2 0.9 1.7 -0.2 1.5-0.6 2.9-1.4 4.2 -0.7 1.3-1.6 2.6-2.4 3.8 -0.1 0.1-0.2 0.3-0.3 0.5s-0.1 0.3-0.1 0.5c0 0.4 0.2 0.6 0.6 0.6 0.2 0 0.5-0.1 0.7-0.2 0.2-0.1 0.4-0.3 0.5-0.4 0.5-0.5 1-1.1 1.4-1.7s0.8-1.3 1.1-2c0.4-0.7 0.7-1.4 0.9-2.1 0.3-0.7 0.5-1.4 0.8-2 0.6 0.2 1.2 0.5 1.8 1C-1192.8 418.1-1192.5 418.7-1192.5 419.4L-1192.5 419.4z"/>
            <path id="Path_7_" class="st0" d="M-1182.7 414.7c0 0.2 0.1 0.3 0.2 0.5s0.3 0.3 0.4 0.4c0.5 0.6 1.1 1.5 1.6 2.5s1 2.2 1.5 3.4c0.5 1.2 0.9 2.4 1.2 3.6 0.3 1.2 0.6 2.2 0.7 2.9 0.1 0.5 0.2 0.9 0.3 1.2s0.4 0.5 1 0.5c0.5 0 0.9-0.1 1-0.4 0.1-0.3 0.2-0.6 0.3-1.1 0.1-0.3 0.3-0.8 0.6-1.5 0.4-0.7 0.8-1.6 1.3-2.5s1.1-2 1.7-3c0.6-1.1 1.2-2.1 1.8-3 0.6-1 1.1-1.8 1.6-2.6 0.5-0.7 0.8-1.3 1.1-1.6 0.1-0.1 0.1-0.2 0.2-0.3 0.1-0.1 0.1-0.2 0.1-0.4 0-0.3-0.1-0.5-0.4-0.7 -0.3-0.2-0.5-0.3-0.8-0.3s-0.5 0.1-0.7 0.3c-0.2 0.2-0.3 0.4-0.5 0.6 -1.2 1.8-2.4 3.6-3.4 5.5s-2 3.7-3.1 5.6c-0.2-0.8-0.4-1.7-0.7-2.7 -0.3-1-0.7-1.9-1.1-2.9 -0.4-1-0.9-1.9-1.4-2.8s-1-1.6-1.6-2.2c-0.2-0.2-0.4-0.4-0.6-0.5s-0.5-0.2-0.7-0.2c-0.4 0-0.8 0.2-1.1 0.6C-1182.5 413.9-1182.7 414.3-1182.7 414.7L-1182.7 414.7z"/>
            <path id="Path_8_" class="st0" d="M-1160.8 423.6c0-1.3 0.1-2.7 0.4-3.9 0.1-0.3 0.2-0.7 0.4-1.1s0.3-0.9 0.4-1.3c0.1-0.4 0.3-0.8 0.4-1.2 0.1-0.4 0.2-0.7 0.2-1 0-0.6-0.3-1-1-1 -0.9 0-1.6 0.3-2.1 0.8 -0.5 0.5-0.8 1.2-1.1 2 -0.2 0.8-0.4 1.6-0.6 2.7 -0.2 1-0.3 1.9-0.3 2.7 0 0.6 0 1.4 0.1 2.3 0.1 0.9 0.3 1.7 0.6 2.5 0.3 0.8 0.7 1.4 1.2 2 0.5 0.5 1.2 0.8 2.1 0.8 0.8 0 1.6-0.3 2.4-0.8 0.8-0.5 1.6-1.1 2.4-1.9 0.8-0.7 1.5-1.5 2.1-2.3s1.2-1.5 1.6-2.1c0.1-0.1 0.2-0.3 0.3-0.5s0.3-0.4 0.4-0.6 0.2-0.4 0.3-0.6c0.1-0.2 0.1-0.4 0.1-0.5 0-0.2 0-0.5-0.1-0.7 0-0.2-0.2-0.3-0.5-0.3s-0.5 0.1-0.7 0.4c-0.2 0.3-0.4 0.5-0.5 0.7 -0.3 0.5-0.7 1.1-1.3 1.9 -0.5 0.8-1.1 1.6-1.8 2.3 -0.7 0.7-1.3 1.4-2 1.9 -0.7 0.5-1.3 0.8-1.9 0.8 -0.4 0-0.7-0.2-0.9-0.5 -0.2-0.3-0.4-0.7-0.5-1.1 -0.1-0.4-0.2-0.9-0.2-1.3C-1160.8 424.2-1160.8 423.8-1160.8 423.6L-1160.8 423.6z"/>
            <path id="Path_9_" class="st0" d="M-1159 407.3c-0.6 0-1.1 0.2-1.5 0.7s-0.6 1-0.6 1.6c0 0.4 0.1 0.8 0.4 1.2 0.3 0.3 0.6 0.5 1.1 0.5 0.6 0 1.1-0.2 1.5-0.7 0.4-0.5 0.6-1 0.6-1.6 0-0.4-0.1-0.8-0.4-1.2C-1158.2 407.5-1158.6 407.3-1159 407.3L-1159 407.3z"/>
            <path id="Path_10_" class="st0" d="M-1146.9 429.8c1.3 0 2.5-0.2 3.7-0.6s2.3-1 3.4-1.7c1-0.7 2-1.6 2.8-2.6 0.9-1 1.6-2 2.2-3.1 0.1-0.1 0.2-0.3 0.3-0.5 0.1-0.2 0.1-0.4 0.1-0.5 0-0.5-0.2-0.7-0.7-0.7 -0.3 0-0.6 0.1-0.8 0.4 -0.2 0.3-0.4 0.5-0.6 0.7 -0.5 0.8-1 1.6-1.7 2.3 -0.6 0.7-1.3 1.4-2.1 2 -0.7 0.6-1.6 1-2.4 1.4 -0.9 0.4-1.8 0.5-2.8 0.5 -0.6 0-1.2-0.1-1.7-0.4s-0.8-0.6-1.1-1.1c-0.3-0.4-0.5-0.9-0.6-1.5 -0.1-0.5-0.2-1.1-0.2-1.6 0-0.6 0.1-1.5 0.4-2.6 0.2-1.1 0.6-2.2 1-3.2s1-2 1.6-2.7c0.6-0.8 1.4-1.1 2.2-1.1 0.5 0 0.8 0.2 0.9 0.5 0.1 0.4 0.2 0.8 0.2 1.2 0 0.6-0.1 1.2-0.4 1.7 -0.3 0.5-0.4 0.9-0.4 1.3 0 0.3 0.2 0.4 0.5 0.4 0.4 0 0.8-0.1 1.1-0.4s0.5-0.6 0.7-1c0.1-0.4 0.2-0.8 0.3-1.2 0.1-0.4 0.1-0.8 0.1-1.2 0-1.2-0.3-2-0.9-2.6s-1.5-0.8-2.6-0.8c-1.3 0-2.5 0.4-3.5 1.1 -1 0.7-1.9 1.6-2.6 2.7s-1.2 2.3-1.6 3.6c-0.4 1.3-0.5 2.5-0.5 3.7 0 0.9 0.1 1.8 0.3 2.6s0.5 1.7 1 2.4c0.5 0.7 1.1 1.3 1.8 1.8C-1148.8 429.5-1147.9 429.8-1146.9 429.8L-1146.9 429.8z"/>
            <path id="Path_11_" class="st0" d="M-1132 429.4c1.2 0 2.4-0.2 3.5-0.6 1.1-0.4 2.2-1 3.1-1.6s1.9-1.5 2.7-2.4c0.8-0.9 1.5-1.9 2.1-2.9 0.1-0.2 0.2-0.4 0.3-0.6s0.1-0.4 0.1-0.7c0-0.1-0.1-0.3-0.2-0.4 -0.1-0.1-0.3-0.1-0.4-0.1 -0.3 0-0.6 0.1-0.8 0.4 -0.2 0.3-0.4 0.5-0.5 0.7 -0.4 0.7-1 1.5-1.5 2.2 -0.6 0.7-1.2 1.4-1.9 2s-1.5 1-2.3 1.4c-0.8 0.4-1.7 0.5-2.6 0.5 -1 0-1.8-0.3-2.2-0.9 -0.4-0.6-0.7-1.4-0.7-2.4 0-0.6 0.1-1.2 0.2-1.8 0.7-0.2 1.4-0.7 2.2-1.3 0.8-0.6 1.5-1.4 2.2-2.2 0.7-0.8 1.3-1.7 1.7-2.6 0.5-0.9 0.7-1.7 0.7-2.4 0-0.8-0.2-1.4-0.6-1.9 -0.4-0.5-1-0.7-1.8-0.7 -1.2 0-2.3 0.5-3.2 1.4s-1.8 2-2.5 3.3c-0.7 1.3-1.2 2.7-1.6 4.1 -0.4 1.4-0.6 2.6-0.6 3.6 0 0.8 0.1 1.5 0.3 2.3 0.2 0.7 0.5 1.3 0.9 1.9s0.9 1 1.5 1.3C-1133.6 429.2-1132.8 429.4-1132 429.4zM-1129.1 413.1c0.3 0 0.5 0.1 0.6 0.3s0.2 0.4 0.2 0.7c0 0.6-0.2 1.2-0.5 1.8 -0.3 0.6-0.7 1.2-1.2 1.8 -0.5 0.6-1 1.1-1.5 1.6 -0.6 0.5-1.1 0.9-1.5 1.2 0.1-0.4 0.2-1 0.5-1.8 0.3-0.8 0.6-1.7 1-2.5 0.4-0.8 0.8-1.6 1.2-2.2C-1130 413.4-1129.5 413.1-1129.1 413.1z"/>
          </g>
          <path id="Self-Service-Copy" class="st0" d="M-1278.6 457.9h-10.3v36.9h6.6v-14.8c0.4 0.1 3.1 0.1 3.5 0.1 4.9 0 9.5-3.9 9.5-11.5C-1269.2 462.5-1272.2 457.9-1278.6 457.9L-1278.6 457.9zM-1280.9 474.3h-1.3v-11.1h3.5c2.6 0 3.3 2.3 3.3 5.2C-1275.5 473.8-1276.7 474.3-1280.9 474.3L-1280.9 474.3zM-1289.8 460.4h-1.5v36.9h6.6v-1.5h-5.1V460.4zM-1278.8 464.1h-2.5l0.1 1.5c2.6 0 3.3 2.3 3.3 5.3 0 0.9 0 1.6-0.1 2.2 1.3-0.4 1.6-1.5 1.6-4.7C-1276.5 464.7-1277.6 464.1-1278.8 464.1L-1278.8 464.1zM-1281.3 480.9v1.5c2.1 0 4.1-0.6 5.8-2C-1277.5 481-1277.8 480.9-1281.3 480.9L-1281.3 480.9zM-1248.6 494.7h6.9l-7-15.7c3.2-1.6 5.5-5.1 5.5-10.6 0-5.9-3-10.5-9.3-10.5h-11v36.9h6.6v-14.8c0.3 0 1.1 0.1 2.1 0.1L-1248.6 494.7zM-1257 474.3v-11.1h4.2c2.6 0 3.3 2.3 3.3 5.2 0 5.4-1.2 5.9-5.4 5.9H-1257zM-1264.6 460.4h-1.5v36.9h6.6v-1.5h-5.1V460.4zM-1252.8 464.1h-3.3v1.5h0.8c2.6 0 3.3 2.3 3.3 5.3 0 0.9 0 1.6-0.1 2.2 1.3-0.4 1.6-1.5 1.6-4.7C-1250.5 464.7-1251.6 464.1-1252.8 464.1L-1252.8 464.1zM-1249.3 495.8l-6.3-14.8h-0.5v4.7l5 11.6h6.8l-0.6-1.5H-1249.3zM-1237 457.9v36.9h6.6v-36.9H-1237zM-1238 460.4h-1.5v36.9h6.6v-1.5h-5.1V460.4zM-1210.6 457.9v20.5h-0.1l-6.1-20.5h-7v36.9h6.6v-21.1h0.1l6.5 21.1h6.6v-36.9H-1210.6zM-1211.6 460.4h-1.5v6.8l1.5 5V460.4zM-1224.8 460.4h-1.5v36.9h6.6v-1.5h-5.1V460.4zM-1216.2 479.9v7.1l3.2 10.3h6.6v-1.5h-4.9L-1216.2 479.9zM-1198.5 457.9v5.3h6.8v31.6h6.6v-31.6h6.8v-5.3H-1198.5zM-1192.7 464.1h-6.8v-3.8h-1.5v5.3h6.8v31.6h6.6v-1.5h-5.1V464.1zM-1184.2 465.6h3.3v-1.5h-3.3V465.6zM-1150.1 494.7h6.6l-7.6-36.9h-6.6l-7.6 36.9h6.2l1.3-8.6h6.4L-1150.1 494.7zM-1156.7 480.9l2.1-13.2h0.2l2 13.2H-1156.7zM-1166.5 495.7l7.5-36.5 -1.2 1.2 -7.5 36.9h6.2l1.5-1.5H-1166.5zM-1151 495.7l-1.2-8.5h-4.7l-0.2 1.5h3.3l1.3 8.5h6.6l1.5-1.5H-1151zM-1155.6 479.6l0.1 0.4h1.8l-0.9-6.3L-1155.6 479.6zM-1118.5 464c-0.8-3.6-4-6.2-7.7-6.2h-11.9v36.9h11.9c5.7 0 8.2-4.9 8.2-10.5v-15.8C-1118 466.9-1118.2 465.4-1118.5 464L-1118.5 464zM-1124.2 484.2c0 2.9-0.6 5.2-3.3 5.2h-3.9v-26.2h3.9c2.7 0 3.3 2.3 3.3 5.2V484.2zM-1131.5 495.7h-7.6v-35.3h-1.5v36.9h11.9c2 0 3.7-0.7 5.1-1.9 -0.8 0.3-1.7 0.4-2.6 0.4H-1131.5zM-1127.5 464.1h-3v1.5h0.5c2.6 0 3.3 2.3 3.3 5.3v15.7c0 0.6-0.1 1.2-0.1 1.8 0.9-0.3 1.6-1.3 1.6-4.2v-15.8C-1125.2 464.7-1126.3 464.1-1127.5 464.1L-1127.5 464.1zM-1096.7 477.7l-6.6-7.6c-1.5-1.7-2-2.9-2-4.6 0-1.6 1.4-2.9 3-2.9 1.6 0 3 1.5 3 4.1v1.5h6.6v-2.5c0-4.9-4-8.3-9.5-8.3s-9.6 3.3-9.6 8.3c0 5 1.1 6.5 4.9 10.3l5.5 5.5c1.5 1.5 2.1 3.1 2.1 5.1 0 2.1-1.3 3.4-3 3.4s-3-1.2-3-3.4v-3.5h-6.5v3.8c0 5.3 4.3 8.3 9.5 8.3s9.8-2.9 9.8-8.3C-1092.4 482.6-1094.1 480.6-1096.7 477.7L-1096.7 477.7zM-1112.7 487v-1.4h-1.5v3.8c0 5.4 4.3 8.3 9.6 8.3 2.7 0 5.2-0.8 7-2.2 -1.4 0.5-2.9 0.7-4.5 0.7C-1108.5 496.3-1112.7 492.5-1112.7 487L-1112.7 487zM-1105.7 482.2h1.5v1.5l0.4 0.4c1.3 1.6 2.1 3 2.1 4.9 0.9-0.2 1.5-1.1 1.5-2.3 0-1.6-0.5-2.9-2-4.4l-5.4-5.5c-3.8-3.8-5.2-5.7-5.2-11 0-1 0.2-1.9 0.4-2.7 -1.2 1.4-1.8 3.2-1.8 5.2 0 5 1.1 6.5 4.9 10.3L-1105.7 482.2zM-1101.5 470.7h6.4v-1.5h-5.1v-2.4c0-1.9-0.8-3.1-2-3.1 -0.9 0-1.7 0.6-2 1.5 1.4 0.3 2.5 1.7 2.5 4v1.3L-1101.5 470.7zM-1290.8 537.9h6.6v-1.8h-2.2v-5.2h5.7V529h-5.7v-5.4h5v1.9h2v-3.9h-11.3v1.8h2v12.8h-2V537.9zM-1277.5 529.6c0 4.8 3.7 8.6 8.4 8.6 4.7 0 8.4-3.8 8.4-8.6 0-4.7-3.7-8.3-8.4-8.3C-1273.8 521.3-1277.5 524.9-1277.5 529.6L-1277.5 529.6zM-1275.1 529.6c0-3.6 2.7-6.3 6-6.3 3.3 0 6 2.7 6 6.3 0 3.7-2.7 6.5-6 6.5C-1272.4 536.1-1275.1 533.3-1275.1 529.6L-1275.1 529.6zM-1258.5 537.9h6.4v-1.8h-2v-4.8h1.9c1 0 1.3 0.2 1.7 0.9l2.5 4.5c0.6 1 0.9 1.2 2.3 1.2h1.4v-1.8h-0.5c-0.6 0-0.9-0.1-1.1-0.5l-2.3-4c-0.3-0.5-0.7-0.8-0.7-0.8v0c2.1-0.5 3.4-2.2 3.4-4.6 0-2.2-1.1-3.7-2.9-4.2 -0.9-0.3-1.9-0.3-3-0.3h-7.1v1.8h2v12.8h-2V537.9zM-1254.1 529.4v-6h2.7c0.8 0 1.5 0.1 2 0.3 1 0.4 1.5 1.3 1.5 2.6 0 1.9-1.2 3.1-3 3.1H-1254.1zM-1236.4 537.9h7.8c0.9 0 1.7 0 2.5-0.3 1.7-0.6 3-2.2 3-4.4 0-1.9-1-3.5-2.7-4v0c1.3-0.6 2.1-1.9 2.1-3.5 0-1.8-1-3.1-2.3-3.7 -0.8-0.4-1.7-0.5-2.9-0.5h-7.4v1.8h2v12.8h-2V537.9zM-1232 528.4v-5h3.1c0.7 0 1.2 0.1 1.7 0.3 0.7 0.4 1.1 1.2 1.1 2.2 0 1.5-0.9 2.5-2.4 2.5H-1232zM-1232 536v-5.7h3.7c1.7 0 2.8 1.1 2.8 2.8 0 1.2-0.6 2.2-1.6 2.6 -0.4 0.2-1 0.2-1.5 0.2H-1232zM-1219 531.8c0 1.6 0.3 2.9 1.1 4 1.1 1.5 3.1 2.4 5.4 2.4 2.2 0 4.2-0.8 5.3-2.4 0.7-1 1.1-2.4 1.1-4v-8.5h2v-1.8h-6.4v1.8h2.1v8.4c0 1.1-0.2 2-0.6 2.6 -0.7 1.1-2 1.7-3.5 1.7 -1.6 0-2.9-0.6-3.5-1.7 -0.4-0.7-0.6-1.6-0.6-2.7v-8.5h2.1v-1.8h-6.5v1.8h2.1V531.8zM-1202.1 533v1.7c0 2.3 2.9 3.5 5.4 3.5 3 0 5.6-1.6 5.6-4.7 0-3-2.4-4-4.8-4.9 -1.8-0.7-3.5-1.3-3.5-3 0-1.5 1.3-2.2 2.9-2.2 1.3 0 2.8 0.5 2.8 1.5v1.1h2.2V524c0-1.8-2.5-2.7-5-2.7 -2.8 0-5.2 1.3-5.2 4.4 0 2.9 2.2 3.8 4.4 4.6 2 0.8 3.9 1.4 3.9 3.3 0 1.6-1.4 2.5-3.2 2.5 -1.7 0-3.3-0.7-3.3-1.9V533H-1202.1zM-1188.7 537.9h6.4v-1.8h-2.1v-12.8h2.1v-1.8h-6.4v1.8h2v12.8h-2V537.9zM-1179.8 537.9h6.5v-1.8h-2.1v-9.8c0-0.5-0.1-1.3-0.1-1.3h0.1c0 0 0.3 0.7 0.6 1.2l8.1 11.7h2.3v-14.6h2.1v-1.8h-6.5v1.8h2.1v9.8c0 0.5 0.1 1.3 0.1 1.3h-0.1c0 0-0.3-0.7-0.6-1.2l-8.1-11.7h-4.3v1.8h2v12.8h-2V537.9zM-1160.4 537.9h12.3v-3.9h-2v2h-5.9v-5.4h5.8v-1.9h-5.8v-5.3h5.5v1.9h2v-3.8h-11.9v1.8h2v12.8h-2V537.9zM-1145.7 533v1.7c0 2.3 2.9 3.5 5.4 3.5 3 0 5.6-1.6 5.6-4.7 0-3-2.4-4-4.8-4.9 -1.8-0.7-3.5-1.3-3.5-3 0-1.5 1.3-2.2 2.9-2.2 1.3 0 2.8 0.5 2.8 1.5v1.1h2.2V524c0-1.8-2.5-2.7-5-2.7 -2.8 0-5.2 1.3-5.2 4.4 0 2.9 2.2 3.8 4.4 4.6 2 0.8 3.9 1.4 3.9 3.3 0 1.6-1.4 2.5-3.2 2.5 -1.7 0-3.3-0.7-3.3-1.9V533H-1145.7zM-1132.3 533v1.7c0 2.3 2.9 3.5 5.4 3.5 3 0 5.6-1.6 5.6-4.7 0-3-2.4-4-4.8-4.9 -1.8-0.7-3.5-1.3-3.5-3 0-1.5 1.3-2.2 2.9-2.2 1.3 0 2.8 0.5 2.8 1.5v1.1h2.2V524c0-1.8-2.5-2.7-5-2.7 -2.8 0-5.2 1.3-5.2 4.4 0 2.9 2.2 3.8 4.4 4.6 2 0.8 3.9 1.4 3.9 3.3 0 1.6-1.4 2.5-3.2 2.5 -1.7 0-3.3-0.7-3.3-1.9V533H-1132.3zM-1118.9 537.9h12.3v-3.9h-2v2h-5.9v-5.4h5.8v-1.9h-5.8v-5.3h5.5v1.9h2v-3.8h-11.9v1.8h2v12.8h-2V537.9zM-1104.2 533v1.7c0 2.3 2.9 3.5 5.4 3.5 3 0 5.6-1.6 5.6-4.7 0-3-2.4-4-4.8-4.9 -1.8-0.7-3.5-1.3-3.5-3 0-1.5 1.3-2.2 2.9-2.2 1.3 0 2.8 0.5 2.8 1.5v1.1h2.2V524c0-1.8-2.5-2.7-5-2.7 -2.8 0-5.2 1.3-5.2 4.4 0 2.9 2.2 3.8 4.4 4.6 2 0.8 3.9 1.4 3.9 3.3 0 1.6-1.4 2.5-3.2 2.5 -1.7 0-3.3-0.7-3.3-1.9V533H-1104.2z"/>
        </g>
      </g>
    </g>
  </g>
</svg>
