<?xml version="1.0" encoding="UTF-8"?>
<svg width="24px" height="24px" viewBox="0 0 24 24" version="1.1" xmlns="http://www.w3.org/2000/svg" xmlns:xlink="http://www.w3.org/1999/xlink">
    <title>Icons / Dashboard / Dropdown / Alerts</title>
    <g id="Icons-/-Dashboard-/-Dropdown-/-Alerts" stroke="none" stroke-width="1" fill="none" fill-rule="evenodd">
        <path d="M12.039375,5.23180612 C15.6460394,5.20638995 18.5974088,8.09455724 18.6478125,11.698896 L18.6478125,11.698896 L18.6478125,16.2900166 C18.6520174,17.1783553 19.0938751,18.007591 19.8290625,18.5068719 C20.0638382,18.6706509 20.1652768,18.9676452 20.0797065,19.2407133 C19.9941362,19.5137813 19.74131,19.6998881 19.455,19.7005633 L19.455,19.7005633 L15.465,19.7005633 C15.1364084,21.3289226 13.7047527,22.5 12.0426562,22.5 C10.3805598,22.5 8.94890415,21.3289226 8.6203125,19.7005633 L8.6203125,19.7005633 L4.6303125,19.7005633 C4.3440025,19.6998881 4.09117633,19.5137813 4.00560603,19.2407133 C3.92003574,18.9676452 4.02147435,18.6706509 4.25625,18.5068719 C4.99143738,18.007591 5.43329513,17.1783553 5.4375,16.2900166 L5.4375,16.2900166 L5.4375,11.698896 C5.48789151,8.09713146 8.43526233,5.21001001 12.039375,5.23180612 Z M14.1,19.7005633 L9.9853125,19.7005633 C10.2814988,20.582552 11.1085036,21.176704 12.039375,21.1762939 C12.9726597,21.1795298 13.8030496,20.5848457 14.1,19.7005633 L14.1,19.7005633 Z M12.039375,6.54372353 C9.16007521,6.52170129 6.80030491,8.82159929 6.75,11.698896 L6.75,11.698896 L6.75,16.2900166 C6.74519324,17.0335619 6.53144537,17.7607977 6.133125,18.3888146 L6.133125,18.3888146 L17.9390625,18.3888146 C17.5453594,17.7594222 17.336187,17.0322825 17.3353125,16.2900166 L17.3353125,16.2900166 L17.3353125,11.698896 C17.2849924,8.81902179 14.9212238,6.5180817 12.039375,6.54372353 Z M6.9271875,3.69719857 C7.28962437,3.69719857 7.5834375,3.99087374 7.5834375,4.35310315 C7.5834375,4.71533256 7.28962437,5.00897751 6.9271875,5.00897751 C6.03086838,5.00168784 5.29737575,5.72009917 5.2865625,6.61586971 C5.2865625,6.97809912 4.99274937,7.27174407 4.6303125,7.27174407 C4.45626418,7.27174407 4.28934442,7.20264322 4.16627367,7.07964292 C4.04320293,6.95664261 3.9740625,6.7898184 3.9740625,6.61586971 C3.98490238,4.99564179 5.30601171,3.68995924 6.9271875,3.69719857 Z M17.0728125,3.62505239 C18.6939883,3.61781306 20.0150976,4.92349561 20.0259375,6.54372353 C20.0259375,6.90595294 19.7321244,7.19959789 19.3696875,7.19959789 C19.0072506,7.19959789 18.7134375,6.90595294 18.7134375,6.54372353 C18.7026242,5.64795299 17.9691316,4.92954166 17.0728125,4.93683133 C16.7103756,4.93683133 16.4165625,4.64318638 16.4165625,4.28095697 C16.4165625,3.91872756 16.7103756,3.62505239 17.0728125,3.62505239 Z M5.1225,1.57217093 C5.48493687,1.57217093 5.77875,1.8658408 5.77875,2.22807021 C5.77875,2.59029962 5.48493687,2.88394457 5.1225,2.88394457 C3.86011301,2.87301658 2.82692181,3.88508173 2.8125,5.14671113 C2.8125,5.50894054 2.51868687,5.80258549 2.15625,5.80258549 C1.98220168,5.80258549 1.81528192,5.73348464 1.69221117,5.61048434 C1.56914043,5.48748404 1.5,5.32065983 1.5,5.14671113 C1.51803917,3.16214357 3.13672732,1.56489704 5.1225,1.57217093 Z M18.8775,1.50002475 C20.8632727,1.49275086 22.4819608,3.08999739 22.5,5.07456495 C22.5,5.43679436 22.2061869,5.73043931 21.84375,5.73043931 C21.4813131,5.73043931 21.1875,5.43679436 21.1875,5.07456495 C21.1730782,3.81293555 20.139887,2.8008704 18.8775,2.81179839 C18.5150631,2.81179839 18.22125,2.51815344 18.22125,2.15592403 C18.22125,1.79369462 18.5150631,1.50002475 18.8775,1.50002475 Z" id="Combined-Shape" fill="#91D851"></path>
    </g>
</svg>