<?xml version="1.0" encoding="UTF-8"?>
<svg width="24px" height="24px" viewBox="0 0 24 24" version="1.1" xmlns="http://www.w3.org/2000/svg" xmlns:xlink="http://www.w3.org/1999/xlink">
    <title>Icons / Dashboard / Dropdown / Favourite</title>
    <g id="Icons-/-Dashboard-/-Dropdown-/-Favourite" stroke="none" stroke-width="1" fill="none" fill-rule="evenodd">
        <path d="M12,1.50132688 C13.8924997,1.44522556 15.4729273,2.95385108 15.5336617,4.87444707 L15.5336617,4.87444707 L18.8965517,4.87444707 C19.5059694,4.87444707 20,5.37585646 20,5.9943763 L20,5.9943763 L20,21.3800708 C20,21.9985906 19.5059694,22.5 18.8965517,22.5 L18.8965517,22.5 L5.10344828,22.5 C4.49403062,22.5 4,21.9985906 4,21.3800708 L4,21.3800708 L4,5.9943763 C4,5.37585646 4.49403062,4.87444707 5.10344828,4.87444707 L5.10344828,4.87444707 L8.46633826,4.87444707 C8.53061964,2.95547833 10.1088834,1.44891837 12,1.50132688 Z M18.6863711,6.20769615 L5.3136289,6.20769615 L5.3136289,21.1667509 L18.6863711,21.1667509 L18.6863711,6.20769615 Z M10.2134647,10.820738 C10.8456618,10.6215926 11.5345154,10.7963781 12,11.2740427 C12.4654846,10.7963781 13.1543382,10.6215926 13.7865353,10.820738 C14.6030182,11.0681707 15.1582545,11.8358773 15.1461412,12.7006192 C15.1461412,14.6604954 12.2955665,16.5070454 12.1773399,16.5870403 L12.1773399,16.5870403 L12,16.7003665 L11.8226601,16.5870403 C11.7044335,16.5003791 8.85385878,14.6604954 8.85385878,12.7006192 C8.84174549,11.8358773 9.39698184,11.0681707 10.2134647,10.820738 Z M12.1510226,2.83307413 L12,2.83457596 C10.8340546,2.78162784 9.84364018,3.69166739 9.77996716,4.87444707 L9.77996716,4.87444707 L14.2200328,4.87444707 C14.1563598,3.69166739 13.1659454,2.78162784 12,2.83457596 Z" id="Combined-Shape" fill="#91D851"></path>
    </g>
</svg>