<?xml version="1.0" encoding="UTF-8"?>
<svg width="24px" height="24px" viewBox="0 0 24 24" version="1.1" xmlns="http://www.w3.org/2000/svg" xmlns:xlink="http://www.w3.org/1999/xlink">
    <title>Icons / Dashboard / Dropdown / Messages</title>
    <g id="Icons-/-Dashboard-/-Dropdown-/-Messages" stroke="none" stroke-width="1" fill="none" fill-rule="evenodd">
        <path d="M20.5275517,2.0000002 C21.5942084,1.99951827 22.4680004,2.8506932 22.5,3.92139422 L22.5,3.92139422 L22.5,16.8033163 C22.4714897,17.8766098 21.59669,18.7316946 20.5275517,18.7313128 L20.5275517,18.7313128 L9.75798372,18.7313128 L5.70788979,21.953444 C5.64726746,21.9858269 5.57927821,22.0017584 5.51064496,21.9998461 L5.51064496,21.9998461 L5.4251722,21.9998461 C5.32467836,21.9834898 5.23479205,21.9276454 5.17551912,21.8445591 C5.11624618,21.7614729 5.09250531,21.6580397 5.10958046,21.5572803 L5.10958046,21.5572803 L5.10958046,18.7379156 L3.47244834,18.7379156 C2.40330998,18.7382974 1.52851029,17.8832125 1.5,16.809919 L1.5,16.809919 L1.5,3.92139422 C1.5319996,2.8506932 2.40579162,1.99951827 3.47244834,2.0000002 L3.47244834,2.0000002 Z M20.5275517,3.32054045 L3.47244834,3.32054045 C3.13123766,3.31915564 2.84567197,3.58012315 2.81496556,3.92139422 L2.81496556,3.92139422 L2.81496556,16.8033163 C2.84244639,17.1472008 3.12891772,17.4118728 3.47244834,17.4107672 L3.47244834,17.4107672 L5.10958046,17.4107672 C5.83581589,17.4107672 6.42454602,18.0019956 6.42454602,18.7313128 L6.42454602,18.7313128 L6.42454602,19.6821056 L8.94270507,17.7012873 C9.174927,17.5172477 9.4621596,17.4172202 9.75798372,17.41737 L9.75798372,17.41737 L20.5275517,17.41737 C20.8710823,17.4184756 21.1575536,17.1538036 21.1850344,16.809919 L21.1850344,16.809919 L21.1850344,3.92139422 C21.154328,3.58012315 20.8687623,3.31915564 20.5275517,3.32054045 L20.5275517,3.32054045 Z M16.8522229,13.7594587 C17.2153406,13.7594587 17.5097057,14.0550729 17.5097057,14.4197315 C17.5097057,14.7843901 17.2153406,15.0800043 16.8522229,15.0800043 L16.8522229,15.0800043 L7.16750157,15.0800043 C6.80438385,15.0800043 6.51001879,14.7843901 6.51001879,14.4197315 C6.51001879,14.0550729 6.80438385,13.7594587 7.16750157,13.7594587 L7.16750157,13.7594587 Z M16.8522229,9.78461656 C17.2153406,9.78461656 17.5097057,10.0802308 17.5097057,10.4448894 C17.5097057,10.8095479 17.2153406,11.1051621 16.8522229,11.1051621 L16.8522229,11.1051621 L7.16750157,11.1051621 C6.80438385,11.1051621 6.51001879,10.8095479 6.51001879,10.4448894 C6.51001879,10.0802308 6.80438385,9.78461656 7.16750157,9.78461656 L7.16750157,9.78461656 Z M16.8522229,5.80317166 C17.2153406,5.80317166 17.5097057,6.09878586 17.5097057,6.46344445 C17.5097057,6.82810304 17.2153406,7.12371723 16.8522229,7.12371723 L16.8522229,7.12371723 L7.16750157,7.12371723 C6.93260559,7.12371723 6.71555275,6.99786996 6.59810476,6.79358085 C6.48065677,6.58929173 6.48065677,6.33759716 6.59810476,6.13330805 C6.71555275,5.92901893 6.93260559,5.80317166 7.16750157,5.80317166 L7.16750157,5.80317166 Z" id="Combined-Shape" fill="#91D851"></path>
    </g>
</svg>