<?xml version="1.0" encoding="UTF-8"?>
<svg width="24px" height="24px" viewBox="0 0 24 24" version="1.1" xmlns="http://www.w3.org/2000/svg" xmlns:xlink="http://www.w3.org/1999/xlink">
    <title>Icons / Dashboard / Dropdown / Reviews</title>
    <g id="Icons-/-Dashboard-/-Dropdown-/-Reviews" stroke="none" stroke-width="1" fill="none" fill-rule="evenodd">
        <path d="M20.53125,2.00029245 C21.5983837,2 22.4715432,2.85442792 22.5,3.92700862 L22.5,3.92700862 L22.5,16.8069742 C22.4542904,17.8665868 21.586097,18.7016949 20.53125,18.7006987 L20.53125,18.7006987 L9.7490625,18.7006987 L5.7196875,21.9536818 C5.6612327,21.9852159 5.59570028,22.0011205 5.529375,21.9999386 L5.529375,21.9999386 L5.4375,21.9999386 C5.32774778,21.9880036 5.22852487,21.9288148 5.16556176,21.8376527 C5.10259864,21.7464906 5.08209761,21.6323353 5.109375,21.5247895 L5.109375,21.5247895 L5.109375,18.7006987 L3.5015625,18.7006987 C2.43404155,18.7195918 1.54610104,17.8794908 1.5,16.8069742 L1.5,16.8069742 L1.5,3.92700862 C1.52864384,2.84148245 2.42170954,1.981812 3.5015625,2.00029245 L3.5015625,2.00029245 Z M20.53125,3.31995761 L3.5015625,3.31995761 C3.158676,3.3188562 2.8727418,3.58335244 2.8453125,3.92700862 L2.8453125,3.92700862 L2.8453125,16.7805809 C2.87596133,17.1216253 3.16099159,17.3824195 3.5015625,17.3810301 L3.5015625,17.3810301 L5.109375,17.3810301 C5.83424873,17.3810301 6.421875,17.9718658 6.421875,18.7006987 L6.421875,18.7006987 L6.421875,19.6508601 L8.9353125,17.6713572 C9.1662328,17.485072 9.45300943,17.3827567 9.7490625,17.3810301 L9.7490625,17.3810301 L20.53125,17.3810301 C20.8628264,17.3838577 21.1444054,17.137546 21.1875,16.8069742 L21.1875,16.8069742 L21.1875,3.92700862 C21.1600707,3.58335244 20.8741365,3.3188562 20.53125,3.31995761 L20.53125,3.31995761 Z M12,6.49008044 C12.2227374,6.49008044 12.4251394,6.62032072 12.5184375,6.82368122 L12.5184375,6.82368122 L13.404375,8.76359407 L15.49125,9.02092945 C15.8011311,9.06210551 16.0238414,9.34128686 15.9965625,9.65437038 C15.9777739,9.79081653 15.9128975,9.91661866 15.8128125,10.0106809 L15.8128125,10.0106809 L14.270625,11.4425213 L14.6775,13.5605895 C14.718778,13.8672897 14.518863,14.1544424 14.218125,14.2204238 L14.218125,14.2204238 L14.0934375,14.2204238 C13.9970839,14.2189437 13.9025176,14.1940411 13.8178125,14.147842 L13.8178125,14.147842 L12,13.1185005 L10.1559375,14.1346453 C10.0229885,14.209947 9.86559216,14.228605 9.71887119,14.1864557 C9.57215022,14.1443065 9.44831534,14.0448579 9.375,13.9103016 C9.31106536,13.7913477 9.28799555,13.6544924 9.309375,13.5209994 L9.309375,13.5209994 L9.7228125,11.4425213 L8.180625,9.98428753 C8.06750197,9.88143043 8.00310193,9.73513938 8.0034375,9.58178861 C7.99647452,9.42850978 8.05083082,9.27880759 8.154375,9.166093 C8.24683801,9.06510751 8.37292265,9.00172086 8.50875,8.98793773 L8.50875,8.98793773 L10.595625,8.7372007 L11.4815625,6.82368122 C11.5748606,6.62032072 11.7772626,6.49008044 12,6.49008044 Z" id="Combined-Shape" fill="#91D851"></path>
    </g>
</svg>