<?xml version="1.0" encoding="UTF-8"?>
<svg width="157px" height="158px" viewBox="0 0 157 158" version="1.1" xmlns="http://www.w3.org/2000/svg" xmlns:xlink="http://www.w3.org/1999/xlink">
    <!-- Generator: Sketch 63.1 (92452) - https://sketch.com -->
    <title>Animals Button / Animals / Hover / Ic-btn-Rabbits-Hover</title>
    <desc>Created with Sketch.</desc>
    <defs>
        <linearGradient x1="0%" y1="12.1928166%" x2="100%" y2="87.8071834%" id="linearGradient-1">
            <stop stop-color="#A8DC28" offset="0%"></stop>
            <stop stop-color="#79D378" offset="100%"></stop>
        </linearGradient>
    </defs>
    <g id="Animals-Button-/-Animals-/-Hover-/-Ic-btn-Rabbits-Hover" stroke="none" stroke-width="1" fill="none" fill-rule="evenodd">
        <g id="Animals-Button-/-z.Base-/-Animals-/-Hover">
            <g id="Badge-/-z.Base-/-Large">
                <g id="Badge-/-z.Base-/-Shapes-/-Large" fill="#FFFFFF" fill-rule="evenodd" stroke="#CBD5D9" stroke-width="1">
                    <rect id="Rectangle" x="0.5" y="0.5" width="156" height="157" rx="4"></rect>
                </g>
                <text id="Category-name" font-family="Poppins-SemiBold, Poppins" font-size="14" font-weight="500" fill="#82C148">
                    <tspan x="51.543" y="108.107143">Rabbits</tspan>
                </text>
                <g id="Icon-/-Category-/-Animals-/-Rabbits" transform="translate(58.500000, 36.428571)" fill="url(#linearGradient-1)" fill-rule="evenodd">
                    <path d="M36.9066504,13.6656942 C35.1292844,11.1500683 33.4904145,9.99424019 31.9900405,10.2208731 C31.8515444,10.2435364 29.2662848,5.5975606 29.2662848,5.5975606 C28.2968124,3.80716016 26.2193717,2.03942301 25.7577182,3.60319049 C25.5499741,4.73635532 28.3198952,9.60896412 28.2506471,9.65429072 C27.9505723,9.49564764 25.6192221,4.73635532 23.5417813,3.98846653 C20.4256201,2.8326384 25.272982,8.88373863 25.6884701,13.9829804 C25.7577182,14.5495628 24.7420804,15.0254921 24.2342616,14.8441857 C23.0801278,14.3455931 22.2260688,13.9603171 21.6720846,13.6883576 C11.19255,8.90640193 4.33699534,18.8782525 3.73684578,28.2155308 C3.64451507,28.5554802 3.64451507,28.8274397 3.34444029,28.5554802 C2.46729863,27.8075914 1.22083415,26.2438239 0.759180644,26.2438239 C-0.62577988,26.2438239 -0.302622424,30.2099009 3.29827495,32.6348736 C3.57526705,32.8388433 3.92150718,32.8388433 4.29082999,32.6122104 C4.6601528,32.3855773 4.91406223,32.3402508 5.0294756,32.4309039 C6.02203065,33.3374358 6.82992429,34.0173347 7.43007385,34.4479374 C8.5842076,35.9890415 8.69962102,36.5782872 13.0622467,37.0768798 C17.3325416,37.6207989 18.3481793,38.3686877 19.0406596,37.0315532 C19.6177265,35.8983884 18.9252462,35.5584389 17.8865258,34.8105501 C17.4017896,34.4706006 15.7629197,33.7680384 15.7629197,33.7680384 C25.2498993,28.1022143 20.8872737,25.7225681 20.8872737,25.7225681 C23.2878719,26.8330697 24.3727576,29.530002 18.3943447,33.3374358 C18.3943447,33.3374358 25.6884701,33.9720081 26.5194464,35.1958262 C27.7197456,36.714267 28.2275644,37.2808495 30.0049304,37.5301457 C30.7435761,37.5301457 31.2283123,37.2581861 31.5053043,36.714267 C32.4516941,34.9691932 27.5120015,32.8388433 28.4583912,31.7056785 C30.9974855,30.3458806 33.5596624,26.9690494 33.5596624,23.9321677 C37.8068747,23.954831 40,20.6006631 40,19.1502121 C40.0228115,17.4731281 38.568603,16.0453404 36.9066504,13.6656942 L36.9066504,13.6656942 Z M32.9595129,15.4334314 C32.4286113,15.4334314 31.9900405,15.0028287 31.9900405,14.4815729 C31.9900405,13.9603171 32.4286113,13.5297144 32.9595129,13.5297144 C33.4904145,13.5297144 33.9289853,13.9603171 33.9289853,14.4815729 C33.9289853,15.0254921 33.4904145,15.4334314 32.9595129,15.4334314 L32.9595129,15.4334314 Z" id="Shape"></path>
                </g>
            </g>
        </g>
    </g>
</svg>