<?xml version="1.0" encoding="UTF-8"?>
<svg width="157px" height="158px" viewBox="0 0 157 158" version="1.1" xmlns="http://www.w3.org/2000/svg" xmlns:xlink="http://www.w3.org/1999/xlink">
    <!-- Generator: Sketch 63.1 (92452) - https://sketch.com -->
    <title>Animals Button / Animals / Normal / Ic-btn-Insects</title>
    <desc>Created with Sketch.</desc>
    <defs>
        <linearGradient x1="0%" y1="6.44444444%" x2="100%" y2="93.5555556%" id="linearGradient-1">
            <stop stop-color="#A8DC28" offset="0%"></stop>
            <stop stop-color="#79D378" offset="100%"></stop>
        </linearGradient>
    </defs>
    <g id="Animals-Button-/-Animals-/-Normal-/-Ic-btn-Insects" stroke="none" stroke-width="1" fill="none" fill-rule="evenodd">
        <g id="Animals-Button-/-z.Base-/-Animals-/-Normal">
            <g id="Badge-/-z.Base-/-Large">
                <g id="Badge-/-z.Base-/-Shapes-/-Large" fill="#FFFFFF" fill-rule="evenodd" stroke="#CBD5D9" stroke-width="1">
                    <rect id="Rectangle" x="0.5" y="0.5" width="156" height="157" rx="4"></rect>
                </g>
                <text id="Category-name" font-family="Poppins-SemiBold, Poppins" font-size="14" font-weight="500" fill="#313133">
                    <tspan x="18.566" y="108.107143">Insects &amp; Spiders</tspan>
                </text>
                <g id="Icon-/-Category-/-Animals-/-Insects-and-spiders" transform="translate(58.500000, 36.428571)" fill="url(#linearGradient-1)" fill-rule="evenodd">
                    <path d="M39.8430001,8.50418761 C40.1740071,7.92431856 39.96495,7.20800974 39.3726216,6.88396528 C38.7802933,6.55992082 38.0485936,6.76458048 37.7175865,7.34444953 C35.6792801,10.9259936 32.9092739,13.6547891 29.5120966,15.4626162 C30.6096462,14.5757576 31.6549315,13.5695142 32.334367,12.4779961 C34.4423591,9.13522159 34.4946234,2.48378255 34.4946234,2.210903 C34.4946234,1.56281407 33.9545593,1.01705497 33.2925452,1.01705497 L33.2925452,1.01705497 C32.6305312,1.01705497 32.0904671,1.5457591 32.0730457,2.19384803 C32.0730457,3.93345515 31.7246172,8.93056188 30.2786392,11.2329831 C29.0068754,13.2625248 25.9407051,15.1385717 24.3553556,16.0083752 C24.1811414,14.6951424 23.6584987,13.5524593 22.9093776,12.7167657 C23.5191273,11.6252475 23.8849772,10.1755749 23.8849772,8.55535253 C23.8849772,8.19719811 23.588813,7.89020862 23.2055417,7.89020862 C22.8396919,7.89020862 22.5261062,8.18014315 22.5261062,8.55535253 C22.5261062,9.86858533 22.2473635,10.9942135 21.8292493,11.8299071 C21.2717639,11.5058626 20.6445926,11.3182579 20,11.3182579 C19.3379859,11.3182579 18.7282362,11.5058626 18.1707507,11.8299071 C17.7526365,10.9942135 17.4738937,9.86858533 17.4738937,8.55535253 C17.4738937,8.19719811 17.1777296,7.89020862 16.7944583,7.89020862 C16.4286084,7.89020862 16.1150228,8.18014315 16.1150228,8.55535253 C16.1150228,10.1755749 16.4808727,11.6252475 17.0906225,12.7167657 C16.3415013,13.5524593 15.8188586,14.7121974 15.6446444,16.0083752 C13.8502379,15.0021319 10.923439,13.10903 9.7213608,11.2159281 C8.27538272,8.91350694 7.9269543,3.91640019 7.9269543,2.17679306 C7.9269543,1.52870413 7.38689021,1 6.70745474,1 L6.70745474,1 C6.04544069,1 5.5053766,1.52870413 5.5053766,2.19384803 C5.5053766,2.46672758 5.55764087,9.11816657 7.66563297,12.4609411 C8.34506842,13.5354043 9.37293238,14.5416476 10.470482,15.4114512 C7.80500435,13.9788336 4.68656975,11.5229177 2.28241346,7.31033958 C1.95140644,6.73047054 1.2197067,6.52581087 0.627378339,6.84985534 C0.0350499786,7.1738998 -0.17400709,7.89020862 0.156999936,8.47007767 C3.20574885,13.8253388 7.31720452,16.5882443 10.226582,17.969697 C10.7840676,18.2425765 11.3241317,18.4642912 11.8467743,18.6518959 C11.4983459,18.7201157 11.1499174,18.8053906 10.7840676,18.8906655 C6.88166897,19.8627988 4.37298414,21.3977463 3.29285596,23.4613979 C2.99669178,24.0412669 3.22317027,24.7575758 3.81549863,25.0645652 C3.98971286,25.1498401 4.1813485,25.201005 4.37298414,25.201005 C4.8085197,25.201005 5.24405526,24.9622354 5.45311233,24.5529161 C6.56808336,22.4210446 10.4007963,21.2954165 13.3798595,20.7667124 C12.700424,21.1248667 11.9513029,21.619461 11.2370246,22.2846049 C9.86073221,23.5466728 8.81544684,25.1839501 8.13601139,27.1623268 C7.31720452,29.5329679 7.03846177,32.4152581 7.31720452,35.6898127 C7.36946879,36.3037917 7.89211146,36.7813309 8.51928263,36.7813309 L8.62381122,36.7813309 C9.28582527,36.730166 9.79104651,36.150297 9.73878221,35.502208 C9.37293238,31.1531902 10.0872107,27.656921 11.7770886,25.2862799 C11.7422458,25.6614893 11.7074029,26.0366987 11.7074029,26.446018 C11.7074029,31.7671692 15.4181659,38.3333333 19.9825786,38.3333333 C24.5469913,38.3333333 28.2577542,31.7671692 28.2577542,26.446018 C28.2577542,25.9684788 28.2229113,25.5250495 28.1706471,25.0986752 C29.9650536,27.4693163 30.7141748,31.0338054 30.3483249,35.502208 C30.2960606,36.150297 30.7838605,36.730166 31.4632959,36.7813309 L31.5678244,36.7813309 C32.1949957,36.7813309 32.7176383,36.3037917 32.7699026,35.6898127 C33.0312239,32.4152581 32.7699026,29.5500229 31.9510958,27.1623268 C31.2716602,25.201005 30.2437963,23.5466728 28.8500826,22.2846049 C28.1358042,21.619461 27.3866831,21.1248667 26.7072476,20.7667124 C29.6863108,21.2783615 33.5190238,22.4039897 34.6339947,24.5529161 C34.8430518,24.9622354 35.2785874,25.201005 35.714123,25.201005 C35.9057586,25.201005 36.0799728,25.1668951 36.2716084,25.0645652 C36.8639369,24.7746307 37.1078368,24.0583219 36.7942512,23.4613979 C35.714123,21.3977463 33.2054381,19.8627988 29.3030395,18.8906655 C28.9197683,18.7883356 28.5364969,18.7030608 28.1706471,18.6348409 C28.6758683,18.4472362 29.198511,18.2255215 29.7385751,17.969697 C32.6827955,16.6394092 36.7942512,13.8594487 39.8430001,8.50418761 L39.8430001,8.50418761 Z M18.6759719,14.5587026 C18.1359078,15.4285062 17.9442721,16.4347495 17.8745864,17.1169484 C17.8397436,17.4239378 17.5610009,17.6456525 17.2474153,17.6115425 L17.2474153,17.6115425 C16.9338297,17.5774327 16.7073512,17.3045531 16.7421941,16.9975636 C16.8293012,16.1959799 17.0557796,15.0191868 17.7003722,13.9617786 C17.857165,13.6888991 18.223015,13.6206791 18.4843363,13.7741739 C18.7456576,13.9447236 18.8327647,14.285823 18.6759719,14.5587026 L18.6759719,14.5587026 Z" id="Shape"></path>
                </g>
            </g>
        </g>
    </g>
</svg>