<?xml version="1.0" encoding="UTF-8"?>
<svg width="157px" height="158px" viewBox="0 0 157 158" version="1.1" xmlns="http://www.w3.org/2000/svg" xmlns:xlink="http://www.w3.org/1999/xlink">
    <!-- Generator: Sketch 63.1 (92452) - https://sketch.com -->
    <title>Animals Button / Animals / Normal / Ic-btn-Other</title>
    <desc>Created with Sketch.</desc>
    <defs>
        <linearGradient x1="0%" y1="44.88%" x2="100%" y2="55.12%" id="linearGradient-1">
            <stop stop-color="#A8DC28" offset="0%"></stop>
            <stop stop-color="#79D378" offset="100%"></stop>
        </linearGradient>
    </defs>
    <g id="Animals-Button-/-Animals-/-Normal-/-Ic-btn-Other" stroke="none" stroke-width="1" fill="none" fill-rule="evenodd">
        <g id="Animals-Button-/-z.Base-/-Animals-/-Normal">
            <g id="Badge-/-z.Base-/-Large">
                <g id="Badge-/-z.Base-/-Shapes-/-Large" fill="#FFFFFF" fill-rule="evenodd" stroke="#CBD5D9" stroke-width="1">
                    <rect id="Rectangle" x="0.5" y="0.5" width="156" height="157" rx="4"></rect>
                </g>
                <text id="Category-name" font-family="Poppins-SemiBold, Poppins" font-size="14" font-weight="500" fill="#313133">
                    <tspan x="27.575" y="108.107143">Other Animals</tspan>
                </text>
                <g id="Icon-/-Category-/-Animals-/-Other-animals" transform="translate(58.500000, 36.428571)" fill="url(#linearGradient-1)" fill-rule="evenodd">
                    <path d="M28.6023866,22.4541082 C29.3854287,22.6262423 30.2119732,22.6692758 31.0385177,22.6262423 C31.9955692,22.5832087 32.9526207,22.4971417 33.9096722,22.3250076 C34.8667237,22.1528735 35.8237752,21.7655718 36.8243291,21.8516389 C38.6079251,22.023773 39.738986,23.5729797 40,25.251287 C39.0864508,24.6918513 37.7813806,24.7348848 36.7373244,24.8639853 C35.0842354,25.0361194 33.5616535,25.5525217 31.9955692,26.1119575 C30.7775037,26.5422927 29.7334475,26.4992591 28.776396,25.5955552 C28.5153819,25.3803876 27.9498515,24.1324155 27.6888374,24.0463484 C27.2973164,23.9172479 25.9922461,24.6918513 25.6442274,24.8639853 C24.1651478,25.5525217 23.3821057,26.5422927 21.642012,26.7574603 C21.0329792,26.8435273 19.8149137,26.8865608 20.2934394,25.9828569 C20.6414582,25.3803876 21.772519,24.9500524 22.3815518,24.6057842 C21.8160214,24.6057842 21.2069886,24.5197172 20.6849605,24.3045496 C20.2499371,24.1324155 19.858416,23.9172479 19.5103973,23.5729797 C19.2058809,23.2287115 19.2058809,23.0135439 18.8578622,22.8844434 C18.5098435,22.7983763 17.8573083,22.9274769 17.5092896,22.9705104 C16.9002568,23.0135439 16.2912241,23.0135439 15.6821913,23.0565775 C15.3341725,23.0565775 14.5076281,22.9274769 14.2031117,23.0565775 C14.0291023,23.1426445 13.8115906,23.4869127 13.6375812,23.6590468 C12.6370274,24.6918513 10.679422,26.9726279 9.06983541,26.6283597 C8.19978859,26.4562256 8.4173003,25.9828569 8.98283073,25.4664546 C9.67886819,24.8639853 10.1138916,24.2615161 10.5054127,23.3578121 C9.98338458,24.089382 9.24384478,24.7348848 8.46080264,25.079153 C8.06928157,25.251287 7.06872772,25.6385887 6.67720665,25.3373541 C6.1986809,24.9500524 7.1557324,24.3045496 7.46024879,24.0463484 C8.06928157,23.5299462 8.80882137,23.185678 8.4173003,22.2819741 C8.15628625,21.7655718 7.63425815,21.5073707 7.24273708,21.120069 C6.9382207,20.8188344 6.72070899,20.4315327 6.45969494,20.0872645 C5.80715982,19.3126611 5.15462471,18.7532254 4.15407086,18.6671583 C3.11001467,18.5810913 2.06595848,18.5810913 1.10890698,18.1937896 C-1.37072647,17.1179516 0.934897611,16.5154823 1.9789538,15.6117783 C2.80549828,14.8802085 3.37102872,14.2347057 4.54559193,14.0625716 C5.76365748,13.933471 6.76421133,14.5359403 7.80826752,15.0953761 C9.8963799,16.2572811 11.8539852,17.1609851 14.1596093,15.99908 C16.1172147,14.9662755 18.2488294,14.1486386 20.4674488,14.0195381 C25.6007251,13.6752699 27.9933538,17.9355885 28.6023866,22.4541082 L28.6023866,22.4541082 Z" id="Shape"></path>
                </g>
            </g>
        </g>
    </g>
</svg>