<?xml version="1.0" encoding="UTF-8"?>
<svg width="157px" height="158px" viewBox="0 0 157 158" version="1.1" xmlns="http://www.w3.org/2000/svg" xmlns:xlink="http://www.w3.org/1999/xlink">
    <!-- Generator: Sketch 63.1 (92452) - https://sketch.com -->
    <title>Animals Button / Animals / Hover / Ic-btn-Pet-supplies-Hover</title>
    <desc>Created with Sketch.</desc>
    <defs>
        <linearGradient x1="0%" y1="34.32%" x2="100%" y2="65.68%" id="linearGradient-1">
            <stop stop-color="#A8DC28" offset="0%"></stop>
            <stop stop-color="#79D378" offset="100%"></stop>
        </linearGradient>
    </defs>
    <g id="Animals-Button-/-Animals-/-Hover-/-Ic-btn-Pet-supplies-Hover" stroke="none" stroke-width="1" fill="none" fill-rule="evenodd">
        <g id="Animals-Button-/-z.Base-/-Animals-/-Hover">
            <g id="Badge-/-z.Base-/-Large">
                <g id="Badge-/-z.Base-/-Shapes-/-Large" fill="#FFFFFF" fill-rule="evenodd" stroke="#CBD5D9" stroke-width="1">
                    <rect id="Rectangle" x="0.5" y="0.5" width="156" height="157" rx="4"></rect>
                </g>
                <text id="Category-name" font-family="Poppins-SemiBold, Poppins" font-size="14" font-weight="500" fill="#82C148">
                    <tspan x="35.548" y="108.107143">Pet Supplies</tspan>
                </text>
                <g id="Icon-/-Category-/-Animals-/-Pet-supplies" transform="translate(58.500000, 36.428571)" fill="url(#linearGradient-1)" fill-rule="evenodd">
                    <path d="M19.9371069,9 C28.3294244,9 35.2777738,11.4108759 36.0851889,14.4305194 L39.4339623,22.2166205 C39.7484277,22.7750693 39.9371069,23.3955679 40,23.9540166 C40,28.0493075 31.0062893,31.4 20,31.4 C8.93081761,31.4 -7.21200877e-13,28.0493075 -7.21200877e-13,23.9540166 C-7.21200877e-13,23.333518 0.188679245,22.7750693 0.503144654,22.1545706 L0.503144654,22.1545706 L3.78665177,14.4394638 C4.58272309,11.4156382 11.5365048,9 19.9371069,9 Z M27.1069182,23.5196676 C27.1069182,22.3407202 26.0377358,21.4099723 24.8427673,21.6581717 C24.1509434,21.8443213 23.5849057,22.3407202 23.3962264,23.0232687 C23.3333333,23.2094183 23.3333333,23.3955679 23.3333333,23.5817175 C23.3333333,23.9540166 23.0188679,24.2022161 22.7044025,24.2022161 L22.7044025,24.2022161 L17.1698113,24.2022161 C16.7924528,24.2022161 16.5408805,23.9540166 16.5408805,23.5817175 L16.5408805,23.5817175 L16.5358048,23.4414947 C16.455044,22.3301966 15.4213836,21.4819501 14.2138365,21.7202216 C13.5220126,21.9063712 12.8930818,22.4648199 12.7672956,23.2094183 C12.6415094,23.7058172 12.7672956,24.2642659 13.081761,24.6365651 C13.2704403,24.8847645 13.2704403,25.1950139 13.081761,25.4432133 C12.7672956,25.8155125 12.6415094,26.3119114 12.7672956,26.8703601 C12.8930818,27.6149584 13.4591195,28.2354571 14.2138365,28.3595568 C15.4716981,28.6077562 16.5408805,27.6770083 16.5408805,26.4980609 L16.5408805,26.4980609 L16.5470233,26.4136806 C16.5876605,26.1339667 16.8267581,25.8775623 17.1698113,25.8775623 L17.1698113,25.8775623 L22.7044025,25.8775623 C23.081761,25.8775623 23.3333333,26.1878116 23.3333333,26.4980609 C23.3333333,26.6842105 23.3333333,26.8703601 23.3962264,27.0565097 C23.5849057,27.7390582 24.1509434,28.2975069 24.8427673,28.4216066 C26.0377358,28.6698061 27.1069182,27.7390582 27.1069182,26.5601108 C27.1069182,26.1257618 26.9811321,25.6914127 26.7295597,25.3811634 C26.6037736,25.1950139 26.6037736,24.9468144 26.7295597,24.698615 C26.9811321,24.3263158 27.1069182,23.9540166 27.1069182,23.5196676 Z M19.9371069,10.9235457 C10.4402516,10.9235457 5.59748428,13.8398892 5.59748428,15.0808864 C5.59748428,16.3218837 10.5031447,19.2382271 19.9371069,19.2382271 C29.3710692,19.2382271 34.2767296,16.2598338 34.2767296,15.0808864 C34.2767296,13.8398892 29.3710692,10.9235457 19.9371069,10.9235457 Z" id="Combined-Shape"></path>
                </g>
            </g>
        </g>
    </g>
</svg>