<?xml version="1.0" encoding="UTF-8"?>
<svg width="157px" height="158px" viewBox="0 0 157 158" version="1.1" xmlns="http://www.w3.org/2000/svg" xmlns:xlink="http://www.w3.org/1999/xlink">
    <!-- Generator: Sketch 63.1 (92452) - https://sketch.com -->
    <title>Animals Button / Animals / Normal / Ic-btn-Fish</title>
    <desc>Created with Sketch.</desc>
    <defs>
        <linearGradient x1="0%" y1="39.6694215%" x2="100%" y2="60.3305785%" id="linearGradient-1">
            <stop stop-color="#A8DC28" offset="0%"></stop>
            <stop stop-color="#79D378" offset="100%"></stop>
        </linearGradient>
    </defs>
    <g id="Animals-Button-/-Animals-/-Normal-/-Ic-btn-Fish" stroke="none" stroke-width="1" fill="none" fill-rule="evenodd">
        <g id="Animals-Button-/-z.Base-/-Animals-/-Normal">
            <g id="Badge-/-z.Base-/-Large">
                <g id="Badge-/-z.Base-/-Shapes-/-Large" fill="#FFFFFF" fill-rule="evenodd" stroke="#CBD5D9" stroke-width="1">
                    <rect id="Rectangle" x="0.5" y="0.5" width="156" height="157" rx="4"></rect>
                </g>
                <text id="Category-name" font-family="Poppins-SemiBold, Poppins" font-size="14" font-weight="500" fill="#313133">
                    <tspan x="24.81" y="108.107143">Fish &amp; Aquatics</tspan>
                </text>
                <g id="Icon-/-Category-/-Animals-/-Fish-and-aquatics" transform="translate(58.500000, 36.428571)" fill="url(#linearGradient-1)" fill-rule="evenodd">
                    <path d="M37.0246174,19.2440036 C37.1575604,18.9794793 38.0216897,17.8111635 38.8193476,16.6208041 L38.8193476,16.6208041 C38.9966049,16.3562797 39.1738621,16.0917554 39.3289623,15.8272311 C39.3289623,15.8272311 39.3289623,15.8051874 39.3511194,15.8051874 C39.3732766,15.7611 41.2123211,12.8072451 38.5977759,14.0196482 L38.5977759,14.0196482 C38.1103184,14.2621288 37.4677607,14.6368716 36.69226,15.1659203 C34.9640014,16.3121923 31.4631698,17.9875131 31.4631698,17.9875131 C31.4631698,17.9875131 30.8427693,18.3181684 30.4439404,18.0756878 C28.4054815,16.8191973 25.458579,14.5707405 21.5367614,13.31425 C21.4702899,13.2922063 21.3816612,13.2481189 21.492447,13.1379005 L23.1542341,11.9695847 C23.1542341,11.9695847 23.2871771,11.8593662 23.1099198,11.7932351 C22.2901049,11.5287108 18.8335876,10.3824388 15.8423707,11.440536 C15.2441274,11.660973 14.7345127,11.8373225 14.3356837,11.9695847 C14.1584264,12.0357158 13.9811692,12.1018469 13.6266545,12.1459342 C5.49497614,12.4325023 0,18.3622559 0,20.7209311 C0,22.308077 0.864129314,23.3661743 3.98828914,24.8210581 C4.05476062,24.8210581 4.52006102,25.1517135 5.58360479,24.8431018 C5.87164789,24.754927 7.86579248,24.0054414 7.93226397,23.9833977 C8.02089259,23.9393104 8.06520693,23.9393104 8.08736407,23.9393104 C8.13167841,23.9393104 8.15383555,24.0495288 8.15383555,24.0495288 C8.15383555,24.6006212 7.09029178,25.0635387 6.49204844,25.5705437 C6.38126261,25.6146311 6.35910547,25.8571117 6.53636272,25.9232428 C6.53636272,25.9232428 8.66345027,27.0474711 12.0091817,27.4001703 C12.2750677,27.4222139 15.8202136,29.6927144 19.3875166,29.0754909 C21.2708754,28.7448356 22.179319,28.6566608 22.5781479,28.5243986 C22.9326625,28.4362238 22.7554052,28.3039617 22.7554052,28.3039617 L20.9606751,26.8931653 C20.8498893,26.7609031 20.938518,26.6506847 21.0493038,26.628641 C25.0154358,25.5044126 28.1617527,23.7409171 30.0229543,22.2199023 C30.2666831,22.021509 30.931398,22.5064703 31.3966983,22.7269072 C32.9476997,23.4984365 39.3954338,26.1436797 39.9272056,25.5925874 C39.97152,25.5485 39.97152,25.4823689 39.9272056,25.3721504 C39.0409192,23.5425238 35.7616592,21.9112906 37.0246174,19.2440036 L37.0246174,19.2440036 Z M6.58067706,19.067654 C6.00459087,19.067654 5.53929047,18.6047365 5.53929047,18.0095567 C5.53929047,17.4364207 6.00459087,16.9514595 6.58067706,16.9514595 C7.15676326,16.9514595 7.6220637,17.414377 7.6220637,18.0095567 C7.6220637,18.5826928 7.15676326,19.067654 6.58067706,19.067654 L6.58067706,19.067654 Z M11.2336811,25.041495 C11.1672096,25.1076261 11.1007381,25.1737572 11.1450524,25.0635387 C11.1450524,25.0635387 12.7625252,22.6387324 12.9619397,19.5085279 C13.1170398,17.1718964 11.5438813,14.2841725 11.5438813,14.2841725 C11.5438813,14.2841725 11.5438813,14.1959978 11.6103528,14.2621288 C12.1642819,14.9454833 17.6814151,19.2660473 11.2336811,25.041495 L11.2336811,25.041495 Z" id="Shape"></path>
                </g>
            </g>
        </g>
    </g>
</svg>