<?xml version="1.0" encoding="UTF-8"?>
<svg width="157px" height="158px" viewBox="0 0 157 158" version="1.1" xmlns="http://www.w3.org/2000/svg" xmlns:xlink="http://www.w3.org/1999/xlink">
    <!-- Generator: Sketch 63.1 (92452) - https://sketch.com -->
    <title>Animals Button / Animals / Normal / Ic-btn-Dogs</title>
    <desc>Created with Sketch.</desc>
    <defs>
        <linearGradient x1="0%" y1="26.88%" x2="100%" y2="73.12%" id="linearGradient-1">
            <stop stop-color="#A8DC28" offset="0%"></stop>
            <stop stop-color="#79D378" offset="100%"></stop>
        </linearGradient>
    </defs>
    <g id="Animals-Button-/-Animals-/-Normal-/-Ic-btn-Dogs" stroke="none" stroke-width="1" fill="none" fill-rule="evenodd">
        <g id="Animals-Button-/-z.Base-/-Animals-/-Normal">
            <g id="Badge-/-z.Base-/-Large">
                <g id="Badge-/-z.Base-/-Shapes-/-Large" fill="#FFFFFF" fill-rule="evenodd" stroke="#CBD5D9" stroke-width="1">
                    <rect id="Rectangle" x="0.5" y="0.5" width="156" height="157" rx="4"></rect>
                </g>
                <text id="Category-name" font-family="Poppins-SemiBold, Poppins" font-size="14" font-weight="500" fill="#313133">
                    <tspan x="26.679" y="108.107143">Exotic Animals</tspan>
                </text>
                <g id="Icon-/-Category-/-Animals-/-Exotic-animals" transform="translate(58.500000, 36.428571)" fill="url(#linearGradient-1)" fill-rule="evenodd">
                    <path d="M37.8575587,8.46761893 C36.9865708,7.54192641 36.3022231,6.49280821 34.9957411,6.1225312 C32.3205638,5.38197718 30.2053073,8.15905476 29.0232522,10.1338655 C26.2858615,7.29507507 21.4954277,6.73965955 17.7626221,6.86308522 C11.1679989,7.10993656 5.63100403,9.94872697 2.2092656,15.6880206 C-0.217058018,19.7610677 -1.89682052,27.7837363 4.1378818,29.8819727 C6.00428459,30.499101 9.98594385,30.6225267 11.1679989,29.017993 C12.7233346,26.9814694 11.9767735,24.7598074 9.73709015,24.142679 C9.36380959,24.2043919 9.23938274,24.3278175 9.42602302,24.6363817 C10.1103707,25.6237871 10.732505,27.0431823 9.79930357,27.907162 C8.86610218,28.7711417 5.44436375,28.4625775 4.44894893,27.907162 C3.76460125,27.536885 2.89361328,26.4260539 2.70697301,25.9323512 C1.40049106,22.661571 3.51574754,19.5142164 7.18633968,18.7736624 C8.36839477,18.526811 7.87068737,18.526811 8.55503505,19.1439394 C9.23938274,19.8227806 9.73709015,20.8101859 10.3592244,21.4890271 C11.2924258,22.5381453 12.350054,23.5872635 13.5321091,24.3895304 C14.5897374,25.1300844 14.3408837,24.8215202 14.2164568,25.8706384 C14.09203,27.4751721 13.0344017,29.9436855 14.2164568,31.3630807 C15.2740851,32.5973374 18.0114758,33.0293273 19.8156652,32.4121989 C20.375586,32.1653476 20.6866531,31.8567834 20.3133726,31.4247936 C19.2557443,31.2396551 18.0114758,31.3013679 17.1404878,30.869378 C16.7049939,30.6842395 16.7049939,30.6842395 16.3939267,30.3756754 C16.2072865,30.1905369 16.6427804,28.5242903 16.7672073,28.3391518 C17.1404878,27.6603106 17.9492624,27.1048951 18.4469698,26.4877668 C19.8778786,24.5746689 20.375586,22.1678683 20.3133726,19.8227806 C21.6820679,21.1804629 23.7973244,21.6124528 25.6637272,21.6124528 C25.4770869,24.7598074 25.2904467,28.0305876 25.9125809,31.1162294 C26.0992212,31.9802091 26.659142,32.7207631 27.53013,32.9676144 C28.9610388,33.3996043 30.7652281,33.2144658 32.1339235,32.5356246 C32.6938444,32.2270604 32.7560578,31.9184962 32.2583504,31.5482192 L28.8988254,31.3013679 C28.4633314,31.2396551 28.1522643,30.869378 28.2144777,30.4373882 L28.7743985,26.7346181 C28.8988254,25.7472127 28.7743985,23.402125 29.3343193,22.661571 C29.6453865,22.2295811 30.7652281,21.9827298 31.2629356,21.3656015 C31.9472832,20.5016218 32.3827772,19.4525036 32.6938444,18.4033854 C33.0049115,17.5394057 33.1293383,15.934872 33.7514726,15.5028821 C34.3113934,15.1326051 35.6178754,15.1943179 36.2400096,14.8857538 C37.3598513,14.3920511 39.3506809,13.2812201 39.8483883,12.0469634 C40.532736,10.5041425 38.7285467,9.39331146 37.8575587,8.46761893 L37.8575587,8.46761893 Z M36.4266499,9.6401628 C36.1777962,9.6401628 35.9911559,9.45502429 35.9911559,9.20817295 C35.9911559,8.96132161 36.1777962,8.77618311 36.4266499,8.77618311 C36.6755036,8.77618311 36.8621439,8.96132161 36.8621439,9.20817295 C36.8621439,9.45502429 36.6755036,9.6401628 36.4266499,9.6401628 L36.4266499,9.6401628 Z" id="Shape"></path>
                </g>
            </g>
        </g>
    </g>
</svg>