<?xml version="1.0" encoding="UTF-8"?>
<svg width="157px" height="158px" viewBox="0 0 157 158" version="1.1" xmlns="http://www.w3.org/2000/svg" xmlns:xlink="http://www.w3.org/1999/xlink">
    <!-- Generator: Sketch 63.1 (92452) - https://sketch.com -->
    <title>Animals Button / Animals / Hover / Ic-btn-Guinea-Pigs-Hover</title>
    <desc>Created with Sketch.</desc>
    <defs>
        <linearGradient x1="0%" y1="36.48%" x2="100%" y2="63.52%" id="linearGradient-1">
            <stop stop-color="#A8DC28" offset="0%"></stop>
            <stop stop-color="#79D378" offset="100%"></stop>
        </linearGradient>
    </defs>
    <g id="Animals-Button-/-Animals-/-Hover-/-Ic-btn-Guinea-Pigs-Hover" stroke="none" stroke-width="1" fill="none" fill-rule="evenodd">
        <g id="Animals-Button-/-z.Base-/-Animals-/-Hover">
            <g id="Badge-/-z.Base-/-Large">
                <g id="Badge-/-z.Base-/-Shapes-/-Large" fill="#FFFFFF" fill-rule="evenodd" stroke="#CBD5D9" stroke-width="1">
                    <rect id="Rectangle" x="0.5" y="0.5" width="156" height="157" rx="4"></rect>
                </g>
                <text id="Category-name" font-family="Poppins-SemiBold, Poppins" font-size="14" font-weight="500" fill="#82C148">
                    <tspan x="8.948" y="108.107143">Guinea Pigs &amp; Small </tspan>
                    <tspan x="54.336" y="128.107143">Furries</tspan>
                </text>
                <g id="Icon-/-Category-/-Animals-/-Guinea-pigs-and-small-furries" transform="translate(58.500000, 36.428571)" fill="url(#linearGradient-1)" fill-rule="evenodd">
                    <path d="M36.0734011,15.4723788 C37.0053688,14.0618146 37.3822674,10.1175828 33.9422105,10.1175828 C32.1125388,10.1175828 31.8658415,12.0362176 31.8658415,12.4373259 C31.8658415,12.8384342 31.3176252,9.32205128 28.0146224,10.1175828 C28.0146224,10.1175828 25.4996804,10.8663183 25.4996804,12.9119707 L25.4791222,12.8986004 C25.4791222,12.8718599 25.4722695,12.8518045 25.4654168,12.8250639 L25.1022236,12.0362176 C25.0336965,11.8958297 24.8349681,11.8824594 24.7527357,12.009477 C24.6705033,12.1364946 24.4717749,12.1298095 24.4032479,11.9894216 L24.3141627,11.815608 C24.2798992,11.7487566 24.2113721,11.7086458 24.1359924,11.7086458 L23.9783803,11.7086458 C23.868737,11.7086458 23.7796519,11.621739 23.7796519,11.5147767 L23.7796519,11.2473712 C23.7796519,11.1337238 23.683714,11.046817 23.5672181,11.0535022 L22.8339788,11.093613 C22.7928626,11.093613 22.7517464,11.1136684 22.7174829,11.1337238 L22.6832194,11.1002982 L22.1966775,10.5855425 C22.1212977,10.512006 21.9910964,10.5588019 21.9910964,10.6657641 L21.9910964,10.8128372 C21.9910964,10.9064291 21.8883059,10.9599102 21.8060734,10.9064291 C21.5730815,10.7526709 21.1619193,10.4919505 20.8741058,10.3983586 C20.8124315,10.3783032 20.7439044,10.4117289 20.7233463,10.4718951 L20.6342612,10.7593561 C20.6068504,10.8596332 20.4629436,10.8730034 20.4149747,10.7794115 L20.0723395,10.1443233 C20.0312233,10.0707868 19.9284328,10.0641017 19.8736111,10.1242679 L19.345953,10.7927818 C19.3253949,10.8195223 19.2911314,10.8395777 19.2500152,10.8395777 L18.6058611,10.8395777 C18.5441867,10.8395777 18.4893651,10.8930589 18.4893651,10.9532251 L18.4893651,11.140409 C18.4893651,11.2206307 18.4071327,11.2741118 18.3317529,11.2473712 L17.2764367,10.8930589 C17.201057,10.8663183 17.1188245,10.9197994 17.1188245,11.0000211 L17.1188245,11.2741118 C17.1188245,11.3543334 17.036592,11.4078145 16.9612124,11.381074 L15.5632609,10.8930589 C15.4878812,10.8663183 15.4056487,10.9197994 15.4056487,11.0000211 L15.4056487,11.2941672 C15.4056487,11.3409631 15.3782379,11.381074 15.3371217,11.4011294 L14.7272312,11.6618498 C14.686115,11.6819052 14.6587041,11.722016 14.6587041,11.768812 L14.6587041,12.0228473 C14.6587041,12.0696433 14.6244406,12.1164392 14.5764717,12.1298095 L13.7061784,12.4105853 C13.6582095,12.4239556 13.6239459,12.4707516 13.6239459,12.5175475 L13.6239459,13.0523586 C13.6239459,13.1125249 13.5691243,13.166006 13.50745,13.166006 L12.6440094,13.166006 C12.5823351,13.166006 12.5275135,13.2194871 12.5275135,13.2796533 L12.5275135,13.5203183 C12.5275135,13.5804846 12.4726918,13.6339657 12.4110175,13.6339657 L11.5475769,13.6339657 C11.4859026,13.6339657 11.431081,13.6874468 11.431081,13.7476131 L11.431081,14.5698851 C11.431081,14.6099959 11.4105228,14.6501068 11.3762594,14.6701622 L10.807485,15.0044191 C10.7732215,15.0244745 10.7526634,15.0645854 10.7526634,15.1046962 L10.7526634,15.5927113 C10.7526634,15.6528776 10.6978417,15.7063587 10.6361675,15.7063587 L10.3894701,15.7063587 C10.3277958,15.7063587 10.2729741,15.7598398 10.2729741,15.820006 L10.2729741,16.4617793 C10.2729741,16.5219456 10.2181525,16.5754267 10.1564782,16.5754267 L9.90978089,16.5754267 C9.8481066,16.5754267 9.79328492,16.6289078 9.79328492,16.6890741 L9.79328492,17.5982529 C9.79328492,17.6584191 9.73846331,17.7119003 9.67678902,17.7119003 L9.39582819,17.7119003 C9.28618489,17.7119003 9.23821601,17.8522882 9.32044844,17.9191395 L9.5123241,18.0662126 C9.58085118,18.1196937 9.56714578,18.226656 9.48491329,18.2600816 L9.20395247,18.3804141 C9.12857277,18.4138398 9.10801464,18.5074318 9.16968899,18.567598 L9.40268086,18.7948927 C9.43694441,18.8283184 9.45064981,18.8817995 9.423239,18.9285955 L9.06004575,19.6305351 C9.05319302,19.6439053 9.03948761,19.6572756 9.02578221,19.6706459 L8.77908493,19.8511446 C8.68999977,19.917996 8.73796865,20.0583839 8.84761195,20.0583839 C8.95040245,20.0583839 9.00522407,20.1787164 8.93669705,20.2522529 L8.67629436,20.5397139 C8.60776734,20.6132505 8.66258896,20.7335829 8.76537952,20.7335829 L8.96410786,20.7335829 C9.03948761,20.7335829 9.10116196,20.8071195 9.08060383,20.880656 L8.92984438,21.4221522 C8.92299164,21.4555779 8.92984438,21.4890036 8.94354978,21.5157441 L9.15598358,21.8299456 C9.17654166,21.8566862 9.18339439,21.8901119 9.16968899,21.9235376 L9.07375115,22.2577945 C9.06004575,22.3045905 9.08060383,22.3580716 9.12172004,22.3848122 L9.47806062,22.6121069 C9.53973491,22.6522177 9.55344031,22.7324394 9.50547143,22.7859205 L9.15598358,23.1736585 C9.13542544,23.2003991 9.12172004,23.2338248 9.12857277,23.2672505 L9.17654166,23.6483034 C9.18339439,23.7084696 9.23136328,23.7485804 9.29303763,23.7485804 L9.41638627,23.7485804 C9.47806062,23.7485804 9.53288224,23.7953764 9.53288224,23.8622278 L9.53973491,24.3034469 C9.53973491,24.3636132 9.58085118,24.403724 9.62882007,24.4104092 C9.16968899,25.2928475 7.88823351,26.5095427 5.29791175,25.459976 C1.74821157,24.0226711 0.877918284,25.9413059 0.110415539,26.7903185 C-0.657087202,27.6393312 2.7281481,25.1925704 5.57201987,27.1646863 C8.40903894,29.1368022 10.4854079,26.6833563 10.5950512,26.2621926 C10.7046945,25.8343437 14.939665,29.9924999 17.3107002,30.5005705 C19.6885882,31.008641 21.6279031,30.9284193 21.6279031,29.805316 C21.6279031,28.6888979 24.2182249,30.4470893 24.0332019,28.8493412 C23.8413262,27.2515931 19.4213327,27.5189986 22.1212977,26.7970037 C24.8212627,26.0750087 25.3146574,30.8014017 29.5496279,30.7947166 C33.7845983,30.7880314 33.0993281,29.9390188 32.9348631,29.5646511 C32.7703983,29.1902833 36.1830444,30.3133866 36.1830444,29.0565805 C36.1830444,27.8064596 31.8384307,28.3880666 31.8384307,26.0215276 C31.8384307,23.6549885 33.1198861,23.387583 33.6406916,23.4343789 C34.161497,23.48786 40,24.3101321 40,22.3981825 C40,20.4862328 37.2246552,16.588797 36.0734011,15.4723788 L36.0734011,15.4723788 Z M28.5696913,15.1782327 C27.5760494,15.1782327 26.7674304,14.4294972 26.7674304,13.5002629 C26.7674304,12.5710287 27.5760494,11.8222931 28.5696913,11.8222931 C29.5633333,11.8222931 30.3719522,12.5710287 30.3719522,13.5002629 C30.3719522,14.4294972 29.5633333,15.1782327 28.5696913,15.1782327 L28.5696913,15.1782327 Z M34.0724118,18.2667668 C33.6132808,18.2667668 33.2363821,17.9057693 33.2363821,17.4511798 C33.2363821,16.9965904 33.606428,16.635593 34.0724118,16.635593 C34.531543,16.635593 34.9084416,16.9965904 34.9084416,17.4511798 C34.9084416,17.9057693 34.531543,18.2667668 34.0724118,18.2667668 L34.0724118,18.2667668 Z" id="Shape"></path>
                </g>
            </g>
        </g>
    </g>
</svg>