<?xml version="1.0" encoding="UTF-8"?>
<svg width="40px" height="40px" viewBox="0 0 40 40" version="1.1" xmlns="http://www.w3.org/2000/svg" xmlns:xlink="http://www.w3.org/1999/xlink">
    <!-- Generator: Sketch 63.1 (92452) - https://sketch.com -->
    <title>Icon / Extra / Info Mileage</title>
    <desc>Created with Sketch.</desc>
    <g id="Icon-/-Extra-/-Info-Mileage" stroke="none" stroke-width="1" fill="none" fill-rule="evenodd">
        <path d="M20.5839381,7 C13.0748046,7 7,12.8947368 7,20.1812865 C7,20.5906433 7.33748915,20.8362573 7.67497829,20.8362573 C8.09683972,20.8362573 8.34995658,20.5087719 8.34995658,20.1812865 C8.34995658,19.6081871 8.34995658,19.0350877 8.43432887,18.5438596 L10.4592637,18.871345 C10.4592637,18.871345 10.543636,18.871345 10.543636,18.871345 C10.7967529,18.871345 10.9654975,18.7076023 11.0498697,18.4619883 C11.134242,18.2163743 10.9654975,17.9707602 10.6280083,17.9707602 L8.60307344,17.6432749 C8.8561903,16.5789474 9.19367944,15.5964912 9.69991316,14.6959064 L11.4717312,15.6783626 C11.5561035,15.7602339 11.6404757,15.7602339 11.724848,15.7602339 C11.8935926,15.7602339 12.0623372,15.6783626 12.1467095,15.5146199 C12.315454,15.2690058 12.2310817,15.0233918 11.9779649,14.8596491 L10.2061469,13.877193 C10.7967529,12.9766082 11.4717312,12.1578947 12.315454,11.502924 L13.6654106,13.0584795 C13.7497829,13.1403509 13.9185275,13.2222222 14.0028998,13.2222222 C14.087272,13.2222222 14.2560166,13.2222222 14.3403889,13.1403509 C14.5091335,12.9766082 14.5935058,12.6491228 14.4247612,12.4853801 L13.0748046,10.9298246 C13.9185275,10.2748538 14.8466226,9.78362573 15.9434623,9.37426901 L16.6184406,11.2573099 C16.7028129,11.4210526 16.8715575,11.5847953 17.0403021,11.5847953 C17.1246744,11.5847953 17.1246744,11.5847953 17.2090466,11.5847953 C17.4621635,11.502924 17.5465358,11.2573099 17.4621635,11.0116959 L16.7871852,9.12865497 C17.7996526,8.80116959 18.8964924,8.6374269 19.9933321,8.55555556 L19.9933321,10.6023392 C19.9933321,10.8479532 20.2464489,11.0935673 20.4995658,11.0935673 C20.7526827,11.0935673 21.0057995,10.8479532 21.0057995,10.6023392 L21.0057995,8.55555556 C22.1026392,8.6374269 23.199479,8.80116959 24.2119464,9.12865497 L23.4525958,11.0935673 C23.3682235,11.3391813 23.4525958,11.5847953 23.7057127,11.6666667 C23.790085,11.6666667 23.790085,11.6666667 23.8744573,11.6666667 C24.0432018,11.6666667 24.2119464,11.5847953 24.2963187,11.3391813 L25.0556693,9.37426901 C26.0681367,9.78362573 26.9962318,10.3567251 27.924327,11.0116959 L26.5743704,12.5672515 C26.4056258,12.7309942 26.4056258,13.0584795 26.6587427,13.2222222 C26.743115,13.3040936 26.8274873,13.3040936 26.9962318,13.3040936 C27.1649764,13.3040936 27.2493487,13.2222222 27.333721,13.1403509 L28.6836776,11.5847953 C29.5274004,12.3216374 30.2023787,13.1403509 30.7929847,14.0409357 L28.9367944,15.1052632 C28.6836776,15.2690058 28.5993053,15.5146199 28.7680499,15.7602339 C28.8524221,15.9239766 29.0211667,16.005848 29.1899113,16.005848 C29.2742836,16.005848 29.3586559,16.005848 29.4430282,15.9239766 L31.2992184,14.8596491 C31.8054522,15.7602339 32.2273136,16.8245614 32.3960582,17.8888889 L30.286751,18.2163743 C30.0336342,18.2982456 29.8648896,18.4619883 29.8648896,18.7076023 C29.8648896,18.9532164 30.1180064,19.1169591 30.3711233,19.1169591 C30.3711233,19.1169591 30.4554956,19.1169591 30.4554956,19.1169591 L32.5648027,18.7894737 C32.649175,19.2807018 32.649175,19.7719298 32.649175,20.3450292 C32.649175,20.754386 32.9866642,21 33.3241533,21 C33.7460148,21 33.9991316,20.6725146 33.9991316,20.3450292 C34.0835039,12.8947368 28.0086993,7 20.5839381,7 L20.5839381,7 Z M20,2 C10.0747664,2 2,10.0747664 2,20 C2,29.9252336 10.0747664,38 20,38 C29.9252336,38 38,29.9252336 38,20 C38,10.0747664 29.9252336,2 20,2 L20,2 Z M20,29 C18.3636364,29 17,27.6363636 17,26 C17,24.3636364 18.3636364,23 20,23 C21.6363636,23 23,24.3636364 23,26 C23,27.7272727 21.6363636,29 20,29 L20,29 Z M23.8121547,23 C23.7292818,22.9150943 23.6464088,22.8301887 23.5635359,22.745283 L25.8839779,15.6981132 L21.160221,21.2169811 C20.7458564,21.1320755 20.4143646,21.0471698 20,21.0471698 C18.4254144,21.0471698 17.0165746,21.8113208 16.1878453,23 L5.24861878,23 C5.08287293,22.1509434 5,21.2169811 5,20.3679245 C5,11.8773585 11.7127072,5 20,5 C28.2872928,5 35,11.8773585 35,20.3679245 C35,21.3018868 34.9171271,22.1509434 34.7513812,23 L23.8121547,23 L23.8121547,23 Z" id="Imported-Layers" fill="#91D851"></path>
    </g>
</svg>