<?xml version="1.0" encoding="UTF-8"?>
<svg width="40px" height="40px" viewBox="0 0 40 40" version="1.1" xmlns="http://www.w3.org/2000/svg" xmlns:xlink="http://www.w3.org/1999/xlink">
    <!-- Generator: Sketch 63.1 (92452) - https://sketch.com -->
    <title>Icon / Extra / Info Item Type</title>
    <desc>Created with Sketch.</desc>
    <g id="Icon-/-Extra-/-Info-Item-Type" stroke="none" stroke-width="1" fill="none" fill-rule="evenodd">
        <path d="M16.7986348,35.7549296 L7.4334471,35.7549296 L7.4334471,6.25633803 L32.5665529,6.25633803 L32.5665529,35.7549296 L23.2013652,35.7549296 L23.2013652,37 L16.7030717,37 L16.7030717,35.7549296 L16.7986348,35.7549296 Z M10.3003413,18.4197183 L10.3003413,24.1661972 L16.7986348,24.1661972 L16.7986348,18.4197183 L10.3003413,18.4197183 Z M23.2013652,18.4197183 L23.2013652,24.1661972 L29.6996587,24.1661972 L29.6996587,18.4197183 L23.2013652,18.4197183 Z M16.7986348,35.7549296 L23.2013652,35.7549296 L23.2013652,28.6676056 L16.7030717,28.6676056 L16.7030717,35.7549296 L16.7986348,35.7549296 Z M6,4.91549296 L6,3 L34,3 L34,4.91549296 L6,4.91549296 Z M10.3003413,9.41690141 L10.3003413,15.1633803 L16.7986348,15.1633803 L16.7986348,9.41690141 L10.3003413,9.41690141 Z M23.2013652,9.41690141 L23.2013652,15.1633803 L29.6996587,15.1633803 L29.6996587,9.41690141 L23.2013652,9.41690141 Z" id="Rectangle-97" fill="#91D851"></path>
    </g>
</svg>