<?xml version="1.0" encoding="UTF-8"?>
<svg width="40px" height="40px" viewBox="0 0 40 40" version="1.1" xmlns="http://www.w3.org/2000/svg" xmlns:xlink="http://www.w3.org/1999/xlink">
    <!-- Generator: Sketch 63.1 (92452) - https://sketch.com -->
    <title>Icon / Extra / Info Engine</title>
    <desc>Created with Sketch.</desc>
    <g id="Icon-/-Extra-/-Info-Engine" stroke="none" stroke-width="1" fill="none" fill-rule="evenodd">
        <g id="engine" transform="translate(1.952381, 1.000000)" fill="#91D851">
            <path d="M3.32034632,7.79104478 L0.0476190476,8.41791045 L0.0476190476,10.119403 L3.41125541,10.7462687 C3.59307359,11.2835821 3.86580087,11.7313433 4.13852814,12.2686567 L2.32034632,14.9552239 L3.5021645,16.119403 L6.32034632,14.3283582 C6.77489177,14.5970149 7.32034632,14.7761194 7.86580087,14.8656716 L8.5021645,18 L10.2294372,18 L10.8658009,14.7761194 C11.4112554,14.5970149 11.8658009,14.4179104 12.3203463,14.1492537 L15.047619,15.9402985 L16.2294372,14.7761194 L14.3203463,12 C14.5930736,11.5522388 14.7748918,11.0149254 14.8658009,10.4776119 L18.047619,9.85074627 L18.047619,8.14925373 L14.95671,7.43283582 C14.7748918,6.89552239 14.5930736,6.44776119 14.3203463,5.91044776 L16.1385281,3.2238806 L14.95671,2.05970149 L12.1385281,3.85074627 C11.6839827,3.58208955 11.1385281,3.40298507 10.5930736,3.2238806 L9.95670996,0 L8.22943723,0 L7.5021645,3.40298507 C6.95670996,3.58208955 6.5021645,3.76119403 6.04761905,4.02985075 L3.32034632,2.23880597 L2.04761905,3.49253731 L3.86580087,6.26865672 C3.68398268,6.71641791 3.41125541,7.25373134 3.32034632,7.79104478 L3.32034632,7.79104478 Z M6.59307359,9.13432836 C6.59307359,7.70149254 7.77489177,6.62686567 9.13852814,6.62686567 C10.5021645,6.62686567 11.6839827,7.79104478 11.6839827,9.13432836 C11.6839827,10.4776119 10.5930736,11.641791 9.22943723,11.641791 C7.86580087,11.641791 6.59307359,10.4776119 6.59307359,9.13432836 L6.59307359,9.13432836 Z" id="Fill-1_1_"></path>
            <path d="M22.7748918,25.9090909 L25.047619,22.8181818 C25.6839827,22.9090909 26.3203463,22.9090909 26.95671,22.8181818 L28.95671,26 L30.7748918,25.3636364 L30.1385281,21.5454545 C30.5930736,21.1818182 31.047619,20.7272727 31.5021645,20.2727273 L35.1385281,21.1818182 L35.95671,19.3636364 L32.8658009,17 C32.95671,16.3636364 32.95671,15.7272727 32.8658009,15.0909091 L36.047619,13.0909091 L35.4112554,11.2727273 L31.5930736,11.9090909 C31.2294372,11.3636364 30.7748918,11 30.3203463,10.5454545 L31.1385281,6.90909091 L29.3203463,6.09090909 L27.047619,9.18181818 C26.4112554,9.09090909 25.7748918,9.09090909 25.1385281,9.18181818 L23.1385281,6 L21.3203463,6.63636364 L21.8658009,10.4545455 C21.4112554,10.8181818 20.95671,11.2727273 20.5021645,11.7272727 L16.8658009,10.8181818 L16.047619,12.6363636 L19.1385281,14.9090909 C19.047619,15.5454545 19.047619,16.1818182 19.1385281,16.8181818 L16.1385281,18.8181818 L16.7748918,20.6363636 L20.5930736,20 C20.95671,20.5454545 21.4112554,20.9090909 21.8658009,21.3636364 L21.047619,25 L22.7748918,25.9090909 L22.7748918,25.9090909 Z M23.4112554,14.8181818 C24.047619,13.3636364 25.8658009,12.7272727 27.3203463,13.3636364 C28.7748918,14.0909091 29.4112554,15.8181818 28.7748918,17.2727273 C28.1385281,18.7272727 26.3203463,19.3636364 24.8658009,18.7272727 C23.4112554,18 22.7748918,16.2727273 23.4112554,14.8181818 L23.4112554,14.8181818 Z" id="Fill-2"></path>
            <path d="M7.26223092,38 L9.36268754,34.7713004 C10.0019569,34.8609865 10.6412264,34.7713004 11.2804958,34.6816143 L13.3809524,37.7309417 L15.2074364,36.9237668 L14.3855186,33.2466368 C14.8421396,32.8878924 15.2987606,32.4394619 15.6640574,31.9013453 L19.3170254,32.529148 L20.047619,30.735426 L16.851272,28.6726457 C16.9425962,28.044843 16.851272,27.4170404 16.7599478,26.7892377 L19.8649706,24.6367713 L19.134377,22.8430493 L15.3900848,23.6502242 C15.024788,23.2017937 14.568167,22.7533632 14.0202218,22.3946188 L14.6594912,18.7174888 L12.8330072,18 L10.7325506,21.2286996 C10.0932811,21.1390135 9.45401174,21.2286996 8.81474234,21.3183857 L6.71428571,18.2690583 L4.8878017,19.0762332 L5.7097195,22.7533632 C5.2530985,23.1121076 4.7964775,23.5605381 4.43118069,24.0986547 L0.778212655,23.470852 L0.0476190476,25.264574 L3.24396608,27.3273543 C3.15264188,27.955157 3.24396608,28.5829596 3.33529028,29.2107623 L0.230267449,31.3632287 L0.960861057,33.1569507 L4.70515329,32.3497758 C5.0704501,32.7982063 5.5270711,33.2466368 6.07501631,33.6053812 L5.4357469,37.2825112 L7.26223092,38 L7.26223092,38 Z M7.26223092,26.9686099 C7.90150033,25.4439462 9.54533594,24.7264574 11.0978474,25.3542601 C12.6503588,25.9820628 13.3809524,27.5964126 12.741683,29.1210762 C12.1024136,30.6457399 10.458578,31.3632287 8.90606654,30.735426 C7.44487932,30.1076233 6.71428571,28.4932735 7.26223092,26.9686099 L7.26223092,26.9686099 Z" id="Fill-3"></path>
        </g>
    </g>
</svg>