<?xml version="1.0" encoding="UTF-8"?>
<svg width="40px" height="40px" viewBox="0 0 40 40" version="1.1" xmlns="http://www.w3.org/2000/svg" xmlns:xlink="http://www.w3.org/1999/xlink">
    <!-- Generator: Sketch 63.1 (92452) - https://sketch.com -->
    <title>Icon / Extra / Info Fuel</title>
    <desc>Created with Sketch.</desc>
    <g id="Icon-/-Extra-/-Info-Fuel" stroke="none" stroke-width="1" fill="none" fill-rule="evenodd">
        <path d="M32.6633543,9.69430052 L28.3245353,6.52331606 C27.6161567,5.99481865 26.1993995,5.55440415 25.3139262,5.55440415 L11.8547326,5.55440415 C11.677638,5.55440415 11.411996,5.55440415 11.2349013,5.64248705 L8.66702888,3 L3,3 L3,6.34715026 L7.25027166,6.34715026 L10.1723334,9.34196891 L10.1723334,35.3264249 C10.1723334,36.2953368 10.880712,37 11.8547326,37 L32.309165,37 C33.1946383,37 33.9915642,36.2072539 33.9915642,35.3264249 L33.9915642,12.3367876 C34.0801115,11.4559585 33.4602802,10.2227979 32.6633543,9.69430052 L32.6633543,9.69430052 Z M15.0916031,19.0687023 C15.1832061,18.9770992 15.4580153,18.9770992 15.5496183,19.0687023 L17.9312977,21.4503817 C18.0229008,21.5419847 18.0229008,21.8167939 17.9312977,21.9083969 C17.8396947,22 17.7480916,22 17.6564885,22 C17.5648855,22 17.4732824,22 17.3816794,21.9083969 L15,19.5267176 C15,19.4351145 15,19.1603053 15.0916031,19.0687023 L15.0916031,19.0687023 Z M17.8775291,31.5267176 L15.5930785,33.9083969 C15.505215,34 15.4173516,34 15.3294881,34 C15.2416246,34 15.1537611,34 15.0658976,33.9083969 C14.9780341,33.8167939 14.9780341,33.5419847 15.0658976,33.4503817 L17.3503482,31.0687023 C17.4382117,30.9770992 17.7018021,30.9770992 17.7896656,31.0687023 C18.0532561,31.1603053 18.0532561,31.3435115 17.8775291,31.5267176 L17.8775291,31.5267176 Z M26.0480769,31 L18.9519231,31 C18.4326923,31 18,30.5754717 18,30.0660377 L18,22.9339623 C18,22.4245283 18.4326923,22 18.9519231,22 L26.0480769,22 C26.5673077,22 27,22.4245283 27,22.9339623 L27,30.0660377 C27,30.5754717 26.5673077,31 26.0480769,31 L26.0480769,31 Z M28.8775291,33.9083969 C28.7896656,34 28.7018021,34 28.6139387,34 C28.5260752,34 28.4382117,34 28.3503482,33.9083969 L26.0658976,31.5267176 C25.9780341,31.4351145 25.9780341,31.1603053 26.0658976,31.0687023 C26.1537611,30.9770992 26.4173516,30.9770992 26.505215,31.0687023 L28.7896656,33.4503817 C29.0532561,33.5419847 29.0532561,33.7251908 28.8775291,33.9083969 L28.8775291,33.9083969 Z M28.8775291,19.5267176 L26.5930785,21.9083969 C26.505215,22 26.4173516,22 26.3294881,22 C26.2416246,22 26.1537611,22 26.0658976,21.9083969 C25.9780341,21.8167939 25.9780341,21.5419847 26.0658976,21.4503817 L28.3503482,19.0687023 C28.4382117,18.9770992 28.7018021,18.9770992 28.7896656,19.0687023 C29.0532561,19.1603053 29.0532561,19.4351145 28.8775291,19.5267176 L28.8775291,19.5267176 Z M29.7136931,13 L19.6048053,13 C19.2592023,13 19,12.7333333 19,12.2888889 L19,9.71111111 C19,9.35555556 19.2592023,9 19.6048053,9 L23.9248428,9 C24.2704458,9 24.7888503,9.17777778 25.1344533,9.35555556 L29.8864946,12.5555556 C30.0592961,12.8222222 30.0592961,13 29.7136931,13 L29.7136931,13 Z M25.6888889,23 L19.3111111,23 C19.1555556,23 19,23.1521739 19,23.3043478 L19,29.6956522 C19,29.8478261 19.1555556,30 19.3111111,30 L25.6888889,30 C25.8444444,30 26,29.8478261 26,29.6956522 L26,23.3043478 C26,23.1521739 25.8444444,23 25.6888889,23 L25.6888889,23 Z" id="Imported-Layers" fill="#91D851"></path>
    </g>
</svg>