<?xml version="1.0" encoding="UTF-8"?>
<svg width="40px" height="40px" viewBox="0 0 40 40" version="1.1" xmlns="http://www.w3.org/2000/svg" xmlns:xlink="http://www.w3.org/1999/xlink">
    <!-- Generator: Sketch 63.1 (92452) - https://sketch.com -->
    <title>Icon / Extra / Info Bedroom</title>
    <desc>Created with Sketch.</desc>
    <g id="Icon-/-Extra-/-Info-Bedroom" stroke="none" stroke-width="1" fill="none" fill-rule="evenodd">
        <g id="bed" transform="translate(1.000000, 7.061224)" fill="#91D851">
            <path d="M36.1829522,17.2153713 L36.1039501,17.2153713 C36.1829522,16.9033145 36.1829522,16.669272 36.1829522,16.3572152 C36.1829522,14.6409032 35.1559252,13.0806195 33.5758836,12.456506 L33.5758836,5.90331452 C33.5758836,3.56288899 32.9438669,2.93877551 30.5738046,2.93877551 L7.34719335,2.93877551 C4.97713098,2.93877551 4.34511435,3.56288899 4.34511435,5.90331452 L4.34511435,12.456506 C2.84407484,13.0806195 1.73804574,14.6409032 1.73804574,16.3572152 C1.73804574,16.669272 1.73804574,16.9033145 1.81704782,17.2153713 L1.73804574,17.2153713 C0.79002079,17.2153713 0,17.9955131 0,18.9316833 C0,19.8678535 0.79002079,20.6479954 1.73804574,20.6479954 L2.60706861,20.6479954 L2.60706861,23.2224635 C2.60706861,24.1586337 3.3970894,24.9387755 4.34511435,24.9387755 C5.29313929,24.9387755 6.08316008,24.1586337 6.08316008,23.2224635 L6.08316008,20.6479954 L31.9168399,20.6479954 L31.9168399,23.2224635 C31.9168399,24.1586337 32.7068607,24.9387755 33.6548857,24.9387755 C34.6029106,24.9387755 35.3929314,24.1586337 35.3929314,23.2224635 L35.3929314,20.6479954 L36.2619543,20.6479954 C37.2099792,20.6479954 38,19.8678535 38,18.9316833 C37.8419958,17.9955131 37.1309771,17.2153713 36.1829522,17.2153713 L36.1829522,17.2153713 Z M21.3305613,7.07352728 L29.9417879,7.07352728 C30.8898129,7.07352728 31.6798337,7.85366913 31.6798337,8.78983934 L31.6798337,12.1444493 L19.5925156,12.1444493 L19.5925156,8.78983934 C19.5925156,7.77565494 20.3825364,7.07352728 21.3305613,7.07352728 L21.3305613,7.07352728 Z M7.97920998,7.07352728 L16.5904366,7.07352728 C17.5384615,7.07352728 18.3284823,7.85366913 18.3284823,8.78983934 L18.3284823,12.1444493 L6.24116424,12.1444493 L6.24116424,8.78983934 C6.24116424,7.77565494 7.03118503,7.07352728 7.97920998,7.07352728 L7.97920998,7.07352728 Z" id="Fill-1_1_"></path>
            <path d="M30,2.43877551 C30,1.60544218 30.6666667,0.93877551 31.5,0.93877551 C32.3333333,0.93877551 33,1.60544218 33,2.43877551 C33,3.27210884 32.3333333,3.93877551 31.5,3.93877551 C30.6666667,3.93877551 30,3.27210884 30,2.43877551" id="Fill-2"></path>
            <path d="M5,2.43877551 C5,1.60544218 5.66666667,0.93877551 6.5,0.93877551 C7.33333333,0.93877551 8,1.60544218 8,2.43877551 C8,3.27210884 7.33333333,3.93877551 6.5,3.93877551 C5.66666667,3.93877551 5,3.27210884 5,2.43877551" id="Fill-3"></path>
        </g>
    </g>
</svg>