<?xml version="1.0" encoding="UTF-8"?>
<svg width="40px" height="40px" viewBox="0 0 40 40" version="1.1" xmlns="http://www.w3.org/2000/svg" xmlns:xlink="http://www.w3.org/1999/xlink">
    <!-- Generator: Sketch 63.1 (92452) - https://sketch.com -->
    <title>Icon / Extra / Info Year</title>
    <desc>Created with Sketch.</desc>
    <g id="Icon-/-Extra-/-Info-Year" stroke="none" stroke-width="1" fill="none" fill-rule="evenodd">
        <path d="M35.1,8.3 L29.3,8.3 L29.3,5.4 C29.3,4.1 28.3,3 27,3 C25.7,3 24.7,4.1 24.7,5.4 L24.7,8.3 L14.2,8.3 L14.2,5.4 C14.2,4.1 13.2,3 11.9,3 C10.6,3 9.6,4.1 9.6,5.4 L9.6,8.3 L3.8,8.3 C2.8,8.3 2,9.1 2,10.1 L2,35.7 C2,36.7 2.8,37.5 3.8,37.5 L35.4,37.5 C36.4,37.5 37.2,36.7 37.2,35.7 L37.2,10.1 C36.9,9.1 36.1,8.3 35.1,8.3 L35.1,8.3 Z M12.6,16.2 L18.2,16.2 L18.2,20.9 L12.6,20.9 L12.6,16.2 Z M20.5,16.2 L26.1,16.2 L26.1,20.9 L20.5,20.9 L20.5,16.2 Z M5.3,16.2 L10.3,16.2 L10.3,20.9 L5.3,20.9 L5.3,16.2 Z M5.3,23.2 L10.3,23.2 L10.3,26.7 L5.3,26.7 L5.3,23.2 Z M12.6,23.2 L18.2,23.2 L18.2,26.7 L12.6,26.7 L12.6,23.2 Z M12.6,29.1 L18.2,29.1 L18.2,33.9 L12.6,33.9 L12.6,29.1 Z M20.5,29.1 L26.1,29.1 L26.1,33.9 L20.5,33.9 L20.5,29.1 Z M20.5,23.2 L26.1,23.2 L26.1,26.7 L20.5,26.7 L20.5,23.2 Z M28.4,23.2 L33.4,23.2 L33.4,26.7 L28.4,26.7 L28.4,23.2 Z M28.4,16.2 L33.4,16.2 L33.4,20.9 L28.4,20.9 L28.4,16.2 Z M5.3,29.1 L10.3,29.1 L10.3,33.9 L5.3,33.9 L5.3,29.1 Z M28.4,29.1 L33.4,29.1 L33.4,33.9 L28.4,33.9 L28.4,29.1 Z" id="Imported-Layers" fill="#91D851"></path>
    </g>
</svg>