<?xml version="1.0" encoding="UTF-8"?>
<svg width="80px" height="79px" viewBox="0 0 80 79" version="1.1" xmlns="http://www.w3.org/2000/svg" xmlns:xlink="http://www.w3.org/1999/xlink">
    <!-- Generator: Sketch 54.1 (76490) - https://sketchapp.com -->
    <title>male</title>
    <desc>Created with Sketch.</desc>
    <g id="Page-1" stroke="none" stroke-width="1" fill="none" fill-rule="evenodd">
        <g id="icons2" transform="translate(-246.000000, -370.000000)">
            <g id="Details-2" transform="translate(183.000000, -222.000000)">
                <g id="details-copy-4" transform="translate(20.000000, 520.000000)">
                    <g id="Text" transform="translate(44.000000, 22.000000)">
                        <g id="Gender" transform="translate(0.000000, 20.000000)">
                            <g id="male" transform="translate(0.000000, 31.000000)">
                                <path d="M77.1,38.5 C77.1,17.3 59.9,0.1 38.7,0.1 C17.5,0.1 0.3,17.3 0.3,38.5 C0.3,59.7 17.5,76.9 38.7,76.9 C59.9,76.9 77.1,59.7 77.1,38.5 Z" id="Fill-1_2_" fill="#323234" fill-rule="nonzero"></path>
                                <path d="M38.7,76.9 C59.9,76.9 77.1,59.7 77.1,38.5 C77.1,17.3 59.9,0.1 38.7,0.1 C17.5,0.1 0.3,17.3 0.3,38.5 C0.3,59.7 17.6,76.9 38.7,76.9 L38.7,76.9 Z" id="Stroke-3_2_" stroke="#9C1F9F" stroke-width="2"></path>
                                <path d="M69.3,53.3 C71.5,48.8 72.7,43.8 72.7,38.5 C72.7,19.7 57.4,4.5 38.7,4.5 C20,4.5 4.7,19.8 4.7,38.5 C4.7,53.1 14,65.6 27,70.4 C30.7,71.7 34.6,72.5 38.7,72.5 C52.2,72.5 63.8,64.7 69.3,53.3 Z" id="Stroke-6_2_" stroke="#9C1F9F" stroke-width="1.5" stroke-linecap="round" stroke-linejoin="round" stroke-dasharray="1,4"></path>
                                <circle id="Oval" stroke="#9C1F9F" stroke-width="4.33975838" stroke-linecap="round" stroke-linejoin="round" transform="translate(34.188520, 43.010280) rotate(-45.000000) translate(-34.188520, -43.010280) " cx="34.18852" cy="43.01028" r="13.3998715"></circle>
                                <path d="M43.7,33.5 L56.6,20.7" id="Shape" stroke="#9C1F9F" stroke-width="4.3398" stroke-linecap="round" stroke-linejoin="round"></path>
                                <polyline id="Shape" stroke="#9C1F9F" stroke-width="4.3398" stroke-linecap="round" stroke-linejoin="round" points="43.7 20.7 56.6 20.7 56.6 33.5"></polyline>
                            </g>
                        </g>
                    </g>
                </g>
            </g>
        </g>
    </g>
</svg>