<?xml version="1.0" encoding="UTF-8"?>
<svg width="81px" height="81px" viewBox="0 0 81 81" version="1.1" xmlns="http://www.w3.org/2000/svg" xmlns:xlink="http://www.w3.org/1999/xlink">
    <!-- Generator: Sketch 54.1 (76490) - https://sketchapp.com -->
    <title>Fuel type</title>
    <desc>Created with Sketch.</desc>
    <defs>
        <polygon id="path-1" points="0.000840890474 39.4417 39.44 39.4417 39.44 -0.0001 0.000840890474 -0.0001 0.000840890474 39.4417"></polygon>
    </defs>
    <g id="Page-1" stroke="none" stroke-width="1" fill="none" fill-rule="evenodd">
        <g id="icons2" transform="translate(-581.000000, -106.000000)">
            <g id="Details-2" transform="translate(183.000000, -222.000000)">
                <g id="details-copy-5" transform="translate(20.000000, 257.000000)">
                    <g id="Text" transform="translate(44.000000, 22.000000)">
                        <g id="incall" transform="translate(315.000000, 9.000000)">
                            <g id="Fuel-type" transform="translate(21.000000, 42.000000)">
                                <path d="M76.8564374,38.593565 C76.8564374,17.4230827 59.6410296,0.199619139 38.4811857,0.199619139 C17.3213419,0.199619139 0.105934056,17.4230827 0.105934056,38.593565 C0.105934056,59.7646468 17.3213419,76.9881104 38.4811857,76.9881104 C59.6410296,76.9881104 76.8564374,59.7646468 76.8564374,38.593565 Z" id="Fill-1" fill="#313133"></path>
                                <g id="Page-1" transform="translate(18.000000, 20.000000)">
                                    <mask id="mask-2" fill="white">
                                        <use xlink:href="#path-1"></use>
                                    </mask>
                                    <g id="Clip-2"></g>
                                    <path d="M39.4407,5.2289 L34.2117,-0.0001 L25.7327,8.4789 L22.1847,4.9299 L22.1847,17.2549 L34.5097,17.2549 L30.9617,13.7069 L39.4407,5.2289 Z M35.6267,36.0679 L33.0117,38.6829 C32.5447,39.1469 31.1777,39.4409 31.1367,39.4409 C22.8607,39.5099 14.8927,36.2599 9.0377,30.4039 C3.1647,24.5329 -0.0883,16.5329 0.0027,8.2329 C0.0027,8.2279 0.3017,6.8989 0.7677,6.4369 L3.3807,3.8199 C4.3407,2.8619 6.1777,2.4289 7.4637,2.8569 L8.0157,3.0429 C9.3017,3.4719 10.6467,4.8919 11.0037,6.1989 L12.3197,11.0299 C12.6767,12.3399 12.1967,14.2029 11.2387,15.1609 L9.4917,16.9089 C11.2057,23.2609 16.1867,28.2419 22.5367,29.9579 L24.2837,28.2109 C25.2427,27.2519 27.1107,26.7739 28.4197,27.1299 L33.2517,28.4499 C34.5557,28.8029 35.9757,30.1459 36.4067,31.4339 L36.5897,31.9859 C37.0177,33.2729 36.5857,35.1099 35.6267,36.0679 L35.6267,36.0679 Z" id="Fill-1" fill="#9C1F9F" mask="url(#mask-2)"></path>
                                </g>
                                <path d="M38.4811857,77.9881104 C16.7687401,77.9881104 -0.894065944,60.3166146 -0.894065944,38.593565 C-0.894065944,16.8710197 16.7688353,-0.800380861 38.4811857,-0.800380861 C60.1935361,-0.800380861 77.8564374,16.8710197 77.8564374,38.593565 C77.8564374,60.3166146 60.1936313,77.9881104 38.4811857,77.9881104 Z" id="Stroke-3" stroke="#9C1F9F" stroke-width="2"></path>
                                <path d="M69.0915904,53.3908192 C71.2620337,48.9145647 72.4798959,43.8936845 72.4798959,38.5935931 C72.4798959,19.8373424 57.2280112,4.57833281 38.4811857,4.57833281 C19.7343602,4.57833281 4.48247554,19.8373424 4.48247554,38.5935931 C4.48247554,53.2284636 13.7680595,65.7344902 26.7542296,70.5238671 C30.4113132,71.8726213 34.3618765,72.6093967 38.4811857,72.6093967 C51.9305832,72.6093967 63.5811512,64.7553769 69.0915904,53.3908192 Z" id="Stroke-6" stroke="#9C1F9F" stroke-width="1.5" stroke-linecap="round" stroke-linejoin="round" stroke-dasharray="1,4"></path>
                            </g>
                        </g>
                    </g>
                </g>
            </g>
        </g>
    </g>
</svg>