<?xml version="1.0" encoding="UTF-8"?>
<svg width="81px" height="81px" viewBox="0 0 81 81" version="1.1" xmlns="http://www.w3.org/2000/svg" xmlns:xlink="http://www.w3.org/1999/xlink">
    <!-- Generator: Sketch 54.1 (76490) - https://sketchapp.com -->
    <title>female</title>
    <desc>Created with Sketch.</desc>
    <g id="Page-1" stroke="none" stroke-width="1" fill="none" fill-rule="evenodd">
        <g id="icons2" transform="translate(-245.000000, -106.000000)">
            <g id="Details-2" transform="translate(183.000000, -222.000000)">
                <g id="details-copy-5" transform="translate(20.000000, 257.000000)">
                    <g id="Text" transform="translate(44.000000, 22.000000)">
                        <g id="Gender" transform="translate(0.000000, 20.000000)">
                            <g id="female" transform="translate(0.000000, 31.000000)">
                                <path d="M76.8564374,38.593565 C76.8564374,17.4230827 59.6410296,0.199619139 38.4811857,0.199619139 C17.3213419,0.199619139 0.105934056,17.4230827 0.105934056,38.593565 C0.105934056,59.7646468 17.3213419,76.9881104 38.4811857,76.9881104 C59.6410296,76.9881104 76.8564374,59.7646468 76.8564374,38.593565 Z" id="Fill-1" fill="#313133"></path>
                                <g id="Page-1" transform="translate(25.000000, 17.000000)" stroke="#9C1F9F" stroke-width="4.34">
                                    <path d="M13.5589,0.1696 C20.9549,0.1696 26.9489,6.1646 26.9489,13.5596 C26.9489,20.9536 20.9549,26.9486 13.5589,26.9486 C6.1639,26.9486 0.1699,20.9536 0.1699,13.5596 C0.1699,6.1646 6.1639,0.1696 13.5589,0.1696 Z" id="Stroke-1"></path>
                                    <path d="M13.5589,26.949 L13.5589,45.229" id="Stroke-3" stroke-linecap="round" stroke-linejoin="round"></path>
                                    <path d="M22.6791,36.1101 L4.4401,36.1101" id="Stroke-5" stroke-linecap="round" stroke-linejoin="round"></path>
                                </g>
                                <path d="M38.4811857,77.9881104 C16.7687401,77.9881104 -0.894065944,60.3166146 -0.894065944,38.593565 C-0.894065944,16.8710197 16.7688353,-0.800380861 38.4811857,-0.800380861 C60.1935361,-0.800380861 77.8564374,16.8710197 77.8564374,38.593565 C77.8564374,60.3166146 60.1936313,77.9881104 38.4811857,77.9881104 Z" id="Stroke-3" stroke="#9C1F9F" stroke-width="2"></path>
                                <path d="M69.0915904,53.3908192 C71.2620337,48.9145647 72.4798959,43.8936845 72.4798959,38.5935931 C72.4798959,19.8373424 57.2280112,4.57833281 38.4811857,4.57833281 C19.7343602,4.57833281 4.48247554,19.8373424 4.48247554,38.5935931 C4.48247554,53.2284636 13.7680595,65.7344902 26.7542296,70.5238671 C30.4113132,71.8726213 34.3618765,72.6093967 38.4811857,72.6093967 C51.9305832,72.6093967 63.5811512,64.7553769 69.0915904,53.3908192 Z" id="Stroke-6" stroke="#9C1F9F" stroke-width="1.5" stroke-linecap="round" stroke-linejoin="round" stroke-dasharray="1,4"></path>
                            </g>
                        </g>
                    </g>
                </g>
            </g>
        </g>
    </g>
</svg>