<svg width="20px" height="20px" viewBox="0 0 20 20" version="1.1" xmlns="http://www.w3.org/2000/svg" xmlns:xlink="http://www.w3.org/1999/xlink"><!-- Generator: Sketch 43.2 (39069) - http://www.bohemiancoding.com/sketch --><title>outcall-small</title><desc>Created with Sketch.</desc><defs/><g id="Page-1" stroke="none" stroke-width="1" fill="none" fill-rule="evenodd"><g id="Adult-Ad-Details" transform="translate(-219.000000, -2607.000000)" fill="#9C1F9F"><g id="Details-2" transform="translate(183.000000, 1525.000000)"><g id="Rates" transform="translate(18.000000, 854.000000)"><g id="Table"><g id="Engine-size" transform="translate(18.000000, 0.000000)"><g id="outcall-small" transform="translate(0.000000, 228.000000)"><path d="M11.2494406,6.09841818 L13.9010083,8.74998584 L18.2006147,4.45037938 L19.999766,6.25003775 L19.999766,0.000167532468 L13.7498958,0.000167532468 L15.5490471,1.79931881 L11.2494406,6.09841818 Z M18.0657291,18.2898486 L16.7401988,19.615886 C16.5033883,19.8511752 15.8101978,20.0002593 15.7894072,20.0002593 C11.5927398,20.0352484 7.55225573,18.3872096 4.58325045,15.4171902 C1.60461048,12.4400715 -0.0449495896,8.38386768 0.000688407887,4.17503013 C0.000688407887,4.17249468 0.152815066,3.49857359 0.389118476,3.26429853 L1.71464876,1.93724698 C2.20094698,1.45145585 3.13246922,1.23188638 3.78509258,1.44892041 L4.06449854,1.54323894 C4.71712191,1.76027297 5.39864934,2.48033915 5.57917297,3.1431043 L6.24751609,5.59335767 C6.42854682,6.25713699 6.18514416,7.20235063 5.69935303,7.68814176 L4.8129617,8.574026 C5.68211201,11.7955615 8.20842872,14.3208641 11.4279359,15.1915356 L12.3143272,14.3056514 C12.8001184,13.8193532 13.7473604,13.5769647 14.4111397,13.7574883 L16.860886,14.4263386 C17.5226369,14.605848 18.2427031,15.2868684 18.4617655,15.9399988 L18.5540557,16.2194048 C18.7715968,16.8725352 18.5515202,17.8035504 18.0657291,18.2898486 L18.0657291,18.2898486 Z" id="Fill-1"/></g></g></g></g></g></g></g></svg>