<?xml version="1.0" encoding="UTF-8"?>
<svg width="80px" height="79px" viewBox="0 0 80 79" version="1.1" xmlns="http://www.w3.org/2000/svg" xmlns:xlink="http://www.w3.org/1999/xlink">
    <!-- Generator: Sketch 54.1 (76490) - https://sketchapp.com -->
    <title>trans</title>
    <desc>Created with Sketch.</desc>
    <g id="Page-1" stroke="none" stroke-width="1" fill="none" fill-rule="evenodd">
        <g id="icons2" transform="translate(-246.000000, -602.000000)">
            <g id="Details-2" transform="translate(183.000000, -222.000000)">
                <g id="details-copy-2" transform="translate(20.000000, 752.000000)">
                    <g id="Text" transform="translate(44.000000, 22.000000)">
                        <g id="Gender" transform="translate(0.000000, 20.000000)">
                            <g id="trans" transform="translate(0.000000, 31.000000)">
                                <path d="M77.1,38.5 C77.1,17.3 59.9,0.1 38.7,0.1 C17.5,0.1 0.3,17.3 0.3,38.5 C0.3,59.7 17.5,76.9 38.7,76.9 C59.9,76.9 77.1,59.7 77.1,38.5 Z" id="Fill-1_4_" fill="#323234" fill-rule="nonzero"></path>
                                <path d="M38.7,76.9 C59.9,76.9 77.1,59.7 77.1,38.5 C77.1,17.3 59.9,0.1 38.7,0.1 C17.5,0.1 0.3,17.3 0.3,38.5 C0.3,59.7 17.6,76.9 38.7,76.9 L38.7,76.9 Z" id="Stroke-3_3_" stroke="#9C1F9F" stroke-width="2"></path>
                                <path d="M69.3,53.3 C71.5,48.8 72.7,43.8 72.7,38.5 C72.7,19.7 57.4,4.5 38.7,4.5 C20,4.5 4.7,19.8 4.7,38.5 C4.7,53.1 14,65.6 27,70.4 C30.7,71.7 34.6,72.5 38.7,72.5 C52.2,72.5 63.8,64.7 69.3,53.3 Z" id="Stroke-6_3_" stroke="#9C1F9F" stroke-width="1.5" stroke-linecap="round" stroke-linejoin="round" stroke-dasharray="1,4"></path>
                                <circle id="Oval" stroke="#9C1F9F" stroke-width="3.3111" cx="39.3" cy="37.4" r="10.2"></circle>
                                <path d="M39.3,47.6 L39.3,61.5" id="Shape" stroke="#9C1F9F" stroke-width="3.1175" stroke-linecap="round" stroke-linejoin="round"></path>
                                <path d="M46.3,54.6 L32.3,54.6" id="Shape" stroke="#9C1F9F" stroke-width="3.1175" stroke-linecap="round" stroke-linejoin="round"></path>
                                <path d="M30.5,24.3 L26.4,28.5" id="Shape" stroke="#9C1F9F" stroke-width="2.7018" stroke-linecap="round" stroke-linejoin="round"></path>
                                <path d="M31.7,29.9 L21.8,20" id="Shape" stroke="#9C1F9F" stroke-width="2.7018" stroke-linecap="round" stroke-linejoin="round"></path>
                                <polyline id="Shape" stroke="#9C1F9F" stroke-width="2.7018" stroke-linecap="round" stroke-linejoin="round" points="28.2 20 21.8 20 21.8 26.4"></polyline>
                                <path d="M45.8,29.9 L55.7,20" id="Shape" stroke="#9C1F9F" stroke-width="2.7018" stroke-linecap="round" stroke-linejoin="round"></path>
                                <polyline id="Shape" stroke="#9C1F9F" stroke-width="2.7018" stroke-linecap="round" stroke-linejoin="round" points="55.7 26.4 55.7 20 49.3 20"></polyline>
                            </g>
                        </g>
                    </g>
                </g>
            </g>
        </g>
    </g>
</svg>