<?xml version="1.0" encoding="UTF-8"?>
<svg width="80px" height="79px" viewBox="0 0 80 79" version="1.1" xmlns="http://www.w3.org/2000/svg" xmlns:xlink="http://www.w3.org/1999/xlink">
    <!-- Generator: Sketch 54.1 (76490) - https://sketchapp.com -->
    <title>couples</title>
    <desc>Created with Sketch.</desc>
    <g id="Page-1" stroke="none" stroke-width="1" fill="none" fill-rule="evenodd">
        <g id="icons2" transform="translate(-412.000000, -602.000000)">
            <g id="Details-2" transform="translate(183.000000, -222.000000)">
                <g id="details-copy-2" transform="translate(20.000000, 752.000000)">
                    <g id="Text" transform="translate(44.000000, 22.000000)">
                        <g id="Looking-for" transform="translate(147.000000, 20.000000)">
                            <g id="couples" transform="translate(19.000000, 31.000000)">
                                <path d="M77.2,38.5 C77.2,17.3 60,0.1 38.8,0.1 C17.6,0.1 0.4,17.3 0.4,38.5 C0.4,59.7 17.6,76.9 38.8,76.9 C60,76.9 77.2,59.7 77.2,38.5 Z" id="Fill-1_9_" fill="#323234" fill-rule="nonzero"></path>
                                <path d="M38.8,76.9 C60,76.9 77.2,59.7 77.2,38.5 C77.2,17.3 60,0.1 38.8,0.1 C17.6,0.1 0.4,17.3 0.4,38.5 C0.4,59.7 17.6,76.9 38.8,76.9 L38.8,76.9 Z" id="Stroke-3_8_" stroke="#9C1F9F" stroke-width="2"></path>
                                <path d="M69.4,53.3 C71.6,48.8 72.8,43.8 72.8,38.5 C72.8,19.7 57.5,4.5 38.8,4.5 C20.1,4.5 4.8,19.8 4.8,38.5 C4.8,53.1 14.1,65.6 27.1,70.4 C30.8,71.7 34.7,72.5 38.8,72.5 C52.2,72.5 63.9,64.7 69.4,53.3 Z" id="Stroke-6_8_" stroke="#9C1F9F" stroke-width="1.5" stroke-linecap="round" stroke-linejoin="round" stroke-dasharray="1,4"></path>
                                <circle id="Oval" fill="#9C1F9F" fill-rule="nonzero" cx="48.2" cy="22.7" r="4.9"></circle>
                                <path d="M55.2,28.2 L48.4,28.2 L48.2,28.2 L41.4,28.2 C39.4,28.2 37.8,29.8 37.8,31.8 L37.8,41 C37.8,42.1 38.7,42.9 39.7,42.9 C40.8,42.9 41.7,42 41.7,41 L41.7,33.6 C41.7,33.4 41.8,33.3 42,33.3 L42.5,33.3 C42.7,33.3 42.8,33.4 42.8,33.6 L42.8,52.5 C42.8,53.9 43.9,54.9 45.3,54.9 L45.5,54.9 C46.9,54.9 48,53.8 48,52.5 L48,43.2 C48,43 48.1,42.9 48.3,42.9 L48.4,42.9 L48.5,42.9 C48.7,42.9 48.8,43 48.8,43.2 L48.8,52.5 C48.8,53.9 49.9,54.9 51.2,54.9 L51.4,54.9 C52.8,54.9 53.8,53.8 53.8,52.5 L53.8,33.6 C53.8,33.4 53.9,33.3 54.1,33.3 L54.6,33.3 C54.8,33.3 54.9,33.4 54.9,33.6 L54.9,41 C54.9,42.1 55.8,42.9 56.8,42.9 C57.9,42.9 58.7,42 58.7,41 L58.7,31.8 C58.8,29.7 57.2,28.2 55.2,28.2 Z" id="Shape" stroke="#323234" stroke-width="0.2" fill="#9C1F9F" fill-rule="nonzero"></path>
                                <circle id="Oval" fill="#9C1F9F" fill-rule="nonzero" cx="27.6" cy="24.3" r="4.4"></circle>
                                <path d="M40.7,39.8 L34.3,30.3 C34.1,29.9 33.7,29.7 33.2,29.7 L27.6,29.7 L27.6,29.7 L22,29.7 C21.6,29.7 21.2,29.9 20.9,30.3 L14.5,39.8 C14.1,40.4 14.3,41.2 14.8,41.6 L15.9,42.4 C16.5,42.8 17.3,42.7 17.7,42.1 L23,34.6 C23.3,34.2 23.9,34.4 23.9,34.9 L23.9,37.4 C23.9,37.6 23.8,37.9 23.7,38.1 L18.8,46.2 C18.3,47.1 18.9,48.2 19.9,48.2 L23.7,48.2 L23.7,48.6 L23.7,52.9 C23.7,54.1 24.6,55 25.8,55 L29.5,55 C30.7,55 31.6,54.1 31.6,52.9 L31.6,48.6 L31.6,48.2 L35.3,48.2 C36.3,48.2 36.9,47.1 36.4,46.2 L31.5,38.1 C31.4,37.9 31.3,37.7 31.3,37.4 L31.3,34.9 C31.3,34.4 31.9,34.2 32.2,34.6 L37.5,42.1 C37.9,42.7 38.7,42.8 39.3,42.4 L40.4,41.6 C41,41.2 41.1,40.4 40.7,39.8 Z" id="Shape" fill="#9C1F9F" fill-rule="nonzero"></path>
                            </g>
                        </g>
                    </g>
                </g>
            </g>
        </g>
    </g>
</svg>