<?xml version="1.0" encoding="UTF-8"?>
<svg width="21px" height="21px" viewBox="0 0 21 21" version="1.1" xmlns="http://www.w3.org/2000/svg" xmlns:xlink="http://www.w3.org/1999/xlink">
    <title>incall-small</title>
    <desc>Created with Sketch.</desc>
    <defs>
        <polygon id="path-1" points="0.000439113176 20.5964637 20.595576 20.5964637 20.595576 -5.22200202e-05 0.000439113176 -5.22200202e-05 0.000439113176 20.5964637"></polygon>
    </defs>
    <g id="Page-1" stroke="none" stroke-width="1" fill="none" fill-rule="evenodd">
        <g id="Adult-Ad-Details" transform="translate(-219.000000, -2536.000000)">
            <g id="Details-2" transform="translate(183.000000, 1525.000000)">
                <g id="Rates" transform="translate(18.000000, 854.000000)">
                    <g id="Table">
                        <g id="image-+-Save-ad-2-+-Photos" transform="translate(0.000000, 56.000000)">
                            <g id="Ad1" transform="translate(0.000000, 72.000000)">
                                <g id="Fuel-type" transform="translate(16.000000, 24.000000)">
                                    <g id="incall-small" transform="translate(2.246753, 5.051948)">
                                        <mask id="mask-2" fill="white">
                                            <use xlink:href="#path-1"></use>
                                        </mask>
                                        <g id="Clip-2"></g>
                                        <path d="M20.0004391,2.65143089 L17.3488069,-5.22200202e-05 L13.0490958,4.29941714 L11.2499008,2.49981615 L11.2499008,8.74948709 L17.4999231,8.74948709 L15.700728,6.95039317 L20.0004391,2.65143089 Z M18.0663551,18.2890456 L16.7402855,19.6150407 C16.5034692,19.8503225 15.8102619,19.9994018 15.7894707,19.9994018 C11.5927012,20.0343899 7.55211878,18.3864036 4.58304124,15.4169859 C1.60483587,12.4399621 -0.0447643396,8.3833806 0.00138186985,4.17467726 C0.00138186985,4.17214189 0.15300513,3.49824228 0.38931429,3.2639747 L1.71436973,1.93696546 C2.20118689,1.45118983 3.1327318,1.23162735 3.78486395,1.44865446 L4.06478381,1.54296998 C4.71691596,1.76050417 5.39896707,2.48054739 5.5800022,3.1432914 L6.24734739,5.59295958 C6.42838252,6.2572248 6.18497394,7.20190123 5.69917099,7.68767687 L4.81326518,8.57403993 C5.68243665,11.7949657 8.20830774,14.3206948 11.4284004,15.1908315 L12.3143062,14.3049755 C12.8006162,13.8186928 13.7478813,13.576312 14.4116768,13.7568299 L16.8619898,14.4261659 C17.5232497,14.6051625 18.2433334,15.2861612 18.4618941,15.9392708 L18.5546936,16.2191749 C18.7717329,16.8717775 18.5526652,17.80327 18.0663551,18.2890456 L18.0663551,18.2890456 Z" id="Fill-1" fill="#9C1F9F" mask="url(#mask-2)"></path>
                                    </g>
                                </g>
                            </g>
                        </g>
                    </g>
                </g>
            </g>
        </g>
    </g>
</svg>
