<?xml version="1.0" encoding="UTF-8"?>
<svg width="81px" height="81px" viewBox="0 0 81 81" version="1.1" xmlns="http://www.w3.org/2000/svg" xmlns:xlink="http://www.w3.org/1999/xlink">
    <!-- Generator: Sketch 54.1 (76490) - https://sketchapp.com -->
    <title>women</title>
    <desc>Created with Sketch.</desc>
    <defs>
        <polygon id="path-1" points="0.5858 0.634 12.1128 0.634 12.1128 12.1594 0.5858 12.1594 0.5858 0.634"></polygon>
    </defs>
    <g id="Page-1" stroke="none" stroke-width="1" fill="none" fill-rule="evenodd">
        <g id="icons2" transform="translate(-412.000000, -369.000000)">
            <g id="Details-2" transform="translate(183.000000, -222.000000)">
                <g id="details-copy-4" transform="translate(20.000000, 520.000000)">
                    <g id="Text" transform="translate(44.000000, 22.000000)">
                        <g id="Looking-for" transform="translate(167.000000, 20.000000)">
                            <g id="women" transform="translate(0.000000, 31.000000)">
                                <path d="M76.8564374,38.593565 C76.8564374,17.4230827 59.6410296,0.199619139 38.4811857,0.199619139 C17.3213419,0.199619139 0.105934056,17.4230827 0.105934056,38.593565 C0.105934056,59.7646468 17.3213419,76.9881104 38.4811857,76.9881104 C59.6410296,76.9881104 76.8564374,59.7646468 76.8564374,38.593565 Z" id="Fill-1" fill="#313133"></path>
                                <g id="Page-1" transform="translate(21.000000, 15.000000)">
                                    <g id="Group-3" transform="translate(11.000000, 0.366400)">
                                        <mask id="mask-2" fill="white">
                                            <use xlink:href="#path-1"></use>
                                        </mask>
                                        <g id="Clip-2"></g>
                                        <path d="M6.3498,12.1594 C9.5328,12.1594 12.1128,9.5794 12.1128,6.3964 C12.1128,3.2134 9.5328,0.6334 6.3498,0.6334 C3.1668,0.6334 0.5858,3.2134 0.5858,6.3964 C0.5858,9.5794 3.1668,12.1594 6.3498,12.1594" id="Fill-1" fill="#9C1F9F" mask="url(#mask-2)"></path>
                                    </g>
                                    <g id="Group-6" transform="translate(0.000000, 13.366400)" fill="#9C1F9F">
                                        <path d="M34.2785,13.5623 L26.0065,1.1913 C25.6955,0.7293 25.1755,0.4503 24.6185,0.4503 L17.3125,0.4503 L17.2485,0.4503 L9.9425,0.4503 C9.3845,0.4503 8.8645,0.7293 8.5545,1.1913 L0.2815,13.5623 C-0.2245,14.3203 -0.0305,15.3433 0.7185,15.8623 L2.1595,16.8593 C2.9125,17.3803 3.9435,17.1983 4.4715,16.4513 L11.3215,6.7673 C11.6745,6.2663 12.4625,6.5173 12.4625,7.1293 L12.4625,10.4033 C12.4625,10.7083 12.3795,11.0083 12.2195,11.2693 L5.8865,21.7063 C5.2115,22.8183 6.0115,24.2403 7.3125,24.2403 L12.2795,24.2403 C12.2495,24.4013 12.2315,24.5673 12.2315,24.7373 L12.2315,30.2913 C12.2315,31.7873 13.4455,32.9993 14.9415,32.9993 L19.7575,32.9993 C21.2545,32.9993 22.4665,31.7873 22.4665,30.2913 L22.4665,24.7373 C22.4665,24.5673 22.4495,24.4013 22.4195,24.2403 L27.2475,24.2403 C28.5495,24.2403 29.3485,22.8183 28.6745,21.7063 L22.3405,11.2693 C22.1815,11.0083 22.0975,10.7083 22.0975,10.4033 L22.0975,7.1293 C22.0975,6.5173 22.8855,6.2663 23.2395,6.7673 L30.0885,16.4513 C30.6165,17.1983 31.6485,17.3803 32.4005,16.8593 L33.8415,15.8623 C34.5905,15.3433 34.7855,14.3203 34.2785,13.5623" id="Fill-4"></path>
                                    </g>
                                </g>
                                <path d="M38.4811857,77.9881104 C16.7687401,77.9881104 -0.894065944,60.3166146 -0.894065944,38.593565 C-0.894065944,16.8710197 16.7688353,-0.800380861 38.4811857,-0.800380861 C60.1935361,-0.800380861 77.8564374,16.8710197 77.8564374,38.593565 C77.8564374,60.3166146 60.1936313,77.9881104 38.4811857,77.9881104 Z" id="Stroke-3" stroke="#9C1F9F" stroke-width="2"></path>
                                <path d="M69.0915904,53.3908192 C71.2620337,48.9145647 72.4798959,43.8936845 72.4798959,38.5935931 C72.4798959,19.8373424 57.2280112,4.57833281 38.4811857,4.57833281 C19.7343602,4.57833281 4.48247554,19.8373424 4.48247554,38.5935931 C4.48247554,53.2284636 13.7680595,65.7344902 26.7542296,70.5238671 C30.4113132,71.8726213 34.3618765,72.6093967 38.4811857,72.6093967 C51.9305832,72.6093967 63.5811512,64.7553769 69.0915904,53.3908192 Z" id="Stroke-6" stroke="#9C1F9F" stroke-width="1.5" stroke-linecap="round" stroke-linejoin="round" stroke-dasharray="1,4"></path>
                            </g>
                        </g>
                    </g>
                </g>
            </g>
        </g>
    </g>
</svg>