<?xml version="1.0" encoding="UTF-8"?>
<svg width="81px" height="81px" viewBox="0 0 81 81" version="1.1" xmlns="http://www.w3.org/2000/svg" xmlns:xlink="http://www.w3.org/1999/xlink">
    <!-- Generator: Sketch 54.1 (76490) - https://sketchapp.com -->
    <title>Engine size Copy</title>
    <desc>Created with Sketch.</desc>
    <defs>
        <polygon id="path-1" points="39.44 0.0003 39.44 39.4417 0 39.4417 0 0.0003"></polygon>
    </defs>
    <g id="Page-1" stroke="none" stroke-width="1" fill="none" fill-rule="evenodd">
        <g id="icons2" transform="translate(-579.000000, -369.000000)">
            <g id="Details-2" transform="translate(183.000000, -222.000000)">
                <g id="details-copy-4" transform="translate(20.000000, 520.000000)">
                    <g id="Text" transform="translate(44.000000, 22.000000)">
                        <g id="Outcall" transform="translate(327.000000, 9.000000)">
                            <g id="Engine-size-Copy" transform="translate(7.000000, 42.000000)">
                                <path d="M76.8564374,38.593565 C76.8564374,17.4230827 59.6410296,0.199619139 38.4811857,0.199619139 C17.3213419,0.199619139 0.105934056,17.4230827 0.105934056,38.593565 C0.105934056,59.7646468 17.3213419,76.9881104 38.4811857,76.9881104 C59.6410296,76.9881104 76.8564374,59.7646468 76.8564374,38.593565 Z" id="Fill-1" fill="#313133"></path>
                                <g id="Page-1" transform="translate(18.000000, 19.000000)">
                                    <mask id="mask-2" fill="white">
                                        <use xlink:href="#path-1"></use>
                                    </mask>
                                    <g id="Clip-2"></g>
                                    <path d="M22.1844,12.0263 L27.4134,17.2553 L35.8924,8.7763 L39.4404,12.3253 L39.4404,0.0003 L27.1154,0.0003 L30.6634,3.5483 L22.1844,12.0263 Z M35.6264,36.0683 L33.0124,38.6833 C32.5454,39.1473 31.1784,39.4413 31.1374,39.4413 C22.8614,39.5103 14.8934,36.2603 9.0384,30.4033 C3.1644,24.5323 -0.0886,16.5333 0.0014,8.2333 C0.0014,8.2283 0.3014,6.8993 0.7674,6.4373 L3.3814,3.8203 C4.3404,2.8623 6.1774,2.4293 7.4644,2.8573 L8.0154,3.0433 C9.3024,3.4713 10.6464,4.8913 11.0024,6.1983 L12.3204,11.0303 C12.6774,12.3393 12.1974,14.2033 11.2394,15.1613 L9.4914,16.9083 C11.2054,23.2613 16.1874,28.2413 22.5364,29.9583 L24.2844,28.2113 C25.2424,27.2523 27.1104,26.7743 28.4194,27.1303 L33.2504,28.4493 C34.5554,28.8033 35.9754,30.1463 36.4074,31.4343 L36.5894,31.9853 C37.0184,33.2733 36.5844,35.1093 35.6264,36.0683 L35.6264,36.0683 Z" id="Fill-1" fill="#9C1F9F" mask="url(#mask-2)"></path>
                                </g>
                                <path d="M38.4811857,77.9881104 C16.7687401,77.9881104 -0.894065944,60.3166146 -0.894065944,38.593565 C-0.894065944,16.8710197 16.7688353,-0.800380861 38.4811857,-0.800380861 C60.1935361,-0.800380861 77.8564374,16.8710197 77.8564374,38.593565 C77.8564374,60.3166146 60.1936313,77.9881104 38.4811857,77.9881104 Z" id="Stroke-3" stroke="#9C1F9F" stroke-width="2"></path>
                                <path d="M69.0915904,53.3908192 C71.2620337,48.9145647 72.4798959,43.8936845 72.4798959,38.5935931 C72.4798959,19.8373424 57.2280112,4.57833281 38.4811857,4.57833281 C19.7343602,4.57833281 4.48247554,19.8373424 4.48247554,38.5935931 C4.48247554,53.2284636 13.7680595,65.7344902 26.7542296,70.5238671 C30.4113132,71.8726213 34.3618765,72.6093967 38.4811857,72.6093967 C51.9305832,72.6093967 63.5811512,64.7553769 69.0915904,53.3908192 Z" id="Stroke-6" stroke="#9C1F9F" stroke-width="1.5" stroke-linecap="round" stroke-linejoin="round" stroke-dasharray="1,4"></path>
                            </g>
                        </g>
                    </g>
                </g>
            </g>
        </g>
    </g>
</svg>