<?xml version="1.0" encoding="UTF-8"?>
<svg width="112px" height="112px" viewBox="0 0 112 112" version="1.1" xmlns="http://www.w3.org/2000/svg" xmlns:xlink="http://www.w3.org/1999/xlink">
    <!-- Generator: Sketch 63.1 (92452) - https://sketch.com -->
    <title>Motor Buttons / Motors / Normal / Ic-btn-Hatchback</title>
    <desc>Created with Sketch.</desc>
    <defs>
        <linearGradient x1="0%" y1="43.6193792%" x2="252.959821%" y2="76.0246723%" id="linearGradient-1">
            <stop stop-color="#A8DC28" offset="0%"></stop>
            <stop stop-color="#31C5F2" offset="100%"></stop>
        </linearGradient>
    </defs>
    <g id="Motor-Buttons-/-Motors-/-Normal-/-Ic-btn-Hatchback" stroke="none" stroke-width="1" fill="none" fill-rule="evenodd">
        <g id="Motor-Buttons-/-z.Base-/-Motors-/-Normal">
            <g id="Badge-/-z.Base-/-Large">
                <g id="Badge-/-z.Base-/-Shapes-/-Large" fill="#FFFFFF" fill-rule="evenodd" stroke="#CBD5D9" stroke-width="1">
                    <rect id="Rectangle" x="0.5" y="0.5" width="111" height="111" rx="4"></rect>
                </g>
                <text id="Category-name" font-family="Poppins-SemiBold, Poppins" font-size="14" font-weight="500" fill="#313133">
                    <tspan x="16.8" y="81">Hatchback</tspan>
                </text>
                <g id="Icon-/-Category-/-Motors-/-Hatchback" transform="translate(32.000000, 21.000000)" fill="url(#linearGradient-1)" fill-rule="evenodd" stroke-width="1">
                    <g id="Group-7" transform="translate(0.000000, 15.600000)">
                        <path d="M39.6743002,9.93948359 C41.6268499,9.93948359 43.2147559,11.5558624 43.2147559,13.5435117 C43.2147559,15.531161 41.6268499,17.1474514 39.6743002,17.1474514 C37.7215768,17.1474514 36.1337577,15.531161 36.1337577,13.5435117 C36.1337577,11.5558624 37.7215768,9.93948359 39.6743002,9.93948359 Z M9.93400361,9.78662828 C11.8866402,9.78662828 13.4745461,11.4029187 13.4745461,13.390568 C13.4745461,15.3783057 11.8866402,16.9945961 9.93400361,16.9945961 C7.98136706,16.9945961 6.3935479,15.3783057 6.3935479,13.390568 C6.3935479,11.4029187 7.98136706,9.78662828 9.93400361,9.78662828 Z M39.6743002,11.1190319 C38.3439277,11.1190319 37.2710018,12.211108 37.2710018,13.5653355 C37.2710018,14.919563 38.3439277,16.0117275 39.6743002,16.0117275 C41.0045859,16.0117275 42.0989512,14.8977392 42.0775117,13.5653355 C42.0775117,12.211108 41.0045859,11.1190319 39.6743002,11.1190319 Z M9.93400361,10.9442643 C8.6036311,10.9442643 7.53079206,12.0364289 7.53079206,13.390568 C7.53079206,14.7448838 8.6036311,15.83696 9.93400361,15.83696 C11.2643761,15.83696 12.337302,14.7448838 12.337302,13.390568 C12.337302,12.0364289 11.2643761,10.9442643 9.93400361,10.9442643 Z M6.15745387,0.634658833 C15.4057432,-0.370033577 22.5296203,0.17600451 22.5296203,0.17600451 C25.0402026,0.241564422 27.8940759,1.13704921 27.8940759,1.13704921 L27.8940759,1.13704921 L37.1851573,5.68029815 C40.2321591,5.98609714 44.9528246,7.34023624 44.9528246,7.34023624 C47.4204412,8.34501705 47.806698,10.2452826 47.806698,10.2452826 C48.3431175,12.0364289 47.4634069,13.8493107 47.4418806,13.8493107 C46.7706966,14.3115098 44.4649473,14.3484858 44.100323,14.3514438 L43.8370199,14.351701 C43.9014249,14.0677259 43.9228644,13.7619269 43.9228644,13.4561279 C43.9228644,11.053472 42.0131067,9.10955868 39.652774,9.10955868 C37.2924412,9.10955868 35.3827703,11.053472 35.3827703,13.4561279 C35.3827703,13.9148706 35.4470886,14.351701 35.5758119,14.7667077 L35.5758119,14.7667077 L35.3398047,14.7885315 L14.3543436,14.7885315 L13.9465606,14.7448838 C14.0968101,14.3298772 14.1612152,13.8711345 14.1612152,13.390568 C14.1612152,10.9880004 12.2514575,9.04399877 9.8911248,9.04399877 C7.53079206,9.04399877 5.62103436,10.9880004 5.62103436,13.390568 C5.62103436,13.5216878 5.64247378,13.6308955 5.64247378,13.7619269 L5.64247378,13.7619269 L5.47087161,13.740103 C4.48379024,13.5871594 0.256665461,12.5387309 0.256665461,12.5387309 L0.256665461,12.5387309 L0.0635370702,11.4903025 C-0.0223074141,10.6384654 0.707240505,10.2890187 0.707240505,10.2890187 L0.707240505,10.2890187 L0.707240505,7.0781733 C0.449793852,5.63656209 3.99024955,1.3772883 3.99024955,1.3772883 C4.247783,0.984193894 4.97733092,0.831250211 4.97733092,0.831250211 L4.97733092,0.831250211 Z M14.998047,7.38397233 L12.959566,7.38397233 L12.959566,7.79897894 L14.998047,7.79897894 L14.998047,7.38397233 Z M25.8770344,7.38397233 L23.8385533,7.38397233 L23.8385533,7.79897894 L25.8770344,7.79897894 L25.8770344,7.38397233 Z M22.5510596,1.09340151 L23.4952622,5.94236109 L28.9240362,6.24816008 C28.9240362,6.24816008 31.5847812,6.44475148 33.5802966,6.55395912 L33.5802966,6.55395912 L33.4730127,5.54917832 L33.3871682,4.80654885 C33.3871682,4.80654885 28.2588065,1.35546445 23.70983,1.15887306 C23.70983,1.15887306 23.3021338,1.13704921 22.5510596,1.09340151 L22.5510596,1.09340151 Z M21.2422134,1.04966545 C19.7615913,0.984193894 17.7016709,0.962281686 15.2984593,1.04966545 L15.2984593,1.04966545 L14.2684991,2.64422036 C13.4101411,4.04209553 13.7105533,5.04678795 13.9680868,5.50553062 L13.9680868,5.50553062 L21.3709367,5.83315347 Z M14.375783,1.0714893 C12.1227342,1.18069692 9.63359134,1.3772883 7.05869075,1.72682336 C7.05869075,1.72682336 6.11457506,1.77047106 5.74984448,2.31650915 L5.74984448,2.31650915 L4.82716818,3.67073662 C4.82716818,3.67073662 4.35506691,4.41336609 5.23477758,4.76290115 C5.23477758,4.76290115 5.85712841,5.11234785 6.99437251,5.17790777 L6.99437251,5.17790777 L11.5862278,5.37449915 Z" id="Combined-Shape"></path>
                    </g>
                </g>
            </g>
        </g>
    </g>
</svg>