<?xml version="1.0" encoding="UTF-8"?>
<svg width="112px" height="112px" viewBox="0 0 112 112" version="1.1" xmlns="http://www.w3.org/2000/svg" xmlns:xlink="http://www.w3.org/1999/xlink">
    <!-- Generator: Sketch 63.1 (92452) - https://sketch.com -->
    <title>Motor Buttons / Motors / Normal / Ic-btn-Convertibles</title>
    <desc>Created with Sketch.</desc>
    <defs>
        <linearGradient x1="0%" y1="45.2784734%" x2="252.959821%" y2="69.257716%" id="linearGradient-1">
            <stop stop-color="#A8DC28" offset="0%"></stop>
            <stop stop-color="#31C5F2" offset="100%"></stop>
        </linearGradient>
    </defs>
    <g id="Motor-Buttons-/-Motors-/-Normal-/-Ic-btn-Convertibles" stroke="none" stroke-width="1" fill="none" fill-rule="evenodd">
        <g id="Motor-Buttons-/-z.Base-/-Motors-/-Normal">
            <g id="Badge-/-z.Base-/-Large">
                <g id="Badge-/-z.Base-/-Shapes-/-Large" fill="#FFFFFF" fill-rule="evenodd" stroke="#CBD5D9" stroke-width="1">
                    <rect id="Rectangle" x="0.5" y="0.5" width="111" height="111" rx="4"></rect>
                </g>
                <text id="Category-name" font-family="Poppins-SemiBold, Poppins" font-size="14" font-weight="500" fill="#313133">
                    <tspan x="10.633" y="81">Convertibles</tspan>
                </text>
                <g id="Icon-/-Category-/-Motors-/-Convertibles" transform="translate(32.000000, 21.000000)" fill="url(#linearGradient-1)" fill-rule="evenodd" stroke-width="1">
                    <g id="Group-5" transform="translate(0.000000, 16.800000)">
                        <path d="M10.0961115,7.90695026 C12.0534705,7.90695026 13.6400452,9.46817729 13.6400452,11.3939429 C13.6400452,13.3194476 12.0534705,14.8804137 10.0961115,14.8804137 C8.13875249,14.8804137 6.55217778,13.3194476 6.55217778,11.3939429 C6.55217778,9.46817729 8.13875249,7.90695026 10.0961115,7.90695026 Z M41.2568425,7.90695026 C43.2142015,7.90695026 44.8007762,9.46817729 44.8007762,11.3939429 C44.8007762,13.3194476 43.2142015,14.8804137 41.2568425,14.8804137 C39.2997487,14.8804137 37.7129087,13.3194476 37.7129087,11.3939429 C37.7129087,9.46817729 39.2997487,7.90695026 41.2568425,7.90695026 Z M10.0961115,8.74797223 C8.61085268,8.74797223 7.40673206,9.93265731 7.40673206,11.3939429 C7.40673206,12.8549675 8.61085268,14.0396526 10.0961115,14.0396526 C11.5813704,14.0396526 12.7852257,12.8549675 12.7852257,11.3939429 C12.7852257,9.93265731 11.5813704,8.74797223 10.0961115,8.74797223 Z M41.2568425,8.74797223 C39.7715836,8.74797223 38.5677282,9.93265731 38.5677282,11.3939429 C38.5677282,12.8549675 39.7715836,14.0396526 41.2568425,14.0396526 C42.7421013,14.0396526 43.9462219,12.8549675 43.9462219,11.3939429 C43.9462219,9.93265731 42.7421013,8.74797223 41.2568425,8.74797223 Z M32.3996604,3.50613222 C32.7102386,3.68905386 35.3494905,4.85834325 37.0379116,5.15634112 L37.0470619,5.15735228 L37.0562121,5.15816773 L43.953383,6.1398385 C44.6458849,6.23847528 45.316108,6.48271872 45.8725496,6.89996792 C47.7967555,8.34272646 47.954299,11.3761987 47.954299,11.3761987 L47.9520446,11.4024236 L47.9520446,11.4024236 L47.9513815,12.1300655 L45.357483,12.1300655 C45.4004495,11.8933894 45.4267067,11.6512335 45.4267067,11.4022931 C45.4267067,9.12555802 43.5507717,7.27990219 41.2364201,7.27990219 C38.9223338,7.27990219 37.0463988,9.12555802 37.0463988,11.4022931 C37.0463988,11.5682534 37.0579508,11.7311983 37.0783829,11.8915145 L37.1153572,12.1300655 L14.208422,12.1300655 C14.2513884,11.8933894 14.2776457,11.6509726 14.2776457,11.4022931 C14.2776457,9.12555802 12.4014455,7.27990219 10.0873591,7.27990219 C7.77327274,7.27990219 5.89707253,9.12555802 5.89707253,11.4022931 C5.89707253,11.5417415 5.90657818,11.8162962 5.92178723,12.0065806 L5.934204,12.1300655 L3.45745038,12.1295014 C3.28207342,12.1168412 0.388353496,11.8715492 0.388353496,9.46922106 C0.388353496,9.46922106 0.170869162,7.46021435 2.12186277,6.99625622 C2.12981951,6.99651716 2.34995609,6.97746822 2.4419891,6.94197988 C2.47699877,6.93702197 2.54330497,6.89266146 2.54330497,6.89266146 C2.7918206,6.75514409 2.96156447,6.4962878 2.96156447,6.19568049 C2.96156447,5.93264907 2.83160432,5.7015833 2.63262823,5.55580079 L2.54330497,5.49869945 L2.54330497,4.68507653 L20.0651159,4.70047222 L20.0643855,4.5888097 C20.0605571,3.98909502 20.0436422,1.14847659 20.0614028,0.365412051 C21.2257397,0.304090246 25.6107012,-0.490483774 32.3996604,3.50613222 Z M23.0754174,7.68253854 L21.167125,7.68253854 L21.167125,8.34507494 L23.0754174,8.34507494 L23.0754174,7.68253854 Z M21.6754633,1.26496507 L21.3315644,1.28210779 L21.3315644,4.71978206 L33.0767793,5.07153437 L29.8049662,3.17682108 C29.8049662,3.17682108 26.6769513,1.06675979 21.6754633,1.26496507 Z" id="Combined-Shape"></path>
                    </g>
                </g>
            </g>
        </g>
    </g>
</svg>