<?xml version="1.0" encoding="UTF-8"?>
<svg width="112px" height="112px" viewBox="0 0 112 112" version="1.1" xmlns="http://www.w3.org/2000/svg" xmlns:xlink="http://www.w3.org/1999/xlink" style="background: #FFFFFF;">
    <!-- Generator: Sketch 63.1 (92452) - https://sketch.com -->
    <title>Motor Buttons / Motors / Selected / Ic-btn-Estates-ON</title>
    <desc>Created with Sketch.</desc>
    <defs>
        <linearGradient x1="0%" y1="43.6193792%" x2="100%" y2="56.3806208%" id="linearGradient-1">
            <stop stop-color="#A8DC28" offset="0%"></stop>
            <stop stop-color="#79D378" offset="100%"></stop>
        </linearGradient>
    </defs>
    <g id="Motor-Buttons-/-Motors-/-Selected-/-Ic-btn-Estates-ON" stroke="none" stroke-width="1" fill="none" fill-rule="evenodd">
        <rect fill="#FFFFFF" x="0" y="0" width="112" height="112"></rect>
        <g id="Badge-/-z.Base-/-Large">
            <g id="Badge-/-z.Base-/-Shapes-/-Large" stroke="#91D851" stroke-width="3">
                <rect id="Rectangle" x="1.5" y="1.5" width="109" height="109" rx="4"></rect>
            </g>
            <text id="Category-name" font-family="Poppins-SemiBold, Poppins" font-size="14" font-weight="500" fill="#82C148">
                <tspan x="30.114" y="81">Estates</tspan>
            </text>
            <g id="Icon-/-Category-/-Motors-/-Estates" transform="translate(32.000000, 21.000000)" fill="url(#linearGradient-1)" fill-rule="evenodd" stroke-width="1">
                <g id="Group" transform="translate(0.000000, 15.600000)">
                    <path d="M39.6177855,9.91160389 C41.5703353,9.91160389 43.1582412,11.5279827 43.1582412,13.515632 C43.1582412,15.5032813 41.5703353,17.1195717 39.6177855,17.1195717 C37.6650622,17.1195717 36.077243,15.5032813 36.077243,13.515632 C36.077243,11.5279827 37.6650622,9.91160389 39.6177855,9.91160389 Z M9.87748893,9.75874858 C11.8301255,9.75874858 13.4180314,11.375039 13.4180314,13.3626883 C13.4180314,15.350426 11.8301255,16.9667164 9.87748893,16.9667164 C7.92485239,16.9667164 6.33703322,15.350426 6.33703322,13.3626883 C6.33703322,11.375039 7.92485239,9.75874858 9.87748893,9.75874858 Z M39.6177855,11.0911522 C38.287413,11.0911522 37.2144872,12.1832283 37.2144872,13.5374558 C37.2144872,14.8916833 38.287413,15.9838478 39.6177855,15.9838478 C40.9480712,15.9838478 42.0424365,14.8698595 42.0209971,13.5374558 C42.0209971,12.1832283 40.9480712,11.0911522 39.6177855,11.0911522 Z M9.87748893,10.9163846 C8.54711642,10.9163846 7.47427738,12.0085492 7.47427738,13.3626883 C7.47427738,14.7170041 8.54711642,15.8090803 9.87748893,15.8090803 C11.2078614,15.8090803 12.2807873,14.7170041 12.2807873,13.3626883 C12.2807873,12.0085492 11.2078614,10.9163846 9.87748893,10.9163846 Z M6.10093919,0.606779131 C15.3492286,-0.39791328 22.4731056,0.148124808 22.4731056,0.148124808 C24.9836879,0.21368472 27.8375612,1.10916951 27.8375612,1.10916951 L27.8375612,1.10916951 L37.1286427,5.65241845 C40.1756444,5.95821744 44.8963099,7.31235653 44.8963099,7.31235653 C47.3639265,8.31713735 47.7501834,10.2174029 47.7501834,10.2174029 C48.2866028,12.0085492 47.4068922,13.821431 47.385366,13.821431 C46.7141819,14.2836301 44.4084326,14.320606 44.0438083,14.3235641 L43.7805052,14.3238213 C43.8449103,14.0398462 43.8663497,13.7340472 43.8663497,13.4282482 C43.8663497,11.0255923 41.956592,9.08167897 39.5962593,9.08167897 C37.2359265,9.08167897 35.3262557,11.0255923 35.3262557,13.4282482 C35.3262557,13.8869909 35.3905739,14.3238213 35.5192973,14.738828 L35.5192973,14.738828 L35.28329,14.7606518 L14.2978289,14.7606518 L13.8900459,14.7170041 C14.0402954,14.3019975 14.1047005,13.8432548 14.1047005,13.3626883 C14.1047005,10.9601207 12.1949428,9.01611907 9.83461012,9.01611907 C7.47427738,9.01611907 5.56451968,10.9601207 5.56451968,13.3626883 C5.56451968,13.4938081 5.5859591,13.6030158 5.5859591,13.7340472 L5.5859591,13.7340472 L5.41435693,13.7122233 C4.42727556,13.5592797 0.200150783,12.5108512 0.200150783,12.5108512 L0.200150783,12.5108512 L0.00702239205,11.4624228 C-0.0788220923,10.6105857 0.650725827,10.261139 0.650725827,10.261139 L0.650725827,10.261139 L0.650725827,7.0502936 C0.393279174,5.60868239 3.93373487,1.3494086 3.93373487,1.3494086 C4.19126832,0.956314192 4.92081625,0.803370509 4.92081625,0.803370509 L4.92081625,0.803370509 Z M14.9415324,7.35609263 L12.9030513,7.35609263 L12.9030513,7.77109924 L14.9415324,7.77109924 L14.9415324,7.35609263 Z M25.8205197,7.35609263 L23.7820387,7.35609263 L23.7820387,7.77109924 L25.8205197,7.77109924 L25.8205197,7.35609263 Z M22.494545,1.06552181 L23.4387475,5.91448139 L28.8675215,6.22028038 C28.8675215,6.22028038 31.5282665,6.41687178 33.5237819,6.52607941 L33.5237819,6.52607941 L33.416498,5.52129862 L33.3306535,4.77866915 C33.3306535,4.77866915 28.2022918,1.32758475 23.6533153,1.13099336 C23.6533153,1.13099336 23.2456191,1.10916951 22.494545,1.06552181 L22.494545,1.06552181 Z M21.1856987,1.02178575 C19.7050767,0.956314192 17.6451562,0.934401984 15.2419446,1.02178575 L15.2419446,1.02178575 L14.2119844,2.61634066 C13.3536264,4.01421583 13.6540387,5.01890824 13.9115721,5.47765092 L13.9115721,5.47765092 L21.314422,5.80527377 Z M14.3192683,1.0436096 C12.0662195,1.15281722 9.57707666,1.3494086 7.00217607,1.69894366 C7.00217607,1.69894366 6.05806039,1.74259136 5.6933298,2.28862945 L5.6933298,2.28862945 L4.7706535,3.64285692 C4.7706535,3.64285692 4.29855223,4.38548639 5.1782629,4.73502145 C5.1782629,4.73502145 5.80061373,5.08446815 6.93785783,5.15002807 L6.93785783,5.15002807 L11.5297131,5.34661945 Z" id="Combined-Shape"></path>
                </g>
            </g>
        </g>
        <g id="Icon-/-Check-/-Checkbox" transform="translate(80.000000, 8.000000)" fill="#91D851">
            <path d="M10.9709463,13.366529 L16.3112027,6.57437624 C16.8225102,5.92405564 17.7675383,5.80875183 18.4219821,6.31683796 C19.0764259,6.8249241 19.1924607,7.76399831 18.6811532,8.41431891 C14.2260171,13.9508613 11.8927875,16.7447414 11.6814646,16.7959592 C11.0876228,17.1417187 10.3115238,17.0459069 9.82251261,16.5248105 L6.403984,12.8819836 C5.83758363,12.2784203 5.87081232,11.3328702 6.47820235,10.7700383 C7.08559238,10.2072064 8.0371375,10.2402257 8.60353787,10.843789 L10.9709463,13.366529 Z" id="Path"></path>
        </g>
    </g>
</svg>