<svg id="Layer_1" data-name="Layer 1" xmlns="http://www.w3.org/2000/svg" xmlns:xlink="http://www.w3.org/1999/xlink" viewBox="0 0 1000 1000"><defs><style>.cls-1{fill:#212527;}.cls-1,.cls-2{fill-rule:evenodd;}.cls-2{fill:url(#linear-gradient);}.cls-3{fill:#fff;}</style><linearGradient id="linear-gradient" x1="-1785.37" y1="1605.79" x2="-1763.08" y2="1619.32" gradientTransform="translate(82736.98 -57387.97) scale(46.29 36)" gradientUnits="userSpaceOnUse"><stop offset="0" stop-color="#a8dc28"/><stop offset="1" stop-color="#31c5f2"/></linearGradient></defs><title>bimi-lmp-fridayad</title><path class="cls-1" d="M594.7,518.5,619.36,441h.89l24.66,77.52Zm99.54,46.69L639.63,411.91h-59v21.14l15.86,1.76L552.41,558.14c-1.76,5.29-2.64,7.05-7.92,7.05l-8.81.88v22H599.1v-22.9l-17.62.88,7-22H652l5.28,15c1.77,6.17.88,6.17-5.28,7.05h-8.81v22h68.71v-22.9Zm110.12,0H779.69V437.45h21.14c29.07,0,52.86,14.1,52.86,61.67,0,43.16-18.5,66.07-49.33,66.07M802.6,411.91H729.48v22l15.86.88V558.14c0,5.29-2.65,7.05-7.05,7.05l-8.81.88v22h74.88c43.16,0,82.8-24.66,82.8-94.26,0-55.49-32.59-81.92-84.56-81.92"/><path class="cls-2" d="M352.45,341.43c41.4,0,72.23,37,80.16,44.93h0l79.28,88.09c11.45,12.34,11.45,31.72.88,44.93h0L432.61,620.69c-6.17,9.69-37.88,37.88-80.16,37.88H183.31a70.68,70.68,0,0,1-70.47-70.48h0V411.91a70.68,70.68,0,0,1,70.47-70.48H352.45Zm-17.62,70.48H202.69v22.9l15.86.88V558.14c0,5.29-3.53,6.17-7.93,7.05h0l-8.81.88v22h74.88v-22.9L252,564.31v-52h67V485H252V438.34h45.81c7.05,0,7.93,2.64,7.93,7.92h0V456L334,454.19V411.91ZM453.75,477.1H452a23.32,23.32,0,0,0-22.9,22.9A22.74,22.74,0,0,0,452,522.9a23.32,23.32,0,0,0,22.9-22.9c0-13.21-9.69-23.78-22.9-22.9Z"/><path class="cls-3" d="M500,1000h500V500C1000,776.14,776.14,1000,500,1000Z"/><path class="cls-3" d="M500,0c276.14,0,500,223.86,500,500V0Z"/><path class="cls-3" d="M0,500v500H500C223.86,1000,0,776.14,0,500Z"/><path class="cls-3" d="M500,0H0V500C0,223.86,223.86,0,500,0Z"/></svg>